<svg width="677" height="548" viewBox="0 0 677 548" fill="none" xmlns="http://www.w3.org/2000/svg">
<g clip-path="url(#clip0_4132_28204)">
<path d="M677.001 296.937C677.107 365.899 653.076 432.724 609.076 485.824C590.404 508.394 568.51 528.091 544.099 544.281C542.652 545.252 541.205 546.113 539.74 547.12H63.6957C63.421 546.186 63.1646 545.288 62.9266 544.281C57.3289 522.396 59.7218 499.231 69.6751 478.952C79.6284 458.672 96.4893 442.609 117.227 433.649C89.1034 379.414 78.4085 317.821 86.6028 257.281C94.7971 196.741 121.481 140.206 163.01 95.3998C204.538 50.5933 258.887 19.6995 318.631 6.93839C378.375 -5.82275 440.603 0.170972 496.813 24.1009C501.352 17.5906 507.13 12.0381 513.815 7.76057C520.5 3.48301 527.962 0.564094 535.776 -0.829529C543.589 -2.22315 551.6 -2.06419 559.352 -0.361712C567.104 1.34077 574.445 4.55342 580.955 9.09282C587.465 13.6322 593.018 19.4095 597.295 26.0947C601.573 32.78 604.492 40.2423 605.885 48.0556C607.279 55.8689 607.12 63.8801 605.418 71.632C603.715 79.3839 600.503 86.7245 595.963 93.2348C648.092 148.235 677.102 221.158 677.001 296.937Z" fill="#FEFEFE"/>
<path d="M609.074 485.824C590.402 508.394 568.508 528.091 544.097 544.281C542.651 545.252 541.204 546.113 539.739 547.12H63.6942C63.4195 546.186 63.1631 545.289 62.925 544.281C59.9761 532.686 59.2306 520.641 60.7274 508.771C68.5572 501.178 78.2863 495.833 88.8938 493.296C120.796 485.842 143.413 512.617 143.413 512.617C143.413 512.617 142.077 500.915 151.838 496.922C161.599 492.93 169.345 502.251 169.547 502.416C169.419 501.702 158.009 442.696 227.62 430.352C297.651 417.954 317.155 476.905 317.155 476.905C317.155 476.905 323.363 445.882 347.299 446.322C353.957 446.313 360.457 448.348 365.923 452.15C371.389 455.952 375.556 461.339 377.864 467.584C377.864 467.584 405.335 440.113 432.384 446.322C459.433 452.53 463.865 480.257 463.865 480.257C468.291 476.98 473.398 474.743 478.807 473.713C484.216 472.682 489.788 472.885 495.108 474.305C513.422 479.121 514.393 499.285 514.393 499.285C514.393 499.285 559.902 447.878 609.074 485.824Z" fill="#007BFC"/>
<path d="M627.791 545.692C627.804 545.865 627.782 546.039 627.727 546.204C627.672 546.369 627.585 546.521 627.471 546.652C627.357 546.783 627.218 546.89 627.063 546.968C626.907 547.045 626.738 547.091 626.564 547.102H1.22717C1.05228 547.093 0.880966 547.049 0.72328 546.973C0.565594 546.896 0.424685 546.79 0.308753 546.658C0.192821 546.527 0.104218 546.374 0.0480879 546.208C-0.00804253 546.042 -0.0305492 545.867 -0.0181403 545.692C-0.0305852 545.516 -0.00822029 545.34 0.0476967 545.173C0.103614 545.006 0.191975 544.852 0.307691 544.719C0.423407 544.586 0.564201 544.478 0.721995 544.4C0.879789 544.321 1.05147 544.275 1.22717 544.264H626.564C626.916 544.292 627.242 544.458 627.472 544.725C627.702 544.993 627.817 545.34 627.791 545.692Z" fill="#007BFC"/>
<path d="M245.275 136.712C244.959 133.708 245.164 130.673 245.879 127.738L232.693 135.448L232.95 136.456C237.004 137.327 241.188 137.414 245.275 136.712Z" fill="#F3417D"/>
<path d="M245.274 136.711C241.187 137.414 237.004 137.327 232.949 136.455L237.161 153.102C237.161 153.102 261.903 163.248 251.977 152.077C248.133 147.819 245.781 142.425 245.274 136.711Z" fill="#FF7BA9"/>
<path d="M252.581 108.674C252.581 108.674 263.331 126.328 260.492 129.973C257.654 133.617 232.692 135.467 232.692 135.467C232.692 135.467 197.402 114.552 252.581 108.674Z" fill="#FF7BA9"/>
<path d="M228.316 119.827C228.316 119.827 270.089 110.67 265.236 100.359C260.383 90.0489 208.024 110.304 211.467 121.658C214.91 133.013 232.693 135.467 232.693 135.467L229.451 124.314C229.451 124.314 222.346 124.717 223.17 120.449C223.994 116.182 228.316 119.827 228.316 119.827Z" fill="#080C53"/>
<path d="M265.549 249.652L308.219 340.873C309.147 342.851 309.314 345.102 308.689 347.196C308.065 349.289 306.691 351.08 304.831 352.227L198.063 417.845L193.191 352.135L265.549 337.485L246.118 252.29L265.549 249.652Z" fill="#F3A769"/>
<path d="M265.549 249.652L246.118 252.326L265.549 337.521L193.191 352.172L196.341 394.641L295.235 341.385L283.771 337.32C274.815 319.519 267.948 278.606 268.149 255.146L265.549 249.652Z" fill="#EB8B3B"/>
<path d="M250.146 263.845C255.033 262.609 259.728 260.711 264.101 258.204C264.92 255.421 265.406 252.55 265.548 249.652C266.28 234.305 211.23 249.652 211.23 249.652C210.819 252.514 210.708 255.411 210.9 258.296C221.65 266.226 236.942 266.977 250.146 263.845Z" fill="#EB8B3B"/>
<path d="M254.322 275.456C258.858 270.528 262.203 264.627 264.101 258.204C259.728 260.711 255.033 262.609 250.146 263.845C236.942 266.976 221.65 266.226 210.9 258.351C211.322 264.998 213.519 273.716 221.577 277.708L249.744 368.049L221.577 476.796L272.269 499.395L281.28 363.361C281.348 362.371 281.23 361.377 280.932 360.431L254.322 275.456Z" fill="#F3A769"/>
<path d="M227.016 274.815C220.716 272.159 216.669 266.336 214.087 260.365C212.986 259.738 211.922 259.047 210.9 258.296C211.322 264.944 213.519 273.661 221.577 277.653L249.744 368.049L221.577 476.796L246.63 488.004L264.303 360.01L254.981 370.412L227.016 274.815Z" fill="#EB8B3B"/>
<path d="M259.302 145.795H241.282L220.258 152.681C221.261 153.248 222.295 153.762 223.353 154.219C235.898 157.552 250.42 156.142 259.302 145.795Z" fill="#FF7BA9"/>
<path d="M259.303 145.795C250.421 156.142 235.898 157.552 223.354 154.219C229.853 157.122 237.112 157.867 244.066 156.344C250.974 155.029 257.184 151.287 261.574 145.795H259.303Z" fill="#F3417D"/>
<path d="M189.967 196.231L191.633 194.4C187.385 188.905 181.213 185.353 174.51 185.829L174.4 185.92C177.615 186.32 180.694 187.459 183.395 189.247C186.095 191.036 188.345 193.427 189.967 196.231Z" fill="#F3417D"/>
<path d="M176.178 277.782C176.619 275.673 176.289 273.476 175.247 271.591C174.205 269.705 172.521 268.257 170.5 267.508L171.544 250.092C169.713 256.575 168.046 263.058 166.16 269.541C171.032 270.347 176.709 274.394 174.273 280.09C177.679 280.09 183.631 279.155 185.957 281.719C186.543 278.313 182.423 276.83 176.178 277.782Z" fill="#F3417D"/>
<path d="M174.272 280.144C176.707 274.448 171.03 270.401 166.159 269.595C167.99 263.112 169.821 256.629 171.543 250.146L173.74 213.739L189.966 196.286C187.229 191.643 182.83 188.213 177.66 186.689C165.536 199.271 155.207 213.189 149.53 230.239C145.061 243.224 146.691 256.611 143.45 269.174C142.626 271.61 136.124 275.272 138.175 280.162C141.838 288.678 151.16 287.048 158.046 284.612C154.639 292.561 148.431 299.08 146.288 307.486L146.417 307.614C150.739 310.856 166.708 295.71 166.983 285.162C167.257 274.613 175.096 294.63 182.384 287.323C184.118 285.89 185.392 283.98 186.047 281.829C183.63 279.155 177.678 280.144 174.272 280.144Z" fill="#FF7BA9"/>
<path d="M138.176 280.144C136.144 275.272 142.626 271.61 143.451 269.156C146.692 256.592 145.062 243.205 149.531 230.221C155.208 213.171 165.537 199.252 177.661 186.671C176.595 186.358 175.504 186.138 174.401 186.012C166.863 192.301 159.94 199.291 153.725 206.889C137.499 228.243 137.242 267.745 137.242 267.745C137.242 267.745 126.071 280.73 137.242 289.099C139.326 290.735 141.839 291.734 144.477 291.974C147.116 292.215 149.768 291.687 152.113 290.454C152.113 290.454 142.352 303.933 146.308 307.376C148.45 298.97 154.659 292.451 158.065 284.502C151.161 286.975 141.821 288.605 138.176 280.144Z" fill="#F3417D"/>
<path d="M202 163.999C194.107 169.859 183.906 177.716 174.529 185.884C175.752 185.798 176.98 185.847 178.192 186.03C185.701 178.339 193.85 171.123 202 163.999Z" fill="#FBD5AF"/>
<path d="M193.832 192.092L209.655 175.079C207.768 173.346 205.699 171.823 203.483 170.537C200.736 177.899 197.275 185.023 193.832 192.092Z" fill="#FBD5AF"/>
<path d="M265.969 153.103C266.665 154.678 267.452 156.198 268.203 157.699L269.485 157.315C269.485 157.315 285.125 158.505 301.461 157.919C301.028 156.719 300.662 155.496 300.362 154.256C288.891 155.174 277.353 154.787 265.969 153.103Z" fill="#FBD5AF"/>
<path d="M300.398 138.653L265.602 145.796H261.628C257.238 151.288 251.028 155.03 244.12 156.344C236.005 158.114 227.521 156.809 220.313 152.682L215.716 154.183C215.716 154.183 210.075 158.047 202.054 163.999C193.904 171.123 185.755 178.339 178.246 185.976C183.617 186.992 188.406 190.001 191.652 194.4L193.849 192.038C197.292 184.969 200.754 177.844 203.501 170.482C205.716 171.768 207.786 173.291 209.672 175.024L210.002 174.676L268.221 157.645C267.47 156.143 266.683 154.623 265.987 153.048C277.368 154.756 288.906 155.168 300.38 154.275C299.04 149.153 299.046 143.772 300.398 138.653Z" fill="#FFDFBF"/>
<path d="M300.654 138.598H300.398C298.733 144.973 299.104 151.71 301.46 157.864H303.291C300.762 151.777 299.853 145.14 300.654 138.598Z" fill="#F3417D"/>
<path d="M326.019 151.473C318.034 152.608 310.013 153.615 301.955 154.201C302.336 155.45 302.794 156.673 303.329 157.864C312.797 157.461 322.302 156.417 328.968 154.201C339.205 150.777 347.977 134.056 353.819 119.644C345.182 130.787 335.899 141.415 326.019 151.473Z" fill="#F3417D"/>
<path d="M332.502 73.2002C327.869 75.6908 322.32 75.9839 317.192 76.0205C312.302 82.8148 329.535 77.6504 329.535 77.6504C329.535 77.6504 326.147 88.1991 330.872 92.1182L319.041 126.639C325.396 115.743 330.964 104.663 337.355 93.4734C330.066 89.4078 330.872 80.0678 332.502 73.2002Z" fill="#F3417D"/>
<path d="M341.421 76.8625C347.923 79.2982 357.244 82.1368 358.874 89.8469C358.471 81.734 350.761 78.0712 347.52 71.9911C342.337 62.8343 348.087 52.1391 349.076 42.1582C344.589 51.5897 340.029 74.1155 340.029 74.1155C339.042 72.953 337.895 71.9357 336.623 71.0937C338.473 73.4745 340.029 76.2399 341.421 76.8625Z" fill="#F3417D"/>
<path d="M378.048 54.4106C378.26 53.9296 378.35 53.4031 378.308 52.8788C378.267 52.3544 378.095 51.8487 377.81 51.4072C375.246 48.5319 367.499 60.2343 364.312 65.3438C368.305 61.3515 372.81 55.7658 378.048 54.4106Z" fill="#F3417D"/>
<path d="M367.499 40.8951L367.389 40.419C367.231 39.8735 366.879 39.4045 366.4 39.1004C362.646 36.9027 357.426 53.2019 355.229 60.7837C357.976 54.2091 360.448 47.2866 365.448 41.939C366.079 41.4966 366.769 41.1452 367.499 40.8951Z" fill="#F3417D"/>
<path d="M380.082 69.7206C376.181 68.7317 372.756 71.552 368.929 72.2662L367.94 73.0354L367.116 70.1968C367.116 70.1968 376.401 60.106 378.104 54.4104C372.866 55.7656 368.361 61.3513 364.369 65.3986C363.508 66.7721 362.977 67.6878 362.977 67.6878L360.413 66.2044C360.413 66.2044 368.855 47.323 367.464 40.9499C366.734 41.2 366.044 41.5514 365.413 41.9938C360.413 47.3414 357.941 54.2639 355.194 60.8385C354.553 63.0728 354.168 64.5012 354.168 64.5012L350.505 64.1716C350.505 64.1716 357.831 37.745 352.556 38.0197C351.458 38.0197 350.286 39.6496 349.113 42.122C348.125 52.1029 342.374 62.7981 347.557 71.9549C350.798 78.035 358.545 81.6977 358.911 89.8107C357.281 82.1006 347.923 79.262 341.458 76.8263C339.975 76.2403 338.51 73.4749 336.697 71.0942C333.034 68.6401 326.826 66.589 319.683 73.3101C318.788 74.1334 317.966 75.0342 317.229 76.0022C322.357 76.0022 327.906 75.6726 332.54 73.1819C330.91 80.0678 330.104 89.4078 337.411 93.4551C331.001 104.59 325.434 115.724 319.097 126.621L316.002 135.467L300.656 138.617C300.082 143.853 300.524 149.151 301.956 154.22C310.014 153.634 318.035 152.626 326.02 151.491C335.907 141.428 345.196 130.794 353.838 119.644C356.761 112.409 359.298 105.024 361.439 97.5207C361.439 97.5207 372.811 94.2975 369.698 79.0056C369.698 78.9873 379.331 73.5665 380.082 69.7206Z" fill="#FF7BA9"/>
<path d="M379.971 68.4389C378.542 65.3805 371.546 70.2703 368.982 72.2665C372.883 71.6072 376.308 68.732 380.136 69.7209C380.221 69.287 380.164 68.8369 379.971 68.4389Z" fill="#F3417D"/>
<path d="M224.653 235.056C225.477 248.443 241.3 254.523 254.266 255.732C258.532 256.139 262.828 256.102 267.086 255.622C269.393 254.596 271.774 253.424 274.21 252.087C274.21 252.087 261.207 229.36 265.676 220.167C270.144 210.973 280.839 197.989 281.425 181.25C282.011 164.512 269.796 148.78 269.796 148.78L208.006 173.65C225.404 187.752 223.078 214.361 224.653 235.056Z" fill="#FFDFBF"/>
<path d="M254.193 255.732C241.227 254.523 225.404 248.406 224.58 235.056C223.079 214.361 225.404 187.752 207.97 173.632L203.227 175.463C203.227 175.463 221.54 198.172 217.548 220.625C213.555 243.077 206.56 250.366 206.56 250.366C206.56 250.366 228.921 272.489 266.995 255.53C262.746 256.04 258.456 256.108 254.193 255.732Z" fill="#FBD5AF"/>
<path d="M287.066 505.97L221.576 476.887L222.126 474.781L222.217 474.379L225.019 463.592L254.413 483.682H254.431L254.852 483.975L256.592 485.165L256.958 485.403L258.075 486.173L258.515 486.466L260.236 487.638L260.603 487.894L262.141 488.938L262.599 489.268H262.617L264.54 490.586L264.961 490.861L279.044 500.494L281.022 501.849L287.066 505.97Z" fill="#252B80"/>
<path d="M207.403 349.26L203.062 393.139L203.008 393.652L202.788 395.905L202.733 396.381L202.568 398.047L202.531 398.542L202.293 400.886L202.257 401.362L202.092 402.919L202.037 403.505L201.762 406.398L201.707 406.911L200.169 422.404L199.949 424.712L199.162 432.623L193.191 352.135L194.272 351.915L194.675 351.842L207.403 349.26Z" fill="#252B80"/>
<path d="M229.69 117.958C229.642 117.959 229.596 117.943 229.559 117.913C229.522 117.883 229.497 117.84 229.488 117.793C229.483 117.767 229.483 117.74 229.489 117.713C229.494 117.687 229.505 117.662 229.52 117.64C229.536 117.617 229.555 117.598 229.578 117.584C229.601 117.57 229.626 117.56 229.653 117.555C241.595 115.424 252.847 110.442 262.453 103.033C262.47 103.013 262.491 102.998 262.515 102.987C262.538 102.976 262.564 102.971 262.59 102.971C262.616 102.971 262.642 102.976 262.665 102.987C262.689 102.998 262.71 103.013 262.727 103.033C262.747 103.052 262.763 103.074 262.774 103.099C262.785 103.125 262.791 103.152 262.791 103.179C262.791 103.207 262.785 103.234 262.774 103.259C262.763 103.284 262.747 103.307 262.727 103.326C253.078 110.79 241.77 115.816 229.763 117.977L229.69 117.958Z" fill="#252B80"/>
<path d="M227.107 129.514C224.948 129.242 222.873 128.504 221.026 127.353C220.102 126.764 219.339 125.952 218.808 124.992C218.277 124.033 217.995 122.956 217.986 121.859C218.119 120.834 218.463 119.848 218.996 118.962C219.528 118.077 220.238 117.311 221.081 116.713C224.072 114.623 227.435 113.125 230.989 112.299L231.429 112.171C241.526 109.133 251.423 105.463 261.06 101.183C261.111 101.161 261.169 101.16 261.22 101.181C261.272 101.202 261.313 101.242 261.335 101.293C261.357 101.344 261.357 101.401 261.337 101.453C261.316 101.504 261.276 101.546 261.225 101.568C251.572 105.84 241.664 109.51 231.557 112.556L231.099 112.684C227.597 113.5 224.283 114.98 221.338 117.043C220.55 117.612 219.884 118.333 219.377 119.163C218.871 119.994 218.535 120.916 218.389 121.877C218.389 122.92 218.65 123.946 219.15 124.861C219.649 125.776 220.37 126.551 221.246 127.115C223.045 128.241 225.072 128.954 227.18 129.203C227.206 129.207 227.232 129.217 227.255 129.231C227.278 129.246 227.297 129.265 227.313 129.287C227.328 129.309 227.339 129.334 227.344 129.361C227.35 129.387 227.35 129.414 227.345 129.441C227.319 129.478 227.281 129.505 227.238 129.519C227.195 129.532 227.149 129.53 227.107 129.514Z" fill="#252B80"/>
<path d="M216.248 117.153C216.216 117.15 216.184 117.141 216.155 117.125C216.127 117.11 216.102 117.088 216.083 117.061C216.049 117.024 216.029 116.975 216.029 116.924C216.029 116.873 216.049 116.824 216.083 116.786C227.815 108.505 241.016 102.532 254.982 99.1869C255.012 99.1775 255.044 99.1753 255.075 99.1805C255.106 99.1857 255.135 99.1982 255.161 99.2169C255.186 99.2356 255.207 99.2601 255.221 99.2882C255.236 99.3164 255.243 99.3476 255.243 99.3792C255.243 99.4108 255.236 99.4419 255.221 99.4701C255.207 99.4983 255.186 99.5228 255.161 99.5415C255.135 99.5602 255.106 99.5727 255.075 99.5779C255.044 99.5831 255.012 99.5809 254.982 99.5715C241.115 102.931 228.014 108.898 216.376 117.153H216.248Z" fill="#252B80"/>
<path d="M247.874 120.449C247.717 120.447 247.563 120.402 247.431 120.318C247.298 120.234 247.192 120.114 247.123 119.973L245.603 116.456C245.558 116.358 245.533 116.252 245.53 116.143C245.526 116.035 245.545 115.928 245.584 115.827C245.624 115.726 245.683 115.634 245.758 115.556C245.834 115.479 245.925 115.418 246.024 115.376C246.222 115.295 246.442 115.294 246.64 115.372C246.838 115.451 246.998 115.603 247.087 115.797L248.625 119.313C248.707 119.513 248.708 119.737 248.63 119.938C248.552 120.139 248.399 120.302 248.204 120.394C248.097 120.43 247.986 120.448 247.874 120.449Z" fill="#080C53"/>
<path d="M255.09 118.234C254.931 118.231 254.776 118.182 254.643 118.095C254.51 118.007 254.405 117.884 254.339 117.739L252.819 114.223C252.774 114.126 252.749 114.021 252.746 113.914C252.743 113.807 252.762 113.701 252.802 113.601C252.841 113.502 252.9 113.412 252.976 113.336C253.051 113.26 253.141 113.201 253.24 113.161C253.435 113.074 253.656 113.068 253.855 113.143C254.054 113.219 254.215 113.37 254.303 113.564L255.786 117.153C255.867 117.353 255.869 117.576 255.791 117.777C255.713 117.978 255.56 118.142 255.365 118.234C255.274 118.246 255.181 118.246 255.09 118.234Z" fill="#080C53"/>
<path d="M248.461 126.016L258.9 122.354C258.9 122.354 259.559 128.434 256.464 129.496C253.369 130.558 248.461 126.016 248.461 126.016Z" fill="#DEFCFF"/>
<path d="M235.769 147.608L237.289 153.231L233.535 148.323L235.769 147.608Z" fill="#F3417D"/>
<path d="M316.002 135.448L310.947 150.209L311.735 136.327L316.002 135.448Z" fill="#F3417D"/>
<path d="M173.742 213.684L174.731 196.158L176.892 210.296L173.742 213.684Z" fill="#F3417D"/>
<path d="M183.668 185.004L182.789 183.558L181.141 183.906L182.258 182.642L181.415 181.177L182.972 181.854L184.089 180.591L183.943 182.276L185.481 182.953L183.833 183.32L183.668 185.004Z" fill="#FBD5AF"/>
<path d="M195.736 187.221L194.876 185.756L193.209 186.122L194.326 184.859L193.484 183.393L195.04 184.053L196.157 182.789L196.011 184.474L197.549 185.17L195.901 185.536L195.736 187.221Z" fill="#FBD5AF"/>
<path d="M197.898 174.493L197.037 173.046L195.389 173.394L196.506 172.13L195.645 170.665L197.202 171.343L198.319 170.079L198.172 171.764L199.711 172.442L198.062 172.808L197.898 174.493Z" fill="#FBD5AF"/>
<path d="M229.946 161.747L229.086 160.3L227.438 160.648L228.555 159.384L227.694 157.919L229.251 158.578L230.386 157.333L230.221 159.018L231.778 159.695L230.111 160.062L229.946 161.747Z" fill="#FBD5AF"/>
<path d="M249.98 160.062L249.12 158.615L247.453 158.963L248.57 157.7L247.728 156.234L249.284 156.912L250.402 155.648L250.255 157.333L251.793 158.011L250.145 158.377L249.98 160.062Z" fill="#FBD5AF"/>
<path d="M254.669 179.712L253.808 178.247L252.16 178.614L253.277 177.35L252.417 175.885L253.973 176.544L255.109 175.299L254.944 176.984L256.5 177.661L254.852 178.028L254.669 179.712Z" fill="#FBD5AF"/>
<path d="M245.641 194.308L244.78 192.861L243.113 193.209L244.23 191.946L243.388 190.481L244.945 191.14L246.062 189.895L245.915 191.579L247.454 192.257L245.805 192.623L245.641 194.308Z" fill="#FBD5AF"/>
<path d="M227.785 218.244L226.924 216.797L225.258 217.145L226.375 215.881L225.533 214.416L227.089 215.075L228.206 213.83L228.06 215.515L229.598 216.193L227.95 216.559L227.785 218.244Z" fill="#FBD5AF"/>
<path d="M259.652 201.084L258.791 199.619L257.143 199.986L258.241 198.722L257.399 197.257L258.956 197.916L260.073 196.671L259.926 198.337L261.465 199.033L259.816 199.4L259.652 201.084Z" fill="#FBD5AF"/>
<path d="M240.128 207.97L239.267 206.523L237.619 206.89L238.736 205.608L237.876 204.143L239.432 204.82L240.549 203.557L240.403 205.241L241.941 205.919L240.293 206.304L240.128 207.97Z" fill="#FBD5AF"/>
<path d="M237.967 229.214L237.106 227.749L235.439 228.115L236.557 226.833L235.714 225.387L237.271 226.046L238.388 224.782L238.241 226.467L239.78 227.145L238.132 227.529L237.967 229.214Z" fill="#FBD5AF"/>
<path d="M237.967 252.307L237.106 250.86L235.439 251.227L236.557 249.945L235.714 248.48L237.271 249.157L238.388 247.894L238.241 249.578L239.78 250.256L238.132 250.622L237.967 252.307Z" fill="#FBD5AF"/>
<path d="M227.785 240.44L226.924 238.993L225.258 239.341L226.375 238.077L225.533 236.612L227.089 237.272L228.206 236.026L228.06 237.711L229.598 238.389L227.95 238.755L227.785 240.44Z" fill="#FBD5AF"/>
<path d="M252.508 218.83L251.647 217.365L249.98 217.731L251.098 216.45L250.255 215.003L251.812 215.662L252.929 214.398L252.782 216.083L254.321 216.761L252.673 217.145L252.508 218.83Z" fill="#FBD5AF"/>
<path d="M249.304 239.745L248.443 238.298L246.795 238.664L247.912 237.382L247.051 235.935L248.608 236.595L249.743 235.331L249.579 237.016L251.135 237.694L249.469 238.078L249.304 239.745Z" fill="#FBD5AF"/>
<path d="M264.687 247.472L263.826 246.025L262.178 246.373L263.295 245.11L262.434 243.645L263.991 244.322L265.126 243.059L264.961 244.743L266.518 245.421L264.87 245.787L264.687 247.472Z" fill="#FBD5AF"/>
<path d="M260.915 232.309L260.054 230.862L258.406 231.21L259.523 229.947L258.681 228.482L260.219 229.159L261.355 227.896L261.19 229.58L262.747 230.258L261.098 230.624L260.915 232.309Z" fill="#FBD5AF"/>
<path d="M255.31 257.161L254.449 255.714L252.801 256.062L253.918 254.798L253.057 253.333L254.614 254.011L255.749 252.747L255.584 254.432L257.141 255.11L255.475 255.476L255.31 257.161Z" fill="#FBD5AF"/>
<path d="M261.903 167.167L261.043 165.702L259.395 166.068L260.512 164.805L259.669 163.34L261.208 163.999L262.343 162.735L262.178 164.42L263.735 165.116L262.087 165.482L261.903 167.167Z" fill="#FBD5AF"/>
<path d="M269.466 185.737L268.605 184.29L266.957 184.638L268.074 183.374L267.213 181.909L268.77 182.587L269.906 181.323L269.741 183.008L271.297 183.686L269.649 184.052L269.466 185.737Z" fill="#FBD5AF"/>
<path d="M266.884 213.391L266.023 211.944L264.375 212.292L265.492 211.029L264.631 209.564L266.188 210.241L267.323 208.978L267.159 210.662L268.697 211.34L267.049 211.706L266.884 213.391Z" fill="#FBD5AF"/>
<path d="M276.921 195.461L276.06 194.015L274.412 194.363L275.529 193.099L274.668 191.634L276.225 192.311L277.361 191.048L277.196 192.733L278.752 193.41L277.104 193.777L276.921 195.461Z" fill="#FBD5AF"/>
<path d="M264.082 151.308L263.221 149.861L261.555 150.209L262.672 148.946L261.829 147.481L263.386 148.158L264.503 146.895L264.357 148.579L265.895 149.257L264.247 149.623L264.082 151.308Z" fill="#FBD5AF"/>
<path d="M276.353 170.574L275.474 169.108L273.826 169.475L274.943 168.193L274.101 166.746L275.639 167.405L276.775 166.142L276.61 167.826L278.167 168.504L276.518 168.889L276.353 170.574Z" fill="#FBD5AF"/>
<path d="M287.597 157.113L286.736 155.666L285.088 156.014L286.205 154.75L285.344 153.285L286.901 153.963L288.036 152.699L287.872 154.384L289.428 155.062L287.762 155.446L287.597 157.113Z" fill="#FBD5AF"/>
<path d="M279.1 148.011L278.22 146.564L276.572 146.912L277.689 145.649L276.847 144.184L278.385 144.843L279.521 143.598L279.356 145.283L280.913 145.96L279.264 146.326L279.1 148.011Z" fill="#FBD5AF"/>
<path d="M296.882 145.044L296.021 143.598L294.373 143.946L295.472 142.682L294.629 141.217L296.186 141.876L297.303 140.631L297.157 142.297L298.695 142.993L297.047 143.36L296.882 145.044Z" fill="#FBD5AF"/>
<path d="M212.163 163.468L211.303 162.021L209.654 162.369L210.771 161.106L209.911 159.641L211.467 160.318L212.603 159.055L212.438 160.74L213.995 161.417L212.346 161.783L212.163 163.468Z" fill="#FBD5AF"/>
<path d="M217.585 184.253L216.724 182.807L215.076 183.173L216.193 181.891L215.351 180.426L216.889 181.103L218.025 179.84L217.86 181.525L219.416 182.202L217.768 182.587L217.585 184.253Z" fill="#FBD5AF"/>
<path d="M221.925 171.892L221.064 170.427L219.416 170.793L220.533 169.511L219.672 168.064L221.229 168.724L222.365 167.46L222.2 169.145L223.738 169.841L222.09 170.207L221.925 171.892Z" fill="#FBD5AF"/>
<path d="M241.631 170.977L240.752 169.512L239.104 169.878L240.221 168.614L239.378 167.149L240.917 167.809L242.052 166.545L241.887 168.23L243.444 168.926L241.796 169.292L241.631 170.977Z" fill="#FBD5AF"/>
<path d="M234.286 182.789L233.426 181.342L231.777 181.708L232.876 180.426L232.034 178.961L233.59 179.639L234.708 178.375L234.561 180.06L236.099 180.737L234.451 181.122L234.286 182.789Z" fill="#FBD5AF"/>
<path d="M228.408 198.868L227.529 197.421L225.881 197.769L226.998 196.505L226.156 195.04L227.694 195.718L228.829 194.454L228.665 196.139L230.221 196.817L228.573 197.183L228.408 198.868Z" fill="#FBD5AF"/>
<path d="M200.168 422.404L199.949 424.712L194.271 351.915L194.674 351.842L200.168 422.404Z" fill="#080C53"/>
<path d="M281.024 501.849L222.127 474.782L222.219 474.379L279.046 500.494L281.024 501.849Z" fill="#080C53"/>
<path d="M264.742 492.582C264.688 492.582 264.637 492.561 264.599 492.523C264.561 492.486 264.54 492.434 264.54 492.381V488.92L260.2 489.817C260.171 489.832 260.14 489.839 260.108 489.839C260.076 489.839 260.045 489.832 260.017 489.817C260.003 489.788 259.997 489.757 259.997 489.725C259.997 489.694 260.003 489.663 260.017 489.634L260.584 485.971L256.574 487.271C256.545 487.294 256.509 487.306 256.473 487.306C256.437 487.306 256.401 487.294 256.372 487.271C256.359 487.243 256.352 487.211 256.352 487.18C256.352 487.148 256.359 487.117 256.372 487.088L257.123 483.554L252.984 484.744C252.959 484.753 252.932 484.756 252.906 484.754C252.879 484.753 252.853 484.746 252.829 484.734C252.805 484.722 252.784 484.705 252.767 484.685C252.749 484.665 252.736 484.641 252.728 484.616C252.716 484.563 252.724 484.507 252.752 484.46C252.779 484.412 252.822 484.377 252.874 484.36L257.343 483.078C257.372 483.064 257.403 483.058 257.434 483.058C257.466 483.058 257.497 483.064 257.526 483.078C257.544 483.108 257.553 483.143 257.553 483.178C257.553 483.214 257.544 483.248 257.526 483.279L256.793 486.777L260.786 485.477C260.818 485.463 260.852 485.456 260.886 485.456C260.921 485.456 260.955 485.463 260.987 485.477C261 485.505 261.007 485.537 261.007 485.568C261.007 485.6 261 485.631 260.987 485.66L260.42 489.432L264.723 488.535C264.777 488.517 264.835 488.517 264.888 488.535C264.899 488.558 264.905 488.583 264.905 488.608C264.905 488.634 264.899 488.659 264.888 488.682V492.473C264.875 492.502 264.855 492.528 264.83 492.547C264.804 492.566 264.774 492.579 264.742 492.582Z" fill="#080C53"/>
<path d="M200.846 407.332C200.813 407.332 200.781 407.323 200.752 407.307C200.723 407.291 200.699 407.268 200.681 407.241C200.662 407.223 200.646 407.202 200.635 407.179C200.625 407.155 200.619 407.129 200.619 407.103C200.619 407.077 200.625 407.052 200.635 407.028C200.646 407.004 200.662 406.983 200.681 406.966L203.392 405.318L200.846 401.93C200.833 401.901 200.826 401.87 200.826 401.838C200.826 401.806 200.833 401.775 200.846 401.746C200.854 401.718 200.868 401.692 200.887 401.67C200.906 401.648 200.929 401.63 200.956 401.618L204.326 399.933L200.846 397.077C200.83 397.049 200.821 397.017 200.821 396.985C200.821 396.953 200.83 396.921 200.846 396.893C200.851 396.859 200.866 396.828 200.889 396.802C200.912 396.776 200.941 396.757 200.974 396.747L204.802 395.099L201.45 392.132C201.416 392.095 201.396 392.046 201.396 391.995C201.396 391.944 201.416 391.894 201.45 391.857C201.469 391.837 201.492 391.821 201.517 391.81C201.542 391.8 201.569 391.794 201.597 391.794C201.624 391.794 201.651 391.8 201.677 391.81C201.702 391.821 201.724 391.837 201.743 391.857L205.406 395.025C205.418 395.054 205.424 395.086 205.424 395.117C205.424 395.148 205.418 395.18 205.406 395.209C205.403 395.243 205.392 395.276 205.373 395.305C205.353 395.334 205.327 395.358 205.296 395.373L201.469 397.003L204.857 399.824C204.873 399.851 204.881 399.883 204.881 399.915C204.881 399.947 204.873 399.979 204.857 400.007C204.856 400.042 204.845 400.076 204.826 400.105C204.806 400.134 204.779 400.158 204.747 400.172L201.322 401.875L204.069 405.263C204.085 405.317 204.085 405.374 204.069 405.428C204.078 405.476 204.078 405.526 204.069 405.574L201.157 407.405L200.846 407.332Z" fill="#080C53"/>
<path d="M505.878 150.227L506.153 148.542L490.33 143.048C491.21 145.848 491.865 148.714 492.29 151.619C496.863 151.833 501.443 151.364 505.878 150.227Z" fill="#F3417D"/>
<path d="M492.288 151.638C493.057 156.93 493.185 163.578 490.328 168.23C484.834 177.149 502.086 172.698 502.086 172.698L505.876 150.228C501.442 151.371 496.862 151.847 492.288 151.638Z" fill="#FF7BA9"/>
<path d="M487.894 121.566C487.894 121.566 476.539 138.213 478.151 143.067C479.762 147.92 506.152 148.561 506.152 148.561C506.152 148.561 547.944 127.244 487.894 121.566Z" fill="#FF7BA9"/>
<path d="M508.991 132.517C508.991 132.517 500.273 132.517 498.241 124.826C498.241 124.826 479.579 128.672 477.143 113.05C474.708 97.4284 494.175 95.5971 500.273 105.725C501.698 104.796 503.323 104.22 505.014 104.045C506.705 103.87 508.414 104.1 509.998 104.717C511.422 105.281 512.685 106.185 513.678 107.35C514.671 108.515 515.363 109.907 515.693 111.402C515.693 111.402 522.176 110.395 524.209 113.435C526.242 116.475 524.209 120.54 524.209 120.54C524.209 120.54 534.959 126.62 527.652 139.403C520.345 152.186 506.152 148.56 506.152 148.56L509.815 137.004C509.815 137.004 514.082 139.037 515.309 133.561C516.536 128.085 508.991 132.517 508.991 132.517Z" fill="#BD134C"/>
<path d="M484.505 161.728L481.557 161.49C483.917 164.349 486.938 166.589 490.359 168.019C493.779 169.448 497.496 170.023 501.189 169.695C498.021 169.529 494.916 168.741 492.053 167.374C489.19 166.007 486.625 164.088 484.505 161.728Z" fill="#F3417D"/>
<path d="M497.71 162.827L484.506 161.729C486.628 164.091 489.196 166.01 492.062 167.377C494.929 168.744 498.037 169.532 501.208 169.695C506.711 169.367 512.08 167.868 516.958 165.3L497.71 162.827Z" fill="#FF7BA9"/>
<path d="M395.867 142.608C399.782 148.665 404.446 154.203 409.749 159.091C410.817 160.039 412.062 160.767 413.412 161.233C417.074 162.46 425.242 165.171 435.095 167.936C434.955 165.654 435.115 163.364 435.571 161.123C425.096 158.468 415.023 155.629 405.628 149.989C402.203 147.765 398.941 145.298 395.867 142.608Z" fill="#DF8568"/>
<path d="M402.295 94.7916C408.375 108.82 414.785 122.518 420.901 136.492L408.082 94.3704C408.082 94.3704 411.873 88.9679 408.082 79.225C408.082 79.225 414.565 67.9988 411.598 65.2883L411.433 65.1602C410.829 69.9766 408.174 74.5917 407.551 78.5474C406.837 83.8401 408.87 91.953 402.295 94.7916Z" fill="#DF8568"/>
<path d="M403.559 74.6097C405.39 69.6101 409.95 55.6734 406.416 53.6772C405.628 53.2377 404.877 53.6772 404.145 54.6662C407.496 60.38 405.152 68.2366 403.559 74.6097Z" fill="#F3417D"/>
<path d="M396.473 71.0935C398.927 63.2736 403.652 46.4983 399.513 45.5643C398.597 45.3629 397.681 46.0954 396.912 47.3957C398.089 55.2641 397.94 63.2741 396.473 71.0935Z" fill="#F3417D"/>
<path d="M388.029 73.8415C387.681 69.3363 386.838 55.7293 388.963 49.3561C389.567 47.5248 389.183 46.1146 388.267 45.5469C386.248 49.9834 385.183 54.7946 385.142 59.6689C385.101 64.5431 386.084 69.3716 388.029 73.8415Z" fill="#F3417D"/>
<path d="M366.675 93.9863C372.353 92.3563 377.224 94.7921 382.498 96.0191C380.897 88.3135 379.729 80.524 379.001 72.6875C379.001 77.2293 379 82.4487 379.513 88.4372C380.319 99.4254 370.851 85.4704 361.786 94.9386C360.121 96.3524 358.984 98.2893 358.562 100.433C360.311 97.2979 363.227 94.9809 366.675 93.9863Z" fill="#F3417D"/>
<path d="M422.239 140.63L420.976 136.491C414.859 122.518 408.449 108.82 402.369 94.7913C408.87 91.9527 406.838 83.8031 407.643 78.5654C408.266 74.6097 410.921 69.9946 411.526 65.1782C408.577 63.127 404.658 77.082 404.658 77.082L402.827 76.4044C402.827 76.4044 403.083 75.7268 403.486 74.5731C405.079 68.1999 407.424 60.2518 404.072 54.6295C400.776 59.153 398.23 75.4155 398.23 75.4155L395.117 75.0126C395.117 75.0126 395.648 73.4559 396.399 71.0569C397.862 63.2493 398.011 55.2521 396.838 47.3956C392.974 53.897 390.648 74.7379 390.648 74.7379L388.084 75.2873C388.084 75.2873 388.084 74.7379 387.956 73.8039C386.012 69.3341 385.028 64.5056 385.069 59.6313C385.11 54.7571 386.175 49.9458 388.194 45.5093C385.722 43.9893 379.33 49.1721 378.928 72.6501C379.656 80.4866 380.824 88.2761 382.426 95.9817C377.151 94.7547 372.28 92.319 366.603 93.9489C363.141 94.9611 360.223 97.3061 358.49 100.469C358.252 104.845 366.218 104.9 370.1 100.707C370.1 100.707 374.294 105.853 379.697 106.384C383.171 119.202 388.601 131.408 395.794 142.572C398.87 145.242 402.132 147.691 405.556 149.897C414.951 155.538 425.023 158.376 435.498 161.032C436.368 156.077 438.785 151.525 442.403 148.029L422.239 140.63Z" fill="#FD9783"/>
<path d="M442.476 148.103C437.166 152.901 434.657 160.922 435.151 167.918L437.459 168.559C436.25 161.124 437.733 153.45 442.824 148.212L442.476 148.103Z" fill="#F3417D"/>
<path d="M468.5 167.827C458.373 164.988 448.63 164.164 438.081 161.728L437.111 161.49C436.916 163.85 437.015 166.224 437.404 168.559C448.967 171.894 460.8 174.211 472.767 175.482C473.353 172.9 474.049 170.354 474.599 167.827C472.611 168.432 470.488 168.432 468.5 167.827Z" fill="#FEC751"/>
<path d="M531.479 168.156C530.721 167.476 529.789 167.019 528.787 166.838C542.797 178.302 553.053 193.777 564.865 208.135C566.454 207.256 568.122 206.526 569.846 205.956C555.269 189.73 536.497 172.662 531.479 168.156Z" fill="#FEC751"/>
<path d="M532.744 186.396L548.146 209.05C542.652 199.765 540.161 189.949 535.052 180.811C534.264 182.642 533.495 184.51 532.744 186.396Z" fill="#FEC751"/>
<path d="M564.865 208.135C553.053 193.777 542.889 178.302 528.787 166.838H528.494L516.957 165.354C505.071 171.49 490.054 172.185 481.557 161.545L478.004 161.252L442.768 148.286C439.381 151.91 437.378 156.61 437.109 161.564L438.08 161.802C448.629 164.237 458.372 165.061 468.499 167.9C470.487 168.505 472.61 168.505 474.597 167.9C474.048 170.427 473.352 172.973 472.766 175.555H473.499C497.837 177.167 532.102 185.481 532.102 185.481L532.725 186.415C533.476 184.584 534.245 182.661 535.032 180.829C540.142 189.986 542.633 199.784 548.127 209.069L554.317 218.226C556.885 213.994 560.523 210.513 564.865 208.135Z" fill="#FEE952"/>
<path d="M594.387 310.013C594.387 310.013 606.163 313.676 610.613 299.465C615.064 285.253 600.266 281.151 600.266 281.151C600.266 281.151 597.226 244.029 583.436 222.95C579.348 216.967 574.824 211.292 569.902 205.974C568.271 206.724 566.724 207.645 565.287 208.721C568.657 212.786 572.173 216.779 575.946 220.551C580.769 226.09 584.364 232.587 586.494 239.616C591.515 254.27 594.383 269.574 595.01 285.052C601.09 284.649 606.365 291.535 604.753 297.633C602.72 303.311 596.237 304.959 590.963 304.959C592.794 314.738 596.658 324.701 603.544 331.752C611.804 330.305 596.072 321.02 594.387 310.013Z" fill="#DF8568"/>
<path d="M604.826 297.652C606.437 291.553 601.163 284.668 595.083 285.07C594.456 269.593 591.587 254.288 586.567 239.634C584.437 232.606 580.842 226.108 576.018 220.57C572.246 216.797 568.693 212.805 565.36 208.739C561.35 211.804 558.062 215.711 555.727 220.185L566.202 235.569L568.638 288.513C568.638 288.513 562.741 294.191 563.968 300.692C565.195 307.193 554.024 300.491 554.427 306.186C554.83 311.882 568.107 317.54 577.154 304.959C581.806 298.476 587.08 331.953 600.962 331.953C601.875 331.966 602.788 331.898 603.69 331.752C596.804 324.701 592.885 314.739 591.109 304.959C596.31 304.941 602.793 303.329 604.826 297.652Z" fill="#FD9783"/>
<path d="M569.902 206.028C563.452 208.121 557.954 212.437 554.391 218.207L555.782 220.258C558.834 214.118 563.786 209.127 569.902 206.028Z" fill="#F3417D"/>
<path d="M485.001 263.973L405.007 325.122C404.073 325.842 403.417 326.862 403.15 328.01C402.883 329.159 403.022 330.364 403.542 331.422L463.867 453.427L497.71 396.234L445.498 337.813L510.347 268.844L485.001 263.973Z" fill="#D62B64"/>
<path d="M497.71 396.234L445.498 337.814L510.346 268.845L486.795 264.321C479.836 280.089 464.416 308.915 437.678 329.701H424.4L484.835 417.991L497.71 396.234Z" fill="#BD134C"/>
<path d="M540.857 274.284C541.645 270.892 541.645 267.365 540.857 263.973C537.616 250.586 485.019 266.812 485.019 266.812C484.968 267.593 484.968 268.376 485.019 269.156C493.452 273.865 502.777 276.754 512.395 277.637C522.013 278.52 531.708 277.378 540.857 274.284Z" fill="#BD134C"/>
<path d="M537.193 374.734L533.128 289.118C536.847 284.859 539.496 279.773 540.856 274.284C531.707 277.378 522.011 278.52 512.393 277.637C502.776 276.754 493.45 273.865 485.018 269.156C485.841 278.889 490.387 287.928 497.709 294.392L510.345 514.284L566.33 495.037L537.193 374.734Z" fill="#D62B64"/>
<path d="M537.194 374.733L533.128 289.117C536.847 284.858 539.497 279.772 540.856 274.283C538.415 275.12 535.926 275.811 533.403 276.353C531.571 282.25 528.202 287.799 522.561 290.747L530.601 374.733C530.601 374.733 520.949 364.588 520.29 366.218C519.631 367.848 533.622 472.437 537.944 504.815L566.404 495.036L537.194 374.733Z" fill="#BD134C"/>
<path d="M535.453 257.49C537.468 256.263 535.856 253.022 534.629 251.392C518.001 229.416 525.711 202.714 535.05 180.811C535.984 182.496 536.882 184.217 537.651 185.939C538.585 182.496 539.208 180.445 539.208 180.445L470.11 165.794C470.11 165.794 456.046 187.972 470.11 212.311C484.175 236.649 486.428 243.957 478.004 265.054C479.671 266.182 481.415 267.192 483.223 268.076C500.822 273.313 519.905 268.186 535.453 257.49Z" fill="#FEE952"/>
<path d="M535.05 180.811C525.71 202.787 518 229.488 534.629 251.391C535.856 253.021 537.468 256.263 535.453 257.49C519.905 268.185 500.822 273.313 483.223 268.075C493.735 273.386 518.696 282.286 545.489 265.053C545.489 265.053 545.635 253.827 534.684 242.473C525.948 233.426 533.951 199.417 537.578 185.938C536.845 184.217 535.984 182.495 535.05 180.811Z" fill="#FEC751"/>
<path d="M566.404 495.036L548.127 501.317L544.703 502.508L539.117 504.412L535.692 505.603L499.193 518.148L502.398 516.28L504.248 515.181L528.477 500.988L531.224 499.358L535.692 496.739L538.458 495.127L562.925 480.77L565.965 493.296L566.075 493.699L566.404 495.036Z" fill="#FEE952"/>
<path d="M497.691 396.234L489.707 409.731L488.004 412.625L485.33 417.148L483.608 420.023L456.596 465.661L459.489 457.859L460.35 455.552L473.408 420.353L474.47 417.478L476.136 412.991L477.199 410.116L486.85 384.11L495.659 393.963L495.952 394.274L497.691 396.234Z" fill="#FEE952"/>
<path d="M492.709 121.768C490.755 121.781 488.827 121.321 487.09 120.426C485.352 119.532 483.858 118.229 482.735 116.63C481.611 115.032 480.892 113.184 480.639 111.247C480.386 109.309 480.606 107.339 481.281 105.505C481.29 105.48 481.303 105.456 481.32 105.436C481.338 105.416 481.359 105.399 481.383 105.387C481.407 105.376 481.433 105.368 481.459 105.367C481.486 105.365 481.513 105.368 481.538 105.377C481.564 105.387 481.587 105.402 481.607 105.422C481.627 105.441 481.642 105.464 481.653 105.49C481.663 105.516 481.668 105.544 481.667 105.572C481.666 105.599 481.66 105.627 481.648 105.652C480.932 107.61 480.752 109.725 481.128 111.776C481.504 113.827 482.42 115.741 483.784 117.319C485.147 118.897 486.907 120.082 488.882 120.751C490.857 121.421 492.975 121.55 495.017 121.127C495.067 121.12 495.118 121.13 495.162 121.157C495.205 121.184 495.238 121.225 495.255 121.273C495.261 121.328 495.249 121.384 495.219 121.431C495.189 121.478 495.143 121.513 495.09 121.53C494.305 121.682 493.508 121.762 492.709 121.768Z" fill="#074491"/>
<path d="M511.756 129.752C509.908 129.714 508.086 129.307 506.397 128.556C504.709 127.804 503.187 126.723 501.922 125.375C498.933 122.008 497.171 117.729 496.922 113.233C496.921 113.181 496.939 113.13 496.973 113.09C497.006 113.049 497.053 113.022 497.105 113.014C497.132 113.011 497.158 113.014 497.184 113.022C497.209 113.03 497.233 113.042 497.253 113.059C497.274 113.076 497.29 113.097 497.303 113.121C497.315 113.144 497.323 113.17 497.325 113.197C497.565 117.597 499.289 121.787 502.215 125.082C503.684 126.694 505.539 127.908 507.604 128.609C509.67 129.31 511.879 129.477 514.027 129.093C514.053 129.088 514.081 129.088 514.107 129.093C514.134 129.099 514.159 129.11 514.181 129.125C514.203 129.14 514.222 129.16 514.236 129.183C514.251 129.206 514.261 129.231 514.265 129.258C514.273 129.283 514.276 129.31 514.273 129.336C514.27 129.363 514.261 129.388 514.247 129.411C514.233 129.433 514.214 129.453 514.192 129.467C514.17 129.482 514.145 129.492 514.118 129.496C513.342 129.665 512.55 129.75 511.756 129.752Z" fill="#074491"/>
<path d="M514.723 144.165C514.675 144.166 514.629 144.15 514.592 144.119C514.555 144.089 514.53 144.047 514.521 144C514.516 143.974 514.516 143.946 514.522 143.92C514.527 143.893 514.538 143.868 514.553 143.846C514.569 143.824 514.588 143.805 514.611 143.791C514.634 143.776 514.66 143.766 514.686 143.762C516.171 143.516 517.564 142.883 518.726 141.926C519.887 140.969 520.776 139.723 521.302 138.312C521.828 136.902 521.972 135.378 521.72 133.895C521.469 132.411 520.83 131.02 519.869 129.862C518.19 128.12 516.17 126.742 513.935 125.815L512.415 125.027C508.862 123.196 506.921 121.016 506.372 118.507C506.361 118.457 506.37 118.403 506.397 118.359C506.424 118.314 506.468 118.282 506.518 118.269C506.574 118.263 506.629 118.275 506.676 118.305C506.723 118.335 506.758 118.381 506.775 118.434C507.251 120.797 509.155 122.848 512.617 124.679L514.118 125.448C516.402 126.404 518.466 127.819 520.18 129.606C521.183 130.824 521.847 132.286 522.104 133.843C522.361 135.401 522.203 136.998 521.646 138.475C521.089 139.952 520.152 141.255 518.93 142.254C517.708 143.253 516.244 143.912 514.686 144.165H514.723Z" fill="#074491"/>
<path d="M523.659 141.931C523.618 141.945 523.573 141.945 523.531 141.931C523.511 141.914 523.496 141.893 523.485 141.869C523.474 141.846 523.469 141.82 523.469 141.794C523.469 141.768 523.474 141.742 523.485 141.719C523.496 141.695 523.511 141.674 523.531 141.657C525.893 138.964 528.018 136.309 528.219 133.159C528.258 131.825 528 130.499 527.465 129.277C526.93 128.055 526.13 126.966 525.124 126.09C523.09 124.319 520.617 123.13 517.964 122.647C517.913 122.634 517.87 122.602 517.842 122.558C517.815 122.513 517.806 122.46 517.817 122.409C517.822 122.382 517.831 122.357 517.846 122.334C517.86 122.311 517.879 122.291 517.901 122.276C517.923 122.261 517.949 122.25 517.975 122.244C518.001 122.239 518.029 122.239 518.055 122.244C520.772 122.748 523.303 123.976 525.381 125.797C526.422 126.707 527.251 127.835 527.808 129.101C528.365 130.367 528.636 131.74 528.604 133.122C528.384 136.675 525.747 139.679 523.824 141.858C523.803 141.881 523.778 141.9 523.749 141.912C523.721 141.925 523.69 141.931 523.659 141.931Z" fill="#074491"/>
<path d="M521.646 121.273C521.605 121.287 521.56 121.287 521.518 121.273C521.498 121.254 521.482 121.232 521.471 121.206C521.461 121.181 521.455 121.154 521.455 121.127C521.455 121.099 521.461 121.072 521.471 121.047C521.482 121.022 521.498 120.999 521.518 120.98C521.924 120.488 522.16 119.878 522.19 119.24C522.219 118.603 522.042 117.973 521.683 117.446C520.905 116.377 519.788 115.602 518.515 115.248C516.065 114.475 513.418 114.612 511.061 115.633C511.01 115.652 510.953 115.651 510.902 115.631C510.852 115.611 510.81 115.572 510.786 115.523C510.768 115.474 510.769 115.42 510.79 115.372C510.81 115.325 510.848 115.287 510.896 115.266C513.344 114.195 516.098 114.052 518.643 114.863C520.011 115.236 521.209 116.071 522.031 117.226C522.437 117.83 522.635 118.55 522.595 119.277C522.556 120.004 522.28 120.698 521.811 121.255C521.788 121.272 521.76 121.283 521.731 121.286C521.702 121.29 521.673 121.285 521.646 121.273Z" fill="#074491"/>
<path d="M512.946 113.252C512.904 113.25 512.864 113.235 512.831 113.209C512.798 113.182 512.774 113.146 512.763 113.106C512.267 111.576 511.344 110.22 510.103 109.198C508.862 108.176 507.354 107.53 505.757 107.338C504.161 107.145 502.542 107.413 501.094 108.111C499.645 108.809 498.426 109.906 497.581 111.275C497.544 111.309 497.494 111.329 497.443 111.329C497.392 111.329 497.343 111.309 497.306 111.275C497.271 111.237 497.252 111.188 497.252 111.137C497.252 111.086 497.271 111.037 497.306 111C498.202 109.573 499.486 108.431 501.008 107.709C502.531 106.987 504.228 106.715 505.9 106.924C507.572 107.134 509.149 107.817 510.446 108.892C511.743 109.968 512.705 111.392 513.221 112.996C513.229 113.021 513.233 113.048 513.231 113.075C513.229 113.101 513.222 113.127 513.21 113.151C513.198 113.175 513.182 113.196 513.161 113.213C513.141 113.231 513.118 113.244 513.092 113.252H512.946Z" fill="#074491"/>
<path d="M494.688 119.204C492.433 118.621 490.421 117.337 488.943 115.537C487.465 113.736 486.597 111.512 486.465 109.186C486.368 107.908 486.662 106.631 487.308 105.524C487.878 104.687 488.683 104.038 489.622 103.66C490.561 103.282 491.591 103.191 492.582 103.399C493.556 103.625 494.465 104.074 495.237 104.709C496.009 105.344 496.623 106.15 497.032 107.062C497.045 107.085 497.052 107.11 497.054 107.135C497.056 107.161 497.052 107.186 497.044 107.211C497.035 107.235 497.021 107.257 497.004 107.275C496.986 107.294 496.965 107.309 496.941 107.318C496.917 107.331 496.891 107.338 496.864 107.341C496.837 107.343 496.81 107.339 496.784 107.331C496.758 107.322 496.735 107.309 496.715 107.291C496.694 107.273 496.678 107.251 496.666 107.227C496.285 106.372 495.712 105.616 494.99 105.019C494.269 104.422 493.42 103.999 492.509 103.784C491.599 103.594 490.653 103.677 489.79 104.022C488.926 104.368 488.184 104.96 487.656 105.725C487.055 106.754 486.786 107.944 486.887 109.131C487 111.372 487.828 113.517 489.248 115.254C490.668 116.99 492.607 118.227 494.78 118.783C494.806 118.787 494.831 118.796 494.853 118.811C494.876 118.826 494.894 118.845 494.908 118.868C494.922 118.89 494.931 118.916 494.934 118.942C494.937 118.969 494.935 118.996 494.926 119.021C494.928 119.05 494.922 119.08 494.909 119.106C494.897 119.133 494.878 119.156 494.855 119.174C494.832 119.192 494.804 119.205 494.775 119.21C494.746 119.215 494.716 119.213 494.688 119.204Z" fill="#074491"/>
<path d="M491.703 132.225C491.567 132.218 491.435 132.179 491.318 132.11C491.201 132.041 491.102 131.945 491.03 131.83C490.958 131.715 490.915 131.584 490.905 131.449C490.894 131.313 490.917 131.178 490.97 131.053L492.801 127.244C492.848 127.149 492.913 127.064 492.993 126.994C493.073 126.924 493.165 126.871 493.266 126.837C493.366 126.803 493.472 126.789 493.578 126.796C493.684 126.803 493.787 126.83 493.882 126.877C493.977 126.924 494.062 126.989 494.131 127.069C494.201 127.149 494.255 127.241 494.289 127.342C494.323 127.442 494.337 127.548 494.33 127.654C494.323 127.759 494.295 127.863 494.248 127.958L492.417 131.767C492.352 131.902 492.251 132.017 492.125 132.098C491.999 132.178 491.852 132.223 491.703 132.225Z" fill="#080C53"/>
<path d="M485.238 130.705C485.102 130.698 484.97 130.658 484.853 130.59C484.736 130.521 484.637 130.425 484.566 130.31C484.494 130.195 484.451 130.064 484.44 129.929C484.43 129.793 484.452 129.658 484.505 129.533L486.337 125.723C486.435 125.53 486.605 125.383 486.811 125.315C487.016 125.246 487.241 125.261 487.435 125.357C487.53 125.404 487.615 125.469 487.685 125.549C487.755 125.628 487.809 125.721 487.843 125.821C487.877 125.922 487.891 126.028 487.884 126.134C487.877 126.239 487.849 126.343 487.802 126.438L485.97 130.247C485.902 130.384 485.798 130.499 485.669 130.58C485.539 130.66 485.39 130.704 485.238 130.705Z" fill="#080C53"/>
<path d="M481.045 135.063L491.722 137.756C491.722 137.756 486.429 143.781 482.986 142.828C479.543 141.876 481.045 135.063 481.045 135.063Z" fill="#DEFCFF"/>
<path d="M503.625 163.596L502.746 168.797L506.372 163.944L503.625 163.596Z" fill="#F3417D"/>
<path d="M422.238 140.649L426.725 157.406V142.298L422.238 140.649Z" fill="#F3417D"/>
<path d="M566.202 235.587L565.781 218.537L562.631 230.331L566.202 235.587Z" fill="#DF8568"/>
<path d="M446.395 151.656C446.395 152.018 446.288 152.372 446.086 152.673C445.885 152.974 445.599 153.209 445.265 153.348C444.93 153.486 444.562 153.522 444.206 153.452C443.851 153.381 443.525 153.207 443.269 152.951C443.013 152.694 442.838 152.368 442.768 152.013C442.697 151.658 442.733 151.289 442.872 150.955C443.01 150.62 443.245 150.334 443.546 150.133C443.847 149.932 444.202 149.824 444.564 149.824C445.049 149.824 445.515 150.017 445.859 150.361C446.202 150.704 446.395 151.17 446.395 151.656Z" fill="#FEC751"/>
<path d="M441.378 162.937C441.378 163.299 441.27 163.653 441.069 163.954C440.868 164.255 440.582 164.49 440.247 164.629C439.912 164.767 439.544 164.804 439.189 164.733C438.834 164.662 438.507 164.488 438.251 164.232C437.995 163.976 437.821 163.649 437.75 163.294C437.679 162.939 437.716 162.571 437.854 162.236C437.993 161.901 438.228 161.615 438.529 161.414C438.83 161.213 439.184 161.105 439.546 161.105C440.032 161.105 440.498 161.298 440.841 161.642C441.185 161.985 441.378 162.451 441.378 162.937Z" fill="#FEC751"/>
<path d="M457.622 160.135C457.622 160.497 457.514 160.851 457.313 161.153C457.112 161.454 456.826 161.688 456.491 161.827C456.157 161.966 455.788 162.002 455.433 161.931C455.078 161.861 454.751 161.686 454.495 161.43C454.239 161.174 454.065 160.848 453.994 160.492C453.923 160.137 453.96 159.769 454.098 159.434C454.237 159.1 454.472 158.814 454.773 158.612C455.074 158.411 455.428 158.304 455.79 158.304C456.276 158.304 456.742 158.497 457.085 158.84C457.429 159.184 457.622 159.649 457.622 160.135Z" fill="#FEC751"/>
<path d="M471.063 176.361C471.063 176.723 470.956 177.077 470.754 177.378C470.553 177.679 470.267 177.914 469.933 178.053C469.598 178.191 469.23 178.227 468.874 178.157C468.519 178.086 468.193 177.912 467.937 177.656C467.681 177.4 467.506 177.073 467.436 176.718C467.365 176.363 467.401 175.994 467.54 175.66C467.678 175.325 467.913 175.039 468.214 174.838C468.516 174.637 468.87 174.529 469.232 174.529C469.717 174.529 470.183 174.722 470.527 175.066C470.87 175.409 471.063 175.875 471.063 176.361Z" fill="#FEC751"/>
<path d="M472.876 161.106C472.876 161.468 472.768 161.822 472.567 162.123C472.366 162.424 472.08 162.659 471.745 162.798C471.41 162.936 471.042 162.973 470.687 162.902C470.332 162.831 470.005 162.657 469.749 162.401C469.493 162.145 469.319 161.818 469.248 161.463C469.177 161.108 469.214 160.74 469.352 160.405C469.491 160.07 469.726 159.784 470.027 159.583C470.328 159.382 470.682 159.274 471.044 159.274C471.53 159.274 471.996 159.467 472.339 159.811C472.683 160.154 472.876 160.62 472.876 161.106Z" fill="#FEC751"/>
<path d="M502.544 173.651C502.544 174.013 502.436 174.367 502.235 174.668C502.034 174.969 501.748 175.204 501.413 175.343C501.078 175.481 500.71 175.518 500.355 175.447C500 175.376 499.673 175.202 499.417 174.946C499.161 174.69 498.987 174.363 498.916 174.008C498.845 173.653 498.882 173.285 499.02 172.95C499.159 172.615 499.394 172.329 499.695 172.128C499.996 171.927 500.35 171.819 500.712 171.819C501.198 171.819 501.664 172.012 502.007 172.356C502.351 172.699 502.544 173.165 502.544 173.651Z" fill="#FEC751"/>
<path d="M484.432 170.299C485.434 170.299 486.245 169.487 486.245 168.486C486.245 167.485 485.434 166.673 484.432 166.673C483.431 166.673 482.619 167.485 482.619 168.486C482.619 169.487 483.431 170.299 484.432 170.299Z" fill="#FEC751"/>
<path d="M478.131 189.308C478.131 189.794 477.939 190.259 477.595 190.603C477.252 190.946 476.786 191.139 476.3 191.139C475.814 191.139 475.349 190.946 475.005 190.603C474.662 190.259 474.469 189.794 474.469 189.308C474.469 188.822 474.662 188.356 475.005 188.013C475.349 187.67 475.814 187.477 476.3 187.477C476.786 187.477 477.252 187.67 477.595 188.013C477.939 188.356 478.131 188.822 478.131 189.308Z" fill="#FEC751"/>
<path d="M485.036 213.079C485.036 213.442 484.928 213.796 484.727 214.097C484.526 214.398 484.24 214.633 483.905 214.771C483.571 214.91 483.202 214.946 482.847 214.876C482.492 214.805 482.166 214.63 481.909 214.374C481.653 214.118 481.479 213.792 481.408 213.437C481.338 213.081 481.374 212.713 481.512 212.379C481.651 212.044 481.886 211.758 482.187 211.557C482.488 211.355 482.842 211.248 483.204 211.248C483.69 211.248 484.156 211.441 484.499 211.784C484.843 212.128 485.036 212.594 485.036 213.079Z" fill="#FEC751"/>
<path d="M516.206 180.811C516.206 181.173 516.098 181.527 515.897 181.828C515.696 182.129 515.41 182.364 515.075 182.503C514.741 182.641 514.372 182.678 514.017 182.607C513.662 182.536 513.336 182.362 513.079 182.106C512.823 181.85 512.649 181.523 512.578 181.168C512.508 180.813 512.544 180.445 512.682 180.11C512.821 179.775 513.056 179.489 513.357 179.288C513.658 179.087 514.012 178.979 514.374 178.979C514.86 178.979 515.326 179.172 515.669 179.516C516.013 179.859 516.206 180.325 516.206 180.811Z" fill="#FEC751"/>
<path d="M516.206 198.795C516.206 199.157 516.098 199.512 515.897 199.813C515.696 200.114 515.41 200.349 515.075 200.487C514.741 200.626 514.372 200.662 514.017 200.591C513.662 200.521 513.336 200.346 513.079 200.09C512.823 199.834 512.649 199.508 512.578 199.153C512.508 198.797 512.544 198.429 512.682 198.094C512.821 197.76 513.056 197.474 513.357 197.273C513.658 197.071 514.012 196.964 514.374 196.964C514.86 196.964 515.326 197.157 515.669 197.5C516.013 197.844 516.206 198.31 516.206 198.795Z" fill="#FEC751"/>
<path d="M487.985 232.767C487.985 233.253 487.792 233.718 487.449 234.062C487.105 234.405 486.639 234.598 486.154 234.598C485.668 234.598 485.202 234.405 484.859 234.062C484.515 233.718 484.322 233.253 484.322 232.767C484.322 232.281 484.515 231.815 484.859 231.472C485.202 231.128 485.668 230.936 486.154 230.936C486.639 230.936 487.105 231.128 487.449 231.472C487.792 231.815 487.985 232.281 487.985 232.767Z" fill="#FEC751"/>
<path d="M506.372 210.552C506.372 211.038 506.179 211.504 505.835 211.847C505.492 212.19 505.026 212.383 504.54 212.383C504.055 212.383 503.589 212.19 503.245 211.847C502.902 211.504 502.709 211.038 502.709 210.552C502.709 210.066 502.902 209.601 503.245 209.257C503.589 208.914 504.055 208.721 504.54 208.721C505.026 208.721 505.492 208.914 505.835 209.257C506.179 209.601 506.372 210.066 506.372 210.552Z" fill="#FEC751"/>
<path d="M518.02 220.643C518.02 221.129 517.827 221.594 517.484 221.938C517.14 222.281 516.675 222.474 516.189 222.474C515.703 222.474 515.237 222.281 514.894 221.938C514.55 221.594 514.357 221.129 514.357 220.643C514.357 220.157 514.55 219.691 514.894 219.348C515.237 219.004 515.703 218.812 516.189 218.812C516.675 218.812 517.14 219.004 517.484 219.348C517.827 219.691 518.02 220.157 518.02 220.643Z" fill="#FEC751"/>
<path d="M522.104 247.967C522.104 248.329 521.997 248.683 521.796 248.985C521.594 249.286 521.308 249.52 520.974 249.659C520.639 249.798 520.271 249.834 519.916 249.763C519.56 249.693 519.234 249.518 518.978 249.262C518.722 249.006 518.547 248.68 518.477 248.324C518.406 247.969 518.442 247.601 518.581 247.266C518.719 246.932 518.954 246.646 519.255 246.444C519.557 246.243 519.911 246.136 520.273 246.136C520.758 246.136 521.224 246.329 521.568 246.672C521.911 247.016 522.104 247.481 522.104 247.967Z" fill="#FEC751"/>
<path d="M537.651 256.52C537.651 256.882 537.544 257.236 537.342 257.537C537.141 257.838 536.855 258.073 536.52 258.212C536.186 258.35 535.818 258.387 535.462 258.316C535.107 258.245 534.781 258.071 534.525 257.815C534.269 257.559 534.094 257.232 534.023 256.877C533.953 256.522 533.989 256.154 534.128 255.819C534.266 255.484 534.501 255.198 534.802 254.997C535.103 254.796 535.457 254.688 535.82 254.688C536.305 254.688 536.771 254.881 537.115 255.225C537.458 255.568 537.651 256.034 537.651 256.52Z" fill="#FEC751"/>
<path d="M527.506 235.514C527.506 235.876 527.399 236.23 527.198 236.531C526.997 236.833 526.711 237.067 526.376 237.206C526.041 237.345 525.673 237.381 525.318 237.31C524.963 237.239 524.636 237.065 524.38 236.809C524.124 236.553 523.95 236.227 523.879 235.871C523.808 235.516 523.845 235.148 523.983 234.813C524.122 234.478 524.357 234.192 524.658 233.991C524.959 233.79 525.313 233.683 525.675 233.683C526.161 233.683 526.627 233.876 526.97 234.219C527.313 234.562 527.506 235.028 527.506 235.514Z" fill="#FEC751"/>
<path d="M527.506 210.552C527.506 211.038 527.313 211.504 526.97 211.847C526.627 212.19 526.161 212.383 525.675 212.383C525.189 212.383 524.724 212.19 524.38 211.847C524.037 211.504 523.844 211.038 523.844 210.552C523.844 210.066 524.037 209.601 524.38 209.257C524.724 208.914 525.189 208.721 525.675 208.721C526.161 208.721 526.627 208.914 526.97 209.257C527.313 209.601 527.506 210.066 527.506 210.552Z" fill="#FEC751"/>
<path d="M491.061 181.671C491.061 182.157 490.868 182.623 490.525 182.966C490.181 183.31 489.716 183.503 489.23 183.503C488.744 183.503 488.278 183.31 487.935 182.966C487.591 182.623 487.398 182.157 487.398 181.671C487.398 181.186 487.591 180.72 487.935 180.376C488.278 180.033 488.744 179.84 489.23 179.84C489.716 179.84 490.181 180.033 490.525 180.376C490.868 180.72 491.061 181.186 491.061 181.671Z" fill="#FEC751"/>
<path d="M501.208 191.927C502.209 191.927 503.021 191.115 503.021 190.114C503.021 189.113 502.209 188.301 501.208 188.301C500.206 188.301 499.395 189.113 499.395 190.114C499.395 191.115 500.206 191.927 501.208 191.927Z" fill="#FEC751"/>
<path d="M472.876 201.542C472.876 201.905 472.768 202.259 472.567 202.56C472.366 202.861 472.08 203.096 471.745 203.234C471.41 203.373 471.042 203.409 470.687 203.339C470.332 203.268 470.005 203.093 469.749 202.837C469.493 202.581 469.319 202.255 469.248 201.9C469.177 201.544 469.214 201.176 469.352 200.842C469.491 200.507 469.726 200.221 470.027 200.02C470.328 199.818 470.682 199.711 471.044 199.711C471.53 199.711 471.996 199.904 472.339 200.247C472.683 200.591 472.876 201.057 472.876 201.542Z" fill="#FEC751"/>
<path d="M491.061 199.729C491.061 200.215 490.868 200.68 490.525 201.024C490.181 201.367 489.716 201.56 489.23 201.56C488.744 201.56 488.278 201.367 487.935 201.024C487.591 200.68 487.398 200.215 487.398 199.729C487.398 199.243 487.591 198.777 487.935 198.434C488.278 198.09 488.744 197.897 489.23 197.897C489.716 197.897 490.181 198.09 490.525 198.434C490.868 198.777 491.061 199.243 491.061 199.729Z" fill="#FEC751"/>
<path d="M498.735 221.998C498.735 222.361 498.628 222.715 498.426 223.016C498.225 223.317 497.939 223.552 497.604 223.69C497.27 223.829 496.902 223.865 496.546 223.795C496.191 223.724 495.865 223.549 495.609 223.293C495.353 223.037 495.178 222.711 495.107 222.356C495.037 222 495.073 221.632 495.212 221.298C495.35 220.963 495.585 220.677 495.886 220.476C496.187 220.274 496.541 220.167 496.904 220.167C497.389 220.167 497.855 220.36 498.199 220.703C498.542 221.047 498.735 221.513 498.735 221.998Z" fill="#FEC751"/>
<path d="M498.735 243.004C498.735 243.49 498.542 243.956 498.199 244.299C497.855 244.643 497.389 244.836 496.904 244.836C496.418 244.836 495.952 244.643 495.609 244.299C495.265 243.956 495.072 243.49 495.072 243.004C495.072 242.519 495.265 242.053 495.609 241.709C495.952 241.366 496.418 241.173 496.904 241.173C497.389 241.173 497.855 241.366 498.199 241.709C498.542 242.053 498.735 242.519 498.735 243.004Z" fill="#FEC751"/>
<path d="M497.526 264.998C497.526 265.361 497.419 265.715 497.217 266.016C497.016 266.317 496.73 266.552 496.395 266.69C496.061 266.829 495.693 266.865 495.337 266.794C494.982 266.724 494.656 266.549 494.4 266.293C494.144 266.037 493.969 265.711 493.898 265.356C493.828 265 493.864 264.632 494.003 264.298C494.141 263.963 494.376 263.677 494.677 263.476C494.978 263.274 495.332 263.167 495.695 263.167C496.18 263.167 496.646 263.36 496.99 263.703C497.333 264.047 497.526 264.513 497.526 264.998Z" fill="#FEC751"/>
<path d="M509.778 256.52C509.778 256.882 509.671 257.236 509.469 257.537C509.268 257.838 508.982 258.073 508.647 258.212C508.313 258.35 507.945 258.387 507.589 258.316C507.234 258.245 506.908 258.071 506.652 257.815C506.396 257.559 506.221 257.232 506.15 256.877C506.08 256.522 506.116 256.154 506.255 255.819C506.393 255.484 506.628 255.198 506.929 254.997C507.23 254.796 507.584 254.688 507.947 254.688C508.432 254.688 508.898 254.881 509.242 255.225C509.585 255.568 509.778 256.034 509.778 256.52Z" fill="#FEC751"/>
<path d="M509.778 234.579C509.778 234.942 509.671 235.296 509.469 235.597C509.268 235.898 508.982 236.133 508.647 236.271C508.313 236.41 507.945 236.446 507.589 236.376C507.234 236.305 506.908 236.131 506.652 235.874C506.396 235.618 506.221 235.292 506.15 234.937C506.08 234.581 506.116 234.213 506.255 233.879C506.393 233.544 506.628 233.258 506.929 233.057C507.23 232.855 507.584 232.748 507.947 232.748C508.432 232.748 508.898 232.941 509.242 233.284C509.585 233.628 509.778 234.094 509.778 234.579Z" fill="#FEC751"/>
<path d="M489.249 252.875C489.249 253.238 489.141 253.592 488.94 253.893C488.739 254.194 488.453 254.429 488.118 254.567C487.783 254.706 487.415 254.742 487.06 254.671C486.705 254.601 486.378 254.426 486.122 254.17C485.866 253.914 485.692 253.588 485.621 253.233C485.55 252.877 485.587 252.509 485.725 252.175C485.864 251.84 486.099 251.554 486.4 251.353C486.701 251.151 487.055 251.044 487.417 251.044C487.903 251.044 488.369 251.237 488.712 251.58C489.056 251.924 489.249 252.39 489.249 252.875Z" fill="#FEC751"/>
<path d="M524.686 263.186C524.686 263.548 524.579 263.902 524.378 264.203C524.176 264.504 523.89 264.739 523.556 264.878C523.221 265.016 522.853 265.053 522.497 264.982C522.142 264.911 521.816 264.737 521.56 264.481C521.304 264.225 521.129 263.898 521.059 263.543C520.988 263.188 521.024 262.82 521.163 262.485C521.301 262.15 521.536 261.864 521.837 261.663C522.138 261.462 522.493 261.354 522.855 261.354C523.341 261.354 523.806 261.547 524.15 261.891C524.493 262.234 524.686 262.7 524.686 263.186Z" fill="#FEC751"/>
<path d="M518.477 170.299C519.478 170.299 520.29 169.487 520.29 168.486C520.29 167.485 519.478 166.673 518.477 166.673C517.476 166.673 516.664 167.485 516.664 168.486C516.664 169.487 517.476 170.299 518.477 170.299Z" fill="#FEC751"/>
<path d="M530.6 188.1C530.6 188.586 530.407 189.051 530.064 189.395C529.72 189.738 529.255 189.931 528.769 189.931C528.283 189.931 527.817 189.738 527.474 189.395C527.13 189.051 526.938 188.586 526.938 188.1C526.938 187.614 527.13 187.148 527.474 186.805C527.817 186.462 528.283 186.269 528.769 186.269C529.255 186.269 529.72 186.462 530.064 186.805C530.407 187.148 530.6 187.614 530.6 188.1Z" fill="#FEC751"/>
<path d="M559.28 199.729C559.28 200.091 559.172 200.445 558.971 200.746C558.77 201.047 558.484 201.282 558.149 201.421C557.815 201.559 557.447 201.596 557.091 201.525C556.736 201.454 556.41 201.28 556.154 201.024C555.897 200.768 555.723 200.441 555.652 200.086C555.582 199.731 555.618 199.363 555.757 199.028C555.895 198.693 556.13 198.407 556.431 198.206C556.732 198.005 557.086 197.897 557.448 197.897C557.934 197.897 558.4 198.09 558.744 198.434C559.087 198.777 559.28 199.243 559.28 199.729Z" fill="#FEC751"/>
<path d="M544.518 196.982C544.518 197.344 544.411 197.698 544.21 197.999C544.008 198.3 543.722 198.535 543.388 198.674C543.053 198.812 542.685 198.849 542.33 198.778C541.974 198.707 541.648 198.533 541.392 198.277C541.136 198.021 540.961 197.694 540.891 197.339C540.82 196.984 540.856 196.616 540.995 196.281C541.134 195.946 541.368 195.66 541.669 195.459C541.971 195.258 542.325 195.15 542.687 195.15C543.172 195.15 543.638 195.343 543.982 195.687C544.325 196.03 544.518 196.496 544.518 196.982Z" fill="#FEC751"/>
<path d="M548.145 186.286C548.145 186.772 547.952 187.238 547.609 187.581C547.265 187.925 546.799 188.118 546.314 188.118C545.828 188.118 545.362 187.925 545.019 187.581C544.675 187.238 544.482 186.772 544.482 186.286C544.482 185.801 544.675 185.335 545.019 184.991C545.362 184.648 545.828 184.455 546.314 184.455C546.799 184.455 547.265 184.648 547.609 184.991C547.952 185.335 548.145 185.801 548.145 186.286Z" fill="#FEC751"/>
<path d="M554.335 213.079C555.336 213.079 556.148 212.267 556.148 211.266C556.148 210.265 555.336 209.453 554.335 209.453C553.333 209.453 552.521 210.265 552.521 211.266C552.521 212.267 553.333 213.079 554.335 213.079Z" fill="#FEC751"/>
<path d="M536.37 173.797C536.37 174.159 536.262 174.513 536.061 174.815C535.86 175.116 535.574 175.351 535.239 175.489C534.905 175.628 534.536 175.664 534.181 175.593C533.826 175.523 533.5 175.348 533.243 175.092C532.987 174.836 532.813 174.51 532.742 174.154C532.672 173.799 532.708 173.431 532.846 173.096C532.985 172.762 533.22 172.476 533.521 172.274C533.822 172.073 534.176 171.966 534.538 171.966C535.024 171.966 535.49 172.159 535.833 172.502C536.177 172.846 536.37 173.311 536.37 173.797Z" fill="#FEC751"/>
<path d="M495.951 394.274L487.05 409.804L485.384 412.716L482.802 417.221L481.135 420.115L459.488 457.859L460.349 455.552L480.659 420.133L482.325 417.221L484.908 412.716L486.574 409.823L495.658 393.963L495.951 394.274Z" fill="#BD134C"/>
<path d="M489.707 409.731L488.004 412.625L485.385 412.717H484.909L476.137 412.991L477.199 410.116L486.575 409.823L487.052 409.805L489.707 409.731Z" fill="#BD134C"/>
<path d="M485.33 417.148L483.609 420.024L481.137 420.115L480.66 420.134L473.408 420.353L474.47 417.478L482.327 417.222H482.803L485.33 417.148Z" fill="#BD134C"/>
<path d="M566.075 493.7L546.864 500.512L543.458 501.703L537.945 503.662L534.557 504.871L502.398 516.28L504.248 515.182L534.118 504.596L537.506 503.388L543.036 501.428L546.424 500.238L565.965 493.297L566.075 493.7Z" fill="#BD134C"/>
<path d="M548.126 501.318L544.702 502.508L543.456 501.703L543.035 501.428L535.691 496.739L538.457 495.128L546.423 500.237L546.863 500.512L548.126 501.318Z" fill="#BD134C"/>
<path d="M539.117 504.413L535.692 505.603L534.557 504.871L534.117 504.596L528.477 500.988L531.224 499.358L537.505 503.387L537.945 503.662L539.117 504.413Z" fill="#BD134C"/>
<path d="M476.172 52.561H592.939L567.209 48.6968C567.209 48.6968 569.333 40.5839 561.403 39.54C559.185 39.2186 556.921 39.4976 554.847 40.3478C552.773 41.1981 550.964 42.5886 549.609 44.3748C549.609 44.3748 551.148 37.5804 542.449 39.4301C542.449 39.4301 550.983 25.0539 533.677 23.4972C516.37 21.9406 519.85 36.6464 519.85 36.6464C517.763 35.8305 515.512 35.5229 513.283 35.749C511.054 35.9751 508.911 36.7284 507.03 37.9467C500.254 42.049 503.734 46.2977 503.734 46.2977C503.734 46.2977 497.947 42.4335 495.035 44.9608C492.123 47.4881 493.863 49.3927 493.863 49.3927L476.172 52.561Z" fill="#64B6FA"/>
<path d="M135.52 150.722H200.314L182.788 147.865C182.842 146.596 182.413 145.353 181.587 144.388C180.761 143.423 179.6 142.806 178.338 142.664C177.059 142.348 175.718 142.403 174.469 142.821C173.221 143.24 172.117 144.004 171.287 145.026C171.287 145.026 171.745 140.503 168.43 139.807C165.115 139.111 164.767 141.18 164.767 141.18C164.767 141.18 162.368 132.976 152.918 135.375C143.468 137.774 148.816 144.532 148.816 144.532C148.816 144.532 144.146 140.246 142.791 146.052C142.791 146.052 140.74 140.558 134.586 143.781C128.433 147.004 135.52 150.722 135.52 150.722Z" fill="#64B6FA"/>
</g>
<defs>
<clipPath id="clip0_4132_28204">
<rect width="677" height="546.735" fill="white" transform="translate(0 0.40332)"/>
</clipPath>
</defs>
</svg>
