<svg width="592" height="452" viewBox="0 0 592 452" fill="none" xmlns="http://www.w3.org/2000/svg">
<g clip-path="url(#clip0_2946_24477)">
<path d="M581.679 450.351L59.0572 449C52.5723 425.422 47.4413 401.383 43.6972 377.036C43.6972 376.802 43.6294 376.569 43.6023 376.336C41.9717 365.536 40.8279 354.646 40.1754 343.71V343.011C39.3971 331.323 39.8519 319.57 41.5299 308.008L41.6518 307.309C44.1306 292.906 49.4809 281.891 59.1249 277.386C60.642 276.671 62.1726 275.832 63.7303 275.117L65.0848 274.418C107.955 251.828 165.061 196.115 165.887 145.389C165.987 135.397 167.267 125.467 169.693 115.87C169.693 115.621 169.815 115.388 169.883 115.155C172.647 104.651 177.063 94.8147 182.913 86.1334L183.401 85.4187C191.635 73.8239 201.867 64.3035 213.457 57.4534L214.622 56.7387C227.124 49.2191 242.444 43.1133 261.027 38.7631L261.637 38.6233C269.583 36.79 278.139 35.283 287.305 34.1023C299.13 32.5486 310.724 30.4357 321.994 27.8877L322.603 27.7479C398.347 10.6579 458.731 -22.4034 470.068 23.522C483.126 76.3455 480.904 199.58 529.924 217.276C578.943 234.971 581.679 450.351 581.679 450.351Z" fill="white"/>
<path d="M563.84 449H497.673L489.546 362.695C489.452 361.707 489.542 360.707 489.807 359.761C490.073 358.815 490.51 357.944 491.089 357.204C491.667 356.464 492.375 355.871 493.167 355.466C493.958 355.06 494.815 354.85 495.681 354.85H564.165C565.02 354.848 565.866 355.051 566.65 355.444C567.433 355.837 568.137 356.413 568.716 357.135C569.296 357.856 569.738 358.708 570.015 359.635C570.293 360.563 570.4 361.547 570.328 362.525L563.84 449Z" fill="#C9E4FF"/>
<path d="M564.098 354.787H562.188C563.024 356.143 563.413 357.794 563.285 359.448L556.878 445.892H497.389L497.673 448.906H563.841L570.261 362.431C570.328 361.456 570.219 360.476 569.94 359.551C569.66 358.627 569.217 357.78 568.638 357.062C568.059 356.344 567.357 355.771 566.576 355.379C565.794 354.988 564.951 354.786 564.098 354.787Z" fill="#4FA5FF"/>
<path d="M515.206 385.878L500.412 383.169L499.505 389.689L514.298 392.398L515.206 385.878Z" fill="#4FA5FF"/>
<path d="M499.459 389.744L497.211 405.855L499.161 406.213L500.746 399.734L500.57 406.477L507.153 407.673L508.142 406.011L508.345 407.906L512.002 408.574L514.251 392.463L499.459 389.744Z" fill="#005BBA"/>
<path d="M500.367 383.234L515.158 385.938C515.158 385.938 509.74 384.384 509.212 381.277C508.684 378.169 513.682 372.343 514.197 367.511C514.711 362.68 512.07 361.297 510.756 361.079C509.442 360.862 506.259 360.691 505.568 366.191C504.837 372.048 507.668 378.014 506.368 380.764C505.067 383.514 500.367 383.234 500.367 383.234ZM509.984 367.372C509.348 367.372 508.914 366.346 509.036 365.274C509.158 364.202 509.754 363.41 510.391 363.503C511.027 363.596 511.461 364.528 511.339 365.6C511.217 366.672 510.621 367.465 510.011 367.372H509.984Z" fill="#4FA5FF"/>
<path d="M519.235 449H481.729L477.083 400.076C477.03 399.516 477.08 398.949 477.231 398.412C477.382 397.876 477.629 397.381 477.958 396.962C478.286 396.543 478.688 396.208 479.137 395.979C479.587 395.749 480.073 395.632 480.564 395.633H519.384C519.869 395.631 520.35 395.745 520.794 395.967C521.239 396.19 521.638 396.516 521.967 396.925C522.296 397.334 522.547 397.817 522.704 398.344C522.861 398.87 522.92 399.429 522.879 399.983L519.235 449Z" fill="#4FA5FF"/>
<path d="M519.384 395.57H517.081C517.398 395.979 517.639 396.456 517.79 396.974C517.941 397.492 518 398.04 517.962 398.584L514.318 447.601H481.566L481.702 448.938H519.208L522.852 399.921C522.893 399.369 522.834 398.813 522.679 398.289C522.523 397.764 522.275 397.283 521.949 396.874C521.623 396.465 521.227 396.138 520.786 395.914C520.344 395.69 519.867 395.573 519.384 395.57Z" fill="#005BBA"/>
<path d="M554.453 414.695L534.422 418.31L535.632 427.134L555.663 423.52L554.453 414.695Z" fill="#4FA5FF"/>
<path d="M535.639 427.125L538.632 448.938L541.26 448.472L540.948 439.368L543.183 448.13L552.082 446.514L552.76 443.904L553.708 446.219L558.652 445.333L555.672 423.521L535.639 427.125Z" fill="#005BBA"/>
<path d="M534.393 418.316L554.426 414.696C554.426 414.696 546.949 415.349 545.08 411.589C543.21 407.829 547.572 397.932 546.434 391.469C545.296 385.006 541.436 384.524 539.662 384.851C538.145 385.115 533.729 386.513 534.84 393.924C536.032 401.801 541.869 408.109 541.192 412.272C540.515 416.436 534.393 418.316 534.393 418.316ZM540.975 393.287C540.122 393.473 539.242 392.479 538.998 391.034C538.754 389.589 539.242 388.3 540.095 388.098C540.948 387.896 541.842 388.921 542.086 390.351C542.33 391.78 541.869 393.069 541.016 393.287H540.975Z" fill="#4FA5FF"/>
<path d="M322.535 27.5771V57.2671H213.375L214.54 56.5524H321.911V27.717L322.535 27.5771Z" fill="#4FA5FF"/>
<path d="M350.179 60.8562V86.0251H182.844L183.331 85.3104H349.529V60.8562C349.52 60.8042 349.52 60.7503 349.531 60.6986C349.542 60.6468 349.563 60.5985 349.592 60.5572C349.621 60.5158 349.658 60.4825 349.7 60.4596C349.742 60.4367 349.787 60.4248 349.834 60.4248C349.88 60.4248 349.926 60.4367 349.968 60.4596C350.01 60.4825 350.047 60.5158 350.076 60.5572C350.105 60.5985 350.126 60.6468 350.137 60.6986C350.148 60.7503 350.148 60.8042 350.139 60.8562H350.179Z" fill="#4FA5FF"/>
<path d="M290.5 86.025C290.417 86.025 290.338 85.9873 290.28 85.9203C290.221 85.8533 290.188 85.7624 290.188 85.6677V56.91C290.179 56.8579 290.179 56.804 290.19 56.7523C290.201 56.7005 290.222 56.6522 290.251 56.6109C290.28 56.5695 290.317 56.5362 290.359 56.5133C290.401 56.4904 290.447 56.4785 290.493 56.4785C290.54 56.4785 290.585 56.4904 290.627 56.5133C290.669 56.5362 290.706 56.5695 290.735 56.6109C290.764 56.6522 290.785 56.7005 290.796 56.7523C290.807 56.804 290.808 56.8579 290.798 56.91V85.6677C290.8 85.7138 290.793 85.76 290.779 85.8032C290.765 85.8465 290.743 85.8861 290.716 85.9195C290.688 85.9529 290.654 85.9795 290.617 85.9976C290.58 86.0157 290.54 86.025 290.5 86.025Z" fill="#4FA5FF"/>
<path d="M230.401 86.0242C230.319 86.0242 230.239 85.9865 230.181 85.9195C230.123 85.8525 230.09 85.7616 230.09 85.6668V56.9091C230.09 56.8143 230.123 56.7234 230.181 56.6564C230.239 56.5894 230.319 56.5518 230.401 56.5518C230.484 56.5518 230.563 56.5894 230.622 56.6564C230.68 56.7234 230.713 56.8143 230.713 56.9091V85.6668C230.713 85.7138 230.705 85.7602 230.689 85.8036C230.673 85.8469 230.651 85.8863 230.622 85.9195C230.593 85.9527 230.558 85.979 230.521 85.997C230.483 86.0149 230.442 86.0242 230.401 86.0242Z" fill="#4FA5FF"/>
<path d="M322.535 85.6678V115.762H169.625C169.625 115.513 169.747 115.28 169.815 115.047H321.926V85.6678C321.916 85.6157 321.917 85.5618 321.927 85.5101C321.938 85.4584 321.959 85.4101 321.988 85.3687C322.017 85.3274 322.054 85.294 322.096 85.2711C322.138 85.2482 322.184 85.2363 322.23 85.2363C322.277 85.2363 322.323 85.2482 322.364 85.2711C322.406 85.294 322.443 85.3274 322.472 85.3687C322.502 85.4101 322.522 85.4584 322.533 85.5101C322.544 85.5618 322.545 85.6157 322.535 85.6678Z" fill="#4FA5FF"/>
<path d="M261.258 115.762C261.178 115.758 261.102 115.718 261.046 115.652C260.991 115.585 260.96 115.496 260.96 115.404V85.6678C260.95 85.6157 260.951 85.5618 260.962 85.5101C260.973 85.4584 260.993 85.4101 261.023 85.3687C261.052 85.3274 261.089 85.294 261.131 85.2711C261.172 85.2482 261.218 85.2363 261.265 85.2363C261.311 85.2363 261.357 85.2482 261.399 85.2711C261.441 85.294 261.477 85.3274 261.507 85.3687C261.536 85.4101 261.557 85.4584 261.568 85.5101C261.578 85.5618 261.579 85.6157 261.569 85.6678V115.404C261.569 115.499 261.537 115.59 261.478 115.657C261.42 115.724 261.34 115.762 261.258 115.762Z" fill="#4FA5FF"/>
<path d="M200.291 115.762C200.211 115.758 200.135 115.718 200.079 115.652C200.024 115.585 199.993 115.496 199.993 115.404V85.6678C199.983 85.6157 199.984 85.5618 199.995 85.5101C200.006 85.4584 200.027 85.4101 200.056 85.3687C200.085 85.3274 200.122 85.294 200.164 85.2711C200.206 85.2482 200.251 85.2363 200.298 85.2363C200.344 85.2363 200.39 85.2482 200.432 85.2711C200.474 85.294 200.511 85.3274 200.54 85.3687C200.569 85.4101 200.59 85.4584 200.601 85.5101C200.612 85.5618 200.612 85.6157 200.603 85.6678V115.404C200.603 115.499 200.57 115.59 200.511 115.657C200.453 115.724 200.374 115.762 200.291 115.762Z" fill="#4FA5FF"/>
<path d="M261.569 38.4365V56.9092C261.579 56.9613 261.578 57.0151 261.568 57.0669C261.557 57.1186 261.536 57.1669 261.507 57.2083C261.477 57.2496 261.441 57.2829 261.399 57.3058C261.357 57.3288 261.311 57.3406 261.265 57.3406C261.218 57.3406 261.172 57.3288 261.131 57.3058C261.089 57.2829 261.052 57.2496 261.023 57.2083C260.993 57.1669 260.973 57.1186 260.962 57.0669C260.951 57.0151 260.95 56.9613 260.96 56.9092V38.5763L261.569 38.4365Z" fill="#4FA5FF"/>
<path d="M98.4585 274.682V307.915H41.4609L41.5829 307.215H97.849V274.682C97.8394 274.63 97.84 274.576 97.8509 274.525C97.8617 274.473 97.8825 274.425 97.9117 274.383C97.9409 274.342 97.9778 274.309 98.0197 274.286C98.0616 274.263 98.1074 274.251 98.1538 274.251C98.2002 274.251 98.246 274.263 98.2879 274.286C98.3297 274.309 98.3666 274.342 98.3958 274.383C98.425 274.425 98.4458 274.473 98.4567 274.525C98.4675 274.576 98.4682 274.63 98.4585 274.682Z" fill="#4FA5FF"/>
<path d="M103.781 343.352C103.781 343.443 103.75 343.53 103.694 343.594C103.638 343.658 103.562 343.694 103.483 343.694H40.1738V342.995H103.524C103.598 343.007 103.666 343.05 103.714 343.116C103.761 343.182 103.785 343.267 103.781 343.352Z" fill="#4FA5FF"/>
<path d="M56.9835 343.617C56.9045 343.617 56.8287 343.581 56.7728 343.517C56.7169 343.453 56.6855 343.366 56.6855 343.275V307.619C56.6855 307.529 56.7169 307.442 56.7728 307.378C56.8287 307.314 56.9045 307.278 56.9835 307.278C57.0238 307.276 57.064 307.283 57.1017 307.299C57.1394 307.315 57.1739 307.34 57.203 307.372C57.2322 307.404 57.2553 307.442 57.2712 307.485C57.287 307.528 57.2951 307.573 57.295 307.619V343.353C57.2791 343.432 57.2389 343.503 57.1818 343.551C57.1247 343.6 57.0544 343.623 56.9835 343.617Z" fill="#4FA5FF"/>
<path d="M119.563 274.682C119.563 274.729 119.555 274.774 119.539 274.817C119.523 274.86 119.5 274.898 119.471 274.93C119.442 274.962 119.407 274.987 119.37 275.003C119.332 275.019 119.292 275.026 119.252 275.024H63.7168L65.0713 274.325H119.252C119.334 274.325 119.413 274.363 119.472 274.43C119.53 274.497 119.563 274.588 119.563 274.682Z" fill="#4FA5FF"/>
<path d="M98.1601 376.973C98.1199 376.975 98.0796 376.968 98.0419 376.952C98.0042 376.935 97.9697 376.911 97.9406 376.879C97.9115 376.847 97.8883 376.808 97.8725 376.766C97.8567 376.723 97.8485 376.677 97.8486 376.631V343.352C97.839 343.3 97.8396 343.246 97.8504 343.195C97.8613 343.143 97.8821 343.095 97.9113 343.053C97.9405 343.012 97.9774 342.979 98.0193 342.956C98.0611 342.933 98.107 342.921 98.1533 342.921C98.1997 342.921 98.2456 342.933 98.2874 342.956C98.3293 342.979 98.3662 343.012 98.3954 343.053C98.4246 343.095 98.4454 343.143 98.4563 343.195C98.4671 343.246 98.4677 343.3 98.4581 343.352V376.709C98.4426 376.786 98.4044 376.854 98.3501 376.902C98.2958 376.95 98.2287 376.975 98.1601 376.973Z" fill="#4FA5FF"/>
<path d="M130.005 376.632C130.006 376.678 129.997 376.724 129.982 376.766C129.966 376.809 129.943 376.847 129.913 376.879C129.884 376.911 129.85 376.936 129.812 376.952C129.774 376.968 129.734 376.976 129.694 376.974H43.6964C43.6964 376.741 43.6287 376.507 43.6016 376.274H129.694C129.777 376.274 129.856 376.312 129.914 376.379C129.973 376.446 130.005 376.537 130.005 376.632Z" fill="#4FA5FF"/>
<path d="M350.857 173.215H272.973C272.158 173.215 271.376 172.843 270.799 172.182C270.222 171.52 269.898 170.623 269.898 169.688C269.898 168.753 270.222 167.855 270.799 167.194C271.376 166.533 272.158 166.161 272.973 166.161H350.857C351.673 166.161 352.455 166.533 353.031 167.194C353.608 167.855 353.932 168.753 353.932 169.688C353.932 170.623 353.608 171.52 353.031 172.182C352.455 172.843 351.673 173.215 350.857 173.215Z" fill="#4FA5FF"/>
<path d="M192.097 450.351C191.949 450.348 191.802 450.316 191.663 450.258C191.512 450.193 191.374 450.094 191.257 449.966C191.14 449.839 191.046 449.687 190.98 449.518C190.915 449.349 190.879 449.166 190.875 448.981C190.872 448.797 190.9 448.613 190.959 448.44L284.745 169.175C284.842 168.896 285.015 168.66 285.237 168.502C285.459 168.343 285.72 168.27 285.981 168.292C286.242 168.315 286.49 168.432 286.689 168.627C286.888 168.822 287.028 169.084 287.088 169.377L341.458 448.642C341.494 448.822 341.499 449.008 341.472 449.189C341.445 449.371 341.387 449.545 341.302 449.701C341.216 449.857 341.104 449.992 340.973 450.098C340.842 450.204 340.694 450.28 340.537 450.32C340.379 450.361 340.215 450.366 340.055 450.335C339.895 450.303 339.742 450.236 339.604 450.136C339.467 450.036 339.349 449.907 339.255 449.754C339.162 449.602 339.096 449.43 339.06 449.248L285.571 174.535L193.248 449.528C193.147 449.779 192.985 449.991 192.78 450.138C192.575 450.284 192.338 450.358 192.097 450.351Z" fill="#4FA5FF"/>
<path d="M253.63 450.352C253.492 450.356 253.354 450.33 253.224 450.274C252.917 450.148 252.667 449.887 252.527 449.549C252.387 449.212 252.37 448.824 252.479 448.472L339.167 169.206C339.26 168.925 339.428 168.683 339.646 168.516C339.865 168.349 340.124 168.264 340.386 168.274C340.651 168.291 340.903 168.404 341.108 168.597C341.312 168.79 341.458 169.052 341.524 169.346L401.42 448.612C401.459 448.792 401.466 448.98 401.441 449.163C401.416 449.347 401.36 449.523 401.275 449.682C401.191 449.841 401.08 449.979 400.95 450.089C400.819 450.198 400.67 450.277 400.513 450.321C400.356 450.365 400.194 450.372 400.034 450.344C399.875 450.315 399.722 450.25 399.585 450.154C399.448 450.057 399.329 449.93 399.234 449.78C399.14 449.63 399.073 449.46 399.036 449.28L340.115 174.582L254.863 449.42C254.775 449.708 254.606 449.956 254.384 450.124C254.161 450.292 253.896 450.372 253.63 450.352Z" fill="#4FA5FF"/>
<path d="M349.854 215.815H294.645C294.342 215.778 294.061 215.614 293.858 215.355C293.654 215.095 293.541 214.758 293.541 214.409C293.541 214.06 293.654 213.723 293.858 213.463C294.061 213.203 294.342 213.039 294.645 213.003H349.908C350.08 212.982 350.254 213.003 350.418 213.064C350.583 213.125 350.734 213.226 350.862 213.358C350.99 213.491 351.093 213.653 351.163 213.834C351.234 214.015 351.27 214.211 351.27 214.409C351.27 214.607 351.234 214.803 351.163 214.984C351.093 215.165 350.99 215.327 350.862 215.46C350.734 215.592 350.583 215.692 350.418 215.754C350.254 215.815 350.08 215.836 349.908 215.815H349.854Z" fill="#4FA5FF"/>
<path d="M360.596 265.888H304.344C304.041 265.852 303.761 265.688 303.557 265.428C303.353 265.168 303.24 264.831 303.24 264.482C303.24 264.133 303.353 263.796 303.557 263.536C303.761 263.277 304.041 263.113 304.344 263.076H360.596C360.768 263.055 360.942 263.076 361.106 263.138C361.27 263.199 361.422 263.299 361.55 263.431C361.679 263.564 361.781 263.726 361.851 263.907C361.922 264.088 361.958 264.284 361.958 264.482C361.958 264.68 361.922 264.876 361.851 265.057C361.781 265.238 361.679 265.4 361.55 265.533C361.422 265.665 361.27 265.766 361.106 265.827C360.942 265.888 360.768 265.909 360.596 265.888Z" fill="#4FA5FF"/>
<path d="M372.774 322.674H315.411C315.239 322.695 315.065 322.674 314.901 322.613C314.736 322.552 314.585 322.452 314.457 322.319C314.328 322.186 314.226 322.024 314.155 321.843C314.085 321.662 314.049 321.466 314.049 321.268C314.049 321.07 314.085 320.874 314.155 320.693C314.226 320.512 314.328 320.35 314.457 320.218C314.585 320.085 314.736 319.985 314.901 319.924C315.065 319.862 315.239 319.842 315.411 319.862H372.774C372.946 319.842 373.119 319.862 373.284 319.924C373.448 319.985 373.599 320.085 373.728 320.218C373.856 320.35 373.959 320.512 374.029 320.693C374.099 320.874 374.135 321.07 374.135 321.268C374.135 321.466 374.099 321.662 374.029 321.843C373.959 322.024 373.856 322.186 373.728 322.319C373.599 322.452 373.448 322.552 373.284 322.613C373.119 322.674 372.946 322.695 372.774 322.674Z" fill="#4FA5FF"/>
<path d="M385.872 381.65H326.883C326.556 381.65 326.243 381.501 326.011 381.236C325.78 380.971 325.65 380.611 325.65 380.236C325.65 379.861 325.78 379.502 326.011 379.236C326.243 378.971 326.556 378.822 326.883 378.822H385.872C386.199 378.822 386.512 378.971 386.743 379.236C386.974 379.502 387.104 379.861 387.104 380.236C387.104 380.611 386.974 380.971 386.743 381.236C386.512 381.501 386.199 381.65 385.872 381.65Z" fill="#4FA5FF"/>
<path d="M323.24 225.976H267.461C267.289 225.997 267.116 225.976 266.951 225.915C266.787 225.853 266.636 225.753 266.508 225.621C266.379 225.488 266.276 225.326 266.206 225.145C266.136 224.964 266.1 224.768 266.1 224.57C266.1 224.372 266.136 224.176 266.206 223.995C266.276 223.814 266.379 223.652 266.508 223.519C266.636 223.387 266.787 223.287 266.951 223.225C267.116 223.164 267.289 223.143 267.461 223.164H323.24C323.412 223.143 323.585 223.164 323.75 223.225C323.914 223.287 324.065 223.387 324.194 223.519C324.322 223.652 324.425 223.814 324.495 223.995C324.565 224.176 324.601 224.372 324.601 224.57C324.601 224.768 324.565 224.964 324.495 225.145C324.425 225.326 324.322 225.488 324.194 225.621C324.065 225.753 323.914 225.853 323.75 225.915C323.585 225.976 323.412 225.997 323.24 225.976Z" fill="#4FA5FF"/>
<path d="M306.444 280.104H249.283C249.112 280.125 248.938 280.104 248.774 280.043C248.609 279.981 248.458 279.881 248.33 279.749C248.201 279.616 248.099 279.454 248.028 279.273C247.958 279.092 247.922 278.896 247.922 278.698C247.922 278.5 247.958 278.304 248.028 278.123C248.099 277.942 248.201 277.78 248.33 277.647C248.458 277.515 248.609 277.415 248.774 277.353C248.938 277.292 249.112 277.271 249.283 277.292H306.444C306.615 277.271 306.789 277.292 306.953 277.353C307.118 277.415 307.269 277.515 307.397 277.647C307.526 277.78 307.628 277.942 307.699 278.123C307.769 278.304 307.805 278.5 307.805 278.698C307.805 278.896 307.769 279.092 307.699 279.273C307.628 279.454 307.526 279.616 307.397 279.749C307.269 279.881 307.118 279.981 306.953 280.043C306.789 280.104 306.615 280.125 306.444 280.104Z" fill="#4FA5FF"/>
<path d="M289.227 335.492H230.672C230.369 335.455 230.089 335.291 229.885 335.032C229.681 334.772 229.568 334.435 229.568 334.086C229.568 333.736 229.681 333.399 229.885 333.14C230.089 332.88 230.369 332.716 230.672 332.68H289.227C289.399 332.659 289.573 332.68 289.737 332.741C289.901 332.802 290.052 332.902 290.181 333.035C290.309 333.168 290.412 333.33 290.482 333.511C290.552 333.692 290.589 333.888 290.589 334.086C290.589 334.284 290.552 334.48 290.482 334.661C290.412 334.842 290.309 335.004 290.181 335.136C290.052 335.269 289.901 335.369 289.737 335.43C289.573 335.492 289.399 335.512 289.227 335.492Z" fill="#4FA5FF"/>
<path d="M273.529 386.233H213.633C213.306 386.233 212.992 386.084 212.761 385.819C212.53 385.554 212.4 385.194 212.4 384.819C212.4 384.444 212.53 384.085 212.761 383.819C212.992 383.554 213.306 383.405 213.633 383.405H273.529C273.856 383.405 274.17 383.554 274.401 383.819C274.632 384.085 274.762 384.444 274.762 384.819C274.762 385.194 274.632 385.554 274.401 385.819C274.17 386.084 273.856 386.233 273.529 386.233Z" fill="#4FA5FF"/>
<path d="M54.127 411.712L58.8406 399.283L75.6229 389.961L81.041 369.469C81.3583 368.237 81.9601 367.125 82.7827 366.253C83.6052 365.381 84.6181 364.779 85.714 364.513C87.0563 364.125 88.4751 364.298 89.7162 365.002C90.9572 365.705 91.9394 366.892 92.4865 368.35C96.1708 376.119 82.8695 391.841 82.8695 391.841L90.4412 404.053L86.3777 416.73L54.127 411.712Z" fill="#005BBA"/>
<path d="M61.4006 401.054L78.183 391.903L83.601 371.411C84.0876 369.607 85.166 368.09 86.6088 367.179C88.0517 366.269 89.7462 366.038 91.3352 366.533C90.644 365.648 89.7544 364.997 88.7633 364.652C87.7721 364.307 86.7175 364.28 85.714 364.575C84.6181 364.842 83.6052 365.443 82.7827 366.315C81.9601 367.188 81.3583 368.299 81.041 369.531L75.6229 390.024L58.8406 399.174L54.127 411.603L57.2017 412.101L61.4006 401.054Z" fill="#C9E4FF"/>
<path d="M94.4626 449H32.6159L19.5449 411.418C19.5449 410.182 19.9731 408.996 20.7351 408.122C21.4972 407.248 22.5307 406.757 23.6084 406.757H103.457C104.534 406.757 105.568 407.248 106.33 408.122C107.092 408.996 107.52 410.182 107.52 411.418L94.4626 449Z" fill="#4FA5FF"/>
<path d="M39.0094 444.168L25.979 406.663H23.6358C22.5581 406.663 21.5245 407.154 20.7624 408.028C20.0004 408.902 19.5723 410.088 19.5723 411.324L32.6161 449H94.4628L96.1424 444.23L39.0094 444.168Z" fill="#005BBA"/>
<path d="M184.578 103.892H173.742L174 105.321C177.091 107.39 180.513 108.726 184.064 109.252C184.118 107.453 184.29 105.661 184.578 103.892Z" fill="#DF8568"/>
<path d="M184.05 109.251C180.5 108.726 177.078 107.389 173.986 105.32L177.616 125.518C177.616 125.518 184.172 130.924 188.452 126.698C188.48 126.683 183.657 120.608 184.05 109.251Z" fill="#FD9783"/>
<path d="M190.585 86.7844C190.585 86.7844 198.668 99.1214 194.84 106.779C191.699 113.06 173.728 103.891 173.728 103.891C173.728 103.891 145.941 80.6631 190.585 86.7844Z" fill="#FD9783"/>
<path d="M177.211 92.6121C177.211 92.6121 205.479 91.4469 201.375 73.5801C201.375 73.5801 157.137 81.0997 160.835 91.1983C164.533 101.297 173.73 103.891 173.73 103.891L171.888 95.6727C171.888 95.6727 168.406 91.913 172.294 90.2661C172.744 89.9935 173.241 89.8382 173.749 89.8115C174.257 89.7847 174.764 89.887 175.234 90.1112C175.704 90.3353 176.124 90.6757 176.466 91.108C176.808 91.5404 177.062 92.0539 177.211 92.6121Z" fill="#08294A"/>
<path d="M131.875 175.436C133.243 174.921 134.648 174.547 136.074 174.318C139.018 165.928 142.219 157.668 145.677 149.537C141.099 157.585 135.966 166.984 131.875 175.436Z" fill="#F7CDA3"/>
<path d="M153.777 157.693C152.152 163.908 150.309 170.122 148.521 176.197C149.207 176.546 149.872 176.946 150.513 177.393L157.285 161.857C156.161 160.381 154.996 159.014 153.777 157.693Z" fill="#F7CDA3"/>
<path d="M211.207 141.473C209.053 139.361 206.602 137.947 205.369 134.777C205.369 138.599 205.478 142.546 205.369 146.445L210.99 144.767L222.707 162.013C223.436 160.239 224.345 158.57 225.416 157.041C224.088 155.363 222.734 153.701 221.352 152.054C217.966 148.527 214.593 145.358 211.207 141.473Z" fill="#F7CDA3"/>
<path d="M233.801 148.838C230.567 150.933 227.712 153.718 225.39 157.042C224.374 155.768 223.358 154.494 222.315 153.235L222.112 152.971L221.353 152.054C217.967 148.528 214.581 145.358 211.208 141.474C209.054 139.361 206.603 137.947 205.37 134.778C205.37 138.6 205.465 142.546 205.37 146.446L157.746 160.739L157.285 161.796C156.147 160.382 154.983 159.015 153.75 157.694C152.544 162.355 151.231 166.845 149.917 171.351L149.808 171.708C149.375 173.262 148.928 174.691 148.454 176.198C144.543 174.252 140.236 173.601 136.02 174.318C136.629 172.578 137.252 170.853 137.889 169.129C137.928 169.002 137.973 168.877 138.024 168.756C140.399 162.262 142.932 155.856 145.623 149.538C151.989 138.351 157.299 129.729 157.299 129.729L181.138 121.044L208.702 124.571L230.09 145.296L230.347 145.545L233.801 148.838Z" fill="#FFDFBF"/>
<path d="M233.814 148.838C230.58 150.933 227.725 153.717 225.402 157.041L226.513 158.455C228.542 154.873 231 151.636 233.814 148.838Z" fill="#DF8568"/>
<path d="M254.687 169.066L233.814 148.869C230.996 151.666 228.533 154.903 226.5 158.486C230.726 163.862 234.871 169.253 239.476 174.287C229.331 184.152 220.432 195.416 216.124 209.865C214.993 213.775 215.104 218.018 216.436 221.843C217.357 224.671 219.809 225.727 221.962 226.085C225.507 226.704 229.132 225.961 232.27 223.972C232.649 220.119 231.159 217.105 225.755 217.866L255.364 180.439C255.988 179.651 256.466 178.726 256.771 177.72C257.075 176.715 257.199 175.649 257.136 174.587C257.073 173.525 256.823 172.489 256.403 171.54C255.982 170.592 255.398 169.75 254.687 169.066Z" fill="#FD9783"/>
<path d="M221.964 226.053C219.81 225.696 217.358 224.64 216.437 221.812C215.105 217.986 214.995 213.743 216.126 209.833C220.433 195.385 229.332 184.121 239.477 174.255C234.466 168.771 229.996 162.867 225.391 157.041C224.32 158.57 223.41 160.239 222.682 162.013L231.852 175.545C231.852 175.545 198.477 205.375 204.612 225.106C210.748 244.837 222.221 240.145 226.528 236.152C229.534 232.899 231.535 228.613 232.231 223.94C229.104 225.919 225.495 226.662 221.964 226.053Z" fill="#DF8568"/>
<path d="M181.193 121.044L169.896 125.161C172.903 128.172 176.741 129.867 180.733 129.946C185.11 128.586 189.132 126.021 192.449 122.473L181.193 121.044Z" fill="#FD9783"/>
<path d="M192.394 122.473C189.077 126.02 185.055 128.586 180.678 129.946C181.548 129.916 182.413 129.765 183.251 129.495C187.174 128.421 190.727 126.024 193.451 122.612L192.394 122.473Z" fill="#DF8568"/>
<path d="M153.777 157.693C153.018 160.614 152.205 163.504 151.393 166.378C154.643 170.418 170.464 191.578 168.622 219C172.67 221.978 177.085 224.24 181.72 225.711C176.898 200.651 170.152 175.374 153.777 157.693Z" fill="#F7CDA3"/>
<path d="M214.892 220.165C202.81 229.487 190.511 228.57 181.707 225.712C176.898 200.652 170.153 175.374 153.763 157.694C153.005 160.614 152.192 163.504 151.366 166.378C151 165.912 150.797 165.679 150.797 165.679L157.353 129.728L165.073 126.916L165.466 126.776L169.895 125.223C173.675 128.641 178.469 131.08 183.251 129.557C187.177 128.484 190.731 126.08 193.45 122.659L196.769 123.094H197.135L208.756 124.648C223.29 156.917 214.892 220.165 214.892 220.165Z" fill="#FFDFBF"/>
<path d="M197.122 123.078C194.602 126.528 188.819 133.503 182.534 134.948C181.955 135.087 181.364 135.155 180.773 135.15C175.49 135.15 169.124 130.489 165.061 126.916L165.453 126.776C169.964 130.66 177.17 135.834 182.479 134.544C188.561 133.146 194.196 126.434 196.756 122.97L197.122 123.078Z" fill="#F7CDA3"/>
<path d="M161.295 128.299C161.295 128.299 175.165 184.121 168.677 219.062C162.189 254.003 139.748 405.543 120.393 442.006L175.828 449L192.177 258.214L199.79 253.972L210.382 340.743L215.26 447.111L264.183 422.863L214.892 220.181C214.892 220.181 218.617 144.876 203.65 123.856L195.983 122.861C202.141 134.576 204.892 148.232 203.84 161.857C203.84 161.857 197.893 169.128 177.413 163.256C177.413 163.256 171.914 134.187 167.932 125.813L161.295 128.299Z" fill="#4FA5FF"/>
<path d="M210.314 340.681V429.34C210.314 441.883 221.721 451.333 234.045 449L219.809 338.863L203.067 241.264C198.462 253.77 192.109 258.214 192.109 258.214L199.722 253.972L210.314 340.681Z" fill="#005BBA"/>
<path d="M175.693 367.838L148.359 364.544V364.342L163.137 311.332C163.142 311.309 163.15 311.288 163.163 311.269C163.175 311.25 163.19 311.234 163.208 311.223C163.226 311.211 163.246 311.204 163.266 311.201C163.287 311.199 163.307 311.201 163.327 311.208C163.347 311.215 163.366 311.227 163.383 311.242C163.399 311.258 163.413 311.277 163.423 311.299C163.433 311.32 163.439 311.344 163.441 311.369C163.443 311.393 163.441 311.418 163.435 311.441L148.712 364.265L175.449 367.449L180.542 314.517C180.549 314.471 180.571 314.429 180.604 314.4C180.636 314.371 180.677 314.357 180.719 314.362C180.759 314.37 180.796 314.395 180.821 314.432C180.846 314.47 180.858 314.517 180.854 314.564L175.693 367.838Z" fill="#005BBA"/>
<path d="M161.294 128.299C161.294 128.299 175.164 184.121 168.676 219.062C162.73 251.081 138.21 369.832 119.747 428.427C117.168 436.613 120.995 445.549 128.853 449C132.429 430.977 169.339 244.914 173.728 213.065C177.223 187.632 167.85 146.166 163.136 127.615L161.294 128.299Z" fill="#005BBA"/>
<path d="M198.108 285.555L111.84 305.256L113.76 316.318L200.028 296.618L198.108 285.555Z" fill="#08294A"/>
<path d="M113.791 316.258L107.574 340.681L213.456 317.423L200.046 296.542L113.791 316.258Z" fill="#FFF4D6"/>
<path d="M186.908 445.458C187.407 447.298 185.981 449 184.075 449H118.816C116.993 449 115.778 447.119 116.528 445.458L116.853 444.759C118.081 442.026 120.798 440.269 123.794 440.269H127.169C131.986 440.269 136.372 437.519 139.465 433.827C144.064 428.337 152.22 421.33 163.895 421.33C178.348 421.33 184.538 437.006 186.705 444.759C186.777 445.007 186.845 445.24 186.908 445.458Z" fill="#FFE900"/>
<path d="M273.891 446.08C274.476 447.686 273.233 449.239 271.524 449.239H216.906C215.148 449.239 213.71 447.837 213.664 446.08V445.456C213.606 443.385 215.27 441.674 217.342 441.674H223.733C227.862 441.674 231.537 439.062 233.87 435.655C237.244 430.727 243.381 424.564 252.973 424.564C265 424.564 271.295 438.543 273.679 445.456C273.75 445.678 273.82 445.886 273.891 446.08Z" fill="#FFE900"/>
<path d="M177.806 89.8625C177.769 89.8596 177.735 89.8427 177.708 89.8145C177.681 89.7863 177.663 89.7485 177.657 89.7072C177.653 89.6836 177.654 89.6592 177.658 89.6358C177.663 89.6124 177.672 89.5905 177.685 89.5714C177.698 89.5524 177.714 89.5366 177.733 89.5252C177.751 89.5138 177.771 89.507 177.792 89.5052C182.248 88.6957 186.622 87.379 190.85 85.5745C192.934 84.7776 194.895 83.6083 196.661 82.1099C198.423 80.6029 199.615 78.3792 199.993 75.8954C199.994 75.8729 200 75.851 200.009 75.831C200.018 75.811 200.031 75.7933 200.046 75.7789C200.061 75.7644 200.078 75.7536 200.097 75.7469C200.116 75.7402 200.136 75.7379 200.155 75.74C200.176 75.7418 200.196 75.7486 200.215 75.76C200.233 75.7714 200.25 75.7872 200.262 75.8063C200.275 75.8253 200.284 75.8473 200.289 75.8706C200.294 75.894 200.295 75.9184 200.291 75.942C199.901 78.5024 198.669 80.7936 196.85 82.343C195.062 83.8658 193.073 85.0511 190.958 85.8542C186.708 87.669 182.311 88.9961 177.833 89.8159L177.806 89.8625Z" fill="#252B80"/>
<path d="M170.655 98.4382C170.627 98.4388 170.599 98.4304 170.575 98.4139C170.551 98.3974 170.532 98.3736 170.519 98.345C170.013 97.5529 169.39 96.8692 168.677 96.3253L168.013 95.6883C167.524 95.2879 167.119 94.7681 166.826 94.1663C166.533 93.5645 166.361 92.8958 166.32 92.2082C166.388 90.002 168.542 88.7746 169.828 88.2309C173.083 86.9831 176.435 86.0986 179.838 85.5897C181.342 85.3101 182.913 85.0149 184.43 84.6575C190.593 83.2127 194.738 80.8356 197.474 77.2156C197.486 77.1983 197.502 77.1839 197.519 77.1734C197.536 77.1628 197.555 77.1563 197.575 77.1541C197.594 77.152 197.614 77.1542 197.633 77.1608C197.651 77.1673 197.669 77.178 197.684 77.1923C197.699 77.2066 197.712 77.2242 197.721 77.244C197.73 77.2638 197.736 77.2856 197.738 77.3079C197.739 77.3303 197.737 77.3528 197.732 77.3743C197.726 77.3958 197.717 77.4158 197.704 77.4331C194.927 81.1308 190.728 83.5389 184.498 84.9993C182.967 85.3567 181.396 85.6519 179.879 85.9315C176.533 86.4568 173.237 87.3357 170.032 88.5571C168.826 89.0698 166.781 90.2195 166.727 92.2237C166.764 92.8595 166.926 93.4773 167.201 94.0314C167.475 94.5855 167.855 95.0615 168.311 95.4242L168.962 96.0457C169.686 96.6404 170.318 97.3704 170.831 98.2052C170.857 98.2394 170.872 98.2836 170.872 98.3295C170.872 98.3753 170.857 98.4196 170.831 98.4538L170.655 98.4382Z" fill="#252B80"/>
<path d="M164.22 87.8734C164.191 87.8708 164.163 87.8594 164.139 87.8402C164.115 87.8211 164.096 87.795 164.084 87.7646C164.061 87.7316 164.049 87.6905 164.049 87.6481C164.049 87.6057 164.061 87.5647 164.084 87.5316C173.839 82.44 184.15 78.8912 194.737 76.9824C194.776 76.9824 194.814 77.0004 194.842 77.0325C194.87 77.0645 194.886 77.108 194.886 77.1533C194.886 77.1986 194.87 77.2421 194.842 77.2742C194.814 77.3062 194.776 77.3242 194.737 77.3242C184.178 79.2331 173.894 82.7766 164.166 87.8579L164.22 87.8734Z" fill="#252B80"/>
<path d="M186.285 95.0517C186.168 95.049 186.053 95.0083 185.955 94.934C185.857 94.8598 185.779 94.7552 185.73 94.6322L184.999 92.7834C184.932 92.6124 184.928 92.4181 184.986 92.2433C185.045 92.0685 185.161 91.9274 185.31 91.8512C185.459 91.775 185.629 91.7698 185.781 91.8368C185.933 91.9038 186.056 92.0376 186.123 92.2086L186.854 94.0574C186.888 94.1419 186.907 94.2333 186.909 94.3262C186.912 94.4191 186.898 94.5117 186.869 94.5985C186.84 94.6853 186.796 94.7646 186.74 94.8317C186.684 94.8989 186.617 94.9525 186.543 94.9895C186.463 95.0336 186.374 95.0549 186.285 95.0517Z" fill="#080C53"/>
<path d="M190.633 93.4197C190.525 93.4198 190.42 93.3848 190.329 93.3188C190.238 93.2528 190.165 93.1585 190.118 93.0468L189.455 91.3378C189.423 91.2614 189.405 91.1785 189.401 91.094C189.397 91.0094 189.409 90.9249 189.434 90.8453C189.459 90.7658 189.498 90.6928 189.548 90.6306C189.598 90.5684 189.658 90.5184 189.726 90.4833C189.862 90.4148 190.017 90.4106 190.156 90.4716C190.296 90.5326 190.409 90.654 190.471 90.8095L191.148 92.503C191.208 92.6598 191.211 92.8372 191.158 92.997C191.105 93.1568 190.999 93.2863 190.863 93.3575C190.793 93.4016 190.713 93.423 190.633 93.4197Z" fill="#080C53"/>
<path d="M188.798 100.867C188.351 100.377 188.68 99.6618 189.33 99.5306L192.615 98.8681C193.104 98.7696 193.59 99.046 193.713 99.5288C193.995 100.631 194.3 102.478 193.306 102.85C192.151 103.282 190.075 102.267 188.798 100.867Z" fill="white"/>
<path d="M147.925 294.755C142.696 293.357 137.17 290.094 135.639 284.19C134.407 279.607 138.714 276.422 138.348 272.911C135.639 247.54 130.357 223.195 128.515 198.212C130.763 190.144 133.265 182.179 136.019 174.317C134.593 174.547 133.188 174.921 131.82 175.436C127.959 183.422 125.047 190.584 124.316 195.043C121.864 210.781 134.149 270.441 134.149 270.441C134.149 270.441 129.233 278.908 131.075 287.127C132.917 295.345 144.796 300.053 144.796 300.053C144.796 300.053 139.27 314.144 146.029 314.61C146.351 314.631 146.674 314.605 146.99 314.533C145.04 308.598 146.855 300.643 147.925 294.755Z" fill="#DF8568"/>
<path d="M150.499 177.394C149.859 176.946 149.194 176.546 148.508 176.197C147.032 181.247 145.61 186.296 144.377 191.438L150.499 177.394Z" fill="#DF8568"/>
<path d="M162.676 282.419L142.359 195.975L144.336 191.438C145.569 186.296 147.045 181.246 148.468 176.197C144.557 174.252 140.25 173.6 136.033 174.317C133.324 182.179 130.823 190.143 128.529 198.212C130.371 223.225 135.6 247.54 138.363 272.911C138.675 276.437 134.367 279.607 135.654 284.19C137.185 290.172 142.711 293.356 147.939 294.755C146.869 300.643 145.054 308.598 147.059 314.532C153.303 313.196 157.57 295.112 157.57 295.112L173.743 291.352C173.743 291.352 168 283.134 162.676 282.419Z" fill="#FD9783"/>
<path d="M142.398 195.975L139.473 182.878L143.645 193.116L142.398 195.975Z" fill="#DF8568"/>
<path d="M177.101 122.612L178.144 127.817L175.557 123.094L177.101 122.612Z" fill="#DF8568"/>
<path d="M183.819 177.363C182.031 177.363 181.842 177.239 181.652 177.13C181.454 177.001 181.305 176.793 181.233 176.545C181.161 176.298 181.171 176.028 181.262 175.789C181.353 175.55 181.518 175.358 181.725 175.249C181.932 175.141 182.167 175.125 182.384 175.203C183.833 175.467 198.123 174.66 206.86 174.085C206.987 174.06 207.117 174.067 207.242 174.104C207.368 174.141 207.484 174.208 207.585 174.301C207.686 174.393 207.769 174.509 207.829 174.64C207.888 174.772 207.923 174.916 207.93 175.064C207.938 175.212 207.919 175.36 207.873 175.499C207.828 175.638 207.757 175.764 207.666 175.869C207.575 175.975 207.466 176.057 207.346 176.111C207.226 176.165 207.097 176.189 206.968 176.182C206.968 176.182 200.9 176.586 194.859 176.912C188.818 177.239 185.54 177.363 183.819 177.363Z" fill="#005BBA"/>
<path d="M198.354 183.157C198.354 183.597 198.241 184.026 198.028 184.392C197.815 184.757 197.513 185.042 197.159 185.21C196.805 185.378 196.415 185.422 196.04 185.336C195.664 185.251 195.319 185.039 195.048 184.728C194.777 184.418 194.592 184.022 194.518 183.591C194.443 183.16 194.481 182.713 194.628 182.307C194.775 181.901 195.023 181.554 195.341 181.31C195.66 181.066 196.034 180.936 196.417 180.936C196.931 180.936 197.424 181.17 197.787 181.586C198.15 182.003 198.354 182.568 198.354 183.157Z" fill="#005BBA"/>
<path d="M197.825 207.006L183.9 196.131L182.37 181.014C182.366 180.99 182.366 180.966 182.371 180.943C182.376 180.919 182.385 180.897 182.398 180.878C182.411 180.859 182.427 180.843 182.445 180.832C182.464 180.82 182.484 180.814 182.505 180.812C182.525 180.81 182.545 180.812 182.563 180.819C182.582 180.825 182.6 180.836 182.615 180.851C182.63 180.865 182.642 180.883 182.651 180.903C182.661 180.923 182.666 180.945 182.668 180.967L184.198 195.929L197.743 206.602L207.631 194.779V179.351C207.631 179.302 207.648 179.255 207.679 179.22C207.709 179.185 207.751 179.165 207.794 179.165C207.815 179.165 207.835 179.17 207.854 179.179C207.873 179.189 207.89 179.203 207.904 179.22C207.918 179.238 207.929 179.259 207.936 179.281C207.942 179.304 207.945 179.328 207.943 179.351V194.888L197.825 207.006Z" fill="#005BBA"/>
<path d="M166.265 247.867C166.011 247.864 165.764 247.771 165.557 247.6C165.351 247.43 165.196 247.191 165.113 246.915C165.03 246.639 165.023 246.341 165.093 246.061C165.164 245.781 165.308 245.532 165.507 245.35L180.406 231.818C180.662 231.589 180.986 231.486 181.308 231.529C181.63 231.573 181.924 231.76 182.126 232.051C182.227 232.194 182.303 232.359 182.348 232.537C182.393 232.714 182.407 232.899 182.39 233.083C182.372 233.266 182.323 233.444 182.245 233.605C182.168 233.767 182.063 233.909 181.937 234.024L167.037 247.572C166.817 247.769 166.544 247.873 166.265 247.867Z" fill="#005BBA"/>
<path d="M245.883 367.636H231.159L220.852 311.379H233.801C233.84 311.379 233.878 311.397 233.906 311.429C233.934 311.461 233.95 311.504 233.95 311.55C233.951 311.573 233.949 311.597 233.942 311.62C233.936 311.643 233.925 311.663 233.911 311.681C233.897 311.698 233.88 311.712 233.861 311.722C233.842 311.731 233.821 311.736 233.801 311.736H221.231L231.403 367.294H245.883C245.922 367.294 245.96 367.312 245.988 367.344C246.016 367.376 246.032 367.42 246.032 367.465C246.032 367.51 246.016 367.554 245.988 367.586C245.96 367.618 245.922 367.636 245.883 367.636Z" fill="#005BBA"/>
<path d="M273.968 445.835H213.559V444.984H273.791C273.838 445.287 273.897 445.57 273.968 445.835Z" fill="#1253A3"/>
<path d="M186.909 445.395H116.475L116.8 444.696H186.652C186.76 444.945 186.846 445.178 186.909 445.395Z" fill="#1253A3"/>
<path d="M264.377 435.625H252.868C252.811 435.623 252.756 435.601 252.709 435.561C252.663 435.521 252.628 435.466 252.609 435.402C252.595 435.334 252.601 435.262 252.624 435.197C252.647 435.132 252.687 435.077 252.739 435.041L259.708 430.064L250.758 431.315C250.696 431.321 250.634 431.303 250.583 431.262C250.531 431.222 250.493 431.162 250.475 431.092C250.457 431.024 250.46 430.95 250.484 430.884C250.507 430.818 250.55 430.764 250.604 430.731L256.029 427.074L247.845 428.159C247.781 428.154 247.721 428.123 247.676 428.071C247.63 428.019 247.6 427.95 247.593 427.875C247.586 427.801 247.602 427.725 247.637 427.663C247.672 427.601 247.725 427.555 247.786 427.533L257.219 426.268C257.281 426.259 257.344 426.276 257.396 426.317C257.448 426.358 257.486 426.419 257.503 426.491C257.521 426.558 257.52 426.63 257.498 426.696C257.477 426.762 257.437 426.817 257.385 426.852L251.972 430.508L260.851 429.271C260.912 429.258 260.975 429.272 261.027 429.311C261.08 429.349 261.118 429.41 261.134 429.48C261.157 429.547 261.159 429.622 261.14 429.69C261.12 429.759 261.081 429.817 261.028 429.855L253.8 434.944H264.342C264.376 434.944 264.41 434.951 264.441 434.967C264.473 434.982 264.501 435.005 264.525 435.033C264.549 435.061 264.569 435.095 264.582 435.132C264.595 435.169 264.601 435.209 264.601 435.249C264.61 435.292 264.611 435.336 264.604 435.378C264.597 435.421 264.582 435.461 264.561 435.497C264.54 435.532 264.513 435.562 264.481 435.584C264.449 435.606 264.414 435.62 264.377 435.625Z" fill="#1253A3"/>
<path d="M173.877 433.464H161.293C161.223 433.462 161.154 433.433 161.1 433.381C161.045 433.329 161.008 433.258 160.993 433.178C160.979 433.098 160.989 433.015 161.021 432.943C161.054 432.871 161.107 432.813 161.172 432.78L169.881 428.927L160.549 430.123C160.475 430.13 160.402 430.106 160.342 430.057C160.283 430.008 160.24 429.936 160.222 429.854C160.204 429.772 160.212 429.685 160.245 429.61C160.277 429.534 160.332 429.474 160.4 429.44L168.256 425.431L157.785 426.768C157.705 426.773 157.627 426.744 157.564 426.686C157.502 426.629 157.46 426.547 157.447 426.457C157.439 426.364 157.463 426.272 157.514 426.2C157.564 426.127 157.637 426.08 157.718 426.068L170.165 424.515C170.238 424.508 170.31 424.531 170.37 424.579C170.429 424.628 170.472 424.698 170.491 424.779C170.512 424.859 170.506 424.946 170.473 425.021C170.441 425.097 170.384 425.155 170.315 425.183L162.458 429.191L172.157 427.948C172.231 427.938 172.307 427.959 172.369 428.008C172.431 428.056 172.476 428.129 172.495 428.212C172.511 428.297 172.5 428.385 172.466 428.461C172.431 428.537 172.375 428.598 172.306 428.632L162.932 432.796H173.877C173.922 432.785 173.969 432.785 174.014 432.798C174.059 432.81 174.101 432.834 174.138 432.868C174.174 432.901 174.203 432.943 174.223 432.991C174.243 433.039 174.253 433.092 174.253 433.145C174.253 433.198 174.243 433.251 174.223 433.299C174.203 433.347 174.174 433.389 174.138 433.423C174.101 433.456 174.059 433.48 174.014 433.493C173.969 433.505 173.922 433.506 173.877 433.495V433.464Z" fill="#1253A3"/>
<path d="M193.288 224.251C184.863 224.173 176.484 222.826 168.365 220.243V220.088V219.901C178.077 223.009 196.999 227.048 214.771 220.01L214.865 220.336C207.912 223.004 200.62 224.327 193.288 224.251Z" fill="#005BBA"/>
<path d="M192.191 230.559C183.749 230.541 175.361 229.027 167.322 226.069L167.417 225.728C183.267 231.606 200.329 231.606 216.179 225.728L216.274 226.069C208.507 229.033 200.376 230.549 192.191 230.559Z" fill="#005BBA"/>
<path d="M149.931 171.35L149.822 171.707C146.257 169.251 142.044 168.336 137.943 169.128C137.983 169.001 138.028 168.877 138.079 168.755C142.172 167.999 146.368 168.917 149.931 171.35Z" fill="#F7CDA3"/>
<path d="M230.401 145.544C227.228 147.385 224.452 150.012 222.274 153.235L222.07 152.971C224.23 149.774 226.971 147.155 230.103 145.296L230.401 145.544Z" fill="#F7CDA3"/>
<path d="M545.798 19.2184C545.564 19.043 545.296 18.9358 545.018 18.906C544.739 18.8762 544.458 18.9248 544.2 19.0475L527.621 26.971C527.416 27.073 527.231 27.2203 527.076 27.4043C526.921 27.5883 526.799 27.8056 526.718 28.0436C526.553 28.5244 526.561 29.0606 526.74 29.5345C526.92 30.0084 527.256 30.381 527.676 30.5704C528.095 30.7597 528.562 30.7504 528.975 30.5444L543.225 23.7395V55.6511L489.383 83.4922C489.085 83.645 488.832 83.8936 488.654 84.2078C488.476 84.5221 488.381 84.8887 488.381 85.2633V148.962C489.282 150.393 490.436 151.589 491.767 152.473V86.5062L545.609 58.6807C545.902 58.5224 546.151 58.2722 546.326 57.9588C546.501 57.6454 546.595 57.2817 546.597 56.9095V20.8342C546.591 20.51 546.515 20.1926 546.376 19.9106C546.236 19.6286 546.038 19.3907 545.798 19.2184Z" fill="#F3A769"/>
<path d="M403.859 98.9351C403.788 104.113 402.84 109.226 401.069 113.99C396.355 126.683 411.512 113.99 411.512 113.99L413.381 98.1738C410.3 99.2579 407.042 99.5183 403.859 98.9351Z" fill="#FD9783"/>
<path d="M413.382 98.1743L413.667 95.8439L403.115 90.7324C403.677 93.4173 403.927 96.1755 403.86 98.9356C407.043 99.5188 410.301 99.2584 413.382 98.1743Z" fill="#DF8568"/>
<path d="M402.452 75.5844C402.452 75.5844 392.469 87.5629 394.46 91.9752C396.451 96.3875 413.667 95.8437 413.667 95.8437C413.667 95.8437 428.566 85.4499 425.857 78.7538C423.148 72.0576 402.452 75.5844 402.452 75.5844Z" fill="#FD9783"/>
<path d="M417.038 81.0371C417.038 81.0371 395.366 83.6316 393.686 67.4739C393.472 66.1955 393.505 64.8787 393.783 63.6167C394.062 62.3546 394.578 61.1781 395.297 60.1703C396.015 59.1625 396.918 58.348 397.941 57.7845C398.964 57.221 400.082 56.9222 401.217 56.9092C402.271 56.9769 403.295 57.3323 404.204 57.9457C405.114 58.5592 405.882 59.4129 406.446 60.4359C407.845 59.2621 409.488 58.5297 411.211 58.3116C412.934 58.0935 414.677 58.3974 416.266 59.193C421.684 62.0206 420.113 66.4174 420.113 66.4174C420.113 66.4174 426.885 65.0191 429.946 71.6997C433.008 78.3804 428.714 81.9226 428.714 81.9226C428.714 81.9226 435.012 90.3899 428.565 95.9053C422.117 101.421 413.665 95.9053 413.665 95.9053L416.889 86.7389C416.889 86.7389 423.187 83.2277 421.034 79.8719C418.88 76.516 417.038 81.0371 417.038 81.0371Z" fill="#08294A"/>
<path d="M363.021 154.571C363.319 153.949 363.617 153.328 363.942 152.722C360.514 149.969 357.878 146.107 356.371 141.629C356.301 141.734 356.224 141.833 356.141 141.924C357.285 146.832 359.681 151.236 363.021 154.571Z" fill="#DF8568"/>
<path d="M379.276 191.796C370.756 181.449 357.604 170.838 357.604 170.838L357.997 170.201C357.455 169.797 357.089 169.44 357.089 169.315C358.7 164.225 360.67 159.294 362.981 154.571C359.64 151.236 357.244 146.832 356.1 141.925C349.412 150.015 343.255 158.661 337.679 167.793C336.929 169.078 336.486 170.566 336.393 172.109C336.301 173.652 336.562 175.195 337.151 176.586C340.889 185.442 349.883 204.956 359.69 213.174C359.05 213.733 358.456 214.357 357.915 215.039C357.852 216.059 357.999 217.081 358.345 218.023C358.691 218.966 359.226 219.801 359.906 220.461C363.889 224.687 370.038 222.217 373.451 217.991C376.027 214.375 377.883 210.157 378.889 205.632C379.895 201.108 380.027 196.386 379.276 191.796Z" fill="#FD9783"/>
<path d="M358.036 170.2L367.314 154.974C366.13 154.348 365.001 153.594 363.942 152.722C361.25 158.006 358.984 163.56 357.169 169.315C357.128 169.439 357.494 169.796 358.036 170.2Z" fill="#DF8568"/>
<path d="M385.505 201.382C383.851 197.852 381.752 194.622 379.274 191.796C380.016 196.38 379.876 201.095 378.866 205.611C377.855 210.127 375.998 214.336 373.423 217.944C370.037 222.169 363.941 224.64 359.878 220.414C359.197 219.754 358.662 218.918 358.316 217.976C357.97 217.034 357.823 216.011 357.887 214.992C355.354 218.099 352.022 224.966 361.72 232.159C375.048 242.025 390.422 213.36 385.505 201.382Z" fill="#DF8568"/>
<path d="M379.276 191.796C370.756 181.449 357.604 170.838 357.604 170.838L379.072 204.35C379.817 200.216 379.886 195.959 379.276 191.796Z" fill="#DF8568"/>
<path d="M384.476 123.156C376.501 131.888 369.593 141.817 363.941 152.675C365.001 153.548 366.13 154.302 367.314 154.928L381.401 131.794L384.11 132.152C384.412 129.167 384.535 126.161 384.476 123.156Z" fill="#005BBA"/>
<path d="M433.631 131.251C432.426 133.55 431.329 135.912 430.34 138.273L431.464 138.429C431.394 151.365 432.105 164.291 433.591 177.114C433.941 175.072 434.491 173.081 435.23 171.179C433.387 157.678 433.631 144.597 433.631 131.251Z" fill="#1253A3"/>
<path d="M448.477 155.783L439.145 116.522C438.969 115.778 438.627 115.1 438.152 114.554C437.676 114.009 437.085 113.616 436.436 113.415L408.1 105.228L379.763 114.969C379.763 114.969 368.223 127.041 356.371 141.66C357.878 146.139 360.514 150 363.943 152.753C369.594 141.895 376.502 131.965 384.477 123.234C384.542 126.254 384.425 129.275 384.125 132.276L430.341 138.273C431.329 135.881 432.427 133.612 433.632 131.251C433.632 144.597 433.388 157.663 435.23 171.195C437.761 164.3 442.503 158.784 448.477 155.783Z" fill="#4FA5FF"/>
<path d="M447.529 156.249C442.001 159.38 437.637 164.684 435.23 171.195C435.393 172.453 435.596 173.712 435.799 174.986C437.885 167.435 441.705 160.164 447.529 156.249Z" fill="#DF8568"/>
<path d="M501.222 122.737C500.893 121.018 500.199 119.42 499.202 118.084C498.205 116.748 496.935 115.715 495.506 115.077C492.025 115.814 488.703 117.324 485.726 119.521C486.347 125.162 485.313 130.879 482.787 135.772C484.9 130.008 484.737 121.618 480.918 116.926C480.574 117.079 480.24 117.255 479.915 117.454C475.418 120.266 476.841 137.418 476.841 137.418L453.909 178.667L448.491 155.86L447.543 156.326C441.718 160.241 437.898 167.512 435.812 175.063L436.097 176.787C438.562 190.894 443.479 202.873 448.694 215.193C461.291 207.099 469.012 193.706 477.884 180.314C483.721 171.862 487.365 161.997 491.09 152.131C484.954 147.89 485.252 138.024 487.094 130.986C487.717 134.513 487.094 137.683 488.015 141.209C489.559 145.777 494.165 150.018 497.497 146.492C503.064 140.774 502.752 131.25 501.222 122.737Z" fill="#FD9783"/>
<path d="M482.787 135.834C485.304 130.955 486.338 125.255 485.726 119.63H485.659C485.53 119.075 485.299 118.559 484.981 118.117C484.663 117.674 484.265 117.315 483.815 117.064C483.366 116.814 482.874 116.677 482.374 116.664C481.874 116.651 481.377 116.762 480.918 116.989C484.738 121.681 484.9 130.07 482.787 135.834Z" fill="#DF8568"/>
<path d="M506.341 129.81C505.677 117.599 501.194 114.119 495.505 114.989C496.934 115.626 498.204 116.659 499.201 117.996C500.198 119.332 500.892 120.93 501.221 122.648C502.751 131.1 503.063 140.624 497.537 146.263C494.15 149.79 489.545 145.549 488.055 140.981C487.134 137.454 487.757 134.285 487.134 130.758C485.292 137.796 484.994 147.662 491.13 151.903C487.446 161.769 483.761 171.634 477.923 180.086C469.011 193.478 461.331 206.871 448.734 214.965C443.519 202.645 438.602 190.666 436.137 176.559C435.812 174.71 435.527 172.877 435.284 171.044C434.545 172.945 433.995 174.936 433.645 176.979C435.405 191.629 438.602 207.352 444.372 218.119C444.776 218.888 445.32 219.548 445.968 220.053C446.616 220.558 447.351 220.896 448.124 221.044C448.896 221.192 449.687 221.146 450.443 220.909C451.198 220.672 451.9 220.25 452.499 219.672C463.742 208.968 492.715 179.185 496.995 152.587C496.914 152.602 507.303 148.609 506.341 129.81Z" fill="#DF8568"/>
<path d="M405.714 114.347C409.827 113.202 413.634 110.925 416.807 107.713L408.071 105.181L395.406 109.546C396.571 111.359 398.151 112.767 399.97 113.614C401.789 114.461 403.777 114.715 405.714 114.347Z" fill="#FD9783"/>
<path d="M438.061 117.936C438.194 116.853 437.972 115.753 437.439 114.847C436.907 113.94 436.101 113.292 435.176 113.026L416.768 107.713C413.607 110.918 409.814 113.195 405.716 114.347C403.779 114.715 401.791 114.461 399.972 113.614C398.153 112.766 396.573 111.359 395.408 109.546L392.469 110.556C392.469 110.556 388.405 116.336 381.443 131.841C374.481 147.346 372.436 196.208 372.436 196.208C398.645 210.315 415.238 196.208 415.238 196.208C415.956 188.005 418.651 178.838 421.821 170.402C424.124 156.73 427.361 143.229 433.673 131.25C433.673 135.709 433.673 140.122 433.673 144.534C434.567 142.872 435.109 141.939 435.109 141.939L438.061 117.936Z" fill="#4FA5FF"/>
<path d="M433.631 131.251C427.319 143.229 424.082 156.731 421.779 170.403C425.202 161.46 429.162 152.801 433.631 144.488C433.604 140.122 433.631 135.71 433.631 131.251Z" fill="#005BBA"/>
<path d="M464.785 449H431.45L417.12 350.671V350.329L409.954 301.11V300.753L400.256 234.257L394.554 230.342L390.124 318.682L402.868 446.261L348.555 449L357.833 350.671V350.329L362.479 301.11V300.753L369.807 223.071L370.294 217.882L372.326 196.317C372.326 196.317 372.326 195.292 372.326 193.443C372.333 193.314 372.333 193.184 372.326 193.055C372.57 180.268 374.277 133.24 386.237 112.779L393.511 110.262C393.511 110.262 386.007 132.432 387.443 147.223C387.443 147.223 395.434 151.884 407.923 147.922C407.923 147.922 411.214 120.252 419.219 108.553L424.827 110.106C415.712 133.559 412.997 159.627 417.038 184.883C417.382 186.912 417.293 189.006 416.781 190.988C416.781 191.144 416.7 191.299 416.659 191.455C414.885 197.483 409.385 201.6 404.753 205.313C408.437 203.915 412.745 201.087 416.117 202.858C423.713 208.454 421.346 217.649 419.802 225.759C418.258 233.869 421.034 241.621 422.511 250.073C426.209 269.105 429.893 286.366 434.187 305.041C435.108 308.925 436.34 312.809 437.261 317.019C447.772 361.717 455.899 404.986 464.785 449Z" fill="#FFE900"/>
<path d="M462.725 448.999H462.4L413.232 220.009C413.223 219.962 413.232 219.913 413.254 219.872C413.277 219.832 413.313 219.803 413.354 219.792C413.372 219.785 413.392 219.783 413.412 219.785C413.431 219.788 413.45 219.795 413.467 219.807C413.483 219.819 413.498 219.835 413.509 219.854C413.519 219.873 413.527 219.894 413.53 219.916L462.725 448.999Z" fill="#EFBA1C"/>
<path d="M400.161 234.179C400.161 234.179 391.235 226.752 390.775 217.244L381.104 321.338L383.271 449L402.868 445.835L390.03 318.681L394.459 230.341L400.161 234.179Z" fill="#EFBA1C"/>
<path d="M443.94 314.626L426.033 228.167C420.736 202.072 418.609 193.564 418.609 193.564L419.179 177.953C411.811 152.583 427.306 110.743 427.306 110.743L424.963 110.06C415.795 133.51 413.032 159.596 417.039 184.883C418.583 194.748 410.903 200.419 404.754 205.313C408.438 203.915 412.746 201.087 416.118 202.858C419.179 211.006 417.415 215.397 418.609 225.47C418.609 235.255 421.035 241.621 422.512 250.073C426.209 269.105 429.894 286.366 434.187 305.04C435.108 308.925 436.341 312.809 437.262 317.019C447.719 361.779 455.846 405.048 464.731 449L480.72 444.984L443.94 314.626Z" fill="#EFBA1C"/>
<path d="M480.944 445.986C481.342 447.511 480.191 449 478.615 449H421.79C420.178 449 418.997 447.532 419.45 445.986C419.522 445.768 419.59 445.535 419.653 445.287C421.752 438.513 427.509 424.841 439.971 424.841C447.613 424.841 452.471 428.209 455.488 431.843C459.237 436.358 464.214 440.719 470.082 440.719H474.636C477.462 440.719 479.951 442.577 480.755 445.287L480.944 445.986Z" fill="#005BBA"/>
<path d="M403.086 445.986C403.246 447.6 401.978 449 400.356 449H336.45C334.997 449 333.883 447.696 334.25 446.291C334.303 446.087 334.327 445.876 334.392 445.676C334.432 445.551 334.485 445.421 334.521 445.287C336.431 438.513 342.296 424.841 358.469 424.841C367.515 424.841 372.9 427.674 376.104 430.957C380.469 435.428 385.692 440.843 391.94 440.843H398.092C400.628 440.843 402.751 442.764 403.005 445.287L403.086 445.986Z" fill="#005BBA"/>
<path d="M412.027 78.8469C408.746 78.9152 405.514 77.9305 402.694 76.0038C400.723 74.6667 399.116 72.7253 398.053 70.3979C396.991 68.0705 396.515 65.4493 396.68 62.829C396.682 62.8065 396.688 62.7846 396.697 62.7647C396.706 62.7447 396.718 62.7269 396.733 62.7125C396.749 62.698 396.766 62.6872 396.785 62.6805C396.804 62.6738 396.823 62.6715 396.843 62.6736C396.884 62.6813 396.92 62.7064 396.946 62.7439C396.971 62.7814 396.982 62.8285 396.978 62.8756C396.825 65.4294 397.294 67.9817 398.332 70.2478C399.37 72.5139 400.937 74.4045 402.857 75.7086C406.773 78.2781 411.367 79.1388 415.793 78.1323C415.832 78.1323 415.87 78.1503 415.898 78.1823C415.926 78.2144 415.941 78.2578 415.941 78.3032C415.941 78.3485 415.926 78.392 415.898 78.424C415.87 78.4561 415.832 78.4741 415.793 78.4741C414.548 78.7155 413.289 78.8402 412.027 78.8469Z" fill="#080C53"/>
<path d="M422.971 87.7028H422.89C422.864 87.6712 422.85 87.6296 422.85 87.5863C422.85 87.5431 422.864 87.5014 422.89 87.4698C423.734 85.9635 424.374 84.3185 424.786 82.5914C424.986 81.7451 425.016 80.8577 424.873 79.9963C424.73 79.135 424.417 78.3223 423.96 77.6198C422.657 76.2179 420.95 75.4159 419.165 75.367L416.456 75.0252C414.099 74.7894 411.76 74.3689 409.453 73.7667C406.216 72.9522 403.306 70.9307 401.177 68.0183C401.165 68 401.155 67.979 401.15 67.9565C401.145 67.9341 401.143 67.9107 401.146 67.8876C401.148 67.8645 401.155 67.8422 401.165 67.822C401.175 67.8018 401.188 67.784 401.204 67.7697C401.22 67.7554 401.238 67.7449 401.258 67.7388C401.278 67.7326 401.298 67.7309 401.318 67.7338C401.338 67.7367 401.358 67.7441 401.375 67.7556C401.393 67.7671 401.408 67.7824 401.421 67.8008C403.51 70.6595 406.369 72.6384 409.548 73.4249C411.84 74.0307 414.166 74.4461 416.51 74.6679L419.219 75.0252C421.083 75.0743 422.864 75.9159 424.217 77.3867C424.699 78.1354 425.029 78.9987 425.181 79.913C425.334 80.8273 425.305 81.7692 425.098 82.6691C424.683 84.4323 424.029 86.1099 423.161 87.6407C423.152 87.6595 423.14 87.6761 423.126 87.6896C423.112 87.703 423.095 87.7129 423.078 87.7187C423.06 87.7246 423.041 87.7261 423.023 87.7234C423.005 87.7207 422.987 87.7137 422.971 87.7028Z" fill="#080C53"/>
<path d="M426.357 82.6375H426.276C426.255 82.6034 426.243 82.5627 426.243 82.521C426.243 82.4793 426.255 82.4385 426.276 82.4045C427.416 80.13 427.855 77.4808 427.522 74.8849C427.331 73.6194 426.806 72.4513 426.019 71.5376C425.232 70.6239 424.221 70.0083 423.12 69.7734C423.08 69.7734 423.042 69.7554 423.014 69.7234C422.986 69.6913 422.971 69.6479 422.971 69.6025C422.971 69.5572 422.986 69.5137 423.014 69.4817C423.042 69.4496 423.08 69.4316 423.12 69.4316C424.289 69.6663 425.366 70.3106 426.203 71.276C427.04 72.2414 427.595 73.4804 427.793 74.8227C428.151 77.501 427.707 80.2395 426.533 82.5909C426.512 82.6197 426.484 82.6399 426.452 82.6483C426.42 82.6568 426.387 82.653 426.357 82.6375Z" fill="#080C53"/>
<path d="M422.918 94.7711C421.06 94.7317 419.258 94.0373 417.757 92.7825C417.733 92.7736 417.711 92.7583 417.693 92.738C417.675 92.7176 417.661 92.6928 417.653 92.6653C417.645 92.6379 417.643 92.6086 417.646 92.5799C417.649 92.5512 417.659 92.5238 417.673 92.4999C417.687 92.4759 417.706 92.4562 417.728 92.4421C417.75 92.4281 417.775 92.4201 417.8 92.4189C417.825 92.4177 417.851 92.4232 417.874 92.4351C417.897 92.447 417.917 92.4648 417.933 92.4873C419.388 93.69 421.125 94.3614 422.918 94.4138C423.803 94.427 424.68 94.2279 425.494 93.8292C426.309 93.4306 427.041 92.8412 427.645 92.0989C428.233 91.3422 428.635 90.4193 428.809 89.4253C428.982 88.4312 428.922 87.402 428.634 86.4437C428.627 86.4223 428.625 86.3996 428.626 86.377C428.627 86.3545 428.633 86.3324 428.641 86.3122C428.65 86.292 428.662 86.2739 428.677 86.2592C428.692 86.2444 428.71 86.2332 428.728 86.2262C428.746 86.2162 428.765 86.2107 428.785 86.21C428.805 86.2094 428.824 86.2136 428.842 86.2225C428.86 86.2314 428.876 86.2446 428.889 86.2614C428.902 86.2781 428.912 86.2979 428.918 86.3194C429.228 87.3361 429.296 88.4291 429.115 89.4859C428.934 90.5427 428.511 91.5251 427.889 92.3319C427.254 93.1128 426.483 93.7331 425.627 94.1531C424.771 94.5731 423.849 94.7836 422.918 94.7711Z" fill="#080C53"/>
<path d="M418.123 69.2294H418.028C416.699 68.1938 415.124 67.6514 413.518 67.6758H412.028C410.887 67.6862 409.749 67.5717 408.628 67.334C407.18 66.9743 405.824 66.2381 404.664 65.1822C403.504 64.1262 402.571 62.7788 401.936 61.2438C401.911 61.2121 401.896 61.1705 401.896 61.1272C401.896 61.084 401.911 61.0424 401.936 61.0107C401.955 61.0006 401.975 60.995 401.996 60.9942C402.016 60.9935 402.037 60.9976 402.056 61.0064C402.075 61.0151 402.092 61.0283 402.107 61.0451C402.121 61.0619 402.132 61.0819 402.14 61.1039C402.761 62.5822 403.667 63.8798 404.788 64.8996C405.91 65.9193 407.218 66.6347 408.614 66.9922C409.723 67.217 410.847 67.3262 411.973 67.3185C412.461 67.3185 412.962 67.3185 413.463 67.3185C415.135 67.3271 416.766 67.9058 418.15 68.9808C418.177 69.015 418.191 69.0593 418.191 69.1051C418.191 69.151 418.177 69.1952 418.15 69.2294C418.141 69.23 418.132 69.23 418.123 69.2294Z" fill="#080C53"/>
<path d="M404.104 84.3464C403.978 84.3509 403.854 84.3072 403.752 84.2221C403.619 84.1153 403.528 83.9533 403.497 83.7706C403.467 83.5878 403.5 83.3986 403.589 83.2433L404.944 80.9129C404.989 80.8364 405.047 80.7708 405.115 80.7201C405.182 80.6693 405.258 80.6343 405.337 80.6169C405.416 80.5996 405.497 80.6004 405.576 80.6192C405.655 80.638 405.73 80.6744 405.797 80.7264C405.864 80.7785 405.921 80.8451 405.965 80.9224C406.009 80.9997 406.04 81.0863 406.055 81.1772C406.07 81.2681 406.07 81.3615 406.053 81.4521C406.037 81.5427 406.005 81.6287 405.96 81.7052L404.605 84.0357C404.551 84.1313 404.477 84.2099 404.389 84.2642C404.301 84.3184 404.203 84.3467 404.104 84.3464Z" fill="#080C53"/>
<path d="M399.85 82.4819C399.74 82.4765 399.632 82.4391 399.538 82.3731C399.48 82.328 399.43 82.2698 399.391 82.202C399.352 82.1343 399.326 82.0583 399.313 81.9787C399.301 81.899 399.302 81.8173 399.317 81.7382C399.333 81.6592 399.362 81.5846 399.403 81.5186L400.608 79.4678C400.646 79.3955 400.697 79.3329 400.757 79.2838C400.817 79.2347 400.885 79.2001 400.957 79.1822C401.029 79.1642 401.103 79.1633 401.175 79.1794C401.248 79.1955 401.316 79.2284 401.377 79.276C401.438 79.3235 401.49 79.3848 401.529 79.4561C401.569 79.5274 401.595 79.6072 401.607 79.6906C401.618 79.774 401.615 79.8592 401.597 79.9411C401.579 80.023 401.547 80.0999 401.502 80.167L400.297 82.2022C400.248 82.2873 400.182 82.3573 400.104 82.406C400.026 82.4548 399.939 82.4808 399.85 82.4819Z" fill="#080C53"/>
<path d="M396.702 86.7204C396.844 86.254 397.346 86.0374 397.812 86.1792L401.689 87.3582C402.414 87.5785 402.617 88.4708 401.998 88.9066C400.872 89.6989 399.206 90.559 397.798 90.0189C396.174 89.3963 396.397 87.7217 396.702 86.7204Z" fill="white"/>
<path d="M357.644 170.838L349.842 165.711L358.782 168.974L357.644 170.838Z" fill="#DF8568"/>
<path d="M453.908 178.59L445.145 192.743L452.811 173.976L453.908 178.59Z" fill="#DF8568"/>
<path d="M488.34 148.932V449C488.34 449.515 488.518 450.009 488.836 450.374C489.153 450.738 489.584 450.942 490.033 450.942C490.482 450.942 490.913 450.738 491.23 450.374C491.548 450.009 491.726 449.515 491.726 449V152.443C490.394 151.559 489.241 150.362 488.34 148.932Z" fill="#F3A769"/>
<path d="M469.701 68.5925C467.551 68.5939 465.465 67.7473 463.795 66.1945C462.124 64.6418 460.969 62.4774 460.525 60.0642C460.08 57.6511 460.373 55.136 461.353 52.9407C462.333 50.7454 463.941 49.0034 465.908 48.0069L528.568 16.2973C530.828 15.2352 533.361 15.2275 535.627 16.2759C537.893 17.3243 539.712 19.3459 540.697 21.9101C541.683 24.4743 541.756 27.3784 540.902 30.0039C540.048 32.6294 538.335 34.7687 536.126 35.9662L473.439 67.6759C472.261 68.2723 470.989 68.5843 469.701 68.5925Z" fill="#FFF4D6"/>
<path d="M540.923 21.7511C539.99 19.3297 538.312 17.388 536.209 16.2979C537.215 17.5576 537.944 19.0746 538.337 20.7228C538.729 22.371 538.772 24.1027 538.464 25.774C538.155 27.4454 537.503 29.0081 536.562 30.3323C535.621 31.6566 534.418 32.7041 533.053 33.3878L470.407 65.0974C469.205 65.7117 467.903 66.0292 466.587 66.0292C465.271 66.0292 463.97 65.7117 462.768 65.0974C464.091 66.7635 465.837 67.9103 467.76 68.3759C469.683 68.8415 471.684 68.6023 473.482 67.692L536.128 35.9824C537.26 35.413 538.283 34.5923 539.138 33.5675C539.992 32.5428 540.662 31.3342 541.107 30.0114C541.553 28.6886 541.766 27.2777 541.734 25.8601C541.703 24.4424 541.427 23.0459 540.923 21.7511Z" fill="#F5EACE"/>
<path d="M406.772 158.098L387.334 157.305C387.214 157.301 387.096 157.27 386.986 157.213C386.876 157.156 386.778 157.074 386.696 156.973C386.614 156.872 386.55 156.753 386.509 156.623C386.467 156.494 386.449 156.356 386.454 156.218C386.456 156.078 386.482 155.941 386.531 155.813C386.58 155.686 386.65 155.571 386.739 155.475C386.827 155.379 386.932 155.305 387.045 155.257C387.159 155.208 387.281 155.186 387.402 155.192L406.826 155.985C407.07 155.985 407.304 156.096 407.477 156.294C407.65 156.492 407.747 156.761 407.747 157.041C407.747 157.321 407.65 157.59 407.477 157.788C407.304 157.986 407.07 158.098 406.826 158.098H406.772Z" fill="#EFBA1C"/>
<path d="M390.951 163.286C390.951 163.649 390.857 164.003 390.681 164.305C390.506 164.606 390.256 164.841 389.964 164.98C389.672 165.119 389.35 165.155 389.04 165.084C388.73 165.014 388.446 164.839 388.222 164.583C387.999 164.326 387.846 164 387.785 163.644C387.723 163.288 387.755 162.92 387.876 162.585C387.997 162.25 388.201 161.964 388.464 161.762C388.727 161.561 389.036 161.453 389.352 161.453C389.776 161.453 390.183 161.646 390.482 161.99C390.782 162.334 390.951 162.8 390.951 163.286Z" fill="#EFBA1C"/>
<path d="M404.753 163.94C404.753 164.302 404.659 164.657 404.484 164.958C404.308 165.26 404.059 165.495 403.767 165.633C403.475 165.772 403.153 165.809 402.843 165.738C402.533 165.667 402.248 165.492 402.025 165.236C401.801 164.98 401.649 164.653 401.587 164.297C401.526 163.942 401.557 163.573 401.678 163.238C401.799 162.903 402.004 162.617 402.267 162.415C402.53 162.214 402.839 162.106 403.155 162.106C403.365 162.106 403.573 162.154 403.767 162.246C403.961 162.338 404.137 162.473 404.285 162.643C404.434 162.814 404.551 163.016 404.632 163.238C404.712 163.461 404.753 163.699 404.753 163.94Z" fill="#EFBA1C"/>
<path d="M394.174 186.327L384.354 176.26V176.182L385.545 158.439C385.552 158.393 385.574 158.351 385.607 158.322C385.64 158.293 385.681 158.28 385.722 158.284C385.741 158.286 385.76 158.292 385.778 158.303C385.795 158.313 385.811 158.328 385.823 158.345C385.836 158.362 385.845 158.382 385.851 158.404C385.857 158.425 385.859 158.448 385.857 158.471L384.665 176.12L394.147 185.892L406.554 177.021L407.475 160.024C407.475 160 407.479 159.977 407.487 159.955C407.496 159.933 407.508 159.914 407.523 159.897C407.539 159.881 407.557 159.869 407.576 159.862C407.596 159.854 407.617 159.851 407.637 159.853C407.657 159.855 407.676 159.862 407.694 159.872C407.711 159.882 407.727 159.897 407.739 159.914C407.752 159.931 407.761 159.951 407.767 159.973C407.773 159.995 407.775 160.017 407.773 160.04L406.852 177.223L394.174 186.327Z" fill="#EFBA1C"/>
<path d="M416.782 190.926C416.782 191.081 416.701 191.236 416.66 191.392C411.094 194.475 405.16 196.595 399.052 197.684C396.656 198.084 394.239 198.287 391.819 198.29C387.7 198.3 383.599 197.668 379.628 196.41C377.161 195.614 374.759 194.575 372.449 193.303C372.456 193.173 372.456 193.044 372.449 192.914C374.782 194.201 377.212 195.241 379.709 196.022C388.026 198.725 400.799 199.626 416.782 190.926Z" fill="#F7CDA3"/>
<path d="M421.78 227.468C421.561 227.467 421.344 227.414 421.143 227.312L399.471 216.002C399.101 215.808 398.813 215.454 398.671 215.017C398.529 214.58 398.544 214.096 398.713 213.671C398.881 213.247 399.19 212.917 399.571 212.754C399.952 212.591 400.374 212.608 400.744 212.801L422.416 224.096C422.745 224.256 423.014 224.542 423.178 224.905C423.342 225.268 423.39 225.685 423.315 226.084C423.24 226.484 423.045 226.841 422.765 227.093C422.484 227.346 422.136 227.478 421.78 227.468Z" fill="#EFBA1C"/>
<path d="M432.981 350.609H417.133L417.079 350.251H432.574L421.657 301.048H409.9L409.846 300.69H421.901L421.928 300.83L432.981 350.609Z" fill="#F7CDA3"/>
<path d="M375.727 300.69L375.713 300.877L374.156 350.609H357.834L357.861 350.251H373.858L375.402 301.048H362.507L362.534 300.69H375.727Z" fill="#F7CDA3"/>
<path d="M378.422 214.401L369.875 223.04L370.363 217.851L376.39 211.745C376.701 211.473 377.091 211.346 377.48 211.391C377.87 211.435 378.23 211.648 378.488 211.985C378.746 212.322 378.882 212.76 378.87 213.208C378.858 213.657 378.698 214.083 378.422 214.401Z" fill="#EFBA1C"/>
<path d="M403.087 445.893H334.332C334.332 445.675 334.454 445.442 334.522 445.193H403.005L403.087 445.893Z" fill="#08294A"/>
<path d="M348.556 433.712C348.486 433.695 348.423 433.651 348.378 433.588C348.333 433.524 348.309 433.445 348.309 433.363C348.309 433.281 348.333 433.201 348.378 433.138C348.423 433.074 348.486 433.03 348.556 433.013L356.236 432.609L349.368 429.704C349.297 429.673 349.237 429.613 349.2 429.537C349.163 429.46 349.15 429.371 349.165 429.285C349.184 429.204 349.227 429.133 349.286 429.085C349.345 429.037 349.418 429.014 349.49 429.02L357.197 429.735L353.134 426.628C353.077 426.579 353.035 426.51 353.015 426.431C352.996 426.353 352.999 426.269 353.025 426.193C353.053 426.116 353.103 426.053 353.168 426.016C353.233 425.978 353.307 425.97 353.378 425.991L363.306 428.57C363.352 428.571 363.397 428.584 363.438 428.608C363.479 428.632 363.515 428.666 363.544 428.708C363.572 428.75 363.592 428.798 363.602 428.85C363.612 428.901 363.611 428.955 363.601 429.006C363.591 429.058 363.571 429.106 363.543 429.148C363.514 429.189 363.478 429.223 363.437 429.247C363.396 429.27 363.35 429.283 363.304 429.284C363.258 429.285 363.213 429.275 363.171 429.253L354.813 427.078L358.443 429.906C358.5 429.952 358.543 430.017 358.564 430.093C358.586 430.168 358.587 430.25 358.565 430.325C358.539 430.395 358.495 430.454 358.44 430.495C358.385 430.537 358.32 430.559 358.254 430.558L351.617 429.937L357.82 432.578C357.884 432.61 357.936 432.665 357.97 432.734C358.003 432.804 358.015 432.884 358.004 432.962C357.993 433.04 357.96 433.112 357.91 433.167C357.859 433.221 357.794 433.254 357.726 433.262L348.529 433.728L348.556 433.712Z" fill="#08294A"/>
<path d="M480.876 445.893H419.449C419.521 445.675 419.589 445.442 419.652 445.193H480.686L480.876 445.893Z" fill="#08294A"/>
<path d="M429.744 434.893C429.665 434.893 429.59 434.86 429.532 434.8C429.475 434.739 429.439 434.656 429.432 434.567C429.428 434.473 429.455 434.381 429.508 434.309C429.561 434.237 429.635 434.19 429.716 434.178L439.09 433.184L432.114 430.993C432.035 430.981 431.963 430.933 431.915 430.86C431.867 430.788 431.846 430.696 431.857 430.605C431.867 430.514 431.909 430.432 431.973 430.377C432.036 430.322 432.116 430.297 432.195 430.31H439.862L434.525 427.575C434.464 427.536 434.417 427.475 434.391 427.401C434.364 427.327 434.36 427.245 434.378 427.169C434.397 427.092 434.438 427.024 434.494 426.977C434.55 426.93 434.618 426.905 434.688 426.907L443.898 428.073C443.98 428.084 444.054 428.131 444.107 428.203C444.16 428.275 444.187 428.367 444.183 428.461C444.178 428.508 444.164 428.554 444.144 428.595C444.124 428.636 444.096 428.672 444.063 428.701C444.031 428.73 443.993 428.751 443.953 428.763C443.913 428.775 443.871 428.778 443.83 428.772L436.584 427.855L441.433 430.341C441.497 430.372 441.55 430.428 441.582 430.499C441.614 430.57 441.624 430.651 441.609 430.729C441.596 430.809 441.559 430.881 441.505 430.932C441.45 430.983 441.382 431.01 441.311 431.009H434.539L440.932 433.013C441.002 433.035 441.064 433.084 441.106 433.152C441.148 433.22 441.168 433.303 441.162 433.386C441.156 433.47 441.124 433.549 441.072 433.609C441.02 433.669 440.951 433.705 440.878 433.712L429.825 434.893H429.744Z" fill="#08294A"/>
<path d="M590.916 451.408H1.08359C0.94193 451.41 0.801329 451.38 0.669936 451.319C0.538543 451.258 0.418968 451.168 0.318165 451.054C0.217362 450.94 0.137334 450.804 0.0827138 450.654C0.0280932 450.504 -1.13469e-05 450.343 3.43658e-09 450.18C3.43666e-09 449.851 0.114164 449.535 0.317379 449.302C0.520595 449.068 0.796198 448.938 1.08359 448.938H590.916C591.204 448.938 591.479 449.068 591.683 449.302C591.886 449.535 592 449.851 592 450.18C592 450.343 591.972 450.504 591.917 450.654C591.863 450.804 591.783 450.94 591.682 451.054C591.581 451.168 591.461 451.258 591.33 451.319C591.199 451.38 591.058 451.41 590.916 451.408Z" fill="#005BBA"/>
</g>
<defs>
<clipPath id="clip0_2946_24477">
<rect width="592" height="451.408" fill="white"/>
</clipPath>
</defs>
</svg>
