<svg width="595" height="423" viewBox="0 0 595 423" fill="none" xmlns="http://www.w3.org/2000/svg">
<g clip-path="url(#clip0_4129_28004)">
<path d="M582.957 286.653C583.031 333.412 571.605 379.471 549.686 420.773C549.308 421.516 548.902 422.258 548.51 423H44.3187L43.1285 420.773C21.2199 379.467 9.79927 333.41 9.87143 286.653C9.87143 128.406 138.153 0.110352 296.414 0.110352C454.676 0.110352 582.957 128.406 582.957 286.653Z" fill="#FFEEDE"/>
<path d="M88.9601 310.837C88.763 310.833 88.5748 310.754 88.4341 310.616C88.2935 310.478 88.2111 310.291 88.2039 310.094C88.1015 297.419 90.8434 284.882 96.2276 273.407C100.898 263.481 107.035 254.314 114.431 246.213C122.234 237.463 131.183 229.809 141.037 223.458C141.206 223.383 141.396 223.373 141.572 223.429C141.748 223.485 141.897 223.603 141.992 223.762C142.086 223.92 142.12 224.108 142.086 224.289C142.052 224.47 141.953 224.633 141.807 224.746C132.045 231.021 123.18 238.591 115.454 247.249C103.509 260.552 89.3382 282.257 89.6462 310.08C89.6481 310.178 89.6307 310.275 89.5951 310.365C89.5596 310.456 89.5064 310.539 89.4388 310.609C89.3712 310.68 89.2904 310.736 89.2011 310.775C89.1117 310.814 89.0156 310.835 88.9181 310.837H88.9601Z" fill="#F5C698"/>
<path d="M88.9609 310.094C88.8868 310.107 88.8109 310.107 88.7369 310.094C88.6431 310.067 88.5558 310.021 88.4801 309.96C88.4044 309.898 88.3418 309.822 88.2961 309.736C88.2503 309.65 88.2224 309.555 88.2139 309.458C88.2055 309.361 88.2166 309.263 88.2468 309.17C96.1164 283.629 92.9798 268.757 88.9609 260.79C84.676 252.262 78.5427 249.657 78.4867 249.587C78.3063 249.507 78.1635 249.361 78.0879 249.178C78.0124 248.996 78.0097 248.791 78.0806 248.607C78.1158 248.514 78.1696 248.429 78.2388 248.358C78.308 248.287 78.3911 248.23 78.4829 248.192C78.5748 248.154 78.6734 248.135 78.7728 248.137C78.8722 248.138 78.9702 248.16 79.0608 248.201C79.3269 248.313 85.7682 251.002 90.2632 260.076C93.0586 265.915 94.5403 272.296 94.6041 278.769C94.8702 287.703 93.2038 298.052 89.6751 309.576C89.6271 309.727 89.5319 309.859 89.4033 309.953C89.2748 310.046 89.1197 310.096 88.9609 310.094Z" fill="#F5C698"/>
<path d="M96.0595 307.336C95.891 307.337 95.7271 307.281 95.5947 307.176C95.4624 307.072 95.3695 306.926 95.3314 306.762C90.6684 287.564 83.2468 276.403 73.0946 273.561C58.3775 269.43 42.8762 284.763 42.7222 284.861C42.5771 284.98 42.3929 285.041 42.2054 285.032C42.0179 285.022 41.8405 284.944 41.7078 284.811C41.5751 284.678 41.4964 284.501 41.4872 284.314C41.478 284.126 41.5389 283.942 41.658 283.797C44.6793 280.935 48.02 278.431 51.6141 276.333C59.4698 271.768 67.0174 270.312 73.4867 272.132C84.143 275.129 91.9846 286.667 96.7877 306.425C96.8127 306.521 96.8184 306.621 96.8044 306.719C96.7905 306.817 96.757 306.911 96.7062 306.996C96.6553 307.08 96.588 307.154 96.5082 307.212C96.4284 307.271 96.3377 307.313 96.2415 307.336H96.0595Z" fill="#F5C698"/>
<path d="M91.8308 323.579H91.6488C91.5538 323.554 91.4647 323.511 91.3865 323.452C91.3082 323.393 91.2425 323.319 91.193 323.235C91.1435 323.15 91.1113 323.056 91.0982 322.959C91.0851 322.862 91.0914 322.763 91.1167 322.669C91.7202 319.412 91.5766 316.06 90.6966 312.867C89.3943 307.601 85.6975 299.746 75.5454 292.24C71.6245 289.342 67.9558 288.543 64.6511 289.874C53.8408 294.341 49.6399 319.378 49.5278 319.686C49.5201 319.791 49.4905 319.893 49.4409 319.986C49.3914 320.079 49.3229 320.161 49.24 320.226C49.1571 320.291 49.0615 320.338 48.9594 320.363C48.8574 320.389 48.751 320.393 48.6472 320.376C48.5433 320.358 48.4443 320.319 48.3565 320.261C48.2686 320.203 48.1939 320.127 48.1371 320.038C48.0803 319.95 48.0426 319.85 48.0265 319.746C48.0104 319.642 48.0162 319.536 48.0435 319.434C48.2256 318.37 52.5245 293.262 64.0769 288.627C67.8997 287.087 72.0446 287.941 76.4135 291.176C86.9718 298.976 90.8086 307.209 92.1669 312.741C93.0827 316.125 93.2167 319.673 92.559 323.117C92.4992 323.259 92.3974 323.379 92.2672 323.462C92.1371 323.544 91.9848 323.585 91.8308 323.579Z" fill="#F5C698"/>
<path d="M118.254 420.452H68.0675L59.6797 299.284H118.254V420.452Z" fill="#FFD6AD"/>
<path d="M59.6797 299.284L68.0675 420.452H71.6662L63.2644 299.284H59.6797Z" fill="#F5C698"/>
<path d="M156.721 201.921C148.492 201.712 140.293 202.998 132.524 205.716C111.519 212.522 116.938 229.269 120.131 235.963C120.509 230.109 121.531 224.144 125.452 219.705C133.532 210.015 144.72 204.4 156.721 201.921Z" fill="#F5C698"/>
<path d="M156.721 201.921C144.72 204.399 133.532 210.015 125.452 219.705C121.573 224.144 120.509 230.109 120.131 235.962C120.587 236.924 121.096 237.859 121.657 238.763C151.54 258.367 183.27 217.086 178.187 210.897C174.91 206.962 168.091 202.467 156.721 201.921Z" fill="#FFDFBF"/>
<path d="M84.971 257.191C73.7686 250.358 56.3489 244.518 56.741 229.941C52.6241 234.548 52.4421 241.816 60.8439 251.184C79.8459 272.538 87.1274 263.927 88.6957 261.364C87.9286 259.613 86.6241 258.151 84.971 257.191Z" fill="#F5C698"/>
<path d="M88.2055 230.893C80.2799 222.015 63.3783 222.491 56.7409 229.941C56.3488 244.518 73.7685 250.357 84.9709 257.191C86.6076 258.167 87.8922 259.638 88.6396 261.392C88.7602 261.193 88.8678 260.988 88.9617 260.775C88.9617 260.775 101.032 245.288 88.2055 230.893Z" fill="#FFDFBF"/>
<path d="M48.0728 274.373C40.1331 272.734 25.0239 273.168 28.6367 301.076C29.897 310.878 33.1037 314.141 36.8985 313.427C32.2495 300.096 37.4026 283.895 48.0728 274.373Z" fill="#F5C698"/>
<path d="M52.6789 275.73C51.1887 275.125 49.6467 274.657 48.0719 274.33C37.4016 283.852 32.2486 300.054 36.8695 313.384C47.4978 311.41 62.775 278.573 52.6789 275.73Z" fill="#FFDFBF"/>
<path d="M47.7919 312.488C43.1569 315.625 32.9767 324.097 37.1916 335.747C38.0119 338.039 39.4463 340.06 41.338 341.591C43.2297 343.123 45.506 344.104 47.9179 344.429C43.8991 334.151 43.395 322.514 47.7919 312.488Z" fill="#F5C698"/>
<path d="M49.9491 311.158C49.9491 311.158 49.0809 311.62 47.7926 312.558C43.3957 322.585 43.8998 334.221 47.9187 344.499C56.3905 345.381 64.1901 336.181 49.9491 311.158Z" fill="#FFDFBF"/>
<path d="M123.716 237.013C123.7 237.019 123.684 237.023 123.667 237.023C123.65 237.023 123.633 237.019 123.618 237.013C123.603 237 123.591 236.984 123.583 236.965C123.575 236.947 123.57 236.928 123.57 236.908C123.57 236.888 123.575 236.868 123.583 236.85C123.591 236.832 123.603 236.816 123.618 236.803C126.905 232.888 130.722 229.453 134.96 226.595C145.683 219.269 157.967 214.547 170.836 212.802C170.867 212.812 170.894 212.831 170.914 212.858C170.933 212.884 170.944 212.916 170.944 212.949C170.944 212.982 170.933 213.014 170.914 213.04C170.894 213.066 170.867 213.086 170.836 213.096C158.007 214.817 145.757 219.506 135.058 226.791C130.873 229.641 127.103 233.057 123.856 236.943C123.842 236.967 123.821 236.987 123.796 236.999C123.772 237.012 123.743 237.016 123.716 237.013Z" fill="#F5C698"/>
<path d="M149.425 219.061C149.389 219.074 149.349 219.074 149.313 219.061C149.286 219.032 149.271 218.995 149.271 218.956C149.271 218.917 149.286 218.879 149.313 218.851L161.663 208.195C161.692 208.168 161.729 208.153 161.768 208.153C161.807 208.153 161.845 208.168 161.874 208.195C161.9 208.223 161.915 208.261 161.915 208.3C161.915 208.339 161.9 208.376 161.874 208.405L149.565 219.005C149.551 219.028 149.529 219.046 149.504 219.056C149.479 219.066 149.451 219.068 149.425 219.061Z" fill="#F5C698"/>
<path d="M158.261 230.081L135.618 226.412C135.595 226.42 135.57 226.421 135.547 226.417C135.523 226.413 135.5 226.404 135.481 226.389C135.461 226.375 135.445 226.356 135.435 226.335C135.424 226.313 135.418 226.29 135.418 226.265C135.418 226.241 135.424 226.217 135.435 226.196C135.445 226.174 135.461 226.156 135.481 226.141C135.5 226.127 135.523 226.117 135.547 226.113C135.57 226.109 135.595 226.111 135.618 226.118L158.289 229.759C158.327 229.766 158.361 229.787 158.385 229.818C158.408 229.85 158.419 229.888 158.415 229.927C158.415 229.968 158.399 230.007 158.37 230.036C158.341 230.065 158.302 230.081 158.261 230.081Z" fill="#F5C698"/>
<path d="M88.2039 257.527C88.1739 257.525 88.1451 257.514 88.1205 257.497C88.0959 257.48 88.0763 257.456 88.0639 257.429C82.1126 241.158 62.1304 234.31 61.9344 234.24C61.915 234.234 61.897 234.224 61.8816 234.21C61.8662 234.197 61.8535 234.181 61.8444 234.163C61.8353 234.144 61.8299 234.124 61.8285 234.104C61.8271 234.084 61.8298 234.063 61.8363 234.044C61.8519 234.007 61.8809 233.978 61.9175 233.963C61.954 233.947 61.9952 233.946 62.0324 233.96C62.2284 234.03 82.3367 240.962 88.3439 257.331C88.3506 257.348 88.3537 257.367 88.3531 257.386C88.3525 257.404 88.3481 257.423 88.3403 257.44C88.3325 257.457 88.3213 257.472 88.3075 257.484C88.2937 257.497 88.2775 257.507 88.2599 257.513L88.2039 257.527Z" fill="#F5C698"/>
<path d="M80.574 245.891C80.5537 245.891 80.5337 245.887 80.515 245.879C80.4963 245.871 80.4793 245.86 80.465 245.846C80.4507 245.831 80.4394 245.814 80.4316 245.796C80.4239 245.777 80.4199 245.757 80.4199 245.737V234.1C80.4199 234.08 80.4239 234.06 80.4316 234.041C80.4394 234.023 80.4507 234.006 80.465 233.991C80.4793 233.977 80.4963 233.966 80.515 233.958C80.5337 233.95 80.5537 233.946 80.574 233.946C80.5936 233.946 80.613 233.95 80.631 233.958C80.649 233.966 80.6651 233.978 80.6783 233.992C80.6915 234.007 80.7015 234.024 80.7076 234.042C80.7138 234.061 80.7159 234.081 80.714 234.1V245.737C80.7159 245.756 80.7138 245.776 80.7076 245.795C80.7015 245.813 80.6915 245.83 80.6783 245.845C80.6651 245.86 80.649 245.871 80.631 245.879C80.613 245.887 80.5936 245.891 80.574 245.891Z" fill="#F5C698"/>
<path d="M66.4437 236.103C66.4089 236.103 66.3752 236.09 66.3493 236.067C66.3234 236.044 66.3072 236.011 66.3037 235.977L65.5615 229.115C65.5575 229.096 65.5576 229.076 65.562 229.056C65.5663 229.037 65.5747 229.019 65.5866 229.003C65.5985 228.987 65.6137 228.974 65.6311 228.964C65.6485 228.955 65.6677 228.949 65.6875 228.947C65.7277 228.947 65.7666 228.961 65.7975 228.986C65.8283 229.012 65.8489 229.048 65.8556 229.087L66.5977 235.935C66.6018 235.954 66.6016 235.974 66.5973 235.994C66.593 236.013 66.5846 236.031 66.5726 236.047C66.5607 236.063 66.5456 236.076 66.5282 236.086C66.5108 236.095 66.4915 236.101 66.4717 236.103H66.4437Z" fill="#F5C698"/>
<path d="M73.4459 240.066H65.6603C65.6406 240.066 65.6212 240.062 65.6032 240.054C65.5853 240.046 65.5692 240.034 65.5559 240.02C65.5427 240.005 65.5327 239.988 65.5266 239.969C65.5204 239.951 65.5183 239.931 65.5202 239.912C65.5202 239.874 65.535 239.839 65.5612 239.813C65.5875 239.786 65.6231 239.771 65.6603 239.771H73.4459C73.4844 239.771 73.5216 239.786 73.5502 239.812C73.5787 239.837 73.5964 239.873 73.5999 239.912C73.5999 239.952 73.5837 239.992 73.5548 240.02C73.5259 240.049 73.4868 240.066 73.4459 240.066Z" fill="#F5C698"/>
<path d="M38.0606 298.948C38.0408 298.946 38.0215 298.941 38.0041 298.931C37.9867 298.922 37.9716 298.908 37.9596 298.892C37.9477 298.877 37.9393 298.858 37.935 298.839C37.9307 298.82 37.9305 298.799 37.9346 298.78C39.0921 290.568 43.1443 283.04 49.361 277.552C49.3908 277.528 49.4278 277.515 49.466 277.515C49.5042 277.515 49.5412 277.528 49.571 277.552C49.5976 277.58 49.6124 277.618 49.6124 277.657C49.6124 277.696 49.5976 277.733 49.571 277.762C43.417 283.191 39.4045 290.64 38.2566 298.766C38.2628 298.792 38.2619 298.82 38.254 298.846C38.246 298.872 38.2314 298.895 38.2114 298.914C38.1915 298.932 38.1671 298.945 38.1406 298.951C38.1141 298.957 38.0865 298.956 38.0606 298.948Z" fill="#F5C698"/>
<path d="M46.587 295.895C46.5561 295.896 46.5257 295.887 46.5003 295.87C46.475 295.852 46.4562 295.826 46.447 295.797L42.3441 286.121C42.3292 286.085 42.328 286.045 42.341 286.009C42.354 285.973 42.3801 285.943 42.4141 285.925C42.4323 285.916 42.4522 285.911 42.4725 285.91C42.4928 285.91 42.5129 285.913 42.5316 285.921C42.5502 285.929 42.5669 285.941 42.5805 285.956C42.594 285.972 42.6042 285.989 42.6102 286.009L46.7271 295.685C46.7361 295.703 46.741 295.723 46.7416 295.743C46.7422 295.763 46.7383 295.784 46.7303 295.802C46.7224 295.821 46.7104 295.838 46.6953 295.851C46.6803 295.865 46.6624 295.875 46.643 295.881L46.587 295.895Z" fill="#F5C698"/>
<path d="M48.031 338.982C47.9989 338.98 47.9681 338.968 47.943 338.948C47.9179 338.928 47.8997 338.901 47.891 338.87C44.9643 325.567 49.2913 316.227 49.2913 316.129C49.2947 316.105 49.3037 316.083 49.3175 316.063C49.3314 316.043 49.3496 316.027 49.3709 316.015C49.3921 316.004 49.4158 315.998 49.4399 315.997C49.464 315.997 49.4879 316.002 49.5097 316.012C49.5314 316.022 49.5505 316.038 49.5653 316.057C49.5801 316.076 49.5902 316.098 49.5949 316.121C49.5995 316.145 49.5985 316.17 49.592 316.193C49.5855 316.216 49.5736 316.237 49.5573 316.255C49.5573 316.353 45.2724 325.609 48.157 338.8C48.1655 338.839 48.1586 338.88 48.1377 338.913C48.1168 338.947 48.0836 338.972 48.045 338.982H48.031Z" fill="#F5C698"/>
<path d="M53.9814 334.992H53.8553L46.8539 326.688C46.8273 326.659 46.8125 326.622 46.8125 326.583C46.8125 326.544 46.8273 326.506 46.8539 326.478C46.8824 326.451 46.9199 326.437 46.9589 326.437C46.9979 326.437 47.0354 326.451 47.0639 326.478L54.0654 334.782C54.0803 334.795 54.0922 334.811 54.1004 334.829C54.1086 334.847 54.1128 334.867 54.1128 334.887C54.1128 334.907 54.1086 334.926 54.1004 334.944C54.0922 334.962 54.0803 334.979 54.0654 334.992C54.0523 334.998 54.0379 335.001 54.0234 335.001C54.0088 335.001 53.9945 334.998 53.9814 334.992Z" fill="#F5C698"/>
<path d="M444.076 412.693H448.361V352.719H444.076V412.693Z" fill="#FF6A5E"/>
<path d="M448.362 352.719H446.779V412.693H448.362V352.719Z" fill="#EE4A3E"/>
<path d="M446.512 358.194H446.022C443.088 358.194 440.274 357.029 438.2 354.954C436.125 352.88 434.96 350.066 434.96 347.132V335.58H457.561V347.132C457.561 350.063 456.397 352.875 454.325 354.949C452.254 357.024 449.444 358.191 446.512 358.194Z" fill="#FF6A5E"/>
<path d="M455.054 355.967H437.522C436.857 355.967 436.22 355.703 435.75 355.233C435.28 354.763 435.016 354.126 435.016 353.461V355.687C435.016 356.352 435.28 356.99 435.75 357.46C436.22 357.93 436.857 358.194 437.522 358.194H455.11C455.775 358.194 456.412 357.93 456.882 357.46C457.352 356.99 457.616 356.352 457.616 355.687V353.461C457.617 353.795 457.55 354.125 457.42 354.433C457.291 354.741 457.101 355.02 456.863 355.253C456.624 355.487 456.341 355.67 456.03 355.793C455.72 355.916 455.388 355.975 455.054 355.967Z" fill="#EE4A3E"/>
<path d="M479.294 335.579L498.156 274.274C498.302 273.788 498.333 273.275 498.246 272.775C498.158 272.275 497.956 271.803 497.654 271.395C497.352 270.987 496.96 270.656 496.507 270.426C496.055 270.197 495.555 270.076 495.048 270.073H461.048C460.36 270.071 459.688 270.288 459.132 270.693C458.575 271.099 458.162 271.671 457.954 272.328L437.523 335.579H479.294Z" fill="#FF6A5E"/>
<path d="M495.046 270.06H493.072C493.508 270.159 493.919 270.348 494.279 270.614C494.639 270.88 494.941 271.217 495.164 271.605C495.388 271.993 495.529 272.423 495.578 272.868C495.628 273.313 495.585 273.763 495.452 274.19L476.604 335.495H437.592V335.579H479.307L498.169 274.274C498.318 273.787 498.35 273.271 498.263 272.768C498.177 272.265 497.973 271.79 497.67 271.38C497.366 270.97 496.97 270.637 496.515 270.408C496.059 270.179 495.556 270.059 495.046 270.06Z" fill="#EE4A3E"/>
<path d="M414.515 338.436H478.817C479.56 338.436 480.272 338.141 480.797 337.616C481.323 337.091 481.618 336.378 481.618 335.636C481.618 334.893 481.323 334.18 480.797 333.655C480.272 333.13 479.56 332.835 478.817 332.835H414.515C413.773 332.835 413.06 333.13 412.535 333.655C412.01 334.18 411.715 334.893 411.715 335.636C411.715 336.378 412.01 337.091 412.535 337.616C413.06 338.141 413.773 338.436 414.515 338.436Z" fill="#FF6A5E"/>
<path d="M478.818 336.182H414.517C413.953 336.189 413.4 336.026 412.93 335.714C412.46 335.401 412.096 334.955 411.884 334.432C411.737 334.782 411.661 335.158 411.66 335.538C411.66 336.281 411.955 336.993 412.48 337.518C413.006 338.043 413.718 338.338 414.461 338.338H478.762C479.505 338.338 480.217 338.043 480.743 337.518C481.268 336.993 481.563 336.281 481.563 335.538C481.562 335.158 481.486 334.782 481.339 334.432C481.135 334.937 480.787 335.372 480.34 335.683C479.892 335.994 479.363 336.167 478.818 336.182Z" fill="#EE4A3E"/>
<path d="M410.609 420.773H481.688L446.149 403.018L410.609 420.773Z" fill="#EE4A3E"/>
<path d="M345.382 230.557L324.448 252.766L279.807 203.266L311.537 175.344L353.84 221.456L345.382 230.557Z" fill="white"/>
<path d="M434.596 200.885L419.053 198.084C420.993 200.682 422.297 203.699 422.862 206.892C427.119 205.915 431.135 204.086 434.666 201.515L434.596 200.885Z" fill="#F3417D"/>
<path d="M413.017 184.235C413.017 184.235 408.424 201.529 411.911 204.539C415.397 207.55 434.595 200.884 434.595 200.884L441.261 182.148L413.017 184.235Z" fill="#FF7BA9"/>
<path d="M434.442 185.188C434.442 185.188 403.916 189.949 404.14 180.749C404.364 171.549 444.903 169.155 445.547 182.808C445.811 186.583 444.9 190.347 442.939 193.584C440.979 196.82 438.064 199.371 434.596 200.885L433.966 189.683C433.966 189.683 437.299 190.313 437.453 186.35C437.607 182.387 434.442 185.188 434.442 185.188Z" fill="#171C69"/>
<path d="M348.127 232.784C349.724 230.557 349.402 225.166 352.328 222.309C347.399 218.305 344.263 211.303 346.125 204.806C343.66 206.5 340.79 212.843 348.197 221.889C348.197 221.889 344.823 226.748 345.397 230.557L330.596 246.212C331.84 249.393 333.353 252.461 335.119 255.384C336.516 254.79 337.881 254.122 339.208 253.382C337.499 250.819 335.833 248.271 334.18 245.792C338.297 240.709 344.641 237.853 348.127 232.784Z" fill="#F3417D"/>
<path d="M354.989 237.265C354.48 235.768 354.096 234.232 353.841 232.672C353.841 232.672 358.28 222.87 356.375 218.501C354.471 214.132 348.338 209.063 348.128 205.324C348.128 204.204 347.091 204.078 346.055 204.806C344.193 211.303 347.329 218.305 352.259 222.31C349.458 225.11 349.724 230.557 348.058 232.784C344.571 237.853 338.256 240.709 334.055 245.792C335.231 247.543 336.393 249.321 337.583 251.128C344.179 247.641 350.536 243.202 354.989 237.265Z" fill="#FF7BA9"/>
<path d="M337.695 251.127C338.199 251.869 338.69 252.626 339.194 253.382C345.905 249.669 351.397 244.09 355.003 237.32C350.536 243.202 344.179 247.64 337.695 251.127Z" fill="#F3417D"/>
<path d="M462.463 257.372C465.693 254.105 469.077 250.987 472.615 248.018C468.736 238.819 464.563 229.731 460.558 220.615C460.012 219.985 459.466 219.396 458.934 218.878C458.687 218.632 458.377 218.458 458.038 218.374L436.025 212.955L422.022 213.753L402.642 220.489C402.382 220.582 402.151 220.742 401.97 220.951L367.971 261.349C364.223 256 360.872 250.384 357.945 244.546C354.052 250.356 348.589 254.94 342.191 257.765C348.983 267.399 356.796 276.445 367.803 280.701C381.134 265.788 393.512 249.615 403.02 231.845C401.663 236.95 400.726 242.158 400.22 247.416L457.31 245.176L457.8 246.884C458.707 243.638 459.177 240.285 459.2 236.914C460.236 243.762 461.329 250.553 462.463 257.372Z" fill="#252B80"/>
<path d="M462.462 257.373C461.384 250.553 460.236 243.734 459.185 236.9C459.163 240.271 458.692 243.624 457.785 246.87L461.174 258.717L462.462 257.373Z" fill="#171C69"/>
<path d="M460.557 220.615C464.561 229.731 468.734 238.819 472.613 248.019C473.425 247.333 474.252 246.619 475.092 245.989C470.443 235.71 465.402 226.244 460.557 220.615Z" fill="#171C69"/>
<path d="M367.801 280.687C356.795 276.487 348.981 267.385 342.19 257.751C340.729 258.418 339.233 259.007 337.709 259.515C345.148 270.844 355.74 279.747 368.179 285.126C368.817 285.384 369.518 285.443 370.191 285.295C370.863 285.148 371.475 284.801 371.946 284.3C377.155 278.769 393.455 260.747 398.048 247.486L400.19 247.402C400.696 242.144 401.633 236.936 402.991 231.831C393.511 249.601 381.132 265.774 367.801 280.687Z" fill="#171C69"/>
<path d="M357.985 244.49C356.831 242.17 355.835 239.774 355.003 237.32C351.396 244.09 345.905 249.669 339.193 253.382C340.174 254.782 341.168 256.294 342.19 257.751C348.609 254.922 354.088 250.322 357.985 244.49Z" fill="white"/>
<path d="M422.12 213.74C422.12 213.74 399.113 265.551 425.803 296.805C425.803 296.805 452.898 249.699 436.081 212.941L422.12 213.74Z" fill="white"/>
<path d="M398.692 235.64C398.692 235.64 393.399 255.524 402.893 270.746C412.387 285.967 410.594 308.176 410.594 308.176H428.518C428.518 308.176 413.493 255.608 422.063 213.726L402.515 220.531C402.435 220.56 402.363 220.608 402.307 220.672C402.251 220.735 402.211 220.812 402.193 220.895L398.692 235.64Z" fill="#252B80"/>
<path d="M425.508 231.313C425.508 231.243 425.508 231.159 425.508 231.089C421.391 248.133 419.23 265.59 419.066 283.124L425.284 299.577L426.194 298.401C423.291 276.146 423.061 253.623 425.508 231.313Z" fill="#D62B64"/>
<path d="M425.509 231.313C423.059 253.614 423.285 276.127 426.181 298.374L435.395 286.513C431.022 268.323 427.721 249.891 425.509 231.313Z" fill="#BD174E"/>
<path d="M417.947 221.119L422.064 233.175L425.943 224.998L428.519 233.175L438.49 217.87L429.052 230.319L425.943 223.891L422.064 229.997L417.947 221.119Z" fill="#F2F2F2"/>
<path d="M422.119 213.739L415.118 216.204L409.979 225.642L414.796 230.151L402.039 238.651L424.92 300.572L425.34 294.634C421.433 276.122 416.266 242.095 422.119 213.739Z" fill="#171C69"/>
<path d="M433.798 302.252L356.502 310.85C355.679 310.945 354.889 311.23 354.194 311.681C353.499 312.133 352.918 312.74 352.497 313.454L289.75 420.773H350.985L370.309 341.292L404.112 331.672L433.798 302.252Z" fill="#252B80"/>
<path d="M350.998 420.773L370.35 341.293L404.14 331.673L433.812 302.238L410.371 304.857L361.935 314.953L324.799 420.773H350.998Z" fill="#171C69"/>
<path d="M457.91 332.722L433.797 302.252L424.611 304.226C426.678 314.421 430.742 324.106 436.57 332.722H457.91Z" fill="#171C69"/>
<path d="M408.117 332.723H436.585C430.757 324.106 426.693 314.421 424.626 304.227L373.221 315.303C372.862 315.379 372.523 315.53 372.226 315.746C371.929 315.962 371.681 316.238 371.499 316.557C371.316 316.876 371.203 317.23 371.167 317.595C371.131 317.96 371.172 318.329 371.289 318.678L405.89 420.773H465.529L408.117 332.723Z" fill="#252B80"/>
<path d="M465.529 420.774L408.117 332.723H457.925L445.057 316.466C430.535 321.731 414.558 326.408 404.63 326.016L390.459 320.415L439.175 420.732L465.529 420.774Z" fill="#171C69"/>
<path d="M471.241 327.023C463.316 316.857 451.567 310.22 448.403 296.217C446.425 287.058 446.86 277.543 449.663 268.603C453.164 258.129 459.185 248.299 459.185 236.872C459.927 241.703 460.725 246.52 461.495 251.351C461.871 249.715 462.161 248.06 462.364 246.394C463.244 237.286 462.081 228.096 458.961 219.494C458.849 219.184 458.662 218.906 458.418 218.684C458.174 218.462 457.88 218.303 457.561 218.22L436.024 212.955C436.024 212.955 431.081 265.48 424.822 296.819C422.567 308.203 445.546 339.934 445.546 339.934C449.978 339.719 454.383 339.115 458.709 338.128C463.771 335.564 468.087 331.74 471.241 327.023Z" fill="#252B80"/>
<path d="M475.904 329.558C471.766 319.737 465.64 310.878 457.91 303.541C446.862 293.43 457.91 267.553 461.495 251.379C460.725 246.548 459.927 241.731 459.185 236.9C459.185 248.327 453.163 258.157 449.663 268.631C446.859 277.571 446.425 287.086 448.402 296.245C451.567 310.248 463.316 316.857 471.241 327.051C468.093 331.76 463.787 335.579 458.737 338.142C464.926 336.672 471.843 334.109 475.904 329.558Z" fill="#171C69"/>
<path d="M424.921 296.231C424.44 297.632 424.401 299.147 424.809 300.572L452.353 235.5L441.486 228.806L445.533 223.891L442.13 214.467L436.025 212.955C436.025 212.955 431.138 264.766 424.921 296.231Z" fill="#171C69"/>
<path d="M425.2 184.249C418.824 184.251 412.504 183.063 406.562 180.748L406.689 180.454C415.941 184.037 426.036 184.855 435.745 182.807V183.115C432.279 183.861 428.745 184.241 425.2 184.249Z" fill="#252B80"/>
<path d="M437.887 194.08L437.635 193.884C439.352 191.621 440.582 189.028 441.247 186.266C441.625 185.039 441.625 183.726 441.247 182.499C440.913 181.777 440.411 181.146 439.782 180.659C439.153 180.172 438.417 179.842 437.635 179.699C436.125 179.416 434.581 179.364 433.056 179.545H432.832C424.935 180.049 417.01 179.894 409.139 179.082V178.774C416.997 179.575 424.907 179.724 432.79 179.223H433.014C434.567 179.05 436.138 179.101 437.677 179.377C438.504 179.531 439.283 179.88 439.95 180.393C440.616 180.907 441.152 181.571 441.514 182.331C441.912 183.617 441.912 184.994 441.514 186.28C440.862 189.104 439.626 191.761 437.887 194.08Z" fill="#252B80"/>
<path d="M440.588 177.36C431.292 175.374 421.711 175.099 412.316 176.548V176.239C421.741 174.767 431.354 175.023 440.686 176.996L440.588 177.36Z" fill="#252B80"/>
<path d="M418.522 192.217H418.424C418.257 192.19 418.108 192.098 418.009 191.962C417.909 191.826 417.867 191.656 417.891 191.489L418.424 187.848C418.434 187.765 418.461 187.685 418.502 187.612C418.544 187.54 418.6 187.476 418.666 187.425C418.733 187.375 418.809 187.338 418.89 187.316C418.97 187.295 419.055 187.29 419.138 187.302C419.305 187.33 419.455 187.421 419.557 187.557C419.659 187.692 419.704 187.862 419.684 188.03L419.152 191.671C419.131 191.823 419.056 191.963 418.94 192.063C418.824 192.164 418.675 192.219 418.522 192.217Z" fill="#080C53"/>
<path d="M413.508 192.217H413.41C413.327 192.205 413.247 192.177 413.175 192.133C413.103 192.09 413.04 192.033 412.991 191.965C412.941 191.897 412.905 191.82 412.886 191.738C412.867 191.657 412.864 191.572 412.878 191.489L413.41 187.848C413.419 187.764 413.445 187.683 413.487 187.609C413.528 187.535 413.584 187.47 413.651 187.419C413.718 187.367 413.795 187.329 413.876 187.308C413.958 187.286 414.044 187.281 414.127 187.294C414.211 187.306 414.291 187.335 414.364 187.379C414.436 187.423 414.499 187.481 414.548 187.55C414.597 187.618 414.633 187.696 414.651 187.779C414.67 187.861 414.671 187.947 414.656 188.03L414.138 191.671C414.115 191.822 414.039 191.96 413.923 192.06C413.808 192.16 413.661 192.216 413.508 192.217Z" fill="#080C53"/>
<path d="M411.912 197.552H420.72C420.72 197.552 417.751 203.321 415.273 203.321C412.794 203.321 411.912 197.552 411.912 197.552Z" fill="#DEFCFF"/>
<path d="M422.861 206.836C423.253 209.166 422.976 211.56 422.062 213.74L425.927 223.892L436.023 212.941L434.623 201.459C431.104 204.025 427.104 205.854 422.861 206.836Z" fill="#FF7BA9"/>
<path d="M448.15 293.724H454.55C454.429 291.31 454.124 288.909 453.64 286.541C451.889 286.275 450.125 285.995 448.36 285.687C448.662 288.363 448.591 291.068 448.15 293.724Z" fill="#F2F2F2"/>
<path d="M443.307 271.53C446.055 275.799 447.785 280.643 448.362 285.687C450.126 285.995 451.89 286.275 453.641 286.541C452.676 281.598 450.738 276.895 447.942 272.707L443.307 271.53Z" fill="white"/>
<path d="M447.941 272.706L448.389 273.392L448.516 272.86L447.941 272.706Z" fill="#252B80"/>
<path d="M464.339 269.85C463.765 265.649 463.121 261.532 462.462 257.373L461.16 258.773L464.339 269.85Z" fill="#171C69"/>
<path d="M486.155 288.571C482.924 274.641 478.39 261.045 472.614 247.963C469.066 250.932 465.682 254.05 462.462 257.317C463.12 261.518 463.764 265.635 464.338 269.794L466.593 277.677C466.593 277.677 457.995 275.255 448.515 272.804L448.389 273.336C450.943 277.354 452.723 281.813 453.64 286.485C464.381 288.264 475.274 288.963 486.155 288.571Z" fill="#252B80"/>
<path d="M491.743 289.734C489.096 281.654 482.641 262.736 475.093 245.988C474.253 246.66 473.427 247.389 472.615 248.019C478.391 261.101 482.925 274.697 486.156 288.627C475.275 289.019 464.382 288.32 453.641 286.541C454.125 288.909 454.43 291.31 454.551 293.724H488.844C489.326 293.726 489.801 293.614 490.231 293.396C490.661 293.178 491.033 292.861 491.316 292.471C491.599 292.082 491.785 291.63 491.859 291.154C491.934 290.678 491.894 290.191 491.743 289.734Z" fill="#171C69"/>
<path d="M437.298 289.888C434.345 290.652 431.222 290.431 428.406 289.257C423.967 287.353 422.693 282.592 420.789 278.783C416.588 284.09 412.177 289.636 405.777 291.974C405.777 293.066 406.309 293.724 407.36 293.724C414.123 293.724 421.741 285.771 421.741 285.771C421.741 285.771 419.626 293.724 432.943 293.724H448.136C448.577 291.068 448.648 288.363 448.346 285.687L445.21 285.127C442.059 284.496 440.463 288.935 437.298 289.888Z" fill="#F3417D"/>
<path d="M427.539 268.001C418.703 266.601 405.554 285.953 405.778 291.974C412.178 289.636 416.617 284.09 420.789 278.783C422.694 282.592 423.968 287.353 428.407 289.257C431.223 290.431 434.345 290.652 437.299 289.888C440.464 288.935 442.06 284.496 445.225 285.127L446.821 285.421C446.517 280.548 445.236 275.786 443.054 271.418C437.005 269.947 431.166 268.589 427.539 268.001Z" fill="#FF7BA9"/>
<path d="M443.307 271.53L443.055 271.46C445.237 275.828 446.518 280.59 446.821 285.463L448.362 285.729C447.791 280.67 446.061 275.811 443.307 271.53Z" fill="#F3417D"/>
<path d="M368.025 261.336L373.781 269.85L370.91 257.905L368.025 261.336Z" fill="#171C69"/>
<path d="M429.008 302.574C430.013 302.574 430.828 301.759 430.828 300.754C430.828 299.749 430.013 298.934 429.008 298.934C428.002 298.934 427.188 299.749 427.188 300.754C427.188 301.759 428.002 302.574 429.008 302.574Z" fill="#171C69"/>
<path d="M466.593 277.734L479.98 282.621L464.814 271.53L466.593 277.734Z" fill="#171C69"/>
<path d="M425.942 224.998L423.59 229.969L425.214 234.982L427.399 229.647L425.942 224.998Z" fill="#D62B64"/>
<path d="M441.262 311.159C441.038 311.157 440.818 311.097 440.623 310.984C440.429 310.871 440.268 310.709 440.156 310.515C440.072 310.37 440.017 310.209 439.995 310.043C439.973 309.877 439.985 309.708 440.029 309.546C440.074 309.385 440.15 309.233 440.253 309.101C440.357 308.97 440.486 308.86 440.632 308.778L453.011 301.777C453.302 301.602 453.651 301.551 453.981 301.633C454.31 301.716 454.594 301.926 454.768 302.218C454.943 302.509 454.994 302.858 454.912 303.188C454.829 303.517 454.619 303.801 454.327 303.975L441.948 310.977C441.741 311.1 441.504 311.163 441.262 311.159Z" fill="#171C69"/>
<path d="M447.941 235.948C447.896 235.963 447.847 235.963 447.801 235.948L442.914 233.483C442.842 233.445 442.787 233.379 442.761 233.301C442.735 233.223 442.74 233.138 442.774 233.063C442.794 233.026 442.82 232.992 442.852 232.965C442.885 232.937 442.922 232.916 442.962 232.903C443.003 232.89 443.045 232.885 443.087 232.889C443.13 232.892 443.171 232.904 443.208 232.923L448.081 235.374C448.119 235.393 448.153 235.42 448.18 235.452C448.208 235.484 448.229 235.521 448.242 235.562C448.255 235.602 448.259 235.645 448.256 235.687C448.253 235.729 448.241 235.77 448.222 235.808C448.192 235.854 448.15 235.892 448.101 235.916C448.051 235.941 447.996 235.952 447.941 235.948Z" fill="#252B80"/>
<path d="M441.528 249.447C441.157 249.468 440.793 249.34 440.516 249.091C440.238 248.843 440.071 248.495 440.051 248.124C440.031 247.752 440.158 247.388 440.407 247.111C440.655 246.834 441.003 246.667 441.374 246.647L452.857 245.442C453.041 245.423 453.226 245.44 453.404 245.493C453.581 245.545 453.746 245.632 453.89 245.748C454.034 245.865 454.153 246.008 454.241 246.171C454.329 246.333 454.385 246.512 454.404 246.696C454.423 246.879 454.406 247.065 454.354 247.243C454.301 247.42 454.214 247.585 454.098 247.729C453.981 247.872 453.838 247.992 453.675 248.08C453.513 248.168 453.335 248.224 453.151 248.243L441.668 249.433L441.528 249.447Z" fill="#171C69"/>
<path d="M452.689 290.07C452.689 290.327 452.612 290.579 452.469 290.793C452.326 291.008 452.123 291.175 451.885 291.273C451.647 291.372 451.385 291.397 451.132 291.347C450.88 291.297 450.648 291.173 450.465 290.991C450.283 290.809 450.159 290.577 450.109 290.324C450.059 290.071 450.085 289.81 450.183 289.572C450.282 289.334 450.449 289.13 450.663 288.987C450.877 288.844 451.129 288.768 451.386 288.768C451.558 288.766 451.728 288.798 451.887 288.863C452.046 288.928 452.19 289.024 452.311 289.145C452.433 289.266 452.528 289.411 452.593 289.569C452.658 289.728 452.69 289.898 452.689 290.07Z" fill="white"/>
<path d="M459.927 290.602C459.93 290.968 459.824 291.327 459.623 291.633C459.421 291.938 459.133 292.178 458.796 292.32C458.458 292.462 458.086 292.5 457.727 292.431C457.367 292.361 457.037 292.186 456.777 291.928C456.517 291.67 456.339 291.341 456.267 290.982C456.195 290.623 456.23 290.25 456.37 289.912C456.509 289.573 456.746 289.284 457.05 289.08C457.355 288.876 457.713 288.768 458.079 288.768C458.567 288.768 459.035 288.96 459.381 289.304C459.727 289.648 459.923 290.114 459.927 290.602Z" fill="#252B80"/>
<path d="M344.74 262.806C344.742 263.173 344.636 263.532 344.434 263.838C344.232 264.144 343.943 264.383 343.605 264.525C343.267 264.667 342.894 264.704 342.534 264.634C342.174 264.563 341.844 264.386 341.584 264.127C341.325 263.868 341.149 263.537 341.078 263.177C341.007 262.817 341.045 262.445 341.186 262.106C341.328 261.768 341.567 261.479 341.873 261.277C342.179 261.075 342.539 260.969 342.905 260.972C343.391 260.975 343.855 261.17 344.198 261.513C344.542 261.856 344.736 262.321 344.74 262.806Z" fill="#252B80"/>
<path d="M347.904 266.461C347.904 266.826 347.795 267.184 347.592 267.488C347.389 267.792 347.101 268.028 346.763 268.168C346.425 268.308 346.053 268.345 345.695 268.274C345.336 268.202 345.007 268.026 344.748 267.768C344.49 267.509 344.314 267.18 344.243 266.821C344.171 266.463 344.208 266.091 344.348 265.753C344.488 265.416 344.725 265.127 345.029 264.924C345.332 264.721 345.69 264.612 346.055 264.612C346.546 264.612 347.016 264.807 347.362 265.154C347.709 265.5 347.904 265.97 347.904 266.461Z" fill="#252B80"/>
<path d="M351.111 269.891C351.114 270.258 351.007 270.617 350.805 270.923C350.603 271.229 350.315 271.468 349.976 271.61C349.638 271.752 349.265 271.789 348.905 271.719C348.545 271.648 348.215 271.471 347.955 271.212C347.696 270.953 347.52 270.622 347.449 270.262C347.378 269.902 347.416 269.53 347.557 269.191C347.699 268.853 347.938 268.564 348.244 268.362C348.55 268.16 348.91 268.054 349.276 268.057C349.762 268.06 350.226 268.255 350.569 268.598C350.913 268.941 351.107 269.406 351.111 269.891Z" fill="#252B80"/>
<path d="M464.843 290.98C464.843 291.346 464.735 291.703 464.532 292.007C464.329 292.311 464.04 292.548 463.702 292.688C463.364 292.828 462.993 292.864 462.634 292.793C462.276 292.722 461.946 292.546 461.688 292.287C461.429 292.029 461.253 291.699 461.182 291.341C461.111 290.982 461.147 290.611 461.287 290.273C461.427 289.935 461.664 289.646 461.968 289.443C462.272 289.24 462.629 289.132 462.995 289.132C463.485 289.132 463.955 289.327 464.302 289.673C464.649 290.02 464.843 290.49 464.843 290.98Z" fill="#252B80"/>
<path d="M469.814 291.372C469.817 291.739 469.711 292.097 469.509 292.403C469.308 292.709 469.02 292.948 468.683 293.09C468.345 293.232 467.973 293.271 467.614 293.201C467.254 293.131 466.923 292.956 466.664 292.698C466.404 292.441 466.226 292.111 466.154 291.752C466.081 291.393 466.117 291.021 466.257 290.682C466.396 290.344 466.633 290.054 466.937 289.851C467.241 289.647 467.599 289.538 467.966 289.538C468.453 289.538 468.921 289.731 469.268 290.074C469.614 290.418 469.81 290.885 469.814 291.372Z" fill="#252B80"/>
<path d="M465.543 420.774L456.175 406.435L386.006 420.774H465.543Z" fill="#080C53"/>
<path d="M409.895 417.973C409.853 417.966 409.815 417.943 409.789 417.909C409.763 417.876 409.751 417.833 409.755 417.791L410.455 413.03C410.463 413.002 410.477 412.976 410.497 412.954C410.516 412.932 410.54 412.915 410.567 412.904C410.616 412.884 410.671 412.884 410.721 412.904L414.684 416.292L415.79 411.825C415.797 411.798 415.811 411.774 415.83 411.754C415.85 411.734 415.875 411.72 415.902 411.713C415.925 411.7 415.952 411.693 415.979 411.693C416.006 411.693 416.033 411.7 416.056 411.713L419.781 415.144L420.229 410.747C420.231 410.721 420.24 410.695 420.254 410.673C420.269 410.651 420.289 410.633 420.313 410.621C420.336 410.608 420.363 410.601 420.39 410.601C420.417 410.601 420.444 410.608 420.467 410.621L425.396 413.954C425.424 413.985 425.439 414.025 425.439 414.066C425.439 414.107 425.424 414.147 425.396 414.178C425.365 414.206 425.325 414.221 425.284 414.221C425.243 414.221 425.203 414.206 425.172 414.178L420.467 410.985L420.019 415.438C420.017 415.467 420.007 415.494 419.99 415.517C419.972 415.539 419.948 415.556 419.921 415.564C419.896 415.581 419.867 415.589 419.837 415.589C419.807 415.589 419.778 415.581 419.753 415.564L415.986 412.092L414.894 416.544C414.887 416.572 414.873 416.596 414.853 416.616C414.834 416.636 414.809 416.65 414.782 416.656C414.732 416.676 414.677 416.676 414.628 416.656L410.693 413.296L410.035 417.777C410.039 417.799 410.038 417.822 410.033 417.843C410.028 417.865 410.019 417.886 410.006 417.904C409.993 417.923 409.976 417.938 409.957 417.95C409.938 417.962 409.917 417.969 409.895 417.973Z" fill="#171C69"/>
<path d="M291.445 202.593C291.41 202.599 291.374 202.593 291.343 202.576C291.312 202.559 291.288 202.531 291.275 202.498C291.262 202.466 291.26 202.429 291.271 202.395C291.281 202.362 291.303 202.332 291.333 202.313L309.102 186.349C309.133 186.322 309.173 186.307 309.214 186.307C309.256 186.307 309.296 186.322 309.326 186.349C309.342 186.364 309.354 186.381 309.362 186.4C309.37 186.42 309.375 186.44 309.375 186.461C309.375 186.482 309.37 186.503 309.362 186.522C309.354 186.542 309.342 186.559 309.326 186.573L291.557 202.551C291.543 202.567 291.526 202.579 291.506 202.586C291.486 202.593 291.465 202.596 291.445 202.593Z" fill="#E6E6E6"/>
<path d="M293.6 215.49C293.583 215.499 293.564 215.503 293.544 215.503C293.525 215.503 293.506 215.499 293.488 215.49C293.461 215.459 293.445 215.42 293.445 215.378C293.445 215.337 293.461 215.297 293.488 215.266L320.626 189.571C320.656 189.541 320.696 189.524 320.738 189.524C320.78 189.524 320.82 189.541 320.85 189.571C320.88 189.601 320.896 189.641 320.896 189.683C320.896 189.725 320.88 189.765 320.85 189.795L293.712 215.448C293.697 215.462 293.68 215.473 293.66 215.481C293.641 215.488 293.621 215.491 293.6 215.49Z" fill="#E6E6E6"/>
<path d="M295.77 217.394C295.73 217.411 295.684 217.411 295.644 217.394C295.629 217.38 295.617 217.363 295.608 217.343C295.6 217.324 295.596 217.303 295.596 217.282C295.596 217.261 295.6 217.241 295.608 217.221C295.617 217.202 295.629 217.185 295.644 217.17L309.087 204.288C309.101 204.272 309.119 204.26 309.138 204.252C309.157 204.244 309.178 204.239 309.199 204.239C309.22 204.239 309.241 204.244 309.26 204.252C309.279 204.26 309.297 204.272 309.311 204.288C309.338 204.318 309.354 204.358 309.354 204.4C309.354 204.441 309.338 204.481 309.311 204.512L295.854 217.394C295.827 217.402 295.798 217.402 295.77 217.394Z" fill="#E6E6E6"/>
<path d="M297.493 219.817H297.367C297.351 219.803 297.339 219.785 297.331 219.766C297.323 219.747 297.318 219.726 297.318 219.705C297.318 219.684 297.323 219.663 297.331 219.644C297.339 219.625 297.351 219.607 297.367 219.593L320.682 196.964C320.695 196.947 320.712 196.933 320.731 196.923C320.75 196.913 320.772 196.908 320.794 196.908C320.815 196.908 320.837 196.913 320.856 196.923C320.876 196.933 320.893 196.947 320.906 196.964C320.921 196.979 320.933 196.996 320.941 197.015C320.95 197.035 320.954 197.055 320.954 197.076C320.954 197.097 320.95 197.118 320.941 197.137C320.933 197.157 320.921 197.174 320.906 197.188L297.493 219.775V219.817Z" fill="#E6E6E6"/>
<path d="M298.977 221.721C298.941 221.735 298.901 221.735 298.865 221.721C298.837 221.69 298.822 221.651 298.822 221.609C298.822 221.568 298.837 221.528 298.865 221.497L326.017 195.368C326.031 195.352 326.049 195.34 326.068 195.332C326.087 195.324 326.108 195.319 326.129 195.319C326.15 195.319 326.171 195.324 326.19 195.332C326.209 195.34 326.226 195.352 326.241 195.368C326.258 195.381 326.272 195.398 326.282 195.417C326.292 195.436 326.297 195.458 326.297 195.48C326.297 195.501 326.292 195.523 326.282 195.542C326.272 195.562 326.258 195.579 326.241 195.592L299.089 221.707C299.055 221.726 299.015 221.731 298.977 221.721Z" fill="#E6E6E6"/>
<path d="M317.811 239.393C317.793 239.402 317.774 239.406 317.755 239.406C317.735 239.406 317.716 239.402 317.699 239.393C317.681 239.38 317.667 239.363 317.657 239.344C317.648 239.325 317.643 239.303 317.643 239.281C317.643 239.26 317.648 239.238 317.657 239.219C317.667 239.199 317.681 239.182 317.699 239.169L326.871 230.039C326.884 230.022 326.9 230.008 326.92 229.998C326.939 229.988 326.961 229.983 326.983 229.983C327.004 229.983 327.026 229.988 327.045 229.998C327.065 230.008 327.082 230.022 327.095 230.039C327.122 230.07 327.137 230.11 327.137 230.151C327.137 230.193 327.122 230.233 327.095 230.263L317.923 239.393C317.905 239.402 317.886 239.406 317.867 239.406C317.847 239.406 317.828 239.402 317.811 239.393Z" fill="#E6E6E6"/>
<path d="M319.688 241.718C319.652 241.732 319.612 241.732 319.576 241.718C319.56 241.703 319.548 241.686 319.54 241.667C319.532 241.647 319.527 241.627 319.527 241.606C319.527 241.585 319.532 241.564 319.54 241.545C319.548 241.525 319.56 241.508 319.576 241.494L334.013 226.791C334.042 226.761 334.083 226.744 334.125 226.744C334.167 226.744 334.207 226.761 334.237 226.791C334.266 226.82 334.283 226.861 334.283 226.903C334.283 226.945 334.266 226.985 334.237 227.015L319.814 241.718H319.688Z" fill="#E6E6E6"/>
<path d="M338.998 224.55C338.131 224.55 337.283 224.293 336.562 223.81C335.841 223.328 335.279 222.643 334.948 221.841C334.616 221.039 334.53 220.157 334.7 219.307C334.871 218.456 335.29 217.675 335.904 217.063C336.518 216.451 337.301 216.034 338.152 215.867C339.003 215.699 339.885 215.788 340.685 216.122C341.486 216.456 342.169 217.02 342.649 217.742C343.129 218.465 343.384 219.314 343.381 220.181C343.381 220.756 343.268 221.325 343.047 221.856C342.827 222.387 342.504 222.869 342.097 223.275C341.689 223.681 341.206 224.003 340.674 224.221C340.143 224.44 339.573 224.552 338.998 224.55ZM338.998 216.75C338.32 216.75 337.656 216.952 337.092 217.329C336.528 217.706 336.088 218.241 335.829 218.868C335.569 219.495 335.501 220.185 335.633 220.85C335.766 221.516 336.092 222.127 336.572 222.607C337.052 223.087 337.663 223.414 338.329 223.546C338.994 223.678 339.684 223.61 340.311 223.351C340.938 223.091 341.474 222.651 341.851 222.087C342.228 221.523 342.429 220.86 342.429 220.181C342.429 219.271 342.067 218.399 341.424 217.755C340.781 217.112 339.908 216.75 338.998 216.75Z" fill="#B2EBF2"/>
<path d="M335.105 255.384C335.862 256.673 336.73 258.073 337.71 259.515C339.234 259.007 340.73 258.418 342.191 257.751C341.169 256.35 340.175 254.838 339.194 253.382C337.868 254.122 336.503 254.79 335.105 255.384Z" fill="#F2F2F2"/>
<path d="M339.95 256.756C339.95 257.014 339.874 257.266 339.731 257.48C339.588 257.694 339.384 257.861 339.146 257.959C338.908 258.058 338.647 258.084 338.394 258.034C338.141 257.983 337.909 257.859 337.727 257.677C337.545 257.495 337.421 257.263 337.371 257.01C337.32 256.758 337.346 256.496 337.445 256.258C337.543 256.02 337.71 255.817 337.924 255.674C338.139 255.53 338.39 255.454 338.648 255.454C338.993 255.454 339.325 255.591 339.569 255.836C339.813 256.08 339.95 256.411 339.95 256.756Z" fill="white"/>
<path d="M179.561 296.791H145.604V419.583H179.561V296.791Z" fill="#396091"/>
<path d="M149.09 296.791H145.604V419.583H149.09V296.791Z" fill="#254E82"/>
<path d="M532.182 297.981H498.225V420.773H532.182V297.981Z" fill="#396091"/>
<path d="M501.403 297.981H498.225V420.773H501.403V297.981Z" fill="#254E82"/>
<path d="M560.357 299.886H117.247C116.842 299.888 116.44 299.809 116.066 299.655C115.691 299.501 115.351 299.274 115.064 298.988C114.778 298.701 114.551 298.361 114.397 297.986C114.243 297.612 114.164 297.21 114.166 296.805C114.166 295.988 114.491 295.205 115.068 294.627C115.646 294.049 116.43 293.725 117.247 293.725H560.357C561.172 293.728 561.954 294.054 562.531 294.631C563.108 295.208 563.434 295.989 563.437 296.805C563.437 297.622 563.113 298.406 562.535 298.984C561.957 299.561 561.174 299.886 560.357 299.886Z" fill="#396091"/>
<path d="M561.617 297.673H115.986C115.747 297.673 115.511 297.626 115.29 297.534C115.069 297.443 114.868 297.309 114.699 297.14C114.53 296.971 114.396 296.77 114.305 296.549C114.213 296.328 114.166 296.092 114.166 295.853V298.065C114.166 298.548 114.358 299.011 114.699 299.352C115.041 299.694 115.504 299.885 115.986 299.885H561.617C562.1 299.885 562.563 299.694 562.904 299.352C563.245 299.011 563.437 298.548 563.437 298.065V295.853C563.437 296.092 563.39 296.328 563.299 296.549C563.207 296.77 563.073 296.971 562.904 297.14C562.735 297.309 562.534 297.443 562.313 297.534C562.093 297.626 561.856 297.673 561.617 297.673Z" fill="#254E82"/>
<path d="M594.986 421.894C594.986 422.187 594.87 422.468 594.662 422.676C594.455 422.883 594.173 423 593.88 423H1.10651C0.832784 422.969 0.579977 422.839 0.396395 422.633C0.212814 422.428 0.111328 422.162 0.111328 421.887C0.111328 421.611 0.212814 421.345 0.396395 421.14C0.579977 420.935 0.832784 420.804 1.10651 420.773H593.88C594.027 420.773 594.172 420.802 594.307 420.859C594.442 420.915 594.564 420.998 594.667 421.102C594.77 421.207 594.851 421.33 594.906 421.466C594.961 421.602 594.988 421.747 594.986 421.894Z" fill="#F3A769"/>
<path d="M186.744 262.61C188.377 266.663 189.058 271.037 188.733 275.395C190.466 271.951 191.584 268.231 192.037 264.402C192.037 264.402 199.333 262.064 199.459 255.314C198.406 257.736 196.6 259.753 194.309 261.067C192.019 262.382 189.366 262.923 186.744 262.61Z" fill="#FEC751"/>
<path d="M176.83 204.75L167.028 206.444L166.426 207.845C169.138 209.221 172.082 210.085 175.108 210.393C175.575 208.481 176.151 206.597 176.83 204.75Z" fill="#F3417D"/>
<path d="M166.468 207.803L159.242 224.004C159.242 224.004 176.172 234.576 174.267 225.558C173.203 220.475 174.127 214.622 175.15 210.421C172.119 210.091 169.176 209.203 166.468 207.803Z" fill="#FF7BA9"/>
<path d="M176.83 186.979C176.83 186.979 184.209 201.15 181.885 204.959C179.56 208.768 165.865 209.398 165.865 209.398C165.865 209.398 147.661 190.788 176.83 186.979Z" fill="#FF7BA9"/>
<path d="M141.206 235.444L138.098 229.171C138.098 229.171 135.129 265.887 143.601 278.573C146.033 282.117 149.193 285.101 152.871 287.325C144.986 271.179 140.991 253.411 141.206 235.444Z" fill="#FEE952"/>
<path d="M141.206 235.444C140.99 253.411 144.985 271.179 152.87 287.325C158.177 290.535 164.046 292.707 170.164 293.725L141.206 235.444Z" fill="#FEC751"/>
<path d="M248.482 326.001L240.374 325.119L168.035 420.773H190.566C200.368 403.732 209.162 386.48 219.748 369.214C228.878 354.091 238.274 339.64 248.482 326.001Z" fill="#C71450"/>
<path d="M219.749 369.214C209.162 386.48 200.298 403.731 190.566 420.773H225.882L254.896 326.701L248.483 326.001C238.275 339.64 228.879 354.091 219.749 369.214Z" fill="#D62B64"/>
<path d="M176.801 220.349L169.8 218.501L161.986 221.134C166.905 222.216 172.025 221.945 176.801 220.349Z" fill="#FF7BA9"/>
<path d="M193.171 226.356C192.88 225.751 192.461 225.217 191.944 224.789C191.427 224.362 190.823 224.051 190.175 223.877L176.802 220.349C172.034 221.94 166.924 222.211 162.015 221.133L138.098 229.171L191.407 248.327L196.812 265.382C200.385 262.466 204.73 260.655 209.317 260.173L193.171 226.356Z" fill="#FEE952"/>
<path d="M209.372 260.3V260.174C204.786 260.656 200.44 262.467 196.867 265.383L197.259 266.629C200.468 263.215 204.737 260.985 209.372 260.3Z" fill="#F3417D"/>
<path d="M219.076 280.688L209.274 260.3C204.619 260.973 200.329 263.204 197.105 266.629L204.625 290.434C204.934 291.402 205.543 292.247 206.363 292.846C207.184 293.445 208.174 293.767 209.19 293.767H244.099L219.076 280.688Z" fill="#FF7BA9"/>
<path d="M209.274 293.725H244.183L241.719 292.45L211.444 288.936L201.012 263.366C199.591 264.247 198.308 265.332 197.203 266.587L204.723 290.392C205.031 291.358 205.638 292.201 206.455 292.799C207.273 293.398 208.26 293.722 209.274 293.725Z" fill="#F3417D"/>
<path d="M168.049 420.773L179.727 405.328L226.959 420.773H168.049Z" fill="#FEC751"/>
<path d="M272.105 313.371L206.95 305.375C206.329 311.062 203.922 316.405 200.074 320.638C219.104 324.447 239.731 325.721 258.775 321.282C257.729 322.688 256.793 324.172 255.974 325.721C244.412 356.322 236.698 388.242 233.009 420.745H264.152L272.105 313.371Z" fill="#D62B64"/>
<path d="M258.774 321.311C239.73 325.75 219.104 324.475 200.074 320.667C203.922 316.434 206.329 311.09 206.949 305.403L205.549 305.235C205.549 305.235 154.004 332.135 175.289 333.997C196.573 335.86 244.169 331.673 244.169 331.673L208.924 420.774H232.925C236.613 388.27 244.328 356.351 255.89 325.75C256.736 324.198 257.7 322.714 258.774 321.311Z" fill="#C71450"/>
<path d="M189.068 288.725C183.467 286.051 186.001 281.416 188.732 275.394C189.057 271.037 188.377 266.663 186.744 262.61C189.366 262.922 192.019 262.381 194.309 261.067C196.599 259.753 198.405 257.735 199.458 255.314C199.458 255.076 199.458 254.824 199.458 254.586C199.024 247.262 164.549 222.281 138.111 229.17C138.111 229.17 142.186 255.314 156.441 274.974C157.627 276.633 158.694 278.374 159.634 280.183C175.037 284.93 187.36 296.987 194.375 311.788C198.358 310.037 202.044 307.675 205.298 304.786C203.785 302.574 196.756 292.394 189.068 288.725Z" fill="#FEE952"/>
<path d="M276.391 420.773H208.967L209.429 419.611L209.555 419.303L214.792 406.042L236.875 411.321L239.969 412.063L244.198 413.071L247.279 413.814H247.293L270.202 419.303L271.518 419.611L276.391 420.773Z" fill="#FEC751"/>
<path d="M271.517 419.611H209.428L209.554 419.303H270.201L271.517 419.611Z" fill="#C71450"/>
<path d="M239.969 412.063L234.032 419.303L233.78 419.611L232.814 420.773H229.131L230.083 419.611L230.349 419.303L236.874 411.321L239.969 412.063Z" fill="#C71450"/>
<path d="M241.58 420.774L242.532 419.612L242.798 419.304L247.279 413.814L244.198 413.072L239.101 419.304L238.835 419.612L237.883 420.774H241.58Z" fill="#C71450"/>
<path d="M162.21 226.328C161.328 229.236 160.677 232.209 160.264 235.22C160.04 236.718 159.871 238.231 159.773 239.729C159.773 240.485 159.689 241.227 159.661 241.983C159.633 242.74 159.661 243.482 159.661 244.238C159.688 247.229 159.998 250.211 160.586 253.144C160.754 253.858 160.88 254.544 161.09 255.314L161.37 256.378L161.706 257.443C161.916 258.157 162.196 258.843 162.434 259.543C162.56 259.893 162.714 260.229 162.854 260.579C162.994 260.929 163.134 261.266 163.288 261.602L163.764 262.596L164.002 263.1L164.268 263.59L165.347 265.578C166.061 266.979 166.831 268.309 167.447 269.779C167.755 270.479 168.105 271.18 168.385 271.908L169.225 274.078C169.52 274.792 169.73 275.479 169.968 276.277C170.206 277.075 170.458 277.761 170.626 278.517C171.456 281.508 171.967 284.577 172.152 287.675C172.152 288.445 172.152 289.215 172.152 289.986V291.148V291.722V292.296C172.061 293.834 171.812 295.359 171.41 296.847C171.578 295.336 171.62 293.814 171.536 292.296V291.722V291.162L171.452 290.028C171.368 289.271 171.284 288.529 171.172 287.773C171.06 287.017 170.948 286.289 170.794 285.547C170.64 284.804 170.486 284.076 170.318 283.348C170.15 282.62 169.926 281.948 169.744 281.164C169.562 280.38 169.295 279.763 169.071 279.007C168.129 276.154 166.987 273.369 165.655 270.676C165.305 270.017 165.011 269.275 164.632 268.673L163.54 266.699L162.434 264.668L162.154 264.15L161.888 263.618L161.384 262.554C160.094 259.685 159.153 256.671 158.583 253.578C158.318 252.034 158.136 250.478 158.037 248.915C158.037 248.523 158.037 248.145 158.037 247.753C158.037 247.361 158.037 246.968 158.037 246.576C158.037 245.806 158.037 245.022 158.037 244.252C158.169 241.156 158.601 238.079 159.325 235.066C159.963 232.056 160.93 229.126 162.21 226.328Z" fill="#FEC751"/>
<path d="M159.619 280.17C170.247 300.502 168.021 331.659 168.021 331.659C168.021 331.659 193.226 322.347 205.563 305.221L205.269 304.759C202.015 307.648 198.33 310.01 194.346 311.761C187.345 296.973 175.008 284.931 159.619 280.17Z" fill="#FEC751"/>
<path d="M170.249 195.018C170.249 195.018 184.252 189.948 186.03 180.847C187.808 171.745 168.554 159.268 157.562 186.98C157.562 186.98 142.957 188.254 145.715 204.96C140.665 207.6 136.32 211.411 133.044 216.073C129.767 220.736 127.654 226.115 126.881 231.761C123.717 251.716 162.267 268.393 170.669 237.545C176.83 214.902 170.039 197.972 170.039 197.972C170.039 197.972 165.544 199.681 165.838 195.172C166.132 190.663 170.249 195.018 170.249 195.018Z" fill="#252B80"/>
<path d="M174.352 190.551C174.334 190.56 174.315 190.564 174.296 190.564C174.276 190.564 174.257 190.56 174.24 190.551C174.224 190.537 174.212 190.519 174.204 190.5C174.196 190.481 174.191 190.46 174.191 190.439C174.191 190.418 174.196 190.397 174.204 190.378C174.212 190.359 174.224 190.341 174.24 190.327C176.457 188.249 178.148 185.673 179.17 182.812C180.193 179.95 180.519 176.886 180.121 173.873C180.117 173.852 180.117 173.83 180.123 173.809C180.128 173.788 180.137 173.768 180.15 173.751C180.163 173.734 180.18 173.72 180.199 173.709C180.218 173.699 180.239 173.693 180.261 173.691C180.281 173.687 180.302 173.687 180.322 173.692C180.343 173.696 180.362 173.704 180.379 173.716C180.396 173.728 180.41 173.743 180.421 173.76C180.432 173.778 180.44 173.797 180.443 173.817C180.844 176.893 180.51 180.019 179.469 182.94C178.427 185.862 176.707 188.494 174.45 190.621C174.43 190.617 174.41 190.608 174.394 190.596C174.377 190.584 174.363 190.569 174.352 190.551Z" fill="#171C69"/>
<path d="M162.742 203.223C162.722 203.225 162.703 203.223 162.684 203.217C162.665 203.211 162.648 203.201 162.634 203.187C162.619 203.174 162.608 203.158 162.6 203.14C162.592 203.122 162.588 203.103 162.588 203.083C162.112 199.526 161.762 195.465 163.568 192.161C164.909 190.015 166.713 188.197 168.847 186.84L169.589 186.308C171.417 185.134 173.08 183.722 174.532 182.107C175.358 181.196 175.947 180.097 176.247 178.905C176.548 177.713 176.55 176.466 176.255 175.273C176.248 175.254 176.246 175.233 176.247 175.213C176.248 175.193 176.254 175.173 176.263 175.155C176.272 175.136 176.285 175.12 176.3 175.107C176.316 175.094 176.333 175.083 176.353 175.077C176.394 175.063 176.438 175.066 176.477 175.084C176.517 175.102 176.547 175.135 176.563 175.175C176.87 176.418 176.868 177.717 176.558 178.96C176.248 180.202 175.639 181.349 174.785 182.303C173.315 183.951 171.629 185.393 169.771 186.588L169.029 187.12C166.933 188.455 165.158 190.239 163.834 192.343C162.084 195.563 162.434 199.568 162.896 203.069C162.9 203.112 162.888 203.154 162.862 203.188C162.836 203.222 162.798 203.244 162.756 203.251L162.742 203.223Z" fill="#171C69"/>
<path d="M150.601 203.517C150.58 203.519 150.559 203.517 150.538 203.51C150.518 203.503 150.499 203.492 150.483 203.478C150.468 203.463 150.455 203.445 150.446 203.426C150.438 203.406 150.433 203.385 150.433 203.363C150.397 200.982 150.926 198.625 151.978 196.488C153.03 194.351 154.574 192.493 156.483 191.069C157.631 190.267 158.833 189.547 160.081 188.912C161.145 188.372 162.178 187.773 163.176 187.12C167.223 184.319 170.304 179.67 172.334 173.117C172.34 173.098 172.35 173.08 172.364 173.064C172.377 173.049 172.393 173.036 172.412 173.027C172.43 173.018 172.45 173.012 172.47 173.011C172.49 173.01 172.511 173.012 172.53 173.019C172.551 173.024 172.57 173.033 172.587 173.045C172.604 173.058 172.618 173.074 172.629 173.093C172.639 173.111 172.646 173.131 172.648 173.152C172.651 173.173 172.648 173.195 172.642 173.215C170.584 179.768 167.461 184.515 163.358 187.316C162.35 187.988 161.272 188.562 160.221 189.122C158.987 189.748 157.799 190.459 156.665 191.251C154.798 192.648 153.289 194.468 152.261 196.561C151.234 198.655 150.718 200.962 150.755 203.293C150.755 203.334 150.739 203.373 150.71 203.402C150.681 203.431 150.642 203.447 150.601 203.447V203.517Z" fill="#171C69"/>
<path d="M141.234 243.986C141.214 243.996 141.192 244.001 141.171 244.001C141.149 244.001 141.127 243.996 141.108 243.986C137.895 239.242 136.581 233.465 137.426 227.798C138.272 222.131 141.215 216.989 145.673 213.39C146.625 212.633 147.647 211.989 148.627 211.247C150.4 210.142 152.032 208.826 153.486 207.326C157.057 203.321 157.687 197.524 157.967 193.029C157.977 192.995 157.999 192.964 158.028 192.942C158.057 192.921 158.092 192.909 158.128 192.909C158.164 192.909 158.2 192.921 158.229 192.942C158.258 192.964 158.279 192.995 158.289 193.029C158.079 197.636 157.365 203.447 153.724 207.522C152.252 209.041 150.602 210.376 148.809 211.499C147.829 212.171 146.807 212.899 145.869 213.628C141.488 217.18 138.597 222.243 137.765 227.821C136.933 233.399 138.221 239.086 141.374 243.762C141.401 243.793 141.416 243.833 141.416 243.874C141.416 243.915 141.401 243.955 141.374 243.986H141.234Z" fill="#171C69"/>
<path d="M135.172 244.546C135.152 244.556 135.13 244.561 135.109 244.561C135.087 244.561 135.065 244.556 135.046 244.546C132.716 241.356 131.236 237.626 130.746 233.706C130.256 229.786 130.772 225.806 132.245 222.141C133.918 218.557 136.051 215.205 138.588 212.171C138.614 212.138 138.652 212.116 138.694 212.111C138.736 212.105 138.779 212.117 138.812 212.143C138.846 212.169 138.867 212.207 138.873 212.249C138.878 212.291 138.866 212.334 138.84 212.367C136.323 215.377 134.205 218.7 132.539 222.253C131.089 225.856 130.577 229.767 131.049 233.622C131.522 237.476 132.964 241.148 135.242 244.294C135.257 244.308 135.269 244.326 135.277 244.345C135.286 244.364 135.29 244.385 135.29 244.406C135.29 244.427 135.286 244.448 135.277 244.467C135.269 244.486 135.257 244.503 135.242 244.518C135.221 244.533 135.197 244.543 135.172 244.546Z" fill="#171C69"/>
<path d="M151.862 246.562C151.833 246.563 151.805 246.555 151.78 246.54C151.755 246.526 151.735 246.504 151.722 246.478C149.525 241.479 148.937 235.919 150.042 230.571C151.153 225.272 153.085 220.178 155.769 215.476C155.951 215.154 156.119 214.832 156.287 214.51C158.429 210.561 160.642 206.472 160.264 202.089C160.26 202.068 160.26 202.046 160.265 202.025C160.27 202.004 160.28 201.984 160.293 201.967C160.306 201.949 160.323 201.935 160.342 201.925C160.361 201.915 160.382 201.908 160.404 201.907C160.426 201.905 160.448 201.907 160.469 201.914C160.49 201.921 160.51 201.932 160.527 201.946C160.544 201.96 160.558 201.978 160.568 201.998C160.578 202.017 160.584 202.039 160.586 202.061C160.964 206.528 158.723 210.659 156.567 214.664C156.399 214.986 156.231 215.308 156.049 215.616C153.419 220.309 151.534 225.383 150.462 230.655C149.374 235.937 149.952 241.426 152.114 246.366C152.141 246.395 152.155 246.432 152.155 246.471C152.155 246.51 152.141 246.548 152.114 246.576L151.862 246.562Z" fill="#171C69"/>
<path d="M159.871 244.728H159.787C159.759 244.697 159.744 244.657 159.744 244.616C159.744 244.575 159.759 244.535 159.787 244.504C163.746 237.943 166.307 230.635 167.312 223.037C168.317 215.44 167.743 207.718 165.626 200.353C165.62 200.332 165.618 200.311 165.62 200.29C165.622 200.269 165.629 200.249 165.639 200.23C165.65 200.212 165.664 200.196 165.681 200.183C165.698 200.17 165.718 200.161 165.738 200.157C165.757 200.15 165.778 200.147 165.798 200.149C165.819 200.15 165.838 200.156 165.857 200.165C165.875 200.174 165.891 200.186 165.904 200.202C165.918 200.217 165.928 200.235 165.934 200.255C168.051 207.664 168.617 215.431 167.595 223.069C166.574 230.707 163.987 238.051 159.997 244.644C159.984 244.667 159.966 244.687 159.944 244.701C159.922 244.716 159.897 244.725 159.871 244.728Z" fill="#171C69"/>
<path d="M178.957 193.645C179.111 194.248 178.957 194.808 178.719 194.878C178.481 194.948 178.075 194.514 177.921 193.912C177.767 193.309 177.921 192.749 178.159 192.679C178.397 192.609 178.803 193.043 178.957 193.645Z" fill="#171C69"/>
<path d="M181.157 198.868C181.157 198.868 180.722 200.577 179.49 200.857C179.49 200.857 180.596 203.811 180.989 203.223C181.238 201.785 181.294 200.321 181.157 198.868Z" fill="#DEFCFF"/>
<path d="M188.438 239.659L191.406 248.327L196.811 265.383C198.04 264.345 199.384 263.453 200.816 262.722L188.438 239.659Z" fill="#FEC751"/>
<path d="M142.437 268.155C143.118 268.155 143.67 267.603 143.67 266.923C143.67 266.242 143.118 265.69 142.437 265.69C141.757 265.69 141.205 266.242 141.205 266.923C141.205 267.603 141.757 268.155 142.437 268.155Z" fill="#FEC751"/>
<path d="M165.123 266.923C165.123 267.167 165.05 267.406 164.914 267.609C164.778 267.812 164.585 267.97 164.359 268.063C164.133 268.155 163.884 268.179 163.645 268.13C163.405 268.082 163.186 267.963 163.014 267.789C162.842 267.615 162.726 267.394 162.68 267.154C162.634 266.915 162.661 266.666 162.756 266.441C162.851 266.217 163.012 266.025 163.216 265.891C163.421 265.758 163.66 265.688 163.904 265.691C164.066 265.69 164.225 265.722 164.374 265.785C164.523 265.847 164.658 265.938 164.771 266.052C164.884 266.167 164.974 266.303 165.034 266.452C165.094 266.602 165.125 266.762 165.123 266.923Z" fill="#FEC751"/>
<path d="M152.871 267.721C152.873 267.965 152.804 268.205 152.67 268.41C152.536 268.614 152.345 268.774 152.12 268.87C151.895 268.965 151.647 268.991 151.407 268.945C151.167 268.9 150.946 268.783 150.772 268.612C150.598 268.44 150.48 268.22 150.431 267.981C150.382 267.741 150.406 267.493 150.499 267.267C150.592 267.041 150.749 266.848 150.952 266.712C151.155 266.576 151.394 266.503 151.638 266.503C151.963 266.503 152.274 266.631 152.505 266.859C152.736 267.087 152.867 267.397 152.871 267.721Z" fill="#FEC751"/>
<path d="M154.089 258.241C154.092 258.486 154.022 258.726 153.888 258.931C153.753 259.135 153.561 259.296 153.335 259.391C153.11 259.486 152.861 259.511 152.62 259.464C152.38 259.417 152.159 259.299 151.986 259.126C151.813 258.953 151.695 258.732 151.648 258.492C151.601 258.251 151.626 258.002 151.721 257.777C151.816 257.551 151.977 257.359 152.181 257.224C152.386 257.09 152.626 257.02 152.871 257.023C153.194 257.023 153.504 257.151 153.733 257.379C153.961 257.608 154.089 257.918 154.089 258.241Z" fill="#FEC751"/>
<path d="M177.445 223.681C178.126 223.681 178.677 223.13 178.677 222.449C178.677 221.769 178.126 221.217 177.445 221.217C176.765 221.217 176.213 221.769 176.213 222.449C176.213 223.13 176.765 223.681 177.445 223.681Z" fill="#FEC751"/>
<path d="M185.049 237.362C185.049 237.606 184.976 237.844 184.841 238.047C184.705 238.249 184.513 238.407 184.288 238.501C184.063 238.594 183.815 238.618 183.576 238.571C183.337 238.523 183.117 238.406 182.945 238.234C182.773 238.061 182.655 237.842 182.608 237.603C182.56 237.364 182.585 237.116 182.678 236.891C182.771 236.665 182.929 236.473 183.132 236.338C183.334 236.202 183.573 236.13 183.816 236.13C183.979 236.128 184.14 236.159 184.29 236.22C184.44 236.281 184.577 236.372 184.692 236.487C184.807 236.602 184.897 236.738 184.959 236.888C185.02 237.039 185.05 237.2 185.049 237.362Z" fill="#FEC751"/>
<path d="M186.281 252.528C186.281 252.772 186.209 253.01 186.073 253.213C185.938 253.415 185.745 253.573 185.52 253.667C185.295 253.76 185.047 253.784 184.808 253.737C184.569 253.689 184.35 253.572 184.177 253.399C184.005 253.227 183.888 253.008 183.84 252.769C183.793 252.53 183.817 252.282 183.91 252.057C184.003 251.831 184.161 251.639 184.364 251.504C184.567 251.368 184.805 251.296 185.049 251.296C185.375 251.296 185.689 251.426 185.92 251.657C186.151 251.888 186.281 252.201 186.281 252.528Z" fill="#FEC751"/>
<path d="M185.049 287.886C185.049 288.129 184.976 288.368 184.841 288.57C184.705 288.773 184.513 288.931 184.288 289.024C184.063 289.117 183.815 289.142 183.576 289.094C183.337 289.047 183.117 288.929 182.945 288.757C182.773 288.585 182.655 288.365 182.608 288.126C182.56 287.887 182.585 287.639 182.678 287.414C182.771 287.189 182.929 286.996 183.132 286.861C183.334 286.726 183.573 286.653 183.816 286.653C183.979 286.652 184.14 286.682 184.29 286.743C184.44 286.805 184.577 286.895 184.692 287.01C184.807 287.125 184.897 287.262 184.959 287.412C185.02 287.562 185.05 287.723 185.049 287.886Z" fill="#FEC751"/>
<path d="M191.406 303.47C191.409 303.715 191.339 303.954 191.205 304.159C191.071 304.363 190.88 304.523 190.655 304.619C190.43 304.714 190.182 304.74 189.942 304.694C189.702 304.649 189.481 304.532 189.307 304.361C189.134 304.189 189.015 303.969 188.966 303.73C188.917 303.49 188.941 303.242 189.034 303.016C189.127 302.79 189.285 302.597 189.488 302.461C189.69 302.325 189.929 302.252 190.174 302.252C190.498 302.252 190.809 302.38 191.04 302.608C191.271 302.836 191.402 303.146 191.406 303.47Z" fill="#FEC751"/>
<path d="M183.816 273.504C183.816 273.748 183.743 273.987 183.607 274.19C183.471 274.393 183.278 274.551 183.052 274.644C182.826 274.736 182.578 274.76 182.338 274.711C182.099 274.663 181.879 274.544 181.708 274.37C181.536 274.196 181.42 273.975 181.374 273.736C181.328 273.496 181.354 273.247 181.449 273.022C181.545 272.798 181.705 272.606 181.909 272.472C182.114 272.339 182.354 272.269 182.598 272.272C182.759 272.272 182.919 272.304 183.067 272.366C183.216 272.428 183.351 272.519 183.464 272.633C183.578 272.748 183.667 272.884 183.727 273.033C183.788 273.183 183.818 273.343 183.816 273.504Z" fill="#FEC751"/>
<path d="M195.103 294.579C195.103 294.823 195.031 295.061 194.896 295.264C194.76 295.466 194.568 295.624 194.343 295.717C194.117 295.811 193.87 295.835 193.631 295.788C193.392 295.74 193.172 295.623 193 295.45C192.827 295.278 192.71 295.058 192.662 294.819C192.615 294.58 192.639 294.333 192.732 294.107C192.826 293.882 192.984 293.69 193.186 293.554C193.389 293.419 193.627 293.347 193.871 293.347C194.033 293.345 194.194 293.375 194.345 293.437C194.495 293.498 194.632 293.589 194.746 293.704C194.861 293.818 194.952 293.955 195.013 294.105C195.075 294.256 195.105 294.417 195.103 294.579Z" fill="#FEC751"/>
<path d="M204.318 304.045C204.321 304.289 204.251 304.528 204.117 304.733C203.983 304.937 203.792 305.098 203.567 305.193C203.342 305.288 203.094 305.315 202.854 305.269C202.614 305.223 202.393 305.107 202.219 304.935C202.046 304.763 201.927 304.544 201.878 304.304C201.83 304.065 201.853 303.816 201.946 303.59C202.039 303.364 202.197 303.171 202.4 303.035C202.603 302.899 202.841 302.826 203.086 302.826C203.247 302.824 203.407 302.855 203.556 302.915C203.706 302.975 203.842 303.065 203.956 303.178C204.071 303.291 204.162 303.426 204.224 303.575C204.286 303.724 204.318 303.883 204.318 304.045Z" fill="#FEC751"/>
<path d="M176.367 247.823C176.367 248.067 176.294 248.306 176.158 248.509C176.022 248.712 175.829 248.87 175.603 248.963C175.377 249.056 175.128 249.079 174.889 249.031C174.65 248.982 174.43 248.863 174.258 248.689C174.087 248.516 173.97 248.295 173.924 248.055C173.878 247.815 173.905 247.567 174 247.342C174.096 247.117 174.256 246.925 174.46 246.792C174.665 246.658 174.904 246.588 175.149 246.591C175.473 246.595 175.783 246.726 176.011 246.957C176.239 247.187 176.367 247.499 176.367 247.823Z" fill="#FEC751"/>
<path d="M176.927 262.316C176.93 262.561 176.86 262.801 176.726 263.006C176.591 263.211 176.399 263.371 176.173 263.466C175.947 263.561 175.699 263.586 175.458 263.539C175.218 263.492 174.997 263.374 174.824 263.201C174.651 263.028 174.533 262.807 174.486 262.567C174.439 262.327 174.464 262.078 174.559 261.852C174.654 261.626 174.814 261.434 175.019 261.3C175.224 261.165 175.464 261.095 175.709 261.098C175.869 261.098 176.027 261.129 176.175 261.19C176.323 261.252 176.457 261.341 176.571 261.455C176.684 261.568 176.773 261.702 176.835 261.85C176.896 261.998 176.927 262.156 176.927 262.316Z" fill="#FEC751"/>
<path d="M165.137 255.818C165.817 255.818 166.369 255.266 166.369 254.586C166.369 253.905 165.817 253.354 165.137 253.354C164.456 253.354 163.904 253.905 163.904 254.586C163.904 255.266 164.456 255.818 165.137 255.818Z" fill="#FEC751"/>
<path d="M175.668 232.881C175.67 233.126 175.6 233.365 175.467 233.57C175.333 233.774 175.142 233.934 174.917 234.03C174.692 234.125 174.444 234.152 174.204 234.106C173.964 234.06 173.743 233.943 173.569 233.772C173.395 233.6 173.277 233.38 173.228 233.141C173.179 232.902 173.203 232.653 173.296 232.427C173.388 232.201 173.546 232.008 173.749 231.872C173.952 231.736 174.191 231.663 174.435 231.663C174.76 231.663 175.071 231.791 175.302 232.019C175.532 232.247 175.664 232.557 175.668 232.881Z" fill="#FEC751"/>
<path d="M188.437 225.559C188.437 225.802 188.365 226.04 188.23 226.243C188.094 226.446 187.902 226.604 187.676 226.697C187.451 226.79 187.204 226.815 186.965 226.767C186.725 226.72 186.506 226.602 186.334 226.43C186.161 226.258 186.044 226.038 185.996 225.799C185.949 225.56 185.973 225.312 186.066 225.087C186.16 224.862 186.318 224.669 186.52 224.534C186.723 224.399 186.961 224.326 187.205 224.326C187.367 224.324 187.528 224.355 187.679 224.416C187.829 224.477 187.966 224.568 188.08 224.683C188.195 224.798 188.286 224.934 188.347 225.085C188.408 225.235 188.439 225.396 188.437 225.559Z" fill="#FEC751"/>
<path d="M195.103 249.363C195.103 249.607 195.031 249.845 194.896 250.048C194.76 250.25 194.568 250.408 194.343 250.502C194.117 250.595 193.87 250.619 193.631 250.572C193.392 250.524 193.172 250.407 193 250.234C192.827 250.062 192.71 249.843 192.662 249.604C192.615 249.364 192.639 249.117 192.732 248.892C192.826 248.666 192.984 248.474 193.186 248.339C193.389 248.203 193.627 248.131 193.871 248.131C194.198 248.131 194.511 248.261 194.742 248.492C194.973 248.723 195.103 249.036 195.103 249.363Z" fill="#FEC751"/>
<path d="M195.859 237.363C196.54 237.363 197.091 236.811 197.091 236.131C197.091 235.45 196.54 234.898 195.859 234.898C195.179 234.898 194.627 235.45 194.627 236.131C194.627 236.811 195.179 237.363 195.859 237.363Z" fill="#FEC751"/>
<path d="M201.306 260.3C201.306 260.543 201.234 260.782 201.099 260.984C200.963 261.187 200.771 261.345 200.546 261.438C200.32 261.531 200.073 261.556 199.834 261.508C199.595 261.461 199.375 261.343 199.203 261.171C199.03 260.999 198.913 260.779 198.865 260.54C198.818 260.301 198.842 260.053 198.936 259.828C199.029 259.603 199.187 259.41 199.389 259.275C199.592 259.14 199.83 259.067 200.074 259.067C200.401 259.067 200.714 259.197 200.945 259.428C201.176 259.659 201.306 259.973 201.306 260.3Z" fill="#FEC751"/>
<path d="M204.318 250.68C204.318 250.923 204.246 251.162 204.11 251.364C203.975 251.567 203.783 251.725 203.557 251.818C203.332 251.911 203.084 251.936 202.845 251.888C202.606 251.841 202.387 251.723 202.214 251.551C202.042 251.379 201.925 251.159 201.877 250.92C201.83 250.681 201.854 250.433 201.947 250.208C202.041 249.983 202.199 249.79 202.401 249.655C202.604 249.52 202.842 249.447 203.086 249.447C203.248 249.445 203.409 249.476 203.56 249.537C203.71 249.599 203.847 249.689 203.961 249.804C204.076 249.919 204.167 250.055 204.228 250.206C204.289 250.356 204.32 250.517 204.318 250.68Z" fill="#FEC751"/>
<path d="M140.744 256.28C140.485 256.48 140.158 256.57 139.833 256.531C139.508 256.492 139.212 256.326 139.008 256.07C138.858 255.878 138.769 255.646 138.751 255.403C138.734 255.161 138.788 254.918 138.908 254.706C139.028 254.495 139.208 254.323 139.425 254.213C139.642 254.104 139.887 254.061 140.128 254.09C140.37 254.119 140.597 254.219 140.782 254.378C140.967 254.536 141.101 254.745 141.167 254.98C141.232 255.214 141.227 255.462 141.152 255.694C141.077 255.925 140.935 256.129 140.744 256.28Z" fill="#FEC751"/>
<path d="M190.019 352.719H185.734V412.693H190.019V352.719Z" fill="#252B80"/>
<path d="M187.317 352.719H185.734V412.693H187.317V352.719Z" fill="#161C73"/>
<path d="M176.535 335.579H199.136V348.784C199.136 351.291 198.14 353.695 196.368 355.467C194.595 357.24 192.191 358.236 189.684 358.236H185.987C183.48 358.236 181.076 357.24 179.304 355.467C177.531 353.695 176.535 351.291 176.535 348.784V335.635V335.579Z" fill="#252B80"/>
<path d="M196.994 355.968H178.678C178.396 355.969 178.116 355.915 177.856 355.808C177.595 355.701 177.358 355.544 177.159 355.344C176.959 355.145 176.802 354.908 176.694 354.647C176.587 354.386 176.533 354.107 176.535 353.825V356.052C176.535 356.62 176.761 357.165 177.163 357.567C177.564 357.968 178.109 358.194 178.678 358.194H196.994C197.562 358.194 198.107 357.968 198.508 357.567C198.91 357.165 199.136 356.62 199.136 356.052V353.825C199.138 354.107 199.084 354.386 198.977 354.647C198.87 354.908 198.712 355.145 198.513 355.344C198.313 355.544 198.076 355.701 197.816 355.808C197.555 355.915 197.275 355.969 196.994 355.968Z" fill="#161C73"/>
<path d="M223.501 420.773H152.422L187.961 403.018L223.501 420.773Z" fill="#161C73"/>
<path d="M158.206 278.77C159.986 275.365 162.485 272.389 165.53 270.046H138.35C137.926 270.058 137.51 270.167 137.134 270.363C136.758 270.56 136.431 270.839 136.179 271.181C135.927 271.522 135.756 271.916 135.678 272.333C135.6 272.75 135.619 273.18 135.731 273.589L154.803 335.566H186.744C180.163 327.416 171.649 320.541 164.871 311.761C157.576 302.575 153.137 290.21 158.206 278.77Z" fill="#161C73"/>
<path d="M176.032 271.964C175.847 271.417 175.498 270.94 175.031 270.599C174.565 270.258 174.005 270.07 173.427 270.06H165.53C162.485 272.402 159.986 275.379 158.206 278.783C153.137 290.21 157.576 302.588 164.871 311.788C171.649 320.554 180.163 327.43 186.744 335.593H196.546L176.032 271.964Z" fill="#252B80"/>
<path d="M170.864 271.768C171.443 271.764 172.008 271.946 172.477 272.286C172.945 272.626 173.293 273.107 173.469 273.658L193.395 335.537H196.518L176.031 271.922C175.847 271.375 175.497 270.898 175.031 270.557C174.565 270.216 174.004 270.028 173.427 270.018H138.349C137.797 270.016 137.257 270.182 136.802 270.495C136.346 270.808 135.997 271.252 135.801 271.768H170.864Z" fill="#161C73"/>
<path d="M219.581 338.436H155.279C154.536 338.436 153.824 338.141 153.299 337.616C152.774 337.091 152.479 336.378 152.479 335.636C152.479 334.893 152.774 334.18 153.299 333.655C153.824 333.13 154.536 332.835 155.279 332.835H219.581C220.323 332.835 221.036 333.13 221.561 333.655C222.086 334.18 222.381 334.893 222.381 335.636C222.381 336.378 222.086 337.091 221.561 337.616C221.036 338.141 220.323 338.436 219.581 338.436Z" fill="#252B80"/>
<path d="M219.58 336.182H155.279C154.715 336.189 154.162 336.026 153.692 335.714C153.222 335.401 152.858 334.955 152.646 334.432C152.493 334.78 152.416 335.157 152.422 335.538C152.422 336.281 152.717 336.993 153.242 337.518C153.768 338.043 154.48 338.338 155.223 338.338H219.524C220.267 338.338 220.979 338.043 221.505 337.518C222.03 336.993 222.325 336.281 222.325 335.538C222.324 335.158 222.248 334.782 222.101 334.432C221.889 334.932 221.54 335.362 221.094 335.672C220.648 335.982 220.123 336.159 219.58 336.182Z" fill="#161C73"/>
<path d="M296.414 290.7L314.506 264.612H337.779L321.269 290.7H296.414Z" fill="white"/>
<path d="M330.582 293.724H291.443C291.442 292.929 291.597 292.142 291.9 291.407C292.203 290.672 292.649 290.005 293.211 289.442C293.773 288.88 294.441 288.435 295.176 288.132C295.91 287.828 296.698 287.673 297.493 287.675H324.518C325.314 287.673 326.102 287.828 326.838 288.131C327.573 288.434 328.242 288.88 328.805 289.442C329.368 290.004 329.815 290.671 330.12 291.406C330.425 292.141 330.582 292.929 330.582 293.724Z" fill="#D62B64"/>
<path d="M297.494 287.675H294.693C293.865 287.675 293.071 288.004 292.485 288.589C291.899 289.175 291.57 289.969 291.57 290.797V293.724H294.371V290.797C294.371 289.969 294.7 289.175 295.286 288.589C295.871 288.004 296.665 287.675 297.494 287.675Z" fill="#C71450"/>
<path d="M565.131 223.92H501.362C497.24 223.92 493.898 227.261 493.898 231.384V267.875C493.898 271.997 497.24 275.339 501.362 275.339H565.131C569.253 275.339 572.595 271.997 572.595 267.875V231.384C572.595 227.261 569.253 223.92 565.131 223.92Z" fill="#252B80"/>
<path d="M495.789 273.644V225.558C495.789 225.108 495.968 224.677 496.285 224.36C496.603 224.042 497.034 223.863 497.484 223.863H495.579C495.13 223.863 494.699 224.042 494.381 224.36C494.063 224.677 493.885 225.108 493.885 225.558V273.588C493.885 274.037 494.063 274.468 494.381 274.786C494.699 275.104 495.13 275.282 495.579 275.282H497.484C497.044 275.282 496.621 275.112 496.305 274.806C495.989 274.5 495.804 274.083 495.789 273.644Z" fill="#161C73"/>
<path d="M541.481 289.971H520.547L528.291 249.559C528.385 249.057 528.653 248.604 529.047 248.279C529.441 247.955 529.936 247.778 530.447 247.78H546.928C547.25 247.778 547.568 247.848 547.86 247.984C548.151 248.12 548.409 248.32 548.614 248.567C548.819 248.815 548.966 249.106 549.045 249.418C549.124 249.73 549.133 250.055 549.071 250.371L541.481 289.971Z" fill="#161C73"/>
<path d="M532.659 247.725H530.447C529.936 247.722 529.441 247.899 529.047 248.224C528.653 248.549 528.385 249.001 528.291 249.503L520.547 289.972H522.759L530.517 249.559C530.597 249.048 530.857 248.583 531.25 248.246C531.642 247.91 532.142 247.725 532.659 247.725Z" fill="#090D52"/>
<path d="M550.261 293.724H513.671C512.83 293.724 512.024 293.391 511.428 292.798C510.832 292.205 510.496 291.4 510.492 290.56C510.492 289.717 510.827 288.908 511.423 288.312C512.019 287.716 512.828 287.381 513.671 287.381H550.261C551.104 287.381 551.912 287.716 552.508 288.312C553.104 288.908 553.439 289.717 553.439 290.56C553.436 291.4 553.099 292.205 552.503 292.798C551.908 293.391 551.101 293.724 550.261 293.724Z" fill="#252B80"/>
<path d="M551.842 292.464H515.253C514.835 292.464 514.422 292.382 514.036 292.222C513.651 292.062 513.3 291.828 513.005 291.533C512.71 291.238 512.476 290.888 512.316 290.502C512.156 290.116 512.074 289.703 512.074 289.286C512.078 288.68 512.253 288.088 512.578 287.577C511.872 287.827 511.277 288.32 510.9 288.968C510.523 289.615 510.388 290.376 510.52 291.114C510.651 291.851 511.039 292.519 511.616 292.997C512.193 293.475 512.921 293.733 513.67 293.724H550.26C550.787 293.731 551.307 293.606 551.774 293.362C552.241 293.118 552.64 292.761 552.935 292.324C552.582 292.436 552.212 292.483 551.842 292.464Z" fill="#161C73"/>
<path d="M502.021 256.757C501.854 256.757 501.693 256.691 501.575 256.572C501.457 256.454 501.391 256.294 501.391 256.127V234.254C501.391 234.087 501.457 233.927 501.575 233.809C501.693 233.69 501.854 233.624 502.021 233.624C502.188 233.624 502.348 233.69 502.466 233.809C502.585 233.927 502.651 234.087 502.651 234.254V256.127C502.651 256.294 502.585 256.454 502.466 256.572C502.348 256.691 502.188 256.757 502.021 256.757Z" fill="#161C73"/>
<path d="M504.402 256.757C504.235 256.757 504.074 256.691 503.956 256.572C503.838 256.454 503.771 256.294 503.771 256.127V234.254C503.771 234.087 503.838 233.927 503.956 233.809C504.074 233.69 504.235 233.624 504.402 233.624C504.569 233.624 504.729 233.69 504.847 233.809C504.965 233.927 505.032 234.087 505.032 234.254V256.127C505.032 256.294 504.965 256.454 504.847 256.572C504.729 256.691 504.569 256.757 504.402 256.757Z" fill="#161C73"/>
<path d="M506.935 256.757C506.768 256.757 506.607 256.691 506.489 256.572C506.371 256.454 506.305 256.294 506.305 256.127V234.254C506.305 234.087 506.371 233.927 506.489 233.809C506.607 233.69 506.768 233.624 506.935 233.624C507.103 233.624 507.265 233.69 507.385 233.808C507.506 233.926 507.575 234.086 507.579 234.254V256.127C507.575 256.295 507.506 256.455 507.385 256.573C507.265 256.691 507.103 256.757 506.935 256.757Z" fill="#161C73"/>
<path d="M509.484 256.757C509.316 256.757 509.154 256.691 509.033 256.573C508.913 256.455 508.844 256.295 508.84 256.127V234.254C508.844 234.086 508.913 233.926 509.033 233.808C509.154 233.69 509.316 233.624 509.484 233.624C509.651 233.624 509.811 233.69 509.93 233.809C510.048 233.927 510.114 234.087 510.114 234.254V256.127C510.114 256.294 510.048 256.454 509.93 256.572C509.811 256.691 509.651 256.757 509.484 256.757Z" fill="#161C73"/>
<path d="M512.103 256.757C511.935 256.757 511.773 256.691 511.653 256.573C511.532 256.455 511.463 256.295 511.459 256.127V234.254C511.463 234.086 511.532 233.926 511.653 233.808C511.773 233.69 511.935 233.624 512.103 233.624C512.27 233.624 512.43 233.69 512.549 233.809C512.667 233.927 512.733 234.087 512.733 234.254V256.127C512.733 256.294 512.667 256.454 512.549 256.572C512.43 256.691 512.27 256.757 512.103 256.757Z" fill="#161C73"/>
<path d="M556.129 256.757C555.96 256.757 555.798 256.691 555.678 256.573C555.558 256.455 555.488 256.295 555.484 256.127V234.254C555.488 234.086 555.558 233.926 555.678 233.808C555.798 233.69 555.96 233.624 556.129 233.624C556.296 233.624 556.456 233.69 556.574 233.809C556.692 233.927 556.759 234.087 556.759 234.254V256.127C556.759 256.294 556.692 256.454 556.574 256.572C556.456 256.691 556.296 256.757 556.129 256.757Z" fill="#161C73"/>
<path d="M558.507 256.757C558.423 256.759 558.34 256.744 558.262 256.713C558.184 256.682 558.113 256.636 558.053 256.578C557.993 256.519 557.945 256.449 557.913 256.371C557.88 256.294 557.863 256.211 557.863 256.127V234.254C557.863 234.17 557.88 234.087 557.913 234.01C557.945 233.933 557.993 233.862 558.053 233.804C558.113 233.745 558.184 233.699 558.262 233.668C558.34 233.637 558.423 233.622 558.507 233.624C558.675 233.624 558.835 233.691 558.953 233.809C559.071 233.927 559.138 234.087 559.138 234.254V256.127C559.138 256.294 559.071 256.454 558.953 256.573C558.835 256.691 558.675 256.757 558.507 256.757Z" fill="#161C73"/>
<path d="M561.043 256.757C560.874 256.757 560.712 256.691 560.592 256.573C560.472 256.455 560.402 256.295 560.398 256.127V234.254C560.402 234.086 560.472 233.926 560.592 233.808C560.712 233.69 560.874 233.624 561.043 233.624C561.21 233.624 561.37 233.69 561.488 233.809C561.606 233.927 561.673 234.087 561.673 234.254V256.127C561.673 256.294 561.606 256.454 561.488 256.572C561.37 256.691 561.21 256.757 561.043 256.757Z" fill="#161C73"/>
<path d="M563.55 256.757C563.383 256.757 563.223 256.691 563.104 256.572C562.986 256.454 562.92 256.294 562.92 256.127V234.254C562.92 234.087 562.986 233.927 563.104 233.809C563.223 233.69 563.383 233.624 563.55 233.624C563.717 233.624 563.877 233.69 563.996 233.809C564.114 233.927 564.18 234.087 564.18 234.254V256.127C564.18 256.294 564.114 256.454 563.996 256.572C563.877 256.691 563.717 256.757 563.55 256.757Z" fill="#161C73"/>
<path d="M566.197 256.757C566.029 256.757 565.869 256.691 565.751 256.572C565.633 256.454 565.566 256.294 565.566 256.127V234.254C565.566 234.087 565.633 233.927 565.751 233.809C565.869 233.69 566.029 233.624 566.197 233.624C566.364 233.624 566.524 233.69 566.642 233.809C566.76 233.927 566.827 234.087 566.827 234.254V256.127C566.827 256.294 566.76 256.454 566.642 256.572C566.524 256.691 566.364 256.757 566.197 256.757Z" fill="#161C73"/>
<path d="M332.501 143.501H274.585C273.742 143.501 272.933 143.166 272.337 142.57C271.741 141.973 271.406 141.165 271.406 140.322V76.4684C271.41 75.6278 271.746 74.8229 272.342 74.2298C272.938 73.6367 273.744 73.3037 274.585 73.3037H332.501C333.342 73.3037 334.148 73.6367 334.744 74.2298C335.34 74.8229 335.676 75.6278 335.68 76.4684V140.322C335.68 141.165 335.345 141.973 334.749 142.57C334.153 143.166 333.344 143.501 332.501 143.501ZM277.75 137.143H329.337V79.6471H277.764L277.75 137.143Z" fill="#FFDFBF"/>
<path d="M235.097 143.501H176.116C175.273 143.501 174.465 143.166 173.869 142.57C173.272 141.973 172.938 141.165 172.938 140.322V108.395C172.937 107.978 173.02 107.566 173.18 107.181C173.34 106.796 173.574 106.446 173.869 106.152C174.165 105.858 174.515 105.626 174.901 105.467C175.286 105.309 175.699 105.229 176.116 105.23H235.097C235.937 105.23 236.744 105.563 237.339 106.157C237.935 106.75 238.272 107.555 238.275 108.395V140.322C238.275 141.165 237.94 141.973 237.344 142.57C236.748 143.166 235.94 143.501 235.097 143.501ZM179.281 137.143H231.932V111.574H179.281V137.143Z" fill="#FFDFBF"/>
<path d="M428.87 143.5H378.893C378.053 143.497 377.248 143.16 376.655 142.565C376.062 141.969 375.729 141.162 375.729 140.322V95.5123C375.729 94.673 376.062 93.8681 376.655 93.2746C377.249 92.6811 378.054 92.3477 378.893 92.3477H428.87C429.709 92.3477 430.514 92.6811 431.108 93.2746C431.701 93.8681 432.034 94.673 432.034 95.5123V140.322C432.034 141.162 431.701 141.969 431.108 142.565C430.515 143.16 429.71 143.497 428.87 143.5ZM382.072 137.143H425.691V98.705H382.072V137.143Z" fill="#FFDFBF"/>
</g>
<defs>
<clipPath id="clip0_4129_28004">
<rect width="595" height="422.89" fill="white" transform="translate(0 0.110352)"/>
</clipPath>
</defs>
</svg>
