<svg width="628" height="407" viewBox="0 0 628 407" fill="none" xmlns="http://www.w3.org/2000/svg">
<path d="M611 393C611 400.741 480.466 407 319.479 407C158.492 407 28 400.741 28 393C28 385.277 158.492 379 319.479 379C480.466 379 611 385.277 611 393Z" fill="#005BBA"/>
<path d="M33.7915 152.639C-39.7011 176.014 23.606 277.037 64.4461 324.626C88.9698 346.65 160.5 346.5 176 324.626L294.5 346.5C405.5 358.5 553.839 332.709 583 316C619.452 295.114 651.601 244.768 602.082 241.447C552.563 238.125 583.119 158.494 590.39 90.8816C597.66 23.269 507.237 -12.6487 348.363 4.07147C189.489 20.7917 196.988 -9.32696 115.439 4.07171C33.8897 17.4704 125.657 123.421 33.7915 152.639Z" fill="#F5FAFF"/>
<rect x="194.654" y="31.6543" width="14.5772" height="355.86" fill="#FFDFBF" stroke="#F3A769"/>
<rect x="354.676" y="31.6543" width="14.5772" height="355.86" fill="#FFDFBF" stroke="#005BBA"/>
<rect x="194.654" y="46.2314" width="14.5772" height="174.598" transform="rotate(-90 194.654 46.2314)" fill="#FFDFBF" stroke="#F3A769"/>
<rect x="210.732" y="46.3154" width="143.859" height="342.115" fill="white" stroke="#F3A769" stroke-width="2"/>
<rect x="362.256" y="46.3154" width="143.859" height="342.115" fill="#FFDFBF" stroke="#F3A769" stroke-width="2"/>
<rect x="475.045" y="170.433" width="18.8255" height="35.8189" rx="9.41277" stroke="#005BBA"/>
<ellipse cx="484.457" cy="187.635" rx="5.66444" ry="4.95639" fill="#005BBA"/>
<path d="M147.867 198.661H114.263C113.99 198.661 113.77 198.882 113.77 199.154V215.804C113.77 216.077 113.99 216.298 114.263 216.298H147.867C148.139 216.298 148.36 216.077 148.36 215.804V199.154C148.36 198.882 148.139 198.661 147.867 198.661Z" fill="#C9E4FF"/>
<path d="M147.681 216.702H114.449C114.161 216.702 113.885 216.588 113.682 216.385C113.478 216.182 113.364 215.906 113.363 215.619V199.339C113.364 199.052 113.478 198.776 113.682 198.573C113.885 198.37 114.161 198.255 114.449 198.255H147.681C147.968 198.255 148.244 198.37 148.448 198.573C148.651 198.776 148.766 199.052 148.766 199.339V215.62C148.765 215.907 148.651 216.183 148.447 216.386C148.244 216.588 147.968 216.702 147.681 216.702ZM114.449 199.067C114.413 199.067 114.377 199.074 114.344 199.088C114.311 199.101 114.281 199.121 114.256 199.147C114.23 199.172 114.21 199.202 114.196 199.235C114.182 199.268 114.175 199.303 114.175 199.339V215.62C114.175 215.656 114.182 215.691 114.196 215.724C114.21 215.757 114.23 215.787 114.256 215.813C114.281 215.838 114.311 215.858 114.344 215.871C114.377 215.885 114.413 215.892 114.449 215.892H147.681C147.717 215.892 147.752 215.885 147.785 215.871C147.818 215.858 147.848 215.838 147.874 215.813C147.899 215.787 147.919 215.757 147.933 215.724C147.947 215.691 147.954 215.656 147.954 215.62V199.339C147.954 199.303 147.947 199.268 147.933 199.235C147.919 199.202 147.899 199.172 147.874 199.147C147.848 199.121 147.818 199.101 147.785 199.088C147.752 199.074 147.717 199.067 147.681 199.067H114.449Z" fill="#4FA5FF"/>
<path d="M124.076 204.833H121.516C121.326 204.833 121.172 204.987 121.172 205.177V209.498C121.172 209.688 121.326 209.842 121.516 209.842H124.076C124.266 209.842 124.42 209.688 124.42 209.498V205.177C124.42 204.987 124.266 204.833 124.076 204.833Z" fill="#4FA5FF"/>
<path d="M123.058 211.399H122.537C122.426 211.399 122.319 211.356 122.239 211.279C122.159 211.202 122.112 211.097 122.107 210.985L121.938 206.566C121.936 206.508 121.946 206.451 121.967 206.397C121.987 206.344 122.019 206.295 122.059 206.254C122.099 206.212 122.147 206.179 122.2 206.157C122.253 206.135 122.31 206.123 122.367 206.123H123.233C123.29 206.123 123.347 206.135 123.4 206.157C123.453 206.179 123.501 206.212 123.541 206.254C123.581 206.295 123.613 206.344 123.634 206.397C123.654 206.451 123.664 206.508 123.662 206.566L123.493 210.985C123.488 211.097 123.441 211.203 123.359 211.28C123.278 211.358 123.17 211.4 123.058 211.399Z" fill="#C9E4FF"/>
<path d="M123.059 211.804H122.537C122.321 211.805 122.113 211.721 121.957 211.571C121.801 211.421 121.709 211.216 121.702 211L121.532 206.582C121.528 206.469 121.546 206.357 121.586 206.252C121.626 206.147 121.687 206.051 121.765 205.97C121.843 205.888 121.937 205.824 122.04 205.78C122.144 205.736 122.255 205.713 122.368 205.713H123.233C123.345 205.713 123.457 205.736 123.56 205.78C123.664 205.824 123.758 205.888 123.836 205.97C123.914 206.051 123.975 206.147 124.015 206.252C124.055 206.357 124.073 206.469 124.069 206.582L123.899 211C123.891 211.217 123.799 211.422 123.642 211.573C123.485 211.723 123.276 211.806 123.059 211.804ZM122.338 206.549L122.509 210.969C122.509 210.975 122.512 210.981 122.516 210.985C122.521 210.99 122.527 210.992 122.533 210.992H123.059C123.065 210.992 123.071 210.99 123.075 210.985C123.08 210.981 123.082 210.975 123.082 210.969L123.254 206.549L123.229 206.526H122.363L121.934 206.565L122.338 206.549Z" fill="#4FA5FF"/>
<path d="M132.195 204.833H129.635C129.445 204.833 129.291 204.987 129.291 205.177V209.498C129.291 209.688 129.445 209.842 129.635 209.842H132.195C132.385 209.842 132.54 209.688 132.54 209.498V205.177C132.54 204.987 132.385 204.833 132.195 204.833Z" fill="#4FA5FF"/>
<path d="M131.18 211.399H130.658C130.547 211.399 130.44 211.356 130.36 211.279C130.28 211.202 130.233 211.097 130.229 210.985L130.059 206.566C130.057 206.508 130.067 206.451 130.088 206.397C130.108 206.344 130.14 206.295 130.18 206.254C130.22 206.212 130.268 206.179 130.321 206.157C130.374 206.135 130.431 206.123 130.489 206.123H131.354C131.411 206.123 131.468 206.135 131.521 206.157C131.574 206.179 131.622 206.212 131.662 206.254C131.703 206.295 131.734 206.344 131.755 206.397C131.775 206.451 131.785 206.508 131.783 206.566L131.614 210.985C131.609 211.097 131.562 211.203 131.481 211.28C131.4 211.358 131.291 211.4 131.18 211.399Z" fill="#C9E4FF"/>
<path d="M131.178 211.804H130.657C130.44 211.805 130.232 211.721 130.076 211.571C129.92 211.421 129.828 211.216 129.821 211L129.651 206.582C129.647 206.469 129.665 206.357 129.705 206.252C129.745 206.147 129.806 206.051 129.884 205.97C129.962 205.888 130.056 205.824 130.159 205.78C130.263 205.736 130.374 205.713 130.487 205.713H131.352C131.465 205.713 131.576 205.736 131.68 205.78C131.783 205.824 131.877 205.888 131.955 205.97C132.033 206.051 132.094 206.147 132.134 206.252C132.174 206.357 132.192 206.469 132.188 206.582L132.018 211C132.01 211.217 131.918 211.422 131.761 211.573C131.604 211.723 131.395 211.806 131.178 211.804ZM130.457 206.549L130.629 210.969C130.629 210.975 130.631 210.981 130.635 210.985C130.64 210.99 130.646 210.992 130.652 210.992H131.178C131.184 210.992 131.19 210.99 131.195 210.985C131.199 210.981 131.201 210.975 131.201 210.969L131.373 206.549L131.348 206.526H130.482L130.053 206.565L130.457 206.549Z" fill="#4FA5FF"/>
<path d="M140.317 204.833H137.756C137.566 204.833 137.412 204.987 137.412 205.177V209.498C137.412 209.688 137.566 209.842 137.756 209.842H140.317C140.507 209.842 140.661 209.688 140.661 209.498V205.177C140.661 204.987 140.507 204.833 140.317 204.833Z" fill="#4FA5FF"/>
<path d="M139.299 211.399H138.777C138.666 211.399 138.559 211.356 138.479 211.279C138.399 211.202 138.352 211.097 138.348 210.985L138.178 206.566C138.176 206.508 138.186 206.451 138.207 206.397C138.228 206.344 138.259 206.295 138.299 206.254C138.339 206.212 138.387 206.179 138.44 206.157C138.493 206.135 138.55 206.123 138.608 206.123H139.473C139.53 206.123 139.587 206.135 139.64 206.157C139.693 206.179 139.741 206.212 139.782 206.254C139.822 206.295 139.853 206.344 139.874 206.397C139.895 206.451 139.904 206.508 139.903 206.566L139.733 210.985C139.729 211.097 139.681 211.203 139.6 211.28C139.519 211.358 139.411 211.4 139.299 211.399Z" fill="#C9E4FF"/>
<path d="M139.299 211.804H138.778C138.561 211.805 138.353 211.721 138.197 211.571C138.041 211.421 137.95 211.216 137.942 211L137.772 206.582C137.768 206.469 137.786 206.357 137.826 206.252C137.866 206.147 137.927 206.051 138.005 205.97C138.083 205.888 138.177 205.824 138.28 205.78C138.384 205.736 138.495 205.713 138.608 205.713H139.473C139.586 205.713 139.697 205.736 139.801 205.78C139.904 205.824 139.998 205.888 140.076 205.97C140.154 206.051 140.215 206.147 140.255 206.252C140.295 206.357 140.313 206.469 140.309 206.582L140.139 211C140.131 211.217 140.039 211.422 139.882 211.573C139.726 211.723 139.516 211.806 139.299 211.804ZM138.578 206.549L138.75 210.969C138.75 210.975 138.752 210.981 138.757 210.985C138.761 210.99 138.767 210.992 138.773 210.992H139.299C139.305 210.992 139.311 210.99 139.316 210.985C139.32 210.981 139.323 210.975 139.323 210.969L139.494 206.549L139.469 206.526H138.603L138.174 206.565L138.578 206.549Z" fill="#4FA5FF"/>
<path d="M288.445 388.014C288.15 388.014 287.858 387.951 287.588 387.83C287.318 387.708 287.075 387.531 286.875 387.308C286.675 387.086 286.522 386.823 286.425 386.537C286.329 386.251 286.292 385.947 286.315 385.646C286.774 379.853 287.679 368.031 288.537 365.64C290.282 360.755 297.897 362.285 299.651 365.64C302.128 370.362 309.577 379.35 313.881 384.378C314.152 384.694 314.328 385.085 314.389 385.501C314.449 385.918 314.391 386.344 314.221 386.728C314.052 387.112 313.778 387.438 313.432 387.666C313.086 387.894 312.684 388.015 312.273 388.014H288.445Z" fill="#F3A769"/>
<path d="M287.276 389.43H314.792C315.046 389.43 315.29 389.355 315.469 389.222C315.649 389.09 315.75 388.91 315.75 388.722C315.75 388.534 315.649 388.354 315.469 388.221C315.29 388.088 315.046 388.014 314.792 388.014H287.266C287.14 388.014 287.016 388.032 286.9 388.068C286.783 388.103 286.678 388.155 286.589 388.221C286.5 388.287 286.429 388.365 286.381 388.451C286.333 388.537 286.308 388.629 286.308 388.722C286.308 388.815 286.333 388.907 286.381 388.993C286.429 389.079 286.5 389.157 286.589 389.222C286.678 389.288 286.783 389.34 286.9 389.376C287.016 389.411 287.14 389.43 287.266 389.43H287.276Z" fill="#003960"/>
<path d="M291.311 379.517C291.563 379.518 291.807 379.416 291.99 379.232C293.798 377.423 299.662 376.601 303.673 378.253C303.795 378.307 303.925 378.335 304.057 378.335C304.188 378.334 304.319 378.307 304.44 378.253C304.561 378.199 304.671 378.12 304.763 378.02C304.855 377.921 304.927 377.803 304.975 377.674C305.023 377.545 305.046 377.407 305.043 377.268C305.039 377.129 305.01 376.993 304.955 376.866C304.901 376.74 304.823 376.626 304.727 376.532C304.63 376.438 304.517 376.365 304.393 376.317C299.896 374.468 293.207 375.146 290.63 377.723C290.486 377.866 290.387 378.052 290.345 378.255C290.303 378.458 290.319 378.67 290.392 378.863C290.466 379.057 290.593 379.222 290.756 379.339C290.92 379.455 291.113 379.518 291.311 379.517Z" fill="#003960"/>
<path d="M291.287 375.269C291.506 375.269 291.719 375.166 291.89 374.977C293.379 373.315 298.503 373.336 301.097 374.562C301.216 374.618 301.343 374.641 301.469 374.63C301.595 374.619 301.718 374.574 301.831 374.497C301.945 374.42 302.046 374.312 302.129 374.181C302.213 374.05 302.277 373.897 302.318 373.732C302.358 373.567 302.375 373.392 302.367 373.217C302.359 373.043 302.326 372.872 302.271 372.715C302.215 372.559 302.138 372.418 302.043 372.303C301.948 372.187 301.838 372.099 301.718 372.043C298.816 370.67 292.904 370.428 290.683 372.902C290.528 373.075 290.416 373.31 290.361 373.575C290.307 373.84 290.313 374.122 290.38 374.382C290.446 374.641 290.569 374.866 290.731 375.025C290.894 375.184 291.088 375.269 291.287 375.269Z" fill="#003960"/>
<path d="M249.929 388.014C250.223 388.014 250.514 387.951 250.784 387.829C251.053 387.707 251.295 387.528 251.494 387.305C251.694 387.082 251.846 386.818 251.942 386.531C252.038 386.243 252.075 385.939 252.052 385.636C251.594 379.817 246.119 371.154 244.251 365.483C242.624 360.544 238.761 362.559 237.014 365.928C234.547 370.673 220.745 379.252 216.455 384.301C216.184 384.619 216.009 385.011 215.948 385.43C215.888 385.849 215.946 386.276 216.115 386.662C216.284 387.047 216.558 387.374 216.902 387.603C217.246 387.832 217.647 387.954 218.057 387.953L249.929 388.014Z" fill="#F3A769"/>
<path d="M216.839 389.43H251.143C251.263 389.43 251.382 389.411 251.493 389.376C251.604 389.34 251.705 389.288 251.79 389.222C251.875 389.157 251.943 389.079 251.989 388.993C252.035 388.907 252.059 388.815 252.059 388.722C252.059 388.629 252.035 388.537 251.989 388.451C251.943 388.365 251.875 388.287 251.79 388.221C251.705 388.155 251.604 388.103 251.493 388.068C251.382 388.032 251.263 388.014 251.143 388.014H216.841C216.721 388.014 216.602 388.032 216.491 388.068C216.379 388.103 216.279 388.155 216.193 388.221C216.108 388.287 216.041 388.365 215.995 388.451C215.949 388.537 215.925 388.629 215.925 388.722C215.925 388.815 215.949 388.907 215.995 388.993C216.041 389.079 216.108 389.157 216.193 389.222C216.279 389.288 216.379 389.34 216.491 389.376C216.602 389.411 216.721 389.43 216.841 389.43H216.839Z" fill="#003960"/>
<path d="M235.09 380.933C235.272 380.934 235.45 380.87 235.601 380.751C235.752 380.632 235.868 380.463 235.936 380.266C236.003 380.069 236.018 379.852 235.979 379.645C235.939 379.438 235.847 379.249 235.715 379.103C233.59 376.752 228.858 373.966 224.533 375.939C224.422 375.99 224.321 376.066 224.235 376.162C224.149 376.259 224.08 376.374 224.032 376.501C223.984 376.629 223.958 376.766 223.956 376.905C223.953 377.045 223.975 377.183 224.018 377.313C224.062 377.442 224.127 377.561 224.209 377.661C224.292 377.762 224.391 377.842 224.5 377.898C224.61 377.954 224.728 377.984 224.847 377.986C224.966 377.989 225.085 377.964 225.196 377.914C228.731 376.301 232.674 378.661 234.463 380.636C234.631 380.827 234.856 380.933 235.09 380.933Z" fill="#003960"/>
<path d="M239.048 376.685C239.248 376.685 239.443 376.624 239.606 376.511C239.769 376.398 239.892 376.239 239.959 376.054C240.025 375.869 240.032 375.669 239.977 375.481C239.923 375.292 239.81 375.125 239.654 375.002C237.419 373.237 232.603 371.311 228.482 373.241C228.262 373.355 228.096 373.549 228.018 373.781C227.94 374.014 227.956 374.266 228.064 374.487C228.171 374.707 228.361 374.879 228.595 374.965C228.828 375.051 229.086 375.046 229.315 374.95C232.605 373.407 236.66 375.068 238.444 376.477C238.616 376.612 238.829 376.685 239.048 376.685Z" fill="#003960"/>
<path d="M286 291.5C288.5 303.5 303.5 352 306.557 370.968C298.768 375.216 290.271 374.508 285.315 374.508C282.024 360.919 262 298 262 298L244.248 234.313L241.135 216.774L270.5 215C270.5 215 283.5 279.5 286 291.5Z" fill="#4FA5FF"/>
<path d="M247.999 295C247.481 309.5 250.623 358.931 249.915 375.216C244.959 375.216 230.132 375.484 229.381 372.384C226.09 358.795 223.864 290.045 223.864 290.045C223.864 290.045 217.121 230.597 219.501 214C220.202 209.128 226.549 198.911 226.549 198.911L250.623 220.86C250.623 220.86 248.196 289.494 247.999 295Z" fill="#4FA5FF"/>
<path d="M246.146 76.7284C246.146 76.7284 243.212 80.4377 241.213 80.4008C239.275 80.3639 236.654 76.7284 236.654 76.7284L236.691 69.5742H246.109L246.146 76.7284Z" fill="#FD9783"/>
<path d="M225.778 90.7112L223.951 77.1533C223.951 77.1533 229.918 72.1829 241.169 77.7561C242.984 78.6542 247.794 73.9914 249.818 73.9976C252.211 74.0099 257.754 75.5785 259.119 78.0329C259.113 79.8599 257.686 96.6473 257.686 96.6473C257.686 96.6473 266.495 109.842 262.742 116.59C260.546 117.888 248.366 125.061 242.91 125.086C237.46 125.061 227.199 119.808 224.997 118.51C225.28 115.797 225.778 90.7112 225.778 90.7112Z" fill="#FBC331"/>
<path d="M192.663 77.9894L191.322 82.6953C191.322 82.6953 209.703 94.9798 225.777 90.7107C226.927 85.8818 228.453 77.9587 223.95 77.1528C212.453 79.1705 192.663 77.9894 192.663 77.9894Z" fill="#FBC331"/>
<path d="M177.55 77.8172C178.042 77.5465 179.038 77.8787 179.426 77.8787C180.742 77.8787 183.48 78.2355 183.726 78.2232C183.738 78.2109 183.861 78.1309 183.861 78.1125C182.988 77.6142 177.408 76.4516 177.045 75.8918C176.609 75.2213 177.224 74.4277 178.023 74.6369C180.066 75.1659 184.304 76.2116 184.63 76.1932C184.802 75.3812 182.373 74.5015 181.604 73.7757C180.976 73.1913 179.777 72.6561 180.742 71.7026C181.062 71.3827 188.678 75.9656 189.441 75.7626C189.514 74.803 189.244 74.7291 188.604 73.9171C188.26 73.4865 187.195 71.9118 188.383 71.6042C188.942 71.4565 192.344 76.6115 193.384 77.4789C194.928 82.277 190.542 83.4827 190.228 83.3781C188.635 84.1963 187.564 83.8641 185.288 82.7937C184.095 82.234 179.088 82.5784 178.897 82.1663C178.632 81.6065 178.897 81.1882 179.543 81.2005C181.056 80.8376 183.062 81.0283 183.615 80.3516C182.791 79.5519 177.636 79.3735 177.316 78.9675C177.045 78.623 177.291 77.9587 177.55 77.8172Z" fill="#FD9783"/>
<path d="M290.354 79.9151L291.541 84.664C291.541 84.664 272.945 97.1208 255.087 91.4491C254.103 86.5833 254.589 78.6848 259.116 78.0327C268.381 82.4495 290.354 79.9151 290.354 79.9151Z" fill="#FBC331"/>
<path d="M305.47 80.2476C304.99 79.9647 303.981 80.2599 303.594 80.2476C302.277 80.2046 299.528 80.4691 299.282 80.4506C299.275 80.4322 299.152 80.3461 299.152 80.3338C300.038 79.8662 305.661 78.8882 306.042 78.3407C306.497 77.6886 305.913 76.8766 305.101 77.055C303.04 77.5164 298.777 78.4206 298.451 78.3899C298.303 77.5717 300.758 76.772 301.551 76.0769C302.197 75.5171 303.415 75.0189 302.486 74.0285C302.173 73.7024 294.41 78.0269 293.653 77.7993C293.61 76.8397 293.887 76.7659 294.557 75.9785C294.908 75.5602 296.021 74.0285 294.853 73.6778C294.299 73.5118 290.725 78.5498 289.661 79.3803C287.951 84.1231 292.3 85.4764 292.62 85.378C294.182 86.2515 295.259 85.9562 297.571 84.9597C298.777 84.4429 303.772 84.9535 303.981 84.5537C304.264 84 304.006 83.5756 303.366 83.5633C301.865 83.145 299.854 83.2742 299.325 82.579C300.18 81.804 305.328 81.804 305.667 81.4103C305.944 81.0781 305.722 80.3953 305.47 80.2476Z" fill="#FD9783"/>
<path d="M236.218 58.9063C234.139 55.5415 233.542 61.0163 233.813 62.5665C233.912 63.1262 234.434 64.3381 235.019 64.6272L236.218 58.9063Z" fill="#FD9783"/>
<path d="M249.824 62.1591C253.361 60.3875 250.999 65.3641 249.959 66.5328C249.572 66.9696 248.501 67.7201 247.855 67.6647L249.824 62.1591Z" fill="#FD9783"/>
<path d="M235.05 61.0708C236.066 57.9275 235.262 56.8455 237.003 55.1155C239.021 53.093 241.752 53.7326 244.051 54.4819C246.356 55.2312 248.975 56.3277 249.769 59.264C250.45 61.7799 249.95 62.4415 249.375 65.725C248.645 69.9161 247.15 71.6218 243.796 73.2727C242.806 73.76 240.825 73.6077 239.766 73.2848C238.717 72.9193 236.966 71.8594 236.343 70.8542C234.241 67.4246 233.756 65.0792 235.05 61.0708Z" fill="#FD9783"/>
<path d="M233.084 50.991C233.351 50.5677 234.734 49.8217 235.549 49.4567C236.321 49.1128 236.257 47.1604 238.12 46.7689C240.43 46.2821 241.202 50.7704 245.593 50.3842C248.116 50.1619 249.202 52.8656 249.202 52.8656C249.202 52.8656 251.565 54.2835 251.831 54.638C252.688 55.8126 252.853 57.2094 252.688 60.0135C252.582 61.7066 251.922 62.3505 251.113 63.3769C251.113 63.3769 250.091 63.7737 249.798 63.6468C250.203 62.4457 250.139 63.4367 250.389 62.5532C250.368 61.7278 249.383 60.6771 248.617 60.1427C247.967 58.984 245.971 59.5925 245.098 59.3702C244.619 59.2485 241.953 58.1904 240.851 58.1639C238.461 58.1004 237.045 57.8408 237.045 57.8408C237.045 57.8408 235.869 58.3982 235.576 59.631C234.873 58.504 232.92 55.9205 232.92 55.9205C233.196 54.4972 231.78 53.1285 233.084 50.991Z" fill="#172755"/>
<path d="M237.877 67.9203C238.303 69.6662 239.699 70.8909 241.046 71.1353C242.397 71.379 243.081 70.0624 243.541 68.7167C243.449 67.2285 242.202 68.9604 240.851 68.7167C239.503 68.4722 237.788 66.4314 237.877 67.9203Z" fill="white"/>
<path d="M313.026 138.066C313.026 129.897 300.183 128.105 300.183 128.105L272.569 133.061L247.079 124.256L225.838 131.645L194.683 130.229C194.683 130.229 180.936 129.897 180.936 138.066C180.936 147.521 225.838 153.594 225.838 153.594C225.838 153.594 220.115 207.045 219.5 213C224.335 215.854 235.013 220.278 246.978 220.327C258.943 220.278 266.171 220.854 271 218C270.385 212.045 269.737 153.594 269.737 153.594C269.737 153.594 313.026 147.521 313.026 138.066Z" fill="#FFDFBF"/>
<path d="M281.553 129.582C277.665 124.674 268.671 117.827 261.536 113.392C257.07 110.611 243.567 116.474 239.686 121.555C241.949 123.277 247.214 123.022 250.622 125.273C255.438 128.459 266.967 138.121 274.122 142.39C274.122 142.39 281.786 156.944 291.038 164.221C291.456 164.547 298.174 155.486 298.174 155.486C294.944 152.423 284.118 132.812 281.553 129.582Z" fill="#005BBA"/>
<path d="M312.888 166.731C314.813 167.057 315.779 166.036 316.524 166.866C317.668 168.158 315.97 170.698 303.55 172.636C302.707 171.916 303.199 168.576 303.199 168.576L306.577 168.939L307.112 166.38C307.112 166.38 310.661 166.362 312.888 166.731Z" fill="#005BBA"/>
<path d="M307.112 166.381L306.577 168.94L303.199 168.577L293.572 161.49L298.174 155.486L307.112 166.381Z" fill="#FD9783"/>
<path d="M213.086 136.712C214.962 130.899 220.739 121.666 225.777 115.034C229.154 110.605 240.386 117.747 244.772 121.463C244.409 121.973 244.028 122.496 243.641 123.038C240.245 127.707 229.738 139.585 224.534 146.1C224.534 146.1 222.443 162.419 216.316 172.477C216.039 172.932 206.584 166.805 206.584 166.805C208.534 162.801 211.819 140.637 213.086 136.712Z" fill="#005BBA"/>
<path d="M196.729 182.498C195.044 183.476 193.783 182.861 193.377 183.9C192.755 185.506 195.228 187.296 207.544 184.749C208.079 183.783 206.449 180.831 206.449 180.831L203.416 182.35L202.02 180.142C202.02 180.142 198.685 181.372 196.729 182.498Z" fill="#005BBA"/>
<path d="M202.02 180.141L203.416 182.349L206.449 180.83L212.988 170.809L206.584 166.805L202.02 180.141Z" fill="#FD9783"/>
<path d="M240 127.224C240 127.224 243.946 130.301 246.628 130.228C249.234 130.155 252.745 127.224 252.745 127.224L252.695 113.236H240.05L240 127.224Z" fill="#FD9783"/>
<path d="M232.92 100.491C232.92 109.054 239.364 117.345 246.198 117.345C253.033 117.345 258.569 110.406 258.569 101.844C258.569 93.2807 260.288 88.4541 253.454 88.4541C246.619 88.4541 232.92 91.9282 232.92 100.491Z" fill="#172755"/>
<path d="M237.599 105.726C234.173 102.595 235.249 108.974 236.049 110.635C236.344 111.244 236.996 112.443 237.747 112.585L237.599 105.726Z" fill="#FD9783"/>
<path d="M254.841 105.726C258.267 102.595 257.197 108.974 256.391 110.635C256.096 111.244 255.45 112.443 254.693 112.585L254.841 105.726Z" fill="#FD9783"/>
<path d="M237.563 110.8C237.563 107.821 236.424 103.377 238.013 101.484C239.865 99.2792 243.386 99.0747 246.409 99.0747C249.437 99.0747 252.958 99.2792 254.81 101.484C256.404 103.377 254.972 107.942 255.264 110.8C255.631 114.454 254.902 116.965 251.312 119.227C250.251 119.894 247.797 120.299 246.409 120.316C245.027 120.299 242.572 119.894 241.511 119.227C237.921 116.965 237.19 114.454 237.563 110.8Z" fill="#FD9783"/>
<path d="M298.26 93.0926L307.414 91.481C307.414 91.481 317.533 124.527 313.03 138.066C305.47 144.753 297.141 134.455 297.141 134.455L298.26 93.0926Z" fill="#FD9783"/>
<path d="M290.345 86.0923L288.131 85.3111C288.131 85.3111 289.066 82.8505 292.185 84.1423C292.683 84.3576 294.209 85.7171 294.209 85.7171C294.209 85.7171 292.849 77.9416 292.652 75.561C292.332 71.6917 294.399 72.6206 294.399 72.6206L295.334 75.4379L294.756 71.9685C294.559 70.7751 295.137 69.797 296.054 69.7847C296.743 69.7724 297.912 71.6855 298.293 72.4668C298.158 71.3349 298.631 69.9508 299.591 69.9385C300.6 69.9139 302.273 75.5302 302.273 75.5302C302.156 74.7182 302.679 74.0231 303.436 73.9677C304.186 73.9185 305.964 82.0754 305.964 82.0754C305.982 82.223 305.982 82.3707 305.964 82.506L307.373 86.0739L307.41 91.481L298.256 93.0927L294.934 92.6744L290.345 86.0923Z" fill="#FD9783"/>
<path d="M185.306 92.1636L176.03 92.6372C176.03 92.6372 173.526 127.11 180.939 139.309C189.791 144.131 195.616 132.234 195.616 132.234L185.306 92.1636Z" fill="#FD9783"/>
<path d="M191.462 83.5698L193.443 82.3149C193.443 82.3149 191.991 80.1249 189.235 82.0873C188.799 82.401 187.611 84.0681 187.611 84.0681C187.611 84.0681 187.205 76.188 186.867 73.8197C186.313 69.9811 184.511 71.3468 184.511 71.3468L184.228 74.2995L184.013 70.7931C183.939 69.5813 183.158 68.7632 182.266 68.9538C181.583 69.0953 180.876 71.2176 180.685 72.0665C180.556 70.9346 179.787 69.692 178.846 69.8889C177.861 70.098 177.48 75.9419 177.48 75.9419C177.412 75.1238 176.754 74.564 176.004 74.6809C175.253 74.7978 175.345 83.1453 175.345 83.1453C175.351 83.2991 175.388 83.4406 175.438 83.5636L174.859 87.3591L176.028 92.6371L185.305 92.1634L188.454 91.0131L191.462 83.5698Z" fill="#FD9783"/>
<path d="M389.129 99.5109C388.457 99.3812 388.161 99.113 387.668 99.0438C383.956 98.5853 379.42 101.838 377.681 103.576C373.575 107.677 372.131 113.654 372.015 117.702C371.808 124.492 373.835 129.552 374.274 130.608C375.726 134.146 379.994 141.42 387.506 144.578C393.746 147.207 399.52 145.486 401.295 144.958C403.428 144.318 406.512 143.358 409.166 140.408C410.045 139.439 412.447 136.507 412.904 132.104C413.389 127.39 411.954 123.619 410.394 120.781C408.7 117.702 405.956 116.257 402.971 111.716C400.927 108.602 402.541 103.403 393.773 99.8569C390.832 98.6632 389.828 99.658 389.129 99.5109Z" fill="#08294A"/>
<path d="M392.87 335.618L411.709 333.292C413.389 354.028 413.848 366.955 415.528 375.269C420.42 380.445 443.043 387.953 434.809 387.953H404.853C402.24 387.953 405.564 380.207 405.564 376.289C405.568 375.27 397.119 349.779 392.87 335.618Z" fill="#FD9783"/>
<path d="M409.241 307.224C408.764 309.993 410.572 322.165 411.988 334.91L393.579 339.158C391.83 335.687 391.24 328.993 390.747 327.122C389.331 315.085 389.608 307.583 390.061 302.042C390.514 296.5 378.628 232.302 383.666 220.205C393.87 195.649 400.577 198.382 400.577 198.382C400.763 202.488 406.102 214.863 407.156 227.165C408.912 247.636 411.111 296.481 409.241 307.224Z" fill="#005BBA"/>
<path d="M337.642 325.706L358.176 332.786C349.223 350.887 344.015 371.925 344.015 375.269C344.015 380.517 366.915 387.953 359.538 387.953H333.101C329.911 387.953 333.191 379.097 334.508 376.691C335.026 375.745 334.634 344.599 337.642 325.706Z" fill="#FD9783"/>
<path d="M340.475 314.377C344.703 304.247 345.354 300.128 348.971 294.551C351.095 288.887 359.144 242.933 363.132 227.286C366.181 215.326 369.75 203.223 377.294 198.255C382.436 194.868 398.535 201.796 398.535 201.796C398.535 201.796 377.798 293.127 365.965 308.004C363.843 309.807 359.592 325.705 357.045 337.742L336.226 331.37C337.037 326.688 339.673 316.293 340.475 314.377Z" fill="#005BBA"/>
<path d="M330.718 389.431H362.325C362.456 389.431 362.582 389.379 362.674 389.287C362.766 389.194 362.818 389.069 362.818 388.938V388.202C362.818 388.077 362.771 387.957 362.685 387.866C362.6 387.774 362.483 387.719 362.359 387.71L330.776 385.61C330.657 385.602 330.539 385.619 330.427 385.658C330.315 385.698 330.213 385.761 330.126 385.842C330.039 385.923 329.97 386.021 329.923 386.13C329.876 386.239 329.852 386.356 329.852 386.475V388.563C329.852 388.677 329.874 388.79 329.917 388.895C329.961 389 330.025 389.096 330.105 389.177C330.185 389.257 330.281 389.321 330.386 389.365C330.492 389.409 330.604 389.431 330.718 389.431Z" fill="#C9E4FF"/>
<path d="M358.422 385.609C358.975 384.057 351.46 380.541 350.598 380.431C346.179 379.874 337.318 387.746 341.499 387.746H353.144C354.553 384.295 357.543 385.34 358.422 385.609Z" fill="#C9E4FF"/>
<path d="M432.811 384.955C433.366 383.403 425.643 379.982 424.781 379.866C420.362 379.308 411.642 387.83 415.823 387.83H427.468C428.872 384.392 431.932 384.686 432.811 384.955Z" fill="#C9E4FF"/>
<path d="M403.403 389.028H436.979C437.113 389.032 437.244 388.982 437.342 388.889C437.44 388.797 437.498 388.669 437.502 388.535V387.798C437.498 387.67 437.445 387.548 437.355 387.456C437.264 387.365 437.142 387.312 437.014 387.307L403.46 385.208C403.338 385.197 403.215 385.21 403.099 385.248C402.982 385.286 402.874 385.348 402.782 385.429C402.69 385.51 402.616 385.609 402.563 385.719C402.511 385.83 402.482 385.951 402.478 386.073V388.161C402.481 388.279 402.508 388.395 402.557 388.502C402.605 388.609 402.674 388.706 402.76 388.786C402.846 388.867 402.947 388.93 403.058 388.971C403.168 389.012 403.285 389.032 403.403 389.028Z" fill="#C9E4FF"/>
<path d="M405 138.5C405.636 138.389 422.092 163.613 430.253 168.98C434.547 171.804 456.234 183.679 471.227 185.2C471.305 185.209 471.382 185.229 471.454 185.26C472.976 184.769 473.606 183.689 475.654 183.047C477.821 182.366 480.925 183.152 482.899 183.047C484.872 182.942 485.486 183.524 483.479 184.65C481.472 185.775 479.644 185.03 478.252 186.54C476.861 188.051 487.654 193.405 489.948 194.186C492.243 194.967 490.266 195.075 487.1 195.216C483.934 195.358 480.375 196.924 477.546 196.33C475.741 195.954 472.955 193.121 471.171 191.115C463.487 190.686 442.073 185.864 423 177.5C415.919 174.393 401 150 401 150C401 150 400.676 139.265 405 138.5Z" fill="#FD9783"/>
<path d="M363 144.5C367.956 136.003 372.786 137.104 375.878 135.137C385.572 132.304 384.828 130.924 393 132.5C396 134 402.733 136.434 404 137.5C409.5 142.123 412.498 145.923 412.5 147C412.5 147.811 409.681 151.901 406 154.5C409.5 157.5 408.911 168.318 405.186 169.814C404.682 172.2 403.647 196.867 402.047 200.356C399.896 205.052 376.216 202.005 374.68 198.718C373.856 196.951 376.804 163.561 360.3 156.48C359.793 152.834 360.168 153.705 363 144.5Z" fill="#C9E4FF"/>
<path d="M371.901 157.35C372.348 157.816 364.492 184.909 364.646 187.401C364.922 191.829 366.223 215.731 365.562 228.759C366.783 229.663 368.005 229.622 369.632 230.924C371.406 232.343 372.487 235.357 373.675 236.936C374.864 238.515 374.723 239.349 372.669 238.312C370.615 237.275 370.213 235.341 368.182 235.029C366.151 234.716 367.733 246.662 368.366 249.002C368.999 251.342 367.806 249.762 365.921 247.214C364.037 244.666 361.551 242.608 360.453 239.938C359.684 238.054 360.338 233.499 360.793 230.958C357.902 219.336 356.727 202.121 354.654 190.243C354.148 179.611 358.506 158.405 360.704 152.931C361.532 150.885 368.853 154.19 371.901 157.35Z" fill="#FD9783"/>
<path d="M239.329 62.7945C239.264 62.7614 239.214 62.7111 239.184 62.6495C239.154 62.5879 239.145 62.5174 239.159 62.4463L239.361 61.3761C239.38 61.2774 239.442 61.1846 239.532 61.1179C239.622 61.0513 239.733 61.0163 239.84 61.0207C239.948 61.0251 240.044 61.0685 240.106 61.1414C240.169 61.2143 240.193 61.3106 240.173 61.4093L239.971 62.4794C239.962 62.5284 239.942 62.5766 239.913 62.6211C239.884 62.6657 239.846 62.7056 239.801 62.7387C239.757 62.7718 239.706 62.7974 239.653 62.8139C239.6 62.8304 239.545 62.8375 239.492 62.8348C239.433 62.8339 239.377 62.8201 239.329 62.7945Z" fill="#080C53"/>
<path d="M242.791 114.956C242.541 115.242 242.672 115.67 242.938 115.941C244.077 117.1 244.417 117.484 246.226 117.484C248.107 117.484 248.366 117.155 249.617 115.895C249.805 115.706 249.938 115.442 249.858 115.188C249.564 114.247 248.103 114.83 246.305 114.83C244.599 114.83 243.419 114.239 242.791 114.956Z" fill="white"/>
<path d="M242.482 107.835C242.388 107.801 242.306 107.736 242.246 107.648C242.187 107.559 242.152 107.451 242.145 107.336L242.045 105.601C242.037 105.441 242.085 105.278 242.178 105.149C242.272 105.019 242.403 104.934 242.544 104.911C242.684 104.888 242.822 104.929 242.928 105.026C243.033 105.123 243.097 105.268 243.105 105.428L243.205 107.162C243.209 107.242 243.2 107.323 243.178 107.401C243.155 107.479 243.12 107.552 243.073 107.616C243.027 107.68 242.97 107.734 242.907 107.775C242.844 107.816 242.776 107.842 242.706 107.853C242.63 107.868 242.553 107.862 242.482 107.835Z" fill="#080C53"/>
<path d="M249.256 107.654C249.169 107.625 249.093 107.567 249.037 107.488C248.981 107.408 248.947 107.31 248.94 107.205L248.857 105.605C248.852 105.533 248.859 105.459 248.879 105.388C248.898 105.316 248.93 105.249 248.971 105.19C249.013 105.13 249.063 105.08 249.12 105.042C249.177 105.004 249.239 104.979 249.303 104.968C249.431 104.948 249.557 104.986 249.653 105.075C249.75 105.163 249.809 105.295 249.817 105.441L249.915 107.031C249.921 107.178 249.877 107.326 249.792 107.445C249.706 107.563 249.587 107.642 249.458 107.665C249.39 107.682 249.32 107.679 249.256 107.654Z" fill="#080C53"/>
<path d="M244.372 63.5733C244.312 63.5442 244.265 63.4991 244.236 63.4433C244.207 63.3874 244.198 63.3232 244.209 63.258L244.403 62.2722C244.411 62.2275 244.428 62.1835 244.453 62.1426C244.479 62.1018 244.513 62.0649 244.553 62.0342C244.594 62.0035 244.639 61.9796 244.687 61.9638C244.736 61.948 244.785 61.9408 244.834 61.9424C244.933 61.9471 245.02 61.987 245.077 62.0535C245.134 62.12 245.157 62.2078 245.14 62.298L244.959 63.2802C244.94 63.3703 244.884 63.455 244.802 63.516C244.72 63.577 244.618 63.6094 244.52 63.6063C244.466 63.608 244.415 63.5966 244.372 63.5733Z" fill="#080C53"/>
<path d="M145.473 261.888C145.507 261.821 145.414 261.765 145.373 261.828C144.302 263.419 143.505 265.139 142.83 266.93C142.5 267.802 142.199 268.68 141.921 269.563C140.991 267.98 139.726 266.623 137.887 266.107C136.237 265.644 134.569 265.881 133.023 266.482C133.026 266.411 132.978 266.341 132.893 266.374C131.981 266.719 131.128 267.301 130.327 267.85C129.552 268.376 128.803 268.944 128.08 269.541C126.478 270.875 125.169 272.477 123.631 273.875C122.815 274.617 121.921 275.277 121.132 276.048C120.39 276.767 119.741 277.568 119.107 278.376C117.75 280.097 116.438 281.854 115.11 283.597C113.534 285.662 111.981 287.746 110.453 289.844C110.405 289.911 110.516 289.993 110.564 289.93C113.342 286.485 116.022 282.963 118.722 279.459C120.03 277.757 121.436 276.263 123.089 274.891C124.665 273.586 125.959 272.006 127.468 270.631C128.306 269.867 129.185 269.155 130.105 268.491C130.776 268.009 131.495 267.59 132.188 267.134C133.838 266.445 135.67 266.133 137.42 266.615C139.526 267.197 140.694 268.844 141.58 270.727C141.413 271.328 141.254 271.928 141.117 272.54C140.223 276.53 139.711 280.631 139.515 284.713C139.407 286.956 139.4 289.207 139.789 291.424C139.645 291.969 140.894 292.247 140.709 291.391C140.271 289.385 140.205 287.334 140.249 285.288C140.29 283.271 140.423 281.261 140.624 279.255C140.883 276.66 141.317 274.064 141.918 271.513C142.615 273.311 142.841 275.184 142.848 277.13C142.856 279.455 142.759 281.784 142.707 284.109C142.678 285.421 142.644 286.73 142.615 288.042C142.6 288.699 142.581 289.355 142.566 290.011C142.552 290.664 142.44 291.372 142.659 292.002C142.815 292.447 143.378 292.421 143.545 292.002C143.775 291.409 143.697 290.734 143.708 290.108C143.716 289.451 143.727 288.795 143.734 288.143C143.753 286.897 143.771 285.647 143.79 284.401C143.831 281.888 143.931 279.366 143.886 276.849C143.842 274.505 143.349 272.27 142.262 270.182C142.259 270.175 142.255 270.167 142.251 270.156C142.451 269.389 142.659 268.625 142.896 267.865C143.545 265.799 144.48 263.812 145.473 261.888Z" fill="#C9E4FF"/>
<path d="M130.901 286.805C130.901 286.805 141.072 288.811 155.662 287.606C155.662 287.606 156.463 304.958 152.18 315.588H133.044C133.044 315.588 128.224 305.258 130.901 286.805Z" fill="#C9E4FF"/>
<path d="M142.995 272.785C140.478 267.416 131.434 267.668 131.434 267.668C131.683 264.754 128.928 259.355 122.851 257.79C119.603 256.956 116.344 259.322 113.867 262.733C119.321 262.581 125.498 263.237 126.355 265.921C127.282 268.817 124.29 266.192 120.226 265.165C117.137 264.39 114.564 264.342 112.328 265.158C111.983 265.781 111.668 266.415 111.379 267.056C116.162 267.731 120.815 269.125 121.264 271.539C121.816 274.527 119.18 271.546 115.276 270.022C113.619 269.373 112.095 268.973 110.663 268.84C110.204 270.134 109.87 271.416 109.707 272.607C109.614 273.256 109.536 273.971 109.47 274.731C112.899 275.002 115.762 275.81 116.37 277.553C117.375 280.419 114.312 277.875 110.222 276.96C109.914 276.893 109.614 276.834 109.314 276.778C109.221 278.291 109.162 279.9 109.121 281.494C110.363 281.728 111.309 282.191 111.754 282.977C112.803 284.824 111.427 284.427 109.077 283.96C109.021 288.717 109.128 292.758 109.128 292.758C109.774 292.317 112.028 291.709 115.005 291.02C115.313 287.412 114.527 284.52 116.592 286.318C117.493 287.1 117.675 288.617 117.419 290.474C119.01 290.126 120.715 289.763 122.439 289.399C122.439 288.728 122.406 288.031 122.332 287.297C121.924 283.129 119.77 279.781 122.495 281.123C124.256 281.991 124.66 285.261 124.419 288.977C125.569 288.732 126.707 288.487 127.812 288.246C128.435 286.34 128.509 284.13 128.112 281.513C127.482 277.371 125.157 274.142 127.949 275.339C130.493 276.433 130.597 282.429 129.962 287.768C131.257 287.475 132.465 287.189 133.533 286.919C134.2 286.748 134.842 286.541 135.457 286.3C135.888 284.056 135.495 281.602 134.371 278.762C132.832 274.865 129.84 272.236 132.832 272.781C135.691 273.3 137.141 279.692 137.66 285.239C142.647 282.328 145.02 277.093 142.995 272.785ZM141.357 279.092C140.726 280.1 139.948 275.795 141.353 275.614C142.035 275.528 141.983 278.079 141.357 279.092Z" fill="#C9E4FF"/>
<path d="M149.641 288.788C150.772 284.346 152.77 279.337 155.162 279.282C157.661 279.222 154.895 280.972 153.141 283.942C151.865 286.108 151.231 288.054 151.294 289.934C151.765 290.205 152.258 290.457 152.781 290.683C153.612 291.039 154.561 291.425 155.573 291.829C155.744 287.409 156.593 282.548 158.799 281.985C161.224 281.365 158.918 283.694 157.879 286.979C157.219 289.059 156.997 290.865 157.26 292.492C158.128 292.83 159.021 293.175 159.926 293.52C160.208 290.468 160.953 287.861 162.496 287.383C164.883 286.638 162.703 289.085 161.836 292.422C161.684 293.008 161.565 293.571 161.48 294.116C162.837 294.632 164.179 295.147 165.425 295.633C165.454 294.091 165.799 292.882 166.63 292.359C168.536 291.165 167.531 293.412 167.319 296.386C169.652 297.327 171.402 298.11 171.873 298.551C171.873 298.551 172.477 295.277 173.04 291.406C171.072 291.484 169.9 291.629 170.986 290.264C171.45 289.682 172.277 289.426 173.319 289.393C173.489 288.091 173.645 286.779 173.764 285.537C173.515 285.544 173.263 285.551 173.003 285.57C169.563 285.789 166.748 287.465 167.931 285.262C168.647 283.924 171.079 283.631 173.901 283.853C173.945 283.227 173.971 282.637 173.982 282.096C173.997 281.106 173.893 280.023 173.682 278.911C172.503 278.837 171.213 278.966 169.781 279.282C166.415 280.023 163.89 282.107 164.72 279.749C165.395 277.843 169.355 277.305 173.33 277.372C173.178 276.812 173.003 276.256 172.803 275.707C171.086 274.758 168.992 274.465 166.381 274.702C162.948 275.014 160.178 276.768 161.302 274.532C162.344 272.459 167.445 272.719 171.861 273.535C170.286 270.45 167.939 268.106 165.191 268.373C160.052 268.866 157.123 272.904 156.949 275.303C156.949 275.303 149.633 273.942 146.897 277.984C144.702 281.228 145.959 285.785 149.641 288.788ZM147.872 280.494C148.988 280.82 147.805 284.22 147.423 283.319C147.041 282.418 147.327 280.335 147.872 280.494Z" fill="#C9E4FF"/>
<path d="M159.762 265.003C155.235 265.744 149.844 265.922 148.835 263.757C147.778 261.491 150.492 263.323 153.918 263.738C156.414 264.039 158.449 263.842 160.148 263.034C160.211 262.492 160.244 261.94 160.24 261.373C160.237 260.464 160.211 259.445 160.173 258.354C156.054 259.971 151.256 261.135 149.855 259.341C148.32 257.368 151.375 258.547 154.805 258.184C156.974 257.954 158.72 257.435 160.107 256.541C160.07 255.614 160.025 254.658 159.981 253.694C157.07 254.658 154.382 255.017 153.325 253.798C151.686 251.907 154.801 252.923 158.208 252.381C158.805 252.285 159.373 252.17 159.903 252.029C159.836 250.579 159.769 249.148 159.717 247.81C158.29 248.399 157.044 248.57 156.232 248.017C154.371 246.749 156.836 246.771 159.647 245.774C159.577 243.264 159.591 241.343 159.81 240.739C159.81 240.739 156.566 241.495 152.791 242.53C153.651 244.302 154.252 245.314 152.565 244.866C151.846 244.676 151.279 244.02 150.834 243.078C149.573 243.442 148.305 243.827 147.118 244.217C147.226 244.443 147.333 244.669 147.452 244.899C149.035 247.962 151.697 249.867 149.202 249.667C147.689 249.545 146.447 247.439 145.517 244.765C144.927 244.977 144.375 245.188 143.878 245.396C142.962 245.778 142.009 246.308 141.075 246.946C141.483 248.054 142.117 249.181 142.977 250.368C145.005 253.152 147.93 254.632 145.435 254.814C143.418 254.962 141.338 251.551 139.807 247.884C139.354 248.247 138.913 248.633 138.49 249.033C138.309 250.983 138.88 253.019 140.14 255.314C141.805 258.336 144.519 260.171 142.02 260.038C139.703 259.912 137.897 255.136 136.877 250.765C134.679 253.445 133.47 256.53 134.812 258.94C137.326 263.449 142.202 264.517 144.471 263.712C144.471 263.712 146.151 270.957 150.952 271.843C154.808 272.555 158.483 269.578 159.762 265.003ZM152.865 269.949C152.717 268.792 156.31 268.514 155.635 269.226C154.96 269.938 152.94 270.509 152.865 269.949Z" fill="#C9E4FF"/>
<path d="M157.693 242.689C156.529 243.512 155.762 244.68 155.02 245.874C154.112 247.342 153.207 248.814 152.332 250.305C151.457 251.795 150.597 253.293 149.748 254.799C148.898 256.308 148.153 257.865 147.33 259.385C147.326 259.396 147.33 259.408 147.33 259.415C147.312 259.422 147.293 259.434 147.286 259.452C146.359 261.158 145.25 262.719 144.234 264.365C143.17 266.093 142.402 267.965 141.579 269.815C141.438 270.134 141.898 270.331 142.028 270.001C142.781 268.091 143.607 266.182 144.679 264.424C145.643 262.845 146.915 261.35 147.456 259.556C147.486 259.552 147.512 259.537 147.53 259.5C148.32 258.039 149.206 256.627 150.018 255.177C150.845 253.698 151.687 252.226 152.54 250.757C153.377 249.322 154.212 247.884 155.065 246.453C155.839 245.155 156.581 243.761 157.79 242.808C157.856 242.756 157.767 242.637 157.693 242.689Z" fill="#C9E4FF"/>
<path d="M170.728 295.64C170.231 294.969 170.213 294.02 169.927 293.252C169.642 292.485 169.167 291.817 168.822 291.083C168.514 290.434 168.488 289.611 167.851 289.177C167.002 288.591 166.479 287.839 165.871 287.023C165.808 286.938 165.682 287.008 165.726 287.108C166.071 287.865 166.701 288.521 167.295 289.096C167.632 289.422 167.954 289.741 168.088 290.201C168.199 290.571 168.318 290.927 168.488 291.276C168.848 292.017 169.341 292.681 169.716 293.415C170.098 294.157 170.042 295.058 170.557 295.74C170.635 295.836 170.806 295.74 170.728 295.64Z" fill="#C9E4FF"/>
<path d="M165.278 286.174C163.35 284.498 161.871 282.492 160.714 280.223C160.146 279.111 159.575 278.024 158.786 277.053C158.422 276.601 158.014 276.189 157.577 275.807C157.195 275.47 156.824 275.084 156.294 275.073C156.335 274.965 156.29 274.821 156.135 274.813C155.934 274.806 155.73 274.799 155.526 274.788C155.426 274.78 155.33 274.773 155.23 274.776C155.122 274.78 155.004 274.787 154.926 274.858C154.852 274.895 154.744 274.895 154.744 275.003C154.744 275.11 154.852 275.11 154.926 275.143C155.004 275.218 155.122 275.225 155.23 275.229C155.33 275.232 155.426 275.225 155.526 275.218C155.73 275.206 155.934 275.199 156.135 275.192C156.161 275.188 156.172 275.173 156.194 275.166C156.194 275.166 156.19 275.166 156.194 275.166C156.383 275.674 156.846 275.915 157.236 276.263C157.688 276.667 158.111 277.105 158.504 277.568C159.346 278.558 159.924 279.708 160.562 280.835C161.733 282.911 163.32 284.776 165.141 286.311C165.237 286.389 165.371 286.256 165.278 286.174Z" fill="#C9E4FF"/>
<rect x="77.9062" y="315.792" width="86.3827" height="73.6377" fill="#FFDFBF"/>
<rect x="77.9062" y="315.792" width="2.83222" height="73.6377" fill="#F7CDA3"/>
<rect x="77.9062" y="386.598" width="86.3827" height="2.83222" fill="#F7CDA3"/>
<path d="M410.682 141C411.475 140.193 412.181 139.271 412.783 138.278C413.384 137.294 413.864 136.222 414.239 135.113C414.605 133.996 414.84 132.826 414.928 131.647C415.032 130.477 415.023 129.289 414.901 128.101C414.771 126.922 414.527 125.761 414.178 124.626C413.838 123.491 413.376 122.392 412.853 121.337C412.722 121.08 412.591 120.814 412.452 120.557L412.234 120.167C412.164 120.043 412.077 119.91 411.998 119.786C411.684 119.254 411.318 118.775 410.943 118.305C410.176 117.392 409.331 116.585 408.529 115.796C407.718 115.007 406.933 114.227 406.201 113.394C406.009 113.19 405.835 112.977 405.66 112.764L405.39 112.454L405.137 112.126C404.963 111.913 404.788 111.692 404.632 111.47L404.387 111.133L404.257 110.965C404.222 110.911 404.187 110.858 404.152 110.805C403.577 109.945 403.141 108.917 402.653 107.88C402.417 107.356 402.164 106.825 401.894 106.302C401.763 106.044 401.606 105.787 401.458 105.53C401.319 105.264 401.144 105.025 400.987 104.777C400.316 103.784 399.514 102.888 398.616 102.117C398.145 101.763 397.692 101.381 397.178 101.098L396.811 100.867C396.689 100.787 396.559 100.716 396.428 100.654L395.652 100.264C395.399 100.122 395.129 100.025 394.859 99.9185L394.056 99.5994C393.516 99.4132 392.967 99.2359 392.4 99.1295C391.833 99.0143 391.249 98.9611 390.674 99.032C390.09 99.0941 389.567 99.3068 389 99.3157C389.279 99.36 389.567 99.3423 389.846 99.3246C390.133 99.298 390.412 99.2714 390.683 99.2803C391.232 99.2803 391.772 99.3955 392.295 99.5639C392.819 99.7324 393.324 99.9451 393.83 100.185L394.571 100.566C394.815 100.69 395.068 100.814 395.294 100.965L396.001 101.399C396.114 101.47 396.227 101.55 396.341 101.63L396.672 101.878C397.125 102.188 397.518 102.569 397.927 102.924C398.703 103.686 399.375 104.537 399.932 105.468C400.499 106.399 400.944 107.41 401.371 108.456C401.807 109.502 402.234 110.601 402.905 111.665C402.94 111.727 402.984 111.798 403.027 111.86L403.149 112.037L403.402 112.392C403.568 112.631 403.751 112.871 403.925 113.101L404.187 113.447L404.466 113.793C404.649 114.014 404.832 114.245 405.033 114.458C405.791 115.344 406.611 116.169 407.43 116.966C408.25 117.755 409.052 118.527 409.749 119.342C410.089 119.759 410.42 120.176 410.699 120.628C410.769 120.743 410.848 120.84 410.917 120.965L411.118 121.328C411.257 121.567 411.388 121.807 411.519 122.046C412.042 123.021 412.487 124.032 412.853 125.069C413.21 126.115 413.489 127.188 413.663 128.278C413.838 129.369 413.916 130.477 413.89 131.594C413.873 132.702 413.751 133.801 413.489 134.892C413.245 135.982 412.87 137.046 412.391 138.066C412.164 138.58 411.894 139.085 411.606 139.573C411.327 140.06 411.013 140.539 410.682 141Z" fill="#08294A"/>
<path d="M386.056 103.054C383.583 103.288 380.8 105.723 380.167 108.337C379.635 110.538 379.24 113.027 379.11 114.378C378.751 118.077 379.283 121.128 380.498 124.195C381.699 127.207 384.043 128.971 384.999 129.533C385.711 129.954 387.084 130.251 388.098 129.697C389.608 128.87 390.967 128.214 392.419 126.333C393.85 124.484 395.022 122.486 395.446 119.013C395.633 117.523 395.626 115.868 395.835 114.573C396.503 110.468 395.008 107.986 393.785 105.887C393.009 104.545 390.255 102.656 386.056 103.054Z" fill="#FD9783"/>
<path d="M386.347 101.173C386.347 101.173 386.468 101.227 386.589 101.309C387.367 101.827 387.981 103.507 387.998 105.533C388.015 106.532 387.92 107.258 387.687 108.167C386.589 112.49 381.007 112.063 379.036 116.123C377.369 119.547 376.764 117.522 376.513 116.041C375.415 109.656 375.338 104.742 384.057 101.182C384.61 100.955 385.768 100.928 386.347 101.173Z" fill="#08294A"/>
<path d="M388.181 101.408C389.028 101.066 393 99.4928 397.911 106.119C400.654 109.82 399.989 114.789 399.765 116.668C399.59 118.139 398.659 119 398.501 119C398.327 119 398.759 116.807 397.504 114.336C395.053 109.506 389.078 111.976 387.275 105.239C387.042 104.351 386.951 103.352 387.026 102.223C387.059 101.686 387.715 101.584 388.181 101.408Z" fill="#08294A"/>
<path d="M376.172 112.479C376.234 112.269 376.43 111.009 377.775 111C379.111 111 381.311 113.634 380.963 115.437C380.607 117.231 380.117 119.261 378.674 118.972C377.232 118.684 375.433 114.921 376.172 112.479Z" fill="#FD9783"/>
<path d="M393 132.532C387.911 132.106 389.701 128.375 389.443 117.217C389.443 117.217 378.901 112.19 380.612 114.456C382.324 116.722 379.619 130.411 379.323 132.532C379.186 133.507 377.592 133.909 375.499 136C379.208 139.525 382.115 143.835 391.999 139.5C398.429 136.671 395.444 134.552 393 132.532Z" fill="#FD9783"/>
<path d="M387.167 123.286C386.95 123.517 387.013 123.877 387.177 124.148C387.768 125.123 387.958 125.447 389.085 125.578C390.26 125.715 390.464 125.479 391.344 124.594C391.504 124.433 391.627 124.22 391.594 123.995C391.484 123.244 390.512 123.596 389.382 123.464C388.317 123.34 387.63 122.793 387.167 123.286Z" fill="white"/>
<path d="M387.78 116.71C387.699 116.669 387.633 116.603 387.589 116.518C387.545 116.434 387.525 116.334 387.532 116.23L387.623 114.676C387.632 114.532 387.692 114.392 387.788 114.287C387.885 114.181 388.011 114.119 388.138 114.113C388.266 114.107 388.385 114.158 388.468 114.255C388.552 114.353 388.594 114.488 388.584 114.631L388.493 116.186C388.489 116.257 388.472 116.328 388.444 116.395C388.416 116.462 388.377 116.524 388.329 116.576C388.281 116.629 388.225 116.671 388.165 116.701C388.104 116.73 388.041 116.747 387.977 116.749C387.908 116.754 387.84 116.741 387.78 116.71Z" fill="#080C53"/>
<path d="M392.828 117.252C392.754 117.217 392.692 117.158 392.65 117.081C392.609 117.005 392.589 116.914 392.593 116.819L392.686 115.386C392.688 115.321 392.703 115.256 392.727 115.195C392.752 115.133 392.787 115.077 392.83 115.028C392.873 114.98 392.924 114.94 392.978 114.912C393.033 114.884 393.091 114.868 393.148 114.865C393.265 114.861 393.373 114.908 393.449 114.997C393.526 115.085 393.565 115.209 393.557 115.34L393.479 116.766C393.47 116.897 393.415 117.025 393.327 117.121C393.238 117.218 393.124 117.276 393.007 117.282C392.944 117.291 392.882 117.28 392.828 117.252Z" fill="#080C53"/>
</svg>
