<svg width="21" height="18" viewBox="0 0 21 18" fill="none" xmlns="http://www.w3.org/2000/svg">
<path d="M19.9235 8.453C17.9035 3.47586 14.1035 0.387695 10.0035 0.387695C5.90348 0.387695 2.10348 3.47586 0.0834847 8.453C0.0284214 8.5869 0 8.73141 0 8.87749C0 9.02358 0.0284214 9.16809 0.0834847 9.30198C2.10348 14.2791 5.90348 17.3673 10.0035 17.3673C14.1035 17.3673 17.9035 14.2791 19.9235 9.30198C19.9785 9.16809 20.007 9.02358 20.007 8.87749C20.007 8.73141 19.9785 8.5869 19.9235 8.453ZM10.0035 15.2448C6.83348 15.2448 3.83348 12.8146 2.10348 8.87749C3.83348 4.94035 6.83348 2.51015 10.0035 2.51015C13.1735 2.51015 16.1735 4.94035 17.9035 8.87749C16.1735 12.8146 13.1735 15.2448 10.0035 15.2448ZM10.0035 4.6326C9.21235 4.6326 8.439 4.88155 7.7812 5.34799C7.1234 5.81443 6.61071 6.47739 6.30796 7.25304C6.00521 8.0287 5.926 8.8822 6.08034 9.70563C6.23468 10.5291 6.61564 11.2854 7.17505 11.8791C7.73446 12.4728 8.44719 12.877 9.22312 13.0408C9.99904 13.2046 10.8033 13.1206 11.5342 12.7993C12.2651 12.478 12.8898 11.9339 13.3294 11.2358C13.7689 10.5378 14.0035 9.71706 14.0035 8.87749C14.0035 7.75168 13.582 6.67197 12.8319 5.8759C12.0818 5.07982 11.0643 4.6326 10.0035 4.6326ZM10.0035 10.9999C9.60792 10.9999 9.22124 10.8755 8.89234 10.6422C8.56344 10.409 8.3071 10.0775 8.15572 9.68972C8.00435 9.30189 7.96474 8.87514 8.04191 8.46343C8.11908 8.05171 8.30956 7.67353 8.58927 7.3767C8.86897 7.07987 9.22534 6.87772 9.6133 6.79583C10.0013 6.71393 10.4034 6.75596 10.7688 6.91661C11.1343 7.07725 11.4467 7.34929 11.6664 7.69833C11.8862 8.04736 12.0035 8.45771 12.0035 8.87749C12.0035 9.4404 11.7928 9.98026 11.4177 10.3783C11.0426 10.7763 10.5339 10.9999 10.0035 10.9999Z" fill="#4B4B4B"/>
</svg>
