<svg width="62" height="62" viewBox="0 0 62 62" fill="none" xmlns="http://www.w3.org/2000/svg">
<path d="M31 0.9375C14.3518 0.9375 0.9375 14.3518 0.9375 31C0.9375 47.6481 14.3518 61.0625 31 61.0625C47.6481 61.0625 61.0625 47.6481 61.0625 31C61.0625 27.7662 60.629 24.5412 59.4727 21.5332L55.7148 25.2187C56.1754 27.0706 56.4375 28.9224 56.4375 31C56.4375 45.1099 45.1099 56.4375 31 56.4375C16.8901 56.4375 5.5625 45.1099 5.5625 31C5.5625 16.8901 16.8901 5.5625 31 5.5625C37.9375 5.5625 44.1705 8.32665 48.5605 12.7168L51.8125 9.46483C46.4919 4.14429 39.0937 0.9375 31 0.9375ZM57.0878 10.8379L31 36.9259L21.0996 27.0253L17.7754 30.3497L29.3378 41.9122L31 43.502L32.6622 41.9122L60.4122 14.1621L57.0878 10.8379Z" fill="#007BFC"/>
</svg>
