<svg width="696" height="531" viewBox="0 0 696 531" fill="none" xmlns="http://www.w3.org/2000/svg">
<g clip-path="url(#clip0_2725_22858)">
<path d="M683.66 529.308L69.4103 527.72C61.7884 500.008 55.7578 471.754 51.3573 443.138C51.3573 442.865 51.2777 442.591 51.2458 442.317C49.3293 429.623 47.985 416.823 47.2181 403.97V403.149C46.3033 389.412 46.8378 375.598 48.8101 362.008L48.9534 361.187C51.8667 344.259 58.155 331.313 69.4899 326.018C71.2729 325.178 73.0719 324.191 74.9026 323.352L76.4946 322.53C126.881 295.98 193.999 230.498 194.97 170.879C195.087 159.135 196.592 147.464 199.443 136.185C199.443 135.892 199.587 135.618 199.666 135.345C202.914 122.998 208.105 111.438 214.981 101.235L215.554 100.395C225.232 86.7669 237.258 75.5773 250.88 67.5262L252.249 66.6863C266.943 57.8483 284.949 50.672 306.791 45.5592L307.507 45.3949C316.847 43.2402 326.903 41.4689 337.675 40.0811C351.573 38.2551 365.2 35.7717 378.446 32.7771L379.162 32.6127C468.186 12.5265 539.156 -26.3312 552.481 27.6459C567.828 89.7306 565.217 234.57 622.831 255.369C680.444 276.167 683.66 529.308 683.66 529.308Z" fill="#DEFCFF"/>
<path d="M662.694 527.72H584.925L575.374 426.284C575.264 425.123 575.369 423.948 575.681 422.836C575.994 421.723 576.507 420.699 577.187 419.83C577.867 418.96 578.699 418.264 579.629 417.787C580.56 417.311 581.567 417.064 582.585 417.063H663.076C664.081 417.061 665.075 417.299 665.996 417.762C666.917 418.224 667.744 418.9 668.425 419.748C669.106 420.596 669.626 421.597 669.952 422.688C670.278 423.778 670.403 424.935 670.319 426.083L662.694 527.72Z" fill="#B2EBF2"/>
<path d="M662.996 416.99H660.752C661.734 418.583 662.191 420.524 662.041 422.468L654.511 524.068H584.591L584.926 527.61H662.694L670.24 425.974C670.319 424.828 670.19 423.676 669.862 422.589C669.534 421.503 669.013 420.507 668.333 419.663C667.652 418.819 666.827 418.146 665.909 417.686C664.99 417.226 663.999 416.989 662.996 416.99Z" fill="#8DD8E0"/>
<path d="M605.534 453.531L588.146 450.347L587.08 458.011L604.467 461.195L605.534 453.531Z" fill="#8DD8E0"/>
<path d="M587.027 458.075L584.384 477.011L586.677 477.431L588.539 469.817L588.332 477.742L596.07 479.148L597.232 477.194L597.47 479.421L601.769 480.207L604.411 461.271L587.027 458.075Z" fill="#65CCD6"/>
<path d="M588.094 450.424L605.478 453.602C605.478 453.602 599.11 451.776 598.489 448.123C597.868 444.471 603.743 437.624 604.348 431.945C604.953 426.266 601.848 424.641 600.304 424.385C598.76 424.13 595.019 423.929 594.207 430.393C593.347 437.277 596.675 444.289 595.146 447.521C593.618 450.753 588.094 450.424 588.094 450.424ZM599.397 431.781C598.649 431.781 598.139 430.575 598.282 429.315C598.426 428.055 599.126 427.124 599.874 427.234C600.623 427.343 601.132 428.439 600.989 429.699C600.845 430.959 600.145 431.89 599.429 431.781H599.397Z" fill="#8DD8E0"/>
<path d="M610.27 527.72H566.188L560.727 470.218C560.665 469.56 560.724 468.893 560.901 468.262C561.078 467.632 561.369 467.051 561.755 466.558C562.142 466.065 562.614 465.671 563.142 465.402C563.67 465.133 564.241 464.995 564.819 464.996H610.445C611.015 464.993 611.58 465.127 612.102 465.389C612.625 465.65 613.094 466.034 613.48 466.515C613.867 466.996 614.162 467.563 614.346 468.182C614.531 468.801 614.601 469.457 614.552 470.109L610.27 527.72Z" fill="#8DD8E0"/>
<path d="M610.445 464.923H607.739C608.11 465.403 608.394 465.964 608.571 466.573C608.749 467.182 608.818 467.825 608.774 468.465L604.491 526.076H565.997L566.156 527.647H610.238L614.521 470.036C614.569 469.387 614.5 468.734 614.317 468.118C614.135 467.502 613.843 466.935 613.46 466.455C613.077 465.975 612.611 465.591 612.092 465.327C611.573 465.063 611.013 464.926 610.445 464.923Z" fill="#65CCD6"/>
<path d="M651.662 487.401L628.119 491.649L629.542 502.021L653.084 497.773L651.662 487.401Z" fill="#8DD8E0"/>
<path d="M629.549 502.009L633.067 527.647L636.156 527.099L635.789 516.398L638.416 526.697L648.875 524.798L649.671 521.73L650.786 524.451L656.597 523.41L653.094 497.773L629.549 502.009Z" fill="#65CCD6"/>
<path d="M628.084 491.656L651.629 487.401C651.629 487.401 642.842 488.168 640.645 483.749C638.448 479.33 643.574 467.698 642.237 460.102C640.899 452.506 636.362 451.94 634.277 452.323C632.494 452.634 627.304 454.277 628.609 462.987C630.01 472.245 636.872 479.659 636.076 484.552C635.28 489.446 628.084 491.656 628.084 491.656ZM635.821 462.239C634.818 462.458 633.783 461.289 633.497 459.591C633.21 457.893 633.783 456.377 634.786 456.14C635.789 455.902 636.84 457.107 637.126 458.787C637.413 460.467 636.872 461.983 635.869 462.239H635.821Z" fill="#8DD8E0"/>
<path d="M379.082 32.4118V67.3071H250.785L252.154 66.4671H378.35V32.5762L379.082 32.4118Z" fill="#8DD8E0"/>
<path d="M411.575 71.5252V101.107H214.901L215.474 100.267H410.81V71.5252C410.799 71.464 410.8 71.4007 410.813 71.3399C410.825 71.2791 410.85 71.2223 410.884 71.1737C410.918 71.1251 410.962 71.0859 411.011 71.059C411.06 71.0321 411.114 71.0181 411.169 71.0181C411.223 71.0181 411.277 71.0321 411.326 71.059C411.375 71.0859 411.419 71.1251 411.453 71.1737C411.487 71.2223 411.512 71.2791 411.525 71.3399C411.537 71.4007 411.538 71.464 411.527 71.5252H411.575Z" fill="#8DD8E0"/>
<path d="M341.432 101.107C341.335 101.107 341.242 101.062 341.173 100.984C341.105 100.905 341.066 100.798 341.066 100.687V66.8871C341.055 66.8259 341.055 66.7626 341.068 66.7018C341.081 66.641 341.105 66.5842 341.14 66.5356C341.174 66.487 341.217 66.4478 341.267 66.4209C341.316 66.394 341.37 66.38 341.424 66.38C341.479 66.38 341.533 66.394 341.582 66.4209C341.631 66.4478 341.674 66.487 341.709 66.5356C341.743 66.5842 341.768 66.641 341.78 66.7018C341.793 66.7626 341.794 66.8259 341.782 66.8871V100.687C341.785 100.741 341.777 100.795 341.761 100.846C341.744 100.897 341.718 100.943 341.686 100.983C341.653 101.022 341.614 101.053 341.57 101.074C341.526 101.096 341.48 101.107 341.432 101.107Z" fill="#8DD8E0"/>
<path d="M270.796 101.107C270.699 101.107 270.606 101.062 270.537 100.984C270.468 100.905 270.43 100.798 270.43 100.687V66.8871C270.43 66.7757 270.468 66.6689 270.537 66.5901C270.606 66.5114 270.699 66.4671 270.796 66.4671C270.893 66.4671 270.986 66.5114 271.055 66.5901C271.123 66.6689 271.162 66.7757 271.162 66.8871V100.687C271.162 100.742 271.152 100.796 271.134 100.847C271.116 100.898 271.089 100.945 271.055 100.984C271.021 101.023 270.98 101.054 270.936 101.075C270.891 101.096 270.844 101.107 270.796 101.107Z" fill="#8DD8E0"/>
<path d="M379.083 100.687V136.057H199.364C199.364 135.765 199.507 135.491 199.587 135.217H378.366V100.687C378.355 100.626 378.355 100.562 378.368 100.501C378.381 100.441 378.405 100.384 378.44 100.335C378.474 100.287 378.517 100.247 378.567 100.221C378.616 100.194 378.67 100.18 378.724 100.18C378.779 100.18 378.833 100.194 378.882 100.221C378.931 100.247 378.974 100.287 379.009 100.335C379.043 100.384 379.068 100.441 379.08 100.501C379.093 100.562 379.094 100.626 379.083 100.687Z" fill="#8DD8E0"/>
<path d="M307.061 136.057C306.967 136.052 306.878 136.006 306.813 135.927C306.747 135.849 306.711 135.745 306.711 135.637V100.687C306.7 100.626 306.7 100.562 306.713 100.501C306.726 100.441 306.75 100.384 306.785 100.335C306.819 100.287 306.862 100.247 306.912 100.221C306.961 100.194 307.015 100.18 307.069 100.18C307.124 100.18 307.178 100.194 307.227 100.221C307.276 100.247 307.319 100.287 307.354 100.335C307.388 100.384 307.413 100.441 307.425 100.501C307.438 100.562 307.439 100.626 307.428 100.687V135.637C307.428 135.748 307.389 135.855 307.32 135.934C307.252 136.012 307.158 136.057 307.061 136.057Z" fill="#8DD8E0"/>
<path d="M235.406 136.057C235.312 136.052 235.223 136.006 235.157 135.927C235.092 135.849 235.056 135.745 235.056 135.637V100.687C235.044 100.626 235.045 100.562 235.058 100.501C235.071 100.441 235.095 100.384 235.13 100.335C235.164 100.287 235.207 100.247 235.256 100.221C235.306 100.194 235.359 100.18 235.414 100.18C235.468 100.18 235.522 100.194 235.572 100.221C235.621 100.247 235.664 100.287 235.698 100.335C235.733 100.384 235.757 100.441 235.77 100.501C235.783 100.562 235.784 100.626 235.772 100.687V135.637C235.772 135.748 235.734 135.855 235.665 135.934C235.596 136.012 235.503 136.057 235.406 136.057Z" fill="#8DD8E0"/>
<path d="M307.428 45.1757V66.8871C307.439 66.9483 307.438 67.0116 307.425 67.0724C307.413 67.1332 307.388 67.19 307.354 67.2386C307.319 67.2872 307.276 67.3264 307.227 67.3533C307.178 67.3802 307.124 67.3942 307.069 67.3942C307.015 67.3942 306.961 67.3802 306.912 67.3533C306.862 67.3264 306.819 67.2872 306.785 67.2386C306.75 67.19 306.726 67.1332 306.713 67.0724C306.7 67.0116 306.7 66.9483 306.711 66.8871V45.3401L307.428 45.1757Z" fill="#8DD8E0"/>
<path d="M115.721 322.84V361.899H48.7305L48.8738 361.077H115.005V322.84C114.993 322.779 114.994 322.716 115.007 322.655C115.02 322.594 115.044 322.537 115.078 322.489C115.113 322.44 115.156 322.401 115.205 322.374C115.254 322.347 115.308 322.333 115.363 322.333C115.417 322.333 115.471 322.347 115.52 322.374C115.57 322.401 115.613 322.44 115.647 322.489C115.682 322.537 115.706 322.594 115.719 322.655C115.732 322.716 115.732 322.779 115.721 322.84Z" fill="#8DD8E0"/>
<path d="M121.978 403.55C121.978 403.657 121.941 403.759 121.875 403.834C121.809 403.91 121.72 403.952 121.627 403.952H47.2183V403.13H121.675C121.762 403.144 121.842 403.195 121.898 403.272C121.954 403.35 121.982 403.45 121.978 403.55Z" fill="#8DD8E0"/>
<path d="M66.9747 403.861C66.8819 403.861 66.7928 403.818 66.7271 403.743C66.6614 403.668 66.6245 403.566 66.6245 403.459V361.552C66.6245 361.445 66.6614 361.343 66.7271 361.268C66.7928 361.192 66.8819 361.15 66.9747 361.15C67.0221 361.148 67.0693 361.156 67.1136 361.175C67.158 361.194 67.1985 361.224 67.2327 361.261C67.2669 361.299 67.2942 361.344 67.3128 361.394C67.3314 361.444 67.3409 361.498 67.3409 361.552V403.55C67.3221 403.644 67.2749 403.726 67.2078 403.783C67.1407 403.84 67.058 403.868 66.9747 403.861Z" fill="#8DD8E0"/>
<path d="M140.524 322.84C140.524 322.895 140.515 322.948 140.496 322.998C140.477 323.048 140.45 323.093 140.416 323.131C140.382 323.169 140.341 323.198 140.297 323.217C140.252 323.236 140.205 323.244 140.158 323.242H74.8867L76.4787 322.42H140.158C140.255 322.42 140.348 322.465 140.417 322.543C140.486 322.622 140.524 322.729 140.524 322.84Z" fill="#8DD8E0"/>
<path d="M115.371 443.065C115.323 443.068 115.276 443.059 115.232 443.04C115.187 443.021 115.147 442.992 115.113 442.954C115.078 442.917 115.051 442.872 115.033 442.822C115.014 442.772 115.004 442.718 115.005 442.664V403.55C114.993 403.489 114.994 403.426 115.007 403.365C115.019 403.304 115.044 403.247 115.078 403.199C115.113 403.15 115.156 403.111 115.205 403.084C115.254 403.057 115.308 403.043 115.363 403.043C115.417 403.043 115.471 403.057 115.52 403.084C115.57 403.111 115.613 403.15 115.647 403.199C115.682 403.247 115.706 403.304 115.719 403.365C115.732 403.426 115.732 403.489 115.721 403.55V442.755C115.703 442.845 115.658 442.925 115.594 442.982C115.53 443.038 115.451 443.068 115.371 443.065Z" fill="#8DD8E0"/>
<path d="M152.798 442.664C152.798 442.718 152.789 442.772 152.77 442.822C152.752 442.872 152.724 442.917 152.69 442.954C152.656 442.992 152.615 443.021 152.571 443.04C152.527 443.059 152.479 443.068 152.432 443.065H51.3573C51.3573 442.792 51.2777 442.518 51.2458 442.244H152.432C152.529 442.244 152.622 442.288 152.691 442.367C152.76 442.445 152.798 442.552 152.798 442.664Z" fill="#8DD8E0"/>
<path d="M412.371 203.583H320.832C319.874 203.583 318.955 203.146 318.277 202.369C317.599 201.592 317.218 200.537 317.218 199.438C317.218 198.339 317.599 197.284 318.277 196.507C318.955 195.73 319.874 195.293 320.832 195.293H412.371C413.329 195.293 414.249 195.73 414.926 196.507C415.604 197.284 415.985 198.339 415.985 199.438C415.985 200.537 415.604 201.592 414.926 202.369C414.249 203.146 413.329 203.583 412.371 203.583Z" fill="#8DD8E0"/>
<path d="M225.775 529.308C225.601 529.304 225.429 529.267 225.265 529.199C225.088 529.122 224.926 529.005 224.788 528.856C224.65 528.707 224.539 528.528 224.462 528.329C224.385 528.13 224.344 527.916 224.339 527.698C224.335 527.481 224.368 527.265 224.437 527.062L334.666 198.835C334.781 198.508 334.984 198.231 335.245 198.044C335.506 197.858 335.812 197.771 336.119 197.798C336.426 197.824 336.717 197.962 336.951 198.191C337.185 198.42 337.35 198.729 337.42 199.073L401.322 527.3C401.365 527.511 401.37 527.729 401.339 527.943C401.307 528.156 401.239 528.361 401.139 528.544C401.038 528.727 400.907 528.886 400.753 529.011C400.598 529.136 400.424 529.224 400.24 529.272C400.054 529.32 399.861 529.326 399.673 529.289C399.485 529.252 399.305 529.173 399.144 529.055C398.983 528.938 398.843 528.786 398.734 528.607C398.624 528.428 398.546 528.226 398.505 528.012L335.637 205.135L227.128 528.341C227.01 528.636 226.818 528.885 226.578 529.057C226.337 529.229 226.058 529.317 225.775 529.308Z" fill="#8DD8E0"/>
<path d="M298.098 529.308C297.935 529.314 297.773 529.283 297.621 529.217C297.26 529.068 296.966 528.762 296.802 528.365C296.638 527.968 296.617 527.513 296.745 527.099L398.632 198.872C398.741 198.541 398.938 198.257 399.195 198.06C399.452 197.864 399.756 197.765 400.065 197.776C400.375 197.796 400.672 197.929 400.913 198.155C401.153 198.382 401.325 198.69 401.402 199.036L471.799 527.263C471.844 527.475 471.853 527.696 471.823 527.912C471.794 528.127 471.728 528.335 471.629 528.521C471.53 528.708 471.4 528.87 471.246 528.999C471.092 529.128 470.918 529.22 470.733 529.272C470.549 529.323 470.358 529.333 470.17 529.299C469.983 529.265 469.804 529.189 469.643 529.075C469.481 528.962 469.341 528.812 469.23 528.636C469.12 528.46 469.04 528.26 468.997 528.048L399.746 205.19L299.547 528.213C299.443 528.552 299.245 528.843 298.984 529.041C298.722 529.239 298.411 529.333 298.098 529.308Z" fill="#8DD8E0"/>
<path d="M411.193 253.652H346.303C345.947 253.609 345.618 253.417 345.378 253.112C345.139 252.806 345.006 252.41 345.006 252C345.006 251.589 345.139 251.193 345.378 250.888C345.618 250.583 345.947 250.39 346.303 250.347H411.256C411.458 250.323 411.662 250.347 411.855 250.419C412.049 250.491 412.226 250.609 412.377 250.765C412.528 250.921 412.649 251.111 412.731 251.324C412.814 251.537 412.857 251.767 412.857 252C412.857 252.233 412.814 252.463 412.731 252.676C412.649 252.888 412.528 253.079 412.377 253.235C412.226 253.391 412.049 253.508 411.855 253.58C411.662 253.652 411.458 253.677 411.256 253.652H411.193Z" fill="#8DD8E0"/>
<path d="M423.817 312.505H357.702C357.346 312.462 357.017 312.269 356.777 311.964C356.538 311.659 356.405 311.263 356.405 310.852C356.405 310.442 356.538 310.046 356.777 309.741C357.017 309.436 357.346 309.243 357.702 309.2H423.817C424.019 309.176 424.223 309.2 424.416 309.272C424.61 309.344 424.787 309.462 424.938 309.617C425.089 309.773 425.21 309.964 425.292 310.177C425.375 310.389 425.418 310.62 425.418 310.852C425.418 311.085 425.375 311.316 425.292 311.528C425.21 311.741 425.089 311.932 424.938 312.087C424.787 312.243 424.61 312.361 424.416 312.433C424.223 312.505 424.019 312.529 423.817 312.505Z" fill="#8DD8E0"/>
<path d="M438.129 379.246H370.709C370.507 379.27 370.303 379.246 370.11 379.174C369.916 379.102 369.739 378.984 369.588 378.828C369.437 378.673 369.316 378.482 369.234 378.269C369.151 378.057 369.108 377.826 369.108 377.593C369.108 377.361 369.151 377.13 369.234 376.918C369.316 376.705 369.437 376.514 369.588 376.359C369.739 376.203 369.916 376.085 370.11 376.013C370.303 375.941 370.507 375.917 370.709 375.941H438.129C438.331 375.917 438.535 375.941 438.728 376.013C438.921 376.085 439.099 376.203 439.25 376.359C439.401 376.514 439.522 376.705 439.604 376.918C439.687 377.13 439.729 377.361 439.729 377.593C439.729 377.826 439.687 378.057 439.604 378.269C439.522 378.482 439.401 378.673 439.25 378.828C439.099 378.984 438.921 379.102 438.728 379.174C438.535 379.246 438.331 379.27 438.129 379.246Z" fill="#8DD8E0"/>
<path d="M453.524 448.562H384.193C383.809 448.562 383.44 448.387 383.168 448.075C382.897 447.763 382.744 447.341 382.744 446.9C382.744 446.459 382.897 446.037 383.168 445.725C383.44 445.413 383.809 445.238 384.193 445.238H453.524C453.908 445.238 454.276 445.413 454.548 445.725C454.82 446.037 454.972 446.459 454.972 446.9C454.972 447.341 454.82 447.763 454.548 448.075C454.276 448.387 453.908 448.562 453.524 448.562Z" fill="#8DD8E0"/>
<path d="M379.91 265.595H314.352C314.15 265.619 313.946 265.594 313.753 265.522C313.56 265.45 313.382 265.333 313.231 265.177C313.08 265.021 312.96 264.831 312.877 264.618C312.795 264.405 312.752 264.175 312.752 263.942C312.752 263.709 312.795 263.479 312.877 263.266C312.96 263.053 313.08 262.863 313.231 262.707C313.382 262.551 313.56 262.434 313.753 262.362C313.946 262.29 314.15 262.265 314.352 262.289H379.91C380.112 262.265 380.316 262.29 380.509 262.362C380.702 262.434 380.88 262.551 381.031 262.707C381.182 262.863 381.303 263.053 381.385 263.266C381.468 263.479 381.51 263.709 381.51 263.942C381.51 264.175 381.468 264.405 381.385 264.618C381.303 264.831 381.182 265.021 381.031 265.177C380.88 265.333 380.702 265.45 380.509 265.522C380.316 265.594 380.112 265.619 379.91 265.595Z" fill="#8DD8E0"/>
<path d="M360.17 329.213H292.988C292.786 329.237 292.582 329.213 292.389 329.141C292.196 329.069 292.018 328.951 291.867 328.795C291.716 328.64 291.596 328.449 291.513 328.236C291.43 328.024 291.388 327.793 291.388 327.561C291.388 327.328 291.43 327.097 291.513 326.885C291.596 326.672 291.716 326.481 291.867 326.326C292.018 326.17 292.196 326.052 292.389 325.98C292.582 325.908 292.786 325.884 292.988 325.908H360.17C360.372 325.884 360.576 325.908 360.769 325.98C360.962 326.052 361.14 326.17 361.291 326.326C361.441 326.481 361.562 326.672 361.645 326.885C361.727 327.097 361.77 327.328 361.77 327.561C361.77 327.793 361.727 328.024 361.645 328.236C361.562 328.449 361.441 328.64 361.291 328.795C361.14 328.951 360.962 329.069 360.769 329.141C360.576 329.213 360.372 329.237 360.17 329.213Z" fill="#8DD8E0"/>
<path d="M339.936 394.311H271.114C270.758 394.268 270.429 394.075 270.189 393.77C269.95 393.465 269.817 393.069 269.817 392.658C269.817 392.248 269.95 391.851 270.189 391.546C270.429 391.241 270.758 391.049 271.114 391.006H339.936C340.138 390.981 340.342 391.006 340.535 391.078C340.728 391.15 340.906 391.267 341.057 391.423C341.208 391.579 341.328 391.769 341.411 391.982C341.493 392.195 341.536 392.425 341.536 392.658C341.536 392.891 341.493 393.121 341.411 393.334C341.328 393.547 341.208 393.737 341.057 393.893C340.906 394.049 340.728 394.167 340.535 394.239C340.342 394.31 340.138 394.335 339.936 394.311Z" fill="#8DD8E0"/>
<path d="M321.485 453.948H251.087C250.703 453.948 250.335 453.773 250.063 453.462C249.791 453.15 249.639 452.728 249.639 452.287C249.639 451.846 249.791 451.423 250.063 451.112C250.335 450.8 250.703 450.625 251.087 450.625H321.485C321.869 450.625 322.237 450.8 322.509 451.112C322.781 451.423 322.933 451.846 322.933 452.287C322.933 452.728 322.781 453.15 322.509 453.462C322.237 453.773 321.869 453.948 321.485 453.948Z" fill="#8DD8E0"/>
<path d="M63.6155 483.895L69.1556 469.287L88.8802 458.331L95.2481 434.246C95.6211 432.797 96.3284 431.491 97.2952 430.466C98.262 429.441 99.4524 428.734 100.74 428.421C102.318 427.965 103.986 428.169 105.444 428.995C106.903 429.822 108.057 431.217 108.7 432.931C113.031 442.061 97.3973 460.54 97.3973 460.54L106.296 474.893L101.521 489.793L63.6155 483.895Z" fill="#65CCD6"/>
<path d="M72.1644 471.369L91.8891 460.613L98.257 436.528C98.8289 434.408 100.096 432.624 101.792 431.555C103.488 430.485 105.48 430.213 107.347 430.795C106.535 429.755 105.489 428.99 104.324 428.584C103.159 428.179 101.92 428.147 100.74 428.494C99.4524 428.807 98.262 429.514 97.2952 430.539C96.3284 431.564 95.6211 432.87 95.2481 434.319L88.8802 458.404L69.1556 469.159L63.6155 483.767L67.2293 484.352L72.1644 471.369Z" fill="#44B5C2"/>
<path d="M111.025 527.72H38.3348L22.9722 483.548C22.9722 482.095 23.4754 480.702 24.371 479.675C25.2667 478.647 26.4815 478.07 27.7481 478.07H121.595C122.862 478.07 124.077 478.647 124.972 479.675C125.868 480.702 126.371 482.095 126.371 483.548L111.025 527.72Z" fill="#8DD8E0"/>
<path d="M45.849 522.041L30.5342 477.961H27.7801C26.5134 477.961 25.2986 478.538 24.403 479.565C23.5073 480.592 23.0042 481.986 23.0042 483.439L38.3349 527.72H111.025L112.999 522.114L45.849 522.041Z" fill="#65CCD6"/>
<path d="M216.939 122.106H204.203L204.506 123.786C208.139 126.218 212.162 127.788 216.334 128.406C216.398 126.291 216.601 124.186 216.939 122.106Z" fill="#F3417D"/>
<path d="M216.318 128.406C212.146 127.788 208.124 126.218 204.49 123.786L208.756 147.524C208.756 147.524 216.461 153.879 221.492 148.912C221.524 148.894 215.856 141.754 216.318 128.406Z" fill="#FF7BA9"/>
<path d="M222.957 102.787C222.957 102.787 232.35 121.284 229.946 123.768C227.542 126.251 204.188 122.106 204.188 122.106C204.188 122.106 170.485 95.5921 222.957 102.787Z" fill="#FF7BA9"/>
<path d="M208.279 108.849C208.279 108.849 241.504 107.48 236.68 86.4803C236.68 86.4803 184.686 95.3182 189.032 107.187C193.378 119.056 204.188 122.106 204.188 122.106L202.022 112.446C202.022 112.446 197.931 108.027 202.5 106.092C203.029 105.771 203.613 105.589 204.21 105.557C204.807 105.526 205.403 105.646 205.956 105.91C206.508 106.173 207.002 106.573 207.404 107.081C207.806 107.589 208.104 108.193 208.279 108.849Z" fill="#080C53"/>
<path d="M154.995 206.194C156.603 205.589 158.254 205.149 159.93 204.879C163.39 195.019 167.153 185.311 171.217 175.754C165.837 185.213 159.803 196.261 154.995 206.194Z" fill="#F7CDA3"/>
<path d="M180.737 185.341C178.827 192.645 176.662 199.949 174.561 207.089C175.366 207.499 176.148 207.969 176.901 208.495L184.861 190.235C183.539 188.5 182.17 186.893 180.737 185.341Z" fill="#F7CDA3"/>
<path d="M248.237 166.277C245.706 163.794 242.825 162.132 241.376 158.407C241.376 162.899 241.503 167.537 241.376 172.121L247.983 170.148L261.753 190.417C262.61 188.332 263.679 186.371 264.937 184.574C263.377 182.602 261.785 180.648 260.161 178.713C256.181 174.567 252.217 170.842 248.237 166.277Z" fill="#F7CDA3"/>
<path d="M274.792 174.933C270.991 177.395 267.635 180.667 264.906 184.574C263.712 183.077 262.518 181.579 261.292 180.1L261.053 179.79L260.161 178.713C256.182 174.567 252.202 170.842 248.238 166.277C245.706 163.794 242.825 162.132 241.376 158.407C241.376 162.899 241.488 167.537 241.376 172.121L185.402 188.92L184.861 190.162C183.524 188.5 182.154 186.893 180.706 185.341C179.289 190.819 177.745 196.096 176.2 201.392L176.073 201.812C175.564 203.638 175.038 205.318 174.481 207.089C169.885 204.802 164.822 204.037 159.867 204.879C160.583 202.834 161.315 200.807 162.064 198.78C162.11 198.631 162.163 198.485 162.223 198.342C165.014 190.709 167.991 183.18 171.154 175.754C178.636 162.607 184.877 152.473 184.877 152.473L212.896 142.265L245.292 146.41L270.43 170.769L270.732 171.062L274.792 174.933Z" fill="#FFDFBF"/>
<path d="M274.808 174.933C271.007 177.395 267.651 180.667 264.921 184.574L266.227 186.236C268.612 182.026 271.5 178.221 274.808 174.933Z" fill="#F3417D"/>
<path d="M299.34 198.707L274.808 174.969C271.495 178.257 268.601 182.061 266.211 186.272C271.178 192.59 276.05 198.927 281.462 204.843C269.539 216.438 259.079 229.677 254.017 246.659C252.687 251.254 252.817 256.241 254.383 260.737C255.465 264.061 258.347 265.302 260.878 265.722C265.045 266.45 269.304 265.577 272.993 263.239C273.439 258.711 271.688 255.168 265.336 256.063L300.136 212.074C300.869 211.147 301.431 210.061 301.789 208.879C302.147 207.697 302.293 206.445 302.219 205.196C302.144 203.948 301.851 202.73 301.356 201.615C300.862 200.5 300.176 199.511 299.34 198.707Z" fill="#FF7BA9"/>
<path d="M260.878 265.686C258.347 265.266 255.465 264.024 254.383 260.701C252.817 256.204 252.687 251.218 254.017 246.622C259.079 229.64 269.538 216.402 281.462 204.806C275.572 198.361 270.318 191.422 264.906 184.574C263.647 186.371 262.578 188.332 261.722 190.417L272.499 206.322C272.499 206.322 233.273 241.382 240.485 264.572C247.696 287.762 261.18 282.248 266.243 277.555C269.775 273.732 272.128 268.694 272.945 263.202C269.27 265.528 265.029 266.401 260.878 265.686Z" fill="#F3417D"/>
<path d="M212.959 142.265L199.682 147.104C203.216 150.644 207.727 152.636 212.418 152.728C217.563 151.13 222.29 148.115 226.189 143.945L212.959 142.265Z" fill="#FF7BA9"/>
<path d="M226.125 143.945C222.227 148.115 217.5 151.13 212.354 152.728C213.378 152.694 214.394 152.516 215.379 152.199C219.99 150.937 224.165 148.119 227.367 144.109L226.125 143.945Z" fill="#F3417D"/>
<path d="M180.737 185.341C179.846 188.774 178.891 192.17 177.936 195.548C181.756 200.296 200.351 225.166 198.186 257.396C202.943 260.896 208.133 263.555 213.58 265.284C207.913 235.83 199.984 206.121 180.737 185.341Z" fill="#F7CDA3"/>
<path d="M252.568 258.765C238.367 269.721 223.912 268.644 213.564 265.284C207.913 235.83 199.985 206.121 180.722 185.341C179.83 188.774 178.875 192.17 177.904 195.548C177.474 195.001 177.235 194.727 177.235 194.727L184.94 152.473L194.015 149.168L194.476 149.003L199.682 147.177C204.124 151.194 209.759 154.061 215.379 152.272C219.994 151.01 224.17 148.185 227.367 144.164L231.267 144.676H231.697L245.356 146.502C262.438 184.428 252.568 258.765 252.568 258.765Z" fill="#FFDFBF"/>
<path d="M231.681 144.657C228.72 148.711 221.922 156.91 214.536 158.608C213.855 158.771 213.161 158.851 212.466 158.845C206.257 158.845 198.775 153.367 193.999 149.168L194.461 149.003C199.762 153.568 208.231 159.649 214.472 158.133C221.62 156.49 228.242 148.601 231.251 144.529L231.681 144.657Z" fill="#F7CDA3"/>
<path d="M189.573 150.793C189.573 150.793 205.875 216.402 198.249 257.469C190.624 298.536 157.909 484.863 135.159 527.72H206.655L225.87 303.484L234.817 298.499L247.266 400.483L250.88 527.72H314.353L252.568 258.784C252.568 258.784 256.946 170.276 239.354 145.57L230.344 144.402C237.58 158.17 240.814 174.221 239.577 190.235C239.577 190.235 232.588 198.78 208.518 191.878C208.518 191.878 202.054 157.713 197.374 147.871L189.573 150.793Z" fill="#1253A3"/>
<path d="M247.187 400.41L250.88 527.72H275.078L258.347 398.273L238.67 283.563C233.257 298.262 225.791 303.485 225.791 303.485L234.737 298.499L247.187 400.41Z" fill="#003E8A"/>
<path d="M206.496 432.328L174.37 428.457V428.22L191.738 365.916C191.744 365.889 191.754 365.864 191.768 365.842C191.783 365.82 191.801 365.801 191.822 365.787C191.843 365.774 191.866 365.765 191.89 365.762C191.914 365.759 191.938 365.762 191.961 365.77C191.985 365.778 192.007 365.792 192.027 365.81C192.046 365.829 192.062 365.851 192.074 365.877C192.086 365.902 192.093 365.93 192.096 365.959C192.098 365.987 192.096 366.016 192.088 366.044L174.784 428.129L206.209 431.872L212.195 369.659C212.203 369.605 212.229 369.555 212.267 369.521C212.306 369.487 212.354 369.471 212.402 369.477C212.45 369.486 212.493 369.515 212.523 369.559C212.552 369.604 212.566 369.659 212.561 369.714L206.496 432.328Z" fill="#003E8A"/>
<path d="M189.573 150.793C189.573 150.793 205.875 216.402 198.249 257.469C190.624 298.536 157.909 484.863 135.159 527.72H151.445C155.648 506.538 199.029 287.854 204.187 250.42C208.295 220.528 197.278 171.792 191.738 149.989L189.573 150.793Z" fill="#003E8A"/>
<path d="M232.842 335.62L131.449 358.774L133.706 371.776L235.099 348.622L232.842 335.62Z" fill="#080C53"/>
<path d="M133.742 371.705L126.435 400.41L250.88 373.074L235.12 348.532L133.742 371.705Z" fill="#FFF4D6"/>
<path d="M220.617 527.72H135.08L136.958 523.556L137.34 522.735L139.712 517.457H158.689C158.689 517.457 170.071 495.198 192.63 495.198C209.616 495.198 216.891 513.623 219.439 522.735C219.524 523.027 219.603 523.301 219.677 523.556C220.346 526.021 220.617 527.72 220.617 527.72Z" fill="#FFDFBF"/>
<path d="M333.568 527.72H250.785L250.673 523.556V522.735L250.53 517.75H273.63C273.63 517.75 282.29 495.198 303.957 495.198C320.259 495.198 328.792 513.623 332.024 522.735C332.119 523.027 332.215 523.301 332.31 523.556C333.234 526.021 333.568 527.72 333.568 527.72Z" fill="#FFDFBF"/>
<path d="M208.979 105.617C208.937 105.614 208.896 105.594 208.864 105.561C208.832 105.527 208.811 105.483 208.804 105.434C208.8 105.407 208.8 105.378 208.806 105.351C208.812 105.323 208.823 105.297 208.838 105.275C208.853 105.252 208.872 105.234 208.893 105.221C208.915 105.207 208.939 105.199 208.963 105.197C214.2 104.246 219.341 102.698 224.31 100.577C226.759 99.6405 229.064 98.2662 231.14 96.5052C233.211 94.7339 234.612 92.1203 235.056 89.2011C235.058 89.1747 235.065 89.1489 235.075 89.1254C235.086 89.1019 235.101 89.0811 235.118 89.0641C235.136 89.0472 235.157 89.0344 235.179 89.0265C235.201 89.0187 235.224 89.016 235.247 89.0185C235.272 89.0205 235.296 89.0286 235.317 89.042C235.339 89.0554 235.358 89.0739 235.373 89.0963C235.388 89.1187 235.399 89.1445 235.404 89.172C235.41 89.1995 235.411 89.2281 235.406 89.2559C234.948 92.2651 233.501 94.958 231.363 96.779C229.261 98.5689 226.923 99.962 224.438 100.906C219.442 103.039 214.275 104.599 209.011 105.562L208.979 105.617Z" fill="#252B80"/>
<path d="M200.574 115.697C200.541 115.697 200.509 115.687 200.48 115.668C200.452 115.649 200.43 115.621 200.415 115.587C199.82 114.656 199.087 113.852 198.25 113.213L197.469 112.465C196.895 111.994 196.418 111.383 196.074 110.676C195.73 109.968 195.527 109.182 195.479 108.374C195.559 105.781 198.09 104.339 199.603 103.7C203.428 102.233 207.368 101.194 211.367 100.595C213.135 100.267 214.981 99.9198 216.764 99.4998C224.008 97.8016 228.879 95.0078 232.095 90.7532C232.11 90.7328 232.128 90.7159 232.148 90.7035C232.168 90.6911 232.191 90.6834 232.214 90.6809C232.236 90.6783 232.26 90.681 232.282 90.6887C232.304 90.6964 232.324 90.709 232.342 90.7258C232.36 90.7426 232.374 90.7632 232.385 90.7865C232.396 90.8098 232.403 90.8354 232.405 90.8616C232.407 90.8879 232.405 90.9144 232.398 90.9397C232.391 90.9649 232.38 90.9884 232.366 91.0088C229.102 95.3547 224.167 98.1851 216.844 99.9015C215.045 100.322 213.198 100.668 211.415 100.997C207.483 101.614 203.608 102.648 199.842 104.083C198.425 104.686 196.021 106.037 195.957 108.393C196.001 109.14 196.192 109.866 196.514 110.517C196.837 111.168 197.283 111.728 197.82 112.154L198.584 112.885C199.435 113.583 200.178 114.441 200.781 115.423C200.812 115.463 200.829 115.515 200.829 115.569C200.829 115.623 200.812 115.675 200.781 115.715L200.574 115.697Z" fill="#252B80"/>
<path d="M193.012 103.28C192.978 103.277 192.945 103.263 192.917 103.241C192.889 103.218 192.867 103.188 192.852 103.152C192.825 103.113 192.811 103.065 192.811 103.015C192.811 102.965 192.825 102.917 192.852 102.878C204.317 96.8937 216.436 92.7228 228.879 90.4793C228.925 90.4793 228.97 90.5004 229.003 90.5381C229.036 90.5758 229.054 90.6269 229.054 90.6801C229.054 90.7334 229.036 90.7845 229.003 90.8222C228.97 90.8598 228.925 90.881 228.879 90.881C216.469 93.1245 204.382 97.2894 192.948 103.261L193.012 103.28Z" fill="#252B80"/>
<path d="M218.945 111.716C218.807 111.713 218.672 111.665 218.557 111.578C218.441 111.49 218.35 111.367 218.293 111.223L217.433 109.05C217.355 108.849 217.349 108.621 217.418 108.415C217.487 108.21 217.624 108.044 217.799 107.954C217.974 107.865 218.173 107.859 218.352 107.937C218.532 108.016 218.676 108.173 218.754 108.374L219.614 110.547C219.653 110.647 219.675 110.754 219.678 110.863C219.681 110.972 219.665 111.081 219.631 111.183C219.597 111.285 219.546 111.378 219.48 111.457C219.414 111.536 219.335 111.599 219.248 111.643C219.153 111.695 219.05 111.72 218.945 111.716Z" fill="#080C53"/>
<path d="M224.055 109.799C223.929 109.799 223.805 109.758 223.697 109.68C223.59 109.603 223.505 109.492 223.45 109.36L222.67 107.352C222.633 107.262 222.611 107.165 222.607 107.065C222.603 106.966 222.616 106.866 222.646 106.773C222.675 106.679 222.721 106.594 222.78 106.521C222.839 106.447 222.91 106.389 222.989 106.347C223.149 106.267 223.331 106.262 223.495 106.334C223.659 106.405 223.791 106.548 223.864 106.731L224.66 108.721C224.731 108.905 224.735 109.114 224.672 109.302C224.61 109.49 224.485 109.642 224.326 109.726C224.243 109.777 224.15 109.803 224.055 109.799Z" fill="#080C53"/>
<path d="M220.171 117.048L227.701 115.222C227.701 115.222 229.468 121.248 227.478 122.142C225.488 123.037 221.524 120.207 220.171 117.048Z" fill="#DEFCFF"/>
<path d="M173.86 346.432C167.715 344.789 161.22 340.954 159.421 334.016C157.972 328.629 163.035 324.885 162.605 320.759C159.421 290.94 153.212 262.326 151.047 232.964C153.69 223.48 156.63 214.119 159.867 204.879C158.191 205.149 156.539 205.589 154.932 206.194C150.394 215.58 146.972 223.998 146.112 229.239C143.23 247.736 157.67 317.855 157.67 317.855C157.67 317.855 151.891 327.807 154.056 337.467C156.221 347.126 170.183 352.659 170.183 352.659C170.183 352.659 163.687 369.221 171.631 369.769C172.01 369.794 172.39 369.763 172.762 369.678C170.469 362.702 172.603 353.353 173.86 346.432Z" fill="#F3417D"/>
<path d="M176.885 208.495C176.132 207.969 175.35 207.499 174.545 207.089C172.809 213.023 171.138 218.958 169.689 225.002L176.885 208.495Z" fill="#F3417D"/>
<path d="M191.197 331.934L167.317 230.334L169.641 225.002C171.09 218.958 172.825 213.023 174.497 207.089C169.901 204.802 164.838 204.037 159.883 204.879C156.699 214.119 153.759 223.48 151.063 232.964C153.228 262.363 159.373 290.94 162.621 320.759C162.987 324.904 157.924 328.629 159.437 334.016C161.236 341.046 167.731 344.789 173.876 346.432C172.618 353.353 170.485 362.702 172.841 369.678C180.18 368.107 185.195 346.852 185.195 346.852L204.203 342.433C204.203 342.433 197.453 332.774 191.197 331.934Z" fill="#FF7BA9"/>
<path d="M167.365 230.334L163.926 214.941L168.83 226.974L167.365 230.334Z" fill="#F3417D"/>
<path d="M208.151 144.109L209.377 150.227L206.336 144.676L208.151 144.109Z" fill="#F3417D"/>
<path d="M216.048 208.458C213.946 208.458 213.724 208.312 213.501 208.185C213.268 208.033 213.092 207.788 213.008 207.497C212.923 207.207 212.935 206.89 213.042 206.609C213.149 206.327 213.343 206.102 213.586 205.974C213.829 205.847 214.105 205.828 214.36 205.92C216.064 206.231 232.859 205.281 243.127 204.605C243.277 204.577 243.43 204.585 243.577 204.628C243.724 204.672 243.862 204.751 243.98 204.86C244.099 204.968 244.196 205.104 244.266 205.259C244.336 205.413 244.377 205.583 244.386 205.757C244.395 205.931 244.372 206.105 244.319 206.268C244.265 206.431 244.182 206.579 244.076 206.703C243.969 206.827 243.841 206.924 243.699 206.987C243.558 207.05 243.406 207.079 243.255 207.071C243.255 207.071 236.123 207.545 229.022 207.929C221.922 208.312 218.07 208.458 216.048 208.458Z" fill="#003E8A"/>
<path d="M233.13 215.269C233.13 215.786 232.996 216.291 232.746 216.72C232.496 217.15 232.14 217.484 231.724 217.682C231.308 217.88 230.851 217.931 230.409 217.83C229.968 217.73 229.562 217.481 229.243 217.116C228.925 216.751 228.708 216.285 228.62 215.779C228.533 215.272 228.578 214.747 228.75 214.27C228.922 213.793 229.214 213.385 229.588 213.098C229.963 212.811 230.403 212.658 230.853 212.658C231.457 212.658 232.036 212.933 232.463 213.423C232.89 213.913 233.13 214.577 233.13 215.269Z" fill="#003E8A"/>
<path d="M232.509 243.299L216.143 230.517L214.344 212.75C214.34 212.722 214.34 212.693 214.346 212.666C214.352 212.638 214.363 212.612 214.378 212.59C214.393 212.568 214.412 212.549 214.433 212.536C214.455 212.522 214.479 212.514 214.504 212.512C214.527 212.51 214.55 212.512 214.572 212.52C214.594 212.528 214.614 212.541 214.632 212.558C214.65 212.575 214.665 212.596 214.675 212.619C214.686 212.643 214.693 212.668 214.695 212.695L216.494 230.279L232.413 242.824L244.035 228.928V210.796C244.035 210.738 244.055 210.682 244.091 210.641C244.127 210.6 244.175 210.577 244.226 210.577C244.25 210.576 244.274 210.582 244.297 210.593C244.319 210.605 244.339 210.621 244.356 210.642C244.372 210.662 244.385 210.687 244.392 210.713C244.4 210.74 244.403 210.768 244.401 210.796V229.056L232.509 243.299Z" fill="#003E8A"/>
<path d="M195.416 291.323C195.117 291.32 194.826 291.21 194.584 291.01C194.341 290.81 194.159 290.528 194.061 290.204C193.963 289.88 193.955 289.53 194.038 289.201C194.121 288.871 194.291 288.579 194.524 288.365L212.036 272.46C212.336 272.192 212.717 272.07 213.096 272.121C213.474 272.173 213.82 272.393 214.058 272.734C214.176 272.903 214.265 273.097 214.318 273.305C214.371 273.513 214.388 273.731 214.367 273.947C214.347 274.163 214.289 274.371 214.197 274.561C214.106 274.751 213.983 274.918 213.835 275.053L196.323 290.976C196.064 291.208 195.744 291.33 195.416 291.323Z" fill="#003E8A"/>
<path d="M288.992 432.091H271.687L259.572 365.971H274.792C274.838 365.971 274.883 365.992 274.915 366.03C274.948 366.067 274.967 366.118 274.967 366.172C274.969 366.2 274.966 366.228 274.958 366.254C274.95 366.281 274.938 366.305 274.921 366.326C274.905 366.346 274.885 366.363 274.862 366.374C274.84 366.385 274.816 366.391 274.792 366.391H260.018L271.974 431.689H288.992C289.038 431.689 289.083 431.711 289.116 431.748C289.149 431.786 289.167 431.837 289.167 431.89C289.167 431.943 289.149 431.995 289.116 432.032C289.083 432.07 289.038 432.091 288.992 432.091Z" fill="#003E8A"/>
<path d="M332.374 523.483H250.785V522.662H332.135C332.198 522.954 332.278 523.228 332.374 523.483Z" fill="#1253A3"/>
<path d="M219.678 523.483H136.895L137.277 522.662H219.375C219.502 522.954 219.603 523.228 219.678 523.483Z" fill="#1253A3"/>
<path d="M319.017 509.459H303.479C303.402 509.457 303.327 509.428 303.265 509.376C303.202 509.324 303.155 509.251 303.129 509.167C303.111 509.077 303.118 508.983 303.149 508.897C303.181 508.812 303.235 508.74 303.304 508.692L312.713 502.155L300.63 503.799C300.547 503.807 300.463 503.783 300.394 503.73C300.324 503.677 300.273 503.598 300.248 503.507C300.224 503.416 300.228 503.32 300.26 503.233C300.292 503.146 300.35 503.075 300.423 503.032L307.746 498.229L296.698 499.654C296.612 499.647 296.531 499.606 296.469 499.538C296.407 499.47 296.368 499.379 296.358 499.281C296.349 499.183 296.37 499.085 296.417 499.002C296.465 498.92 296.536 498.86 296.618 498.832L309.354 497.17C309.438 497.158 309.522 497.181 309.593 497.235C309.663 497.288 309.714 497.369 309.736 497.463C309.761 497.551 309.759 497.646 309.73 497.733C309.701 497.819 309.647 497.891 309.577 497.937L302.27 502.74L314.257 501.115C314.339 501.097 314.424 501.116 314.494 501.167C314.565 501.217 314.617 501.296 314.639 501.388C314.67 501.477 314.673 501.575 314.647 501.665C314.62 501.755 314.567 501.832 314.496 501.881L304.737 508.565H318.969C319.015 508.565 319.061 508.575 319.103 508.595C319.146 508.615 319.185 508.645 319.217 508.682C319.25 508.72 319.275 508.764 319.293 508.813C319.311 508.861 319.32 508.914 319.32 508.966C319.331 509.022 319.332 509.08 319.323 509.136C319.314 509.192 319.294 509.245 319.266 509.291C319.237 509.338 319.2 509.377 319.157 509.406C319.114 509.435 319.067 509.453 319.017 509.459Z" fill="#1253A3"/>
<path d="M204.363 509.459H189.573C189.49 509.458 189.409 509.424 189.345 509.363C189.281 509.302 189.237 509.217 189.22 509.124C189.204 509.03 189.215 508.933 189.253 508.848C189.292 508.763 189.354 508.695 189.43 508.656L199.666 504.127L188.698 505.534C188.611 505.541 188.526 505.514 188.455 505.456C188.385 505.398 188.335 505.313 188.314 505.217C188.293 505.12 188.303 505.019 188.341 504.93C188.379 504.841 188.443 504.77 188.522 504.73L197.756 500.019L185.45 501.589C185.356 501.595 185.263 501.561 185.19 501.494C185.117 501.427 185.067 501.33 185.052 501.224C185.043 501.115 185.071 501.007 185.13 500.922C185.19 500.837 185.276 500.781 185.37 500.768L200.001 498.942C200.086 498.934 200.171 498.961 200.241 499.018C200.31 499.074 200.361 499.157 200.383 499.252C200.408 499.346 200.401 499.449 200.362 499.537C200.324 499.626 200.257 499.694 200.176 499.727L190.942 504.438L202.341 502.977C202.429 502.965 202.517 502.99 202.591 503.047C202.664 503.104 202.716 503.189 202.739 503.287C202.757 503.387 202.745 503.49 202.704 503.58C202.664 503.67 202.597 503.741 202.516 503.781L191.499 508.674H204.363C204.416 508.661 204.471 508.662 204.524 508.677C204.577 508.691 204.627 508.719 204.669 508.759C204.711 508.798 204.746 508.848 204.769 508.904C204.792 508.961 204.805 509.023 204.805 509.085C204.805 509.148 204.792 509.209 204.769 509.266C204.746 509.322 204.711 509.372 204.669 509.411C204.627 509.451 204.577 509.479 204.524 509.493C204.471 509.508 204.416 509.509 204.363 509.496V509.459Z" fill="#1253A3"/>
<path d="M227.176 263.568C217.274 263.476 207.425 261.892 197.883 258.857V258.674V258.455C209.298 262.107 231.538 266.854 252.425 258.583L252.536 258.966C244.363 262.102 235.793 263.657 227.176 263.568Z" fill="#003E8A"/>
<path d="M225.886 270.981C215.964 270.96 206.105 269.18 196.657 265.704L196.769 265.302C215.398 272.211 235.451 272.211 254.08 265.302L254.191 265.704C245.063 269.187 235.506 270.969 225.886 270.981Z" fill="#003E8A"/>
<path d="M176.216 201.392L176.089 201.812C171.899 198.925 166.947 197.85 162.127 198.78C162.173 198.631 162.227 198.485 162.286 198.342C167.098 197.453 172.028 198.533 176.216 201.392Z" fill="#F7CDA3"/>
<path d="M270.796 171.062C267.067 173.225 263.804 176.312 261.244 180.1L261.005 179.79C263.544 176.032 266.765 172.954 270.446 170.769L270.796 171.062Z" fill="#F7CDA3"/>
<path d="M641.489 22.5879C641.214 22.3817 640.899 22.2557 640.571 22.2207C640.244 22.1857 639.914 22.2428 639.61 22.387L620.125 31.6997C619.884 31.8196 619.667 31.9927 619.484 32.209C619.302 32.4253 619.159 32.6806 619.063 32.9604C618.869 33.5254 618.879 34.1557 619.09 34.7126C619.301 35.2696 619.696 35.7075 620.189 35.9301C620.681 36.1527 621.231 36.1417 621.716 35.8996L638.464 27.9016V65.4081L575.183 98.1303C574.832 98.31 574.535 98.6021 574.326 98.9714C574.117 99.3408 574.005 99.7716 574.005 100.212V175.079C575.064 176.76 576.42 178.167 577.985 179.206V101.673L641.266 68.9688C641.611 68.7828 641.903 68.4887 642.109 68.1204C642.315 67.752 642.425 67.3245 642.428 66.8871V24.4869C642.421 24.1059 642.331 23.7329 642.167 23.4015C642.004 23.07 641.77 22.7904 641.489 22.5879Z" fill="#F3A769"/>
<path d="M474.665 116.281C474.581 122.367 473.468 128.376 471.386 133.975C465.845 148.894 483.66 133.975 483.66 133.975L485.857 115.386C482.234 116.66 478.406 116.966 474.665 116.281Z" fill="#FF7BA9"/>
<path d="M485.857 115.386L486.191 112.647L473.79 106.64C474.45 109.795 474.744 113.037 474.665 116.281C478.406 116.966 482.235 116.66 485.857 115.386Z" fill="#F3417D"/>
<path d="M473.01 88.8358C473.01 88.8358 461.277 102.914 463.617 108.1C465.957 113.286 486.191 112.647 486.191 112.647C486.191 112.647 503.703 100.431 500.519 92.5609C497.335 84.6908 473.01 88.8358 473.01 88.8358Z" fill="#FF7BA9"/>
<path d="M490.155 95.2452C490.155 95.2452 464.683 98.2946 462.709 79.304C462.457 77.8015 462.496 76.2539 462.823 74.7706C463.15 73.2872 463.758 71.9044 464.602 70.72C465.446 69.5355 466.507 68.5782 467.71 67.9159C468.912 67.2536 470.227 66.9024 471.561 66.8871C472.799 66.9667 474.002 67.3844 475.071 68.1054C476.14 68.8264 477.043 69.8298 477.706 71.0322C479.35 69.6526 481.282 68.7917 483.307 68.5354C485.332 68.2791 487.38 68.6363 489.248 69.5714C495.615 72.8947 493.769 78.0623 493.769 78.0623C493.769 78.0623 501.729 76.4189 505.327 84.2708C508.925 92.1227 503.878 96.286 503.878 96.286C503.878 96.286 511.281 106.238 503.703 112.72C496.125 119.203 486.191 112.72 486.191 112.72L489.98 101.947C489.98 101.947 497.383 97.8199 494.851 93.8757C492.32 89.9315 490.155 95.2452 490.155 95.2452Z" fill="#252B80"/>
<path d="M426.667 181.671C427.017 180.94 427.367 180.21 427.749 179.498C423.72 176.262 420.621 171.723 418.85 166.46C418.769 166.584 418.678 166.7 418.58 166.807C419.924 172.575 422.74 177.751 426.667 181.671Z" fill="#F3417D"/>
<path d="M445.77 225.422C435.757 213.261 420.299 200.789 420.299 200.789L420.76 200.04C420.124 199.566 419.694 199.146 419.694 199C421.587 193.017 423.903 187.221 426.619 181.671C422.692 177.751 419.876 172.575 418.532 166.807C410.671 176.316 403.435 186.478 396.881 197.21C396 198.721 395.479 200.47 395.37 202.283C395.261 204.096 395.568 205.91 396.26 207.545C400.654 217.954 411.224 240.888 422.75 250.548C421.999 251.204 421.301 251.938 420.665 252.739C420.59 253.938 420.763 255.14 421.17 256.247C421.576 257.355 422.205 258.336 423.005 259.112C427.686 264.079 434.913 261.176 438.925 256.209C441.952 251.959 444.133 247.002 445.316 241.684C446.498 236.366 446.653 230.816 445.77 225.422Z" fill="#FF7BA9"/>
<path d="M420.808 200.04L431.713 182.145C430.321 181.41 428.994 180.523 427.749 179.498C424.586 185.708 421.922 192.236 419.789 199C419.742 199.146 420.171 199.566 420.808 200.04Z" fill="#F3417D"/>
<path d="M453.094 236.689C451.15 232.54 448.682 228.743 445.77 225.422C446.642 230.81 446.478 236.351 445.29 241.659C444.102 246.967 441.919 251.914 438.893 256.154C434.913 261.121 427.749 264.024 422.973 259.057C422.173 258.281 421.545 257.3 421.138 256.192C420.731 255.085 420.558 253.883 420.633 252.685C417.656 256.337 413.74 264.408 425.138 272.862C440.804 284.457 458.873 250.767 453.094 236.689Z" fill="#F3417D"/>
<path d="M445.771 225.422C435.757 213.261 420.299 200.789 420.299 200.789L445.532 240.176C446.407 235.318 446.488 230.315 445.771 225.422Z" fill="#F3417D"/>
<path d="M451.884 144.749C442.51 155.011 434.391 166.681 427.749 179.443C428.994 180.468 430.321 181.355 431.713 182.091L448.27 154.901L451.454 155.321C451.809 151.813 451.953 148.28 451.884 144.749Z" fill="#1253A3"/>
<path d="M509.657 154.262C508.24 156.965 506.95 159.74 505.788 162.516L507.109 162.698C507.027 177.902 507.862 193.095 509.609 208.166C510.02 205.765 510.667 203.426 511.535 201.191C509.37 185.323 509.657 169.948 509.657 154.262Z" fill="#1253A3"/>
<path d="M527.105 183.095L516.136 136.951C515.93 136.077 515.527 135.279 514.969 134.638C514.41 133.998 513.715 133.536 512.952 133.299L479.648 123.676L446.344 135.125C446.344 135.125 432.78 149.314 418.85 166.496C420.621 171.76 423.719 176.299 427.749 179.534C434.392 166.773 442.51 155.102 451.884 144.84C451.96 148.389 451.822 151.94 451.47 155.467L505.788 162.516C506.95 159.704 508.24 157.038 509.657 154.262C509.657 169.948 509.37 185.304 511.535 201.209C514.51 193.106 520.083 186.622 527.105 183.095Z" fill="#3D61E9"/>
<path d="M525.99 183.643C519.493 187.323 514.364 193.557 511.535 201.209C511.726 202.688 511.965 204.167 512.204 205.665C514.656 196.79 519.145 188.244 525.99 183.643Z" fill="#F3417D"/>
<path d="M589.097 144.256C588.71 142.236 587.895 140.358 586.723 138.787C585.551 137.217 584.058 136.003 582.378 135.253C578.287 136.12 574.383 137.894 570.884 140.476C571.614 147.106 570.398 153.826 567.43 159.576C569.913 152.801 569.722 142.941 565.233 137.426C564.83 137.606 564.436 137.813 564.055 138.047C558.769 141.352 560.441 161.511 560.441 161.511L533.489 209.992L527.121 183.186L526.006 183.734C519.161 188.336 514.671 196.881 512.22 205.756L512.554 207.783C515.451 224.363 521.23 238.442 527.359 252.922C542.165 243.408 551.239 227.668 561.667 211.928C568.528 201.994 572.811 190.399 577.189 178.804C569.977 173.819 570.327 162.224 572.492 153.952C573.225 158.097 572.492 161.822 573.575 165.967C575.39 171.335 580.802 176.32 584.719 172.175C591.262 165.456 590.896 154.262 589.097 144.256Z" fill="#FF7BA9"/>
<path d="M567.43 159.649C570.388 153.914 571.603 147.216 570.884 140.604H570.805C570.654 139.952 570.382 139.345 570.008 138.825C569.634 138.305 569.167 137.883 568.638 137.588C568.11 137.294 567.532 137.133 566.944 137.118C566.356 137.103 565.773 137.233 565.233 137.499C569.722 143.014 569.913 152.874 567.43 159.649Z" fill="#F3417D"/>
<path d="M595.114 152.747C594.334 138.394 589.065 134.304 582.379 135.326C584.058 136.076 585.551 137.29 586.723 138.86C587.895 140.431 588.71 142.309 589.097 144.329C590.896 154.262 591.262 165.456 584.767 172.084C580.787 176.229 575.374 171.244 573.623 165.876C572.54 161.731 573.272 158.005 572.54 153.86C570.375 162.132 570.025 173.728 577.237 178.713C572.906 190.308 568.576 201.903 561.715 211.837C551.239 227.577 542.213 243.317 527.408 252.831C521.278 238.35 515.5 224.272 512.602 207.691C512.22 205.519 511.886 203.364 511.599 201.209C510.731 203.444 510.084 205.784 509.673 208.185C511.742 225.404 515.499 243.883 522.281 256.537C522.756 257.442 523.396 258.218 524.157 258.811C524.918 259.405 525.782 259.802 526.69 259.976C527.598 260.149 528.528 260.095 529.416 259.817C530.304 259.538 531.128 259.043 531.833 258.364C545.047 245.782 579.099 210.777 584.13 179.516C584.034 179.534 596.245 174.841 595.114 152.747Z" fill="#F3417D"/>
<path d="M476.846 134.395C481.68 133.049 486.155 130.373 489.884 126.598L479.616 123.622L464.731 128.753C466.1 130.883 467.957 132.538 470.095 133.533C472.233 134.529 474.569 134.827 476.846 134.395Z" fill="#FF7BA9"/>
<path d="M514.862 138.613C515.018 137.341 514.757 136.048 514.131 134.982C513.505 133.917 512.558 133.155 511.471 132.843L489.836 126.598C486.12 130.365 481.663 133.041 476.846 134.395C474.569 134.827 472.233 134.529 470.095 133.533C467.957 132.538 466.1 130.883 464.731 128.753L461.276 129.94C461.276 129.94 456.5 136.732 448.318 154.956C440.135 173.18 437.731 230.608 437.731 230.608C468.536 247.188 488.038 230.608 488.038 230.608C488.881 220.967 492.049 210.193 495.775 200.278C498.481 184.209 502.286 168.341 509.704 154.262C509.704 159.503 509.704 164.689 509.704 169.875C510.755 167.921 511.392 166.825 511.392 166.825L514.862 138.613Z" fill="#3D61E9"/>
<path d="M509.657 154.262C502.238 168.341 498.433 184.209 495.727 200.278C499.749 189.767 504.404 179.59 509.657 169.82C509.625 164.689 509.657 159.503 509.657 154.262Z" fill="#1253A3"/>
<path d="M546.272 527.72H507.094L490.251 412.151V411.749L481.829 353.901V353.481L470.43 275.327L463.728 270.726L458.522 374.553L474.108 527.72H409.665L420.57 412.151V411.749L426.03 353.901V353.481L434.643 262.18L435.216 256.081L437.604 230.736C437.604 230.736 437.604 229.531 437.604 227.358C437.612 227.206 437.612 227.053 437.604 226.901C437.89 211.873 439.896 156.599 453.953 132.551L462.502 129.593C462.502 129.593 453.683 155.65 455.37 173.034C455.37 173.034 464.763 178.512 479.441 173.855C479.441 173.855 483.31 141.334 492.718 127.584L499.309 129.41C488.596 156.975 485.405 187.613 490.155 217.296C490.558 219.682 490.455 222.143 489.853 224.473C489.853 224.655 489.757 224.838 489.709 225.02C487.624 232.105 481.16 236.944 475.716 241.308C480.046 239.665 485.109 236.342 489.073 238.423C497.032 242.97 495.218 255.807 493.403 265.339C491.588 274.871 494.851 283.983 496.587 293.916C500.933 316.285 505.263 336.572 510.31 358.521C511.392 363.086 512.841 367.651 513.923 372.599C526.277 425.134 535.829 475.989 546.272 527.72Z" fill="#FEE952"/>
<path d="M543.852 527.72H543.47L485.681 258.583C485.672 258.527 485.681 258.469 485.708 258.422C485.735 258.374 485.777 258.34 485.825 258.327C485.847 258.319 485.87 258.316 485.893 258.319C485.916 258.322 485.938 258.331 485.958 258.345C485.977 258.359 485.994 258.378 486.007 258.4C486.02 258.422 486.028 258.447 486.032 258.473L543.852 527.72Z" fill="#FEC751"/>
<path d="M470.319 275.236C470.319 275.236 459.828 266.508 459.287 255.332L447.92 377.676L450.467 527.72H474.124L458.411 374.553L463.617 270.726L470.319 275.236Z" fill="#FEC751"/>
<path d="M521.772 369.787L500.726 268.169C512.522 238.076 491.078 229.512 491.078 229.512L492.67 209.152C484.01 179.333 502.222 130.159 502.222 130.159L499.468 129.355C488.692 156.917 485.445 187.577 490.155 217.296C491.97 228.892 482.943 235.557 475.716 241.308C480.046 239.665 485.109 236.342 489.073 238.423C497.032 242.97 495.218 255.807 493.403 265.339C491.588 274.871 494.851 283.983 496.587 293.916C500.933 316.285 505.263 336.572 510.31 358.521C511.392 363.086 512.841 367.651 513.923 372.599C526.213 425.207 535.765 476.062 546.209 527.72H566.124L521.772 369.787Z" fill="#FEC751"/>
<path d="M566.188 527.72H492.081C492.081 527.72 492.352 526.35 492.988 524.177C493.073 523.922 493.153 523.648 493.227 523.355C495.695 515.394 502.461 499.325 517.107 499.325C536.609 499.325 540.684 517.987 540.684 517.987H563.45L565.042 523.355L565.264 524.177L566.188 527.72Z" fill="#EE4A3E"/>
<path d="M474.108 527.72H392.185C392.376 526.522 392.631 525.339 392.949 524.177C392.949 523.922 393.092 523.648 393.172 523.355C395.416 515.394 402.31 499.325 421.318 499.325C446.583 499.325 447.554 518.133 447.554 518.133H473.137L473.662 523.355L473.758 524.177L474.108 527.72Z" fill="#EE4A3E"/>
<path d="M484.265 92.6705C480.408 92.7507 476.609 91.5933 473.296 89.3289C470.979 87.7574 469.09 85.4757 467.841 82.7402C466.592 80.0047 466.034 76.924 466.228 73.8442C466.23 73.8178 466.236 73.7921 466.247 73.7686C466.258 73.7451 466.272 73.7243 466.29 73.7073C466.308 73.6903 466.328 73.6776 466.35 73.6697C466.372 73.6619 466.396 73.6591 466.419 73.6616C466.466 73.6706 466.51 73.7002 466.539 73.7443C466.569 73.7884 466.582 73.8437 466.578 73.899C466.398 76.9006 466.948 79.9004 468.169 82.5638C469.389 85.2271 471.23 87.4492 473.487 88.9819C478.09 92.002 483.489 93.0136 488.69 91.8305C488.737 91.8305 488.781 91.8517 488.814 91.8894C488.847 91.927 488.866 91.9781 488.866 92.0314C488.866 92.0847 488.847 92.1358 488.814 92.1734C488.781 92.2111 488.737 92.2323 488.69 92.2323C487.228 92.5161 485.748 92.6626 484.265 92.6705Z" fill="#080C53"/>
<path d="M497.128 103.079H497.032C497.002 103.042 496.985 102.993 496.985 102.942C496.985 102.891 497.002 102.842 497.032 102.805C498.025 101.035 498.776 99.1012 499.261 97.0712C499.496 96.0765 499.531 95.0335 499.363 94.0212C499.195 93.0088 498.828 92.0536 498.29 91.2279C496.759 89.5803 494.753 88.6376 492.654 88.5802L489.47 88.1785C486.701 87.9013 483.951 87.4071 481.24 86.6994C477.436 85.742 474.015 83.3662 471.513 79.9431C471.498 79.9216 471.487 79.8969 471.481 79.8705C471.475 79.8442 471.473 79.8166 471.476 79.7895C471.479 79.7624 471.486 79.7362 471.498 79.7124C471.51 79.6886 471.526 79.6677 471.545 79.651C471.563 79.6342 471.585 79.6218 471.608 79.6146C471.631 79.6073 471.655 79.6053 471.679 79.6087C471.702 79.6121 471.725 79.6208 471.746 79.6343C471.767 79.6478 471.785 79.6659 471.799 79.6875C474.254 83.0474 477.615 85.3732 481.351 86.2977C484.045 87.0096 486.779 87.4978 489.534 87.7585L492.718 88.1785C494.908 88.2362 497.002 89.2254 498.592 90.954C499.159 91.8339 499.547 92.8486 499.726 93.9232C499.905 94.9978 499.871 96.1048 499.627 97.1625C499.139 99.2348 498.371 101.207 497.351 103.006C497.341 103.028 497.327 103.047 497.31 103.063C497.293 103.079 497.274 103.091 497.253 103.097C497.232 103.104 497.21 103.106 497.189 103.103C497.167 103.1 497.146 103.092 497.128 103.079Z" fill="#080C53"/>
<path d="M501.108 97.126H501.012C500.988 97.0859 500.974 97.0381 500.974 96.9891C500.974 96.94 500.988 96.8921 501.012 96.8521C502.353 94.1788 502.869 91.0652 502.477 88.0142C502.252 86.5268 501.636 85.1539 500.711 84.08C499.786 83.0061 498.597 82.2826 497.303 82.0066C497.257 82.0066 497.212 81.9854 497.179 81.9477C497.146 81.91 497.128 81.859 497.128 81.8057C497.128 81.7524 497.146 81.7013 497.179 81.6636C497.212 81.626 497.257 81.6048 497.303 81.6048C498.677 81.8806 499.943 82.6378 500.927 83.7725C501.91 84.9072 502.563 86.3635 502.795 87.9411C503.216 91.089 502.694 94.3075 501.315 97.0712C501.29 97.1051 501.257 97.1288 501.219 97.1387C501.182 97.1486 501.143 97.1441 501.108 97.126Z" fill="#080C53"/>
<path d="M497.064 111.387C494.881 111.341 492.764 110.525 490.999 109.05C490.971 109.039 490.945 109.021 490.924 108.998C490.902 108.974 490.886 108.944 490.877 108.912C490.867 108.88 490.864 108.846 490.868 108.812C490.872 108.778 490.883 108.746 490.9 108.718C490.917 108.69 490.939 108.666 490.965 108.65C490.991 108.633 491.02 108.624 491.05 108.623C491.079 108.621 491.109 108.628 491.136 108.642C491.163 108.656 491.187 108.677 491.206 108.703C492.916 110.117 494.957 110.906 497.064 110.967C498.105 110.983 499.136 110.749 500.093 110.28C501.05 109.812 501.911 109.119 502.62 108.246C503.312 107.357 503.784 106.272 503.988 105.104C504.192 103.936 504.121 102.726 503.782 101.6C503.775 101.575 503.772 101.548 503.773 101.521C503.775 101.495 503.781 101.469 503.792 101.445C503.802 101.421 503.816 101.4 503.834 101.383C503.851 101.366 503.872 101.352 503.894 101.344C503.915 101.332 503.937 101.326 503.96 101.325C503.983 101.324 504.006 101.329 504.027 101.34C504.049 101.35 504.068 101.366 504.083 101.385C504.098 101.405 504.11 101.428 504.117 101.454C504.481 102.649 504.561 103.933 504.348 105.175C504.135 106.417 503.638 107.572 502.907 108.52C502.16 109.438 501.255 110.167 500.249 110.661C499.243 111.154 498.158 111.402 497.064 111.387Z" fill="#080C53"/>
<path d="M491.429 81.3674H491.317C489.755 80.1502 487.904 79.5128 486.016 79.5414H484.265C482.925 79.5536 481.587 79.4191 480.269 79.1397C478.568 78.7169 476.974 77.8516 475.61 76.6106C474.247 75.3695 473.15 73.7858 472.404 71.9817C472.374 71.9445 472.357 71.8956 472.357 71.8447C472.357 71.7939 472.374 71.745 472.404 71.7078C472.426 71.6959 472.45 71.6893 472.474 71.6884C472.498 71.6875 472.522 71.6924 472.545 71.7027C472.567 71.713 472.587 71.7285 472.604 71.7482C472.621 71.7679 472.635 71.7915 472.643 71.8173C473.374 73.5548 474.438 75.0799 475.756 76.2784C477.074 77.477 478.611 78.3178 480.253 78.7379C481.556 79.0022 482.878 79.1306 484.201 79.1214C484.774 79.1214 485.363 79.1214 485.952 79.1214C487.917 79.1316 489.834 79.8117 491.46 81.0753C491.492 81.1154 491.509 81.1674 491.509 81.2213C491.509 81.2752 491.492 81.3272 491.46 81.3674C491.45 81.3681 491.439 81.3681 491.429 81.3674Z" fill="#080C53"/>
<path d="M474.952 99.1346C474.803 99.1399 474.658 99.0885 474.538 98.9885C474.381 98.863 474.274 98.6726 474.239 98.4578C474.203 98.243 474.242 98.0207 474.347 97.8381L475.939 95.0991C475.992 95.0092 476.06 94.9322 476.139 94.8725C476.219 94.8128 476.307 94.7716 476.4 94.7513C476.494 94.7309 476.589 94.7318 476.682 94.7539C476.775 94.776 476.863 94.8188 476.941 94.88C477.02 94.9411 477.087 95.0194 477.139 95.1103C477.191 95.2012 477.227 95.303 477.245 95.4098C477.262 95.5166 477.262 95.6264 477.242 95.7329C477.223 95.8394 477.186 95.9404 477.133 96.0304L475.541 98.7694C475.477 98.8818 475.389 98.9742 475.287 99.038C475.184 99.1018 475.068 99.135 474.952 99.1346Z" fill="#080C53"/>
<path d="M469.953 96.9434C469.823 96.9371 469.697 96.8931 469.586 96.8156C469.518 96.7625 469.459 96.6941 469.413 96.6145C469.368 96.5348 469.337 96.4456 469.322 96.352C469.307 96.2584 469.309 96.1623 469.327 96.0694C469.345 95.9765 469.379 95.8888 469.427 95.8113L470.844 93.4009C470.889 93.316 470.948 93.2424 471.019 93.1847C471.089 93.1269 471.169 93.0863 471.254 93.0652C471.338 93.0441 471.426 93.043 471.511 93.0619C471.596 93.0809 471.676 93.1195 471.748 93.1754C471.819 93.2313 471.88 93.3034 471.927 93.3872C471.973 93.471 472.004 93.5647 472.018 93.6627C472.031 93.7607 472.028 93.8609 472.007 93.9572C471.985 94.0535 471.947 94.1438 471.895 94.2226L470.478 96.6147C470.421 96.7147 470.343 96.7969 470.251 96.8543C470.159 96.9116 470.057 96.9422 469.953 96.9434Z" fill="#080C53"/>
<path d="M466.148 100.632L474.729 103.846C474.729 103.846 470.478 109.032 467.23 107.498C463.983 105.964 466.148 100.632 466.148 100.632Z" fill="#DEFCFF"/>
<path d="M420.347 200.789L411.177 194.763L421.684 198.598L420.347 200.789Z" fill="#F3417D"/>
<path d="M533.489 209.901L523.188 226.536L532.199 204.478L533.489 209.901Z" fill="#F3417D"/>
<path d="M573.957 175.042V527.72C573.957 528.325 574.167 528.906 574.54 529.334C574.913 529.762 575.419 530.002 575.947 530.002C576.475 530.002 576.981 529.762 577.354 529.334C577.727 528.906 577.937 528.325 577.937 527.72V179.169C576.372 178.13 575.016 176.724 573.957 175.042Z" fill="#F3A769"/>
<path d="M552.051 80.6188C549.524 80.6204 547.073 79.6254 545.109 77.8004C543.146 75.9754 541.789 73.4315 541.266 70.5953C540.744 67.7591 541.087 64.803 542.239 62.2228C543.391 59.6427 545.282 57.5953 547.594 56.424L621.239 19.155C623.896 17.9067 626.873 17.8977 629.536 19.1299C632.199 20.3621 634.337 22.7381 635.495 25.7519C636.653 28.7656 636.739 32.1789 635.736 35.2647C634.732 38.3505 632.718 40.8649 630.122 42.2723L556.445 79.5414C555.06 80.2424 553.565 80.6092 552.051 80.6188Z" fill="#FFF4D6"/>
<path d="M635.758 25.5643C634.662 22.7184 632.689 20.4363 630.218 19.155C631.4 20.6356 632.257 22.4186 632.718 24.3557C633.179 26.2928 633.23 28.3281 632.868 30.2925C632.505 32.2569 631.739 34.0936 630.633 35.65C629.527 37.2064 628.113 38.4376 626.508 39.2412L552.879 76.5102C551.466 77.2322 549.937 77.6053 548.39 77.6053C546.843 77.6053 545.313 77.2322 543.9 76.5102C545.456 78.4684 547.508 79.8163 549.768 80.3635C552.028 80.9107 554.38 80.6295 556.493 79.5597L630.122 42.2906C631.453 41.6214 632.655 40.6568 633.66 39.4524C634.664 38.248 635.451 36.8275 635.975 35.2728C636.499 33.7181 636.749 32.0598 636.712 30.3936C636.675 28.7274 636.35 27.0861 635.758 25.5643Z" fill="#F5EACE"/>
<path d="M478.088 185.816L455.243 184.885C455.101 184.88 454.962 184.843 454.833 184.776C454.704 184.709 454.588 184.613 454.492 184.494C454.396 184.375 454.321 184.235 454.272 184.083C454.224 183.93 454.202 183.768 454.208 183.606C454.21 183.442 454.241 183.281 454.298 183.131C454.356 182.981 454.439 182.846 454.543 182.733C454.647 182.621 454.769 182.533 454.903 182.476C455.037 182.419 455.18 182.394 455.322 182.401L478.151 183.332C478.439 183.332 478.714 183.463 478.917 183.696C479.12 183.929 479.234 184.245 479.234 184.574C479.234 184.903 479.12 185.219 478.917 185.452C478.714 185.685 478.439 185.816 478.151 185.816H478.088Z" fill="#FEC751"/>
<path d="M459.493 191.915C459.493 192.341 459.383 192.757 459.177 193.112C458.97 193.466 458.677 193.742 458.334 193.905C457.99 194.068 457.613 194.111 457.248 194.028C456.884 193.945 456.549 193.74 456.287 193.438C456.024 193.137 455.845 192.753 455.772 192.335C455.7 191.917 455.737 191.484 455.879 191.09C456.021 190.696 456.262 190.36 456.571 190.123C456.88 189.886 457.243 189.76 457.615 189.76C458.113 189.76 458.591 189.987 458.943 190.391C459.295 190.795 459.493 191.343 459.493 191.915Z" fill="#FEC751"/>
<path d="M475.715 192.682C475.715 193.108 475.605 193.524 475.399 193.879C475.193 194.233 474.899 194.509 474.556 194.672C474.213 194.835 473.835 194.878 473.471 194.795C473.106 194.712 472.771 194.507 472.509 194.205C472.246 193.904 472.067 193.52 471.995 193.102C471.922 192.684 471.959 192.251 472.101 191.857C472.244 191.463 472.484 191.127 472.793 190.89C473.102 190.653 473.465 190.527 473.837 190.527C474.084 190.527 474.328 190.583 474.556 190.691C474.784 190.799 474.991 190.958 475.165 191.158C475.34 191.358 475.478 191.596 475.573 191.857C475.667 192.118 475.715 192.399 475.715 192.682Z" fill="#FEC751"/>
<path d="M463.282 218.995L451.74 207.162V207.071L453.141 186.218C453.149 186.163 453.175 186.113 453.213 186.079C453.252 186.045 453.3 186.03 453.348 186.035C453.371 186.037 453.394 186.045 453.414 186.057C453.435 186.069 453.453 186.086 453.468 186.106C453.482 186.127 453.493 186.15 453.5 186.176C453.507 186.201 453.51 186.228 453.507 186.254L452.106 206.998L463.25 218.483L477.833 208.057L478.915 188.08C478.915 188.052 478.92 188.024 478.93 187.999C478.94 187.973 478.954 187.95 478.972 187.931C478.99 187.912 479.011 187.898 479.035 187.889C479.058 187.88 479.082 187.877 479.106 187.879C479.129 187.881 479.152 187.889 479.172 187.901C479.193 187.914 479.211 187.93 479.226 187.951C479.241 187.971 479.252 187.995 479.259 188.02C479.265 188.045 479.268 188.072 479.266 188.098L478.183 208.294L463.282 218.995Z" fill="#FEC751"/>
<path d="M489.853 224.4C489.853 224.582 489.757 224.765 489.709 224.947C483.167 228.571 476.193 231.063 469.014 232.343C466.198 232.813 463.357 233.051 460.512 233.055C455.671 233.067 450.851 232.323 446.185 230.845C443.285 229.91 440.462 228.688 437.747 227.193C437.755 227.041 437.755 226.889 437.747 226.737C440.489 228.249 443.345 229.471 446.28 230.389C456.055 233.566 471.067 234.625 489.853 224.4Z" fill="#FEC751"/>
<path d="M495.727 267.348C495.469 267.347 495.214 267.284 494.979 267.165L469.507 253.871C469.072 253.644 468.734 253.227 468.566 252.714C468.399 252.2 468.417 251.631 468.615 251.132C468.814 250.634 469.177 250.246 469.625 250.054C470.073 249.862 470.568 249.882 471.003 250.11L496.475 263.385C496.861 263.573 497.177 263.909 497.37 264.335C497.563 264.762 497.62 265.252 497.531 265.722C497.442 266.191 497.214 266.611 496.884 266.907C496.555 267.204 496.145 267.36 495.727 267.348Z" fill="#FEC751"/>
<path d="M508.893 412.078H490.267L490.203 411.658H508.415L495.584 353.828H481.765L481.702 353.408H495.87L495.902 353.572L508.893 412.078Z" fill="#FEC751"/>
<path d="M441.599 353.408L441.583 353.627L439.753 412.078H420.569L420.601 411.658H439.402L441.217 353.828H426.062L426.094 353.408H441.599Z" fill="#FEC751"/>
<path d="M444.768 251.991L434.722 262.143L435.295 256.044L442.38 248.868C442.745 248.548 443.203 248.4 443.661 248.452C444.118 248.504 444.541 248.754 444.845 249.151C445.148 249.547 445.309 250.061 445.294 250.588C445.28 251.115 445.092 251.617 444.768 251.991Z" fill="#FEC751"/>
<path d="M473.758 524.068H392.949C392.949 523.812 393.092 523.538 393.172 523.246H473.662L473.758 524.068Z" fill="#1253A3"/>
<path d="M409.664 509.752C409.582 509.732 409.509 509.68 409.456 509.605C409.403 509.53 409.374 509.437 409.374 509.341C409.374 509.244 409.403 509.151 409.456 509.076C409.509 509.002 409.582 508.95 409.664 508.93L418.691 508.455L410.62 505.04C410.535 505.004 410.465 504.934 410.422 504.844C410.378 504.754 410.364 504.649 410.381 504.547C410.403 504.453 410.453 504.37 410.523 504.313C410.593 504.256 410.677 504.229 410.763 504.237L419.821 505.077L415.045 501.425C414.978 501.368 414.929 501.286 414.906 501.194C414.883 501.102 414.887 501.003 414.918 500.914C414.95 500.823 415.009 500.749 415.086 500.705C415.162 500.662 415.249 500.651 415.332 500.676L427.001 503.708C427.055 503.709 427.108 503.725 427.156 503.753C427.205 503.781 427.247 503.821 427.28 503.87C427.313 503.919 427.336 503.976 427.348 504.036C427.36 504.097 427.36 504.16 427.348 504.22C427.336 504.281 427.312 504.338 427.279 504.387C427.245 504.435 427.203 504.475 427.155 504.503C427.106 504.531 427.053 504.546 426.999 504.547C426.945 504.549 426.891 504.536 426.842 504.511L417.019 501.955L421.286 505.278C421.352 505.332 421.402 505.409 421.428 505.497C421.454 505.586 421.454 505.682 421.429 505.771C421.398 505.853 421.347 505.922 421.282 505.971C421.217 506.019 421.141 506.045 421.063 506.045L413.262 505.314L420.553 508.419C420.628 508.456 420.69 508.52 420.729 508.602C420.768 508.684 420.782 508.778 420.769 508.87C420.757 508.962 420.717 509.047 420.658 509.11C420.599 509.174 420.523 509.213 420.442 509.222L409.632 509.77L409.664 509.752Z" fill="#1253A3"/>
<path d="M565.185 524.068H492.989C493.074 523.812 493.153 523.538 493.228 523.246H564.962L565.185 524.068Z" fill="#1253A3"/>
<path d="M505.088 511.139C504.996 511.14 504.907 511.101 504.84 511.03C504.772 510.959 504.73 510.861 504.722 510.756C504.717 510.646 504.749 510.537 504.811 510.453C504.873 510.368 504.96 510.313 505.056 510.299L516.072 509.131L507.874 506.556C507.781 506.542 507.697 506.485 507.64 506.4C507.583 506.314 507.559 506.206 507.571 506.1C507.584 505.993 507.633 505.897 507.708 505.832C507.782 505.767 507.876 505.738 507.969 505.753H516.98L510.708 502.539C510.636 502.493 510.581 502.42 510.55 502.334C510.518 502.247 510.513 502.151 510.535 502.061C510.557 501.97 510.605 501.891 510.671 501.835C510.737 501.78 510.817 501.751 510.899 501.754L521.724 503.123C521.82 503.137 521.907 503.192 521.969 503.276C522.031 503.361 522.063 503.469 522.058 503.58C522.052 503.635 522.037 503.689 522.013 503.737C521.989 503.785 521.957 503.828 521.918 503.862C521.88 503.896 521.836 503.921 521.789 503.935C521.742 503.949 521.693 503.953 521.644 503.945L513.127 502.868L518.827 505.789C518.902 505.825 518.964 505.891 519.002 505.974C519.04 506.058 519.051 506.154 519.034 506.246C519.018 506.339 518.975 506.423 518.911 506.484C518.847 506.544 518.766 506.576 518.683 506.574H510.723L518.238 508.93C518.32 508.955 518.392 509.013 518.442 509.093C518.491 509.173 518.515 509.27 518.508 509.368C518.501 509.467 518.463 509.56 518.402 509.63C518.341 509.7 518.26 509.743 518.174 509.752L505.183 511.139H505.088Z" fill="#1253A3"/>
<path d="M694.517 530.55H1.27357C1.10707 530.552 0.94182 530.517 0.787391 530.446C0.632962 530.374 0.492423 530.268 0.373946 530.134C0.25547 530 0.161412 529.84 0.0972154 529.664C0.0330186 529.488 -1.33363e-05 529.298 4.03909e-09 529.107C4.03918e-09 528.72 0.13418 528.348 0.373023 528.074C0.611867 527.801 0.935789 527.647 1.27357 527.647H694.517C694.855 527.647 695.179 527.801 695.418 528.074C695.657 528.348 695.791 528.72 695.791 529.107C695.791 529.298 695.758 529.488 695.694 529.664C695.63 529.84 695.536 530 695.417 530.134C695.299 530.268 695.158 530.374 695.004 530.446C694.849 530.517 694.684 530.552 694.517 530.55Z" fill="#65CCD6"/>
</g>
<defs>
<clipPath id="clip0_2725_22858">
<rect width="695.791" height="530.55" fill="white"/>
</clipPath>
</defs>
</svg>
