<svg width="696" height="531" fill="none" xmlns="http://www.w3.org/2000/svg"><g clip-path="url(#a)"><path d="M683.66 529.308 69.41 527.72a747.326 747.326 0 0 1-18.053-84.582c0-.273-.08-.547-.111-.821a427.464 427.464 0 0 1-4.028-38.347v-.821a196.015 196.015 0 0 1 1.592-41.141l.143-.821c2.914-16.928 9.202-29.874 20.537-35.169 1.783-.84 3.582-1.827 5.413-2.666l1.592-.822c50.386-26.55 117.504-92.032 118.475-151.651a147.719 147.719 0 0 1 4.473-34.694c0-.293.144-.567.223-.84 3.248-12.347 8.439-23.907 15.315-34.11l.573-.84c9.678-13.628 21.704-24.818 35.326-32.869l1.369-.84c14.694-8.838 32.7-16.014 54.542-21.127l.716-.164c9.34-2.155 19.396-3.926 30.168-5.314 13.898-1.826 27.525-4.31 40.771-7.304l.716-.164c89.024-20.087 159.994-58.944 173.319-4.967 15.347 62.085 12.736 206.924 70.35 227.723 57.613 20.798 60.829 273.939 60.829 273.939z" fill="#DEFCFF"/><path d="M662.694 527.72h-77.769l-9.551-101.436a9.485 9.485 0 0 1 .307-3.448 8.695 8.695 0 0 1 1.506-3.006 7.402 7.402 0 0 1 2.442-2.043 6.495 6.495 0 0 1 2.956-.724h80.491a6.458 6.458 0 0 1 2.92.699 7.363 7.363 0 0 1 2.429 1.986 8.646 8.646 0 0 1 1.527 2.94 9.47 9.47 0 0 1 .367 3.395l-7.625 101.637z" fill="#B2EBF2"/><path d="M662.996 416.99h-2.244c.982 1.593 1.439 3.534 1.289 5.478l-7.53 101.6h-69.92l.335 3.542h77.768l7.546-101.636a9.485 9.485 0 0 0-.378-3.385 8.646 8.646 0 0 0-1.529-2.926 7.373 7.373 0 0 0-2.424-1.977 6.478 6.478 0 0 0-2.913-.696zM605.534 453.531l-17.388-3.184-1.066 7.664 17.387 3.184 1.067-7.664z" fill="#8DD8E0"/><path d="m587.027 458.075-2.643 18.936 2.293.42 1.862-7.614-.207 7.925 7.738 1.406 1.162-1.954.238 2.227 4.299.786 2.642-18.936-17.384-3.196z" fill="#65CCD6"/><path d="m588.094 450.424 17.384 3.178s-6.368-1.826-6.989-5.479c-.621-3.652 5.254-10.499 5.859-16.178.605-5.679-2.5-7.304-4.044-7.56-1.544-.255-5.285-.456-6.097 6.008-.86 6.884 2.468 13.896.939 17.128-1.528 3.232-7.052 2.903-7.052 2.903zm11.303-18.643c-.748 0-1.258-1.206-1.115-2.466.144-1.26.844-2.191 1.592-2.081.749.109 1.258 1.205 1.115 2.465-.144 1.26-.844 2.191-1.56 2.082h-.032zM610.27 527.72h-44.082l-5.461-57.502a5.39 5.39 0 0 1 .174-1.956c.177-.63.468-1.211.854-1.704a4.19 4.19 0 0 1 1.387-1.156 3.67 3.67 0 0 1 1.677-.406h45.626a3.645 3.645 0 0 1 1.657.393c.523.261.992.645 1.378 1.126a4.87 4.87 0 0 1 .866 1.667c.185.619.255 1.275.206 1.927l-4.282 57.611z" fill="#8DD8E0"/><path d="M610.445 464.923h-2.706c.371.48.655 1.041.832 1.65a5.43 5.43 0 0 1 .203 1.892l-4.283 57.611h-38.494l.159 1.571h44.082l4.283-57.611a5.362 5.362 0 0 0-.204-1.918 4.886 4.886 0 0 0-.857-1.663 4.186 4.186 0 0 0-1.368-1.128 3.665 3.665 0 0 0-1.647-.404z" fill="#65CCD6"/><path d="m651.662 487.401-23.543 4.248 1.423 10.372 23.542-4.248-1.422-10.372z" fill="#8DD8E0"/><path d="m629.549 502.009 3.518 25.638 3.089-.548-.367-10.701 2.627 10.299 10.459-1.899.796-3.068 1.115 2.721 5.811-1.041-3.503-25.637-23.545 4.236z" fill="#65CCD6"/><path d="m628.084 491.656 23.545-4.255s-8.787.767-10.984-3.652c-2.197-4.419 2.929-16.051 1.592-23.647-1.338-7.596-5.875-8.162-7.96-7.779-1.783.311-6.973 1.954-5.668 10.664 1.401 9.258 8.263 16.672 7.467 21.565-.796 4.894-7.992 7.104-7.992 7.104zm7.737-29.417c-1.003.219-2.038-.95-2.324-2.648-.287-1.698.286-3.214 1.289-3.451 1.003-.238 2.054.967 2.34 2.647.287 1.68-.254 3.196-1.257 3.452h-.048zM379.082 32.412v34.895H250.785l1.369-.84H378.35v-33.89l.732-.165zM411.575 71.525v29.582H214.901l.573-.84H410.81V71.525a.481.481 0 0 1 .074-.351.378.378 0 0 1 .127-.115.327.327 0 0 1 .315 0 .378.378 0 0 1 .127.115.458.458 0 0 1 .074.351h.048z" fill="#8DD8E0"/><path d="M341.432 101.107a.348.348 0 0 1-.259-.123.458.458 0 0 1-.107-.297v-33.8a.481.481 0 0 1 .002-.185.441.441 0 0 1 .072-.166.369.369 0 0 1 .127-.115.327.327 0 0 1 .315 0 .388.388 0 0 1 .127.115.463.463 0 0 1 .073.352v33.799a.444.444 0 0 1-.096.296.35.35 0 0 1-.116.091.305.305 0 0 1-.138.033zM270.796 101.107a.348.348 0 0 1-.259-.123.453.453 0 0 1-.107-.297v-33.8c0-.111.038-.218.107-.297a.345.345 0 0 1 .259-.123c.097 0 .19.044.259.123a.457.457 0 0 1 .107.297v33.8a.48.48 0 0 1-.107.297.37.37 0 0 1-.119.091.33.33 0 0 1-.14.032zM379.083 100.687v35.37H199.364c0-.292.143-.566.223-.84h178.779v-34.53a.485.485 0 0 1 .002-.186.449.449 0 0 1 .072-.166.364.364 0 0 1 .127-.114.326.326 0 0 1 .315 0 .382.382 0 0 1 .127.114.485.485 0 0 1 .074.352z" fill="#8DD8E0"/><path d="M307.061 136.057a.345.345 0 0 1-.248-.13.45.45 0 0 1-.102-.29v-34.95a.485.485 0 0 1 .002-.186.449.449 0 0 1 .072-.166.364.364 0 0 1 .127-.114.326.326 0 0 1 .315 0 .382.382 0 0 1 .127.114.485.485 0 0 1 .074.352v34.95a.453.453 0 0 1-.108.297.346.346 0 0 1-.259.123zM235.406 136.057a.35.35 0 0 1-.249-.13.454.454 0 0 1-.101-.29v-34.95a.466.466 0 0 1 .074-.352.37.37 0 0 1 .126-.114.33.33 0 0 1 .316 0 .37.37 0 0 1 .126.114.466.466 0 0 1 .074.352v34.95a.453.453 0 0 1-.107.297.348.348 0 0 1-.259.123zM307.428 45.176v21.711a.481.481 0 0 1-.074.352.388.388 0 0 1-.127.114.327.327 0 0 1-.315 0 .369.369 0 0 1-.127-.114.441.441 0 0 1-.072-.167.481.481 0 0 1-.002-.185V45.34l.717-.164zM115.721 322.84v39.059h-66.99l.143-.822h66.131V322.84a.461.461 0 0 1 .073-.351.385.385 0 0 1 .127-.115.326.326 0 0 1 .315 0c.05.027.093.066.127.115a.435.435 0 0 1 .072.166.48.48 0 0 1 .002.185zM121.978 403.55a.43.43 0 0 1-.103.284.328.328 0 0 1-.248.118H47.218v-.822h74.457a.347.347 0 0 1 .223.142.45.45 0 0 1 .08.278z" fill="#8DD8E0"/><path d="M66.975 403.861a.33.33 0 0 1-.248-.118.432.432 0 0 1-.103-.284v-41.907c0-.107.037-.209.103-.284a.327.327 0 0 1 .248-.118.317.317 0 0 1 .139.025.354.354 0 0 1 .119.086.415.415 0 0 1 .08.133c.018.05.028.104.028.158v41.998a.41.41 0 0 1-.133.233.318.318 0 0 1-.233.078zM140.524 322.84a.442.442 0 0 1-.108.291.32.32 0 0 1-.258.111H74.887l1.592-.822h63.679c.097 0 .19.045.259.123a.453.453 0 0 1 .107.297zM115.371 443.065a.333.333 0 0 1-.258-.111.425.425 0 0 1-.108-.29V403.55a.461.461 0 0 1 .073-.351.385.385 0 0 1 .127-.115.326.326 0 0 1 .315 0c.05.027.093.066.127.115a.435.435 0 0 1 .072.166.48.48 0 0 1 .002.185v39.205a.411.411 0 0 1-.127.227.321.321 0 0 1-.223.083z" fill="#8DD8E0"/><path d="M152.798 442.664a.446.446 0 0 1-.108.29.342.342 0 0 1-.119.086.304.304 0 0 1-.139.025H51.357c0-.273-.08-.547-.111-.821h101.186c.097 0 .19.044.259.123a.449.449 0 0 1 .107.297zM412.371 203.583h-91.539c-.958 0-1.877-.437-2.555-1.214-.678-.777-1.059-1.832-1.059-2.931s.381-2.154 1.059-2.931c.678-.777 1.597-1.214 2.555-1.214h91.539c.958 0 1.878.437 2.555 1.214.678.777 1.059 1.832 1.059 2.931s-.381 2.154-1.059 2.931c-.677.777-1.597 1.214-2.555 1.214z" fill="#8DD8E0"/><path d="M225.775 529.308a1.414 1.414 0 0 1-.51-.109 1.432 1.432 0 0 1-.477-.343 1.652 1.652 0 0 1-.326-.527 1.868 1.868 0 0 1-.025-1.267l110.229-328.227c.115-.327.318-.604.579-.791.261-.186.567-.273.874-.246.307.026.598.164.832.393.234.229.399.538.469.882L401.322 527.3c.043.211.048.429.017.643-.032.213-.1.418-.2.601a1.587 1.587 0 0 1-.386.467 1.366 1.366 0 0 1-.513.261 1.277 1.277 0 0 1-.567.017 1.328 1.328 0 0 1-.529-.234 1.547 1.547 0 0 1-.41-.448 1.775 1.775 0 0 1-.229-.595l-62.868-322.877-108.509 323.206c-.118.295-.31.544-.55.716-.241.172-.52.26-.803.251z" fill="#8DD8E0"/><path d="M298.098 529.308a1.094 1.094 0 0 1-.477-.091 1.541 1.541 0 0 1-.819-.852 1.885 1.885 0 0 1-.057-1.266l101.887-328.227a1.68 1.68 0 0 1 .563-.812c.257-.196.561-.295.87-.284.31.02.607.153.848.379.24.227.412.535.489.881l70.397 328.227a1.886 1.886 0 0 1-.17 1.258 1.594 1.594 0 0 1-.383.478 1.38 1.38 0 0 1-.513.273 1.26 1.26 0 0 1-.563.027 1.32 1.32 0 0 1-.527-.224 1.523 1.523 0 0 1-.413-.439 1.779 1.779 0 0 1-.233-.588L399.746 205.19 299.547 528.213c-.104.339-.302.63-.563.828a1.293 1.293 0 0 1-.886.267z" fill="#8DD8E0"/><path d="M411.193 253.652h-64.89a1.396 1.396 0 0 1-.925-.54 1.813 1.813 0 0 1-.372-1.112c0-.411.133-.807.372-1.112.24-.305.569-.498.925-.541h64.953c.202-.024.406 0 .599.072.194.072.371.19.522.346.151.156.272.346.354.559a1.865 1.865 0 0 1 0 1.352 1.67 1.67 0 0 1-.354.559 1.409 1.409 0 0 1-.522.345 1.264 1.264 0 0 1-.599.072h-.063zM423.817 312.505h-66.115a1.397 1.397 0 0 1-.925-.541 1.81 1.81 0 0 1-.372-1.112c0-.41.133-.806.372-1.111.24-.305.569-.498.925-.541h66.115c.202-.024.406 0 .599.072.194.072.371.19.522.345.151.156.272.347.354.56a1.86 1.86 0 0 1 0 1.351 1.65 1.65 0 0 1-.354.559 1.412 1.412 0 0 1-.522.346 1.277 1.277 0 0 1-.599.072zM438.129 379.246h-67.42c-.202.024-.406 0-.599-.072a1.412 1.412 0 0 1-.522-.346 1.65 1.65 0 0 1-.354-.559 1.86 1.86 0 0 1 0-1.351 1.65 1.65 0 0 1 .354-.559c.151-.156.328-.274.522-.346.193-.072.397-.096.599-.072h67.42c.202-.024.406 0 .599.072.193.072.371.19.522.346.151.155.272.346.354.559.083.212.125.443.125.675 0 .233-.042.464-.125.676a1.65 1.65 0 0 1-.354.559 1.42 1.42 0 0 1-.522.346 1.277 1.277 0 0 1-.599.072zM453.524 448.562h-69.331c-.384 0-.753-.175-1.025-.487a1.797 1.797 0 0 1-.424-1.175c0-.441.153-.863.424-1.175a1.363 1.363 0 0 1 1.025-.487h69.331c.384 0 .752.175 1.024.487s.424.734.424 1.175c0 .441-.152.863-.424 1.175a1.36 1.36 0 0 1-1.024.487zM379.91 265.595h-65.558a1.277 1.277 0 0 1-.599-.073 1.417 1.417 0 0 1-.522-.345 1.676 1.676 0 0 1-.354-.559 1.885 1.885 0 0 1 0-1.352c.083-.213.203-.403.354-.559.151-.156.329-.273.522-.345.193-.072.397-.097.599-.073h65.558c.202-.024.406.001.599.073.193.072.371.189.522.345.151.156.272.346.354.559.083.213.125.443.125.676 0 .233-.042.463-.125.676a1.66 1.66 0 0 1-.354.559 1.417 1.417 0 0 1-.522.345 1.277 1.277 0 0 1-.599.073zM360.17 329.213h-67.182c-.202.024-.406 0-.599-.072a1.42 1.42 0 0 1-.522-.346 1.666 1.666 0 0 1-.354-.559 1.858 1.858 0 0 1-.125-.675c0-.233.042-.464.125-.676.083-.213.203-.404.354-.559a1.42 1.42 0 0 1 .522-.346c.193-.072.397-.096.599-.072h67.182c.202-.024.406 0 .599.072.193.072.371.19.522.346.15.155.271.346.354.559a1.881 1.881 0 0 1 0 1.351 1.681 1.681 0 0 1-.354.559 1.42 1.42 0 0 1-.522.346 1.277 1.277 0 0 1-.599.072zM339.936 394.311h-68.822a1.397 1.397 0 0 1-.925-.541 1.81 1.81 0 0 1-.372-1.112c0-.41.133-.807.372-1.112.24-.305.569-.497.925-.54h68.822c.202-.025.406 0 .599.072.193.072.371.189.522.345.151.156.271.346.354.559a1.885 1.885 0 0 1 0 1.352 1.676 1.676 0 0 1-.354.559 1.42 1.42 0 0 1-.522.346 1.29 1.29 0 0 1-.599.072zM321.485 453.948h-70.398c-.384 0-.752-.175-1.024-.486a1.792 1.792 0 0 1-.424-1.175c0-.441.152-.864.424-1.175a1.36 1.36 0 0 1 1.024-.487h70.398c.384 0 .752.175 1.024.487.272.311.424.734.424 1.175 0 .441-.152.863-.424 1.175-.272.311-.64.486-1.024.486z" fill="#8DD8E0"/><path d="m63.615 483.895 5.54-14.608 19.725-10.956 6.368-24.085c.373-1.449 1.08-2.755 2.047-3.78.967-1.025 2.157-1.732 3.445-2.045 1.578-.456 3.246-.252 4.704.574 1.459.827 2.613 2.222 3.256 3.936 4.331 9.13-11.303 27.609-11.303 27.609l8.899 14.353-4.775 14.9-37.906-5.898z" fill="#65CCD6"/><path d="m72.164 471.369 19.725-10.756 6.368-24.085c.572-2.12 1.839-3.904 3.535-4.973 1.696-1.07 3.688-1.342 5.555-.76-.812-1.04-1.858-1.805-3.023-2.211a5.837 5.837 0 0 0-3.584-.09c-1.288.313-2.478 1.02-3.445 2.045-.967 1.025-1.674 2.331-2.047 3.78l-6.368 24.085-19.724 10.755-5.54 14.608 3.613.585 4.935-12.983z" fill="#44B5C2"/><path d="M111.025 527.72h-72.69l-15.363-44.172c0-1.453.503-2.846 1.399-3.873.896-1.028 2.11-1.605 3.377-1.605h93.847c1.267 0 2.482.577 3.377 1.605.896 1.027 1.399 2.42 1.399 3.873l-15.346 44.172z" fill="#8DD8E0"/><path d="m45.849 522.041-15.315-44.08H27.78c-1.267 0-2.481.577-3.377 1.604-.896 1.027-1.399 2.421-1.399 3.874l15.33 44.281h72.691l1.974-5.606-67.15-.073z" fill="#65CCD6"/><path d="M216.939 122.106h-12.736l.303 1.68c3.633 2.432 7.656 4.002 11.828 4.62.064-2.115.267-4.22.605-6.3z" fill="#F3417D"/><path d="M216.318 128.406c-4.172-.618-8.194-2.188-11.828-4.62l4.266 23.738s7.705 6.355 12.736 1.388c.032-.018-5.636-7.158-5.174-20.506zM222.957 102.787s9.393 18.497 6.989 20.981c-2.404 2.483-25.758-1.662-25.758-1.662s-33.703-26.514 18.769-19.319z" fill="#FF7BA9"/><path d="M208.279 108.849s33.225-1.369 28.401-22.369c0 0-51.994 8.838-47.648 20.707 4.346 11.869 15.156 14.919 15.156 14.919l-2.166-9.66s-4.091-4.419.478-6.354a3.669 3.669 0 0 1 1.71-.535 3.607 3.607 0 0 1 1.746.353 4.111 4.111 0 0 1 1.448 1.171c.402.508.7 1.112.875 1.768z" fill="#080C53"/><path d="M154.995 206.194a25.545 25.545 0 0 1 4.935-1.315 483.597 483.597 0 0 1 11.287-29.125c-5.38 9.459-11.414 20.507-16.222 30.44zM180.737 185.341c-1.91 7.304-4.075 14.608-6.176 21.748.805.41 1.587.88 2.34 1.406l7.96-18.26a67.354 67.354 0 0 0-4.124-4.894zM248.237 166.277c-2.531-2.483-5.412-4.145-6.861-7.87 0 4.492.127 9.13 0 13.714l6.607-1.973 13.77 20.269a30.217 30.217 0 0 1 3.184-5.843 261.073 261.073 0 0 0-4.776-5.861c-3.98-4.146-7.944-7.871-11.924-12.436z" fill="#F7CDA3"/><path d="M274.792 174.933c-3.801 2.462-7.157 5.734-9.886 9.641-1.194-1.497-2.388-2.995-3.614-4.474l-.239-.31-.892-1.077c-3.979-4.146-7.959-7.871-11.923-12.436-2.532-2.483-5.413-4.145-6.862-7.87 0 4.492.112 9.13 0 13.714l-55.974 16.799-.541 1.242a86.64 86.64 0 0 0-4.155-4.821c-1.417 5.478-2.961 10.755-4.506 16.051l-.127.42c-.509 1.826-1.035 3.506-1.592 5.277-4.596-2.287-9.659-3.052-14.614-2.21a377.105 377.105 0 0 1 2.197-6.099c.046-.149.099-.295.159-.438a466.039 466.039 0 0 1 8.931-22.588c7.482-13.147 13.723-23.281 13.723-23.281l28.019-10.208 32.396 4.145 25.138 24.359.302.293 4.06 3.871z" fill="#FFDFBF"/><path d="M274.808 174.933c-3.801 2.462-7.157 5.734-9.887 9.641l1.306 1.662c2.385-4.21 5.273-8.015 8.581-11.303z" fill="#F3417D"/><path d="m299.34 198.707-24.532-23.738c-3.313 3.288-6.207 7.092-8.597 11.303 4.967 6.318 9.839 12.655 15.251 18.571-11.923 11.595-22.383 24.834-27.445 41.816-1.33 4.595-1.2 9.582.366 14.078 1.082 3.324 3.964 4.565 6.495 4.985 4.167.728 8.426-.145 12.115-2.483.446-4.528-1.305-8.071-7.657-7.176l34.8-43.989a9.664 9.664 0 0 0 1.653-3.195c.358-1.182.504-2.434.43-3.683a10.373 10.373 0 0 0-.863-3.581 9.192 9.192 0 0 0-2.016-2.908z" fill="#FF7BA9"/><path d="M260.878 265.686c-2.531-.42-5.413-1.662-6.495-4.985a23.361 23.361 0 0 1-.366-14.079c5.062-16.982 15.521-30.22 27.445-41.816-5.89-6.445-11.144-13.384-16.556-20.232a30.11 30.11 0 0 0-3.184 5.843l10.777 15.905s-39.226 35.06-32.014 58.25c7.211 23.19 20.695 17.676 25.758 12.983 3.532-3.823 5.885-8.861 6.702-14.353-3.675 2.326-7.916 3.199-12.067 2.484z" fill="#F3417D"/><path d="m212.959 142.265-13.277 4.839c3.534 3.54 8.045 5.532 12.736 5.624 5.145-1.598 9.872-4.613 13.771-8.783l-13.23-1.68z" fill="#FF7BA9"/><path d="M226.125 143.945c-3.898 4.17-8.625 7.185-13.771 8.783a11.064 11.064 0 0 0 3.025-.529c4.611-1.262 8.786-4.08 11.988-8.09l-1.242-.164z" fill="#F3417D"/><path d="M180.737 185.341c-.891 3.433-1.846 6.829-2.801 10.207 3.82 4.748 22.415 29.618 20.25 61.848 4.757 3.5 9.947 6.159 15.394 7.888-5.667-29.454-13.596-59.163-32.843-79.943z" fill="#F7CDA3"/><path d="M252.568 258.765c-14.201 10.956-28.656 9.879-39.004 6.519-5.651-29.454-13.579-59.163-32.842-79.943a411.684 411.684 0 0 1-2.818 10.207c-.43-.547-.669-.821-.669-.821l7.705-42.254 9.075-3.305.461-.165 5.206-1.826c4.442 4.017 10.077 6.884 15.697 5.095 4.615-1.262 8.791-4.087 11.988-8.108l3.9.512h.43l13.659 1.826c17.082 37.926 7.212 112.263 7.212 112.263z" fill="#FFDFBF"/><path d="M231.681 144.657c-2.961 4.054-9.759 12.253-17.145 13.951a8.569 8.569 0 0 1-2.07.237c-6.209 0-13.691-5.478-18.467-9.677l.462-.165c5.301 4.565 13.77 10.646 20.011 9.13 7.148-1.643 13.77-9.532 16.779-13.604l.43.128z" fill="#F7CDA3"/><path d="M189.573 150.793s16.302 65.609 8.676 106.676c-7.625 41.067-40.34 227.394-63.09 270.251h71.496l19.215-224.236 8.947-4.985 12.449 101.984 3.614 127.237h63.473l-61.785-268.936s4.378-88.508-13.214-113.214l-9.01-1.168c7.236 13.768 10.47 29.819 9.233 45.833 0 0-6.989 8.545-31.059 1.643 0 0-6.464-34.165-11.144-44.007l-7.801 2.922z" fill="#1253A3"/><path d="m247.187 400.41 3.693 127.31h24.198l-16.731-129.447-19.677-114.71c-5.413 14.699-12.879 19.922-12.879 19.922l8.946-4.986 12.45 101.911zM206.496 432.328l-32.126-3.871v-.237l17.368-62.304a.202.202 0 0 1 .084-.129.156.156 0 0 1 .139-.017.189.189 0 0 1 .113.107.249.249 0 0 1 .014.167l-17.304 62.085 31.425 3.743 5.986-62.213a.232.232 0 0 1 .072-.138.172.172 0 0 1 .135-.044.19.19 0 0 1 .121.082c.029.045.043.1.038.155l-6.065 62.614zM189.573 150.793s16.302 65.609 8.676 106.676c-7.625 41.067-40.34 227.394-63.09 270.251h16.286c4.203-21.182 47.584-239.866 52.742-277.3 4.108-29.892-6.909-78.628-12.449-100.431l-2.165.804z" fill="#003E8A"/><path d="m232.842 335.62-101.393 23.154 2.257 13.002 101.393-23.154-2.257-13.002z" fill="#080C53"/><path d="m133.742 371.705-7.307 28.705 124.445-27.336-15.76-24.542-101.378 23.173z" fill="#FFF4D6"/><path d="M220.617 527.72H135.08l1.878-4.164.382-.821 2.372-5.278h18.977s11.382-22.259 33.941-22.259c16.986 0 24.261 18.425 26.809 27.537l.238.821c.669 2.465.94 4.164.94 4.164zM333.568 527.72h-82.783l-.112-4.164v-.821l-.143-4.985h23.1s8.66-22.552 30.327-22.552c16.302 0 24.835 18.425 28.067 27.537.095.292.191.566.286.821.924 2.465 1.258 4.164 1.258 4.164z" fill="#FFDFBF"/><path d="M208.979 105.617a.18.18 0 0 1-.115-.056.232.232 0 0 1-.06-.127.215.215 0 0 1 .034-.159.177.177 0 0 1 .055-.054.154.154 0 0 1 .07-.024 71.721 71.721 0 0 0 15.347-4.62 23.605 23.605 0 0 0 6.83-4.072c2.071-1.771 3.472-4.385 3.916-7.304a.218.218 0 0 1 .062-.137.177.177 0 0 1 .061-.037.153.153 0 0 1 .068-.008c.025.001.049.01.07.023a.201.201 0 0 1 .087.13.215.215 0 0 1 .002.084c-.458 3.01-1.905 5.702-4.043 7.523-2.102 1.79-4.44 3.183-6.925 4.127a72.503 72.503 0 0 1-15.427 4.656l-.032.055z" fill="#252B80"/><path d="M200.574 115.697a.17.17 0 0 1-.159-.11 9.231 9.231 0 0 0-2.165-2.374l-.781-.748a5.314 5.314 0 0 1-1.395-1.789 6.106 6.106 0 0 1-.595-2.302c.08-2.593 2.611-4.035 4.124-4.674a56.006 56.006 0 0 1 11.764-3.105c1.768-.328 3.614-.675 5.397-1.095 7.244-1.698 12.115-4.492 15.331-8.747a.192.192 0 0 1 .053-.05.159.159 0 0 1 .134-.014.17.17 0 0 1 .06.037.215.215 0 0 1 .063.136.228.228 0 0 1-.039.147c-3.264 4.346-8.199 7.176-15.522 8.892-1.799.421-3.646.767-5.429 1.096a57.551 57.551 0 0 0-11.573 3.086c-1.417.603-3.821 1.954-3.885 4.31.044.747.235 1.473.557 2.124a4.809 4.809 0 0 0 1.306 1.637l.764.731a10.128 10.128 0 0 1 2.197 2.538.24.24 0 0 1 .048.146.24.24 0 0 1-.048.146l-.207-.018zM193.012 103.28a.18.18 0 0 1-.095-.039.226.226 0 0 1-.065-.089.24.24 0 0 1-.041-.137.24.24 0 0 1 .041-.137c11.465-5.984 23.584-10.155 36.027-12.399.046 0 .091.021.124.06a.216.216 0 0 1 .051.141.216.216 0 0 1-.051.142.166.166 0 0 1-.124.059c-12.41 2.243-24.497 6.408-35.931 12.38l.064.019z" fill="#252B80"/><path d="M218.945 111.716a.667.667 0 0 1-.388-.138.823.823 0 0 1-.264-.355l-.86-2.173a.942.942 0 0 1-.015-.635.798.798 0 0 1 .381-.461.642.642 0 0 1 .553-.017c.18.079.324.236.402.437l.86 2.173a.942.942 0 0 1 .017.636.841.841 0 0 1-.151.274.736.736 0 0 1-.232.186.58.58 0 0 1-.303.073zM224.055 109.799a.61.61 0 0 1-.358-.119.742.742 0 0 1-.247-.32l-.78-2.008a.844.844 0 0 1 .11-.831.59.59 0 0 1 .715-.187.712.712 0 0 1 .369.397l.796 1.99a.865.865 0 0 1 .012.581.734.734 0 0 1-.346.424.477.477 0 0 1-.271.073z" fill="#080C53"/><path d="m220.171 117.048 7.53-1.826s1.767 6.026-.223 6.92c-1.99.895-5.954-1.935-7.307-5.094z" fill="#DEFCFF"/><path d="M173.86 346.432c-6.145-1.643-12.64-5.478-14.439-12.416-1.449-5.387 3.614-9.131 3.184-13.257-3.184-29.819-9.393-58.433-11.558-87.795a451.58 451.58 0 0 1 8.82-28.085c-1.676.27-3.328.71-4.935 1.315-4.538 9.386-7.96 17.804-8.82 23.045-2.882 18.497 11.558 88.616 11.558 88.616s-5.779 9.952-3.614 19.612c2.165 9.659 16.127 15.192 16.127 15.192s-6.496 16.562 1.448 17.11c.379.025.759-.006 1.131-.091-2.293-6.976-.159-16.325 1.098-23.246zM176.885 208.495a19.705 19.705 0 0 0-2.34-1.406c-1.736 5.934-3.407 11.869-4.856 17.913l7.196-16.507z" fill="#F3417D"/><path d="m191.197 331.934-23.88-101.6 2.324-5.332c1.449-6.044 3.184-11.979 4.856-17.913-4.596-2.287-9.659-3.052-14.614-2.21a536.315 536.315 0 0 0-8.82 28.085c2.165 29.399 8.31 57.976 11.558 87.795.366 4.145-4.697 7.87-3.184 13.257 1.799 7.03 8.294 10.773 14.439 12.416-1.258 6.921-3.391 16.27-1.035 23.246 7.339-1.571 12.354-22.826 12.354-22.826l19.008-4.419s-6.75-9.659-13.006-10.499z" fill="#FF7BA9"/><path d="m167.365 230.334-3.439-15.393 4.904 12.033-1.465 3.36zM208.151 144.109l1.226 6.118-3.041-5.551 1.815-.567z" fill="#F3417D"/><path d="M216.048 208.458c-2.102 0-2.324-.146-2.547-.273a1.219 1.219 0 0 1-.493-.688 1.406 1.406 0 0 1 .034-.888c.107-.282.301-.507.544-.635a.956.956 0 0 1 .774-.054c1.704.311 18.499-.639 28.767-1.315a.966.966 0 0 1 .45.023c.147.044.285.123.403.232.119.108.216.244.286.399a1.42 1.42 0 0 1 .053 1.009 1.297 1.297 0 0 1-.243.435 1.077 1.077 0 0 1-.377.284.964.964 0 0 1-.444.084s-7.132.474-14.233.858c-7.1.383-10.952.529-12.974.529zM233.13 215.269c0 .517-.134 1.022-.384 1.451-.25.43-.606.764-1.022.962a2.002 2.002 0 0 1-1.315.148 2.204 2.204 0 0 1-1.166-.714 2.755 2.755 0 0 1-.623-1.337 2.983 2.983 0 0 1 .13-1.509c.172-.477.464-.885.838-1.172.375-.287.815-.44 1.265-.44.604 0 1.183.275 1.61.765.427.49.667 1.154.667 1.846z" fill="#003E8A"/><path d="m232.509 243.299-16.366-12.782-1.799-17.767a.237.237 0 0 1 .002-.084.215.215 0 0 1 .032-.076.188.188 0 0 1 .055-.054.154.154 0 0 1 .071-.024.157.157 0 0 1 .128.046.22.22 0 0 1 .063.137l1.799 17.584 15.919 12.545 11.622-13.896v-18.132c0-.058.02-.114.056-.155a.18.18 0 0 1 .135-.064.15.15 0 0 1 .071.016.196.196 0 0 1 .095.12.233.233 0 0 1 .009.083v18.26l-11.892 14.243zM195.416 291.323a1.326 1.326 0 0 1-.832-.313 1.662 1.662 0 0 1-.523-.806 1.887 1.887 0 0 1-.023-1.003c.083-.33.253-.622.486-.836l17.512-15.905c.3-.268.681-.39 1.06-.339.378.052.724.272.962.613.118.169.207.363.26.571a1.871 1.871 0 0 1-.121 1.256c-.091.19-.214.357-.362.492l-17.512 15.923a1.314 1.314 0 0 1-.907.347zM288.992 432.091h-17.305l-12.115-66.12h15.22c.046 0 .091.021.123.059a.214.214 0 0 1 .052.142.225.225 0 0 1-.046.154.171.171 0 0 1-.129.065h-14.774l11.956 65.298h17.018c.046 0 .091.022.124.059a.217.217 0 0 1 .051.142.215.215 0 0 1-.051.142.165.165 0 0 1-.124.059z" fill="#003E8A"/><path d="M332.374 523.483h-81.589v-.821h81.35c.063.292.143.566.239.821zM219.678 523.483h-82.783l.382-.821h82.098c.127.292.228.566.303.821zM319.017 509.459h-15.538a.347.347 0 0 1-.214-.083.437.437 0 0 1-.136-.209.506.506 0 0 1 .02-.27.434.434 0 0 1 .155-.205l9.409-6.537-12.083 1.644a.334.334 0 0 1-.236-.069.416.416 0 0 1-.146-.223.457.457 0 0 1 .012-.274.386.386 0 0 1 .163-.201l7.323-4.803-11.048 1.425a.349.349 0 0 1-.229-.116.45.45 0 0 1-.111-.257.48.48 0 0 1 .059-.279.377.377 0 0 1 .201-.17l12.736-1.662a.317.317 0 0 1 .239.065c.07.053.121.134.143.228a.46.46 0 0 1-.006.27.392.392 0 0 1-.153.204l-7.307 4.803 11.987-1.625a.294.294 0 0 1 .237.052c.071.05.123.129.145.221a.46.46 0 0 1 .008.277.4.4 0 0 1-.151.216l-9.759 6.684h14.232c.046 0 .092.01.134.03.043.02.082.05.114.087a.44.44 0 0 1 .103.284.486.486 0 0 1 .003.17.431.431 0 0 1-.057.155.375.375 0 0 1-.109.115.316.316 0 0 1-.14.053zM204.363 509.459h-14.79a.337.337 0 0 1-.228-.096.44.44 0 0 1-.125-.239.481.481 0 0 1 .033-.276.4.4 0 0 1 .177-.192l10.236-4.529-10.968 1.407a.338.338 0 0 1-.243-.078.429.429 0 0 1-.141-.239.477.477 0 0 1 .027-.287.395.395 0 0 1 .181-.2l9.234-4.711-12.306 1.57a.351.351 0 0 1-.26-.095.454.454 0 0 1-.138-.27.465.465 0 0 1 .078-.302.358.358 0 0 1 .24-.154l14.631-1.826a.33.33 0 0 1 .24.076c.069.056.12.139.142.234a.436.436 0 0 1-.021.285.35.35 0 0 1-.186.19l-9.234 4.711 11.399-1.461a.333.333 0 0 1 .25.07.425.425 0 0 1 .148.24c.018.1.006.203-.035.293a.406.406 0 0 1-.188.201l-11.017 4.893h12.864a.335.335 0 0 1 .306.085.414.414 0 0 1 .1.145.487.487 0 0 1 0 .362.414.414 0 0 1-.1.145.335.335 0 0 1-.306.085v-.037z" fill="#1253A3"/><path d="M227.176 263.568c-9.902-.092-19.751-1.676-29.293-4.711v-.402c11.415 3.652 33.655 8.399 54.542.128l.111.383c-8.173 3.136-16.743 4.691-25.36 4.602zM225.886 270.981c-9.922-.021-19.781-1.801-29.229-5.277l.112-.402c18.629 6.909 38.682 6.909 57.311 0l.111.402c-9.128 3.483-18.685 5.265-28.305 5.277z" fill="#003E8A"/><path d="m176.216 201.392-.127.42c-4.19-2.887-9.142-3.962-13.962-3.032.046-.149.1-.295.159-.438 4.812-.889 9.742.191 13.93 3.05zM270.796 171.062c-3.729 2.163-6.992 5.25-9.552 9.038l-.239-.31c2.539-3.758 5.76-6.836 9.441-9.021l.35.293z" fill="#F7CDA3"/><path d="M641.489 22.588a1.857 1.857 0 0 0-.918-.367 1.79 1.79 0 0 0-.961.166L620.125 31.7c-.241.12-.458.293-.641.509a2.351 2.351 0 0 0-.421.751 2.603 2.603 0 0 0 .027 1.753c.211.557.606.995 1.099 1.217a1.76 1.76 0 0 0 1.527-.03l16.748-7.998v37.506L575.183 98.13a2.09 2.09 0 0 0-.857.841c-.209.37-.321.8-.321 1.241v74.867c1.059 1.681 2.415 3.088 3.98 4.127v-77.533l63.281-32.704c.345-.186.637-.48.843-.849a2.57 2.57 0 0 0 .319-1.233v-42.4a2.56 2.56 0 0 0-.261-1.085 2.19 2.19 0 0 0-.678-.814z" fill="#F3A769"/><path d="M474.665 116.281c-.084 6.086-1.197 12.095-3.279 17.694-5.541 14.919 12.274 0 12.274 0l2.197-18.589a21.783 21.783 0 0 1-11.192.895z" fill="#FF7BA9"/><path d="m485.857 115.386.334-2.739-12.401-6.007c.66 3.155.954 6.397.875 9.641 3.741.685 7.57.379 11.192-.895z" fill="#F3417D"/><path d="M473.01 88.836s-11.733 14.078-9.393 19.264 22.574 4.547 22.574 4.547 17.512-12.216 14.328-20.086c-3.184-7.87-27.509-3.725-27.509-3.725z" fill="#FF7BA9"/><path d="M490.155 95.245s-25.472 3.05-27.446-15.941a11.942 11.942 0 0 1 .114-4.533 11.1 11.1 0 0 1 1.779-4.051c.844-1.184 1.905-2.142 3.108-2.804a8.158 8.158 0 0 1 3.851-1.029 7.08 7.08 0 0 1 3.51 1.218c1.069.721 1.972 1.725 2.635 2.927 1.644-1.38 3.576-2.24 5.601-2.497 2.025-.256 4.073.101 5.941 1.036 6.367 3.324 4.521 8.491 4.521 8.491s7.96-1.643 11.558 6.209c3.598 7.852-1.449 12.015-1.449 12.015s7.403 9.952-.175 16.434c-7.578 6.483-17.512 0-17.512 0l3.789-10.773s7.403-4.127 4.871-8.071c-2.531-3.945-4.696 1.37-4.696 1.37z" fill="#252B80"/><path d="M426.667 181.671c.35-.731.7-1.461 1.082-2.173-4.029-3.236-7.128-7.775-8.899-13.038-.081.124-.172.24-.27.347 1.344 5.768 4.16 10.944 8.087 14.864z" fill="#F3417D"/><path d="M445.77 225.422c-10.013-12.161-25.471-24.633-25.471-24.633l.461-.749c-.636-.474-1.066-.894-1.066-1.04a125.678 125.678 0 0 1 6.925-17.329c-3.927-3.92-6.743-9.096-8.087-14.864a262.08 262.08 0 0 0-21.651 30.403 11.46 11.46 0 0 0-1.511 5.073 11.738 11.738 0 0 0 .89 5.262c4.394 10.409 14.964 33.343 26.49 43.003a16.672 16.672 0 0 0-2.085 2.191 8.633 8.633 0 0 0 .505 3.508 7.647 7.647 0 0 0 1.835 2.865c4.681 4.967 11.908 2.064 15.92-2.903 3.027-4.25 5.208-9.207 6.391-14.525a43.082 43.082 0 0 0 .454-16.262z" fill="#FF7BA9"/><path d="m420.808 200.04 10.905-17.895a23.52 23.52 0 0 1-3.964-2.647 127.386 127.386 0 0 0-7.96 19.502c-.047.146.382.566 1.019 1.04zM453.094 236.689c-1.944-4.149-4.412-7.946-7.324-11.267a43.054 43.054 0 0 1-.48 16.237c-1.188 5.308-3.371 10.255-6.397 14.495-3.98 4.967-11.144 7.87-15.92 2.903a7.66 7.66 0 0 1-1.835-2.865 8.631 8.631 0 0 1-.505-3.507c-2.977 3.652-6.893 11.723 4.505 20.177 15.666 11.595 33.735-22.095 27.956-36.173z" fill="#F3417D"/><path d="M445.771 225.422c-10.014-12.161-25.472-24.633-25.472-24.633l25.233 39.387c.875-4.858.956-9.861.239-14.754z" fill="#F3417D"/><path d="M451.884 144.749c-9.374 10.262-17.493 21.932-24.135 34.694a23.587 23.587 0 0 0 3.964 2.648l16.557-27.19 3.184.42c.355-3.508.499-7.041.43-10.572zM509.657 154.262a105.82 105.82 0 0 0-3.869 8.254l1.321.182a377.317 377.317 0 0 0 2.5 45.468 36.099 36.099 0 0 1 1.926-6.975c-2.165-15.868-1.878-31.243-1.878-46.929z" fill="#1253A3"/><path d="m527.105 183.095-10.969-46.144a5.414 5.414 0 0 0-1.167-2.313 4.438 4.438 0 0 0-2.017-1.339l-33.304-9.623-33.304 11.449s-13.564 14.189-27.494 31.371c1.771 5.264 4.869 9.803 8.899 13.038 6.643-12.761 14.761-24.432 24.135-34.694.076 3.549-.062 7.1-.414 10.627l54.318 7.049c1.162-2.812 2.452-5.478 3.869-8.254 0 15.686-.287 31.042 1.878 46.947 2.975-8.103 8.548-14.587 15.57-18.114z" fill="#3D61E9"/><path d="M525.99 183.643c-6.497 3.68-11.626 9.914-14.455 17.566.191 1.479.43 2.958.669 4.456 2.452-8.875 6.941-17.421 13.786-22.022z" fill="#F3417D"/><path d="M589.097 144.256c-.387-2.02-1.202-3.898-2.374-5.469-1.172-1.57-2.665-2.784-4.345-3.534-4.091.867-7.995 2.641-11.494 5.223.73 6.63-.486 13.35-3.454 19.1 2.483-6.775 2.292-16.635-2.197-22.15-.403.18-.797.387-1.178.621-5.286 3.305-3.614 23.464-3.614 23.464l-26.952 48.481-6.368-26.806-1.115.548c-6.845 4.602-11.335 13.147-13.786 22.022l.334 2.027c2.897 16.58 8.676 30.659 14.805 45.139 14.806-9.514 23.88-25.254 34.308-40.994 6.861-9.934 11.144-21.529 15.522-33.124-7.212-4.985-6.862-16.58-4.697-24.852.733 4.145 0 7.87 1.083 12.015 1.815 5.368 7.227 10.353 11.144 6.208 6.543-6.719 6.177-17.913 4.378-27.919z" fill="#FF7BA9"/><path d="M567.43 159.649c2.958-5.735 4.173-12.433 3.454-19.045h-.079a4.967 4.967 0 0 0-.797-1.779 4.243 4.243 0 0 0-1.37-1.237 3.67 3.67 0 0 0-1.694-.47 3.65 3.65 0 0 0-1.711.381c4.489 5.515 4.68 15.375 2.197 22.15z" fill="#F3417D"/><path d="M595.114 152.747c-.78-14.353-6.049-18.443-12.735-17.421 1.679.75 3.172 1.964 4.344 3.534 1.172 1.571 1.987 3.449 2.374 5.469 1.799 9.933 2.165 21.127-4.33 27.755-3.98 4.145-9.393-.84-11.144-6.208-1.083-4.145-.351-7.871-1.083-12.016-2.165 8.272-2.515 19.868 4.697 24.853-4.331 11.595-8.661 23.19-15.522 33.124-10.476 15.74-19.502 31.48-34.307 40.994-6.13-14.481-11.908-28.559-14.806-45.14a157.117 157.117 0 0 1-1.003-6.482 36.109 36.109 0 0 0-1.926 6.976c2.069 17.219 5.826 35.698 12.608 48.352a6.988 6.988 0 0 0 1.876 2.274 5.931 5.931 0 0 0 2.533 1.165 5.59 5.59 0 0 0 2.726-.159 6.146 6.146 0 0 0 2.417-1.453c13.214-12.582 47.266-47.587 52.297-78.848-.096.018 12.115-4.675 10.984-26.769z" fill="#F3417D"/><path d="M476.846 134.395c4.834-1.346 9.309-4.022 13.038-7.797l-10.268-2.976-14.885 5.131c1.369 2.13 3.226 3.785 5.364 4.78a11.035 11.035 0 0 0 6.751.862z" fill="#FF7BA9"/><path d="M514.862 138.613a5.815 5.815 0 0 0-.731-3.631c-.626-1.065-1.573-1.827-2.66-2.139l-21.635-6.245c-3.716 3.767-8.173 6.443-12.99 7.797a11.035 11.035 0 0 1-6.751-.862c-2.138-.995-3.995-2.65-5.364-4.78l-3.455 1.187s-4.776 6.792-12.958 25.016c-8.183 18.224-10.587 75.652-10.587 75.652 30.805 16.58 50.307 0 50.307 0 .843-9.641 4.011-20.415 7.737-30.33 2.706-16.069 6.511-31.937 13.929-46.016v15.613c1.051-1.954 1.688-3.05 1.688-3.05l3.47-28.212z" fill="#3D61E9"/><path d="M509.657 154.262c-7.419 14.079-11.224 29.947-13.93 46.016a262.168 262.168 0 0 1 13.93-30.458c-.032-5.131 0-10.317 0-15.558z" fill="#1253A3"/><path d="M546.272 527.72h-39.178l-16.843-115.569v-.402l-8.422-57.848v-.42l-11.399-78.154-6.702-4.601-5.206 103.827 15.586 153.167h-64.443l10.905-115.569v-.402l5.46-57.848v-.42l8.613-91.301.573-6.099 2.388-25.345v-3.378a4.354 4.354 0 0 0 0-.457c.286-15.028 2.292-70.302 16.349-94.35l8.549-2.958s-8.819 26.057-7.132 43.441c0 0 9.393 5.478 24.071.821 0 0 3.869-32.521 13.277-46.271l6.591 1.826c-10.713 27.565-13.904 58.203-9.154 87.886.403 2.386.3 4.847-.302 7.177 0 .182-.096.365-.144.547-2.085 7.085-8.549 11.924-13.993 16.288 4.33-1.643 9.393-4.966 13.357-2.885 7.959 4.547 6.145 17.384 4.33 26.916-1.815 9.532 1.448 18.644 3.184 28.577 4.346 22.369 8.676 42.656 13.723 64.605 1.082 4.565 2.531 9.13 3.613 14.078 12.354 52.535 21.906 103.39 32.349 155.121z" fill="#FEE952"/><path d="M543.852 527.72h-.382l-57.789-269.137a.247.247 0 0 1 .027-.161.195.195 0 0 1 .117-.095c.022-.008.045-.011.068-.008a.146.146 0 0 1 .065.026.186.186 0 0 1 .074.128l57.82 269.247zM470.319 275.236s-10.491-8.728-11.032-19.904L447.92 377.676l2.547 150.044h23.657l-15.713-153.167 5.206-103.827 6.702 4.51z" fill="#FEC751"/><path d="m521.772 369.787-21.046-101.618c11.796-30.093-9.648-38.657-9.648-38.657l1.592-20.36c-8.66-29.819 9.552-78.993 9.552-78.993l-2.754-.804c-10.776 27.562-14.023 58.222-9.313 87.941 1.815 11.596-7.212 18.261-14.439 24.012 4.33-1.643 9.393-4.966 13.357-2.885 7.959 4.547 6.145 17.384 4.33 26.916-1.815 9.532 1.448 18.644 3.184 28.577 4.346 22.369 8.676 42.656 13.723 64.605 1.082 4.565 2.531 9.13 3.613 14.078 12.29 52.608 21.842 103.463 32.286 155.121h19.915l-44.352-157.933z" fill="#FEC751"/><path d="M566.188 527.72h-74.107s.271-1.37.907-3.543c.085-.255.165-.529.239-.822 2.468-7.961 9.234-24.03 23.88-24.03 19.502 0 23.577 18.662 23.577 18.662h22.766l1.592 5.368.222.822.924 3.543zM474.108 527.72h-81.923c.191-1.198.446-2.381.764-3.543 0-.255.143-.529.223-.822 2.244-7.961 9.138-24.03 28.146-24.03 25.265 0 26.236 18.808 26.236 18.808h25.583l.525 5.222.096.822.35 3.543z" fill="#EE4A3E"/><path d="M484.265 92.67c-3.857.08-7.656-1.077-10.969-3.341-2.317-1.572-4.206-3.853-5.455-6.589-1.249-2.735-1.807-5.816-1.613-8.896a.216.216 0 0 1 .062-.137.157.157 0 0 1 .129-.046.188.188 0 0 1 .12.083c.03.044.043.1.039.155-.18 3.002.37 6.001 1.591 8.665 1.22 2.663 3.061 4.885 5.318 6.418 4.603 3.02 10.002 4.032 15.203 2.849.047 0 .091.02.124.058a.216.216 0 0 1 .052.142.216.216 0 0 1-.052.142.164.164 0 0 1-.124.06c-1.462.283-2.942.43-4.425.438z" fill="#080C53"/><path d="M497.128 103.079h-.096a.219.219 0 0 1-.047-.137c0-.051.017-.1.047-.137a22.327 22.327 0 0 0 2.229-5.734c.235-.995.27-2.037.102-3.05a7.315 7.315 0 0 0-1.073-2.793c-1.531-1.648-3.537-2.59-5.636-2.648l-3.184-.401a53.787 53.787 0 0 1-8.23-1.48c-3.804-.957-7.225-3.333-9.727-6.756a.207.207 0 0 1-.032-.072.245.245 0 0 1 .017-.159.204.204 0 0 1 .047-.061.165.165 0 0 1 .134-.042.17.17 0 0 1 .12.079c2.455 3.36 5.816 5.685 9.552 6.61 2.694.712 5.428 1.2 8.183 1.46l3.184.42c2.19.058 4.284 1.047 5.874 2.776.567.88.955 1.895 1.134 2.97a8.35 8.35 0 0 1-.099 3.238 22.145 22.145 0 0 1-2.276 5.844.18.18 0 0 1-.041.057.14.14 0 0 1-.057.034.14.14 0 0 1-.125-.018zM501.108 97.126h-.096a.269.269 0 0 1 0-.274c1.341-2.673 1.857-5.787 1.465-8.838-.225-1.487-.841-2.86-1.766-3.934-.925-1.074-2.114-1.797-3.408-2.073a.166.166 0 0 1-.124-.06.216.216 0 0 1-.051-.141c0-.054.018-.105.051-.142a.166.166 0 0 1 .124-.06c1.374.277 2.64 1.034 3.624 2.168.983 1.135 1.636 2.591 1.868 4.17.421 3.147-.101 6.366-1.48 9.13a.174.174 0 0 1-.096.067.154.154 0 0 1-.111-.013zM497.064 111.387c-2.183-.046-4.3-.862-6.065-2.337a.203.203 0 0 1-.122-.138.24.24 0 0 1 .023-.194.202.202 0 0 1 .065-.068.164.164 0 0 1 .085-.027.164.164 0 0 1 .086.019.204.204 0 0 1 .07.061c1.71 1.414 3.751 2.203 5.858 2.264a6.633 6.633 0 0 0 3.029-.687 7.534 7.534 0 0 0 2.527-2.034 7.109 7.109 0 0 0 1.368-3.142 7.644 7.644 0 0 0-.206-3.504.224.224 0 0 1 .052-.217.168.168 0 0 1 .06-.039.143.143 0 0 1 .066-.019.132.132 0 0 1 .067.015c.022.01.041.026.056.045.015.02.027.043.034.069a8.113 8.113 0 0 1 .231 3.721 7.578 7.578 0 0 1-1.441 3.345 7.972 7.972 0 0 1-2.658 2.141 7.005 7.005 0 0 1-3.185.726zM491.429 81.367h-.112c-1.562-1.217-3.413-1.854-5.301-1.826h-1.751a18.446 18.446 0 0 1-3.996-.401c-1.701-.423-3.295-1.288-4.659-2.53-1.363-1.24-2.46-2.824-3.206-4.628a.22.22 0 0 1-.047-.137c0-.051.017-.1.047-.137a.159.159 0 0 1 .2.04c.017.02.031.043.039.07.731 1.737 1.795 3.262 3.113 4.46 1.318 1.199 2.855 2.04 4.497 2.46 1.303.264 2.625.393 3.948.383h1.751c1.965.01 3.882.69 5.508 1.954.032.04.049.092.049.146a.235.235 0 0 1-.049.146.23.23 0 0 1-.031 0zM474.952 99.135a.61.61 0 0 1-.414-.147.852.852 0 0 1-.299-.53.94.94 0 0 1 .108-.62l1.592-2.739a.779.779 0 0 1 .2-.227c.08-.06.168-.1.261-.12a.632.632 0 0 1 .282.002.67.67 0 0 1 .259.126c.079.061.146.14.198.23a.908.908 0 0 1 .103.623.897.897 0 0 1-.109.297l-1.592 2.74a.758.758 0 0 1-.254.268.633.633 0 0 1-.335.097zM469.953 96.943a.699.699 0 0 1-.367-.127.697.697 0 0 1-.173-.201.788.788 0 0 1-.086-.546.768.768 0 0 1 .1-.258l1.417-2.41a.698.698 0 0 1 .175-.216.594.594 0 0 1 .235-.12.558.558 0 0 1 .257-.003.599.599 0 0 1 .237.113.712.712 0 0 1 .179.212.812.812 0 0 1 .08.57.81.81 0 0 1-.112.266l-1.417 2.392a.674.674 0 0 1-.227.24.575.575 0 0 1-.298.088z" fill="#080C53"/><path d="m466.148 100.632 8.581 3.214s-4.251 5.186-7.499 3.652c-3.247-1.534-1.082-6.866-1.082-6.866z" fill="#DEFCFF"/><path d="m420.347 200.789-9.17-6.026 10.507 3.835-1.337 2.191zM533.489 209.901l-10.301 16.635 9.011-22.058 1.29 5.423z" fill="#F3417D"/><path d="M573.957 175.042V527.72c0 .605.21 1.186.583 1.614.373.428.879.668 1.407.668s1.034-.24 1.407-.668a2.465 2.465 0 0 0 .583-1.614V179.169c-1.565-1.039-2.921-2.445-3.98-4.127z" fill="#F3A769"/><path d="M552.051 80.619c-2.527.001-4.978-.994-6.942-2.819-1.963-1.825-3.32-4.368-3.843-7.205-.522-2.836-.179-5.792.973-8.372s3.043-4.628 5.355-5.799l73.645-37.269a9.716 9.716 0 0 1 8.297-.025c2.663 1.232 4.801 3.608 5.959 6.622a14.366 14.366 0 0 1 .241 9.513c-1.004 3.085-3.018 5.6-5.614 7.007l-73.677 37.27a9.847 9.847 0 0 1-4.394 1.077z" fill="#FFF4D6"/><path d="M635.758 25.564c-1.096-2.846-3.069-5.128-5.54-6.409 1.182 1.48 2.039 3.264 2.5 5.2.461 1.938.512 3.973.15 5.938-.363 1.964-1.129 3.8-2.235 5.357-1.106 1.556-2.52 2.788-4.125 3.591l-73.629 37.27a9.844 9.844 0 0 1-4.489 1.094 9.848 9.848 0 0 1-4.49-1.095c1.556 1.958 3.608 3.306 5.868 3.853 2.26.548 4.612.266 6.725-.803l73.629-37.27a11.15 11.15 0 0 0 3.538-2.838 13.014 13.014 0 0 0 2.315-4.18c.524-1.554.774-3.212.737-4.878a14.217 14.217 0 0 0-.954-4.83z" fill="#F5EACE"/><path d="m478.088 185.816-22.845-.931a.96.96 0 0 1-.41-.109 1.08 1.08 0 0 1-.341-.282 1.281 1.281 0 0 1-.22-.411 1.421 1.421 0 0 1-.064-.477c.002-.164.033-.325.09-.475.058-.15.141-.285.245-.398.104-.112.226-.2.36-.257a.95.95 0 0 1 .419-.075l22.829.931c.288 0 .563.131.766.364.203.233.317.549.317.878 0 .329-.114.645-.317.878a1.017 1.017 0 0 1-.766.364h-.063zM459.493 191.915c0 .426-.11.842-.316 1.197-.207.354-.5.63-.843.793a1.66 1.66 0 0 1-1.086.123 1.81 1.81 0 0 1-.961-.59 2.27 2.27 0 0 1-.515-1.103 2.458 2.458 0 0 1 .107-1.245c.142-.394.383-.73.692-.967a1.71 1.71 0 0 1 1.044-.363c.498 0 .976.227 1.328.631.352.404.55.952.55 1.524zM475.715 192.682c0 .426-.11.842-.316 1.197-.206.354-.5.63-.843.793a1.657 1.657 0 0 1-1.085.123 1.81 1.81 0 0 1-.962-.59 2.26 2.26 0 0 1-.514-1.103 2.447 2.447 0 0 1 .106-1.245c.143-.394.383-.73.692-.967a1.71 1.71 0 0 1 1.044-.363c.247 0 .491.056.719.164.228.108.435.267.609.467.175.2.313.438.408.699.094.261.142.542.142.825z" fill="#FEC751"/><path d="m463.282 218.995-11.542-11.833v-.091l1.401-20.853a.232.232 0 0 1 .072-.139.176.176 0 0 1 .135-.044c.023.002.046.01.066.022a.18.18 0 0 1 .054.049.235.235 0 0 1 .039.148l-1.401 20.744 11.144 11.485 14.583-10.426 1.082-19.977a.22.22 0 0 1 .057-.149.166.166 0 0 1 .134-.052c.023.002.046.01.066.022a.183.183 0 0 1 .054.05.21.21 0 0 1 .033.069.255.255 0 0 1 .007.078l-1.083 20.196-14.901 10.701zM489.853 224.4c0 .182-.096.365-.144.547-6.542 3.624-13.516 6.116-20.695 7.396-2.816.47-5.657.708-8.502.712a47.003 47.003 0 0 1-14.327-2.21 48.08 48.08 0 0 1-8.438-3.652 4.335 4.335 0 0 0 0-.456 46.282 46.282 0 0 0 8.533 3.652c9.775 3.177 24.787 4.236 43.573-5.989zM495.727 267.348a1.668 1.668 0 0 1-.748-.183l-25.472-13.294c-.435-.227-.773-.644-.941-1.157a2.354 2.354 0 0 1 .049-1.582c.199-.498.562-.886 1.01-1.078a1.588 1.588 0 0 1 1.378.056l25.472 13.275c.386.188.702.524.895.95.193.427.25.917.161 1.387a2.118 2.118 0 0 1-.647 1.185 1.655 1.655 0 0 1-1.157.441zM508.893 412.078h-18.626l-.064-.42h18.212l-12.831-57.83h-13.819l-.063-.42h14.168l.032.164 12.991 58.506zM441.599 353.408l-.016.219-1.83 58.451h-19.184l.032-.42h18.801l1.815-57.83h-15.155l.032-.42h15.505zM444.768 251.991l-10.046 10.152.573-6.099 7.085-7.176c.365-.32.823-.468 1.281-.416.457.052.88.302 1.184.699.303.396.464.91.449 1.437a2.24 2.24 0 0 1-.526 1.403z" fill="#FEC751"/><path d="M473.758 524.068h-80.809c0-.256.143-.53.223-.822h80.49l.096.822zM409.664 509.752a.362.362 0 0 1-.208-.147.459.459 0 0 1-.082-.264.46.46 0 0 1 .082-.265.365.365 0 0 1 .208-.146l9.027-.475-8.071-3.415a.393.393 0 0 1-.198-.196.494.494 0 0 1-.041-.297.426.426 0 0 1 .142-.234.329.329 0 0 1 .24-.076l9.058.84-4.776-3.652a.445.445 0 0 1-.139-.231.494.494 0 0 1 .012-.28.383.383 0 0 1 .168-.209.312.312 0 0 1 .246-.029l11.669 3.032a.32.32 0 0 1 .155.045.374.374 0 0 1 .124.117.459.459 0 0 1 .068.35.458.458 0 0 1-.069.167.402.402 0 0 1-.124.116.325.325 0 0 1-.313.008l-9.823-2.556 4.267 3.323a.446.446 0 0 1 .142.219.5.5 0 0 1 .001.274.446.446 0 0 1-.147.2.368.368 0 0 1-.219.074l-7.801-.731 7.291 3.105a.387.387 0 0 1 .176.183.473.473 0 0 1-.071.508.346.346 0 0 1-.216.112l-10.81.548.032-.018zM565.185 524.068h-72.196c.085-.256.164-.53.239-.822h71.734l.223.822zM505.088 511.139a.336.336 0 0 1-.248-.109.445.445 0 0 1-.118-.274.478.478 0 0 1 .089-.303.371.371 0 0 1 .245-.154l11.016-1.168-8.198-2.575a.348.348 0 0 1-.234-.156.454.454 0 0 1-.069-.3.42.42 0 0 1 .137-.268.317.317 0 0 1 .261-.079h9.011l-6.272-3.214a.403.403 0 0 1-.158-.205.47.47 0 0 1-.015-.273.426.426 0 0 1 .136-.226.336.336 0 0 1 .228-.081l10.825 1.369a.374.374 0 0 1 .245.153.48.48 0 0 1 .089.304.466.466 0 0 1-.045.157.406.406 0 0 1-.095.125.34.34 0 0 1-.274.083l-8.517-1.077 5.7 2.921a.376.376 0 0 1 .175.185.46.46 0 0 1-.091.51.322.322 0 0 1-.228.09h-7.96l7.515 2.356a.373.373 0 0 1 .204.163.465.465 0 0 1-.04.537.352.352 0 0 1-.228.122l-12.991 1.387h-.095z" fill="#1253A3"/><path d="M694.517 530.55H1.274a1.129 1.129 0 0 1-.487-.104 1.27 1.27 0 0 1-.413-.312 1.469 1.469 0 0 1-.277-.47 1.631 1.631 0 0 1-.097-.557c0-.387.134-.759.373-1.033a1.2 1.2 0 0 1 .9-.427h693.244a1.2 1.2 0 0 1 .901.427c.239.274.373.646.373 1.033 0 .191-.033.381-.097.557a1.457 1.457 0 0 1-.277.47c-.118.134-.259.24-.413.312-.155.071-.32.106-.487.104z" fill="#65CCD6"/></g><defs><clipPath id="a"><path fill="#fff" d="M0 0h695.791v530.55H0z"/></clipPath></defs></svg>