<svg width="452" height="230" fill="none" xmlns="http://www.w3.org/2000/svg"><rect width="452" height="230" rx="15" fill="#DAE1FD"/><g clip-path="url(#a)"><path d="M110.897 88.066H16.974A2.975 2.975 0 0 0 14 91.034v115.732a2.982 2.982 0 0 0 2.974 2.968h93.923a2.98 2.98 0 0 0 2.969-2.968V91.034a2.976 2.976 0 0 0-2.969-2.968z" fill="#fff"/><path d="M106.647 92.512H21.218c-1.49 0-2.704.87-2.704 1.944v84.656c0 1.067 1.226 1.944 2.704 1.944h85.429c1.491 0 2.705-.877 2.705-1.944V94.456c0-1.074-1.214-1.944-2.705-1.944z" fill="#88E0FF"/><path d="M56.291 199.494c1.386-.705 4.907-3.949 4.907-5.917 0-2.557-2.22-4.207-4.907-2.717-2.312-1.563-4.906.166-4.906 2.717-.024 1.968 3.514 5.212 4.906 5.917zM37.225 192.436h1.668a2.613 2.613 0 0 0 2.453-1.753l.558-1.595a.936.936 0 0 1 1.043-.693.822.822 0 0 1 .46.449.813.813 0 0 1-.013.643l-.644 1.913a7.07 7.07 0 0 1 3.024 0c1.318.251 1.515 1.183 1.674 2.079.175.994.175 2.01 0 3.004a2.253 2.253 0 0 1-.466 1.165c-.52.503-1.15.876-1.84 1.092a5.86 5.86 0 0 1-3.906-.203 7.038 7.038 0 0 0-2.748-.613h-1.263a1.17 1.17 0 0 1-1.165-1.171v-3.139a1.171 1.171 0 0 1 1.165-1.178zM27.253 199.353l-1.944-1.944h-2.607a4.188 4.188 0 0 1-4.237-3.838 4.075 4.075 0 0 1 1.103-3.066 4.138 4.138 0 0 1 3.005-1.3h5.52a4.187 4.187 0 0 1 4.238 3.838 4.08 4.08 0 0 1-1.104 3.066 4.134 4.134 0 0 1-2.668 1.288v1.453a.759.759 0 0 1-.466.699.738.738 0 0 1-.84-.196zm-4.68-9.504a3.454 3.454 0 0 0-3.446 3.679 3.528 3.528 0 0 0 3.575 3.219h2.883l2.14 2.134a.08.08 0 0 0 .098 0 .075.075 0 0 0 .041-.031.077.077 0 0 0 .014-.049v-2.072h.331a3.455 3.455 0 0 0 3.447-3.679 3.523 3.523 0 0 0-3.575-3.22l-5.508.019zM66.84 190.879h28.885a.34.34 0 0 0 .331-.337.329.329 0 0 0-.204-.306.325.325 0 0 0-.127-.026H66.84a.331.331 0 0 0-.234.568.34.34 0 0 0 .234.101zM99.528 190.879h11.793a.339.339 0 0 0 .331-.337.332.332 0 0 0-.331-.276H99.528a.325.325 0 0 0-.235.097.322.322 0 0 0-.097.234.336.336 0 0 0 .332.282zM66.84 193.129h10.959a.325.325 0 0 0 .234-.097.332.332 0 0 0 .072-.361.332.332 0 0 0-.306-.204h-10.96a.332.332 0 0 0-.233.565.332.332 0 0 0 .234.097zM82.018 193.129h29.303a.33.33 0 1 0 0-.662H82.018a.324.324 0 0 0-.234.097.332.332 0 0 0-.072.361.332.332 0 0 0 .306.204zM66.913 195.171H92.31a.331.331 0 0 0 0-.662H66.913a.331.331 0 0 0 0 .662zM96.67 195.171h14.718a.33.33 0 1 0 0-.662H96.669a.331.331 0 0 0 0 .662zM66.913 197.293h6.783a.331.331 0 0 0 0-.663h-6.783a.331.331 0 0 0 0 .663zM76.364 197.293h35.012a.33.33 0 1 0 0-.663H76.364a.332.332 0 0 0-.331.332.33.33 0 0 0 .204.306c.04.016.083.025.127.025zM66.913 199.525h32.553a.332.332 0 0 0 0-.663H66.913a.331.331 0 0 0 0 .663zM102.79 199.525h8.586a.33.33 0 1 0 0-.663h-8.586a.33.33 0 1 0 0 .663z" fill="#FFDBC2"/><path d="M87.476 119.038H60.315v62.005h27.161v-62.005z" fill="#FCBAB1"/><path d="m68.269 119.05 9.818-9.78 9.39 9.78H68.269z" fill="#FCBAB1"/><path d="m46.46 119.05 10.512-9.78h21.115l-9.818 9.78H46.46z" fill="#F75B37"/><path d="M68.269 119.038h-21.82v62.005h21.82v-62.005z" fill="#FFDDD7"/><path d="M82.41 126.623h-2.826v2.809h2.827v-2.809zM75.781 126.623h-2.82v2.809h2.82v-2.809zM82.41 132.657h-2.826v2.808h2.827v-2.808zM75.781 132.657h-2.82v2.808h2.82v-2.808zM82.41 138.691h-2.826v2.808h2.827v-2.808zM75.781 138.691h-2.82v2.808h2.82v-2.808zM82.41 144.718h-2.826v2.809h2.827v-2.809zM75.781 144.718h-2.82v2.809h2.82v-2.809zM82.41 150.752h-2.826v2.808h2.827v-2.808zM75.781 150.752h-2.82v2.808h2.82v-2.808zM82.41 156.786h-2.826v2.808h2.827v-2.808zM75.781 156.786h-2.82v2.808h2.82v-2.808zM82.41 162.819h-2.826v2.809h2.827v-2.809zM75.781 162.819h-2.82v2.809h2.82v-2.809z" fill="#000543"/><path d="M61.964 128.205v52.82H48.97v-38.95h-.92l13.915-13.87z" fill="#FCBAB1"/><path d="m38.752 135.306 7.752-7.211h15.57l-7.236 7.211H38.752z" fill="#F75B37"/><path d="M54.838 135.306H38.752v45.719h16.086v-45.719z" fill="#FFDDD7"/><path d="M48.785 138.691h-2.827v2.808h2.827v-2.808zM48.785 144.718h-2.827v2.809h2.827v-2.809zM48.785 150.752h-2.827v2.808h2.827v-2.808zM48.785 156.786h-2.827v2.808h2.827v-2.808zM48.785 162.819h-2.827v2.809h2.827v-2.809zM56.666 181.056h3.937v-6.911h-3.937v6.911z" fill="#000543"/><path d="m61.014 106.437 3.796 2.741 7.187.068-4.722-2.809h-6.261z" fill="#BC3F2A"/><path d="m68.477 109.178 3.52.068-7.187 7.155v-7.223h3.667z" fill="#FCBAB1"/><path d="M64.81 109.178h-7.684v7.26h7.684v-7.26zM64.81 109.178l-3.796-2.741-3.889 2.741h7.685z" fill="#FFDDD7"/><path d="M62.314 110.821h-2.827v2.809h2.827v-2.809z" fill="#000543"/><path d="M326.782 13.35h-93.923a2.977 2.977 0 0 0-2.968 2.967V132.05a2.968 2.968 0 0 0 2.968 2.968h93.923c.788 0 1.543-.313 2.099-.87.557-.556.87-1.311.87-2.098V16.317a2.977 2.977 0 0 0-2.969-2.967z" fill="#fff"/><path d="M322.539 17.801h-85.436c-1.49 0-2.698.87-2.698 1.944v84.675c0 1.073 1.227 1.943 2.698 1.943h85.436c1.49 0 2.698-.87 2.698-1.943V19.8c0-1.128-1.208-1.999-2.698-1.999z" fill="#88E0FF"/><path d="M272.183 124.784c1.38-.706 4.906-3.949 4.906-5.918 0-2.557-2.22-4.212-4.906-2.722-2.318-1.564-4.937.165-4.937 2.722 0 1.969 3.526 5.212 4.937 5.918zM253.116 117.726h1.662a2.61 2.61 0 0 0 2.453-1.76l.552-1.594a.94.94 0 0 1 1.043-.693.811.811 0 0 1 .46.452.818.818 0 0 1-.013.645l-.613 1.907a7.072 7.072 0 0 1 3.017 0c1.325.252 1.515 1.178 1.681 2.079.168.995.168 2.01 0 3.005a2.29 2.29 0 0 1-.472 1.159 4.611 4.611 0 0 1-1.84 1.097 5.898 5.898 0 0 1-3.907-.202 6.892 6.892 0 0 0-2.747-.613h-1.294a1.171 1.171 0 0 1-1.172-1.165v-3.152a1.185 1.185 0 0 1 .352-.831 1.162 1.162 0 0 1 .838-.334zM243.138 124.655l-1.938-1.944h-2.612a4.18 4.18 0 0 1-4.232-3.839 4.066 4.066 0 0 1 1.098-3.065 4.161 4.161 0 0 1 3.005-1.3h5.519a4.187 4.187 0 0 1 4.238 3.838 4.091 4.091 0 0 1-1.104 3.066 4.157 4.157 0 0 1-2.668 1.288v1.416a.75.75 0 0 1-.466.699.774.774 0 0 1-.84-.159zm-4.679-9.505a3.449 3.449 0 0 0-2.522 1.091 3.444 3.444 0 0 0-.919 2.589 3.517 3.517 0 0 0 3.57 3.213h2.888l2.134 2.14a.092.092 0 0 0 .138-.018.099.099 0 0 0 .016-.05v-2.072h.337a3.45 3.45 0 0 0 3.44-3.679 3.519 3.519 0 0 0-3.575-3.214h-5.507zM282.731 116.187h28.879a.33.33 0 1 0 0-.662h-28.879a.33.33 0 1 0 0 .662zM315.419 116.187h11.774a.333.333 0 0 0 .332-.331.33.33 0 0 0-.332-.331h-11.774a.329.329 0 0 0-.332.331.332.332 0 0 0 .332.331zM282.731 118.419h10.953a.33.33 0 1 0 0-.663h-10.953a.33.33 0 1 0 0 .663zM297.91 118.419h29.283a.332.332 0 0 0 0-.663H297.91a.333.333 0 0 0-.332.332.332.332 0 0 0 .332.331zM282.798 120.467h25.384a.337.337 0 0 0 0-.669h-25.384a.337.337 0 0 0 0 .669zM312.561 120.467h14.718a.337.337 0 0 0 0-.669h-14.718a.345.345 0 0 0-.268.081.331.331 0 0 0-.115.254.334.334 0 0 0 .24.323.363.363 0 0 0 .143.011zM282.798 122.582h6.783a.337.337 0 0 0 .338-.337.337.337 0 0 0-.338-.331h-6.783a.332.332 0 0 0-.234.567c.062.063.146.1.234.101zM292.267 122.582h35.012a.335.335 0 0 0 .234-.571.33.33 0 0 0-.234-.097h-35.012a.332.332 0 0 0-.234.567c.062.063.146.1.234.101zM282.798 124.814h32.553a.337.337 0 0 0 .331-.337.33.33 0 0 0-.331-.331h-32.553a.332.332 0 0 0-.234.567c.062.063.146.1.234.101zM318.675 124.814h8.586a.337.337 0 0 0 .331-.337.33.33 0 0 0-.331-.331h-8.586a.33.33 0 0 0-.331.331.337.337 0 0 0 .331.337z" fill="#FFDBC2"/><path d="M255.98 106.364h60.248V60.951H255.98v45.413z" fill="#FCBAB1"/><path d="M249.541 106.364h37.839V60.951h-37.839v45.413z" fill="#FFDDD7"/><path d="m287.38 60.951 14.743-14.698 14.105 14.698H287.38z" fill="#FCBAB1"/><path d="M302.123 46.253 287.38 60.951h-37.839l13.087-14.698h39.495z" fill="#F75B37"/><path d="m260.346 45.468 5.207 3.753 9.843.092-6.464-3.845h-8.586z" fill="#BC3F2A"/><path d="m270.576 49.22 4.82.093-9.843 9.805V49.22h5.023z" fill="#FCBAB1"/><path d="M265.553 49.22h-10.53v9.947h10.53V49.22z" fill="#FFDDD7"/><path d="m265.553 49.22-5.207-3.752-5.323 3.753h10.53z" fill="#FFDDD7"/><path d="M266.099 89.93h-8.678l8.678-6.494v6.494z" fill="#FFC05C"/><path d="M256.851 89.758h19.441c.073 0 .073 16.599.073 16.599h-33.497V89.758h13.983z" fill="#FFDDD7"/><path d="M276.292 89.758c.122 0 8.585-6.401 8.585-6.401v23h-8.512V89.801l-.073-.043z" fill="#FCBAB1"/><path d="M276.292 89.758h-33.424l6.691-6.395h16.558c-.049.037 2.834 0 2.834 0h15.945l-8.482 6.402-.122-.007z" fill="#F75B37"/><path d="M254.103 65.716h-2.324v2.311h2.324v-2.311zM254.103 71.13h-2.324v2.312h2.324V71.13zM254.103 76.63h-2.324v2.312h2.324V76.63zM259.089 65.716h-2.324v2.311h2.324v-2.311zM259.089 71.13h-2.324v2.312h2.324V71.13zM259.089 76.63h-2.324v2.312h2.324V76.63zM264.075 65.716h-2.324v2.311h2.324v-2.311zM264.075 71.13h-2.324v2.312h2.324V71.13zM264.075 76.63h-2.324v2.312h2.324V76.63zM269.061 65.716h-2.324v2.311h2.324v-2.311zM269.061 71.13h-2.324v2.312h2.324V71.13zM269.061 76.63h-2.324v2.312h2.324V76.63zM274.047 65.716h-2.324v2.311h2.324v-2.311zM274.047 71.13h-2.324v2.312h2.324V71.13zM274.047 76.63h-2.324v2.312h2.324V76.63zM279.033 65.716h-2.324v2.311h2.324v-2.311zM279.033 71.13h-2.324v2.312h2.324V71.13zM279.033 76.63h-2.324v2.312h2.324V76.63zM284.019 65.716h-2.324v2.311h2.324v-2.311zM284.019 71.13h-2.324v2.312h2.324V71.13zM284.019 76.63h-2.324v2.312h2.324V76.63zM248.608 92.591h-2.324v2.312h2.324v-2.312zM248.608 98.006h-2.324v2.312h2.324v-2.312zM253.594 92.591h-2.324v2.312h2.324v-2.312zM253.594 98.006h-2.324v2.312h2.324v-2.312zM258.58 92.591h-2.324v2.312h2.324v-2.312zM258.58 98.006h-2.324v2.312h2.324v-2.312zM263.566 92.591h-2.324v2.312h2.324v-2.312zM263.566 98.006h-2.324v2.312h2.324v-2.312zM268.552 92.591h-2.324v2.312h2.324v-2.312zM268.552 98.006h-2.324v2.312h2.324v-2.312zM273.538 92.591h-2.324v2.312h2.324v-2.312zM273.538 98.006h-2.324v2.312h2.324v-2.312zM258.918 50.11h-2.325v2.312h2.325V50.11zM258.918 55.53h-2.325v2.312h2.325v-2.311zM263.903 50.11h-2.324v2.312h2.324V50.11zM263.903 55.53h-2.324v2.312h2.324v-2.311zM279.333 106.364h3.239v-5.685h-3.239v5.685z" fill="#000543"/><path d="M435.032 87.153h-93.923a2.973 2.973 0 0 0-2.969 2.967v115.733a2.976 2.976 0 0 0 2.969 2.968h93.923a2.969 2.969 0 0 0 2.968-2.968V90.12a2.97 2.97 0 0 0-2.968-2.968z" fill="#fff"/><path d="M430.788 91.598h-85.429c-1.491 0-2.705.87-2.705 1.944v84.656c0 1.073 1.227 1.944 2.705 1.944h85.429c1.49 0 2.704-.871 2.704-1.944V93.542c0-1.073-1.214-1.944-2.704-1.944z" fill="#88E0FF"/><path d="M380.432 198.587c1.386-.706 4.937-3.949 4.937-5.924 0-2.551-2.22-4.206-4.937-2.716-2.312-1.564-4.906.165-4.906 2.716-.025 1.975 3.526 5.218 4.906 5.924zM361.365 191.523h1.662a2.613 2.613 0 0 0 2.453-1.754l.552-1.594a.947.947 0 0 1 1.049-.693.823.823 0 0 1 .518.771.82.82 0 0 1-.071.32l-.613 1.913a7.072 7.072 0 0 1 3.017 0c1.325.252 1.521 1.184 1.681 2.085a8.631 8.631 0 0 1 0 2.999 2.204 2.204 0 0 1-.472 1.165c-.52.504-1.15.88-1.84 1.097a5.905 5.905 0 0 1-3.907-.208 7 7 0 0 0-2.747-.613h-1.3a1.174 1.174 0 0 1-1.166-1.172v-3.121a1.166 1.166 0 0 1 1.184-1.195zM351.393 198.439l-1.944-1.943h-2.631a4.188 4.188 0 0 1-4.231-3.839 4.12 4.12 0 0 1 1.101-3.081 4.11 4.11 0 0 1 3.002-1.303h5.519a4.193 4.193 0 0 1 4.238 3.838 4.115 4.115 0 0 1-3.778 4.372v1.423a.757.757 0 0 1-.466.699.792.792 0 0 1-.288.055.72.72 0 0 1-.522-.221zm-4.685-9.504a3.463 3.463 0 0 0-2.517 1.094 3.456 3.456 0 0 0-.924 2.585 3.524 3.524 0 0 0 3.57 3.219h2.888l2.134 2.134a.107.107 0 0 0 .105 0 .094.094 0 0 0 .04-.034.095.095 0 0 0 .015-.052v-2.072h.319a3.439 3.439 0 0 0 3.44-3.679 3.524 3.524 0 0 0-3.569-3.22l-5.501.025zM390.974 189.99h28.885a.337.337 0 0 0 0-.669h-28.885a.337.337 0 0 0 0 .669zM423.668 189.99h11.793a.337.337 0 0 0 0-.669h-11.793a.337.337 0 0 0 0 .669zM390.974 192.222h10.959a.337.337 0 0 0 0-.669h-10.959a.337.337 0 0 0 0 .669zM406.159 192.222h29.302a.337.337 0 0 0 0-.669h-29.302a.337.337 0 0 0 0 .669zM391.054 194.264h25.389a.338.338 0 0 0 .235-.097.338.338 0 0 0 .071-.361.338.338 0 0 0-.071-.108.338.338 0 0 0-.235-.097h-25.389a.324.324 0 0 0-.127.026.323.323 0 0 0-.179.179.323.323 0 0 0 .072.361c.03.03.067.055.107.071.04.017.083.026.127.026zM420.81 194.264h14.718a.338.338 0 0 0 .235-.097.338.338 0 0 0 .071-.361.338.338 0 0 0-.071-.108.338.338 0 0 0-.235-.097H420.81a.33.33 0 1 0 0 .663zM391.054 196.397h6.783a.33.33 0 1 0 0-.662h-6.783a.33.33 0 1 0 0 .662zM400.517 196.397h35.018a.33.33 0 1 0 0-.662h-35.018a.33.33 0 1 0 0 .662zM391.054 198.611h32.552a.333.333 0 0 0 .332-.331.33.33 0 0 0-.332-.331h-32.552a.33.33 0 1 0 0 .662zM426.924 198.611h8.586a.33.33 0 1 0 0-.662h-8.586a.332.332 0 0 0-.331.331.33.33 0 0 0 .331.331z" fill="#FFDBC2"/><path d="M398.885 128.383h-35.183v51.698h35.183v-51.698z" fill="#FFDDD7"/><path d="m400.112 128.414-18.613-18.543-17.797 18.543h36.41z" fill="#FFDDD7"/><path d="m412.439 119.431-10.285-9.56h-20.655l9.598 9.56h21.342z" fill="#F75B37"/><path d="M412.439 119.431h-21.342v60.644h21.342v-60.644z" fill="#FCBAB1"/><path d="M403.467 173.311h-3.852v6.757h3.852v-6.757zM371.625 130.83a1.368 1.368 0 0 0-1.265.852 1.37 1.37 0 0 0 .302 1.495 1.378 1.378 0 0 0 1.496.295 1.372 1.372 0 0 0 .443-2.242 1.388 1.388 0 0 0-.448-.298 1.386 1.386 0 0 0-.528-.102zM378.095 130.83a1.374 1.374 0 1 0 0 2.748 1.374 1.374 0 0 0 0-2.748zM384.633 130.83a1.369 1.369 0 0 0-1.265.852 1.375 1.375 0 1 0 2.645.521c0-.181-.036-.36-.106-.527a1.362 1.362 0 0 0-.747-.744 1.377 1.377 0 0 0-.527-.102zM371.625 136.71a1.376 1.376 0 0 0-1.265.852 1.37 1.37 0 0 0 .302 1.495 1.37 1.37 0 0 0 1.496.295 1.372 1.372 0 0 0-.533-2.642zM378.095 136.71a1.375 1.375 0 0 0-.268 2.721 1.374 1.374 0 1 0 .268-2.721zM384.633 136.71a1.377 1.377 0 0 0-1.265.852 1.375 1.375 0 1 0 2.645.522 1.371 1.371 0 0 0-.853-1.271 1.36 1.36 0 0 0-.527-.103zM371.625 142.59a1.377 1.377 0 0 0-1.34 1.646 1.372 1.372 0 1 0 2.316-1.245 1.388 1.388 0 0 0-.976-.401zM378.095 142.59a1.375 1.375 0 0 0-.268 2.721 1.374 1.374 0 1 0 .268-2.721zM384.633 142.59a1.378 1.378 0 0 0-1.265.853 1.368 1.368 0 0 0 .302 1.494 1.373 1.373 0 1 0 .963-2.347zM371.625 148.471a1.376 1.376 0 0 0-1.265.852 1.37 1.37 0 0 0 .302 1.495 1.37 1.37 0 0 0 1.496.295 1.372 1.372 0 0 0-.533-2.642zM378.095 148.471a1.375 1.375 0 0 0-.268 2.721 1.374 1.374 0 1 0 .268-2.721zM384.633 148.471a1.377 1.377 0 0 0-1.265.852 1.375 1.375 0 1 0 2.645.521 1.366 1.366 0 0 0-.405-.973 1.349 1.349 0 0 0-.448-.297 1.36 1.36 0 0 0-.527-.103zM371.625 154.351a1.377 1.377 0 0 0-1.34 1.646 1.367 1.367 0 0 0 1.081 1.075 1.368 1.368 0 0 0 1.408-.585 1.368 1.368 0 0 0 .126-1.289 1.392 1.392 0 0 0-.299-.447 1.387 1.387 0 0 0-.976-.4zM378.095 154.351a1.375 1.375 0 0 0-.268 2.721 1.374 1.374 0 1 0 .268-2.721zM384.633 154.351a1.378 1.378 0 0 0-1.265.852 1.368 1.368 0 0 0 1.005 1.869 1.372 1.372 0 0 0 1.534-1.874 1.376 1.376 0 0 0-1.274-.847zM371.625 160.219a1.377 1.377 0 0 0-1.34 1.646 1.372 1.372 0 1 0 2.316-1.245 1.388 1.388 0 0 0-.976-.401zM378.095 160.219a1.375 1.375 0 0 0-.268 2.721 1.374 1.374 0 1 0 .268-2.721zM384.633 160.219a1.378 1.378 0 0 0-1.265.853 1.368 1.368 0 0 0 .302 1.494 1.373 1.373 0 1 0 .963-2.347zM371.625 166.112a1.37 1.37 0 0 0-.259 2.721 1.368 1.368 0 0 0 1.408-.585 1.37 1.37 0 0 0-.621-2.033 1.368 1.368 0 0 0-.528-.103zM378.095 166.112a1.375 1.375 0 0 0-.268 2.721 1.374 1.374 0 0 0 1.642-1.347 1.38 1.38 0 0 0-1.374-1.374zM384.633 166.112a1.37 1.37 0 0 0-1.265.852 1.371 1.371 0 0 0 1.005 1.869 1.372 1.372 0 0 0 1.534-1.874 1.376 1.376 0 0 0-1.274-.847zM401.43 125.225a1.372 1.372 0 0 0-.256 2.722 1.375 1.375 0 0 0 .783-2.621 1.358 1.358 0 0 0-.527-.101zM401.43 131.106a1.371 1.371 0 0 0-.961 2.349 1.371 1.371 0 0 0 1.499.291 1.374 1.374 0 0 0 .737-1.799 1.36 1.36 0 0 0-.748-.741 1.357 1.357 0 0 0-.527-.1zM401.43 136.986a1.372 1.372 0 0 0-.256 2.722 1.375 1.375 0 0 0 .783-2.621 1.358 1.358 0 0 0-.527-.101zM401.43 142.866a1.38 1.38 0 0 0-1.265.854 1.374 1.374 0 1 0 2.54-.012 1.36 1.36 0 0 0-.748-.741 1.376 1.376 0 0 0-.527-.101zM401.43 148.747a1.376 1.376 0 0 0-1.264.852 1.37 1.37 0 0 0 1.005 1.869 1.375 1.375 0 0 0 .787-2.618 1.365 1.365 0 0 0-.528-.103zM401.43 154.627a1.377 1.377 0 0 0-1.34 1.646 1.374 1.374 0 1 0 1.34-1.646zM401.43 160.508a1.368 1.368 0 0 0-1.264.852 1.37 1.37 0 0 0 1.005 1.869c.266.052.542.025.793-.079a1.372 1.372 0 0 0 .442-2.242 1.382 1.382 0 0 0-.976-.4z" fill="#000543"/><path d="M218.527 13H124.61a2.977 2.977 0 0 0-2.974 2.968v115.726a2.979 2.979 0 0 0 2.974 2.974h93.917a2.981 2.981 0 0 0 2.975-2.974V15.968A2.974 2.974 0 0 0 218.527 13z" fill="#fff"/><path d="M214.283 17.446h-85.429c-1.49 0-2.704.87-2.704 1.943v84.651c0 1.073 1.226 1.95 2.704 1.95h85.429c1.491 0 2.705-.877 2.705-1.95V19.42c0-1.104-1.214-1.974-2.705-1.974z" fill="#88E0FF"/><path d="M163.927 124.428c1.386-.705 4.937-3.949 4.937-5.917 0-2.557-2.22-4.213-4.937-2.717-2.312-1.563-4.906.166-4.906 2.717-.024 1.968 3.526 5.212 4.906 5.917zM144.861 117.37h1.668a2.612 2.612 0 0 0 2.453-1.754l.558-1.6a.924.924 0 0 1 1.042-.687.815.815 0 0 1 .46.449.81.81 0 0 1-.012.643l-.613 1.913a7.068 7.068 0 0 1 3.023 0c1.319.251 1.515 1.177 1.675 2.079.174.993.174 2.01 0 3.004a2.214 2.214 0 0 1-.473 1.165c-.52.502-1.15.876-1.839 1.092a5.867 5.867 0 0 1-3.907-.203 7.04 7.04 0 0 0-2.748-.613h-1.3a1.168 1.168 0 0 1-1.165-1.165v-3.17a1.174 1.174 0 0 1 .35-.82 1.164 1.164 0 0 1 .828-.333zM134.889 124.287l-1.944-1.944h-2.613a4.187 4.187 0 0 1-4.231-3.82 4.07 4.07 0 0 1 1.103-3.066 4.141 4.141 0 0 1 2.999-1.306h5.52a4.204 4.204 0 0 1 4.238 3.845 4.083 4.083 0 0 1-1.104 3.066 4.147 4.147 0 0 1-2.674 1.287v1.423a.744.744 0 0 1-.125.419.744.744 0 0 1-.341.274.685.685 0 0 1-.289.061.77.77 0 0 1-.539-.239zm-4.686-9.504a3.446 3.446 0 0 0-3.246 2.291 3.448 3.448 0 0 0-.194 1.388 3.528 3.528 0 0 0 3.575 3.219h2.883l2.14 2.134a.079.079 0 0 0 .098 0 .08.08 0 0 0 .041-.031.076.076 0 0 0 .014-.049v-2.073h.338a3.438 3.438 0 0 0 3.44-3.679 3.519 3.519 0 0 0-3.569-3.219l-5.52.019zM174.488 115.831h28.885a.33.33 0 1 0 0-.662h-28.885a.33.33 0 1 0 0 .662zM207.163 115.831h11.793a.333.333 0 0 0 .332-.331.33.33 0 0 0-.332-.331h-11.793a.33.33 0 1 0 0 .662zM174.488 118.063h10.959a.33.33 0 1 0 0-.662h-10.959a.33.33 0 1 0 0 .662zM189.654 118.063h29.302a.333.333 0 0 0 .332-.331.33.33 0 0 0-.332-.331h-29.302a.33.33 0 1 0 0 .662zM174.549 120.111h25.396a.33.33 0 1 0 0-.662h-25.396a.33.33 0 1 0 0 .662zM204.305 120.111h14.719a.33.33 0 1 0 0-.662h-14.719a.33.33 0 1 0 0 .662zM174.549 122.202h6.783a.33.33 0 1 0 0-.662h-6.783a.33.33 0 1 0 0 .662zM184.012 122.202h35.018a.33.33 0 1 0 0-.662h-35.018a.33.33 0 1 0 0 .662zM174.549 124.459h32.553a.33.33 0 0 0 .331-.331.338.338 0 0 0-.331-.338h-32.553a.339.339 0 0 0-.331.338.332.332 0 0 0 .331.331zM210.426 124.459h8.586a.33.33 0 0 0 .331-.331.338.338 0 0 0-.331-.338h-8.586a.337.337 0 0 0-.337.338.337.337 0 0 0 .337.331z" fill="#FFDBC2"/><path d="M194.481 50.282h-62.898v55.707h62.898V50.282z" fill="#FCBAB1"/><path d="M155.243 50.367h-23.77v55.622h23.77V50.367z" fill="#FFDDD7"/><path d="m155.243 50.33 20.055-19.995 19.183 19.996h-39.238z" fill="#FCBAB1"/><path d="M175.297 30.335 155.243 50.33h-23.691l21.496-19.996h22.249z" fill="#F75B37"/><path d="M176.941 105.989V67.776h-16.423l16.417-.03L190.85 53.88l13.278 13.834v38.274h-27.187z" fill="#FCBAB1"/><path d="M176.929 67.776h-16.491v38.213h16.491V67.776z" fill="#FFDDD7"/><path d="M176.941 67.745h-16.423c0-.03 14.89-13.864 14.89-13.864h15.442l-13.909 13.864z" fill="#F75B37"/><path d="M193.217 105.99V80.027h-11.315 11.315l9.586-9.56 9.15 9.536v26.005l-18.736-.018z" fill="#FCBAB1"/><path d="M193.211 80.027h-11.364v25.962h11.364V80.027z" fill="#FFDDD7"/><path d="M193.217 80.009h-11.315l10.26-9.56h10.641l-9.586 9.56z" fill="#F75B37"/><path d="M151.784 54.12h-2.974v2.962h2.974V54.12zM144.812 54.12h-2.975v2.962h2.975V54.12zM137.722 54.12h-2.974v2.962h2.974V54.12zM151.784 60.479h-2.974v2.962h2.974v-2.962zM144.812 60.479h-2.975v2.962h2.975v-2.962zM137.722 60.479h-2.974v2.962h2.974v-2.962zM151.784 66.838h-2.974v2.961h2.974v-2.961zM144.812 66.838h-2.975v2.961h2.975v-2.961zM137.722 66.838h-2.974v2.961h2.974v-2.961zM151.784 73.196h-2.974v2.962h2.974v-2.962zM144.812 73.196h-2.975v2.962h2.975v-2.962zM137.722 73.196h-2.974v2.962h2.974v-2.962zM151.784 79.555h-2.974v2.962h2.974v-2.962zM144.812 79.555h-2.975v2.962h2.975v-2.962zM137.722 79.555h-2.974v2.962h2.974v-2.962zM151.784 85.914h-2.974v2.962h2.974v-2.962zM144.812 85.914h-2.975v2.962h2.975v-2.962zM137.722 85.914h-2.974v2.962h2.974v-2.962zM151.784 92.273h-2.974v2.961h2.974v-2.961zM144.812 92.273h-2.975v2.961h2.975v-2.961zM137.722 92.273h-2.974v2.961h2.974v-2.961zM173.249 72.706h-2.974v2.962h2.974v-2.962zM166.276 72.706h-2.974v2.962h2.974v-2.962zM173.249 79.064h-2.974v2.962h2.974v-2.962zM166.276 79.064h-2.974v2.962h2.974v-2.962zM173.249 85.423h-2.974v2.962h2.974v-2.962zM166.276 85.423h-2.974v2.962h2.974v-2.962zM173.249 91.782h-2.974v2.962h2.974v-2.962zM166.276 91.782h-2.974v2.962h2.974v-2.962zM188.636 85.344h-2.974v2.961h2.974v-2.962zM188.636 91.696h-2.974v2.962h2.974v-2.962zM196.026 105.99h4.152v-7.279h-4.152v7.279z" fill="#000543"/><path d="M198.025 186.488c1.092 4.501-.827 17.035-5.74 18.844-7.856 2.888-14.393-5.488-15.994-9.542-1.392-3.519-7.672-30.739-9.058-36.484l21.759-3.943c.957 4.857 8.849 30.365 9.033 31.125z" fill="#8988B1"/><path d="M161.977 137.231a50.96 50.96 0 0 0-27.205.331 110.858 110.858 0 0 0-6.623 2.318c-7.617 3.005-12.707 6.825-13.492 8.585.098 0 4.636 46.332 8.242 79.377a2.165 2.165 0 0 0 2.018 2.011h58.433a1.519 1.519 0 0 0 1.385-1.071c.061-.199.08-.409.056-.615-1.343-30.856-2.22-81.119-2.22-81.119a59.866 59.866 0 0 0-20.594-9.817z" fill="#8988B1"/><path d="M149.043 145.374c5.26 0 9.524-2.171 9.524-4.85s-4.264-4.85-9.524-4.85c-5.26 0-9.524 2.171-9.524 4.85s4.264 4.85 9.524 4.85z" fill="#FD9783"/><path d="M149.147 147.146h-.564a.314.314 0 0 1-.128-.028.35.35 0 0 1-.18-.185.343.343 0 0 1-.023-.13.344.344 0 0 1 .344-.331h1.33a.338.338 0 1 1 0 .674h-.779zm-1.901-.079a22.401 22.401 0 0 1-1.386-.16.33.33 0 0 1-.277-.254.345.345 0 0 1 .126-.353.335.335 0 0 1 .249-.061c.436.067.877.116 1.319.159a.34.34 0 0 1 .307.362.342.342 0 0 1-.111.217.342.342 0 0 1-.227.09zm4.03 0a.338.338 0 0 1 0-.675c.441-.043.883-.098 1.312-.165a.334.334 0 0 1 .356.281.34.34 0 0 1-.246.381c-.441.073-.901.129-1.355.172l-.067.006zm-6.691-.387h-.074c-.448-.104-.895-.22-1.325-.349a.332.332 0 0 1-.22-.417.336.336 0 0 1 .417-.227c.411.129.84.239 1.275.337a.325.325 0 0 1 .213.145.326.326 0 0 1 .045.254.34.34 0 0 1-.331.239v.018zm9.346-.049a.336.336 0 0 1-.074-.662c.436-.104.865-.221 1.27-.356a.341.341 0 0 1 .36.106.34.34 0 0 1 .063.115.345.345 0 0 1-.221.423c-.423.135-.864.258-1.318.362l-.08.012zm-11.916-.742a.318.318 0 0 1-.123 0 12.294 12.294 0 0 1-1.226-.613.342.342 0 0 1-.135-.46.349.349 0 0 1 .46-.135c.38.212.773.398 1.177.558a.345.345 0 0 1 .111.073.352.352 0 0 1 .099.239.339.339 0 0 1-.026.13.328.328 0 0 1-.337.19v.018zm14.473-.085a.337.337 0 0 1-.128-.65 13.13 13.13 0 0 0 1.165-.577.323.323 0 0 1 .256-.036.331.331 0 0 1 .204.159.345.345 0 0 1-.123.46 11.68 11.68 0 0 1-1.226.613.37.37 0 0 1-.148.012v.019zm-16.816-1.227a.352.352 0 0 1-.202-.067 6.89 6.89 0 0 1-1.036-.969.327.327 0 0 1-.082-.116.344.344 0 0 1 .005-.276.336.336 0 0 1 .351-.19.333.333 0 0 1 .235.147c.278.321.59.611.932.864a.346.346 0 0 1 .067.472.347.347 0 0 1-.27.129v.006zm19.135-.141a.326.326 0 0 1-.264-.159.338.338 0 0 1 .049-.472 5.38 5.38 0 0 0 .895-.896.343.343 0 0 1 .224-.128.342.342 0 0 1 .249.067.34.34 0 0 1 .127.224.323.323 0 0 1-.072.248 5.95 5.95 0 0 1-1 1.006.306.306 0 0 1-.208.104v.006zm-20.852-1.913a.344.344 0 0 1-.313-.209 3.458 3.458 0 0 1-.257-1.306 1.202 1.202 0 0 1 0-.147.339.339 0 0 1 .093-.261.341.341 0 0 1 .396-.067.343.343 0 0 1 .174.217.324.324 0 0 1 .005.142v.116c0 .362.071.721.209 1.055a.332.332 0 0 1-.184.435.304.304 0 0 1-.098.019l-.025.006zm22.415-.215h-.11a.337.337 0 0 1-.215-.423c.095-.276.143-.566.141-.858a2.426 2.426 0 0 0 0-.319.339.339 0 0 1 .537-.29.34.34 0 0 1 .132.21c.009.133.009.266 0 .399a3.621 3.621 0 0 1-.172 1.073.328.328 0 0 1-.121.145.328.328 0 0 1-.179.057l-.013.006zm-22.304-2.385a.307.307 0 0 1-.148-.037.321.321 0 0 1-.189-.321.31.31 0 0 1 .036-.126c.216-.433.497-.83.834-1.178a.344.344 0 0 1 .236-.099.329.329 0 0 1 .236.099.339.339 0 0 1 0 .479 4.241 4.241 0 0 0-.717 1.005.325.325 0 0 1-.264.172l-.024.006zm22.01-.202a.333.333 0 0 1-.294-.172 4.638 4.638 0 0 0-.773-.981.344.344 0 0 1-.099-.236.329.329 0 0 1 .099-.236.328.328 0 0 1 .239-.1.339.339 0 0 1 .239.1c.346.333.643.713.883 1.128a.334.334 0 0 1-.122.46.34.34 0 0 1-.147.031l-.025.006zm-20.238-1.766a.344.344 0 0 1-.276-.141.33.33 0 0 1-.011-.372.34.34 0 0 1 .091-.094c.314-.224.642-.429.981-.613a.34.34 0 0 1 .263-.023.344.344 0 0 1 .056.636c-.315.171-.62.36-.914.564a.315.315 0 0 1-.141.037l-.049.006zm18.331-.129a.331.331 0 0 1-.184-.055 9.989 9.989 0 0 0-1.129-.644.357.357 0 0 1-.105-.08.348.348 0 0 1-.083-.246.335.335 0 0 1 .227-.296.34.34 0 0 1 .256.015c.423.204.833.435 1.226.693a.33.33 0 0 1-.159.607l-.049.006zM125.91 180.381a.297.297 0 0 1-.159-.043.336.336 0 0 1-.141-.454s.227-.429.583-1.226a.337.337 0 0 1 .447-.159.316.316 0 0 1 .178.188.331.331 0 0 1-.012.259c-.368.785-.613 1.227-.613 1.227a.343.343 0 0 1-.283.208zm1.147-2.453a.307.307 0 0 1-.135 0 .34.34 0 0 1-.177-.447c.165-.374.343-.785.527-1.227a.334.334 0 0 1 .585.028.333.333 0 0 1 .028.23c-.19.454-.368.871-.533 1.226a.333.333 0 0 1-.295.197v-.007zm1.031-2.489h-.123a.343.343 0 0 1-.19-.442c.159-.392.319-.809.484-1.226a.344.344 0 0 1 .165-.241.332.332 0 0 1 .291-.022.33.33 0 0 1 .124.084.332.332 0 0 1 .088.278.352.352 0 0 1-.054.14c-.166.442-.325.859-.485 1.263a.323.323 0 0 1-.126.128.323.323 0 0 1-.174.044v-.006zm.944-2.52h-.11a.336.336 0 0 1-.227-.299.344.344 0 0 1 .018-.131c.147-.408.294-.831.442-1.269a.337.337 0 0 1 .423-.214.342.342 0 0 1 .214.429c-.147.441-.294.864-.441 1.275a.335.335 0 0 1-.319.215v-.006zm.852-2.557a.269.269 0 0 1-.098 0 .343.343 0 0 1-.235-.293.319.319 0 0 1 .015-.13c.134-.417.263-.847.392-1.282a.338.338 0 0 1 .417-.227.338.338 0 0 1 .227.417c-.129.442-.264.871-.392 1.294a.34.34 0 0 1-.326.227v-.006zm.767-2.582a.208.208 0 0 1-.086 0 .33.33 0 0 1-.206-.155.322.322 0 0 1-.033-.256c.117-.423.233-.858.35-1.294a.33.33 0 0 1 .146-.232.342.342 0 0 1 .271-.046.333.333 0 0 1 .253.305.345.345 0 0 1-.02.139l-.35 1.306a.336.336 0 0 1-.124.172.337.337 0 0 1-.201.067v-.006zm.675-2.606h-.08a.345.345 0 0 1-.252-.405c.105-.429.203-.864.301-1.306a.341.341 0 0 1 .392-.226.339.339 0 0 1 .264.367c-.098.448-.196.883-.3 1.319a.331.331 0 0 1-.325.257v-.006zm.57-2.63h-.061a.344.344 0 0 1-.27-.393c.086-.435.172-.877.251-1.318a.336.336 0 0 1 .256-.268.34.34 0 0 1 .407.384c-.08.448-.166.896-.252 1.331a.336.336 0 0 1-.331.27v-.006zm.472-2.649h-.055a.34.34 0 0 1-.124-.043.34.34 0 0 1-.153-.207.34.34 0 0 1-.005-.131c.074-.441.135-.883.196-1.324a.34.34 0 0 1 .127-.223.336.336 0 0 1 .371-.024.336.336 0 0 1 .157.202.34.34 0 0 1 .008.131c-.056.454-.123.895-.191 1.343a.337.337 0 0 1-.331.282v-.006zm.356-2.668h-.037a.343.343 0 0 1-.3-.374 90.6 90.6 0 0 0 .135-1.33.338.338 0 0 1 .359-.273.337.337 0 0 1 .309.328c-.037.454-.086.901-.135 1.349a.338.338 0 0 1-.331.306v-.006zm.233-2.679a.344.344 0 0 1-.337-.362c.03-.442.055-.889.073-1.337a.332.332 0 0 1 .106-.235.332.332 0 0 1 .244-.084.338.338 0 0 1 .319.35c0 .454-.037.901-.068 1.349a.344.344 0 0 1-.337.325v-.006zm.104-2.692a.338.338 0 0 1-.337-.338V150.182a.336.336 0 0 1 .337-.338.34.34 0 0 1 .338.338v1.355a.34.34 0 0 1-.338.325v-.006zm-.037-2.692a.331.331 0 0 1-.331-.319c0-.441-.043-.889-.073-1.337a.327.327 0 0 1 .312-.355.338.338 0 0 1 .356.312c.031.448.055.902.074 1.349a.34.34 0 0 1-.086.242.33.33 0 0 1-.233.108h-.019zm-.184-2.68a.338.338 0 0 1-.337-.306c-.041-.442-.09-.883-.147-1.325a.335.335 0 0 1 .164-.333.346.346 0 0 1 .374.024.343.343 0 0 1 .13.223c.056.448.105.902.154 1.349a.346.346 0 0 1-.077.248.332.332 0 0 1-.23.12h-.031zm-.349-2.667a.331.331 0 0 1-.217-.081.334.334 0 0 1-.114-.201 31.243 31.243 0 0 0-.233-1.312.339.339 0 0 1 .245-.399.326.326 0 0 1 .253.052.32.32 0 0 1 .139.218c.092.441.172.889.24 1.33a.337.337 0 0 1-.276.387l-.037.006zm-.515-2.643a.345.345 0 0 1-.331-.257c-.099-.43-.209-.865-.319-1.294a.338.338 0 0 1 .03-.255.336.336 0 0 1 .203-.156.325.325 0 0 1 .411.239c.122.435.233.877.331 1.312a.326.326 0 0 1-.04.256.333.333 0 0 1-.212.149l-.073.006zM179.965 179.228a.343.343 0 0 1-.283-.153s-.269-.417-.693-1.19a.338.338 0 0 1-.022-.263.34.34 0 0 1 .299-.24.338.338 0 0 1 .134.015.349.349 0 0 1 .203.17c.405.742.668 1.134.668 1.14a.337.337 0 0 1 .05.254.334.334 0 0 1-.148.212.321.321 0 0 1-.208.055zm-1.301-2.36a.34.34 0 0 1-.3-.191 51.44 51.44 0 0 1-.577-1.226.346.346 0 0 1 .172-.448.339.339 0 0 1 .442.172c.202.442.392.846.57 1.227a.336.336 0 0 1-.153.447.335.335 0 0 1-.154-.012v.031zm-1.097-2.453a.32.32 0 0 1-.19-.055.322.322 0 0 1-.123-.154 33.108 33.108 0 0 1-.497-1.257.348.348 0 0 1-.054-.139.347.347 0 0 1 .087-.279.337.337 0 0 1 .58.179c.16.436.325.853.485 1.227a.333.333 0 0 1-.184.435.288.288 0 0 1-.117.006l.013.037zm-.951-2.514a.342.342 0 0 1-.319-.227c-.139-.409-.28-.838-.423-1.288a.337.337 0 1 1 .644-.202c.135.435.276.858.417 1.269a.351.351 0 0 1-.015.258.345.345 0 0 1-.193.171.344.344 0 0 1-.111-.012v.031zm-.803-2.569a.344.344 0 0 1-.325-.246 49.397 49.397 0 0 1-.356-1.306.344.344 0 0 1 .245-.411.345.345 0 0 1 .257.038.329.329 0 0 1 .154.208c.111.441.227.87.344 1.287a.342.342 0 0 1-.028.255.334.334 0 0 1-.199.162l-.092.013zm-.669-2.607a.339.339 0 0 1-.331-.263c-.098-.429-.19-.871-.282-1.325a.345.345 0 0 1 .049-.254.337.337 0 0 1 .613.119c.086.448.178.883.276 1.313a.33.33 0 0 1-.251.398l-.074.012zm-.533-2.642a.336.336 0 0 1-.331-.276 62.568 62.568 0 0 1-.215-1.337.32.32 0 0 1-.008-.141.33.33 0 0 1 .284-.282.336.336 0 0 1 .386.325c.068.448.141.889.215 1.318a.344.344 0 0 1-.27.393h-.061zm-.399-2.655a.339.339 0 0 1-.331-.301c-.055-.441-.11-.889-.153-1.343a.336.336 0 0 1 .556-.315.337.337 0 0 1 .112.248c.043.454.098.895.147 1.33a.344.344 0 0 1-.065.248.322.322 0 0 1-.099.085.319.319 0 0 1-.124.041l-.043.007zm-.27-2.68a.344.344 0 0 1-.337-.313 89.37 89.37 0 0 1-.086-1.349.338.338 0 0 1 .675-.037c0 .454.049.896.086 1.337a.34.34 0 0 1-.084.244.34.34 0 0 1-.229.118h-.025zm-.141-2.686a.33.33 0 0 1-.331-.331v-1.349a.337.337 0 0 1 .569-.242.328.328 0 0 1 .099.236v1.337a.34.34 0 0 1-.02.13.346.346 0 0 1-.176.189.338.338 0 0 1-.129.03h-.012zm0-2.692a.341.341 0 0 1-.337-.343c0-.448 0-.895.043-1.349a.334.334 0 0 1 .195-.352.332.332 0 0 1 .393.085.334.334 0 0 1 .08.267c0 .454-.03.895-.037 1.337a.337.337 0 0 1-.349.319l.012.036zm.111-2.685a.34.34 0 0 1-.246-.11.343.343 0 0 1-.092-.252c.031-.442.062-.895.105-1.349a.337.337 0 0 1 .361-.307.345.345 0 0 1 .307.368c-.037.448-.074.889-.098 1.331a.34.34 0 0 1-.132.214.34.34 0 0 1-.242.068l.037.037zm.233-2.686h-.037a.334.334 0 0 1-.226-.122.343.343 0 0 1-.075-.246c.049-.448.105-.895.16-1.343a.343.343 0 0 1 .38-.294c.044.006.086.02.124.043a.33.33 0 0 1 .164.337c-.055.448-.11.889-.159 1.33a.333.333 0 0 1-.344.252l.013.043zm.349-2.668h-.055a.34.34 0 0 1-.282-.386c.067-.441.141-.883.221-1.33a.325.325 0 0 1 .135-.22.326.326 0 0 1 .251-.056.34.34 0 0 1 .218.136.34.34 0 0 1 .058.25c-.08.448-.147.889-.215 1.324a.332.332 0 0 1-.126.181.333.333 0 0 1-.211.065l.006.036zm.454-2.667h-.055a.308.308 0 0 1-.121-.043.31.31 0 0 1-.094-.086.325.325 0 0 1-.055-.245v-.043a.33.33 0 0 1 .145-.214.345.345 0 0 1 .254-.05.343.343 0 0 1 .263.399.372.372 0 0 1-.349.245l.012.037zM124.573 227.179a.325.325 0 0 1-.225-.088.329.329 0 0 1-.106-.218l-.263-3.606a.311.311 0 0 1 .077-.243.321.321 0 0 1 .229-.112.336.336 0 0 1 .362.306l.264 3.606a.33.33 0 0 1-.082.243.33.33 0 0 1-.231.112h-.025zM127.646 227.179a.34.34 0 0 1-.337-.306l-.264-3.606a.337.337 0 0 1 .082-.245.337.337 0 0 1 .593.196l.263 3.606a.341.341 0 0 1-.083.242.339.339 0 0 1-.229.113h-.025zM130.719 227.179a.339.339 0 0 1-.338-.306l-.264-3.606a.337.337 0 0 1 .557-.276c.068.057.11.139.118.227l.264 3.606a.337.337 0 0 1-.313.355h-.024zM133.791 227.179a.336.336 0 0 1-.337-.306l-.264-3.606a.338.338 0 0 1 .543-.254.34.34 0 0 1 .125.205l.27 3.606a.341.341 0 0 1-.083.242.339.339 0 0 1-.23.113h-.024zM136.863 227.179a.338.338 0 0 1-.337-.306l-.264-3.606a.34.34 0 0 1 .313-.323.337.337 0 0 1 .356.274l.264 3.606a.333.333 0 0 1-.078.243.325.325 0 0 1-.229.112h-.025zM139.93 227.179a.328.328 0 0 1-.331-.306l-.264-3.606a.335.335 0 0 1 .182-.321.335.335 0 0 1 .486.272l.264 3.606a.337.337 0 0 1-.081.243.326.326 0 0 1-.232.112h-.024zM143.002 227.179a.33.33 0 0 1-.331-.306l-.264-3.606a.33.33 0 0 1 .181-.323.321.321 0 0 1 .126-.032.336.336 0 0 1 .362.306l.264 3.606a.338.338 0 0 1-.186.323.33.33 0 0 1-.127.032h-.025zM146.075 227.179a.34.34 0 0 1-.337-.306l-.264-3.606a.342.342 0 0 1 .081-.245.347.347 0 0 1 .232-.117.343.343 0 0 1 .327.186c.019.04.031.083.035.127l.263 3.606a.341.341 0 0 1-.083.242.339.339 0 0 1-.229.113h-.025zM149.147 227.179a.338.338 0 0 1-.337-.306l-.264-3.606a.337.337 0 0 1 .557-.276c.068.057.11.139.118.227l.264 3.606a.337.337 0 0 1-.313.355h-.025zM152.22 227.179a.336.336 0 0 1-.337-.306l-.264-3.606a.341.341 0 0 1 .083-.242.339.339 0 0 1 .592.193l.263 3.606a.341.341 0 0 1-.083.242.339.339 0 0 1-.229.113h-.025zM155.292 227.179a.338.338 0 0 1-.337-.306l-.264-3.606a.34.34 0 0 1 .313-.323.341.341 0 0 1 .23.069c.066.051.11.124.126.205l.264 3.606a.333.333 0 0 1-.078.243.321.321 0 0 1-.229.112h-.025zM158.359 227.179a.328.328 0 0 1-.331-.306l-.264-3.606a.354.354 0 0 1 .015-.129.333.333 0 0 1 .535-.147.332.332 0 0 1 .118.227l.264 3.606a.346.346 0 0 1-.015.128.341.341 0 0 1-.167.193.32.32 0 0 1-.125.034h-.03zM161.431 227.179a.33.33 0 0 1-.331-.306l-.264-3.606a.33.33 0 0 1 .181-.323.321.321 0 0 1 .126-.032.336.336 0 0 1 .362.306l.264 3.606a.338.338 0 0 1-.186.323.33.33 0 0 1-.127.032h-.025zM164.504 227.179a.328.328 0 0 1-.331-.306l-.27-3.606a.336.336 0 0 1 .313-.362.339.339 0 0 1 .361.313l.264 3.606a.341.341 0 0 1-.083.242.339.339 0 0 1-.23.113h-.024zM167.576 227.179a.336.336 0 0 1-.337-.306l-.264-3.606a.34.34 0 0 1 .313-.362.34.34 0 0 1 .362.313l.264 3.606a.337.337 0 0 1-.313.355h-.025zM170.649 227.179a.336.336 0 0 1-.337-.306l-.264-3.606a.341.341 0 0 1 .083-.242.339.339 0 0 1 .591.193l.264 3.606a.341.341 0 0 1-.083.242.339.339 0 0 1-.23.113h-.024zM173.721 227.179a.338.338 0 0 1-.337-.306l-.264-3.606a.34.34 0 0 1 .313-.323.341.341 0 0 1 .23.069c.066.051.11.124.126.205l.264 3.606a.333.333 0 0 1-.078.243.321.321 0 0 1-.229.112h-.025zM176.788 227.179a.328.328 0 0 1-.331-.306l-.264-3.606a.339.339 0 0 1 .312-.323.338.338 0 0 1 .356.274l.264 3.606a.346.346 0 0 1-.015.128.341.341 0 0 1-.167.193.32.32 0 0 1-.125.034h-.03zM179.86 227.179a.33.33 0 0 1-.331-.306l-.264-3.606a.333.333 0 0 1 .078-.243.325.325 0 0 1 .229-.112.324.324 0 0 1 .327.18c.02.039.032.082.035.126l.264 3.606a.338.338 0 0 1-.186.323.33.33 0 0 1-.127.032h-.025zM182.933 227.179a.328.328 0 0 1-.331-.306l-.27-3.606a.342.342 0 0 1 .312-.362.34.34 0 0 1 .362.313l.264 3.606a.341.341 0 0 1-.083.242.339.339 0 0 1-.23.113h-.024z" fill="#78779F"/><path d="M140.672 109.797c.205-.405.354-.836.441-1.281.074-.859-.576-1.601-.785-2.453a2.541 2.541 0 0 1 1.546-2.913c.456-.082.89-.258 1.276-.515.259-.297.428-.663.484-1.054.282-1.104.681-2.312 1.668-2.888.988-.577 2.361-.356 3.226-1.11.312-.335.595-.696.846-1.08a3.33 3.33 0 0 1 3.422-1.079c.742.215 1.478.7 2.22.497.5-.213.951-.526 1.325-.92a3.682 3.682 0 0 1 3.968-.33c.951.52 1.68 1.477 2.735 1.747.457.046.902.168 1.319.361.969.614.386 2.226.932 3.257.491.913 1.742 1.158 2.318 2.023.81 1.226-.153 2.949.368 4.323.294.773 1.03 1.349 1.196 2.158.319 1.564-1.595 2.766-1.729 4.36 0 .374.036.754 0 1.122-.258 1.46-2.349 1.938-2.772 3.354a4.79 4.79 0 0 0-2.705-3.016c-3.066-1.294-6.672.901-9.941.141-1.116-.264-2.19-.865-3.336-.785a2.96 2.96 0 0 0-2.607 3.01c0 1.349.086 1.84-1.318.871-2.386-1.594-5.238-4.709-4.097-7.8z" fill="#000543"/><path d="M164.026 113.985c.052.337.039.68-.037 1.012a7.14 7.14 0 0 0-.411-1.318c.157.091.306.193.448.306z" fill="#000543"/><path d="M148.289 144.124v-.062c3.281.485 6.298-1.539 6.746-4.819.46-3.103 1.153-7.745 1.226-7.739 3.183.466 7.452-3.109 8.286-8.775l1.839-10.853c-.061-.448-2.772.098-2.894-.325a14.567 14.567 0 0 0-6.863-2.453 14.053 14.053 0 0 0-6.39 1.392c-2.055 1.178-2.833 12.105-2.288 12.522l-2.348-.325-2.374 14.716a5.846 5.846 0 0 0 5.06 6.721z" fill="#FD9783"/><path d="M163.032 117.628a.21.21 0 0 1-.172-.129.222.222 0 0 1 .117-.288 2.44 2.44 0 0 1 2.134.282.216.216 0 0 1 .122.135.23.23 0 0 1-.021.182.234.234 0 0 1-.065.068.24.24 0 0 1-.086.035.218.218 0 0 1-.177-.046 2.034 2.034 0 0 0-.842-.322 2.031 2.031 0 0 0-.9.071.173.173 0 0 1-.11.012zM156.893 116.027a.237.237 0 0 1-.102-.043.25.25 0 0 1-.07-.085.22.22 0 0 1 .117-.289 2.458 2.458 0 0 1 2.134.282.214.214 0 0 1 .1.132.216.216 0 0 1 .004.084.223.223 0 0 1-.03.079.221.221 0 0 1-.301.079 2.016 2.016 0 0 0-1.735-.251.26.26 0 0 1-.117.012z" fill="#000543"/><path d="M155.746 131.952c-7.482-1.3-10.867-8.039-10.628-9.676a.332.332 0 1 1 .65.098c-.165 1.14 2.834 7.671 10.076 8.928.384.034.77.034 1.153 0a.333.333 0 0 1 .35.306.33.33 0 0 1-.307.35c-.43.034-.863.032-1.294-.006zM159.052 123.379a.33.33 0 0 1 .061-.656c.441.042.886-.017 1.3-.171l.166-.056a.203.203 0 0 0 .117-.104.225.225 0 0 0 0-.178.316.316 0 0 1 .011-.249.317.317 0 0 1 .076-.102.319.319 0 0 1 .109-.066.332.332 0 0 1 .423.197.89.89 0 0 1-.037.686.852.852 0 0 1-.206.27.854.854 0 0 1-.297.166l-.147.055a3.549 3.549 0 0 1-1.545.208h-.031z" fill="#FF7664"/><path d="M156.703 118.118c-.067.479-.343.828-.613.785-.27-.043-.43-.454-.356-.926.074-.472.343-.821.613-.785.27.037.423.454.356.926zM164.406 119.087c-.068.472-.325.828-.571.791-.245-.037-.392-.447-.325-.926.068-.478.325-.821.577-.785.251.037.392.448.319.92z" fill="#000543"/><path d="M149.675 119.946c0 2.845-1.325 4.807-3.018 4.372-1.692-.436-3.066-3.066-3.115-5.936-.049-2.87 1.325-4.807 3.017-4.378 1.693.429 3.091 3.09 3.116 5.942z" fill="#FD9783"/><path d="M146.657 120.215a.312.312 0 0 1-.245-.184.325.325 0 0 1 .153-.435.434.434 0 0 0 .215-.27.404.404 0 0 0-.043-.331.33.33 0 0 1 .339-.481c.08.011.154.051.207.113a1.085 1.085 0 0 1 .129.871 1.1 1.1 0 0 1-.564.693.347.347 0 0 1-.191.024z" fill="#FF7664"/><path d="m166.356 109.994-15.129-2.226c-.491.895-.963 1.729-1.423 1.907-.531.207-1.049.444-1.552.711l-1.122 3.753c.568.647 1.1 1.325 1.594 2.029.085-1.275.408-2.522.951-3.679a4.816 4.816 0 0 1 3.269-2.048 13.137 13.137 0 0 1 4.379.037c.661.077 1.314.217 1.95.417 1.993.662 3.594 1.674 5.587 2.355h.036c1.227.417 2.852-1.165 2.043-2.177a3.486 3.486 0 0 1-.583-1.079z" fill="#000543"/><path d="M153.913 119.749c-.043.356-.583.577-1.227.497-.644-.08-1.085-.423-1.042-.779.042-.355.582-.576 1.226-.496.644.079 1.086.441 1.043.778zM163.841 121.276c-.036.313.319.613.828.742l.215-1.226c-.552-.049-1 .184-1.043.484z" fill="#FF7664"/><path d="m193.444 154.701 7.255.392c2.686.148 4.079 2.03 3.833 4.728l-.613 13.343-12.1-.681 1.625-17.782z" fill="#FD9783"/><path d="M190.912 167.357c-1.374-.221-2.3 1.11-2.619 2.453-1.84 7.781-4.906 18.966-5.716 28.304-.405 4.667 1.263 7.843 7.513 7.972 5.942.122 13.719-2.625 14.35-10.946.405-5.279.669-19.885.865-24.993a1.441 1.441 0 0 0-1.226-1.484l-13.167-1.306z" fill="#8988B1"/><path d="M184.073 196.968h-.049a.343.343 0 0 1-.221-.135.345.345 0 0 1-.061-.252l4.152-26.551a3.36 3.36 0 0 1 3.649-2.716l11.401 1.171a2.849 2.849 0 0 1 2.539 2.919l-.534 15.986a.333.333 0 0 1-.219.304.362.362 0 0 1-.13.021.343.343 0 0 1-.325-.35l.539-15.986a2.176 2.176 0 0 0-1.944-2.225l-11.394-1.172a2.69 2.69 0 0 0-2.92 2.165l-4.151 26.551a.33.33 0 0 1-.117.195.328.328 0 0 1-.215.075z" fill="#78779F"/><path d="M158.911 125.268c0 .3-.381.521-.804.497-.423-.025-.76-.289-.742-.614.019-.325.38-.527.804-.496.423.03.76.282.742.613z" fill="#fff"/><path d="M119.471 143.437c5.832-1.423 8.623 6.628 11.039 11.264 5.74 11.105 19.251 40.39 19.901 42.653 1.282 4.446-3.287 7.444-8.114 9.461-7.721 3.226-12.946-3.065-14.718-7.07-4.116-9.234-15.332-22.638-19.441-33.933-3.876-10.645 5.2-20.885 11.333-22.375z" fill="#8988B1"/><path d="M155.029 160.618a1.714 1.714 0 0 0-2.245.497c-6.292 8.848-16.423 24.104-18.239 26.906-4.532 7.003-2.214 13.748 3.165 16.961 5.378 3.213 11.775-.398 14.283-4.36 2.33-3.679 11.444-19.137 17.208-30.242a1.621 1.621 0 0 0-.65-2.164l-13.522-7.598z" fill="#8988B1"/><path d="M152.018 164.849a.334.334 0 0 1-.297-.181.334.334 0 0 1 .021-.346l1.895-2.753a.338.338 0 1 1 .558.38l-1.877 2.753a.354.354 0 0 1-.131.112.355.355 0 0 1-.169.035zM154.458 166.217a.364.364 0 0 1-.184-.056.347.347 0 0 1-.143-.213.346.346 0 0 1 .045-.253l1.84-2.79a.33.33 0 0 1 .46-.098c.038.024.07.055.096.091a.342.342 0 0 1 .053.253.337.337 0 0 1-.051.122l-1.84 2.79a.325.325 0 0 1-.276.154zM156.899 167.578a.34.34 0 0 1-.324-.264.34.34 0 0 1 .042-.251l1.766-2.839a.366.366 0 0 1 .09-.098.331.331 0 0 1 .253-.059.333.333 0 0 1 .123.046.344.344 0 0 1 .105.466l-1.767 2.839a.332.332 0 0 1-.288.16zM159.34 168.957a.3.3 0 0 1-.172-.049.334.334 0 0 1-.116-.459l1.717-2.882a.342.342 0 0 1 .346-.193.334.334 0 0 1 .291.269.348.348 0 0 1-.002.14.321.321 0 0 1-.059.127l-1.717 2.882a.328.328 0 0 1-.288.165zM161.781 170.331a.345.345 0 0 1-.166-.049.342.342 0 0 1-.156-.201.336.336 0 0 1 .034-.253l1.655-2.931a.339.339 0 0 1 .558-.037.317.317 0 0 1 .058.116.333.333 0 0 1-.033.252l-1.656 2.931a.333.333 0 0 1-.294.172zM164.222 171.698a.303.303 0 0 1-.16-.043.335.335 0 0 1-.135-.453l1.607-2.968a.328.328 0 0 1 .329-.177c.044.005.087.02.125.042a.338.338 0 0 1 .135.454l-1.607 2.968a.318.318 0 0 1-.294.177zM166.662 173.096a.354.354 0 0 1-.153-.036.344.344 0 0 1-.147-.454l1.552-3.017a.343.343 0 1 1 .613.307l-1.552 3.016a.33.33 0 0 1-.313.184z" fill="#78779F"/><path d="M142.929 207.539a13.048 13.048 0 0 1-11.156-6.187l-18.686-24.987a.338.338 0 0 1 .323-.507c.083.008.16.047.217.108l18.698 25.006a12.541 12.541 0 0 0 21.833-1l14.811-29.328a1.72 1.72 0 0 0-.669-2.263l-13.927-8.161a1.705 1.705 0 0 0-2.27.49l-10.848 16.158a.337.337 0 0 1-.558-.381l10.855-16.157a2.378 2.378 0 0 1 3.164-.693l13.897 8.143a2.4 2.4 0 0 1 .926 3.146l-14.78 29.328a13.057 13.057 0 0 1-11.18 7.254l-.65.031z" fill="#78779F"/><path d="M142.837 174.139a.337.337 0 0 1-.282-.147l-11.413-16.63a.334.334 0 0 1 .063-.499.335.335 0 0 1 .489.119l11.419 16.629a.35.35 0 0 1 .058.171.346.346 0 0 1-.038.176.34.34 0 0 1-.296.181zM184.386 211.433a.333.333 0 0 1-.337-.319l-.975-25.95a.337.337 0 0 1 .668-.031l.975 25.981a.322.322 0 0 1-.192.315.31.31 0 0 1-.127.028l-.012-.024z" fill="#78779F"/><path d="M195.732 135.079a1.67 1.67 0 0 1-1.636-1.993 1.664 1.664 0 0 1 1.31-1.311 1.674 1.674 0 0 1 1.713.71 1.667 1.667 0 0 1-1.387 2.594zm0-2.667a.993.993 0 0 0-.928.612.996.996 0 0 0 .213 1.092.998.998 0 0 0 1.539-.149.991.991 0 0 0 .169-.556.997.997 0 0 0-.993-1.012v.013z" fill="#222B70"/><path d="M169.435 144.399a3.157 3.157 0 0 1 1.287-.772 2.604 2.604 0 0 1 1.515.233c.396.131.736.39.969.736.215.38.19.864.405 1.226.215.362.754.644 1.153.95.47.371.801.89.938 1.472.047.426.124.848.233 1.263.167.354.386.681.65.969.498.544.832 1.218.963 1.944a9 9 0 0 0 .068.913c.173.514.412 1.002.711 1.454a3.304 3.304 0 0 1-.221 3.305 6.742 6.742 0 0 0-1.533-3.771c-.613-.724-1.355-1.319-1.968-2.036a7.141 7.141 0 0 1-1.301-2.263 13.282 13.282 0 0 0-.834-2.33 2.031 2.031 0 0 0-2.011-1.146c-.896.19-4.183 4.102-5.023 2.268-.515-1.097 3.373-3.887 3.999-4.415z" fill="#FD9783"/><path d="M177.211 157.276a16.354 16.354 0 0 0-1.085-4.016 32.916 32.916 0 0 0-2.613-5.126c-1.227-1.901-6.016-2.49-9.444-.307-2.484 1.582-3.134 2.674-4.907 5.464l-4.446 6.389 13.179 7.726a31.11 31.11 0 0 1 5.802-6.015 24.218 24.218 0 0 1 2.453-1.637 2.386 2.386 0 0 0 1.061-2.478z" fill="#FD9783"/><path d="M171.36 144.455c1.166 0 6.875 12.122 6.955 12.552a2.129 2.129 0 0 1-.889 1.937c-1.785 1.484-4.575 1.435-6.838.215a11.956 11.956 0 0 1-5.048-5.887c-.92-2.17-1.085-4.905.663-6.352.582-.479 1.33-.755 1.956-1.178.963-.644 1.95-1.293 3.201-1.287z" fill="#FD9783"/><path d="m169.895 144.001 6.525-5.519a1.762 1.762 0 0 1 2.33 2.637l-5.317 4.74-3.538-1.858zM200.938 149.36c.215.399 1.914 5.083 2.993 7.272a4.08 4.08 0 0 1 .16 3.293 8.817 8.817 0 0 1-4.238 4.936c-3.79 2.085-8.531-.784-9.598-4.611l-2.275-5.408 12.958-5.482z" fill="#FD9783"/><path d="m180.854 132.093-3.514 28.905c-.032.243-.013.49.057.724a1.737 1.737 0 0 0 .923 1.081c.221.105.461.163.706.17l14.535.503a2.225 2.225 0 0 0 2.281-1.981l3.116-29.396a1.392 1.392 0 0 0-.797-1.412 1.383 1.383 0 0 0-.559-.127l-14.639-.295a2.09 2.09 0 0 0-2.109 1.828z" fill="#000543"/><path d="M197.559 158.435c-.043-.263.049-3.857.086-4.127.264-1.86.902-3.648 1.877-5.254.227-.375.613-.785 1.012-.669.398.117 0-1.76.086-1.416.371 1.817.576 3.664.613 5.518a12.198 12.198 0 0 1-.804 3.63c-.484 1.147-.613 1.932-1.68 2.539-.141.08-.889 1.269-1.104 1.38a4.66 4.66 0 0 0-.086-1.601z" fill="#FD9783"/><path d="M199.154 152.383a1.692 1.692 0 0 0 1.656-1.735l-.264-10.523a1.7 1.7 0 0 0-1.736-1.562 1.697 1.697 0 0 0-1.655 1.648l.263 10.523a1.703 1.703 0 0 0 .526 1.184 1.694 1.694 0 0 0 1.21.465z" fill="#FD9783"/><path d="M200.123 151.022a1.843 1.843 0 0 0-.295-2.453c-1.6-1.539-4.802-4.636-6.746-5.439-.889-.374-1.797-.521-2.618.613-.614.767.404 2.324 1.269 2.76 2.453 1.226 4.41 3.311 5.918 4.844a1.677 1.677 0 0 0 1.308.386 1.69 1.69 0 0 0 1.164-.711z" fill="#FD9783"/><path d="M200.521 153.137c.326-.889-.349-1.502-1.11-2.066a16.19 16.19 0 0 0-6.746-2.6c-.938-.104-1.87.141-2.189 1.024a1.636 1.636 0 0 0 1.024 2.195 25.483 25.483 0 0 1 6.814 2.453 1.632 1.632 0 0 0 1.326-.014 1.644 1.644 0 0 0 .881-.992z" fill="#FD9783"/><path d="M198.737 154.088a15.136 15.136 0 0 0-5.52-.865c-.858.061-1.643.423-1.79 1.269a1.48 1.48 0 0 0 .685 1.587c.177.105.374.173.578.198 1.91.048 3.806.338 5.642.864a6.014 6.014 0 0 0 .405-3.053z" fill="#FD9783"/><path d="M200.049 152.322a.347.347 0 0 1-.263-.123c-1.644-2.036-6.673-3.428-7.188-3.409a.325.325 0 0 1-.131-.018.345.345 0 0 1-.228-.298.325.325 0 0 1 .018-.131.327.327 0 0 1 .171-.194.347.347 0 0 1 .127-.034c.699-.043 5.967 1.441 7.752 3.679a.332.332 0 0 1-.258.546v-.018zM199.982 150.077a.333.333 0 0 1-.295-.171 18.046 18.046 0 0 0-5.206-5.55.337.337 0 0 1-.143-.213.337.337 0 0 1 .045-.253.339.339 0 0 1 .466-.092 18.485 18.485 0 0 1 5.427 5.783.335.335 0 0 1-.135.454.288.288 0 0 1-.159.042zM199.289 155.008a.363.363 0 0 1-.19-.056 8.443 8.443 0 0 0-4.342-1.385.332.332 0 0 1-.325-.344.333.333 0 0 1 .219-.304.362.362 0 0 1 .13-.021 9.216 9.216 0 0 1 4.692 1.49.339.339 0 0 1 .092.466.336.336 0 0 1-.276.154z" fill="#FF7664"/><path d="M196.971 157.215c.301.364.468.821.472 1.294.264-.074.264-.27.417-.497a1.328 1.328 0 0 0 .073-1.429 1.411 1.411 0 0 0-.558-.46 1.151 1.151 0 0 0-.613-.128 1.407 1.407 0 0 0-.466.159 3.825 3.825 0 0 0-.392.19c.092.16.398.233.558.344.203.139.376.319.509.527z" fill="#FD9783"/><path d="M197.443 158.84a.33.33 0 0 1-.331-.331s0-1.668-1.454-1.668a.338.338 0 0 1 0-.675 2.195 2.195 0 0 1 2.007 1.474c.097.279.136.574.115.869a.333.333 0 0 1-.337.331z" fill="#FF7664"/><path d="M299.265 135.116c4.526-3.986 17.865 3.587 21.256 7.597 4.741 5.605 34.644 37.754 36.287 39.465 3.22 3.354 4.557 11.239 1.227 15.293-5.36 6.481-21.035.944-24.476-1.773-7.972-6.291-23.402-27.814-31.89-36.398-3.913-3.918-7.157-19.984-2.404-24.184zM244.089 171.514c-1.773 4.293-1.81 16.943 2.759 19.487 7.304 4.066 15.056-3.194 17.264-6.947 1.913-3.268 12.308-29.169 14.565-34.626l-20.851-7.248c-1.711 4.617-13.425 28.611-13.737 29.334z" fill="#F9B7D0"/><path d="M272.287 143.565h25.96l-2.055-37.526-23.905-2.827v40.353z" fill="#000543"/><path d="M270.576 105.591c-.055.208-.123.411-.19.613a14.768 14.768 0 0 0 2.612 7.518c4.207 5.997 13.039 10.54 19.594 7.971 3.11-1.226 3.815-3.679 3.729-3.679-3.68-1.84-.141-8.468-.104-11.816.073-6.8-6.397-12.975-16.068-11.154-3.385.644-6.255 2.784-7.555 5.12-.939 1.686-.89 3.183-1.797 4.593-.074.276-.141.546-.221.834z" fill="#000543"/><path d="M280.444 137.532c-3.067-.92-5.238-2.937-7.016-5.396 9.15-2.655 18.699-1.809 26.199.165-3.913 6.212-12.769 7.322-19.183 5.231z" fill="#FD9783"/><path d="M261.021 138.451a36.232 36.232 0 0 1 12.407-6.321c1.778 2.452 3.968 4.476 7.016 5.396 6.414 2.097 15.27.987 19.183-5.231a47.713 47.713 0 0 1 9.033 3.324 7.926 7.926 0 0 1 4.293 7.971c-1.625 14.256 2.263 78.561 3.312 83.099l-57.728-.583c.951-4.568 4.588-75.869 2.484-87.655z" fill="#F9B7D0"/><path d="M306.538 167.529a.432.432 0 0 0 .319-.135c2.852-2.992 3.128-6.745.896-12.227a.427.427 0 0 0-.236-.238.438.438 0 0 0-.477.091.437.437 0 0 0-.13.306c0 .057.011.113.033.166 2.11 5.175 1.895 8.554-.717 11.301a.435.435 0 0 0 0 .613c.084.08.196.124.312.123zM267.657 167.516a.441.441 0 0 0 .3-.122.437.437 0 0 0 0-.613c-2.704-2.882-3.005-6.794-.864-11.688a.437.437 0 0 0-.227-.576.44.44 0 0 0-.577.227c-2.281 5.169-1.926 9.541 1.024 12.638a.424.424 0 0 0 .344.134z" fill="#EA96B8"/><path d="M274.004 107.277a2.821 2.821 0 0 0 0 1.012c.108-.447.254-.884.436-1.306a4.265 4.265 0 0 0-.436.294z" fill="#000543"/><path d="M288.802 136.606a4.714 4.714 0 0 1-5.482-3.777 11.892 11.892 0 0 0-.466-1.877s-.969-5.954-1.055-5.941c-2.735.41-6.82-2.134-8.384-8.812l-1.705-11.074c.074-.448 2.766.147 2.901-.27a14.546 14.546 0 0 1 6.906-2.275c2.208 0 4.385.521 6.353 1.521 2.03 1.226 2.582 12.153 2.03 12.558h.319l2.361 14.68a4.688 4.688 0 0 1-.833 3.39 4.685 4.685 0 0 1-2.945 1.877z" fill="#FD9783"/><path d="M280.94 118.112a1.358 1.358 0 0 1-1.187 1.272 1.365 1.365 0 0 1-1.468-.935l2.655-.337z" fill="#fff"/><path d="M274.728 109.748a.214.214 0 0 0 .103-.04.215.215 0 0 0 .069-.089.21.21 0 0 0-.111-.282 2.465 2.465 0 0 0-2.134.233.224.224 0 0 0-.081.131.224.224 0 0 0 .142.251c.05.018.104.017.154-.001a2.021 2.021 0 0 1 1.741-.215.26.26 0 0 0 .117.012zM282.424 108.779a.24.24 0 0 0 .172-.128.224.224 0 0 0 .004-.167.227.227 0 0 0-.114-.122 2.454 2.454 0 0 0-2.141.24.207.207 0 0 0-.063.055.197.197 0 0 0-.038.075.213.213 0 0 0 .022.164.22.22 0 0 0 .3.08 2.014 2.014 0 0 1 1.742-.215c.036.018.076.025.116.018z" fill="#000543"/><path d="M281.707 125.305c7.316-1.116 9.959-8.162 9.757-9.768a.213.213 0 0 0-.082-.148.208.208 0 0 0-.163-.042.218.218 0 0 0-.19.245c.196 1.521-2.355 8.204-9.383 9.277a.222.222 0 0 0-.178.252.222.222 0 0 0 .239.184zM278.781 116.763a.338.338 0 0 0 .289-.331.332.332 0 0 0-.331-.325 2.945 2.945 0 0 1-1.294-.196l-.166-.062a.22.22 0 0 1-.117-.104.26.26 0 0 1 0-.178.331.331 0 0 0 .024-.125.329.329 0 0 0-.333-.321.329.329 0 0 0-.298.207.903.903 0 0 0 0 .687.867.867 0 0 0 .497.454l.147.049a3.54 3.54 0 0 0 1.54.245h.042z" fill="#FF7664"/><path d="M281.382 111.539c.061.478.331.834.613.797.282-.037.448-.448.386-.92-.061-.472-.331-.828-.613-.797-.282.031-.441.448-.386.92zM273.839 112.33c.061.472.312.828.564.797.251-.031.405-.442.343-.914-.061-.472-.313-.834-.558-.803-.245.031-.423.442-.349.92z" fill="#000543"/><path d="M288.22 113.526c-.086 2.845 1.226 4.825 2.925 4.433 1.699-.393 3.152-3.029 3.238-5.868.086-2.839-1.226-4.832-2.931-4.434-1.705.399-3.146 3.023-3.232 5.869z" fill="#FD9783"/><path d="M291.231 113.857a.328.328 0 0 0 .279-.268.327.327 0 0 0-.175-.346.423.423 0 0 1-.208-.275.41.41 0 0 1 .049-.332.327.327 0 0 0-.196-.505.32.32 0 0 0-.127-.002.331.331 0 0 0-.211.133 1.052 1.052 0 0 0-.147.865 1.055 1.055 0 0 0 .546.699c.058.031.125.042.19.031z" fill="#FF7664"/><path d="M288.385 110.417a10.43 10.43 0 0 0-.613-1.135 5.309 5.309 0 0 0-3.293-2.005 12.403 12.403 0 0 0-4.262-.104c-1.368.172-4.496-.828-5.839-1.012-1.674-.233-2.214.662-3.269-.405-.085-.085.749-.748.779-.858.031-.11.16-.178.282-.233 2.312-1.049 5.25-3.839 7.844-3.967 3.165-.166 6.2 2.452 8.825 3.777a11.264 11.264 0 0 1 2.539 1.784c.338.307 1.417-.343 1.687 0a13.326 13.326 0 0 1 2.128 4.998c.158 1.074.24 2.158.245 3.243 0 1.227-2.637.375-3.244 0a10.427 10.427 0 0 1-3.809-4.083z" fill="#000543"/><path d="M283.215 113.556c.043.301.614.478 1.294.393.681-.086 1.184-.399 1.147-.706-.037-.306-.613-.478-1.288-.392-.674.086-1.189.399-1.153.705zM273.109 114.182c.674-.086 1.226.092 1.288.398.061.307-.466.613-1.135.699l-.172-1.097h.019z" fill="#FF7664"/><path d="M316.369 226.088c0 2.152-1.012 3.906-2.244 3.906H260.69c-1.227 0-2.232-1.754-2.239-3.906h57.918z" fill="#F9B7D0"/><path d="m248.026 140.812-7.249.393c-2.686.147-4.078 2.029-3.833 4.727l.613 13.331 12.106-.656-1.637-17.795z" fill="#FD9783"/><path d="M250.534 153.475c1.368-.221 2.294 1.109 2.613 2.452 1.84 7.776 4.906 18.954 5.709 28.28.405 4.667-1.257 7.837-7.506 7.972-5.931.122-13.707-2.625-14.339-10.933-.398-5.28-.662-19.874-.864-24.975a1.45 1.45 0 0 1 1.226-1.484l13.161-1.312z" fill="#F9B7D0"/><path d="M240.538 135.484c-.221.398-1.914 5.077-2.993 7.26a4.055 4.055 0 0 0-.426 1.633 4.052 4.052 0 0 0 .273 1.666 8.814 8.814 0 0 0 4.225 4.905c3.79 2.085 8.531-.785 9.592-4.605l2.281-5.408-12.952-5.451z" fill="#FD9783"/><path d="m262.383 117.505 1.195 28.9c.009.226-.027.452-.108.663a1.666 1.666 0 0 1-.913.95 1.677 1.677 0 0 1-.659.134h-15.553a1.672 1.672 0 0 1-1.68-1.606l-1.19-28.9a1.68 1.68 0 0 1 .466-1.234 1.672 1.672 0 0 1 1.215-.513h15.552a1.676 1.676 0 0 1 1.675 1.606z" fill="#000543"/><path d="M243.911 144.553c.043-.264-.049-3.857-.086-4.121a13.851 13.851 0 0 0-1.871-5.255c-.226-.374-.613-.785-1.018-.668-.404.116 0-1.76-.079-1.417a30.56 30.56 0 0 0-.614 5.519 12.23 12.23 0 0 0 .804 3.63c.484 1.147.613 1.931 1.68 2.539.141.079.889 1.269 1.104 1.373a4.703 4.703 0 0 1 .08-1.6z" fill="#FD9783"/><path d="M242.316 138.507a1.702 1.702 0 0 1-1.65-1.736l.264-10.516a1.696 1.696 0 0 1 1.736-1.649 1.69 1.69 0 0 1 1.649 1.735l-.263 10.516a1.712 1.712 0 0 1-.145.645 1.704 1.704 0 0 1-.94.892c-.207.08-.429.118-.651.113z" fill="#FD9783"/><path d="M241.335 137.158a1.84 1.84 0 0 1 .288-2.453c1.607-1.539 4.802-4.63 6.746-5.433.896-.374 1.797-.521 2.619.583.613.766-.405 2.324-1.263 2.759-2.454 1.226-4.41 3.299-5.919 4.838a1.671 1.671 0 0 1-2.471-.294z" fill="#FD9783"/><path d="M240.955 139.255c-.325-.883.349-1.496 1.104-2.061a16.229 16.229 0 0 1 6.746-2.599c.938-.105 1.84.134 2.189 1.024a1.627 1.627 0 0 1-.434 1.86c-.171.15-.372.262-.59.329a25.538 25.538 0 0 0-6.807 2.452 1.624 1.624 0 0 1-1.328-.011 1.637 1.637 0 0 1-.88-.994z" fill="#FD9783"/><path d="M242.739 140.181a14.943 14.943 0 0 1 5.52-.859c.852.055 1.643.417 1.784 1.263a1.468 1.468 0 0 1-1.263 1.785 22.78 22.78 0 0 0-5.63.858 5.864 5.864 0 0 1-.411-3.047z" fill="#FD9783"/><path d="M241.427 138.445a.326.326 0 0 0 .264-.128c1.637-2.03 6.691-3.422 7.181-3.404a.336.336 0 0 0 .275-.56.338.338 0 0 0-.232-.114c-.699-.049-5.967 1.441-7.752 3.679a.344.344 0 0 0 .049.478c.065.039.14.056.215.049zM241.494 136.207a.34.34 0 0 0 .295-.178 18.069 18.069 0 0 1 5.2-5.518.33.33 0 0 0 .102-.091.324.324 0 0 0 .062-.259.325.325 0 0 0-.146-.223.346.346 0 0 0-.386.009 18.397 18.397 0 0 0-5.421 5.782.345.345 0 0 0 .129.46.42.42 0 0 0 .165.018zM242.187 141.125c.066 0 .13-.019.184-.055a8.493 8.493 0 0 1 4.342-1.38.324.324 0 0 0 .237-.106.313.313 0 0 0 .069-.113.319.319 0 0 0 .019-.13.326.326 0 0 0-.103-.239.326.326 0 0 0-.246-.086 9.11 9.11 0 0 0-4.686 1.49.329.329 0 0 0-.098.466.342.342 0 0 0 .282.153z" fill="#FF7664"/><path d="M244.5 143.332a2.084 2.084 0 0 0-.473 1.288c-.263-.067-.263-.264-.411-.49a1.325 1.325 0 0 1-.079-1.429c.145-.2.339-.358.564-.46.188-.1.401-.144.613-.129.161.027.316.079.46.153.135.058.266.124.393.197-.092.159-.399.227-.558.343-.204.14-.377.319-.509.527z" fill="#FD9783"/><path d="M244.027 144.957a.34.34 0 0 0 .239-.098.34.34 0 0 0 .098-.239s0-1.662 1.448-1.662a.337.337 0 1 0 0-.674 2.178 2.178 0 0 0-1.559.716 2.198 2.198 0 0 0-.563 1.62.336.336 0 0 0 .337.337z" fill="#FF7664"/><path d="M256.992 176.316h.067a.343.343 0 0 0 .27-.399l-3.728-19.806a3.35 3.35 0 0 0-3.643-2.704l-11.389 1.171a2.847 2.847 0 0 0-2.545 2.919l.534 15.943a.322.322 0 0 0 .105.237.337.337 0 0 0 .244.088.342.342 0 0 0 .31-.218.33.33 0 0 0 .021-.132l-.539-15.942a2.167 2.167 0 0 1 1.938-2.22l11.358-1.165a2.664 2.664 0 0 1 2.913 2.158l3.759 19.794a.34.34 0 0 0 .114.194c.059.05.134.079.211.082z" fill="#EA96B8"/><path d="M245.426 120.724a2.862 2.862 0 0 1 3.422-2.808 2.865 2.865 0 0 1 2.25 2.25 2.856 2.856 0 0 1-.163 1.654 2.863 2.863 0 0 1-5.509-1.096zm.901 0a1.958 1.958 0 0 0 1.212 1.813 1.962 1.962 0 1 0-1.212-1.813z" fill="#313D91"/><path d="m322.496 199.328 8.224 14.57-5.409 3.642-10.542-12.368 7.727-5.844z" fill="#FD9783"/><path d="M311.714 206.018a4.22 4.22 0 0 0 2.337-1.49l5.151 1.27c.994.392-1.226 1.159-1.606 2.097a1.913 1.913 0 0 1-2.49.999l-5.747-2.25a13.605 13.605 0 0 1 2.355-.626z" fill="#FD9783"/><path d="M313.346 223.457c-1.589.037-1.441-.699-2.539-1.367-.846-.521-3.067-.718-3.447-1.527a21.72 21.72 0 0 1-1.95-6.622c-.276-2.128 0-4.74 2.404-6.5a11.142 11.142 0 0 1 7.973-1.784c4.967.699 6.746.993 9.812 3.715 3.839 3.41 4.078 7.42-2.41 10.425-3.355 1.582-6.384 3.581-9.843 3.66z" fill="#FD9783"/><path d="m309.022 210.728-10.941 8.829a1.671 1.671 0 0 1-1.265.438 1.684 1.684 0 0 1-1.316-2.555c.119-.197.278-.367.465-.501l10.941-8.83a1.688 1.688 0 0 1 2.581 2.118 1.684 1.684 0 0 1-.465.501zM309.58 216.387l-11.401 7.518a1.69 1.69 0 0 1-1.885.162 1.69 1.69 0 0 1-.804-1.026 1.69 1.69 0 0 1 .61-1.791l11.039-8.665a1.714 1.714 0 0 1 2.404.258c.595.724.785 2.962.037 3.544z" fill="#FD9783"/><path d="m313.235 219.085-12.069 6.745a1.687 1.687 0 0 1-1.879-.088 1.7 1.7 0 0 1-.669-1.11 1.682 1.682 0 0 1 .312-1.257 1.7 1.7 0 0 1 .488-.445l11.965-7.254a1.711 1.711 0 0 1 2.349.552c.485.766.313 2.373-.497 2.857z" fill="#FD9783"/><path d="m318.755 221.888-12.934 5.113a1.703 1.703 0 0 1-2.214-.95 1.72 1.72 0 0 1 .963-2.22l12.265-6.696c.877-.343 2.564 1.668 2.907 2.539a1.717 1.717 0 0 1-.987 2.214zM305.986 218.871s.988-1.159-.343-.834l.613-1.03.693.68v1.018l-.963.166z" fill="#FD9783"/><path d="M296.1 221.759a.382.382 0 0 0 .35-.074l9.812-8.118a.374.374 0 0 0 .05-.522.391.391 0 0 0-.254-.129.392.392 0 0 0-.274.08l-9.812 8.119a.372.372 0 0 0-.049.521c.046.057.108.1.177.123zM298.866 223.66a.382.382 0 0 0 .313-.037l7.004-4.44a.374.374 0 0 0 .116-.515.382.382 0 0 0-.515-.116l-7.004 4.439a.378.378 0 0 0-.167.233.36.36 0 0 0 .051.282.354.354 0 0 0 .202.154zM304.208 224.371c.079.03.166.03.245 0l5.894-2.342a.39.39 0 0 0 .121-.079.38.38 0 0 0 .111-.261.385.385 0 0 0-.106-.263.375.375 0 0 0-.402-.084l-5.894 2.336a.377.377 0 0 0-.208.484.368.368 0 0 0 .239.209z" fill="#FF7664"/><path d="M321.312 201.8a2.671 2.671 0 0 1-.546-1.874 2.672 2.672 0 0 1 .877-1.744c5.986-5.359 12.799-11.454 20.655-16.654 3.925-2.6 11.604-3.403 14.719 2.054 2.962 5.187 4.293 13.373-2.772 17.929-4.471 2.895-17.239 10.149-21.655 12.779a1.47 1.47 0 0 1-1.019.178 1.47 1.47 0 0 1-.882-.54l-9.377-12.128z" fill="#F9B7D0"/><path d="m323.514 197.011-.111-.105a.68.68 0 0 1-.079-.741.661.661 0 0 1 .165-.203l12.591-10.553a.655.655 0 0 1 .478-.147.724.724 0 0 1 .478.251.634.634 0 0 1 .141.482.66.66 0 0 1-.245.438l-12.615 10.578a.664.664 0 0 1-.423.159.674.674 0 0 1-.38-.159zM259.249 215.406a.346.346 0 0 0 .337-.3c1.067-8.284 2.882-31.052 2.944-40.661a.338.338 0 0 0-.675 0c-.061 9.584-1.877 32.303-2.938 40.575a.34.34 0 0 0 .164.337.35.35 0 0 0 .125.043l.043.006z" fill="#EA96B8"/></g><defs><clipPath id="a"><path fill="#fff" transform="translate(14 13)" d="M0 0h424v217H0z"/></clipPath></defs></svg>