<svg width="689" height="330" fill="none" xmlns="http://www.w3.org/2000/svg"><g clip-path="url(#a)"><path d="M15.537 229.361c.73 1.647 1.553 3.27 2.329 4.832.264.518.535 1.007.814 1.468 9.608 16.935 24.06 30.669 33.9 47.488a73.879 73.879 0 0 1 6.535 14.581c2.934 9.105 3.958 18.753 1.94 27.547-.1.45-.21.885-.326 1.328-.116.443-.271.987-.427 1.476-.046.163-.1.326-.155.482 12.751.116 27.738.225 44.633.326 62.864.373 152.068.598 251.051.598 40.706 0 79.759-.039 116.01-.109 77.912-.155 142.863-.458 183.352-.846.365-.622.73-1.243 1.079-1.88 12.053-21.278 15.801-47.333 9.181-70.918-3.663-13.05-10.267-26.412-6.853-39.494 2.329-8.988 9.026-16.049 14.125-23.857.994-1.553 1.933-3.107 2.763-4.661a35.431 35.431 0 0 0 2.142-4.979c5.433-16.314-4.268-34.515-18.168-44.629-13.9-10.115-31.145-14.131-47.699-18.722a539.767 539.767 0 0 1-148.179-66.513c-18.51-11.948-36.477-25.123-56.803-33.598-20.325-8.475-43.895-11.847-64.307-3.558a78.671 78.671 0 0 0-14.249 7.768l-.093.063c-12.852 8.67-24.175 20.197-37.4 27.904a64.535 64.535 0 0 1-13.364 6.028c-28.196 8.817-57.928-6.331-82.53-22.7l-.279-.186c-11.339-7.55-22.934-15.622-35.033-22.062C145.463 5.05 130.725-.24 114.908.047A66.454 66.454 0 0 0 77.78 12.538a64.446 64.446 0 0 0-14.389 14.115 62.934 62.934 0 0 0-4.998 7.947 67.347 67.347 0 0 0-7.598 26.84 65.685 65.685 0 0 0 1.374 18.644c.272 1.235.59 2.463.939 3.674a80.761 80.761 0 0 0 1.777 5.438c.171.498.357.987.544 1.476.408 1.124.84 2.245 1.296 3.364 6.612 16.616 15.778 33.334 8.599 48.941-3.36 7.333-9.46 12.219-16.407 16.414-1.971 1.197-4.012 2.331-6.084 3.457-9.267 5.042-19.03 9.773-25.41 17.828-10.64 13.44-8.971 32.713-1.886 48.685z" fill="#FFF8FB"/><path d="M0 328.136c0 .318 13.558.606 37.594.87l11.222.109c12.752.116 27.746.225 44.633.326 62.864.373 152.068.598 251.051.598 128.195 0 240.038-.388 299.362-.963l5.837-.055 4.555-.046c22.259-.257 34.746-.536 34.746-.839 0-.303-11.936-.567-33.263-.816l-4.921-.054-5.867-.063c-59.037-.621-171.47-1.009-300.449-1.009-99.813 0-189.716.233-252.634.606-15.995.101-30.267.202-42.468.318l-12.844.124c-23.384.257-36.554.544-36.554.894z" fill="#FFCCE0"/><path d="M181.218 50.184h138.82v277.773h-138.82V50.184z" fill="#F9C7EF"/><path d="M193.255 61.424h114.753v266.533H193.255V61.424z" fill="#fff"/><path d="M72.992 61.424h111.33v266.16H72.992V61.424z" fill="#CE80BF"/><path d="M81.924 61.424h111.331v266.16H81.925V61.424z" fill="#EDB2DC"/><path d="M86.884 194.691c0 4.498 2.995 8.156 6.72 8.281h.218a5.921 5.921 0 0 0 2.468-.536c2.607-1.189 4.455-4.211 4.455-7.769s-1.848-6.548-4.455-7.768a5.942 5.942 0 0 0-2.468-.544h-.202c-3.74.187-6.736 3.846-6.736 8.336z" fill="#B266A8"/><path d="M91.82 194.691c0 3.534 1.847 6.548 4.454 7.768 2.608-1.188 4.455-4.21 4.455-7.768s-1.847-6.549-4.455-7.769c-2.607 1.22-4.454 4.242-4.454 7.769z" fill="#CE80BF"/><path d="M322.351 306.827a43.605 43.605 0 0 1 1.078 19.118 55.568 55.568 0 0 1-31.098-.42c-.543-1.957.435-4.342 1.948-5.694a13.283 13.283 0 0 1 5.433-2.563 31.757 31.757 0 0 0 5.79-1.818 12.087 12.087 0 0 0 6.627-11.093c3.524.474 6.721 2.027 10.222 2.47zM418.004 291.881a43.596 43.596 0 0 1 16.018 10.471 55.685 55.685 0 0 1-18.773 24.82c-1.894-.73-3.237-2.928-3.423-4.948a13.332 13.332 0 0 1 1.172-5.92 31.819 31.819 0 0 0 1.971-5.748 12.108 12.108 0 0 0-4.998-11.94c2.461-2.509 5.573-4.195 8.033-6.735z" fill="#311649"/><path d="M301.629 300.418a10.946 10.946 0 0 0 9.142 10.542l9.127 1.554a10.95 10.95 0 0 0 8.216-1.928 10.98 10.98 0 0 0 4.411-7.2 10.99 10.99 0 0 0 .109-2.152c-2.825-64.314 15.009-91.605 22.568-97.602-.147 17.184 3.796 34.569 8.165 51.038 5.433 20.579 17.563 39.192 34.063 51.52 2.227 1.67 4.656 3.263 7.318 3.69 3.26.513 6.597-.777 9.313-2.75 2.717-1.973 4.882-4.661 7.032-7.31 2.732-3.356 5.642-7.442 4.711-11.761-.97-4.498-5.549-6.79-9.376-8.988-14.497-8.367-24.509-23.779-29.778-40.272-5.27-16.492-6.248-34.25-6.209-51.698-1.7-.357-3.376-.676-5.029-.971a139.586 139.586 0 0 0-17.113-2.043l-23.236 4.203c-32.029 27.834-33.977 89.911-33.434 112.128z" fill="#462261"/><path d="M421.077 299.789c2.732-3.356 5.642-7.442 4.711-11.762-.97-4.497-5.549-6.789-9.375-8.988-14.482-8.335-24.494-23.747-29.763-40.24-5.27-16.492-6.248-34.25-6.209-51.698-1.7-.357-3.376-.676-5.029-.971l-7.583 5.158s-10.384 71.842 53.248 108.501z" fill="#311649"/><path d="M359.587 124.069c4.073.133 8.106.836 11.983 2.089l.551.179c0-.334.062-.668.101-1.002a.124.124 0 0 1 0-.047c.109-1.095.218-2.198.334-3.294.378-3.744.761-7.488 1.149-11.233l.372-3.62a14.32 14.32 0 0 1-11.37 4.094c-.776 3.108-1.552 6.215-2.274 9.276-.279 1.204-.566 2.377-.846 3.558z" fill="#F7929E"/><path d="M335.055 188.251a103.216 103.216 0 0 0 25.836 3.224c2.333 0 4.643-.075 6.93-.226l1.335-.093a93.546 93.546 0 0 0 4.245-.419 98.044 98.044 0 0 0 7.389-1.142 60.641 60.641 0 0 1 7.28-35.983c1.785-3.178 3.88-6.308 4.431-9.913.737-5.088-1.956-10.184-5.751-13.649-3.663-3.34-8.265-5.438-12.813-7.45l-.473-.202a23.941 23.941 0 0 0-4.548-1.483 23.522 23.522 0 0 0-14.816 1.445c-.785.361-1.547.771-2.282 1.227a26.541 26.541 0 0 0-9.39 10.876 58.849 58.849 0 0 0-4.447 13.835 137.257 137.257 0 0 0-2.368 14.923 141.185 141.185 0 0 0-.481 5.702c-.046.684-.085 1.375-.124 2.059a157.906 157.906 0 0 0 .047 17.269z" fill="#703CD5"/><path d="M355.296 127.386a8.708 8.708 0 0 0 8.001 3.503 12.605 12.605 0 0 0 7.893-4.257l.38-.443c.225-.264.443-.544.652-.823a20.5 20.5 0 0 0 1.692-2.735l-.473-.202a17.755 17.755 0 0 0-.901-.372 23.932 23.932 0 0 0-3.647-1.111 24.466 24.466 0 0 0-8.475-.373c-2.192.287-4.329.9-6.341 1.818a7.471 7.471 0 0 0 1.219 4.995z" fill="#F7929E"/><path d="M365.695 93.57a9.084 9.084 0 0 0-2.196 8.506 6.946 6.946 0 0 0 3.671-3.457 4.315 4.315 0 0 0 .457-2.594 3.76 3.76 0 0 0-1.932-2.455z" fill="#311649"/><path d="M358.687 109.79v.218c.256 4.288 4.75 7.543 9.041 7.255 4.292-.287 8.01-3.464 9.864-7.348 1.855-3.885 2.08-8.351 1.669-12.64a51.417 51.417 0 0 0-2.957-1.957c-3.019-1.849-6.542-3.574-9.608-4.172.598 3.457-1.552 6.735-3.733 9.509-2.181 2.773-4.385 5.717-4.276 9.135z" fill="#F7929E"/><path d="M378.237 106.559a1.715 1.715 0 0 1 2.212-.972 2.245 2.245 0 0 1 1.288 2.191 3.244 3.244 0 0 1-.409 1.281c-.225.393-.53.735-.895 1.003a4.22 4.22 0 0 1-4.113.559 28.734 28.734 0 0 0 1.917-4.062z" fill="#F17785"/><path d="M358.687 109.79v.218c.256 4.288 4.75 7.543 9.041 7.255 4.292-.287 8.01-3.464 9.864-7.348 1.855-3.885 2.08-8.351 1.669-12.64a51.417 51.417 0 0 0-2.957-1.957 5.506 5.506 0 0 0-.077 1.017 35.308 35.308 0 0 1-.404 7.241 12.718 12.718 0 0 1-3.104 6.471 9.56 9.56 0 0 1-7.096 2.97 9.561 9.561 0 0 1-6.983-3.227h.047z" fill="#F17785"/><path d="M378.726 107.514a7.464 7.464 0 0 1-.334-9.524c-4.044.055-8.46-.085-11.828-2.33a10.46 10.46 0 0 1-3.935-11.855c.714-1.989 2.197-3.83 4.238-4.373 2.041-.544 4.548.621 4.951 2.695.451 2.33-1.707 4.793-.776 6.992a3.666 3.666 0 0 0 2.53 1.91c1.079.208 2.182.26 3.275.156a9.305 9.305 0 0 1 3.252.287 3.38 3.38 0 0 1 2.29 2.176 2.107 2.107 0 0 1-1.397 2.579c.505 2.096.681 4.258.52 6.409-.202 2.035-.963 3.993-2.786 4.878z" fill="#462261"/><path d="M335.133 168.946a84.031 84.031 0 0 1 13.364 2.781c5.161 1.647 10.136 4.242 13.845 8.196a20.484 20.484 0 0 1 5.441 11.326l1.335-.093c.357 0 .714-.054 1.063-.093a60.35 60.35 0 0 0 2.103-.202h.078c.336-.031.67-.07 1.001-.117a96.933 96.933 0 0 0 7.388-1.142 60.644 60.644 0 0 1 7.28-35.983c1.785-3.177 3.881-6.308 4.432-9.912.737-5.088-1.956-10.184-5.751-13.649-3.663-3.34-8.266-5.438-12.814-7.45l-.473-.202a23.992 23.992 0 0 0-4.548-1.484c-.211.636-.47 1.254-.776 1.849a33.57 33.57 0 0 1 10.4 8.382c2.77 3.519 4.501 8.017 4.028 12.469-.474 4.451-3.058 8.444-5.192 12.429a68.741 68.741 0 0 0-2.562 5.337 21.036 21.036 0 0 1-3.795-3.278 63.586 63.586 0 0 1-29.833 5.049 19.687 19.687 0 0 0-5.533.085 139.389 139.389 0 0 0-.481 5.702z" fill="#4625AC"/><path d="M368.101 122.763a43.68 43.68 0 0 1 4.129 2.556c.634-.866 1.2-1.78 1.692-2.734l-.474-.202a17.361 17.361 0 0 0-.9-.373c.378-3.744.761-7.489 1.149-11.233a6.912 6.912 0 0 0-4.028 2.828 15.137 15.137 0 0 1-.776 7.294c-.216.641-.48 1.264-.792 1.864z" fill="#F17785"/><path d="M335.055 188.251c3.353-9.998 18.626-10.721 18.626-10.721l-18.704-6.525a157.988 157.988 0 0 0 .078 17.246z" fill="#4625AC"/><path d="M332.525 303.355c.107-.712.143-1.433.108-2.152-2.825-64.315 15.01-91.605 22.569-97.602a13.611 13.611 0 0 1-11.02-4.778s-24.059 54.27-11.657 104.532z" fill="#311649"/><path d="m275.428 170.057 28.933 2.758 49.359 4.715.458-4.878 1.987-20.804 3.422-35.905-49.359-4.708-28.925-2.765-5.875 61.587z" fill="#E59E91"/><path d="m268.676 107.258 41.549 3.968-5.87 61.588-41.55-3.968 5.871-61.588z" fill="#C07D6D"/><path d="m292.72 114.855 11.048 1.055-1.054 11.059-11.048-1.055 1.054-11.059z" fill="#E59E91"/><path d="M287.744 143.334c-1.141.777-1.467 2.276-1.405 3.643a9.901 9.901 0 0 0 7.692 9.258 9.9 9.9 0 0 0 4.276.026l2.468-7.536c.139-1.142.287-2.284.427-3.426.077-.605.093-1.351-.419-1.685-.73-.474-1.607.404-1.91 1.212-.302.807-.628 1.833-1.49 1.981-1.8.062-3.267-1.313-4.656-2.424-1.39-1.111-3.462-2.028-4.983-1.049z" fill="#F7929E"/><path d="M305.564 160.215s18.3 12.957 48.614 12.429l1.964-20.796-50.578 8.367z" fill="#C07D6D"/><path d="M299.176 157.232a16.461 16.461 0 0 0 3.105 1.662c14.474 6.122 30.267 9.944 45.875 8.429a61.956 61.956 0 0 0 24.361-7.543 42.994 42.994 0 0 1-10.989-20.889c-15.763 10.231-35.639 14.192-54.04 10.161-2.134-.474-4.33-1.049-6.496-.707-2.165.342-4.322 1.872-4.594 4.047-.272 1.989 1.04 3.597 2.778 4.84z" fill="#F7929E"/><path d="M299.176 157.232a16.461 16.461 0 0 0 3.105 1.662c14.474 6.122 30.267 9.944 45.875 8.429a61.956 61.956 0 0 0 24.361-7.543 43.43 43.43 0 0 1-4.331-5.329 102.826 102.826 0 0 1-69.01 2.781z" fill="#F17785"/><path d="M362.109 105.696a9.569 9.569 0 0 0 3.462 1.927.413.413 0 0 1 .269.279.423.423 0 0 1-.075.381 2.542 2.542 0 0 1-1.863.956 2.96 2.96 0 0 1-2.491-1.259 2.234 2.234 0 0 1 0-2.128.409.409 0 0 1 .518-.272.407.407 0 0 1 .18.116z" fill="#F9DEE4"/><path d="m498.167 308.824 1.296.932 1.303 1.056c.777.645 1.553 1.228 2.22 1.748 1.343 1.041 2.406 1.826 3.167 2.331.76.505 1.203.707 1.327.582.124-.124-.086-.575-.582-1.328-.497-.754-1.273-1.826-2.29-3.177l-2.693-3.519c-.403-.552-17.175-23.655-26.736-46.976-4.447-10.821-7.334-21.697-6.318-30.382l9.127-39.261 2.437-10.433-13.426.637s-1.04 1.554-2.546 4.405c-8.63 16.313-32.836 74.848 33.714 123.385z" fill="#F17785"/><path d="M508.077 314.712a4.305 4.305 0 0 1 1.995 2.02 8.119 8.119 0 0 1 .341 6.517 6.981 6.981 0 0 1-3.88 3.931c-1.642.52-3.389.611-5.076.264a1.383 1.383 0 0 1-.279-2.626c1.397-.629 2.755-1.406 3.345-2.377 1.094-1.786.776-3.829.535-5.795-.24-1.965 1.219-2.765 3.019-1.934z" fill="url(#b)"/><path d="M498.167 308.823a161.745 161.745 0 0 1-9.376-9.236c-5.324-5.687-10.314-11.886-13.092-19.165-2.43-6.354-2.973-13.68-.528-19.964-4.447-10.822-7.334-21.697-6.318-30.383l9.135-39.245a27.113 27.113 0 0 0-3.011-1.834 38.564 38.564 0 0 0-10.524-3.558c-8.63 16.314-32.837 74.849 33.714 123.385z" fill="#EA687B"/><path d="M444.399 324.135a6.296 6.296 0 0 1-4.036 3.263c-1.723.435-3.539.101-5.293-.226a5.373 5.373 0 0 1-2.111-.714 1.837 1.837 0 0 1-.838-1.927c.279-.956 1.444-1.282 2.421-1.499a30.272 30.272 0 0 0 7.816-2.929c1.179-.645 2.103-1.639 2.561.101a5.95 5.95 0 0 1-.52 3.931z" fill="url(#c)"/><path d="M443.91 320.142c.194.062.574-.451 1.148-1.484.435-.777.978-1.849 1.63-3.185 26.675-49.989 38.2-81.637 42.445-101.61 6.348-29.947-3.687-33.684-3.687-33.684l-18.432.878c5.371 4.226-11.424 83.673-18.991 118.079h-.093l-.303 1.375c-1.327 5.998-2.398 10.876-3.104 14.248v.046c-.683 3.317-.939 5.228-.613 5.337z" fill="#F68895"/><path d="M445.066 318.643c.435-.777.978-1.849 1.63-3.185 26.674-49.99 38.199-81.638 42.445-101.611l-10.928 6.021-1.979 7.939-31.168 90.836z" fill="#F17785"/><path d="M475.054 108.462a6.692 6.692 0 0 0-1.389 7.263c.916 2.075 2.934 3.83 2.74 6.091-.125 1.421-1.126 2.594-1.863 3.822A12.307 12.307 0 0 0 475 138.23a15.439 15.439 0 0 0 10.958 6.697 20.944 20.944 0 0 0 12.752-2.657c2.801-1.554 5.556-4.164 5.3-7.357-.38-4.591-6.674-7.17-6.581-11.777 0-1.856 1.156-3.503 1.653-5.298 1.11-3.993-1.187-8.436-4.75-10.565a14.735 14.735 0 0 0-10.539-1.398c-2.864.622-6.535.42-8.739 2.587z" fill="url(#d)"/><path d="M479.16 142.41a8.455 8.455 0 0 0 5.34 1.258 7.802 7.802 0 0 0 4.501-2.144l.24-.225a35.565 35.565 0 0 1-.388-2.261c-.1-.753-.225-1.724-.287-2.587a38.978 38.978 0 0 1 .155-7.411c.17-1.508.429-3.005.777-4.482-.777.334-1.599.691-2.375 1.072a16.976 16.976 0 0 0-4.525 3.107 32.33 32.33 0 0 1-.256 2.75c0 .148-.039.295-.062.443a37.34 37.34 0 0 1-.52 2.921c-.062.287-.14.59-.21.878a34.749 34.749 0 0 1-1.451 4.544 59.424 59.424 0 0 1-.939 2.137z" fill="#F68895"/><path d="M468.551 171.611a68.063 68.063 0 0 0 1.754 8.211c0 .109.062.194.085.264.023.07.039.124.054.194 3.628.497 7.307.47 10.928-.077a34.175 34.175 0 0 0 5.502-1.305 42.05 42.05 0 0 1 5.549-16.733l.326-.552.357-.567a34.51 34.51 0 0 0 3.943-4.094c10.089-12.593-5.627-17.642-6-17.758a14.876 14.876 0 0 0-2.328-.187c-.539.002-1.078.036-1.614.101-1.987.218-3.818.777-5.914.956-.731.064-1.455.189-2.165.372-12.239 5.423-12.014 21.169-10.477 31.175z" fill="#FB446C"/><path d="M478.609 146.721a3.7 3.7 0 0 0 2.895.878 7.48 7.48 0 0 0 2.91-1.033 15.78 15.78 0 0 0 6.636-7.349 14.829 14.829 0 0 0-2.197-.179h-.163c-.539 0-1.078.031-1.614.093-1.987.218-3.818.777-5.914.956-.364 0-.714.078-1.071.14-.357.062-.729.139-1.094.233a7.993 7.993 0 0 0-1.149 2.152 3.995 3.995 0 0 0 .761 4.109zM479.121 128.706c.289.471.679.871 1.141 1.173a5.168 5.168 0 0 0 3.88.691 8.698 8.698 0 0 0 4.657-3.107c.07-.085.147-.171.217-.264.032-.223.079-.444.14-.66.155-.591.372-1.173.582-1.748.398-.94.583-1.956.543-2.975a5.494 5.494 0 0 0-2.328-3.589c-1.18-.886-2.538-1.492-3.78-2.277a9.128 9.128 0 0 1-1.986-1.631c.154.44.235.902.24 1.367a5.93 5.93 0 0 1-.039.777 7.982 7.982 0 0 1-.776 2.564c-.776 1.6-1.8 3.029-2.483 4.661-.683 1.631-.931 3.519-.008 5.018z" fill="#F68895"/><path d="M480.262 129.879a5.168 5.168 0 0 0 3.88.691 8.698 8.698 0 0 0 4.657-3.107c.07-.085.147-.171.217-.264.032-.223.079-.444.14-.66.155-.591.372-1.173.582-1.748.398-.94.583-1.956.543-2.975a5.494 5.494 0 0 0-2.328-3.589c-1.18-.886-2.538-1.492-3.78-2.277a9.128 9.128 0 0 1-1.986-1.631c.154.44.235.902.24 1.367a10.6 10.6 0 0 0 1.778 2.292c1.412 1.437 3.05 2.89 3.391 4.879.396 2.33-1.203 4.591-3.244 5.733a12.126 12.126 0 0 1-4.09 1.289z" fill="#F17785"/><path d="M468.551 171.611a68.252 68.252 0 0 0 1.753 8.211c0 .109.063.194.086.264.023.07.039.124.054.194 3.628.497 7.307.47 10.928-.077a34.175 34.175 0 0 0 5.502-1.305 42.05 42.05 0 0 1 5.549-16.733l.326-.552.357-.567a34.51 34.51 0 0 0 3.943-4.094c10.089-12.593-5.627-17.642-6-17.758a14.876 14.876 0 0 0-2.328-.187c-.539.002-1.078.036-1.614.101 1.327 2.245 3.655 3.744 5.2 5.857 2.739 3.745 2.646 8.957 1.063 13.323a25.862 25.862 0 0 1-1.389 3.146 10.288 10.288 0 0 1-2.771-1.188c-4.85 2.641-9.654 5.375-14.497 8.009l-6.162 3.356z" fill="#C5205C"/><path d="M486.998 138.991c.029.045.055.092.078.14a12.901 12.901 0 0 0 1.925 2.393l.473.466a15.512 15.512 0 0 0 1.552-2.773 14.805 14.805 0 0 0-2.196-.179 32.421 32.421 0 0 1-.287-2.587 38.708 38.708 0 0 1 .155-7.411c.169-1.508.428-3.005.776-4.482a52.84 52.84 0 0 0-2.375 1.072 6.052 6.052 0 0 1-.163 1.717c-.962 3.837-1.893 8.133.062 11.644z" fill="#F17785"/><path d="M452.315 221.274c8.793 6.471 17.346 7.38 23.927 6.525a32.235 32.235 0 0 0 12.278-4.109c13.783-35.735-1.638-44.769-1.638-44.769-9.903.077-15.305-.73-16.717-.987l-.373-.062c-15.809 11.987-17.477 43.402-17.477 43.402z" fill="#462261"/><path d="M476.242 227.799a32.235 32.235 0 0 0 12.278-4.109c13.783-35.734-1.638-44.769-1.638-44.769-9.903.078-15.305-.73-16.717-.987l-.427.389c6.574 7.302 9.624 17.3 9.857 27.127a73.759 73.759 0 0 1-3.353 22.349z" fill="#371A4F"/><path d="m418.803 181.585 18.658 1.531 31.835 2.61.256-3.146.256-3.1.613-7.496.233-2.828 1.894-23.158-31.835-2.61h-.008l-18.658-1.522-3.244 39.719z" fill="#E59E91"/><path d="m413.907 141.193 26.802 2.196-3.248 39.719-26.802-2.196 3.248-39.719z" fill="#C07D6D"/><path d="m429.462 145.886 7.124.584-.583 7.131-7.124-.584.583-7.131z" fill="#E59E91"/><path d="M451.818 180.537s9.988 1.056 17.982-1.033l.621-7.497-18.603 8.53z" fill="#C07D6D"/><path d="M441.846 178.47a2.567 2.567 0 0 0 .876 2.331 6.308 6.308 0 0 0 4.965 1.877 6.313 6.313 0 0 0 4.636-2.584l-2.034-4.607-1.257-1.802c-.217-.318-.528-.676-.908-.621-.551.093-.59.877-.388 1.39.202.513.473 1.134.132 1.554-.823.777-2.103.777-3.244.847-1.141.07-2.484.505-2.778 1.615z" fill="#F68895"/><path d="M446.223 180.148c.085.373 1.001.513 2.638.521h1.359c.496 0 1.024-.086 1.598-.132 1.141-.124 2.461-.241 3.881-.505l2.258-.396c.388-.07.776-.156 1.18-.257l1.234-.287 1.273-.303c.225-.054.442-.101.659-.163l.652-.187 2.724-.776c.474-.133.932-.311 1.397-.474l1.444-.536 1.451-.529 1.459-.613 1.483-.637.776-.327.776-.357a69.05 69.05 0 0 0 2.995-1.554 106.202 106.202 0 0 0 2.895-1.685c.241-.14.481-.28.707-.428l.683-.45 1.342-.909 1.312-.909 1.164-.924 1.195-.964c.388-.318.776-.621 1.141-.963a89.434 89.434 0 0 0 2.095-1.965l.497-.49c.163-.163.311-.334.473-.505l.831-.932a20.793 20.793 0 0 1-2.522-1.662 22.104 22.104 0 0 1-5.736-6.611c-.24.194-.489.404-.729.613-.241.21-.295.265-.45.389l-.474.381a66.87 66.87 0 0 0-1.909 1.631c-.318.287-.667.559-1.001.839l-.986.839-1.024.893-1.079.894-1.087.908-.543.474-.566.451a53.32 53.32 0 0 0-2.29 1.88c-.737.645-1.552 1.219-2.328 1.825l-.574.459-.59.427-1.157.862-1.14.863-1.149.776-1.118.777c-.38.264-.737.536-1.109.777l-2.181 1.429c-.179.117-.357.234-.528.358l-.528.318-1.04.637c-.683.412-1.335.839-1.979 1.212l-1.87 1.064c-1.188.715-2.328 1.267-3.275 1.803-.481.272-.932.528-1.351.777l-1.156.629c-1.436.777-2.158 1.336-2.103 1.724z" fill="#F68895"/><path d="m459.152 179.356 1.234-.287 1.273-.303c.225-.055.443-.101.66-.164l.652-.186 2.724-.777c.473-.132.931-.311 1.397-.474l1.428-.512 1.451-.529 1.459-.613 1.483-.637.776-.327.776-.357a69.05 69.05 0 0 0 2.995-1.554 106.202 106.202 0 0 0 2.895-1.685c.241-.14.481-.28.707-.428l.683-.45 1.342-.909 1.312-.909 1.164-.924 1.195-.964c.388-.318.776-.621 1.141-.963a89.434 89.434 0 0 0 2.095-1.965l.497-.49c.163-.163.311-.334.473-.505l.831-.932a20.793 20.793 0 0 1-2.522-1.662 87.563 87.563 0 0 1-30.121 19.506z" fill="#F17785"/><path d="M480.014 125.117c-.078 0-.148.21-.047.528a1.487 1.487 0 0 0 .869.935 1.489 1.489 0 0 0 1.273-.088c.287-.171.38-.365.326-.419-.054-.055-.225 0-.473 0a1.7 1.7 0 0 1-.908-.07 1.839 1.839 0 0 1-.722-.567c-.155-.171-.233-.327-.318-.319z" fill="#D65165"/><path d="M547.464 296.526v1.492c0 .986 0 1.942.093 2.882.116 1.88.24 5.958.465 7.62.101.832.195 1.624.319 2.393.124.769.256 1.499.388 2.198.24 1.399.559 2.65.853 3.753.148.543.288 1.048.443 1.553.155.505.318.886.473 1.267.629 1.553 1.219 2.33 1.824 2.33s1.164-.878 1.731-2.385c.139-.373.279-.777.419-1.243.14-.466.303-.948.458-1.468 0-.109.054-.21.085-.311.287-.979.551-2.066.885-3.247.667-2.587 1.467-7.97 2.328-11.381.21-.839.466-1.701.691-2.579.116-.435.225-.877.341-1.328l.373-1.344c.124-.458.24-.917.365-1.375.124-.458.24-.924.372-1.383.264-.932.52-1.872.776-2.827.256-.956.52-1.896.776-2.82.109-.466.241-.925.365-1.375.124-.451.233-.909.357-1.352.124-.443.217-.901.326-1.336.109-.435.225-.878.334-1.305.225-.863.403-1.717.597-2.541.404-1.654.699-3.247.986-4.746.14-.777.241-1.484.349-2.191.109-.707.194-1.39.256-2.051.121-1.22.173-2.447.156-3.674 0-.559-.063-1.088-.117-1.592-.05-.473-.127-.943-.233-1.407-.038-.163-.085-.326-.124-.481a4.312 4.312 0 0 0-2.251-2.983c-1.164-.482-2.584-.163-4.105.901-.411.284-.803.595-1.172.932-.406.386-.792.793-1.156 1.22a21.888 21.888 0 0 0-2.329 3.208c-.372.622-.776 1.274-1.102 1.965-.326.692-.69 1.438-1.024 2.207a45.682 45.682 0 0 0-1.847 5.018c-.28.893-.512 1.826-.776 2.781l-.35 1.453-.302 1.491c-.093.497-.194 1.01-.287 1.515a32.713 32.713 0 0 0-.249 1.554 133.483 133.483 0 0 0-.411 3.185c-.124 1.072-.186 2.152-.256 3.208a36.987 36.987 0 0 0-.078 1.554c-.015.505 0 1.041-.046 1.554-.047.512.046.986.031 1.491z" fill="#F89BA6"/><path d="M553.098 316.569h1.941c.287-.979.551-2.067.884-3.248.668-2.586 1.467-7.97 2.329-11.38.209-.839.465-1.701.69-2.579.117-.435.225-.878.342-1.329l.372-1.344c.124-.458.241-.916.365-1.375.124-.458.241-.924.373-1.382.263-.933.52-1.873.776-2.828.256-.956.52-1.896.776-2.82.108-.466.24-.924.365-1.375.124-.451.232-.909.357-1.352.124-.442.217-.901.325-1.336.109-.435.226-.878.334-1.305.225-.862.404-1.717.598-2.54.403-1.655.698-3.247.985-4.747.14-.776.241-1.483.35-2.19.108-.707.194-1.391.256-2.051.121-1.221.172-2.448.155-3.675 0-.559-.062-1.087-.116-1.592-.05-.473-.128-.943-.233-1.406-.039-.163-.086-.326-.124-.482-3.865 7.59-9.671 25.317-12.1 52.336z" fill="#F17785"/><path d="M579.742 274.596c.11 1.9.369 3.789.776 5.648a41.145 41.145 0 0 0 1.8 6.012 46.885 46.885 0 0 0 2.848 6.099 51.136 51.136 0 0 0 3.671 5.608 48.526 48.526 0 0 0 8.165 8.468 96.277 96.277 0 0 0 2.002 1.554c.66.497 1.281.916 1.917 1.297.636.381 1.211.777 1.793 1.08.582.303 1.125.621 1.661.862.535.241 1.016.482 1.49.668.473.186.9.334 1.296.458l.209.063c.569.178 1.159.28 1.754.302a1.176 1.176 0 0 0 1.017-.357 1.256 1.256 0 0 0 .039-1.087 8.956 8.956 0 0 0-.815-1.733 20.042 20.042 0 0 0-.675-1.111c-.256-.396-.505-.831-.776-1.274-.272-.442-.59-.932-.908-1.429-.319-.497-.652-1.033-1.002-1.554-.349-.52-.682-1.142-1.055-1.74-.373-.598-.714-1.243-1.094-1.888-.722-1.312-1.483-2.703-2.204-4.194-.722-1.492-1.452-3.03-2.135-4.661a123.235 123.235 0 0 1-1.979-5.042c-.636-1.732-1.172-3.434-1.692-5.073-.52-1.639-.977-3.224-1.428-4.731-.45-1.507-.853-2.96-1.272-4.319-.194-.684-.404-1.336-.606-1.981-.201-.645-.411-1.251-.597-1.841-.187-.59-.427-1.158-.621-1.694s-.435-1.056-.644-1.553a15.01 15.01 0 0 0-.676-1.367c-.215-.41-.453-.807-.714-1.189a7.235 7.235 0 0 0-1.552-1.74 3.463 3.463 0 0 0-1.808-.723 3.053 3.053 0 0 0-1.777.428l-.109.054a5.929 5.929 0 0 0-1.754 1.748c-.289.427-.548.873-.776 1.336-.253.527-.473 1.07-.66 1.624a15.63 15.63 0 0 0-.527 1.903 21.055 21.055 0 0 0-.373 2.16c-.101.776-.14 1.553-.178 2.384-.039.832-.07 1.632-.031 2.525z" fill="#F89BA6"/><path d="M584.088 260.799c.422 1.287.644 2.631.659 3.986 1.304 17.929 9.694 35.159 22.623 47.596a6.666 6.666 0 0 0 1.754.303 1.176 1.176 0 0 0 1.017-.357 1.256 1.256 0 0 0 .039-1.088 8.92 8.92 0 0 0-.815-1.732 19.33 19.33 0 0 0-.675-1.111c-.256-.396-.505-.831-.776-1.274-.272-.443-.59-.932-.908-1.429-.319-.497-.652-1.033-1.002-1.554-.349-.52-.682-1.142-1.055-1.74-.373-.598-.714-1.243-1.094-1.888-.722-1.313-1.483-2.703-2.204-4.195-.722-1.491-1.452-3.029-2.135-4.661a122.62 122.62 0 0 1-1.979-5.041c-.636-1.733-1.172-3.434-1.692-5.073-.52-1.639-.977-3.224-1.428-4.731-.45-1.507-.853-2.96-1.272-4.319-.194-.684-.404-1.336-.606-1.981-.202-.645-.411-1.251-.597-1.841-.187-.591-.427-1.158-.621-1.694s-.435-1.056-.644-1.553c-.21-.498-.443-.94-.676-1.368a12.017 12.017 0 0 0-.714-1.188 7.235 7.235 0 0 0-1.552-1.74 3.463 3.463 0 0 0-1.808-.723 3.053 3.053 0 0 0-1.839.396z" fill="#F17785"/><path d="M550.7 272.033a60.177 60.177 0 0 0 9.733 3.884 62.115 62.115 0 0 0 6.534 1.6c2.825-11.536 7.125-17.393 9.515-19.297a88.37 88.37 0 0 0 2.631 20.4 64.046 64.046 0 0 0 16.065-2.09c-2.592-8.638-3.104-17.867-3.065-26.909a80.22 80.22 0 0 0-2.701-.521c-3.167-.575-10.128-.947-13.194-1.118l-12.495 2.26c-.722.63-1.412 1.29-2.08 1.981-5.052 5.306-8.56 12.36-10.943 19.81z" fill="#462261"/><path d="M561.713 252.223a10.933 10.933 0 0 0 6.209 2.921c2.965.458 6.007.217 8.964.738 2.957.52 6.007 2.051 7.148 4.832.444 1.312.677 2.686.69 4.071a70.286 70.286 0 0 0 2.29 13.314 63.705 63.705 0 0 0 8.172-1.553c-2.592-8.639-3.104-17.867-3.066-26.91a77.7 77.7 0 0 0-2.7-.52c-3.167-.575-10.128-.948-13.194-1.119l-12.495 2.261c-.66.613-1.35 1.274-2.018 1.965z" fill="#371A4F"/><path d="M561.612 251.345c1.18.373 2.39.715 3.609 1.01a66.541 66.541 0 0 0 22.39 1.616 70.245 70.245 0 0 0 5.603-.777l-.419-13.525c-.093-3.06-.17-6.214.939-9.065.668-1.694 1.739-3.224 2.236-4.98 1.009-3.55-.528-7.434-3.019-10.161a27.278 27.278 0 0 0-7.086-5.174c-.66-.365-1.327-.714-1.987-1.072a8.489 8.489 0 0 0-2.328-.823c-2.328-.489-4.742-.163-7.249-.249a30.543 30.543 0 0 0-3.725 4.289 43.16 43.16 0 0 0-6.838 15.878 80.503 80.503 0 0 0-1.598 10.946c-.334 4-.427 8.087-.528 12.087z" fill="#2795F8"/><path d="M573.052 211.696a16.898 16.898 0 0 0 7.675.971 16.68 16.68 0 0 0 3.966-.94l.202-13.797v-.474c-3.019 1.795-6.682 3.442-9.918 2.587a43.762 43.762 0 0 1-1.925 11.653z" fill="#F7929E"/><path d="M580.727 212.667a16.68 16.68 0 0 0 3.966-.94l.202-13.797a2.52 2.52 0 0 0-.621.443c-1.001.932-2.972 1.701-2.825 3.061a32.373 32.373 0 0 1-.722 11.233z" fill="#F17785"/><path d="M573.448 181.096a22.867 22.867 0 0 0 .582 9.858c.621-1.274 1.125-2.719 1.754-3.993.46-.855.817-1.763 1.063-2.703a4.106 4.106 0 0 0-.311-2.836 2.455 2.455 0 0 0-2.405-1.297c-.202.482-.583.412-.683.971z" fill="#371A4F"/><path d="M570.552 199.243c.101.996.405 1.961.893 2.835 1.925 3.434 6.837 4.444 10.353 2.665s5.565-5.733 5.852-9.664c.287-3.931-.963-7.823-2.693-11.357a2.33 2.33 0 0 0-1.467-1.142c-2.072-.692-5.487-.194-6.985-1.43l-3.88 9.322c-1.227 2.766-2.375 5.897-2.073 8.771z" fill="#F7929E"/><path d="M587.045 193.222a1.48 1.48 0 0 1 0-.326 1.551 1.551 0 0 1 2.918-.652 3.95 3.95 0 0 1 .566 1.553 2.914 2.914 0 0 1-1.187 2.75 2.17 2.17 0 0 1-2.833-.419 7.868 7.868 0 0 0 .536-2.906z" fill="#F17785"/><path d="M570.552 199.243c.101.996.405 1.961.893 2.835 1.925 3.434 6.837 4.444 10.353 2.665s5.565-5.733 5.852-9.664c.287-3.931-.963-7.823-2.693-11.357a2.33 2.33 0 0 0-1.467-1.142c-.344.33-.645.703-.893 1.111a25.385 25.385 0 0 1-.543 12.577c-.613 2.051-1.614 4.148-3.485 5.189-2.157 1.212-5.013.606-6.883-1.01a7.93 7.93 0 0 1-1.134-1.204z" fill="#F17785"/><path d="M587.417 193.176a9.014 9.014 0 0 1-4.346-8.545 16.48 16.48 0 0 1-7.225-1.554 9.631 9.631 0 0 1-5.115-5.282 6.782 6.782 0 0 1-.3-3.694 6.782 6.782 0 0 1 1.689-3.298c1.801-1.763 4.96-2.059 6.853-.412 1.747 1.515 2.119 4.125 3.656 5.858 1.117 1.258 2.739 1.918 4.237 2.672 1.498.754 3.042 1.74 3.679 3.302.729 1.786.085 3.829-.776 5.562-.862 1.732-2.134 3.464-2.352 5.391z" fill="#462261"/><path d="M570.599 212.387c.087.138.183.271.287.396a8.053 8.053 0 0 0 6.007 2.836 9.767 9.767 0 0 0 6.434-2.168l.318-.272a9.677 9.677 0 0 0 2.22-2.936c-.66-.365-1.327-.715-1.987-1.072a8.458 8.458 0 0 0-2.328-.824c-2.329-.489-4.742-.163-7.249-.248a30.552 30.552 0 0 0-3.702 4.288z" fill="#F7929E"/><path d="M583.971 214.205c1.483 1.592 3.306 2.827 4.843 4.358 1.537 1.53 2.833 3.503 2.825 5.679-.008 2.175-1.172 3.923-2.057 5.787a31.101 31.101 0 0 0-2.685 12.561 83.287 83.287 0 0 0 .714 11.381 70.245 70.245 0 0 0 5.603-.777l-.419-13.525c-.093-3.06-.17-6.214.939-9.065.668-1.694 1.739-3.224 2.236-4.98 1.009-3.55-.528-7.434-3.019-10.161a27.251 27.251 0 0 0-7.086-5.173c-.66-.366-1.327-.715-1.987-1.072a8.458 8.458 0 0 0-2.328-.824c-.218 2.136.939 4.226 2.421 5.811z" fill="#0386E9"/><path d="m583.327 213.459.318-.272a9.689 9.689 0 0 0 2.22-2.936c-.66-.365-1.327-.715-1.987-1.072a8.458 8.458 0 0 0-2.328-.824 7.14 7.14 0 0 0 1.777 5.104z" fill="#F17785"/><path d="M602.101 327.957a38.055 38.055 0 0 0 13.915-16.135 29.84 29.84 0 0 0-9.453-7.364 18.228 18.228 0 0 1-4.951 5.88 8.3 8.3 0 0 1 1.024 6.261 21.272 21.272 0 0 1-1.598 3.846 8.987 8.987 0 0 0-1.056 3.993 4.12 4.12 0 0 0 2.119 3.519z" fill="#FB446C"/><path d="M560.432 275.893a62.199 62.199 0 0 0 6.535 1.601c2.825-11.536 7.125-17.394 9.515-19.297-.186.078-4.556 1.965-7.59 0 0 .023-4.23 4.902-8.46 17.696z" fill="#371A4F"/><path d="M535.132 326.295a38.053 38.053 0 0 0 21.296.279c.667-3.981.52-8.056-.435-11.979a17.92 17.92 0 0 1-3.787.404 18.331 18.331 0 0 1-3.88-.419 8.3 8.3 0 0 1-4.137 4.816 22.304 22.304 0 0 1-3.966 1.243 8.915 8.915 0 0 0-3.733 1.756 4.142 4.142 0 0 0-1.358 3.9z" fill="#FB446C"/><path d="M561.612 251.345c1.18.373 2.39.715 3.609 1.01a32.415 32.415 0 0 0 13.84-7.519 32.463 32.463 0 0 0 8.667-13.16c-2.174-1.422-4.921-.777-7.412-.047-2.491.73-4.719 2.152-6.985 3.356a50.247 50.247 0 0 1-11.16 4.234c-.365 4.039-.458 8.126-.559 12.126z" fill="#0386E9"/><path d="m519.175 246.172 18.114 1.654 30.912 2.82.279-3.053.047-.559.893-9.812.248-2.664 2.041-22.482-10.718-.979-18.137-1.654-2.057-.187-18.114-1.647-3.508 38.563z" fill="#E59E91"/><path d="m514.789 206.898 26.024 2.371-3.506 38.566-26.024-2.371 3.506-38.566z" fill="#C07D6D"/><path d="m529.21 212.865 6.946.626-.625 6.953-6.946-.626.625-6.953z" fill="#E59E91"/><path d="M539.02 239.934a7.6 7.6 0 0 0 3.159 5.181c1.777 1.096 4.384.932 5.657-.714a40.906 40.906 0 0 0 20.691 2.633l.892-9.788a79.446 79.446 0 0 1-30.399 2.688z" fill="#C07D6D"/><path d="M538.617 238.023a2.33 2.33 0 0 0-.101 2.245 5.705 5.705 0 0 0 3.452 3.347 5.703 5.703 0 0 0 4.782-.489v-4.56l-.396-1.949c-.07-.35-.194-.777-.535-.847-.489-.117-.776.52-.823 1.017-.047.498 0 1.111-.45 1.352-.97.365-2.026-.109-3.004-.458-.977-.35-2.281-.513-2.925.342z" fill="#F7929E"/><path d="M544.98 241.324a2.725 2.725 0 0 0 1.754 1.888 8.496 8.496 0 0 0 2.647.575c9.018.676 18.323-.148 26.573-3.884a35.662 35.662 0 0 0 11.905-8.592 24.73 24.73 0 0 1-9.833-9.377 41.562 41.562 0 0 1-27.605 15.49c-1.264.032-2.51.296-3.679.777a3.035 3.035 0 0 0-1.762 3.123z" fill="#F7929E"/><path d="M546.734 243.212a8.496 8.496 0 0 0 2.647.575c9.018.676 18.323-.148 26.573-3.884a35.662 35.662 0 0 0 11.905-8.592 24.581 24.581 0 0 1-4.827-3.317c-4.486 5.041-16.981 16.593-36.282 15.063l-.016.155z" fill="#F17785"/><path d="M541.178 219.301c.243 1.622.839 3.17 1.746 4.537 1.009 1.289 2.817 2.097 4.315 1.445a3.884 3.884 0 0 0 2.01-3.698 13.231 13.231 0 0 0-1.125-4.296 8.427 8.427 0 0 1-.644-4.265 14.085 14.085 0 0 0 8.117 3.434 9.011 9.011 0 0 0 7.831-3.62 9.054 9.054 0 0 1-2.476-1.74l-18.137-1.655a16.725 16.725 0 0 0-.691 1.825c-.745 2.548-1.521 5.423-.946 8.033z" fill="#C07D6D"/><path d="M556.241 198.839a4.108 4.108 0 0 0-5.753-4.08 4.112 4.112 0 0 0-2.008 1.913c-.776 1.553-.551 3.34-.201 5.01a22.285 22.285 0 0 1 3.702-2.097c1.342-.521 2.84-1.041 4.26-.746z" fill="#A84350"/><path d="M554.309 199.181a5.548 5.548 0 0 0-.574-2.028 1.991 1.991 0 0 0-1.7-1.08 2.032 2.032 0 0 0-1.731 1.632 5.962 5.962 0 0 0 .125 2.532 5.425 5.425 0 0 1 3.88-1.056z" fill="#D35E71"/><path d="M564.794 208.161a4.106 4.106 0 0 0 4.128-3.073 4.112 4.112 0 0 0-2.11-4.695c-1.552-.777-3.345-.49-5.014-.109a21.055 21.055 0 0 1 2.166 3.666c.551 1.298 1.094 2.82.83 4.211z" fill="#A84350"/><path d="M564.383 206.235a5.571 5.571 0 0 0 2.01-.614 1.786 1.786 0 0 0-.613-3.418 5.91 5.91 0 0 0-2.523.163 5.441 5.441 0 0 1 1.126 3.869z" fill="#D35E71"/><path d="M546.727 203.896c-1.405 4.506 1.63 9.462 6.767 11.055 5.138 1.592 10.439-.777 11.843-5.275 1.405-4.498-1.637-9.462-6.775-11.054-5.138-1.593-10.438.761-11.835 5.274z" fill="#A84350"/><path d="M559.478 206.234a1.06 1.06 0 0 0 1.266 1.053 1.06 1.06 0 0 0 .839-.834 1.06 1.06 0 0 0-1.042-1.275 1.066 1.066 0 0 0-.751.307 1.064 1.064 0 0 0-.312.749zM554.309 205.341a1.055 1.055 0 1 1 0-2.11 1.055 1.055 0 0 1 0 2.11z" fill="#511B28"/><path d="M559.191 210.53a3.3 3.3 0 0 1-.621 3.286 3.88 3.88 0 0 1-2.476.902 6.254 6.254 0 0 1-3.88-.886 3.89 3.89 0 0 1-1.809-3.426 3.8 3.8 0 0 1 2.468-3.061c2.887-1.118 5.441.381 6.318 3.185z" fill="#D35E71"/><path d="M557.724 208.122a.904.904 0 0 1-.776.412 1.614 1.614 0 0 1-1.638-1.103c-.232-.777.645-1.111 1.25-.878.605.233 1.544.87 1.164 1.569z" fill="#511B28"/><path d="M546.121 214.842c.27 1.895.808 3.742 1.599 5.484.483.898.639 1.936.442 2.937a2.562 2.562 0 0 1-2.328 1.639 3.817 3.817 0 0 1-2.724-1.095 7.775 7.775 0 0 1-1.676-2.494 16.048 16.048 0 0 1-1.242-9.268 7.883 7.883 0 0 1 1.443-3.674 3.99 3.99 0 0 1 3.47-1.593c1.35.171 2.879 1.678 2.165 3.045a8.56 8.56 0 0 0-1.149 5.019z" fill="#A84350"/><path d="M573.005 195.102a9.514 9.514 0 0 0 3.694 1.437.42.42 0 0 1 .288.63 2.53 2.53 0 0 1-1.723 1.196 2.939 2.939 0 0 1-2.631-.901 2.202 2.202 0 0 1-.249-2.113.396.396 0 0 1 .087-.175.397.397 0 0 1 .534-.074z" fill="#F9DEE4"/></g><defs><linearGradient id="b" x1="510.741" y1="321.013" x2="499.338" y2="322.854" gradientUnits="userSpaceOnUse"><stop stop-color="#371A4F"/><stop offset=".15" stop-color="#3D1D57"/><stop offset=".45" stop-color="#44215F"/><stop offset="1" stop-color="#462261"/></linearGradient><linearGradient id="c" x1="-4356.72" y1="4539.69" x2="-4573.72" y2="4539.69" gradientUnits="userSpaceOnUse"><stop stop-color="#371A4F"/><stop offset=".15" stop-color="#3D1D57"/><stop offset=".45" stop-color="#44215F"/><stop offset="1" stop-color="#462261"/></linearGradient><linearGradient id="d" x1="-8769.27" y1="11414.8" x2="-10313.7" y2="8873.78" gradientUnits="userSpaceOnUse"><stop stop-color="#371A4F"/><stop offset=".15" stop-color="#3D1D57"/><stop offset=".45" stop-color="#44215F"/><stop offset="1" stop-color="#462261"/></linearGradient><clipPath id="a"><path fill="#fff" transform="matrix(-1 0 0 1 689 0)" d="M0 0h689v330H0z"/></clipPath></defs></svg>