<svg width="689" height="330" viewBox="0 0 689 330" fill="none" xmlns="http://www.w3.org/2000/svg">
<g clip-path="url(#clip0_2725_23349)">
<path d="M15.5374 229.361C16.2668 231.008 17.0895 232.631 17.8656 234.193C18.1295 234.711 18.4011 235.2 18.6805 235.661C28.2885 252.596 42.7394 266.33 52.5803 283.149C55.2789 287.758 57.47 292.647 59.115 297.73C62.0486 306.835 63.0731 316.483 61.0552 325.277C60.9543 325.727 60.8456 326.162 60.7292 326.605C60.6128 327.048 60.4576 327.592 60.3024 328.081C60.2558 328.244 60.2015 328.407 60.1472 328.563C72.8984 328.679 87.8847 328.788 104.78 328.889C167.644 329.262 256.848 329.487 355.831 329.487C396.537 329.487 435.59 329.448 471.841 329.378C549.753 329.223 614.704 328.92 655.193 328.532C655.558 327.91 655.923 327.289 656.272 326.652C668.325 305.374 672.073 279.319 665.453 255.734C661.79 242.684 655.186 229.322 658.6 216.24C660.929 207.252 667.626 200.191 672.725 192.383C673.719 190.83 674.658 189.276 675.488 187.722C676.328 186.12 677.044 184.455 677.63 182.743C683.063 166.429 673.362 148.228 659.462 138.114C645.562 127.999 628.317 123.983 611.763 119.392C559.303 104.824 509.345 82.4 463.584 52.8792C445.074 40.9314 427.107 27.7563 406.781 19.281C386.456 10.8057 362.886 7.43427 342.474 15.7231C337.47 17.814 332.695 20.4173 328.225 23.4915L328.132 23.5536C315.28 32.2231 303.957 43.7514 290.732 51.4576C286.52 53.9683 282.037 55.9908 277.368 57.4858C249.172 66.3029 219.44 51.1546 194.838 34.7867L194.559 34.6002C183.22 27.0494 171.625 18.9781 159.526 12.5381C145.463 5.04939 130.725 -0.240862 114.908 0.0465678C101.56 0.38463 88.6224 4.73735 77.78 12.5381C72.2738 16.4586 67.4182 21.2219 63.3912 26.6532C61.5298 29.1739 59.8591 31.8303 58.3932 34.6002C54.0155 42.9174 51.4272 52.0604 50.7952 61.4399C50.3618 67.6884 50.8245 73.9668 52.1689 80.084C52.4406 81.3192 52.7587 82.5466 53.108 83.7584C53.628 85.584 54.2333 87.4018 54.8853 89.1963C55.056 89.6935 55.2423 90.1829 55.4285 90.6723C55.8373 91.7961 56.2693 92.9173 56.7246 94.036C63.3369 110.652 72.5026 127.37 65.3237 142.977C61.9633 150.31 55.8632 155.196 48.9171 159.391C46.9459 160.588 44.9047 161.722 42.8325 162.848C33.566 167.89 23.8027 172.621 17.4232 180.676C6.78302 194.116 8.4516 213.389 15.5374 229.361Z" fill="#FFF8FB"/>
<path d="M0 328.136C0 328.454 13.5583 328.742 37.594 329.006L48.8163 329.115C61.5675 329.231 76.5616 329.34 93.4494 329.441C156.313 329.814 245.517 330.039 344.5 330.039C472.695 330.039 584.538 329.651 643.862 329.076L649.699 329.021L654.254 328.975C676.513 328.718 689 328.439 689 328.136C689 327.833 677.064 327.569 655.737 327.32L650.816 327.266L644.949 327.203C585.912 326.582 473.479 326.194 344.5 326.194C244.687 326.194 154.784 326.427 91.8661 326.8C75.8709 326.901 61.5986 327.002 49.3984 327.118L36.554 327.242C13.1703 327.499 0 327.786 0 328.136Z" fill="#FFCCE0"/>
<path d="M181.218 50.1836H320.038V327.957H181.218V50.1836Z" fill="#F9C7EF"/>
<path d="M193.255 61.4243H308.008V327.957H193.255V61.4243Z" fill="white"/>
<path d="M72.9917 61.4243H184.322V327.584H72.9917V61.4243Z" fill="#CE80BF"/>
<path d="M81.9243 61.4243H193.255V327.584H81.9243V61.4243Z" fill="#EDB2DC"/>
<path d="M86.8837 194.691C86.8837 199.189 89.8794 202.847 93.6046 202.972H93.8219C94.6735 202.973 95.5152 202.79 96.2899 202.436C98.8975 201.247 100.745 198.225 100.745 194.667C100.745 191.109 98.8975 188.119 96.2899 186.899C95.5157 186.543 94.674 186.357 93.8219 186.355H93.6201C89.8794 186.542 86.8837 190.201 86.8837 194.691Z" fill="#B266A8"/>
<path d="M91.8196 194.691C91.8196 198.225 93.6667 201.239 96.2744 202.459C98.8821 201.271 100.729 198.249 100.729 194.691C100.729 191.133 98.8821 188.142 96.2744 186.922C93.6667 188.142 91.8196 191.164 91.8196 194.691Z" fill="#CE80BF"/>
<path d="M322.351 306.827C324.122 313.041 324.491 319.571 323.429 325.945C313.234 328.768 302.447 328.622 292.331 325.525C291.788 323.568 292.766 321.183 294.279 319.831C295.871 318.573 297.729 317.696 299.712 317.268C301.695 316.848 303.634 316.24 305.502 315.45C307.542 314.418 309.248 312.828 310.421 310.865C311.594 308.901 312.187 306.644 312.129 304.357C315.653 304.831 318.85 306.384 322.351 306.827Z" fill="#311649"/>
<path d="M418.004 291.881C424.052 294.141 429.523 297.718 434.022 302.352C430.249 312.244 423.736 320.853 415.249 327.172C413.355 326.442 412.012 324.244 411.826 322.224C411.759 320.187 412.16 318.162 412.998 316.304C413.837 314.455 414.497 312.53 414.969 310.556C415.351 308.296 415.084 305.974 414.199 303.861C413.314 301.747 411.848 299.928 409.971 298.616C412.432 296.107 415.544 294.421 418.004 291.881Z" fill="#311649"/>
<path d="M301.629 300.418C301.688 302.966 302.634 305.413 304.303 307.337C305.972 309.262 308.26 310.543 310.771 310.96L319.898 312.514C321.327 312.752 322.788 312.704 324.199 312.373C325.609 312.042 326.939 311.435 328.114 310.586C329.288 309.737 330.282 308.664 331.04 307.428C331.797 306.192 332.302 304.818 332.525 303.386C332.632 302.674 332.668 301.953 332.634 301.234C329.809 236.92 347.643 209.629 355.202 203.632C355.055 220.816 358.998 238.201 363.367 254.67C368.8 275.249 380.93 293.862 397.43 306.19C399.657 307.86 402.086 309.453 404.748 309.88C408.008 310.393 411.345 309.103 414.061 307.13C416.778 305.157 418.943 302.469 421.093 299.82C423.825 296.464 426.735 292.378 425.804 288.059C424.834 283.561 420.255 281.269 416.428 279.071C401.931 270.704 391.919 255.292 386.65 238.799C381.38 222.307 380.402 204.549 380.441 187.101C378.741 186.744 377.065 186.425 375.412 186.13C369.755 185.097 364.04 184.415 358.299 184.087L335.063 188.29C303.034 216.124 301.086 278.201 301.629 300.418Z" fill="#462261"/>
<path d="M421.077 299.789C423.809 296.433 426.719 292.347 425.788 288.027C424.818 283.53 420.239 281.238 416.413 279.039C401.931 270.704 391.919 255.292 386.65 238.799C381.38 222.307 380.402 204.549 380.441 187.101C378.741 186.744 377.065 186.425 375.412 186.13L367.829 191.288C367.829 191.288 357.445 263.13 421.077 299.789Z" fill="#311649"/>
<path d="M359.587 124.069C363.66 124.202 367.693 124.905 371.57 126.158L372.121 126.337C372.121 126.003 372.183 125.669 372.222 125.335C372.219 125.32 372.219 125.304 372.222 125.288C372.331 124.193 372.44 123.09 372.556 121.994C372.934 118.25 373.317 114.506 373.705 110.761L374.077 107.141C372.594 108.612 370.808 109.74 368.845 110.447C366.881 111.154 364.786 111.423 362.707 111.235C361.931 114.343 361.155 117.45 360.433 120.511C360.154 121.715 359.867 122.888 359.587 124.069Z" fill="#F7929E"/>
<path d="M335.055 188.251C343.496 190.412 352.177 191.495 360.891 191.475C363.224 191.475 365.534 191.4 367.821 191.249L369.156 191.156C370.584 191.047 372.005 190.908 373.401 190.737C375.908 190.449 378.376 190.061 380.79 189.595C379.441 177.135 381.984 164.564 388.07 153.612C389.855 150.434 391.95 147.304 392.501 143.699C393.238 138.611 390.545 133.515 386.75 130.05C383.087 126.71 378.485 124.612 373.937 122.6L373.464 122.398C372.001 121.753 370.477 121.256 368.916 120.915C363.951 119.78 358.753 120.287 354.1 122.36C353.315 122.721 352.553 123.131 351.818 123.587C347.749 126.279 344.499 130.042 342.428 134.463C340.38 138.873 338.886 143.52 337.981 148.298C336.918 153.225 336.128 158.207 335.613 163.221C335.412 165.117 335.256 167.02 335.132 168.923C335.086 169.607 335.047 170.298 335.008 170.982C334.709 176.735 334.724 182.5 335.055 188.251Z" fill="#703CD5"/>
<path d="M355.296 127.386C356.203 128.623 357.421 129.599 358.826 130.214C360.231 130.829 361.773 131.062 363.297 130.889C366.36 130.486 369.169 128.971 371.19 126.632L371.57 126.189C371.795 125.925 372.013 125.645 372.222 125.366C372.857 124.5 373.422 123.586 373.914 122.631L373.441 122.429C373.146 122.297 372.843 122.173 372.54 122.057C371.356 121.59 370.136 121.219 368.893 120.946C366.111 120.329 363.243 120.203 360.418 120.573C358.226 120.86 356.089 121.473 354.077 122.391C353.88 124.147 354.311 125.918 355.296 127.386Z" fill="#F7929E"/>
<path d="M365.695 93.5698C364.64 94.6859 363.885 96.0517 363.501 97.5394C363.117 99.0272 363.116 100.588 363.499 102.076C365.112 101.425 366.422 100.191 367.17 98.6193C367.589 97.8234 367.749 96.9161 367.627 96.0246C367.5 95.5005 367.262 95.0099 366.929 94.5862C366.595 94.1626 366.174 93.8159 365.695 93.5698Z" fill="#311649"/>
<path d="M358.687 109.79C358.687 109.86 358.687 109.93 358.687 110.008C358.943 114.296 363.437 117.551 367.728 117.263C372.02 116.976 375.738 113.799 377.592 109.915C379.447 106.03 379.672 101.564 379.261 97.2755C378.369 96.6385 377.367 95.9704 376.304 95.3179C373.285 93.469 369.762 91.7444 366.696 91.1462C367.294 94.6032 365.144 97.8814 362.963 100.655C360.782 103.428 358.578 106.372 358.687 109.79Z" fill="#F7929E"/>
<path d="M378.237 106.559C378.403 106.137 378.729 105.799 379.143 105.617C379.557 105.435 380.026 105.425 380.449 105.587C380.86 105.779 381.204 106.091 381.434 106.482C381.664 106.873 381.77 107.325 381.737 107.778C381.692 108.229 381.552 108.665 381.328 109.059C381.103 109.452 380.798 109.794 380.433 110.062C379.854 110.502 379.17 110.785 378.45 110.883C377.729 110.981 376.995 110.891 376.32 110.621C377.064 109.319 377.705 107.961 378.237 106.559Z" fill="#F17785"/>
<path d="M358.687 109.79C358.687 109.86 358.687 109.93 358.687 110.008C358.943 114.296 363.437 117.551 367.728 117.263C372.02 116.976 375.738 113.799 377.592 109.915C379.447 106.03 379.672 101.564 379.261 97.2755C378.369 96.6385 377.367 95.9704 376.304 95.3179C376.247 95.654 376.221 95.9946 376.227 96.3355C376.341 98.7564 376.206 101.183 375.823 103.576C375.431 105.987 374.353 108.233 372.719 110.047C371.806 111.007 370.704 111.767 369.483 112.278C368.261 112.789 366.947 113.041 365.623 113.017C364.299 112.992 362.995 112.693 361.793 112.138C360.591 111.582 359.517 110.783 358.64 109.79H358.687Z" fill="#F17785"/>
<path d="M378.726 107.514C377.568 106.215 376.902 104.552 376.841 102.812C376.78 101.073 377.329 99.3672 378.392 97.9901C374.348 98.0445 369.932 97.9047 366.564 95.6596C364.72 94.3715 363.341 92.5218 362.632 90.3858C361.923 88.2498 361.922 85.9417 362.629 83.8051C363.343 81.8164 364.826 79.9753 366.867 79.4315C368.908 78.8877 371.415 80.053 371.818 82.1271C372.269 84.4577 370.111 86.9202 371.042 89.1187C371.294 89.6069 371.652 90.0321 372.09 90.3629C372.528 90.6938 373.034 90.9216 373.572 91.0297C374.651 91.2369 375.754 91.2892 376.847 91.185C377.94 91.0885 379.041 91.1858 380.099 91.4725C380.629 91.6215 381.114 91.8974 381.513 92.2765C381.912 92.6555 382.213 93.1261 382.389 93.6476C382.537 94.1749 382.474 94.7393 382.213 95.2208C381.952 95.7024 381.514 96.0632 380.992 96.2267C381.497 98.3229 381.673 100.485 381.512 102.636C381.31 104.671 380.549 106.629 378.726 107.514Z" fill="#462261"/>
<path d="M335.133 168.946C339.655 169.509 344.125 170.439 348.497 171.727C353.658 173.374 358.633 175.969 362.342 179.923C365.297 183.034 367.2 186.996 367.783 191.249L369.118 191.156C369.475 191.156 369.832 191.102 370.181 191.063C370.887 191.009 371.586 190.939 372.284 190.861H372.362C372.698 190.83 373.032 190.791 373.363 190.744C375.87 190.457 378.338 190.069 380.751 189.602C379.402 177.143 381.945 164.572 388.031 153.619C389.816 150.442 391.912 147.311 392.463 143.707C393.2 138.619 390.507 133.523 386.712 130.058C383.049 126.718 378.446 124.62 373.898 122.608L373.425 122.406C371.962 121.761 370.439 121.264 368.877 120.922C368.666 121.558 368.407 122.176 368.101 122.771C372.094 124.84 375.63 127.69 378.501 131.153C381.271 134.672 383.002 139.17 382.529 143.622C382.055 148.073 379.471 152.066 377.337 156.051C376.405 157.791 375.552 159.578 374.775 161.388C373.384 160.451 372.11 159.35 370.98 158.11C361.586 162.169 351.353 163.901 341.147 163.159C339.308 162.927 337.445 162.955 335.614 163.244C335.412 165.14 335.257 167.043 335.133 168.946Z" fill="#4625AC"/>
<path d="M368.101 122.763C369.524 123.538 370.902 124.391 372.23 125.319C372.864 124.453 373.43 123.539 373.922 122.585L373.448 122.383C373.154 122.251 372.851 122.126 372.548 122.01C372.926 118.266 373.309 114.521 373.697 110.777C372.053 111.193 370.62 112.2 369.669 113.605C370.012 116.063 369.746 118.568 368.893 120.899C368.677 121.54 368.413 122.163 368.101 122.763Z" fill="#F17785"/>
<path d="M335.055 188.251C338.408 178.253 353.681 177.53 353.681 177.53L334.977 171.005C334.689 176.751 334.715 182.508 335.055 188.251Z" fill="#4625AC"/>
<path d="M332.525 303.355C332.632 302.643 332.668 301.922 332.633 301.203C329.808 236.888 347.643 209.598 355.202 203.601C353.123 203.701 351.048 203.322 349.137 202.494C347.227 201.666 345.532 200.41 344.182 198.823C344.182 198.823 320.123 253.093 332.525 303.355Z" fill="#311649"/>
<path d="M275.428 170.057L304.361 172.815L353.72 177.53L354.178 172.652L356.165 151.848L359.587 115.943L310.228 111.235L281.303 108.47L275.428 170.057Z" fill="#E59E91"/>
<path d="M268.676 107.258L310.225 111.226L304.355 172.814L262.805 168.846L268.676 107.258Z" fill="#C07D6D"/>
<path d="M292.72 114.855L303.768 115.91L302.714 126.969L291.666 125.914L292.72 114.855Z" fill="#E59E91"/>
<path d="M287.744 143.334C286.603 144.111 286.277 145.61 286.339 146.977C286.398 148.42 286.77 149.832 287.431 151.116C288.092 152.399 289.025 153.522 290.165 154.406C291.305 155.291 292.625 155.915 294.031 156.235C295.437 156.555 296.897 156.564 298.307 156.261L300.775 148.725C300.914 147.583 301.062 146.441 301.202 145.299C301.279 144.694 301.295 143.948 300.783 143.614C300.053 143.14 299.176 144.018 298.873 144.826C298.571 145.633 298.245 146.659 297.383 146.807C295.583 146.869 294.116 145.494 292.727 144.383C291.337 143.272 289.265 142.355 287.744 143.334Z" fill="#F7929E"/>
<path d="M305.564 160.215C305.564 160.215 323.864 173.172 354.178 172.644L356.142 151.848L305.564 160.215Z" fill="#C07D6D"/>
<path d="M299.176 157.232C300.149 157.895 301.189 158.453 302.281 158.894C316.755 165.016 332.548 168.838 348.156 167.323C356.711 166.525 365.007 163.957 372.517 159.78C366.978 153.98 363.171 146.744 361.528 138.891C345.765 149.122 325.889 153.083 307.488 149.052C305.354 148.578 303.158 148.003 300.992 148.345C298.827 148.687 296.67 150.217 296.398 152.392C296.126 154.381 297.438 155.989 299.176 157.232Z" fill="#F7929E"/>
<path d="M299.176 157.232C300.149 157.895 301.189 158.453 302.281 158.894C316.755 165.016 332.548 168.838 348.156 167.323C356.711 166.525 365.007 163.957 372.517 159.78C370.935 158.121 369.487 156.339 368.186 154.451C346.19 163.307 321.813 164.289 299.176 157.232Z" fill="#F17785"/>
<path d="M362.109 105.696C363.116 106.573 364.295 107.229 365.571 107.623C365.635 107.644 365.693 107.681 365.74 107.73C365.786 107.778 365.821 107.837 365.84 107.902C365.859 107.967 365.862 108.036 365.849 108.102C365.836 108.168 365.807 108.23 365.765 108.283C365.54 108.565 365.257 108.797 364.936 108.961C364.615 109.126 364.263 109.221 363.902 109.239C363.416 109.25 362.934 109.141 362.499 108.921C362.065 108.702 361.691 108.378 361.411 107.98C361.234 107.653 361.141 107.288 361.141 106.916C361.141 106.544 361.234 106.178 361.411 105.852C361.432 105.782 361.472 105.719 361.525 105.67C361.578 105.62 361.644 105.586 361.715 105.57C361.786 105.555 361.86 105.558 361.929 105.58C361.998 105.602 362.061 105.642 362.109 105.696Z" fill="#F9DEE4"/>
<path d="M498.167 308.824L499.463 309.756L500.766 310.812C501.543 311.457 502.319 312.04 502.986 312.56C504.329 313.601 505.392 314.386 506.153 314.891C506.913 315.396 507.356 315.598 507.48 315.473C507.604 315.349 507.394 314.898 506.898 314.145C506.401 313.391 505.625 312.319 504.608 310.968L501.915 307.449C501.512 306.897 484.74 283.794 475.179 260.473C470.732 249.652 467.845 238.776 468.861 230.091L477.988 190.83L480.425 180.397L466.999 181.034C466.999 181.034 465.959 182.588 464.453 185.439C455.823 201.752 431.617 260.287 498.167 308.824Z" fill="#F17785"/>
<path d="M508.077 314.712C508.951 315.14 509.654 315.852 510.072 316.732C510.577 317.735 510.868 318.833 510.926 319.954C510.985 321.076 510.81 322.198 510.413 323.249C510.067 324.134 509.545 324.939 508.877 325.615C508.21 326.291 507.412 326.823 506.533 327.18C504.891 327.7 503.144 327.791 501.457 327.444C501.168 327.387 500.905 327.238 500.706 327.021C500.507 326.803 500.383 326.527 500.352 326.234C500.321 325.941 500.384 325.645 500.533 325.391C500.681 325.136 500.907 324.935 501.178 324.818C502.575 324.189 503.933 323.412 504.523 322.441C505.617 320.655 505.299 318.612 505.058 316.646C504.818 314.681 506.277 313.881 508.077 314.712Z" fill="url(#paint0_linear_2725_23349)"/>
<path d="M498.167 308.823C494.922 305.871 491.787 302.795 488.791 299.587C483.467 293.9 478.477 287.701 475.699 280.422C473.269 274.068 472.726 266.742 475.171 260.458C470.724 249.636 467.837 238.761 468.853 230.075L477.988 190.83C477.025 190.154 476.019 189.541 474.977 188.996C471.659 187.308 468.114 186.11 464.453 185.438C455.823 201.752 431.616 260.287 498.167 308.823Z" fill="#EA687B"/>
<path d="M444.399 324.135C443.997 324.935 443.429 325.64 442.733 326.203C442.037 326.766 441.229 327.173 440.363 327.398C438.64 327.833 436.824 327.499 435.07 327.172C434.324 327.084 433.605 326.841 432.959 326.458C432.639 326.261 432.387 325.971 432.237 325.626C432.087 325.282 432.047 324.899 432.121 324.531C432.4 323.575 433.565 323.249 434.542 323.032C437.27 322.421 439.9 321.436 442.358 320.103C443.537 319.458 444.461 318.464 444.919 320.204C445.2 321.535 445.017 322.923 444.399 324.135Z" fill="url(#paint1_linear_2725_23349)"/>
<path d="M443.91 320.142C444.104 320.204 444.484 319.691 445.058 318.658C445.493 317.881 446.036 316.809 446.688 315.473C473.363 265.484 484.888 233.836 489.133 213.863C495.481 183.916 485.446 180.179 485.446 180.179L467.014 181.057C472.385 185.283 455.59 264.73 448.023 299.136H447.93L447.627 300.511C446.3 306.509 445.229 311.387 444.523 314.759V314.805C443.84 318.122 443.584 320.033 443.91 320.142Z" fill="#F68895"/>
<path d="M445.066 318.643C445.501 317.866 446.044 316.794 446.696 315.458C473.37 265.468 484.895 233.82 489.141 213.847L478.213 219.868L476.234 227.807L445.066 318.643Z" fill="#F17785"/>
<path d="M475.054 108.462C474.135 109.402 473.513 110.592 473.266 111.884C473.018 113.176 473.157 114.512 473.665 115.725C474.581 117.8 476.599 119.555 476.405 121.816C476.28 123.237 475.279 124.41 474.542 125.638C473.477 127.583 472.957 129.78 473.037 131.997C473.118 134.214 473.796 136.368 475 138.23C476.24 140.068 477.86 141.617 479.751 142.772C481.642 143.928 483.759 144.662 485.958 144.927C490.383 145.419 494.849 144.489 498.71 142.27C501.511 140.716 504.266 138.106 504.01 134.913C503.63 130.322 497.336 127.743 497.429 123.136C497.429 121.28 498.585 119.633 499.082 117.838C500.192 113.845 497.895 109.402 494.332 107.273C491.115 105.512 487.358 105.013 483.793 105.875C480.929 106.497 477.258 106.295 475.054 108.462Z" fill="url(#paint2_linear_2725_23349)"/>
<path d="M479.16 142.41C480.751 143.411 482.629 143.854 484.5 143.668C486.194 143.465 487.775 142.712 489.001 141.524L489.241 141.299C489.086 140.522 488.954 139.792 488.853 139.038C488.753 138.285 488.628 137.314 488.566 136.451C488.423 134.527 488.423 132.595 488.566 130.672C488.605 130.128 488.659 129.584 488.721 129.04C488.891 127.532 489.15 126.035 489.498 124.558C488.721 124.892 487.899 125.249 487.123 125.63C485.456 126.413 483.928 127.463 482.598 128.737C482.552 129.659 482.466 130.576 482.342 131.487C482.342 131.635 482.303 131.782 482.28 131.93C482.148 132.909 481.969 133.888 481.76 134.851C481.698 135.138 481.62 135.441 481.55 135.729C481.171 137.275 480.686 138.794 480.099 140.273C479.812 140.957 479.494 141.695 479.16 142.41Z" fill="#F68895"/>
<path d="M468.551 171.611C468.966 174.381 469.552 177.124 470.305 179.822C470.305 179.931 470.367 180.016 470.39 180.086C470.413 180.156 470.429 180.21 470.444 180.28C474.072 180.777 477.751 180.75 481.372 180.203C483.239 179.921 485.079 179.484 486.874 178.898C487.521 172.99 489.412 167.287 492.423 162.165L492.749 161.613L493.106 161.046C494.531 159.792 495.849 158.423 497.049 156.952C507.138 144.359 491.422 139.31 491.049 139.194C490.279 139.071 489.501 139.008 488.721 139.007C488.182 139.009 487.643 139.043 487.107 139.108C485.12 139.326 483.289 139.885 481.193 140.064C480.462 140.128 479.738 140.253 479.028 140.436C466.789 145.859 467.014 161.605 468.551 171.611Z" fill="#FB446C"/>
<path d="M478.609 146.721C479.003 147.063 479.464 147.318 479.963 147.469C480.462 147.621 480.987 147.665 481.504 147.599C482.535 147.461 483.526 147.109 484.414 146.566C487.357 144.892 489.683 142.316 491.05 139.217C490.323 139.103 489.589 139.043 488.853 139.038H488.69C488.151 139.038 487.612 139.069 487.076 139.131C485.089 139.349 483.258 139.908 481.162 140.087C480.798 140.087 480.448 140.165 480.091 140.227C479.734 140.289 479.362 140.366 478.997 140.46C478.506 141.114 478.119 141.84 477.848 142.612C477.584 143.3 477.514 144.048 477.649 144.774C477.783 145.499 478.115 146.173 478.609 146.721Z" fill="#F68895"/>
<path d="M479.121 128.706C479.41 129.177 479.8 129.577 480.262 129.879C481.414 130.613 482.808 130.861 484.142 130.57C485.994 130.076 487.631 128.984 488.799 127.463C488.869 127.378 488.946 127.292 489.016 127.199C489.048 126.976 489.095 126.755 489.156 126.539C489.311 125.948 489.528 125.366 489.738 124.791C490.136 123.851 490.321 122.835 490.281 121.816C490.153 121.092 489.881 120.401 489.481 119.784C489.081 119.168 488.562 118.638 487.953 118.227C486.773 117.341 485.415 116.735 484.173 115.95C483.438 115.503 482.769 114.954 482.187 114.319C482.341 114.759 482.422 115.221 482.427 115.686C482.431 115.946 482.418 116.205 482.388 116.463C482.276 117.355 482.013 118.222 481.612 119.027C480.836 120.627 479.812 122.056 479.129 123.688C478.446 125.319 478.198 127.207 479.121 128.706Z" fill="#F68895"/>
<path d="M480.262 129.879C481.414 130.613 482.808 130.861 484.142 130.57C485.994 130.076 487.631 128.984 488.799 127.463C488.869 127.378 488.946 127.292 489.016 127.199C489.048 126.976 489.095 126.755 489.156 126.539C489.311 125.948 489.528 125.366 489.738 124.791C490.136 123.851 490.321 122.835 490.281 121.816C490.153 121.092 489.881 120.401 489.481 119.784C489.081 119.168 488.562 118.638 487.953 118.227C486.773 117.341 485.415 116.735 484.173 115.95C483.438 115.503 482.769 114.954 482.187 114.319C482.341 114.759 482.422 115.221 482.427 115.686C482.912 116.528 483.51 117.299 484.205 117.978C485.617 119.415 487.255 120.868 487.596 122.857C487.992 125.187 486.393 127.448 484.352 128.59C483.076 129.259 481.691 129.696 480.262 129.879Z" fill="#F17785"/>
<path d="M468.551 171.611C468.966 174.381 469.552 177.124 470.304 179.822C470.304 179.931 470.367 180.016 470.39 180.086C470.413 180.156 470.429 180.21 470.444 180.28C474.072 180.777 477.751 180.75 481.372 180.203C483.239 179.921 485.079 179.484 486.874 178.898C487.521 172.99 489.412 167.287 492.423 162.165L492.749 161.613L493.106 161.046C494.531 159.792 495.849 158.423 497.049 156.952C507.138 144.359 491.422 139.31 491.049 139.194C490.279 139.071 489.501 139.008 488.721 139.007C488.182 139.009 487.643 139.043 487.107 139.108C488.434 141.353 490.762 142.852 492.307 144.965C495.046 148.71 494.953 153.922 493.37 158.288C492.977 159.367 492.513 160.418 491.981 161.434C491.004 161.176 490.07 160.776 489.21 160.246C484.36 162.887 479.556 165.621 474.713 168.255L468.551 171.611Z" fill="#C5205C"/>
<path d="M486.998 138.991C487.027 139.036 487.053 139.083 487.076 139.131C487.62 140.003 488.267 140.806 489.001 141.524L489.474 141.99C490.085 141.121 490.605 140.192 491.026 139.217C490.3 139.103 489.566 139.043 488.83 139.038C488.698 138.176 488.605 137.314 488.543 136.451C488.399 134.527 488.399 132.595 488.543 130.672C488.582 130.128 488.636 129.584 488.698 129.04C488.867 127.532 489.126 126.035 489.474 124.558C488.698 124.892 487.875 125.249 487.099 125.63C487.127 126.207 487.072 126.785 486.936 127.347C485.974 131.184 485.043 135.48 486.998 138.991Z" fill="#F17785"/>
<path d="M452.315 221.274C461.108 227.745 469.661 228.654 476.242 227.799C480.57 227.274 484.747 225.876 488.52 223.69C502.303 187.955 486.882 178.921 486.882 178.921C476.979 178.998 471.577 178.191 470.165 177.934L469.792 177.872C453.983 189.859 452.315 221.274 452.315 221.274Z" fill="#462261"/>
<path d="M476.242 227.799C480.57 227.274 484.747 225.876 488.52 223.69C502.303 187.956 486.882 178.921 486.882 178.921C476.979 178.999 471.577 178.191 470.165 177.934L469.738 178.323C476.312 185.625 479.362 195.623 479.595 205.45C479.632 213.028 478.501 220.566 476.242 227.799Z" fill="#371A4F"/>
<path d="M418.803 181.585L437.461 183.116L469.296 185.726L469.552 182.58L469.808 179.48L470.421 171.984L470.654 169.156L472.548 145.998L440.713 143.388H440.705L422.047 141.866L418.803 181.585Z" fill="#E59E91"/>
<path d="M413.907 141.193L440.709 143.389L437.461 183.108L410.659 180.912L413.907 141.193Z" fill="#C07D6D"/>
<path d="M429.462 145.886L436.586 146.47L436.003 153.601L428.879 153.017L429.462 145.886Z" fill="#E59E91"/>
<path d="M451.818 180.537C451.818 180.537 461.806 181.593 469.8 179.504L470.421 172.007L451.818 180.537Z" fill="#C07D6D"/>
<path d="M441.846 178.47C441.782 178.901 441.829 179.342 441.982 179.749C442.136 180.157 442.39 180.519 442.722 180.801C443.364 181.456 444.14 181.964 444.998 182.288C445.855 182.612 446.773 182.745 447.687 182.678C448.601 182.61 449.489 182.344 450.29 181.898C451.09 181.452 451.784 180.836 452.323 180.094L450.289 175.487L449.032 173.685C448.815 173.367 448.504 173.009 448.124 173.064C447.573 173.157 447.534 173.941 447.736 174.454C447.938 174.967 448.209 175.588 447.868 176.008C447.045 176.785 445.765 176.785 444.624 176.855C443.483 176.925 442.14 177.36 441.846 178.47Z" fill="#F68895"/>
<path d="M446.223 180.148C446.308 180.521 447.224 180.661 448.861 180.669H450.22C450.716 180.669 451.244 180.583 451.818 180.537C452.959 180.413 454.279 180.296 455.699 180.032L457.957 179.636C458.345 179.566 458.733 179.48 459.137 179.379L460.371 179.092L461.644 178.789C461.869 178.735 462.086 178.688 462.303 178.626L462.955 178.439L465.679 177.663C466.153 177.53 466.611 177.352 467.076 177.189L468.52 176.653L469.971 176.124L471.43 175.511L472.913 174.874L473.689 174.547L474.465 174.19C475.45 173.701 476.444 173.203 477.46 172.636C478.477 172.069 479.408 171.518 480.355 170.951C480.596 170.811 480.836 170.671 481.062 170.523L481.745 170.073L483.087 169.164L484.399 168.255L485.563 167.331L486.758 166.367C487.146 166.049 487.534 165.746 487.899 165.404C488.628 164.744 489.327 164.083 489.994 163.439L490.491 162.949C490.654 162.786 490.802 162.615 490.964 162.444L491.795 161.512C490.915 161.02 490.072 160.464 489.273 159.85C486.94 158.051 484.989 155.803 483.537 153.239C483.297 153.433 483.048 153.643 482.808 153.852C482.567 154.062 482.513 154.117 482.358 154.241L481.884 154.622C481.256 155.142 480.619 155.678 479.975 156.253C479.657 156.54 479.308 156.812 478.974 157.092L477.988 157.931L476.964 158.824L475.885 159.718L474.798 160.626L474.255 161.1L473.689 161.551C472.913 162.157 472.136 162.786 471.399 163.431C470.662 164.076 469.847 164.65 469.071 165.256L468.497 165.715L467.907 166.142L466.75 167.004L465.61 167.867L464.461 168.643L463.343 169.42C462.963 169.684 462.606 169.956 462.234 170.197L460.053 171.626C459.874 171.743 459.696 171.86 459.525 171.984L458.997 172.302L457.957 172.939C457.274 173.351 456.622 173.778 455.978 174.151L454.108 175.215C452.92 175.93 451.78 176.482 450.833 177.018C450.352 177.29 449.901 177.546 449.482 177.795L448.326 178.424C446.89 179.201 446.168 179.76 446.223 180.148Z" fill="#F68895"/>
<path d="M459.152 179.356L460.386 179.069L461.659 178.766C461.884 178.711 462.102 178.665 462.319 178.602L462.971 178.416L465.695 177.639C466.168 177.507 466.626 177.328 467.092 177.165L468.52 176.653L469.971 176.124L471.43 175.511L472.913 174.874L473.689 174.547L474.465 174.19C475.45 173.701 476.444 173.203 477.46 172.636C478.477 172.069 479.408 171.518 480.355 170.951C480.596 170.811 480.836 170.671 481.062 170.523L481.745 170.073L483.087 169.164L484.399 168.255L485.563 167.331L486.758 166.367C487.146 166.049 487.534 165.746 487.899 165.404C488.628 164.744 489.327 164.083 489.994 163.439L490.491 162.949C490.654 162.786 490.802 162.615 490.964 162.444L491.795 161.512C490.915 161.02 490.072 160.464 489.273 159.85C480.685 168.363 470.43 175.004 459.152 179.356Z" fill="#F17785"/>
<path d="M480.014 125.117C479.936 125.117 479.866 125.327 479.967 125.645C480.033 125.856 480.146 126.049 480.296 126.211C480.447 126.373 480.631 126.499 480.836 126.58C481.042 126.661 481.262 126.695 481.483 126.68C481.703 126.665 481.917 126.601 482.109 126.492C482.396 126.321 482.489 126.127 482.435 126.073C482.381 126.018 482.21 126.073 481.962 126.073C481.658 126.133 481.344 126.108 481.054 126.003C480.769 125.878 480.521 125.683 480.332 125.436C480.177 125.265 480.099 125.109 480.014 125.117Z" fill="#D65165"/>
<path d="M547.464 296.526V298.018C547.464 299.004 547.464 299.96 547.557 300.9C547.673 302.78 547.797 306.858 548.022 308.52C548.123 309.352 548.217 310.144 548.341 310.913C548.465 311.682 548.597 312.412 548.729 313.111C548.969 314.51 549.288 315.761 549.582 316.864C549.73 317.407 549.87 317.912 550.025 318.417C550.18 318.922 550.343 319.303 550.498 319.684C551.127 321.237 551.717 322.014 552.322 322.014C552.927 322.014 553.486 321.136 554.053 319.629C554.192 319.256 554.332 318.852 554.472 318.386C554.612 317.92 554.775 317.438 554.93 316.918C554.93 316.809 554.984 316.708 555.015 316.607C555.302 315.628 555.566 314.541 555.9 313.36C556.567 310.773 557.367 305.39 558.228 301.979C558.438 301.14 558.694 300.278 558.919 299.4C559.035 298.965 559.144 298.523 559.26 298.072L559.633 296.728C559.757 296.27 559.873 295.811 559.998 295.353C560.122 294.895 560.238 294.429 560.37 293.97C560.634 293.038 560.89 292.098 561.146 291.143C561.402 290.187 561.666 289.247 561.922 288.323C562.031 287.857 562.163 287.398 562.287 286.948C562.411 286.497 562.52 286.039 562.644 285.596C562.768 285.153 562.861 284.695 562.97 284.26C563.079 283.825 563.195 283.382 563.304 282.955C563.529 282.092 563.707 281.238 563.901 280.414C564.305 278.76 564.6 277.167 564.887 275.668C565.027 274.891 565.128 274.184 565.236 273.477C565.345 272.77 565.43 272.087 565.492 271.426C565.613 270.206 565.665 268.979 565.648 267.752C565.648 267.193 565.585 266.664 565.531 266.16C565.481 265.687 565.404 265.217 565.298 264.753C565.26 264.59 565.213 264.427 565.174 264.272C565.047 263.637 564.778 263.04 564.389 262.523C563.999 262.007 563.498 261.585 562.923 261.289C561.759 260.807 560.339 261.126 558.818 262.19C558.407 262.474 558.015 262.785 557.646 263.122C557.24 263.508 556.854 263.915 556.49 264.342C555.618 265.339 554.839 266.412 554.161 267.55C553.789 268.172 553.385 268.824 553.059 269.515C552.733 270.207 552.369 270.953 552.035 271.722C551.322 273.357 550.705 275.033 550.188 276.74C549.908 277.633 549.676 278.566 549.412 279.521L549.062 280.974C548.964 281.461 548.863 281.958 548.76 282.465C548.667 282.962 548.566 283.475 548.473 283.98C548.38 284.485 548.294 285.013 548.224 285.534C548.077 286.583 547.937 287.647 547.813 288.719C547.689 289.791 547.627 290.871 547.557 291.927C547.518 292.455 547.495 292.976 547.479 293.481C547.464 293.986 547.479 294.522 547.433 295.035C547.386 295.547 547.479 296.021 547.464 296.526Z" fill="#F89BA6"/>
<path d="M553.098 316.569H555.039C555.326 315.59 555.59 314.502 555.923 313.321C556.591 310.735 557.39 305.351 558.252 301.941C558.461 301.102 558.717 300.24 558.942 299.362C559.059 298.927 559.167 298.484 559.284 298.033L559.656 296.689C559.78 296.231 559.897 295.773 560.021 295.314C560.145 294.856 560.262 294.39 560.394 293.932C560.657 292.999 560.914 292.059 561.17 291.104C561.426 290.148 561.69 289.208 561.946 288.284C562.054 287.818 562.186 287.36 562.311 286.909C562.435 286.458 562.543 286 562.668 285.557C562.792 285.115 562.885 284.656 562.993 284.221C563.102 283.786 563.219 283.343 563.327 282.916C563.552 282.054 563.731 281.199 563.925 280.376C564.328 278.721 564.623 277.129 564.91 275.629C565.05 274.853 565.151 274.146 565.26 273.439C565.368 272.732 565.454 272.048 565.516 271.388C565.637 270.167 565.688 268.94 565.671 267.713C565.671 267.154 565.609 266.626 565.555 266.121C565.505 265.648 565.427 265.178 565.322 264.715C565.283 264.552 565.236 264.389 565.198 264.233C561.333 271.823 555.527 289.55 553.098 316.569Z" fill="#F17785"/>
<path d="M579.742 274.596C579.852 276.496 580.111 278.385 580.518 280.244C580.964 282.291 581.566 284.301 582.318 286.256C583.12 288.355 584.072 290.393 585.166 292.355C586.266 294.303 587.492 296.176 588.837 297.963C591.206 301.107 593.947 303.95 597.002 306.431C597.685 306.975 598.344 307.487 599.004 307.985C599.664 308.482 600.285 308.901 600.921 309.282C601.557 309.663 602.132 310.059 602.714 310.362C603.296 310.665 603.839 310.983 604.375 311.224C604.91 311.465 605.391 311.706 605.865 311.892C606.338 312.078 606.765 312.226 607.161 312.35L607.37 312.413C607.939 312.591 608.529 312.693 609.124 312.715C609.31 312.741 609.499 312.722 609.676 312.66C609.853 312.598 610.012 312.494 610.141 312.358C610.229 312.191 610.278 312.007 610.285 311.819C610.292 311.63 610.256 311.443 610.18 311.271C609.971 310.666 609.698 310.085 609.365 309.538C609.171 309.189 608.946 308.824 608.69 308.427C608.434 308.031 608.185 307.596 607.914 307.153C607.642 306.711 607.324 306.221 607.006 305.724C606.687 305.227 606.354 304.691 606.004 304.17C605.655 303.65 605.322 303.028 604.949 302.43C604.576 301.832 604.235 301.187 603.855 300.542C603.133 299.23 602.372 297.839 601.651 296.348C600.929 294.856 600.199 293.318 599.516 291.687C598.833 290.055 598.174 288.377 597.537 286.645C596.901 284.913 596.365 283.211 595.845 281.572C595.325 279.933 594.868 278.348 594.417 276.841C593.967 275.334 593.564 273.881 593.145 272.522C592.951 271.838 592.741 271.186 592.539 270.541C592.338 269.896 592.128 269.29 591.942 268.7C591.755 268.11 591.515 267.542 591.321 267.006C591.127 266.47 590.886 265.95 590.677 265.453C590.467 264.956 590.234 264.513 590.001 264.086C589.786 263.676 589.548 263.279 589.287 262.897C588.867 262.237 588.343 261.649 587.735 261.157C587.214 260.748 586.586 260.497 585.927 260.434C585.305 260.392 584.685 260.541 584.15 260.862L584.041 260.916C583.34 261.369 582.742 261.964 582.287 262.664C581.998 263.091 581.739 263.537 581.511 264C581.258 264.527 581.038 265.07 580.851 265.624C580.636 266.246 580.459 266.882 580.324 267.527C580.162 268.24 580.038 268.961 579.951 269.687C579.85 270.463 579.811 271.24 579.773 272.071C579.734 272.903 579.703 273.703 579.742 274.596Z" fill="#F89BA6"/>
<path d="M584.088 260.799C584.51 262.086 584.732 263.43 584.747 264.785C586.051 282.714 594.441 299.944 607.37 312.381C607.939 312.56 608.529 312.662 609.124 312.684C609.31 312.71 609.499 312.691 609.676 312.629C609.853 312.566 610.012 312.463 610.141 312.327C610.229 312.16 610.278 311.976 610.285 311.788C610.292 311.599 610.256 311.412 610.18 311.239C609.971 310.634 609.698 310.053 609.365 309.507C609.171 309.157 608.946 308.792 608.69 308.396C608.434 308 608.185 307.565 607.914 307.122C607.642 306.679 607.324 306.19 607.006 305.693C606.687 305.196 606.354 304.66 606.004 304.139C605.655 303.619 605.322 302.997 604.949 302.399C604.576 301.801 604.235 301.156 603.855 300.511C603.133 299.198 602.372 297.808 601.651 296.316C600.929 294.825 600.199 293.287 599.516 291.655C598.833 290.024 598.174 288.346 597.537 286.614C596.901 284.881 596.365 283.18 595.845 281.541C595.325 279.902 594.868 278.317 594.417 276.81C593.967 275.303 593.564 273.85 593.145 272.491C592.951 271.807 592.741 271.155 592.539 270.51C592.337 269.865 592.128 269.259 591.942 268.669C591.755 268.078 591.515 267.511 591.321 266.975C591.127 266.439 590.886 265.919 590.677 265.422C590.467 264.924 590.234 264.482 590.001 264.054C589.786 263.645 589.548 263.248 589.287 262.866C588.867 262.206 588.343 261.618 587.735 261.126C587.214 260.717 586.586 260.466 585.927 260.403C585.287 260.338 584.644 260.477 584.088 260.799Z" fill="#F17785"/>
<path d="M550.7 272.033C553.825 273.608 557.082 274.908 560.433 275.917C562.58 276.568 564.762 277.102 566.967 277.517C569.792 265.981 574.092 260.124 576.482 258.22C576.562 265.1 577.445 271.946 579.113 278.62C584.535 278.606 589.933 277.904 595.178 276.53C592.586 267.892 592.074 258.663 592.113 249.621C591.197 249.427 590.297 249.256 589.412 249.1C586.245 248.525 579.284 248.153 576.218 247.982L563.723 250.242C563.001 250.872 562.311 251.532 561.643 252.223C556.591 257.529 553.083 264.583 550.7 272.033Z" fill="#462261"/>
<path d="M561.713 252.223C563.416 253.838 565.593 254.862 567.922 255.144C570.887 255.602 573.929 255.361 576.886 255.882C579.843 256.402 582.893 257.933 584.034 260.714C584.478 262.026 584.711 263.4 584.724 264.785C585.058 269.286 585.825 273.745 587.014 278.099C589.769 277.76 592.499 277.241 595.186 276.546C592.594 267.907 592.082 258.679 592.12 249.636C591.205 249.442 590.304 249.271 589.42 249.116C586.253 248.541 579.292 248.168 576.226 247.997L563.731 250.258C563.071 250.871 562.381 251.532 561.713 252.223Z" fill="#371A4F"/>
<path d="M561.612 251.345C562.792 251.718 564.002 252.06 565.221 252.355C572.539 254.158 580.11 254.704 587.611 253.971C589.505 253.785 591.373 253.526 593.214 253.194L592.795 239.669C592.702 236.609 592.625 233.455 593.734 230.604C594.402 228.91 595.473 227.38 595.97 225.624C596.979 222.074 595.442 218.19 592.951 215.463C590.883 213.367 588.491 211.62 585.865 210.289C585.205 209.924 584.538 209.575 583.878 209.217C583.146 208.831 582.362 208.553 581.55 208.394C579.222 207.905 576.808 208.231 574.301 208.145C572.929 209.456 571.682 210.891 570.576 212.434C567.249 217.21 564.924 222.612 563.738 228.312C562.955 231.92 562.421 235.577 562.14 239.258C561.806 243.258 561.713 247.345 561.612 251.345Z" fill="#2795F8"/>
<path d="M573.052 211.696C575.501 212.609 578.128 212.941 580.727 212.667C582.083 212.517 583.415 212.201 584.693 211.727C584.761 207.128 584.828 202.529 584.895 197.93V197.456C581.876 199.251 578.213 200.898 574.977 200.043C574.865 203.997 574.217 207.917 573.052 211.696Z" fill="#F7929E"/>
<path d="M580.727 212.667C582.083 212.517 583.415 212.201 584.693 211.727C584.761 207.128 584.828 202.529 584.895 197.93C584.667 198.045 584.457 198.195 584.274 198.373C583.273 199.305 581.302 200.074 581.449 201.434C581.866 205.191 581.622 208.993 580.727 212.667Z" fill="#F17785"/>
<path d="M573.448 181.096C572.922 184.385 573.12 187.75 574.03 190.954C574.651 189.68 575.155 188.235 575.784 186.961C576.244 186.106 576.601 185.198 576.847 184.258C577.086 183.306 576.975 182.3 576.536 181.422C576.308 180.992 575.958 180.639 575.53 180.409C575.102 180.178 574.615 180.079 574.131 180.125C573.929 180.607 573.548 180.537 573.448 181.096Z" fill="#371A4F"/>
<path d="M570.552 199.243C570.653 200.239 570.957 201.204 571.445 202.078C573.37 205.512 578.282 206.522 581.798 204.743C585.314 202.964 587.363 199.01 587.65 195.079C587.937 191.148 586.687 187.256 584.957 183.722C584.804 183.441 584.594 183.194 584.342 182.998C584.09 182.801 583.8 182.659 583.49 182.58C581.418 181.888 578.003 182.386 576.505 181.15L572.625 190.472C571.398 193.238 570.25 196.369 570.552 199.243Z" fill="#F7929E"/>
<path d="M587.045 193.222C587.033 193.114 587.033 193.005 587.045 192.896C587.062 192.557 587.19 192.234 587.409 191.975C587.628 191.715 587.926 191.535 588.256 191.461C588.587 191.387 588.933 191.424 589.241 191.565C589.549 191.706 589.803 191.945 589.963 192.244C590.259 192.716 590.452 193.245 590.529 193.797C590.599 194.32 590.525 194.852 590.316 195.337C590.107 195.821 589.77 196.239 589.342 196.547C588.899 196.833 588.368 196.948 587.847 196.871C587.326 196.793 586.85 196.529 586.509 196.128C586.87 195.202 587.051 194.216 587.045 193.222Z" fill="#F17785"/>
<path d="M570.552 199.243C570.653 200.239 570.957 201.204 571.445 202.078C573.37 205.512 578.282 206.522 581.798 204.743C585.314 202.964 587.363 199.01 587.65 195.079C587.937 191.148 586.687 187.256 584.957 183.722C584.804 183.441 584.594 183.194 584.342 182.998C584.09 182.802 583.8 182.659 583.49 182.58C583.146 182.91 582.845 183.283 582.597 183.691C583.475 187.862 583.288 192.188 582.054 196.268C581.441 198.319 580.44 200.416 578.569 201.457C576.412 202.669 573.556 202.063 571.686 200.447C571.267 200.086 570.887 199.683 570.552 199.243Z" fill="#F17785"/>
<path d="M587.417 193.176C585.963 192.305 584.783 191.042 584.014 189.53C583.246 188.018 582.919 186.32 583.071 184.631C580.576 184.667 578.106 184.135 575.846 183.077C573.51 182.063 571.671 180.163 570.731 177.795C570.29 176.615 570.186 175.336 570.431 174.101C570.677 172.866 571.262 171.724 572.12 170.803C573.921 169.04 577.08 168.744 578.973 170.391C580.72 171.906 581.092 174.516 582.629 176.249C583.746 177.507 585.368 178.167 586.866 178.921C588.364 179.675 589.908 180.661 590.545 182.223C591.274 184.009 590.63 186.052 589.769 187.785C588.907 189.517 587.635 191.249 587.417 193.176Z" fill="#462261"/>
<path d="M570.599 212.387C570.686 212.525 570.782 212.658 570.886 212.783C571.628 213.656 572.548 214.361 573.584 214.85C574.62 215.339 575.748 215.601 576.893 215.619C579.228 215.689 581.51 214.92 583.327 213.451L583.645 213.179C584.566 212.352 585.319 211.355 585.865 210.243C585.205 209.878 584.538 209.528 583.878 209.171C583.146 208.784 582.362 208.506 581.55 208.347C579.221 207.858 576.808 208.184 574.301 208.099C572.937 209.41 571.698 210.846 570.599 212.387Z" fill="#F7929E"/>
<path d="M583.971 214.205C585.454 215.797 587.277 217.032 588.814 218.563C590.351 220.093 591.647 222.066 591.639 224.242C591.631 226.417 590.467 228.165 589.582 230.029C587.823 233.983 586.908 238.262 586.897 242.59C586.875 246.396 587.113 250.198 587.611 253.971C589.505 253.785 591.373 253.526 593.214 253.194L592.795 239.669C592.702 236.609 592.625 233.455 593.734 230.604C594.402 228.91 595.473 227.38 595.97 225.624C596.979 222.074 595.442 218.19 592.951 215.463C590.883 213.367 588.491 211.62 585.865 210.29C585.205 209.924 584.538 209.575 583.878 209.218C583.146 208.831 582.362 208.553 581.55 208.394C581.332 210.53 582.489 212.62 583.971 214.205Z" fill="#0386E9"/>
<path d="M583.327 213.459L583.645 213.187C584.566 212.359 585.319 211.363 585.865 210.251C585.205 209.886 584.538 209.536 583.878 209.179C583.146 208.792 582.362 208.514 581.55 208.355C581.451 210.224 582.089 212.057 583.327 213.459Z" fill="#F17785"/>
<path d="M602.101 327.957C608.18 324.015 613.007 318.417 616.016 311.822C613.395 308.753 610.179 306.248 606.563 304.458C605.349 306.748 603.661 308.753 601.612 310.338C602.769 312.207 603.137 314.459 602.636 316.599C602.23 317.931 601.695 319.219 601.038 320.445C600.381 321.676 600.019 323.043 599.982 324.438C599.997 325.159 600.201 325.863 600.573 326.48C600.944 327.098 601.471 327.607 602.101 327.957Z" fill="#FB446C"/>
<path d="M560.432 275.893C562.58 276.544 564.762 277.079 566.967 277.494C569.792 265.958 574.092 260.1 576.482 258.197C576.296 258.275 571.926 260.162 568.892 258.197C568.892 258.22 564.662 263.099 560.432 275.893Z" fill="#371A4F"/>
<path d="M535.132 326.295C542.06 328.413 549.447 328.51 556.428 326.574C557.095 322.593 556.948 318.518 555.993 314.595C554.749 314.864 553.479 314.999 552.206 314.999C550.901 314.998 549.6 314.857 548.326 314.58C547.986 315.615 547.446 316.574 546.736 317.4C546.026 318.226 545.161 318.905 544.189 319.396C542.908 319.933 541.581 320.349 540.223 320.639C538.859 320.924 537.58 321.526 536.49 322.395C535.943 322.869 535.529 323.479 535.291 324.163C535.052 324.847 534.998 325.582 535.132 326.295Z" fill="#FB446C"/>
<path d="M561.612 251.345C562.792 251.718 564.002 252.06 565.221 252.355C570.381 251.025 575.135 248.443 579.061 244.836C582.986 241.229 585.963 236.709 587.728 231.676C585.554 230.254 582.807 230.899 580.316 231.629C577.825 232.359 575.597 233.781 573.331 234.985C569.792 236.835 566.046 238.256 562.171 239.219C561.806 243.258 561.713 247.345 561.612 251.345Z" fill="#0386E9"/>
<path d="M519.175 246.172L537.289 247.826L568.201 250.646L568.48 247.593L568.527 247.034L569.42 237.222L569.668 234.558L571.709 212.076L560.991 211.097L542.854 209.443L540.797 209.256L522.683 207.609L519.175 246.172Z" fill="#E59E91"/>
<path d="M514.789 206.898L540.813 209.269L537.307 247.835L511.283 245.464L514.789 206.898Z" fill="#C07D6D"/>
<path d="M529.21 212.865L536.156 213.491L535.531 220.444L528.585 219.818L529.21 212.865Z" fill="#E59E91"/>
<path d="M539.02 239.934C539.162 240.968 539.516 241.963 540.059 242.854C540.603 243.746 541.324 244.516 542.179 245.115C543.956 246.211 546.563 246.047 547.836 244.401C554.39 247.052 561.519 247.959 568.527 247.034L569.419 237.246C559.555 240.098 549.231 241.011 539.02 239.934Z" fill="#C07D6D"/>
<path d="M538.617 238.023C538.412 238.358 538.296 238.74 538.278 239.132C538.26 239.525 538.342 239.915 538.516 240.268C538.813 241.044 539.276 241.745 539.872 242.324C540.468 242.902 541.184 243.342 541.968 243.615C542.753 243.887 543.587 243.984 544.413 243.9C545.239 243.816 546.037 243.552 546.75 243.126V238.566L546.354 236.617C546.284 236.267 546.16 235.84 545.819 235.77C545.33 235.653 545.043 236.29 544.996 236.787C544.949 237.285 544.996 237.898 544.546 238.139C543.576 238.504 542.52 238.03 541.542 237.681C540.565 237.331 539.261 237.168 538.617 238.023Z" fill="#F7929E"/>
<path d="M544.98 241.324C545.094 241.759 545.313 242.16 545.619 242.489C545.926 242.819 546.309 243.067 546.734 243.212C547.58 243.544 548.473 243.738 549.381 243.787C558.399 244.463 567.704 243.639 575.954 239.903C580.475 237.896 584.529 234.97 587.859 231.311C583.771 229.166 580.365 225.917 578.026 221.934C571.224 230.538 561.303 236.106 550.421 237.424C549.157 237.456 547.911 237.72 546.742 238.201C546.154 238.466 545.667 238.912 545.35 239.474C545.033 240.035 544.904 240.684 544.98 241.324Z" fill="#F7929E"/>
<path d="M546.734 243.212C547.58 243.544 548.473 243.738 549.381 243.787C558.399 244.463 567.704 243.639 575.954 239.903C580.475 237.896 584.529 234.97 587.859 231.311C586.124 230.402 584.503 229.288 583.032 227.994C578.546 233.035 566.051 244.587 546.75 243.057L546.734 243.212Z" fill="#F17785"/>
<path d="M541.178 219.301C541.421 220.923 542.017 222.471 542.924 223.838C543.933 225.127 545.741 225.935 547.239 225.283C547.894 224.925 548.431 224.386 548.788 223.73C549.144 223.074 549.304 222.329 549.249 221.585C549.119 220.1 548.738 218.647 548.124 217.289C547.543 215.947 547.321 214.478 547.48 213.024C549.749 215.008 552.594 216.211 555.597 216.458C557.101 216.558 558.606 216.279 559.974 215.647C561.342 215.014 562.529 214.048 563.428 212.838C562.511 212.401 561.674 211.813 560.952 211.098L542.815 209.443C542.549 210.037 542.319 210.647 542.124 211.268C541.379 213.816 540.603 216.691 541.178 219.301Z" fill="#C07D6D"/>
<path d="M556.241 198.839C556.316 197.889 556.058 196.943 555.513 196.163C554.968 195.382 554.168 194.815 553.252 194.559C552.335 194.303 551.358 194.374 550.488 194.759C549.617 195.145 548.908 195.821 548.48 196.672C547.704 198.225 547.929 200.012 548.279 201.682C549.443 200.867 550.683 200.164 551.981 199.585C553.323 199.064 554.821 198.544 556.241 198.839Z" fill="#A84350"/>
<path d="M554.309 199.181C554.249 198.474 554.054 197.786 553.735 197.153C553.573 196.838 553.331 196.572 553.032 196.382C552.733 196.192 552.389 196.086 552.035 196.073C551.612 196.129 551.217 196.317 550.907 196.61C550.596 196.902 550.385 197.286 550.304 197.705C550.164 198.548 550.206 199.412 550.429 200.237C551.539 199.401 552.928 199.023 554.309 199.181Z" fill="#D35E71"/>
<path d="M564.794 208.161C565.729 208.196 566.648 207.911 567.398 207.352C568.149 206.793 568.687 205.995 568.922 205.088C569.157 204.182 569.077 203.223 568.693 202.369C568.309 201.515 567.646 200.818 566.812 200.393C565.26 199.616 563.467 199.903 561.798 200.284C562.642 201.43 563.368 202.658 563.964 203.95C564.515 205.248 565.058 206.77 564.794 208.161Z" fill="#A84350"/>
<path d="M564.383 206.235C565.086 206.16 565.768 205.951 566.393 205.621C566.759 205.459 567.06 205.179 567.248 204.825C567.436 204.471 567.5 204.065 567.429 203.671C567.358 203.276 567.157 202.917 566.858 202.651C566.559 202.385 566.179 202.227 565.78 202.203C564.937 202.075 564.077 202.13 563.257 202.366C564.114 203.464 564.516 204.848 564.383 206.235Z" fill="#D35E71"/>
<path d="M546.727 203.896C545.322 208.402 548.357 213.358 553.494 214.951C558.632 216.543 563.933 214.174 565.337 209.676C566.742 205.178 563.7 200.214 558.562 198.622C553.424 197.029 548.124 199.383 546.727 203.896Z" fill="#A84350"/>
<path d="M559.478 206.234C559.476 206.445 559.538 206.652 559.653 206.828C559.769 207.004 559.935 207.142 560.129 207.223C560.323 207.305 560.537 207.327 560.744 207.287C560.951 207.247 561.141 207.146 561.29 206.998C561.44 206.849 561.542 206.659 561.583 206.453C561.625 206.246 561.605 206.032 561.524 205.837C561.444 205.642 561.308 205.475 561.133 205.358C560.958 205.241 560.752 205.178 560.541 205.178C560.402 205.177 560.264 205.204 560.135 205.256C560.006 205.309 559.889 205.386 559.79 205.485C559.691 205.583 559.613 205.7 559.559 205.828C559.506 205.957 559.478 206.095 559.478 206.234Z" fill="#511B28"/>
<path d="M554.309 205.341C553.726 205.341 553.254 204.868 553.254 204.285C553.254 203.701 553.726 203.228 554.309 203.228C554.892 203.228 555.365 203.701 555.365 204.285C555.365 204.868 554.892 205.341 554.309 205.341Z" fill="#511B28"/>
<path d="M559.191 210.53C559.39 211.084 559.437 211.68 559.328 212.258C559.219 212.836 558.957 213.374 558.57 213.816C557.875 214.397 556.999 214.715 556.094 214.718C554.739 214.853 553.376 214.542 552.214 213.832C551.639 213.469 551.17 212.962 550.852 212.361C550.535 211.76 550.381 211.086 550.405 210.406C550.498 209.719 550.777 209.07 551.212 208.53C551.647 207.991 552.222 207.581 552.873 207.345C555.76 206.227 558.314 207.726 559.191 210.53Z" fill="#D35E71"/>
<path d="M557.724 208.122C557.64 208.251 557.525 208.356 557.389 208.428C557.253 208.5 557.102 208.537 556.948 208.534C556.592 208.557 556.237 208.462 555.941 208.262C555.645 208.062 555.423 207.77 555.31 207.431C555.078 206.654 555.955 206.32 556.56 206.553C557.165 206.786 558.104 207.423 557.724 208.122Z" fill="#511B28"/>
<path d="M546.121 214.842C546.391 216.737 546.929 218.584 547.72 220.326C548.203 221.224 548.359 222.262 548.162 223.263C547.98 223.736 547.661 224.144 547.247 224.436C546.832 224.728 546.341 224.89 545.834 224.902C545.33 224.908 544.83 224.815 544.363 224.627C543.895 224.439 543.469 224.16 543.11 223.807C542.394 223.092 541.825 222.245 541.434 221.313C540.109 218.416 539.677 215.189 540.192 212.045C540.354 210.718 540.85 209.453 541.635 208.371C542.035 207.836 542.561 207.41 543.167 207.132C543.773 206.854 544.439 206.732 545.105 206.778C546.455 206.949 547.984 208.456 547.27 209.823C546.381 211.338 545.98 213.091 546.121 214.842Z" fill="#A84350"/>
<path d="M573.005 195.102C574.122 195.835 575.381 196.325 576.699 196.539C576.766 196.551 576.83 196.579 576.883 196.621C576.937 196.662 576.98 196.716 577.009 196.778C577.037 196.84 577.05 196.908 577.046 196.976C577.042 197.044 577.022 197.11 576.987 197.169C576.802 197.48 576.552 197.748 576.255 197.954C575.958 198.16 575.62 198.301 575.264 198.365C574.785 198.443 574.294 198.402 573.835 198.244C573.376 198.087 572.963 197.819 572.633 197.464C572.415 197.162 572.278 196.809 572.235 196.44C572.192 196.07 572.243 195.695 572.384 195.351C572.398 195.286 572.428 195.226 572.471 195.176C572.513 195.125 572.568 195.086 572.629 195.062C572.69 195.037 572.756 195.028 572.822 195.035C572.888 195.042 572.951 195.065 573.005 195.102Z" fill="#F9DEE4"/>
</g>
<defs>
<linearGradient id="paint0_linear_2725_23349" x1="510.741" y1="321.013" x2="499.338" y2="322.854" gradientUnits="userSpaceOnUse">
<stop stop-color="#371A4F"/>
<stop offset="0.15" stop-color="#3D1D57"/>
<stop offset="0.45" stop-color="#44215F"/>
<stop offset="1" stop-color="#462261"/>
</linearGradient>
<linearGradient id="paint1_linear_2725_23349" x1="-4356.72" y1="4539.69" x2="-4573.72" y2="4539.69" gradientUnits="userSpaceOnUse">
<stop stop-color="#371A4F"/>
<stop offset="0.15" stop-color="#3D1D57"/>
<stop offset="0.45" stop-color="#44215F"/>
<stop offset="1" stop-color="#462261"/>
</linearGradient>
<linearGradient id="paint2_linear_2725_23349" x1="-8769.27" y1="11414.8" x2="-10313.7" y2="8873.78" gradientUnits="userSpaceOnUse">
<stop stop-color="#371A4F"/>
<stop offset="0.15" stop-color="#3D1D57"/>
<stop offset="0.45" stop-color="#44215F"/>
<stop offset="1" stop-color="#462261"/>
</linearGradient>
<clipPath id="clip0_2725_23349">
<rect width="689" height="330" fill="white" transform="matrix(-1 0 0 1 689 0)"/>
</clipPath>
</defs>
</svg>
