<svg width="620" height="329" fill="none" xmlns="http://www.w3.org/2000/svg"><g clip-path="url(#a)"><path d="M620 0H0v294.815h620V0z" fill="#F9EAD7"/><path d="M0 0v159.76l620 2.644V0H0z" fill="#E6F3FF"/><path d="M615.407 150.201H4.593V3.671h610.814V150.2zm-609.83-.984h608.846V4.658H5.577v144.559z" fill="#CFE5FF"/><path d="M459.381 0a83.33 83.33 0 0 0 5.366 37.358c-4.002-3.848-8.201-7.778-13.476-9.54-5.274-1.762-11.885-.718-15.007 3.874-2.562 3.77-2.169 8.75-1.578 13.27a318.13 318.13 0 0 0 6.419 34.313c-2.512-5.757-5.229-11.777-10.248-15.543-5.019-3.766-13.092-4.242-16.969.695-2.602 3.31-2.625 7.913-2.316 12.112 1.896 26.358 13.013 61.468 33.253 79.937 2.707 2.47 7.982 4.74 15.136 6.771H620V0H459.381z" fill="#CFE5FF"/><g opacity=".47" fill="#fff"><path opacity=".47" d="M620 316.577H0v.984h620v-.984zM620 300.198H0v.984h620v-.984zM620 283.819H0v.984h620v-.984zM620 267.44H0v.984h620v-.984zM620 251.064H0v.984h620v-.984zM620 234.685H0v.984h620v-.984zM620 218.306H0v.984h620v-.984zM620 201.927H0v.984h620v-.984zM620 185.547H0v.984h620v-.984zM620 169.171H0v.985h620v-.985z"/></g><path d="M603.152 279.997v-8.073a1.523 1.523 0 0 1 1.519-1.519h11.639a1.52 1.52 0 0 1 1.515 1.519v8.073a1.52 1.52 0 0 1-1.515 1.519h-11.639a1.52 1.52 0 0 1-1.519-1.519zm13.919-8.073a.762.762 0 0 0-.761-.764h-11.639a.765.765 0 0 0-.765.764v8.073a.769.769 0 0 0 .765.765h11.639a.766.766 0 0 0 .761-.765v-8.073z" fill="#F9DCB9"/><path d="M608.167 275.962a2.17 2.17 0 0 1 1.335-2.003 2.17 2.17 0 0 1 2.954 1.578 2.164 2.164 0 0 1-3.654 1.953 2.164 2.164 0 0 1-.635-1.528zm3.573 0a1.407 1.407 0 0 0-1.684-1.387 1.411 1.411 0 0 0 .273 2.795 1.417 1.417 0 0 0 1.411-1.408z" fill="#F9DCB9"/><path d="M620 292.748H0v35.294h620v-35.294z" fill="#FCB16D"/><path d="M620 328.042v-12.816c-58.634-3.231-128.497-5.108-203.504-5.108-148.052 0-276.087 7.309-337.228 17.924H620z" fill="#FFD878"/><path d="M105.508 148.252a.327.327 0 0 1-.328-.328c-.289-9.484 5.446-19.026 13.942-23.232a.33.33 0 0 1 .436.151.328.328 0 0 1-.147.44c-8.274 4.084-13.857 13.384-13.578 22.635 0 .087-.035.17-.096.232a.331.331 0 0 1-.232.096l.003.006z" fill="#CFE5FF"/><path d="M126.269 128.064c6.224-5.787 9.127-12.783 6.484-15.625-2.643-2.841-9.83-.453-16.054 5.334-6.224 5.788-9.127 12.783-6.484 15.625 2.643 2.842 9.83.454 16.054-5.334zM92.656 132.114c.571-2.601-3.578-5.723-9.267-6.973-5.689-1.249-10.764-.154-11.335 2.447-.572 2.602 3.577 5.723 9.266 6.973s10.764.154 11.336-2.447zM101.817 133.976c3.032-1.172 2.791-9.104-.538-17.718-3.329-8.613-8.485-14.646-11.517-13.474-3.032 1.171-2.79 9.104.538 17.717 3.329 8.614 8.485 14.647 11.517 13.475z" fill="#CFE5FF"/><path d="M102.903 148.751h-.019a.327.327 0 0 1-.305-.348c.439-6.676 0-12.429-1.358-17.59-1.601-6.104-4.537-11.366-8.49-15.217a.329.329 0 0 1 .456-.47c4.038 3.937 7.036 9.3 8.667 15.52 1.374 5.229 1.824 11.052 1.378 17.8a.329.329 0 0 1-.329.305z" fill="#CFE5FF"/><path d="M104.567 148.452a.325.325 0 0 1-.328-.239c-2.431-8.857-10.084-16.074-19.043-18.003a.335.335 0 1 1 .138-.656c9.185 1.968 17.058 9.392 19.538 18.469a.331.331 0 0 1-.115.346.326.326 0 0 1-.115.057.278.278 0 0 1-.075.026z" fill="#CFE5FF"/><path d="M113.929 145.054c0 6.856-2.431 12.793-5.964 15.624h-9.418c-3.533-2.837-5.963-8.768-5.963-15.624h21.345z" fill="#CFE5FF"/><path d="m266.82 186.2-.145-.292c.191-.095 19.109-9.316 33.097-6.797l-.056.328c-13.886-2.506-32.69 6.669-32.896 6.761zM327.16 191.577l-.121-.305c.21-.082 20.817-8.283 23.291-18.814l.328.076c-2.52 10.694-23.272 18.958-23.498 19.043z" fill="#FFEDE5"/><path d="M84.858 288.48c-2.523-32.83-10.497-65.054-23.619-94.207a1.64 1.64 0 0 1 .515-1.994c.6-.384 1.361-.115 1.683.607 13.328 29.579 21.405 62.282 23.947 95.594h-2.526z" fill="#8BB769"/><path d="M68.05 197.56c1.147-1.847 3.194-7.276 5.454-8.253a44.898 44.898 0 0 1 9.514-2.772 2.53 2.53 0 0 0 1.725-1.276c.265-.477.52-.963.764-1.457 1.234-2.506-.84-5.485-3.123-4.445-2.745 1.25-5.461 2.595-8.122 4.097-2.175 1.231-3.585-2.867-1.424-4.087a125.275 125.275 0 0 1 14.247-6.731 2.96 2.96 0 0 0 1.723-2.625 39.87 39.87 0 0 0 0-3.192c-.07-2.204-2.103-3.562-3.763-2.552-3.717 2.264-7.306 4.773-10.57 7.854a3.665 3.665 0 0 0-.328.328 36.127 36.127 0 0 0-2.71 3.608c-1.469 2.264-4.434-.423-2.971-2.68 4.517-6.968 10.599-11.875 17.097-16.074a3.264 3.264 0 0 0 1.266-3.49l-.016-.063c-.476-1.906-2.336-2.828-3.779-1.807-5.577 3.936-10.93 8.227-15.864 13.246-1.834 1.863-4.107-1.64-2.296-3.494 5.452-5.544 11.422-10.231 17.616-14.506l1.082-3.825a105.889 105.889 0 0 0-1.233-3.142c-.676-1.64-2.405-2.277-3.704-1.283-5.577 4.265-10.825 9.077-15.211 15.001-1.585 2.133-4.56-.544-2.972-2.683 4.828-6.505 10.576-11.727 16.68-16.366 1.175-.892 1.575-2.733.85-4.146a114.86 114.86 0 0 0-1.843-3.474c-.827-1.493-2.569-1.778-3.76-.686-5.62 5.154-10.704 10.963-14.302 18.226-1.218 2.46-4.173-.256-2.972-2.68 3.818-7.702 9.254-13.83 15.24-19.263a3.44 3.44 0 0 0 .492-4.32c-.437-.656-.885-1.312-1.345-1.968a2.324 2.324 0 0 0-3.707-.276c-4.441 4.744-8.4 9.992-10.841 16.465-.984 2.598-4.432.905-3.448-1.7 2.68-7.112 7-12.852 11.859-18.006a3.42 3.42 0 0 0 .095-4.379c-.207-.243-.417-.482-.623-.722a2.29 2.29 0 0 0-1.84-.838 2.297 2.297 0 0 0-1.79.94 98.747 98.747 0 0 0-10.319 15.569c-1.24 2.352-4.051-.132-3.06-2.471.008-.049.019-.099.032-.147 2.533-6.033 6.08-11.239 10.009-16.041a3.441 3.441 0 0 0-.344-4.557 51.68 51.68 0 0 0-1.158-1.014 2.324 2.324 0 0 0-3.609.657 73.767 73.767 0 0 0-6.295 13.272c-.919 2.585-4.635 1.847-3.638-2.313 1.437-5.99 4.123-10.914 7.62-15.575 1.191-1.722-1.289-3.963-2.296-2.355-2.51 4.005-5.012 8.529-6.65 13.121-.934 2.625-4.382.929-3.447-1.699.19-.541.41-1.069.62-1.601a.655.655 0 0 1 .03-.154c1.518-3.936 3.405-7.492 5.228-11.17.634-1.939-.613-2.65-1.476-2.916-.597-.18-1.37.44-1.66 1.082-1.138 2.526-3.237 7.545-3.28 7.654-.466 1.207-1.06 2.004-2.106 1.886-.984-.108-1.772-1.355-1.594-2.493.163-1.034.41-2.053.738-3.048.698-2.148-.925-4.402-2.848-4.067a16.07 16.07 0 0 0-4.353 1.407 17.711 17.711 0 0 0-3.936 2.624c-1.562 1.368-1.375 4.32.4 5.249.828.437 1.61.954 2.336 1.545.803.656.984 2.211.354 3.1-.656.958-1.758 1.125-2.625.42l-.328-.259-.095-.072c.089.072-.17-.119-.187-.128l-.308-.187c-.445-.26-.904-.494-1.375-.702a20.154 20.154 0 0 0-1.482-.584l-.38-.125a31.662 31.662 0 0 0-.82-.236c-.44-.125-.887-.21-1.33-.328-.655 1.223-.278 2.706-.836 4.077a52.1 52.1 0 0 1 9.513 3.333c.04.024.078.053.112.086.466.203.935.393 1.394.62 2.227 1.082.79 5.17-1.434 4.084a40.916 40.916 0 0 0-11.406-3.756c-1.823-.558-3.24 3.329-1.187 4.028 5.249.387 9.953 1.148 14.52 4.235 3.132 2.116.983 5.744-1.208 4.678a51.818 51.818 0 0 0-12.348-4.156c-1.374-.283-2.713.836-2.952 2.47-.085.61-.165 1.227-.24 1.85-.21 1.771.965 3.402 2.477 3.438 5.65.124 11.259.859 16.645 3.024.04.022.077.047.112.076 2.096.83 1.578 4.94-.7 4.307a71.726 71.726 0 0 0-16.588-2.428c-1.41-.052-2.605 1.283-2.625 2.953v1.033c0 1.722 1.224 3.117 2.674 3.025 6.512-.397 12.99.069 19.125 2.873 2.247 1.027.81 5.111-1.434 4.084-5.576-2.552-11.527-2.978-17.51-2.604-1.454.092-2.592 1.571-2.464 3.28.065.837.134 1.677.213 2.516.158 1.693 1.493 2.871 2.92 2.651 7.479-1.145 14.981-1.335 22.274.941 2.296.719 1.81 5.111-.515 4.383-6.89-2.149-13.939-2.024-20.995-.984-1.493.22-2.559 1.88-2.257 3.608.232 1.343.484 2.678.758 4.006.328 1.607 1.706 2.581 3.074 2.23 7.089-1.807 14.273-2.899 21.568-2.316 2.398.191 1.88 4.573-.511 4.383-6.643-.531-13.224.436-19.716 2.064-1.528.426-2.381 2.302-1.88 4.034.318 1.094.646 2.181.985 3.261l3.044 1.811c6.948-2.142 13.981-3.802 21.136-4.415 2.388-.207 2.864 4.182.456 4.392-6.489.558-12.853 1.968-19.138 3.845-1.64.485-2.402 2.69-1.604 4.441l.026.056c.57 1.257 1.817 1.814 2.972 1.421 7.118-2.441 14.352-4.039 21.7-2.868 2.381.381 1.876 4.767-.512 4.383a27.148 27.148 0 0 0-4.077-.305c-.14.001-.279.009-.417.026-4.15.542-8.201 1.759-12.17 3.254-1.778.657-2.415 3.33-1.149 4.954.626.805 1.261 1.555 1.906 2.25a2.22 2.22 0 0 0 2.792.437c4.593-2.625 9.274-5.115 14.106-7.122 2.257-.938 3.694 3.142 1.423 4.087-2.785 1.158-5.51 2.47-8.2 3.874-2.241 1.171-1.94 5.013.426 5.764.47.149.94.28 1.407.394a2.244 2.244 0 0 0 1.988-.535c2.654-2.241 5.344-4.537 8.398-5.974 4.163-1.932 12.807 5.61 18.413-3.405z" fill="#8BB769"/><path d="M14.352 105.364c.863.512 1.968.026 2.411-.984.443-1.011.079-2.26-.78-2.772-.86-.512-1.91-.092-2.34.928-.43 1.02-.15 2.32.709 2.828zM78.278 288.48H74.95c2.592-26.04 9.126-40.457 19.312-54.894a1.48 1.48 0 0 1 1.098-.691 1.47 1.47 0 0 1 1.218.445 2.206 2.206 0 0 1 .207 2.745c-9.7 13.749-15.96 27.556-18.508 52.395z" fill="#8BB769"/><path d="M81.213 288.48c-2.128-11.849-7.905-21.978-15.824-27.519a1.639 1.639 0 0 1-.44-2.024 1.136 1.136 0 0 1 .73-.667 1.138 1.138 0 0 1 .977.149c8.653 6.049 14.925 17.146 17.106 30.061h-2.549zM94.296 246.032c1.68.344 6.101.121 7.64 1.847a52.443 52.443 0 0 1 5.577 7.791 2.195 2.195 0 0 0 1.528 1.108c.42.063.843.109 1.27.141 2.152.164 3.32-2.952 1.729-4.668a106.311 106.311 0 0 0-5.922-5.973c-1.673-1.549.499-4.475 2.162-2.936A129.961 129.961 0 0 1 118.361 254a1.97 1.97 0 0 0 2.434.571 26.81 26.81 0 0 0 2.129-1.244c1.443-.931 1.545-3.365.22-4.517-2.969-2.581-6.049-4.947-9.382-6.784a3.678 3.678 0 0 0-.328-.16 24.352 24.352 0 0 0-3.477-1.106c-2.087-.482-1.464-4.31.613-3.831 6.413 1.479 12.072 5.229 17.432 9.641a1.995 1.995 0 0 0 1.45.497 1.984 1.984 0 0 0 1.371-.684l.033-.04c1.083-1.197.965-3.296-.282-4.244-4.803-3.655-9.776-6.968-15.057-9.606-1.968-.984-.518-4.484 1.427-3.513 5.832 2.91 11.301 6.643 16.579 10.747l2.972-.492a81.613 81.613 0 0 0 1.608-2.388c.83-1.28.567-3.143-.604-3.963-5.032-3.527-10.297-6.535-15.966-8.313-2.044-.656-1.433-4.471.614-3.828 6.232 1.952 11.967 5.249 17.455 9.143 1.056.747 2.44.396 3.096-.837a102.032 102.032 0 0 0 1.585-3.09c.656-1.358.174-3.097-1.02-3.779-5.639-3.222-11.508-5.685-17.757-6.187-2.116-.171-1.47-3.999.613-3.832 6.63.535 12.846 3.202 18.817 6.656 1.138.656 2.532.125 3.07-1.236.266-.676.522-1.352.774-2.031.519-1.391-.078-3.005-1.272-3.569-4.905-2.296-9.97-3.937-15.235-3.674-2.119.105-2.345-3.782-.226-3.891 5.787-.292 11.308 1.486 16.648 3.996 1.191.558 2.552-.194 2.952-1.64l.237-.866c.377-1.404-.305-2.92-1.493-3.35a64.014 64.014 0 0 0-14.434-3.513c-2.053-.233-1.506-3.838.44-3.828a.424.424 0 0 1 .111-.03c5.013 0 9.871 1.253 14.615 3.038 1.295.485 2.647-.532 2.896-2.113.079-.495.151-.984.22-1.479.203-1.467-.607-2.887-1.844-3.117a43.639 43.639 0 0 0-11.311-.656c-2.083.158-3.054-3.608.109-4.307 4.553-1.017 9.218-.469 13.695.965.04-1.05.348-2.018.329-3.035-3.655-.771-7.641-1.335-11.354-1.05-2.116.161-2.342-3.726-.223-3.887.436-.036.873-.039 1.312-.052a.459.459 0 0 1 .115-.033c3.218-.128 6.325.233 9.49.492-.102-.961 1.129-1.614.965-2.526-.112-.63-.437-1.109-.985-1.125-2.125-.069-6.288-.089-6.383-.056-.886.299-1.752-.203-2.087-1.227-.308-.951.207-2.188 1.037-2.47a10.988 10.988 0 0 1 2.316-.508c1.706-.194 2.565-2.595 1.588-4.265a18.503 18.503 0 0 0-2.651-3.51 16.347 16.347 0 0 0-3.297-2.624c-1.528-.919-3.418.416-3.346 2.444.035.93-.002 1.863-.111 2.788-.122 1.014-1.086 1.784-1.923 1.551-.902-.252-1.44-1.2-1.312-2.296.017-.134.03-.272.043-.407v-.705c0-.518-.03-1.04-.076-1.558a25.371 25.371 0 0 0-.193-1.614c0-.098-.062-.381-.072-.446a72.816 72.816 0 0 0-.164-.86c-.092-.459-.21-.912-.328-1.368-1.073-.128-1.913.804-3.041.824a71.969 71.969 0 0 1 1.522 10.202.665.665 0 0 1 0 .141c.046.512.105 1.027.134 1.545.155 2.503-3.129 2.772-3.28.266a56.139 56.139 0 0 0-1.985-12.138c-.347-1.925-3.49-1.722-3.146.473 1.808 5.058 3.15 9.746 2.89 15.224-.177 3.759-3.437 3.179-3.588.715a71.418 71.418 0 0 0-2.09-13.167c-.354-1.395-1.624-2.205-2.801-1.775-.44.161-.883.328-1.313.502-1.263.498-1.886 2.24-1.312 3.667 2.136 5.321 3.855 10.852 4.53 16.73a.509.509 0 0 1 0 .135c.273 2.296-2.667 3.418-3.142 1.04a98.615 98.615 0 0 0-4.921-16.445c-.518-1.338-1.88-1.932-3.001-1.312l-.693.397c-1.151.656-1.594 2.365-.964 3.687 2.828 5.924 5.065 12.161 5.609 18.99.201 2.503-3.08 2.766-3.28.269-.499-6.232-2.552-11.937-5.153-17.386-.634-1.312-2.064-1.804-3.16-1.007-.531.39-1.062.784-1.591 1.188-1.066.813-1.312 2.525-.616 3.772 3.703 6.535 6.784 13.466 8.135 21.172.423 2.424-2.69 3.7-3.119 1.243-1.273-7.266-4.137-13.814-7.598-20.01-.735-1.313-2.257-1.641-3.3-.683-.8.744-1.59 1.504-2.368 2.28a3.057 3.057 0 0 0-.276 3.75c3.989 5.904 7.545 12.19 10.025 19.233.817 2.316-2.296 3.556-3.12 1.246-2.257-6.413-5.491-12.177-9.126-17.602a2.042 2.042 0 0 0-1.653-.989 2.045 2.045 0 0 0-1.742.821 71.16 71.16 0 0 0-1.778 2.211v3.553c4.153 5.636 8.02 11.547 11.252 17.993 1.076 2.149-1.66 4.32-2.746 2.152a119.037 119.037 0 0 0-10.087-16.359c-.962-1.332-2.736-1.185-3.59.249l-.025.046a3.04 3.04 0 0 0 .226 3.333c4.422 5.688 8.332 11.809 10.442 19.141.685 2.375-2.434 3.608-3.12 1.243a36.225 36.225 0 0 0-1.4-3.936 3.903 3.903 0 0 0-.181-.377 64.896 64.896 0 0 0-6.952-10.084c-1.144-1.398-3.165-.948-3.749.872a39.004 39.004 0 0 0-.748 2.667 2.905 2.905 0 0 0 .81 2.779 128.624 128.624 0 0 1 10.288 10.379c1.515 1.739-.64 4.688-2.162 2.936a106.249 106.249 0 0 0-5.803-6.135c-1.66-1.64-4.097.165-3.668 2.667.086.493.184.985.292 1.47a2.6 2.6 0 0 0 1.135 1.64c2.546 1.588 5.118 3.186 7.276 5.492 2.946 3.198 1.332 14.25 9.54 15.933z" fill="#8BB769"/><path d="M134.54 159.629c0 1.003.761 1.86 1.611 1.86.849 0 1.535-.817 1.535-1.821s-.686-1.817-1.535-1.817a1.712 1.712 0 0 0-1.611 1.778zM68.56 266.58c-.832.345-3.096.676-3.755 1.71a28.78 28.78 0 0 0-2.297 4.527 1.247 1.247 0 0 1-.698.718c-.21.072-.423.141-.637.2-1.082.299-1.902-1.165-1.213-2.201a59.905 59.905 0 0 1 2.585-3.638c.738-.955-.578-2.228-1.313-1.276a73.444 73.444 0 0 0-4.366 6.439 1.058 1.058 0 0 1-1.197.535 13.243 13.243 0 0 1-1.171-.417c-.804-.328-1.03-1.558-.437-2.276a30.728 30.728 0 0 1 4.288-4.399c.053-.041.107-.08.164-.115a13.07 13.07 0 0 1 1.69-.915c1.026-.453.436-2.339-.588-1.887-3.159 1.398-5.77 3.878-8.181 6.663a1.027 1.027 0 0 1-1.447.187h-.023a1.558 1.558 0 0 1-.16-2.188 53.32 53.32 0 0 1 6.974-6.403c.928-.696-.06-2.336-.984-1.641a56.058 56.058 0 0 0-7.667 7.142l-1.545.01a36.202 36.202 0 0 1-.984-1.053 1.563 1.563 0 0 1 .023-2.077c2.296-2.296 4.77-4.363 7.529-5.836.984-.531.406-2.421-.588-1.889-3.03 1.62-5.714 3.884-8.227 6.41a1.057 1.057 0 0 1-1.64-.115 55.405 55.405 0 0 1-1.027-1.411 1.567 1.567 0 0 1 .246-2.027c2.624-2.208 5.449-4.051 8.595-4.921 1.063-.298.462-2.181-.587-1.886-3.34.935-6.292 2.92-9.09 5.291a1.066 1.066 0 0 1-.9.235 1.049 1.049 0 0 1-.74-.563 84.37 84.37 0 0 1-.542-.954 1.55 1.55 0 0 1 .394-1.946c2.329-1.669 4.79-3.008 7.489-3.405 1.086-.157.922-2.158-.164-2.001-2.953.437-5.65 1.896-8.201 3.71a1.071 1.071 0 0 1-1.617-.534c-.063-.141-.122-.279-.184-.417a1.502 1.502 0 0 1 .521-1.853 34.603 34.603 0 0 1 7.09-3.241c1.026-.328.488-2.106-.503-1.906a.26.26 0 0 0-.055 0c-2.552.502-4.92 1.64-7.217 3.018-.627.377-1.388 0-1.64-.784a30.69 30.69 0 0 1-.217-.732c-.21-.725.102-1.529.715-1.771a22.986 22.986 0 0 1 5.708-1.473c1.07-.131 1.312-2.142-.364-2.182-2.388-.059-4.724.689-6.889 1.87-.095-.531-.328-.984-.387-1.512 1.804-.758 3.792-1.447 5.701-1.676 1.09-.132.925-2.133-.164-2.001-.226.026-.449.068-.672.105a.29.29 0 0 0-.06 0 41.29 41.29 0 0 0-4.802 1.19c0-.498-.689-.705-.656-1.187 0-.328.145-.607.42-.656 1.076-.25 3.192-.676 3.245-.656a.892.892 0 0 0 .89-.489.89.89 0 0 0 .094-.345c.091-.515-.26-1.092-.702-1.154a5.827 5.827 0 0 0-1.218-.027c-.879.076-1.489-1.059-1.111-2.007.287-.723.654-1.412 1.095-2.054a9.314 9.314 0 0 1 1.49-1.669c.711-.624 1.77-.132 1.88.905.047.476.132.948.255 1.411a.826.826 0 0 0 .744.642.812.812 0 0 0 .345-.049 1.087 1.087 0 0 0 .505-1.292c-.02-.066-.036-.135-.052-.204a.58.58 0 0 1 0-.059c0 .059-.02-.101-.02-.111 0-.062-.02-.122-.026-.184a8.168 8.168 0 0 1-.076-.8 7.198 7.198 0 0 1 0-.84v-.236c0-.151 0-.302.023-.453 0-.243.04-.485.063-.728.534-.174 1.03.216 1.607.111a37.777 37.777 0 0 0-.046 5.347v.069c0 .266.02.535.043.801.102 1.289 1.791 1.095 1.69-.194a29.568 29.568 0 0 1 .14-6.374c.04-1.013 1.64-1.227 1.64-.075-.557 2.755-.905 5.278-.38 8.04.36 1.893 1.968 1.273 1.876 0a37.39 37.39 0 0 1 .118-6.908c.082-.748.657-1.286 1.313-1.188.236.036.472.079.712.125.679.124 1.121.948.931 1.732a34.407 34.407 0 0 0-1.105 8.972.235.235 0 0 0 0 .069c.023 1.187 1.6 1.469 1.673.213a52.656 52.656 0 0 1 1.312-8.857c.167-.735.817-1.171 1.433-.961l.38.131c.634.22.985 1.043.755 1.778-1.013 3.3-1.705 6.698-1.492 10.231.079 1.293 1.768 1.096 1.69-.196-.194-3.212.442-6.332 1.377-9.363.226-.738.919-1.125 1.535-.83.299.145.597.292.892.443a1.503 1.503 0 0 1 .584 1.857c-1.413 3.7-2.483 7.545-2.624 11.596-.043 1.276 1.64 1.611 1.676.328.125-3.825 1.113-7.446 2.431-10.94.279-.741 1.03-1.069 1.64-.679.46.299.919.607 1.368.922a1.539 1.539 0 0 1 .41 1.879 46.35 46.35 0 0 0-3.723 10.8c-.25 1.259 1.43 1.574 1.676.328a43.104 43.104 0 0 1 3.386-9.878 1.073 1.073 0 0 1 1.716-.426c.357.308.715.623 1.062.945l.26 1.81a68.456 68.456 0 0 0-4.472 10.222c-.393 1.201 1.155 2.031 1.552.82a65.757 65.757 0 0 1 3.96-9.342 1.074 1.074 0 0 1 1.843-.233l.016.019a1.575 1.575 0 0 1 .125 1.719c-1.843 3.34-3.392 6.853-3.936 10.793-.178 1.276 1.495 1.601 1.676.328.104-.72.248-1.434.43-2.139.02-.072.039-.141.065-.21a36.11 36.11 0 0 1 2.815-5.832 1.087 1.087 0 0 1 1.005-.6 1.083 1.083 0 0 1 .963.665c.21.43.4.856.57 1.283a1.547 1.547 0 0 1-.212 1.496 71.949 71.949 0 0 0-4.475 6.318c-.656 1.036.656 2.319 1.312 1.276a60.12 60.12 0 0 1 2.513-3.707c.728-.984 2.096-.328 2.057.984 0 .263-.023.522-.043.778a1.43 1.43 0 0 1-.459.951c-1.181 1.063-2.378 2.136-3.31 3.526-1.28 1.883.335 7.345-3.71 9.031z" fill="#8BB769"/><path d="M41.875 226.654a.984.984 0 0 1-.69 1.109.815.815 0 0 1-.912-.771.933.933 0 0 1 .657-1.082.834.834 0 0 1 .632.169.834.834 0 0 1 .313.575zM153.025 178.098c0 1.007.765 1.86 1.614 1.86.85 0 1.535-.814 1.535-1.818s-.689-1.82-1.535-1.82a1.717 1.717 0 0 0-1.614 1.778zM153.829 185.967c0 .843.587 1.562 1.243 1.562.656 0 1.188-.683 1.188-1.529 0-.846-.532-1.525-1.188-1.525-.656 0-1.243.649-1.243 1.492z" fill="#8BB769"/><path d="M43.42 279.853h78.11v14.26a27.47 27.47 0 0 1-27.47 27.47H70.887a27.469 27.469 0 0 1-27.47-27.47v-14.26h.003z" fill="#FC8663"/><path d="M62.522 296.291a11.813 11.813 0 0 1-3.28-.449c-2.202-.633-4.265-1.942-6.234-3.209-3.175-2.024-6.173-3.936-9.513-3.047l-.167-.636c3.625-.965 6.889 1.118 10.038 3.132 1.945 1.24 3.953 2.523 6.062 3.13 5.728 1.64 11.865-1.883 16.35-4.462 5.576-3.195 11.481-5.855 16.963-3.693 1.847.725 3.444 1.968 4.99 3.155 1.84 1.421 3.575 2.763 5.701 3.337 2.821.767 5.836 0 8.749-.752 3.113-.797 6.331-1.623 9.405-.629l-.204.626c-2.89-.938-5.878-.17-9.041.656-2.995.768-6.091 1.562-9.083.748-2.247-.61-4.117-2.053-5.928-3.451-1.509-1.168-3.07-2.372-4.829-3.064-5.248-2.06-10.976.538-16.402 3.655-3.743 2.142-8.637 4.953-13.577 4.953z" fill="#DB6B52"/><path d="M118.446 325.792h-.049a.493.493 0 0 1-.443-.538l19.591-207.651a.495.495 0 0 1 .984.092l-19.594 207.651a.497.497 0 0 1-.489.446zM339.668 295.166a.49.49 0 0 1-.485-.42l-12.404-86.334a.507.507 0 0 1 .095-.369.493.493 0 0 1 .521-.183.489.489 0 0 1 .304.228.514.514 0 0 1 .065.183l12.4 86.334a.494.494 0 0 1-.417.558l-.079.003zM181.079 326.149a.49.49 0 0 1-.488-.446l-10.763-114.837a.498.498 0 0 1 .111-.362.5.5 0 0 1 .527-.157.515.515 0 0 1 .291.242c.03.057.049.12.055.185l10.75 114.838a.487.487 0 0 1-.443.534l-.04.003z" fill="#9595BC"/><path d="M146.776 209.481 123.177 74.984c-.83-4.737 2.329-8.578 7.056-8.578h182.342c4.73 0 9.238 3.84 10.068 8.578l23.599 134.497c.833 4.737-2.326 8.578-7.056 8.578H156.844c-4.728 0-9.225-3.847-10.068-8.578z" fill="#fff"/><path d="M314.816 126.834h-17.121l1.03 5.82h27.228l7.056 39.814h-79.511l2.063 11.639H155.279l-15.572-87.915h100.279l6.459 36.445h30.879l-1.03-5.819h-18.65l-5.698-32.148h57.171l5.699 32.164zm-55.663-1.85h18.65l1.689 9.513h-34.556l-6.449-36.449h-96.622l14.939 84.222h96.595l-2.06-11.639h79.492l-6.397-36.134h-27.228l-1.673-9.513h17.124L307.612 96.5h-53.507l5.048 28.484z" fill="#F9EAD7"/><path d="M184.563 114.28a.74.74 0 0 0-.604.273.748.748 0 0 0-.15.646l12.006 67.76a1.148 1.148 0 0 0 1.079.918.742.742 0 0 0 .755-.918l-12.007-67.76a1.135 1.135 0 0 0-1.079-.919zM250.913 162.975a.742.742 0 0 0-.755.918l1.313 7.352c.05.252.184.48.379.647.196.166.443.262.7.271a.742.742 0 0 0 .754-.918l-1.312-7.352a1.143 1.143 0 0 0-1.079-.918zM245.559 132.769a.739.739 0 0 0-.602.274.744.744 0 0 0-.152.644l1.312 7.352a1.146 1.146 0 0 0 1.083.918.742.742 0 0 0 .604-.273.74.74 0 0 0 .15-.645l-1.312-7.352a1.145 1.145 0 0 0-1.083-.918zM274.539 95.31a.743.743 0 0 0-.752.918l.732 4.13a1.143 1.143 0 0 0 1.079.918.734.734 0 0 0 .333-.067.74.74 0 0 0 .421-.511.765.765 0 0 0 .001-.34l-.732-4.13a1.144 1.144 0 0 0-1.082-.919zM257.572 95.31a.746.746 0 0 0-.754.918l.731 4.13a1.144 1.144 0 0 0 1.08.919.753.753 0 0 0 .604-.273.75.75 0 0 0 .15-.646l-.731-4.13a1.146 1.146 0 0 0-1.08-.918z" fill="#F9EAD7"/><path d="m170.395 101.749-1.535 1.998 15.536 12.633 1.538-1.998-15.539-12.633zM261.164 149.755l-11.061 12.633 2.247 2.001 11.061-12.633-2.247-2.001zM287.286 112.545l-11.061 12.633 2.244 1.997 11.061-12.633-2.244-1.997zM308.333 169.408a.372.372 0 0 0-.377.459l.243 1.378a.574.574 0 0 0 .541.459.367.367 0 0 0 .302-.136.374.374 0 0 0 .075-.323l-.242-1.378a.58.58 0 0 0-.542-.459zM304.062 142.718l.483 2.716a.375.375 0 0 1-.378.459.575.575 0 0 1-.541-.459l-.479-2.716a.375.375 0 0 1 .377-.459.573.573 0 0 1 .538.459zm.965 5.429.479 2.716a.38.38 0 0 1-.075.323.38.38 0 0 1-.302.137.566.566 0 0 1-.349-.137.562.562 0 0 1-.189-.323l-.496-2.716a.375.375 0 0 1 .377-.459.573.573 0 0 1 .555.459zm.961 5.429.479 2.716a.38.38 0 0 1-.075.323.38.38 0 0 1-.302.137.568.568 0 0 1-.538-.46l-.473-2.716a.375.375 0 0 1 .378-.459.574.574 0 0 1 .531.459zm.961 5.433.482 2.713a.371.371 0 0 1-.076.321.392.392 0 0 1-.135.104.395.395 0 0 1-.166.034.583.583 0 0 1-.541-.459l-.482-2.713a.375.375 0 0 1 .211-.425.381.381 0 0 1 .166-.035.583.583 0 0 1 .541.46zm.961 5.425.483 2.717a.375.375 0 0 1-.378.459.576.576 0 0 1-.541-.459l-.479-2.717a.375.375 0 0 1 .377-.459.573.573 0 0 1 .538.459zM302.799 138.168a.372.372 0 0 0-.377.459l.243 1.378a.577.577 0 0 0 .541.459.39.39 0 0 0 .301-.137.374.374 0 0 0 .077-.322l-.247-1.378a.568.568 0 0 0-.538-.459zM213.765 97.051l.489 2.756a.377.377 0 0 1-.21.426.37.37 0 0 1-.167.033.575.575 0 0 1-.541-.46l-.486-2.755a.376.376 0 0 1 .21-.426.376.376 0 0 1 .167-.033.569.569 0 0 1 .538.46zm.985 5.515.488 2.755a.362.362 0 0 1-.075.323.363.363 0 0 1-.302.136.575.575 0 0 1-.541-.459l-.489-2.755a.38.38 0 0 1 .21-.429.387.387 0 0 1 .167-.034.577.577 0 0 1 .535.463h.007zm.984 5.511.489 2.755a.375.375 0 0 1-.077.322.378.378 0 0 1-.301.138.583.583 0 0 1-.541-.46l-.489-2.755a.375.375 0 0 1 .377-.459.574.574 0 0 1 .529.459h.013zm.984 5.514.489 2.756a.375.375 0 0 1-.378.459.57.57 0 0 1-.538-.459l-.488-2.756a.362.362 0 0 1 .075-.323.367.367 0 0 1 .302-.136.565.565 0 0 1 .515.459h.023zm25.745 5.511a.375.375 0 0 1-.077.322.385.385 0 0 1-.301.138h-2.752a.583.583 0 0 1-.541-.46.375.375 0 0 1 .377-.459h2.752a.579.579 0 0 1 .519.459h.023zm-5.505 0a.38.38 0 0 1-.075.323.372.372 0 0 1-.302.137h-2.752a.583.583 0 0 1-.542-.46.374.374 0 0 1 .378-.459h2.752a.579.579 0 0 1 .518.459h.023zm-5.504 0a.38.38 0 0 1-.076.323.38.38 0 0 1-.302.137h-2.759a.58.58 0 0 1-.538-.46.375.375 0 0 1 .378-.459h2.752a.578.578 0 0 1 .339.141.578.578 0 0 1 .183.318h.023zm-5.502 0a.375.375 0 0 1-.211.425.381.381 0 0 1-.166.035h-2.752a.583.583 0 0 1-.542-.46.374.374 0 0 1 .378-.459h2.752a.58.58 0 0 1 .518.459h.023zm-5.504 0a.38.38 0 0 1-.075.323.375.375 0 0 1-.303.137h-2.775a.565.565 0 0 1-.348-.137.568.568 0 0 1-.19-.323.375.375 0 0 1 .377-.459h2.749a.574.574 0 0 1 .542.459h.023zM252.616 170.936a.38.38 0 0 1-.076.323.38.38 0 0 1-.302.137h-2.444a.578.578 0 0 1-.541-.46.376.376 0 0 1 .211-.425.38.38 0 0 1 .166-.034h2.448a.57.57 0 0 1 .538.459zm-5.197 0a.38.38 0 0 1 .001.171.376.376 0 0 1-.378.289h-2.752a.568.568 0 0 1-.538-.46.375.375 0 0 1 .377-.459h2.752a.573.573 0 0 1 .538.459zm-5.501 0a.38.38 0 0 1-.075.323.38.38 0 0 1-.302.137h-2.752a.58.58 0 0 1-.351-.136.581.581 0 0 1-.191-.324.375.375 0 0 1 .378-.459h2.752a.574.574 0 0 1 .541.459zm-5.504 0a.38.38 0 0 1-.076.323.38.38 0 0 1-.302.137h-2.752a.576.576 0 0 1-.541-.46.371.371 0 0 1 .076-.321.38.38 0 0 1 .301-.138h2.742a.58.58 0 0 1 .552.459zm-5.505 0a.38.38 0 0 1-.075.323.38.38 0 0 1-.302.137h-2.753a.565.565 0 0 1-.348-.137.568.568 0 0 1-.19-.323.375.375 0 0 1 .378-.459h2.752a.575.575 0 0 1 .538.459zm-5.501 0a.38.38 0 0 1-.075.323.375.375 0 0 1-.303.137h-2.752a.578.578 0 0 1-.541-.46.371.371 0 0 1 .077-.321.368.368 0 0 1 .3-.138h2.752a.574.574 0 0 1 .542.459zm-5.505 0a.38.38 0 0 1-.075.323.372.372 0 0 1-.302.137h-2.752a.568.568 0 0 1-.538-.46.362.362 0 0 1 .075-.323.372.372 0 0 1 .302-.136h2.749a.576.576 0 0 1 .541.459zm-5.504 0a.38.38 0 0 1-.074.325.364.364 0 0 1-.136.103.387.387 0 0 1-.168.032h-2.762a.578.578 0 0 1-.541-.46.375.375 0 0 1 .377-.459h2.752a.573.573 0 0 1 .552.459zm-5.502 0a.364.364 0 0 1-.075.323.372.372 0 0 1-.302.137h-2.752a.576.576 0 0 1-.541-.46.374.374 0 0 1 .377-.459h2.752a.573.573 0 0 1 .541.459zm-5.504 0a.38.38 0 0 1-.075.323.38.38 0 0 1-.302.137h-2.753a.57.57 0 0 1-.538-.46.375.375 0 0 1 .378-.459h2.752a.572.572 0 0 1 .531.459h.007zm-5.501 0a.38.38 0 0 1-.076.323.38.38 0 0 1-.302.137h-2.752a.576.576 0 0 1-.541-.46.371.371 0 0 1 .076-.321.38.38 0 0 1 .301-.138h2.752a.58.58 0 0 1 .542.459z" fill="#F9EAD7"/><path d="M329.794 234.268h-202.73a.492.492 0 1 1 0-.984h202.73a.492.492 0 1 1 0 .984z" fill="#9595BC"/><path d="M467.907 146.91h24.426V44.6h-24.426v102.31z" fill="#fff"/><path d="M560.346 72.1h-23.475V175.29h23.475V72.1z" fill="#F9DCB9"/><path d="M569.383 116.842h-9.06v58.241h9.06v-58.241z" fill="#F9DCB9"/><path d="M528.817 86.606h-51.63v88.966h51.63V86.606z" fill="#fff"/><path d="M504.211 138.982h-41.432v37.239h41.432v-37.239z" fill="#FFF7EE"/><path d="M533.725 149.328a.083.083 0 0 1-.026.036.08.08 0 0 1-.04.017c.023-.05.04-.053.066-.053z" fill="#fff"/><path d="M517.103 161.489h-36.629v13.266h36.629v-13.266z" fill="#F9DCB9"/><path d="M493.067 122.694h-32.758v53.13h32.758v-53.13z" fill="#F9DCB9"/><path d="M539.19 108.7h-19.256v66.744h19.256V108.7z" fill="#fff"/><path d="M573.461 173.863H458.052a1.872 1.872 0 0 0-1.804 1.925v3.655a1.873 1.873 0 0 0 1.804 1.925h115.409a1.87 1.87 0 0 0 1.804-1.925v-3.642a1.875 1.875 0 0 0-1.804-1.938z" fill="#9595BC"/><path d="M515.797 325.815a.495.495 0 0 1-.492-.492l-.039-147.695a.495.495 0 0 1 .492-.492.494.494 0 0 1 .492.492l.043 147.695a.49.49 0 0 1-.496.492z" fill="#9595BC"/><path d="M542.556 325.815h-50.998a.497.497 0 0 1-.313-.822.5.5 0 0 1 .313-.162h50.998a.495.495 0 0 1 0 .984z" fill="#9595BC"/><path d="M403.672 189.904h-4.917l-18.705-53.52h4.917l18.705 53.52z" fill="#fff"/><path d="M270.838 99.351a2.929 2.929 0 0 1-.203 1.03 7.722 7.722 0 0 0-.187-1.404c.138.116.268.241.39.374z" fill="#000543"/><path d="M271.078 96.412c-.627-.633-3.281-2.933-6.495-3.658a14.366 14.366 0 0 0-6.683.302 1.97 1.97 0 0 0-.751.613c-1.929 1.562-3.995 9.366-4.136 11.482l-2.989-.889-4.504 21.651 16.15 1.725 1.046-11.652c3.969.61 7.873-3.484 9.218-7.574l2.952-8.5.85-2.644c.016-.443-4.602-.41-4.658-.856z" fill="#FD9783"/><path d="m251.133 108.48 5.216 1.706a4.82 4.82 0 0 0 5.993-2.762l.033-.092c.541-1.597-.109-3.713 1.312-4.756 1.063-.781 2.181.744 3.067-.296.984-1.135 2.683-5.12 6.006-4.92a1.31 1.31 0 0 0 1.408-1.335c0-.657-.136-1.306-.4-1.906-.693-1.352-4.76-2.726-6.233-3.409-4.403-2.014-9.615-2.326-13.939-.833-1.568.541-2.053 0-3.024 1.21-.971 1.211-1.476 4.265-1.545 5.67-.161 3.21.397 7.757.518 9.637v.026a2.322 2.322 0 0 0 1.588 2.06z" fill="#603B57"/><path d="M267.509 105.63c-.466 2.877-2.165 4.618-3.799 3.89-1.634-.728-2.582-3.651-2.119-6.528.462-2.877 2.155-4.635 3.795-3.907 1.64.729 2.585 3.651 2.123 6.545z" fill="#FD9783"/><path d="M264.56 104.938a.33.33 0 0 1-.256-.32.33.33 0 0 1 .256-.32.458.458 0 0 0 .275-.581.336.336 0 0 1 .169-.441.334.334 0 0 1 .441.169 1.125 1.125 0 0 1-.02.904 1.126 1.126 0 0 1-.685.592.324.324 0 0 1-.18-.003zM263.858 109.061a1.899 1.899 0 0 1-.88-.213c-.787-.41-1.345-1.401-1.574-2.792a.164.164 0 0 1 .257-.158c.035.025.06.063.068.106.21 1.286.708 2.191 1.4 2.552.506.262 1.109.229 1.798-.099a.162.162 0 0 1 .224.201.164.164 0 0 1-.083.095 2.803 2.803 0 0 1-1.21.308z" fill="#FF7664"/><path d="M273.63 100.076a.28.28 0 0 0-.21.26.285.285 0 0 0 .19.275.35.35 0 0 0 .151 0c.31-.056.629-.034.929.062l.17-.532a2.474 2.474 0 0 0-1.23-.065z" fill="#603B57"/><path d="M262.762 116.186h-.026a1.02 1.02 0 0 1-.428-.202 1.018 1.018 0 0 1-.288-.375 2.08 2.08 0 0 1-.183-.837.15.15 0 0 1 .008-.063.165.165 0 0 1 .146-.111.17.17 0 0 1 .118.042.173.173 0 0 1 .056.112c.002.245.052.487.147.712a.7.7 0 0 0 .476.397.169.169 0 0 1 .135.191.16.16 0 0 1-.161.134z" fill="#FF7664"/><path d="M276.261 96.56c.502-4.77-.259-8.582-4.727-11.899-2.539-1.886-6.387-4.806-13.365-3.635-5.199.876-7.072.985-9.769 5.627-3.313 8.394-1.374 12.413.168 18.37.59 2.28 1.489 4.638 3.519 5.701.544.28 1.103.527 1.677.738 2.828 1.053 7.259-.538 8.201-3.405.033-.101-1.273-.216-1.24-.308-.223-.469-1.509-.486-1.64-.984-.46-1.542 1.453 0 1.397-1.601-.039-1.234-.656-2.392-.718-3.625-.125-2.47 2.145-4.593 4.592-4.97a13.276 13.276 0 0 1 3.382.072c5.393.568 8.29 2.142 8.523-.082z" fill="#603B57"/><path d="M272.029 106.207a1.456 1.456 0 0 1-1.272.994 1.456 1.456 0 0 1-1.405-.794 1.457 1.457 0 0 1 .906-2.055 1.45 1.45 0 0 1 1.84 1.291c.015.191-.009.383-.069.564z" fill="#FF7664"/><path d="M275.661 181.437h97.947c1.774 0 3.9-1.279 4.75-2.861l33.932-63.187c.847-1.581.095-2.861-1.679-2.861h-97.95c-1.775 0-3.901 1.28-4.747 2.861l-33.933 63.187c-.846 1.582-.095 2.861 1.68 2.861z" fill="#fff"/><path d="m352.626 159.563-16.189 30.134H332.5l14.329-26.66c1.034-1.913 3.628-3.474 5.797-3.474z" fill="#6A79B4"/><path d="m332.514 189.697 16.54-30.787h-34.553l-16.54 30.787h34.553z" fill="#ADB6D9"/><path d="M272.83 181.263h97.858c1.775 0 3.897-1.276 4.743-2.851l33.861-63.03c.846-1.571.095-2.85-1.68-2.85h-97.858c-1.775 0-3.897 1.279-4.743 2.85l-33.861 63.03c-.843 1.575-.092 2.851 1.68 2.851z" fill="#8B9CC4"/><path d="M276.717 178.035h93.266c1.689 0 3.697-1.178 4.484-2.624l31.515-58.064c.787-1.45.056-2.624-1.64-2.624h-93.256c-1.693 0-3.7 1.178-4.488 2.624l-31.515 58.064c-.787 1.446-.056 2.624 1.634 2.624z" fill="#7AADEA"/><path d="M317.066 120.821h27.031l-8.529 15.349h-8.805l-1.542 2.779h14.601l9.651-17.386h47.412l-23.291 41.956h-47.402l3.084-5.553h-37.584l10.546-19.007h12.866l1.542-2.779h-8.096l8.516-15.359zm25.679.876h-25.298l-7.545 13.598h8.092l-2.512 4.533h-12.863l-9.572 17.249h37.584l-3.084 5.557h45.677l22.306-40.205h-45.676l-9.651 17.386h-16.337l2.516-4.534h8.818l7.545-13.584z" fill="#fff"/><path d="M372.407 130.177c.239 0 .328.197.19.44l-17.95 32.345a.883.883 0 0 1-.676.439c-.24 0-.328-.197-.19-.439l17.947-32.345a.883.883 0 0 1 .679-.44zM332.218 153.422c.24 0 .328.197.191.44l-1.949 3.51a.877.877 0 0 1-.676.436c-.239 0-.328-.197-.19-.436l1.945-3.51a.88.88 0 0 1 .679-.44zM340.219 139.005c.24 0 .328.196.191.439l-1.949 3.507a.883.883 0 0 1-.676.44c-.239 0-.328-.197-.19-.44l1.945-3.507a.889.889 0 0 1 .679-.439zM333.291 121.123c.239 0 .328.197.19.44l-1.092 1.968a.88.88 0 0 1-.679.439c-.24 0-.328-.196-.19-.439l1.095-1.968a.877.877 0 0 1 .676-.44zM341.325 121.123c.239 0 .328.197.19.44l-1.096 1.968a.874.874 0 0 1-.675.439c-.24 0-.328-.196-.191-.439l1.093-1.968a.892.892 0 0 1 .286-.303.89.89 0 0 1 .393-.137z" fill="#fff"/><path d="m381.372 124.197.364.954-9.631 6.03-.367-.955 9.634-6.029zM329.765 147.111l2.942 6.032-1.424.955-2.942-6.033 1.424-.954zM324.155 129.35l2.943 6.03-1.427.954-2.94-6.029 1.424-.955zM303.905 156.493c.121 0 .164.098.095.219l-.364.657a.456.456 0 0 1-.328.216c-.121 0-.164-.098-.095-.216l.364-.657a.444.444 0 0 1 .328-.219zM311.096 143.535c.121 0 .164.098.095.22l-.719 1.295a.438.438 0 0 1-.328.22c-.121 0-.164-.098-.095-.22l.719-1.295a.435.435 0 0 1 .328-.22zm-1.437 2.591c.118 0 .161.099.095.22l-.722 1.296a.426.426 0 0 1-.328.22c-.118 0-.16-.099-.095-.22l.719-1.296a.443.443 0 0 1 .344-.22h-.013zm-1.44 2.592c.121 0 .164.098.095.22l-.718 1.312a.438.438 0 0 1-.328.22c-.122 0-.165-.099-.096-.22l.719-1.312a.437.437 0 0 1 .328-.22zm-1.437 2.592c.118 0 .161.098.095.219l-.718 1.296a.447.447 0 0 1-.328.22c-.118 0-.161-.099-.095-.22l.721-1.296a.438.438 0 0 1 .325-.219zm-1.437 2.591c.118 0 .161.098.095.22l-.721 1.296a.438.438 0 0 1-.328.219c-.119 0-.161-.098-.096-.219l.719-1.296a.452.452 0 0 1 .331-.22zM312.178 141.58c.122 0 .164.098.095.22l-.364.656a.447.447 0 0 1-.328.22c-.118 0-.16-.099-.095-.22l.364-.656a.45.45 0 0 1 .328-.22zM362.057 121.737c.121 0 .164.098.095.216l-.728 1.312a.445.445 0 0 1-.328.22c-.118 0-.161-.098-.095-.22l.731-1.312a.447.447 0 0 1 .325-.216zm-1.46 2.624c.118 0 .161.098.095.22l-.731 1.312a.43.43 0 0 1-.328.216c-.118 0-.161-.095-.095-.216l.731-1.312a.438.438 0 0 1 .328-.214v-.006zm-1.46 2.624c.119 0 .161.099.096.22l-.732 1.312a.437.437 0 0 1-.328.22c-.118 0-.161-.098-.095-.22l.731-1.312a.432.432 0 0 1 .328-.207v-.013zm-1.459 2.625c.118 0 .16.098.095.219l-.732 1.313a.434.434 0 0 1-.328.219c-.118 0-.161-.098-.095-.219l.732-1.313a.43.43 0 0 1 .328-.2v-.019zm-13.171 2.624h1.312c.118 0 .161.098.095.22a.448.448 0 0 1-.328.22h-1.312c-.118 0-.161-.099-.095-.22a.444.444 0 0 1 .328-.194v-.026zm2.604 0h1.313c.121 0 .164.098.095.22a.448.448 0 0 1-.328.22h-1.312c-.119 0-.161-.099-.096-.22a.447.447 0 0 1 .328-.194v-.026zm2.602 0h1.312c.121 0 .164.098.095.22a.426.426 0 0 1-.328.22h-1.312c-.121 0-.164-.099-.095-.22a.433.433 0 0 1 .328-.194v-.026zm2.601 0h1.312c.122 0 .164.098.099.22a.447.447 0 0 1-.328.22h-1.312c-.122 0-.164-.099-.096-.22a.436.436 0 0 1 .328-.194l-.003-.026zm2.602 0h1.312c.118 0 .16.098.095.22a.447.447 0 0 1-.328.22h-1.312c-.122 0-.164-.099-.095-.22a.43.43 0 0 1 .328-.194v-.026zM330.309 157.004h1.155c.121 0 .164.099.095.22a.438.438 0 0 1-.328.22h-1.155c-.121 0-.164-.098-.095-.22a.426.426 0 0 1 .328-.22zm2.457 0h1.312c.122 0 .164.099.095.22a.437.437 0 0 1-.328.22h-1.312c-.121 0-.164-.098-.095-.22a.435.435 0 0 1 .328-.22zm2.601 0h1.313c.118 0 .16.099.095.22a.445.445 0 0 1-.328.22h-1.313c-.121 0-.164-.098-.095-.22a.448.448 0 0 1 .328-.22zm2.602 0h1.312c.118 0 .161.099.095.22a.45.45 0 0 1-.328.22h-1.312c-.118 0-.164-.098-.095-.22a.447.447 0 0 1 .328-.22zm2.601 0h1.312c.118 0 .161.099.095.22a.45.45 0 0 1-.328.22h-1.312c-.118 0-.161-.098-.095-.22a.455.455 0 0 1 .328-.22zm2.602 0h1.312c.118 0 .16.099.095.22a.438.438 0 0 1-.328.22h-1.312c-.118 0-.161-.098-.096-.22a.458.458 0 0 1 .329-.22zm2.604 0h1.312c.122 0 .164.099.095.22a.435.435 0 0 1-.328.22h-1.312c-.118 0-.16-.098-.095-.22a.447.447 0 0 1 .328-.22zm2.602 0h1.312c.121 0 .164.099.095.22a.438.438 0 0 1-.328.22h-1.312c-.122 0-.164-.098-.095-.22a.431.431 0 0 1 .331-.22h-.003zm2.601 0h1.312c.121 0 .164.099.095.22a.437.437 0 0 1-.328.22h-1.312c-.121 0-.164-.098-.095-.22a.426.426 0 0 1 .328-.22zm2.601 0h1.312c.119 0 .161.099.096.22a.448.448 0 0 1-.328.22h-1.313c-.121 0-.164-.098-.095-.22a.448.448 0 0 1 .328-.22zm2.602 0h1.312c.118 0 .161.099.095.22a.45.45 0 0 1-.328.22h-1.312c-.118 0-.161-.098-.095-.22a.447.447 0 0 1 .328-.22z" fill="#fff"/><path d="M345.655 183.327h-11.983a1.567 1.567 0 0 1-1.232-.508 1.551 1.551 0 0 1-.389-1.274l.889-4.481a1.61 1.61 0 0 1 1.617-1.24h11.984a1.55 1.55 0 0 1 1.232.507 1.553 1.553 0 0 1 .388 1.274l-.889 4.478a1.613 1.613 0 0 1-1.617 1.244z" fill="#8B9CC4"/><path d="m367.588 315.258-5.751-19.531-24.596 5.022 5.176 13.096 25.171 1.413z" fill="#FB9581"/><path d="M343.427 308.737c1.096 3.281 3.835 8.66 3.937 10.691l-8.634.069-.299-12.361 4.996 1.601z" fill="#fff"/><path d="M372.42 316.374c-1.84-2.913-6.121-8.637-5.98-9.185.269-1.07-.922-1.968-2.165-1.778-.394.065-.757.25-1.04.531-.617.607-.948.952-1.903.945l-20.191-.056 5.154 12.554 27.496-.045c.076-1.313-.459-1.795-1.371-2.966z" fill="#fff"/><path d="m361.916 319.247 11.291-.022a.613.613 0 0 1 .656.531v.853c0 .607-.931 1.099-2.093 1.102l-9.874.02.02-2.484z" fill="#F4D6AE"/><path d="M363.376 319.251v2.486l-21.399.043c-1.42 0-2.296-.594-2.296-1.332V319.3l23.695-.049z" fill="#F4D6AE"/><path d="M351.232 304.84a11.19 11.19 0 0 0-3.32-.495h-6.748c-.262 0-1.155.029-1.912.082a1.356 1.356 0 0 0-1.165 1.417v2.867l11.554 1.2v-.567l7.824-2.447-6.233-2.057z" fill="#fff"/><path d="M346.386 306.172c1.454 0 2.343.636 2.343.984v8.732h-9.842v-8.735c0-.345.893-.984 2.346-.984l5.153.003zm0-.804h-5.166c-1.759 0-3.192.804-3.192 1.785v8.896c.004.231.08.454.216.64h11.121c.137-.186.212-.409.217-.64v-8.896c0-.984-1.437-1.785-3.192-1.785h-.004zM361.286 306.887l-3.671-.049c3.248 3.723 4.265 4.792 5.797 12.678l5.114-.026c-.735-4.363-3.048-9.953-7.24-12.603z" fill="#FFE8CC"/><path d="M337.818 314.802h20.404c5.462 0 6.233 5.111 6.233 6.929l-1.086.065h-23.996c-.587 0-1.561-.567-1.561-1.269l.006-5.725z" fill="#FFE8CC"/><path d="M371.636 317.42h-.735c-4.461 0-9.228 3.376-9.228 4.511l4.996-.135h4.967v-4.376z" fill="#FFE8CC"/><path d="M373.332 317.42h-3.212v4.389h1.67c1.512 0 2.736-1.039 2.736-2.319v-1.043a1.116 1.116 0 0 0-1.194-1.027zM367.322 312.067a.949.949 0 0 1-.656-.23.496.496 0 0 1-.157-.515l.456-1.496h-1.106a.963.963 0 0 1-.656-.229.511.511 0 0 1-.161-.519l.515-1.719h-.741c-.453 0-.82-.272-.82-.61 0-.338.367-.613.82-.613h1.765a.963.963 0 0 1 .656.229.511.511 0 0 1 .161.515l-.515 1.719h1.108a.934.934 0 0 1 .657.23.501.501 0 0 1 .157.518l-.456 1.496h.725c.453 0 .82.276.823.614.004.337-.367.61-.823.61h-1.752z" fill="#FFE8CC"/><path d="M348.752 321.78h-.492v-2.037c0-1.827-1.87-3.313-4.173-3.313s-4.173 1.486-4.173 3.313v1.968h-.492v-1.968c0-2.1 2.093-3.805 4.665-3.805s4.665 1.705 4.665 3.805v2.037z" fill="#fff"/><path d="M263.021 257.743h-4.13v63.03h4.13v-63.03z" fill="#23273F"/><path d="M274.932 253.452h-28.746a1.978 1.978 0 0 0-1.978 1.978v4.622c0 1.093.885 1.978 1.978 1.978h28.746a1.977 1.977 0 0 0 1.978-1.978v-4.622a1.978 1.978 0 0 0-1.978-1.978z" fill="#23273F"/><path d="m320.087 288.835-23.12 8.463.889 11.803 24.314-.931-2.083-19.335z" fill="#FB9581"/><path d="M282.386 231.628c-.03 1.223 0 2.391.019 3.46l11.81 65.973 24.275-.131c2.568.019 3.31-2.146 3.28-3.389 0 0 4.701-54.904-8.463-65.913-5.807-4.832-30.921 0-30.921 0z" fill="#603957"/><path d="M347.518 230.246c.043-7.709 1.513-11.179-13.554-15.135-27.244-7.155-79.485-7.46-79.485-7.46-.984 3.261-1.64 12.652-1.824 16.021a29.607 29.607 0 0 0 .505 7.217c2.323 6.889 7.096 13.198 16.793 13.198l60.159-.174c7.801.262 18.466-6.02 18.509-13.732l-1.103.065z" fill="#603957"/><path d="M367.132 297.915s-7.381-55.531-16.619-71.651c-6.292-10.98-12.954-9.513-21.372-6.492l-.377-.571c-8.418 3.008-13.42 11.606-11.577 18.41l19.276 63.702 28.176-.124c2.575.016 2.821-2.074 2.493-3.274z" fill="#603957"/><path d="M272.062 204.219h178.081c.882 0 1.597-.715 1.597-1.597v-11.15c0-.883-.715-1.598-1.597-1.598H272.062c-.882 0-1.598.715-1.598 1.598v11.15c0 .882.716 1.597 1.598 1.597z" fill="#9595BC"/><path d="M245.218 204.226h122.954c.882 0 1.597-.715 1.597-1.597v-11.397c0-.882-.715-1.597-1.597-1.597H245.218c-.882 0-1.597.715-1.597 1.597v11.397c0 .882.715 1.597 1.597 1.597z" fill="#BDBDD2"/><path d="M295.816 209.196c-3.363-29.74-8.674-72.766-8.674-72.766-4.553-10.101-24.275-14.693-24.275-14.693-7.161-1.011-6.439-1.605-13.778-1.424-4.838.357-11.547 2.677-17.248 5.399-6.974 3.33-10.33 10.593-8.756 19.027 2.021 10.809 6.863 46.598 9.933 67.803l62.798-3.346z" fill="#FFBFB2"/><path d="M336.729 301.625a.458.458 0 0 1-.44-.328l-17.714-57.686-51.791-.122a.441.441 0 0 1-.313-.756.441.441 0 0 1 .313-.129l52.135.124a.46.46 0 0 1 .44.328l17.803 58.002a.444.444 0 0 1-.433.567z" fill="#89567F"/><path d="M287.483 320.973h-52.418a4.13 4.13 0 0 1 1.208-2.924 4.134 4.134 0 0 1 2.922-1.213h44.158a4.14 4.14 0 0 1 3.817 2.555c.207.502.314 1.039.313 1.582z" fill="#23273F"/><path d="M379.401 202.202h-2.753v120.241h2.753V202.202zM447.41 203.006h-2.752v120.24h2.752v-120.24z" fill="#9595BC"/><path d="m321.944 256.857-86.475-.016c-10.799.361-16.73-13.342-16.73-13.342l103.215.095c2.322 0 4.222 2.106 4.222 4.682v3.89c-.01 2.575-1.91 4.691-4.232 4.691z" fill="#8576B7"/><path d="M268.506 144.076c-.777-6.712-6.046-11.849-12.16-11.849H214.73a7.799 7.799 0 0 0-7.45 5.534 7.799 7.799 0 0 0-.269 3.278L220.117 241.2a10.35 10.35 0 0 0 10.257 9.014h52.848l-14.716-106.138z" fill="#8576B7"/><path d="M267.604 139.871s-13.24 59.753 13.285 107.978c.565 1.03 2.743.19 2.569-.984l-15.854-106.994z" fill="#9D91D8"/><path d="M206.89 139.116s-15.746 63.342 15.552 110.36l-15.552-110.36z" fill="#8576B7"/><path d="M301.848 308.514c1.099 3.28 3.835 8.66 3.937 10.691l-8.634.069-.273-12.361 4.97 1.601z" fill="#fff"/><path d="M330.844 316.151c-1.844-2.913-6.125-8.638-5.984-9.185.269-1.07-.921-1.969-2.161-1.775-.395.062-.76.247-1.044.528-.613.607-.944.951-1.902.945l-20.188-.056 5.15 12.558 27.497-.05c.095-1.312-.456-1.807-1.368-2.965z" fill="#fff"/><path d="m320.34 319.025 11.288-.023a.614.614 0 0 1 .672.531v.853c0 .607-.931 1.099-2.096 1.102l-9.871.02.007-2.483z" fill="#F4D6AE"/><path d="M321.81 319.031v2.483l-21.402.043c-1.417 0-2.296-.594-2.296-1.332v-1.145l23.698-.049z" fill="#F4D6AE"/><path d="M309.652 304.617a11.18 11.18 0 0 0-3.32-.495h-6.747c-.263 0-1.155.029-1.916.082a1.357 1.357 0 0 0-1.161 1.417v2.87l11.553 1.197v-.583l7.821-2.448-6.23-2.04z" fill="#fff"/><path d="M304.81 305.949c1.454 0 2.343.636 2.343.984v8.736h-9.842v-8.74c0-.328.889-.984 2.342-.984l5.157.004zm0-.801h-5.17c-1.755 0-3.192.801-3.192 1.781v8.897a1.1 1.1 0 0 0 .22.656h11.114c.143-.189.22-.419.22-.656v-8.897c0-.984-1.437-1.781-3.192-1.781zM319.71 306.664l-3.671-.049c3.245 3.723 4.265 4.792 5.797 12.679l5.114-.027c-.735-4.346-3.051-9.952-7.24-12.603z" fill="#FFE8CC"/><path d="M296.242 314.593h20.414c5.462 0 6.233 5.11 6.233 6.928l-1.086.065h-24c-.587 0-1.561-.567-1.561-1.269v-5.724z" fill="#FFE8CC"/><path d="M330.056 317.197h-.731c-4.465 0-7.309 3.199-7.309 4.337l3.077.039h4.963v-4.376z" fill="#FFE8CC"/><path d="M331.756 317.197h-3.215v4.376h1.673c1.509 0 2.736-1.036 2.736-2.319v-1.053a1.113 1.113 0 0 0-1.194-1.004zM325.746 311.847a.933.933 0 0 1-.656-.233.488.488 0 0 1-.161-.515l.459-1.496h-1.105a.949.949 0 0 1-.656-.23.492.492 0 0 1-.161-.515l.515-1.722h-.741c-.453 0-.82-.272-.82-.61 0-.338.367-.613.82-.613h1.765a.941.941 0 0 1 .639.229.497.497 0 0 1 .161.515l-.512 1.719h1.109a.933.933 0 0 1 .656.23.496.496 0 0 1 .161.518l-.459 1.499h.728c.453 0 .82.276.82.614 0 .338-.367.61-.82.61h-1.742z" fill="#FFE8CC"/><path d="M307.175 321.557h-.492v-2.044c0-1.827-1.873-3.313-4.172-3.313-2.3 0-4.176 1.486-4.176 3.313v1.969h-.473v-1.969c0-2.099 2.093-3.805 4.665-3.805s4.665 1.706 4.665 3.805l-.017 2.044z" fill="#fff"/><path d="M328.538 243.322h-17.226a.164.164 0 0 1 0-.328h17.222a.164.164 0 0 1 0 .328h.004z" fill="#89567F"/><path d="M313.047 130.394a5.359 5.359 0 0 1 4.026 3.588c.28.98.347 2.008.196 3.015-.429 3.481-2.739 6.774-6.036 7.955-1.532.548-3.323.614-4.717-.229-2.021-1.221-2.624-4.019-1.988-6.302.637-2.283 2.296-3.963 3.514-5.957 1.016-1.667 3.067-2.441 5.005-2.07z" fill="#FD9783"/><path d="M326.501 126.903a1.538 1.538 0 0 1 1.312 2.779l-14.966 7.148-1.249-2.811 14.903-7.116z" fill="#603A57"/><path d="M316.761 141.058c1.092-.597 2.221-1.207 3.454-1.341a2.472 2.472 0 0 1 1.595.275 2.049 2.049 0 0 1 .81 2.083 3.356 3.356 0 0 1-1.283 1.939 10.03 10.03 0 0 1-2.067 1.151l-4.198 1.919 1.689-6.026z" fill="#FD9783"/><path d="m315.216 147.406 4.199-1.916a10.389 10.389 0 0 0 2.142-1.197 3.7 3.7 0 0 0 1.411-2.149 2.409 2.409 0 0 0-.968-2.454 2.779 2.779 0 0 0-1.821-.328c-1.312.145-2.526.804-3.585 1.385l.328.623c1.053-.574 2.139-1.171 3.323-1.312a2.099 2.099 0 0 1 1.368.226 1.664 1.664 0 0 1 .656 1.716 2.988 2.988 0 0 1-1.152 1.725 9.69 9.69 0 0 1-1.994 1.106l-4.202 1.929.295.646z" fill="#FF7664"/><path d="M319.49 135.856c1.089-.597 2.218-1.208 3.455-1.342a2.495 2.495 0 0 1 1.594.275 2.054 2.054 0 0 1 .807 2.087 3.35 3.35 0 0 1-1.283 1.935 9.954 9.954 0 0 1-2.066 1.152l-4.199 1.919 1.692-6.026z" fill="#FD9783"/><path d="m317.945 142.203 4.199-1.916a10.275 10.275 0 0 0 2.139-1.197 3.697 3.697 0 0 0 1.411-2.149 2.396 2.396 0 0 0-.985-2.45 2.75 2.75 0 0 0-1.82-.328c-1.312.147-2.526.803-3.586 1.384l.328.627c1.053-.578 2.142-1.175 3.323-1.313a2.11 2.11 0 0 1 1.368.223 1.672 1.672 0 0 1 .656 1.719 2.979 2.979 0 0 1-1.151 1.723 9.679 9.679 0 0 1-1.995 1.108l-4.198 1.916.311.653z" fill="#FF7664"/><path d="M312.113 153.196c-1.129 1.709-.735 4.287-1.929 5.954-1.194 1.666-3.687 2.601-5.669 3.106-1.981.506-4.304-.052-5.554-1.676-.984-1.289-5.855-3.169-5.983-4.793-.348-4.418 4.264-8.696 4.507-13.121.171-2.953.961-5.741 2.657-8.169 1.995-2.853 3.678-5.934 6.617-6.669 2.021-.505 3.9-.095 11.691-1.404 2.953-.495 3.458 5.544-1.814 5.879a31.278 31.278 0 0 0-4.92.817c-3.684.849-5.98 5.872-6.026 6.915-.046.8.744 1.591 1.509 1.843 6.118 2.028 5.809-9.073 11.415-11.061 1.04-.371 1.595-.83 2.884-.066 2.063 1.224 1.145 3.874.574 5.347-2.447 6.325-5.472 10.307-9.959 17.098z" fill="#FD9783"/><path d="M313.451 151.375a.363.363 0 0 0 .348-.148 101.516 101.516 0 0 0 8.64-15.234 9.076 9.076 0 0 0 .722-2.483 3.427 3.427 0 0 0-.699-2.601c-.794-.942-2.231-1.277-3.572-.84-1.014.328-1.968 1.053-2.887 2.204a26.308 26.308 0 0 0-2.49 3.976c-.843 1.545-1.715 3.143-2.913 4.435 0 0-1.489 1.348-2.86 1.037-.719-.161-1.313-.774-1.723-1.821a.354.354 0 1 0-.656.266c.519 1.276 1.267 2.034 2.224 2.25 1.733.384 3.445-1.164 3.517-1.23 1.276-1.378 2.168-3.011 3.034-4.593a25.63 25.63 0 0 1 2.418-3.87c.843-1.04 1.676-1.687 2.556-1.969 1.053-.328 2.211-.088 2.811.624a2.792 2.792 0 0 1 .535 2.073 8.472 8.472 0 0 1-.656 2.276 100.694 100.694 0 0 1-8.569 15.09.362.362 0 0 0-.011.398.37.37 0 0 0 .231.16z" fill="#FF7664"/><path d="M305.814 139.418a.356.356 0 0 0 .374-.19c2.952-5.761 6.154-6.315 10.009-6.44a.35.35 0 0 0 .352-.223.362.362 0 0 0-.009-.288.356.356 0 0 0-.366-.201c-4.79.158-7.749 1.257-10.619 6.827a.354.354 0 0 0-.021.271.354.354 0 0 0 .28.244z" fill="#FF7664"/><path d="m300.536 139.31 11.072-5.292 1.249 2.812-10.999 5.248a1.54 1.54 0 0 1-1.312-2.775l-.01.007z" fill="#603A57"/><path d="M320.461 130.581a.369.369 0 0 0 .279-.076 1.11 1.11 0 0 0 .328-.433 2.659 2.659 0 0 0-.226-2.624.365.365 0 0 0-.229-.147.361.361 0 0 0-.363.158.362.362 0 0 0 .008.396 1.96 1.96 0 0 1 .167 1.902.557.557 0 0 1-.115.181.351.351 0 0 0-.055.498.37.37 0 0 0 .206.145z" fill="#FF7664"/><path d="M383.96 133.425h-42.701l2.339-4.419h42.701l-2.339 4.419z" fill="#fff"/><path d="M362.815 144.48c1.079-3.074 2.811-8.487 4.189-9.924.594-.62.984-1.049 2.073-1.128 2.69-.197 3.09 1.827 3.146 2.126.63 3.313-.482 12.255-10.061 22.228l-1.968 3.533a3.427 3.427 0 0 1-2.297 1.535c-1.781.391-4.654.61-7.174-1.079l12.092-17.291z" fill="#FB9581"/><path d="M355.414 163.621a8.787 8.787 0 0 1-4.966-1.44.496.496 0 0 1-.136-.684.492.492 0 0 1 .684-.136c2.322 1.558 4.976 1.407 6.793 1.007a2.88 2.88 0 0 0 1.969-1.293l1.968-3.533a.465.465 0 0 1 .075-.101c9.297-9.678 10.563-18.489 9.933-21.795-.134-.706-.656-1.874-2.624-1.729-.879.065-1.151.351-1.699.922l-.056.059c-1.122 1.168-2.624 5.524-3.608 8.407-.164.476-.328.929-.463 1.336a.492.492 0 1 1-.928-.329c.144-.406.298-.856.462-1.331 1.142-3.317 2.565-7.447 3.835-8.769l.056-.059c.58-.607 1.079-1.128 2.335-1.22 2.297-.168 3.412 1.194 3.665 2.526.078.41 1.771 10.169-10.147 22.615l-1.932 3.477a3.859 3.859 0 0 1-2.624 1.775c-.851.192-1.72.291-2.592.295z" fill="#FD7664"/><path d="M368.123 143.952c1.41-2.674 4.13-9.563 3.5-12.876-.056-.295-.456-2.323-3.146-2.126-1.102.082-1.48.512-2.073 1.129-1.381 1.436-3.11 6.849-4.189 9.923l5.908 3.95z" fill="#FB9581"/><path d="M368.123 144.447a.498.498 0 0 1-.437-.715c1.45-2.749 4.038-9.471 3.454-12.551-.134-.709-.656-1.877-2.624-1.729-.879.062-1.155.348-1.699.919l-.056.059c-1.122 1.167-2.624 5.524-3.608 8.407-.164.479-.328.929-.463 1.339a.485.485 0 0 1-.252.28.49.49 0 0 1-.676-.608c.144-.407.298-.857.462-1.332 1.142-3.317 2.562-7.443 3.835-8.769l.056-.059c.581-.603 1.079-1.128 2.336-1.22 2.316-.171 3.411 1.194 3.664 2.526.689 3.628-2.359 10.943-3.55 13.2a.49.49 0 0 1-.442.253z" fill="#FD7664"/><path d="M365.807 145.26c-.194-1.801.636-3.559 1.778-4.832-.949-2.604-2.241-5.524-3.314-6.459-.59-.515-1.43-1.899-2.201-2.352-1.64-.961-2.897-1.857-4.114-1.073-.442.286-1.968 1.496-2.24 1.913-1.837 2.906-2.49 5.37-4.593 8.116-1.069 1.391-1.486 2.624-2.024 4.281-.948 2.922-2.447 2.04-6.357 8.201-1.407 2.217 4.629 7.702 8.611 9.044 1.794.607 6.033.984 7.939-1.312 1.906-2.297 5.422-9.632 7.463-12.315a8.04 8.04 0 0 1-.948-3.212z" fill="#FB9581"/><path d="M364.937 141.468c1.411-2.673 5.324-11.593 4.694-14.903-.055-.298-.456-2.326-3.146-2.129-1.102.082-1.479.512-2.073 1.129-1.378 1.437-3.11 6.849-4.189 9.923l4.714 5.98z" fill="#FB9581"/><path d="M364.937 141.96a.487.487 0 0 1-.433-.721c1.604-3.041 5.219-11.561 4.645-14.582-.134-.708-.656-1.873-2.624-1.729-.879.063-1.151.351-1.699.919l-.056.059c-1.122 1.168-2.624 5.527-3.609 8.408-.164.479-.328.928-.462 1.338a.502.502 0 0 1-.252.28.49.49 0 0 1-.656-.232.497.497 0 0 1-.02-.376c.144-.407.298-.856.462-1.312 1.142-3.32 2.565-7.447 3.835-8.772l.056-.059c.58-.604 1.082-1.128 2.335-1.217 2.313-.171 3.412 1.194 3.665 2.526.721 3.785-3.819 13.476-4.741 15.224a.494.494 0 0 1-.446.246z" fill="#FD7664"/><path d="M343.739 152.766c1.749-5.035-.81-10.205 2.776-14.729 3.431-4.337 2.509-5.619 4.198-6.426.614-.292 3.054.328 3.694 2.027.328.899.925 1.847-1.204 6.075-.357.709-.019 1.313 0 2.116.187 4.045.23 8.349-2.66 11.455-.238.297-.57.503-.942.584-.42.069-.984-.154-1.04-.488l-4.822-.614z" fill="#FB9581"/><path d="M344.484 145.979a.494.494 0 0 1-.486-.43c-.558-4.369 2.034-7.942 3.582-10.077a8.376 8.376 0 0 0 1.017-1.582l.109-.377c.223-.817.501-1.834 1.614-2.253 1.246-.47 2.847.164 3.677 1.046a4.096 4.096 0 0 1 1.109 2.906c0 .328 0 .568.023.791.045 1.207 0 1.575-1.063 2.851a.486.486 0 0 1-.335.172.492.492 0 0 1-.416-.809c.875-1.036.869-1.168.829-2.175 0-.233-.019-.498-.019-.823a3.14 3.14 0 0 0-.843-2.241c-.588-.623-1.805-1.102-2.625-.797-.6.227-.78.752-1.01 1.595-.039.134-.075.272-.115.403-.144.466-.571 1.056-1.164 1.873-1.463 2.014-3.911 5.39-3.402 9.372a.489.489 0 0 1-.427.548l-.055.007z" fill="#FD7664"/><path d="M359.364 139.598c1.61-2.519 5.183-10.149 5.386-12.744.023-.299.473-.787-.128-1.64a2.984 2.984 0 0 0-2.404-1.145c-1.112 0-1.532.416-2.192.984-1.532 1.345-7.144 12.488-8.552 15.48l7.89-.935z" fill="#FB9581"/><path d="M351.471 141.058a.5.5 0 0 1-.46-.328.498.498 0 0 1 .017-.377c.765-1.624 6.889-14.089 8.674-15.641l.098-.089c.627-.551 1.168-1.03 2.379-1.03h.042c.433 0 1.919.115 2.802 1.352a1.79 1.79 0 0 1 .255 1.843.905.905 0 0 0-.039.125c-.21 2.69-3.792 10.347-5.462 12.961a.48.48 0 0 1-.31.234.49.49 0 0 1-.598-.584.496.496 0 0 1 .082-.181c1.541-2.415 5.114-10.045 5.307-12.519.017-.126.049-.251.095-.37a.822.822 0 0 0-.131-.935c-.613-.863-1.692-.938-2.011-.942h-.036c-.836 0-1.154.283-1.725.784l-.102.089c-1.368 1.204-6.8 11.859-8.431 15.323a.487.487 0 0 1-.446.285z" fill="#FD7664"/><path d="M273.63 162.096s33.05 65.09 85.379 2.975a3.31 3.31 0 0 0 .227-3.969c-1.968-2.907-6.01-7.873-11.449-8.782-6.37-1.079-7.46 1.663-9.457 1.237l-22.606 10.008-29.464-29.087-12.63 27.618z" fill="#FFBFB2"/><path d="M315.738 191.938c-.893 0-1.784-.035-2.674-.105-21.615-1.641-35.78-23.117-35.914-23.334a.164.164 0 0 1 .046-.213.158.158 0 0 1 .183.005.161.161 0 0 1 .043.047 62.387 62.387 0 0 0 9.874 11.101c5.702 5.095 14.851 11.328 26.063 12.102 14.001.961 27.956-6.6 41.488-22.481a.167.167 0 0 1 .233-.016.154.154 0 0 1 .035.052.15.15 0 0 1 .013.062.164.164 0 0 1-.048.115c-12.817 15.048-26.053 22.665-39.342 22.665zM318.706 166.908a.161.161 0 0 1-.114-.049l-23.475-23.665a.176.176 0 0 1-.036-.054.168.168 0 0 1 .036-.179.16.16 0 0 1 .179-.036c.02.008.038.021.054.036l23.474 23.665a.147.147 0 0 1 .036.053.155.155 0 0 1 0 .126.16.16 0 0 1-.036.054.15.15 0 0 1-.053.037.147.147 0 0 1-.065.012z" fill="#F9A395"/><path d="M593.794 156.224c2.775-.839 3.113-7.84.756-15.637-2.357-7.797-6.517-13.438-9.292-12.599-2.774.839-3.113 7.84-.756 15.637 2.357 7.797 6.517 13.438 9.292 12.599z" fill="#B1D6FC"/><path d="M603.128 146.633c1.8-5.225 1.719-9.991-.181-10.645-1.899-.655-4.898 3.05-6.698 8.275-1.8 5.224-1.719 9.99.18 10.644 1.9.655 4.899-3.05 6.699-8.274z" fill="#B1D6FC"/><path d="M599.061 140.379c-.81 9.169-3.339 16.278-5.649 15.877-2.309-.4-3.523-8.155-2.713-17.32.811-9.166 3.336-16.278 5.646-15.877 2.309.4 3.523 8.158 2.716 17.32z" fill="#B1D6FC"/><path d="M583.794 150.745c0 5.154 2.431 9.612 5.964 11.744h9.421c3.533-2.132 5.964-6.59 5.964-11.744h-21.349z" fill="#B1D6FC"/><path d="M268.417 92.374v-.023a7.075 7.075 0 0 0-.272-1.313c-.371-1.2 2.588-3.13 2.057-4.55-.843-2.253-4.265-4.838-7.25-5.704-8.529-2.467-17.032 3.756-17.95 10.015-.453 3.074-.617 4.455-4.265 5.839-1.699.656-3.822.656-5.491 1.348-4.593 1.873-3.75 7.683-8.424 9.458-.449.163-.91.292-1.378.387-2.884.603-4.98 3.389-4.478 6.216.039.223.095.442.167.656.945 2.687 2.953 3.986 5.249 5.229.449.174.905.328 1.358.496 1.119.4 2.296.8 3.238 1.535 1.686 1.312 2.575 3.428 4.402 4.57a6.374 6.374 0 0 0 3.838.931c1.385-.098 2.726-.528 4.107-.656a11.312 11.312 0 0 1 3.783.299c1.273.308 2.519.734 3.802.984a4.687 4.687 0 0 0 3.054-.328c.44-.222.861-.479 1.26-.768a11.03 11.03 0 0 1 3.077-2.395c5.058-2.699 4.92-6.616 5.038-9.375.135-3.107 1.368-4.921 3.861-6.866 2.031-1.575.765-4.537 1.864-6.955 1.725-3.805 3.129-3.503 5.753-3.92 2.195-.337-6.219-3.483-6.4-5.11z" fill="#603B57"/><path d="M251.486 86.397c2.403-2.444 2.501-6.245.219-8.49-2.283-2.244-6.082-2.082-8.485.362-2.403 2.444-2.501 6.245-.219 8.49 2.283 2.244 6.081 2.082 8.485-.362z" fill="#603B57"/><path d="M226.021 113.627a.327.327 0 0 1-.144-.62c1.341-.656 2.864-1.417 3.936-2.588.909-.984 1.46-2.208 2.041-3.493.295-.657.6-1.329.958-1.969 1.928-3.47 6.951-6.177 10.982-8.348.814-.44 1.582-.853 2.267-1.244a.333.333 0 0 1 .365.025.34.34 0 0 1 .085.097.348.348 0 0 1 .041.121.33.33 0 0 1-.163.328c-.695.394-1.466.81-2.28 1.25-3.959 2.132-8.886 4.789-10.723 8.089a25.554 25.554 0 0 0-.932 1.92c-.577 1.276-1.174 2.594-2.155 3.667-1.158 1.26-2.739 2.04-4.13 2.729a.32.32 0 0 1-.148.036zM229.302 116.799a.328.328 0 0 1-.217-.574l6.62-5.822a16.948 16.948 0 0 0 2.165-2.146c.523-.7.991-1.44 1.398-2.214.18-.328.364-.656.554-.984a21.057 21.057 0 0 1 9.349-8.349.328.328 0 0 1 .269.597 20.408 20.408 0 0 0-9.057 8.09c-.187.328-.364.633-.545.954a13.223 13.223 0 0 1-3.7 4.534l-6.626 5.832a.322.322 0 0 1-.21.082zM246.944 88.663a5.224 5.224 0 0 1-1.312-.164 5.726 5.726 0 0 1-4.094-4.215.32.32 0 0 1-.002-.13.34.34 0 0 1 .259-.268.338.338 0 0 1 .399.257 4.944 4.944 0 0 0 8.562 2.162.326.326 0 0 1 .548.063.333.333 0 0 1 .015.255.328.328 0 0 1-.068.111 5.743 5.743 0 0 1-4.307 1.93z" fill="#916789"/><path d="M539.079 295.481a22.266 22.266 0 0 1-7.322-9.356c-.984-2.355-1.545-5.016-.814-7.46 1.312-4.333 7.102-6.56 10.97-4.235-1.17-6.023-2.342-12.045-3.517-18.068-.8-4.111-1.207-9.251 2.254-11.6 3.917-2.657 9.028.656 12.564 3.799.577-3.815.065-7.722.518-11.554.453-3.831 2.211-7.892 5.738-9.441 4.842-2.122 10.605 1.758 12.465 6.709 1.86 4.95.948 10.464 0 15.674 1.273-2.503 5.249-2.336 7.158-.266 1.909 2.07 2.142 5.16 1.903 7.961a30.572 30.572 0 0 1-2.274 9.212c-1.079 2.568-2.545 5.163-2.296 7.938a5.213 5.213 0 0 0 2.913 4.035 3.586 3.586 0 0 1 1.773 1.69c.373.754.469 1.616.271 2.434a39.289 39.289 0 0 1-4.156 10.254c-1.152 1.969-3.543 4.301-5.38 2.953l-32.768-.679z" fill="#8BB769"/><path d="M568.442 307.93h-21.185a18.32 18.32 0 0 1-12.946-5.376 18.322 18.322 0 0 1-5.352-12.955h57.781a18.316 18.316 0 0 1-18.298 18.331z" fill="#fff"/></g><defs><clipPath id="a"><path fill="#fff" d="M0 0h620v328.042H0z"/></clipPath></defs></svg>