<svg width="191" height="157" viewBox="0 0 191 157" fill="none" xmlns="http://www.w3.org/2000/svg">
<path d="M111.637 64.7252C111.573 65.3443 112.865 66.1875 113.201 66.3583C114.333 66.9294 115.859 67.1802 117.578 67.367C118.117 68.6266 117.909 69.5072 118.154 70.6333C118.629 72.8642 119.435 72.3892 119.494 72.3465C120.433 71.6367 119.953 68.8134 119.248 67.5271C120.193 67.6125 121.175 67.7033 122.162 67.826C122.392 67.8527 122.627 67.9061 122.856 67.9648C122.904 68.0609 122.952 68.1569 122.995 68.2637C124.212 71.2471 123.358 72.5066 123.352 74.5187C123.342 77.6249 124.548 77.2246 124.639 77.1819C126.138 76.4934 126.282 72.3999 125.658 70.5479C125.557 70.2277 125.343 69.6033 124.959 68.9415C129.623 71.9996 133.205 80.2401 126.891 82.4176C125.439 82.9139 126.832 84.0668 125.791 86.0415C124.905 87.7227 122.637 87.9842 121.927 88.0962C118.319 88.6673 114.061 86.7139 111.696 83.3836C109.433 80.2027 109.028 75.933 109.978 72.8856C110.309 71.8235 112.128 68.5999 111.691 67.4844C111.157 66.1288 111.13 65.2642 111.2 64.7519C111.253 64.3302 111.68 64.2875 111.637 64.7252Z" fill="#ABCB6E"/>
<path d="M127.381 93.5889C127.702 92.4415 129.692 92.8844 130.765 91.1018C131.8 89.3833 131.71 86.3091 130.157 85.2257C127.504 83.3791 126.202 80.812 124.446 79.8246C121.623 78.2288 117.63 78.5117 109.326 81.383C108.413 81.6979 107.597 81.9808 106.866 82.2423C107.549 82.4771 108.264 82.7813 108.968 83.1816C109.363 83.4004 110.986 84.3451 112.139 86.2024C112.544 86.8429 113.329 88.1024 112.832 88.983C112.795 89.0524 112.576 89.3086 112.181 89.3886C111.445 89.5434 110.708 88.5827 109.449 86.8749C107.399 84.0996 106.46 83.0962 105.841 82.6266C103.802 83.4058 102.559 84.0569 101.763 84.9962C100.6 86.3785 99.2816 88.6735 97.6591 88.6361C96.7198 88.6148 96.4956 87.7395 96.2395 87.937C95.7004 88.3426 97.958 91.4434 99.6232 95.5049C102.185 101.76 102.02 101.253 103.119 102.625C103.311 102.865 103.509 103.089 103.711 103.308C111.215 101.957 113.921 97.8853 115.453 97.2181C115.73 97.0954 116.75 96.6524 117.033 96.9833C117.444 97.453 116.093 99.2409 115.805 99.6198C114.06 101.936 110.276 105.33 106.508 105.544C108.99 107.012 111.813 107.673 114.407 108.277C118.757 109.285 122.743 110.214 126.479 108.047C128.748 106.734 130.989 103.868 131.219 101.269C131.555 97.4797 126.607 96.3535 127.381 93.5889Z" fill="#ABCB6E"/>
<path d="M98.5859 89.4626C99.3972 89.8523 100.256 90.1138 101.121 90.3539C101.986 90.5888 102.861 90.7809 103.742 90.9517C105.503 91.2879 107.28 91.5494 109.057 91.7789C112.612 92.2273 116.188 92.5368 119.769 92.8037C121.557 92.9371 123.345 93.0545 125.138 93.1666L127.822 93.332C128.271 93.3641 128.719 93.3961 129.173 93.4334C129.397 93.4494 129.632 93.4815 129.861 93.5082C130.091 93.5455 130.326 93.5775 130.55 93.6309C131.009 93.7216 131.462 93.8497 131.9 94.0098C132.343 94.17 132.77 94.3567 133.181 94.5702C134.013 94.9919 134.777 95.5096 135.519 96.0433C135.892 96.3101 136.25 96.5823 136.607 96.8705C136.976 97.1641 137.317 97.4789 137.648 97.7992C138.304 98.4343 138.924 99.0907 139.537 99.7525C140.765 101.071 141.966 102.405 143.193 103.707C144.421 105.01 145.664 106.296 146.945 107.534C149.507 110.01 152.218 112.327 155.148 114.312C158.073 116.297 161.222 117.947 164.547 119.019C167.872 120.097 171.373 120.562 174.831 120.327L174.938 122.227C174.015 122.264 173.081 122.27 172.158 122.222C171.234 122.168 170.311 122.083 169.393 121.944C168.475 121.805 167.568 121.629 166.671 121.41C165.774 121.181 164.888 120.919 164.013 120.621C160.528 119.42 157.283 117.626 154.31 115.524C151.332 113.421 148.616 110.992 146.065 108.431C144.789 107.144 143.556 105.826 142.35 104.487C141.138 103.152 139.959 101.791 138.769 100.457C138.171 99.7899 137.573 99.1281 136.954 98.5037C136.639 98.1941 136.324 97.8899 135.999 97.6177C135.663 97.3402 135.31 97.0573 134.963 96.7905C134.259 96.2567 133.544 95.7497 132.781 95.3388C132.402 95.1306 132.007 94.9492 131.606 94.7944C131.206 94.6343 130.801 94.5115 130.379 94.4155C130.171 94.3621 129.957 94.3247 129.744 94.2874C129.53 94.2553 129.322 94.2233 129.098 94.202C128.66 94.1539 128.212 94.1112 127.769 94.0739L125.085 93.8337C123.297 93.6789 121.509 93.5135 119.721 93.3374C116.145 92.9851 112.574 92.5848 109.02 92.0458C107.243 91.7736 105.471 91.4694 103.715 91.0798C102.84 90.8876 101.964 90.6742 101.105 90.418C100.246 90.1565 99.3865 89.8683 98.5859 89.4626Z" fill="#85909F"/>
<path d="M142.864 68.2376C143.435 63.2314 143.985 58.2199 144.449 53.203C144.674 50.6946 144.887 48.1862 145.004 45.6724C145.031 45.048 145.052 44.4182 145.052 43.7938C145.052 43.4842 145.047 43.1747 145.026 42.8651C145.02 42.7103 145.004 42.5609 144.983 42.4168C144.978 42.3421 144.962 42.2674 144.951 42.2033C144.935 42.1393 144.914 42.0699 144.898 42.0325C144.887 42.0165 144.876 42.0005 144.892 42.0219C144.903 42.0272 144.919 42.0432 144.951 42.0539C144.983 42.0592 145.02 42.0539 145.036 42.0486C145.069 42.0379 145.058 42.0379 145.047 42.0539C145.031 42.0646 145.015 42.0859 144.999 42.1126C144.93 42.2087 144.86 42.3474 144.802 42.4809C144.679 42.753 144.572 43.0466 144.471 43.3401C144.268 43.9272 144.092 44.525 143.926 45.128C143.249 47.5457 142.699 50.0061 142.112 52.4559C141.525 54.9056 140.932 57.3553 140.367 59.805C139.801 62.2601 139.262 64.7151 138.808 67.1809C138.691 67.7946 138.595 68.4137 138.483 69.0328C138.392 69.6519 138.29 70.2657 138.21 70.8901C138.04 72.123 137.901 73.3665 137.821 74.6101C137.735 75.8483 137.698 77.0918 137.725 78.33C137.757 79.5682 137.842 80.8011 138.008 82.0233C138.322 84.473 138.968 86.864 139.854 89.1589C140.751 91.4592 141.872 93.6581 143.323 95.6221C144.038 96.6042 144.844 97.5221 145.709 98.3814C146.579 99.2353 147.508 100.036 148.49 100.783C150.443 102.288 152.562 103.633 154.659 105.053C156.757 106.467 158.833 107.961 160.786 109.616C162.74 111.27 164.576 113.069 166.267 114.99C167.965 116.912 170.356 120.093 171.802 122.201L169.395 122.121C168.007 120.055 166.513 118.07 164.89 116.202C163.268 114.329 161.517 112.578 159.639 110.961C157.765 109.344 155.764 107.871 153.704 106.456C151.644 105.031 149.514 103.66 147.492 102.075C146.477 101.285 145.501 100.431 144.583 99.5129C143.67 98.5896 142.822 97.5969 142.058 96.5401C141.679 96.0171 141.317 95.4727 140.98 94.9176C140.81 94.6455 140.655 94.3626 140.489 94.0797C140.335 93.7969 140.174 93.514 140.03 93.2258C139.726 92.6547 139.459 92.0676 139.192 91.4806C139.07 91.1817 138.936 90.8882 138.819 90.5893L138.472 89.6873C137.591 87.2696 136.961 84.7452 136.684 82.1887C136.54 80.9078 136.47 79.6269 136.465 78.346C136.46 77.0651 136.529 75.7842 136.641 74.514C136.748 73.2438 136.913 71.9789 137.111 70.7247C137.202 70.1002 137.319 69.4758 137.426 68.8514C137.549 68.2269 137.661 67.6025 137.789 66.9834C138.29 64.5016 138.888 62.0466 139.502 59.5969C140.116 57.1525 140.761 54.7134 141.391 52.2744C142.032 49.8407 142.629 47.391 143.355 44.9626C143.537 44.3595 143.729 43.7511 143.942 43.1533C144.054 42.8544 144.172 42.5556 144.311 42.2567C144.385 42.1019 144.46 41.9578 144.572 41.7977C144.599 41.7603 144.631 41.7177 144.679 41.675C144.722 41.6376 144.77 41.5842 144.882 41.5469C144.935 41.5309 145.01 41.5255 145.079 41.5415C145.154 41.5629 145.202 41.6002 145.239 41.6323C145.314 41.7016 145.341 41.7603 145.367 41.8137C145.415 41.9205 145.431 42.0059 145.453 42.0966C145.469 42.182 145.479 42.2674 145.49 42.3528C145.511 42.5182 145.522 42.6783 145.527 42.8384C145.538 43.164 145.538 43.4842 145.533 43.7991C145.522 44.4342 145.49 45.0693 145.447 45.6991C145.282 48.2182 145.02 50.7266 144.743 53.2351C144.183 58.2412 143.531 63.2421 142.864 68.2376Z" fill="#85909F"/>
<path d="M136.865 22.4448C134.959 24.5637 129.163 26.896 128.875 25.7592C128.662 24.9266 131.666 25.3749 133.993 23.4215C135.002 22.5729 136.176 20.0965 137.559 20.0805C138.359 20.0698 137.761 21.4522 136.865 22.4448ZM131.538 10.1909C131.88 10.2176 132.195 10.5111 132.312 10.8474C132.488 11.333 132.206 11.8401 131.864 12.0963C131.336 12.4912 130.519 12.3791 130.295 12.0055C129.964 11.4611 130.765 10.1322 131.538 10.1909ZM128.982 21.5482C127.578 21.9218 127.589 20.8277 128.304 20.4861C129.377 19.9738 131.448 18.7996 134.356 13.8842C136.011 11.0822 136.422 9.29429 136.529 8.12547C136.278 7.90131 136 7.69316 135.701 7.5117C134.463 6.75384 133.38 6.68979 131.832 5.68108C130.855 5.04597 129.724 4.00524 128.774 1.68361C128.454 0.899061 128.043 -0.152344 127.749 0.0184424C127.621 0.0931622 128.171 0.888386 127.856 1.55018C127.359 2.60693 125.086 2.719 123.746 2.55889C122.924 2.45749 122.572 2.26535 122.156 2.20664C121.926 3.26339 121.601 4.62434 121.462 5.92659C120.923 11.0502 123.495 14.0656 123.047 14.3698C122.513 14.7328 119.023 9.77462 119.007 3.9412C117.443 5.26479 115.773 5.07266 114.022 5.40889C114.444 11.2423 116.515 16.0991 118.004 17.6575C118.537 18.2179 117.843 19.4561 116.829 18.2659C114.342 15.3359 112.218 8.94204 112.218 8.94204C111.925 7.97603 111.674 7.15945 111.476 6.4603C111.471 6.46563 111.471 6.46563 111.466 6.47097C110.548 7.12209 109.859 8.41367 108.482 10.9915C106.902 13.9482 105.712 16.1791 105.888 18.9971C105.952 20.0485 106.155 20.3901 106.294 21.2493C107.457 22.717 109.566 24.4463 113.6 25.9086C115.538 26.6078 114.284 27.5791 113.275 27.4297C111.893 27.2269 108.6 25.962 106.417 23.3095C106.353 25.1134 105.792 25.2041 105.968 26.5811C106.241 28.8066 108.418 31.171 110.254 32.6547C115.164 36.6201 118.206 30.3437 121.542 31.0536C124.034 31.5819 122.823 36.7856 128.005 38.1679C131.277 39.0432 137.238 34.2611 138.695 29.319C139.165 27.7392 139.042 25.0387 139.352 22.7864C139.645 20.5982 139.677 19.4828 139.699 18.5168C139.709 18.0044 139.774 15.8642 139.288 13.5319C136.027 15.7148 132.691 20.5555 128.982 21.5482Z" fill="#ABCB6E"/>
<path d="M146.722 69.6088C146.621 69.6302 146.487 69.5928 146.156 69.2566C145.879 68.9737 144.171 67.1965 144.673 65.067C144.763 64.6987 144.849 64.3144 145.11 64.2397C145.633 64.085 146.562 65.3018 146.941 66.508C147.368 67.8583 147.197 69.4914 146.722 69.6088ZM151.734 43.8147C151.899 43.4038 153.783 43.6066 155.197 44.1723C158.565 45.5173 160.524 49.408 160.011 49.9097C159.878 50.0431 157.61 48.4153 153.079 45.165C152.363 44.6526 151.616 44.1083 151.734 43.8147ZM158.885 62.0996C158.272 59.431 156.409 55.7164 153.132 53.24C151.99 52.3754 150.223 51.324 149.86 49.6161C149.818 49.408 149.684 48.7835 149.994 48.5274C150.453 48.1431 151.59 48.8209 152.043 49.0931C158.656 53.0425 159.67 59.3029 159.67 59.3029C159.926 60.8987 159.878 62.4358 159.745 63.5459C163.192 57.4243 163.454 53.1333 162.573 52.1939C162.445 52.0552 161.645 51.5001 161.164 50.6996C161.036 50.4861 160.988 50.2352 161.015 49.9844C161.154 48.8529 161.522 45.149 160.839 43.0409C159.825 39.8973 155.491 37.6184 154.472 37.3088C153.265 36.9406 152.278 36.6417 151.067 36.9139C147.971 37.613 147.133 41.1729 145.826 40.9167C144.465 40.6498 145.415 36.8071 143.152 34.683C140.766 32.4361 135.856 33.1032 132.904 35.19C130.77 36.7057 129.062 39.3743 129.377 40.4577C129.419 40.6018 129.643 41.2316 129.377 41.8347C129.238 42.1389 129.035 42.3203 128.982 42.363C128.469 42.822 126.415 46.1043 125.625 50.438C128.48 48.0577 136.224 44.6847 139.346 45.1597C139.549 45.1917 139.325 45.7041 137.654 46.3018C129.654 49.1678 126.847 53.0479 125.342 54.6703C125.465 56.5437 125.945 57.9847 126.292 59.0254C126.329 59.1321 126.361 59.2282 126.393 59.3189C128.005 57.2962 130.93 55.2414 135.392 53.3521C141.961 50.5768 140.633 54.4195 139.576 54.9639C136.459 56.565 131.495 60.8667 129.35 65.131C129.713 65.7181 130.134 66.3906 130.62 67.1644C131.976 69.3046 132.974 70.8577 134.682 71.0872C135.402 71.1833 135.621 70.9378 136.39 71.1512C137.889 71.5729 137.82 72.7203 139.667 73.9746C140.878 74.8018 141.577 74.5243 142.026 75.6931C142.362 76.5897 142.463 77.6945 142.746 77.6838C143.013 77.6732 142.746 76.6324 143.136 76.0187C144.47 73.9265 149.77 74.1187 150.213 74.0546C150.314 74.0386 150.41 74.0173 150.506 74.0012C150.656 73.601 150.768 73.1313 150.816 72.5816C151.349 66.5187 149.113 64.7307 147.982 61.1015C146.242 55.5083 148.643 55.551 148.836 55.5776C151.91 55.9886 154.44 63.3004 154.349 66.983C154.322 68.0237 154.258 70.7296 152.881 73.0993C155.304 71.6049 156.713 68.6001 159.126 64.6027C159.152 64.56 159.179 64.5119 159.206 64.4639C159.168 63.9035 159.104 63.0602 158.885 62.0996Z" fill="#ABCB6E"/>
<path d="M176.318 123.823C175.949 123.817 175.522 123.839 175.095 123.86C174.668 123.876 174.236 123.897 173.793 123.908C172.913 123.935 172.027 123.935 171.135 123.887C169.353 123.791 167.565 123.508 165.836 122.99C164.112 122.483 162.452 121.736 160.926 120.796C159.394 119.852 157.995 118.715 156.741 117.45C156.432 117.135 156.127 116.81 155.834 116.479L154.985 115.507C154.425 114.878 153.849 114.259 153.256 113.655C152.077 112.455 150.828 111.318 149.499 110.314C148.165 109.311 146.74 108.43 145.219 107.811C143.703 107.192 142.075 106.845 140.468 106.957C139.663 107.011 138.867 107.176 138.104 107.443C137.72 107.582 137.346 107.742 136.983 107.923C136.797 108.014 136.631 108.11 136.46 108.212C136.295 108.318 136.129 108.43 135.975 108.548C135.34 109.034 134.785 109.637 134.315 110.309C133.835 110.976 133.44 111.707 133.098 112.471C132.42 113.997 131.967 115.641 131.684 117.306C131.395 118.976 131.267 120.679 131.257 122.387C131.246 125.797 131.705 129.213 132.49 132.543C133.274 135.879 134.395 139.14 135.772 142.289C134.304 139.183 133.093 135.948 132.207 132.613C131.321 129.288 130.76 125.856 130.675 122.392C130.632 120.658 130.712 118.918 130.963 117.194C131.203 115.47 131.62 113.757 132.287 112.124C132.628 111.307 133.029 110.512 133.53 109.765C134.027 109.023 134.624 108.324 135.34 107.742C135.521 107.598 135.708 107.459 135.9 107.331C136.092 107.203 136.3 107.085 136.492 106.979C136.887 106.765 137.304 106.578 137.725 106.413C138.568 106.087 139.465 105.874 140.372 105.789C142.187 105.612 144.023 105.954 145.693 106.584C147.375 107.214 148.922 108.11 150.358 109.13C151.794 110.154 153.128 111.296 154.388 112.508C155.017 113.116 155.631 113.741 156.224 114.376C156.522 114.691 156.827 115.027 157.099 115.321C157.382 115.625 157.675 115.924 157.969 116.212C159.159 117.359 160.461 118.379 161.876 119.206C163.29 120.033 164.8 120.674 166.375 121.106C167.949 121.538 169.582 121.768 171.226 121.821C172.048 121.848 172.875 121.832 173.713 121.789C174.129 121.773 174.551 121.741 174.978 121.714C175.41 121.688 175.837 121.65 176.334 121.65C176.931 121.645 177.422 122.125 177.428 122.728C177.433 123.326 176.947 123.817 176.35 123.823C176.344 123.823 176.334 123.823 176.328 123.823H176.318Z" fill="#85909F"/>
<path d="M173.802 121.075C171.449 119.249 169.186 117.472 167.142 115.311C165.097 113.144 163.224 110.801 161.655 108.255C160.086 105.709 158.821 102.955 158.095 100.036C157.722 98.5842 157.503 97.0845 157.433 95.5847C157.391 94.8375 157.401 94.085 157.444 93.3325C157.492 92.5853 157.572 91.8381 157.7 91.1016C157.951 89.6232 158.33 88.1769 158.837 86.7732C159.099 86.0687 159.387 85.3802 159.728 84.7078C160.07 84.0406 160.46 83.3895 160.956 82.7971C161.201 82.4982 161.479 82.2207 161.815 81.9859C162.141 81.7564 162.541 81.5749 162.984 81.5536C163.427 81.5322 163.859 81.703 164.185 81.9432C164.516 82.1833 164.777 82.4769 165.012 82.7811C165.471 83.4002 165.807 84.0727 166.112 84.7505C166.416 85.4336 166.667 86.1274 166.901 86.8319C167.366 88.2356 167.739 89.6659 168.076 91.0963C168.412 92.5319 168.705 93.9729 168.972 95.4193C169.511 98.312 169.954 101.221 170.354 104.135C169.89 101.231 169.378 98.3387 168.769 95.462C168.465 94.0263 168.14 92.5906 167.771 91.171C167.403 89.7513 166.997 88.3423 166.506 86.9654C166.261 86.2822 165.994 85.5991 165.685 84.9479C165.375 84.2915 165.033 83.651 164.601 83.1013C164.382 82.8238 164.142 82.5729 163.87 82.3915C163.603 82.2047 163.304 82.1033 163.016 82.1246C162.722 82.146 162.424 82.2794 162.157 82.4769C161.895 82.6743 161.655 82.9199 161.436 83.192C160.999 83.7364 160.646 84.3662 160.331 85.012C160.022 85.6578 159.755 86.3302 159.526 87.0134C159.067 88.385 158.73 89.7993 158.522 91.2297C158.415 91.9448 158.357 92.66 158.33 93.3752C158.303 94.0957 158.309 94.8162 158.362 95.5314C158.463 96.967 158.709 98.392 159.093 99.7743C159.851 102.55 161.127 105.175 162.696 107.593C164.27 110.016 166.133 112.252 168.166 114.313C170.205 116.373 172.452 118.049 174.784 119.772L173.802 121.075Z" fill="#85909F"/>
<path d="M187.747 104.332C187.726 104.364 187.678 104.391 187.491 104.385C187.342 104.385 186.381 104.348 185.949 103.611C185.874 103.489 185.794 103.355 185.842 103.265C185.949 103.078 186.541 103.169 186.968 103.403C187.454 103.665 187.849 104.172 187.747 104.332ZM190.752 108.436C190.234 108.452 189.61 107.326 189.487 107.033C189.076 106.056 188.954 104.764 188.906 103.323C187.886 102.8 187.144 102.918 186.216 102.651C184.39 102.122 184.833 101.477 184.876 101.429C185.516 100.692 187.838 101.258 188.868 101.92C188.852 101.124 188.836 100.303 188.788 99.4699C188.777 99.2778 188.751 99.0803 188.713 98.8828C188.644 98.8348 188.564 98.7921 188.473 98.7494C186.066 97.5539 184.967 98.1944 183.291 98.0823C180.708 97.9115 181.108 96.9241 181.151 96.8494C181.813 95.6432 185.228 95.766 186.733 96.3904C186.99 96.4972 187.497 96.7107 188.025 97.0682C185.757 92.996 179.112 89.5216 176.929 94.6666C176.427 95.846 175.552 94.6132 173.844 95.371C172.393 96.0115 172.04 97.8848 171.907 98.4719C171.218 101.45 172.59 105.117 175.227 107.289C177.74 109.36 181.268 109.952 183.862 109.338C184.764 109.125 187.555 107.796 188.457 108.228C189.551 108.751 190.272 108.826 190.699 108.799C191.056 108.778 191.12 108.426 190.752 108.436Z" fill="#ABCB6E"/>
<path d="M174.599 85.9291C174.503 86.0199 172.928 84.8938 169.779 82.6308C169.283 82.2732 168.765 81.8996 168.845 81.6968C168.963 81.4086 170.27 81.5474 171.258 81.9423C173.595 82.8763 174.956 85.5822 174.599 85.9291ZM177.454 85.9398C175.97 82.2412 172.96 79.6581 169.838 78.6654C169.016 78.4039 167.607 77.9769 166.55 78.6654C164.896 79.7435 165.366 82.7536 164.709 82.839C163.887 82.9457 163.652 78.4519 161.096 77.3311C159.207 76.4985 156.554 77.3418 155.086 78.7935C151.35 82.4814 152.162 89.6384 154.206 94.1269C155.396 96.7527 158.993 102.826 163.583 103.926C164.501 104.145 167.73 104.705 168.557 106.813C168.733 107.267 168.707 107.566 168.957 107.699C170.014 108.27 173.643 104.54 175.693 100.793C176.616 99.0957 180.149 92.6432 177.454 85.9398Z" fill="#ABCB6E"/>
<path d="M128.277 4.15503C128.469 5.57469 128.512 7.01037 128.389 8.4407C128.272 9.87104 127.994 11.2854 127.615 12.6623C126.852 15.4323 125.678 18.0581 124.509 20.6679C123.335 23.2724 122.145 25.8769 121.339 28.6095C121.141 29.2873 120.96 29.9758 120.816 30.6696C120.666 31.3635 120.56 32.0573 120.538 32.7564C120.517 33.4503 120.576 34.1494 120.725 34.8272C120.88 35.4997 121.12 36.1562 121.424 36.7859C122.033 38.0455 122.865 39.2036 123.698 40.3564C124.541 41.5092 125.4 42.6621 126.211 43.8469C127.839 46.2165 129.27 48.7356 130.449 51.3615C131.047 52.6744 131.581 54.014 132.066 55.3696C132.547 56.7253 133.011 58.0755 133.475 59.4312L136.272 67.5435C138.145 72.9446 140.056 78.3298 142.095 83.6615C143.114 86.33 144.165 88.9826 145.27 91.6084C146.375 94.2342 147.522 96.8441 148.777 99.3899C149.086 100.03 149.412 100.66 149.732 101.29C150.063 101.914 150.388 102.544 150.741 103.158C151.082 103.782 151.419 104.369 151.797 104.946C152.182 105.517 152.582 106.067 153.02 106.595C153.89 107.652 154.872 108.607 155.955 109.445C157.033 110.277 158.207 110.993 159.445 111.606C159.595 111.681 159.755 111.756 159.91 111.831C160.065 111.9 160.225 111.98 160.363 112.033C160.662 112.156 160.983 112.274 161.308 112.386L163.342 113.058C164.713 113.517 166.095 114.051 167.424 114.697C170.088 115.988 173.039 118.411 175.04 120.621L173.22 121.347C171.395 119.308 169.079 117.573 166.613 116.356C165.375 115.737 164.089 115.23 162.754 114.777L160.721 114.088C160.374 113.965 160.027 113.837 159.659 113.683C159.472 113.603 159.312 113.522 159.141 113.442C158.976 113.362 158.81 113.282 158.645 113.197C157.327 112.53 156.056 111.74 154.882 110.817C153.713 109.888 152.641 108.831 151.707 107.668C151.242 107.086 150.805 106.483 150.399 105.858C149.994 105.239 149.625 104.583 149.294 103.948C148.947 103.313 148.622 102.667 148.296 102.026C147.976 101.375 147.656 100.729 147.352 100.078C146.119 97.4685 145.003 94.8213 143.931 92.1581C142.858 89.4949 141.849 86.8157 140.867 84.1205C138.903 78.7407 137.072 73.3129 135.279 67.8744L132.616 59.7194C132.168 58.3637 131.725 56.9974 131.271 55.6525C130.812 54.3076 130.305 52.9786 129.739 51.6817C128.613 49.0719 127.242 46.5795 125.667 44.2098C124.883 43.025 124.05 41.8722 123.223 40.7033C122.401 39.5292 121.568 38.339 120.949 37.0101C120.64 36.3483 120.394 35.6491 120.245 34.9286C120.09 34.2081 120.042 33.4663 120.074 32.7351C120.111 32.0039 120.234 31.2781 120.394 30.5789C120.554 29.8744 120.746 29.1806 120.96 28.4921C121.819 25.7435 123.052 23.1444 124.263 20.5559C125.48 17.9674 126.686 15.3736 127.487 12.6303C127.887 11.2587 128.181 9.85503 128.32 8.43537C128.469 7.0157 128.448 5.57469 128.277 4.15503Z" fill="#85909F"/>
<path d="M148.541 121.816C144.549 117.728 140.093 115.998 139.42 115.326C139.367 115.278 138.897 114.797 139.036 114.435C139.18 114.077 139.847 113.986 140.119 114.024C146.454 114.936 148.92 122.179 152.235 124.735C152.235 124.607 152.235 124.474 152.24 124.335C152.277 121.597 153.126 113.047 147.613 106.829C146.86 105.981 144.442 103.712 141.827 104.129C138.369 104.673 137.083 105.901 135.012 109.343C134.163 110.763 133.331 107.155 130.641 105.607C130.39 105.463 127.257 103.723 123.831 104.705C118.387 106.269 117.133 113.292 117.085 113.586C116.78 115.438 117.015 116.964 117.341 119.056C117.613 120.818 117.96 122.937 119.203 125.237C120.426 127.494 120.869 126.886 121.904 129.037C122.977 131.257 122.955 132.847 124.54 133.99C124.727 134.128 124.893 134.224 125.037 134.315C125.325 132.965 125.848 131.38 126.681 129.971C127.038 129.357 128.026 127.681 128.879 127.857C129.162 127.911 129.387 128.156 129.483 128.396C129.862 129.272 128.794 130.488 128.228 131.209C126.937 132.842 126.254 134.411 125.832 135.569C125.88 136.471 125.128 137.336 125.309 138.494C125.725 141.12 130.55 142.524 131.094 142.678C132.386 143.041 132.541 142.828 133.469 143.255C135.103 144.013 135.775 145.192 137.2 145.123C137.526 145.107 138.209 145.064 137.974 144.931C137.67 144.76 136.501 143.196 136.949 141.515C137.355 139.999 145.083 137.726 149.465 131.94C148.536 130.12 146.94 127.062 143.727 124.089C142.606 123.049 140.536 121.319 140.936 119.772C141.043 119.355 141.347 118.896 141.79 118.726C143.162 118.224 145.216 120.732 145.963 121.645C148.29 124.484 149.79 127.985 150.457 130.456C151.247 129.128 151.85 127.628 152.176 125.947C152.208 125.776 152.224 125.605 152.229 125.429C151.413 124.698 150.238 123.561 148.541 121.816Z" fill="#ABCB6E"/>
<path d="M174.764 122.606C174.268 120.733 173.958 118.817 173.841 116.901C173.782 115.94 173.772 114.98 173.809 114.019C173.841 113.064 173.921 112.108 174.06 111.158C174.188 110.214 174.364 109.274 174.588 108.351C174.818 107.428 175.084 106.515 175.394 105.618C176.018 103.825 176.824 102.106 177.78 100.484C176.942 102.171 176.269 103.932 175.784 105.741C175.538 106.643 175.346 107.556 175.191 108.474C175.031 109.392 174.93 110.32 174.871 111.244C174.802 112.167 174.791 113.096 174.823 114.024C174.86 114.947 174.935 115.865 175.058 116.778C175.303 118.609 175.73 120.402 176.323 122.131L174.764 122.606Z" fill="#85909F"/>
<path d="M99.452 156.945H97.1251C96.6234 156.945 96.2124 156.534 96.2124 156.032L91.1582 133.579C91.1582 133.077 91.5692 132.667 92.0708 132.667H97.4293C97.9256 132.667 98.3366 133.077 98.3366 133.579L100.359 156.032C100.359 156.534 99.9537 156.945 99.452 156.945Z" fill="#282444"/>
<path d="M16.1573 156.945H18.4896C18.986 156.945 19.3969 156.534 19.3969 156.032L24.4511 133.579C24.4511 133.077 24.0402 132.667 23.5438 132.667H18.1801C17.6837 132.667 17.2728 133.077 17.2728 133.579L15.25 156.032C15.25 156.534 15.6556 156.945 16.1573 156.945Z" fill="#282444"/>
<path d="M114.279 91.2833C111.994 81.6659 101.102 83.5979 101.827 81.4097C106.807 66.4125 109.625 55.8557 110.783 44.4344C110.938 42.86 110.751 33.424 104.811 33.1358C102.34 33.013 102.767 33.8029 99.7512 32.981C85.5172 29.0796 80.6712 32.1538 77.074 31.5987C73.9304 31.1184 65.4765 29.3678 57.8712 31.4013C57.5723 31.4813 57.2627 31.4813 56.9585 31.4013C49.3532 29.3678 40.9046 31.1184 37.7611 31.5987C34.1585 32.1538 29.3178 29.0796 15.0785 32.981C12.0684 33.8029 12.4953 33.013 10.0189 33.1358C4.08408 33.424 3.89195 42.86 4.05206 44.4344C5.21021 55.8557 8.02285 66.4125 13.0077 81.4097C13.7335 83.5979 2.84054 81.6659 0.550938 91.2833C-0.302994 94.8858 0.444196 98.6538 1.94925 101.045C3.86526 104.092 6.64588 105.4 8.3751 105.816C8.63128 105.875 9.47987 106.03 9.47453 106.782C9.44785 110.267 8.22566 124.629 11.2358 140.561C11.3959 141.414 11.7214 143.854 13.7282 143.987C15.8203 144.12 37.9478 144.537 57.4175 144.382C76.8872 144.537 99.5591 144.12 101.651 143.987C103.658 143.854 103.989 141.414 104.144 140.561C106.946 124.934 104.747 110.62 105.36 106.782C105.478 106.04 106.198 105.875 106.455 105.816C108.184 105.4 110.97 104.092 112.886 101.045C114.385 98.6538 115.138 94.8858 114.279 91.2833Z" fill="#A3D1FF"/>
<path d="M14.25 81.674C15.2158 81.5993 24.036 81.0597 30.2203 88.1379C35.9137 94.6552 34.8892 102.508 34.7238 103.635" stroke="#1D1D1B" stroke-width="0.0798999" stroke-miterlimit="10"/>
<path d="M110.911 44.4342C111.066 42.8597 110.879 33.4238 104.939 33.1356C102.468 33.0128 102.895 33.8027 99.8794 32.9808C85.6454 29.0794 80.7994 32.1535 77.2022 31.6038C74.0586 31.1182 65.6047 29.3676 58.0047 31.401C57.7058 31.4811 57.3856 31.4811 57.0867 31.401C49.4814 29.3676 41.0328 31.1182 37.8893 31.6038C34.2921 32.1535 29.446 29.0794 15.212 32.9808C12.1966 33.8027 12.6235 33.0128 10.1525 33.1356C4.21229 33.4238 4.02015 42.8597 4.18026 44.4342C5.33841 55.8555 8.15105 66.4176 13.1359 81.4094C13.6909 83.0906 7.41453 82.3434 3.42773 86.2448C5.51453 85.2201 8.53532 84.3715 13.0452 84.7451C18.2755 85.1721 22.1822 88.9134 22.6732 89.4631C28.3359 95.7715 27.5033 103.126 25.2564 106.563C22.1716 111.27 21.814 117.888 23.5539 124.501C24.1036 126.593 26.3558 127.81 27.8662 128.093C30.6789 128.627 36.0053 128.835 42.6926 128.979C47.1171 129.07 51.5682 129.16 54.9039 129.23C54.9252 129.304 54.9412 129.342 54.9412 129.342C54.9412 129.342 55.9713 129.32 57.6791 129.288C59.387 129.32 60.4171 129.342 60.4171 129.342C60.4171 129.342 60.4331 129.304 60.4598 129.23C63.7954 129.16 68.2412 129.07 72.6657 128.979C79.353 128.835 84.6794 128.627 87.4921 128.093C89.0025 127.81 91.2547 126.593 91.8044 124.501C93.5443 117.888 93.1867 111.27 90.1019 106.563C87.855 103.126 87.0224 95.7715 92.685 89.4631C93.1814 88.9134 97.0881 85.1721 102.313 84.7451C106.46 84.4035 109.342 85.092 111.408 85.9993C107.41 82.3701 101.411 83.0533 101.956 81.4094C106.94 66.4176 109.753 55.8555 110.911 44.4342Z" fill="#4FA5FF"/>
<path d="M16.3262 33.6644C23.2895 34.3749 27.1634 45.3101 25.0877 54.4023C23.535 61.2401 23.0227 73.7566 27.9371 84.179" stroke="#1D1D1B" stroke-width="0.0798999" stroke-miterlimit="10"/>
<path d="M30.4535 57.9261C44.5274 74.9994 43.1611 79.4719 50.0566 73.2489C56.1248 67.7677 58.4465 69.2247 61.9903 65.2913C63.2498 63.8983 65.1178 61.1124 66.3347 60.4132C68.2613 59.3084 73.1555 59.2978 74.2709 59.7301C74.9701 60.0023 74.6178 60.4986 74.6819 60.4933C75.413 60.4719 76.2616 61.8222 75.1088 62.6601C74.5644 63.0551 69.7077 66.6096 67.749 67.4101C66.7563 67.8211 65.0644 68.0186 64.4133 68.6643C58.4305 74.6579 53.2802 83.7789 46.7903 83.2719C43.1024 82.9837 27.6622 76.9368 21.8234 60.4612C19.9448 55.1562 25.6234 52.066 30.4535 57.9261Z" fill="#DF8568"/>
<path d="M35.0545 54.5421C34.9264 51.943 33.0424 50.7795 33.6721 48.3138C34.2539 46.0669 35.2146 45.0848 34.9424 43.3663C34.7075 41.8612 33.1545 41.2528 32.6154 38.6323C32.1991 36.6362 33.2292 34.5014 32.1297 32.4947C28.9595 26.72 25.6892 27.0442 20.4749 27.4605C17.9238 27.658 17.8064 28.7307 16.8777 29.0296C16.1572 29.2645 16.312 29.0403 15.3833 29.2645C14.1985 29.5473 12.1864 32.1251 12.1811 37.6864C12.1811 40.2108 9.6126 36.7483 8.65193 38.7551C7.62721 40.8792 9.77271 43.3129 7.07749 43.868C3.73648 44.5511 2.93591 47.3104 3.08535 48.6874C3.52299 52.8236 2.25811 52.9037 1.20136 54.3073C-1.20032 57.4829 0.608949 61.7686 1.39884 63.1936C6.63985 72.6455 24.5511 75.6289 33.2825 59.8792C33.7415 59.0466 35.1879 57.2694 35.0545 54.5421Z" fill="#282444"/>
<path d="M55.3583 80.0914C54.9794 80.2355 54.5311 80.1288 54.2536 79.7979C53.9066 79.3762 53.9707 78.7571 54.387 78.4102L74.5398 61.9026L74.4384 34.881C74.3477 34.342 74.7106 33.8403 75.2496 33.7495C75.7833 33.6642 76.3224 33.9363 76.3758 34.5661L76.5732 62.1428C76.4451 62.4897 76.317 62.8366 76.0449 63.0608L55.6412 79.9259C55.5505 80.0007 55.4597 80.054 55.3583 80.0914Z" fill="#282444"/>
<path d="M129.647 63.0662C129.215 63.4932 129.823 64.3684 130.064 64.7154C131.489 66.7808 127.875 72.7637 122.256 75.3361C116.71 77.8766 101.676 79.7019 85.9687 73.7297C83.1294 72.6516 81.2988 72.6783 78.5662 73.6496C72.0763 75.9446 54.8482 82.9148 45.7485 93.6156C42.0766 97.9387 41.3454 105.763 44.4943 109.082C46.6771 111.388 50.8134 111.724 56.1398 110.299C62.7044 108.543 71.0836 100.095 83.3535 85.7061C83.7752 85.2151 84.4743 85.0763 85.0561 85.3645C90.4999 88.0544 98.9218 88.5508 105.123 86.5547C112.74 84.0996 118.776 80.9294 122.095 82.8027C122.864 83.235 123.643 83.7687 125.639 84.0569C128.98 84.5426 128.516 81.3243 128.863 79.6592C129.893 74.7224 131.98 74.9252 132.577 71.2586C133.501 65.5746 130.635 62.0949 129.647 63.0662Z" fill="#DF8568"/>
<path d="M17.1759 43.0247C18.4515 46.2963 20.5383 50.0002 19.6363 53.7895C19.0172 56.3887 24.2742 57.9258 25.9768 57.5522C29.1683 56.8477 27.1349 49.237 23.9647 45.6879C21.974 43.4623 16.5301 41.3702 17.1759 43.0247Z" fill="#FD9783"/>
<path d="M29.4504 36.7207C29.4504 36.7207 28.319 37.2384 25.7198 37.8361C23.0566 38.4552 20.8684 38.5139 20.8684 38.5139C20.4094 38.61 20.1319 38.215 20.1372 37.74C20.1426 37.3664 20.1212 36.8754 20.0412 36.2723C19.0111 39.0369 17.2125 39.0382 15.4673 38.9689C15.2058 39.1236 12.4572 38.1309 13.8822 41.3599C14.7948 43.4467 16.7962 44.5674 17.3246 44.1672C17.9277 43.7028 17.7516 43.3026 18.0398 43.5747C19.9878 45.4054 22.4802 48.7997 26.008 48.7571C26.499 48.7517 27.0381 48.5756 27.1288 48.5436C28.8153 47.9992 29.4291 46.1953 29.792 45.288C31.3451 41.4239 30.3844 39.5707 29.6639 36.8914C29.6426 36.8114 29.6212 36.7367 29.5999 36.6619C29.5572 36.6833 29.5038 36.7046 29.4504 36.7207Z" fill="#FD9783"/>
<path d="M24.9668 108.815C26.8668 106.253 32.5615 105.223 36.671 104.716C47.4466 103.397 61.0775 103.445 79.3463 104.769C82.6873 105.009 88.7342 105.826 90.2019 109.359C91.771 113.127 91.8724 120.679 90.6342 123.903C89.775 126.144 87.1118 127.019 86.2952 127.11C75.5196 128.316 42.6913 128.236 29.9837 127.409C28.7615 127.329 25.4845 127.089 24.3584 124.335C23.6592 122.638 22.2129 112.535 24.9668 108.815Z" fill="#A3D1FF"/>
<path d="M58.5339 108.654C55.337 111.456 50.2188 111.446 48.0573 110.859C26.7783 105.041 16.0668 78.0302 16.1095 65.8617C16.1362 58.0749 18.8101 52.9513 23.3306 52.1668C25.7002 51.7558 27.6376 52.8072 29.1 55.4277C35.1415 66.2513 40.057 64.5701 40.612 67.9218C40.7561 68.7704 40.8469 72.5331 37.8207 74.2196C35.8834 75.303 37.4578 79.8609 38.4612 81.526C43.9691 90.6364 48.7884 87.0286 56.5592 91.3409C58.4592 92.3977 61.3519 95.696 62.1311 100.371C62.3499 101.69 62.5154 105.159 58.5339 108.654Z" fill="#C9E4FF"/>
<path d="M27.9173 58.7422C36.2111 75.2445 39.5895 83.8265 42.162 80.4908C46.912 74.3479 52.3077 74.508 55.526 70.3077C56.6735 68.8186 58.5521 66.2729 59.5822 65.3229C60.1212 64.8212 63.7344 63.2094 64.567 63.9832C64.6257 64.0366 66.2962 63.6737 67.4437 64.0153C68.1589 64.2288 67.844 64.7518 67.9134 64.7465C68.6392 64.6664 68.9861 64.8052 69.1996 64.8425C70.0322 64.992 69.9735 65.3816 69.5892 65.7872C69.4985 65.8886 69.5945 65.942 68.5058 66.8706C67.9988 67.3082 65.9707 68.2316 65.3089 68.9734C63.4142 71.0922 63.4356 71.2363 61.5462 72.1863C60.5856 72.672 58.9151 73.0029 58.3226 73.7021C52.8254 80.1439 46.9386 91.197 40.4327 91.2024C36.7288 91.2077 20.9417 78.1532 19.0417 62.0939C18.3799 56.506 24.5069 51.9535 27.9173 58.7422Z" fill="#FD9783"/>
<path d="M102.073 77.4172C97.0504 76.9476 91.5479 75.8054 85.9546 73.6813C83.1206 72.6085 81.29 72.6352 78.5521 73.6012C72.0622 75.8962 54.8395 82.8664 45.7397 93.5672C42.0625 97.8903 41.3313 105.714 44.4802 109.034C46.6684 111.34 50.8046 111.676 56.131 110.251C62.6956 108.495 71.0749 100.052 83.3448 85.6577C83.7664 85.1667 84.4656 85.0279 85.0473 85.3161C88.0734 86.8158 92.0336 87.6324 96.015 87.7178C98.1659 85.3855 100.888 81.9644 102.073 77.4172Z" fill="#FDB982"/>
<path d="M133.908 80.0429C133.075 79.5092 132.317 80.5606 131.618 81.4839C130.321 83.1864 122.919 82.2898 117.08 80.9822C115.489 80.6246 111.999 79.712 111.492 79.6106C104.159 78.0842 93.885 74.4923 86.3704 68.4934C85.351 67.6822 83.1361 66.1985 81.4442 64.8269C78.4822 62.4359 74.7943 64.3305 73.3692 65.3873C71.592 66.7055 49.8327 83.4266 43.6684 99.646C42.6223 102.405 41.8858 105.88 43.9246 108.303C47.2763 112.29 54.5881 110.934 61.5156 106.483C66.6926 103.158 70.69 92.6651 77.8844 78.3617C78.0499 78.0308 78.4875 77.9401 78.7704 78.1856C84.433 83.1704 90.2825 85.0384 97.5462 85.5721C101.891 85.8923 105.904 85.935 109.165 86.3033C109.645 86.3566 111.503 86.5061 111.732 87.4774C111.898 88.1979 112.01 88.8597 112.709 90.1513C114.47 93.3749 117.438 90.7224 119.108 89.9432C124.071 87.6269 124.461 89.3401 128.128 87.6536C134.207 84.8623 135.023 80.7527 133.908 80.0429Z" fill="#FD9783"/>
<path d="M100.673 76.4291C95.6991 74.5131 90.5755 71.8979 86.3378 68.5089C85.3184 67.6976 83.1035 66.2139 81.4117 64.8476C78.4443 62.4513 74.7564 64.3459 73.3314 65.408C71.5594 66.7263 49.0743 82.54 42.91 98.7541C42.1255 100.825 42.2429 104.203 42.846 106.333C43.0488 107.043 43.385 107.896 43.892 108.505C47.2437 112.492 55.6603 112.086 62.0274 107.048C66.8521 103.232 70.6575 92.6805 77.8519 78.3824C78.0173 78.0462 78.4549 77.9608 78.7378 78.2063C83.9468 82.7855 89.3106 84.7336 95.7844 85.4327C98.1274 81.8302 99.6645 78.8735 100.673 76.4291Z" fill="#FFDFBF"/>
<path d="M159.325 129.378H180.129C181.25 129.378 182.157 130.285 182.157 131.406L180.572 154.617C180.572 155.738 179.665 156.65 178.544 156.65H160.91C159.789 156.65 158.882 155.738 158.882 154.617L157.297 131.406C157.297 130.285 158.204 129.378 159.325 129.378Z" fill="#A3D1FF"/>
<path d="M156.243 124.848H183.206C183.607 124.848 183.932 125.168 183.932 125.573V130.158C183.932 130.558 183.607 130.884 183.206 130.884H156.243C155.843 130.884 155.518 130.558 155.518 130.158V125.573C155.518 125.168 155.843 124.848 156.243 124.848Z" fill="#A3D1FF"/>
<path d="M157.728 134.951L157.445 130.868H181.948L157.728 134.951Z" fill="#4FA5FF"/>
<path d="M24.4657 41.0015C24.4049 40.9914 24.3482 40.9612 24.3023 40.9144C24.2564 40.8677 24.2231 40.8062 24.2062 40.7371L23.9524 39.6987C23.9296 39.6027 23.9404 39.4989 23.9826 39.4101C24.0247 39.3214 24.0948 39.2549 24.1772 39.2253C24.2597 39.1957 24.3479 39.2054 24.4223 39.2523C24.4968 39.2993 24.5515 39.3795 24.5743 39.4755L24.8281 40.514C24.8399 40.5615 24.8433 40.6115 24.8384 40.6612C24.8334 40.7108 24.82 40.7591 24.7991 40.8032C24.7782 40.8473 24.7501 40.8863 24.7165 40.9179C24.6828 40.9495 24.6444 40.9731 24.6033 40.9874C24.5588 41.0049 24.5116 41.0097 24.4657 41.0015Z" fill="#080C53"/>
<path d="M28.5417 40.1387C28.4858 40.1309 28.4334 40.1044 28.3906 40.0626C28.3479 40.0207 28.3165 39.9651 28.3001 39.9022L28.072 38.9432C28.0607 38.9002 28.0568 38.8547 28.0607 38.8094C28.0645 38.7641 28.0761 38.7199 28.0946 38.6794C28.113 38.6389 28.1381 38.6029 28.1683 38.5735C28.1985 38.5441 28.2332 38.5219 28.2704 38.5081C28.3459 38.4817 28.4264 38.4909 28.4945 38.5337C28.5626 38.5765 28.6129 38.6494 28.6345 38.7368L28.8708 39.6886C28.8911 39.7764 28.8809 39.8712 28.8425 39.9524C28.804 40.0335 28.7404 40.0947 28.6653 40.1226C28.6257 40.1409 28.5831 40.1464 28.5417 40.1387Z" fill="#080C53"/>
<path d="M25.8724 45.1468C25.6302 44.8443 25.8392 44.4137 26.2243 44.3905L27.2691 44.3275C27.315 44.3247 27.3602 44.3156 27.4035 44.3005L27.9892 44.096C28.3566 43.9677 28.7174 44.2892 28.6008 44.6597C28.4092 45.2686 28.102 46.0147 27.7022 46.2276C27.1648 46.514 26.4612 45.8823 25.8724 45.1468Z" fill="white"/>
</svg>
