<svg width="32" height="41" viewBox="0 0 32 41" fill="none" xmlns="http://www.w3.org/2000/svg">
<path d="M16.1951 0.575195C7.62113 0.575195 0.769531 8.10445 0.769531 17.2042C0.769531 22.2257 3.69268 27.697 6.91647 32.1384C8.52836 34.3592 10.2352 36.2992 11.7924 37.7262C12.5709 38.4397 13.3093 39.0278 14.0153 39.4627C14.7213 39.8976 15.3732 40.2252 16.1951 40.2252C17.029 40.2252 17.6162 39.8751 18.2801 39.4389C18.9438 39.0028 19.6474 38.42 20.3949 37.7083C21.8899 36.285 23.5561 34.3479 25.141 32.1297C28.3106 27.6932 31.2311 22.2257 31.2311 17.2042C31.2311 8.10445 24.4167 0.575195 16.1951 0.575195ZM16.1951 3.6252C22.8772 3.6252 28.4618 9.78526 28.4618 17.2042C28.4618 20.8111 25.9322 26.0897 22.964 30.2442C21.4799 32.3214 19.9053 34.1411 18.5829 35.4001C17.9218 36.0294 17.3216 36.5195 16.863 36.8208C16.4042 37.1221 16.0485 37.1752 16.1951 37.1752C16.2318 37.1752 15.8587 37.1024 15.3674 36.7998C14.8764 36.4973 14.2461 36.0099 13.561 35.3822C12.1909 34.1266 10.5859 32.31 9.07992 30.2352C6.0681 26.0858 3.53876 20.8111 3.53876 17.2042C3.53876 9.78526 9.08398 3.6252 16.1951 3.6252ZM16.0003 11.2502C15.9159 11.2502 15.8373 11.2724 15.7542 11.277C15.9037 11.7482 16.0003 12.2475 16.0003 12.7752C16.0003 15.3021 14.1409 17.3502 11.8465 17.3502C11.3674 17.3502 10.914 17.2439 10.4862 17.0792C10.482 17.1707 10.4618 17.2573 10.4618 17.3502C10.4618 20.7188 12.9416 23.4502 16.0003 23.4502C19.0588 23.4502 21.5388 20.7188 21.5388 17.3502C21.5388 13.9815 19.0588 11.2502 16.0003 11.2502Z" fill="#007BFC"/>
</svg>
