<svg width="14" height="19" viewBox="0 0 14 19" fill="none" xmlns="http://www.w3.org/2000/svg">
<path d="M6.90273 0L6.82982 0.0247421L0.607641 1.50912L0 1.65755V17.6888L0.631949 17.7878L6.85419 18.9753L6.9271 19H8.55556V0H6.90273ZM8 1.60808V3.16667H12.4444V15.8333H8.42852V17.4167H14V1.58333L8 1.60808ZM7 1.60808V17.4167L1.55556 16.3776V2.89453L7 1.60808ZM5.71179 8.70833C5.42619 8.70833 5.1771 9.06395 5.1771 9.5C5.1771 9.93605 5.42619 10.2917 5.71179 10.2917C5.99739 10.2917 6.22222 9.93605 6.22222 9.5C6.22222 9.06395 5.99739 8.70833 5.71179 8.70833Z" fill="white"/>
<rect x="8" y="3" width="5" height="13" fill="white"/>
</svg>
