<svg width="211" height="144" viewBox="0 0 211 144" fill="none" xmlns="http://www.w3.org/2000/svg">
<path d="M165.485 9.95873C173.458 13.2442 180.438 18.5971 186.615 24.6154C191.528 29.4105 196.241 35.2291 196.538 42.0866C196.763 47.3219 194.291 52.4189 190.699 56.2366C187.106 60.0543 182.475 62.7308 177.736 64.9927C171.37 67.9916 163.919 71.0928 161.785 77.7866C160.193 82.7966 162.23 88.2212 164.855 92.781C167.48 97.3407 170.72 101.691 171.856 106.823C173.309 113.41 191.584 142.549 191.584 142.549L149.999 143.291C149.999 143.291 104.494 142.912 82.6368 142.293C96.9663 130.667 106.622 114.263 109.831 96.092C110.855 90.299 111.07 83.989 108.107 78.9124C104.985 73.5493 98.798 70.6015 92.6672 69.6139C86.5364 68.6262 80.2776 69.2915 74.07 69.445C51.4234 69.9577 29.139 63.6997 10.0701 51.4722C6.34455 49.067 2.58316 46.2318 0.925079 42.1225C-0.804649 37.8698 0.0806851 32.9007 2.02023 28.7145C7.79281 16.2328 21.8353 9.42139 35.4685 7.75819C49.1016 6.09499 62.8882 8.5514 76.6083 9.47256C93.5781 10.6035 110.589 9.35486 127.466 7.56884C140.158 6.22293 153.366 4.97425 165.485 9.95873Z" fill="#F5F6FB"/>
<path d="M7.72049 143.291H210.621C210.67 143.291 210.719 143.281 210.764 143.26C210.857 143.222 210.93 143.148 210.969 143.056C210.989 143.011 211 142.962 210.999 142.912C210.999 142.863 210.988 142.814 210.969 142.769C210.951 142.722 210.923 142.68 210.887 142.646C210.851 142.612 210.81 142.584 210.764 142.564C210.719 142.544 210.67 142.533 210.621 142.534H7.72049C7.66943 142.534 7.61889 142.544 7.57209 142.564C7.52641 142.584 7.48476 142.612 7.44927 142.646C7.41618 142.683 7.3886 142.724 7.36738 142.769C7.35148 142.815 7.34285 142.864 7.3418 142.912C7.34241 142.961 7.35105 143.01 7.36738 143.056C7.3886 143.1 7.41618 143.142 7.44927 143.179C7.48332 143.215 7.52536 143.243 7.57209 143.26C7.61889 143.281 7.66943 143.291 7.72049 143.291Z" fill="#FAEFD2"/>
<path d="M120.158 33.8934L119.902 33.4328L123.827 30.6744C123.798 31.6762 123.877 32.6782 124.063 33.6631C122.779 33.9287 121.464 34.0063 120.158 33.8934Z" fill="#DF8568"/>
<path d="M124.063 33.6683C124.277 35.0791 124.87 36.4055 125.777 37.5065C127.973 39.9066 122.159 37.5065 122.159 37.5065L120.158 33.8935C121.464 34.0056 122.779 33.9298 124.063 33.6683Z" fill="#FD9783"/>
<path d="M122.015 24.9326C122.015 24.9326 127.68 28.7094 127.312 30.5312C126.943 32.353 119.907 33.438 119.907 33.438C119.907 33.438 113.725 32.4145 113.766 30.6028C113.807 28.7912 122.015 24.9326 122.015 24.9326Z" fill="#FD9783"/>
<path d="M152.037 36.6671L153.086 39.7683C149.319 39.9321 145.537 39.7939 141.761 39.5943C141.75 38.7358 141.827 37.8785 141.991 37.0356L152.037 36.6671Z" fill="#FD9783"/>
<path d="M153.08 39.7684L154.754 44.7375L142.231 42.8747C141.92 41.8086 141.758 40.7047 141.75 39.5944C145.532 39.7939 149.314 39.9168 153.08 39.7684Z" fill="#DF8568"/>
<path d="M141.831 37.0408H141.984C141.604 38.9795 141.69 40.9809 142.235 42.8799L141.723 42.8031C141.304 40.9008 141.34 38.9261 141.831 37.0408Z" fill="#DF8568"/>
<path d="M130.051 39.0724L133.28 41.539L139.462 42.4756L140.025 42.5574L141.714 42.8133C141.493 41.7553 141.402 40.6744 141.442 39.5944L139.979 39.5176L139.426 39.4869C138.597 39.4409 137.773 39.3897 136.944 39.3487L135.741 39.2873L134.984 39.2515L134.319 39.2208H133.945H133.561C132.978 39.2208 132.389 39.1747 131.806 39.1594H131.223H130.65L130.051 39.0724Z" fill="#BF3C00"/>
<path d="M128.045 37.5423L130.051 39.0775C133.173 39.1185 136.3 39.3027 139.421 39.4767L139.979 39.5074L141.438 39.5842C141.47 38.7189 141.602 37.8602 141.832 37.0254L140.475 37.0715H139.892L128.045 37.5423Z" fill="#F64D00"/>
<path d="M143.09 34.6202L143.745 40.5309V40.6384L145.495 56.3288L191.553 52.0403L190.678 36.9179V36.8105L190.32 30.6694L179.783 31.5548L158.529 33.3357L143.09 34.6202Z" fill="#FBD5AF"/>
<path d="M144.472 34.5076L144.917 38.5709V38.6784L146.647 54.3687L191.456 50.1979L191.563 52.0403L145.495 56.3288L143.755 40.6384V40.5309L143.09 34.6202L144.472 34.5076Z" fill="#F2C294"/>
<path d="M182.998 133.158C180.122 133.245 177.456 134.448 174.81 135.651C174.769 135.436 174.733 135.226 174.692 135.011C174.593 134.52 174.501 134.028 174.416 133.537C177.226 132.734 180.204 132.421 182.998 133.158Z" fill="#1942E0"/>
<path d="M144.727 67.1984C144.727 67.1984 170.904 91.1331 177.991 101.291C178.415 101.907 178.74 102.586 178.954 103.303L190.647 142.529H175.98C175.602 140.256 175.264 137.979 174.829 135.64C177.454 134.438 180.12 133.24 183.017 133.153C180.223 132.411 177.244 132.723 174.455 133.532C172.275 121.644 171.523 110.319 170.264 98.5893C167.864 96.962 166.011 94.7768 163.831 92.8116C158.816 88.124 154.348 83.4414 149.441 78.5286C147.148 76.0824 144.958 73.6976 142.834 71.2566L144.727 67.1984Z" fill="#4FA5FF"/>
<path d="M149.415 78.5337C154.318 83.4415 158.785 88.1291 163.806 92.8219C165.986 94.7819 167.838 96.962 170.238 98.5996C171.548 110.81 172.285 122.586 174.711 135.011C175.223 137.57 175.566 140.057 175.98 142.534L168.366 139.965L165.996 104.869L141.027 75.0487L142.798 71.2617C144.932 73.6925 147.122 76.0978 149.415 78.5337Z" fill="#005BBA"/>
<path d="M132.516 131.961C129.154 132.223 125.864 133.07 122.793 134.463C123.196 133.781 123.603 133.111 124.016 132.452C126.805 131.863 129.666 131.69 132.506 131.94L132.516 131.961Z" fill="#1942E0"/>
<path d="M122.803 134.463C125.874 133.07 129.165 132.223 132.527 131.961C129.687 131.711 126.826 131.883 124.037 132.473C125.454 130.149 126.892 127.81 128.387 125.436C129.472 123.696 130.674 122.278 131.657 120.533C133.944 116.501 136.672 112.898 137.107 108.43C138.304 98.5126 136.145 88.9018 136.037 79.0864C133.422 78.4314 132.783 76.1796 132.455 73.4571C132.404 73.0221 132.491 72.8942 132.455 72.4336C132.887 71.1891 133.142 69.8903 133.213 68.575L144.727 67.1984C144.727 67.1984 148.432 72.8686 144.727 77.5563L145.495 109.858C145.525 110.92 145.352 111.978 144.983 112.975L133.827 142.544H117.891C119.538 139.852 121.161 137.15 122.803 134.463Z" fill="#4FA5FF"/>
<path d="M134.043 107.207V86.031C133.956 82.2751 133.332 78.551 132.19 74.972C131.972 74.1155 132.063 73.2096 132.446 72.4132C132.477 72.8738 132.395 73.0017 132.446 73.4367C132.774 76.1592 134.237 76.2514 136.028 79.066C136.136 88.8814 138.295 98.5127 137.098 108.415C136.658 112.888 133.935 116.485 131.643 120.518C130.665 122.263 129.462 123.681 128.372 125.426C124.708 131.255 121.361 136.899 117.892 142.539L111.307 139.965C111.641 136.955 112.813 134.099 114.69 131.722L134.043 107.207Z" fill="#005BBA"/>
<path d="M118.086 29.17C118.086 29.17 128.7 22.4149 124.995 19.2829C121.29 16.151 109.944 28.7299 112.565 32C115.185 35.2701 119.908 33.4278 119.908 33.4278L117.861 30.5927C117.861 30.5927 115.61 30.8128 116.116 29.3594C116.623 27.906 118.086 29.17 118.086 29.17Z" fill="#08294A"/>
<path d="M124.34 45.7201C127.175 47.6801 129.242 49.9728 132.19 51.6053C133.387 52.3678 134.36 52.9154 135.567 53.7854C138.464 55.9554 141.474 57.9695 144.585 59.8189C144.712 62.0604 144.743 64.0307 144.748 65.3766C143.149 64.5281 141.61 63.5705 140.142 62.5108C134.58 58.3656 129.677 54.553 125.199 49.4252C123.572 47.4652 121.714 45.5001 121.387 42.885C122.047 44.1951 123.137 44.9576 124.34 45.7201Z" fill="#BF3C00"/>
<path d="M144.743 65.8986C144.743 66.7122 144.743 67.1984 144.743 67.1984C144.743 67.1984 139.19 73.9638 132.973 70.3662C132.973 70.3662 133.423 68.6211 133.229 68.0633C137.067 68.8872 141.514 68.575 144.743 65.8986Z" fill="#005BBA"/>
<path d="M126.274 53.8928C129.708 56.6204 132.246 65.2691 133.214 68.0632C137.067 68.8872 141.509 68.575 144.744 65.8934V65.3816C143.143 64.537 141.604 63.581 140.138 62.5209C134.575 58.3757 129.667 54.558 125.195 49.4354C123.562 47.4703 121.704 45.5102 121.377 42.8952C122.032 44.2002 123.122 44.9422 124.319 45.7252C127.155 47.6903 129.227 49.9779 132.17 51.6155C133.372 52.378 134.345 52.9256 135.552 53.7955C138.449 55.9656 141.459 57.9797 144.57 59.8291C144.498 58.5548 144.39 57.1936 144.247 55.817C137.625 51.508 131.003 47.24 124.867 42.2401C131.141 45.2748 137.415 48.2174 143.602 51.4108C142.983 48.1918 142.026 45.2697 140.568 43.6577C138.111 40.9147 133.551 38.8881 129.775 37.5832L129.263 37.4092L128.239 37.0765C128.175 37.4473 128.024 37.7978 127.799 38.1C126.141 40.4132 122.84 39.1236 120.543 37.5525C120.161 37.8741 119.818 38.238 119.519 38.6374C119.411 38.7858 119.31 38.9395 119.217 39.098C116.285 44.0927 122.979 51.2828 126.274 53.8928Z" fill="#F64D00"/>
<path d="M143.618 51.4057C143.889 52.8386 144.099 54.333 144.258 55.8068C137.641 51.4978 131.019 47.2298 124.883 42.23C131.167 45.2647 137.431 48.2073 143.618 51.4057Z" fill="#BF3C00"/>
<path d="M127.994 36.9845L128.265 37.0715C128.2 37.4412 128.051 37.7912 127.83 38.095C127.594 38.4308 127.29 38.713 126.937 38.9229C126.584 39.1328 126.191 39.2657 125.783 39.313C126.323 39.1514 126.811 38.8515 127.199 38.443C127.586 38.0345 127.861 37.5317 127.994 36.9845Z" fill="#DF8568"/>
<path d="M120.568 37.5371C121.47 36.7965 122.486 36.2087 123.577 35.7971C123.577 35.7971 125.44 36.1963 127.994 36.9844C127.859 37.5313 127.584 38.0334 127.195 38.441C126.806 38.8485 126.318 39.1474 125.778 39.3078C124.125 39.5278 122.119 38.5964 120.568 37.5371Z" fill="#FD9783"/>
<path d="M124.994 41.7949L134.548 48.0639C132.793 49.3569 131.53 51.2085 130.966 53.3145L123.07 46.6617C123.07 46.6617 116.924 40.1982 124.994 41.7949Z" fill="#F64D00"/>
<path d="M134.55 48.064C132.979 49.5821 131.877 51.5203 131.377 53.6472L130.963 53.2941C131.533 51.1954 132.798 49.3518 134.55 48.064Z" fill="#DF8568"/>
<path d="M164.677 48.9902C163.766 47.7006 162.481 47.3577 161.125 47.3116C161.353 47.1361 161.63 47.0359 161.918 47.025C164.359 46.8203 166.805 50.1774 165.5 52.6953C165.818 51.4517 165.296 50.1212 164.677 48.9902Z" fill="#DF8568"/>
<path d="M134.568 48.1049L146.252 55.7812L160.1 53.6011C160.1 53.6011 160.678 51.7128 161.916 51.0424C161.916 51.0424 160.038 48.2482 161.123 47.327C162.479 47.3731 163.764 47.716 164.675 49.0056C165.294 50.1366 165.816 51.4671 165.504 52.7107C165.453 52.8135 165.395 52.9127 165.33 53.0075C165.33 53.0075 179.147 50.6022 180.452 51.984C180.662 52.2065 180.786 52.497 180.8 52.8028C180.615 53.0222 180.398 53.212 180.155 53.3657C177.863 54.7833 175.14 54.901 172.52 54.7833C172.413 57.6184 171.87 60.561 169.449 62.3061C167.704 63.6161 165.412 62.8485 163.452 62.5261C157.239 61.5435 151.349 62.4135 145.136 61.5435C143.176 61.216 141.426 60.2335 139.686 59.1434C137.178 57.6082 134.998 56.2008 132.598 54.4558C132.178 54.1845 131.769 53.9133 131.375 53.6421C131.891 51.53 132.999 49.6091 134.568 48.1049Z" fill="#FD9783"/>
<path d="M132.625 54.4403C135.025 56.1803 137.205 57.603 139.713 59.128C141.458 60.2129 143.203 61.175 145.163 61.523C151.375 62.3981 157.266 61.523 163.478 62.5056C165.444 62.8331 167.731 63.5956 169.476 62.2855C171.871 60.5507 172.414 57.603 172.547 54.7678C175.167 54.8753 177.889 54.7678 180.182 53.3503C180.423 53.1964 180.639 53.0066 180.822 52.7874C180.893 54.2817 178.483 56.344 173.713 56.4055C173.713 56.4055 174.369 67.5259 164.502 63.8924L144.349 63.1555C143.231 63.1149 142.159 62.7004 141.304 61.9785L131.438 53.6676C131.438 53.6676 131.438 53.6369 131.438 53.6215C131.796 53.8927 132.19 54.1691 132.625 54.4403Z" fill="#DF8568"/>
<path d="M139.678 17.8091L139.739 20.5521V20.6647L140.041 33.9396L158.505 33.3357L179.784 32.6346V31.5548L179.441 19.9585V19.8561L179.369 17.2973V17.2155L152.901 17.6044H152.62L139.678 17.8091Z" fill="#FFDFBF"/>
<path d="M140.706 17.7937L140.742 19.4415V19.5541L141.044 32.829L159.508 32.2405L179.784 31.5599L179.814 32.6346L158.531 33.3357L140.066 33.9395L139.765 20.6646V20.5521L139.703 17.8091L140.706 17.7937Z" fill="#F2C294"/>
<path d="M152.613 0V17.6197H152.762L179.373 17.3126L186.205 17.2307V0H152.613Z" fill="#FBD5AF"/>
<path d="M153.812 0V16.6576H153.96L180.572 16.3454L186.201 16.2789V17.2256L179.369 17.3075L152.758 17.6146H152.609V0H153.812Z" fill="#F2C294"/>
<path d="M110.544 140.574C109.963 141.397 110.552 142.534 111.56 142.534H143.259C144.226 142.534 145.01 141.719 144.797 140.775C144.767 140.641 144.735 140.506 144.703 140.373C144.701 140.367 144.7 140.36 144.698 140.354C144.1 138.02 142.441 134.53 137.877 133.701C137.665 133.663 137.452 133.634 137.24 133.606C137.217 133.603 137.194 133.6 137.17 133.598L136.817 133.563L136.116 133.517C132.864 133.387 129.98 134.321 127.795 135.383C124.812 136.834 121.741 138.339 118.441 138.684L112.457 139.31C111.746 139.385 111.103 139.766 110.697 140.354L110.544 140.574Z" fill="#252B80"/>
<path d="M168.89 139.372C168.398 139.429 168.036 139.86 168.065 140.354V140.569C168.128 141.672 169.041 142.534 170.146 142.534H196.932C197.981 142.534 198.754 141.546 198.371 140.569C198.345 140.497 198.315 140.425 198.284 140.354C197.097 137.452 195.213 135.533 192.905 134.489C192.808 134.443 192.716 134.402 192.619 134.366C191.945 134.085 191.243 133.876 190.526 133.742L-nan -nanL190.526 133.742L190.254 133.691L190.024 133.655L189.64 133.609C189.08 133.541 188.516 133.513 187.952 133.527C186.195 133.551 184.775 134.081 183.666 134.77C181.243 136.274 178.833 138.227 176 138.553L168.89 139.372Z" fill="#252B80"/>
<path d="M118.955 27.8803C118.955 27.8803 118.955 27.8803 118.981 27.8803C120.717 26.7179 122.242 25.2676 123.489 23.5918C124.16 22.7013 125.024 21.3452 124.927 19.8713H124.886C124.994 21.3094 124.129 22.6399 123.469 23.515C122.22 25.178 120.699 26.6176 118.97 27.7728C118.97 27.7728 118.97 27.7728 118.97 27.8086C118.966 27.8219 118.966 27.8363 118.97 27.8496L118.955 27.8803Z" fill="#252B80"/>
<path d="M117.052 32.5424C117.226 32.543 117.399 32.5153 117.564 32.4605C117.576 32.4629 117.588 32.4629 117.6 32.4605C117.605 32.4474 117.605 32.4328 117.6 32.4196C117.595 32.4058 117.586 32.3935 117.574 32.3838H117.534C117.113 32.4928 116.668 32.4566 116.27 32.281C115.873 32.1055 115.546 31.8009 115.343 31.4166C115.146 31.0253 115.043 30.5932 115.043 30.1551C115.043 29.7169 115.146 29.2849 115.343 28.8936C115.743 28.1023 116.334 27.4234 117.063 26.9182C117.477 26.5958 117.928 26.3093 118.368 26.0278C118.67 25.8384 118.982 25.6389 119.279 25.429C121.036 24.2038 122.506 22.6113 123.588 20.7618C123.588 20.7618 123.588 20.7618 123.588 20.7618H123.547C122.474 22.5981 121.014 24.1786 119.268 25.3932C118.972 25.603 118.659 25.8026 118.357 25.992C117.922 26.2734 117.467 26.5651 117.047 26.8875C116.304 27.4038 115.701 28.0967 115.292 28.9038C115.088 29.3115 114.982 29.7609 114.982 30.2165C114.982 30.6721 115.088 31.1215 115.292 31.5291C115.471 31.8527 115.731 32.1239 116.047 32.316C116.363 32.5081 116.724 32.6144 117.093 32.6243L117.052 32.5424Z" fill="#252B80"/>
<path d="M114.177 31.6571C114.19 31.6496 114.2 31.6391 114.208 31.6264C114.213 31.6132 114.213 31.5986 114.208 31.5855C113.87 30.3159 114.041 28.9646 114.684 27.8189C115.328 26.6802 116.141 25.645 117.094 24.7484C118.734 23.0806 120.474 21.5135 122.304 20.0556C122.308 20.0441 122.308 20.0314 122.304 20.0198C122.309 20.0067 122.309 19.992 122.304 19.9789H122.263C120.429 21.4414 118.684 23.0119 117.038 24.6819C116.08 25.5896 115.262 26.6348 114.612 27.7831C113.953 28.9531 113.78 30.3353 114.131 31.6315C114.129 31.6399 114.129 31.6487 114.131 31.6571H114.162H114.177Z" fill="#252B80"/>
<path d="M122.467 27.691C122.497 27.6968 122.529 27.6968 122.559 27.691C122.589 27.6764 122.615 27.6555 122.636 27.6296C122.652 27.6075 122.666 27.5835 122.677 27.5579C122.688 27.5313 122.695 27.5026 122.695 27.4735C122.695 27.4444 122.688 27.4157 122.677 27.3891C122.664 27.3637 122.647 27.341 122.626 27.3225L122.027 26.8108C122.005 26.7912 121.979 26.7772 121.95 26.7698C121.923 26.7624 121.895 26.7624 121.868 26.7698C121.841 26.7646 121.813 26.7646 121.786 26.7698C121.76 26.7828 121.737 26.8022 121.72 26.8261C121.7 26.8467 121.684 26.8711 121.674 26.8978C121.669 26.9266 121.669 26.956 121.674 26.9848C121.669 27.0119 121.669 27.0396 121.674 27.0667C121.69 27.0911 121.709 27.1134 121.73 27.1332L122.329 27.6449C122.347 27.6628 122.369 27.6766 122.392 27.6854C122.416 27.6942 122.442 27.6979 122.467 27.6961V27.691Z" fill="#080C53"/>
<path d="M123.49 26.7494C123.532 26.7501 123.573 26.7376 123.608 26.7135C123.643 26.6917 123.669 26.6595 123.685 26.6214C123.698 26.5815 123.698 26.5385 123.685 26.4986C123.676 26.4588 123.654 26.4229 123.623 26.3963L123.071 25.9306C123.029 25.8958 122.976 25.8776 122.922 25.8794C122.896 25.8818 122.871 25.8895 122.848 25.9018C122.826 25.9141 122.805 25.9308 122.789 25.951C122.772 25.9705 122.759 25.9933 122.751 26.0179C122.743 26.0426 122.741 26.0686 122.743 26.0943C122.743 26.1208 122.749 26.147 122.761 26.1709C122.772 26.1948 122.789 26.2158 122.81 26.2325L123.352 26.6982C123.37 26.7154 123.39 26.7288 123.413 26.7376C123.436 26.7464 123.461 26.7504 123.485 26.7494H123.49Z" fill="#080C53"/>
<path d="M125.487 30.6744C125.236 30.6744 125.031 30.3009 125.031 29.8454C125.031 29.3899 125.236 29.0215 125.487 29.0215C125.737 29.0215 125.937 29.3899 125.937 29.8454C125.937 30.3009 125.732 30.6744 125.487 30.6744Z" fill="#DF8568"/>
<path d="M146.254 55.7504L141.766 56.4208L145.189 55.0493L146.254 55.7504Z" fill="#DF8568"/>
<path d="M121.719 36.7133L122.558 38.182L121.264 36.9998C121.412 36.9026 121.56 36.8054 121.719 36.7133Z" fill="#DF8568"/>
<path d="M198.272 140.354H168.043V140.574H198.359C198.334 140.497 198.303 140.425 198.272 140.354Z" fill="#1942E0"/>
<path d="M110.562 140.574H144.768C144.768 140.502 144.732 140.43 144.717 140.354H110.696L110.562 140.574Z" fill="#1942E0"/>
<path d="M136.842 76.8091C136.91 76.8088 136.976 76.7833 137.027 76.7375L141.202 72.884C141.233 72.8622 141.256 72.8319 141.269 72.797C141.285 72.7652 141.294 72.7303 141.295 72.6946C141.3 72.659 141.3 72.6228 141.295 72.5872C141.281 72.5537 141.262 72.5226 141.238 72.4951C141.214 72.4689 141.184 72.448 141.151 72.4336C141.118 72.4261 141.083 72.4261 141.049 72.4336C141.014 72.4238 140.977 72.4238 140.941 72.4336C140.907 72.4455 140.876 72.4647 140.849 72.4899L136.673 76.3383C136.632 76.3764 136.603 76.4265 136.592 76.4816C136.574 76.533 136.574 76.5889 136.592 76.6403C136.612 76.6908 136.646 76.7349 136.689 76.7682C136.736 76.7988 136.791 76.8148 136.847 76.8143L136.842 76.8091Z" fill="#005BBA"/>
<path d="M152.613 2.49219H186.195V2.59966H152.613V2.49219Z" fill="#F3A769"/>
<path d="M139.738 20.5521V20.6647L179.44 19.9584V19.8561L139.738 20.5521Z" fill="#F3A769"/>
<path d="M143.744 40.5309V40.6383L190.687 36.9179V36.8104L143.744 40.5309Z" fill="#F3A769"/>
<path d="M183.647 29.0369C181.687 30.0195 179.287 30.2344 177.537 28.8169C176.001 27.7319 176.227 25.4393 176.554 23.6993C175.554 24.5914 174.386 25.2767 173.12 25.7159C171.853 26.155 170.513 26.3393 169.175 26.2581C168.151 24.0166 174.215 18.4129 179.41 19.1703C179.41 19.1703 183.98 22.8754 185.09 26.0892C185.141 27.3277 184.865 28.4638 183.647 29.0369Z" fill="#FD9783"/>
<path d="M176.564 23.6942C176.236 25.4393 176.016 27.732 177.541 28.8118C179.286 30.2344 181.686 30.0144 183.657 29.0318C184.87 28.4586 185.151 27.3225 185.105 26.1046C185.868 28.3205 184.982 30.301 179.808 30.6694C173.626 31.1044 175.883 24.9275 175.883 24.9275C175.883 24.9275 171.303 28.561 169.41 26.5959C169.32 26.5002 169.246 26.3915 169.189 26.2735C170.528 26.3509 171.869 26.1629 173.134 25.7203C174.4 25.2776 175.565 24.5891 176.564 23.6942Z" fill="#DF8568"/>
<path d="M123.521 133.568H123.546L140.183 110.462L139.626 76.8398C139.628 76.8341 139.629 76.828 139.629 76.8219C139.629 76.8157 139.628 76.8096 139.626 76.804H139.585H139.549C139.545 76.8156 139.545 76.8282 139.549 76.8398L140.107 110.447L123.49 133.496C123.488 133.504 123.488 133.513 123.49 133.522C123.488 133.532 123.488 133.542 123.49 133.552H123.516L123.521 133.568Z" fill="#1942E0"/>
<path d="M119.253 39.0775C120.932 40.0038 123.49 40.8788 125.537 40.8788C126.459 40.9259 127.371 40.6786 128.142 40.1726C129.007 39.5525 129.596 38.62 129.785 37.5729L129.273 37.3989C129.203 37.8659 129.037 38.3134 128.787 38.7141C128.535 39.1142 128.209 39.4617 127.825 39.7376C125.962 41.1091 121.914 39.8912 119.55 38.6169C119.442 38.7653 119.341 38.919 119.248 39.0775H119.253Z" fill="#BF3C00"/>
<path d="M129.287 51.8866C129.814 50.1132 130.795 48.5081 132.132 47.2297C132.301 47.071 132.465 46.9329 132.644 46.8049L133.156 47.1273C131.506 48.4235 130.319 50.2187 129.773 52.2449L129.287 51.8866Z" fill="#BF3C00"/>
<path d="M139.462 42.4756L140.025 42.5575C139.874 41.5508 139.858 40.5284 139.978 39.5177C140.074 38.6985 140.246 37.8899 140.49 37.1022H139.907C139.681 37.8732 139.523 38.6626 139.436 39.4614C139.324 40.4553 139.338 41.4594 139.477 42.45L139.462 42.4756Z" fill="#BF3C00"/>
<path d="M85.8711 57.7002C84.0493 59.4095 80.7536 62.9457 82.2888 64.7726C84.387 67.2393 89.0542 67.2393 90.8812 65.6836C92.3294 64.4502 91.5874 59.8444 91.2189 58.0072C89.4499 58.485 87.5738 58.3773 85.8711 57.7002Z" fill="#E4E4E4"/>
<path d="M51.4397 34.6713C51.7262 37.3632 48.3691 34.963 48.3691 34.963L48.6762 29.9325C49.7152 30.5078 50.8273 30.9399 51.9821 31.217C51.5401 32.312 51.3545 33.4936 51.4397 34.6713Z" fill="#FD9783"/>
<path d="M52.9643 29.17C52.5699 29.8182 52.2407 30.5039 51.9817 31.217C50.8274 30.9431 49.7153 30.5145 48.6758 29.9428L48.8907 26.3605L52.9643 29.17Z" fill="#DF8568"/>
<path d="M55.0128 22.7731C55.0128 22.7731 57.5716 27.6347 56.0363 30.7052C55.0896 32.0153 47.0027 28.776 47.0027 28.776C47.0027 28.776 42.219 17.5378 55.0128 22.7731Z" fill="#FD9783"/>
<path d="M48.5273 24.4158C48.5273 24.4158 53.8342 26.0176 56.5209 24.1292C59.2076 22.2409 58.7061 15.9975 52.5241 16.1305C46.3422 16.2636 46.424 20.5879 46.424 20.5879C46.424 20.5879 42.7855 20.4958 41.6954 23.6175C41.3693 24.4636 41.3205 25.3914 41.556 26.2671C41.7914 27.1427 42.299 27.9209 43.0055 28.4894C43.0055 28.4894 33.8451 34.088 38.2104 42.3067C42.5756 50.5255 52.1659 44.4919 52.1659 44.4919L48.164 38.2997L48.8907 26.3451C48.8907 26.3451 45.9123 24.9276 47.074 23.8375C48.2356 22.7475 48.5273 24.4158 48.5273 24.4158Z" fill="#08294A"/>
<path d="M51.8955 24.119C52.6899 24.1236 53.4722 23.9245 54.1677 23.5407C54.9776 23.0696 55.6309 22.3704 56.0459 21.5304C56.4609 20.6904 56.6193 19.7467 56.5013 18.8172C56.5046 18.8055 56.5046 18.7931 56.5013 18.7814H56.4604H56.4245C56.4198 18.7946 56.4198 18.8091 56.4245 18.8223C56.5536 19.7308 56.4037 20.657 55.9947 21.4783C55.5857 22.3 54.9406 22.9807 54.1421 23.4332C53.3432 23.8811 52.4282 24.0786 51.5157 24.0002C50.6031 23.9217 49.7353 23.5708 49.0246 22.9931H48.9785C49.8254 23.6642 50.8764 24.0254 51.9569 24.0166L51.8955 24.119Z" fill="#080C53"/>
<path d="M46.3135 28.6275C45.4237 28.0804 44.7648 27.2267 44.461 26.2273C44.3153 25.732 44.3001 25.2075 44.4166 24.7045C44.5332 24.2015 44.7776 23.7372 45.1262 23.3564C45.8034 22.7585 46.6694 22.418 47.5724 22.3943C48.1143 22.3585 48.6579 22.3585 49.1998 22.3943C49.558 22.3943 49.9265 22.425 50.2898 22.425C51.214 22.474 52.1317 22.2459 52.9254 21.77C53.3203 21.5219 53.6299 21.1591 53.8129 20.7301C53.9958 20.3012 54.0433 19.8265 53.9489 19.3698H53.9079C53.8978 19.3678 53.8874 19.3678 53.8772 19.3698C53.8725 19.3831 53.8725 19.3975 53.8772 19.4108C53.9549 19.85 53.8989 20.3024 53.7164 20.7093C53.5339 21.1163 53.2333 21.4591 52.8537 21.6932C52.0823 22.1536 51.1922 22.3761 50.295 22.3329C49.9316 22.3329 49.5631 22.3329 49.2049 22.2971C48.6578 22.2638 48.1093 22.2638 47.5622 22.2971C46.6322 22.3212 45.7406 22.6728 45.0444 23.2899C44.6834 23.6843 44.4303 24.1652 44.3093 24.686C44.1882 25.2068 44.2035 25.75 44.3535 26.2632C44.6643 27.2894 45.3396 28.1667 46.2521 28.7298L46.3135 28.6275Z" fill="#080C53"/>
<path d="M46.0159 44.5225C46.0198 44.5109 46.0198 44.4983 46.0159 44.4867C46.021 44.4735 46.021 44.4589 46.0159 44.4458C44.8907 43.2915 44.1312 41.8309 43.8326 40.2469C43.534 38.6628 43.7095 37.0259 44.3373 35.5412C44.7308 34.7466 45.1878 33.9851 45.7037 33.2639C45.8879 32.9774 46.0824 32.6754 46.2666 32.3735C46.9656 31.3515 47.3983 30.1712 47.5255 28.9396C47.5818 27.8138 47.1212 26.3808 45.9391 25.7821C45.9329 25.7785 45.9258 25.7766 45.9186 25.7766C45.9114 25.7766 45.9044 25.7785 45.8982 25.7821C45.8882 25.779 45.8774 25.779 45.8675 25.7821C46.9984 26.3808 47.4488 27.7472 47.4027 28.8526C47.2733 30.0654 46.8461 31.2275 46.1592 32.2353C45.9749 32.5321 45.7805 32.8341 45.5962 33.1258C45.1002 33.8492 44.6622 34.6106 44.2861 35.4031C43.6524 36.908 43.4761 38.5663 43.7792 40.1709C44.0822 41.7754 44.8513 43.2552 45.9903 44.4253L46.0159 44.5225Z" fill="#080C53"/>
<path d="M45.0482 46.8102C43.0012 45.2749 40.4424 43.3405 39.4496 40.6179C39.0806 39.5857 38.9226 38.4899 38.985 37.3954C39.0474 36.301 39.329 35.2302 39.813 34.2466C40.7997 32.272 42.4069 30.6756 44.388 29.7022C44.3868 29.695 44.3831 29.6884 44.3774 29.6838C44.3718 29.6791 44.3647 29.6765 44.3573 29.6766H44.3164C42.3156 30.6625 40.6965 32.2816 39.7106 34.2824C39.221 35.2788 38.9362 36.3633 38.8729 37.4717C38.8096 38.5801 38.9692 39.69 39.3422 40.7356C40.3657 43.4889 42.9244 45.4233 44.9714 46.979L45.0482 46.8102Z" fill="#080C53"/>
<path d="M46.8186 21.5653C47.0643 21.5471 47.3024 21.4726 47.5145 21.3474C47.7266 21.2223 47.9071 21.0499 48.0417 20.8437C48.2233 20.5785 48.3808 20.2976 48.5125 20.0044C48.5893 19.8407 48.6712 19.6718 48.7582 19.4927C49.2808 18.5594 50.1203 17.844 51.1247 17.4761C52.1291 17.1081 53.2321 17.1118 54.2339 17.4866H54.2749C53.2505 17.0999 52.1214 17.0939 51.0929 17.4696C50.0645 17.8453 49.2051 18.5777 48.6712 19.5336C48.5791 19.6974 48.4972 19.8663 48.4153 20.0454C48.2879 20.3296 48.1355 20.6019 47.9598 20.8591C47.8186 21.0508 47.632 21.2045 47.4168 21.3063C47.2015 21.4082 46.9643 21.4549 46.7265 21.4425C46.7134 21.4373 46.6987 21.4373 46.6856 21.4425C46.6829 21.4543 46.6829 21.4665 46.6856 21.4783L46.8186 21.5653Z" fill="#080C53"/>
<path d="M54.3051 80.8264C52.9591 78.7794 51.2345 77.1265 49.9961 75.2381L51.3625 69.1584L58.3479 69.8493L56.9611 84.4394C56.8485 84.2552 56.7308 84.0556 56.6182 83.8816C56.0501 82.679 55.0727 81.9165 54.3051 80.8264Z" fill="#252B80"/>
<path d="M25.5156 142.534H39.3739L41.4875 137.211L41.5233 137.109L54.9722 103.226C55.1141 102.878 55.2038 102.51 55.2383 102.136L55.4174 100.268L56.1185 93.0061L56.7019 86.9572V86.7473L56.9629 84.4393C56.8503 84.2551 56.7377 84.0555 56.62 83.8815C56.0776 82.684 55.0848 81.9215 54.3325 80.811C53.9691 80.2583 53.5853 79.7363 53.1862 79.2348C53.0889 79.1069 52.9866 78.984 52.8893 78.8612C51.8658 77.6279 50.8423 76.4764 50.0184 75.2175L49.4452 77.7763C49.4452 77.8838 49.4452 77.9912 49.4452 78.0987L49.3941 78.7435C49.1894 81.4353 48.9898 84.0862 48.7595 86.7269C48.2938 92.0849 47.736 97.4072 46.7125 102.96C46.4924 103.937 45.4024 104.92 44.8548 106.03C39.9113 115.656 35.1468 125.211 30.0395 134.54L29.9832 134.642C28.523 137.286 27.0338 139.917 25.5156 142.534Z" fill="#005BBA"/>
<path d="M18.168 141.756L25.5104 142.534L26.1705 141.403C26.3803 141.045 26.585 140.681 26.7949 140.318L27.5932 138.921L28.0589 138.087L28.6474 137.038L29.978 134.637L30.0291 134.535L30.1059 134.402L30.8633 133.056L31.1806 132.473L31.9329 131.076L31.9892 130.968L32.8745 129.31L33.6575 127.826C33.8008 127.555 33.9492 127.278 34.0925 126.997L34.8038 125.651L35.5766 124.157C36.5387 122.314 37.4854 120.467 38.4321 118.614L39.2919 116.926C41.1376 113.309 42.9867 109.676 44.8393 106.025C45.3818 104.935 46.4667 103.978 46.6918 102.955L46.8147 102.248C46.9017 101.767 46.9784 101.297 47.0552 100.821L47.1268 100.37C47.1729 100.099 47.2138 99.8279 47.2548 99.5515C47.2855 99.3673 47.3111 99.1831 47.3418 98.9988C47.3725 98.8146 47.4083 98.5434 47.439 98.3233L47.4697 98.1135C47.5004 97.9037 47.526 97.7041 47.5567 97.4943C47.5977 97.177 47.6437 96.8597 47.6949 96.5424C47.7205 96.3224 47.7512 96.1074 47.7768 95.8925C47.8024 95.6776 47.8279 95.4831 47.8535 95.2784V95.1146C47.8535 94.8997 47.9047 94.6796 47.9354 94.4647L47.9661 94.1935L48.0378 93.5947C48.1094 92.9448 48.181 92.3 48.2476 91.6501L48.3397 90.7494C48.3755 90.4167 48.4062 90.079 48.442 89.7259L48.5342 88.7433L48.6212 87.7914L48.7133 86.7321L48.7849 85.8775L48.8463 85.1405C48.8924 84.6288 48.9333 84.117 48.9743 83.5592L49.0971 82.024L49.1585 81.2512C49.2199 80.4734 49.2813 79.716 49.3376 78.9074V78.7692L49.3837 78.1244C49.3837 78.0169 49.3837 77.9095 49.3837 77.802L49.2864 78.5287L47.8177 84.9512L44.0256 101.798L22.9567 132.964L22.8902 133.061L18.168 141.756Z" fill="#252B80"/>
<path d="M43.8405 72.3211C44.603 74.2862 46.1331 76.4663 48.5281 76.5738C51.4758 84.7618 55.836 92.0594 59.5411 99.9046C59.9761 100.887 60.7437 101.87 61.1736 102.74C61.5011 103.722 61.8235 104.812 62.151 105.902C65.5081 115.349 68.8038 124.627 72.1763 133.941L72.2223 134.059C73.2458 136.881 74.2694 139.705 75.2929 142.534L84.4392 141.5L82.3921 136.393L68.8857 99.3417C68.8274 99.2096 68.7607 99.0814 68.6861 98.9579L54.4031 75.8112C54.4031 75.8112 59.2903 72.229 58.3077 67.1984C57.3252 62.1679 49.5414 60.1311 49.5414 60.1311C48.7738 60.6429 47.4944 62.434 45.1915 63.4575C42.4741 65.6069 42.4639 68.9486 43.8405 72.3211Z" fill="#005BBA"/>
<path d="M41.6101 73.6925C42.6899 77.9452 46.0471 81.3228 47.9968 85.2581L51.0213 91.3685L51.1032 91.5374L57.6894 104.843L62.9298 132.258V132.375L66.0169 140.732L75.2887 142.518C74.2652 139.683 73.2416 136.857 72.2181 134.039C72.2181 133.998 72.1874 133.957 72.1772 133.921L70.9183 130.431C70.079 128.1 69.2431 125.772 68.4107 123.445C67.3667 120.538 66.3244 117.621 65.2839 114.694C64.9256 113.671 64.564 112.657 64.199 111.654L62.1519 105.882C61.8244 104.797 61.502 103.707 61.1745 102.719C60.7344 101.849 59.9719 100.867 59.542 99.8841C55.842 92.0542 52.6129 84.6952 48.5188 76.763C45.4483 71.3896 45.8065 72.5871 45.044 70.622C43.6623 67.2495 43.5088 65.095 46.2159 62.9457C44.4248 63.7133 42.8384 64.5731 41.7739 68.0632C41.1967 69.8879 41.14 71.8374 41.6101 73.6925Z" fill="#252B80"/>
<path d="M60.6676 42.885L76.88 64.6243L70.5496 65.873C65.995 59.2611 62.6635 51.9021 59.291 44.6096L60.6676 42.885Z" fill="#FD9783"/>
<path d="M57.6875 46.6208L59.2944 44.6045C62.6617 51.897 65.9933 59.256 70.553 65.8679L68.7772 66.2159L57.6875 46.6208Z" fill="#DF8568"/>
<path d="M68.9219 56.8047L72.9289 59.3635L74.633 61.6561L68.9219 56.8047Z" fill="#DF8568"/>
<path d="M54.9863 35.3468L55.2729 35.4594C54.7958 36.407 54.001 37.1568 53.0272 37.5777C52.0534 37.9987 50.9626 38.064 49.9455 37.7623L49.6641 37.6599C51.7264 37.8697 53.7939 37.1891 54.9863 35.3468Z" fill="#DF8568"/>
<path d="M49.7988 33.2896L54.9727 35.3366C53.7803 37.1789 51.7128 37.839 49.6504 37.6446C48.4414 37.1946 47.3233 36.5307 46.3496 35.6846L49.7988 33.2896Z" fill="#FD9783"/>
<path d="M59.5208 45.1981C60.5443 48.8059 62.4327 60.4893 59.1984 65.9292C59.0602 65.7808 58.9272 65.6222 58.789 65.4533C57.8064 64.1432 57.2537 62.7257 56.5014 61.3081C53.6663 56.1906 49.8486 51.5848 47.9961 46.0476C49.6235 48.5552 53.2313 49.6299 55.9539 47.9001C56.5479 47.5415 56.9943 46.9826 57.2128 46.3239C57.6734 48.1765 58.0521 43.9494 59.5208 45.1981Z" fill="#FFE900"/>
<path d="M57.5813 67.833C54.915 69.138 46.6604 64.3991 46.727 62.434C47.4383 59.1076 48.2622 56.5181 47.4383 53.2992C48.5437 56.0064 49.5723 58.7647 50.821 61.4207C52.1538 64.3567 54.579 66.6571 57.5813 67.833Z" fill="#EFBA1C"/>
<path d="M62.6825 45.239C62.6365 45.4437 61.1933 45.239 61.2598 45.4437C61.9916 47.7006 58.7932 52.1733 58.3224 48.6882C58.3991 48.2942 53.7166 50.6943 52.6931 49.0413C52.4526 48.6422 51.6286 49.1898 51.1578 48.2635C51.1066 48.1611 52.0227 47.9257 51.4751 46.9176C50.165 46.9176 50.4055 47.3935 49.643 46.3035C48.9419 45.0957 48.1692 44.7682 48.0566 44.2564C47.9184 43.627 48.8652 41.5032 48.2511 41.6977C47.5039 41.9331 47.1405 42.7928 45.7844 43.9545C46.9819 49.7322 50.5795 54.4096 53.0871 59.65C54.4874 62.4309 56.1423 65.076 58.0307 67.5515C57.8932 67.6684 57.742 67.7681 57.5803 67.8483C54.574 66.6654 52.1483 64.3554 50.8201 61.4104C49.5714 58.7595 48.5428 55.9961 47.4374 53.2889C46.8942 51.1509 46.1417 49.0717 45.1908 47.0813C42.9493 42.6547 43.4201 39.1747 43.7937 37.7213C43.8507 37.4939 43.9554 37.2811 44.1007 37.097C44.239 36.9124 44.4131 36.7575 44.6125 36.6415L46.3576 35.6743C47.4082 36.5816 48.6247 37.2768 49.9398 37.7213C50.9569 38.0241 52.0481 37.9593 53.0221 37.5382C53.9961 37.1172 54.7909 36.3667 55.2672 35.4185L57.5343 36.488C57.8817 36.6522 58.1786 36.9067 58.394 37.2249L60.2773 40.0549" fill="#FFE900"/>
<path d="M86.6447 80.463H92.6782V59.2406H56.8555V80.463H86.6447Z" fill="#FBD5AF"/>
<path d="M58.9621 59.2406V79.0148H92.6509V80.463H56.8281V59.2406H58.9621Z" fill="#F2C294"/>
<path d="M47.0795 49.6094L46.752 48.8111C48.0792 47.6708 49.7482 47.0046 51.4959 46.9176C50.6089 47.0204 49.7548 47.3143 48.9924 47.779C48.2299 48.2437 47.5773 48.8682 47.0795 49.6094Z" fill="#DF8568"/>
<path d="M85.4883 82.5714C81.1333 84.1067 76.2256 83.7689 71.6454 82.3514C69.7929 81.8089 69.4653 79.6289 69.5728 77.8838C69.1378 77.9912 68.4879 78.2113 68.2678 77.8838C62.5976 71.886 57.8076 65.5607 52.9152 59.1382C51.7382 55.4115 50.1216 51.8382 48.0996 48.4938C49.0449 47.6224 50.2488 47.0834 51.5284 46.9585L59.4554 61.0061L74.066 71.9065C74.066 71.9065 76.9011 71.0365 77.6995 71.9065C77.6995 71.9065 79.9512 69.3477 81.4813 69.8595C83.0115 70.3712 83.0166 75.5297 77.9911 75.238C77.9911 75.238 80.6779 79.8438 81.6246 80.4733H86.6449C86.7801 80.682 86.8835 80.9097 86.952 81.1488C86.8139 81.4707 86.6135 81.7621 86.3623 82.0063C86.1111 82.2505 85.8141 82.4425 85.4883 82.5714Z" fill="#FD9783"/>
<path d="M48.0792 48.4835C50.1003 51.8285 51.7168 55.4017 52.8948 59.128C57.7974 65.5607 62.6181 71.886 68.2474 77.8735C68.4624 78.2011 69.1174 77.9861 69.5524 77.8735C69.4449 79.6186 69.7724 81.7987 71.625 82.3463C76.2052 83.7638 81.1129 84.0914 85.4679 82.5612C86.1168 82.2962 86.634 81.7845 86.906 81.1385C87.3512 82.6738 86.691 86.0923 70.1 83.073C68.4982 82.7813 68.8615 80.3811 68.8615 80.3811L53.5089 64.4042C53.1299 64.0118 52.8278 63.5518 52.6185 63.048L47.0762 49.5991C47.3742 49.1898 47.7175 48.8156 48.0997 48.4835H48.0792Z" fill="#DF8568"/>
<path d="M44.0254 42.2299C44.0254 42.2299 44.3887 37.7879 47.9505 40.6333L51.497 46.9176C50.1946 46.9722 48.9286 47.3637 47.8226 48.0537C46.6814 46.1602 45.4481 44.3281 44.1687 42.537L44.0254 42.2299Z" fill="#FFE900"/>
<path d="M44.168 42.537C45.4627 44.3281 46.696 46.1602 47.8321 48.0537C47.4457 48.2789 47.0762 48.532 46.7267 48.8111L44.168 42.537Z" fill="#EFBA1C"/>
<path d="M68.2726 137.364C66.097 136.938 64.1805 138.847 64.5971 141.024L64.6422 141.26C64.6493 141.297 64.6528 141.335 64.6528 141.372C64.6528 141.409 64.6563 141.447 64.6633 141.483L64.6742 141.541C64.7835 142.117 65.2869 142.534 65.873 142.534H89.4912C90.1677 142.534 90.2603 141.555 89.5957 141.428L89.0225 141.316L84.0841 140.374L83.9152 140.338L83.3105 140.225C83.277 140.219 83.2431 140.215 83.2091 140.215C83.1716 140.215 83.1343 140.212 83.0976 140.204L83.0043 140.185L82.861 140.159L82.4049 140.072C82.3679 140.065 82.3303 140.062 82.2926 140.062C82.2554 140.062 82.2183 140.058 82.1817 140.052L82.0729 140.031L81.9143 140L81.4895 139.919L81.4238 139.905C81.3859 139.897 81.3472 139.893 81.3084 139.893C81.2723 139.893 81.2363 139.89 81.2009 139.883L81.0955 139.862L80.5641 139.725C80.5228 139.714 80.4802 139.709 80.4375 139.709C80.4054 139.709 80.3734 139.706 80.3419 139.7L78.3422 139.315L77.1908 139.095L75.7835 138.829L74.632 138.609L68.2726 137.364Z" fill="#FFE900"/>
<path d="M17.2237 141.454C16.9079 141.91 17.2346 142.534 17.7897 142.534H42.3403C43.008 142.534 43.1147 141.575 42.4634 141.428L41.9824 141.316L37.9958 140.415L37.8269 140.374L37.2435 140.246L37.1361 140.221L36.9109 140.169L36.7625 140.139L36.3902 140.053C36.3553 140.045 36.3197 140.041 36.2839 140.041C36.2483 140.041 36.2127 140.037 36.178 140.03L35.9386 139.975L35.7748 139.939L35.437 139.862L35.3142 139.837L35.1766 139.804C35.1253 139.792 35.0757 139.773 35.0292 139.748C34.9806 139.722 34.9287 139.703 34.8749 139.691L34.4801 139.601L34.3675 139.576L32.4945 139.197L31.3635 138.941L29.9869 138.629L28.8559 138.373L26.2689 137.788C22.8329 137.012 19.2723 138.422 17.3005 141.341L17.2237 141.454Z" fill="#FFE900"/>
<path d="M52.5762 25.823C52.576 25.8958 52.5973 25.9671 52.6376 26.0277C52.6805 26.0869 52.7389 26.1329 52.8065 26.1608C52.8745 26.1838 52.9482 26.1838 53.0163 26.1608C53.0875 26.1474 53.1533 26.1136 53.2056 26.0636C53.2562 26.0108 53.2916 25.9454 53.308 25.8742C53.3285 25.804 53.3285 25.7294 53.308 25.6593C53.2782 25.5928 53.2303 25.5361 53.1698 25.4955C53.1091 25.4553 53.0379 25.4339 52.9651 25.4341C52.9166 25.4337 52.8686 25.443 52.8237 25.4614C52.7789 25.4799 52.7382 25.5071 52.7041 25.5416C52.636 25.6115 52.5975 25.705 52.5966 25.8026L52.5762 25.823Z" fill="#080C53"/>
<path d="M54.4805 25.5058C54.4819 25.5696 54.5014 25.6317 54.5368 25.6849C54.5734 25.736 54.6228 25.7766 54.6801 25.8026C54.7382 25.8289 54.8032 25.8362 54.8657 25.8234C54.9282 25.8105 54.9851 25.7781 55.028 25.7309C55.0754 25.6883 55.1062 25.6303 55.115 25.5672C55.1353 25.5074 55.1353 25.4427 55.115 25.3829C55.0891 25.3257 55.0485 25.2762 54.9973 25.2396C54.9445 25.2035 54.8822 25.1839 54.8182 25.1833C54.7761 25.1835 54.7344 25.1922 54.6957 25.2089C54.657 25.2256 54.6221 25.25 54.5931 25.2806C54.5622 25.3094 54.5377 25.3443 54.521 25.383C54.5042 25.4218 54.4957 25.4636 54.4958 25.5058H54.4805Z" fill="#080C53"/>
<path d="M55.7009 28.4932C55.8024 28.1221 55.3676 27.9012 54.9967 28.0031C54.9257 28.0226 54.8542 28.0388 54.7823 28.0516C54.3665 28.1255 54.0236 28.5766 54.3311 28.8661C54.5457 29.0681 54.8079 29.2115 55.1001 29.1592C55.4428 29.0979 55.6154 28.8057 55.7009 28.4932Z" fill="#F5F6FB"/>
<path d="M48.4112 34.2875L48.3139 36.1656L48.0273 34.5587L48.4112 34.2875Z" fill="#DF8568"/>
<path d="M59.4346 60.9856L55.4531 57.6285L58.6772 59.6449L59.4346 60.9856Z" fill="#DF8568"/>
<path d="M89.0442 141.316H64.6387V141.428H89.5816L89.0442 141.316Z" fill="#1253A3"/>
<path d="M17.2246 141.428H42.4643L41.9833 141.316H17.3014L17.2246 141.428Z" fill="#1253A3"/>
<path d="M29.0469 142.534L31.3754 138.916L32.5063 139.171L30.3518 142.534H29.0469Z" fill="#1253A3"/>
<path d="M26.1797 142.534H27.4744L29.9871 138.603L28.8562 138.348L26.1797 142.534Z" fill="#1253A3"/>
<path d="M74.9668 142.534H76.2615L78.3495 139.269L77.198 139.049L74.9668 142.534Z" fill="#1253A3"/>
<path d="M72.0938 142.534H73.3885L75.7886 138.783L74.6372 138.562L72.0938 142.534Z" fill="#1253A3"/>
<path d="M74.6316 134.52L63.7773 101.634L48.0306 68.4368C48.0206 68.4337 48.0099 68.4337 47.9999 68.4368C47.9868 68.4317 47.9721 68.4317 47.959 68.4368L63.7005 101.624L74.606 134.433H74.6367L74.6316 134.52Z" fill="#252B80"/>
<path d="M91.2502 57.9714C91.1529 57.4597 91.0813 57.1885 91.0813 57.1885L86.9873 56.7125C86.9873 56.7125 86.5318 57.0912 85.9023 57.69C87.6051 58.3713 89.4853 58.4702 91.2502 57.9714Z" fill="#252B80"/>
<path d="M84.7864 52.7107C84.4558 52.2313 84.2268 51.6894 84.1132 51.1182C83.9997 50.5471 84.0041 49.9588 84.1262 49.3894C84.8689 49.4945 85.5735 49.7837 86.1759 50.2306C86.7783 50.6775 87.2594 51.2679 87.5754 51.9482C88.8599 54.3841 84.7864 52.7107 84.7864 52.7107Z" fill="#D0D1D9"/>
<path d="M87.5751 51.9482C87.2591 51.2679 86.778 50.6775 86.1756 50.2306C85.5731 49.7837 84.8685 49.4945 84.1259 49.3894C84.1003 49.4815 84.0798 49.5736 84.0645 49.6606C84.7055 49.8385 85.3016 50.1503 85.8132 50.5755C86.3249 51.0007 86.7405 51.5296 87.0326 52.1273C87.3448 52.726 87.3397 53.0791 87.1452 53.2634C87.744 53.2224 88.092 52.9205 87.5751 51.9482Z" fill="#E4E4E4"/>
<path d="M90.4883 51.4671C90.4883 51.4671 90.8926 50.29 93.2569 49.42C93.2569 49.42 93.8044 51.8509 92.7144 53.2991C91.6244 54.7474 90.4883 51.4671 90.4883 51.4671Z" fill="#D0D1D9"/>
<path d="M90.7368 51.6872C90.7368 51.6872 91.1206 50.5767 93.2956 49.6914C93.2649 49.5071 93.2393 49.3997 93.2393 49.3997C90.875 50.2952 90.4707 51.4467 90.4707 51.4467C90.4707 51.4467 91.0285 53.0382 91.7399 53.4937C91.3085 52.9507 90.9696 52.3404 90.7368 51.6872Z" fill="#E4E4E4"/>
<path d="M89.0275 58.033C86.1361 58.033 83.7871 56.5335 83.7871 54.681C83.7871 52.8284 86.1361 51.3341 89.0275 51.3341C91.9189 51.3341 94.2729 52.8335 94.2729 54.681C94.2729 56.5284 91.924 58.033 89.0275 58.033Z" fill="#E4E4E4"/>
<path d="M89.3652 57.6645C86.4687 57.6645 84.1249 56.1702 84.1249 54.3176C84.1299 53.7545 84.3328 53.211 84.698 52.7823C84.4236 53.0156 84.2008 53.3036 84.0439 53.6279C83.8871 53.9522 83.7996 54.3056 83.7871 54.6656C83.7871 56.5182 86.1309 58.0176 89.0275 58.0176C91.0745 58.0176 92.8349 57.2704 93.6998 56.1906C92.4831 57.1943 90.9415 57.7185 89.3652 57.6645Z" fill="#D0D1D9"/>
<path d="M90.9928 54.9163C90.9928 55.1363 90.7114 55.3154 90.3685 55.3154C90.0256 55.3154 89.7441 55.1363 89.7441 54.9163C89.7441 54.6962 90.0205 54.5171 90.3685 54.5171C90.7165 54.5171 90.9928 54.6962 90.9928 54.9163Z" fill="#252B80"/>
<path d="M88.9262 54.0822C88.9255 54.132 88.914 54.1811 88.8924 54.226C88.8708 54.2709 88.8397 54.3106 88.8012 54.3422C88.7627 54.3739 88.7178 54.3968 88.6696 54.4093C88.6213 54.4219 88.571 54.4237 88.5219 54.4148C88.4569 54.3997 88.3969 54.368 88.3479 54.3227C88.3009 54.2752 88.269 54.2149 88.2562 54.1493C88.2435 54.0837 88.2504 54.0158 88.2763 53.9542C88.3024 53.8942 88.345 53.8427 88.3991 53.8058C88.4546 53.7674 88.521 53.7476 88.5885 53.7495C88.6766 53.75 88.7611 53.7849 88.8239 53.8467C88.8561 53.8769 88.8819 53.9133 88.8995 53.9538C88.9171 53.9943 88.9262 54.038 88.9262 54.0822Z" fill="#252B80"/>
<path d="M91.9399 53.9797C91.9392 54.0296 91.9277 54.0786 91.9061 54.1236C91.8845 54.1685 91.8534 54.2081 91.8149 54.2398C91.7764 54.2715 91.7315 54.2944 91.6833 54.3069C91.635 54.3194 91.5846 54.3213 91.5356 54.3124C91.4706 54.2973 91.4106 54.2656 91.3616 54.2202C91.3146 54.1728 91.2826 54.1125 91.2699 54.0469C91.2571 53.9813 91.2641 53.9134 91.29 53.8518C91.3175 53.7912 91.3597 53.7384 91.4128 53.6983C91.4694 53.6621 91.535 53.6426 91.6021 53.642C91.6909 53.6445 91.7753 53.681 91.8381 53.7437C91.9009 53.8065 91.9373 53.891 91.9399 53.9797Z" fill="#252B80"/>
<path d="M89.12 56.5488C88.9279 56.5471 88.7362 56.53 88.5469 56.4976V56.3952C89.2684 56.5129 89.7802 56.3952 90.0821 56.1138C90.1967 55.9643 90.2772 55.7915 90.3178 55.6076C90.3585 55.4237 90.3584 55.2332 90.3175 55.0493H90.4199C90.4612 55.2659 90.546 55.4719 90.6692 55.6549C90.7923 55.8378 90.9512 55.9939 91.1363 56.1138C91.317 56.1859 91.512 56.2147 91.7057 56.1978C91.8995 56.1809 92.0866 56.1188 92.252 56.0165L92.298 56.1035C92.1199 56.2145 91.9177 56.2813 91.7085 56.2982C91.4993 56.3151 91.2891 56.2817 91.0954 56.2008C90.7994 56.0361 90.5697 55.7738 90.4455 55.4587C90.4398 55.732 90.3384 55.9946 90.1589 56.2008C90.0196 56.3281 89.8553 56.4249 89.6763 56.4848C89.4974 56.5447 89.3079 56.5665 89.12 56.5488Z" fill="#252B80"/>
<path d="M84.7959 58.0328C86.5614 58.0328 87.8664 61.0471 85.5431 61.6151C83.2197 62.1832 82.6721 58.0277 84.7959 58.0328Z" fill="#E4E4E4"/>
<path d="M85.8657 61.0932C84.2384 61.5026 83.481 59.5835 83.9006 58.3962C82.9283 59.389 83.6294 62.0962 85.5433 61.6254C85.8122 61.584 86.0648 61.4702 86.2739 61.2962C86.483 61.1222 86.6409 60.8946 86.7306 60.6377C86.4921 60.8695 86.1918 61.0277 85.8657 61.0932Z" fill="#D0D1D9"/>
<path d="M93.3936 57.7309C95.0108 57.6183 94.9289 60.9754 92.713 61.3848C90.4971 61.7942 91.4643 57.8691 93.3936 57.7309Z" fill="#E4E4E4"/>
<path d="M93.1327 60.9959C91.4899 61.2978 91.5974 59.1843 92.5749 58.038C91.2443 58.9898 90.8605 61.7277 92.7181 61.3848C93.2059 61.2988 93.6459 61.0388 93.9566 60.653C93.7098 60.8252 93.4288 60.9422 93.1327 60.9959Z" fill="#D0D1D9"/>
<path d="M88.4256 55.1159C87.8829 55.0383 87.3361 54.9939 86.788 54.9828C85.6909 54.9573 84.5951 55.0743 83.5281 55.3308L83.129 55.4332L82.7349 55.5509L82.346 55.6788L81.957 55.8119L82.3357 55.6481L82.7195 55.4997L83.1136 55.3615L83.5076 55.249C84.0416 55.1058 84.5856 55.0032 85.135 54.9419C85.6841 54.8857 86.2366 54.8703 86.788 54.8958C87.3391 54.9228 87.8869 54.9964 88.4256 55.1159Z" fill="#252B80"/>
<path d="M88.2506 55.7044C87.8565 55.7044 87.4625 55.7505 87.0736 55.8017C86.6846 55.8529 86.2906 55.9143 85.9068 56.0013C85.5229 56.0883 85.1391 56.1906 84.7655 56.3083L84.4841 56.4004L84.2129 56.5028L83.9314 56.6051C83.8444 56.641 83.7523 56.6819 83.6602 56.7126L83.9314 56.5795L84.2077 56.4567L84.4738 56.339L84.7502 56.2367C85.1227 56.1003 85.504 55.9891 85.8914 55.904C86.2816 55.8211 86.6763 55.7613 87.0736 55.7249C87.4649 55.6899 87.8583 55.683 88.2506 55.7044Z" fill="#252B80"/>
<path d="M88.3899 56.293C88.0615 56.3462 87.7368 56.4197 87.4175 56.513C86.7825 56.6997 86.1738 56.9663 85.6059 57.3062L85.3961 57.4444L85.1914 57.5775L84.9867 57.7259C84.9232 57.7794 84.8566 57.8289 84.7871 57.8743L84.9713 57.7054L85.1607 57.5416L85.3603 57.3881L85.565 57.2448C85.8419 57.0473 86.1365 56.876 86.4452 56.7331C86.7525 56.5982 87.071 56.4904 87.3971 56.4107C87.7233 56.3387 88.0558 56.2993 88.3899 56.293Z" fill="#252B80"/>
<path d="M91.7266 54.9982C92.1736 54.7684 92.6393 54.5766 93.1185 54.425C93.5989 54.2719 94.0898 54.1539 94.5873 54.0719C95.0868 53.9944 95.5915 53.955 96.0969 53.9542H96.4756H96.8492L97.2279 53.9952L97.5964 54.0515L97.2228 54.0208H96.8492H96.0969C95.0971 54.052 94.1051 54.2084 93.1441 54.4864C92.6626 54.6309 92.1893 54.8017 91.7266 54.9982Z" fill="#252B80"/>
<path d="M92.1699 55.4894C92.6167 55.3619 93.0714 55.2644 93.5312 55.1977C93.9927 55.1354 94.4575 55.1013 94.9232 55.0954C95.3901 55.092 95.8568 55.1194 96.3202 55.1772L96.6631 55.2233L97.006 55.2847L97.3489 55.3564L97.6866 55.4434L97.3438 55.3819L97.0009 55.3308L96.6529 55.2898L96.31 55.254C95.3893 55.1653 94.4621 55.1653 93.5414 55.254C93.0808 55.3257 92.6254 55.3973 92.1699 55.4894Z" fill="#252B80"/>
<path d="M92.7495 55.7811C93.0912 55.764 93.4337 55.7777 93.773 55.822C94.4561 55.9109 95.12 56.1114 95.7381 56.4157L95.9633 56.5334L96.1884 56.6613L96.4034 56.7995L96.6132 56.9479L96.3676 56.8046L96.1424 56.6869L95.9121 56.5743L95.6818 56.4668C95.0611 56.194 94.4099 55.9964 93.7423 55.8783C93.4034 55.8222 93.0617 55.7846 92.7188 55.7657L92.7495 55.7811Z" fill="#252B80"/>
<path d="M58.0725 39.3282L59.5054 41.4878C59.5054 41.4878 58.3488 39.9884 56.7266 39.9168L58.0725 39.3282Z" fill="#EFBA1C"/>
</svg>
