<svg width="126" height="121" viewBox="0 0 126 121" fill="none" xmlns="http://www.w3.org/2000/svg">
<g clip-path="url(#clip0_2589_22067)">
<path fill-rule="evenodd" clip-rule="evenodd" d="M0 117.06H72.0986V121H126L121.433 67.13H117.018V61.8262V53.0362V0H13.0186V30.1551H5.55684V53.0362H0V117.06Z" fill="#FEFEFE"/>
<path d="M117.019 0H13.0195V3.65804H117.019V0Z" fill="white"/>
<path d="M113.06 61.2202H93.873V65.0073H113.06V61.2202Z" fill="#20201F"/>
<path d="M97.7564 113.272H93.873V117.06H97.7564V113.272Z" fill="#20201F"/>
<path d="M16.826 30.1553H5.55664V33.9424H16.826V30.1553Z" fill="#20201F"/>
<path d="M16.8272 0H13.0195V33.9423H16.8272V0Z" fill="#20201F"/>
<path d="M109.253 0H13.0195V3.78714H109.253V0Z" fill="#20201F"/>
<path d="M9.36426 49.0974H5.55664V54.9309H9.36426V49.0974Z" fill="#20201F"/>
<path d="M9.36446 51.1416H0V54.9309H9.36446V51.1416Z" fill="#20201F"/>
<path d="M3.80546 51.1416H0V117.06H3.80546V51.1416Z" fill="#20201F"/>
<path d="M93.8719 113.273H0V117.06H93.8719V113.273Z" fill="#20201F"/>
<path d="M77.8837 113.273H72.0977V121H77.8837V113.273Z" fill="#20201F"/>
<path d="M99.6572 99.7095H93.8711V113.272H99.6572V99.7095Z" fill="#20201F"/>
<path d="M99.6572 65.0071H93.8711V70.918H99.6572V65.0071Z" fill="#20201F"/>
<path d="M115.036 40.4597H109.25V66.4949H115.036V40.4597Z" fill="#20201F"/>
<path d="M115.036 0H109.25V16.2137H115.036V0Z" fill="#20201F"/>
<path d="M117.018 0H115.037V17.1239H117.018V0Z" fill="#20201F"/>
<path d="M117.018 39.5496H115.037V66.5222H117.018V39.5496Z" fill="#20201F"/>
<path d="M117.02 67.1292H101.641V68.9474H117.02V67.1292Z" fill="#20201F"/>
<path d="M101.639 65.0071H99.6582V70.918H101.639V65.0071Z" fill="#20201F"/>
<path d="M101.639 99.7095H99.6582V113.272H101.639V99.7095Z" fill="#20201F"/>
<path d="M101.638 113.273H99.8105V121H101.638V113.273Z" fill="#20201F"/>
<path d="M99.8137 119.181H79.8652V120.999H99.8137V119.181Z" fill="#20201F"/>
<path d="M79.8632 117.06H77.8848V121H79.8632V117.06Z" fill="#20201F"/>
<path d="M100.45 116.268H78.7109V119.684H100.45V116.268Z" fill="#20201F"/>
<path d="M99.8131 111.224H96.3262V117.136H99.8131V111.224Z" fill="#20201F"/>
<path d="M117.02 64.0317H100.521V68.0029H117.02V64.0317Z" fill="#20201F"/>
<path fill-rule="evenodd" clip-rule="evenodd" d="M101.639 120.999H126L121.434 67.1294H117.018V68.9477H119.754L124.013 119.181H101.639V120.999Z" fill="#20201F"/>
<path d="M45.6369 61.2212H3.80469V62.4326H45.6369V61.2212Z" fill="#20201F"/>
<path d="M93.8701 61.2212H59.3398V62.4326H93.8701V61.2212Z" fill="#20201F"/>
<path d="M63.5709 57.4314H62.3535V61.8815H63.5709V57.4314Z" fill="#20201F"/>
<path d="M26.9085 32.731H16.8262V33.9424H26.9085V32.731Z" fill="#20201F"/>
<path d="M63.5694 32.731H37.5645V33.9424H63.5694V32.731Z" fill="#20201F"/>
<path d="M63.5709 32.731H62.3535V45.3082H63.5709V32.731Z" fill="#20201F"/>
<path d="M63.5709 19.7H62.3535V32.7312H63.5709V19.7Z" fill="#20201F"/>
<path d="M63.5709 3.78735H62.3535V19.6998H63.5709V3.78735Z" fill="#20201F"/>
<path d="M117.017 17.125H116.037V39.5532H117.017V17.125Z" fill="#20201F"/>
<path d="M115.042 16.2144H114.062V40.4609H115.042V16.2144Z" fill="#20201F"/>
<path d="M110.237 16.2146H109.258V40.4612H110.237V16.2146Z" fill="#20201F"/>
<path d="M101.64 83.0405H100.66V99.7099H101.64V83.0405Z" fill="#20201F"/>
<path d="M99.6668 83.0405H98.6875V99.7104H99.6668V83.0405Z" fill="#20201F"/>
<path d="M94.8582 83.041H93.8789V99.7109H94.8582V83.041Z" fill="#20201F"/>
<path d="M101.639 83.041H93.873V83.7563H101.639V83.041Z" fill="#20201F"/>
<path fill-rule="evenodd" clip-rule="evenodd" d="M37.1715 33.5164C37.1715 33.754 36.9778 33.9468 36.7391 33.9468C36.5004 33.9468 36.3066 33.754 36.3066 33.5164V24.4081C36.3066 24.1706 36.5004 23.9778 36.7391 23.9778C36.9778 23.9778 37.1715 24.1706 37.1715 24.4081V33.5164Z" fill="#20201F"/>
<path fill-rule="evenodd" clip-rule="evenodd" d="M27.8016 33.6028C27.8016 33.7216 27.7047 33.818 27.5854 33.818C27.466 33.818 27.3691 33.7216 27.3691 33.6028C27.3691 31.0112 28.2913 28.6621 29.7819 26.9605C31.279 25.2507 33.3498 24.1929 35.6376 24.1929C35.757 24.1929 35.8538 24.2893 35.8538 24.4081C35.8538 24.5268 35.757 24.6232 35.6376 24.6232C33.4795 24.6232 31.5234 25.6247 30.1063 27.2428C28.6825 28.8683 27.8016 31.1169 27.8016 33.6028Z" fill="#20201F"/>
<path fill-rule="evenodd" clip-rule="evenodd" d="M62.9051 57.0577C62.6664 57.0577 62.4727 56.8649 62.4727 56.6274C62.4727 56.3898 62.6664 56.197 62.9051 56.197H72.0574C72.2961 56.197 72.4899 56.3898 72.4899 56.6274C72.4899 56.8649 72.2961 57.0577 72.0574 57.0577H62.9051Z" fill="#20201F"/>
<path fill-rule="evenodd" clip-rule="evenodd" d="M62.8197 46.447C62.7004 46.447 62.6035 46.3506 62.6035 46.2318C62.6035 46.113 62.7004 46.0166 62.8197 46.0166C65.4297 46.0166 67.7934 47.0647 69.5046 48.7586C71.2162 50.453 72.2752 52.7937 72.2752 55.3773C72.2752 55.4961 72.1784 55.5925 72.059 55.5925C71.9397 55.5925 71.8428 55.4961 71.8428 55.3773C71.8428 52.9116 70.8328 50.6787 69.2006 49.0629C67.5681 47.4469 65.3119 46.447 62.8197 46.447Z" fill="#20201F"/>
<path fill-rule="evenodd" clip-rule="evenodd" d="M6.52033 48.4572C6.28164 48.4572 6.08789 48.2644 6.08789 48.0268C6.08789 47.7893 6.28164 47.5964 6.52033 47.5964H15.6727C15.9114 47.5964 16.1051 47.7893 16.1051 48.0268C16.1051 48.2644 15.9114 48.4572 15.6727 48.4572H6.52033Z" fill="#20201F"/>
<path fill-rule="evenodd" clip-rule="evenodd" d="M6.43497 34.986C6.31562 34.986 6.21875 34.8896 6.21875 34.7708C6.21875 34.6521 6.31562 34.5557 6.43497 34.5557C9.05576 34.5557 11.4253 35.893 13.1373 38.0543C14.8381 40.2009 15.8905 43.1643 15.8905 46.4331C15.8905 46.5519 15.7936 46.6483 15.6743 46.6483C15.5549 46.6483 15.458 46.5519 15.458 46.4331C15.458 43.2629 14.4412 40.3939 12.7979 38.3198C11.1667 36.2605 8.9163 34.986 6.43497 34.986Z" fill="#20201F"/>
<path fill-rule="evenodd" clip-rule="evenodd" d="M46.2891 61.9997C46.2891 61.7621 46.4828 61.5693 46.7215 61.5693C46.9602 61.5693 47.1539 61.7621 47.1539 61.9997V71.108C47.1539 71.3456 46.9602 71.5384 46.7215 71.5384C46.4828 71.5384 46.2891 71.3456 46.2891 71.108V61.9997Z" fill="#20201F"/>
<path fill-rule="evenodd" clip-rule="evenodd" d="M58.1434 61.9132C58.1434 61.7944 58.2403 61.698 58.3596 61.698C58.479 61.698 58.5758 61.7944 58.5758 61.9132C58.5758 64.5153 57.4022 66.8707 55.506 68.574C53.6155 70.2724 51.0047 71.3232 48.1244 71.3232C48.0051 71.3232 47.9082 71.2268 47.9082 71.108C47.9082 70.9892 48.0051 70.8928 48.1244 70.8928C50.8948 70.8928 53.4032 69.8845 55.2171 68.2547C57.0247 66.631 58.1434 64.3884 58.1434 61.9132Z" fill="#20201F"/>
<path fill-rule="evenodd" clip-rule="evenodd" d="M99.2586 71.4175C99.4973 71.4175 99.6911 71.6103 99.6911 71.8478C99.6911 72.0854 99.4973 72.2782 99.2586 72.2782H90.1063C89.8675 72.2782 89.6738 72.0854 89.6738 71.8478C89.6738 71.6103 89.8675 71.4175 90.1063 71.4175H99.2586Z" fill="#20201F"/>
<path fill-rule="evenodd" clip-rule="evenodd" d="M99.3442 82.0283C99.4635 82.0283 99.5604 82.1247 99.5604 82.2435C99.5604 82.3623 99.4635 82.4587 99.3442 82.4587C96.7342 82.4587 94.3705 81.4106 92.6593 79.7167C90.9477 78.0224 89.8887 75.6819 89.8887 73.098C89.8887 72.9792 89.9855 72.8828 90.1049 72.8828C90.2242 72.8828 90.3211 72.9792 90.3211 73.098C90.3211 75.5637 91.3311 77.7966 92.9633 79.4124C94.5958 81.0284 96.852 82.0283 99.3442 82.0283Z" fill="#20201F"/>
<path fill-rule="evenodd" clip-rule="evenodd" d="M98.7995 4.39331H75.8262V13.5384H99.0698V4.39331H98.7995ZM83.0163 5.47458C83.2691 5.47458 83.4996 5.57744 83.6659 5.74398C83.8319 5.90967 83.9355 6.13819 83.9355 6.38909V11.5534C83.9355 11.8043 83.8319 12.0328 83.6659 12.1996C83.4996 12.365 83.2691 12.4679 83.0163 12.4679H77.8271C77.575 12.4679 77.3451 12.3648 77.178 12.1996C77.0117 12.0341 76.9083 11.8051 76.9083 11.5534V6.38909C76.9083 6.13732 77.0117 5.90838 77.1786 5.74355C77.3451 5.57766 77.575 5.47458 77.8271 5.47458H83.0163ZM96.1272 5.90193C96.4771 5.90193 96.795 6.04373 97.0252 6.27247C97.2551 6.50121 97.3975 6.81751 97.3975 7.16611C97.3975 7.51405 97.2551 7.83015 97.0246 8.05975C96.7945 8.28847 96.4769 8.43027 96.1272 8.43027C95.777 8.43027 95.4591 8.28847 95.2297 8.05932C94.9995 7.83058 94.857 7.51426 94.857 7.16611C94.857 6.81751 94.9995 6.50121 95.2293 6.27247C95.4591 6.04373 95.777 5.90193 96.1272 5.90193ZM96.1272 9.23269C96.5523 9.23269 96.9377 9.40461 97.2164 9.68198C97.4951 9.95933 97.6678 10.343 97.6678 10.7658C97.6678 11.1889 97.4951 11.5723 97.2164 11.8497C96.9377 12.1271 96.5523 12.299 96.1272 12.299C95.7024 12.299 95.3169 12.1271 95.0382 11.8497C94.7594 11.5723 94.5867 11.1889 94.5867 10.7658C94.5867 10.343 94.7594 9.95933 95.0382 9.68198C95.3169 9.40461 95.7024 9.23269 96.1272 9.23269ZM95.3054 9.94795C95.5154 9.73899 95.8064 9.60923 96.1272 9.60923C96.4484 9.60923 96.7392 9.73899 96.9491 9.94795C97.1591 10.1569 97.2894 10.4465 97.2894 10.7658C97.2894 11.0854 97.1591 11.3748 96.9491 11.5837C96.7392 11.7927 96.4484 11.9224 96.1272 11.9224C95.8064 11.9224 95.5154 11.7927 95.3054 11.5837C95.0955 11.3748 94.9651 11.0854 94.9651 10.7658C94.9651 10.4465 95.0955 10.1569 95.3054 9.94795ZM92.8232 5.63295C93.2483 5.63295 93.6336 5.80489 93.9123 6.08224C94.191 6.35962 94.3638 6.74306 94.3638 7.16611C94.3638 7.58913 94.1912 7.97281 93.9125 8.25019C93.6338 8.52754 93.2483 8.69925 92.8232 8.69925C92.3981 8.69925 92.0128 8.52734 91.7341 8.24996C91.4554 7.97258 91.2826 7.58913 91.2826 7.16611C91.2826 6.74329 91.4554 6.35962 91.7341 6.08224C92.0128 5.80489 92.3983 5.63295 92.8232 5.63295ZM92.0013 6.3482C92.2113 6.13927 92.5023 6.00951 92.8232 6.00951C93.1443 6.00951 93.4351 6.13927 93.6451 6.3482C93.855 6.55716 93.9854 6.84655 93.9854 7.16611C93.9854 7.48564 93.8552 7.77527 93.6453 7.98422C93.4353 8.19315 93.1443 8.32268 92.8232 8.32268C92.5021 8.32268 92.2113 8.19295 92.0013 7.98399C91.7914 7.77506 91.661 7.48564 91.661 7.16611C91.661 6.84678 91.7914 6.55716 92.0013 6.3482ZM92.8232 9.50164C93.173 9.50164 93.4909 9.64347 93.7212 9.87219C93.951 10.1009 94.0935 10.4172 94.0935 10.7658C94.0935 11.1138 93.951 11.4299 93.7205 11.6595C93.4905 11.8882 93.1728 12.03 92.8232 12.03C92.4729 12.03 92.1551 11.8882 91.9257 11.659C91.6954 11.4303 91.5529 11.114 91.5529 10.7658C91.5529 10.4172 91.6954 10.1009 91.9253 9.87219C92.1551 9.64347 92.4729 9.50164 92.8232 9.50164ZM92.1925 10.1382C92.3536 9.97785 92.5769 9.87821 92.8232 9.87821C93.0701 9.87821 93.2933 9.97742 93.4539 10.1375C93.615 10.2985 93.7151 10.5207 93.7151 10.7658C93.7151 11.0116 93.6154 11.2336 93.4546 11.3935C93.2933 11.5543 93.0701 11.6534 92.8232 11.6534C92.5769 11.6534 92.3536 11.5538 92.1925 11.3935C92.031 11.2336 91.9313 11.0116 91.9313 10.7658C91.9313 10.5207 92.0314 10.2985 92.1925 10.1382ZM95.4965 6.53843C95.6576 6.37811 95.881 6.27849 96.1272 6.27849C96.3742 6.27849 96.5973 6.37768 96.758 6.53778C96.9191 6.69873 97.0192 6.92102 97.0192 7.16611C97.0192 7.41183 96.9195 7.6339 96.7586 7.79379C96.5973 7.95452 96.3742 8.05371 96.1272 8.05371C95.881 8.05371 95.6576 7.95408 95.4965 7.79379C95.335 7.6339 95.2354 7.41183 95.2354 7.16611C95.2354 6.92102 95.3355 6.69873 95.4965 6.53843ZM77.8271 6.01253H83.0163C83.1201 6.01253 83.215 6.05514 83.2836 6.12336C83.3523 6.19092 83.395 6.28537 83.395 6.38909V11.5534C83.395 11.6571 83.3523 11.7516 83.284 11.8196C83.215 11.8874 83.1201 11.9299 83.0163 11.9299H77.8271C77.7229 11.9299 77.6282 11.8878 77.5603 11.8202C77.4917 11.7509 77.4489 11.6562 77.4489 11.5534V6.38909C77.4489 6.28624 77.4917 6.19155 77.5603 6.12336C77.6282 6.05471 77.7229 6.01253 77.8271 6.01253ZM90.4299 13.0005V4.93126H98.5293V13.0005H90.4299ZM89.8893 4.93126V13.0005H76.3667V4.93126H89.8893Z" fill="#20201F"/>
<path fill-rule="evenodd" clip-rule="evenodd" d="M24.2657 12.5762C23.8085 11.8685 23.5261 10.9604 23.5261 10.1622C23.5261 9.3763 23.797 8.76305 24.2405 8.33613H24.2418C24.4098 8.17474 24.6091 8.04972 24.8204 7.94384H23.9081C23.3637 7.94384 23.0445 7.71748 22.8592 7.35405C22.6902 7.02334 22.6484 6.58586 22.6484 6.10624V5.90826H22.6534C22.6647 5.50847 22.7148 5.14351 22.8592 4.85928C23.0445 4.49605 23.3637 4.27075 23.9055 4.27075H28.3791C28.9234 4.27075 29.2421 4.49605 29.4263 4.85928C29.5696 5.14351 29.6213 5.50847 29.6321 5.90826H29.6371V6.10624C29.6371 6.58586 29.5954 7.02334 29.4263 7.35405C29.2421 7.71748 28.9234 7.94384 28.3791 7.94384H27.4652C27.6764 8.04972 27.8751 8.17345 28.0435 8.33613C28.4879 8.76305 28.759 9.3763 28.759 10.1622C28.759 11.0058 28.4429 11.9716 27.9389 12.6959C27.4738 13.3642 26.8448 13.8333 26.1428 13.8333C25.3992 13.8333 24.7371 13.3072 24.2657 12.5762ZM26.2716 5.51578V5.51449H26.271C26.1105 5.51449 25.9629 5.58119 25.8565 5.68686H25.8552C25.7492 5.7925 25.6835 5.93817 25.6835 6.09979C25.6835 6.2616 25.7492 6.40598 25.8552 6.51162V6.51357L25.8565 6.51334C25.9635 6.61901 26.1105 6.68419 26.271 6.68419C26.434 6.68419 26.5813 6.61901 26.6868 6.51357C26.7927 6.40791 26.8591 6.2616 26.8591 6.09979C26.8591 5.93817 26.7927 5.79379 26.6868 5.68686C26.5813 5.58119 26.434 5.51578 26.2716 5.51578ZM26.2723 5.8151H26.271C26.1919 5.8151 26.1203 5.84652 26.0695 5.89622V5.89817C26.0182 5.94915 25.9856 6.02145 25.9856 6.09979C25.9856 6.17962 26.0174 6.25277 26.0669 6.30226L26.069 6.30355C26.1203 6.35325 26.1919 6.38531 26.271 6.38531C26.3529 6.38531 26.4241 6.35325 26.4751 6.30355C26.525 6.25277 26.5566 6.17962 26.5566 6.09979C26.5566 6.02016 26.525 5.94764 26.4727 5.89817C26.4228 5.84523 26.3505 5.81315 26.2723 5.81315V5.8151ZM28.3791 7.54858C28.7463 7.54858 28.956 7.40506 29.073 7.17761C29.191 6.94178 29.2308 6.61471 29.2377 6.24503V6.10624C29.2377 5.68041 29.2051 5.29868 29.073 5.03593C28.956 4.80827 28.7458 4.66647 28.3791 4.66647H23.9055C23.5393 4.66647 23.3302 4.80827 23.2132 5.03593C23.08 5.29868 23.0478 5.68041 23.0478 6.10624V6.26031C23.056 6.62223 23.0951 6.94694 23.2126 7.17761C23.3302 7.40699 23.541 7.54858 23.9081 7.54858H28.3791ZM27.6135 12.4721C28.074 11.811 28.3621 10.9303 28.3621 10.1622C28.3621 9.49078 28.1367 8.97436 27.7689 8.61995C27.3666 8.23198 26.7871 8.03145 26.1428 8.03145C25.4974 8.03145 24.9185 8.23198 24.5151 8.61995C24.1481 8.97436 23.9233 9.49078 23.9233 10.1622C23.9233 10.8877 24.1812 11.7164 24.5992 12.3641C25.0018 12.9883 25.5501 13.4378 26.1428 13.4378C26.7 13.4378 27.2178 13.038 27.6135 12.4721Z" fill="#20201F"/>
<path fill-rule="evenodd" clip-rule="evenodd" d="M17.3648 26.935L17.3633 22.0033C17.3633 20.354 20.7938 20.5483 21.0228 20.5653C21.817 20.5653 22.5374 20.8876 23.0587 21.407C23.5792 21.9252 23.9018 22.6435 23.9018 23.4336V25.5264C23.9018 26.3181 23.5798 27.0355 23.0587 27.5551C22.5374 28.0729 21.8157 28.3941 21.0215 28.3976C20.7886 28.4081 17.3633 28.5779 17.3648 26.935ZM20.7065 24.4792H20.7071C20.7088 24.6526 20.7774 24.8127 20.892 24.927C21.0085 25.0393 21.1674 25.1086 21.3408 25.1086C21.516 25.1086 21.6751 25.0388 21.7895 24.9246C21.9043 24.8105 21.9746 24.6526 21.9746 24.4785C21.9746 24.3055 21.9043 24.1474 21.7895 24.0333V24.0312H21.7882C21.6738 23.9171 21.516 23.8459 21.3408 23.8459C21.1674 23.8459 21.0064 23.9171 20.892 24.0312V24.0318C20.7774 24.1458 20.7054 24.3055 20.7054 24.4785L20.7065 24.4792ZM21.0297 24.4802C21.0297 24.5627 21.0639 24.6403 21.1212 24.6958C21.1757 24.7501 21.2539 24.7849 21.3408 24.7849C21.4273 24.7849 21.5058 24.7516 21.5618 24.6973C21.6157 24.6414 21.6511 24.5654 21.6503 24.4785C21.6503 24.3916 21.6163 24.3165 21.5618 24.2608L21.5605 24.2594C21.5058 24.2042 21.4273 24.1704 21.3408 24.1704C21.2554 24.1704 21.1772 24.2063 21.1212 24.2599L21.1205 24.2612C21.0656 24.3156 21.0325 24.3933 21.0325 24.4772L21.0332 24.4802H21.0297ZM18.5724 24.4792C18.5724 25.2742 18.8104 25.9959 19.1925 26.5208C19.5921 27.066 20.1504 27.4049 20.7689 27.4054C21.3899 27.4054 21.948 27.066 22.3484 26.5208C22.7327 25.994 22.9686 25.2719 22.9686 24.4766V24.4731C22.9666 23.68 22.729 22.9598 22.3461 22.4334C21.9467 21.8906 21.3899 21.5523 20.7724 21.5519L20.7689 21.5523C20.1488 21.5523 19.5938 21.8906 19.1925 22.4377C18.8098 22.9613 18.5724 23.6828 18.573 24.4772L18.5724 24.4792ZM19.0193 24.4792C19.0206 25.1759 19.226 25.8055 19.5562 26.2608C19.8718 26.6906 20.3019 26.958 20.7689 26.958C21.239 26.958 21.6691 26.6906 21.9861 26.2574C22.3149 25.8045 22.5197 25.1759 22.5197 24.4766V24.4753L22.521 24.4731C22.5197 23.7757 22.3149 23.1487 21.9841 22.6957C21.6697 22.2671 21.239 21.9999 20.7724 21.9986L20.7689 21.9999C20.3011 21.999 19.8705 22.2667 19.5562 22.6973C19.2273 23.1504 19.0206 23.7792 19.0212 24.4766V24.4792H19.0193ZM17.8121 26.9335C17.8121 28.1578 20.9968 27.9493 21.0051 27.9493L21.0215 27.9474C21.6926 27.9474 22.2998 27.6778 22.7413 27.2412C23.1813 26.8007 23.4529 26.1954 23.4529 25.5264V23.4357C23.4529 22.7644 23.1826 22.158 22.7413 21.7195C22.3019 21.2816 21.6926 21.012 21.0215 21.0107L21.0057 21.0101C20.9977 21.0101 17.8121 20.7854 17.8121 22.0046V26.9335Z" fill="#20201F"/>
<path fill-rule="evenodd" clip-rule="evenodd" d="M61.1257 15.3589H35.6928V5.01535H61.1257V15.3589ZM56.1699 9.18172C55.8906 9.18172 55.6375 9.29434 55.4547 9.47615C55.2719 9.65891 55.1586 9.91003 55.1586 10.1871C55.1586 10.4642 55.2719 10.7153 55.4547 10.8973C55.6385 11.0799 55.8911 11.1925 56.1699 11.1925C56.4485 11.1925 56.7012 11.0799 56.8842 10.8981C57.0679 10.7163 57.1811 10.4648 57.1811 10.1871C57.1811 9.90947 57.0679 9.6579 56.885 9.47615C56.7022 9.29434 56.4492 9.18172 56.1699 9.18172ZM55.7405 9.76028C55.631 9.86901 55.5631 10.0202 55.5631 10.1871C55.5631 10.354 55.631 10.5052 55.7405 10.6139C55.8499 10.7228 56.002 10.7903 56.1699 10.7903C56.3377 10.7903 56.4899 10.7228 56.599 10.6138C56.7087 10.5046 56.7766 10.3536 56.7766 10.1871C56.7766 10.0206 56.7087 9.86964 56.599 9.76041C56.4892 9.65145 56.3373 9.58389 56.1699 9.58389C56.0024 9.58389 55.8505 9.65145 55.7405 9.76028ZM59.2061 5.31138L41.2527 5.71348C38.5563 5.71348 36.3483 7.5064 36.3483 10.1871C36.3483 12.8678 38.5563 14.6607 41.2527 14.6607L59.2061 15.0628C59.554 15.0628 59.8703 14.9213 60.099 14.6939C60.3277 14.4655 60.4702 14.1512 60.4702 13.8062V6.56802C60.4702 6.22344 60.328 5.90934 60.099 5.68134C59.8687 5.45267 59.5528 5.31138 59.2061 5.31138ZM41.2527 6.2162C38.8326 6.2162 36.8539 7.78112 36.8539 10.1871C36.8539 12.5931 38.8326 14.158 41.2527 14.158L59.2061 14.5602C59.4142 14.5602 59.6039 14.4751 59.7424 14.3384C59.8794 14.2025 59.9645 14.0139 59.9645 13.8062V6.56802C59.9645 6.36036 59.8794 6.17195 59.7414 6.0348C59.6045 5.89867 59.415 5.81403 59.2061 5.81403L41.2527 6.2162ZM35.6394 15.8513H61.1791C61.3061 15.8513 61.422 15.8012 61.5059 15.7218C61.5904 15.6422 61.6427 15.5312 61.6427 15.4095V4.96472C61.6427 4.84306 61.5904 4.73203 61.5069 4.65243C61.423 4.57259 61.3067 4.52295 61.1791 4.52295H35.6394C35.5118 4.52295 35.3955 4.57259 35.3115 4.65243C35.2284 4.73304 35.1758 4.84364 35.1758 4.96472V15.4095C35.1758 15.5306 35.2282 15.641 35.3115 15.7209C35.3967 15.8014 35.5124 15.8513 35.6394 15.8513Z" fill="#20201F"/>
<path d="M20.6128 74.1389H20.0723V99.7194H20.6128V74.1389Z" fill="#20201F"/>
<path d="M15.6611 82.0789V91.9346H13.3802V83.9092H11.4091V82.0789H15.6611Z" fill="#20201F"/>
<path d="M25.819 77.3258V80.8457H25.457V77.6476H24.6273V77.3258H25.819ZM27.7566 77.2956C28.2226 77.2956 28.5796 77.4498 28.8277 77.7582C29.0758 78.0633 29.1998 78.4957 29.1998 79.0556C29.1998 79.4478 29.1327 79.7797 28.9987 80.0512C28.8646 80.3227 28.6768 80.5289 28.4355 80.6697C28.1941 80.8072 27.9125 80.8759 27.5907 80.8759C27.2421 80.8759 26.9638 80.8122 26.756 80.6848L26.9018 80.3931C27.0694 80.5038 27.2974 80.5591 27.5857 80.5591C27.9745 80.5591 28.2796 80.4367 28.5008 80.192C28.7221 79.9439 28.8327 79.5852 28.8327 79.1159C28.8327 79.0288 28.8277 78.9332 28.8176 78.8293C28.7305 79.0204 28.5913 79.1696 28.4003 79.2768C28.2092 79.3808 27.9896 79.4327 27.7415 79.4327C27.5102 79.4327 27.3041 79.3891 27.123 79.302C26.9454 79.2148 26.8063 79.0925 26.7057 78.9349C26.6051 78.774 26.5548 78.5879 26.5548 78.3767C26.5548 78.1622 26.6068 77.9728 26.7107 77.8085C26.8146 77.6443 26.9571 77.5186 27.1381 77.4314C27.3225 77.3409 27.5287 77.2956 27.7566 77.2956ZM27.7969 79.126C27.9745 79.126 28.1304 79.0925 28.2645 79.0254C28.4019 78.9584 28.5092 78.8662 28.5863 78.7488C28.6634 78.6315 28.702 78.5008 28.702 78.3566C28.702 78.2225 28.6651 78.0985 28.5913 77.9845C28.521 77.8705 28.4154 77.7784 28.2746 77.708C28.1338 77.6376 27.9661 77.6024 27.7717 77.6024C27.5169 77.6024 27.3091 77.6728 27.1482 77.8136C26.9906 77.951 26.9118 78.1354 26.9118 78.3667C26.9118 78.598 26.9906 78.7824 27.1482 78.9198C27.3091 79.0573 27.5253 79.126 27.7969 79.126ZM29.9422 80.8708C29.8684 80.8708 29.8047 80.844 29.7511 80.7904C29.7008 80.7368 29.6756 80.6714 29.6756 80.5943C29.6756 80.5172 29.7008 80.4535 29.7511 80.4032C29.8047 80.3496 29.8684 80.3227 29.9422 80.3227C30.0159 80.3227 30.0796 80.3496 30.1332 80.4032C30.1869 80.4535 30.2137 80.5172 30.2137 80.5943C30.2137 80.6714 30.1869 80.7368 30.1332 80.7904C30.0796 80.844 30.0159 80.8708 29.9422 80.8708ZM33.6643 79.9205H32.9603V80.8457H32.5983V79.9205H30.612V79.659L32.4776 77.3258H32.8799L31.0797 79.5986H32.6083V78.784H32.9603V79.5986H33.6643V79.9205ZM36.2305 77.3258V77.5822L34.7571 80.8457H34.3649L35.8131 77.6476H34.0029V78.3063H33.6458V77.3258H36.2305Z" fill="#20201F"/>
<path d="M27.685 87.3306H26.9811V88.2559H26.619V87.3306H24.6328V87.0691L26.4983 84.736H26.9006L25.1004 87.0088H26.6291V86.1942H26.9811V87.0088H27.685V87.3306ZM28.8654 84.736V88.2559H28.5034V85.0578H27.6737V84.736H28.8654ZM29.9784 88.281C29.9046 88.281 29.8409 88.2542 29.7873 88.2005C29.737 88.1469 29.7119 88.0815 29.7119 88.0044C29.7119 87.9273 29.737 87.8636 29.7873 87.8134C29.8409 87.7597 29.9046 87.7329 29.9784 87.7329C30.0521 87.7329 30.1158 87.7597 30.1694 87.8134C30.2231 87.8636 30.2499 87.9273 30.2499 88.0044C30.2499 88.0815 30.2231 88.1469 30.1694 88.2005C30.1158 88.2542 30.0521 88.281 29.9784 88.281ZM31.8686 84.7058C32.3346 84.7058 32.6916 84.86 32.9397 85.1684C33.1878 85.4735 33.3118 85.9059 33.3118 86.4657C33.3118 86.858 33.2447 87.1898 33.1107 87.4614C32.9766 87.7329 32.7888 87.9391 32.5475 88.0799C32.3061 88.2173 32.0245 88.286 31.7027 88.286C31.354 88.286 31.0758 88.2223 30.868 88.0949L31.0138 87.8033C31.1814 87.9139 31.4094 87.9692 31.6977 87.9692C32.0865 87.9692 32.3916 87.8469 32.6128 87.6022C32.8341 87.3541 32.9447 86.9954 32.9447 86.5261C32.9447 86.4389 32.9397 86.3434 32.9296 86.2395C32.8425 86.4305 32.7033 86.5797 32.5123 86.687C32.3212 86.7909 32.1016 86.8429 31.8535 86.8429C31.6222 86.8429 31.4161 86.7993 31.235 86.7121C31.0574 86.625 30.9183 86.5026 30.8177 86.3451C30.7171 86.1841 30.6668 85.9981 30.6668 85.7869C30.6668 85.5723 30.7188 85.3829 30.8227 85.2187C30.9266 85.0544 31.0691 84.9287 31.2501 84.8415C31.4345 84.751 31.6407 84.7058 31.8686 84.7058ZM31.9089 86.5361C32.0865 86.5361 32.2424 86.5026 32.3765 86.4356C32.5139 86.3685 32.6212 86.2763 32.6983 86.159C32.7754 86.0417 32.814 85.9109 32.814 85.7668C32.814 85.6327 32.7771 85.5087 32.7033 85.3947C32.6329 85.2807 32.5274 85.1885 32.3866 85.1181C32.2458 85.0477 32.0781 85.0125 31.8837 85.0125C31.6289 85.0125 31.4211 85.0829 31.2602 85.2237C31.1026 85.3612 31.0238 85.5455 31.0238 85.7768C31.0238 86.0081 31.1026 86.1925 31.2602 86.33C31.4211 86.4674 31.6373 86.5361 31.9089 86.5361ZM34.9328 84.7058C35.3988 84.7058 35.7558 84.86 36.0039 85.1684C36.252 85.4735 36.376 85.9059 36.376 86.4657C36.376 86.858 36.3089 87.1898 36.1749 87.4614C36.0408 87.7329 35.853 87.9391 35.6117 88.0799C35.3703 88.2173 35.0887 88.286 34.7669 88.286C34.4183 88.286 34.14 88.2223 33.9322 88.0949L34.078 87.8033C34.2456 87.9139 34.4736 87.9692 34.7619 87.9692C35.1507 87.9692 35.4558 87.8469 35.677 87.6022C35.8983 87.3541 36.0089 86.9954 36.0089 86.5261C36.0089 86.4389 36.0039 86.3434 35.9938 86.2395C35.9067 86.4305 35.7676 86.5797 35.5765 86.687C35.3854 86.7909 35.1658 86.8429 34.9177 86.8429C34.6864 86.8429 34.4803 86.7993 34.2992 86.7121C34.1216 86.625 33.9825 86.5026 33.8819 86.3451C33.7813 86.1841 33.731 85.9981 33.731 85.7869C33.731 85.5723 33.783 85.3829 33.8869 85.2187C33.9908 85.0544 34.1333 84.9287 34.3143 84.8415C34.4987 84.751 34.7049 84.7058 34.9328 84.7058ZM34.9731 86.5361C35.1507 86.5361 35.3066 86.5026 35.4407 86.4356C35.5781 86.3685 35.6854 86.2763 35.7625 86.159C35.8396 86.0417 35.8782 85.9109 35.8782 85.7668C35.8782 85.6327 35.8413 85.5087 35.7676 85.3947C35.6972 85.2807 35.5916 85.1885 35.4508 85.1181C35.31 85.0477 35.1424 85.0125 34.9479 85.0125C34.6931 85.0125 34.4853 85.0829 34.3244 85.2237C34.1668 85.3612 34.0881 85.5455 34.0881 85.7768C34.0881 86.0081 34.1668 86.1925 34.3244 86.33C34.4853 86.4674 34.7015 86.5361 34.9731 86.5361Z" fill="#20201F"/>
<path d="M26.7397 94.7418H26.0357V95.667H25.6737V94.7418H23.6875V94.4803L25.553 92.1471H25.9553L24.1551 94.4199H25.6838V93.6053H26.0357V94.4199H26.7397V94.7418ZM30.0642 94.7418H29.3602V95.667H28.9982V94.7418H27.0119V94.4803L28.8775 92.1471H29.2798L27.4796 94.4199H29.0082V93.6053H29.3602V94.4199H30.0642V94.7418ZM30.7665 95.6921C30.6927 95.6921 30.629 95.6653 30.5754 95.6117C30.5251 95.558 30.5 95.4927 30.5 95.4156C30.5 95.3385 30.5251 95.2748 30.5754 95.2245C30.629 95.1709 30.6927 95.144 30.7665 95.144C30.8402 95.144 30.9039 95.1709 30.9576 95.2245C31.0112 95.2748 31.038 95.3385 31.038 95.4156C31.038 95.4927 31.0112 95.558 30.9576 95.6117C30.9039 95.6653 30.8402 95.6921 30.7665 95.6921ZM34.0133 95.3452V95.667H31.5443V95.4105L33.0076 93.9774C33.1919 93.7964 33.316 93.6405 33.3797 93.5098C33.4467 93.3757 33.4802 93.2416 33.4802 93.1075C33.4802 92.8997 33.4082 92.7388 33.264 92.6248C33.1232 92.5075 32.9204 92.4488 32.6556 92.4488C32.2432 92.4488 31.9231 92.5795 31.6951 92.841L31.4387 92.6198C31.5761 92.4588 31.7505 92.3348 31.9616 92.2477C32.1762 92.1605 32.4176 92.1169 32.6857 92.1169C33.0444 92.1169 33.3277 92.2024 33.5355 92.3734C33.7467 92.541 33.8523 92.7723 33.8523 93.0673C33.8523 93.2483 33.8121 93.4226 33.7317 93.5902C33.6512 93.7579 33.4987 93.9506 33.2741 94.1685L32.0773 95.3452H34.0133ZM35.8509 95.6972C35.5794 95.6972 35.3363 95.6251 35.1218 95.4809C34.9106 95.3368 34.7447 95.1306 34.624 94.8624C34.5066 94.5909 34.448 94.2724 34.448 93.907C34.448 93.5416 34.5066 93.2248 34.624 92.9567C34.7447 92.6851 34.9106 92.4773 35.1218 92.3331C35.3363 92.189 35.5794 92.1169 35.8509 92.1169C36.1224 92.1169 36.3638 92.189 36.575 92.3331C36.7896 92.4773 36.9572 92.6851 37.0779 92.9567C37.1985 93.2248 37.2589 93.5416 37.2589 93.907C37.2589 94.2724 37.1985 94.5909 37.0779 94.8624C36.9572 95.1306 36.7896 95.3368 36.575 95.4809C36.3638 95.6251 36.1224 95.6972 35.8509 95.6972ZM35.8509 95.3653C36.0554 95.3653 36.2347 95.3083 36.389 95.1943C36.5465 95.0803 36.6689 94.9144 36.756 94.6965C36.8432 94.4786 36.8868 94.2154 36.8868 93.907C36.8868 93.5986 36.8432 93.3355 36.756 93.1176C36.6689 92.8997 36.5465 92.7337 36.389 92.6198C36.2347 92.5058 36.0554 92.4488 35.8509 92.4488C35.6464 92.4488 35.4654 92.5058 35.3078 92.6198C35.1536 92.7337 35.033 92.8997 34.9458 93.1176C34.8586 93.3355 34.8151 93.5986 34.8151 93.907C34.8151 94.2154 34.8586 94.4786 34.9458 94.6965C35.033 94.9144 35.1536 95.0803 35.3078 95.1943C35.4654 95.3083 35.6464 95.3653 35.8509 95.3653Z" fill="#20201F"/>
<path d="M53.396 79.2733H52.0081V81.335H51.2287V78.6297H53.396V79.2733ZM54.9659 81.3752C54.6809 81.3752 54.4245 81.3165 54.1965 81.1992C53.9719 81.0785 53.7959 80.9126 53.6686 80.7014C53.5412 80.4902 53.4775 80.2505 53.4775 79.9823C53.4775 79.7141 53.5412 79.4744 53.6686 79.2632C53.7959 79.052 53.9719 78.8878 54.1965 78.7705C54.4245 78.6498 54.6809 78.5894 54.9659 78.5894C55.2508 78.5894 55.5056 78.6498 55.7302 78.7705C55.9548 78.8878 56.1308 79.052 56.2582 79.2632C56.3856 79.4744 56.4493 79.7141 56.4493 79.9823C56.4493 80.2505 56.3856 80.4902 56.2582 80.7014C56.1308 80.9126 55.9548 81.0785 55.7302 81.1992C55.5056 81.3165 55.2508 81.3752 54.9659 81.3752ZM54.9659 80.7315C55.167 80.7315 55.3313 80.6645 55.4587 80.5304C55.5894 80.393 55.6548 80.2103 55.6548 79.9823C55.6548 79.7544 55.5894 79.5733 55.4587 79.4392C55.3313 79.3018 55.167 79.2331 54.9659 79.2331C54.7648 79.2331 54.5988 79.3018 54.4681 79.4392C54.3373 79.5733 54.272 79.7544 54.272 79.9823C54.272 80.2103 54.3373 80.393 54.4681 80.5304C54.5988 80.6645 54.7648 80.7315 54.9659 80.7315ZM58.2761 81.3752C57.9878 81.3752 57.728 81.3165 57.4967 81.1992C57.2687 81.0785 57.0894 80.9126 56.9586 80.7014C56.8313 80.4902 56.7676 80.2505 56.7676 79.9823C56.7676 79.7141 56.8313 79.4744 56.9586 79.2632C57.0894 79.052 57.2687 78.8878 57.4967 78.7705C57.728 78.6498 57.9878 78.5894 58.2761 78.5894C58.561 78.5894 58.8091 78.6498 59.0203 78.7705C59.2349 78.8878 59.3907 79.0571 59.4879 79.2783L58.8795 79.6052C58.7387 79.3571 58.5359 79.2331 58.2711 79.2331C58.0666 79.2331 57.8973 79.3001 57.7632 79.4342C57.6291 79.5683 57.5621 79.751 57.5621 79.9823C57.5621 80.2136 57.6291 80.3963 57.7632 80.5304C57.8973 80.6645 58.0666 80.7315 58.2711 80.7315C58.5393 80.7315 58.7421 80.6075 58.8795 80.3594L59.4879 80.6913C59.3907 80.9059 59.2349 81.0735 59.0203 81.1942C58.8091 81.3148 58.561 81.3752 58.2761 81.3752ZM62.2277 79.2733H61.3125V81.335H60.5331V79.2733H59.6179V78.6297H62.2277V79.2733ZM62.6458 78.6297H63.4252V80.2388L64.7427 78.6297H65.4617V81.335H64.6823V79.7259L63.3699 81.335H62.6458V78.6297ZM66.2158 78.6297H66.9952V79.6856H68.1719V78.6297H68.9563V81.335H68.1719V80.3242H66.9952V81.335H66.2158V78.6297ZM70.7582 78.5894C71.1772 78.5894 71.499 78.69 71.7236 78.8911C71.9482 79.0889 72.0605 79.389 72.0605 79.7912V81.335H71.3264V80.9981C71.1789 81.2495 70.904 81.3752 70.5017 81.3752C70.2939 81.3752 70.1129 81.34 69.9587 81.2696C69.8078 81.1992 69.6921 81.102 69.6117 80.9779C69.5312 80.8539 69.491 80.7131 69.491 80.5556C69.491 80.3041 69.5849 80.1063 69.7726 79.9622C69.9637 79.818 70.257 79.746 70.6526 79.746H71.2761C71.2761 79.575 71.2241 79.4443 71.1202 79.3538C71.0163 79.2599 70.8604 79.213 70.6526 79.213C70.5084 79.213 70.366 79.2364 70.2252 79.2834C70.0877 79.3269 69.9704 79.3873 69.8732 79.4644L69.5916 78.9163C69.7391 78.8124 69.9151 78.7319 70.1196 78.6749C70.3274 78.6179 70.5403 78.5894 70.7582 78.5894ZM70.6978 80.8472C70.8319 80.8472 70.9509 80.817 71.0549 80.7567C71.1588 80.693 71.2325 80.6008 71.2761 80.4801V80.2036H70.7381C70.4162 80.2036 70.2553 80.3092 70.2553 80.5204C70.2553 80.6209 70.2939 80.7014 70.371 80.7617C70.4514 80.8187 70.5604 80.8472 70.6978 80.8472ZM75.1456 78.6297V81.335H74.4466V80.5606H73.8683L73.3554 81.335H72.5207L73.1392 80.45C72.9515 80.3762 72.8073 80.2706 72.7068 80.1332C72.6096 79.9924 72.561 79.8231 72.561 79.6253C72.561 79.3068 72.6749 79.0621 72.9029 78.8911C73.1342 78.7168 73.451 78.6297 73.8533 78.6297H75.1456ZM73.8683 79.2683C73.7007 79.2683 73.5733 79.2984 73.4862 79.3588C73.4024 79.4191 73.3605 79.5163 73.3605 79.6504C73.3605 79.7845 73.4007 79.8834 73.4812 79.9471C73.565 80.0075 73.6907 80.0376 73.8583 80.0376H74.4466V79.2683H73.8683Z" fill="black"/>
<path d="M58.8463 85.2252V88.7451H58.0317V85.8789H57.3277V85.2252H58.8463ZM60.6947 85.1649C61.1875 85.1649 61.573 85.3157 61.8513 85.6174C62.1295 85.9158 62.2686 86.3466 62.2686 86.9097C62.2686 87.3087 62.1932 87.6506 62.0424 87.9355C61.8949 88.2205 61.6853 88.4367 61.4138 88.5842C61.1423 88.7317 60.8288 88.8055 60.4735 88.8055C60.2858 88.8055 60.1064 88.7853 59.9354 88.7451C59.7645 88.7015 59.6186 88.6412 59.498 88.5641L59.7997 87.9657C59.9706 88.083 60.1902 88.1417 60.4584 88.1417C60.7567 88.1417 60.9931 88.0545 61.1674 87.8802C61.3417 87.7026 61.4356 87.4478 61.449 87.1159C61.2378 87.3271 60.9462 87.4327 60.574 87.4327C60.3494 87.4327 60.145 87.3874 59.9606 87.2969C59.7762 87.2064 59.6304 87.079 59.5231 86.9148C59.4158 86.7471 59.3622 86.5544 59.3622 86.3365C59.3622 86.1018 59.4209 85.8957 59.5382 85.718C59.6555 85.5403 59.8148 85.4046 60.0159 85.3107C60.2204 85.2135 60.4467 85.1649 60.6947 85.1649ZM60.7551 86.8243C60.9327 86.8243 61.0769 86.7756 61.1875 86.6784C61.3015 86.5779 61.3585 86.4505 61.3585 86.2963C61.3585 86.1421 61.3032 86.0163 61.1925 85.9191C61.0853 85.8219 60.9361 85.7733 60.745 85.7733C60.5707 85.7733 60.4282 85.8202 60.3176 85.9141C60.2103 86.008 60.1567 86.1354 60.1567 86.2963C60.1567 86.4572 60.2103 86.5862 60.3176 86.6835C60.4282 86.7773 60.574 86.8243 60.7551 86.8243ZM63.0582 88.7853C62.9208 88.7853 62.8051 88.7384 62.7113 88.6445C62.6174 88.5507 62.5705 88.4334 62.5705 88.2926C62.5705 88.1484 62.6174 88.0328 62.7113 87.9456C62.8051 87.8551 62.9208 87.8098 63.0582 87.8098C63.1957 87.8098 63.3113 87.8551 63.4052 87.9456C63.499 88.0328 63.546 88.1484 63.546 88.2926C63.546 88.4334 63.499 88.5507 63.4052 88.6445C63.3113 88.7384 63.1957 88.7853 63.0582 88.7853ZM67.1349 88.0059H66.5616V88.7451H65.7671V88.0059H63.8714V87.4578L65.5308 85.2252H66.3856L64.8469 87.3422H65.7923V86.6835H66.5616V87.3422H67.1349V88.0059ZM69.9229 85.2252V85.7532L68.6155 88.7451H67.7305L68.9927 85.889H67.8261V86.4622H67.102V85.2252H69.9229Z" fill="black"/>
<path d="M80.2837 30.7984H79.8764V31.8242H79.092V29.1189H79.8764V30.1699H80.2988L81.033 29.1189H81.8677L80.9223 30.4163L81.933 31.8242H81.0078L80.2837 30.7984ZM84.8763 29.1189L83.6544 31.9902C83.5304 32.3019 83.3762 32.5215 83.1918 32.6489C83.0108 32.7763 82.7912 32.84 82.5331 32.84C82.3923 32.84 82.2532 32.8182 82.1157 32.7746C81.9783 32.731 81.866 32.6707 81.7788 32.5936L82.0654 32.0354C82.1258 32.089 82.1945 32.131 82.2716 32.1611C82.3521 32.1913 82.4308 32.2064 82.5079 32.2064C82.6152 32.2064 82.7024 32.1796 82.7694 32.1259C82.8365 32.0756 82.8968 31.9902 82.9504 31.8695L82.9605 31.8443L81.7889 29.1189H82.5985L83.3577 30.9543L84.1221 29.1189H84.8763ZM86.8021 31.8242L86.2088 30.9945L85.5953 31.8242H84.7405L85.7814 30.4615L84.7757 29.1189H85.6557L86.2289 29.9084L86.8172 29.1189H87.652L86.6463 30.4414L87.6922 31.8242H86.8021ZM88.0784 29.1189H88.8578V30.1749H90.0344V29.1189H90.8189V31.8242H90.0344V30.8135H88.8578V31.8242H88.0784V29.1189ZM93.9734 29.1189V31.8242H93.2744V31.0498H92.6961L92.1832 31.8242H91.3485L91.967 30.9392C91.7793 30.8655 91.6351 30.7599 91.5346 30.6224C91.4374 30.4816 91.3888 30.3123 91.3888 30.1145C91.3888 29.7961 91.5027 29.5514 91.7307 29.3804C91.962 29.2061 92.2788 29.1189 92.6811 29.1189H93.9734ZM92.6961 29.7575C92.5285 29.7575 92.4011 29.7877 92.314 29.848C92.2302 29.9084 92.1883 30.0056 92.1883 30.1397C92.1883 30.2738 92.2285 30.3727 92.309 30.4364C92.3928 30.4967 92.5185 30.5269 92.6861 30.5269H93.2744V29.7575H92.6961Z" fill="#20201F"/>
<path d="M83.0577 35.7147V39.2346H82.2431V36.3684H81.5391V35.7147H83.0577ZM85.0268 35.7147V39.2346H84.2122V36.3684H83.5083V35.7147H85.0268ZM86.1009 39.2748C85.9635 39.2748 85.8478 39.2279 85.754 39.1341C85.6601 39.0402 85.6132 38.9229 85.6132 38.7821C85.6132 38.6379 85.6601 38.5223 85.754 38.4351C85.8478 38.3446 85.9635 38.2993 86.1009 38.2993C86.2384 38.2993 86.354 38.3446 86.4479 38.4351C86.5417 38.5223 86.5887 38.6379 86.5887 38.7821C86.5887 38.9229 86.5417 39.0402 86.4479 39.1341C86.354 39.2279 86.2384 39.2748 86.1009 39.2748ZM88.2335 35.7147V39.2346H87.4188V36.3684H86.7149V35.7147H88.2335ZM91.6005 35.7147V36.2427L90.2931 39.2346H89.4081L90.6702 36.3785H89.5036V36.9517H88.7795V35.7147H91.6005Z" fill="#20201F"/>
<path d="M31.6025 45.3289L30.8664 44.3591L30.1258 45.3289H29.7732L30.6901 44.1387L29.8172 43.0102H30.1699L30.8664 43.9182L31.5629 43.0102H31.9067L31.0339 44.1387L31.9596 45.3289H31.6025ZM33.3473 45.3509C33.124 45.3509 32.9227 45.3009 32.7434 45.201C32.5642 45.0982 32.4231 44.9571 32.3202 44.7778C32.2174 44.5986 32.166 44.3958 32.166 44.1695C32.166 43.9432 32.2174 43.7404 32.3202 43.5612C32.4231 43.3819 32.5642 43.2423 32.7434 43.1424C32.9227 43.0425 33.124 42.9925 33.3473 42.9925C33.5707 42.9925 33.772 43.0425 33.9513 43.1424C34.1305 43.2423 34.2701 43.3819 34.37 43.5612C34.4729 43.7404 34.5243 43.9432 34.5243 44.1695C34.5243 44.3958 34.4729 44.5986 34.37 44.7778C34.2701 44.9571 34.1305 45.0982 33.9513 45.201C33.772 45.3009 33.5707 45.3509 33.3473 45.3509ZM33.3473 45.0732C33.5119 45.0732 33.6589 45.0364 33.7882 44.963C33.9204 44.8866 34.0233 44.7793 34.0967 44.6412C34.1702 44.5031 34.2069 44.3458 34.2069 44.1695C34.2069 43.9932 34.1702 43.836 34.0967 43.6978C34.0233 43.5597 33.9204 43.4539 33.7882 43.3804C33.6589 43.304 33.5119 43.2658 33.3473 43.2658C33.1828 43.2658 33.0344 43.304 32.9021 43.3804C32.7728 43.4539 32.67 43.5597 32.5936 43.6978C32.5201 43.836 32.4833 43.9932 32.4833 44.1695C32.4833 44.3458 32.5201 44.5031 32.5936 44.6412C32.67 44.7793 32.7728 44.8866 32.9021 44.963C33.0344 45.0364 33.1828 45.0732 33.3473 45.0732ZM37.0758 43.0102V45.3289H36.7628V43.2879H35.652L35.6211 43.8609C35.5976 44.3429 35.5418 44.7132 35.4536 44.9718C35.3655 45.2304 35.2082 45.3597 34.9819 45.3597C34.9202 45.3597 34.8453 45.348 34.7571 45.3244L34.7792 45.0556C34.8321 45.0673 34.8688 45.0732 34.8894 45.0732C35.0099 45.0732 35.101 45.0173 35.1627 44.9057C35.2244 44.794 35.2655 44.6559 35.2861 44.4913C35.3067 44.3267 35.3243 44.1093 35.339 43.8389L35.3787 43.0102H37.0758ZM39.8611 43.0102V45.3289H39.5481V43.2879H38.4372L38.4064 43.8609C38.3829 44.3429 38.327 44.7132 38.2389 44.9718C38.1507 45.2304 37.9935 45.3597 37.7672 45.3597C37.7055 45.3597 37.6305 45.348 37.5424 45.3244L37.5644 45.0556C37.6173 45.0673 37.654 45.0732 37.6746 45.0732C37.7951 45.0732 37.8862 45.0173 37.9479 44.9057C38.0096 44.794 38.0508 44.6559 38.0713 44.4913C38.0919 44.3267 38.1096 44.1093 38.1242 43.8389L38.1639 43.0102H39.8611Z" fill="#20201F"/>
<path d="M31.9861 50.8922C32.1889 50.8922 32.3681 50.9304 32.5239 51.0068C32.6826 51.0833 32.806 51.192 32.8942 51.3331C32.9824 51.4712 33.0264 51.6328 33.0264 51.818C33.0264 52.006 32.9809 52.1721 32.8898 52.3161C32.7987 52.4601 32.6723 52.5717 32.5107 52.6511C32.352 52.7275 32.1727 52.7657 31.9729 52.7657C31.5644 52.7657 31.2514 52.632 31.0339 52.3646C30.8165 52.0942 30.7077 51.7136 30.7077 51.2228C30.7077 50.879 30.7665 50.5881 30.8841 50.35C31.0016 50.112 31.1662 49.9327 31.3778 49.8122C31.5894 49.6888 31.8362 49.6271 32.1184 49.6271C32.424 49.6271 32.6679 49.6829 32.8501 49.7946L32.7223 50.0503C32.5753 49.9533 32.3755 49.9048 32.1228 49.9048C31.7819 49.9048 31.5144 50.0135 31.3205 50.231C31.1265 50.4455 31.0295 50.7585 31.0295 51.17C31.0295 51.2434 31.0339 51.3272 31.0428 51.4212C31.1192 51.2537 31.2411 51.1244 31.4086 51.0333C31.5761 50.9393 31.7686 50.8922 31.9861 50.8922ZM31.9597 52.4968C32.183 52.4968 32.3637 52.4366 32.5019 52.3161C32.6429 52.1926 32.7135 52.0295 32.7135 51.8268C32.7135 51.624 32.6429 51.4624 32.5019 51.3419C32.3637 51.2214 32.1757 51.1611 31.9376 51.1611C31.7819 51.1611 31.6437 51.1905 31.5233 51.2493C31.4057 51.3081 31.3131 51.3889 31.2455 51.4917C31.1779 51.5946 31.1441 51.7092 31.1441 51.8356C31.1441 51.9531 31.175 52.0619 31.2367 52.1618C31.3014 52.2617 31.3954 52.3425 31.5188 52.4042C31.6423 52.466 31.7892 52.4968 31.9597 52.4968ZM33.6751 52.7613C33.6104 52.7613 33.5546 52.7378 33.5075 52.6908C33.4635 52.6437 33.4414 52.5864 33.4414 52.5188C33.4414 52.4513 33.4635 52.3954 33.5075 52.3513C33.5546 52.3043 33.6104 52.2808 33.6751 52.2808C33.7397 52.2808 33.7955 52.3043 33.8426 52.3513C33.8896 52.3954 33.9131 52.4513 33.9131 52.5188C33.9131 52.5864 33.8896 52.6437 33.8426 52.6908C33.7955 52.7378 33.7397 52.7613 33.6751 52.7613ZM35.4634 50.976C35.7866 50.9936 36.032 51.0818 36.1995 51.2405C36.37 51.3962 36.4552 51.6005 36.4552 51.8532C36.4552 52.0295 36.4126 52.1868 36.3274 52.3249C36.2421 52.4601 36.1158 52.5673 35.9483 52.6467C35.7807 52.726 35.5765 52.7657 35.3355 52.7657C35.1122 52.7657 34.9006 52.7304 34.7007 52.6599C34.5038 52.5864 34.3452 52.4895 34.2247 52.369L34.3789 52.1177C34.4818 52.2235 34.6185 52.3102 34.7889 52.3778C34.9594 52.4424 35.1416 52.4748 35.3355 52.4748C35.5883 52.4748 35.7837 52.4204 35.9218 52.3117C36.0599 52.2 36.129 52.0472 36.129 51.8532C36.129 51.6622 36.0599 51.5123 35.9218 51.4036C35.7837 51.2948 35.575 51.2405 35.2958 51.2405H35.0754V51.0068L35.9306 49.9357H34.3525V49.6535H36.3362V49.8784L35.4634 50.976ZM39.5253 51.9282H38.9081V52.7393H38.5907V51.9282H36.8495V51.6989L38.4849 49.6535H38.8376L37.2595 51.646H38.5996V50.9319H38.9081V51.646H39.5253V51.9282Z" fill="#20201F"/>
<path d="M103.388 76.423V78.7417H103.075V76.7007H101.964L101.933 77.2738C101.909 77.7557 101.854 78.126 101.765 78.3846C101.677 78.6432 101.52 78.7726 101.294 78.7726C101.232 78.7726 101.157 78.7608 101.069 78.7373L101.091 78.4684C101.144 78.4801 101.181 78.486 101.201 78.486C101.322 78.486 101.413 78.4302 101.474 78.3185C101.536 78.2068 101.577 78.0687 101.598 77.9041C101.618 77.7396 101.636 77.5221 101.651 77.2517L101.69 76.423H103.388ZM105.234 78.7637C105.011 78.7637 104.809 78.7138 104.63 78.6139C104.451 78.511 104.31 78.3699 104.207 78.1907C104.104 78.0114 104.053 77.8086 104.053 77.5823C104.053 77.356 104.104 77.1533 104.207 76.974C104.31 76.7947 104.451 76.6551 104.63 76.5552C104.809 76.4553 105.011 76.4053 105.234 76.4053C105.457 76.4053 105.659 76.4553 105.838 76.5552C106.017 76.6551 106.157 76.7947 106.257 76.974C106.36 77.1533 106.411 77.356 106.411 77.5823C106.411 77.8086 106.36 78.0114 106.257 78.1907C106.157 78.3699 106.017 78.511 105.838 78.6139C105.659 78.7138 105.457 78.7637 105.234 78.7637ZM105.234 78.486C105.399 78.486 105.545 78.4493 105.675 78.3758C105.807 78.2994 105.91 78.1921 105.983 78.054C106.057 77.9159 106.094 77.7587 106.094 77.5823C106.094 77.406 106.057 77.2488 105.983 77.1107C105.91 76.9725 105.807 76.8667 105.675 76.7933C105.545 76.7168 105.399 76.6786 105.234 76.6786C105.069 76.6786 104.921 76.7168 104.789 76.7933C104.659 76.8667 104.557 76.9725 104.48 77.1107C104.407 77.2488 104.37 77.406 104.37 77.5823C104.37 77.7587 104.407 77.9159 104.48 78.054C104.557 78.1921 104.659 78.2994 104.789 78.3758C104.921 78.4493 105.069 78.486 105.234 78.486ZM109.328 78.4684V79.3015H109.033V78.7417H106.957V79.3015H106.661V78.4684H106.794C106.949 78.4596 107.055 78.345 107.111 78.1245C107.167 77.9041 107.205 77.5956 107.226 77.1988L107.257 76.423H108.967V78.4684H109.328ZM107.512 77.2164C107.498 77.5456 107.47 77.8174 107.428 78.032C107.387 78.2436 107.314 78.389 107.208 78.4684H108.654V76.7007H107.539L107.512 77.2164ZM111.971 77.7102H111.468V78.7417H111.155V77.7102H110.652L109.943 78.7417H109.568L110.401 77.5471L109.634 76.423H109.974L110.652 77.4413H111.155V76.423H111.468V77.4413H111.971L112.654 76.423H112.993L112.226 77.5515L113.059 78.7417H112.685L111.971 77.7102ZM113.58 76.423H113.893V78.2656L115.441 76.423H115.718V78.7417H115.405V76.8991L113.862 78.7417H113.58V76.423ZM118.396 76.423V78.7417H118.11V77.9747H117.382H117.294L116.756 78.7417H116.417L116.994 77.9306C116.815 77.8806 116.677 77.7954 116.58 77.6749C116.483 77.5544 116.435 77.4016 116.435 77.2164C116.435 76.9578 116.523 76.7609 116.699 76.6257C116.875 76.4906 117.116 76.423 117.422 76.423H118.396ZM116.752 77.2253C116.752 77.5691 116.971 77.741 117.409 77.741H118.11V76.7007H117.431C116.978 76.7007 116.752 76.8755 116.752 77.2253Z" fill="#20201F"/>
<path d="M108.825 85.3405H108.208V86.1516H107.89V85.3405H106.149V85.1113L107.784 83.0658H108.137L106.559 85.0584H107.899V84.3442H108.208V85.0584H108.825V85.3405ZM109.44 86.1737C109.376 86.1737 109.32 86.1501 109.273 86.1031C109.229 86.0561 109.207 85.9988 109.207 85.9312C109.207 85.8636 109.229 85.8078 109.273 85.7637C109.32 85.7167 109.376 85.6932 109.44 85.6932C109.505 85.6932 109.561 85.7167 109.608 85.7637C109.655 85.8078 109.679 85.8636 109.679 85.9312C109.679 85.9988 109.655 86.0561 109.608 86.1031C109.561 86.1501 109.505 86.1737 109.44 86.1737ZM112.704 85.3405H112.086V86.1516H111.769V85.3405H110.028V85.1113L111.663 83.0658H112.016L110.438 85.0584H111.778V84.3442H112.086V85.0584H112.704V85.3405ZM113.738 83.0658V86.1516H113.421V83.348H112.694V83.0658H113.738Z" fill="#20201F"/>
<path d="M45.7708 23.8848C46.2175 23.8848 46.5422 23.9656 46.745 24.1272C46.9507 24.2859 47.0536 24.5092 47.0536 24.7972C47.0536 24.9765 47.011 25.1367 46.9257 25.2777C46.8434 25.4188 46.7186 25.5305 46.551 25.6128C46.3835 25.6921 46.1778 25.7318 45.9339 25.7318C45.7135 25.7318 45.5034 25.6965 45.3035 25.626C45.1066 25.5525 44.9479 25.4555 44.8274 25.335L44.9817 25.0838C45.0846 25.1896 45.2198 25.2763 45.3873 25.3439C45.5548 25.4085 45.7355 25.4408 45.9295 25.4408C46.1852 25.4408 46.3821 25.3835 46.5202 25.2689C46.6612 25.1543 46.7318 25.0015 46.7318 24.8105C46.7318 24.5989 46.6524 24.4387 46.4937 24.33C46.338 24.2212 46.0735 24.1669 45.7003 24.1669H45.0434L45.2021 22.6196H46.8905V22.9017H45.4799L45.3741 23.8848H45.7708ZM47.6945 25.7274C47.6299 25.7274 47.5741 25.7039 47.527 25.6568C47.483 25.6098 47.4609 25.5525 47.4609 25.4849C47.4609 25.4173 47.483 25.3615 47.527 25.3174C47.5741 25.2704 47.6299 25.2469 47.6945 25.2469C47.7592 25.2469 47.815 25.2704 47.8621 25.3174C47.9091 25.3615 47.9326 25.4173 47.9326 25.4849C47.9326 25.5525 47.9091 25.6098 47.8621 25.6568C47.815 25.7039 47.7592 25.7274 47.6945 25.7274ZM49.5732 25.7318C49.3351 25.7318 49.1221 25.6686 48.934 25.5422C48.7489 25.4159 48.6034 25.2351 48.4976 25C48.3947 24.762 48.3433 24.4828 48.3433 24.1625C48.3433 23.8421 48.3947 23.5644 48.4976 23.3293C48.6034 23.0913 48.7489 22.9091 48.934 22.7827C49.1221 22.6563 49.3351 22.5932 49.5732 22.5932C49.8112 22.5932 50.0228 22.6563 50.208 22.7827C50.396 22.9091 50.543 23.0913 50.6488 23.3293C50.7546 23.5644 50.8075 23.8421 50.8075 24.1625C50.8075 24.4828 50.7546 24.762 50.6488 25C50.543 25.2351 50.396 25.4159 50.208 25.5422C50.0228 25.6686 49.8112 25.7318 49.5732 25.7318ZM49.5732 25.4408C49.7524 25.4408 49.9097 25.3909 50.0449 25.291C50.183 25.191 50.2902 25.0456 50.3666 24.8545C50.4431 24.6635 50.4813 24.4328 50.4813 24.1625C50.4813 23.8921 50.4431 23.6614 50.3666 23.4704C50.2902 23.2794 50.183 23.1339 50.0449 23.034C49.9097 22.9341 49.7524 22.8841 49.5732 22.8841C49.3939 22.8841 49.2352 22.9341 49.0971 23.034C48.9619 23.1339 48.8561 23.2794 48.7797 23.4704C48.7033 23.6614 48.6651 23.8921 48.6651 24.1625C48.6651 24.4328 48.7033 24.6635 48.7797 24.8545C48.8561 25.0456 48.9619 25.191 49.0971 25.291C49.2352 25.3909 49.3939 25.4408 49.5732 25.4408ZM52.1086 22.6196V25.7053H51.7912V22.9017H51.0638V22.6196H52.1086Z" fill="#20201F"/>
</g>
<defs>
<clipPath id="clip0_2589_22067">
<rect width="126" height="121" fill="white"/>
</clipPath>
</defs>
</svg>
