<svg width="25" height="25" viewBox="0 0 25 25" fill="none" xmlns="http://www.w3.org/2000/svg">
<path d="M12.5 0.71875C6.00402 0.71875 0.71875 6.00402 0.71875 12.5C0.71875 18.996 6.00402 24.2812 12.5 24.2812C18.996 24.2812 24.2812 18.996 24.2812 12.5C24.2812 6.00402 18.996 0.71875 12.5 0.71875ZM12.5 2.53125C18.0154 2.53125 22.4688 6.98462 22.4688 12.5C22.4688 18.0154 18.0154 22.4688 12.5 22.4688C6.98462 22.4688 2.53125 18.0154 2.53125 12.5C2.53125 6.98462 6.98462 2.53125 12.5 2.53125ZM11.5938 7.0625V11.5938H7.0625V13.4062H11.5938V17.9375H13.4062V13.4062H17.9375V11.5938H13.4062V7.0625H11.5938Z" fill="#007BFC"/>
</svg>
