<svg width="21" height="17" viewBox="0 0 21 17" fill="none" xmlns="http://www.w3.org/2000/svg">
<path d="M19.8719 16.9999C19.668 16.9997 19.4725 16.9156 19.3283 16.7662L16.9897 14.3436H7.05053C6.84651 14.3436 6.65084 14.2597 6.50657 14.1102C6.3623 13.9608 6.28125 13.7581 6.28125 13.5467C6.28125 13.3354 6.3623 13.1327 6.50657 12.9833C6.65084 12.8338 6.84651 12.7499 7.05053 12.7499H17.3077C17.5116 12.75 17.7072 12.8341 17.8513 12.9836L19.1027 14.2799V6.10914C19.1027 5.89779 19.1837 5.6951 19.328 5.54566C19.4723 5.39621 19.6679 5.31226 19.8719 5.31226C20.076 5.31226 20.2716 5.39621 20.4159 5.54566C20.5602 5.6951 20.6412 5.89779 20.6412 6.10914V16.203C20.6412 16.3605 20.5961 16.5144 20.5117 16.6454C20.4272 16.7763 20.3073 16.8784 20.1668 16.9388C20.0736 16.9799 19.9733 17.0007 19.8719 16.9999V16.9999Z" fill="white"/>
<path d="M15.257 0H2.94848C2.3364 0 1.74939 0.251872 1.31658 0.700207C0.883773 1.14854 0.640625 1.75661 0.640625 2.39066V13.0158C0.640667 13.1733 0.68575 13.3272 0.770182 13.4582C0.854613 13.5891 0.974609 13.6912 1.11502 13.7516C1.20823 13.7927 1.30861 13.8135 1.40991 13.8127C1.61387 13.8125 1.80941 13.7284 1.95354 13.5789L4.29216 11.1564H15.257C15.8691 11.1564 16.4561 10.9045 16.8889 10.4562C17.3217 10.0079 17.5649 9.39978 17.5649 8.76574V2.39066C17.5649 1.75661 17.3217 1.14854 16.8889 0.700207C16.4561 0.251872 15.8691 0 15.257 0V0ZM13.7185 8.23448H4.48705C4.28302 8.23448 4.08735 8.15052 3.94308 8.00108C3.79881 7.85163 3.71776 7.64894 3.71776 7.4376C3.71776 7.22625 3.79881 7.02356 3.94308 6.87411C4.08735 6.72467 4.28302 6.64071 4.48705 6.64071H13.7185C13.9225 6.64071 14.1182 6.72467 14.2624 6.87411C14.4067 7.02356 14.4878 7.22625 14.4878 7.4376C14.4878 7.64894 14.4067 7.85163 14.2624 8.00108C14.1182 8.15052 13.9225 8.23448 13.7185 8.23448V8.23448ZM13.7185 4.51568H4.48705C4.28302 4.51568 4.08735 4.43173 3.94308 4.28228C3.79881 4.13284 3.71776 3.93015 3.71776 3.7188C3.71776 3.50745 3.79881 3.30476 3.94308 3.15532C4.08735 3.00587 4.28302 2.92191 4.48705 2.92191H13.7185C13.9225 2.92191 14.1182 3.00587 14.2624 3.15532C14.4067 3.30476 14.4878 3.50745 14.4878 3.7188C14.4878 3.93015 14.4067 4.13284 14.2624 4.28228C14.1182 4.43173 13.9225 4.51568 13.7185 4.51568V4.51568Z" fill="white"/>
</svg>
