<svg width="21" height="18" viewBox="0 0 21 18" fill="none" xmlns="http://www.w3.org/2000/svg">
<path d="M8.20049 11.1172C7.60995 10.5432 7.25049 9.7632 7.25049 8.8882C7.25049 7.1352 8.70065 5.7222 10.5 5.7222C11.3904 5.7222 12.21 6.0732 12.7903 6.6472M13.6891 9.4493C13.4509 10.7393 12.4074 11.7573 11.0836 11.9913M5.01054 14.2227C3.38065 12.9767 2.00032 11.1567 1 8.8877C2.01059 6.6087 3.40016 4.7787 5.04032 3.5227C6.67022 2.2667 8.5507 1.5847 10.5 1.5847C12.4606 1.5847 14.3401 2.2767 15.9802 3.5417M18.1493 5.7412C18.8559 6.6552 19.4772 7.7102 20 8.8872C17.9798 13.4442 14.4099 16.1892 10.5 16.1892C9.61368 16.1892 8.73968 16.0492 7.89957 15.7762M18.6006 1L2.40025 16.774" stroke="#A9A9A9" stroke-width="1.5" stroke-linecap="round" stroke-linejoin="round"/>
</svg>
