<svg width="21" height="16" viewBox="0 0 21 16" fill="none" xmlns="http://www.w3.org/2000/svg">
<path d="M10.4979 14.25C10.0837 14.25 9.74795 14.5858 9.74795 15C9.74795 15.4142 10.0837 15.75 10.4979 15.75V14.25ZM20 8L20.6813 8.31361C20.7729 8.11457 20.7729 7.88543 20.6813 7.68639L20 8ZM10.4979 0.25C10.0837 0.25 9.74795 0.585786 9.74795 1C9.74795 1.41421 10.0837 1.75 10.4979 1.75V0.25ZM10.5021 1.75C10.9163 1.75 11.2521 1.41421 11.2521 1C11.2521 0.585786 10.9163 0.25 10.5021 0.25V1.75ZM1 8L0.318714 7.68639C0.227095 7.88543 0.227095 8.11457 0.318714 8.31361L1 8ZM10.5021 15.75C10.9163 15.75 11.2521 15.4142 11.2521 15C11.2521 14.5858 10.9163 14.25 10.5021 14.25V15.75ZM12.9969 8.00019C12.9969 9.21163 11.9283 10.2805 10.4995 10.2805V11.7805C12.6571 11.7805 14.4969 10.1363 14.4969 8.00019H12.9969ZM10.4995 10.2805C9.071 10.2805 8.00305 9.21193 8.00305 8.00019H6.50305C6.50305 10.136 8.3416 11.7805 10.4995 11.7805V10.2805ZM8.00305 8.00019C8.00305 6.78735 9.07116 5.71897 10.4995 5.71897V4.21897C8.34144 4.21897 6.50305 5.86354 6.50305 8.00019H8.00305ZM10.4995 5.71897C11.9281 5.71897 12.9969 6.78765 12.9969 8.00019H14.4969C14.4969 5.86325 12.6572 4.21897 10.4995 4.21897V5.71897ZM10.4979 15.75C14.7746 15.75 18.5786 12.8816 20.6813 8.31361L19.3187 7.68639C17.3934 11.8689 14.0431 14.25 10.4979 14.25V15.75ZM20.6813 7.68639C18.5786 3.11845 14.7746 0.25 10.4979 0.25V1.75C14.0431 1.75 17.3934 4.13107 19.3187 8.31361L20.6813 7.68639ZM10.4979 1.75H10.5021V0.25H10.4979V1.75ZM10.5021 0.25C6.22541 0.25 2.42142 3.11845 0.318714 7.68639L1.68129 8.31361C3.60658 4.13107 6.95686 1.75 10.5021 1.75V0.25ZM0.318714 8.31361C2.42142 12.8816 6.22541 15.75 10.5021 15.75V14.25C6.95686 14.25 3.60658 11.8689 1.68129 7.68639L0.318714 8.31361ZM10.5021 14.25H10.4979V15.75H10.5021V14.25Z" fill="#007bfc"/>
</svg>
