<svg width="24" height="18" viewBox="0 0 24 18" fill="none" xmlns="http://www.w3.org/2000/svg">
<path d="M0.603413 2.91766L3.90117 5.68316L10.1641 10.9197C10.7074 11.3506 11.3834 11.5795 12.0768 11.5674C12.7701 11.5553 13.4377 11.3029 13.9655 10.8532L23.1747 3.16477L23.4502 2.9462C23.4502 3.24082 23.5168 3.47835 23.5168 3.71594C23.5168 7.26082 23.5168 10.7962 23.5168 14.3411C23.53 14.7503 23.4591 15.1578 23.3086 15.5385C23.158 15.9192 22.931 16.265 22.6415 16.5545C22.352 16.844 22.0063 17.071 21.6256 17.2216C21.2449 17.3721 20.8373 17.443 20.4281 17.4298H3.66358C3.25439 17.443 2.84681 17.3721 2.4661 17.2216C2.08539 17.071 1.73956 16.844 1.45007 16.5545C1.16058 16.265 0.933546 15.9192 0.783 15.5385C0.632453 15.1578 0.561664 14.7503 0.574874 14.3411V3.74448C0.527356 3.49738 0.574902 3.24079 0.603413 2.91766Z" fill="#007BFC"/>
<path d="M1.91797 1.14051C2.35503 0.857687 2.8611 0.699943 3.38146 0.684353H20.2695C20.898 0.660254 21.5195 0.822245 22.0562 1.15002L21.8377 1.35908L12.5716 9.10461C12.5015 9.17763 12.4174 9.2357 12.3244 9.27538C12.2313 9.31507 12.131 9.33548 12.0298 9.33548C11.9286 9.33548 11.8285 9.31507 11.7354 9.27538C11.6423 9.2357 11.5582 9.17763 11.4881 9.10461L2.08897 1.23553L1.91797 1.14051Z" fill="#007BFC"/>
</svg>
