<svg width="23" height="28" viewBox="0 0 23 28" fill="none" xmlns="http://www.w3.org/2000/svg">
<path d="M11.2321 0C10.0416 0 9.07828 0.963344 9.07828 2.15385C9.07828 2.24639 9.09924 2.33474 9.11188 2.42308C5.38897 3.3738 2.61674 6.75601 2.61674 10.7692V20.4615C2.61674 21.0715 2.14978 21.5385 1.53981 21.5385H0.462891V23.6923H8.20327C8.08128 24.033 8.00135 24.3906 8.00135 24.7692C8.00135 26.5403 9.46109 28 11.2321 28C13.0032 28 14.4629 26.5403 14.4629 24.7692C14.4629 24.3906 14.3829 24.033 14.261 23.6923H22.0014V21.5385H20.9244C20.3145 21.5385 19.8475 21.0715 19.8475 20.4615V11.0721C19.8475 7.02524 17.1426 3.41587 13.3524 2.42308C13.365 2.33474 13.386 2.24639 13.386 2.15385C13.386 0.963344 12.4226 0 11.2321 0ZM10.761 4.30769C10.9167 4.29507 11.0723 4.30769 11.2321 4.30769C11.2995 4.30769 11.3668 4.30769 11.434 4.30769C14.9508 4.41286 17.6937 7.49639 17.6937 11.0721V20.4615C17.6937 20.8402 17.7736 21.1977 17.8955 21.5385H4.56867C4.69066 21.1977 4.77058 20.8402 4.77058 20.4615V10.7692C4.77058 7.34915 7.40399 4.55168 10.761 4.30769ZM11.2321 23.6923C11.8379 23.6923 12.309 24.1634 12.309 24.7692C12.309 25.375 11.8379 25.8462 11.2321 25.8462C10.6263 25.8462 10.1552 25.375 10.1552 24.7692C10.1552 24.1634 10.6263 23.6923 11.2321 23.6923Z" fill="white"/>
</svg>
