<svg width="19" height="19" viewBox="0 0 19 19" fill="none" xmlns="http://www.w3.org/2000/svg">
<path d="M9.5 0C5.83731 0 2.85 2.71573 2.85 6.04545C2.85 8.12693 4.01894 9.97569 5.78906 11.0654C2.40098 12.3878 0 15.4442 0 19H1.9C1.9 15.1743 5.29179 12.0909 9.5 12.0909C13.7082 12.0909 17.1 15.1743 17.1 19H19C19 15.4442 16.599 12.3878 13.211 11.0654C14.981 9.97569 16.15 8.12693 16.15 6.04545C16.15 2.71573 13.1627 0 9.5 0ZM9.5 1.72727C12.1348 1.72727 14.25 3.65021 14.25 6.04545C14.25 8.44072 12.1348 10.3636 9.5 10.3636C6.86523 10.3636 4.75 8.44072 4.75 6.04545C4.75 3.65021 6.86523 1.72727 9.5 1.72727Z" fill="white"/>
</svg>
