<svg width="21" height="15" viewBox="0 0 21 15" fill="none" xmlns="http://www.w3.org/2000/svg">
<path d="M9.31645 11.4688C7.95854 11.2932 6.57834 11.4527 5.29618 11.9331C4.01401 12.4135 2.86883 13.2002 1.9606 14.2249C1.83783 14.3785 1.67041 14.4903 1.48147 14.5447C1.29254 14.5992 1.0914 14.5937 0.905705 14.5291C0.723192 14.4502 0.569936 14.316 0.467644 14.1455C0.365352 13.975 0.319083 13.7768 0.33539 13.5787C0.272431 11.9431 0.619468 10.3177 1.34481 8.8504C2.07015 7.38311 3.15089 6.12049 4.48862 5.17734C5.85369 4.19329 7.45255 3.58386 9.12631 3.40967H9.31645V1.16681C9.30797 0.99677 9.34926 0.827947 9.43536 0.68107C9.52146 0.534193 9.64863 0.415657 9.80115 0.339995C9.94791 0.254333 10.117 0.214901 10.2865 0.226768C10.4561 0.238634 10.6181 0.301197 10.7515 0.40647L12.9184 1.91764L19.571 6.58387C19.7195 6.66606 19.8432 6.7866 19.9295 6.93284C20.0157 7.07908 20.0612 7.24568 20.0612 7.41545C20.0612 7.58521 20.0157 7.75193 19.9295 7.89817C19.8432 8.04441 19.7195 8.16483 19.571 8.24702L10.818 14.377C10.6781 14.496 10.5066 14.5718 10.3245 14.5954C10.1423 14.619 9.95728 14.5894 9.79164 14.51C9.62327 14.4197 9.48605 14.2806 9.39789 14.1111C9.30973 13.9415 9.27471 13.7494 9.29743 13.5597C9.32594 12.8659 9.31645 12.1721 9.31645 11.4688ZM11.1127 11.963L17.6322 7.40129L11.1601 2.86801C11.1601 3.29568 11.1601 3.73283 11.1601 4.1605C11.1601 4.41255 11.06 4.65421 10.8818 4.83244C10.7036 5.01067 10.4618 5.11087 10.2097 5.11087C9.94364 5.11087 9.66806 5.11087 9.40195 5.11087C7.75766 5.28161 6.20534 5.95266 4.95452 7.03353C3.7037 8.11441 2.81461 9.55305 2.40725 11.1552C2.40725 11.2027 2.40725 11.2597 2.40725 11.3547L2.62581 11.2028C3.98891 10.2833 5.56733 9.73308 7.20666 9.6061C8.15703 9.53957 9.19294 9.60616 10.1813 9.54914C10.4334 9.54914 10.675 9.64922 10.8533 9.82745C11.0315 10.0057 11.1317 10.2475 11.1317 10.4995L11.1127 11.963Z" fill="#007BFC"/>
</svg>
