<svg width="49" height="49" viewBox="0 0 49 49" fill="none" xmlns="http://www.w3.org/2000/svg">
<path d="M42.0074 48.043H6.01844C2.70944 48.043 0.0234375 45.357 0.0234375 42.048V6.03699C0.0234375 2.72899 2.70944 0.0429922 6.01844 0.0419922H42.0074C45.3164 0.0429922 48.0024 2.72899 48.0024 6.03699V42.048C48.0024 45.357 45.3164 48.043 42.0074 48.043ZM16.0234 44.042V4.04299H7.01144C5.36144 4.04299 4.02244 5.38199 4.02244 7.03199V41.053C4.02244 42.703 5.36144 44.042 7.01144 44.042H16.0234V44.042ZM41.0144 4.04299H20.0234V44.042H41.0144C42.6644 44.042 44.0034 42.703 44.0034 41.053V7.03199C44.0034 5.38199 42.6644 4.04299 41.0144 4.04299V4.04299Z" fill="white"/>
<path d="M13.1784 8.04199H6.60938V10.042H13.1784V8.04199Z" fill="white"/>
<path d="M13.1784 12.042H6.60938V14.042H13.1784V12.042Z" fill="white"/>
<path d="M13.1784 16.042H6.60938V18.042H13.1784V16.042Z" fill="white"/>
</svg>
