<svg width="21" height="20" viewBox="0 0 21 20" fill="none" xmlns="http://www.w3.org/2000/svg">
<path d="M10.5 0C4.96214 0 0.5 4.46214 0.5 10C0.5 15.5378 4.96214 20 10.5 20C16.0378 20 20.5 15.5378 20.5 10C20.5 8.92431 20.3558 7.85156 19.9712 6.85097L18.7211 8.07692C18.8744 8.69292 18.9615 9.30892 18.9615 10C18.9615 14.6935 15.1935 18.4615 10.5 18.4615C5.80649 18.4615 2.03846 14.6935 2.03846 10C2.03846 5.30649 5.80649 1.53846 10.5 1.53846C12.8077 1.53846 14.881 2.45793 16.3413 3.91827L17.4231 2.83653C15.6532 1.06671 13.1923 0 10.5 0ZM19.1778 3.29327L10.5 11.9712L7.20673 8.67785L6.10096 9.78369L9.94708 13.6298L10.5 14.1587L11.0529 13.6298L20.2837 4.39904L19.1778 3.29327Z" fill="#FEFEFE"/>
</svg>
