<svg width="32" height="30" viewBox="0 0 32 30" fill="none" xmlns="http://www.w3.org/2000/svg">
<path d="M23.1111 26.4706C24.093 26.4706 24.8889 27.2607 24.8889 28.2353C24.8889 29.2099 24.093 30 23.1111 30H1.77778C0.795938 30 0 29.2099 0 28.2353C0 27.2607 0.795938 26.4706 1.77778 26.4706H23.1111ZM30.2222 17.6471C31.2041 17.6471 32 18.4371 32 19.4118C32 20.3864 31.2041 21.1765 30.2222 21.1765H1.77778C0.795938 21.1765 0 20.3864 0 19.4118C0 18.4371 0.795938 17.6471 1.77778 17.6471H30.2222ZM30.2222 8.82353C31.2041 8.82353 32 9.61362 32 10.5882C32 11.5629 31.2041 12.3529 30.2222 12.3529H1.77778C0.795938 12.3529 0 11.5629 0 10.5882C0 9.61362 0.795938 8.82353 1.77778 8.82353H30.2222ZM16 0C16.9818 0 17.7778 0.790086 17.7778 1.76471C17.7778 2.73933 16.9818 3.52941 16 3.52941H1.77778C0.795938 3.52941 0 2.73933 0 1.76471C0 0.790086 0.795938 0 1.77778 0H16Z" fill="#021921"/>
</svg>
