<svg width="64" height="64" viewBox="0 0 64 64" fill="none" xmlns="http://www.w3.org/2000/svg">
<path fill-rule="evenodd" clip-rule="evenodd" d="M6 4C5.46957 4 4.96086 4.21071 4.58579 4.58579C4.21071 4.96086 4 5.46957 4 6V22C4 22.5304 3.78929 23.0391 3.41421 23.4142C3.03914 23.7893 2.53043 24 2 24C1.46957 24 0.960859 23.7893 0.585786 23.4142C0.210714 23.0391 0 22.5304 0 22V6C0 4.4087 0.632141 2.88258 1.75736 1.75736C2.88258 0.632141 4.4087 0 6 0L22 0C22.5304 0 23.0391 0.210714 23.4142 0.585786C23.7893 0.960859 24 1.46957 24 2C24 2.53043 23.7893 3.03914 23.4142 3.41421C23.0391 3.78929 22.5304 4 22 4H6ZM40 2C40 1.46957 40.2107 0.960859 40.5858 0.585786C40.9609 0.210714 41.4696 0 42 0L58 0C59.5913 0 61.1174 0.632141 62.2426 1.75736C63.3679 2.88258 64 4.4087 64 6V22C64 22.5304 63.7893 23.0391 63.4142 23.4142C63.0391 23.7893 62.5304 24 62 24C61.4696 24 60.9609 23.7893 60.5858 23.4142C60.2107 23.0391 60 22.5304 60 22V6C60 5.46957 59.7893 4.96086 59.4142 4.58579C59.0391 4.21071 58.5304 4 58 4H42C41.4696 4 40.9609 3.78929 40.5858 3.41421C40.2107 3.03914 40 2.53043 40 2ZM2 40C2.53043 40 3.03914 40.2107 3.41421 40.5858C3.78929 40.9609 4 41.4696 4 42V58C4 58.5304 4.21071 59.0391 4.58579 59.4142C4.96086 59.7893 5.46957 60 6 60H22C22.5304 60 23.0391 60.2107 23.4142 60.5858C23.7893 60.9609 24 61.4696 24 62C24 62.5304 23.7893 63.0391 23.4142 63.4142C23.0391 63.7893 22.5304 64 22 64H6C4.4087 64 2.88258 63.3679 1.75736 62.2426C0.632141 61.1174 0 59.5913 0 58L0 42C0 41.4696 0.210714 40.9609 0.585786 40.5858C0.960859 40.2107 1.46957 40 2 40ZM62 40C62.5304 40 63.0391 40.2107 63.4142 40.5858C63.7893 40.9609 64 41.4696 64 42V58C64 59.5913 63.3679 61.1174 62.2426 62.2426C61.1174 63.3679 59.5913 64 58 64H42C41.4696 64 40.9609 63.7893 40.5858 63.4142C40.2107 63.0391 40 62.5304 40 62C40 61.4696 40.2107 60.9609 40.5858 60.5858C40.9609 60.2107 41.4696 60 42 60H58C58.5304 60 59.0391 59.7893 59.4142 59.4142C59.7893 59.0391 60 58.5304 60 58V42C60 41.4696 60.2107 40.9609 60.5858 40.5858C60.9609 40.2107 61.4696 40 62 40Z" fill="black"/>
</svg>
