<svg width="938" height="219" fill="none" xmlns="http://www.w3.org/2000/svg"><path d="M106.647 213.509c-20.118 0-38.283-4.492-54.495-13.477-16.212-9.18-29.006-21.681-38.382-37.502C4.59 146.708 0 129.032 0 109.499c0-19.532 4.59-37.21 13.77-53.03 9.376-15.822 22.17-28.225 38.382-37.21 16.212-9.18 34.377-13.77 54.495-13.77 20.119 0 38.284 4.492 54.496 13.477 16.212 8.985 28.908 21.388 38.088 37.21 9.376 15.82 14.064 33.595 14.064 53.323s-4.688 37.502-14.064 53.324c-9.18 15.821-21.876 28.224-38.088 37.209-16.212 8.985-34.377 13.477-54.496 13.477zm0-13.77c17.189 0 32.717-3.906 46.585-11.719 13.868-7.813 24.807-18.556 32.815-32.229 8.008-13.868 12.012-29.299 12.012-46.292 0-16.993-4.004-32.326-12.012-45.999-8.008-13.868-18.947-24.709-32.815-32.522-13.868-7.813-29.396-11.719-46.585-11.719-17.188 0-32.814 3.907-46.878 11.72C45.901 38.791 34.963 49.632 26.955 63.5 18.947 77.173 14.942 92.506 14.942 109.5c0 16.993 4.005 32.424 12.013 46.292 8.008 13.673 18.946 24.416 32.814 32.229 14.064 7.813 29.69 11.719 46.878 11.719zM482.122 109.499c0 17.97-4.395 33.498-13.185 46.585-8.789 13.087-21.485 23.244-38.088 30.471-16.407 7.031-36.037 10.743-58.89 11.133v20.802h-14.357v-20.802c-22.853-.39-42.581-4.102-59.183-11.133-16.407-7.227-29.006-17.384-37.795-30.471-8.79-13.087-13.185-28.615-13.185-46.585 0-18.165 4.395-33.791 13.185-46.878 8.789-13.087 21.388-23.146 37.795-30.178 16.602-7.227 36.33-11.035 59.183-11.426V.507h14.357v20.51c34.572.977 61.527 9.18 80.864 24.61 19.533 15.431 29.299 36.722 29.299 63.872zm-110.163 75.884c30.08-.977 53.519-8.009 70.317-21.095 16.797-13.282 25.196-31.643 25.196-55.082 0-23.244-8.399-41.409-25.196-54.496-16.798-13.282-40.237-20.411-70.317-21.388v152.061zm-109.871-75.884c0 23.439 8.399 41.702 25.197 54.789 16.798 13.086 40.237 20.118 70.317 21.095V33.323c-30.275.976-53.812 8.105-70.61 21.387-16.602 13.087-24.904 31.35-24.904 54.789zM534.912 6.954h14.942v179.894L689.609 6.954h13.185v205.091h-14.943V32.443L548.096 212.045h-13.184V6.954zM864.58 213.509c-20.119 0-38.284-4.492-54.496-13.477-16.016-8.985-28.713-21.388-38.088-37.209-9.18-15.822-13.77-33.596-13.77-53.324s4.59-37.502 13.77-53.324c9.375-15.82 22.072-28.224 38.088-37.209 16.212-8.985 34.377-13.477 54.496-13.477 14.844 0 28.517 2.441 41.018 7.324 12.501 4.688 23.146 11.72 31.936 21.095l-9.376 9.669c-16.407-16.212-37.405-24.318-62.992-24.318-17.189 0-32.815 3.907-46.878 11.72-14.063 7.813-25.099 18.653-33.108 32.521-8.008 13.673-12.012 29.006-12.012 45.999 0 16.993 4.004 32.424 12.012 46.292 8.009 13.673 19.045 24.416 33.108 32.229 14.063 7.813 29.689 11.719 46.878 11.719 25.392 0 46.389-8.204 62.992-24.611l9.376 9.669c-8.79 9.375-19.533 16.505-32.229 21.388-12.501 4.883-26.076 7.324-40.725 7.324z" fill="#CC9964"/></svg>