<svg width="96" height="95" viewBox="0 0 96 95" fill="none" xmlns="http://www.w3.org/2000/svg">
<path fill-rule="evenodd" clip-rule="evenodd" d="M48.8431 0.5C23.257 0.5 2.43618 21.0878 2.43618 46.5497C2.43618 55.2795 4.8555 63.3545 9.10764 70.3383L0.75 95L26.4094 86.8522C33.0809 90.4896 40.7054 92.5994 48.8431 92.5994C74.4292 92.5994 95.25 72.0116 95.25 46.5497C95.25 21.0878 74.5025 0.5 48.8431 0.5ZM48.8431 84.8152C40.9986 84.8152 33.6674 82.4873 27.5824 78.4862L12.7733 83.2148L17.6119 68.9562C12.9932 62.6271 10.2806 54.843 10.2806 46.477C10.2806 25.38 27.5824 8.13857 48.9164 8.13857C70.1771 8.13857 87.5522 25.3072 87.5522 46.477C87.4789 67.6467 70.1771 84.8152 48.8431 84.8152ZM70.617 56.9527C69.444 56.298 63.7256 53.2425 62.6992 52.806C61.5995 52.3695 60.8664 52.1513 59.9866 53.3153C59.1802 54.4793 56.7609 57.0254 56.1011 57.7529C55.3679 58.4804 54.7081 58.5531 53.5351 57.9711C52.3621 57.3164 48.6232 55.9342 44.2244 51.7875C40.852 48.5138 38.5793 44.5854 37.9195 43.4215C37.2597 42.1847 37.9195 41.6028 38.506 41.0208C39.0925 40.5116 39.7523 39.7113 40.3388 39.0566C40.9253 38.4018 41.1453 37.8926 41.5851 37.1651C42.025 36.3649 41.8051 35.7102 41.5851 35.1282C41.2919 34.5463 39.1658 28.6536 38.2861 26.2529C37.4063 23.8522 36.3799 24.216 35.7201 24.216C35.0603 24.216 34.2539 24.0705 33.4474 24.0705C32.641 24.0705 31.3947 24.2887 30.2217 25.4527C29.122 26.6167 25.8962 29.3084 25.6763 35.1282C25.4564 40.8754 29.4886 46.6224 30.0751 47.4226C30.6616 48.2229 37.7729 60.7356 49.6495 65.9007C61.5262 71.0658 61.5995 69.4654 63.7256 69.3927C65.925 69.2472 70.8369 66.7737 71.9366 64.082C73.0363 61.3903 73.1096 58.9896 72.8163 58.5531C72.5231 57.8984 71.79 57.6075 70.617 56.9527Z" fill="#00212D"/>
</svg>
