<svg width="609" height="694" viewBox="0 0 609 694" fill="none" xmlns="http://www.w3.org/2000/svg">
<path d="M209.309 67.2184C192.623 87.4421 182.954 114.019 152.16 148.006C132.581 169.601 9.03843 185.517 2.80736 341.815C2.13836 358.24 3.58232 375.19 6.87802 390.472C57.4881 625.471 354.528 691.039 530.906 490.01C574.447 440.381 661.653 332.956 555.664 154.42C482.528 31.2343 321.297 -68.6123 209.309 67.2184Z" fill="white"/>
<path d="M495.375 679.195C495.375 687.06 404.605 693.421 292.658 693.421C180.712 693.421 89.9707 687.06 89.9707 679.195C89.9707 671.347 180.712 664.968 292.658 664.968C404.605 664.968 495.375 671.347 495.375 679.195Z" fill="#005BBA"/>
<path d="M409.032 609.765H388.929C388.875 610.338 388.839 610.84 388.804 611.216C388.212 618.795 381.655 639.346 380.436 643.145C379.325 646.638 378.985 649.344 380.239 655.328C382.783 667.279 394.591 668.3 398.766 665.505C402.958 662.71 399.572 658.912 398.569 648.538C397.834 640.905 400.772 635.763 403.55 626.374C404.356 623.686 406.452 617.469 409.032 609.765Z" fill="#FD9783"/>
<path d="M451.961 616C452.086 614.692 451.567 608.779 451.119 604.21C450.85 601.272 448.467 598.996 445.529 598.835C443.217 598.71 440.476 598.262 438.021 597.043C431.32 593.729 424.118 584.483 415.069 574.808L399.75 593.603C408.87 600.734 415.374 606.575 417.148 608.296C426.142 616.967 434.384 625.55 435.423 634.347C436.48 643.145 451.764 618.204 451.961 616Z" fill="#FD9783"/>
<path d="M378.789 651.852C378.753 651.494 378.09 646.208 383.519 644.47C390.56 642.213 397.333 643.986 400.057 649.147C400.97 650.902 400.522 653.285 401.795 657.424C403.085 661.563 405.468 666.706 407.403 670.02C409.32 673.335 408.46 679.606 406.847 681.039C405.486 682.24 400.057 685.071 391.528 685.071C382.981 685.071 377.445 683.512 377.015 678.101C376.728 674.446 377.606 670.235 378.215 666.885C378.663 664.448 379.362 658.302 378.789 651.852Z" fill="#4FA5FF"/>
<path d="M449.923 383.738C448.167 375.729 442.685 361.951 442.685 361.951C442.685 361.951 437.023 365.928 420.091 371.913C403.159 377.897 398.178 375.102 396.386 377.109C394.595 379.098 391.513 425.79 390.922 433.978C390.312 442.166 391.405 508.424 391.011 516.003C390.85 519.067 383.128 627.359 383.128 627.359C383.02 628.094 383.307 628.829 383.916 629.259C385.403 630.334 388.646 632.305 393.735 633.362C399.056 634.473 409.699 634.275 410.165 631.068C410.541 628.399 425.287 558.933 425.466 556.335C426.075 548.147 428.279 544.008 427.258 529.029C426.882 523.636 426.559 517.329 429.211 508.872C431.881 500.433 442.362 460.818 450.228 422.583C451.894 414.484 451.84 392.482 449.923 383.738Z" fill="#4FA5FF"/>
<path d="M433.886 593.155C433.886 593.155 388.143 542.234 382.535 537.647C373.415 530.194 369.133 528.384 368.148 524.998C367.144 521.593 376.121 501.239 381.281 488.661C386.316 476.46 396.636 449.154 399.825 442.757C403.015 436.379 403.212 376.696 403.212 376.696C403.212 376.696 371.928 380.298 365.944 379.294C359.977 378.291 360.766 381.498 361.375 385.476V386.157C361.375 386.157 361.733 398.555 358.92 406.923C354.584 419.752 348.672 437.543 340.233 465.709C331.794 493.875 326.938 516.415 327.637 523.797C328.353 531.197 328.998 534.565 335.019 541.338C336.147 542.61 410.271 615.319 410.271 615.319C410.271 615.319 417.313 611.52 424.963 603.637C431.521 596.864 433.886 593.155 433.886 593.155Z" fill="#4FA5FF"/>
<path d="M355.33 247.19C355.33 247.19 349.436 248.355 346.766 260.575C344.687 270.107 334.905 308.736 333.31 318.215C331.895 326.618 329.046 334.304 332.808 343.03C337.019 352.795 340.262 354.175 344.329 352.902C351.424 350.681 357.642 342.08 359.218 330.56C360.813 319.039 361.082 248.66 355.33 247.19Z" fill="#EDF5FD"/>
<path d="M447.804 252.314C448.969 251.059 453.95 255.055 456.172 261.523C458.393 267.973 460.526 279.691 461.153 293.738C461.762 308.001 460.042 331.508 458.913 338.747C457.444 348.386 452.57 363.347 446.353 360.445C440.118 357.56 432.503 323.66 433.13 311.566C433.596 302.285 436.158 264.748 447.804 252.314Z" fill="#EDF5FD"/>
<path d="M405.72 169.73C404.376 169.461 403.785 168.905 402.799 168.762C395.382 167.812 386.315 174.549 382.839 178.151C374.633 186.644 371.749 199.024 371.516 207.41C371.104 221.475 375.153 231.956 376.031 234.142C378.933 241.47 387.462 256.539 402.477 263.079C414.947 268.526 426.486 264.96 430.034 263.867C434.298 262.541 440.461 260.552 445.765 254.443C447.521 252.436 452.323 246.362 453.236 237.242C454.204 227.477 451.337 219.665 448.22 213.788C444.833 207.41 439.351 204.418 433.384 195.011C429.299 188.561 432.524 177.792 415.001 170.446C409.124 167.974 407.117 170.034 405.72 169.73Z" fill="#08294A"/>
<path d="M358.967 245.505C365.901 243.57 375.111 240.739 381.668 238.285C388.226 235.848 394.605 232.515 404.047 233.913C411.286 234.988 419.599 239.449 429.633 243.839C439.667 248.211 447.407 249.519 449.199 252.475C451.008 255.431 441.423 273.223 439.667 285.192C437.302 301.246 437.857 318.948 439.398 327.961C440.939 336.991 444.236 357.667 447.514 367.522C448.482 370.443 450.793 375.871 451.438 383.737C452.083 391.603 451.259 391.567 449.342 391.567C447.407 391.567 438.251 391.316 426.551 394.523C414.851 397.748 398.511 400.4 388.871 401.314C379.232 402.21 362.461 401.69 361.046 401.045C359.63 400.4 361.673 393 361.422 389.256C361.153 385.529 360.848 383.307 360.848 381.874C360.848 380.458 360.436 348.064 361.726 342.384C363.016 336.722 357.677 307.75 356.19 297.949C355.187 291.374 351.46 271.7 351.89 257.367C352.087 250.665 352.015 247.44 358.967 245.505Z" fill="#EDF5FD"/>
<path d="M367.359 301.857C367.359 301.857 376.157 289.135 379.991 287.595C383.825 286.036 396.314 282.882 398.41 283.814C400.488 284.764 400.686 286.788 398.536 287.863C396.385 288.938 399.145 302.591 396.995 304.885C394.845 307.178 385.241 311.819 381.407 312.697C377.572 313.575 375.028 314.847 370.244 313.969C365.478 313.091 365.281 306.444 367.359 301.857Z" fill="#FD9783"/>
<path d="M406.491 672.153C406.312 672.44 406.097 672.672 405.864 672.887C405.649 673.102 405.398 673.3 405.147 673.497C404.646 673.873 404.108 674.177 403.535 674.446C402.424 674.984 401.223 675.36 400.005 675.629C398.805 675.898 397.532 676.095 396.278 676.274C395.669 676.363 395.042 676.435 394.415 676.507C393.77 676.56 393.143 676.614 392.516 676.668C390.007 676.829 387.481 676.793 384.99 676.417C383.754 676.238 382.518 675.969 381.317 675.575C380.726 675.378 380.135 675.163 379.561 674.894C379.275 674.751 378.988 674.608 378.719 674.446C378.666 674.41 378.594 674.357 378.522 674.321C378.504 674.285 378.468 674.267 378.433 674.249L378.415 674.231C378.415 674.231 378.433 674.231 378.397 674.267C378.379 674.303 378.361 674.285 378.361 674.285C378.379 674.285 378.379 674.303 378.397 674.303C378.522 674.375 378.666 674.464 378.791 674.554C378.683 674.446 378.576 674.321 378.451 674.213C378.433 674.213 378.433 674.195 378.415 674.195H378.397C378.397 674.177 378.379 674.177 378.379 674.177C378.361 674.177 378.361 674.177 378.325 674.195C378.289 674.249 378.307 674.249 378.307 674.267L378.325 674.285V674.303L378.343 674.321C378.379 674.357 378.415 674.392 378.433 674.428C378.486 674.482 378.558 674.536 378.612 674.59C378.863 674.805 379.131 675.002 379.4 675.181C379.938 675.557 380.511 675.862 381.102 676.148C382.285 676.686 383.539 677.098 384.811 677.385C387.373 677.958 390.007 678.101 392.605 677.958C392.928 677.94 393.25 677.904 393.573 677.886C393.895 677.851 394.218 677.815 394.54 677.779C395.185 677.707 395.83 677.618 396.475 677.528C397.12 677.421 397.747 677.295 398.392 677.17C399.02 677.044 399.665 676.883 400.292 676.704C401.546 676.31 402.782 675.79 403.893 675.055C404.449 674.697 404.968 674.285 405.416 673.801C405.864 673.317 406.276 672.78 406.491 672.153Z" fill="white"/>
<path d="M394.948 649.416C395.181 649.505 395.36 649.183 395.181 649.021C395.02 648.86 394.822 648.717 394.643 648.574C394.213 648.269 393.729 648 393.228 647.785C392.206 647.391 391.096 647.212 390.003 647.248C389.716 647.283 389.447 647.283 389.178 647.337C388.91 647.373 388.641 647.427 388.372 647.481C387.853 647.624 387.333 647.785 386.849 648.018C386.15 648.341 385.488 648.735 384.914 649.236C384.717 649.398 384.878 649.702 385.129 649.649C385.846 649.469 386.527 649.29 387.225 649.147C387.691 649.039 388.175 648.968 388.641 648.896C388.892 648.86 389.125 648.824 389.358 648.806C389.591 648.789 389.824 648.771 390.056 648.753C391.006 648.717 391.938 648.771 392.887 648.932C393.568 649.039 394.249 649.201 394.948 649.416Z" fill="white"/>
<path d="M396.005 653.769C396.256 653.859 396.435 653.536 396.238 653.357C396.041 653.196 395.843 653.035 395.646 652.891C395.163 652.551 394.625 652.282 394.07 652.067C392.941 651.619 391.723 651.422 390.504 651.494C389.304 651.548 388.103 651.852 387.028 652.354C386.276 652.73 385.559 653.178 384.932 653.716C384.717 653.895 384.896 654.217 385.147 654.128C385.935 653.895 386.688 653.662 387.44 653.483C388.479 653.214 389.537 653.053 390.576 652.999C391.633 652.945 392.69 652.999 393.729 653.196C394.482 653.321 395.234 653.519 396.005 653.769Z" fill="white"/>
<path d="M397.227 658.428C397.478 658.5 397.657 658.178 397.478 658.016C397.245 657.801 396.994 657.604 396.725 657.425C396.205 657.049 395.632 656.744 395.023 656.511C393.822 656.028 392.497 655.795 391.171 655.866C391.009 655.866 390.848 655.884 390.687 655.902C390.526 655.92 390.364 655.92 390.203 655.956L389.719 656.028C389.558 656.063 389.397 656.099 389.236 656.135L388.77 656.278C388.609 656.314 388.447 656.368 388.304 656.422C387.999 656.547 387.695 656.655 387.408 656.798C386.53 657.21 385.724 657.73 385.043 658.375C384.846 658.554 385.025 658.876 385.276 658.787C386.154 658.5 386.996 658.249 387.856 658.034C387.999 657.998 388.125 657.963 388.268 657.945L388.698 657.837C388.841 657.819 388.985 657.801 389.128 657.765L389.325 657.73H389.343L389.558 657.694C389.684 657.676 389.827 657.658 389.97 657.64L390.4 657.586C390.544 657.568 390.687 657.568 390.83 657.55C390.956 657.55 391.099 657.533 391.242 657.533C392.371 657.479 393.518 657.568 394.647 657.765C395.507 657.927 396.367 658.142 397.227 658.428Z" fill="white"/>
<path d="M399.271 663.714C399.522 663.803 399.719 663.499 399.522 663.319C399.253 663.069 398.984 662.853 398.679 662.656C398.088 662.244 397.425 661.904 396.744 661.635C395.365 661.098 393.86 660.865 392.373 660.954C391.62 661.008 390.885 661.116 390.169 661.295C389.452 661.492 388.753 661.707 388.108 662.029C387.123 662.495 386.209 663.068 385.385 663.767C385.188 663.946 385.367 664.269 385.618 664.179C386.621 663.839 387.589 663.516 388.556 663.266C389.201 663.086 389.864 662.961 390.509 662.836C390.67 662.818 390.832 662.8 390.993 662.764C391.154 662.746 391.315 662.728 391.477 662.71C391.799 662.656 392.14 662.656 392.462 662.621C393.77 662.549 395.06 662.638 396.368 662.889C397.336 663.086 398.303 663.355 399.271 663.714Z" fill="white"/>
<path d="M401.704 200.408C401.668 200.39 401.632 200.337 401.579 200.319C401.525 200.301 401.471 200.283 401.435 200.247C401.328 200.229 401.202 200.193 401.095 200.193C400.862 200.158 400.647 200.175 400.414 200.193C399.948 200.265 399.5 200.373 399.052 200.534C398.837 200.588 398.586 200.677 398.353 200.749C398.103 200.82 397.87 200.874 397.619 200.928C397.117 201.035 396.616 201.089 396.096 201.107C395.594 201.143 395.075 201.143 394.537 201.071C394.017 201.018 393.498 200.856 393.014 200.588C392.548 200.319 392.118 199.943 391.778 199.53C391.455 199.1 391.222 198.617 391.133 198.097L391.24 198.025C391.652 198.348 392.029 198.617 392.405 198.85C392.799 199.065 393.175 199.262 393.57 199.405C393.982 199.548 394.376 199.674 394.806 199.817C395.218 199.943 395.666 200.05 396.114 200.068C396.58 200.122 397.028 200.104 397.493 200.068C397.726 200.068 397.959 200.05 398.192 200.014C398.425 199.978 398.64 199.943 398.891 199.907C399.393 199.817 399.894 199.763 400.396 199.799C400.647 199.799 400.898 199.853 401.149 199.925C401.399 199.996 401.65 200.104 401.812 200.337L401.704 200.408Z" fill="#1D1D1B"/>
<path d="M411.629 201.716C411.862 201.698 412.113 201.68 412.364 201.68C412.596 201.698 412.847 201.734 413.08 201.788C413.564 201.859 414.03 202.003 414.478 202.146L415.141 202.379C415.356 202.451 415.589 202.522 415.804 202.576C416.234 202.684 416.682 202.773 417.112 202.827C417.56 202.881 417.99 202.863 418.42 202.827C418.635 202.809 418.832 202.773 419.047 202.737C419.244 202.719 419.459 202.684 419.656 202.648C420.068 202.594 420.48 202.504 420.91 202.379C421.322 202.236 421.752 202.074 422.2 201.877L422.308 201.967C421.878 202.899 420.982 203.597 419.978 203.92C419.477 204.099 418.957 204.153 418.437 204.117C417.918 204.081 417.416 203.974 416.932 203.866C416.449 203.741 415.965 203.579 415.517 203.4C415.069 203.203 414.621 202.97 414.227 202.755C413.815 202.54 413.403 202.343 412.973 202.182C412.543 202.003 412.095 201.877 411.629 201.841V201.716Z" fill="#1D1D1B"/>
<path d="M412.096 197.291C412.436 196.718 412.866 196.252 413.35 195.858C413.816 195.464 414.353 195.123 414.927 194.872C415.213 194.729 415.518 194.639 415.822 194.55C415.966 194.514 416.127 194.496 416.288 194.46C416.36 194.442 416.45 194.442 416.521 194.424L416.754 194.407C417.399 194.353 418.044 194.407 418.671 194.442C419.926 194.55 421.144 194.908 422.219 195.464C422.774 195.75 423.276 196.073 423.76 196.449C424.226 196.825 424.656 197.22 425.05 197.685L424.889 197.829C424.423 197.506 423.921 197.237 423.419 197.005L422.631 196.682C422.38 196.592 422.111 196.503 421.843 196.449C421.717 196.413 421.574 196.377 421.449 196.342C421.305 196.324 421.18 196.288 421.036 196.252C420.768 196.216 420.517 196.162 420.248 196.145C420.105 196.145 419.979 196.127 419.836 196.109H419.442L419.245 196.091L419.048 196.109H418.653C418.116 196.162 417.614 196.27 417.113 196.449C416.611 196.592 416.127 196.736 415.607 196.843C415.088 196.969 414.55 197.076 413.995 197.184C413.44 197.291 412.866 197.399 412.221 197.47L412.096 197.291Z" fill="#1D1D1B"/>
<path d="M448.199 254.101C449.829 252.47 451.281 250.607 452.517 248.6C453.753 246.612 454.739 244.444 455.509 242.204C456.262 239.946 456.746 237.581 456.925 235.198C457.14 232.833 457.122 230.432 456.871 228.031C456.602 225.648 456.1 223.301 455.384 221.008C454.685 218.714 453.735 216.493 452.66 214.36C452.392 213.841 452.123 213.303 451.836 212.784L451.388 211.995C451.245 211.745 451.066 211.476 450.904 211.225C450.259 210.15 449.507 209.182 448.736 208.233C447.16 206.387 445.422 204.757 443.773 203.162C442.107 201.567 440.495 199.991 438.989 198.307C438.595 197.894 438.237 197.464 437.879 197.034L437.323 196.407L436.804 195.744C436.445 195.314 436.087 194.866 435.764 194.418L435.263 193.738L434.994 193.397C434.922 193.29 434.851 193.182 434.779 193.075C433.596 191.337 432.701 189.258 431.697 187.162C431.213 186.105 430.694 185.03 430.138 183.973C429.87 183.453 429.547 182.934 429.242 182.414C428.956 181.876 428.597 181.393 428.275 180.891C426.895 178.884 425.247 177.075 423.401 175.516C422.434 174.799 421.502 174.029 420.445 173.455L419.693 172.989C419.442 172.828 419.173 172.685 418.904 172.559L417.31 171.771C416.79 171.484 416.235 171.287 415.679 171.072L414.031 170.427C412.92 170.051 411.791 169.693 410.626 169.478C409.462 169.245 408.261 169.137 407.079 169.281C405.878 169.406 404.803 169.836 403.639 169.854C404.212 169.943 404.803 169.908 405.377 169.872C405.968 169.818 406.541 169.764 407.097 169.782C408.225 169.782 409.336 170.015 410.411 170.356C411.486 170.696 412.526 171.126 413.565 171.61L415.088 172.38C415.59 172.631 416.109 172.882 416.575 173.187L418.026 174.064C418.259 174.208 418.492 174.369 418.725 174.53L419.406 175.032C420.338 175.659 421.144 176.43 421.986 177.146C423.581 178.687 424.96 180.407 426.107 182.288C427.272 184.17 428.185 186.212 429.063 188.327C429.959 190.441 430.837 192.663 432.217 194.813C432.288 194.938 432.378 195.081 432.468 195.207L432.718 195.565L433.238 196.282C433.578 196.766 433.955 197.249 434.313 197.715L434.851 198.414L435.424 199.113C435.8 199.561 436.176 200.027 436.589 200.457C438.147 202.248 439.832 203.915 441.516 205.527C443.2 207.122 444.848 208.681 446.282 210.329C446.981 211.171 447.661 212.013 448.235 212.927C448.378 213.16 448.539 213.357 448.683 213.608L449.095 214.343C449.382 214.826 449.65 215.31 449.919 215.794C450.994 217.765 451.908 219.807 452.66 221.904C453.395 224.018 453.968 226.186 454.327 228.39C454.685 230.593 454.846 232.833 454.793 235.091C454.757 237.33 454.506 239.552 453.968 241.756C453.467 243.96 452.696 246.11 451.711 248.17C451.245 249.21 450.689 250.231 450.098 251.216C449.525 252.202 448.88 253.169 448.199 254.101Z" fill="#08294A"/>
<path d="M387.689 206.679C387.689 206.679 387.457 218.164 387.851 225.6C388.263 233.036 388.693 238.16 389.445 240.435C390.682 244.126 393.477 247.119 400.285 247.799C403.851 248.14 409.781 247.316 412.523 243.929C414.798 241.116 413.634 234.075 414.315 225.869C414.977 217.68 415.282 208.991 414.96 205.586C414.637 202.182 395.985 201.86 387.689 206.679Z" fill="#DF8568"/>
<path d="M399.772 177.112C394.244 177.598 388.024 182.648 386.61 188.07C385.42 192.634 384.536 197.798 384.247 200.598C383.443 208.27 384.633 214.599 387.349 220.96C390.033 227.208 395.272 230.866 397.41 232.031C399.001 232.905 402.071 233.52 404.337 232.371C407.712 230.655 410.75 229.296 413.996 225.395C417.194 221.559 419.814 217.415 420.762 210.212C421.18 207.121 421.164 203.689 421.63 201.003C423.125 192.489 419.782 187.342 417.05 182.988C415.314 180.204 409.159 176.286 399.772 177.112Z" fill="#FD9783"/>
<path d="M400.95 174.148C400.95 174.148 401.2 174.256 401.451 174.417C403.064 175.438 404.336 178.753 404.372 182.748C404.408 184.719 404.21 186.153 403.727 187.944C401.451 196.473 389.877 195.631 385.792 203.64C382.333 210.395 381.079 206.399 380.56 203.479C378.284 190.883 378.123 181.19 396.201 174.166C397.348 173.718 399.749 173.664 400.95 174.148Z" fill="#08294A"/>
<path d="M403.696 174.864C405.524 174.201 414.088 171.155 424.677 183.984C430.59 191.151 429.156 200.772 428.673 204.41C428.296 207.258 426.29 208.925 425.949 208.925C425.573 208.925 426.505 204.678 423.799 199.894C418.514 190.542 405.631 195.325 401.743 182.282C401.241 180.562 401.044 178.627 401.205 176.441C401.277 175.401 402.693 175.204 403.696 174.864Z" fill="#08294A"/>
<path d="M380.021 197.56C380.147 197.13 380.541 194.55 383.246 194.532C385.934 194.532 390.36 199.925 389.661 203.616C388.944 207.289 387.959 211.446 385.056 210.854C382.153 210.263 378.534 202.559 380.021 197.56Z" fill="#FD9783"/>
<path d="M440.42 597.76C440.115 597.079 440.706 596.918 441.423 597.061C443.914 597.545 448.16 598.065 450.507 598.513C453.983 599.176 459.072 599.659 459.932 603.081C461.025 607.435 459.824 617.075 460.039 622.289C460.272 627.521 461.813 637.465 462.01 643.61C462.189 649.774 458.874 658.84 454.503 666.867C450.149 674.894 448.769 675.27 446.709 675.485C444.666 675.7 442.265 674.554 440.241 672.493C438.216 670.433 438.968 657.926 439.148 654.074C439.452 647.14 430.619 629.151 428.111 622.432C427.716 621.411 428.236 620.264 429.257 619.888C431.443 619.046 437.374 618.795 440.706 614.19C443.43 610.428 442.409 602.383 440.42 597.76Z" fill="#4FA5FF"/>
<path d="M429.17 630.226C429.116 629.617 429.295 629.062 429.546 628.542C429.653 628.273 429.797 628.058 429.958 627.807C430.119 627.592 430.281 627.377 430.46 627.162C430.657 626.965 430.854 626.786 431.069 626.607C431.284 626.464 431.517 626.32 431.75 626.195C432.251 625.962 432.735 625.729 433.219 625.532C433.685 625.299 434.187 625.12 434.67 624.941C435.154 624.779 435.656 624.654 436.157 624.511C436.659 624.385 437.161 624.278 437.663 624.188C438.164 624.099 438.666 624.045 439.168 623.973L439.221 624.188C438.773 624.403 438.325 624.618 437.86 624.833L436.552 625.514C436.122 625.765 435.692 625.98 435.28 626.249C434.867 626.499 434.455 626.75 434.061 627.037C433.667 627.306 433.327 627.646 432.968 627.951C432.807 628.112 432.628 628.273 432.449 628.399C432.269 628.542 432.072 628.685 431.875 628.793C431.105 629.312 430.334 629.76 429.367 630.316L429.17 630.226Z" fill="white"/>
<path d="M431.195 634.867C431.141 634.258 431.321 633.684 431.553 633.183C431.661 632.914 431.822 632.681 431.966 632.448C432.127 632.233 432.306 632 432.485 631.803C432.682 631.606 432.879 631.409 433.094 631.248C433.309 631.086 433.542 630.961 433.775 630.818C434.259 630.585 434.743 630.37 435.227 630.155C435.71 629.94 436.194 629.76 436.696 629.581C437.18 629.402 437.681 629.277 438.165 629.133C438.685 629.026 439.168 628.918 439.67 628.811C440.19 628.739 440.691 628.668 441.193 628.614L441.247 628.811C440.799 629.044 440.333 629.259 439.885 629.456L438.559 630.155C438.129 630.406 437.699 630.621 437.287 630.889C436.875 631.14 436.463 631.391 436.087 631.678C435.674 631.928 435.334 632.269 434.994 632.591C434.814 632.753 434.653 632.896 434.456 633.039C434.277 633.183 434.098 633.308 433.901 633.434C433.13 633.935 432.342 634.401 431.392 634.956L431.195 634.867Z" fill="white"/>
<path d="M433.198 639.507C433.162 638.88 433.341 638.325 433.574 637.805C433.682 637.554 433.843 637.321 433.986 637.089C434.148 636.856 434.309 636.641 434.506 636.426C434.685 636.229 434.882 636.049 435.097 635.888C435.312 635.727 435.563 635.583 435.796 635.458C436.28 635.225 436.763 634.992 437.247 634.795C437.731 634.562 438.215 634.383 438.699 634.222C439.182 634.043 439.702 633.917 440.186 633.774C440.687 633.648 441.189 633.541 441.691 633.451C442.192 633.38 442.694 633.308 443.196 633.236L443.267 633.451C442.802 633.666 442.354 633.881 441.906 634.096L440.58 634.777C440.15 635.028 439.72 635.243 439.308 635.512C438.896 635.763 438.484 636.014 438.089 636.3C437.695 636.569 437.355 636.909 436.996 637.214C436.835 637.375 436.656 637.536 436.477 637.662C436.298 637.805 436.118 637.949 435.921 638.074C435.133 638.576 434.363 639.024 433.395 639.579L433.198 639.507Z" fill="white"/>
<path d="M435.228 644.13C435.175 643.521 435.354 642.948 435.587 642.446C435.712 642.177 435.855 641.944 435.999 641.711C436.16 641.496 436.339 641.281 436.518 641.066C436.715 640.869 436.913 640.672 437.128 640.511C437.343 640.35 437.576 640.224 437.808 640.081C438.292 639.848 438.794 639.633 439.278 639.436C439.744 639.203 440.245 639.024 440.729 638.844C441.213 638.665 441.714 638.558 442.216 638.397C442.718 638.289 443.219 638.182 443.703 638.092C444.223 638.002 444.725 637.931 445.226 637.877L445.28 638.074C444.832 638.307 444.366 638.522 443.918 638.719L442.592 639.418C442.18 639.669 441.732 639.884 441.338 640.152C440.908 640.403 440.496 640.654 440.12 640.941C439.708 641.192 439.367 641.532 439.027 641.855C438.848 642.016 438.686 642.159 438.489 642.303C438.31 642.446 438.131 642.571 437.934 642.697C437.163 643.198 436.375 643.664 435.425 644.22L435.228 644.13Z" fill="white"/>
<path d="M453.341 603.35C453.215 606.271 453.197 609.173 453.269 612.076C453.323 614.978 453.484 617.863 453.753 620.73C454.039 623.597 454.434 626.463 454.792 629.366C455.132 632.269 455.401 635.189 455.509 638.145C455.598 641.102 455.527 644.076 455.132 647.015C454.738 649.971 454.021 652.909 452.964 655.669C451.943 658.428 450.725 661.133 449.22 663.678C448.467 664.95 447.661 666.168 446.765 667.351C445.869 668.515 444.919 669.626 443.809 670.594C444.292 670.038 444.704 669.429 445.099 668.838C445.511 668.229 445.905 667.619 446.263 666.992C446.98 665.738 447.661 664.484 448.252 663.158C448.575 662.513 448.843 661.85 449.13 661.187C449.399 660.524 449.668 659.861 449.918 659.18C450.42 657.837 450.904 656.475 451.298 655.113C453.054 649.666 453.502 643.951 453.287 638.217C453.143 632.484 452.266 626.732 452.015 620.855C451.943 619.368 451.943 617.917 451.979 616.448C452.015 614.978 452.068 613.509 452.176 612.058C452.409 609.137 452.731 606.217 453.341 603.35Z" fill="white"/>
<path d="M428.611 309.504C428.611 309.504 423.666 303.233 421.749 298.27C419.831 293.325 419.437 291.085 417.216 289.473C414.994 287.86 411.661 283.918 409.027 283.202C406.411 282.503 399.549 280.568 397.829 281.087C396.109 281.589 396.216 282.879 396.718 283.578C397.22 284.295 399.137 285.531 401.771 286.23C404.387 286.946 407.021 287.968 410.246 290.584C413.471 293.217 408.526 290.387 406.716 289.67C404.888 288.971 390.77 287.359 388.852 287.95C386.935 288.559 386.505 289.365 386.523 290.225C386.559 291.73 388.333 292.107 387.437 292.304C386.523 292.501 385.251 293.074 385.09 294.095C384.929 295.117 384.893 295.959 385.789 296.926C386.684 297.894 387.455 297.948 387.813 298.181C388.172 298.414 387.186 299.112 386.971 299.668C386.756 300.241 386.38 301.388 387.652 302.588C388.942 303.771 397.256 306.584 399.943 307.354C402.649 308.125 405.533 309.988 407.451 311.493C409.386 312.998 413.077 316.725 415.961 317.854C418.846 318.983 420.369 319.395 422.985 319.502C425.619 319.592 430.904 313.07 428.611 309.504Z" fill="#FD9783"/>
<path d="M412.078 298.702C411.093 298.469 410.143 298.165 409.212 297.86C408.28 297.556 407.348 297.215 406.435 296.893C405.521 296.552 404.607 296.194 403.729 295.871C403.514 295.782 403.281 295.71 403.066 295.639C402.851 295.567 402.654 295.513 402.403 295.459C401.937 295.334 401.454 295.244 400.97 295.137L395.165 293.99C393.23 293.596 391.294 293.202 389.359 292.79L389.377 292.628C391.348 292.808 393.319 293.023 395.272 293.22L398.228 293.56L401.167 293.936L402.636 294.116C402.887 294.133 403.156 294.187 403.424 294.241C403.675 294.295 403.926 294.348 404.195 294.42C405.18 294.671 406.112 295.047 407.026 295.459C407.922 295.889 408.8 296.355 409.66 296.875C410.52 297.394 411.362 297.932 412.15 298.559L412.078 298.702Z" fill="#D66730"/>
<path d="M409.712 304.991C408.816 304.83 407.956 304.597 407.114 304.364C406.272 304.113 405.429 303.845 404.605 303.576C403.781 303.289 402.975 302.984 402.186 302.662C401.792 302.501 401.38 302.339 401.004 302.232L400.717 302.142L400.395 302.071L399.75 301.909C398.89 301.694 398.03 301.479 397.187 301.264L394.625 300.584C392.941 300.118 391.239 299.652 389.555 299.15L389.591 299.007C391.328 299.276 393.066 299.562 394.787 299.831L399.983 300.709L400.628 300.799L400.95 300.852L401.308 300.906C401.792 300.996 402.222 301.103 402.652 301.211C403.53 301.462 404.372 301.766 405.179 302.142C405.985 302.519 406.773 302.913 407.544 303.361C408.314 303.809 409.067 304.275 409.765 304.848L409.712 304.991Z" fill="#D66730"/>
<path d="M359.181 330.559C359.27 327.926 359.252 325.31 359.235 322.694L359.181 314.846C359.145 309.596 359.109 304.364 359.109 299.132C359.091 293.901 359.091 288.669 359.109 283.437C359.127 278.187 359.163 272.955 359.27 267.706C360.041 272.902 360.471 278.151 360.775 283.383C361.062 288.633 361.223 293.883 361.223 299.132C361.241 304.382 361.116 309.632 360.847 314.882C360.775 316.19 360.704 317.498 360.596 318.806L360.453 320.777L360.274 322.747C360.005 325.345 359.754 327.979 359.181 330.559Z" fill="#D5C7F4"/>
<path d="M436.369 336.311C435.545 333.713 434.864 331.061 434.273 328.391C433.681 325.722 433.18 323.034 432.803 320.329C432.606 318.967 432.463 317.605 432.32 316.226C432.194 314.864 432.105 313.484 432.087 312.087C432.051 310.707 432.087 309.345 432.14 307.966L432.23 305.905L432.355 303.863L432.517 301.802L432.714 299.76C432.785 299.079 432.875 298.398 432.947 297.735C433.018 297.054 433.108 296.373 433.198 295.692C433.556 292.969 433.986 290.281 434.506 287.594C435.545 282.219 436.906 276.915 438.716 271.755C437.749 277.13 436.871 282.487 436.154 287.863C436.064 288.525 435.975 289.206 435.903 289.869L435.652 291.894C435.509 293.238 435.33 294.582 435.204 295.925L435.097 296.929L434.989 297.95C434.936 298.613 434.864 299.294 434.81 299.975L434.631 301.981L434.47 304.006L434.344 306.031L434.237 308.055L434.147 310.08L434.093 311.585V312.087C434.076 314.738 434.255 317.444 434.47 320.132C434.9 325.525 435.598 330.918 436.369 336.311Z" fill="#D5C7F4"/>
<path d="M427.872 308.574C427.872 308.574 432.692 315.042 436.669 320.166C440.647 325.309 445.091 328.408 448.334 331.759C454.497 338.119 454.318 342.778 454.497 344.785C454.694 346.773 451.648 363.114 444.069 360.265C436.472 357.416 432.871 350.572 430.309 343.925C427.765 337.277 423.59 325.577 421.314 320.937C419.039 316.278 411.926 315.132 417.032 310.957C422.156 306.782 425.131 307.911 427.872 308.574Z" fill="#FD9783"/>
<path d="M447.27 361.987C446.625 361.987 445.944 361.862 445.281 361.611C437.2 358.583 433.474 351.291 430.876 344.572C430.607 343.873 430.32 343.12 430.016 342.332C429.836 341.83 430.302 341.311 430.822 341.49C431.825 341.795 432.811 341.956 433.76 341.956C437.075 341.956 439.96 340.057 442.325 336.276C444.045 333.553 444.26 329.88 444.152 327.299C444.117 326.708 444.797 326.386 445.227 326.78C445.64 327.156 446.052 327.514 446.446 327.873C447.843 329.109 449.151 330.274 450.316 331.492C456.247 337.602 456.587 342.332 456.748 344.608C456.766 344.805 456.766 344.984 456.784 345.145C456.945 346.829 455.333 355.734 451.642 359.801C450.316 361.253 448.847 361.987 447.27 361.987Z" fill="#EDF5FD"/>
<path d="M445.242 361.61C443.092 361.288 441.032 360.374 439.222 359.102C437.412 357.83 435.871 356.181 434.617 354.371C433.345 352.58 432.36 350.609 431.607 348.584C431.231 347.563 430.908 346.542 430.64 345.502L430.442 344.714C430.389 344.445 430.335 344.194 430.281 343.926C430.156 343.406 430.066 342.869 429.977 342.331C430.586 343.227 431.087 344.194 431.607 345.108L433.13 347.885C434.133 349.713 435.19 351.487 436.355 353.171C437.52 354.837 438.81 356.396 440.279 357.812C440.637 358.17 441.049 358.475 441.426 358.833C441.605 359.012 441.82 359.155 442.017 359.317L442.626 359.8C443.038 360.105 443.468 360.41 443.898 360.732C444.346 361.001 444.794 361.305 445.242 361.61Z" fill="#D5C7F4"/>
<path d="M445.191 326.779C446.034 327.209 446.804 327.711 447.592 328.212C448.363 328.732 449.097 329.269 449.832 329.861C450.19 330.147 450.549 330.452 450.889 330.774C451.247 331.079 451.57 331.419 451.91 331.76C452.555 332.423 453.183 333.139 453.756 333.91C454.043 334.268 454.293 334.68 454.562 335.075C454.705 335.272 454.813 335.487 454.938 335.684C455.064 335.881 455.189 336.096 455.297 336.293C455.727 337.153 456.139 338.031 456.426 338.945C456.712 339.858 456.927 340.808 456.999 341.758C457.071 342.725 456.999 343.693 456.712 344.607C456.533 343.675 456.3 342.815 455.978 341.991C455.655 341.148 455.279 340.36 454.885 339.59C454.49 338.801 454.025 338.067 453.559 337.332C453.308 336.974 453.075 336.597 452.824 336.239L452.448 335.702L452.251 335.433L452.054 335.182C451.516 334.483 450.979 333.784 450.405 333.104C450.119 332.763 449.832 332.423 449.563 332.082L448.685 331.061C447.503 329.699 446.249 328.338 445.191 326.779Z" fill="#D5C7F4"/>
<path d="M374.362 308.144C374.022 308.896 371.047 318.357 369.327 322.263C367.607 326.151 363.379 336.364 358.917 341.291C354.456 346.236 347.63 354.137 342.308 353.457C337.883 352.883 331.665 340.7 332.472 335.79C333.618 328.641 339.011 325.846 345.157 321.206C349.099 318.213 353.327 314.361 357.43 310.437C363.737 304.399 364.884 303.503 367.966 300.457C371.119 297.34 378.143 300.117 374.362 308.144Z" fill="#FD9783"/>
<path d="M342.666 354.533C342.415 354.533 342.146 354.515 341.895 354.497C339.871 354.228 337.882 352.078 336.592 350.34C333.492 346.184 330.59 339.232 331.199 335.523C332.256 328.983 336.664 325.794 341.77 322.085C342.666 321.44 343.58 320.777 344.511 320.06C345.963 318.967 347.557 317.677 349.241 316.244C349.743 315.814 350.496 316.298 350.299 316.925C349.689 318.949 349.456 320.831 349.582 322.515C350.012 327.657 352.126 330.918 356.283 332.746C357.788 333.409 359.365 333.749 360.959 333.749C361.945 333.749 362.912 333.624 363.826 333.373C364.399 333.211 364.865 333.821 364.579 334.322C362.823 337.53 361.139 340.038 359.58 341.74C359.347 342.009 359.114 342.278 358.863 342.546C354.294 347.599 348.041 354.533 342.666 354.533Z" fill="#EDF5FD"/>
<path d="M336.072 326.564C336.789 325.274 337.756 324.199 338.778 323.231C339.817 322.246 340.91 321.386 342.021 320.562C342.576 320.15 343.15 319.755 343.723 319.379C344.296 318.985 344.87 318.609 345.461 318.25C346.643 317.516 347.862 316.799 349.206 316.244C348.435 317.48 347.503 318.555 346.5 319.558C346.249 319.809 345.998 320.06 345.73 320.293C345.479 320.526 345.21 320.759 344.941 320.992C344.404 321.44 343.848 321.852 343.275 322.264C342.146 323.106 340.982 323.841 339.781 324.557C338.581 325.256 337.398 325.937 336.072 326.564Z" fill="#D5C7F4"/>
<path d="M142.304 670.224C153.147 666.281 157.5 642.295 158.322 630.795C162.839 621.349 196.518 621.202 182.964 637.089C167.959 654.677 168.986 679.351 180.517 680.232L182.964 680.081C182.103 680.243 181.286 680.291 180.517 680.232L140.856 682.677C140.034 680.623 131.461 674.167 142.304 670.224Z" fill="#FD9783"/>
<path d="M249.338 669.5C258.766 662.85 258.449 637.089 251.748 626C253.628 615.699 287.766 609.577 278.857 628.464C269.312 648.697 283.946 671.023 296.155 670.43L299.802 669.5C298.631 670.068 297.406 670.369 296.155 670.43L251.209 681.896C249.878 680.13 239.91 676.15 249.338 669.5Z" fill="#FD9783"/>
<path d="M287.336 328.026C287.336 328.026 308.007 326.164 313.322 286.157L315.124 256.982L306.114 264.139L283.772 305.907C283.772 305.907 278.215 319.715 287.336 328.026Z" fill="#FD9783"/>
<path d="M280.757 256.018C280.757 256.018 300.184 281.022 290.577 317.517C285.88 330.596 274.228 314.591 272.851 312.293C267.638 303.638 267.921 303.79 263.315 293.413C253.293 270.828 254.234 262.953 254.234 262.953C254.234 262.953 263.183 245.116 280.757 256.018Z" fill="#FD9783"/>
<path d="M245.428 248.357C248.576 265.86 256.857 273.908 266.697 275.365C276.526 276.833 284.301 263.349 283.147 253.428C281.558 239.509 277.387 228.799 265.806 225.934C251.38 222.381 243.656 238.527 245.428 248.357Z" fill="#F69575"/>
<path d="M265.445 219.962C265.445 219.962 280.599 222.2 289.315 257.428C289.315 257.428 293.729 275.336 293.253 282.088C293.253 282.088 279.81 297.293 258.804 298.387C258.804 298.387 242.111 247.7 246.889 231.037C246.889 231.037 253.692 218.748 265.445 219.962Z" fill="#4FA5FF"/>
<path d="M265.929 174.548C259.602 185.147 253.7 165.863 253.487 161.054C253.275 156.438 253.75 151.69 257.82 149.018C259.814 147.712 264.521 146.902 266.536 148.501C268.196 149.827 268.682 152.601 269.046 154.565C270.211 160.771 269.198 169.061 265.929 174.548Z" fill="#08294A"/>
<path d="M275.563 526.076C275.563 526.076 274.116 637.846 273.67 642.209C273.67 642.209 263.173 645.226 262.97 642.776C262.494 636.884 244.455 587.625 243.726 578.362C241.883 554.927 242.42 544.662 247.482 528.475C247.482 528.475 274.409 502.347 275.563 526.076Z" fill="#E68368"/>
<path d="M243.82 524.407C235.337 480.786 230.994 412.829 230.994 412.829C230.994 412.829 230.923 392.34 252.587 388.756C273.076 385.375 280.183 412.758 279.697 415.937C279.697 415.937 284.677 502.551 275.85 529.236C275.85 529.236 253.771 543.125 243.82 524.407Z" fill="#E68368"/>
<path d="M222.166 535.41C222.166 535.41 194.095 548.833 191.199 523.282C186.593 482.587 186.442 435.251 186.442 435.251C186.442 435.251 182.382 416.118 203.985 412.19C236.582 406.278 238.728 435.798 238.455 434.056C238.455 434.056 228.169 523.95 222.166 535.41Z" fill="#F69575"/>
<path d="M222.164 535.408C222.164 535.408 179.383 630.141 177.187 633.937C177.187 633.937 165.444 632.986 166.264 630.667C168.248 625.11 172.246 573.066 175.385 564.33C183.331 542.201 188.039 533.06 199.306 520.385C199.306 520.385 228.946 517.591 222.164 535.408Z" fill="#F69575"/>
<path d="M184.114 427.517L282.107 427.426L282.866 408.354L280.285 364.439L188.67 363.508C188.67 363.508 183.649 391.377 184.114 427.517Z" fill="#005BBA"/>
<path d="M194.186 428.185C210.353 428.185 224.566 417.526 229.02 401.885C229.132 401.491 228.899 401.076 228.494 400.954C228.089 400.843 227.674 401.076 227.562 401.48C223.301 416.453 209.675 426.667 194.186 426.667C193.781 426.667 193.376 426.667 192.971 426.647C192.536 426.616 192.202 426.961 192.182 427.376C192.172 427.791 192.496 428.145 192.911 428.165C193.336 428.175 193.761 428.185 194.186 428.185Z" fill="#1D1E32"/>
<path d="M240.526 529.791L219.936 411.502L282.861 408.354L280.239 523.606C280.239 523.606 270.987 531.745 240.526 529.791Z" fill="#005BBA"/>
<path d="M186.44 520.479L183.646 408.557C189.164 367.639 242.756 372.62 242.756 372.62L240.529 423.529L230.679 528.679C230.679 528.679 208.873 534.246 186.44 520.479Z" fill="#005BBA"/>
<path d="M250.458 376.75C255.935 376.75 263.041 376.538 275.057 375.829C275.472 375.809 275.796 375.444 275.766 375.029C275.746 374.614 275.371 374.301 274.966 374.321C254.851 375.495 248.555 375.293 240.598 375.029C238.351 374.959 235.972 374.878 233.117 374.817C231.598 374.797 229.624 374.827 227.245 374.857C218.641 374.979 204.246 375.191 188.777 372.812C188.352 372.752 187.978 373.035 187.917 373.45C187.846 373.855 188.14 374.25 188.544 374.311C204.134 376.7 218.62 376.497 227.266 376.366C229.624 376.335 231.588 376.305 233.086 376.335C235.931 376.386 238.31 376.467 240.547 376.538C243.777 376.649 246.743 376.75 250.458 376.75Z" fill="#1D1E32"/>
<path d="M222.114 195.528C221.709 194.556 220.525 191.955 220.191 191.347C211.92 176.193 212.285 153.153 224.817 148.243C239.83 142.361 239.81 167.163 240.802 174.027C241.946 181.953 242.735 190.507 239.607 198.039C238.433 200.883 235.467 205.226 232.187 205.014C228.563 204.781 224.058 200.165 222.114 195.528Z" fill="#08294A"/>
<path d="M217.439 171.54C216.73 175.883 218.431 181.167 222.086 183.556C227.036 186.796 229.81 182.22 230.508 177.452C231.085 173.605 230.366 166.732 226.206 164.737C222.288 162.844 218.016 167.977 217.439 171.54Z" fill="#FD9783"/>
<path d="M222.928 181.474L249.32 181.494L249.289 217.694L222.908 217.664L222.928 181.474Z" fill="#FD9783"/>
<path d="M261.129 222.582L249.264 213.754H222.893L208.66 222.582H261.129Z" fill="#FD9783"/>
<path d="M184.078 393.583C194.707 395.172 206.531 393.796 221.361 391.528C244.331 388.015 262.512 382.164 282.101 369.682C281.979 363.234 279.894 351.207 279.296 344.789C277.343 323.713 277.849 325.921 277.545 309.653L279.296 241.554C277.403 226.056 268.313 221.136 268.313 221.136L249.291 213.402C249.291 213.402 237.386 224.79 222.465 213.564L188.178 227.919C188.178 227.919 177.548 231.846 179.573 243.954L185.343 304.47C185.343 304.47 179.684 350.316 176.546 379.056C176.546 379.056 171.748 392.297 184.078 393.583Z" fill="#4FA5FF"/>
<path d="M230.703 188.772C231.855 193.571 233.815 197.654 237.787 200.909C241.677 204.092 245.896 206.038 250.526 203.309C254.214 201.129 254.712 197.217 256.5 193.5C260.599 184.933 262.592 172.588 257.85 164.526C252.651 155.673 240.009 155.651 233.889 163.809C228.907 170.452 228.825 181.017 230.703 188.772Z" fill="#FD9783"/>
<path d="M218.734 168.382C219.554 166.54 222.804 163.128 225.345 166.185C226.408 167.451 226.276 173.363 226.681 174.912C227.207 176.967 227.724 176.278 229.505 176.541C230.477 170.883 230.659 160.435 233.868 156.305C234.759 155.151 236.662 154.139 234.901 152.509C234.901 152.509 229.04 146.314 222.875 149.786C222.875 149.786 216.568 154.139 218.734 168.382Z" fill="#08294A"/>
<path d="M199.542 268.066C199.542 268.066 195.787 299.489 163.271 318.733C150.739 324.746 153.695 305.178 154.322 302.576C156.711 292.767 156.802 293.071 160.821 282.451C169.578 259.35 175.783 254.4 175.783 254.4C175.783 254.4 194.704 247.982 199.542 268.066Z" fill="#FD9783"/>
<path d="M179.78 237.829C169.708 252.498 169.951 264.048 175.923 271.975C181.886 279.921 196.909 275.771 203.064 267.905C211.719 256.871 216.285 246.333 210.049 236.169C202.284 223.515 185.439 229.599 179.78 237.829Z" fill="#F69575"/>
<path d="M208.661 227.371C208.661 227.371 230.132 247.972 194.711 295.277C194.711 295.277 168.37 292.372 157.771 276.246C157.771 276.246 170.01 245.178 184.719 229.963C184.719 229.963 198.963 220.315 208.661 227.371Z" fill="#4FA5FF"/>
<path d="M241.703 286.228C241.703 286.228 245.155 287.362 246.107 291.654C206.343 312.062 175.447 324.554 175.447 324.554C161.831 327.865 156.436 323.076 156.436 323.076C144.258 305.462 170.163 296.959 170.163 296.959C170.163 296.959 170.163 296.959 205.928 291.593L241.703 286.228Z" fill="#FD9783"/>
<path d="M261.422 284.82L255.439 290.57C255.439 290.57 252.736 294.195 249.112 294.174L242.015 293.739L240.527 286.238L251.997 274.019L263.385 267.965C263.385 267.965 264.904 271.235 262.221 274.475C262.221 274.475 266.038 275.133 261.968 280.022C261.968 280.022 264.307 280.569 261.422 284.82Z" fill="#FD9783"/>
<path d="M254.812 272.52L270.514 257.426C270.514 257.426 272.336 257.649 271.89 260.666L261.423 272.793C261.423 272.793 256.888 275.911 254.812 272.52Z" fill="#FD9783"/>
<path d="M301.579 254.587C299.169 256.359 296.657 256.359 293.598 256.359H265.298C259.768 256.359 258.086 255.69 259.768 254.587L295.664 231.023C298.824 229.251 301.174 229.251 304.233 229.251H333.384C337.476 229.251 338.874 230.076 337.476 231.023L301.579 254.587Z" fill="#061C35"/>
<path d="M300.354 254.693C297.927 256.358 295.399 256.358 292.32 256.358H267.81C262.243 256.358 260.53 255.73 262.243 254.693L296.887 233.386C300.089 231.715 302.434 231.715 305.533 231.715H330.879C334.998 231.715 336.426 232.49 334.998 233.386L300.354 254.693Z" fill="#092A4D"/>
<path d="M305.34 265.779L315.129 256.982L315.463 245.117C310.624 236.523 298.983 233.557 298.983 233.557C298.983 233.557 297.474 234.579 298.8 236.239C298.8 236.239 301.625 237.97 304.095 238.679C304.095 238.679 306.241 241.26 307.8 242.425L300.359 241.635L293.395 246.018C293.395 246.018 293.921 248.64 297.181 247.324L300.177 245.502L305.765 246.241L300.683 245.917L294.437 250.391C294.437 250.391 294.437 252.568 297.1 251.9L301.716 249.177L304.439 249.916L301.615 250.159L296.199 254.603C296.199 254.603 296.948 256.941 300.187 255.615L303.882 252.851C303.882 252.851 302.343 260.251 305.34 265.779Z" fill="#FD9783"/>
<path d="M230.679 528.678L183.798 637.988C183.798 637.988 165.222 643.961 157.771 629.819C157.771 629.819 164.463 555.667 187.686 528.678L186.137 517.543C186.137 517.543 224.19 502.206 230.679 528.678Z" fill="#005BBA"/>
<path d="M280.246 523.607L281.097 637.351C281.097 637.351 270.17 648.577 255.451 646.947C255.451 646.947 243.864 582.038 242.76 576.177C242.76 576.177 236.666 543.429 240.533 529.793C240.533 529.793 271.571 495.09 280.246 523.607Z" fill="#005BBA"/>
<path d="M233.807 167.83C233.807 167.83 265.645 175.787 276.466 156.502C276.466 156.502 273.601 157.413 270.878 157.434C270.878 157.434 276.416 153.668 274.462 146.855C274.462 146.855 263.58 149.315 254.975 146.855C254.975 146.855 231.276 141.925 224.99 155.743C224.99 155.743 219.868 164.257 232.927 167.85" fill="#08294A"/>
<path d="M245.872 179.717C245.724 179.626 245.608 179.486 245.539 179.314C245.469 179.142 245.448 178.945 245.479 178.747L245.933 175.758C245.977 175.482 246.117 175.222 246.323 175.035C246.529 174.849 246.784 174.75 247.031 174.762C247.279 174.773 247.499 174.893 247.643 175.096C247.787 175.299 247.844 175.568 247.8 175.844L247.345 178.833C247.325 178.97 247.28 179.104 247.213 179.229C247.147 179.353 247.06 179.465 246.958 179.558C246.856 179.651 246.74 179.722 246.618 179.769C246.496 179.815 246.37 179.836 246.247 179.829C246.112 179.827 245.983 179.788 245.872 179.717Z" fill="#080C53"/>
<path d="M254.931 181.751C254.793 181.67 254.684 181.545 254.618 181.389C254.551 181.233 254.529 181.054 254.554 180.872L254.99 178.118C255.007 177.994 255.046 177.871 255.105 177.756C255.164 177.642 255.241 177.539 255.333 177.453C255.425 177.367 255.53 177.3 255.64 177.255C255.751 177.211 255.866 177.19 255.978 177.194C256.204 177.207 256.404 177.317 256.536 177.503C256.668 177.688 256.721 177.933 256.684 178.185L256.276 180.928C256.235 181.18 256.106 181.417 255.918 181.587C255.73 181.758 255.498 181.85 255.271 181.842C255.148 181.847 255.031 181.816 254.931 181.751Z" fill="#080C53"/>
<path d="M244.798 190.944C244.764 190.618 245.074 190.384 245.388 190.473L253.128 192.667C253.405 192.745 253.559 193.041 253.448 193.308C252.983 194.428 251.7 197.04 249.928 196.821C247.828 196.561 245.108 193.925 244.798 190.944Z" fill="white"/>
</svg>
