<svg width="1025" height="228" fill="none" xmlns="http://www.w3.org/2000/svg"><path d="M0 .969h85.9c23.555 0 44.301 4.844 62.237 14.532 18.152 9.689 32.199 23.145 42.139 40.369 10.157 17.224 15.236 36.6 15.236 58.13s-5.079 40.907-15.236 58.13c-9.94 17.224-23.987 30.68-42.139 40.369-17.936 9.688-38.682 14.532-62.237 14.532H0V.969zm85.252 219.926c22.69 0 42.571-4.521 59.643-13.564 17.288-9.257 30.579-21.96 39.871-38.107 9.508-16.363 14.263-34.771 14.263-55.224 0-20.453-4.755-38.754-14.263-54.9-9.292-16.364-22.583-29.066-39.871-38.109-17.072-9.257-36.953-13.886-59.643-13.886H6.483v213.79h78.769zM491.468 228c-21.826 0-41.599-4.952-59.319-14.855-17.721-9.904-31.659-23.468-41.816-40.692-10.157-17.439-15.235-36.923-15.235-58.453s5.078-40.906 15.235-58.13c10.157-17.44 24.095-31.11 41.816-41.014C449.869 4.951 469.642 0 491.468 0s41.6 4.952 59.32 14.855c17.72 9.904 31.658 23.576 41.815 41.015 10.157 17.224 15.235 36.6 15.235 58.13s-5.078 41.014-15.235 58.453c-10.157 17.224-24.095 30.788-41.815 40.692-17.72 9.903-37.494 14.855-59.32 14.855zm0-6.136c20.53 0 39.114-4.629 55.754-13.887 16.856-9.473 30.038-22.391 39.546-38.753 9.725-16.578 14.587-34.986 14.587-55.224s-4.862-38.538-14.587-54.9c-9.508-16.579-22.69-29.497-39.546-38.754-16.64-9.473-35.224-14.21-55.754-14.21-20.529 0-39.222 4.737-56.078 14.21-16.64 9.257-29.822 22.175-39.546 38.753-9.509 16.363-14.263 34.663-14.263 54.901 0 20.238 4.754 38.646 14.263 55.224 9.724 16.362 22.906 29.28 39.546 38.753 16.856 9.258 35.549 13.887 56.078 13.887zM1025 .969V227.03h-6.48V14.856L915.113 195.06h-3.89L807.819 15.501v211.53h-6.483V.969h5.511L913.168 186.34 1019.49.969h5.51z" fill="#CC9964"/></svg>