<svg width="22" height="22" viewBox="0 0 22 22" fill="none" xmlns="http://www.w3.org/2000/svg">
<path d="M8.43753 13.6027C10.4108 15.5656 12.6948 17.4408 13.5915 16.5354C14.8753 15.2393 15.6656 14.1117 18.5146 16.3887C21.3636 18.6667 19.1877 20.1997 17.9443 21.4556C16.5093 22.9044 11.1348 21.5571 5.80746 16.259C0.480474 10.9597 -0.905049 5.58429 0.530949 4.13472C1.7748 2.87882 3.28832 0.68751 5.58133 3.52592C7.87546 6.3629 6.75631 7.16351 5.47243 8.4599C4.57618 9.36496 6.46396 11.6394 8.43753 13.6027ZM11.2988 4.23806C11.2988 4.23806 10.7036 4.14487 10.2868 4.56286C9.85773 4.99282 9.83901 5.73349 10.2911 6.18618C10.5583 6.45392 10.935 6.51098 10.935 6.51098C11.6695 6.64902 12.7763 6.88275 13.9542 8.06278C15.1317 9.24275 15.365 10.352 15.5027 11.0883C15.5027 11.0883 15.5597 11.4659 15.8268 11.7336C16.2786 12.1864 17.0177 12.1679 17.4467 11.738C17.8635 11.3204 17.7708 10.7238 17.7708 10.7238C17.5376 9.23308 16.8165 7.67587 15.5784 6.43516C14.3399 5.19445 12.786 4.47217 11.2988 4.23806ZM16.8824 5.1283C19.0414 7.29182 19.9618 9.74725 19.6622 11.7369C19.6622 11.7369 19.5576 12.367 19.9682 12.7785C20.4305 13.2417 21.1631 13.215 21.5957 12.7818C21.8737 12.5033 21.9342 12.0498 21.9342 12.0498C22.1819 10.3304 21.8705 6.87127 18.5066 3.50068C15.1428 0.13004 11.6914 -0.182116 9.97559 0.0657491C9.97559 0.0657491 9.52349 0.126108 9.24513 0.405003C8.81249 0.838567 8.78619 1.57276 9.24837 2.03592C9.65906 2.44748 10.2878 2.34265 10.2878 2.34265C12.2733 2.0424 14.7235 2.96484 16.8824 5.1283Z" fill="#00212D"/>
</svg>
