<svg width="96" height="95" viewBox="0 0 96 95" fill="none" xmlns="http://www.w3.org/2000/svg">
<path fill-rule="evenodd" clip-rule="evenodd" d="M48 9.005C60.4353 9.005 62.0502 9.07526 66.8675 9.28487L67.1181 9.29577C71.6977 9.51385 74.2419 10.2408 75.9139 10.895C78.0946 11.7673 79.6939 12.785 81.3658 14.4569C83.0377 16.1288 84.0554 17.6554 84.9277 19.9088C85.582 21.5808 86.3815 24.0523 86.5269 28.7046L86.5378 28.9556V28.9557C86.7474 33.7727 86.8177 35.3878 86.8177 47.8227C86.8177 60.2576 86.7474 61.8727 86.5378 66.6897L86.5269 66.9408C86.3088 71.5204 85.582 74.0646 84.9277 75.7365C84.0554 77.9173 83.0377 79.5165 81.3658 81.1885C79.6939 82.8604 78.1673 83.8781 75.9139 84.7504C74.2419 85.4046 71.7704 86.2042 67.1181 86.3496L66.8673 86.3605C62.0501 86.5701 60.4351 86.6404 48 86.6404C35.5649 86.6404 33.95 86.5701 29.1329 86.3605L28.882 86.3496C24.3024 86.1315 21.7581 85.4046 20.0861 84.7504C17.9054 83.8781 16.3061 82.8604 14.6342 81.1885C12.9623 79.5165 11.9447 77.99 11.0724 75.7365C10.4181 74.0646 9.61846 71.5931 9.47308 66.9408L9.46215 66.6896C9.25257 61.8727 9.18229 60.2576 9.18229 47.8227C9.18229 35.3878 9.25257 33.7727 9.46215 28.9557L9.47308 28.7046C9.69115 24.125 10.4181 21.5808 11.0724 19.9088C11.9447 17.7281 12.9623 16.1288 14.6342 14.4569C16.3061 12.785 17.8327 11.7673 20.0861 10.895C21.7581 10.2408 24.2297 9.44116 28.882 9.29577L29.1327 9.28486C33.95 9.07526 35.5648 9.005 48 9.005ZM48 0.5C35.2057 0.5 33.5526 0.57188 28.6027 0.787112L28.5185 0.79077C23.5027 1.00885 20.0135 1.80846 17.0331 2.97154C13.9073 4.20731 11.2904 5.80654 8.67348 8.42346C6.05656 11.0404 4.45733 13.6573 3.22156 16.7831C2.05848 19.7635 1.25886 23.2527 1.04079 28.2685L1.04077 28.2689C0.822705 33.2843 0.75 34.9566 0.75 47.75C0.75 60.544 0.821892 62.1974 1.03711 67.147L1.04079 67.2315C1.25886 72.2473 2.05848 75.7365 3.22156 78.7169C4.45733 81.8427 6.05656 84.4596 8.67348 87.0765C11.2904 89.6935 13.9073 91.2927 17.0331 92.5285C20.0135 93.6915 23.5027 94.4911 28.5185 94.7092L28.5188 94.7092H28.519C33.5344 94.9273 35.2066 95 48 95C60.7942 95 62.4475 94.9281 67.3974 94.7129L67.4816 94.7092C72.4973 94.4911 75.9865 93.6915 78.9669 92.5285C82.0927 91.2927 84.7096 89.6935 87.3265 87.0765C89.9434 84.4596 91.5427 81.8427 92.7784 78.7169C93.9415 75.7365 94.7411 72.2473 94.9592 67.2315L94.9592 67.2309V67.2307C95.1773 62.2156 95.25 60.5432 95.25 47.75C95.25 34.9568 95.1773 33.2844 94.9592 28.2693V28.2691L94.9592 28.2685C94.7411 23.2527 93.9415 19.7635 92.7784 16.7831C91.5427 13.6573 89.9434 11.0404 87.3265 8.42346C84.7096 5.80654 82.0927 4.20731 78.9669 2.97154C75.9865 1.80846 72.4973 1.00885 67.4816 0.79077L67.3975 0.787116C62.4475 0.571881 60.7944 0.5 48 0.5ZM47.9995 23.541C34.5514 23.541 23.7202 34.4449 23.7202 47.8203C23.7202 61.1957 34.6241 72.0996 47.9995 72.0996C61.4476 72.0996 72.2787 61.1957 72.2787 47.8203C72.2787 34.4449 61.4476 23.541 47.9995 23.541ZM47.9995 63.5946C39.2764 63.5946 32.2253 56.5434 32.2253 47.8203C32.2253 39.0972 39.2764 32.046 47.9995 32.046C56.7226 32.046 63.7738 39.0972 63.7738 47.8203C63.7738 56.5434 56.7226 63.5946 47.9995 63.5946ZM78.8934 22.5254C78.8934 25.6568 76.3549 28.1953 73.2235 28.1953C70.092 28.1953 67.5535 25.6568 67.5535 22.5254C67.5535 19.394 70.092 16.8555 73.2235 16.8555C76.3549 16.8555 78.8934 19.394 78.8934 22.5254Z" fill="#00212D"/>
</svg>
