<svg width="150" height="35" fill="none" xmlns="http://www.w3.org/2000/svg"><path d="M39.014 10.758v23.477h9.953C60.46 34.139 66.183 25.82 66.183 17.5S60.46.86 48.967.765h-9.953V6.12h5.77l-5.77 4.638zm9.713-4.638c15.244 0 15.195 22.712 0 22.712h-3.943V6.12h3.943zM88.24 0c-5.049 0-10.05 1.96-13.368 5.881l3.992 4.208c2.26-2.87 5.818-4.303 9.376-4.303 5.819 0 11.686 3.872 11.686 11.714 0 7.841-5.867 11.715-11.686 11.715-5.866 0-11.733-3.873-11.733-11.715 0-2.725.722-4.973 1.924-6.742h-6.444c-.721 1.96-1.106 4.208-1.106 6.742 0 11.667 8.656 17.5 17.36 17.5 8.655 0 17.311-5.833 17.311-17.5S96.896 0 88.24 0zM110.569 34.235h5.674l2.982-18.982 10.098 18.982h1.923l10.099-19.126 2.981 19.126H150L144.951.765h-1.923l-12.743 24.05L117.542.766h-6.011l6.011 11.332h-3.607l-3.366 22.138z" fill="#D5BFA8"/><path fill-rule="evenodd" clip-rule="evenodd" d="M0 34.028h25.496c5.13 0 9.289-4.135 9.289-9.236a9.202 9.202 0 0 0-3.587-7.292 9.202 9.202 0 0 0 3.587-7.292c0-5.1-4.159-9.236-9.289-9.236h-6.302l-2.759 4.75h9.061c2.532 0 4.539 2.034 4.539 4.486 0 2.453-2.007 4.486-4.539 4.486h-14.27l-3.258 5.612h17.528c2.532 0 4.539 2.034 4.539 4.486s-2.007 4.486-4.539 4.486H2.758L0 34.028z" fill="#00212D"/></svg>