<svg width="64" height="64" viewBox="0 0 64 64" fill="none" xmlns="http://www.w3.org/2000/svg">
<path fill-rule="evenodd" clip-rule="evenodd" d="M22 0C22.5304 0 23.0391 0.210714 23.4142 0.585786C23.7893 0.960859 24 1.46957 24 2V18C24 19.5913 23.3679 21.1174 22.2426 22.2426C21.1174 23.3679 19.5913 24 18 24H2C1.46957 24 0.960859 23.7893 0.585786 23.4142C0.210714 23.0391 0 22.5304 0 22C0 21.4696 0.210714 20.9609 0.585786 20.5858C0.960859 20.2107 1.46957 20 2 20H18C18.5304 20 19.0391 19.7893 19.4142 19.4142C19.7893 19.0391 20 18.5304 20 18V2C20 1.46957 20.2107 0.960859 20.5858 0.585786C20.9609 0.210714 21.4696 0 22 0V0ZM42 0C42.5304 0 43.0391 0.210714 43.4142 0.585786C43.7893 0.960859 44 1.46957 44 2V18C44 18.5304 44.2107 19.0391 44.5858 19.4142C44.9609 19.7893 45.4696 20 46 20H62C62.5304 20 63.0391 20.2107 63.4142 20.5858C63.7893 20.9609 64 21.4696 64 22C64 22.5304 63.7893 23.0391 63.4142 23.4142C63.0391 23.7893 62.5304 24 62 24H46C44.4087 24 42.8826 23.3679 41.7574 22.2426C40.6321 21.1174 40 19.5913 40 18V2C40 1.46957 40.2107 0.960859 40.5858 0.585786C40.9609 0.210714 41.4696 0 42 0V0ZM0 42C0 41.4696 0.210714 40.9609 0.585786 40.5858C0.960859 40.2107 1.46957 40 2 40H18C19.5913 40 21.1174 40.6321 22.2426 41.7574C23.3679 42.8826 24 44.4087 24 46V62C24 62.5304 23.7893 63.0391 23.4142 63.4142C23.0391 63.7893 22.5304 64 22 64C21.4696 64 20.9609 63.7893 20.5858 63.4142C20.2107 63.0391 20 62.5304 20 62V46C20 45.4696 19.7893 44.9609 19.4142 44.5858C19.0391 44.2107 18.5304 44 18 44H2C1.46957 44 0.960859 43.7893 0.585786 43.4142C0.210714 43.0391 0 42.5304 0 42ZM40 46C40 44.4087 40.6321 42.8826 41.7574 41.7574C42.8826 40.6321 44.4087 40 46 40H62C62.5304 40 63.0391 40.2107 63.4142 40.5858C63.7893 40.9609 64 41.4696 64 42C64 42.5304 63.7893 43.0391 63.4142 43.4142C63.0391 43.7893 62.5304 44 62 44H46C45.4696 44 44.9609 44.2107 44.5858 44.5858C44.2107 44.9609 44 45.4696 44 46V62C44 62.5304 43.7893 63.0391 43.4142 63.4142C43.0391 63.7893 42.5304 64 42 64C41.4696 64 40.9609 63.7893 40.5858 63.4142C40.2107 63.0391 40 62.5304 40 62V46Z" fill="black"/>
</svg>
