<svg width="938" height="219" viewBox="0 0 938 219" fill="none" xmlns="http://www.w3.org/2000/svg">
<path d="M106.647 213.509C86.5289 213.509 68.3637 209.017 52.1517 200.032C35.9398 190.852 23.146 178.351 13.7704 162.53C4.59013 146.708 0 129.032 0 109.499C0 89.9666 4.59013 72.2897 13.7704 56.4684C23.146 40.6471 35.9398 28.2439 52.1517 19.259C68.3637 10.0787 86.5289 5.4886 106.647 5.4886C126.766 5.4886 144.931 9.98107 161.143 18.966C177.355 27.9509 190.051 40.3541 199.231 56.1754C208.607 71.9967 213.295 89.7712 213.295 109.499C213.295 129.227 208.607 147.001 199.231 162.823C190.051 178.644 177.355 191.047 161.143 200.032C144.931 209.017 126.766 213.509 106.647 213.509ZM106.647 199.739C123.836 199.739 139.364 195.833 153.232 188.02C167.1 180.207 178.039 169.464 186.047 155.791C194.055 141.923 198.059 126.492 198.059 109.499C198.059 92.5058 194.055 77.1728 186.047 63.5001C178.039 49.632 167.1 38.7915 153.232 30.9785C139.364 23.1655 123.836 19.259 106.647 19.259C89.4587 19.259 73.8328 23.1655 59.7694 30.9785C45.9013 38.7915 34.9631 49.632 26.9548 63.5001C18.9465 77.1728 14.9423 92.5058 14.9423 109.499C14.9423 126.492 18.9465 141.923 26.9548 155.791C34.9631 169.464 45.9013 180.207 59.7694 188.02C73.8328 195.833 89.4587 199.739 106.647 199.739Z" fill="#CC9964"/>
<path d="M482.122 109.499C482.122 127.469 477.727 142.997 468.937 156.084C460.148 169.171 447.452 179.328 430.849 186.555C414.442 193.586 394.812 197.298 371.959 197.688V218.49H357.602V197.688C334.749 197.298 315.021 193.586 298.419 186.555C282.012 179.328 269.413 169.171 260.624 156.084C251.834 142.997 247.439 127.469 247.439 109.499C247.439 91.3338 251.834 75.7079 260.624 62.6211C269.413 49.5343 282.012 39.4751 298.419 32.4434C315.021 25.2164 334.749 21.4076 357.602 21.0169V0.507812H371.959V21.0169C406.531 21.9936 433.486 30.1972 452.823 45.6278C472.356 61.0585 482.122 82.3489 482.122 109.499ZM371.959 185.383C402.039 184.406 425.478 177.374 442.276 164.288C459.073 151.006 467.472 132.645 467.472 109.206C467.472 85.9624 459.073 67.7972 442.276 54.7104C425.478 41.4284 402.039 34.299 371.959 33.3224V185.383ZM262.088 109.499C262.088 132.938 270.487 151.201 287.285 164.288C304.083 177.374 327.522 184.406 357.602 185.383V33.3224C327.327 34.299 303.79 41.4284 286.992 54.7104C270.39 67.7972 262.088 86.0601 262.088 109.499Z" fill="#CC9964"/>
<path d="M534.912 6.95353H549.854V186.848L689.609 6.95353H702.794V212.045H687.851V32.4434L548.096 212.045H534.912V6.95353Z" fill="#CC9964"/>
<path d="M864.58 213.509C844.461 213.509 826.296 209.017 810.084 200.032C794.068 191.047 781.371 178.644 771.996 162.823C762.816 147.001 758.226 129.227 758.226 109.499C758.226 89.7712 762.816 71.9967 771.996 56.1754C781.371 40.3541 794.068 27.9509 810.084 18.966C826.296 9.98107 844.461 5.4886 864.58 5.4886C879.424 5.4886 893.097 7.93016 905.598 12.8133C918.099 17.5011 928.744 24.5328 937.534 33.9084L928.158 43.5769C911.751 27.365 890.753 19.259 865.166 19.259C847.977 19.259 832.351 23.1655 818.288 30.9785C804.225 38.7915 793.189 49.632 785.18 63.5001C777.172 77.1728 773.168 92.5058 773.168 109.499C773.168 126.492 777.172 141.923 785.18 155.791C793.189 169.464 804.225 180.207 818.288 188.02C832.351 195.833 847.977 199.739 865.166 199.739C890.558 199.739 911.555 191.535 928.158 175.128L937.534 184.797C928.744 194.172 918.001 201.302 905.305 206.185C892.804 211.068 879.229 213.509 864.58 213.509Z" fill="#CC9964"/>
</svg>
