<svg width="46" height="30" fill="none" xmlns="http://www.w3.org/2000/svg"><path d="M8.719 18.156c1.844-.75 3.61-1.125 5.297-1.125 1.687 0 3.437.375 5.25 1.125 1.843.719 2.765 1.672 2.765 2.86v2.015H6v-2.015c0-1.188.906-2.141 2.719-2.86zm8.11-4.312c-.782.781-1.72 1.172-2.813 1.172-1.094 0-2.032-.391-2.813-1.172-.781-.781-1.172-1.719-1.172-2.813S10.421 9 11.203 8.22C11.984 7.406 12.922 7 14.016 7c1.093 0 2.03.406 2.812 1.219C17.61 9 18 9.938 18 11.03c0 1.094-.39 2.031-1.172 2.813z" fill="#00212D"/><path stroke="#00212D" stroke-width="2" stroke-linecap="round" d="M27 10h12M27 15h12M27 20h12"/><rect x="1" y="1" width="44" height="28" rx="4" stroke="#00212D" stroke-width="2"/></svg>