<svg width="52" height="47" viewBox="0 0 52 47" fill="none" xmlns="http://www.w3.org/2000/svg">
<path d="M39.1806 10.7793L11.546 21.2369C10.0324 21.6726 10.0783 23.1633 11.202 23.5302L18.1279 25.6859L20.7881 33.8043C21.1092 34.6987 21.3844 35.0198 21.9348 35.0427C22.5081 35.0427 22.7374 34.8363 23.3337 34.3089C24.0446 33.6438 25.0996 32.6118 26.7967 30.9606L33.9977 36.2811C35.3278 37.015 36.291 36.6251 36.6121 35.0427L41.13 12.7057C41.5886 10.7793 40.4649 10.2059 39.1806 10.7793ZM19.2287 25.1814L34.9609 15.3201C35.7406 14.7926 35.97 15.3889 35.626 15.7787L22.554 27.5206L21.8889 33.3915L19.2287 25.1814Z" fill="#00212D"/>
</svg>
