<svg width="50" height="51" viewBox="0 0 50 51" fill="none" xmlns="http://www.w3.org/2000/svg">
<path fill-rule="evenodd" clip-rule="evenodd" d="M25.1896 10.6094C17.1859 10.6094 10.6728 17.0995 10.6728 25.1262C10.6728 27.8782 11.4296 30.4238 12.7598 32.6253L10.1454 40.3997L18.172 37.8312C20.259 38.9779 22.644 39.643 25.1896 39.643C33.1934 39.643 39.7064 33.1528 39.7064 25.1262C39.7064 17.0995 33.2163 10.6094 25.1896 10.6094ZM25.1896 37.1891C22.7358 37.1891 20.4424 36.4552 18.539 35.1939L13.9064 36.6846L15.42 32.1896C13.9752 30.1944 13.1267 27.7406 13.1267 25.1032C13.1267 18.4526 18.539 13.0174 25.2126 13.0174C31.8632 13.0174 37.2984 18.4296 37.2984 25.1032C37.2755 31.7768 31.8632 37.1891 25.1896 37.1891ZM32.0008 28.4056C31.6339 28.1992 29.8451 27.236 29.524 27.0984C29.18 26.9608 28.9507 26.892 28.6755 27.259C28.4232 27.6259 27.6664 28.4286 27.46 28.6579C27.2307 28.8872 27.0243 28.9102 26.6574 28.7267C26.2904 28.5203 25.1208 28.0846 23.7448 26.7774C22.6899 25.7454 21.979 24.507 21.7726 24.14C21.5662 23.7502 21.7726 23.5667 21.956 23.3832C22.1395 23.2227 22.3459 22.9704 22.5294 22.764C22.7128 22.5576 22.7816 22.3971 22.9192 22.1678C23.0568 21.9155 22.988 21.7091 22.9192 21.5257C22.8275 21.3422 22.1624 19.4846 21.8872 18.7278C21.612 17.971 21.291 18.0857 21.0846 18.0857C20.8782 18.0857 20.6259 18.0398 20.3736 18.0398C20.1214 18.0398 19.7315 18.1086 19.3646 18.4755C19.0206 18.8424 18.0115 19.691 17.9427 21.5257C17.8739 23.3374 19.1352 25.1491 19.3187 25.4014C19.5022 25.6536 21.7267 29.5982 25.4419 31.2264C29.1571 32.8547 29.18 32.3502 29.8451 32.3272C30.5331 32.2814 32.0696 31.5016 32.4136 30.6531C32.7576 29.8046 32.7806 29.0478 32.6888 28.9102C32.5971 28.7038 32.3678 28.612 32.0008 28.4056Z" fill="#00212D"/>
</svg>
