<svg width="51" height="51" viewBox="0 0 51 51" fill="none" xmlns="http://www.w3.org/2000/svg">
<path d="M25.83 13.2926C29.8204 13.2926 30.2791 13.3155 31.8615 13.3843C33.3063 13.4531 34.1089 13.6824 34.6364 13.8888C35.3244 14.164 35.8289 14.4851 36.3564 15.0126C36.8838 15.54 37.2049 16.0216 37.4801 16.7326C37.6865 17.26 37.9388 18.0398 37.9846 19.5075C38.0534 21.0899 38.0764 21.5486 38.0764 25.539C38.0764 29.5294 38.0534 29.988 37.9846 31.5704C37.9158 33.0152 37.6865 33.8179 37.4801 34.3453C37.2049 35.0333 36.8838 35.5379 36.3564 36.0653C35.8289 36.5928 35.3473 36.9139 34.6364 37.1891C34.1089 37.3955 33.3292 37.6477 31.8615 37.6936C30.2791 37.7624 29.8204 37.7853 25.83 37.7853C21.8396 37.7853 21.3809 37.7624 19.7985 37.6936C18.3537 37.6248 17.5511 37.3955 17.0236 37.1891C16.3356 36.9139 15.8311 36.5928 15.3036 36.0653C14.7761 35.5379 14.4551 35.0563 14.1799 34.3453C13.9735 33.8179 13.7212 33.0381 13.6753 31.5704C13.6065 29.988 13.5836 29.5294 13.5836 25.539C13.5836 21.5486 13.6065 21.0899 13.6753 19.5075C13.7441 18.0627 13.9735 17.26 14.1799 16.7326C14.4551 16.0446 14.7761 15.54 15.3036 15.0126C15.8311 14.4851 16.3127 14.164 17.0236 13.8888C17.5511 13.6824 18.3308 13.4302 19.7985 13.3843C21.3809 13.3155 21.8396 13.2926 25.83 13.2926ZM25.83 10.6094C21.7708 10.6094 21.2663 10.6323 19.6839 10.7011C18.1015 10.7699 17.0007 11.0222 16.0604 11.3891C15.0743 11.779 14.2487 12.2835 13.4231 13.1091C12.5975 13.9347 12.0929 14.7603 11.7031 15.7464C11.3361 16.6867 11.0839 17.7875 11.0151 19.3699C10.9463 20.9523 10.9233 21.4798 10.9233 25.516C10.9233 29.5752 10.9463 30.0798 11.0151 31.6621C11.0839 33.2445 11.3361 34.3453 11.7031 35.2856C12.0929 36.2717 12.5975 37.0973 13.4231 37.9229C14.2487 38.7485 15.0743 39.2531 16.0604 39.6429C17.0007 40.0099 18.1015 40.2621 19.6839 40.3309C21.2663 40.3997 21.7937 40.4227 25.83 40.4227C29.8892 40.4227 30.3937 40.3997 31.9761 40.3309C33.5585 40.2621 34.6593 40.0099 35.5996 39.6429C36.5857 39.2531 37.4113 38.7485 38.2369 37.9229C39.0625 37.0973 39.567 36.2717 39.9569 35.2856C40.3238 34.3453 40.5761 33.2445 40.6449 31.6621C40.7137 30.0798 40.7366 29.5523 40.7366 25.516C40.7366 21.4798 40.7137 20.9523 40.6449 19.3699C40.5761 17.7875 40.3238 16.6867 39.9569 15.7464C39.567 14.7603 39.0625 13.9347 38.2369 13.1091C37.4113 12.2835 36.5857 11.779 35.5996 11.3891C34.6593 11.0222 33.5585 10.7699 31.9761 10.7011C30.3937 10.6323 29.8892 10.6094 25.83 10.6094Z" fill="#00212D"/>
<path d="M25.8301 17.8789C21.5875 17.8789 18.1704 21.3189 18.1704 25.5386C18.1704 29.7584 21.6104 33.1984 25.8301 33.1984C30.0728 33.1984 33.4899 29.7584 33.4899 25.5386C33.4899 21.3189 30.0728 17.8789 25.8301 17.8789ZM25.8301 30.5152C23.0781 30.5152 20.8536 28.2906 20.8536 25.5386C20.8536 22.7866 23.0781 20.5621 25.8301 20.5621C28.5821 20.5621 30.8067 22.7866 30.8067 25.5386C30.8067 28.2906 28.5821 30.5152 25.8301 30.5152Z" fill="#00212D"/>
<path d="M33.7878 19.3471C34.7758 19.3471 35.5766 18.5463 35.5766 17.5583C35.5766 16.5704 34.7758 15.7695 33.7878 15.7695C32.7999 15.7695 31.999 16.5704 31.999 17.5583C31.999 18.5463 32.7999 19.3471 33.7878 19.3471Z" fill="#00212D"/>
</svg>
