<svg width="57" height="42" fill="none" xmlns="http://www.w3.org/2000/svg"><path fill-rule="evenodd" clip-rule="evenodd" d="M28.166 31.075h2.202s.665-.069 1.009-.436c.32-.344.298-.963.298-.963s-.046-2.958 1.33-3.394c1.353-.436 3.096 2.866 4.93 4.128 1.4.963 2.454.757 2.454.757l4.931-.07s2.569-.16 1.353-2.178c-.092-.16-.71-1.49-3.67-4.243-3.095-2.866-2.682-2.408 1.056-7.361 2.27-3.027 3.165-4.862 2.89-5.665-.276-.757-1.927-.55-1.927-.55l-5.55.046s-.413-.046-.71.137c-.299.184-.482.597-.482.597s-.872 2.339-2.041 4.334c-2.477 4.197-3.463 4.426-3.853 4.151-.94-.596-.711-2.431-.711-3.738 0-4.06.619-5.756-1.193-6.192-.596-.138-1.055-.252-2.591-.252-1.972-.023-3.647 0-4.61.481-.642.298-1.123 1.01-.825 1.032.367.046 1.192.23 1.628.826.573.78.55 2.5.55 2.5s.321 4.793-.756 5.389c-.757.413-1.766-.436-3.968-4.243-1.124-1.95-1.972-4.105-1.972-4.105s-.16-.413-.459-.62c-.344-.251-.848-.343-.848-.343l-5.275.023s-.803.023-1.078.367c-.252.298-.023.94-.023.94s4.128 9.655 8.806 14.517c4.243 4.426 9.105 4.128 9.105 4.128z" fill="#00212D"/></svg>