<svg width="50" height="51" fill="none" xmlns="http://www.w3.org/2000/svg"><path fill-rule="evenodd" clip-rule="evenodd" d="M25.19 10.61c-8.004 0-14.517 6.49-14.517 14.516 0 2.752.757 5.298 2.087 7.5L10.145 40.4l8.027-2.569a14.52 14.52 0 0 0 7.018 1.812c8.003 0 14.516-6.49 14.516-14.517S33.216 10.61 25.19 10.61zm0 26.58c-2.454 0-4.748-.735-6.651-1.996l-4.633 1.49 1.514-4.494a12.053 12.053 0 0 1-2.293-7.087c0-6.65 5.412-12.086 12.086-12.086 6.65 0 12.085 5.413 12.085 12.086-.023 6.674-5.435 12.086-12.108 12.086zM32 28.405c-.366-.207-2.155-1.17-2.476-1.308-.344-.137-.573-.206-.849.161-.252.367-1.009 1.17-1.215 1.399-.23.23-.436.252-.803.069-.367-.207-1.536-.642-2.912-1.95-1.055-1.032-1.766-2.27-1.972-2.637-.207-.39 0-.573.183-.757.184-.16.39-.413.573-.619.184-.206.253-.367.39-.596.138-.252.069-.459 0-.642-.091-.184-.757-2.041-1.032-2.798-.275-.757-.596-.642-.802-.642-.207 0-.46-.046-.711-.046a1.4 1.4 0 0 0-1.01.436c-.343.366-1.352 1.215-1.421 3.05-.07 1.811 1.192 3.623 1.376 3.875.183.253 2.408 4.197 6.123 5.825 3.715 1.629 3.738 1.124 4.403 1.101.688-.046 2.225-.825 2.569-1.674.344-.848.367-1.605.275-1.743-.092-.206-.321-.298-.688-.504z" fill="#00212D"/></svg>