<svg width="14" height="21" viewBox="0 0 14 21" fill="none" xmlns="http://www.w3.org/2000/svg">
<path d="M7.55222 15.0627C7.51396 15.0234 7.47227 14.9885 7.42778 14.9585C7.38807 14.9241 7.34334 14.8977 7.29556 14.8803C7.24924 14.8539 7.19929 14.8363 7.14778 14.8282C6.99877 14.7931 6.84362 14.8113 6.70444 14.8803C6.60793 14.9193 6.52027 14.9815 6.44769 15.0626C6.37511 15.1436 6.31938 15.2414 6.28444 15.3492C6.2409 15.4522 6.21959 15.5652 6.22222 15.6791C6.22098 15.792 6.23948 15.9041 6.27667 16.0091C6.32176 16.1128 6.37933 16.2092 6.44778 16.2956C6.52045 16.3761 6.60664 16.4397 6.70141 16.483C6.79617 16.5262 6.89764 16.5481 7 16.5474C7.10203 16.5503 7.20325 16.5266 7.29556 16.4779C7.38981 16.434 7.47662 16.3723 7.55222 16.2956C7.62431 16.2145 7.68134 16.1183 7.72004 16.0125C7.75875 15.9067 7.77837 15.7934 7.77778 15.6791C7.77655 15.5657 7.75541 15.4536 7.71556 15.3492C7.67854 15.2426 7.62303 15.1452 7.55222 15.0627ZM4.31667 11.4854C4.27696 11.451 4.23223 11.4246 4.18444 11.4072C4.13914 11.3747 4.08915 11.3512 4.03667 11.3378C3.93689 11.3118 3.83311 11.3118 3.73333 11.3378L3.59333 11.3899L3.45333 11.468L3.33667 11.5722C3.19086 11.7429 3.11001 11.9701 3.11111 12.206C3.11052 12.3203 3.13014 12.4336 3.16884 12.5394C3.20755 12.6452 3.26458 12.7414 3.33667 12.8225C3.41227 12.8992 3.49908 12.9609 3.59333 13.0048C3.71117 13.0589 3.83908 13.0798 3.96585 13.0657C4.09261 13.0517 4.21434 13.003 4.32033 12.9242C4.42633 12.8453 4.51334 12.7385 4.57373 12.6133C4.63412 12.4881 4.66603 12.3482 4.66667 12.206C4.6638 11.9761 4.58324 11.7559 4.44111 11.5896L4.31667 11.4854ZM4.44111 15.0627C4.36714 14.9836 4.27992 14.9216 4.18444 14.8803C4.04365 14.8074 3.88654 14.7833 3.73333 14.8109L3.59333 14.863C3.54377 14.882 3.49669 14.9082 3.45333 14.9411C3.41259 14.9732 3.37363 15.008 3.33667 15.0453C3.26586 15.1279 3.21035 15.2252 3.17333 15.3318C3.13218 15.4358 3.11093 15.5481 3.11093 15.6618C3.11093 15.7754 3.13218 15.8878 3.17333 15.9917C3.21272 16.0969 3.26796 16.1938 3.33667 16.2782C3.40805 16.3619 3.49366 16.4287 3.58848 16.4749C3.6833 16.5212 3.78543 16.5458 3.88889 16.5474C3.99092 16.5503 4.09214 16.5266 4.18444 16.4779C4.2787 16.434 4.36551 16.3723 4.44111 16.2956C4.50981 16.2112 4.56506 16.1143 4.60444 16.0091C4.64559 15.9051 4.66685 15.7928 4.66685 15.6791C4.66685 15.5655 4.64559 15.4531 4.60444 15.3492C4.56743 15.2426 4.51192 15.1452 4.44111 15.0627ZM6.70444 11.4072C6.60897 11.4485 6.52175 11.5105 6.44778 11.5896C6.30565 11.7559 6.22509 11.9761 6.22222 12.206C6.22286 12.3482 6.25477 12.4881 6.31516 12.6133C6.37555 12.7385 6.46256 12.8453 6.56856 12.9242C6.67455 13.003 6.79628 13.0517 6.92304 13.0657C7.04981 13.0798 7.17772 13.0589 7.29556 13.0048C7.38981 12.9609 7.47662 12.8992 7.55222 12.8225C7.62431 12.7414 7.68134 12.6452 7.72004 12.5394C7.75875 12.4336 7.77837 12.3203 7.77778 12.206C7.77491 11.9761 7.69435 11.7559 7.55222 11.5896C7.44285 11.4691 7.30396 11.3875 7.15308 11.355C7.0022 11.3226 6.84609 11.3407 6.70444 11.4072ZM10.6633 15.0627C10.5877 14.986 10.5009 14.9243 10.4067 14.8803C10.265 14.8138 10.1089 14.7957 9.95803 14.8281C9.80715 14.8606 9.66826 14.9422 9.55889 15.0627C9.48808 15.1452 9.43257 15.2426 9.39556 15.3492C9.35441 15.4531 9.33315 15.5655 9.33315 15.6791C9.33315 15.7928 9.35441 15.9051 9.39556 16.0091C9.43494 16.1143 9.49019 16.2112 9.55889 16.2956C9.63157 16.3761 9.71776 16.4397 9.81252 16.483C9.90728 16.5262 10.0088 16.5481 10.1111 16.5474C10.2131 16.5503 10.3144 16.5266 10.4067 16.4779C10.5009 16.434 10.5877 16.3723 10.6633 16.2956C10.7713 16.1735 10.8444 16.0185 10.8734 15.85C10.9025 15.6816 10.8862 15.5073 10.8267 15.3492C10.7896 15.2426 10.7341 15.1452 10.6633 15.0627ZM10.1111 4.39156H3.88889C3.68261 4.39156 3.48478 4.48304 3.33892 4.64587C3.19306 4.8087 3.11111 5.02955 3.11111 5.25983V8.73293C3.11111 8.96321 3.19306 9.18406 3.33892 9.3469C3.48478 9.50973 3.68261 9.60121 3.88889 9.60121H10.1111C10.3174 9.60121 10.5152 9.50973 10.6611 9.3469C10.8069 9.18406 10.8889 8.96321 10.8889 8.73293V5.25983C10.8889 5.02955 10.8069 4.8087 10.6611 4.64587C10.5152 4.48304 10.3174 4.39156 10.1111 4.39156ZM9.33333 7.86466H4.66667V6.12811H9.33333V7.86466ZM11.6667 0.918457H2.33333C1.71449 0.918457 1.121 1.19289 0.683418 1.68139C0.245833 2.16989 0 2.83244 0 3.52328V17.4157C0 18.1065 0.245833 18.7691 0.683418 19.2576C1.121 19.7461 1.71449 20.0205 2.33333 20.0205H11.6667C12.2855 20.0205 12.879 19.7461 13.3166 19.2576C13.7542 18.7691 14 18.1065 14 17.4157V3.52328C14 2.83244 13.7542 2.16989 13.3166 1.68139C12.879 1.19289 12.2855 0.918457 11.6667 0.918457ZM12.4444 17.4157C12.4444 17.646 12.3625 17.8668 12.2166 18.0296C12.0708 18.1925 11.8729 18.284 11.6667 18.284H2.33333C2.12705 18.284 1.92922 18.1925 1.78336 18.0296C1.6375 17.8668 1.55556 17.646 1.55556 17.4157V3.52328C1.55556 3.293 1.6375 3.07215 1.78336 2.90932C1.92922 2.74649 2.12705 2.65501 2.33333 2.65501H11.6667C11.8729 2.65501 12.0708 2.74649 12.2166 2.90932C12.3625 3.07215 12.4444 3.293 12.4444 3.52328V17.4157ZM10.5389 11.4854C10.4992 11.451 10.4544 11.4246 10.4067 11.4072C10.3604 11.3808 10.3104 11.3632 10.2589 11.3551C10.1591 11.3292 10.0553 11.3292 9.95556 11.3551L9.81556 11.4072L9.67556 11.4854L9.55889 11.5896C9.41676 11.7559 9.3362 11.9761 9.33333 12.206C9.33397 12.3482 9.36588 12.4881 9.42627 12.6133C9.48666 12.7385 9.57368 12.8453 9.67967 12.9242C9.78566 13.003 9.90739 13.0517 10.0342 13.0657C10.1609 13.0798 10.2888 13.0589 10.4067 13.0048C10.5009 12.9609 10.5877 12.8992 10.6633 12.8225C10.7354 12.7414 10.7924 12.6452 10.8312 12.5394C10.8699 12.4336 10.8895 12.3203 10.8889 12.206C10.886 11.9761 10.8055 11.7559 10.6633 11.5896L10.5389 11.4854Z" fill="#AEB3BF"/>
</svg>
