<svg width="16" height="23" viewBox="0 0 16 23" fill="none" xmlns="http://www.w3.org/2000/svg">
<path d="M11 15.7141H5C4.73478 15.7141 4.48043 15.8259 4.29289 16.0249C4.10536 16.2239 4 16.4938 4 16.7753C4 17.0568 4.10536 17.3267 4.29289 17.5257C4.48043 17.7247 4.73478 17.8365 5 17.8365H11C11.2652 17.8365 11.5196 17.7247 11.7071 17.5257C11.8946 17.3267 12 17.0568 12 16.7753C12 16.4938 11.8946 16.2239 11.7071 16.0249C11.5196 15.8259 11.2652 15.7141 11 15.7141ZM5 9.34673H6C6.26522 9.34673 6.51957 9.23492 6.70711 9.0359C6.89464 8.83688 7 8.56696 7 8.2855C7 8.00405 6.89464 7.73412 6.70711 7.53511C6.51957 7.33609 6.26522 7.22428 6 7.22428H5C4.73478 7.22428 4.48043 7.33609 4.29289 7.53511C4.10536 7.73412 4 8.00405 4 8.2855C4 8.56696 4.10536 8.83688 4.29289 9.0359C4.48043 9.23492 4.73478 9.34673 5 9.34673ZM11 11.4692H5C4.73478 11.4692 4.48043 11.581 4.29289 11.78C4.10536 11.979 4 12.2489 4 12.5304C4 12.8119 4.10536 13.0818 4.29289 13.2808C4.48043 13.4798 4.73478 13.5916 5 13.5916H11C11.2652 13.5916 11.5196 13.4798 11.7071 13.2808C11.8946 13.0818 12 12.8119 12 12.5304C12 12.2489 11.8946 11.979 11.7071 11.78C11.5196 11.581 11.2652 11.4692 11 11.4692ZM15.71 14.9606C15.6149 14.864 15.5028 14.7883 15.38 14.7377C15.2606 14.6803 15.1311 14.6506 15 14.6506C14.8689 14.6506 14.7394 14.6803 14.62 14.7377C14.4972 14.7883 14.3851 14.864 14.29 14.9606C14.2017 15.0638 14.1306 15.1822 14.08 15.3108C14.0034 15.5041 13.9825 15.7171 14.0199 15.9229C14.0572 16.1288 14.1512 16.3183 14.29 16.4675C14.3834 16.5659 14.4943 16.6437 14.6161 16.6965C14.7379 16.7493 14.8684 16.7761 15 16.7753C15.1307 16.7736 15.2598 16.7448 15.38 16.6904C15.5012 16.6367 15.6128 16.5613 15.71 16.4675C15.8488 16.3183 15.9428 16.1288 15.9801 15.9229C16.0175 15.7171 15.9966 15.5041 15.92 15.3108C15.8694 15.1822 15.7983 15.0638 15.71 14.9606ZM16 8.22183C15.9896 8.12434 15.9695 8.0283 15.94 7.9353V7.83979C15.8919 7.73067 15.8278 7.63037 15.75 7.54265L9.75 1.1753C9.66734 1.09275 9.57282 1.02469 9.47 0.973668C9.44015 0.969169 9.40985 0.969169 9.38 0.973668C9.27841 0.911843 9.16622 0.872156 9.05 0.856934H3C2.20435 0.856934 1.44129 1.19236 0.87868 1.78941C0.316071 2.38646 0 3.19624 0 4.04061V18.8977C0 19.7421 0.316071 20.5519 0.87868 21.1489C1.44129 21.746 2.20435 22.0814 3 22.0814H11C11.2652 22.0814 11.5196 21.9696 11.7071 21.7706C11.8946 21.5716 12 21.3017 12 21.0202C12 20.7387 11.8946 20.4688 11.7071 20.2698C11.5196 20.0708 11.2652 19.959 11 19.959H3C2.73478 19.959 2.48043 19.8472 2.29289 19.6481C2.10536 19.4491 2 19.1792 2 18.8977V4.04061C2 3.75915 2.10536 3.48923 2.29289 3.29021C2.48043 3.09119 2.73478 2.97938 3 2.97938H8V6.16306C8 7.00742 8.31607 7.8172 8.87868 8.41425C9.44129 9.01131 10.2044 9.34673 11 9.34673H14V11.4692C14 11.7506 14.1054 12.0206 14.2929 12.2196C14.4804 12.4186 14.7348 12.5304 15 12.5304C15.2652 12.5304 15.5196 12.4186 15.7071 12.2196C15.8946 12.0206 16 11.7506 16 11.4692V8.2855C16 8.2855 16 8.2855 16 8.22183ZM11 7.22428C10.7348 7.22428 10.4804 7.11247 10.2929 6.91345C10.1054 6.71444 10 6.44451 10 6.16306V4.47571L12.59 7.22428H11ZM15 17.8365C14.7348 17.8365 14.4804 17.9483 14.2929 18.1473C14.1054 18.3464 14 18.6163 14 18.8977V21.0202C14 21.3017 14.1054 21.5716 14.2929 21.7706C14.4804 21.9696 14.7348 22.0814 15 22.0814C15.2652 22.0814 15.5196 21.9696 15.7071 21.7706C15.8946 21.5716 16 21.3017 16 21.0202V18.8977C16 18.6163 15.8946 18.3464 15.7071 18.1473C15.5196 17.9483 15.2652 17.8365 15 17.8365Z" fill="#4B4B4B"/>
</svg>
