<svg width="20" height="22" viewBox="0 0 20 22" fill="none" xmlns="http://www.w3.org/2000/svg">
<path d="M10 8.68735C9.38144 8.3373 8.66486 8.23508 7.98116 8.39936C7.29745 8.56365 6.69226 8.98348 6.27613 9.58216C5.86 10.1808 5.66071 10.9184 5.71466 11.6601C5.76862 12.4019 6.07222 13.0982 6.57 13.622L9.29 16.5086C9.38296 16.608 9.49356 16.687 9.61542 16.7409C9.73728 16.7947 9.86799 16.8225 10 16.8225C10.132 16.8225 10.2627 16.7947 10.3846 16.7409C10.5064 16.687 10.617 16.608 10.71 16.5086L13.43 13.622C13.9278 13.0982 14.2314 12.4019 14.2853 11.6601C14.3393 10.9184 14.14 10.1808 13.7239 9.58216C13.3077 8.98348 12.7025 8.56365 12.0188 8.39936C11.3351 8.23508 10.6186 8.3373 10 8.68735ZM12 12.1151L10 14.2375L8 12.1151C7.8278 11.9321 7.73108 11.684 7.73108 11.4253C7.73108 11.1667 7.8278 10.9186 8 10.7355C8.17249 10.5528 8.40626 10.4501 8.65 10.4501C8.89373 10.4501 9.12751 10.5528 9.3 10.7355C9.39296 10.835 9.50356 10.9139 9.62542 10.9678C9.74728 11.0217 9.87799 11.0494 10.01 11.0494C10.142 11.0494 10.2727 11.0217 10.3946 10.9678C10.5164 10.9139 10.627 10.835 10.72 10.7355C10.8946 10.5647 11.1248 10.4721 11.3623 10.4773C11.5997 10.4824 11.8261 10.5848 11.9941 10.763C12.162 10.9413 12.2585 11.1815 12.2634 11.4335C12.2682 11.6855 12.181 11.9298 12.02 12.1151H12ZM17 4.08164H10.72L10.4 3.02042C10.1926 2.39773 9.80775 1.85891 9.2989 1.47863C8.79005 1.09835 8.18236 0.895427 7.56 0.897973H3C2.20435 0.897973 1.44129 1.23339 0.87868 1.83045C0.316071 2.4275 0 3.23728 0 4.08164V17.8775C0 18.7219 0.316071 19.5317 0.87868 20.1287C1.44129 20.7258 2.20435 21.0612 3 21.0612H17C17.7956 21.0612 18.5587 20.7258 19.1213 20.1287C19.6839 19.5317 20 18.7219 20 17.8775V7.26531C20 6.42095 19.6839 5.61117 19.1213 5.01412C18.5587 4.41706 17.7956 4.08164 17 4.08164ZM18 17.8775C18 18.159 17.8946 18.4289 17.7071 18.6279C17.5196 18.827 17.2652 18.9388 17 18.9388H3C2.73478 18.9388 2.48043 18.827 2.29289 18.6279C2.10536 18.4289 2 18.159 2 17.8775V4.08164C2 3.80019 2.10536 3.53026 2.29289 3.33125C2.48043 3.13223 2.73478 3.02042 3 3.02042H7.56C7.76964 3.01985 7.97416 3.08921 8.14463 3.2187C8.3151 3.34819 8.44291 3.53127 8.51 3.74205L9.05 5.48246C9.11709 5.69324 9.2449 5.87632 9.41537 6.00581C9.58584 6.1353 9.79036 6.20466 10 6.20409H17C17.2652 6.20409 17.5196 6.3159 17.7071 6.51492C17.8946 6.71393 18 6.98386 18 7.26531V17.8775Z" fill="#4B4B4B"/>
</svg>
