<svg width="20" height="22" viewBox="0 0 20 22" fill="none" xmlns="http://www.w3.org/2000/svg">
<path d="M19 12.7347H18V2.12245H19C19.2652 2.12245 19.5196 2.01064 19.7071 1.81162C19.8946 1.61261 20 1.34268 20 1.06122C20 0.77977 19.8946 0.509844 19.7071 0.310825C19.5196 0.111807 19.2652 0 19 0H1C0.734784 0 0.48043 0.111807 0.292893 0.310825C0.105357 0.509844 0 0.77977 0 1.06122C0 1.34268 0.105357 1.61261 0.292893 1.81162C0.48043 2.01064 0.734784 2.12245 1 2.12245H2V12.7347H1C0.734784 12.7347 0.48043 12.8465 0.292893 13.0455C0.105357 13.2445 0 13.5145 0 13.7959C0 14.0774 0.105357 14.3473 0.292893 14.5463C0.48043 14.7453 0.734784 14.8571 1 14.8571H9V16.0776L4.45 19.2612C4.26333 19.3839 4.11988 19.5683 4.04177 19.786C3.96366 20.0037 3.95523 20.2427 4.01779 20.466C4.08035 20.6893 4.21042 20.8846 4.38793 21.0216C4.56544 21.1587 4.78053 21.23 5 21.2245C5.1966 21.2269 5.38896 21.1638 5.55 21.0441L9 18.6245V20.1633C9 20.4447 9.10536 20.7147 9.29289 20.9137C9.48043 21.1127 9.73478 21.2245 10 21.2245C10.2652 21.2245 10.5196 21.1127 10.7071 20.9137C10.8946 20.7147 11 20.4447 11 20.1633V18.6245L14.45 21.0441C14.611 21.1638 14.8034 21.2269 15 21.2245C15.2136 21.2227 15.4212 21.1484 15.5921 21.0124C15.7631 20.8764 15.8885 20.6859 15.95 20.4688C16.0115 20.2516 16.0058 20.0193 15.9338 19.8058C15.8619 19.5923 15.7273 19.4089 15.55 19.2825L11 16.0988V14.8571H19C19.2652 14.8571 19.5196 14.7453 19.7071 14.5463C19.8946 14.3473 20 14.0774 20 13.7959C20 13.5145 19.8946 13.2445 19.7071 13.0455C19.5196 12.8465 19.2652 12.7347 19 12.7347ZM16 12.7347H4V2.12245H16V12.7347Z" fill="#4B4B4B"/>
</svg>
