<svg width="18" height="21" viewBox="0 0 18 21" fill="none" xmlns="http://www.w3.org/2000/svg">
<path d="M17.095 10.4722C16.8564 10.4722 16.6276 10.5728 16.4588 10.7519C16.2901 10.931 16.1953 11.1738 16.1953 11.4271V17.156C16.1953 17.4093 16.1005 17.6521 15.9318 17.8312C15.763 18.0103 15.5342 18.1109 15.2956 18.1109H2.69922C2.46059 18.1109 2.23174 18.0103 2.06301 17.8312C1.89427 17.6521 1.79948 17.4093 1.79948 17.156V3.78847C1.79948 3.53523 1.89427 3.29237 2.06301 3.11331C2.23174 2.93424 2.46059 2.83364 2.69922 2.83364H8.09765C8.33628 2.83364 8.56513 2.73305 8.73386 2.55398C8.9026 2.37492 8.99739 2.13205 8.99739 1.87882C8.99739 1.62558 8.9026 1.38272 8.73386 1.20366C8.56513 1.02459 8.33628 0.923993 8.09765 0.923993H2.69922C1.98334 0.923993 1.29678 1.22579 0.790583 1.76298C0.284381 2.30017 0 3.02876 0 3.78847V17.156C0 17.9157 0.284381 18.6443 0.790583 19.1815C1.29678 19.7187 1.98334 20.0205 2.69922 20.0205H15.2956C16.0114 20.0205 16.698 19.7187 17.2042 19.1815C17.7104 18.6443 17.9948 17.9157 17.9948 17.156V11.4271C17.9948 11.1738 17.9 10.931 17.7313 10.7519C17.5625 10.5728 17.3337 10.4722 17.095 10.4722ZM3.59896 11.1979V15.2464C3.59896 15.4996 3.69375 15.7425 3.86248 15.9215C4.03122 16.1006 4.26007 16.2012 4.4987 16.2012H8.31359C8.432 16.2019 8.54938 16.1778 8.65901 16.1303C8.76863 16.0828 8.86833 16.0128 8.9524 15.9243L15.1786 9.30736L17.7339 6.65295C17.8182 6.56418 17.8851 6.45858 17.9308 6.34223C17.9765 6.22587 18 6.10107 18 5.97502C18 5.84897 17.9765 5.72417 17.9308 5.60782C17.8851 5.49146 17.8182 5.38586 17.7339 5.2971L13.919 1.20089C13.8353 1.1114 13.7358 1.04036 13.6262 0.99189C13.5165 0.943414 13.3989 0.918457 13.2802 0.918457C13.1614 0.918457 13.0438 0.943414 12.9341 0.99189C12.8245 1.04036 12.725 1.1114 12.6413 1.20089L10.1041 3.90305L3.85988 10.52C3.77649 10.6092 3.71052 10.715 3.66574 10.8314C3.62097 10.9477 3.59827 11.0723 3.59896 11.1979ZM13.2802 3.22512L15.8264 5.92728L14.5488 7.28313L12.0025 4.58098L13.2802 3.22512ZM5.39843 11.5894L10.7339 5.92728L13.2802 8.62944L7.9447 14.2916H5.39843V11.5894Z" fill="#FEFEFE"/>
</svg>
