<svg width="150" height="150" viewBox="0 0 150 150" fill="none" xmlns="http://www.w3.org/2000/svg">
<path fill-rule="evenodd" clip-rule="evenodd" d="M0.978657 49.1289H22.7891V55.3093H0.978657V49.1289V49.1289ZM22.7891 55.7307L9.08764 71.8841C9.22747 72.3523 9.75875 73.7945 10.7654 75.8171C22.6492 74.8339 25.1658 80.4524 25.7251 81.7166C26.2843 82.9808 27.634 89.0924 23.0687 92.5324C16.9994 97.1057 8.44136 93.8114 3.63511 89.1612L0 94.4989C1.49134 95.7162 5.22894 98.46 8.24888 99.6961C12.0238 101.241 18.7347 102.365 24.7465 99.6961C38.5953 93.5481 36.5003 71.6572 18.3153 69.9177L22.7891 64.4396V55.7308L22.7891 55.7307Z" fill="#A2B7B4"/>
<path fill-rule="evenodd" clip-rule="evenodd" d="M29.3281 63.8224V48.5434C43.3282 48.5434 64.2468 45.3064 71.5414 64.2247C76.7531 77.741 71.9956 94.0717 58.7324 98.8915C53.9477 100.63 47.2628 101.481 37.5455 100.629C38.9831 99.1853 41.4574 96.1983 42.3838 94.3348C72.6836 94.3348 67.2281 68.7093 60.9478 61.2478C54.7188 53.8473 46.9467 55.2857 36.738 55.2857V67.8333C35.5837 66.7316 33.0243 64.7795 29.3281 63.8224Z" fill="url(#paint0_radial_5447_2706)"/>
<path fill-rule="evenodd" clip-rule="evenodd" d="M94.1733 73.1516C109.482 73.1516 109.265 95.7353 94.1767 95.7664C81.9177 95.7916 79.8664 73.1516 94.1733 73.1516ZM83.0352 71.6422C92.0308 63.5727 107.765 67.6058 111.19 79.7502C114.25 90.6018 107.214 101.541 94.7339 101.666C85.773 101.755 77.6758 94.2976 77.6758 84.3888C77.6758 79.7234 79.0842 75.1865 83.0352 71.6422Z" fill="url(#paint1_radial_5447_2706)"/>
<path fill-rule="evenodd" clip-rule="evenodd" d="M115.723 101.498L118.12 68.3486H124.496L132.788 89.0368L140.803 68.3486H147.179L149.999 101.498H143.845L142.202 78.6728L135.542 95.8796H130.18L123.113 78.6755L122.018 101.498L115.723 101.498Z" fill="url(#paint2_radial_5447_2706)"/>
<defs>
<radialGradient id="paint0_radial_5447_2706" cx="0" cy="0" r="1" gradientUnits="userSpaceOnUse" gradientTransform="translate(41.2175 94.1222) rotate(-38.3287) scale(61.6345 61.7016)">
<stop stop-color="#4EF9FF"/>
<stop offset="0.548543" stop-color="#3797FE"/>
<stop offset="0.939051" stop-color="#294DFF"/>
</radialGradient>
<radialGradient id="paint1_radial_5447_2706" cx="0" cy="0" r="1" gradientUnits="userSpaceOnUse" gradientTransform="translate(101.058 109.253) rotate(-105.524) scale(53.3082 70.7943)">
<stop stop-color="#4EF9FF"/>
<stop offset="0.523874" stop-color="#3797FE"/>
<stop offset="1" stop-color="#294DFF"/>
</radialGradient>
<radialGradient id="paint2_radial_5447_2706" cx="0" cy="0" r="1" gradientUnits="userSpaceOnUse" gradientTransform="translate(133.16 103.678) rotate(-90) scale(47.3818 92.3168)">
<stop offset="0.0403449" stop-color="#4EF9FF"/>
<stop offset="0.572556" stop-color="#3797FE"/>
<stop offset="1" stop-color="#294DFF"/>
</radialGradient>
</defs>
</svg>
