<svg width="32" height="32" viewBox="0 0 32 32" fill="none" xmlns="http://www.w3.org/2000/svg">
<path d="M12.2728 19.7857C15.143 22.6409 18.4651 25.3684 19.7694 24.0514C21.6369 22.1663 22.7863 20.5262 26.9303 23.838C31.0743 27.1515 27.9094 29.3814 26.1007 31.2081C24.0136 33.3156 16.196 31.3558 8.44722 23.6494C0.698871 15.9414 -1.31643 8.1226 0.77229 6.01414C2.58153 4.18737 4.783 1.00001 8.1183 5.12861C11.4552 9.25513 9.82736 10.4196 7.9599 12.3053C6.65626 13.6218 9.40212 16.93 12.2728 19.7857ZM16.4346 6.16445C16.4346 6.16445 15.5688 6.0289 14.9626 6.63689C14.3385 7.26228 14.3113 8.33962 14.9689 8.99808C15.3575 9.38751 15.9055 9.47052 15.9055 9.47052C16.9738 9.6713 18.5837 10.0113 20.2971 11.7277C22.0098 13.444 22.3491 15.0574 22.5494 16.1285C22.5494 16.1285 22.6323 16.6777 23.0209 17.0671C23.678 17.7256 24.753 17.6988 25.377 17.0734C25.9833 16.466 25.8485 15.5983 25.8485 15.5983C25.5092 13.4299 24.4604 11.1649 22.6595 9.36023C20.8581 7.55557 18.5978 6.50497 16.4346 6.16445ZM24.5562 7.45935C27.6965 10.6063 29.0353 14.1778 28.5995 17.0719C28.5995 17.0719 28.4474 17.9884 29.0447 18.587C29.7171 19.2607 30.7826 19.2218 31.4119 18.5918C31.8163 18.1866 31.9043 17.527 31.9043 17.527C32.2647 15.026 31.8116 9.99458 26.9188 5.0919C22.0259 0.189149 17.0057 -0.264896 14.5099 0.095635C14.5099 0.095635 13.8523 0.18343 13.4475 0.589095C12.8182 1.21973 12.7799 2.28765 13.4522 2.96133C14.0495 3.55998 14.964 3.40749 14.964 3.40749C17.8521 2.97076 21.416 4.31249 24.5562 7.45935Z" fill="#FEFEFE"/>
</svg>
