<svg width="600" height="550" fill="none" xmlns="http://www.w3.org/2000/svg"><path fill="#fff" d="M0 0h600v550H0z"/><g clip-path="url(#a)"><path d="M501.379 499.739H92.347v14.457H501.38v-14.457z" fill="#E4CDA1"/><path fill-rule="evenodd" clip-rule="evenodd" d="M63 51.572h261.71V36h211.994l-17.96 212.896h-17.365v265.3H92.347V395.532H63V51.572z" fill="#FFF9D0"/><path d="M425.32 52.213H324.709v14.845H425.32V52.213zM485.808 257.793h-75.464v14.975h75.464v-14.975zM77.975 52.083H63v254.386h14.975V52.083z" fill="#20201F"/><path d="M77.975 273.661H63v14.976h14.975v-14.976zM77.674 366.355H63v29.177h14.674v-29.177zM107.323 380.565H92.347v133.631h14.976V380.565z" fill="#20201F"/><path d="M107.323 380.565H63v14.967h44.323v-14.967zM470.833 499.739H92.347v14.457h378.486v-14.457z" fill="#20201F"/><path d="M493.589 450.666h-22.756v63.53h22.756v-63.53zM493.589 251.806h-22.756v103.008h22.756V251.806zM433.101 234.441h-22.757v23.352h22.757v-23.352zM433.101 46.096h-22.757v74.554h22.757V46.096zM324.709 52.083H77.975v14.975H324.71V52.083z" fill="#20201F"/><path d="M347.466 36h-22.757v16.213h22.757V36zM355.247 36h-7.781v16.213h7.781V36z" fill="#20201F"/><path d="M440.89 36.512h-85.643v7.186h85.643v-7.186zM440.89 46.096h-7.789v74.554h7.789V46.096zM440.882 234.441h-7.781v23.352h7.781v-23.352zM501.379 242.222H440.89v7.186h60.489v-7.186zM501.378 251.806h-7.789v106.598h7.789V251.806zM501.378 447.041h-7.789v67.155h7.789v-67.155z" fill="#20201F"/><path d="M501.378 245.815h-64.607v15.632h64.607v-15.632zM440.89 37.703h-89.534v20.12h89.534v-20.12z" fill="#20201F"/><path fill-rule="evenodd" clip-rule="evenodd" d="M440.89 36.512h95.814l-17.96 212.896h-17.365v-7.186h10.757l16.753-198.524H440.89v-7.186z" fill="#20201F"/><path d="M176.791 267.972H77.976v4.788h98.815v-4.788zM291.17 436.853h-4.788v62.886h4.788v-62.886zM291.17 385.353h-4.788v51.5h4.788v-51.5zM291.17 335.647h-4.788v49.706h4.788v-49.706zM286.382 380.565h-97.49v4.788h97.49v-4.788zM146.977 380.565h-39.654v4.788h39.654v-4.788zM410.345 267.972H230.69v4.788h179.655v-4.788zM291.17 272.76h-4.788v14.975h4.788V272.76zM501.379 358.403h-3.853v88.637h3.853v-88.637zM493.614 354.806h-3.851v95.823h3.851v-95.823zM474.709 354.806h-3.852v95.823h3.852v-95.823zM440.892 120.652h-3.852v65.878h3.852v-65.878zM433.127 120.65h-3.851v65.88h3.851v-65.88zM414.222 120.65h-3.851v65.88h3.851v-65.88z" fill="#20201F"/><path d="M440.892 183.703h-30.543v2.827h30.543v-2.827z" fill="#20201F"/><path fill-rule="evenodd" clip-rule="evenodd" d="M182.016 270.597a1.702 1.702 0 0 1-3.402 0v-35.996a1.702 1.702 0 0 1 3.402 0v35.996zM228.761 270.939a.85.85 0 1 1-1.701 0c0-9.777-4.575-18.635-11.969-25.051-7.428-6.447-17.701-10.436-29.051-10.436a.851.851 0 1 1 0-1.701c11.767 0 22.434 4.149 30.16 10.854 7.76 6.734 12.561 16.045 12.561 26.334zM431.865 228.935a1.702 1.702 0 0 1 0 3.401h-35.996a1.701 1.701 0 0 1 0-3.401h35.996zM432.207 188.975a.85.85 0 0 1 0 1.701c-9.803 0-18.678 3.926-25.099 10.27-6.418 6.34-10.389 15.105-10.389 24.781a.851.851 0 1 1-1.701 0c0-10.145 4.167-19.337 10.901-25.99 6.729-6.648 16.024-10.762 26.288-10.762zM288.495 292.214a1.701 1.701 0 0 1 0-3.401h35.997a1.701 1.701 0 0 1 0 3.401h-35.997zM288.154 333.692a.85.85 0 1 1 0-1.701c9.796 0 18.667-4.069 25.085-10.647 6.426-6.586 10.402-15.688 10.402-25.739a.851.851 0 1 1 1.701 0c0 10.508-4.162 20.029-10.887 26.921-6.731 6.898-16.031 11.166-26.301 11.166zM73.622 312.494a1.701 1.701 0 0 1 0-3.402h35.997a1.701 1.701 0 0 1 0 3.402H73.622zM73.28 362.374a.85.85 0 0 1 0-1.7c9.766 0 18.62-4.877 25.037-12.757 6.456-7.931 10.451-18.899 10.451-31.022a.85.85 0 0 1 1.701 0c0 12.52-4.143 23.868-10.838 32.092-6.734 8.27-16.05 13.387-26.35 13.387zM184.583 382.908a1.7 1.7 0 1 1 3.401 0v35.996a1.702 1.702 0 0 1-3.401 0v-35.996zM149.432 382.566a.85.85 0 0 1 1.701 0c0 9.824 3.464 18.711 9.064 25.135 5.574 6.395 13.267 10.353 21.755 10.353a.85.85 0 0 1 0 1.701c-8.998 0-17.142-4.181-23.03-10.938-5.863-6.725-9.49-16.008-9.49-26.251zM429.643 461.187h-90.354v36.141h91.417v-36.141h-1.063zm-62.075 4.273c.994 0 1.9.406 2.554 1.065a3.606 3.606 0 0 1 1.061 2.549v20.41a3.624 3.624 0 0 1-3.615 3.614h-20.41a3.623 3.623 0 0 1-3.613-3.614v-20.41c0-.995.406-1.9 1.063-2.551a3.6 3.6 0 0 1 2.55-1.063h20.41zm51.565 1.689a4.99 4.99 0 0 1 3.532 1.464 4.985 4.985 0 0 1-.003 7.064 4.982 4.982 0 0 1-7.059-.002 4.975 4.975 0 0 1-1.466-3.53c0-1.378.56-2.628 1.464-3.532a4.982 4.982 0 0 1 3.532-1.464zm0 13.163c1.672 0 3.187.68 4.283 1.776a6.043 6.043 0 0 1 1.776 4.283c0 1.672-.68 3.187-1.776 4.284a6.04 6.04 0 0 1-4.283 1.775 6.046 6.046 0 0 1-4.284-1.775 6.044 6.044 0 0 1-1.775-4.284c0-1.671.679-3.187 1.775-4.283a6.047 6.047 0 0 1 4.284-1.776zm-3.232 2.827a4.558 4.558 0 0 1 3.232-1.339c1.263 0 2.407.513 3.232 1.339a4.56 4.56 0 0 1 1.339 3.232 4.556 4.556 0 0 1-1.339 3.232 4.556 4.556 0 0 1-3.232 1.339 4.558 4.558 0 0 1-3.232-1.339 4.556 4.556 0 0 1-1.339-3.232 4.56 4.56 0 0 1 1.339-3.232zm-9.763-17.053a6.04 6.04 0 0 1 4.283 1.775 6.041 6.041 0 0 1 1.776 4.284 6.043 6.043 0 0 1-1.775 4.284 6.043 6.043 0 0 1-4.284 1.775 6.041 6.041 0 0 1-4.283-1.776 6.037 6.037 0 0 1-1.776-4.283c0-1.671.679-3.187 1.776-4.284a6.042 6.042 0 0 1 4.283-1.775zm-3.232 2.827a4.558 4.558 0 0 1 3.232-1.339c1.263 0 2.407.513 3.232 1.339a4.556 4.556 0 0 1 1.339 3.232 4.56 4.56 0 0 1-1.338 3.233 4.558 4.558 0 0 1-3.233 1.338 4.556 4.556 0 0 1-3.232-1.339 4.556 4.556 0 0 1-1.339-3.232c0-1.262.513-2.407 1.339-3.232zm3.232 12.462a4.99 4.99 0 0 1 3.532 1.464 4.985 4.985 0 0 1-.003 7.064 4.982 4.982 0 0 1-7.059-.002 4.975 4.975 0 0 1-1.466-3.53c0-1.378.56-2.628 1.464-3.532a4.982 4.982 0 0 1 3.532-1.464zm-2.481 2.516a3.5 3.5 0 0 1 2.481-1.028c.971 0 1.849.392 2.481 1.025a3.513 3.513 0 0 1 .002 4.964 3.496 3.496 0 0 1-2.483 1.027 3.503 3.503 0 0 1-3.508-3.508c0-.968.394-1.847 1.027-2.48zm12.995-14.227a3.503 3.503 0 0 1 2.481-1.027c.971 0 1.849.392 2.481 1.025a3.512 3.512 0 0 1-2.481 5.991 3.5 3.5 0 0 1-2.481-1.028 3.484 3.484 0 0 1-1.027-2.48c0-.969.394-1.847 1.027-2.481zm-69.494-2.078h20.41c.408 0 .781.168 1.051.438.27.267.438.64.438 1.05v20.41a1.488 1.488 0 0 1-1.489 1.488h-20.41c-.41 0-.782-.167-1.049-.434a1.504 1.504 0 0 1-.438-1.054v-20.41c0-.406.168-.781.438-1.05a1.468 1.468 0 0 1 1.049-.438zm49.567 27.616v-31.889h31.855v31.889h-31.855zm-2.126-31.889v31.889h-53.184v-31.889h53.184zM136.588 464.544c-1.799 2.797-2.909 6.386-2.909 9.541 0 3.105 1.065 5.529 2.81 7.216h.005c.66.638 1.444 1.132 2.275 1.55h-3.588c-2.141 0-3.396.895-4.125 2.331-.665 1.307-.829 3.036-.829 4.932v.782h.02c.044 1.58.241 3.022.809 4.146.729 1.435 1.984 2.325 4.115 2.325h17.595c2.14 0 3.394-.89 4.118-2.325.564-1.124.767-2.566.81-4.146h.019v-.782c0-1.896-.164-3.625-.829-4.932-.724-1.436-1.978-2.331-4.118-2.331h-3.595c.831-.418 1.613-.907 2.275-1.55 1.748-1.687 2.814-4.111 2.814-7.216 0-3.335-1.243-7.151-3.226-10.014-1.829-2.641-4.303-4.495-7.064-4.495-2.924 0-5.528 2.079-7.382 4.968zm7.889 27.903v.005h-.002a2.315 2.315 0 0 1-1.631-.681h-.005a2.305 2.305 0 0 1 0-3.26v-.007l.005.001a2.314 2.314 0 0 1 3.266-.001 2.308 2.308 0 0 1-1.633 3.943zm.003-1.183h-.005c-.312 0-.593-.124-.793-.32v-.008a1.13 1.13 0 0 1-.33-.797c0-.315.125-.605.32-.8l.008-.005c.202-.197.483-.323.795-.323.322 0 .602.126.802.323.197.2.321.49.321.805 0 .315-.124.601-.33.797a1.081 1.081 0 0 1-.788.336v-.008zm8.286-6.851c1.444 0 2.269.568 2.729 1.466.464.933.621 2.225.648 3.686v.549c0 1.683-.129 3.191-.648 4.229-.46.9-1.287 1.461-2.729 1.461h-17.595c-1.44 0-2.263-.561-2.723-1.461-.524-1.038-.65-2.546-.65-4.229v-.609c.032-1.431.186-2.714.648-3.626.462-.906 1.291-1.466 2.735-1.466h17.585zm-3.011-19.457c1.811 2.612 2.944 6.093 2.944 9.129 0 2.653-.886 4.694-2.333 6.094-1.583 1.534-3.862 2.326-6.396 2.326-2.538 0-4.815-.792-6.401-2.326-1.444-1.4-2.328-3.441-2.328-6.094 0-2.868 1.014-6.143 2.658-8.703 1.584-2.467 3.74-4.243 6.071-4.243 2.192 0 4.228 1.58 5.785 3.817zM108.846 426.778l-.006-19.49c0-6.518 13.493-5.75 14.393-5.683 3.124 0 5.957 1.274 8.008 3.327a11.308 11.308 0 0 1 3.315 8.009v8.271c0 3.128-1.266 5.963-3.315 8.017a11.39 11.39 0 0 1-8.013 3.329c-.916.042-14.388.713-14.382-5.78zm13.143-9.705h.003c.006.685.276 1.318.727 1.769a2.534 2.534 0 0 0 1.765.718 2.481 2.481 0 0 0 2.493-2.49 2.48 2.48 0 0 0-.728-1.759v-.009h-.005a2.478 2.478 0 0 0-1.76-.732c-.682 0-1.315.281-1.765.732v.003a2.5 2.5 0 0 0-.734 1.765l.004.003zm1.271.004c0 .326.135.633.36.852.214.214.522.352.864.352.34 0 .649-.132.869-.346.212-.221.351-.521.348-.865 0-.343-.133-.64-.348-.861l-.005-.005a1.21 1.21 0 0 0-.864-.352c-.336 0-.644.142-.864.354l-.002.005a1.205 1.205 0 0 0-.347.854l.003.012h-.014zm-9.664-.004c0 3.142.936 5.994 2.439 8.068 1.571 2.155 3.767 3.494 6.2 3.496 2.442 0 4.637-1.341 6.212-3.496 1.511-2.082 2.439-4.936 2.439-8.079v-.013c-.008-3.135-.942-5.981-2.448-8.061-1.571-2.146-3.761-3.482-6.19-3.484l-.013.002c-2.439 0-4.622 1.336-6.2 3.499-1.506 2.069-2.439 4.92-2.437 8.06l-.002.008zm1.757 0c.006 2.753.813 5.241 2.112 7.041 1.242 1.698 2.933 2.755 4.77 2.755 1.849 0 3.54-1.057 4.787-2.769 1.293-1.79 2.098-4.274 2.098-7.038v-.005l.006-.008c-.006-2.756-.811-5.234-2.112-7.024-1.236-1.694-2.93-2.751-4.766-2.756l-.013.005c-1.84-.003-3.534 1.055-4.77 2.757-1.293 1.79-2.106 4.275-2.104 7.031v.011h-.008zm-4.747 9.699c0 4.839 12.525 4.015 12.557 4.015l.065-.008a9.559 9.559 0 0 0 6.764-2.791 9.575 9.575 0 0 0 2.799-6.776v-8.263a9.558 9.558 0 0 0-9.563-9.584l-.062-.002c-.031 0-12.56-.888-12.56 3.93v19.479zM281.556 454.018H181.528v40.878h100.028v-40.878zm-19.491 24.412a3.974 3.974 0 0 1-3.978-3.973c0-1.095.446-2.087 1.165-2.807a3.97 3.97 0 0 1 2.813-1.166c1.096 0 2.089.445 2.809 1.163a3.954 3.954 0 0 1 1.168 2.81 3.963 3.963 0 0 1-1.165 2.81 3.969 3.969 0 0 1-2.812 1.163zm-1.689-2.286a2.376 2.376 0 0 1-.698-1.687 2.382 2.382 0 0 1 2.387-2.384c.66 0 1.258.267 1.688.698.431.431.698 1.028.698 1.686a2.385 2.385 0 0 1-2.386 2.384 2.389 2.389 0 0 1-1.689-.697zm13.63 17.582-70.611-1.589c-10.605 0-19.289-7.086-19.289-17.68s8.684-17.68 19.289-17.68l70.611-1.589c1.368 0 2.612.559 3.512 1.458.9.903 1.46 2.145 1.46 3.508v28.606c0 1.362-.56 2.603-1.46 3.504a4.962 4.962 0 0 1-3.512 1.462zm-70.611-3.576c-9.518 0-17.3-6.184-17.3-15.693s7.782-15.693 17.3-15.693l70.611-1.59c.819 0 1.565.337 2.11.877.538.537.873 1.283.873 2.103v28.606c0 .82-.335 1.565-.877 2.107a2.974 2.974 0 0 1-2.106.873l-70.611-1.59zm-22.077-38.078h100.448c.499 0 .955.198 1.285.512.333.314.538.753.538 1.234v41.278c0 .481-.205.92-.534 1.234-.33.316-.787.512-1.289.512H181.318c-.502 0-.959-.196-1.29-.512a1.727 1.727 0 0 1-.533-1.234v-41.278c0-.479.206-.915.533-1.231.336-.318.79-.515 1.29-.515z" fill="#20201F"/><path d="M137.96 95.704h-2.126V196.8h2.126V95.704zM119.142 120.756V161h-9.313v-32.77h-8.049v-7.474h17.362zM160.051 110.151v14.373h-1.478v-13.059h-3.388v-1.314h4.866zm11.669 6.837c.904.302 1.595.753 2.074 1.356.493.602.739 1.327.739 2.176 0 .835-.225 1.567-.677 2.197-.452.616-1.102 1.095-1.951 1.437-.835.329-1.82.493-2.956.493-1.725 0-3.08-.369-4.066-1.109-.986-.739-1.478-1.745-1.478-3.018 0-.862.232-1.588.698-2.176.479-.603 1.17-1.054 2.074-1.356-.74-.287-1.301-.698-1.684-1.232-.383-.547-.575-1.19-.575-1.93 0-1.163.452-2.087 1.355-2.772.917-.684 2.142-1.026 3.676-1.026 1.012 0 1.895.157 2.648.472.767.301 1.362.739 1.787 1.314.424.575.636 1.246.636 2.012 0 .74-.198 1.383-.595 1.93-.397.534-.965.945-1.705 1.232zm-6.324-3.121c0 .794.315 1.424.945 1.889.63.466 1.499.699 2.608.699 1.108 0 1.978-.233 2.607-.699.644-.465.965-1.088.965-1.868 0-.808-.328-1.444-.985-1.91-.644-.465-1.506-.698-2.587-.698-1.096 0-1.965.233-2.608.698-.63.466-.945 1.095-.945 1.889zm3.553 9.528c1.273 0 2.265-.26 2.977-.781.725-.52 1.088-1.225 1.088-2.115 0-.889-.363-1.587-1.088-2.094-.712-.52-1.704-.78-2.977-.78-1.26 0-2.252.26-2.978.78-.712.507-1.067 1.205-1.067 2.094 0 .904.355 1.616 1.067 2.136.712.506 1.704.76 2.978.76zm8.941 1.232a1.07 1.07 0 0 1-.781-.329 1.129 1.129 0 0 1-.307-.801c0-.315.102-.575.307-.78.22-.219.48-.328.781-.328.301 0 .561.109.78.328.219.205.329.465.329.78s-.11.582-.329.801a1.066 1.066 0 0 1-.78.329zm13.257-1.417v1.314h-10.081v-1.047l5.975-5.852c.753-.739 1.259-1.376 1.519-1.91a3.64 3.64 0 0 0 .411-1.642c0-.849-.294-1.506-.883-1.971-.575-.48-1.403-.719-2.485-.719-1.683 0-2.99.534-3.921 1.601l-1.047-.903c.561-.657 1.273-1.163 2.135-1.519.876-.356 1.862-.534 2.957-.534 1.464 0 2.621.349 3.47 1.047.862.684 1.293 1.629 1.293 2.833 0 .74-.164 1.451-.492 2.136-.329.684-.952 1.471-1.869 2.361l-4.887 4.805h7.905zm5.634-7.166c2.08 0 3.593.376 4.537 1.129.959.739 1.438 1.78 1.438 3.121 0 .835-.199 1.581-.596 2.238-.383.657-.965 1.177-1.745 1.561-.78.369-1.738.554-2.875.554a8.747 8.747 0 0 1-2.936-.493c-.917-.342-1.656-.794-2.217-1.355l.718-1.17c.479.493 1.109.896 1.889 1.211a6.96 6.96 0 0 0 2.526.452c1.191 0 2.108-.267 2.751-.801.657-.534.986-1.245.986-2.135 0-.986-.37-1.732-1.109-2.238-.725-.507-1.957-.76-3.696-.76h-3.059l.739-7.207h7.864v1.314h-6.57l-.493 4.579h1.848zM164.285 150.032h-2.875v3.778h-1.478v-3.778h-8.111v-1.068l7.618-9.527h1.643l-7.351 9.281h6.242v-3.326h1.437v3.326h2.875v1.314zm7.086 3.901c-1.109 0-2.101-.294-2.977-.883-.862-.588-1.54-1.43-2.033-2.525-.479-1.109-.718-2.409-.718-3.901s.239-2.786.718-3.881c.493-1.109 1.171-1.958 2.033-2.546.876-.589 1.868-.883 2.977-.883 1.109 0 2.095.294 2.957.883.876.588 1.56 1.437 2.053 2.546.493 1.095.739 2.389.739 3.881s-.246 2.792-.739 3.901c-.493 1.095-1.177 1.937-2.053 2.525-.862.589-1.848.883-2.957.883zm0-1.355c.835 0 1.568-.233 2.197-.698.644-.465 1.143-1.143 1.499-2.033.356-.89.534-1.964.534-3.223 0-1.26-.178-2.334-.534-3.224-.356-.89-.855-1.567-1.499-2.033-.629-.465-1.362-.698-2.197-.698s-1.574.233-2.217.698c-.63.466-1.123 1.143-1.479 2.033-.356.89-.533 1.964-.533 3.224 0 1.259.177 2.333.533 3.223.356.89.849 1.568 1.479 2.033.643.465 1.382.698 2.217.698zm8.755 1.335c-.301 0-.561-.11-.78-.329a1.125 1.125 0 0 1-.308-.801c0-.314.102-.574.308-.78.219-.219.479-.328.78-.328.301 0 .561.109.78.328.219.206.329.466.329.78 0 .315-.11.582-.329.801a1.066 1.066 0 0 1-.78.329zm8.976-8.706c.945 0 1.78.178 2.505.534.739.356 1.314.862 1.725 1.519.411.643.616 1.396.616 2.259 0 .876-.212 1.649-.637 2.32a4.253 4.253 0 0 1-1.765 1.56c-.74.356-1.575.534-2.505.534-1.903 0-3.361-.623-4.374-1.868-1.013-1.26-1.519-3.032-1.519-5.318 0-1.602.273-2.957.821-4.066.547-1.108 1.314-1.943 2.3-2.505.985-.575 2.135-.862 3.449-.862 1.424 0 2.56.26 3.409.78l-.596 1.191c-.684-.452-1.615-.678-2.792-.678-1.588 0-2.834.507-3.737 1.52-.904.999-1.355 2.457-1.355 4.373 0 .343.02.733.061 1.171a3.824 3.824 0 0 1 1.704-1.807c.781-.438 1.677-.657 2.69-.657zm-.123 7.474c1.04 0 1.882-.281 2.525-.842.658-.575.986-1.335.986-2.279 0-.945-.328-1.698-.986-2.259-.643-.561-1.519-.842-2.628-.842-.725 0-1.369.137-1.93.411-.547.274-.979.65-1.293 1.129a2.853 2.853 0 0 0-.473 1.602c0 .547.144 1.054.432 1.519.301.466.739.842 1.314 1.13.575.287 1.259.431 2.053.431zm11.568-7.084c1.505.082 2.648.493 3.429 1.232.794.725 1.19 1.677 1.19 2.854 0 .821-.198 1.554-.595 2.197-.397.63-.986 1.129-1.766 1.499-.78.369-1.731.554-2.854.554a8.81 8.81 0 0 1-2.957-.493c-.917-.342-1.656-.793-2.217-1.355l.719-1.17c.479.493 1.115.897 1.909 1.211a7.102 7.102 0 0 0 2.546.452c1.177 0 2.088-.253 2.731-.76.643-.52.965-1.232.965-2.135 0-.89-.322-1.588-.965-2.094-.643-.507-1.615-.76-2.916-.76h-1.026v-1.088l3.983-4.99h-7.351v-1.314h9.24v1.047l-4.065 5.113zM163.878 179.318h-2.875v3.778h-1.478v-3.778h-8.11v-1.068l7.617-9.527h1.643l-7.351 9.281h6.242v-3.326h1.437v3.326h2.875v1.314zm11.092 2.464v1.314h-10.081v-1.047l5.975-5.852c.753-.739 1.259-1.376 1.519-1.909a3.644 3.644 0 0 0 .411-1.643c0-.849-.294-1.506-.883-1.971-.575-.479-1.403-.719-2.485-.719-1.683 0-2.99.534-3.921 1.602l-1.047-.904c.561-.657 1.273-1.163 2.135-1.519.876-.356 1.862-.534 2.957-.534 1.464 0 2.621.349 3.47 1.047.862.685 1.293 1.629 1.293 2.834 0 .739-.164 1.451-.492 2.135-.329.685-.952 1.472-1.869 2.361l-4.887 4.805h7.905zm3.165 1.417c-.301 0-.561-.11-.78-.329a1.124 1.124 0 0 1-.308-.8c0-.315.102-.575.308-.781.219-.219.479-.328.78-.328.301 0 .561.109.78.328.219.206.329.466.329.781 0 .314-.11.581-.329.8a1.066 1.066 0 0 1-.78.329zm11.677-7.638c.903.301 1.594.753 2.073 1.355.493.602.74 1.328.74 2.176 0 .835-.226 1.568-.678 2.197-.452.616-1.102 1.095-1.951 1.438-.835.328-1.82.492-2.956.492-1.725 0-3.08-.369-4.066-1.108-.985-.74-1.478-1.746-1.478-3.019 0-.862.232-1.588.698-2.176.479-.602 1.17-1.054 2.074-1.355-.739-.288-1.301-.698-1.684-1.232-.383-.548-.575-1.191-.575-1.93 0-1.164.452-2.088 1.355-2.772.917-.685 2.143-1.027 3.676-1.027 1.013 0 1.895.157 2.648.472.767.301 1.362.739 1.787 1.314.424.575.636 1.246.636 2.013 0 .739-.198 1.382-.595 1.93-.397.534-.965.944-1.704 1.232zm-6.325-3.121c0 .794.315 1.423.945 1.889.63.465 1.499.698 2.608.698 1.108 0 1.978-.233 2.607-.698.644-.466.965-1.089.965-1.869 0-.807-.328-1.444-.985-1.909-.644-.466-1.506-.698-2.587-.698-1.095 0-1.965.232-2.608.698-.63.465-.945 1.095-.945 1.889zm3.553 9.527c1.273 0 2.265-.26 2.977-.78.725-.521 1.088-1.225 1.088-2.115 0-.89-.363-1.588-1.088-2.095-.712-.52-1.704-.78-2.977-.78-1.26 0-2.252.26-2.978.78-.711.507-1.067 1.205-1.067 2.095 0 .903.356 1.615 1.067 2.135.712.507 1.705.76 2.978.76zm19.849-2.649h-2.875v3.778h-1.478v-3.778h-8.111v-1.068l7.618-9.527h1.642l-7.35 9.281h6.242v-3.326h1.437v3.326h2.875v1.314zM257.248 143.75h-5.667v8.418h-3.183v-11.046h8.85v2.628zm6.411 8.583c-1.164 0-2.211-.24-3.142-.719a5.506 5.506 0 0 1-2.156-2.033c-.52-.862-.78-1.841-.78-2.936s.26-2.074.78-2.936a5.365 5.365 0 0 1 2.156-2.012c.931-.493 1.978-.739 3.142-.739 1.163 0 2.203.246 3.121.739a5.363 5.363 0 0 1 2.155 2.012c.521.862.781 1.841.781 2.936s-.26 2.074-.781 2.936a5.503 5.503 0 0 1-2.155 2.033c-.918.479-1.958.719-3.121.719zm0-2.628c.821 0 1.492-.274 2.012-.822.534-.561.801-1.307.801-2.238s-.267-1.67-.801-2.217c-.52-.562-1.191-.842-2.012-.842-.822 0-1.499.28-2.033.842-.534.547-.801 1.286-.801 2.217s.267 1.677.801 2.238c.534.548 1.211.822 2.033.822zm13.516 2.628c-1.177 0-2.238-.24-3.182-.719a5.613 5.613 0 0 1-2.197-2.033c-.521-.862-.781-1.841-.781-2.936s.26-2.074.781-2.936a5.47 5.47 0 0 1 2.197-2.012c.944-.493 2.005-.739 3.182-.739 1.164 0 2.177.246 3.039.739a4.259 4.259 0 0 1 1.91 2.074l-2.485 1.334c-.575-1.013-1.403-1.519-2.484-1.519-.835 0-1.527.274-2.074.821-.548.548-.821 1.294-.821 2.238 0 .945.273 1.691.821 2.238.547.548 1.239.822 2.074.822 1.095 0 1.923-.507 2.484-1.52l2.485 1.355c-.397.876-1.034 1.561-1.91 2.054-.862.492-1.875.739-3.039.739zm16.136-8.583h-3.737v8.418h-3.183v-8.418h-3.737v-2.628h10.657v2.628zm1.707-2.628h3.183v6.57l5.379-6.57h2.937v11.046h-3.183v-6.57l-5.359 6.57h-2.957v-11.046zm14.578 0h3.182v4.312h4.805v-4.312h3.203v11.046h-3.203v-4.127h-4.805v4.127h-3.182v-11.046zm18.548-.164c1.711 0 3.025.41 3.942 1.232.917.807 1.376 2.032 1.376 3.675v6.303h-2.998v-1.375c-.602 1.026-1.725 1.54-3.367 1.54-.849 0-1.588-.144-2.218-.431-.616-.288-1.088-.685-1.417-1.191a3.107 3.107 0 0 1-.493-1.725c0-1.027.384-1.834 1.15-2.423.781-.589 1.978-.883 3.594-.883h2.546c0-.698-.213-1.232-.637-1.601-.424-.384-1.061-.575-1.909-.575-.589 0-1.171.095-1.746.287a4.452 4.452 0 0 0-1.437.739l-1.15-2.238c.602-.424 1.321-.753 2.156-.985a9.807 9.807 0 0 1 2.608-.349zm-.247 9.219c.548 0 1.034-.123 1.458-.37.425-.26.726-.636.904-1.129v-1.129h-2.197c-1.314 0-1.972.431-1.972 1.293 0 .411.158.739.473.986.328.232.773.349 1.334.349zm18.162-9.055v11.046h-2.854v-3.162h-2.361l-2.095 3.162h-3.408l2.525-3.613c-.766-.301-1.355-.733-1.765-1.294-.397-.575-.596-1.266-.596-2.074 0-1.3.465-2.299 1.396-2.997.945-.712 2.238-1.068 3.881-1.068h5.277zm-5.215 2.607c-.685 0-1.205.124-1.561.37-.342.246-.513.643-.513 1.191s.164.951.493 1.211c.342.247.855.37 1.54.37h2.402v-3.142h-2.361zM277.635 167.081v14.373h-3.326V169.75h-2.875v-2.669h6.201zm12.332 6.817c.712.355 1.253.821 1.622 1.396.384.575.575 1.239.575 1.991 0 .89-.253 1.67-.76 2.341-.506.657-1.218 1.171-2.135 1.54-.917.356-1.978.534-3.183.534-1.204 0-2.265-.178-3.182-.534-.904-.369-1.608-.883-2.115-1.54-.493-.671-.739-1.451-.739-2.341 0-.752.185-1.416.554-1.991.384-.575.924-1.041 1.622-1.396a3.55 3.55 0 0 1-1.232-1.232c-.287-.507-.431-1.082-.431-1.725 0-.835.233-1.561.698-2.177.466-.616 1.116-1.088 1.951-1.416.835-.343 1.793-.514 2.874-.514 1.096 0 2.061.171 2.896.514.848.328 1.505.8 1.971 1.416.465.616.698 1.342.698 2.177 0 .643-.144 1.218-.431 1.725-.288.492-.705.903-1.253 1.232zm-3.881-4.62c-.67 0-1.211.164-1.622.492-.397.315-.595.753-.595 1.315 0 .547.198.978.595 1.293.397.315.938.472 1.622.472.685 0 1.232-.157 1.643-.472.411-.315.616-.746.616-1.293 0-.562-.205-1-.616-1.315-.411-.328-.958-.492-1.643-.492zm0 9.979c.835 0 1.493-.185 1.972-.555.492-.383.739-.89.739-1.519 0-.63-.247-1.13-.739-1.499-.479-.37-1.137-.554-1.972-.554-.821 0-1.471.184-1.95.554-.479.369-.719.869-.719 1.499 0 .643.24 1.15.719 1.519.479.37 1.129.555 1.95.555zm9.69 2.361a1.925 1.925 0 0 1-1.416-.575c-.384-.383-.575-.862-.575-1.437 0-.589.191-1.061.575-1.417.383-.37.855-.554 1.416-.554.562 0 1.034.184 1.417.554.383.356.575.828.575 1.417 0 .575-.192 1.054-.575 1.437a1.925 1.925 0 0 1-1.417.575zm14.424-2.875v2.711h-10.862v-2.156l5.544-5.236c.589-.561.986-1.041 1.191-1.437a2.69 2.69 0 0 0 .308-1.212c0-.575-.198-1.013-.595-1.314-.383-.315-.952-.472-1.704-.472-.63 0-1.198.123-1.705.369-.506.233-.93.589-1.273 1.068l-2.423-1.56c.562-.835 1.335-1.486 2.321-1.951.985-.479 2.115-.719 3.388-.719 1.067 0 1.998.178 2.792.534.808.342 1.43.835 1.869 1.478.451.63.677 1.376.677 2.239 0 .78-.164 1.512-.493 2.197-.328.684-.965 1.464-1.909 2.34l-3.306 3.121h6.18zm6.301-6.262c2.026 0 3.518.404 4.476 1.211.972.808 1.458 1.889 1.458 3.244 0 .876-.219 1.677-.657 2.403-.438.712-1.109 1.286-2.013 1.724-.889.425-1.991.637-3.305.637-1.013 0-2.013-.13-2.998-.39-.972-.274-1.8-.657-2.485-1.15l1.314-2.546a6.48 6.48 0 0 0 1.89.965 7.425 7.425 0 0 0 2.197.329c.835 0 1.492-.165 1.971-.493.479-.329.718-.787.718-1.376 0-.616-.253-1.081-.759-1.396-.493-.315-1.356-.472-2.588-.472h-3.675l.739-8.09h8.768v2.669h-5.996l-.226 2.731h1.171zM357.139 362.061h-1.664v4.189h-3.203v-11.047h3.203v4.291h1.725l2.998-4.291h3.408l-3.86 5.297 4.127 5.75h-3.778l-2.956-4.189zm18.753-6.858-4.99 11.724c-.506 1.273-1.136 2.17-1.889 2.69-.739.52-1.635.78-2.689.78a5.615 5.615 0 0 1-1.705-.267c-.561-.178-1.019-.424-1.375-.739l1.17-2.279a2.77 2.77 0 0 0 1.807.698c.438 0 .794-.11 1.068-.329.273-.205.52-.554.739-1.047l.041-.102-4.784-11.129h3.305l3.101 7.494 3.121-7.494h3.08zm7.864 11.047-2.423-3.388-2.505 3.388h-3.491l4.25-5.565-4.106-5.482h3.593l2.341 3.224 2.402-3.224h3.409l-4.107 5.4 4.271 5.647h-3.634zm5.211-11.047h3.182v4.312h4.805v-4.312h3.203v11.047h-3.203v-4.128h-4.805v4.128h-3.182v-11.047zm24.071 0v11.047h-2.854v-3.163h-2.361l-2.095 3.163h-3.408l2.525-3.614c-.766-.301-1.355-.733-1.765-1.294-.397-.575-.596-1.266-.596-2.074 0-1.3.466-2.299 1.396-2.997.945-.712 2.239-1.068 3.881-1.068h5.277zm-5.215 2.608c-.685 0-1.205.123-1.561.369-.342.247-.513.643-.513 1.191s.164.951.493 1.211c.342.247.855.37 1.54.37h2.402v-3.141h-2.361zM368.041 381.163v14.373h-3.326v-11.704h-2.874v-2.669h6.2zm8.041 0v14.373h-3.326v-11.704h-2.875v-2.669h6.201zm4.386 14.537a1.927 1.927 0 0 1-1.417-.575c-.383-.383-.575-.862-.575-1.437 0-.589.192-1.061.575-1.417.383-.37.856-.554 1.417-.554s1.033.184 1.417.554c.383.356.575.828.575 1.417 0 .575-.192 1.054-.575 1.437a1.928 1.928 0 0 1-1.417.575zm8.708-14.537v14.373h-3.327v-11.704h-2.874v-2.669h6.201zm13.749 0v2.156l-5.339 12.217h-3.614l5.154-11.663h-4.764v2.341h-2.956v-5.051h11.519zM174.513 318.732l-3.006-3.96-3.024 3.96h-1.44l3.744-4.86-3.564-4.608h1.44l2.844 3.708 2.844-3.708h1.404l-3.564 4.608 3.78 4.86h-1.458zm7.125.09c-.912 0-1.734-.204-2.466-.612a4.594 4.594 0 0 1-1.728-1.728c-.42-.732-.63-1.56-.63-2.484 0-.924.21-1.752.63-2.484a4.465 4.465 0 0 1 1.728-1.71c.732-.408 1.554-.612 2.466-.612.912 0 1.734.204 2.466.612a4.34 4.34 0 0 1 1.71 1.71c.42.732.63 1.56.63 2.484 0 .924-.21 1.752-.63 2.484a4.465 4.465 0 0 1-1.71 1.728c-.732.408-1.554.612-2.466.612zm0-1.134c.672 0 1.272-.15 1.8-.45.54-.312.96-.75 1.26-1.314.3-.564.45-1.206.45-1.926s-.15-1.362-.45-1.926c-.3-.564-.72-.996-1.26-1.296-.528-.312-1.128-.468-1.8-.468-.672 0-1.278.156-1.818.468-.528.3-.948.732-1.26 1.296-.3.564-.45 1.206-.45 1.926s.15 1.362.45 1.926a3.406 3.406 0 0 0 1.26 1.314c.54.3 1.146.45 1.818.45zm15.225-8.424v9.468h-1.278v-8.334h-4.536l-.126 2.34c-.096 1.968-.324 3.48-.684 4.536-.36 1.056-1.002 1.584-1.926 1.584-.252 0-.558-.048-.918-.144l.09-1.098c.216.048.366.072.45.072.492 0 .864-.228 1.116-.684.252-.456.42-1.02.504-1.692.084-.672.156-1.56.216-2.664l.162-3.384h6.93zm11.373 0v9.468h-1.278v-8.334h-4.536l-.126 2.34c-.096 1.968-.324 3.48-.684 4.536-.36 1.056-1.002 1.584-1.926 1.584-.252 0-.558-.048-.918-.144l.09-1.098c.216.048.366.072.45.072.492 0 .864-.228 1.116-.684.252-.456.42-1.02.504-1.692.084-.672.156-1.56.216-2.664l.162-3.384h6.93zM175.963 340.477c.828 0 1.56.156 2.196.468a3.556 3.556 0 0 1 1.512 1.332c.36.564.54 1.224.54 1.98 0 .768-.186 1.446-.558 2.034a3.733 3.733 0 0 1-1.548 1.368c-.648.312-1.38.468-2.196.468-1.668 0-2.946-.546-3.834-1.638-.888-1.104-1.332-2.658-1.332-4.662 0-1.404.24-2.592.72-3.564s1.152-1.704 2.016-2.196c.864-.504 1.872-.756 3.024-.756 1.248 0 2.244.228 2.988.684l-.522 1.044c-.6-.396-1.416-.594-2.448-.594-1.392 0-2.484.444-3.276 1.332-.792.876-1.188 2.154-1.188 3.834 0 .3.018.642.054 1.026a3.351 3.351 0 0 1 1.494-1.584c.684-.384 1.47-.576 2.358-.576zm-.108 6.552c.912 0 1.65-.246 2.214-.738.576-.504.864-1.17.864-1.998 0-.828-.288-1.488-.864-1.98-.564-.492-1.332-.738-2.304-.738-.636 0-1.2.12-1.692.36-.48.24-.858.57-1.134.99-.276.42-.414.888-.414 1.404 0 .48.126.924.378 1.332.264.408.648.738 1.152.99.504.252 1.104.378 1.8.378zm7.004 1.08a.934.934 0 0 1-.684-.288.989.989 0 0 1-.27-.702c0-.276.09-.504.27-.684a.934.934 0 0 1 .684-.288c.264 0 .492.096.684.288.192.18.288.408.288.684 0 .276-.096.51-.288.702a.934.934 0 0 1-.684.288zm11.622-1.242v1.152h-8.838v-.918l5.238-5.13c.66-.648 1.104-1.206 1.332-1.674.24-.48.36-.96.36-1.44 0-.744-.258-1.32-.774-1.728-.504-.42-1.23-.63-2.178-.63-1.476 0-2.622.468-3.438 1.404l-.918-.792a4.846 4.846 0 0 1 1.872-1.332c.768-.312 1.632-.468 2.592-.468 1.284 0 2.298.306 3.042.918.756.6 1.134 1.428 1.134 2.484 0 .648-.144 1.272-.432 1.872-.288.6-.834 1.29-1.638 2.07l-4.284 4.212h6.93zm6.579 1.26c-.972 0-1.842-.258-2.61-.774-.756-.516-1.35-1.254-1.782-2.214-.42-.972-.63-2.112-.63-3.42 0-1.308.21-2.442.63-3.402.432-.972 1.026-1.716 1.782-2.232.768-.516 1.638-.774 2.61-.774s1.836.258 2.592.774c.768.516 1.368 1.26 1.8 2.232.432.96.648 2.094.648 3.402 0 1.308-.216 2.448-.648 3.42-.432.96-1.032 1.698-1.8 2.214-.756.516-1.62.774-2.592.774zm0-1.188c.732 0 1.374-.204 1.926-.612.564-.408 1.002-1.002 1.314-1.782.312-.78.468-1.722.468-2.826s-.156-2.046-.468-2.826c-.312-.78-.75-1.374-1.314-1.782-.552-.408-1.194-.612-1.926-.612s-1.38.204-1.944.612c-.552.408-.984 1.002-1.296 1.782-.312.78-.468 1.722-.468 2.826s.156 2.046.468 2.826c.312.78.744 1.374 1.296 1.782a3.231 3.231 0 0 0 1.944.612zM459.209 61.949v9.468h-1.278v-8.334h-4.537l-.126 2.34c-.096 1.968-.324 3.48-.684 4.536-.36 1.056-1.002 1.584-1.926 1.584-.252 0-.558-.048-.918-.144l.09-1.098c.216.048.366.072.45.072.492 0 .864-.228 1.116-.684.252-.456.42-1.02.504-1.692.084-.672.156-1.56.216-2.664l.162-3.384h6.931zm7.539 9.558c-.912 0-1.734-.204-2.466-.612a4.594 4.594 0 0 1-1.728-1.728c-.42-.732-.63-1.56-.63-2.484 0-.924.21-1.752.63-2.484a4.465 4.465 0 0 1 1.728-1.71c.732-.408 1.554-.612 2.466-.612.912 0 1.734.204 2.466.612a4.34 4.34 0 0 1 1.71 1.71c.42.732.63 1.56.63 2.484 0 .924-.21 1.752-.63 2.484a4.465 4.465 0 0 1-1.71 1.728c-.732.408-1.554.612-2.466.612zm0-1.134c.672 0 1.272-.15 1.8-.45.54-.312.96-.75 1.26-1.314.3-.564.45-1.206.45-1.926s-.15-1.362-.45-1.926c-.3-.564-.72-.996-1.26-1.296-.528-.312-1.128-.468-1.8-.468-.672 0-1.278.156-1.818.468-.528.3-.948.732-1.26 1.296-.3.564-.45 1.206-.45 1.926s.15 1.362.45 1.926a3.406 3.406 0 0 0 1.26 1.314c.54.3 1.146.45 1.818.45zm16.719-.072v3.402h-1.206v-2.286h-8.479v2.286h-1.206V70.3h.54c.636-.036 1.068-.504 1.296-1.404.228-.9.384-2.16.468-3.78l.126-3.168h6.985V70.3h1.476zm-7.416-5.112c-.061 1.344-.175 2.454-.343 3.33-.168.864-.468 1.458-.9 1.782h5.905v-7.218h-4.554l-.108 2.106zm18.204 2.016h-2.052v4.212h-1.278v-4.212h-2.052l-2.898 4.212h-1.53l3.402-4.878-3.132-4.59h1.386l2.772 4.158h2.052v-4.158h1.278v4.158h2.052l2.79-4.158h1.386l-3.132 4.608 3.402 4.86h-1.53l-2.916-4.212zm6.574-5.256h1.278v7.524l6.318-7.524h1.134v9.468h-1.278v-7.524l-6.3 7.524h-1.152v-9.468zm19.665 0v9.468h-1.17v-3.132h-3.331l-2.196 3.132h-1.386l2.358-3.312c-.732-.204-1.296-.552-1.692-1.044-.396-.492-.594-1.116-.594-1.872 0-1.056.36-1.86 1.08-2.412.72-.552 1.704-.828 2.952-.828h3.979zm-6.715 3.276c0 1.404.894 2.106 2.682 2.106h2.863v-4.248h-2.773c-1.848 0-2.772.714-2.772 2.142zM480.728 97.39h-2.52v3.313h-1.296v-3.312h-7.11v-.936l6.678-8.352h1.44l-6.444 8.136h5.472v-2.916h1.26v2.916h2.52v1.152zm2.514 3.403a.934.934 0 0 1-.684-.288.989.989 0 0 1-.27-.702c0-.276.09-.504.27-.684a.935.935 0 0 1 .684-.288c.264 0 .492.096.684.288.192.18.288.408.288.684 0 .276-.096.51-.288.702a.934.934 0 0 1-.684.288zm13.324-3.402h-2.52v3.312h-1.296v-3.312h-7.11v-.936l6.678-8.352h1.44l-6.444 8.136h5.472v-2.916h1.26v2.916h2.52v1.152zm4.225-9.288v12.6h-1.296V89.255h-2.97v-1.152h4.266zM222.634 419.713c1.824 0 3.15.33 3.978.99.84.648 1.26 1.56 1.26 2.736 0 .732-.174 1.386-.522 1.962-.336.576-.846 1.032-1.53 1.368-.684.324-1.524.486-2.52.486-.9 0-1.758-.144-2.574-.432-.804-.3-1.452-.696-1.944-1.188l.63-1.026c.42.432.972.786 1.656 1.062a6.096 6.096 0 0 0 2.214.396c1.044 0 1.848-.234 2.412-.702.576-.468.864-1.092.864-1.872 0-.864-.324-1.518-.972-1.962-.636-.444-1.716-.666-3.24-.666h-2.682l.648-6.318h6.894v1.152h-5.76l-.432 4.014h1.62zm7.856 7.524a.934.934 0 0 1-.684-.288.989.989 0 0 1-.27-.702c0-.276.09-.504.27-.684a.934.934 0 0 1 .684-.288c.264 0 .492.096.684.288.192.18.288.408.288.684 0 .276-.096.51-.288.702a.934.934 0 0 1-.684.288zm7.671.018c-.972 0-1.842-.258-2.61-.774-.756-.516-1.35-1.254-1.782-2.214-.42-.972-.63-2.112-.63-3.42 0-1.308.21-2.442.63-3.402.432-.972 1.026-1.716 1.782-2.232.768-.516 1.638-.774 2.61-.774s1.836.258 2.592.774c.768.516 1.368 1.26 1.8 2.232.432.96.648 2.094.648 3.402 0 1.308-.216 2.448-.648 3.42-.432.96-1.032 1.698-1.8 2.214-.756.516-1.62.774-2.592.774zm0-1.188c.732 0 1.374-.204 1.926-.612.564-.408 1.002-1.002 1.314-1.782.312-.78.468-1.722.468-2.826s-.156-2.046-.468-2.826c-.312-.78-.75-1.374-1.314-1.782-.552-.408-1.194-.612-1.926-.612s-1.38.204-1.944.612c-.552.408-.984 1.002-1.296 1.782-.312.78-.468 1.722-.468 2.826s.156 2.046.468 2.826c.312.78.744 1.374 1.296 1.782a3.231 3.231 0 0 0 1.944.612zm10.352-11.52v12.6h-1.296v-11.448h-2.97v-1.152h4.266z" fill="#20201F"/></g><defs><clipPath id="a"><path fill="#fff" transform="translate(63 36)" d="M0 0h473.704v478.196H0z"/></clipPath></defs></svg>