<svg width="450" height="600" viewBox="0 0 450 600" fill="none" xmlns="http://www.w3.org/2000/svg">
<rect width="450" height="600" fill="white"/>
<g clip-path="url(#clip0_2384_28725)">
<path fill-rule="evenodd" clip-rule="evenodd" d="M410.22 478.75H395.253V478.724H265.296V574.564L53.9755 555.234V574.564H39V26H410.22V478.75Z" fill="#2A2274"/>
<path fill-rule="evenodd" clip-rule="evenodd" d="M39 26H410.22V478.724H265.296V574.564L39 553.864V478.724V26Z" fill="#C6C0E1"/>
<path d="M410.22 26H395.253V478.75H410.22V26Z" fill="#ED9FA6"/>
<path fill-rule="evenodd" clip-rule="evenodd" d="M410.22 70.9178H395.253V40.9754H53.9755V574.564H39V26H410.22V70.9178Z" fill="#CFD0D0"/>
<path fill-rule="evenodd" clip-rule="evenodd" d="M39 26H410.22V478.724H265.296V574.564L39 553.864V478.724V26Z" fill="#FFF9D0"/>
<path d="M410.22 26H395.253V478.75H410.22V26Z" fill="#E4CDA1"/>
<path d="M410.22 448.204H395.253V463.18H410.22V448.204Z" fill="#20201F"/>
<path d="M238.347 427.242H202.417V463.18H238.347V427.242Z" fill="#20201F"/>
<path d="M410.22 26H395.253V448.204H410.22V26Z" fill="#20201F"/>
<path d="M53.9755 26H39V570.976H53.9755V26Z" fill="#20201F"/>
<path d="M189.245 26H39V40.9754H189.245V26Z" fill="#20201F"/>
<path d="M410.22 26H249.13V40.9754H410.22V26Z" fill="#20201F"/>
<path d="M53.8964 570.976H39V574.564H53.8964V570.976Z" fill="#20201F"/>
<path d="M82.64 448.204H53.9758V470.961H82.64V448.204Z" fill="#20201F"/>
<path d="M269.488 448.204H184.449V470.944H269.488V448.204Z" fill="#20201F"/>
<path d="M410.22 448.204H395.253V470.961H410.22V448.204Z" fill="#20201F"/>
<path d="M410.22 470.961H391.656V478.751H410.22V470.961Z" fill="#20201F"/>
<path d="M273.085 470.944H184.449V478.751H273.085V470.944Z" fill="#20201F"/>
<path d="M82.64 470.961H53.9758V478.751H82.64V470.961Z" fill="#20201F"/>
<path d="M69.4671 478.75H62.2812V574.564H69.4671V478.75Z" fill="#20201F"/>
<path d="M64.1614 475.966H47.8491V574.564H64.1614V475.966Z" fill="#20201F"/>
<path fill-rule="evenodd" clip-rule="evenodd" d="M258.11 478.75H265.296V574.564L69.467 556.604V549.384L258.11 566.69V478.75Z" fill="#20201F"/>
<path d="M201.687 194.905H173.071V199.676H201.687V194.905Z" fill="#20201F"/>
<path d="M201.686 194.905H196.899V265.547H201.686V194.905Z" fill="#20201F"/>
<path d="M177.867 138.482H173.071V199.701H177.867V138.482Z" fill="#20201F"/>
<path d="M277.278 194.905H257.88V199.701H277.278V194.905Z" fill="#20201F"/>
<path d="M173.071 194.905H53.8965V199.676H173.071V194.905Z" fill="#20201F"/>
<path d="M177.867 40.9753H173.071V101.311H177.867V40.9753Z" fill="#20201F"/>
<path d="M277.278 114.186H272.482V199.701H277.278V114.186Z" fill="#20201F"/>
<path d="M395.253 119.671H277.278V124.459H395.253V119.671Z" fill="#20201F"/>
<path d="M277.278 40.9753H272.482V47.5234H277.278V40.9753Z" fill="#20201F"/>
<path d="M391.663 474.872H273.076V478.724H391.663V474.872Z" fill="#20201F"/>
<path d="M395.252 467.107H269.486V470.959H395.252V467.107Z" fill="#20201F"/>
<path d="M395.252 448.202H269.486V452.054H395.252V448.202Z" fill="#20201F"/>
<path d="M184.447 474.872H130.551V478.724H184.447V474.872Z" fill="#20201F"/>
<path d="M184.449 467.107H130.551V470.959H184.449V467.107Z" fill="#20201F"/>
<path d="M184.449 448.202H130.551V452.054H184.449V448.202Z" fill="#20201F"/>
<path d="M133.377 448.203H130.551V478.745H133.377V448.203Z" fill="#20201F"/>
<path fill-rule="evenodd" clip-rule="evenodd" d="M243.691 29.3616C243.691 28.4228 244.453 27.6608 245.392 27.6608C246.331 27.6608 247.093 28.4228 247.093 29.3616V65.3579C247.093 66.2968 246.331 67.0587 245.392 67.0587C244.453 67.0587 243.691 66.2968 243.691 65.3579V29.3616Z" fill="#20201F"/>
<path fill-rule="evenodd" clip-rule="evenodd" d="M191.641 29.0197C191.641 28.5502 192.022 28.1693 192.491 28.1693C192.96 28.1693 193.341 28.5502 193.341 29.0197C193.341 38.7788 198.427 47.6288 206.644 54.0459C214.921 60.508 226.372 64.5074 239.028 64.5074C239.497 64.5074 239.878 64.8884 239.878 65.3578C239.878 65.8272 239.497 66.2082 239.028 66.2082C225.989 66.2082 214.168 62.0694 205.602 55.381C196.978 48.6467 191.641 39.3273 191.641 29.0197Z" fill="#20201F"/>
<path fill-rule="evenodd" clip-rule="evenodd" d="M175.368 103.129C176.307 103.129 177.069 103.891 177.069 104.83C177.069 105.769 176.307 106.531 175.368 106.531H139.372C138.433 106.531 137.671 105.769 137.671 104.83C137.671 103.891 138.433 103.129 139.372 103.129H175.368Z" fill="#20201F"/>
<path fill-rule="evenodd" clip-rule="evenodd" d="M175.71 135.48C176.18 135.48 176.561 135.862 176.561 136.331C176.561 136.8 176.18 137.181 175.71 137.181C165.488 137.181 156.22 134.012 149.502 128.888C142.719 123.715 138.522 116.548 138.522 108.619C138.522 108.15 138.903 107.769 139.372 107.769C139.842 107.769 140.223 108.15 140.223 108.619C140.223 115.991 144.163 122.683 150.531 127.54C156.964 132.446 165.866 135.48 175.71 135.48Z" fill="#20201F"/>
<path fill-rule="evenodd" clip-rule="evenodd" d="M88.3093 468.749C88.3093 469.688 87.5473 470.45 86.6085 470.45C85.6696 470.45 84.9077 469.688 84.9077 468.749V432.753C84.9077 431.814 85.6696 431.052 86.6085 431.052C87.5473 431.052 88.3093 431.814 88.3093 432.753V468.749Z" fill="#20201F"/>
<path fill-rule="evenodd" clip-rule="evenodd" d="M128.404 469.091C128.404 469.56 128.023 469.941 127.553 469.941C127.084 469.941 126.703 469.56 126.703 469.091C126.703 459.288 122.765 450.415 116.401 443.996C110.038 437.575 101.243 433.603 91.534 433.603C91.0645 433.603 90.6836 433.222 90.6836 432.753C90.6836 432.283 91.0645 431.902 91.534 431.902C101.711 431.902 110.931 436.067 117.604 442.8C124.275 449.53 128.404 458.827 128.404 469.091Z" fill="#20201F"/>
<path fill-rule="evenodd" clip-rule="evenodd" d="M147.025 202.623H56.6704V238.765H148.088V202.623H147.025ZM84.9494 206.897C85.9435 206.897 86.85 207.303 87.5039 207.961C88.157 208.616 88.5644 209.519 88.5644 210.511V230.92C88.5644 231.912 88.157 232.815 87.5039 233.474C86.85 234.128 85.9435 234.534 84.9494 234.534H64.5399C63.5484 234.534 62.6444 234.127 61.987 233.474C61.3331 232.82 60.9266 231.915 60.9266 230.92V210.511C60.9266 209.516 61.3331 208.611 61.9896 207.96C62.6444 207.304 63.5484 206.897 64.5399 206.897H84.9494ZM136.515 208.586C137.891 208.586 139.141 209.146 140.046 210.05C140.95 210.954 141.511 212.204 141.511 213.582C141.511 214.957 140.95 216.206 140.044 217.113C139.139 218.017 137.89 218.578 136.515 218.578C135.137 218.578 133.887 218.017 132.985 217.112C132.079 216.208 131.519 214.958 131.519 213.582C131.519 212.204 132.079 210.954 132.983 210.05C133.887 209.146 135.137 208.586 136.515 208.586ZM136.515 221.749C138.187 221.749 139.702 222.428 140.798 223.524C141.894 224.621 142.574 226.137 142.574 227.808C142.574 229.48 141.894 230.995 140.798 232.091C139.702 233.187 138.187 233.867 136.515 233.867C134.844 233.867 133.327 233.187 132.231 232.091C131.135 230.995 130.456 229.48 130.456 227.808C130.456 226.137 131.135 224.621 132.231 223.524C133.327 222.428 134.844 221.749 136.515 221.749ZM133.282 224.575C134.108 223.75 135.253 223.237 136.515 223.237C137.778 223.237 138.921 223.75 139.747 224.575C140.573 225.401 141.086 226.546 141.086 227.808C141.086 229.071 140.573 230.214 139.747 231.04C138.921 231.866 137.778 232.379 136.515 232.379C135.253 232.379 134.108 231.866 133.282 231.04C132.457 230.214 131.944 229.071 131.944 227.808C131.944 226.546 132.457 225.401 133.282 224.575ZM123.52 207.523C125.192 207.523 126.707 208.202 127.803 209.298C128.899 210.394 129.579 211.91 129.579 213.582C129.579 215.253 128.9 216.77 127.804 217.866C126.708 218.962 125.192 219.641 123.52 219.641C121.848 219.641 120.333 218.961 119.236 217.865C118.14 216.769 117.461 215.253 117.461 213.582C117.461 211.911 118.14 210.394 119.236 209.298C120.333 208.202 121.849 207.523 123.52 207.523ZM120.288 210.349C121.113 209.524 122.258 209.011 123.52 209.011C124.783 209.011 125.926 209.524 126.752 210.349C127.578 211.175 128.091 212.319 128.091 213.582C128.091 214.844 127.579 215.989 126.753 216.815C125.927 217.641 124.783 218.152 123.52 218.152C122.257 218.152 121.113 217.64 120.288 216.814C119.462 215.988 118.949 214.844 118.949 213.582C118.949 212.32 119.462 211.175 120.288 210.349ZM123.52 222.812C124.896 222.812 126.146 223.372 127.052 224.276C127.956 225.18 128.516 226.43 128.516 227.808C128.516 229.183 127.956 230.432 127.049 231.34C126.144 232.243 124.895 232.804 123.52 232.804C122.142 232.804 120.892 232.243 119.99 231.338C119.084 230.434 118.524 229.184 118.524 227.808C118.524 226.43 119.084 225.18 119.988 224.276C120.892 223.372 122.142 222.812 123.52 222.812ZM121.039 225.327C121.673 224.694 122.551 224.3 123.52 224.3C124.491 224.3 125.369 224.692 126 225.325C126.634 225.961 127.028 226.839 127.028 227.808C127.028 228.779 126.636 229.657 126.003 230.288C125.369 230.924 124.491 231.316 123.52 231.316C122.551 231.316 121.673 230.922 121.039 230.288C120.404 229.657 120.012 228.779 120.012 227.808C120.012 226.839 120.406 225.961 121.039 225.327ZM134.034 211.101C134.668 210.467 135.546 210.074 136.515 210.074C137.486 210.074 138.363 210.466 138.995 211.098C139.629 211.735 140.023 212.613 140.023 213.582C140.023 214.553 139.631 215.43 138.998 216.062C138.363 216.697 137.486 217.089 136.515 217.089C135.546 217.089 134.668 216.696 134.034 216.062C133.399 215.43 133.007 214.553 133.007 213.582C133.007 212.613 133.401 211.735 134.034 211.101ZM64.5399 209.023H84.9494C85.3575 209.023 85.7309 209.191 86.0004 209.461C86.2709 209.728 86.4384 210.101 86.4384 210.511V230.92C86.4384 231.33 86.2709 231.703 86.0021 231.972C85.7309 232.24 85.3575 232.408 84.9494 232.408H64.5399C64.13 232.408 63.7575 232.242 63.4905 231.975C63.2209 231.701 63.0526 231.327 63.0526 230.92V210.511C63.0526 210.104 63.2209 209.73 63.4905 209.461C63.7575 209.189 64.13 209.023 64.5399 209.023ZM114.107 236.639V204.749H145.962V236.639H114.107ZM111.981 204.749V236.639H58.7964V204.749H111.981Z" fill="#20201F"/>
<path fill-rule="evenodd" clip-rule="evenodd" d="M89.3245 157.757C86.5276 159.556 82.9389 160.667 79.784 160.667C76.6783 160.667 74.2547 159.601 72.5675 157.857V157.852C71.9297 157.191 71.4357 156.407 71.0173 155.576V159.164C71.0173 161.305 70.1226 162.56 68.6863 163.289C67.3793 163.954 65.6504 164.118 63.7549 164.118H62.9725V164.099C61.3925 164.055 59.9502 163.857 58.8269 163.289C57.3914 162.56 56.501 161.305 56.501 159.174V141.58C56.501 139.439 57.3914 138.186 58.8269 137.461C59.9502 136.897 61.3925 136.694 62.9725 136.651V136.632H63.7549C65.6504 136.632 67.3793 136.796 68.6863 137.461C70.1226 138.186 71.0173 139.439 71.0173 141.58V145.174C71.4357 144.343 71.9246 143.562 72.5675 142.899C74.2547 141.152 76.6783 140.085 79.784 140.085C83.1184 140.085 86.9349 141.329 89.7974 143.311C92.4387 145.14 94.2925 147.614 94.2925 150.375C94.2925 153.3 92.2133 155.904 89.3245 157.757ZM61.4214 149.868H61.4163V149.871C61.4163 150.502 61.6799 151.083 62.0975 151.501V151.506C62.515 151.923 63.0907 152.181 63.7294 152.181C64.3689 152.181 64.9395 151.923 65.357 151.506H65.3647L65.3638 151.501C65.7814 151.08 66.0391 150.502 66.0391 149.871C66.0391 149.23 65.7814 148.651 65.3647 148.236C64.9471 147.819 64.3689 147.558 63.7294 147.558C63.0907 147.558 62.5201 147.819 62.0975 148.236C61.6799 148.651 61.4214 149.23 61.4214 149.868ZM62.6043 149.866V149.871C62.6043 150.182 62.7285 150.464 62.9249 150.663H62.9326C63.1341 150.865 63.4198 150.993 63.7294 150.993C64.0449 150.993 64.334 150.868 64.5296 150.674L64.5347 150.665C64.7311 150.464 64.8579 150.182 64.8579 149.871C64.8579 149.549 64.7311 149.269 64.5347 149.068C64.334 148.872 64.0449 148.747 63.7294 148.747C63.4147 148.747 63.1282 148.872 62.9326 149.077C62.7234 149.274 62.5967 149.558 62.5967 149.866H62.6043ZM69.4551 141.58C69.4551 140.136 68.8879 139.311 67.989 138.851C67.057 138.386 65.7644 138.23 64.3034 138.203H63.7549C62.072 138.203 60.5634 138.331 59.525 138.851C58.6253 139.311 58.0649 140.137 58.0649 141.58V159.174C58.0649 160.615 58.6253 161.437 59.525 161.897C60.5634 162.421 62.072 162.548 63.7549 162.548H64.3638C65.7941 162.515 67.0774 162.361 67.989 161.9C68.8955 161.437 69.4551 160.608 69.4551 159.164V141.58ZM88.9129 144.591C86.3005 142.779 82.8199 141.647 79.784 141.647C77.1307 141.647 75.0898 142.533 73.6892 143.979C72.1559 145.562 71.3634 147.841 71.3634 150.375C71.3634 152.914 72.1559 155.19 73.6892 156.777C75.0898 158.22 77.1307 159.104 79.784 159.104C82.6515 159.104 85.9264 158.09 88.486 156.446C90.953 154.863 92.7295 152.706 92.7295 150.375C92.7295 148.184 91.1495 146.147 88.9129 144.591Z" fill="#20201F"/>
<path fill-rule="evenodd" clip-rule="evenodd" d="M56.0386 121.307L56.0327 101.817C56.0327 95.2985 69.525 96.0664 70.4256 96.1336C73.5491 96.1336 76.3826 97.4075 78.4329 99.4604C80.4798 101.508 81.7486 104.347 81.7486 107.469V115.74C81.7486 118.869 80.4823 121.704 78.4329 123.758C76.3826 125.804 73.544 127.073 70.4205 127.087C69.5046 127.129 56.0327 127.8 56.0386 121.307ZM69.1815 111.601H69.184C69.1908 112.287 69.4604 112.92 69.9111 113.371C70.3695 113.815 70.9945 114.089 71.6765 114.089C72.3653 114.089 72.9912 113.813 73.4411 113.362C73.8926 112.911 74.169 112.287 74.169 111.599C74.169 110.915 73.8926 110.29 73.4411 109.839V109.831H73.436C72.9861 109.38 72.3653 109.099 71.6765 109.099C70.9945 109.099 70.361 109.38 69.9111 109.831V109.833C69.4604 110.284 69.1772 110.915 69.1772 111.599L69.1815 111.601ZM70.4528 111.606C70.4528 111.931 70.5872 112.238 70.8125 112.458C71.0268 112.672 71.3347 112.81 71.6765 112.81C72.0167 112.81 72.3254 112.678 72.5456 112.464C72.7574 112.243 72.8968 111.942 72.8934 111.599C72.8934 111.255 72.7599 110.959 72.5456 110.738L72.5405 110.733C72.3254 110.515 72.0167 110.381 71.6765 110.381C71.3406 110.381 71.0328 110.523 70.8125 110.735L70.81 110.74C70.594 110.955 70.4639 111.262 70.4639 111.594L70.4664 111.606H70.4528ZM60.7881 111.601C60.7881 114.744 61.7244 117.596 63.227 119.67C64.7985 121.825 66.9942 123.164 69.4272 123.166C71.8696 123.166 74.0644 121.825 75.6393 119.67C77.1505 117.588 78.0783 114.734 78.0783 111.591V111.578C78.0706 108.443 77.136 105.597 75.63 103.517C74.0593 101.371 71.8696 100.034 69.4408 100.033L69.4272 100.034C66.9883 100.034 64.8053 101.371 63.227 103.534C61.7218 105.603 60.7881 108.454 60.7906 111.594L60.7881 111.601ZM62.5458 111.601C62.5509 114.355 63.3588 116.843 64.6574 118.643C65.8989 120.341 67.5904 121.398 69.4272 121.398C71.276 121.398 72.9674 120.341 74.2141 118.629C75.5075 116.839 76.3129 114.355 76.3129 111.591V111.586L76.318 111.578C76.3129 108.821 75.5075 106.343 74.2064 104.553C72.97 102.859 71.276 101.803 69.4408 101.798L69.4272 101.803C67.587 101.8 65.8938 102.858 64.6574 104.559C63.3639 106.35 62.5509 108.835 62.5535 111.591V111.601H62.5458ZM57.7981 121.301C57.7981 126.14 70.3235 125.316 70.3559 125.316L70.4205 125.308C73.0601 125.308 75.448 124.243 77.1845 122.517C78.9151 120.776 79.9832 118.384 79.9832 115.74V107.478C79.9832 104.825 78.9202 102.428 77.1845 100.695C75.4565 98.9645 73.0601 97.8991 70.4205 97.8939L70.3584 97.8914C70.3269 97.8914 57.7981 97.0036 57.7981 101.822V121.301Z" fill="#20201F"/>
<path fill-rule="evenodd" clip-rule="evenodd" d="M58.8001 45.8471H160.389V87.4058H58.8001V45.8471ZM78.5953 70.6658C79.711 70.6658 80.7216 70.2134 81.4521 69.4829C82.1823 68.7487 82.6347 67.7396 82.6347 66.6264C82.6347 65.5133 82.1823 64.5041 81.4521 63.7731C80.7176 63.0395 79.7088 62.5871 78.5953 62.5871C77.4822 62.5871 76.473 63.0395 75.742 63.7697C75.0084 64.5002 74.5559 65.5107 74.5559 66.6264C74.5559 67.7421 75.0084 68.7527 75.7388 69.4829C76.469 70.2134 77.4796 70.6658 78.5953 70.6658ZM80.3106 68.3414C80.7477 67.9046 81.0189 67.2968 81.0189 66.6264C81.0189 65.9558 80.7477 65.3483 80.3106 64.9112C79.8735 64.4741 79.266 64.2028 78.5953 64.2028C77.9249 64.2028 77.3175 64.4741 76.8812 64.912C76.4433 65.3508 76.1717 65.9575 76.1717 66.6264C76.1717 67.2954 76.4433 67.902 76.8812 68.3408C77.3197 68.7785 77.9263 69.0501 78.5953 69.0501C79.2643 69.0501 79.8709 68.7785 80.3106 68.3414ZM66.4676 86.2164L138.18 84.6006C148.951 84.6006 157.77 77.3969 157.77 66.6264C157.77 55.8559 148.951 48.6519 138.18 48.6519L66.4676 47.0362C65.078 47.0362 63.8146 47.6051 62.9007 48.5187C61.9871 49.4366 61.4185 50.6991 61.4185 52.0855V81.1673C61.4185 82.552 61.9863 83.814 62.9007 84.7299C63.8209 85.6486 65.0828 86.2164 66.4676 86.2164ZM138.18 82.5809C147.847 82.5809 155.751 76.2934 155.751 66.6264C155.751 56.9594 147.847 50.6716 138.18 50.6716L66.4676 49.0559C65.6362 49.0559 64.8785 49.3977 64.3251 49.9471C63.7781 50.493 63.4382 51.251 63.4382 52.0855V81.1673C63.4382 82.0018 63.7781 82.7587 64.3291 83.3097C64.8762 83.8568 65.633 84.1967 66.4676 84.1967L138.18 82.5809ZM160.602 43.8685H58.5867C58.0796 43.8685 57.6164 44.0697 57.2813 44.3889C56.9434 44.7087 56.7351 45.1548 56.7351 45.6435V87.6093C56.7351 88.098 56.9434 88.5439 57.2771 88.8639C57.6124 89.1845 58.077 89.3841 58.5867 89.3841H160.602C161.112 89.3841 161.576 89.1845 161.912 88.8639C162.243 88.5399 162.454 88.0958 162.454 87.6093V45.6435C162.454 45.1571 162.244 44.7135 161.912 44.392C161.571 44.0689 161.109 43.8685 160.602 43.8685Z" fill="#20201F"/>
<path d="M292.935 262H290.809V363.095H292.935V262Z" fill="#20201F"/>
<path d="M315.682 271.362V285.735H314.204V272.676H310.816V271.362H315.682ZM322.896 277.255C324.977 277.255 326.489 277.631 327.434 278.384C328.392 279.123 328.871 280.164 328.871 281.505C328.871 282.34 328.672 283.086 328.276 283.743C327.892 284.4 327.31 284.921 326.53 285.304C325.75 285.673 324.792 285.858 323.656 285.858C322.629 285.858 321.65 285.694 320.719 285.365C319.802 285.023 319.063 284.571 318.502 284.01L319.221 282.84C319.7 283.333 320.329 283.736 321.11 284.051C321.89 284.352 322.732 284.503 323.635 284.503C324.826 284.503 325.743 284.236 326.386 283.702C327.044 283.168 327.372 282.457 327.372 281.567C327.372 280.581 327.002 279.835 326.263 279.329C325.538 278.822 324.306 278.569 322.567 278.569H319.508L320.247 271.362H328.111V272.676H321.541L321.048 277.255H322.896ZM331.857 285.838C331.555 285.838 331.295 285.728 331.076 285.509C330.871 285.29 330.768 285.023 330.768 284.708C330.768 284.394 330.871 284.133 331.076 283.928C331.295 283.709 331.555 283.6 331.857 283.6C332.158 283.6 332.418 283.709 332.637 283.928C332.856 284.133 332.965 284.394 332.965 284.708C332.965 285.023 332.856 285.29 332.637 285.509C332.418 285.728 332.158 285.838 331.857 285.838ZM340.833 277.132C341.777 277.132 342.612 277.31 343.338 277.666C344.077 278.021 344.652 278.528 345.063 279.185C345.473 279.828 345.679 280.581 345.679 281.444C345.679 282.32 345.466 283.093 345.042 283.764C344.618 284.435 344.029 284.955 343.276 285.324C342.537 285.68 341.702 285.858 340.771 285.858C338.869 285.858 337.411 285.235 336.398 283.99C335.385 282.73 334.878 280.958 334.878 278.672C334.878 277.07 335.152 275.715 335.7 274.606C336.247 273.497 337.014 272.662 337.999 272.101C338.985 271.526 340.135 271.239 341.449 271.239C342.873 271.239 344.009 271.499 344.857 272.019L344.262 273.21C343.577 272.758 342.647 272.532 341.469 272.532C339.882 272.532 338.636 273.039 337.732 274.052C336.829 275.051 336.377 276.509 336.377 278.425C336.377 278.768 336.398 279.158 336.439 279.596C336.795 278.815 337.363 278.213 338.143 277.789C338.923 277.351 339.82 277.132 340.833 277.132ZM340.71 284.606C341.75 284.606 342.592 284.325 343.235 283.764C343.892 283.189 344.221 282.429 344.221 281.485C344.221 280.54 343.892 279.787 343.235 279.226C342.592 278.665 341.716 278.384 340.607 278.384C339.882 278.384 339.238 278.521 338.677 278.795C338.129 279.069 337.698 279.445 337.383 279.924C337.069 280.403 336.911 280.937 336.911 281.526C336.911 282.073 337.055 282.58 337.342 283.045C337.644 283.511 338.082 283.887 338.656 284.174C339.231 284.462 339.916 284.606 340.71 284.606ZM353.345 277.132C354.29 277.132 355.125 277.31 355.85 277.666C356.589 278.021 357.164 278.528 357.575 279.185C357.986 279.828 358.191 280.581 358.191 281.444C358.191 282.32 357.979 283.093 357.554 283.764C357.13 284.435 356.541 284.955 355.789 285.324C355.049 285.68 354.214 285.858 353.284 285.858C351.381 285.858 349.923 285.235 348.91 283.99C347.897 282.73 347.391 280.958 347.391 278.672C347.391 277.07 347.664 275.715 348.212 274.606C348.759 273.497 349.526 272.662 350.512 272.101C351.497 271.526 352.647 271.239 353.961 271.239C355.385 271.239 356.521 271.499 357.37 272.019L356.774 273.21C356.09 272.758 355.159 272.532 353.982 272.532C352.394 272.532 351.148 273.039 350.245 274.052C349.341 275.051 348.889 276.509 348.889 278.425C348.889 278.768 348.91 279.158 348.951 279.596C349.307 278.815 349.875 278.213 350.655 277.789C351.436 277.351 352.332 277.132 353.345 277.132ZM353.222 284.606C354.262 284.606 355.104 284.325 355.747 283.764C356.404 283.189 356.733 282.429 356.733 281.485C356.733 280.54 356.404 279.787 355.747 279.226C355.104 278.665 354.228 278.384 353.119 278.384C352.394 278.384 351.75 278.521 351.189 278.795C350.642 279.069 350.21 279.445 349.896 279.924C349.581 280.403 349.423 280.937 349.423 281.526C349.423 282.073 349.567 282.58 349.855 283.045C350.156 283.511 350.594 283.887 351.169 284.174C351.744 284.462 352.428 284.606 353.222 284.606Z" fill="#20201F"/>
<path d="M316.965 306.808C318.471 306.89 319.614 307.3 320.394 308.039C321.188 308.765 321.585 309.716 321.585 310.894C321.585 311.715 321.387 312.447 320.99 313.091C320.593 313.72 320.004 314.22 319.224 314.589C318.444 314.959 317.493 315.144 316.37 315.144C315.33 315.144 314.344 314.98 313.413 314.651C312.496 314.309 311.757 313.857 311.196 313.296L311.914 312.126C312.394 312.618 313.03 313.022 313.824 313.337C314.618 313.638 315.467 313.789 316.37 313.789C317.547 313.789 318.458 313.535 319.101 313.029C319.744 312.509 320.066 311.797 320.066 310.894C320.066 310.004 319.744 309.306 319.101 308.799C318.458 308.293 317.486 308.039 316.185 308.039H315.159V306.951L319.142 301.962H311.791V300.648H321.031V301.695L316.965 306.808ZM333.551 300.648V301.695L327.535 315.021H325.933L331.847 301.962H324.455V304.652H322.997V300.648H333.551ZM335.525 315.123C335.224 315.123 334.964 315.014 334.745 314.795C334.539 314.576 334.437 314.309 334.437 313.994C334.437 313.679 334.539 313.419 334.745 313.214C334.964 312.995 335.224 312.885 335.525 312.885C335.826 312.885 336.086 312.995 336.305 313.214C336.524 313.419 336.634 313.679 336.634 313.994C336.634 314.309 336.524 314.576 336.305 314.795C336.086 315.014 335.826 315.123 335.525 315.123ZM344.275 315.144C343.167 315.144 342.174 314.85 341.298 314.261C340.436 313.672 339.758 312.83 339.265 311.735C338.786 310.627 338.547 309.326 338.547 307.834C338.547 306.342 338.786 305.049 339.265 303.953C339.758 302.845 340.436 301.996 341.298 301.407C342.174 300.819 343.167 300.524 344.275 300.524C345.384 300.524 346.37 300.819 347.232 301.407C348.108 301.996 348.793 302.845 349.285 303.953C349.778 305.049 350.025 306.342 350.025 307.834C350.025 309.326 349.778 310.627 349.285 311.735C348.793 312.83 348.108 313.672 347.232 314.261C346.37 314.85 345.384 315.144 344.275 315.144ZM344.275 313.789C345.11 313.789 345.843 313.556 346.472 313.091C347.116 312.625 347.615 311.948 347.971 311.058C348.327 310.168 348.505 309.093 348.505 307.834C348.505 306.575 348.327 305.5 347.971 304.61C347.615 303.721 347.116 303.043 346.472 302.578C345.843 302.112 345.11 301.88 344.275 301.88C343.44 301.88 342.701 302.112 342.058 302.578C341.428 303.043 340.935 303.721 340.58 304.61C340.224 305.5 340.046 306.575 340.046 307.834C340.046 309.093 340.224 310.168 340.58 311.058C340.935 311.948 341.428 312.625 342.058 313.091C342.701 313.556 343.44 313.789 344.275 313.789ZM356.085 300.648V315.021H354.607V301.962H351.219V300.648H356.085Z" fill="#20201F"/>
<path d="M316.185 336.094C317.691 336.176 318.834 336.586 319.614 337.326C320.408 338.051 320.805 339.002 320.805 340.18C320.805 341.001 320.607 341.733 320.21 342.377C319.813 343.006 319.224 343.506 318.444 343.876C317.664 344.245 316.712 344.43 315.59 344.43C314.549 344.43 313.564 344.266 312.633 343.937C311.716 343.595 310.977 343.143 310.416 342.582L311.134 341.412C311.613 341.904 312.25 342.308 313.044 342.623C313.838 342.924 314.686 343.075 315.59 343.075C316.767 343.075 317.677 342.822 318.321 342.315C318.964 341.795 319.286 341.083 319.286 340.18C319.286 339.29 318.964 338.592 318.321 338.085C317.677 337.579 316.705 337.326 315.405 337.326H314.378V336.237L318.362 331.248H311.011V329.934H320.251V330.981L316.185 336.094ZM327.364 329.811C329.267 329.811 330.725 330.44 331.738 331.7C332.751 332.945 333.257 334.711 333.257 336.997C333.257 338.599 332.984 339.954 332.436 341.063C331.888 342.171 331.122 343.013 330.136 343.588C329.151 344.149 328.001 344.43 326.687 344.43C325.263 344.43 324.127 344.17 323.278 343.65L323.874 342.459C324.558 342.911 325.489 343.136 326.666 343.136C328.254 343.136 329.5 342.637 330.403 341.637C331.307 340.625 331.758 339.16 331.758 337.243C331.758 336.888 331.738 336.497 331.697 336.073C331.341 336.853 330.773 337.462 329.993 337.901C329.212 338.325 328.316 338.537 327.303 338.537C326.358 338.537 325.516 338.359 324.777 338.003C324.052 337.647 323.484 337.148 323.073 336.504C322.662 335.847 322.457 335.088 322.457 334.225C322.457 333.349 322.669 332.576 323.094 331.905C323.518 331.234 324.1 330.721 324.839 330.365C325.592 329.995 326.434 329.811 327.364 329.811ZM327.529 337.285C328.254 337.285 328.891 337.148 329.438 336.874C329.999 336.6 330.437 336.224 330.752 335.745C331.067 335.265 331.225 334.732 331.225 334.143C331.225 333.595 331.074 333.089 330.773 332.624C330.485 332.158 330.054 331.782 329.479 331.494C328.904 331.207 328.22 331.063 327.426 331.063C326.386 331.063 325.537 331.351 324.88 331.925C324.237 332.487 323.915 333.24 323.915 334.184C323.915 335.129 324.237 335.881 324.88 336.443C325.537 337.004 326.42 337.285 327.529 337.285ZM336.289 344.409C335.987 344.409 335.727 344.3 335.508 344.081C335.303 343.862 335.2 343.595 335.2 343.28C335.2 342.965 335.303 342.705 335.508 342.5C335.727 342.281 335.987 342.171 336.289 342.171C336.59 342.171 336.85 342.281 337.069 342.5C337.288 342.705 337.397 342.965 337.397 343.28C337.397 343.595 337.288 343.862 337.069 344.081C336.85 344.3 336.59 344.409 336.289 344.409ZM343.274 329.934V344.307H341.795V331.248H338.407V329.934H343.274ZM352.438 344.43C351.329 344.43 350.337 344.136 349.461 343.547C348.598 342.958 347.921 342.117 347.428 341.022C346.949 339.913 346.709 338.612 346.709 337.12C346.709 335.628 346.949 334.335 347.428 333.24C347.921 332.131 348.598 331.282 349.461 330.694C350.337 330.105 351.329 329.811 352.438 329.811C353.547 329.811 354.532 330.105 355.395 330.694C356.271 331.282 356.955 332.131 357.448 333.24C357.941 334.335 358.187 335.628 358.187 337.12C358.187 338.612 357.941 339.913 357.448 341.022C356.955 342.117 356.271 342.958 355.395 343.547C354.532 344.136 353.547 344.43 352.438 344.43ZM352.438 343.075C353.273 343.075 354.005 342.842 354.635 342.377C355.279 341.911 355.778 341.234 356.134 340.344C356.49 339.454 356.668 338.38 356.668 337.12C356.668 335.861 356.49 334.786 356.134 333.897C355.778 333.007 355.279 332.329 354.635 331.864C354.005 331.398 353.273 331.166 352.438 331.166C351.603 331.166 350.864 331.398 350.221 331.864C349.591 332.329 349.098 333.007 348.742 333.897C348.386 334.786 348.208 335.861 348.208 337.12C348.208 338.38 348.386 339.454 348.742 340.344C349.098 341.234 349.591 341.911 350.221 342.377C350.864 342.842 351.603 343.075 352.438 343.075Z" fill="#20201F"/>
<path d="M273.002 292.756V333H263.688V300.23H255.639V292.756H273.002Z" fill="#20201F"/>
<path d="M296.896 160.494H291.229V168.913H288.046V157.866H296.896V160.494ZM303.306 169.077C302.143 169.077 301.096 168.837 300.165 168.358C299.248 167.866 298.529 167.188 298.009 166.326C297.489 165.463 297.229 164.484 297.229 163.389C297.229 162.294 297.489 161.316 298.009 160.453C298.529 159.591 299.248 158.92 300.165 158.441C301.096 157.948 302.143 157.702 303.306 157.702C304.47 157.702 305.51 157.948 306.427 158.441C307.344 158.92 308.063 159.591 308.583 160.453C309.103 161.316 309.363 162.294 309.363 163.389C309.363 164.484 309.103 165.463 308.583 166.326C308.063 167.188 307.344 167.866 306.427 168.358C305.51 168.837 304.47 169.077 303.306 169.077ZM303.306 166.449C304.128 166.449 304.798 166.175 305.318 165.627C305.852 165.066 306.119 164.32 306.119 163.389C306.119 162.459 305.852 161.719 305.318 161.172C304.798 160.611 304.128 160.33 303.306 160.33C302.485 160.33 301.807 160.611 301.274 161.172C300.74 161.719 300.473 162.459 300.473 163.389C300.473 164.32 300.74 165.066 301.274 165.627C301.807 166.175 302.485 166.449 303.306 166.449ZM316.823 169.077C315.646 169.077 314.585 168.837 313.64 168.358C312.71 167.866 311.977 167.188 311.443 166.326C310.923 165.463 310.663 164.484 310.663 163.389C310.663 162.294 310.923 161.316 311.443 160.453C311.977 159.591 312.71 158.92 313.64 158.441C314.585 157.948 315.646 157.702 316.823 157.702C317.986 157.702 318.999 157.948 319.862 158.441C320.738 158.92 321.374 159.611 321.771 160.515L319.287 161.849C318.712 160.836 317.884 160.33 316.802 160.33C315.967 160.33 315.276 160.604 314.729 161.151C314.181 161.699 313.907 162.445 313.907 163.389C313.907 164.334 314.181 165.08 314.729 165.627C315.276 166.175 315.967 166.449 316.802 166.449C317.897 166.449 318.726 165.942 319.287 164.929L321.771 166.285C321.374 167.161 320.738 167.845 319.862 168.338C318.999 168.831 317.986 169.077 316.823 169.077ZM332.959 160.494H329.222V168.913H326.039V160.494H322.302V157.866H332.959V160.494ZM334.666 157.866H337.849V164.437L343.228 157.866H346.164V168.913H342.982V162.342L337.623 168.913H334.666V157.866ZM349.243 157.866H352.426V162.178H357.231V157.866H360.434V168.913H357.231V164.786H352.426V168.913H349.243V157.866ZM367.791 157.702C369.503 157.702 370.817 158.112 371.734 158.934C372.651 159.741 373.109 160.967 373.109 162.609V168.913H370.112V167.537C369.509 168.564 368.387 169.077 366.744 169.077C365.896 169.077 365.156 168.933 364.527 168.646C363.911 168.358 363.438 167.961 363.11 167.455C362.781 166.948 362.617 166.373 362.617 165.73C362.617 164.703 363 163.896 363.767 163.307C364.547 162.719 365.745 162.424 367.36 162.424H369.906C369.906 161.726 369.694 161.192 369.27 160.823C368.845 160.44 368.209 160.248 367.36 160.248C366.772 160.248 366.19 160.344 365.615 160.535C365.054 160.713 364.575 160.96 364.178 161.275L363.028 159.036C363.63 158.612 364.349 158.284 365.184 158.051C366.032 157.818 366.902 157.702 367.791 157.702ZM367.545 166.921C368.093 166.921 368.579 166.798 369.003 166.551C369.427 166.291 369.728 165.915 369.906 165.422V164.293H367.709C366.395 164.293 365.738 164.724 365.738 165.586C365.738 165.997 365.896 166.326 366.21 166.572C366.539 166.805 366.984 166.921 367.545 166.921ZM385.707 157.866V168.913H382.853V165.751H380.491L378.397 168.913H374.989L377.514 165.299C376.747 164.998 376.159 164.567 375.748 164.005C375.351 163.43 375.153 162.739 375.153 161.932C375.153 160.631 375.618 159.632 376.549 158.934C377.494 158.222 378.787 157.866 380.43 157.866H385.707ZM380.491 160.474C379.807 160.474 379.287 160.597 378.931 160.843C378.589 161.09 378.417 161.487 378.417 162.034C378.417 162.582 378.582 162.986 378.91 163.246C379.253 163.492 379.766 163.615 380.45 163.615H382.853V160.474H380.491Z" fill="black"/>
<path d="M317.509 183.656V198.029H314.183V186.326H311.308V183.656H317.509ZM324.934 189.057C326.96 189.057 328.452 189.46 329.41 190.268C330.382 191.076 330.868 192.157 330.868 193.512C330.868 194.388 330.649 195.189 330.211 195.915C329.773 196.626 329.102 197.201 328.198 197.639C327.309 198.064 326.207 198.276 324.893 198.276C323.88 198.276 322.88 198.146 321.895 197.886C320.923 197.612 320.095 197.229 319.41 196.736L320.724 194.19C321.272 194.6 321.902 194.922 322.613 195.155C323.325 195.374 324.058 195.483 324.81 195.483C325.645 195.483 326.302 195.319 326.782 194.991C327.261 194.662 327.5 194.203 327.5 193.615C327.5 192.999 327.247 192.533 326.741 192.219C326.248 191.904 325.385 191.746 324.153 191.746H320.478L321.217 183.656H329.985V186.326H323.989L323.763 189.057H324.934ZM334.106 198.194C333.545 198.194 333.073 198.002 332.689 197.619C332.306 197.235 332.115 196.756 332.115 196.181C332.115 195.593 332.306 195.121 332.689 194.765C333.073 194.395 333.545 194.21 334.106 194.21C334.667 194.21 335.14 194.395 335.523 194.765C335.906 195.121 336.098 195.593 336.098 196.181C336.098 196.756 335.906 197.235 335.523 197.619C335.14 198.002 334.667 198.194 334.106 198.194ZM344.25 189.016C345.167 189.016 346.002 189.2 346.755 189.57C347.508 189.939 348.103 190.467 348.541 191.151C348.979 191.822 349.198 192.602 349.198 193.492C349.198 194.45 348.959 195.292 348.48 196.017C348.001 196.743 347.343 197.304 346.508 197.701C345.687 198.084 344.77 198.276 343.757 198.276C341.745 198.276 340.171 197.66 339.035 196.428C337.898 195.196 337.33 193.437 337.33 191.151C337.33 189.522 337.638 188.126 338.254 186.962C338.87 185.799 339.726 184.916 340.821 184.314C341.93 183.711 343.21 183.41 344.661 183.41C345.427 183.41 346.159 183.499 346.858 183.677C347.569 183.841 348.172 184.081 348.664 184.396L347.432 186.839C346.721 186.36 345.824 186.12 344.743 186.12C343.524 186.12 342.559 186.476 341.848 187.188C341.136 187.9 340.752 188.933 340.698 190.289C341.546 189.44 342.73 189.016 344.25 189.016ZM343.572 195.791C344.284 195.791 344.859 195.6 345.297 195.216C345.749 194.833 345.975 194.313 345.975 193.656C345.975 192.999 345.749 192.479 345.297 192.095C344.859 191.698 344.27 191.5 343.531 191.5C342.806 191.5 342.21 191.705 341.745 192.116C341.279 192.513 341.047 193.026 341.047 193.656C341.047 194.286 341.273 194.799 341.724 195.196C342.176 195.593 342.792 195.791 343.572 195.791ZM357.323 189.016C358.241 189.016 359.076 189.2 359.828 189.57C360.581 189.939 361.177 190.467 361.615 191.151C362.053 191.822 362.272 192.602 362.272 193.492C362.272 194.45 362.032 195.292 361.553 196.017C361.074 196.743 360.417 197.304 359.582 197.701C358.761 198.084 357.844 198.276 356.831 198.276C354.818 198.276 353.244 197.66 352.108 196.428C350.972 195.196 350.404 193.437 350.404 191.151C350.404 189.522 350.712 188.126 351.328 186.962C351.944 185.799 352.799 184.916 353.895 184.314C355.003 183.711 356.283 183.41 357.734 183.41C358.501 183.41 359.233 183.499 359.931 183.677C360.643 183.841 361.245 184.081 361.738 184.396L360.506 186.839C359.794 186.36 358.898 186.12 357.816 186.12C356.598 186.12 355.633 186.476 354.921 187.188C354.209 187.9 353.826 188.933 353.771 190.289C354.62 189.44 355.804 189.016 357.323 189.016ZM356.646 195.791C357.358 195.791 357.933 195.6 358.371 195.216C358.822 194.833 359.048 194.313 359.048 193.656C359.048 192.999 358.822 192.479 358.371 192.095C357.933 191.698 357.344 191.5 356.605 191.5C355.879 191.5 355.284 191.705 354.818 192.116C354.353 192.513 354.12 193.026 354.12 193.656C354.12 194.286 354.346 194.799 354.798 195.196C355.25 195.593 355.866 195.791 356.646 195.791Z" fill="black"/>
<path d="M107.739 317.174H106.076V321.363H102.873V310.316H106.076V314.608H107.801L110.799 310.316H114.207L110.347 315.614L114.474 321.363H110.696L107.739 317.174ZM126.493 310.316L121.503 322.04C120.997 323.314 120.367 324.21 119.614 324.73C118.875 325.25 117.978 325.511 116.924 325.511C116.349 325.511 115.781 325.422 115.22 325.244C114.659 325.066 114.2 324.819 113.844 324.504L115.015 322.225C115.261 322.444 115.542 322.615 115.857 322.739C116.185 322.862 116.507 322.923 116.822 322.923C117.26 322.923 117.616 322.814 117.889 322.595C118.163 322.39 118.41 322.04 118.629 321.548L118.67 321.445L113.886 310.316H117.191L120.292 317.811L123.413 310.316H126.493ZM134.356 321.363L131.934 317.975L129.429 321.363H125.938L130.188 315.799L126.082 310.316H129.675L132.016 313.54L134.418 310.316H137.826L133.72 315.716L137.991 321.363H134.356ZM139.568 310.316H142.75V314.628H147.555V310.316H150.758V321.363H147.555V317.236H142.75V321.363H139.568V310.316ZM163.639 310.316V321.363H160.785V318.201H158.424L156.329 321.363H152.921L155.446 317.749C154.68 317.448 154.091 317.017 153.681 316.456C153.284 315.881 153.085 315.189 153.085 314.382C153.085 313.081 153.55 312.082 154.481 311.384C155.426 310.672 156.719 310.316 158.362 310.316H163.639ZM158.424 312.924C157.739 312.924 157.219 313.047 156.863 313.294C156.521 313.54 156.35 313.937 156.35 314.484C156.35 315.032 156.514 315.436 156.843 315.696C157.185 315.942 157.698 316.065 158.383 316.065H160.785V312.924H158.424Z" fill="#20201F"/>
<path d="M115.839 336.276V350.649H112.513V338.945H109.638V336.276H115.839ZM124.496 350.895C123.305 350.895 122.244 350.601 121.313 350.013C120.382 349.424 119.65 348.575 119.116 347.466C118.596 346.344 118.336 345.009 118.336 343.463C118.336 341.916 118.596 340.588 119.116 339.479C119.65 338.357 120.382 337.501 121.313 336.913C122.244 336.324 123.305 336.03 124.496 336.03C125.687 336.03 126.747 336.324 127.678 336.913C128.609 337.501 129.335 338.357 129.855 339.479C130.389 340.588 130.656 341.916 130.656 343.463C130.656 345.009 130.389 346.344 129.855 347.466C129.335 348.575 128.609 349.424 127.678 350.013C126.747 350.601 125.687 350.895 124.496 350.895ZM124.496 348.082C125.372 348.082 126.056 347.706 126.549 346.953C127.055 346.2 127.309 345.037 127.309 343.463C127.309 341.888 127.055 340.725 126.549 339.972C126.056 339.219 125.372 338.843 124.496 338.843C123.633 338.843 122.949 339.219 122.442 339.972C121.95 340.725 121.703 341.888 121.703 343.463C121.703 345.037 121.95 346.2 122.442 346.953C122.949 347.706 123.633 348.082 124.496 348.082ZM133.9 350.813C133.339 350.813 132.867 350.622 132.483 350.238C132.1 349.855 131.908 349.376 131.908 348.801C131.908 348.212 132.1 347.74 132.483 347.384C132.867 347.015 133.339 346.83 133.9 346.83C134.461 346.83 134.934 347.015 135.317 347.384C135.7 347.74 135.892 348.212 135.892 348.801C135.892 349.376 135.7 349.855 135.317 350.238C134.934 350.622 134.461 350.813 133.9 350.813ZM142.608 336.276V350.649H139.282V338.945H136.407V336.276H142.608ZM155.843 347.939V350.649H144.981V348.493L150.525 343.257C151.114 342.696 151.511 342.217 151.716 341.82C151.922 341.409 152.024 341.005 152.024 340.609C152.024 340.034 151.826 339.596 151.429 339.294C151.046 338.98 150.477 338.822 149.725 338.822C149.095 338.822 148.527 338.945 148.02 339.192C147.514 339.424 147.09 339.78 146.747 340.259L144.324 338.699C144.886 337.864 145.659 337.214 146.645 336.748C147.63 336.269 148.76 336.03 150.033 336.03C151.1 336.03 152.031 336.208 152.825 336.564C153.633 336.906 154.255 337.399 154.693 338.042C155.145 338.672 155.371 339.418 155.371 340.28C155.371 341.06 155.207 341.793 154.878 342.477C154.55 343.161 153.913 343.942 152.969 344.818L149.663 347.939H155.843Z" fill="#20201F"/>
<path d="M213.024 107.677L210.018 103.717L206.994 107.677H205.554L209.298 102.817L205.734 98.2095H207.174L210.018 101.917L212.862 98.2095H214.266L210.702 102.817L214.482 107.677H213.024ZM220.149 107.767C219.237 107.767 218.415 107.563 217.683 107.155C216.951 106.735 216.375 106.159 215.955 105.427C215.535 104.695 215.325 103.867 215.325 102.943C215.325 102.019 215.535 101.191 215.955 100.459C216.375 99.7275 216.951 99.1575 217.683 98.7495C218.415 98.3415 219.237 98.1375 220.149 98.1375C221.061 98.1375 221.883 98.3415 222.615 98.7495C223.347 99.1575 223.917 99.7275 224.325 100.459C224.745 101.191 224.955 102.019 224.955 102.943C224.955 103.867 224.745 104.695 224.325 105.427C223.917 106.159 223.347 106.735 222.615 107.155C221.883 107.563 221.061 107.767 220.149 107.767ZM220.149 106.633C220.821 106.633 221.421 106.483 221.949 106.183C222.489 105.871 222.909 105.433 223.209 104.869C223.509 104.305 223.659 103.663 223.659 102.943C223.659 102.223 223.509 101.581 223.209 101.017C222.909 100.453 222.489 100.021 221.949 99.7215C221.421 99.4095 220.821 99.2535 220.149 99.2535C219.477 99.2535 218.871 99.4095 218.331 99.7215C217.803 100.021 217.383 100.453 217.071 101.017C216.771 101.581 216.621 102.223 216.621 102.943C216.621 103.663 216.771 104.305 217.071 104.869C217.383 105.433 217.803 105.871 218.331 106.183C218.871 106.483 219.477 106.633 220.149 106.633ZM235.374 98.2095V107.677H234.096V99.3435H229.56L229.434 101.683C229.338 103.651 229.11 105.163 228.75 106.219C228.39 107.275 227.748 107.803 226.824 107.803C226.572 107.803 226.266 107.755 225.906 107.659L225.996 106.561C226.212 106.609 226.362 106.633 226.446 106.633C226.938 106.633 227.31 106.405 227.562 105.949C227.814 105.493 227.982 104.929 228.066 104.257C228.15 103.585 228.222 102.697 228.282 101.593L228.444 98.2095H235.374ZM246.747 98.2095V107.677H245.469V99.3435H240.933L240.807 101.683C240.711 103.651 240.483 105.163 240.123 106.219C239.763 107.275 239.121 107.803 238.197 107.803C237.945 107.803 237.639 107.755 237.279 107.659L237.369 106.561C237.585 106.609 237.735 106.633 237.819 106.633C238.311 106.633 238.683 106.405 238.935 105.949C239.187 105.493 239.355 104.929 239.439 104.257C239.523 103.585 239.595 102.697 239.655 101.593L239.817 98.2095H246.747Z" fill="#20201F"/>
<path d="M219.369 133.651H216.849V136.963H215.553V133.651H208.443V132.715L215.121 124.363H216.561L210.117 132.499H215.589V129.583H216.849V132.499H219.369V133.651ZM221.883 137.053C221.619 137.053 221.391 136.957 221.199 136.765C221.019 136.573 220.929 136.339 220.929 136.063C220.929 135.787 221.019 135.559 221.199 135.379C221.391 135.187 221.619 135.091 221.883 135.091C222.147 135.091 222.375 135.187 222.567 135.379C222.759 135.559 222.855 135.787 222.855 136.063C222.855 136.339 222.759 136.573 222.567 136.765C222.375 136.957 222.147 137.053 221.883 137.053ZM229.554 137.071C228.582 137.071 227.712 136.813 226.944 136.297C226.188 135.781 225.594 135.043 225.162 134.083C224.742 133.111 224.532 131.971 224.532 130.663C224.532 129.355 224.742 128.221 225.162 127.261C225.594 126.289 226.188 125.545 226.944 125.029C227.712 124.513 228.582 124.255 229.554 124.255C230.526 124.255 231.39 124.513 232.146 125.029C232.914 125.545 233.514 126.289 233.946 127.261C234.378 128.221 234.594 129.355 234.594 130.663C234.594 131.971 234.378 133.111 233.946 134.083C233.514 135.043 232.914 135.781 232.146 136.297C231.39 136.813 230.526 137.071 229.554 137.071ZM229.554 135.883C230.286 135.883 230.928 135.679 231.48 135.271C232.044 134.863 232.482 134.269 232.794 133.489C233.106 132.709 233.262 131.767 233.262 130.663C233.262 129.559 233.106 128.617 232.794 127.837C232.482 127.057 232.044 126.463 231.48 126.055C230.928 125.647 230.286 125.443 229.554 125.443C228.822 125.443 228.174 125.647 227.61 126.055C227.058 126.463 226.626 127.057 226.314 127.837C226.002 128.617 225.846 129.559 225.846 130.663C225.846 131.767 226.002 132.709 226.314 133.489C226.626 134.269 227.058 134.863 227.61 135.271C228.174 135.679 228.822 135.883 229.554 135.883ZM241.67 129.421C242.498 129.421 243.23 129.577 243.866 129.889C244.514 130.201 245.018 130.645 245.378 131.221C245.738 131.785 245.918 132.445 245.918 133.201C245.918 133.969 245.732 134.647 245.36 135.235C244.988 135.823 244.472 136.279 243.812 136.603C243.164 136.915 242.432 137.071 241.616 137.071C239.948 137.071 238.67 136.525 237.782 135.433C236.894 134.329 236.45 132.775 236.45 130.771C236.45 129.367 236.69 128.179 237.17 127.207C237.65 126.235 238.322 125.503 239.186 125.011C240.05 124.507 241.058 124.255 242.21 124.255C243.458 124.255 244.454 124.483 245.198 124.939L244.676 125.983C244.076 125.587 243.26 125.389 242.228 125.389C240.836 125.389 239.744 125.833 238.952 126.721C238.16 127.597 237.764 128.875 237.764 130.555C237.764 130.855 237.782 131.197 237.818 131.581C238.13 130.897 238.628 130.369 239.312 129.997C239.996 129.613 240.782 129.421 241.67 129.421ZM241.562 135.973C242.474 135.973 243.212 135.727 243.776 135.235C244.352 134.731 244.64 134.065 244.64 133.237C244.64 132.409 244.352 131.749 243.776 131.257C243.212 130.765 242.444 130.519 241.472 130.519C240.836 130.519 240.272 130.639 239.78 130.879C239.3 131.119 238.922 131.449 238.646 131.869C238.37 132.289 238.232 132.757 238.232 133.273C238.232 133.753 238.358 134.197 238.61 134.605C238.874 135.013 239.258 135.343 239.762 135.595C240.266 135.847 240.866 135.973 241.562 135.973Z" fill="#20201F"/>
<path d="M169.558 498.871V508.339H168.28V500.005H163.744L163.618 502.345C163.522 504.313 163.294 505.825 162.934 506.881C162.574 507.937 161.932 508.465 161.008 508.465C160.756 508.465 160.45 508.417 160.09 508.321L160.18 507.223C160.396 507.271 160.546 507.295 160.63 507.295C161.122 507.295 161.494 507.067 161.746 506.611C161.998 506.155 162.166 505.591 162.25 504.919C162.334 504.247 162.406 503.359 162.466 502.255L162.628 498.871H169.558ZM177.097 508.429C176.185 508.429 175.363 508.225 174.631 507.817C173.899 507.397 173.323 506.821 172.903 506.089C172.483 505.357 172.273 504.529 172.273 503.605C172.273 502.681 172.483 501.853 172.903 501.121C173.323 500.389 173.899 499.819 174.631 499.411C175.363 499.003 176.185 498.799 177.097 498.799C178.009 498.799 178.831 499.003 179.563 499.411C180.295 499.819 180.865 500.389 181.273 501.121C181.693 501.853 181.903 502.681 181.903 503.605C181.903 504.529 181.693 505.357 181.273 506.089C180.865 506.821 180.295 507.397 179.563 507.817C178.831 508.225 178.009 508.429 177.097 508.429ZM177.097 507.295C177.769 507.295 178.369 507.145 178.897 506.845C179.437 506.533 179.857 506.095 180.157 505.531C180.457 504.967 180.607 504.325 180.607 503.605C180.607 502.885 180.457 502.243 180.157 501.679C179.857 501.115 179.437 500.683 178.897 500.383C178.369 500.071 177.769 499.915 177.097 499.915C176.425 499.915 175.819 500.071 175.279 500.383C174.751 500.683 174.331 501.115 174.019 501.679C173.719 502.243 173.569 502.885 173.569 503.605C173.569 504.325 173.719 504.967 174.019 505.531C174.331 506.095 174.751 506.533 175.279 506.845C175.819 507.145 176.425 507.295 177.097 507.295ZM193.816 507.223V510.625H192.61V508.339H184.132V510.625H182.926V507.223H183.466C184.102 507.187 184.534 506.719 184.762 505.819C184.99 504.919 185.146 503.659 185.23 502.039L185.356 498.871H192.34V507.223H193.816ZM186.4 502.111C186.34 503.455 186.226 504.565 186.058 505.441C185.89 506.305 185.59 506.899 185.158 507.223H191.062V500.005H186.508L186.4 502.111ZM204.605 504.127H202.553V508.339H201.275V504.127H199.223L196.325 508.339H194.795L198.197 503.461L195.065 498.871H196.451L199.223 503.029H201.275V498.871H202.553V503.029H204.605L207.395 498.871H208.781L205.649 503.479L209.051 508.339H207.521L204.605 504.127ZM211.178 498.871H212.456V506.395L218.774 498.871H219.908V508.339H218.63V500.815L212.33 508.339H211.178V498.871ZM230.843 498.871V508.339H229.673V505.207H226.703H226.343L224.147 508.339H222.761L225.119 505.027C224.387 504.823 223.823 504.475 223.427 503.983C223.031 503.491 222.833 502.867 222.833 502.111C222.833 501.055 223.193 500.251 223.913 499.699C224.633 499.147 225.617 498.871 226.865 498.871H230.843ZM224.129 502.147C224.129 503.551 225.023 504.253 226.811 504.253H229.673V500.005H226.901C225.053 500.005 224.129 500.719 224.129 502.147Z" fill="#20201F"/>
<path d="M191.646 534.313H189.126V537.625H187.83V534.313H180.72V533.377L187.398 525.025H188.838L182.394 533.161H187.866V530.245H189.126V533.161H191.646V534.313ZM194.16 537.715C193.896 537.715 193.668 537.619 193.476 537.427C193.296 537.235 193.206 537.001 193.206 536.725C193.206 536.449 193.296 536.221 193.476 536.041C193.668 535.849 193.896 535.753 194.16 535.753C194.424 535.753 194.652 535.849 194.844 536.041C195.036 536.221 195.132 536.449 195.132 536.725C195.132 537.001 195.036 537.235 194.844 537.427C194.652 537.619 194.424 537.715 194.16 537.715ZM200.284 525.025V537.625H198.988V526.177H196.018V525.025H200.284ZM210.514 531.019C211.306 531.283 211.912 531.679 212.332 532.207C212.764 532.735 212.98 533.371 212.98 534.115C212.98 534.847 212.782 535.489 212.386 536.041C211.99 536.581 211.42 537.001 210.676 537.301C209.944 537.589 209.08 537.733 208.084 537.733C206.572 537.733 205.384 537.409 204.52 536.761C203.656 536.113 203.224 535.231 203.224 534.115C203.224 533.359 203.428 532.723 203.836 532.207C204.256 531.679 204.862 531.283 205.654 531.019C205.006 530.767 204.514 530.407 204.178 529.939C203.842 529.459 203.674 528.895 203.674 528.247C203.674 527.227 204.07 526.417 204.862 525.817C205.666 525.217 206.74 524.917 208.084 524.917C208.972 524.917 209.746 525.055 210.406 525.331C211.078 525.595 211.6 525.979 211.972 526.483C212.344 526.987 212.53 527.575 212.53 528.247C212.53 528.895 212.356 529.459 212.008 529.939C211.66 530.407 211.162 530.767 210.514 531.019ZM204.97 528.283C204.97 528.979 205.246 529.531 205.798 529.939C206.35 530.347 207.112 530.551 208.084 530.551C209.056 530.551 209.818 530.347 210.37 529.939C210.934 529.531 211.216 528.985 211.216 528.301C211.216 527.593 210.928 527.035 210.352 526.627C209.788 526.219 209.032 526.015 208.084 526.015C207.124 526.015 206.362 526.219 205.798 526.627C205.246 527.035 204.97 527.587 204.97 528.283ZM208.084 536.635C209.2 536.635 210.07 536.407 210.694 535.951C211.33 535.495 211.648 534.877 211.648 534.097C211.648 533.317 211.33 532.705 210.694 532.261C210.07 531.805 209.2 531.577 208.084 531.577C206.98 531.577 206.11 531.805 205.474 532.261C204.85 532.705 204.538 533.317 204.538 534.097C204.538 534.889 204.85 535.513 205.474 535.969C206.098 536.413 206.968 536.635 208.084 536.635Z" fill="#20201F"/>
<path d="M112.757 169.091H110.237V172.403H108.941V169.091H101.831V168.155L108.509 159.803H109.949L103.505 167.939H108.977V165.023H110.237V167.939H112.757V169.091ZM115.271 172.493C115.007 172.493 114.779 172.397 114.587 172.205C114.407 172.013 114.317 171.779 114.317 171.503C114.317 171.227 114.407 170.999 114.587 170.819C114.779 170.627 115.007 170.531 115.271 170.531C115.535 170.531 115.763 170.627 115.955 170.819C116.147 170.999 116.243 171.227 116.243 171.503C116.243 171.779 116.147 172.013 115.955 172.205C115.763 172.397 115.535 172.493 115.271 172.493ZM121.425 164.969C123.249 164.969 124.575 165.299 125.403 165.959C126.243 166.607 126.663 167.519 126.663 168.695C126.663 169.427 126.489 170.081 126.141 170.657C125.805 171.233 125.295 171.689 124.611 172.025C123.927 172.349 123.087 172.511 122.091 172.511C121.191 172.511 120.333 172.367 119.517 172.079C118.713 171.779 118.065 171.383 117.573 170.891L118.203 169.865C118.623 170.297 119.175 170.651 119.859 170.927C120.543 171.191 121.281 171.323 122.073 171.323C123.117 171.323 123.921 171.089 124.485 170.621C125.061 170.153 125.349 169.529 125.349 168.749C125.349 167.885 125.025 167.231 124.377 166.787C123.741 166.343 122.661 166.121 121.137 166.121H118.455L119.103 159.803H125.997V160.955H120.237L119.805 164.969H121.425ZM135.526 165.797C136.318 166.061 136.924 166.457 137.344 166.985C137.776 167.513 137.992 168.149 137.992 168.893C137.992 169.625 137.794 170.267 137.398 170.819C137.002 171.359 136.432 171.779 135.688 172.079C134.956 172.367 134.092 172.511 133.096 172.511C131.584 172.511 130.396 172.187 129.532 171.539C128.668 170.891 128.236 170.009 128.236 168.893C128.236 168.137 128.44 167.501 128.848 166.985C129.268 166.457 129.874 166.061 130.666 165.797C130.018 165.545 129.526 165.185 129.19 164.717C128.854 164.237 128.686 163.673 128.686 163.025C128.686 162.005 129.082 161.195 129.874 160.595C130.678 159.995 131.752 159.695 133.096 159.695C133.984 159.695 134.758 159.833 135.418 160.109C136.09 160.373 136.612 160.757 136.984 161.261C137.356 161.765 137.542 162.353 137.542 163.025C137.542 163.673 137.368 164.237 137.02 164.717C136.672 165.185 136.174 165.545 135.526 165.797ZM129.982 163.061C129.982 163.757 130.258 164.309 130.81 164.717C131.362 165.125 132.124 165.329 133.096 165.329C134.068 165.329 134.83 165.125 135.382 164.717C135.946 164.309 136.228 163.763 136.228 163.079C136.228 162.371 135.94 161.813 135.364 161.405C134.8 160.997 134.044 160.793 133.096 160.793C132.136 160.793 131.374 160.997 130.81 161.405C130.258 161.813 129.982 162.365 129.982 163.061ZM133.096 171.413C134.212 171.413 135.082 171.185 135.706 170.729C136.342 170.273 136.66 169.655 136.66 168.875C136.66 168.095 136.342 167.483 135.706 167.039C135.082 166.583 134.212 166.355 133.096 166.355C131.992 166.355 131.122 166.583 130.486 167.039C129.862 167.483 129.55 168.095 129.55 168.875C129.55 169.667 129.862 170.291 130.486 170.747C131.11 171.191 131.98 171.413 133.096 171.413Z" fill="#20201F"/>
<path d="M324.566 88.6725V89.8245H315.728V88.9065L320.966 83.7765C321.626 83.1285 322.07 82.5705 322.298 82.1025C322.538 81.6225 322.658 81.1425 322.658 80.6625C322.658 79.9185 322.4 79.3425 321.884 78.9345C321.38 78.5145 320.654 78.3045 319.706 78.3045C318.23 78.3045 317.084 78.7725 316.268 79.7085L315.35 78.9165C315.842 78.3405 316.466 77.8965 317.222 77.5845C317.99 77.2725 318.854 77.1165 319.814 77.1165C321.098 77.1165 322.112 77.4225 322.856 78.0345C323.612 78.6345 323.99 79.4625 323.99 80.5185C323.99 81.1665 323.846 81.7905 323.558 82.3905C323.27 82.9905 322.724 83.6805 321.92 84.4605L317.636 88.6725H324.566ZM327.34 89.9145C327.076 89.9145 326.848 89.8185 326.656 89.6265C326.476 89.4345 326.386 89.2005 326.386 88.9245C326.386 88.6485 326.476 88.4205 326.656 88.2405C326.848 88.0485 327.076 87.9525 327.34 87.9525C327.604 87.9525 327.832 88.0485 328.024 88.2405C328.216 88.4205 328.312 88.6485 328.312 88.9245C328.312 89.2005 328.216 89.4345 328.024 89.6265C327.832 89.8185 327.604 89.9145 327.34 89.9145ZM333.494 82.3905C335.318 82.3905 336.644 82.7205 337.472 83.3805C338.312 84.0285 338.732 84.9405 338.732 86.1165C338.732 86.8485 338.558 87.5025 338.21 88.0785C337.874 88.6545 337.364 89.1105 336.68 89.4465C335.996 89.7705 335.156 89.9325 334.16 89.9325C333.26 89.9325 332.402 89.7885 331.586 89.5005C330.782 89.2005 330.134 88.8045 329.642 88.3125L330.272 87.2865C330.692 87.7185 331.244 88.0725 331.928 88.3485C332.612 88.6125 333.35 88.7445 334.142 88.7445C335.186 88.7445 335.99 88.5105 336.554 88.0425C337.13 87.5745 337.418 86.9505 337.418 86.1705C337.418 85.3065 337.094 84.6525 336.446 84.2085C335.81 83.7645 334.73 83.5425 333.206 83.5425H330.524L331.172 77.2245H338.066V78.3765H332.306L331.874 82.3905H333.494ZM344.302 77.1165C345.97 77.1165 347.248 77.6685 348.136 78.7725C349.024 79.8645 349.468 81.4125 349.468 83.4165C349.468 84.8205 349.228 86.0085 348.748 86.9805C348.268 87.9525 347.596 88.6905 346.732 89.1945C345.868 89.6865 344.86 89.9325 343.708 89.9325C342.46 89.9325 341.464 89.7045 340.72 89.2485L341.242 88.2045C341.842 88.6005 342.658 88.7985 343.69 88.7985C345.082 88.7985 346.174 88.3605 346.966 87.4845C347.758 86.5965 348.154 85.3125 348.154 83.6325C348.154 83.3205 348.136 82.9785 348.1 82.6065C347.788 83.2905 347.29 83.8245 346.606 84.2085C345.922 84.5805 345.136 84.7665 344.248 84.7665C343.42 84.7665 342.682 84.6105 342.034 84.2985C341.398 83.9865 340.9 83.5485 340.54 82.9845C340.18 82.4085 340 81.7425 340 80.9865C340 80.2185 340.186 79.5405 340.558 78.9525C340.93 78.3645 341.44 77.9145 342.088 77.6025C342.748 77.2785 343.486 77.1165 344.302 77.1165ZM344.446 83.6685C345.082 83.6685 345.64 83.5485 346.12 83.3085C346.612 83.0685 346.996 82.7385 347.272 82.3185C347.548 81.8985 347.686 81.4305 347.686 80.9145C347.686 80.4345 347.554 79.9905 347.29 79.5825C347.038 79.1745 346.66 78.8445 346.156 78.5925C345.652 78.3405 345.052 78.2145 344.356 78.2145C343.444 78.2145 342.7 78.4665 342.124 78.9705C341.56 79.4625 341.278 80.1225 341.278 80.9505C341.278 81.7785 341.56 82.4385 342.124 82.9305C342.7 83.4225 343.474 83.6685 344.446 83.6685Z" fill="black"/>
</g>
<defs>
<clipPath id="clip0_2384_28725">
<rect width="371.22" height="548.564" fill="white" transform="translate(39 26)"/>
</clipPath>
</defs>
</svg>
