<svg width="450" height="600" viewBox="0 0 450 600" fill="none" xmlns="http://www.w3.org/2000/svg">
<rect width="450" height="600" fill="white"/>
<g clip-path="url(#clip0_2384_28728)">
<path d="M410.3 118.827H395.333V571.578H410.3V118.827Z" fill="#ED9FA6"/>
<path fill-rule="evenodd" clip-rule="evenodd" d="M39 571.578H410.3V118.853L238.512 118.83V29L43.3999 41.1759L43.2868 118.83L39 118.853V571.578Z" fill="#C6C0E1"/>
<path d="M410.3 556.604H39V571.577H410.3V556.604Z" fill="#CFD0D0"/>
<path d="M410.3 118.827H395.333V571.578H410.3V118.827Z" fill="#FFF9D0"/>
<path fill-rule="evenodd" clip-rule="evenodd" d="M39 571.578H410.3V118.853L238.512 118.83V29L43.3999 41.1759L43.2868 118.83L39 118.853V571.578Z" fill="#FFF9D0"/>
<path d="M238.427 134.4H202.498V170.333H238.427V134.4Z" fill="#20201F"/>
<path d="M410.3 134.4H395.333V149.372H410.3V134.4Z" fill="#20201F"/>
<path d="M54.0556 149.419H39.0801V571.578H54.0556V149.419Z" fill="#20201F"/>
<path d="M410.3 149.372H395.333V571.578H410.3V149.372Z" fill="#20201F"/>
<path d="M54.0554 556.604H39V571.578H54.0554V556.604Z" fill="#20201F"/>
<path d="M395.333 556.604H249.209V571.578H395.333V556.604Z" fill="#20201F"/>
<path d="M189.325 556.604H54.0552V571.578H189.325V556.604Z" fill="#20201F"/>
<path d="M124.644 126.615H39V149.372H124.644V126.615Z" fill="#20201F"/>
<path d="M269.568 126.615H202.498V149.372H269.568V126.615Z" fill="#20201F"/>
<path d="M410.3 126.615H395.333V149.372H410.3V126.615Z" fill="#20201F"/>
<path d="M124.644 118.83H39V126.615H124.644V118.83Z" fill="#20201F"/>
<path d="M273.165 118.829H202.498V126.615H273.165V118.829Z" fill="#20201F"/>
<path d="M410.3 118.83H391.736V126.615H410.3V118.83Z" fill="#20201F"/>
<path fill-rule="evenodd" clip-rule="evenodd" d="M39 41.4503L238.512 29V118.83H231.326V36.6484L50.4727 47.934V118.83H43.2868V48.3821L39 48.6497V41.4503Z" fill="#20201F"/>
<path d="M39.0799 375.745H39V380.536H39.0799V375.745Z" fill="#20201F"/>
<path d="M121.65 375.745H53.9761V380.536H121.65V375.745Z" fill="#20201F"/>
<path d="M173.15 375.745H121.65V380.536H173.15V375.745Z" fill="#20201F"/>
<path d="M201.766 375.745H173.15V380.536H201.766V375.745Z" fill="#20201F"/>
<path d="M201.766 332.027H196.979V380.589H201.766V332.027Z" fill="#20201F"/>
<path d="M177.947 380.475H173.15V469.996H177.947V380.475Z" fill="#20201F"/>
<path d="M273.897 375.385H257.229V380.174H273.897V375.385Z" fill="#20201F"/>
<path d="M273.897 375.382H269.101V483.394H273.897V375.382Z" fill="#20201F"/>
<path d="M395.333 473.116H273.896V477.908H395.333V473.116Z" fill="#20201F"/>
<path d="M273.897 550.056H269.101V556.604H273.897V550.056Z" fill="#20201F"/>
<path d="M177.947 509.562H173.15V556.604H177.947V509.562Z" fill="#20201F"/>
<path d="M410.3 376.943H409.925V381.733H410.3V376.943Z" fill="#20201F"/>
<path d="M391.746 118.83H273.159V122.682H391.746V118.83Z" fill="#20201F"/>
<path d="M395.335 126.595H269.569V130.446H395.335V126.595Z" fill="#20201F"/>
<path d="M395.335 145.5H269.569V149.351H395.335V145.5Z" fill="#20201F"/>
<path d="M202.5 118.828H172.557V122.68H202.5V118.828Z" fill="#20201F"/>
<path d="M202.501 126.593H172.557V130.444H202.501V126.593Z" fill="#20201F"/>
<path d="M202.501 145.498H172.557V149.349H202.501V145.498Z" fill="#20201F"/>
<path d="M175.384 118.818H172.557V149.36H175.384V118.818Z" fill="#20201F"/>
<path fill-rule="evenodd" clip-rule="evenodd" d="M175.93 503.931C176.869 503.931 177.631 504.693 177.631 505.632C177.631 506.571 176.869 507.333 175.93 507.333H139.934C138.995 507.333 138.233 506.571 138.233 505.632C138.233 504.693 138.995 503.931 139.934 503.931H175.93Z" fill="#20201F"/>
<path fill-rule="evenodd" clip-rule="evenodd" d="M176.273 471.445C176.742 471.445 177.123 471.826 177.123 472.296C177.123 472.765 176.742 473.146 176.273 473.146C166.437 473.146 157.54 476.358 151.111 481.546C144.732 486.694 140.785 493.794 140.785 501.621C140.785 502.091 140.404 502.472 139.934 502.472C139.465 502.472 139.084 502.091 139.084 501.621C139.084 493.257 143.275 485.691 150.048 480.225C156.768 474.802 166.042 471.445 176.273 471.445Z" fill="#20201F"/>
<path fill-rule="evenodd" clip-rule="evenodd" d="M194.746 568.746C194.746 569.685 193.984 570.446 193.046 570.446C192.107 570.446 191.345 569.685 191.345 568.746V532.749C191.345 531.811 192.107 531.049 193.046 531.049C193.984 531.049 194.746 531.811 194.746 532.749V568.746Z" fill="#20201F"/>
<path fill-rule="evenodd" clip-rule="evenodd" d="M246.797 569.088C246.797 569.557 246.416 569.938 245.947 569.938C245.477 569.938 245.096 569.557 245.096 569.088C245.096 559.328 240.011 550.478 231.794 544.061C223.517 537.599 212.066 533.6 199.41 533.6C198.94 533.6 198.56 533.219 198.56 532.749C198.56 532.28 198.94 531.899 199.41 531.899C212.449 531.899 224.27 536.038 232.836 542.726C241.46 549.46 246.797 558.78 246.797 569.088Z" fill="#20201F"/>
<path fill-rule="evenodd" clip-rule="evenodd" d="M125.938 127.794C125.938 126.855 126.7 126.093 127.638 126.093C128.577 126.093 129.339 126.855 129.339 127.794V163.79C129.339 164.729 128.577 165.491 127.638 165.491C126.7 165.491 125.938 164.729 125.938 163.79V127.794Z" fill="#20201F"/>
<path fill-rule="evenodd" clip-rule="evenodd" d="M168.541 127.452C168.541 126.982 168.922 126.601 169.391 126.601C169.861 126.601 170.242 126.982 170.242 127.452C170.242 137.719 166.032 147.017 159.23 153.747C152.427 160.476 143.031 164.64 132.661 164.64C132.191 164.64 131.811 164.259 131.811 163.79C131.811 163.32 132.191 162.939 132.661 162.939C142.57 162.939 151.543 158.966 158.034 152.544C164.523 146.124 168.541 137.251 168.541 127.452Z" fill="#20201F"/>
<path fill-rule="evenodd" clip-rule="evenodd" d="M165.388 372.577H75.0337V336.435H166.451V372.577H165.388ZM103.313 368.304C104.307 368.304 105.213 367.897 105.867 367.239C106.52 366.584 106.928 365.681 106.928 364.689V344.28C106.928 343.288 106.52 342.385 105.867 341.726C105.213 341.072 104.307 340.666 103.313 340.666H82.9033C81.9117 340.666 81.0077 341.073 80.3504 341.726C79.6964 342.38 79.29 343.285 79.29 344.28V364.689C79.29 365.684 79.6964 366.589 80.3529 367.241C81.0077 367.896 81.9117 368.304 82.9033 368.304H103.313ZM154.878 366.615C156.254 366.615 157.504 366.054 158.41 365.15C159.314 364.246 159.874 362.996 159.874 361.619C159.874 360.244 159.314 358.994 158.407 358.087C157.502 357.183 156.253 356.623 154.878 356.623C153.5 356.623 152.25 357.183 151.348 358.089C150.442 358.993 149.882 360.243 149.882 361.619C149.882 362.996 150.442 364.246 151.346 365.15C152.25 366.054 153.5 366.615 154.878 366.615ZM154.878 353.452C156.55 353.452 158.065 352.772 159.161 351.676C160.258 350.58 160.937 349.064 160.937 347.392C160.937 345.721 160.258 344.205 159.161 343.109C158.065 342.013 156.55 341.333 154.878 341.333C153.207 341.333 151.691 342.013 150.595 343.109C149.498 344.205 148.819 345.721 148.819 347.392C148.819 349.064 149.498 350.58 150.595 351.676C151.691 352.772 153.207 353.452 154.878 353.452ZM151.646 350.625C152.471 351.451 153.616 351.963 154.878 351.963C156.141 351.963 157.285 351.451 158.11 350.625C158.936 349.799 159.449 348.654 159.449 347.392C159.449 346.13 158.936 344.986 158.11 344.16C157.285 343.334 156.141 342.822 154.878 342.822C153.616 342.822 152.471 343.334 151.646 344.16C150.82 344.986 150.307 346.13 150.307 347.392C150.307 348.654 150.82 349.799 151.646 350.625ZM141.883 367.678C143.555 367.678 145.07 366.998 146.167 365.902C147.263 364.806 147.942 363.291 147.942 361.619C147.942 359.947 147.264 358.431 146.167 357.334C145.071 356.238 143.555 355.56 141.883 355.56C140.211 355.56 138.696 356.239 137.6 357.335C136.504 358.431 135.824 359.947 135.824 361.619C135.824 363.29 136.504 364.806 137.6 365.902C138.696 366.998 140.212 367.678 141.883 367.678ZM138.651 364.851C139.477 365.677 140.621 366.19 141.883 366.19C143.146 366.19 144.29 365.677 145.115 364.851C145.941 364.025 146.454 362.882 146.454 361.619C146.454 360.356 145.942 359.211 145.116 358.385C144.291 357.56 143.146 357.048 141.883 357.048C140.62 357.048 139.477 357.561 138.651 358.386C137.825 359.212 137.312 360.356 137.312 361.619C137.312 362.881 137.825 364.025 138.651 364.851ZM141.883 352.388C143.259 352.388 144.509 351.828 145.415 350.924C146.319 350.02 146.879 348.77 146.879 347.392C146.879 346.017 146.319 344.768 145.412 343.861C144.507 342.957 143.258 342.396 141.883 342.396C140.505 342.396 139.255 342.957 138.353 343.862C137.447 344.766 136.887 346.016 136.887 347.392C136.887 348.77 137.447 350.02 138.351 350.924C139.255 351.828 140.505 352.388 141.883 352.388ZM139.403 349.873C140.036 350.507 140.915 350.9 141.883 350.9C142.854 350.9 143.732 350.508 144.364 349.876C144.997 349.24 145.391 348.361 145.391 347.392C145.391 346.421 144.999 345.544 144.366 344.912C143.732 344.277 142.854 343.885 141.883 343.885C140.915 343.885 140.036 344.278 139.403 344.912C138.767 345.544 138.375 346.421 138.375 347.392C138.375 348.361 138.769 349.24 139.403 349.873ZM152.397 364.099C153.031 364.733 153.909 365.127 154.878 365.127C155.849 365.127 156.727 364.735 157.359 364.102C157.992 363.466 158.386 362.587 158.386 361.619C158.386 360.648 157.994 359.77 157.361 359.138C156.727 358.503 155.849 358.111 154.878 358.111C153.909 358.111 153.031 358.505 152.397 359.138C151.762 359.77 151.37 360.648 151.37 361.619C151.37 362.587 151.764 363.466 152.397 364.099ZM82.9033 366.178H103.313C103.721 366.178 104.094 366.009 104.364 365.74C104.634 365.473 104.802 365.099 104.802 364.689V344.28C104.802 343.87 104.634 343.497 104.365 343.228C104.094 342.96 103.721 342.792 103.313 342.792H82.9033C82.4934 342.792 82.1209 342.958 81.8539 343.225C81.5843 343.499 81.4159 343.874 81.4159 344.28V364.689C81.4159 365.096 81.5843 365.47 81.8539 365.74C82.1209 366.011 82.4934 366.178 82.9033 366.178ZM132.47 338.561V370.451H164.325V338.561H132.47ZM130.344 370.451V338.561H77.1597V370.451H130.344Z" fill="#20201F"/>
<path fill-rule="evenodd" clip-rule="evenodd" d="M88.8357 533.105C86.0388 534.903 82.4501 536.014 79.2952 536.014C76.1895 536.014 73.7659 534.948 72.0787 533.204V533.199C71.4409 532.538 70.9468 531.754 70.5284 530.924V534.511C70.5284 536.653 69.6338 537.908 68.1975 538.637C66.8905 539.302 65.1616 539.466 63.2661 539.466H62.4837V539.446C60.9037 539.402 59.4614 539.205 58.3381 538.637C56.9026 537.908 56.0122 536.653 56.0122 534.522V516.927C56.0122 514.786 56.9026 513.533 58.3381 512.808C59.4614 512.245 60.9037 512.041 62.4837 511.999V511.979H63.2661C65.1616 511.979 66.8905 512.143 68.1975 512.808C69.6338 513.533 70.5284 514.786 70.5284 516.927V520.522C70.9468 519.691 71.4358 518.909 72.0787 518.247C73.7659 516.499 76.1895 515.433 79.2952 515.433C82.6295 515.433 86.4461 516.676 89.3085 518.658C91.9499 520.488 93.8037 522.961 93.8037 525.723C93.8037 528.647 91.7245 531.251 88.8357 533.105ZM60.9326 525.216H60.9275V525.218C60.9275 525.849 61.1911 526.43 61.6087 526.848V526.854C62.0262 527.27 62.6019 527.529 63.2406 527.529C63.8801 527.529 64.4507 527.27 64.8682 526.854H64.8759L64.875 526.848C65.2926 526.428 65.5502 525.849 65.5502 525.218C65.5502 524.577 65.2926 523.998 64.8759 523.583C64.4583 523.166 63.8801 522.905 63.2406 522.905C62.6019 522.905 62.0313 523.166 61.6087 523.583C61.1911 523.998 60.9326 524.577 60.9326 525.216ZM62.1155 525.213V525.218C62.1155 525.529 62.2397 525.811 62.4361 526.011H62.4438C62.6453 526.212 62.931 526.341 63.2406 526.341C63.5561 526.341 63.8452 526.216 64.0408 526.021L64.0459 526.013C64.2423 525.811 64.369 525.529 64.369 525.218C64.369 524.896 64.2423 524.616 64.0459 524.415C63.8452 524.219 63.5561 524.095 63.2406 524.095C62.9259 524.095 62.6393 524.219 62.4438 524.425C62.2346 524.621 62.1078 524.905 62.1078 525.213H62.1155ZM68.9663 516.927C68.9663 515.483 68.3991 514.658 67.5002 514.198C66.5682 513.734 65.2756 513.577 63.8146 513.55H63.2661C61.5832 513.55 60.0746 513.678 59.0362 514.198C58.1365 514.658 57.5761 515.485 57.5761 516.927V534.522C57.5761 535.962 58.1365 536.784 59.0362 537.245C60.0746 537.768 61.5832 537.895 63.2661 537.895H63.875C65.3053 537.863 66.5886 537.709 67.5002 537.247C68.4067 536.784 68.9663 535.955 68.9663 534.511V516.927ZM88.4241 519.938C85.8117 518.127 82.3311 516.994 79.2952 516.994C76.6419 516.994 74.601 517.88 73.2004 519.327C71.6671 520.909 70.8746 523.188 70.8746 525.723C70.8746 528.261 71.6671 530.537 73.2004 532.124C74.601 533.567 76.6419 534.452 79.2952 534.452C82.1627 534.452 85.4375 533.437 87.9972 531.793C90.4642 530.21 92.2407 528.053 92.2407 525.723C92.2407 523.531 90.6607 521.494 88.4241 519.938Z" fill="#20201F"/>
<path fill-rule="evenodd" clip-rule="evenodd" d="M156.796 554.268L137.305 554.274C130.787 554.274 131.555 540.781 131.622 539.881C131.622 536.757 132.896 533.924 134.949 531.873C136.997 529.827 139.835 528.558 142.958 528.558H151.229C154.357 528.558 157.193 529.824 159.246 531.873C161.292 533.924 162.562 536.762 162.576 539.886C162.617 540.802 163.288 554.274 156.796 554.268ZM147.09 541.125V541.122C147.775 541.116 148.408 540.846 148.86 540.395C149.304 539.937 149.577 539.312 149.577 538.63C149.577 537.941 149.302 537.315 148.85 536.865C148.4 536.414 147.775 536.137 147.087 536.137C146.404 536.137 145.779 536.414 145.328 536.865H145.319V536.87C144.869 537.32 144.587 537.941 144.587 538.63C144.587 539.312 144.869 539.945 145.319 540.395H145.322C145.773 540.846 146.404 541.129 147.087 541.129L147.09 541.125ZM147.094 539.854C147.42 539.854 147.727 539.719 147.946 539.494C148.161 539.28 148.298 538.972 148.298 538.63C148.298 538.29 148.167 537.981 147.952 537.761C147.731 537.549 147.431 537.41 147.087 537.413C146.744 537.413 146.447 537.546 146.227 537.761L146.222 537.766C146.003 537.981 145.87 538.29 145.87 538.63C145.87 538.966 146.012 539.274 146.223 539.494L146.229 539.496C146.444 539.712 146.751 539.843 147.082 539.843L147.094 539.84V539.854ZM147.09 549.518C150.232 549.518 153.084 548.582 155.159 547.079C157.313 545.508 158.653 543.312 158.654 540.879C158.654 538.437 157.313 536.242 155.159 534.667C153.077 533.156 150.223 532.228 147.08 532.228H147.066C143.932 532.236 141.085 533.17 139.005 534.676C136.86 536.247 135.523 538.437 135.521 540.866L135.523 540.879C135.523 543.318 136.86 545.501 139.022 547.079C141.091 548.585 143.943 549.518 147.082 549.516L147.09 549.518ZM147.09 547.761C149.844 547.755 152.332 546.948 154.131 545.649C155.829 544.407 156.887 542.716 156.887 540.879C156.887 539.03 155.829 537.339 154.118 536.092C152.328 534.799 149.844 533.994 147.08 533.994H147.075L147.066 533.988C144.31 533.994 141.832 534.799 140.042 536.1C138.348 537.336 137.292 539.03 137.287 540.866L137.292 540.879C137.288 542.719 138.346 544.413 140.048 545.649C141.839 546.942 144.324 547.755 147.08 547.753H147.09V547.761ZM156.79 552.508C161.628 552.508 160.804 539.983 160.804 539.951L160.797 539.886C160.797 537.246 159.731 534.858 158.006 533.122C156.265 531.391 153.873 530.323 151.229 530.323H142.966C140.313 530.323 137.917 531.386 136.184 533.122C134.453 534.85 133.388 537.246 133.382 539.886L133.38 539.948C133.38 539.979 132.492 552.508 137.31 552.508H156.79Z" fill="#20201F"/>
<path fill-rule="evenodd" clip-rule="evenodd" d="M58.9138 486.982V385.393H100.473V486.982H58.9138ZM83.7325 467.186C83.7325 466.07 83.2801 465.06 82.5499 464.33C81.8154 463.599 80.8063 463.147 79.6931 463.147C78.58 463.147 77.5708 463.599 76.8398 464.33C76.1062 465.064 75.6538 466.073 75.6538 467.186C75.6538 468.3 76.1062 469.308 76.8364 470.04C77.5669 470.773 78.5774 471.225 79.6931 471.225C80.8089 471.225 81.8194 470.773 82.5499 470.043C83.2801 469.313 83.7325 468.302 83.7325 467.186ZM81.4084 465.471C80.9713 465.034 80.3635 464.762 79.6931 464.762C79.0227 464.762 78.415 465.034 77.9779 465.471C77.5411 465.908 77.2695 466.516 77.2695 467.186C77.2695 467.857 77.5411 468.464 77.9787 468.9C78.4175 469.338 79.0242 469.61 79.6931 469.61C80.3621 469.61 80.9687 469.338 81.4075 468.9C81.8452 468.462 82.1168 467.855 82.1168 467.186C82.1168 466.517 81.8452 465.91 81.4084 465.471ZM99.2834 479.314L97.6676 407.602C97.6676 396.831 90.4637 388.011 79.6931 388.011C68.9226 388.011 61.7187 396.831 61.7187 407.602L60.1029 479.314C60.1029 480.704 60.6718 481.967 61.5854 482.881C62.5033 483.795 63.7658 484.363 65.1523 484.363H94.234C95.6187 484.363 96.8807 483.795 97.7969 482.881C98.7153 481.961 99.2834 480.699 99.2834 479.314ZM95.6479 407.602C95.6479 397.935 89.3601 390.031 79.6931 390.031C70.0261 390.031 63.7383 397.935 63.7383 407.602L62.1226 479.314C62.1226 480.145 62.4644 480.903 63.0138 481.457C63.56 482.003 64.3177 482.343 65.1523 482.343H94.234C95.0685 482.343 95.8257 482.003 96.3764 481.452C96.9235 480.905 97.2637 480.149 97.2637 479.314L95.6479 407.602ZM56.9355 385.18V487.195C56.9355 487.702 57.1364 488.165 57.4556 488.5C57.7757 488.838 58.2215 489.046 58.7102 489.046H100.676C101.165 489.046 101.611 488.838 101.931 488.504C102.252 488.169 102.451 487.705 102.451 487.195V385.18C102.451 384.67 102.252 384.206 101.931 383.87C101.607 383.538 101.163 383.328 100.676 383.328H58.7102C58.2238 383.328 57.7805 383.537 57.4587 383.87C57.1356 384.21 56.9355 384.672 56.9355 385.18Z" fill="#20201F"/>
<path fill-rule="evenodd" clip-rule="evenodd" d="M275.909 483.932V486.853C275.909 487.201 275.623 487.485 275.276 487.485H274.666V517.517C274.666 518.024 274.254 518.436 273.747 518.436C273.24 518.436 272.829 518.024 272.829 517.517V487.485H267.822C267.476 487.485 267.189 487.199 267.189 486.853V483.932C267.189 483.584 267.473 483.301 267.822 483.301H275.276C275.625 483.301 275.909 483.584 275.909 483.932Z" fill="#20201F"/>
<path fill-rule="evenodd" clip-rule="evenodd" d="M266.978 549.375V546.454C266.978 546.106 267.264 545.823 267.611 545.823H268.221V515.79C268.221 515.283 268.633 514.872 269.14 514.872C269.647 514.872 270.058 515.283 270.058 515.79V545.823H275.065C275.411 545.823 275.698 546.108 275.698 546.454V549.375C275.698 549.723 275.414 550.006 275.065 550.006H267.611C267.262 550.006 266.978 549.723 266.978 549.375Z" fill="#20201F"/>
<path d="M297.896 186H295.77V287.095H297.896V186Z" fill="#20201F"/>
<path d="M319.301 197.543V211.916H317.823V198.858H314.435V197.543H319.301ZM326.515 203.436C328.595 203.436 330.108 203.813 331.053 204.566C332.011 205.305 332.49 206.345 332.49 207.687C332.49 208.522 332.291 209.268 331.894 209.925C331.511 210.582 330.929 211.102 330.149 211.485C329.369 211.855 328.411 212.04 327.275 212.04C326.248 212.04 325.269 211.875 324.338 211.547C323.421 211.205 322.682 210.753 322.121 210.192L322.839 209.021C323.319 209.514 323.948 209.918 324.728 210.233C325.509 210.534 326.351 210.684 327.254 210.684C328.445 210.684 329.362 210.417 330.005 209.884C330.662 209.35 330.991 208.638 330.991 207.748C330.991 206.763 330.621 206.017 329.882 205.51C329.157 205.004 327.925 204.75 326.186 204.75H323.127L323.866 197.543H331.73V198.858H325.16L324.667 203.436H326.515ZM335.475 212.019C335.174 212.019 334.914 211.91 334.695 211.691C334.49 211.472 334.387 211.205 334.387 210.89C334.387 210.575 334.49 210.315 334.695 210.109C334.914 209.89 335.174 209.781 335.475 209.781C335.777 209.781 336.037 209.89 336.256 210.109C336.475 210.315 336.584 210.575 336.584 210.89C336.584 211.205 336.475 211.472 336.256 211.691C336.037 211.91 335.777 212.019 335.475 212.019ZM343.805 203.703C345.311 203.785 346.454 204.196 347.234 204.935C348.028 205.661 348.425 206.612 348.425 207.789C348.425 208.611 348.227 209.343 347.83 209.986C347.433 210.616 346.844 211.116 346.064 211.485C345.284 211.855 344.332 212.04 343.21 212.04C342.169 212.04 341.184 211.875 340.253 211.547C339.336 211.205 338.597 210.753 338.035 210.192L338.754 209.021C339.233 209.514 339.87 209.918 340.664 210.233C341.458 210.534 342.306 210.684 343.21 210.684C344.387 210.684 345.297 210.431 345.941 209.925C346.584 209.405 346.906 208.693 346.906 207.789C346.906 206.9 346.584 206.201 345.941 205.695C345.297 205.188 344.325 204.935 343.025 204.935H341.998V203.847L345.982 198.858H338.631V197.543H347.871V198.591L343.805 203.703ZM360.391 197.543V198.591L354.375 211.916H352.773L358.687 198.858H351.295V201.547H349.837V197.543H360.391Z" fill="#20201F"/>
<path d="M317.72 232.989C319.226 233.071 320.369 233.482 321.149 234.221C321.943 234.946 322.34 235.898 322.34 237.075C322.34 237.896 322.142 238.629 321.745 239.272C321.348 239.902 320.759 240.401 319.979 240.771C319.198 241.14 318.247 241.325 317.125 241.325C316.084 241.325 315.099 241.161 314.168 240.832C313.251 240.49 312.512 240.039 311.95 239.477L312.669 238.307C313.148 238.8 313.785 239.204 314.579 239.518C315.373 239.819 316.221 239.97 317.125 239.97C318.302 239.97 319.212 239.717 319.856 239.21C320.499 238.69 320.821 237.978 320.821 237.075C320.821 236.185 320.499 235.487 319.856 234.981C319.212 234.474 318.24 234.221 316.94 234.221H315.913V233.133L319.897 228.143H312.546V226.829H321.786V227.876L317.72 232.989ZM334.306 226.829V227.876L328.29 241.202H326.688L332.601 228.143H325.21V230.833H323.752V226.829H334.306ZM336.28 241.305C335.978 241.305 335.718 241.195 335.499 240.976C335.294 240.757 335.191 240.49 335.191 240.175C335.191 239.861 335.294 239.6 335.499 239.395C335.718 239.176 335.978 239.067 336.28 239.067C336.581 239.067 336.841 239.176 337.06 239.395C337.279 239.6 337.388 239.861 337.388 240.175C337.388 240.49 337.279 240.757 337.06 240.976C336.841 241.195 336.581 241.305 336.28 241.305ZM345.03 241.325C343.921 241.325 342.929 241.031 342.053 240.442C341.19 239.854 340.513 239.012 340.02 237.917C339.541 236.808 339.301 235.508 339.301 234.016C339.301 232.523 339.541 231.23 340.02 230.135C340.513 229.026 341.19 228.177 342.053 227.589C342.929 227 343.921 226.706 345.03 226.706C346.139 226.706 347.124 227 347.987 227.589C348.863 228.177 349.547 229.026 350.04 230.135C350.533 231.23 350.779 232.523 350.779 234.016C350.779 235.508 350.533 236.808 350.04 237.917C349.547 239.012 348.863 239.854 347.987 240.442C347.124 241.031 346.139 241.325 345.03 241.325ZM345.03 239.97C345.865 239.97 346.597 239.737 347.227 239.272C347.87 238.807 348.37 238.129 348.726 237.239C349.082 236.349 349.26 235.275 349.26 234.016C349.26 232.756 349.082 231.682 348.726 230.792C348.37 229.902 347.87 229.225 347.227 228.759C346.597 228.294 345.865 228.061 345.03 228.061C344.195 228.061 343.456 228.294 342.813 228.759C342.183 229.225 341.69 229.902 341.334 230.792C340.978 231.682 340.8 232.756 340.8 234.016C340.8 235.275 340.978 236.349 341.334 237.239C341.69 238.129 342.183 238.807 342.813 239.272C343.456 239.737 344.195 239.97 345.03 239.97ZM362.879 226.829V227.876L356.863 241.202H355.261L361.175 228.143H353.783V230.833H352.325V226.829H362.879Z" fill="#20201F"/>
<path d="M317.362 262.275C318.867 262.357 320.01 262.768 320.791 263.507C321.585 264.232 321.982 265.184 321.982 266.361C321.982 267.182 321.783 267.915 321.386 268.558C320.989 269.188 320.401 269.687 319.62 270.057C318.84 270.427 317.889 270.611 316.766 270.611C315.726 270.611 314.74 270.447 313.81 270.119C312.892 269.776 312.153 269.325 311.592 268.763L312.311 267.593C312.79 268.086 313.426 268.49 314.22 268.804C315.014 269.106 315.863 269.256 316.766 269.256C317.944 269.256 318.854 269.003 319.497 268.496C320.141 267.976 320.462 267.265 320.462 266.361C320.462 265.471 320.141 264.773 319.497 264.267C318.854 263.76 317.882 263.507 316.581 263.507H315.555V262.419L319.538 257.429H312.187V256.115H321.427V257.162L317.362 262.275ZM332.298 262.953C333.202 263.254 333.893 263.705 334.372 264.308C334.865 264.91 335.111 265.636 335.111 266.484C335.111 267.319 334.886 268.052 334.434 268.681C333.982 269.297 333.332 269.776 332.483 270.119C331.648 270.447 330.663 270.611 329.526 270.611C327.802 270.611 326.447 270.242 325.461 269.503C324.475 268.763 323.983 267.757 323.983 266.484C323.983 265.622 324.215 264.896 324.681 264.308C325.16 263.705 325.851 263.254 326.755 262.953C326.015 262.665 325.454 262.255 325.071 261.721C324.688 261.173 324.496 260.53 324.496 259.791C324.496 258.627 324.948 257.703 325.851 257.019C326.768 256.334 327.993 255.992 329.526 255.992C330.539 255.992 331.422 256.149 332.175 256.464C332.942 256.765 333.537 257.203 333.962 257.778C334.386 258.353 334.598 259.024 334.598 259.791C334.598 260.53 334.4 261.173 334.003 261.721C333.606 262.255 333.038 262.665 332.298 262.953ZM325.974 259.832C325.974 260.626 326.289 261.255 326.919 261.721C327.548 262.186 328.418 262.419 329.526 262.419C330.635 262.419 331.504 262.186 332.134 261.721C332.777 261.255 333.099 260.632 333.099 259.852C333.099 259.045 332.771 258.408 332.114 257.943C331.47 257.477 330.608 257.245 329.526 257.245C328.431 257.245 327.562 257.477 326.919 257.943C326.289 258.408 325.974 259.038 325.974 259.832ZM329.526 269.359C330.799 269.359 331.792 269.099 332.504 268.579C333.229 268.058 333.592 267.353 333.592 266.464C333.592 265.574 333.229 264.876 332.504 264.369C331.792 263.849 330.799 263.589 329.526 263.589C328.267 263.589 327.275 263.849 326.549 264.369C325.837 264.876 325.481 265.574 325.481 266.464C325.481 267.367 325.837 268.079 326.549 268.599C327.261 269.106 328.253 269.359 329.526 269.359ZM338.468 270.591C338.167 270.591 337.906 270.481 337.687 270.262C337.482 270.043 337.379 269.776 337.379 269.462C337.379 269.147 337.482 268.887 337.687 268.681C337.906 268.462 338.167 268.353 338.468 268.353C338.769 268.353 339.029 268.462 339.248 268.681C339.467 268.887 339.576 269.147 339.576 269.462C339.576 269.776 339.467 270.043 339.248 270.262C339.029 270.481 338.769 270.591 338.468 270.591ZM351.725 269.174V270.488H341.644V269.441L347.619 263.589C348.372 262.85 348.878 262.213 349.138 261.68C349.412 261.132 349.549 260.585 349.549 260.037C349.549 259.188 349.255 258.531 348.666 258.066C348.091 257.587 347.263 257.347 346.181 257.347C344.498 257.347 343.191 257.881 342.26 258.949L341.213 258.045C341.774 257.388 342.486 256.882 343.348 256.526C344.224 256.17 345.21 255.992 346.305 255.992C347.769 255.992 348.926 256.341 349.775 257.039C350.637 257.724 351.068 258.668 351.068 259.873C351.068 260.612 350.904 261.324 350.575 262.008C350.247 262.693 349.624 263.48 348.707 264.369L343.82 269.174H351.725ZM358.467 262.275C359.973 262.357 361.116 262.768 361.896 263.507C362.69 264.232 363.087 265.184 363.087 266.361C363.087 267.182 362.889 267.915 362.492 268.558C362.095 269.188 361.506 269.687 360.726 270.057C359.946 270.427 358.994 270.611 357.872 270.611C356.832 270.611 355.846 270.447 354.915 270.119C353.998 269.776 353.259 269.325 352.698 268.763L353.416 267.593C353.895 268.086 354.532 268.49 355.326 268.804C356.12 269.106 356.969 269.256 357.872 269.256C359.049 269.256 359.959 269.003 360.603 268.496C361.246 267.976 361.568 267.265 361.568 266.361C361.568 265.471 361.246 264.773 360.603 264.267C359.959 263.76 358.988 263.507 357.687 263.507H356.661V262.419L360.644 257.429H353.293V256.115H362.533V257.162L358.467 262.275Z" fill="#20201F"/>
<path d="M278.827 217.756V258H269.514V225.23H261.465V217.756H278.827Z" fill="#20201F"/>
<path d="M295.875 416.665H290.208V425.084H287.025V414.037H295.875V416.665ZM302.286 425.248C301.122 425.248 300.075 425.009 299.144 424.529C298.227 424.037 297.508 423.359 296.988 422.497C296.468 421.634 296.208 420.656 296.208 419.561C296.208 418.465 296.468 417.487 296.988 416.624C297.508 415.762 298.227 415.091 299.144 414.612C300.075 414.119 301.122 413.873 302.286 413.873C303.449 413.873 304.489 414.119 305.407 414.612C306.324 415.091 307.042 415.762 307.562 416.624C308.083 417.487 308.343 418.465 308.343 419.561C308.343 420.656 308.083 421.634 307.562 422.497C307.042 423.359 306.324 424.037 305.407 424.529C304.489 425.009 303.449 425.248 302.286 425.248ZM302.286 422.62C303.107 422.62 303.778 422.346 304.298 421.799C304.832 421.237 305.099 420.491 305.099 419.561C305.099 418.63 304.832 417.891 304.298 417.343C303.778 416.782 303.107 416.501 302.286 416.501C301.464 416.501 300.787 416.782 300.253 417.343C299.719 417.891 299.452 418.63 299.452 419.561C299.452 420.491 299.719 421.237 300.253 421.799C300.787 422.346 301.464 422.62 302.286 422.62ZM315.802 425.248C314.625 425.248 313.564 425.009 312.62 424.529C311.689 424.037 310.956 423.359 310.423 422.497C309.902 421.634 309.642 420.656 309.642 419.561C309.642 418.465 309.902 417.487 310.423 416.624C310.956 415.762 311.689 415.091 312.62 414.612C313.564 414.119 314.625 413.873 315.802 413.873C316.966 413.873 317.979 414.119 318.841 414.612C319.717 415.091 320.354 415.783 320.751 416.686L318.266 418.021C317.691 417.008 316.863 416.501 315.782 416.501C314.947 416.501 314.255 416.775 313.708 417.322C313.16 417.87 312.887 418.616 312.887 419.561C312.887 420.505 313.16 421.251 313.708 421.799C314.255 422.346 314.947 422.62 315.782 422.62C316.877 422.62 317.705 422.113 318.266 421.1L320.751 422.456C320.354 423.332 319.717 424.016 318.841 424.509C317.979 425.002 316.966 425.248 315.802 425.248ZM331.938 416.665H328.201V425.084H325.018V416.665H321.281V414.037H331.938V416.665ZM333.645 414.037H336.828V420.608L342.207 414.037H345.144V425.084H341.961V418.513L336.602 425.084H333.645V414.037ZM348.223 414.037H351.405V418.349H356.21V414.037H359.413V425.084H356.21V420.957H351.405V425.084H348.223V414.037ZM366.771 413.873C368.482 413.873 369.796 414.284 370.713 415.105C371.63 415.913 372.089 417.138 372.089 418.78V425.084H369.091V423.708C368.489 424.735 367.366 425.248 365.724 425.248C364.875 425.248 364.136 425.104 363.506 424.817C362.89 424.529 362.418 424.133 362.089 423.626C361.761 423.12 361.596 422.545 361.596 421.901C361.596 420.875 361.98 420.067 362.746 419.478C363.527 418.89 364.724 418.595 366.34 418.595H368.886C368.886 417.897 368.673 417.364 368.249 416.994C367.825 416.611 367.188 416.419 366.34 416.419C365.751 416.419 365.169 416.515 364.594 416.706C364.033 416.884 363.554 417.131 363.157 417.446L362.007 415.208C362.609 414.783 363.328 414.455 364.163 414.222C365.012 413.989 365.881 413.873 366.771 413.873ZM366.524 423.092C367.072 423.092 367.558 422.969 367.982 422.723C368.406 422.463 368.708 422.086 368.886 421.593V420.464H366.689C365.374 420.464 364.717 420.895 364.717 421.758C364.717 422.168 364.875 422.497 365.19 422.743C365.518 422.976 365.963 423.092 366.524 423.092ZM384.686 414.037V425.084H381.832V421.922H379.471L377.376 425.084H373.968L376.493 421.47C375.727 421.169 375.138 420.738 374.727 420.177C374.331 419.602 374.132 418.91 374.132 418.103C374.132 416.802 374.597 415.803 375.528 415.105C376.473 414.393 377.766 414.037 379.409 414.037H384.686ZM379.471 416.645C378.786 416.645 378.266 416.768 377.91 417.014C377.568 417.261 377.397 417.658 377.397 418.205C377.397 418.753 377.561 419.157 377.89 419.417C378.232 419.663 378.745 419.786 379.429 419.786H381.832V416.645H379.471Z" fill="#20201F"/>
<path d="M317.114 437.188V451.561H313.788V439.858H310.913V437.188H317.114ZM324.539 442.589C326.565 442.589 328.057 442.992 329.015 443.8C329.987 444.608 330.473 445.689 330.473 447.044C330.473 447.92 330.254 448.721 329.816 449.447C329.378 450.158 328.707 450.733 327.804 451.171C326.914 451.596 325.812 451.808 324.498 451.808C323.485 451.808 322.486 451.678 321.5 451.418C320.528 451.144 319.7 450.761 319.016 450.268L320.33 447.722C320.877 448.132 321.507 448.454 322.219 448.687C322.93 448.906 323.663 449.015 324.416 449.015C325.251 449.015 325.908 448.851 326.387 448.523C326.866 448.194 327.105 447.735 327.105 447.147C327.105 446.531 326.852 446.065 326.346 445.751C325.853 445.436 324.991 445.278 323.759 445.278H320.083L320.822 437.188H329.59V439.858H323.594L323.368 442.589H324.539ZM333.711 451.726C333.15 451.726 332.678 451.534 332.295 451.151C331.911 450.767 331.72 450.288 331.72 449.713C331.72 449.125 331.911 448.653 332.295 448.297C332.678 447.927 333.15 447.742 333.711 447.742C334.273 447.742 334.745 447.927 335.128 448.297C335.511 448.653 335.703 449.125 335.703 449.713C335.703 450.288 335.511 450.767 335.128 451.151C334.745 451.534 334.273 451.726 333.711 451.726ZM344.111 443.04C345.37 443.246 346.335 443.718 347.006 444.457C347.677 445.183 348.012 446.086 348.012 447.167C348.012 448.002 347.793 448.776 347.355 449.488C346.917 450.186 346.246 450.747 345.343 451.171C344.453 451.596 343.358 451.808 342.058 451.808C341.045 451.808 340.045 451.678 339.06 451.418C338.088 451.144 337.26 450.761 336.575 450.268L337.869 447.722C338.417 448.132 339.046 448.454 339.758 448.687C340.483 448.906 341.223 449.015 341.976 449.015C342.811 449.015 343.468 448.858 343.947 448.543C344.426 448.215 344.665 447.756 344.665 447.167C344.665 445.99 343.769 445.402 341.976 445.402H340.456V443.205L343.413 439.858H337.294V437.188H347.355V439.344L344.111 443.04ZM360.619 437.188V439.344L355.281 451.561H351.667L356.821 439.899H352.057V442.24H349.101V437.188H360.619Z" fill="#20201F"/>
<path d="M107.819 228.077H106.156V232.266H102.953V221.219H106.156V225.511H107.881L110.879 221.219H114.287L110.427 226.517L114.554 232.266H110.776L107.819 228.077ZM126.573 221.219L121.583 232.944C121.077 234.217 120.447 235.113 119.694 235.633C118.955 236.154 118.058 236.414 117.004 236.414C116.429 236.414 115.861 236.325 115.3 236.147C114.739 235.969 114.28 235.722 113.924 235.408L115.095 233.128C115.341 233.347 115.622 233.518 115.937 233.642C116.265 233.765 116.587 233.826 116.902 233.826C117.34 233.826 117.695 233.717 117.969 233.498C118.243 233.293 118.489 232.944 118.708 232.451L118.75 232.348L113.965 221.219H117.271L120.372 228.714L123.493 221.219H126.573ZM134.436 232.266L132.013 228.878L129.508 232.266H126.018L130.268 226.702L126.162 221.219H129.755L132.096 224.443L134.498 221.219H137.906L133.8 226.619L138.071 232.266H134.436ZM139.647 221.219H142.83V225.531H147.635V221.219H150.838V232.266H147.635V228.139H142.83V232.266H139.647V221.219ZM163.719 221.219V232.266H160.865V229.104H158.503L156.409 232.266H153.001L155.526 228.652C154.76 228.351 154.171 227.92 153.76 227.359C153.363 226.784 153.165 226.092 153.165 225.285C153.165 223.984 153.63 222.985 154.561 222.287C155.506 221.575 156.799 221.219 158.442 221.219H163.719ZM158.503 223.827C157.819 223.827 157.299 223.95 156.943 224.197C156.601 224.443 156.43 224.84 156.43 225.388C156.43 225.935 156.594 226.339 156.922 226.599C157.265 226.845 157.778 226.969 158.462 226.969H160.865V223.827H158.503Z" fill="#20201F"/>
<path d="M117.284 246.933C119.297 246.933 120.871 247.549 122.007 248.781C123.143 249.999 123.711 251.758 123.711 254.058C123.711 255.687 123.403 257.083 122.787 258.246C122.185 259.41 121.329 260.293 120.221 260.895C119.112 261.497 117.832 261.799 116.381 261.799C115.614 261.799 114.882 261.716 114.184 261.552C113.486 261.374 112.89 261.128 112.398 260.813L113.63 258.37C114.328 258.849 115.224 259.088 116.319 259.088C117.538 259.088 118.503 258.732 119.215 258.02C119.926 257.295 120.31 256.255 120.364 254.899C119.502 255.762 118.311 256.193 116.792 256.193C115.875 256.193 115.04 256.008 114.287 255.639C113.534 255.269 112.938 254.749 112.5 254.078C112.062 253.394 111.843 252.607 111.843 251.717C111.843 250.759 112.083 249.917 112.562 249.191C113.041 248.466 113.691 247.911 114.513 247.528C115.348 247.131 116.272 246.933 117.284 246.933ZM117.531 253.709C118.256 253.709 118.845 253.51 119.297 253.113C119.762 252.702 119.995 252.182 119.995 251.553C119.995 250.923 119.769 250.41 119.317 250.013C118.879 249.616 118.27 249.417 117.49 249.417C116.778 249.417 116.196 249.609 115.745 249.992C115.306 250.375 115.087 250.896 115.087 251.553C115.087 252.21 115.306 252.737 115.745 253.134C116.196 253.517 116.792 253.709 117.531 253.709ZM126.935 261.716C126.374 261.716 125.902 261.525 125.519 261.141C125.135 260.758 124.944 260.279 124.944 259.704C124.944 259.116 125.135 258.643 125.519 258.287C125.902 257.918 126.374 257.733 126.935 257.733C127.497 257.733 127.969 257.918 128.352 258.287C128.735 258.643 128.927 259.116 128.927 259.704C128.927 260.279 128.735 260.758 128.352 261.141C127.969 261.525 127.497 261.716 126.935 261.716ZM141.359 258.842V261.552H130.497V259.396L136.041 254.16C136.63 253.599 137.027 253.12 137.232 252.723C137.438 252.312 137.54 251.909 137.54 251.512C137.54 250.937 137.342 250.499 136.945 250.197C136.562 249.883 135.993 249.725 135.241 249.725C134.611 249.725 134.043 249.848 133.536 250.095C133.03 250.328 132.606 250.683 132.263 251.163L129.84 249.602C130.402 248.767 131.175 248.117 132.161 247.651C133.146 247.172 134.276 246.933 135.549 246.933C136.616 246.933 137.547 247.111 138.341 247.467C139.149 247.809 139.771 248.302 140.209 248.945C140.661 249.575 140.887 250.321 140.887 251.183C140.887 251.963 140.723 252.696 140.394 253.38C140.066 254.064 139.429 254.845 138.485 255.721L135.179 258.842H141.359ZM149.611 252.538C150.528 252.538 151.363 252.723 152.116 253.093C152.869 253.462 153.465 253.989 153.903 254.674C154.341 255.344 154.56 256.125 154.56 257.014C154.56 257.973 154.32 258.814 153.841 259.54C153.362 260.265 152.705 260.827 151.87 261.224C151.049 261.607 150.131 261.799 149.118 261.799C147.106 261.799 145.532 261.183 144.396 259.951C143.26 258.719 142.692 256.96 142.692 254.674C142.692 253.045 143 251.648 143.616 250.485C144.232 249.321 145.087 248.439 146.182 247.836C147.291 247.234 148.571 246.933 150.022 246.933C150.788 246.933 151.521 247.022 152.219 247.2C152.931 247.364 153.533 247.604 154.026 247.918L152.794 250.362C152.082 249.883 151.185 249.643 150.104 249.643C148.886 249.643 147.921 249.999 147.209 250.711C146.497 251.423 146.114 252.456 146.059 253.811C146.908 252.963 148.092 252.538 149.611 252.538ZM148.934 259.314C149.645 259.314 150.22 259.122 150.658 258.739C151.11 258.356 151.336 257.836 151.336 257.179C151.336 256.522 151.11 256.001 150.658 255.618C150.22 255.221 149.632 255.023 148.893 255.023C148.167 255.023 147.572 255.228 147.106 255.639C146.641 256.036 146.408 256.549 146.408 257.179C146.408 257.808 146.634 258.322 147.086 258.719C147.537 259.116 148.153 259.314 148.934 259.314Z" fill="#20201F"/>
<path d="M210.254 419.081L207.248 415.121L204.224 419.081H202.784L206.528 414.221L202.964 409.613H204.404L207.248 413.321L210.092 409.613H211.496L207.932 414.221L211.712 419.081H210.254ZM217.378 419.171C216.466 419.171 215.644 418.967 214.912 418.559C214.18 418.139 213.604 417.563 213.184 416.831C212.764 416.099 212.554 415.271 212.554 414.347C212.554 413.423 212.764 412.595 213.184 411.863C213.604 411.131 214.18 410.561 214.912 410.153C215.644 409.745 216.466 409.541 217.378 409.541C218.29 409.541 219.112 409.745 219.844 410.153C220.576 410.561 221.146 411.131 221.554 411.863C221.974 412.595 222.184 413.423 222.184 414.347C222.184 415.271 221.974 416.099 221.554 416.831C221.146 417.563 220.576 418.139 219.844 418.559C219.112 418.967 218.29 419.171 217.378 419.171ZM217.378 418.037C218.05 418.037 218.65 417.887 219.178 417.587C219.718 417.275 220.138 416.837 220.438 416.273C220.738 415.709 220.888 415.067 220.888 414.347C220.888 413.627 220.738 412.985 220.438 412.421C220.138 411.857 219.718 411.425 219.178 411.125C218.65 410.813 218.05 410.657 217.378 410.657C216.706 410.657 216.1 410.813 215.56 411.125C215.032 411.425 214.612 411.857 214.3 412.421C214 412.985 213.85 413.627 213.85 414.347C213.85 415.067 214 415.709 214.3 416.273C214.612 416.837 215.032 417.275 215.56 417.587C216.1 417.887 216.706 418.037 217.378 418.037ZM232.603 409.613V419.081H231.325V410.747H226.789L226.663 413.087C226.567 415.055 226.339 416.567 225.979 417.623C225.619 418.679 224.977 419.207 224.053 419.207C223.801 419.207 223.495 419.159 223.135 419.063L223.225 417.965C223.441 418.013 223.591 418.037 223.675 418.037C224.167 418.037 224.539 417.809 224.791 417.353C225.043 416.897 225.211 416.333 225.295 415.661C225.379 414.989 225.451 414.101 225.511 412.997L225.673 409.613H232.603ZM243.976 409.613V419.081H242.698V410.747H238.162L238.036 413.087C237.94 415.055 237.712 416.567 237.352 417.623C236.992 418.679 236.35 419.207 235.426 419.207C235.174 419.207 234.868 419.159 234.508 419.063L234.598 417.965C234.814 418.013 234.964 418.037 235.048 418.037C235.54 418.037 235.912 417.809 236.164 417.353C236.416 416.897 236.584 416.333 236.668 415.661C236.752 414.989 236.824 414.101 236.884 412.997L237.046 409.613H243.976Z" fill="#20201F"/>
<path d="M216.274 445.055H213.754V448.367H212.458V445.055H205.348V444.119L212.026 435.767H213.466L207.022 443.903H212.494V440.987H213.754V443.903H216.274V445.055ZM218.788 448.457C218.524 448.457 218.296 448.361 218.104 448.169C217.924 447.977 217.834 447.743 217.834 447.467C217.834 447.191 217.924 446.963 218.104 446.783C218.296 446.591 218.524 446.495 218.788 446.495C219.052 446.495 219.28 446.591 219.472 446.783C219.664 446.963 219.76 447.191 219.76 447.467C219.76 447.743 219.664 447.977 219.472 448.169C219.28 448.361 219.052 448.457 218.788 448.457ZM232.112 445.055H229.592V448.367H228.296V445.055H221.186V444.119L227.864 435.767H229.304L222.86 443.903H228.332V440.987H229.592V443.903H232.112V445.055ZM240.696 441.761C241.488 442.025 242.094 442.421 242.514 442.949C242.946 443.477 243.162 444.113 243.162 444.857C243.162 445.589 242.964 446.231 242.568 446.783C242.172 447.323 241.602 447.743 240.858 448.043C240.126 448.331 239.262 448.475 238.266 448.475C236.754 448.475 235.566 448.151 234.702 447.503C233.838 446.855 233.406 445.973 233.406 444.857C233.406 444.101 233.61 443.465 234.018 442.949C234.438 442.421 235.044 442.025 235.836 441.761C235.188 441.509 234.696 441.149 234.36 440.681C234.024 440.201 233.856 439.637 233.856 438.989C233.856 437.969 234.252 437.159 235.044 436.559C235.848 435.959 236.922 435.659 238.266 435.659C239.154 435.659 239.928 435.797 240.588 436.073C241.26 436.337 241.782 436.721 242.154 437.225C242.526 437.729 242.712 438.317 242.712 438.989C242.712 439.637 242.538 440.201 242.19 440.681C241.842 441.149 241.344 441.509 240.696 441.761ZM235.152 439.025C235.152 439.721 235.428 440.273 235.98 440.681C236.532 441.089 237.294 441.293 238.266 441.293C239.238 441.293 240 441.089 240.552 440.681C241.116 440.273 241.398 439.727 241.398 439.043C241.398 438.335 241.11 437.777 240.534 437.369C239.97 436.961 239.214 436.757 238.266 436.757C237.306 436.757 236.544 436.961 235.98 437.369C235.428 437.777 235.152 438.329 235.152 439.025ZM238.266 447.377C239.382 447.377 240.252 447.149 240.876 446.693C241.512 446.237 241.83 445.619 241.83 444.839C241.83 444.059 241.512 443.447 240.876 443.003C240.252 442.547 239.382 442.319 238.266 442.319C237.162 442.319 236.292 442.547 235.656 443.003C235.032 443.447 234.72 444.059 234.72 444.839C234.72 445.631 235.032 446.255 235.656 446.711C236.28 447.155 237.15 447.377 238.266 447.377Z" fill="#20201F"/>
<path d="M116.826 69.0063C117.702 69.0063 118.482 69.2043 119.166 69.6003C119.862 69.9843 120.402 70.5303 120.786 71.2384C121.17 71.9344 121.362 72.7324 121.362 73.6324C121.362 74.5564 121.158 75.3784 120.75 76.0984C120.354 76.8065 119.796 77.3585 119.076 77.7545C118.356 78.1505 117.528 78.3485 116.592 78.3485C115.02 78.3485 113.802 77.7965 112.938 76.6925C112.074 75.5884 111.642 74.0644 111.642 72.1204C111.642 70.0923 112.026 68.5383 112.794 67.4583C113.574 66.3783 114.786 65.6463 116.43 65.2623L120.678 64.2902L120.894 65.4603L116.898 66.3783C115.542 66.6783 114.546 67.2123 113.91 67.9803C113.274 68.7363 112.926 69.8583 112.866 71.3464C113.25 70.6144 113.784 70.0443 114.468 69.6363C115.152 69.2163 115.938 69.0063 116.826 69.0063ZM116.628 77.2865C117.288 77.2865 117.876 77.1365 118.392 76.8365C118.92 76.5244 119.328 76.0924 119.616 75.5404C119.916 74.9884 120.066 74.3644 120.066 73.6684C120.066 72.9724 119.922 72.3604 119.634 71.8324C119.346 71.3044 118.938 70.8964 118.41 70.6084C117.894 70.3083 117.3 70.1583 116.628 70.1583C115.956 70.1583 115.356 70.3083 114.828 70.6084C114.312 70.8964 113.904 71.3044 113.604 71.8324C113.316 72.3604 113.172 72.9724 113.172 73.6684C113.172 74.3644 113.316 74.9884 113.604 75.5404C113.904 76.0924 114.318 76.5244 114.846 76.8365C115.374 77.1365 115.968 77.2865 116.628 77.2865ZM127.307 68.7003C128.543 68.7003 129.491 69.0123 130.151 69.6363C130.811 70.2483 131.141 71.1604 131.141 72.3724V78.2405H129.917V76.7645C129.629 77.2565 129.203 77.6405 128.639 77.9165C128.087 78.1925 127.427 78.3305 126.659 78.3305C125.603 78.3305 124.763 78.0785 124.139 77.5745C123.515 77.0705 123.203 76.4044 123.203 75.5764C123.203 74.7724 123.491 74.1244 124.067 73.6324C124.655 73.1404 125.585 72.8944 126.857 72.8944H129.863V72.3184C129.863 71.5024 129.635 70.8844 129.179 70.4643C128.723 70.0323 128.057 69.8163 127.181 69.8163C126.581 69.8163 126.005 69.9183 125.453 70.1223C124.901 70.3143 124.427 70.5844 124.031 70.9324L123.455 69.9783C123.935 69.5703 124.511 69.2583 125.183 69.0423C125.855 68.8143 126.563 68.7003 127.307 68.7003ZM126.857 77.3225C127.577 77.3225 128.195 77.1605 128.711 76.8365C129.227 76.5004 129.611 76.0204 129.863 75.3964V73.8484H126.893C125.273 73.8484 124.463 74.4124 124.463 75.5404C124.463 76.0924 124.673 76.5304 125.093 76.8545C125.513 77.1665 126.101 77.3225 126.857 77.3225ZM142.283 68.7723V78.2405H141.005V69.9063H136.469L136.343 72.2464C136.247 74.2144 136.019 75.7264 135.659 76.7825C135.299 77.8385 134.657 78.3665 133.733 78.3665C133.481 78.3665 133.175 78.3185 132.815 78.2225L132.905 77.1245C133.121 77.1725 133.271 77.1965 133.355 77.1965C133.847 77.1965 134.219 76.9685 134.471 76.5124C134.723 76.0564 134.891 75.4924 134.975 74.8204C135.059 74.1484 135.131 73.2604 135.191 72.1564L135.353 68.7723H142.283ZM149.354 74.0284H147.194V78.2405H145.916V68.7723H147.194V72.9304H149.372L152.702 68.7723H154.088L150.362 73.3624L154.358 78.2405H152.846L149.354 74.0284ZM159.947 78.3305C159.035 78.3305 158.213 78.1265 157.481 77.7185C156.749 77.2985 156.173 76.7225 155.753 75.9904C155.333 75.2584 155.123 74.4304 155.123 73.5064C155.123 72.5824 155.333 71.7544 155.753 71.0224C156.173 70.2903 156.749 69.7203 157.481 69.3123C158.213 68.9043 159.035 68.7003 159.947 68.7003C160.859 68.7003 161.682 68.9043 162.414 69.3123C163.146 69.7203 163.716 70.2903 164.124 71.0224C164.544 71.7544 164.754 72.5824 164.754 73.5064C164.754 74.4304 164.544 75.2584 164.124 75.9904C163.716 76.7225 163.146 77.2985 162.414 77.7185C161.682 78.1265 160.859 78.3305 159.947 78.3305ZM159.947 77.1965C160.619 77.1965 161.22 77.0465 161.748 76.7465C162.288 76.4344 162.708 75.9964 163.008 75.4324C163.308 74.8684 163.458 74.2264 163.458 73.5064C163.458 72.7864 163.308 72.1444 163.008 71.5804C162.708 71.0164 162.288 70.5844 161.748 70.2843C161.22 69.9723 160.619 69.8163 159.947 69.8163C159.275 69.8163 158.669 69.9723 158.129 70.2843C157.601 70.5844 157.181 71.0164 156.869 71.5804C156.569 72.1444 156.419 72.7864 156.419 73.5064C156.419 74.2264 156.569 74.8684 156.869 75.4324C157.181 75.9964 157.601 76.4344 158.129 76.7465C158.669 77.0465 159.275 77.1965 159.947 77.1965ZM167.485 68.7723H168.763V72.9664H174.721V68.7723H175.999V78.2405H174.721V74.0644H168.763V78.2405H167.485V68.7723Z" fill="#20201F"/>
<path d="M101.312 100.326C102.632 100.398 103.634 100.758 104.318 101.407C105.014 102.043 105.362 102.877 105.362 103.909C105.362 104.629 105.188 105.271 104.84 105.835C104.492 106.387 103.976 106.825 103.292 107.149C102.608 107.473 101.774 107.635 100.79 107.635C99.8779 107.635 99.0138 107.491 98.1978 107.203C97.3938 106.903 96.7458 106.507 96.2538 106.015L96.8838 104.989C97.3038 105.421 97.8618 105.775 98.5578 106.051C99.2538 106.315 99.9979 106.447 100.79 106.447C101.822 106.447 102.62 106.225 103.184 105.781C103.748 105.325 104.03 104.701 104.03 103.909C104.03 103.129 103.748 102.517 103.184 102.073C102.62 101.629 101.768 101.407 100.628 101.407H99.7279V100.452L103.22 96.0784H96.7758V94.9264H104.876V95.8444L101.312 100.326ZM108.16 107.617C107.896 107.617 107.668 107.521 107.476 107.329C107.296 107.137 107.206 106.903 107.206 106.627C107.206 106.351 107.296 106.123 107.476 105.943C107.668 105.751 107.896 105.655 108.16 105.655C108.424 105.655 108.652 105.751 108.844 105.943C109.036 106.123 109.132 106.351 109.132 106.627C109.132 106.903 109.036 107.137 108.844 107.329C108.652 107.521 108.424 107.617 108.16 107.617ZM118.397 100.921C119.189 101.185 119.795 101.581 120.215 102.109C120.647 102.637 120.863 103.273 120.863 104.017C120.863 104.749 120.665 105.391 120.269 105.943C119.873 106.483 119.303 106.903 118.559 107.203C117.827 107.491 116.963 107.635 115.967 107.635C114.454 107.635 113.266 107.311 112.402 106.663C111.538 106.015 111.106 105.133 111.106 104.017C111.106 103.261 111.31 102.625 111.718 102.109C112.138 101.581 112.744 101.185 113.536 100.921C112.888 100.668 112.396 100.308 112.06 99.8405C111.724 99.3605 111.556 98.7965 111.556 98.1485C111.556 97.1284 111.952 96.3184 112.744 95.7184C113.548 95.1184 114.622 94.8184 115.967 94.8184C116.855 94.8184 117.629 94.9564 118.289 95.2324C118.961 95.4964 119.483 95.8804 119.855 96.3844C120.227 96.8884 120.413 97.4764 120.413 98.1485C120.413 98.7965 120.239 99.3605 119.891 99.8405C119.543 100.308 119.045 100.668 118.397 100.921ZM112.852 98.1845C112.852 98.8805 113.128 99.4325 113.68 99.8405C114.232 100.248 114.995 100.452 115.967 100.452C116.939 100.452 117.701 100.248 118.253 99.8405C118.817 99.4325 119.099 98.8865 119.099 98.2025C119.099 97.4944 118.811 96.9364 118.235 96.5284C117.671 96.1204 116.915 95.9164 115.967 95.9164C115.007 95.9164 114.244 96.1204 113.68 96.5284C113.128 96.9364 112.852 97.4884 112.852 98.1845ZM115.967 106.537C117.083 106.537 117.953 106.309 118.577 105.853C119.213 105.397 119.531 104.779 119.531 103.999C119.531 103.219 119.213 102.607 118.577 102.163C117.953 101.707 117.083 101.479 115.967 101.479C114.862 101.479 113.992 101.707 113.356 102.163C112.732 102.607 112.42 103.219 112.42 103.999C112.42 104.791 112.732 105.415 113.356 105.871C113.98 106.315 114.85 106.537 115.967 106.537ZM127.877 99.9845C128.705 99.9845 129.437 100.14 130.073 100.452C130.721 100.764 131.225 101.209 131.585 101.785C131.945 102.349 132.125 103.009 132.125 103.765C132.125 104.533 131.939 105.211 131.567 105.799C131.195 106.387 130.679 106.843 130.019 107.167C129.371 107.479 128.639 107.635 127.823 107.635C126.155 107.635 124.877 107.089 123.989 105.997C123.101 104.893 122.657 103.339 122.657 101.335C122.657 99.9305 122.897 98.7425 123.377 97.7704C123.857 96.7984 124.529 96.0664 125.393 95.5744C126.257 95.0704 127.265 94.8184 128.417 94.8184C129.665 94.8184 130.661 95.0464 131.405 95.5024L130.883 96.5464C130.283 96.1504 129.467 95.9524 128.435 95.9524C127.043 95.9524 125.951 96.3964 125.159 97.2844C124.367 98.1605 123.971 99.4385 123.971 101.119C123.971 101.419 123.989 101.761 124.025 102.145C124.337 101.461 124.835 100.933 125.519 100.56C126.203 100.176 126.989 99.9845 127.877 99.9845ZM127.769 106.537C128.681 106.537 129.419 106.291 129.983 105.799C130.559 105.295 130.847 104.629 130.847 103.801C130.847 102.973 130.559 102.313 129.983 101.821C129.419 101.329 128.651 101.083 127.679 101.083C127.043 101.083 126.479 101.203 125.987 101.443C125.507 101.683 125.129 102.013 124.853 102.433C124.577 102.853 124.439 103.321 124.439 103.837C124.439 104.317 124.565 104.761 124.817 105.169C125.081 105.577 125.465 105.907 125.969 106.159C126.473 106.411 127.073 106.537 127.769 106.537Z" fill="#20201F"/>
<path d="M153.29 111.019C152.618 109.915 152.102 108.649 151.742 107.221C151.382 105.781 151.202 104.239 151.202 102.595C151.202 100.951 151.382 99.4085 151.742 97.9685C152.102 96.5164 152.618 95.2504 153.29 94.1704H154.514C153.806 95.3824 153.284 96.6844 152.948 98.0765C152.624 99.4685 152.462 100.975 152.462 102.595C152.462 104.215 152.624 105.721 152.948 107.113C153.284 108.505 153.806 109.807 154.514 111.019H153.29ZM159.858 94.9264V107.527H158.562V96.0784H155.592V94.9264H159.858ZM163.842 107.617C163.578 107.617 163.35 107.521 163.158 107.329C162.978 107.137 162.888 106.903 162.888 106.627C162.888 106.351 162.978 106.123 163.158 105.943C163.35 105.751 163.578 105.655 163.842 105.655C164.106 105.655 164.334 105.751 164.526 105.943C164.718 106.123 164.814 106.351 164.814 106.627C164.814 106.903 164.718 107.137 164.526 107.329C164.334 107.521 164.106 107.617 163.842 107.617ZM169.965 94.9264V107.527H168.669V96.0784H165.699V94.9264H169.965ZM178.197 99.9845C179.026 99.9845 179.758 100.14 180.394 100.452C181.042 100.764 181.546 101.209 181.906 101.785C182.266 102.349 182.446 103.009 182.446 103.765C182.446 104.533 182.26 105.211 181.888 105.799C181.516 106.387 181 106.843 180.34 107.167C179.692 107.479 178.96 107.635 178.143 107.635C176.475 107.635 175.197 107.089 174.309 105.997C173.421 104.893 172.977 103.339 172.977 101.335C172.977 99.9305 173.217 98.7425 173.697 97.7704C174.177 96.7984 174.849 96.0664 175.713 95.5744C176.577 95.0704 177.585 94.8184 178.738 94.8184C179.986 94.8184 180.982 95.0464 181.726 95.5024L181.204 96.5464C180.604 96.1504 179.788 95.9524 178.756 95.9524C177.363 95.9524 176.271 96.3964 175.479 97.2844C174.687 98.1605 174.291 99.4385 174.291 101.119C174.291 101.419 174.309 101.761 174.345 102.145C174.657 101.461 175.155 100.933 175.839 100.56C176.523 100.176 177.309 99.9845 178.197 99.9845ZM178.089 106.537C179.002 106.537 179.74 106.291 180.304 105.799C180.88 105.295 181.168 104.629 181.168 103.801C181.168 102.973 180.88 102.313 180.304 101.821C179.74 101.329 178.972 101.083 177.999 101.083C177.363 101.083 176.799 101.203 176.307 101.443C175.827 101.683 175.449 102.013 175.173 102.433C174.897 102.853 174.759 103.321 174.759 103.837C174.759 104.317 174.885 104.761 175.137 105.169C175.401 105.577 175.785 105.907 176.289 106.159C176.793 106.411 177.393 106.537 178.089 106.537ZM183.73 111.019C184.438 109.807 184.96 108.511 185.296 107.131C185.632 105.739 185.8 104.227 185.8 102.595C185.8 100.963 185.632 99.4565 185.296 98.0765C184.96 96.6844 184.438 95.3824 183.73 94.1704H184.954C185.626 95.2504 186.142 96.5164 186.502 97.9685C186.874 99.4085 187.06 100.951 187.06 102.595C187.06 104.239 186.88 105.781 186.52 107.221C186.16 108.661 185.638 109.927 184.954 111.019H183.73Z" fill="#20201F"/>
<path d="M121.701 443.073C123.525 443.073 124.851 443.403 125.679 444.063C126.519 444.711 126.939 445.623 126.939 446.799C126.939 447.531 126.765 448.185 126.417 448.761C126.081 449.337 125.571 449.793 124.887 450.129C124.203 450.453 123.363 450.615 122.367 450.615C121.467 450.615 120.609 450.471 119.793 450.183C118.989 449.883 118.341 449.487 117.849 448.995L118.479 447.969C118.899 448.401 119.451 448.755 120.135 449.031C120.819 449.295 121.557 449.427 122.349 449.427C123.393 449.427 124.197 449.193 124.761 448.725C125.337 448.257 125.625 447.633 125.625 446.853C125.625 445.989 125.301 445.335 124.653 444.891C124.017 444.447 122.937 444.225 121.413 444.225H118.731L119.379 437.907H126.273V439.059H120.513L120.081 443.073H121.701ZM129.556 450.597C129.292 450.597 129.064 450.501 128.872 450.309C128.692 450.117 128.602 449.883 128.602 449.607C128.602 449.331 128.692 449.103 128.872 448.923C129.064 448.731 129.292 448.635 129.556 448.635C129.82 448.635 130.048 448.731 130.24 448.923C130.432 449.103 130.528 449.331 130.528 449.607C130.528 449.883 130.432 450.117 130.24 450.309C130.048 450.501 129.82 450.597 129.556 450.597ZM141.179 449.355V450.507H132.341V449.589L137.579 444.459C138.239 443.811 138.683 443.253 138.911 442.785C139.151 442.305 139.271 441.825 139.271 441.345C139.271 440.601 139.013 440.025 138.497 439.617C137.993 439.197 137.267 438.987 136.319 438.987C134.843 438.987 133.697 439.455 132.881 440.391L131.963 439.599C132.455 439.023 133.079 438.579 133.835 438.267C134.603 437.955 135.467 437.799 136.427 437.799C137.711 437.799 138.725 438.105 139.469 438.717C140.225 439.317 140.603 440.145 140.603 441.201C140.603 441.849 140.459 442.473 140.171 443.073C139.883 443.673 139.337 444.363 138.533 445.143L134.249 449.355H141.179ZM150.023 443.901C150.815 444.165 151.421 444.561 151.841 445.089C152.273 445.617 152.489 446.253 152.489 446.997C152.489 447.729 152.291 448.371 151.895 448.923C151.499 449.463 150.929 449.883 150.185 450.183C149.453 450.471 148.589 450.615 147.593 450.615C146.081 450.615 144.893 450.291 144.029 449.643C143.165 448.995 142.733 448.113 142.733 446.997C142.733 446.241 142.937 445.605 143.345 445.089C143.765 444.561 144.371 444.165 145.163 443.901C144.515 443.649 144.023 443.289 143.687 442.821C143.351 442.341 143.183 441.777 143.183 441.129C143.183 440.109 143.579 439.299 144.371 438.699C145.175 438.099 146.249 437.799 147.593 437.799C148.481 437.799 149.255 437.937 149.915 438.213C150.587 438.477 151.109 438.861 151.481 439.365C151.853 439.869 152.039 440.457 152.039 441.129C152.039 441.777 151.865 442.341 151.517 442.821C151.169 443.289 150.671 443.649 150.023 443.901ZM144.479 441.165C144.479 441.861 144.755 442.413 145.307 442.821C145.859 443.229 146.621 443.433 147.593 443.433C148.565 443.433 149.327 443.229 149.879 442.821C150.443 442.413 150.725 441.867 150.725 441.183C150.725 440.475 150.437 439.917 149.861 439.509C149.297 439.101 148.541 438.897 147.593 438.897C146.633 438.897 145.871 439.101 145.307 439.509C144.755 439.917 144.479 440.469 144.479 441.165ZM147.593 449.517C148.709 449.517 149.579 449.289 150.203 448.833C150.839 448.377 151.157 447.759 151.157 446.979C151.157 446.199 150.839 445.587 150.203 445.143C149.579 444.687 148.709 444.459 147.593 444.459C146.489 444.459 145.619 444.687 144.983 445.143C144.359 445.587 144.047 446.199 144.047 446.979C144.047 447.771 144.359 448.395 144.983 448.851C145.607 449.295 146.477 449.517 147.593 449.517Z" fill="#20201F"/>
<path d="M322.885 526.756V527.908H314.047V526.99L319.285 521.86C319.945 521.212 320.389 520.654 320.617 520.186C320.857 519.706 320.977 519.226 320.977 518.746C320.977 518.002 320.719 517.426 320.203 517.018C319.699 516.598 318.973 516.388 318.025 516.388C316.549 516.388 315.403 516.856 314.587 517.792L313.669 517C314.161 516.424 314.785 515.98 315.541 515.668C316.309 515.356 317.173 515.2 318.133 515.2C319.417 515.2 320.431 515.506 321.175 516.118C321.931 516.718 322.309 517.546 322.309 518.602C322.309 519.25 322.165 519.874 321.877 520.474C321.589 521.074 321.043 521.764 320.239 522.544L315.955 526.756H322.885ZM325.659 527.998C325.395 527.998 325.167 527.902 324.975 527.71C324.795 527.518 324.705 527.284 324.705 527.008C324.705 526.732 324.795 526.504 324.975 526.324C325.167 526.132 325.395 526.036 325.659 526.036C325.923 526.036 326.151 526.132 326.343 526.324C326.535 526.504 326.631 526.732 326.631 527.008C326.631 527.284 326.535 527.518 326.343 527.71C326.151 527.902 325.923 527.998 325.659 527.998ZM333.528 520.366C334.356 520.366 335.088 520.522 335.724 520.834C336.372 521.146 336.876 521.59 337.236 522.166C337.596 522.73 337.776 523.39 337.776 524.146C337.776 524.914 337.59 525.592 337.218 526.18C336.846 526.768 336.33 527.224 335.67 527.548C335.022 527.86 334.29 528.016 333.474 528.016C331.806 528.016 330.528 527.47 329.64 526.378C328.752 525.274 328.308 523.72 328.308 521.716C328.308 520.312 328.548 519.124 329.028 518.152C329.508 517.18 330.18 516.448 331.044 515.956C331.908 515.452 332.916 515.2 334.068 515.2C335.316 515.2 336.312 515.428 337.056 515.884L336.534 516.928C335.934 516.532 335.118 516.334 334.086 516.334C332.694 516.334 331.602 516.778 330.81 517.666C330.018 518.542 329.622 519.82 329.622 521.5C329.622 521.8 329.64 522.142 329.676 522.526C329.988 521.842 330.486 521.314 331.17 520.942C331.854 520.558 332.64 520.366 333.528 520.366ZM333.42 526.918C334.332 526.918 335.07 526.672 335.634 526.18C336.21 525.676 336.498 525.01 336.498 524.182C336.498 523.354 336.21 522.694 335.634 522.202C335.07 521.71 334.302 521.464 333.33 521.464C332.694 521.464 332.13 521.584 331.638 521.824C331.158 522.064 330.78 522.394 330.504 522.814C330.228 523.234 330.09 523.702 330.09 524.218C330.09 524.698 330.216 525.142 330.468 525.55C330.732 525.958 331.116 526.288 331.62 526.54C332.124 526.792 332.724 526.918 333.42 526.918ZM346.495 521.302C347.287 521.566 347.893 521.962 348.313 522.49C348.745 523.018 348.961 523.654 348.961 524.398C348.961 525.13 348.763 525.772 348.367 526.324C347.971 526.864 347.401 527.284 346.657 527.584C345.925 527.872 345.061 528.016 344.065 528.016C342.553 528.016 341.365 527.692 340.501 527.044C339.637 526.396 339.205 525.514 339.205 524.398C339.205 523.642 339.409 523.006 339.817 522.49C340.237 521.962 340.843 521.566 341.635 521.302C340.987 521.05 340.495 520.69 340.159 520.222C339.823 519.742 339.655 519.178 339.655 518.53C339.655 517.51 340.051 516.7 340.843 516.1C341.647 515.5 342.721 515.2 344.065 515.2C344.953 515.2 345.727 515.338 346.387 515.614C347.059 515.878 347.581 516.262 347.953 516.766C348.325 517.27 348.511 517.858 348.511 518.53C348.511 519.178 348.337 519.742 347.989 520.222C347.641 520.69 347.143 521.05 346.495 521.302ZM340.951 518.566C340.951 519.262 341.227 519.814 341.779 520.222C342.331 520.63 343.093 520.834 344.065 520.834C345.037 520.834 345.799 520.63 346.351 520.222C346.915 519.814 347.197 519.268 347.197 518.584C347.197 517.876 346.909 517.318 346.333 516.91C345.769 516.502 345.013 516.298 344.065 516.298C343.105 516.298 342.343 516.502 341.779 516.91C341.227 517.318 340.951 517.87 340.951 518.566ZM344.065 526.918C345.181 526.918 346.051 526.69 346.675 526.234C347.311 525.778 347.629 525.16 347.629 524.38C347.629 523.6 347.311 522.988 346.675 522.544C346.051 522.088 345.181 521.86 344.065 521.86C342.961 521.86 342.091 522.088 341.455 522.544C340.831 522.988 340.519 523.6 340.519 524.38C340.519 525.172 340.831 525.796 341.455 526.252C342.079 526.696 342.949 526.918 344.065 526.918Z" fill="black"/>
</g>
<defs>
<clipPath id="clip0_2384_28728">
<rect width="371.3" height="542.578" fill="white" transform="translate(39 29)"/>
</clipPath>
</defs>
</svg>
