<svg width="450" height="600" fill="none" xmlns="http://www.w3.org/2000/svg"><path fill="#fff" d="M0 0h450v600H0z"/><g clip-path="url(#a)"><path d="M410.3 118.827h-14.967v452.751H410.3V118.827z" fill="#ED9FA6"/><path fill-rule="evenodd" clip-rule="evenodd" d="M39 571.578h371.3V118.853l-171.788-.023V29L43.4 41.176l-.113 77.654-4.287.023v452.725z" fill="#C6C0E1"/><path d="M410.3 556.604H39v14.973h371.3v-14.973z" fill="#CFD0D0"/><path d="M410.3 118.827h-14.967v452.751H410.3V118.827z" fill="#FFF9D0"/><path fill-rule="evenodd" clip-rule="evenodd" d="M39 571.578h371.3V118.853l-171.788-.023V29L43.4 41.176l-.113 77.654-4.287.023v452.725z" fill="#FFF9D0"/><path d="M238.427 134.4h-35.929v35.933h35.929V134.4zM410.3 134.4h-14.967v14.972H410.3V134.4zM54.056 149.419H39.08v422.159h14.976V149.419zM410.3 149.372h-14.967v422.206H410.3V149.372z" fill="#20201F"/><path d="M54.055 556.604H39v14.974h15.055v-14.974zM395.333 556.604H249.209v14.974h146.124v-14.974zM189.325 556.604H54.055v14.974h135.27v-14.974zM124.644 126.615H39v22.757h85.644v-22.757zM269.568 126.615h-67.07v22.757h67.07v-22.757zM410.3 126.615h-14.967v22.757H410.3v-22.757z" fill="#20201F"/><path d="M124.644 118.83H39v7.785h85.644v-7.785zM273.165 118.829h-70.667v7.786h70.667v-7.786zM410.3 118.83h-18.564v7.785H410.3v-7.785z" fill="#20201F"/><path fill-rule="evenodd" clip-rule="evenodd" d="M39 41.45 238.512 29v89.83h-7.186V36.648L50.473 47.934v70.896h-7.186V48.382L39 48.65v-7.2z" fill="#20201F"/><path d="M39.08 375.745H39v4.791h.08v-4.791zM121.65 375.745H53.976v4.791h67.674v-4.791zM173.15 375.745h-51.5v4.791h51.5v-4.791zM201.766 375.745H173.15v4.791h28.616v-4.791z" fill="#20201F"/><path d="M201.766 332.027h-4.787v48.562h4.787v-48.562zM177.947 380.475h-4.797v89.521h4.797v-89.521zM273.897 375.385h-16.668v4.789h16.668v-4.789z" fill="#20201F"/><path d="M273.897 375.382h-4.796v108.012h4.796V375.382z" fill="#20201F"/><path d="M395.333 473.116H273.896v4.792h121.437v-4.792zM273.897 550.056h-4.796v6.548h4.796v-6.548zM177.947 509.562h-4.797v47.042h4.797v-47.042zM410.3 376.943h-.375v4.79h.375v-4.79zM391.746 118.83H273.159v3.852h118.587v-3.852zM395.335 126.595H269.569v3.851h125.766v-3.851zM395.335 145.5H269.569v3.851h125.766V145.5zM202.5 118.828h-29.943v3.852H202.5v-3.852zM202.501 126.593h-29.944v3.851h29.944v-3.851zM202.501 145.498h-29.944v3.851h29.944v-3.851z" fill="#20201F"/><path d="M175.384 118.818h-2.827v30.542h2.827v-30.542z" fill="#20201F"/><path fill-rule="evenodd" clip-rule="evenodd" d="M175.93 503.931a1.702 1.702 0 0 1 0 3.402h-35.996a1.702 1.702 0 0 1 0-3.402h35.996zM176.273 471.445a.85.85 0 0 1 0 1.701c-9.836 0-18.733 3.212-25.162 8.4-6.379 5.148-10.326 12.248-10.326 20.075a.851.851 0 1 1-1.701 0c0-8.364 4.191-15.93 10.964-21.396 6.72-5.423 15.994-8.78 26.225-8.78zM194.746 568.746a1.7 1.7 0 0 1-3.401 0v-35.997a1.701 1.701 0 0 1 3.401 0v35.997zM246.797 569.088a.85.85 0 0 1-1.701 0c0-9.76-5.085-18.61-13.302-25.027-8.277-6.462-19.728-10.461-32.384-10.461a.85.85 0 0 1 0-1.701c13.039 0 24.86 4.139 33.426 10.827 8.624 6.734 13.961 16.054 13.961 26.362zM125.938 127.794a1.701 1.701 0 0 1 3.401 0v35.996a1.702 1.702 0 0 1-3.401 0v-35.996zM168.541 127.452a.85.85 0 1 1 1.701 0c0 10.267-4.21 19.565-11.012 26.295a37.673 37.673 0 0 1-26.569 10.893.85.85 0 1 1 0-1.701c9.909 0 18.882-3.973 25.373-10.395 6.489-6.42 10.507-15.293 10.507-25.092zM165.388 372.577H75.034v-36.142h91.417v36.142h-1.063zm-62.075-4.273c.994 0 1.9-.407 2.554-1.065a3.608 3.608 0 0 0 1.061-2.55V344.28a3.625 3.625 0 0 0-3.615-3.614h-20.41a3.62 3.62 0 0 0-3.613 3.614v20.409c0 .995.406 1.9 1.063 2.552a3.603 3.603 0 0 0 2.55 1.063h20.41zm51.565-1.689a4.99 4.99 0 0 0 3.532-1.465 4.982 4.982 0 0 0 1.464-3.531c0-1.375-.56-2.625-1.467-3.532a4.982 4.982 0 0 0-7.059.002 4.975 4.975 0 0 0-1.466 3.53c0 1.377.56 2.627 1.464 3.531a4.983 4.983 0 0 0 3.532 1.465zm0-13.163c1.672 0 3.187-.68 4.283-1.776a6.04 6.04 0 0 0 1.776-4.284 6.039 6.039 0 0 0-1.776-4.283 6.041 6.041 0 0 0-4.283-1.776c-1.671 0-3.187.68-4.283 1.776a6.039 6.039 0 0 0-1.776 4.283 6.04 6.04 0 0 0 1.776 4.284 6.043 6.043 0 0 0 4.283 1.776zm-3.232-2.827a4.557 4.557 0 0 0 3.232 1.338 4.555 4.555 0 0 0 3.232-1.338 4.562 4.562 0 0 0 1.339-3.233 4.56 4.56 0 0 0-1.339-3.232 4.555 4.555 0 0 0-3.232-1.338 4.557 4.557 0 0 0-3.232 1.338 4.56 4.56 0 0 0-1.339 3.232c0 1.262.513 2.407 1.339 3.233zm-9.763 17.053c1.672 0 3.187-.68 4.284-1.776a6.04 6.04 0 0 0 1.775-4.283 6.043 6.043 0 0 0-1.775-4.285 6.042 6.042 0 0 0-4.284-1.774 6.04 6.04 0 0 0-4.283 1.775 6.044 6.044 0 0 0-1.776 4.284c0 1.671.68 3.187 1.776 4.283a6.043 6.043 0 0 0 4.283 1.776zm-3.232-2.827a4.56 4.56 0 0 0 3.232 1.339 4.556 4.556 0 0 0 3.232-1.339 4.558 4.558 0 0 0 1.339-3.232 4.562 4.562 0 0 0-1.338-3.234 4.561 4.561 0 0 0-3.233-1.337 4.561 4.561 0 0 0-3.232 1.338 4.56 4.56 0 0 0-1.339 3.233 4.56 4.56 0 0 0 1.339 3.232zm3.232-12.463a4.99 4.99 0 0 0 3.532-1.464 4.982 4.982 0 0 0 1.464-3.532 4.98 4.98 0 0 0-1.467-3.531 4.983 4.983 0 0 0-7.059.001 4.975 4.975 0 0 0-1.466 3.53c0 1.378.56 2.628 1.464 3.532a4.982 4.982 0 0 0 3.532 1.464zm-2.48-2.515a3.497 3.497 0 0 0 2.48 1.027 3.498 3.498 0 0 0 3.508-3.508c0-.971-.392-1.848-1.025-2.48a3.496 3.496 0 0 0-2.483-1.027c-.968 0-1.847.393-2.48 1.027a3.482 3.482 0 0 0-1.028 2.48c0 .969.394 1.848 1.028 2.481zm12.994 14.226a3.5 3.5 0 0 0 2.481 1.028c.971 0 1.849-.392 2.481-1.025a3.513 3.513 0 0 0 .002-4.964 3.496 3.496 0 0 0-2.483-1.027 3.503 3.503 0 0 0-3.508 3.508c0 .968.394 1.847 1.027 2.48zm-69.494 2.079h20.41a1.49 1.49 0 0 0 1.051-.438c.27-.267.438-.641.438-1.051V344.28a1.486 1.486 0 0 0-1.489-1.488h-20.41c-.41 0-.782.166-1.05.433-.269.274-.437.649-.437 1.055v20.409c0 .407.168.781.438 1.051.267.271.64.438 1.05.438zm49.567-27.617v31.89h31.855v-31.89H132.47zm-2.126 31.89v-31.89H77.16v31.89h53.184zM88.836 533.105c-2.797 1.798-6.386 2.909-9.54 2.909-3.107 0-5.53-1.066-7.217-2.81v-.005c-.638-.661-1.132-1.445-1.55-2.275v3.587c0 2.142-.895 3.397-2.331 4.126-1.307.665-3.036.829-4.932.829h-.782v-.02c-1.58-.044-3.023-.241-4.146-.809-1.435-.729-2.326-1.984-2.326-4.115v-17.595c0-2.141.89-3.394 2.326-4.119 1.123-.563 2.566-.767 4.146-.809v-.02h.782c1.896 0 3.625.164 4.932.829 1.436.725 2.33 1.978 2.33 4.119v3.595c.419-.831.908-1.613 1.55-2.275 1.688-1.748 4.111-2.814 7.217-2.814 3.334 0 7.151 1.243 10.013 3.225 2.642 1.83 4.496 4.303 4.496 7.065 0 2.924-2.08 5.528-4.968 7.382zm-27.903-7.889h-.005v.002c0 .631.263 1.212.68 1.63v.006a2.304 2.304 0 0 0 3.26 0h.008l-.001-.006a2.311 2.311 0 0 0-1.634-3.943 2.311 2.311 0 0 0-2.308 2.311zm1.182-.003v.005c0 .311.125.593.321.793h.008c.201.201.487.33.797.33.315 0 .604-.125.8-.32l.005-.008c.196-.202.323-.484.323-.795a1.14 1.14 0 0 0-.323-.803c-.2-.196-.49-.32-.805-.32-.315 0-.602.124-.797.33-.21.196-.336.48-.336.788h.008zm6.851-8.286c0-1.444-.567-2.269-1.466-2.729-.932-.464-2.224-.621-3.685-.648h-.549c-1.683 0-3.191.128-4.23.648-.9.46-1.46 1.287-1.46 2.729v17.595c0 1.44.56 2.262 1.46 2.723 1.039.523 2.547.65 4.23.65h.609c1.43-.032 2.714-.186 3.625-.648.907-.463 1.466-1.292 1.466-2.736v-17.584zm19.458 3.011c-2.612-1.811-6.093-2.944-9.129-2.944-2.653 0-4.694.886-6.095 2.333-1.533 1.582-2.325 3.861-2.325 6.396 0 2.538.792 4.814 2.325 6.401 1.401 1.443 3.442 2.328 6.095 2.328 2.868 0 6.142-1.015 8.702-2.659 2.467-1.583 4.244-3.74 4.244-6.07 0-2.192-1.58-4.229-3.817-5.785zM156.796 554.268l-19.491.006c-6.518 0-5.75-13.493-5.683-14.393 0-3.124 1.274-5.957 3.327-8.008a11.31 11.31 0 0 1 8.009-3.315h8.271c3.128 0 5.964 1.266 8.017 3.315a11.395 11.395 0 0 1 3.33 8.013c.041.916.712 14.388-5.78 14.382zm-9.706-13.143v-.003a2.533 2.533 0 0 0 1.77-.727 2.533 2.533 0 0 0 .717-1.765 2.481 2.481 0 0 0-2.49-2.493c-.683 0-1.308.277-1.759.728h-.009v.005a2.482 2.482 0 0 0-.732 1.76c0 .682.282 1.315.732 1.765h.003a2.504 2.504 0 0 0 1.765.734l.003-.004zm.004-1.271a1.218 1.218 0 0 0 1.204-1.224c0-.34-.131-.649-.346-.869a1.226 1.226 0 0 0-.865-.348c-.343 0-.64.133-.86.348l-.005.005a1.207 1.207 0 0 0-.352.864c0 .336.142.644.353.864l.006.002c.215.216.522.347.853.347l.012-.003v.014zm-.004 9.664c3.142 0 5.994-.936 8.069-2.439 2.154-1.571 3.494-3.767 3.495-6.2 0-2.442-1.341-4.637-3.495-6.212-2.082-1.511-4.936-2.439-8.079-2.439h-.014c-3.134.008-5.981.942-8.061 2.448-2.145 1.571-3.482 3.761-3.484 6.19l.002.013c0 2.439 1.337 4.622 3.499 6.2 2.069 1.506 4.921 2.439 8.06 2.437l.008.002zm0-1.757c2.754-.006 5.242-.813 7.041-2.112 1.698-1.242 2.756-2.933 2.756-4.77 0-1.849-1.058-3.54-2.769-4.787-1.79-1.293-4.274-2.098-7.038-2.098h-.005l-.009-.006c-2.756.006-5.234.811-7.024 2.112-1.694 1.236-2.75 2.93-2.755 4.766l.005.013c-.004 1.84 1.054 3.534 2.756 4.77 1.791 1.293 4.276 2.106 7.032 2.104h.01v.008zm9.7 4.747c4.838 0 4.014-12.525 4.014-12.557l-.007-.065a9.563 9.563 0 0 0-2.791-6.764 9.577 9.577 0 0 0-6.777-2.799h-8.263a9.539 9.539 0 0 0-6.782 2.799 9.559 9.559 0 0 0-2.802 6.764l-.002.062c0 .031-.888 12.56 3.93 12.56h19.48zM58.914 486.982V385.393h41.559v101.589h-41.56zm24.819-19.796a4.038 4.038 0 0 0-6.893-2.856 4.027 4.027 0 0 0-1.186 2.856c0 1.114.452 2.122 1.182 2.854a4.02 4.02 0 0 0 2.857 1.185 4.03 4.03 0 0 0 2.857-1.182 4.029 4.029 0 0 0 1.183-2.857zm-2.325-1.715a2.42 2.42 0 0 0-1.715-.709 2.42 2.42 0 0 0-2.424 2.424 2.421 2.421 0 0 0 4.138 1.714 2.426 2.426 0 0 0 0-3.429zm17.875 13.843-1.615-71.712c0-10.771-7.204-19.591-17.975-19.591-10.77 0-17.974 8.82-17.974 19.591l-1.616 71.712c0 1.39.569 2.653 1.482 3.567a5.048 5.048 0 0 0 3.567 1.482h29.082a5.039 5.039 0 0 0 3.563-1.482 5.04 5.04 0 0 0 1.486-3.567zm-3.635-71.712c0-9.667-6.288-17.571-15.955-17.571s-15.955 7.904-15.955 17.571l-1.615 71.712c0 .831.341 1.589.89 2.143a3.02 3.02 0 0 0 2.14.886h29.081a3.02 3.02 0 0 0 2.142-.891 3.015 3.015 0 0 0 .888-2.138l-1.616-71.712zM56.936 385.18v102.015c0 .507.2.97.52 1.305.32.338.765.546 1.254.546h41.966c.489 0 .935-.208 1.255-.542a1.89 1.89 0 0 0 .52-1.309V385.18c0-.51-.199-.974-.52-1.31a1.755 1.755 0 0 0-1.255-.542H58.71c-.486 0-.93.209-1.251.542-.323.34-.524.802-.524 1.31zM275.909 483.932v2.921a.635.635 0 0 1-.633.632h-.61v30.032a.92.92 0 0 1-1.837 0v-30.032h-5.007a.637.637 0 0 1-.633-.632v-2.921c0-.348.284-.631.633-.631h7.454c.349 0 .633.283.633.631zM266.978 549.375v-2.921c0-.348.286-.631.633-.631h.61V515.79a.919.919 0 0 1 1.837 0v30.033h5.007c.346 0 .633.285.633.631v2.921a.633.633 0 0 1-.633.631h-7.454a.633.633 0 0 1-.633-.631z" fill="#20201F"/><path d="M297.896 186h-2.126v101.095h2.126V186zM319.301 197.543v14.373h-1.478v-13.058h-3.388v-1.315h4.866zm7.214 5.893c2.08 0 3.593.377 4.538 1.13.958.739 1.437 1.779 1.437 3.121 0 .835-.199 1.581-.596 2.238-.383.657-.965 1.177-1.745 1.56-.78.37-1.738.555-2.874.555a8.774 8.774 0 0 1-2.937-.493c-.917-.342-1.656-.794-2.217-1.355l.718-1.171c.48.493 1.109.897 1.889 1.212a6.964 6.964 0 0 0 2.526.451c1.191 0 2.108-.267 2.751-.8.657-.534.986-1.246.986-2.136 0-.985-.37-1.731-1.109-2.238-.725-.506-1.957-.76-3.696-.76h-3.059l.739-7.207h7.864v1.315h-6.57l-.493 4.578h1.848zm8.96 8.583c-.301 0-.561-.109-.78-.328a1.13 1.13 0 0 1-.308-.801c0-.315.103-.575.308-.781.219-.219.479-.328.78-.328.302 0 .562.109.781.328.219.206.328.466.328.781s-.109.582-.328.801a1.066 1.066 0 0 1-.781.328zm8.33-8.316c1.506.082 2.649.493 3.429 1.232.794.726 1.191 1.677 1.191 2.854 0 .822-.198 1.554-.595 2.197-.397.63-.986 1.13-1.766 1.499-.78.37-1.732.555-2.854.555a8.831 8.831 0 0 1-2.957-.493c-.917-.342-1.656-.794-2.218-1.355l.719-1.171c.479.493 1.116.897 1.91 1.212a7.12 7.12 0 0 0 2.546.451c1.177 0 2.087-.253 2.731-.759.643-.52.965-1.232.965-2.136 0-.889-.322-1.588-.965-2.094-.644-.507-1.616-.76-2.916-.76h-1.027v-1.088l3.984-4.989h-7.351v-1.315h9.24v1.048l-4.066 5.112zm16.586-6.16v1.048l-6.016 13.325h-1.602l5.914-13.058h-7.392v2.689h-1.458v-4.004h10.554zM317.72 232.989c1.506.082 2.649.493 3.429 1.232.794.725 1.191 1.677 1.191 2.854 0 .821-.198 1.554-.595 2.197-.397.63-.986 1.129-1.766 1.499-.781.369-1.732.554-2.854.554a8.806 8.806 0 0 1-2.957-.493c-.917-.342-1.656-.793-2.218-1.355l.719-1.17c.479.493 1.116.897 1.91 1.211a7.12 7.12 0 0 0 2.546.452c1.177 0 2.087-.253 2.731-.76.643-.52.965-1.232.965-2.135 0-.89-.322-1.588-.965-2.094-.644-.507-1.616-.76-2.916-.76h-1.027v-1.088l3.984-4.99h-7.351v-1.314h9.24v1.047l-4.066 5.113zm16.586-6.16v1.047l-6.016 13.326h-1.602l5.913-13.059h-7.391v2.69h-1.458v-4.004h10.554zm1.974 14.476c-.302 0-.562-.11-.781-.329a1.13 1.13 0 0 1-.308-.801c0-.314.103-.575.308-.78.219-.219.479-.328.781-.328.301 0 .561.109.78.328.219.205.328.466.328.78 0 .315-.109.582-.328.801a1.066 1.066 0 0 1-.78.329zm8.75.02c-1.109 0-2.101-.294-2.977-.883-.863-.588-1.54-1.43-2.033-2.525-.479-1.109-.719-2.409-.719-3.901 0-1.493.24-2.786.719-3.881.493-1.109 1.17-1.958 2.033-2.546.876-.589 1.868-.883 2.977-.883 1.109 0 2.094.294 2.957.883.876.588 1.56 1.437 2.053 2.546.493 1.095.739 2.388.739 3.881 0 1.492-.246 2.792-.739 3.901-.493 1.095-1.177 1.937-2.053 2.525-.863.589-1.848.883-2.957.883zm0-1.355c.835 0 1.567-.233 2.197-.698.643-.465 1.143-1.143 1.499-2.033.356-.89.534-1.964.534-3.223 0-1.26-.178-2.334-.534-3.224-.356-.89-.856-1.567-1.499-2.033-.63-.465-1.362-.698-2.197-.698s-1.574.233-2.217.698c-.63.466-1.123 1.143-1.479 2.033-.356.89-.534 1.964-.534 3.224 0 1.259.178 2.333.534 3.223.356.89.849 1.568 1.479 2.033.643.465 1.382.698 2.217.698zm17.849-13.141v1.047l-6.016 13.326h-1.602l5.914-13.059h-7.392v2.69h-1.458v-4.004h10.554zM317.362 262.275c1.505.082 2.648.493 3.429 1.232.794.725 1.191 1.677 1.191 2.854 0 .821-.199 1.554-.596 2.197-.397.63-.985 1.129-1.766 1.499-.78.37-1.731.554-2.854.554a8.825 8.825 0 0 1-2.956-.492c-.918-.343-1.657-.794-2.218-1.356l.719-1.17c.479.493 1.115.897 1.909 1.211a7.102 7.102 0 0 0 2.546.452c1.178 0 2.088-.253 2.731-.76.644-.52.965-1.231.965-2.135 0-.89-.321-1.588-.965-2.094-.643-.507-1.615-.76-2.916-.76h-1.026v-1.088l3.983-4.99h-7.351v-1.314h9.24v1.047l-4.065 5.113zm14.936.678c.904.301 1.595.752 2.074 1.355.493.602.739 1.328.739 2.176 0 .835-.225 1.568-.677 2.197-.452.616-1.102 1.095-1.951 1.438-.835.328-1.82.492-2.957.492-1.724 0-3.079-.369-4.065-1.108-.986-.74-1.478-1.746-1.478-3.019 0-.862.232-1.588.698-2.176.479-.603 1.17-1.054 2.074-1.355-.74-.288-1.301-.698-1.684-1.232-.383-.548-.575-1.191-.575-1.93 0-1.164.452-2.088 1.355-2.772.917-.685 2.142-1.027 3.675-1.027 1.013 0 1.896.157 2.649.472.767.301 1.362.739 1.787 1.314.424.575.636 1.246.636 2.013 0 .739-.198 1.382-.595 1.93-.397.534-.965.944-1.705 1.232zm-6.324-3.121c0 .794.315 1.423.945 1.889.629.465 1.499.698 2.607.698 1.109 0 1.978-.233 2.608-.698.643-.466.965-1.089.965-1.869 0-.807-.328-1.444-.985-1.909-.644-.466-1.506-.698-2.588-.698-1.095 0-1.964.232-2.607.698-.63.465-.945 1.095-.945 1.889zm3.552 9.527c1.273 0 2.266-.26 2.978-.78.725-.521 1.088-1.226 1.088-2.115 0-.89-.363-1.588-1.088-2.095-.712-.52-1.705-.78-2.978-.78-1.259 0-2.251.26-2.977.78-.712.507-1.068 1.205-1.068 2.095 0 .903.356 1.615 1.068 2.135.712.507 1.704.76 2.977.76zm8.942 1.232c-.301 0-.562-.11-.781-.329a1.129 1.129 0 0 1-.308-.8c0-.315.103-.575.308-.781.219-.219.48-.328.781-.328.301 0 .561.109.78.328.219.206.328.466.328.781 0 .314-.109.581-.328.8a1.066 1.066 0 0 1-.78.329zm13.257-1.417v1.314h-10.081v-1.047l5.975-5.852c.753-.739 1.259-1.376 1.519-1.909a3.644 3.644 0 0 0 .411-1.643c0-.849-.294-1.506-.883-1.971-.575-.479-1.403-.719-2.485-.719-1.683 0-2.99.534-3.921 1.602l-1.047-.904c.561-.657 1.273-1.163 2.135-1.519.876-.356 1.862-.534 2.957-.534 1.464 0 2.621.349 3.47 1.047.862.685 1.293 1.629 1.293 2.834a4.87 4.87 0 0 1-.493 2.135c-.328.685-.951 1.472-1.868 2.361l-4.887 4.805h7.905zm6.742-6.899c1.506.082 2.649.493 3.429 1.232.794.725 1.191 1.677 1.191 2.854 0 .821-.198 1.554-.595 2.197-.397.63-.986 1.129-1.766 1.499-.78.37-1.732.554-2.854.554a8.835 8.835 0 0 1-2.957-.492c-.917-.343-1.656-.794-2.217-1.356l.718-1.17c.479.493 1.116.897 1.91 1.211a7.102 7.102 0 0 0 2.546.452c1.177 0 2.087-.253 2.731-.76.643-.52.965-1.231.965-2.135 0-.89-.322-1.588-.965-2.094-.644-.507-1.615-.76-2.916-.76h-1.026v-1.088l3.983-4.99h-7.351v-1.314h9.24v1.047l-4.066 5.113zM278.827 217.756V258h-9.313v-32.77h-8.049v-7.474h17.362zM295.875 416.665h-5.667v8.419h-3.183v-11.047h8.85v2.628zm6.411 8.583c-1.164 0-2.211-.239-3.142-.719a5.504 5.504 0 0 1-2.156-2.032c-.52-.863-.78-1.841-.78-2.936 0-1.096.26-2.074.78-2.937a5.365 5.365 0 0 1 2.156-2.012c.931-.493 1.978-.739 3.142-.739 1.163 0 2.203.246 3.121.739a5.363 5.363 0 0 1 2.155 2.012c.521.863.781 1.841.781 2.937 0 1.095-.26 2.073-.781 2.936a5.501 5.501 0 0 1-2.155 2.032c-.918.48-1.958.719-3.121.719zm0-2.628c.821 0 1.492-.274 2.012-.821.534-.562.801-1.308.801-2.238 0-.931-.267-1.67-.801-2.218-.52-.561-1.191-.842-2.012-.842-.822 0-1.499.281-2.033.842-.534.548-.801 1.287-.801 2.218 0 .93.267 1.676.801 2.238.534.547 1.211.821 2.033.821zm13.516 2.628c-1.177 0-2.238-.239-3.182-.719a5.61 5.61 0 0 1-2.197-2.032c-.521-.863-.781-1.841-.781-2.936 0-1.096.26-2.074.781-2.937a5.47 5.47 0 0 1 2.197-2.012c.944-.493 2.005-.739 3.182-.739 1.164 0 2.177.246 3.039.739a4.263 4.263 0 0 1 1.91 2.074l-2.485 1.335c-.575-1.013-1.403-1.52-2.484-1.52-.835 0-1.527.274-2.074.821-.548.548-.821 1.294-.821 2.239 0 .944.273 1.69.821 2.238.547.547 1.239.821 2.074.821 1.095 0 1.923-.507 2.484-1.52l2.485 1.356c-.397.876-1.034 1.56-1.91 2.053-.862.493-1.875.739-3.039.739zm16.136-8.583h-3.737v8.419h-3.183v-8.419h-3.737v-2.628h10.657v2.628zm1.707-2.628h3.183v6.571l5.379-6.571h2.937v11.047h-3.183v-6.571l-5.359 6.571h-2.957v-11.047zm14.578 0h3.182v4.312h4.805v-4.312h3.203v11.047h-3.203v-4.127h-4.805v4.127h-3.182v-11.047zm18.548-.164c1.711 0 3.025.411 3.942 1.232.917.808 1.376 2.033 1.376 3.675v6.304h-2.998v-1.376c-.602 1.027-1.725 1.54-3.367 1.54-.849 0-1.588-.144-2.218-.431-.616-.288-1.088-.684-1.417-1.191a3.102 3.102 0 0 1-.493-1.725c0-1.026.384-1.834 1.15-2.423.781-.588 1.978-.883 3.594-.883h2.546c0-.698-.213-1.231-.637-1.601-.424-.383-1.061-.575-1.909-.575-.589 0-1.171.096-1.746.287a4.454 4.454 0 0 0-1.437.74l-1.15-2.238c.602-.425 1.321-.753 2.156-.986a9.807 9.807 0 0 1 2.608-.349zm-.247 9.219c.548 0 1.034-.123 1.458-.369a2.13 2.13 0 0 0 .904-1.13v-1.129h-2.197c-1.315 0-1.972.431-1.972 1.294 0 .41.158.739.473.985.328.233.773.349 1.334.349zm18.162-9.055v11.047h-2.854v-3.162h-2.361l-2.095 3.162h-3.408l2.525-3.614c-.766-.301-1.355-.732-1.766-1.293-.396-.575-.595-1.267-.595-2.074 0-1.301.465-2.3 1.396-2.998.945-.712 2.238-1.068 3.881-1.068h5.277zm-5.215 2.608c-.685 0-1.205.123-1.561.369-.342.247-.513.644-.513 1.191 0 .548.164.952.493 1.212.342.246.855.369 1.539.369h2.403v-3.141h-2.361zM317.114 437.188v14.373h-3.326v-11.703h-2.875v-2.67h6.201zm7.425 5.401c2.026 0 3.518.403 4.476 1.211.972.808 1.458 1.889 1.458 3.244 0 .876-.219 1.677-.657 2.403-.438.711-1.109 1.286-2.012 1.724-.89.425-1.992.637-3.306.637-1.013 0-2.012-.13-2.998-.39-.972-.274-1.8-.657-2.484-1.15l1.314-2.546c.547.41 1.177.732 1.889.965a7.424 7.424 0 0 0 2.197.328c.835 0 1.492-.164 1.971-.492.479-.329.718-.788.718-1.376 0-.616-.253-1.082-.759-1.396-.493-.315-1.355-.473-2.587-.473h-3.676l.739-8.09h8.768v2.67h-5.996l-.226 2.731h1.171zm9.172 9.137a1.925 1.925 0 0 1-1.416-.575c-.384-.384-.575-.863-.575-1.438 0-.588.191-1.06.575-1.416.383-.37.855-.555 1.416-.555.562 0 1.034.185 1.417.555.383.356.575.828.575 1.416 0 .575-.192 1.054-.575 1.438a1.925 1.925 0 0 1-1.417.575zm10.4-8.686c1.259.206 2.224.678 2.895 1.417.671.726 1.006 1.629 1.006 2.71 0 .835-.219 1.609-.657 2.321-.438.698-1.109 1.259-2.012 1.683-.89.425-1.985.637-3.285.637-1.013 0-2.013-.13-2.998-.39-.972-.274-1.8-.657-2.485-1.15l1.294-2.546c.548.41 1.177.732 1.889.965a7.633 7.633 0 0 0 2.218.328c.835 0 1.492-.157 1.971-.472.479-.328.718-.787.718-1.376 0-1.177-.896-1.765-2.689-1.765h-1.52v-2.197l2.957-3.347h-6.119v-2.67h10.061v2.156l-3.244 3.696zm16.508-5.852v2.156l-5.338 12.217h-3.614l5.154-11.662h-4.764v2.341h-2.956v-5.052h11.518zM107.819 228.077h-1.663v4.189h-3.203v-11.047h3.203v4.292h1.725l2.998-4.292h3.408l-3.86 5.298 4.127 5.749h-3.778l-2.957-4.189zm18.754-6.858-4.99 11.725c-.506 1.273-1.136 2.169-1.889 2.689-.739.521-1.636.781-2.69.781a5.603 5.603 0 0 1-1.704-.267c-.561-.178-1.02-.425-1.376-.739l1.171-2.28a2.737 2.737 0 0 0 1.807.698c.438 0 .793-.109 1.067-.328.274-.205.52-.554.739-1.047l.042-.103-4.785-11.129h3.306l3.101 7.495 3.121-7.495h3.08zm7.863 11.047-2.423-3.388-2.505 3.388h-3.49l4.25-5.564-4.106-5.483h3.593l2.341 3.224 2.402-3.224h3.408l-4.106 5.4 4.271 5.647h-3.635zm5.211-11.047h3.183v4.312h4.805v-4.312h3.203v11.047h-3.203v-4.127h-4.805v4.127h-3.183v-11.047zm24.072 0v11.047h-2.854v-3.162h-2.362l-2.094 3.162h-3.408l2.525-3.614c-.766-.301-1.355-.732-1.766-1.293-.397-.575-.595-1.267-.595-2.074 0-1.301.465-2.3 1.396-2.998.945-.712 2.238-1.068 3.881-1.068h5.277zm-5.216 2.608c-.684 0-1.204.123-1.56.37-.342.246-.513.643-.513 1.191 0 .547.164.951.492 1.211.343.246.856.37 1.54.37h2.403v-3.142h-2.362zM117.284 246.933c2.013 0 3.587.616 4.723 1.848 1.136 1.218 1.704 2.977 1.704 5.277 0 1.629-.308 3.025-.924 4.188-.602 1.164-1.458 2.047-2.566 2.649-1.109.602-2.389.904-3.84.904a9.575 9.575 0 0 1-2.197-.247c-.698-.178-1.294-.424-1.786-.739l1.232-2.443c.698.479 1.594.718 2.689.718 1.219 0 2.184-.356 2.896-1.068.711-.725 1.095-1.765 1.149-3.121-.862.863-2.053 1.294-3.572 1.294-.917 0-1.752-.185-2.505-.554a4.406 4.406 0 0 1-1.787-1.561c-.438-.684-.657-1.471-.657-2.361 0-.958.24-1.8.719-2.526a4.628 4.628 0 0 1 1.951-1.663c.835-.397 1.759-.595 2.771-.595zm.247 6.776c.725 0 1.314-.199 1.766-.596.465-.411.698-.931.698-1.56 0-.63-.226-1.143-.678-1.54-.438-.397-1.047-.596-1.827-.596-.712 0-1.294.192-1.745.575-.439.383-.658.904-.658 1.561 0 .657.219 1.184.658 1.581.451.383 1.047.575 1.786.575zm9.404 8.007a1.92 1.92 0 0 1-1.416-.575c-.384-.383-.575-.862-.575-1.437 0-.588.191-1.061.575-1.417.383-.369.855-.554 1.416-.554.562 0 1.034.185 1.417.554.383.356.575.829.575 1.417 0 .575-.192 1.054-.575 1.437-.383.384-.855.575-1.417.575zm14.424-2.874v2.71h-10.862v-2.156l5.544-5.236c.589-.561.986-1.04 1.191-1.437.206-.411.308-.814.308-1.211 0-.575-.198-1.013-.595-1.315-.383-.314-.952-.472-1.704-.472a3.84 3.84 0 0 0-1.705.37c-.506.233-.93.588-1.273 1.068l-2.423-1.561c.562-.835 1.335-1.485 2.321-1.951.985-.479 2.115-.718 3.388-.718 1.067 0 1.998.178 2.792.534.808.342 1.43.835 1.868 1.478.452.63.678 1.376.678 2.238 0 .78-.164 1.513-.493 2.197-.328.684-.965 1.465-1.909 2.341l-3.306 3.121h6.18zm8.252-6.304c.917 0 1.752.185 2.505.555a4.344 4.344 0 0 1 1.787 1.581c.438.67.657 1.451.657 2.34 0 .959-.24 1.8-.719 2.526-.479.725-1.136 1.287-1.971 1.684-.821.383-1.739.575-2.752.575-2.012 0-3.586-.616-4.722-1.848-1.136-1.232-1.704-2.991-1.704-5.277 0-1.629.308-3.026.924-4.189.616-1.164 1.471-2.046 2.566-2.649 1.109-.602 2.389-.903 3.84-.903.766 0 1.499.089 2.197.267.712.164 1.314.404 1.807.718l-1.232 2.444c-.712-.479-1.609-.719-2.69-.719-1.218 0-2.183.356-2.895 1.068-.712.712-1.095 1.745-1.15 3.1.849-.848 2.033-1.273 3.552-1.273zm-.677 6.776c.711 0 1.286-.192 1.724-.575.452-.383.678-.903.678-1.56s-.226-1.178-.678-1.561c-.438-.397-1.026-.595-1.765-.595-.726 0-1.321.205-1.787.616-.465.397-.698.91-.698 1.54 0 .629.226 1.143.678 1.54.451.397 1.067.595 1.848.595zM210.254 419.081l-3.006-3.96-3.024 3.96h-1.44l3.744-4.86-3.564-4.608h1.44l2.844 3.708 2.844-3.708h1.404l-3.564 4.608 3.78 4.86h-1.458zm7.124.09c-.912 0-1.734-.204-2.466-.612a4.594 4.594 0 0 1-1.728-1.728c-.42-.732-.63-1.56-.63-2.484 0-.924.21-1.752.63-2.484a4.465 4.465 0 0 1 1.728-1.71c.732-.408 1.554-.612 2.466-.612.912 0 1.734.204 2.466.612a4.34 4.34 0 0 1 1.71 1.71c.42.732.63 1.56.63 2.484 0 .924-.21 1.752-.63 2.484a4.465 4.465 0 0 1-1.71 1.728c-.732.408-1.554.612-2.466.612zm0-1.134c.672 0 1.272-.15 1.8-.45.54-.312.96-.75 1.26-1.314.3-.564.45-1.206.45-1.926s-.15-1.362-.45-1.926c-.3-.564-.72-.996-1.26-1.296-.528-.312-1.128-.468-1.8-.468-.672 0-1.278.156-1.818.468-.528.3-.948.732-1.26 1.296-.3.564-.45 1.206-.45 1.926s.15 1.362.45 1.926a3.406 3.406 0 0 0 1.26 1.314c.54.3 1.146.45 1.818.45zm15.225-8.424v9.468h-1.278v-8.334h-4.536l-.126 2.34c-.096 1.968-.324 3.48-.684 4.536-.36 1.056-1.002 1.584-1.926 1.584-.252 0-.558-.048-.918-.144l.09-1.098c.216.048.366.072.45.072.492 0 .864-.228 1.116-.684.252-.456.42-1.02.504-1.692.084-.672.156-1.56.216-2.664l.162-3.384h6.93zm11.373 0v9.468h-1.278v-8.334h-4.536l-.126 2.34c-.096 1.968-.324 3.48-.684 4.536-.36 1.056-1.002 1.584-1.926 1.584-.252 0-.558-.048-.918-.144l.09-1.098c.216.048.366.072.45.072.492 0 .864-.228 1.116-.684.252-.456.42-1.02.504-1.692.084-.672.156-1.56.216-2.664l.162-3.384h6.93zM216.274 445.055h-2.52v3.312h-1.296v-3.312h-7.11v-.936l6.678-8.352h1.44l-6.444 8.136h5.472v-2.916h1.26v2.916h2.52v1.152zm2.514 3.402a.934.934 0 0 1-.684-.288.989.989 0 0 1-.27-.702c0-.276.09-.504.27-.684a.934.934 0 0 1 .684-.288c.264 0 .492.096.684.288.192.18.288.408.288.684 0 .276-.096.51-.288.702a.934.934 0 0 1-.684.288zm13.324-3.402h-2.52v3.312h-1.296v-3.312h-7.11v-.936l6.678-8.352h1.44l-6.444 8.136h5.472v-2.916h1.26v2.916h2.52v1.152zm8.584-3.294c.792.264 1.398.66 1.818 1.188.432.528.648 1.164.648 1.908 0 .732-.198 1.374-.594 1.926-.396.54-.966.96-1.71 1.26-.732.288-1.596.432-2.592.432-1.512 0-2.7-.324-3.564-.972-.864-.648-1.296-1.53-1.296-2.646 0-.756.204-1.392.612-1.908.42-.528 1.026-.924 1.818-1.188-.648-.252-1.14-.612-1.476-1.08-.336-.48-.504-1.044-.504-1.692 0-1.02.396-1.83 1.188-2.43.804-.6 1.878-.9 3.222-.9.888 0 1.662.138 2.322.414.672.264 1.194.648 1.566 1.152.372.504.558 1.092.558 1.764 0 .648-.174 1.212-.522 1.692-.348.468-.846.828-1.494 1.08zm-5.544-2.736c0 .696.276 1.248.828 1.656.552.408 1.314.612 2.286.612s1.734-.204 2.286-.612c.564-.408.846-.954.846-1.638 0-.708-.288-1.266-.864-1.674-.564-.408-1.32-.612-2.268-.612-.96 0-1.722.204-2.286.612-.552.408-.828.96-.828 1.656zm3.114 8.352c1.116 0 1.986-.228 2.61-.684.636-.456.954-1.074.954-1.854s-.318-1.392-.954-1.836c-.624-.456-1.494-.684-2.61-.684-1.104 0-1.974.228-2.61.684-.624.444-.936 1.056-.936 1.836 0 .792.312 1.416.936 1.872.624.444 1.494.666 2.61.666zM116.826 69.006c.876 0 1.656.198 2.34.594.696.384 1.236.93 1.62 1.638.384.696.576 1.494.576 2.394 0 .924-.204 1.746-.612 2.466a4.194 4.194 0 0 1-1.674 1.656c-.72.396-1.548.594-2.484.594-1.572 0-2.79-.552-3.654-1.656-.864-1.104-1.296-2.628-1.296-4.572 0-2.028.384-3.582 1.152-4.662.78-1.08 1.992-1.812 3.636-2.196l4.248-.972.216 1.17-3.996.918c-1.356.3-2.352.834-2.988 1.602-.636.756-.984 1.878-1.044 3.366a4.238 4.238 0 0 1 1.602-1.71c.684-.42 1.47-.63 2.358-.63zm-.198 8.28c.66 0 1.248-.15 1.764-.45a3.187 3.187 0 0 0 1.224-1.296c.3-.552.45-1.176.45-1.872 0-.696-.144-1.308-.432-1.836a3.006 3.006 0 0 0-1.224-1.224c-.516-.3-1.11-.45-1.782-.45-.672 0-1.272.15-1.8.45a3.158 3.158 0 0 0-1.224 1.224c-.288.528-.432 1.14-.432 1.836 0 .696.144 1.32.432 1.872.3.552.714.984 1.242 1.296.528.3 1.122.45 1.782.45zm10.679-8.586c1.236 0 2.184.312 2.844.936.66.612.99 1.524.99 2.736v5.868h-1.224v-1.475c-.288.492-.714.876-1.278 1.151-.552.276-1.212.415-1.98.415-1.056 0-1.896-.252-2.52-.757-.624-.504-.936-1.17-.936-1.998 0-.804.288-1.452.864-1.944.588-.492 1.518-.738 2.79-.738h3.006v-.576c0-.816-.228-1.434-.684-1.854-.456-.432-1.122-.648-1.998-.648-.6 0-1.176.102-1.728.306a4.233 4.233 0 0 0-1.422.81l-.576-.954a4.99 4.99 0 0 1 1.728-.936 6.566 6.566 0 0 1 2.124-.342zm-.45 8.623c.72 0 1.338-.162 1.854-.486.516-.337.9-.817 1.152-1.44v-1.549h-2.97c-1.62 0-2.43.564-2.43 1.692 0 .552.21.99.63 1.314.42.313 1.008.469 1.764.469zm15.426-8.55v9.468h-1.278v-8.335h-4.536l-.126 2.34c-.096 1.968-.324 3.48-.684 4.537-.36 1.055-1.002 1.584-1.926 1.584-.252 0-.558-.049-.918-.145l.09-1.097c.216.047.366.072.45.072.492 0 .864-.228 1.116-.685.252-.456.42-1.02.504-1.692.084-.672.156-1.56.216-2.664l.162-3.384h6.93zm7.071 5.255h-2.16v4.212h-1.278v-9.468h1.278v4.158h2.178l3.33-4.158h1.386l-3.726 4.59 3.996 4.879h-1.512l-3.492-4.213zm10.593 4.302c-.912 0-1.734-.204-2.466-.611a4.594 4.594 0 0 1-1.728-1.729c-.42-.732-.63-1.56-.63-2.484 0-.924.21-1.752.63-2.484a4.464 4.464 0 0 1 1.728-1.71c.732-.408 1.554-.612 2.466-.612.912 0 1.735.204 2.467.612a4.34 4.34 0 0 1 1.71 1.71c.42.732.63 1.56.63 2.484 0 .924-.21 1.752-.63 2.484a4.464 4.464 0 0 1-1.71 1.729c-.732.407-1.555.612-2.467.612zm0-1.133c.672 0 1.273-.15 1.801-.45.54-.313.96-.75 1.26-1.315.3-.564.45-1.206.45-1.926s-.15-1.362-.45-1.926c-.3-.564-.72-.996-1.26-1.296-.528-.312-1.129-.468-1.801-.468-.672 0-1.278.156-1.818.468-.528.3-.948.732-1.26 1.296-.3.564-.45 1.206-.45 1.926s.15 1.362.45 1.926a3.407 3.407 0 0 0 1.26 1.314c.54.3 1.146.45 1.818.45zm7.538-8.425h1.278v4.194h5.958v-4.194h1.278v9.468h-1.278v-4.176h-5.958v4.177h-1.278v-9.469zM101.312 100.326c1.32.072 2.322.432 3.006 1.081.696.636 1.044 1.47 1.044 2.502 0 .72-.174 1.362-.522 1.926-.348.552-.864.99-1.548 1.314-.684.324-1.518.486-2.502.486a7.731 7.731 0 0 1-2.592-.432c-.804-.3-1.452-.696-1.944-1.188l.63-1.026c.42.432.978.786 1.674 1.062.696.264 1.44.396 2.232.396 1.032 0 1.83-.222 2.394-.666.564-.456.846-1.08.846-1.872 0-.78-.282-1.392-.846-1.836-.564-.444-1.416-.666-2.556-.666h-.9v-.955l3.492-4.374h-6.444v-1.152h8.1v.918l-3.564 4.482zm6.848 7.291a.934.934 0 0 1-.684-.288.989.989 0 0 1-.27-.702c0-.276.09-.504.27-.684a.934.934 0 0 1 .684-.288c.264 0 .492.096.684.288.192.18.288.408.288.684 0 .276-.096.51-.288.702a.934.934 0 0 1-.684.288zm10.237-6.696c.792.264 1.398.66 1.818 1.188.432.528.648 1.164.648 1.908 0 .732-.198 1.374-.594 1.926-.396.54-.966.96-1.71 1.26-.732.288-1.596.432-2.592.432-1.513 0-2.701-.324-3.565-.972-.864-.648-1.296-1.53-1.296-2.646 0-.756.204-1.392.612-1.908.42-.528 1.026-.924 1.818-1.188-.648-.253-1.14-.613-1.476-1.08-.336-.48-.504-1.044-.504-1.692 0-1.02.396-1.83 1.188-2.43.804-.6 1.878-.9 3.223-.9.888 0 1.662.137 2.322.413.672.264 1.194.648 1.566 1.152.372.504.558 1.092.558 1.764 0 .648-.174 1.213-.522 1.693-.348.467-.846.827-1.494 1.08zm-5.545-2.737c0 .697.276 1.249.828 1.657.552.407 1.315.611 2.287.611s1.734-.204 2.286-.611c.564-.408.846-.954.846-1.638 0-.709-.288-1.267-.864-1.675-.564-.408-1.32-.612-2.268-.612-.96 0-1.723.204-2.287.612-.552.408-.828.96-.828 1.656zm3.115 8.353c1.116 0 1.986-.228 2.61-.684.636-.456.954-1.074.954-1.854s-.318-1.392-.954-1.836c-.624-.456-1.494-.684-2.61-.684-1.105 0-1.975.228-2.611.684-.624.444-.936 1.056-.936 1.836 0 .792.312 1.416.936 1.872.624.444 1.494.666 2.611.666zm11.91-6.553c.828 0 1.56.156 2.196.468a3.558 3.558 0 0 1 1.512 1.333c.36.564.54 1.224.54 1.98 0 .768-.186 1.446-.558 2.034a3.733 3.733 0 0 1-1.548 1.368c-.648.312-1.38.468-2.196.468-1.668 0-2.946-.546-3.834-1.638-.888-1.104-1.332-2.658-1.332-4.662 0-1.404.24-2.592.72-3.565.48-.972 1.152-1.704 2.016-2.196.864-.504 1.872-.756 3.024-.756 1.248 0 2.244.228 2.988.684l-.522 1.044c-.6-.396-1.416-.594-2.448-.594-1.392 0-2.484.444-3.276 1.332-.792.876-1.188 2.154-1.188 3.835 0 .3.018.642.054 1.026a3.358 3.358 0 0 1 1.494-1.585c.684-.384 1.47-.576 2.358-.576zm-.108 6.553c.912 0 1.65-.246 2.214-.738.576-.504.864-1.17.864-1.998 0-.828-.288-1.488-.864-1.98-.564-.492-1.332-.738-2.304-.738-.636 0-1.2.12-1.692.36-.48.24-.858.57-1.134.99-.276.42-.414.888-.414 1.404 0 .48.126.924.378 1.332.264.408.648.738 1.152.99.504.252 1.104.378 1.8.378zM153.29 111.019c-.672-1.104-1.188-2.37-1.548-3.798-.36-1.44-.54-2.982-.54-4.626 0-1.644.18-3.186.54-4.626.36-1.453.876-2.719 1.548-3.799h1.224a14.395 14.395 0 0 0-1.566 3.906c-.324 1.393-.486 2.899-.486 4.519s.162 3.126.486 4.518a14.395 14.395 0 0 0 1.566 3.906h-1.224zm6.568-16.093v12.601h-1.296V96.078h-2.97v-1.152h4.266zm3.984 12.691a.934.934 0 0 1-.684-.288.989.989 0 0 1-.27-.702c0-.276.09-.504.27-.684a.934.934 0 0 1 .684-.288c.264 0 .492.096.684.288.192.18.288.408.288.684 0 .276-.096.51-.288.702a.934.934 0 0 1-.684.288zm6.123-12.69v12.6h-1.296V96.078h-2.97v-1.152h4.266zm8.232 5.057c.829 0 1.561.156 2.197.468a3.558 3.558 0 0 1 1.512 1.333c.36.564.54 1.224.54 1.98 0 .768-.186 1.446-.558 2.034a3.733 3.733 0 0 1-1.548 1.368c-.648.312-1.38.468-2.197.468-1.668 0-2.946-.546-3.834-1.638-.888-1.104-1.332-2.658-1.332-4.662 0-1.404.24-2.592.72-3.565.48-.972 1.152-1.704 2.016-2.196.864-.504 1.872-.756 3.025-.756 1.248 0 2.244.228 2.988.684l-.522 1.044c-.6-.396-1.416-.594-2.448-.594-1.393 0-2.485.444-3.277 1.332-.792.876-1.188 2.154-1.188 3.835 0 .3.018.642.054 1.026a3.358 3.358 0 0 1 1.494-1.585c.684-.384 1.47-.576 2.358-.576zm-.108 6.553c.913 0 1.651-.246 2.215-.738.576-.504.864-1.17.864-1.998 0-.828-.288-1.488-.864-1.98-.564-.492-1.332-.738-2.305-.738-.636 0-1.2.12-1.692.36-.48.24-.858.57-1.134.99-.276.42-.414.888-.414 1.404 0 .48.126.924.378 1.332.264.408.648.738 1.152.99.504.252 1.104.378 1.8.378zm5.641 4.482a14.436 14.436 0 0 0 1.566-3.888c.336-1.392.504-2.904.504-4.536 0-1.632-.168-3.138-.504-4.519a14.395 14.395 0 0 0-1.566-3.906h1.224c.672 1.08 1.188 2.346 1.548 3.799.372 1.44.558 2.982.558 4.626 0 1.644-.18 3.186-.54 4.626-.36 1.44-.882 2.706-1.566 3.798h-1.224zM121.701 443.073c1.824 0 3.15.33 3.978.99.84.648 1.26 1.56 1.26 2.736 0 .732-.174 1.386-.522 1.962-.336.576-.846 1.032-1.53 1.368-.684.324-1.524.486-2.52.486-.9 0-1.758-.144-2.574-.432-.804-.3-1.452-.696-1.944-1.188l.63-1.026c.42.432.972.786 1.656 1.062a6.096 6.096 0 0 0 2.214.396c1.044 0 1.848-.234 2.412-.702.576-.468.864-1.092.864-1.872 0-.864-.324-1.518-.972-1.962-.636-.444-1.716-.666-3.24-.666h-2.682l.648-6.318h6.894v1.152h-5.76l-.432 4.014h1.62zm7.855 7.524a.934.934 0 0 1-.684-.288.989.989 0 0 1-.27-.702c0-.276.09-.504.27-.684a.934.934 0 0 1 .684-.288c.264 0 .492.096.684.288.192.18.288.408.288.684 0 .276-.096.51-.288.702a.934.934 0 0 1-.684.288zm11.623-1.242v1.152h-8.838v-.918l5.238-5.13c.66-.648 1.104-1.206 1.332-1.674.24-.48.36-.96.36-1.44 0-.744-.258-1.32-.774-1.728-.504-.42-1.23-.63-2.178-.63-1.476 0-2.622.468-3.438 1.404l-.918-.792a4.846 4.846 0 0 1 1.872-1.332c.768-.312 1.632-.468 2.592-.468 1.284 0 2.298.306 3.042.918.756.6 1.134 1.428 1.134 2.484 0 .648-.144 1.272-.432 1.872-.288.6-.834 1.29-1.638 2.07l-4.284 4.212h6.93zm8.844-5.454c.792.264 1.398.66 1.818 1.188.432.528.648 1.164.648 1.908 0 .732-.198 1.374-.594 1.926-.396.54-.966.96-1.71 1.26-.732.288-1.596.432-2.592.432-1.512 0-2.7-.324-3.564-.972-.864-.648-1.296-1.53-1.296-2.646 0-.756.204-1.392.612-1.908.42-.528 1.026-.924 1.818-1.188-.648-.252-1.14-.612-1.476-1.08-.336-.48-.504-1.044-.504-1.692 0-1.02.396-1.83 1.188-2.43.804-.6 1.878-.9 3.222-.9.888 0 1.662.138 2.322.414.672.264 1.194.648 1.566 1.152.372.504.558 1.092.558 1.764 0 .648-.174 1.212-.522 1.692-.348.468-.846.828-1.494 1.08zm-5.544-2.736c0 .696.276 1.248.828 1.656.552.408 1.314.612 2.286.612s1.734-.204 2.286-.612c.564-.408.846-.954.846-1.638 0-.708-.288-1.266-.864-1.674-.564-.408-1.32-.612-2.268-.612-.96 0-1.722.204-2.286.612-.552.408-.828.96-.828 1.656zm3.114 8.352c1.116 0 1.986-.228 2.61-.684.636-.456.954-1.074.954-1.854s-.318-1.392-.954-1.836c-.624-.456-1.494-.684-2.61-.684-1.104 0-1.974.228-2.61.684-.624.444-.936 1.056-.936 1.836 0 .792.312 1.416.936 1.872.624.444 1.494.666 2.61.666z" fill="#20201F"/><path d="M322.885 526.756v1.152h-8.838v-.918l5.238-5.13c.66-.648 1.104-1.206 1.332-1.674.24-.48.36-.96.36-1.44 0-.744-.258-1.32-.774-1.728-.504-.42-1.23-.63-2.178-.63-1.476 0-2.622.468-3.438 1.404l-.918-.792a4.846 4.846 0 0 1 1.872-1.332c.768-.312 1.632-.468 2.592-.468 1.284 0 2.298.306 3.042.918.756.6 1.134 1.428 1.134 2.484 0 .648-.144 1.272-.432 1.872-.288.6-.834 1.29-1.638 2.07l-4.284 4.212h6.93zm2.774 1.242a.934.934 0 0 1-.684-.288.989.989 0 0 1-.27-.702c0-.276.09-.504.27-.684a.934.934 0 0 1 .684-.288c.264 0 .492.096.684.288.192.18.288.408.288.684 0 .276-.096.51-.288.702a.934.934 0 0 1-.684.288zm7.869-7.632c.828 0 1.56.156 2.196.468a3.556 3.556 0 0 1 1.512 1.332c.36.564.54 1.224.54 1.98 0 .768-.186 1.446-.558 2.034a3.733 3.733 0 0 1-1.548 1.368c-.648.312-1.38.468-2.196.468-1.668 0-2.946-.546-3.834-1.638-.888-1.104-1.332-2.658-1.332-4.662 0-1.404.24-2.592.72-3.564s1.152-1.704 2.016-2.196c.864-.504 1.872-.756 3.024-.756 1.248 0 2.244.228 2.988.684l-.522 1.044c-.6-.396-1.416-.594-2.448-.594-1.392 0-2.484.444-3.276 1.332-.792.876-1.188 2.154-1.188 3.834 0 .3.018.642.054 1.026a3.351 3.351 0 0 1 1.494-1.584c.684-.384 1.47-.576 2.358-.576zm-.108 6.552c.912 0 1.65-.246 2.214-.738.576-.504.864-1.17.864-1.998 0-.828-.288-1.488-.864-1.98-.564-.492-1.332-.738-2.304-.738-.636 0-1.2.12-1.692.36-.48.24-.858.57-1.134.99-.276.42-.414.888-.414 1.404 0 .48.126.924.378 1.332.264.408.648.738 1.152.99.504.252 1.104.378 1.8.378zm13.075-5.616c.792.264 1.398.66 1.818 1.188.432.528.648 1.164.648 1.908 0 .732-.198 1.374-.594 1.926-.396.54-.966.96-1.71 1.26-.732.288-1.596.432-2.592.432-1.512 0-2.7-.324-3.564-.972-.864-.648-1.296-1.53-1.296-2.646 0-.756.204-1.392.612-1.908.42-.528 1.026-.924 1.818-1.188-.648-.252-1.14-.612-1.476-1.08-.336-.48-.504-1.044-.504-1.692 0-1.02.396-1.83 1.188-2.43.804-.6 1.878-.9 3.222-.9.888 0 1.662.138 2.322.414.672.264 1.194.648 1.566 1.152.372.504.558 1.092.558 1.764 0 .648-.174 1.212-.522 1.692-.348.468-.846.828-1.494 1.08zm-5.544-2.736c0 .696.276 1.248.828 1.656.552.408 1.314.612 2.286.612s1.734-.204 2.286-.612c.564-.408.846-.954.846-1.638 0-.708-.288-1.266-.864-1.674-.564-.408-1.32-.612-2.268-.612-.96 0-1.722.204-2.286.612-.552.408-.828.96-.828 1.656zm3.114 8.352c1.116 0 1.986-.228 2.61-.684.636-.456.954-1.074.954-1.854s-.318-1.392-.954-1.836c-.624-.456-1.494-.684-2.61-.684-1.104 0-1.974.228-2.61.684-.624.444-.936 1.056-.936 1.836 0 .792.312 1.416.936 1.872.624.444 1.494.666 2.61.666z" fill="#000"/></g><defs><clipPath id="a"><path fill="#fff" transform="translate(39 29)" d="M0 0h371.3v542.578H0z"/></clipPath></defs></svg>