<svg width="500" height="600" fill="none" xmlns="http://www.w3.org/2000/svg"><path fill="#fff" d="M0 0h500v600H0z"/><g clip-path="url(#a)"><path fill-rule="evenodd" clip-rule="evenodd" d="M51 517.678h124.27v53.9h273.979V118.83h-174.09L274.977 29 74.36 40.977v77.853H51v398.848z" fill="#C6C0E1"/><path fill-rule="evenodd" clip-rule="evenodd" d="M434.282 571.578V118.83h14.967v452.748h-14.967z" fill="#ED9FA6"/><path fill-rule="evenodd" clip-rule="evenodd" d="M51 517.678h124.27v53.9h273.979V118.83h-174.09L274.977 29 74.36 40.977v77.853H51v398.848z" fill="#FFF9D0"/><path fill-rule="evenodd" clip-rule="evenodd" d="M434.282 571.578V118.83h14.967v452.748h-14.967z" fill="#FFF9D0"/><path d="M96.513 126.615H65.976v22.757h30.537v-22.757zM65.975 98.408H51v419.27h14.975V98.408zM189.938 502.706H175.27v68.872h14.668v-68.872z" fill="#20201F"/><path d="M189.938 502.706H51v14.972h138.938v-14.972zM74.36 90.024H51v28.806h23.36V90.024zM281.568 134.4H245.63v35.933h35.938V134.4zM449.249 134.4h-14.967v14.972h14.967V134.4zM312.709 556.604h-62.886v14.973h62.886v-14.973z" fill="#20201F"/><path d="M312.709 532.304h-14.974v39.273h14.974v-39.273z" fill="#20201F"/><path d="M449.249 532.304H297.735v15.189h151.514v-15.189z" fill="#20201F"/><path d="M449.249 149.372h-14.967v422.205h14.967V149.372zM296.535 126.615H192.336v22.757h104.199v-22.757zM449.249 126.615H422.3v22.757h26.949v-22.757zM81.546 82.898H51v7.785h30.546v-7.785z" fill="#20201F"/><path d="M81.546 82.898H74.36v35.931h7.186V82.898zM96.513 118.829H65.976v7.786h30.537v-7.786zM300.132 118.829H192.336v7.786h107.796v-7.786zM449.249 118.83h-30.538v7.785h30.538v-7.785z" fill="#20201F"/><path fill-rule="evenodd" clip-rule="evenodd" d="M267.792 36.628v82.202h7.186V29L74.36 40.977v41.92h7.186v-35.15l186.246-11.119z" fill="#20201F"/><path d="M224.107 339.364H65.975v4.791h158.132v-4.791z" fill="#20201F"/><path d="M224.107 291.227h-4.796v52.928h4.796v-52.928zM189.935 342.05h-4.785v96.637h4.785V342.05zM189.938 492.586h-4.788v10.12h4.788v-10.12zM434.282 564.389H312.709v7.189h121.573v-7.189zM267.256 434.956h-4.79v35.498h4.79v-35.498z" fill="#20201F"/><path d="M302.547 434.961h-40.079v4.792h40.079v-4.792z" fill="#20201F"/><path d="M302.544 434.961h-4.794v97.688h4.794v-97.688zM267.256 537.117h-4.79v21.304h4.79v-21.304zM418.71 118.83H300.124v3.852H418.71v-3.852zM422.299 126.594H296.535v3.852h125.764v-3.852zM422.299 145.5H296.535v3.851h125.764V145.5zM144.425 118.851H96.513v3.852h47.912v-3.852zM144.426 126.616H96.513v3.851h47.913v-3.851zM144.426 145.521H96.513v3.851h47.913v-3.851z" fill="#20201F"/><path d="M144.427 118.851H141.6v30.543h2.827v-30.543z" fill="#20201F"/><path fill-rule="evenodd" clip-rule="evenodd" d="M248.327 567.839a1.702 1.702 0 0 1-3.402 0v-35.996a1.702 1.702 0 0 1 3.402 0v35.996zM195.146 568.181a.85.85 0 1 1-1.701 0c0-10.305 5.28-19.623 13.811-26.358 8.477-6.691 20.174-10.83 33.076-10.83a.85.85 0 0 1 0 1.7c-12.517 0-23.841 3.998-32.027 10.459-8.129 6.417-13.159 15.268-13.159 25.029zM187.385 128.591a1.701 1.701 0 0 1 3.402 0v35.997a1.702 1.702 0 0 1-3.402 0v-35.997zM146.148 128.25a.85.85 0 1 1 1.701 0c0 9.797 4.048 18.668 10.589 25.088 6.547 6.425 15.594 10.399 25.586 10.399a.85.85 0 0 1 0 1.701c-10.45 0-19.918-4.163-26.775-10.891-6.857-6.73-11.101-16.029-11.101-26.297zM186.468 491.09a1.701 1.701 0 0 1 0-3.401h35.996a1.702 1.702 0 0 1 0 3.401h-35.996zM186.126 441.889a.85.85 0 1 1 0-1.701c10.291 0 19.605 4.877 26.337 12.759 6.704 7.846 10.851 18.677 10.851 30.626a.85.85 0 0 1-1.701 0c0-11.535-3.99-21.976-10.439-29.524-6.417-7.512-15.275-12.16-25.048-12.16zM160.827 336.387H70.473v-36.142h91.417v36.142h-1.063zm-62.075-4.274c.994 0 1.901-.406 2.555-1.064a3.608 3.608 0 0 0 1.06-2.55V308.09c0-.992-.407-1.895-1.06-2.554a3.61 3.61 0 0 0-2.555-1.06h-20.41a3.62 3.62 0 0 0-3.613 3.614v20.409c0 .995.407 1.9 1.063 2.551a3.599 3.599 0 0 0 2.55 1.063h20.41zm51.565-1.688a4.99 4.99 0 0 0 3.532-1.465 4.982 4.982 0 0 0 1.464-3.532c0-1.375-.56-2.624-1.466-3.531a4.984 4.984 0 0 0-7.06.001 4.983 4.983 0 0 0-.001 7.062 4.983 4.983 0 0 0 3.531 1.465zm0-13.164a6.043 6.043 0 0 0 4.284-1.775 6.046 6.046 0 0 0 1.775-4.284 6.04 6.04 0 0 0-1.775-4.283 6.044 6.044 0 0 0-4.284-1.776c-1.671 0-3.187.68-4.283 1.776a6.041 6.041 0 0 0-1.776 4.283c0 1.671.68 3.187 1.776 4.284a6.042 6.042 0 0 0 4.283 1.775zm-3.232-2.826a4.563 4.563 0 0 0 3.232 1.338 4.564 4.564 0 0 0 3.233-1.338 4.561 4.561 0 0 0 1.338-3.233 4.557 4.557 0 0 0-1.338-3.232 4.56 4.56 0 0 0-3.233-1.339 4.56 4.56 0 0 0-3.232 1.339 4.557 4.557 0 0 0-1.338 3.232c0 1.262.512 2.407 1.338 3.233zm-9.762 17.053c1.671 0 3.187-.68 4.283-1.776a6.044 6.044 0 0 0 1.776-4.284 6.044 6.044 0 0 0-1.775-4.284 6.044 6.044 0 0 0-4.284-1.775c-1.672 0-3.188.68-4.284 1.776a6.042 6.042 0 0 0-1.775 4.283c0 1.671.679 3.188 1.775 4.284a6.045 6.045 0 0 0 4.284 1.776zm-3.233-2.827a4.561 4.561 0 0 0 3.233 1.338 4.559 4.559 0 0 0 3.232-1.338 4.56 4.56 0 0 0 1.338-3.233 4.565 4.565 0 0 0-4.57-4.57 4.56 4.56 0 0 0-3.233 1.338 4.559 4.559 0 0 0-1.338 3.232c0 1.262.512 2.407 1.338 3.233zm3.233-12.463c1.375 0 2.626-.56 3.531-1.464a4.983 4.983 0 0 0-.002-7.063 4.983 4.983 0 0 0-7.059.001 4.983 4.983 0 0 0-.002 7.062 4.982 4.982 0 0 0 3.532 1.464zm-2.481-2.515a3.503 3.503 0 0 0 2.481 1.027c.971 0 1.848-.392 2.48-1.025a3.507 3.507 0 0 0 1.027-2.483c0-.971-.392-1.849-1.024-2.48a3.495 3.495 0 0 0-2.483-1.028 3.5 3.5 0 0 0-2.481 1.028 3.484 3.484 0 0 0-1.027 2.48 3.5 3.5 0 0 0 1.027 2.481zm12.995 14.226a3.497 3.497 0 0 0 2.48 1.027c.972 0 1.849-.392 2.481-1.024a3.51 3.51 0 0 0 1.027-2.484 3.499 3.499 0 0 0-3.508-3.507c-.968 0-1.847.393-2.48 1.027a3.486 3.486 0 0 0-1.027 2.48c0 .969.393 1.848 1.027 2.481zm-69.494 2.078h20.41c.407 0 .78-.168 1.05-.438.271-.267.438-.64.438-1.05V308.09c0-.41-.167-.783-.436-1.052a1.498 1.498 0 0 0-1.053-.436h-20.41c-.41 0-.782.166-1.049.433-.27.274-.438.648-.438 1.055v20.409c0 .407.169.781.438 1.05.267.272.64.438 1.05.438zm49.567-27.616v31.89h31.854v-31.89H127.91zm-2.126 31.89v-31.89H72.599v31.89h53.185zM101.178 481.416c-2.797 1.799-6.386 2.909-9.54 2.909-3.106 0-5.53-1.065-7.217-2.809v-.005c-.638-.661-1.132-1.445-1.55-2.276v3.588c0 2.141-.895 3.396-2.331 4.125-1.307.665-3.036.829-4.932.829h-.782v-.019c-1.58-.045-3.022-.242-4.146-.81-1.435-.729-2.326-1.984-2.326-4.115v-17.595c0-2.14.89-3.394 2.326-4.118 1.124-.564 2.566-.767 4.146-.81v-.019h.782c1.896 0 3.625.164 4.932.829 1.436.724 2.33 1.978 2.33 4.118v3.595c.42-.831.908-1.612 1.551-2.275 1.687-1.747 4.11-2.814 7.216-2.814 3.335 0 7.151 1.244 10.014 3.226 2.641 1.829 4.495 4.303 4.495 7.064 0 2.925-2.079 5.528-4.968 7.382zm-27.903-7.889h-.005v.003c0 .631.263 1.212.681 1.63v.005a2.3 2.3 0 0 0 1.632.675c.64 0 1.21-.258 1.627-.675h.008v-.005a2.313 2.313 0 0 0 0-3.266 2.312 2.312 0 0 0-1.635-.677c-.639 0-1.21.261-1.632.677a2.298 2.298 0 0 0-.676 1.633zm1.183-.002v.005c0 .311.124.592.32.792h.008c.202.202.487.33.797.33.315 0 .605-.125.8-.32l.005-.008a1.14 1.14 0 0 0 .323-.794c0-.323-.126-.602-.323-.803-.2-.196-.49-.321-.805-.321-.315 0-.601.125-.797.33-.21.197-.336.481-.336.789h.008zm6.85-8.287c0-1.444-.567-2.268-1.466-2.729-.931-.464-2.224-.62-3.685-.648h-.549c-1.683 0-3.191.129-4.23.648-.9.461-1.46 1.287-1.46 2.729v17.595c0 1.441.56 2.263 1.46 2.723 1.039.524 2.547.651 4.23.651h.61c1.43-.033 2.713-.187 3.624-.648.907-.463 1.467-1.292 1.467-2.736v-17.585zm19.458 3.012c-2.612-1.812-6.093-2.944-9.129-2.944-2.653 0-4.694.886-6.094 2.332-1.534 1.583-2.326 3.862-2.326 6.396 0 2.538.792 4.815 2.326 6.402 1.4 1.443 3.441 2.327 6.094 2.327 2.868 0 6.143-1.014 8.703-2.658 2.466-1.583 4.243-3.74 4.243-6.071 0-2.191-1.58-4.228-3.817-5.784zM68.265 421.042l-.006 19.491c0 6.518 13.493 5.75 14.393 5.683a11.29 11.29 0 0 0 8.007-3.327 11.306 11.306 0 0 0 3.316-8.009v-8.271c0-3.128-1.266-5.964-3.316-8.017a11.393 11.393 0 0 0-8.012-3.33c-.916-.041-14.388-.712-14.382 5.78zm13.143 9.706h.003a2.538 2.538 0 0 1 .727-1.77 2.535 2.535 0 0 1 1.765-.717 2.48 2.48 0 0 1 2.493 2.49c0 .683-.277 1.308-.728 1.759v.009h-.005a2.48 2.48 0 0 1-1.76.732 2.507 2.507 0 0 1-1.765-.732v-.003a2.505 2.505 0 0 1-.734-1.765l.004-.003zm1.271-.004a1.219 1.219 0 0 1 1.224-1.204c.34 0 .649.131.87.346.211.221.35.521.347.865 0 .343-.133.64-.348.86l-.005.005a1.207 1.207 0 0 1-.864.352c-.336 0-.644-.142-.864-.353l-.002-.006a1.204 1.204 0 0 1-.347-.853l.003-.012h-.014zm-9.664.004c0-3.142.936-5.994 2.439-8.069 1.571-2.154 3.767-3.494 6.2-3.495 2.442 0 4.637 1.341 6.212 3.495 1.511 2.082 2.439 4.936 2.439 8.079v.014c-.008 3.134-.942 5.981-2.448 8.061-1.571 2.145-3.76 3.482-6.19 3.484l-.013-.002c-2.44 0-4.622-1.337-6.2-3.499-1.506-2.069-2.44-4.921-2.437-8.06l-.002-.008zm1.757 0c.006-2.754.813-5.242 2.112-7.041 1.242-1.698 2.933-2.756 4.77-2.756 1.849 0 3.54 1.058 4.787 2.769 1.293 1.79 2.099 4.274 2.099 7.038v.005l.005.009c-.005 2.756-.81 5.234-2.112 7.024-1.236 1.694-2.93 2.75-4.766 2.755l-.013-.005c-1.84.004-3.533-1.054-4.77-2.756-1.293-1.791-2.106-4.276-2.104-7.032v-.01h-.008zm-4.747-9.7c0-4.838 12.525-4.014 12.557-4.014l.065.007a9.565 9.565 0 0 1 6.764 2.791 9.579 9.579 0 0 1 2.799 6.777v8.263a9.56 9.56 0 0 1-9.563 9.584l-.062.002c-.031 0-12.56.888-12.56-3.93v-19.48zM70.809 408.099h101.589V366.54H70.808v41.559zm19.795-24.819c1.116 0 2.127.452 2.857 1.182a4.042 4.042 0 0 1-2.857 6.897 4.029 4.029 0 0 1-2.853-1.183 4.02 4.02 0 0 1-1.186-2.857c0-1.115.452-2.126 1.183-2.857a4.03 4.03 0 0 1 2.856-1.182zm1.715 2.324a2.42 2.42 0 0 1 .709 1.715 2.422 2.422 0 1 1-4.847 0 2.42 2.42 0 0 1 2.423-2.423c.669 0 1.276.271 1.715.708zm-13.843-17.875 71.713 1.616c10.771 0 19.59 7.204 19.59 17.974 0 10.771-8.819 17.975-19.59 17.975l-71.713 1.615a5.034 5.034 0 0 1-3.566-1.482 5.049 5.049 0 0 1-1.483-3.567v-29.082c0-1.384.568-2.646 1.483-3.562a5.038 5.038 0 0 1 3.566-1.487zm71.713 3.635c9.667 0 17.57 6.288 17.57 15.955s-7.903 15.955-17.57 15.955l-71.713 1.616a3.04 3.04 0 0 1-2.142-.891 3.019 3.019 0 0 1-.887-2.139v-29.082c0-.834.34-1.591.891-2.142a3.017 3.017 0 0 1 2.138-.887l71.713 1.615zm22.422 38.713H70.596c-.508 0-.97-.201-1.306-.52a1.727 1.727 0 0 1-.546-1.255v-41.966c0-.488.209-.934.542-1.254.335-.321.8-.52 1.31-.52H172.61c.51 0 .974.199 1.309.52.332.324.542.768.542 1.254v41.966c0 .487-.209.93-.542 1.252-.34.323-.802.523-1.309.523zM269.327 536.736v-2.92a.634.634 0 0 0-.633-.632h-.61v-30.033a.92.92 0 0 0-1.837 0v30.033h-5.007a.637.637 0 0 0-.633.632v2.92c0 .349.284.632.633.632h7.454a.633.633 0 0 0 .633-.632zM260.396 471.294v2.92c0 .349.286.632.633.632h.61v30.033a.92.92 0 0 0 1.837 0v-30.033h5.007a.637.637 0 0 0 .633-.632v-2.92a.633.633 0 0 0-.633-.632h-7.454a.633.633 0 0 0-.633.632z" fill="#20201F"/><path d="M302.577 219.756V260h-9.313v-32.77h-8.049v-7.474h17.362zM321.541 189h-2.126v101.095h2.126V189zM347.121 213.271v1.314H337.04v-1.047l5.975-5.852c.752-.739 1.259-1.376 1.519-1.91a3.64 3.64 0 0 0 .411-1.642c0-.849-.295-1.506-.883-1.971-.575-.479-1.403-.719-2.485-.719-1.683 0-2.991.534-3.921 1.602l-1.048-.904c.562-.657 1.273-1.163 2.136-1.519.876-.356 1.861-.534 2.956-.534 1.465 0 2.622.349 3.471 1.047.862.684 1.293 1.629 1.293 2.834 0 .739-.164 1.45-.493 2.135-.328.684-.951 1.471-1.868 2.361l-4.887 4.805h7.905zm5.839-13.059v14.373h-1.479v-13.059h-3.387v-1.314h4.866zm4.544 14.476c-.301 0-.561-.11-.78-.329a1.13 1.13 0 0 1-.308-.801c0-.315.103-.575.308-.78.219-.219.479-.328.78-.328.301 0 .562.109.781.328.219.205.328.465.328.78s-.109.582-.328.801c-.219.219-.48.329-.781.329zm6.985-14.476v14.373h-1.478v-13.059h-3.388v-1.314h4.866zm11.67 6.837c.903.302 1.595.753 2.074 1.356.492.602.739 1.327.739 2.176 0 .835-.226 1.567-.678 2.197-.451.616-1.102 1.095-1.95 1.437-.835.329-1.821.493-2.957.493-1.725 0-3.08-.369-4.066-1.109-.985-.739-1.478-1.745-1.478-3.018 0-.862.233-1.588.698-2.176.479-.603 1.171-1.054 2.074-1.356-.739-.287-1.3-.698-1.684-1.232-.383-.547-.575-1.19-.575-1.93 0-1.163.452-2.087 1.356-2.772.917-.684 2.142-1.026 3.675-1.026 1.013 0 1.896.157 2.649.472.766.301 1.362.739 1.786 1.314.424.575.637 1.246.637 2.012 0 .74-.199 1.383-.596 1.93-.397.534-.965.945-1.704 1.232zm-6.324-3.121c0 .794.315 1.424.944 1.889.63.466 1.499.699 2.608.699s1.978-.233 2.608-.699c.643-.465.965-1.088.965-1.868 0-.808-.329-1.444-.986-1.91-.643-.465-1.506-.698-2.587-.698-1.095 0-1.964.233-2.608.698-.629.466-.944 1.096-.944 1.889zm3.552 9.528c1.273 0 2.265-.26 2.977-.781.726-.52 1.088-1.225 1.088-2.114 0-.89-.362-1.588-1.088-2.095-.712-.52-1.704-.78-2.977-.78-1.259 0-2.252.26-2.977.78-.712.507-1.068 1.205-1.068 2.095 0 .903.356 1.615 1.068 2.135.711.506 1.704.76 2.977.76zM337.768 235.657c1.506.083 2.649.493 3.429 1.232.794.726 1.191 1.677 1.191 2.855 0 .821-.199 1.553-.596 2.197-.397.629-.985 1.129-1.765 1.498-.781.37-1.732.555-2.854.555a8.806 8.806 0 0 1-2.957-.493c-.917-.342-1.656-.794-2.218-1.355l.719-1.171c.479.493 1.116.897 1.909 1.212a7.125 7.125 0 0 0 2.547.452c1.177 0 2.087-.254 2.73-.76.644-.52.965-1.232.965-2.135 0-.89-.321-1.588-.965-2.095-.643-.506-1.615-.76-2.915-.76h-1.027v-1.088l3.983-4.989h-7.35v-1.314h9.239v1.047l-4.065 5.112zm16.586-6.159v1.047l-6.017 13.326h-1.601l5.913-13.059h-7.392v2.69H343.8v-4.004h10.554zm1.973 14.475c-.301 0-.561-.109-.78-.328a1.13 1.13 0 0 1-.308-.801c0-.315.103-.575.308-.78.219-.219.479-.329.78-.329.302 0 .562.11.781.329.219.205.328.465.328.78s-.109.582-.328.801a1.066 1.066 0 0 1-.781.328zm8.977-8.706c.944 0 1.779.178 2.505.534a4.062 4.062 0 0 1 1.725 1.52c.41.643.615 1.396.615 2.258 0 .876-.212 1.65-.636 2.32-.424.671-1.013 1.191-1.766 1.561-.739.356-1.574.534-2.505.534-1.903 0-3.36-.623-4.373-1.869-1.013-1.259-1.52-3.032-1.52-5.318 0-1.601.274-2.956.822-4.065.547-1.109 1.314-1.944 2.299-2.505.986-.575 2.136-.863 3.45-.863 1.423 0 2.559.261 3.408.781l-.595 1.191c-.685-.452-1.616-.678-2.793-.678-1.588 0-2.833.506-3.737 1.519-.903 1-1.355 2.458-1.355 4.374 0 .342.021.732.062 1.17.356-.78.924-1.382 1.704-1.807.78-.438 1.677-.657 2.69-.657zm-.123 7.474c1.04 0 1.882-.28 2.525-.842.657-.574.986-1.334.986-2.279 0-.944-.329-1.697-.986-2.258-.643-.562-1.519-.842-2.628-.842-.726 0-1.369.137-1.93.411-.548.273-.979.65-1.294 1.129a2.851 2.851 0 0 0-.472 1.601c0 .548.144 1.054.431 1.52.301.465.739.842 1.314 1.129.575.288 1.26.431 2.054.431zm12.409 1.253c-1.109 0-2.101-.295-2.977-.883-.863-.589-1.54-1.431-2.033-2.526-.479-1.108-.719-2.409-.719-3.901s.24-2.785.719-3.881c.493-1.108 1.17-1.957 2.033-2.546.876-.588 1.868-.883 2.977-.883 1.109 0 2.094.295 2.957.883.876.589 1.56 1.438 2.053 2.546.493 1.096.739 2.389.739 3.881s-.246 2.793-.739 3.901c-.493 1.095-1.177 1.937-2.053 2.526-.863.588-1.848.883-2.957.883zm0-1.355c.835 0 1.567-.233 2.197-.698.643-.466 1.143-1.143 1.499-2.033.356-.89.534-1.965.534-3.224 0-1.259-.178-2.334-.534-3.224-.356-.889-.856-1.567-1.499-2.032-.63-.466-1.362-.698-2.197-.698s-1.574.232-2.217.698c-.63.465-1.123 1.143-1.479 2.032-.356.89-.534 1.965-.534 3.224 0 1.259.178 2.334.534 3.224.356.89.849 1.567 1.479 2.033.643.465 1.382.698 2.217.698zM337.245 264.944c1.506.082 2.649.492 3.429 1.232.794.725 1.191 1.676 1.191 2.854 0 .821-.199 1.553-.596 2.197-.396.629-.985 1.129-1.765 1.499-.781.369-1.732.554-2.854.554a8.806 8.806 0 0 1-2.957-.493c-.917-.342-1.656-.794-2.218-1.355l.719-1.17c.479.492 1.116.896 1.91 1.211a7.116 7.116 0 0 0 2.546.452c1.177 0 2.087-.253 2.73-.76.644-.52.965-1.232.965-2.135 0-.89-.321-1.588-.965-2.095-.643-.506-1.615-.759-2.915-.759h-1.027v-1.089l3.984-4.989h-7.351v-1.314h9.24v1.047l-4.066 5.113zm14.937.677c.903.301 1.594.753 2.074 1.355.492.603.739 1.328.739 2.177 0 .835-.226 1.567-.678 2.197-.452.616-1.102 1.095-1.951 1.437-.835.329-1.82.493-2.956.493-1.725 0-3.08-.37-4.066-1.109-.985-.739-1.478-1.745-1.478-3.018 0-.863.233-1.588.698-2.177.479-.602 1.17-1.054 2.074-1.355-.739-.287-1.301-.698-1.684-1.232-.383-.547-.575-1.191-.575-1.93 0-1.163.452-2.087 1.355-2.772.918-.684 2.143-1.026 3.676-1.026 1.013 0 1.896.157 2.648.472.767.301 1.363.739 1.787 1.314.424.575.636 1.246.636 2.012 0 .739-.198 1.383-.595 1.93-.397.534-.965.945-1.704 1.232zm-6.324-3.121c0 .794.314 1.424.944 1.889.63.466 1.499.698 2.608.698s1.978-.232 2.607-.698c.644-.465.965-1.088.965-1.868 0-.808-.328-1.444-.985-1.91-.643-.465-1.506-.698-2.587-.698-1.095 0-1.965.233-2.608.698-.63.466-.944 1.095-.944 1.889zm3.552 9.527c1.273 0 2.265-.26 2.977-.78.726-.52 1.088-1.225 1.088-2.115 0-.889-.362-1.588-1.088-2.094-.712-.52-1.704-.78-2.977-.78-1.26 0-2.252.26-2.977.78-.712.506-1.068 1.205-1.068 2.094 0 .904.356 1.616 1.068 2.136.711.506 1.704.759 2.977.759zm8.941 1.232c-.301 0-.561-.109-.78-.328a1.125 1.125 0 0 1-.308-.801c0-.315.102-.575.308-.78.219-.219.479-.329.78-.329.301 0 .561.11.78.329.219.205.329.465.329.78s-.11.582-.329.801a1.065 1.065 0 0 1-.78.328zm13.145-14.475v1.047l-6.016 13.326h-1.602l5.914-13.059H362.4v2.69h-1.458v-4.004h10.554zm6.424-.123c1.903 0 3.361.629 4.374 1.889 1.012 1.245 1.519 3.011 1.519 5.297 0 1.602-.274 2.957-.821 4.066-.548 1.108-1.314 1.95-2.3 2.525-.986.561-2.135.842-3.45.842-1.423 0-2.559-.26-3.408-.78l.595-1.191c.685.452 1.616.677 2.793.677 1.588 0 2.833-.499 3.737-1.499.903-1.012 1.355-2.477 1.355-4.394 0-.355-.02-.746-.062-1.17-.355.78-.924 1.389-1.704 1.828-.78.424-1.677.636-2.69.636-.944 0-1.786-.178-2.525-.534a4.119 4.119 0 0 1-1.704-1.499c-.411-.657-.616-1.416-.616-2.279 0-.876.212-1.649.636-2.32a4.147 4.147 0 0 1 1.746-1.54c.752-.37 1.594-.554 2.525-.554zm.164 7.474c.726 0 1.362-.137 1.91-.411.561-.274.999-.65 1.314-1.129.315-.48.472-1.013.472-1.602 0-.548-.15-1.054-.452-1.519-.287-.466-.718-.842-1.293-1.13-.575-.287-1.259-.431-2.053-.431-1.041 0-1.889.288-2.546.862-.644.562-.965 1.315-.965 2.259 0 .945.321 1.697.965 2.259.657.561 1.54.842 2.648.842zM284.829 358.93h-5.667v8.419h-3.183v-11.047h8.85v2.628zm6.411 8.583c-1.164 0-2.211-.24-3.142-.719a5.506 5.506 0 0 1-2.156-2.033c-.52-.862-.78-1.841-.78-2.936s.26-2.074.78-2.936a5.365 5.365 0 0 1 2.156-2.012c.931-.493 1.978-.739 3.142-.739 1.163 0 2.203.246 3.121.739a5.372 5.372 0 0 1 2.156 2.012c.52.862.78 1.841.78 2.936s-.26 2.074-.78 2.936a5.513 5.513 0 0 1-2.156 2.033c-.918.479-1.958.719-3.121.719zm0-2.628c.821 0 1.492-.274 2.012-.822.534-.561.801-1.307.801-2.238s-.267-1.67-.801-2.217c-.52-.561-1.191-.842-2.012-.842-.822 0-1.499.281-2.033.842-.534.547-.801 1.286-.801 2.217s.267 1.677.801 2.238c.534.548 1.211.822 2.033.822zm13.516 2.628c-1.177 0-2.238-.24-3.182-.719a5.62 5.62 0 0 1-2.197-2.033c-.52-.862-.781-1.841-.781-2.936s.261-2.074.781-2.936a5.476 5.476 0 0 1 2.197-2.012c.944-.493 2.005-.739 3.182-.739 1.164 0 2.177.246 3.039.739a4.259 4.259 0 0 1 1.91 2.074l-2.485 1.334c-.575-1.013-1.403-1.519-2.484-1.519-.835 0-1.527.274-2.074.821-.548.548-.821 1.294-.821 2.238 0 .945.273 1.691.821 2.238.547.548 1.239.822 2.074.822 1.095 0 1.923-.507 2.484-1.52l2.485 1.355c-.397.877-1.034 1.561-1.91 2.054-.862.493-1.875.739-3.039.739zm16.136-8.583h-3.737v8.419h-3.183v-8.419h-3.737v-2.628h10.657v2.628zm1.707-2.628h3.183v6.57l5.379-6.57h2.937v11.047h-3.183v-6.571l-5.359 6.571h-2.957v-11.047zm14.578 0h3.182v4.312h4.805v-4.312h3.203v11.047h-3.203v-4.127h-4.805v4.127h-3.182v-11.047zm18.548-.164c1.711 0 3.025.41 3.942 1.232.917.807 1.376 2.032 1.376 3.675v6.304h-2.998v-1.376c-.602 1.027-1.725 1.54-3.367 1.54-.849 0-1.588-.144-2.218-.431-.616-.288-1.088-.685-1.417-1.191a3.106 3.106 0 0 1-.492-1.725c0-1.027.383-1.834 1.149-2.423.781-.588 1.978-.883 3.594-.883h2.546c0-.698-.212-1.232-.637-1.601-.424-.384-1.061-.575-1.909-.575-.589 0-1.171.096-1.746.287a4.472 4.472 0 0 0-1.437.739l-1.15-2.238c.602-.424 1.321-.753 2.156-.985a9.807 9.807 0 0 1 2.608-.349zm-.247 9.219c.548 0 1.034-.123 1.458-.37.425-.26.726-.636.904-1.129v-1.129h-2.197c-1.314 0-1.971.431-1.971 1.293 0 .411.157.739.472.986.328.233.773.349 1.334.349zm18.162-9.055v11.047h-2.854v-3.162h-2.361l-2.095 3.162h-3.408l2.525-3.614c-.766-.301-1.355-.732-1.765-1.294-.397-.575-.596-1.266-.596-2.074 0-1.3.466-2.299 1.396-2.997.945-.712 2.238-1.068 3.881-1.068h5.277zm-5.215 2.608c-.685 0-1.205.123-1.561.369-.342.247-.513.644-.513 1.191 0 .548.164.951.493 1.212.342.246.855.369 1.54.369h2.402v-3.141h-2.361zM312.865 393.924v2.711h-10.862v-2.156l5.544-5.236c.588-.561.985-1.04 1.191-1.437.205-.411.308-.815.308-1.212 0-.575-.199-1.013-.596-1.314-.383-.315-.951-.472-1.704-.472-.63 0-1.198.123-1.704.369a3.18 3.18 0 0 0-1.273 1.068l-2.423-1.56c.561-.835 1.334-1.486 2.32-1.951.986-.479 2.115-.719 3.388-.719 1.068 0 1.998.178 2.792.534.808.342 1.431.835 1.869 1.479.452.629.677 1.375.677 2.238 0 .78-.164 1.512-.492 2.197-.329.684-.965 1.464-1.91 2.34l-3.306 3.121h6.181zm6.916-11.662v14.373h-3.326v-11.704h-2.875v-2.669h6.201zm4.386 14.537a1.927 1.927 0 0 1-1.417-.575c-.383-.383-.575-.862-.575-1.437 0-.589.192-1.061.575-1.417.383-.37.856-.554 1.417-.554s1.033.184 1.417.554c.383.356.574.828.574 1.417 0 .575-.191 1.054-.574 1.437a1.928 1.928 0 0 1-1.417.575zm8.708-14.537v14.373h-3.327v-11.704h-2.874v-2.669h6.201zm12.332 6.817c.711.356 1.252.821 1.622 1.396.383.575.575 1.239.575 1.992 0 .889-.254 1.67-.76 2.34-.507.657-1.218 1.171-2.135 1.54-.918.356-1.978.534-3.183.534-1.205 0-2.265-.178-3.183-.534-.903-.369-1.608-.883-2.114-1.54-.493-.67-.74-1.451-.74-2.34 0-.753.185-1.417.555-1.992.383-.575.924-1.04 1.622-1.396a3.534 3.534 0 0 1-1.232-1.232c-.288-.507-.431-1.082-.431-1.725 0-.835.232-1.561.698-2.177.465-.615 1.115-1.088 1.95-1.416.835-.342 1.794-.514 2.875-.514 1.095 0 2.06.172 2.895.514.849.328 1.506.801 1.971 1.416.466.616.698 1.342.698 2.177 0 .643-.143 1.218-.431 1.725-.287.493-.705.903-1.252 1.232zm-3.881-4.62c-.671 0-1.211.164-1.622.493-.397.314-.596.752-.596 1.314 0 .547.199.978.596 1.293.397.315.938.473 1.622.473.684 0 1.232-.158 1.643-.473.41-.315.616-.746.616-1.293 0-.562-.206-1-.616-1.314-.411-.329-.959-.493-1.643-.493zm0 9.979c.835 0 1.492-.185 1.971-.555.493-.383.739-.889.739-1.519 0-.63-.246-1.129-.739-1.499-.479-.37-1.136-.554-1.971-.554-.821 0-1.472.184-1.951.554-.479.37-.718.869-.718 1.499 0 .643.239 1.15.718 1.519.479.37 1.13.555 1.951.555zM121.011 215.478h-1.663v4.189h-3.204V208.62h3.204v4.292h1.724l2.998-4.292h3.409l-3.861 5.298 4.127 5.749h-3.778l-2.956-4.189zm18.753-6.858-4.99 11.725c-.506 1.273-1.136 2.169-1.889 2.689-.739.521-1.635.781-2.689.781a5.615 5.615 0 0 1-1.705-.267c-.561-.178-1.019-.425-1.375-.739l1.17-2.28a2.737 2.737 0 0 0 1.807.698c.438 0 .794-.109 1.068-.328.273-.205.52-.554.739-1.047l.041-.103-4.784-11.129h3.306l3.1 7.495 3.121-7.495h3.08zm7.864 11.047-2.423-3.388-2.505 3.388h-3.491l4.25-5.564-4.106-5.483h3.593l2.341 3.224 2.402-3.224h3.409l-4.107 5.4 4.271 5.647h-3.634zm5.211-11.047h3.182v4.312h4.805v-4.312h3.203v11.047h-3.203v-4.127h-4.805v4.127h-3.182V208.62zm24.071 0v11.047h-2.854v-3.162h-2.361l-2.095 3.162h-3.408l2.526-3.614c-.767-.301-1.356-.732-1.766-1.293-.397-.575-.596-1.267-.596-2.074 0-1.301.466-2.3 1.397-2.998.944-.712 2.238-1.068 3.88-1.068h5.277zm-5.215 2.608c-.685 0-1.205.123-1.561.37-.342.246-.513.643-.513 1.191 0 .547.164.951.493 1.211.342.246.855.37 1.54.37h2.402v-3.142h-2.361zM137.655 241.397c.712.355 1.253.821 1.622 1.396.383.575.575 1.239.575 1.991 0 .89-.253 1.67-.76 2.341-.506.657-1.218 1.171-2.135 1.54-.917.356-1.978.534-3.183.534-1.204 0-2.265-.178-3.182-.534-.904-.369-1.609-.883-2.115-1.54-.493-.671-.739-1.451-.739-2.341 0-.752.184-1.416.554-1.991.383-.575.924-1.041 1.622-1.396a3.55 3.55 0 0 1-1.232-1.232c-.287-.507-.431-1.082-.431-1.725 0-.835.233-1.561.698-2.177.466-.616 1.116-1.088 1.951-1.416.835-.343 1.793-.514 2.874-.514 1.095 0 2.06.171 2.895.514.849.328 1.506.8 1.972 1.416.465.616.698 1.342.698 2.177 0 .643-.144 1.218-.431 1.725-.288.492-.705.903-1.253 1.232zm-3.881-4.62c-.67 0-1.211.164-1.622.492-.397.315-.595.753-.595 1.315 0 .547.198.978.595 1.293.397.315.938.472 1.622.472.685 0 1.232-.157 1.643-.472.411-.315.616-.746.616-1.293 0-.562-.205-1-.616-1.315-.411-.328-.958-.492-1.643-.492zm0 9.979c.835 0 1.492-.185 1.971-.555.493-.383.74-.89.74-1.519 0-.63-.247-1.129-.74-1.499-.479-.37-1.136-.554-1.971-.554-.821 0-1.471.184-1.95.554-.479.37-.719.869-.719 1.499 0 .643.24 1.15.719 1.519.479.37 1.129.555 1.95.555zm9.69 2.361a1.928 1.928 0 0 1-1.417-.575c-.383-.383-.574-.862-.574-1.437 0-.589.191-1.061.574-1.417.384-.37.856-.554 1.417-.554s1.034.184 1.417.554c.383.356.575.828.575 1.417 0 .575-.192 1.054-.575 1.437a1.927 1.927 0 0 1-1.417.575zm8.708-14.537v14.373h-3.326v-11.704h-2.875v-2.669h6.201zm13.236 11.662v2.711h-10.862v-2.156l5.544-5.236c.588-.561.985-1.041 1.19-1.437a2.69 2.69 0 0 0 .308-1.212c0-.575-.198-1.013-.595-1.314-.383-.315-.951-.472-1.704-.472-.63 0-1.198.123-1.704.369a3.19 3.19 0 0 0-1.274 1.068l-2.422-1.56c.561-.835 1.334-1.486 2.32-1.951.985-.479 2.115-.719 3.388-.719 1.067 0 1.998.178 2.792.534.808.342 1.431.835 1.869 1.478.451.63.677 1.376.677 2.239 0 .78-.164 1.512-.493 2.197-.328.684-.965 1.464-1.909 2.34l-3.306 3.121h6.181z" fill="#20201F"/><path d="m215.294 402.744-3.006-3.96-3.024 3.96h-1.44l3.744-4.86-3.564-4.608h1.44l2.844 3.708 2.844-3.708h1.404l-3.564 4.608 3.78 4.86h-1.458zm7.124.09c-.912 0-1.734-.204-2.466-.612a4.594 4.594 0 0 1-1.728-1.728c-.42-.732-.63-1.56-.63-2.484 0-.924.21-1.752.63-2.484a4.465 4.465 0 0 1 1.728-1.71c.732-.408 1.554-.612 2.466-.612.912 0 1.734.204 2.466.612a4.34 4.34 0 0 1 1.71 1.71c.42.732.63 1.56.63 2.484 0 .924-.21 1.752-.63 2.484a4.465 4.465 0 0 1-1.71 1.728c-.732.408-1.554.612-2.466.612zm0-1.134c.672 0 1.272-.15 1.8-.45.54-.312.96-.75 1.26-1.314.3-.564.45-1.206.45-1.926s-.15-1.362-.45-1.926c-.3-.564-.72-.996-1.26-1.296-.528-.312-1.128-.468-1.8-.468-.672 0-1.278.156-1.818.468-.528.3-.948.732-1.26 1.296-.3.564-.45 1.206-.45 1.926s.15 1.362.45 1.926a3.406 3.406 0 0 0 1.26 1.314c.54.3 1.146.45 1.818.45zm15.225-8.424v9.468h-1.278v-8.334h-4.536l-.126 2.34c-.096 1.968-.324 3.48-.684 4.536-.36 1.056-1.002 1.584-1.926 1.584-.252 0-.558-.048-.918-.144l.09-1.098c.216.048.366.072.45.072.492 0 .864-.228 1.116-.684.252-.456.42-1.02.504-1.692.084-.672.156-1.56.216-2.664l.162-3.384h6.93zm11.373 0v9.468h-1.278v-8.334h-4.536l-.126 2.34c-.096 1.968-.324 3.48-.684 4.536-.36 1.056-1.002 1.584-1.926 1.584-.252 0-.558-.048-.918-.144l.09-1.098c.216.048.366.072.45.072.492 0 .864-.228 1.116-.684.252-.456.42-1.02.504-1.692.084-.672.156-1.56.216-2.664l.162-3.384h6.93zM217.121 424.83c1.32.072 2.322.432 3.006 1.08.696.636 1.044 1.47 1.044 2.502 0 .72-.174 1.362-.522 1.926-.348.552-.864.99-1.548 1.314-.684.324-1.518.486-2.502.486a7.73 7.73 0 0 1-2.592-.432c-.804-.3-1.452-.696-1.944-1.188l.63-1.026c.42.432.978.786 1.674 1.062a6.24 6.24 0 0 0 2.232.396c1.032 0 1.83-.222 2.394-.666.564-.456.846-1.08.846-1.872 0-.78-.282-1.392-.846-1.836-.564-.444-1.416-.666-2.556-.666h-.9v-.954l3.492-4.374h-6.444v-1.152h8.1v.918l-3.564 4.482zm6.848 7.29a.934.934 0 0 1-.684-.288.989.989 0 0 1-.27-.702c0-.276.09-.504.27-.684a.934.934 0 0 1 .684-.288c.264 0 .492.096.684.288.192.18.288.408.288.684 0 .276-.096.51-.288.702a.934.934 0 0 1-.684.288zm11.524-12.69v.918l-5.274 11.682h-1.404l5.184-11.448h-6.48v2.358h-1.278v-3.51h9.252zm10.311 11.448v1.152h-8.838v-.918l5.238-5.13c.66-.648 1.104-1.206 1.332-1.674.24-.48.36-.96.36-1.44 0-.744-.258-1.32-.774-1.728-.504-.42-1.23-.63-2.178-.63-1.476 0-2.622.468-3.438 1.404l-.918-.792a4.846 4.846 0 0 1 1.872-1.332c.768-.312 1.632-.468 2.592-.468 1.284 0 2.298.306 3.042.918.756.6 1.134 1.428 1.134 2.484 0 .648-.144 1.272-.432 1.872-.288.6-.834 1.29-1.638 2.07l-4.284 4.212h6.93z" fill="#000"/><path d="M142.408 62.253c.876 0 1.656.198 2.34.594.696.384 1.236.93 1.62 1.638.384.696.576 1.495.576 2.394 0 .924-.204 1.746-.612 2.466a4.194 4.194 0 0 1-1.674 1.656c-.72.396-1.548.595-2.484.595-1.572 0-2.79-.553-3.654-1.657-.864-1.103-1.296-2.627-1.296-4.572 0-2.028.384-3.582 1.152-4.662.78-1.08 1.992-1.812 3.636-2.196l4.248-.972.216 1.17-3.996.918c-1.356.3-2.352.834-2.988 1.602-.636.756-.984 1.878-1.044 3.366a4.237 4.237 0 0 1 1.602-1.71c.684-.42 1.47-.63 2.358-.63zm-.198 8.28c.66 0 1.248-.15 1.764-.45a3.186 3.186 0 0 0 1.224-1.296c.3-.552.45-1.175.45-1.872 0-.696-.144-1.308-.432-1.836a3.006 3.006 0 0 0-1.224-1.224c-.516-.3-1.11-.45-1.782-.45-.672 0-1.272.15-1.8.45a3.158 3.158 0 0 0-1.224 1.224c-.288.529-.432 1.14-.432 1.837 0 .696.144 1.32.432 1.871.3.552.714.984 1.242 1.296.528.3 1.122.45 1.782.45zm10.679-8.586c1.236 0 2.184.312 2.844.936.66.612.99 1.524.99 2.736v5.868h-1.224v-1.475c-.288.492-.714.876-1.278 1.151-.552.276-1.212.415-1.98.415-1.056 0-1.896-.252-2.52-.757-.624-.504-.936-1.17-.936-1.998 0-.803.288-1.451.864-1.944.588-.492 1.518-.738 2.79-.738h3.006v-.576c0-.816-.228-1.434-.684-1.854-.456-.432-1.122-.648-1.998-.648-.6 0-1.176.102-1.728.306a4.233 4.233 0 0 0-1.422.81l-.576-.954a4.99 4.99 0 0 1 1.728-.936 6.566 6.566 0 0 1 2.124-.342zm-.45 8.623c.72 0 1.338-.162 1.854-.486.516-.337.9-.817 1.152-1.44v-1.549h-2.97c-1.62 0-2.43.564-2.43 1.692 0 .552.21.99.63 1.314.42.313 1.008.469 1.764.469zm15.426-8.55v9.467h-1.278v-8.334h-4.536l-.126 2.34c-.096 1.969-.324 3.48-.684 4.537-.36 1.055-1.002 1.584-1.926 1.584a3.66 3.66 0 0 1-.918-.145l.09-1.097c.216.047.366.072.45.072.492 0 .864-.228 1.116-.684.252-.457.42-1.02.504-1.693.084-.671.156-1.56.216-2.664l.162-3.384h6.93zm7.071 5.255h-2.16v4.212h-1.278V62.02h1.278v4.158h2.178l3.33-4.158h1.386l-3.726 4.59 3.996 4.879h-1.512l-3.492-4.213zm10.594 4.303c-.913 0-1.735-.204-2.467-.612a4.594 4.594 0 0 1-1.728-1.728c-.42-.733-.63-1.56-.63-2.484 0-.925.21-1.753.63-2.485a4.465 4.465 0 0 1 1.728-1.71c.732-.408 1.554-.612 2.467-.612.912 0 1.734.204 2.466.612a4.34 4.34 0 0 1 1.71 1.71c.42.732.63 1.56.63 2.484 0 .924-.21 1.752-.63 2.484a4.465 4.465 0 0 1-1.71 1.729c-.732.408-1.554.612-2.466.612zm0-1.135c.672 0 1.272-.15 1.8-.45.54-.311.96-.75 1.26-1.313.3-.565.45-1.207.45-1.927s-.15-1.362-.45-1.926c-.3-.564-.72-.996-1.26-1.296-.528-.312-1.128-.468-1.8-.468-.672 0-1.279.156-1.819.468-.528.3-.948.732-1.26 1.296-.3.564-.45 1.207-.45 1.927s.15 1.361.45 1.925a3.406 3.406 0 0 0 1.26 1.314c.54.3 1.147.45 1.819.45zm7.537-8.424h1.278v4.194h5.958V62.02h1.278v9.468h-1.278v-4.175h-5.958v4.175h-1.278V62.02zM156.22 93.574c1.32.072 2.322.432 3.006 1.08.696.636 1.044 1.47 1.044 2.502 0 .72-.174 1.362-.522 1.926-.348.552-.864.99-1.548 1.314-.684.324-1.518.486-2.502.486a7.73 7.73 0 0 1-2.592-.432c-.804-.3-1.452-.696-1.944-1.188l.63-1.026c.42.432.978.786 1.674 1.062a6.24 6.24 0 0 0 2.232.396c1.032 0 1.83-.222 2.394-.666.564-.456.846-1.08.846-1.872 0-.78-.282-1.392-.846-1.836-.564-.444-1.416-.666-2.556-.666h-.9V93.7l3.492-4.374h-6.444v-1.152h8.1v.917l-3.564 4.483zm6.848 7.29a.934.934 0 0 1-.684-.288.989.989 0 0 1-.27-.702c0-.276.09-.504.27-.684a.934.934 0 0 1 .684-.288c.264 0 .492.096.684.288.192.18.288.408.288.684 0 .276-.096.51-.288.702a.934.934 0 0 1-.684.288zm6.767-12.799c1.668 0 2.946.553 3.834 1.657.888 1.092 1.332 2.64 1.332 4.644 0 1.404-.24 2.592-.72 3.564s-1.152 1.71-2.016 2.214c-.864.492-1.872.738-3.024.738-1.248 0-2.244-.228-2.988-.684l.522-1.044c.6.396 1.416.594 2.448.594 1.392 0 2.484-.438 3.276-1.314.792-.888 1.188-2.172 1.188-3.852 0-.312-.018-.654-.054-1.026a3.445 3.445 0 0 1-1.494 1.602c-.684.372-1.47.558-2.358.558-.828 0-1.566-.156-2.214-.468a3.62 3.62 0 0 1-1.494-1.314c-.36-.576-.54-1.242-.54-1.998 0-.769.186-1.447.558-2.035a3.635 3.635 0 0 1 1.53-1.35c.66-.323 1.398-.486 2.214-.486zm.144 6.553c.636 0 1.194-.12 1.674-.36.492-.24.876-.57 1.152-.99.276-.42.414-.889.414-1.404 0-.48-.132-.925-.396-1.333-.252-.407-.63-.738-1.134-.99-.504-.251-1.104-.377-1.8-.377-.912 0-1.656.251-2.232.755-.564.493-.846 1.153-.846 1.98 0 .829.282 1.489.846 1.98.576.493 1.35.739 2.322.739zm14.119-.45c.792.264 1.398.66 1.818 1.188.432.528.648 1.164.648 1.908 0 .732-.198 1.374-.594 1.926-.396.54-.966.96-1.71 1.26-.732.288-1.596.432-2.592.432-1.512 0-2.7-.324-3.564-.972-.864-.648-1.296-1.53-1.296-2.646 0-.756.204-1.392.612-1.908.42-.528 1.026-.924 1.818-1.188-.648-.252-1.14-.612-1.476-1.08-.336-.48-.504-1.044-.504-1.692 0-1.02.396-1.83 1.188-2.43.804-.6 1.878-.9 3.222-.9.888 0 1.662.138 2.322.413.672.264 1.194.648 1.566 1.153.372.503.558 1.091.558 1.763 0 .648-.174 1.213-.522 1.693-.348.468-.846.828-1.494 1.08zm-5.544-2.737c0 .697.276 1.249.828 1.657.552.408 1.314.612 2.286.612s1.734-.204 2.286-.612c.564-.408.846-.954.846-1.638 0-.709-.288-1.267-.864-1.675-.564-.407-1.32-.612-2.268-.612-.96 0-1.722.205-2.286.612-.552.408-.828.96-.828 1.656zm3.114 8.353c1.116 0 1.986-.228 2.61-.684.636-.456.954-1.074.954-1.854s-.318-1.392-.954-1.836c-.624-.456-1.494-.684-2.61-.684-1.104 0-1.974.228-2.61.684-.624.444-.936 1.056-.936 1.836 0 .792.312 1.416.936 1.872.624.444 1.494.666 2.61.666z" fill="#20201F"/><path d="M134.916 460.395h-2.52v3.312H131.1v-3.312h-7.11v-.936l6.678-8.352h1.44l-6.444 8.136h5.472v-2.916h1.26v2.916h2.52v1.152zm2.513 3.402a.934.934 0 0 1-.684-.288.989.989 0 0 1-.27-.702c0-.276.09-.504.27-.684a.934.934 0 0 1 .684-.288c.264 0 .492.096.684.288.192.18.288.408.288.684 0 .276-.096.51-.288.702a.934.934 0 0 1-.684.288zm6.155-7.524c1.824 0 3.15.33 3.978.99.84.648 1.26 1.56 1.26 2.736 0 .732-.174 1.386-.522 1.962-.336.576-.846 1.032-1.53 1.368-.684.324-1.524.486-2.52.486-.9 0-1.758-.144-2.574-.432-.804-.3-1.452-.696-1.944-1.188l.63-1.026c.42.432.972.786 1.656 1.062a6.096 6.096 0 0 0 2.214.396c1.044 0 1.848-.234 2.412-.702.576-.468.864-1.092.864-1.872 0-.864-.324-1.518-.972-1.962-.636-.444-1.716-.666-3.24-.666h-2.682l.648-6.318h6.894v1.152h-5.76l-.432 4.014h1.62zm14.101.828c.792.264 1.398.66 1.818 1.188.432.528.648 1.164.648 1.908 0 .732-.198 1.374-.594 1.926-.396.54-.966.96-1.71 1.26-.732.288-1.596.432-2.592.432-1.512 0-2.7-.324-3.564-.972-.864-.648-1.296-1.53-1.296-2.646 0-.756.204-1.392.612-1.908.42-.528 1.026-.924 1.818-1.188-.648-.252-1.14-.612-1.476-1.08-.336-.48-.504-1.044-.504-1.692 0-1.02.396-1.83 1.188-2.43.804-.6 1.878-.9 3.222-.9.888 0 1.662.138 2.322.414.672.264 1.194.648 1.566 1.152.372.504.558 1.092.558 1.764 0 .648-.174 1.212-.522 1.692-.348.468-.846.828-1.494 1.08zm-5.544-2.736c0 .696.276 1.248.828 1.656.552.408 1.314.612 2.286.612s1.734-.204 2.286-.612c.564-.408.846-.954.846-1.638 0-.708-.288-1.266-.864-1.674-.564-.408-1.32-.612-2.268-.612-.96 0-1.722.204-2.286.612-.552.408-.828.96-.828 1.656zm3.114 8.352c1.116 0 1.986-.228 2.61-.684.636-.456.954-1.074.954-1.854s-.318-1.392-.954-1.836c-.624-.456-1.494-.684-2.61-.684-1.104 0-1.974.228-2.61.684-.624.444-.936 1.056-.936 1.836 0 .792.312 1.416.936 1.872.624.444 1.494.666 2.61.666z" fill="#000"/></g><defs><clipPath id="a"><path fill="#fff" transform="translate(51 29)" d="M0 0h398.249v542.578H0z"/></clipPath></defs></svg>