<svg width="500" height="600" viewBox="0 0 500 600" fill="none" xmlns="http://www.w3.org/2000/svg">
<rect width="500" height="600" fill="white"/>
<g clip-path="url(#clip0_2384_28735)">
<path fill-rule="evenodd" clip-rule="evenodd" d="M51 517.678H175.27V571.578H449.249V517.678V416.41V118.83H275.159L274.977 29L74.3603 40.9769V118.83H51V517.678Z" fill="#C6C0E1"/>
<path fill-rule="evenodd" clip-rule="evenodd" d="M434.282 571.578V225.909V202.007V118.83H449.249V571.578H434.282Z" fill="#ED9FA6"/>
<path fill-rule="evenodd" clip-rule="evenodd" d="M51 517.678H175.27V571.578H449.249V517.678V416.41V118.83H275.159L274.977 29L74.3603 40.9769V118.83H51V517.678Z" fill="#FFF9D0"/>
<path fill-rule="evenodd" clip-rule="evenodd" d="M434.282 571.578V225.909V202.007V118.83H449.249V571.578H434.282Z" fill="#FFF9D0"/>
<path d="M96.5133 126.615H65.9756V149.372H96.5133V126.615Z" fill="#20201F"/>
<path d="M65.9754 98.4082H51V517.678H65.9754V98.4082Z" fill="#20201F"/>
<path d="M189.938 502.706H175.27V571.578H189.938V502.706Z" fill="#20201F"/>
<path d="M189.938 502.706H51V517.678H189.938V502.706Z" fill="#20201F"/>
<path d="M74.3603 90.0242H51V118.83H74.3603V90.0242Z" fill="#20201F"/>
<path d="M281.568 134.4H245.63V170.333H281.568V134.4Z" fill="#20201F"/>
<path d="M449.249 134.4H434.282V149.372H449.249V134.4Z" fill="#20201F"/>
<path d="M312.709 556.604H249.823V571.577H312.709V556.604Z" fill="#20201F"/>
<path d="M312.709 532.304H297.735V571.577H312.709V532.304Z" fill="#20201F"/>
<path d="M449.249 532.304H297.735V547.493H449.249V532.304Z" fill="#20201F"/>
<path d="M449.249 149.372H434.282V571.577H449.249V149.372Z" fill="#20201F"/>
<path d="M296.535 126.615H192.336V149.372H296.535V126.615Z" fill="#20201F"/>
<path d="M449.249 126.615H422.3V149.372H449.249V126.615Z" fill="#20201F"/>
<path d="M81.5461 82.8979H51V90.6833H81.5461V82.8979Z" fill="#20201F"/>
<path d="M81.5462 82.8977H74.3604V118.829H81.5462V82.8977Z" fill="#20201F"/>
<path d="M96.5133 118.829H65.9756V126.615H96.5133V118.829Z" fill="#20201F"/>
<path d="M300.132 118.829H192.336V126.615H300.132V118.829Z" fill="#20201F"/>
<path d="M449.249 118.83H418.711V126.615H449.249V118.83Z" fill="#20201F"/>
<path fill-rule="evenodd" clip-rule="evenodd" d="M267.792 36.628V118.83H274.978V29L74.3604 40.9769V82.8979H81.5462V47.7469L267.792 36.628Z" fill="#20201F"/>
<path d="M224.107 339.364H65.9751V344.155H224.107V339.364Z" fill="#20201F"/>
<path d="M224.107 291.227H219.311V344.155H224.107V291.227Z" fill="#20201F"/>
<path d="M189.935 342.05H185.15V438.687H189.935V342.05Z" fill="#20201F"/>
<path d="M189.938 492.586H185.15V502.706H189.938V492.586Z" fill="#20201F"/>
<path d="M434.282 564.389H312.709V571.578H434.282V564.389Z" fill="#20201F"/>
<path d="M267.256 434.956H262.466V470.454H267.256V434.956Z" fill="#20201F"/>
<path d="M302.547 434.961H262.468V439.753H302.547V434.961Z" fill="#20201F"/>
<path d="M302.544 434.961H297.75V532.649H302.544V434.961Z" fill="#20201F"/>
<path d="M267.256 537.117H262.466V558.421H267.256V537.117Z" fill="#20201F"/>
<path d="M418.71 118.83H300.124V122.682H418.71V118.83Z" fill="#20201F"/>
<path d="M422.299 126.594H296.535V130.446H422.299V126.594Z" fill="#20201F"/>
<path d="M422.299 145.5H296.535V149.351H422.299V145.5Z" fill="#20201F"/>
<path d="M144.425 118.851H96.5132V122.703H144.425V118.851Z" fill="#20201F"/>
<path d="M144.426 126.616H96.5127V130.467H144.426V126.616Z" fill="#20201F"/>
<path d="M144.426 145.521H96.5127V149.372H144.426V145.521Z" fill="#20201F"/>
<path d="M144.427 118.851H141.6V149.394H144.427V118.851Z" fill="#20201F"/>
<path fill-rule="evenodd" clip-rule="evenodd" d="M248.327 567.839C248.327 568.778 247.565 569.54 246.626 569.54C245.687 569.54 244.925 568.778 244.925 567.839V531.843C244.925 530.904 245.687 530.142 246.626 530.142C247.565 530.142 248.327 530.904 248.327 531.843V567.839Z" fill="#20201F"/>
<path fill-rule="evenodd" clip-rule="evenodd" d="M195.146 568.181C195.146 568.651 194.765 569.032 194.296 569.032C193.826 569.032 193.445 568.651 193.445 568.181C193.445 557.876 198.725 548.558 207.256 541.823C215.733 535.132 227.43 530.993 240.332 530.993C240.801 530.993 241.182 531.374 241.182 531.843C241.182 532.312 240.801 532.693 240.332 532.693C227.815 532.693 216.491 536.691 208.305 543.152C200.176 549.569 195.146 558.42 195.146 568.181Z" fill="#20201F"/>
<path fill-rule="evenodd" clip-rule="evenodd" d="M187.385 128.591C187.385 127.653 188.147 126.891 189.086 126.891C190.025 126.891 190.787 127.653 190.787 128.591V164.588C190.787 165.527 190.025 166.289 189.086 166.289C188.147 166.289 187.385 165.527 187.385 164.588V128.591Z" fill="#20201F"/>
<path fill-rule="evenodd" clip-rule="evenodd" d="M146.148 128.25C146.148 127.78 146.529 127.399 146.998 127.399C147.468 127.399 147.849 127.78 147.849 128.25C147.849 138.047 151.897 146.918 158.438 153.338C164.985 159.763 174.032 163.737 184.024 163.737C184.493 163.737 184.874 164.118 184.874 164.588C184.874 165.057 184.493 165.438 184.024 165.438C173.574 165.438 164.106 161.275 157.249 154.547C150.392 147.817 146.148 138.518 146.148 128.25Z" fill="#20201F"/>
<path fill-rule="evenodd" clip-rule="evenodd" d="M186.468 491.09C185.529 491.09 184.767 490.328 184.767 489.39C184.767 488.451 185.529 487.689 186.468 487.689H222.464C223.403 487.689 224.165 488.451 224.165 489.39C224.165 490.328 223.403 491.09 222.464 491.09H186.468Z" fill="#20201F"/>
<path fill-rule="evenodd" clip-rule="evenodd" d="M186.126 441.889C185.656 441.889 185.275 441.508 185.275 441.039C185.275 440.569 185.656 440.188 186.126 440.188C196.417 440.188 205.731 445.065 212.463 452.947C219.167 460.793 223.314 471.624 223.314 483.573C223.314 484.042 222.933 484.423 222.464 484.423C221.994 484.423 221.613 484.042 221.613 483.573C221.613 472.038 217.623 461.597 211.174 454.049C204.757 446.537 195.899 441.889 186.126 441.889Z" fill="#20201F"/>
<path fill-rule="evenodd" clip-rule="evenodd" d="M160.827 336.387H70.4731V300.245H161.89V336.387H160.827ZM98.7521 332.113C99.7462 332.113 100.653 331.707 101.307 331.049C101.96 330.394 102.367 329.491 102.367 328.499V308.09C102.367 307.098 101.96 306.195 101.307 305.536C100.653 304.882 99.7462 304.476 98.7521 304.476H78.3426C77.351 304.476 76.4471 304.883 75.7897 305.536C75.1358 306.19 74.7293 307.095 74.7293 308.09V328.499C74.7293 329.494 75.1358 330.399 75.7923 331.05C76.4471 331.706 77.351 332.113 78.3426 332.113H98.7521ZM150.317 330.425C151.693 330.425 152.943 329.864 153.849 328.96C154.753 328.056 155.313 326.806 155.313 325.428C155.313 324.053 154.753 322.804 153.847 321.897C152.942 320.993 151.693 320.432 150.317 320.432C148.94 320.432 147.69 320.993 146.787 321.898C145.882 322.802 145.321 324.053 145.321 325.428C145.321 326.806 145.882 328.056 146.786 328.96C147.69 329.864 148.94 330.425 150.317 330.425ZM150.317 317.261C151.989 317.261 153.505 316.582 154.601 315.486C155.697 314.389 156.376 312.873 156.376 311.202C156.376 309.53 155.697 308.015 154.601 306.919C153.505 305.823 151.989 305.143 150.317 305.143C148.646 305.143 147.13 305.823 146.034 306.919C144.938 308.015 144.258 309.53 144.258 311.202C144.258 312.873 144.938 314.389 146.034 315.486C147.13 316.582 148.646 317.261 150.317 317.261ZM147.085 314.435C147.911 315.26 149.055 315.773 150.317 315.773C151.58 315.773 152.724 315.26 153.55 314.435C154.376 313.609 154.888 312.464 154.888 311.202C154.888 309.939 154.376 308.796 153.55 307.97C152.724 307.144 151.58 306.631 150.317 306.631C149.055 306.631 147.911 307.144 147.085 307.97C146.259 308.796 145.747 309.939 145.747 311.202C145.747 312.464 146.259 313.609 147.085 314.435ZM137.323 331.488C138.994 331.488 140.51 330.808 141.606 329.712C142.702 328.616 143.382 327.1 143.382 325.428C143.382 323.757 142.703 322.24 141.607 321.144C140.511 320.048 138.994 319.369 137.323 319.369C135.651 319.369 134.135 320.049 133.039 321.145C131.943 322.241 131.264 323.757 131.264 325.428C131.264 327.099 131.943 328.616 133.039 329.712C134.135 330.808 135.652 331.488 137.323 331.488ZM134.09 328.661C134.916 329.487 136.061 329.999 137.323 329.999C138.585 329.999 139.729 329.487 140.555 328.661C141.381 327.835 141.893 326.691 141.893 325.428C141.893 324.166 141.381 323.021 140.556 322.195C139.73 321.37 138.585 320.858 137.323 320.858C136.06 320.858 134.916 321.37 134.09 322.196C133.264 323.022 132.752 324.166 132.752 325.428C132.752 326.69 133.264 327.835 134.09 328.661ZM137.323 316.198C138.698 316.198 139.949 315.638 140.854 314.734C141.758 313.83 142.319 312.58 142.319 311.202C142.319 309.827 141.758 308.578 140.852 307.671C139.947 306.767 138.698 306.206 137.323 306.206C135.945 306.206 134.695 306.767 133.793 307.672C132.887 308.576 132.326 309.826 132.326 311.202C132.326 312.58 132.887 313.83 133.791 314.734C134.695 315.638 135.945 316.198 137.323 316.198ZM134.842 313.683C135.476 314.316 136.354 314.71 137.323 314.71C138.294 314.71 139.171 314.318 139.803 313.685C140.437 313.049 140.83 312.171 140.83 311.202C140.83 310.231 140.438 309.353 139.806 308.722C139.171 308.086 138.294 307.694 137.323 307.694C136.354 307.694 135.476 308.088 134.842 308.722C134.207 309.353 133.815 310.231 133.815 311.202C133.815 312.171 134.208 313.049 134.842 313.683ZM147.837 327.909C148.47 328.543 149.349 328.936 150.317 328.936C151.289 328.936 152.166 328.544 152.798 327.912C153.432 327.276 153.825 326.397 153.825 325.428C153.825 324.457 153.433 323.58 152.801 322.948C152.166 322.313 151.289 321.921 150.317 321.921C149.349 321.921 148.47 322.314 147.837 322.948C147.202 323.58 146.81 324.457 146.81 325.428C146.81 326.397 147.203 327.276 147.837 327.909ZM78.3426 329.987H98.7521C99.1602 329.987 99.5336 329.819 99.8031 329.549C100.074 329.282 100.241 328.909 100.241 328.499V308.09C100.241 307.68 100.074 307.307 99.8048 307.038C99.5336 306.77 99.1602 306.602 98.7521 306.602H78.3426C77.9327 306.602 77.5602 306.768 77.2932 307.035C77.0236 307.309 76.8553 307.683 76.8553 308.09V328.499C76.8553 328.906 77.0236 329.28 77.2932 329.549C77.5602 329.821 77.9327 329.987 78.3426 329.987ZM127.91 302.371V334.261H159.764V302.371H127.91ZM125.784 334.261V302.371H72.599V334.261H125.784Z" fill="#20201F"/>
<path fill-rule="evenodd" clip-rule="evenodd" d="M101.178 481.416C98.3811 483.215 94.7924 484.325 91.6375 484.325C88.5318 484.325 86.1082 483.26 84.421 481.516V481.511C83.7832 480.85 83.2892 480.066 82.8708 479.235V482.823C82.8708 484.964 81.9762 486.219 80.5398 486.948C79.2328 487.613 77.5039 487.777 75.6084 487.777H74.826V487.758C73.246 487.713 71.8037 487.516 70.6804 486.948C69.2449 486.219 68.3545 484.964 68.3545 482.833V465.238C68.3545 463.098 69.2449 461.844 70.6804 461.12C71.8037 460.556 73.246 460.353 74.826 460.31V460.291H75.6084C77.5039 460.291 79.2328 460.455 80.5398 461.12C81.9762 461.844 82.8708 463.098 82.8708 465.238V468.833C83.2892 468.002 83.7781 467.221 84.421 466.558C86.1082 464.811 88.5318 463.744 91.6375 463.744C94.9719 463.744 98.7884 464.988 101.651 466.97C104.292 468.799 106.146 471.273 106.146 474.034C106.146 476.959 104.067 479.562 101.178 481.416ZM73.2749 473.527H73.2698V473.53C73.2698 474.161 73.5334 474.742 73.951 475.16V475.165C74.3685 475.582 74.9442 475.84 75.5829 475.84C76.2224 475.84 76.793 475.582 77.2105 475.165H77.2182L77.2174 475.16C77.6349 474.739 77.8926 474.161 77.8926 473.53C77.8926 472.889 77.6349 472.309 77.2182 471.894C76.8007 471.478 76.2224 471.217 75.5829 471.217C74.9442 471.217 74.3736 471.478 73.951 471.894C73.5334 472.309 73.2749 472.889 73.2749 473.527ZM74.4578 473.525V473.53C74.4578 473.841 74.582 474.122 74.7784 474.322H74.7861C74.9876 474.524 75.2734 474.652 75.5829 474.652C75.8984 474.652 76.1875 474.527 76.3831 474.332L76.3882 474.324C76.5847 474.122 76.7114 473.841 76.7114 473.53C76.7114 473.207 76.5847 472.928 76.3882 472.727C76.1875 472.531 75.8984 472.406 75.5829 472.406C75.2682 472.406 74.9817 472.531 74.7861 472.736C74.5769 472.933 74.4502 473.217 74.4502 473.525H74.4578ZM81.3086 465.238C81.3086 463.794 80.7414 462.97 79.8425 462.509C78.9105 462.045 77.6179 461.889 76.1569 461.861H75.6084C73.9255 461.861 72.4169 461.99 71.3785 462.509C70.4788 462.97 69.9184 463.796 69.9184 465.238V482.833C69.9184 484.274 70.4788 485.096 71.3785 485.556C72.4169 486.08 73.9255 486.207 75.6084 486.207H76.2173C77.6477 486.174 78.9309 486.02 79.8425 485.559C80.749 485.096 81.3086 484.267 81.3086 482.823V465.238ZM100.766 468.25C98.154 466.438 94.6734 465.306 91.6375 465.306C88.9842 465.306 86.9433 466.192 85.5427 467.638C84.0094 469.221 83.2169 471.5 83.2169 474.034C83.2169 476.572 84.0094 478.849 85.5427 480.436C86.9433 481.879 88.9842 482.763 91.6375 482.763C94.505 482.763 97.7799 481.749 100.34 480.105C102.806 478.522 104.583 476.365 104.583 474.034C104.583 471.843 103.003 469.806 100.766 468.25Z" fill="#20201F"/>
<path fill-rule="evenodd" clip-rule="evenodd" d="M68.2653 421.042L68.2593 440.533C68.2593 447.051 81.7517 446.283 82.6522 446.216C85.7757 446.216 88.6092 444.942 90.6595 442.889C92.7064 440.841 93.9752 438.003 93.9752 434.88V426.609C93.9752 423.481 92.709 420.645 90.6595 418.592C88.6092 416.546 85.7706 415.276 82.6471 415.262C81.7312 415.221 68.2593 414.55 68.2653 421.042ZM81.4081 430.748H81.4106C81.4174 430.063 81.687 429.43 82.1377 428.978C82.5961 428.534 83.2211 428.261 83.9031 428.261C84.592 428.261 85.2179 428.536 85.6677 428.988C86.1193 429.438 86.3957 430.063 86.3957 430.751C86.3957 431.434 86.1193 432.059 85.6677 432.51V432.519H85.6626C85.2128 432.969 84.592 433.251 83.9031 433.251C83.2211 433.251 82.5876 432.969 82.1377 432.519V432.516C81.687 432.065 81.4038 431.434 81.4038 430.751L81.4081 430.748ZM82.6794 430.744C82.6794 430.418 82.8138 430.111 83.0391 429.892C83.2534 429.677 83.5613 429.54 83.9031 429.54C84.2433 429.54 84.552 429.671 84.7722 429.886C84.984 430.107 85.1235 430.407 85.1201 430.751C85.1201 431.094 84.9865 431.391 84.7722 431.611L84.7671 431.616C84.552 431.835 84.2433 431.968 83.9031 431.968C83.5672 431.968 83.2594 431.826 83.0391 431.615L83.0366 431.609C82.8206 431.394 82.6905 431.087 82.6905 430.756L82.693 430.744H82.6794ZM73.0147 430.748C73.0147 427.606 73.951 424.754 75.4536 422.679C77.0252 420.525 79.2209 419.185 81.6539 419.184C84.0962 419.184 86.2911 420.525 87.866 422.679C89.3771 424.761 90.3049 427.615 90.3049 430.758V430.772C90.2973 433.906 89.3627 436.753 87.8566 438.833C86.286 440.978 84.0962 442.315 81.6675 442.317L81.6539 442.315C79.2149 442.315 77.032 440.978 75.4536 438.816C73.9484 436.747 73.0147 433.895 73.0173 430.756L73.0147 430.748ZM74.7725 430.748C74.7776 427.994 75.5854 425.506 76.884 423.707C78.1256 422.009 79.817 420.951 81.6539 420.951C83.5026 420.951 85.194 422.009 86.4407 423.72C87.7342 425.51 88.5395 427.994 88.5395 430.758V430.763L88.5446 430.772C88.5395 433.528 87.7342 436.006 86.4331 437.796C85.1966 439.49 83.5026 440.546 81.6675 440.551L81.6539 440.546C79.8136 440.55 78.1205 439.492 76.884 437.79C75.5905 435.999 74.7776 433.514 74.7801 430.758V430.748H74.7725ZM70.0247 421.048C70.0247 416.21 82.5502 417.034 82.5825 417.034L82.6471 417.041C85.2867 417.041 87.6746 418.107 89.4111 419.832C91.1417 421.573 92.2098 423.965 92.2098 426.609V434.872C92.2098 437.525 91.1468 439.921 89.4111 441.654C87.6831 443.385 85.2867 444.45 82.6471 444.456L82.585 444.458C82.5536 444.458 70.0247 445.346 70.0247 440.528V421.048Z" fill="#20201F"/>
<path fill-rule="evenodd" clip-rule="evenodd" d="M70.8089 408.099H172.398V366.54H70.8089V408.099ZM90.6043 383.28C91.7201 383.28 92.7306 383.732 93.4608 384.462C94.1913 385.197 94.6437 386.206 94.6437 387.319C94.6437 388.432 94.1913 389.441 93.4608 390.173C92.7266 390.906 91.7175 391.359 90.6043 391.359C89.4909 391.359 88.4821 390.906 87.7507 390.176C87.0174 389.445 86.565 388.435 86.565 387.319C86.565 386.204 87.0174 385.193 87.7476 384.462C88.4778 383.732 89.4886 383.28 90.6043 383.28ZM92.3193 385.604C92.7564 386.041 93.028 386.649 93.028 387.319C93.028 387.99 92.7564 388.597 92.3193 389.035C91.8822 389.471 91.2747 389.743 90.6043 389.743C89.9337 389.743 89.3262 389.471 88.89 389.034C88.452 388.595 88.1807 387.988 88.1807 387.319C88.1807 386.65 88.452 386.044 88.89 385.605C89.3288 385.167 89.9354 384.896 90.6043 384.896C91.273 384.896 91.8799 385.167 92.3193 385.604ZM78.4763 367.729L150.189 369.345C160.96 369.345 169.779 376.549 169.779 387.319C169.779 398.09 160.96 405.294 150.189 405.294L78.4763 406.909C77.0868 406.909 75.8234 406.341 74.9098 405.427C73.9959 404.509 73.4272 403.247 73.4272 401.86V372.778C73.4272 371.394 73.9953 370.132 74.9098 369.216C75.8299 368.297 77.0919 367.729 78.4763 367.729ZM150.189 371.364C159.856 371.364 167.759 377.652 167.759 387.319C167.759 396.986 159.856 403.274 150.189 403.274L78.4763 404.89C77.6452 404.89 76.8875 404.548 76.3339 403.999C75.7871 403.452 75.4469 402.695 75.4469 401.86V372.778C75.4469 371.944 75.7871 371.187 76.3381 370.636C76.8849 370.089 77.6418 369.749 78.4763 369.749L150.189 371.364ZM172.611 410.077H70.5957C70.0883 410.077 69.6254 409.876 69.2901 409.557C68.9525 409.237 68.7441 408.791 68.7441 408.302V366.336C68.7441 365.848 68.9525 365.402 69.2861 365.082C69.6215 364.761 70.0858 364.562 70.5957 364.562H172.611C173.121 364.562 173.585 364.761 173.92 365.082C174.252 365.406 174.462 365.85 174.462 366.336V408.302C174.462 408.789 174.253 409.232 173.92 409.554C173.58 409.877 173.118 410.077 172.611 410.077Z" fill="#20201F"/>
<path fill-rule="evenodd" clip-rule="evenodd" d="M269.327 536.736V533.816C269.327 533.467 269.041 533.184 268.694 533.184H268.084V503.151C268.084 502.645 267.672 502.233 267.165 502.233C266.658 502.233 266.247 502.645 266.247 503.151V533.184H261.24C260.894 533.184 260.607 533.47 260.607 533.816V536.736C260.607 537.085 260.891 537.368 261.24 537.368H268.694C269.043 537.368 269.327 537.085 269.327 536.736Z" fill="#20201F"/>
<path fill-rule="evenodd" clip-rule="evenodd" d="M260.396 471.294V474.214C260.396 474.563 260.682 474.846 261.029 474.846H261.639V504.879C261.639 505.385 262.051 505.797 262.558 505.797C263.065 505.797 263.476 505.385 263.476 504.879V474.846H268.483C268.829 474.846 269.116 474.56 269.116 474.214V471.294C269.116 470.945 268.832 470.662 268.483 470.662H261.029C260.68 470.662 260.396 470.945 260.396 471.294Z" fill="#20201F"/>
<path d="M302.577 219.756V260H293.264V227.23H285.215V219.756H302.577Z" fill="#20201F"/>
<path d="M321.541 189H319.415V290.095H321.541V189Z" fill="#20201F"/>
<path d="M347.121 213.271V214.585H337.04V213.538L343.015 207.686C343.767 206.947 344.274 206.31 344.534 205.776C344.808 205.229 344.945 204.681 344.945 204.134C344.945 203.285 344.65 202.628 344.062 202.163C343.487 201.684 342.659 201.444 341.577 201.444C339.894 201.444 338.586 201.978 337.656 203.046L336.608 202.142C337.17 201.485 337.881 200.979 338.744 200.623C339.62 200.267 340.605 200.089 341.7 200.089C343.165 200.089 344.322 200.438 345.171 201.136C346.033 201.82 346.464 202.765 346.464 203.97C346.464 204.709 346.3 205.42 345.971 206.105C345.643 206.789 345.02 207.576 344.103 208.466L339.216 213.271H347.121ZM352.96 200.212V214.585H351.481V201.526H348.094V200.212H352.96ZM357.504 214.688C357.203 214.688 356.943 214.578 356.724 214.359C356.519 214.14 356.416 213.873 356.416 213.558C356.416 213.243 356.519 212.983 356.724 212.778C356.943 212.559 357.203 212.45 357.504 212.45C357.805 212.45 358.066 212.559 358.285 212.778C358.504 212.983 358.613 213.243 358.613 213.558C358.613 213.873 358.504 214.14 358.285 214.359C358.066 214.578 357.805 214.688 357.504 214.688ZM364.489 200.212V214.585H363.011V201.526H359.623V200.212H364.489ZM376.159 207.049C377.062 207.351 377.754 207.802 378.233 208.405C378.725 209.007 378.972 209.732 378.972 210.581C378.972 211.416 378.746 212.148 378.294 212.778C377.843 213.394 377.192 213.873 376.344 214.215C375.509 214.544 374.523 214.708 373.387 214.708C371.662 214.708 370.307 214.339 369.321 213.599C368.336 212.86 367.843 211.854 367.843 210.581C367.843 209.719 368.076 208.993 368.541 208.405C369.02 207.802 369.712 207.351 370.615 207.049C369.876 206.762 369.315 206.351 368.931 205.817C368.548 205.27 368.356 204.627 368.356 203.887C368.356 202.724 368.808 201.8 369.712 201.115C370.629 200.431 371.854 200.089 373.387 200.089C374.4 200.089 375.283 200.246 376.036 200.561C376.802 200.862 377.398 201.3 377.822 201.875C378.246 202.45 378.459 203.121 378.459 203.887C378.459 204.627 378.26 205.27 377.863 205.817C377.466 206.351 376.898 206.762 376.159 207.049ZM369.835 203.928C369.835 204.722 370.15 205.352 370.779 205.817C371.409 206.283 372.278 206.516 373.387 206.516C374.496 206.516 375.365 206.283 375.995 205.817C376.638 205.352 376.96 204.729 376.96 203.949C376.96 203.141 376.631 202.505 375.974 202.039C375.331 201.574 374.468 201.341 373.387 201.341C372.292 201.341 371.423 201.574 370.779 202.039C370.15 202.505 369.835 203.135 369.835 203.928ZM373.387 213.456C374.66 213.456 375.652 213.196 376.364 212.675C377.09 212.155 377.452 211.45 377.452 210.561C377.452 209.671 377.09 208.973 376.364 208.466C375.652 207.946 374.66 207.686 373.387 207.686C372.128 207.686 371.135 207.946 370.41 208.466C369.698 208.973 369.342 209.671 369.342 210.561C369.342 211.464 369.698 212.176 370.41 212.696C371.121 213.202 372.114 213.456 373.387 213.456Z" fill="#20201F"/>
<path d="M337.768 235.657C339.274 235.74 340.417 236.15 341.197 236.889C341.991 237.615 342.388 238.566 342.388 239.744C342.388 240.565 342.189 241.297 341.792 241.941C341.395 242.57 340.807 243.07 340.027 243.439C339.246 243.809 338.295 243.994 337.173 243.994C336.132 243.994 335.147 243.83 334.216 243.501C333.299 243.159 332.56 242.707 331.998 242.146L332.717 240.975C333.196 241.468 333.833 241.872 334.626 242.187C335.42 242.488 336.269 242.639 337.173 242.639C338.35 242.639 339.26 242.385 339.903 241.879C340.547 241.359 340.868 240.647 340.868 239.744C340.868 238.854 340.547 238.156 339.903 237.649C339.26 237.143 338.288 236.889 336.988 236.889H335.961V235.801L339.944 230.812H332.594V229.498H341.833V230.545L337.768 235.657ZM354.354 229.498V230.545L348.337 243.871H346.736L352.649 230.812H345.257V233.502H343.8V229.498H354.354ZM356.327 243.973C356.026 243.973 355.766 243.864 355.547 243.645C355.342 243.426 355.239 243.159 355.239 242.844C355.239 242.529 355.342 242.269 355.547 242.064C355.766 241.845 356.026 241.735 356.327 241.735C356.629 241.735 356.889 241.845 357.108 242.064C357.327 242.269 357.436 242.529 357.436 242.844C357.436 243.159 357.327 243.426 357.108 243.645C356.889 243.864 356.629 243.973 356.327 243.973ZM365.304 235.267C366.248 235.267 367.083 235.445 367.809 235.801C368.548 236.157 369.123 236.664 369.534 237.321C369.944 237.964 370.149 238.717 370.149 239.579C370.149 240.455 369.937 241.229 369.513 241.899C369.089 242.57 368.5 243.09 367.747 243.46C367.008 243.816 366.173 243.994 365.242 243.994C363.339 243.994 361.882 243.371 360.869 242.125C359.856 240.866 359.349 239.093 359.349 236.807C359.349 235.206 359.623 233.851 360.171 232.742C360.718 231.633 361.485 230.798 362.47 230.237C363.456 229.662 364.606 229.374 365.92 229.374C367.343 229.374 368.479 229.635 369.328 230.155L368.733 231.346C368.048 230.894 367.117 230.668 365.94 230.668C364.352 230.668 363.107 231.174 362.203 232.187C361.3 233.187 360.848 234.645 360.848 236.561C360.848 236.903 360.869 237.293 360.91 237.731C361.266 236.951 361.834 236.349 362.614 235.924C363.394 235.486 364.291 235.267 365.304 235.267ZM365.181 242.741C366.221 242.741 367.063 242.461 367.706 241.899C368.363 241.325 368.692 240.565 368.692 239.62C368.692 238.676 368.363 237.923 367.706 237.362C367.063 236.8 366.187 236.52 365.078 236.52C364.352 236.52 363.709 236.657 363.148 236.931C362.6 237.204 362.169 237.581 361.854 238.06C361.539 238.539 361.382 239.073 361.382 239.661C361.382 240.209 361.526 240.715 361.813 241.181C362.114 241.646 362.552 242.023 363.127 242.31C363.702 242.598 364.387 242.741 365.181 242.741ZM377.59 243.994C376.481 243.994 375.489 243.699 374.613 243.111C373.75 242.522 373.073 241.68 372.58 240.585C372.101 239.477 371.861 238.176 371.861 236.684C371.861 235.192 372.101 233.899 372.58 232.803C373.073 231.695 373.75 230.846 374.613 230.257C375.489 229.669 376.481 229.374 377.59 229.374C378.699 229.374 379.684 229.669 380.547 230.257C381.423 230.846 382.107 231.695 382.6 232.803C383.093 233.899 383.339 235.192 383.339 236.684C383.339 238.176 383.093 239.477 382.6 240.585C382.107 241.68 381.423 242.522 380.547 243.111C379.684 243.699 378.699 243.994 377.59 243.994ZM377.59 242.639C378.425 242.639 379.157 242.406 379.787 241.941C380.43 241.475 380.93 240.798 381.286 239.908C381.642 239.018 381.82 237.943 381.82 236.684C381.82 235.425 381.642 234.35 381.286 233.46C380.93 232.571 380.43 231.893 379.787 231.428C379.157 230.962 378.425 230.73 377.59 230.73C376.755 230.73 376.016 230.962 375.373 231.428C374.743 231.893 374.25 232.571 373.894 233.46C373.538 234.35 373.36 235.425 373.36 236.684C373.36 237.943 373.538 239.018 373.894 239.908C374.25 240.798 374.743 241.475 375.373 241.941C376.016 242.406 376.755 242.639 377.59 242.639Z" fill="#20201F"/>
<path d="M337.245 264.944C338.751 265.026 339.894 265.436 340.674 266.176C341.468 266.901 341.865 267.852 341.865 269.03C341.865 269.851 341.666 270.583 341.269 271.227C340.873 271.856 340.284 272.356 339.504 272.726C338.723 273.095 337.772 273.28 336.65 273.28C335.609 273.28 334.624 273.116 333.693 272.787C332.776 272.445 332.037 271.993 331.475 271.432L332.194 270.262C332.673 270.754 333.31 271.158 334.104 271.473C334.897 271.774 335.746 271.925 336.65 271.925C337.827 271.925 338.737 271.672 339.38 271.165C340.024 270.645 340.345 269.933 340.345 269.03C340.345 268.14 340.024 267.442 339.38 266.935C338.737 266.429 337.765 266.176 336.465 266.176H335.438V265.087L339.422 260.098H332.071V258.784H341.311V259.831L337.245 264.944ZM352.182 265.621C353.085 265.922 353.776 266.374 354.256 266.976C354.748 267.579 354.995 268.304 354.995 269.153C354.995 269.988 354.769 270.72 354.317 271.35C353.865 271.966 353.215 272.445 352.366 272.787C351.531 273.116 350.546 273.28 349.41 273.28C347.685 273.28 346.33 272.91 345.344 272.171C344.359 271.432 343.866 270.426 343.866 269.153C343.866 268.29 344.099 267.565 344.564 266.976C345.043 266.374 345.734 265.922 346.638 265.621C345.899 265.334 345.337 264.923 344.954 264.389C344.571 263.842 344.379 263.198 344.379 262.459C344.379 261.296 344.831 260.372 345.734 259.687C346.652 259.003 347.877 258.661 349.41 258.661C350.423 258.661 351.306 258.818 352.058 259.133C352.825 259.434 353.421 259.872 353.845 260.447C354.269 261.022 354.481 261.693 354.481 262.459C354.481 263.198 354.283 263.842 353.886 264.389C353.489 264.923 352.921 265.334 352.182 265.621ZM345.858 262.5C345.858 263.294 346.172 263.924 346.802 264.389C347.432 264.855 348.301 265.087 349.41 265.087C350.519 265.087 351.388 264.855 352.017 264.389C352.661 263.924 352.982 263.301 352.982 262.521C352.982 261.713 352.654 261.077 351.997 260.611C351.354 260.146 350.491 259.913 349.41 259.913C348.315 259.913 347.445 260.146 346.802 260.611C346.172 261.077 345.858 261.706 345.858 262.5ZM349.41 272.027C350.683 272.027 351.675 271.767 352.387 271.247C353.113 270.727 353.475 270.022 353.475 269.132C353.475 268.243 353.113 267.544 352.387 267.038C351.675 266.518 350.683 266.258 349.41 266.258C348.15 266.258 347.158 266.518 346.433 267.038C345.721 267.544 345.365 268.243 345.365 269.132C345.365 270.036 345.721 270.748 346.433 271.268C347.144 271.774 348.137 272.027 349.41 272.027ZM358.351 273.259C358.05 273.259 357.79 273.15 357.571 272.931C357.365 272.712 357.263 272.445 357.263 272.13C357.263 271.815 357.365 271.555 357.571 271.35C357.79 271.131 358.05 271.021 358.351 271.021C358.652 271.021 358.912 271.131 359.131 271.35C359.35 271.555 359.46 271.815 359.46 272.13C359.46 272.445 359.35 272.712 359.131 272.931C358.912 273.15 358.652 273.259 358.351 273.259ZM371.496 258.784V259.831L365.48 273.157H363.878L369.792 260.098H362.4V262.788H360.942V258.784H371.496ZM377.92 258.661C379.823 258.661 381.281 259.29 382.294 260.55C383.306 261.795 383.813 263.561 383.813 265.847C383.813 267.449 383.539 268.804 382.992 269.913C382.444 271.021 381.678 271.863 380.692 272.438C379.706 272.999 378.557 273.28 377.242 273.28C375.819 273.28 374.683 273.02 373.834 272.5L374.429 271.309C375.114 271.761 376.045 271.986 377.222 271.986C378.81 271.986 380.055 271.487 380.959 270.487C381.862 269.475 382.314 268.01 382.314 266.093C382.314 265.738 382.294 265.347 382.252 264.923C381.897 265.703 381.328 266.312 380.548 266.751C379.768 267.175 378.871 267.387 377.858 267.387C376.914 267.387 376.072 267.209 375.333 266.853C374.607 266.497 374.039 265.998 373.629 265.354C373.218 264.697 373.013 263.938 373.013 263.075C373.013 262.199 373.225 261.426 373.649 260.755C374.074 260.084 374.655 259.571 375.395 259.215C376.147 258.845 376.989 258.661 377.92 258.661ZM378.084 266.135C378.81 266.135 379.446 265.998 379.994 265.724C380.555 265.45 380.993 265.074 381.308 264.595C381.623 264.115 381.78 263.582 381.78 262.993C381.78 262.445 381.63 261.939 381.328 261.474C381.041 261.008 380.61 260.632 380.035 260.344C379.46 260.057 378.776 259.913 377.982 259.913C376.941 259.913 376.093 260.201 375.436 260.775C374.792 261.337 374.471 262.09 374.471 263.034C374.471 263.979 374.792 264.731 375.436 265.293C376.093 265.854 376.976 266.135 378.084 266.135Z" fill="#20201F"/>
<path d="M284.829 358.93H279.162V367.349H275.979V356.302H284.829V358.93ZM291.24 367.513C290.076 367.513 289.029 367.273 288.098 366.794C287.181 366.301 286.462 365.624 285.942 364.761C285.422 363.899 285.162 362.92 285.162 361.825C285.162 360.73 285.422 359.751 285.942 358.889C286.462 358.027 287.181 357.356 288.098 356.877C289.029 356.384 290.076 356.138 291.24 356.138C292.403 356.138 293.443 356.384 294.361 356.877C295.278 357.356 295.996 358.027 296.517 358.889C297.037 359.751 297.297 360.73 297.297 361.825C297.297 362.92 297.037 363.899 296.517 364.761C295.996 365.624 295.278 366.301 294.361 366.794C293.443 367.273 292.403 367.513 291.24 367.513ZM291.24 364.885C292.061 364.885 292.732 364.611 293.252 364.063C293.786 363.502 294.053 362.756 294.053 361.825C294.053 360.894 293.786 360.155 293.252 359.608C292.732 359.047 292.061 358.766 291.24 358.766C290.418 358.766 289.741 359.047 289.207 359.608C288.673 360.155 288.406 360.894 288.406 361.825C288.406 362.756 288.673 363.502 289.207 364.063C289.741 364.611 290.418 364.885 291.24 364.885ZM304.756 367.513C303.579 367.513 302.518 367.273 301.574 366.794C300.643 366.301 299.911 365.624 299.377 364.761C298.857 363.899 298.596 362.92 298.596 361.825C298.596 360.73 298.857 359.751 299.377 358.889C299.911 358.027 300.643 357.356 301.574 356.877C302.518 356.384 303.579 356.138 304.756 356.138C305.92 356.138 306.933 356.384 307.795 356.877C308.671 357.356 309.308 358.047 309.705 358.951L307.22 360.285C306.645 359.272 305.817 358.766 304.736 358.766C303.901 358.766 303.209 359.04 302.662 359.587C302.114 360.135 301.841 360.881 301.841 361.825C301.841 362.77 302.114 363.516 302.662 364.063C303.209 364.611 303.901 364.885 304.736 364.885C305.831 364.885 306.659 364.378 307.22 363.365L309.705 364.72C309.308 365.597 308.671 366.281 307.795 366.774C306.933 367.267 305.92 367.513 304.756 367.513ZM320.892 358.93H317.155V367.349H313.972V358.93H310.235V356.302H320.892V358.93ZM322.599 356.302H325.782V362.872L331.161 356.302H334.098V367.349H330.915V360.778L325.556 367.349H322.599V356.302ZM337.177 356.302H340.359V360.614H345.164V356.302H348.367V367.349H345.164V363.222H340.359V367.349H337.177V356.302ZM355.725 356.138C357.436 356.138 358.75 356.548 359.667 357.37C360.584 358.177 361.043 359.402 361.043 361.045V367.349H358.045V365.973C357.443 367 356.32 367.513 354.678 367.513C353.829 367.513 353.09 367.369 352.46 367.082C351.844 366.794 351.372 366.397 351.043 365.891C350.715 365.384 350.551 364.809 350.551 364.166C350.551 363.139 350.934 362.332 351.7 361.743C352.481 361.155 353.678 360.86 355.294 360.86H357.84C357.84 360.162 357.628 359.628 357.203 359.259C356.779 358.875 356.142 358.684 355.294 358.684C354.705 358.684 354.123 358.78 353.548 358.971C352.987 359.149 352.508 359.396 352.111 359.71L350.961 357.472C351.563 357.048 352.282 356.719 353.117 356.487C353.966 356.254 354.835 356.138 355.725 356.138ZM355.478 365.357C356.026 365.357 356.512 365.234 356.936 364.987C357.361 364.727 357.662 364.351 357.84 363.858V362.729H355.643C354.329 362.729 353.672 363.16 353.672 364.022C353.672 364.433 353.829 364.761 354.144 365.008C354.472 365.241 354.917 365.357 355.478 365.357ZM373.64 356.302V367.349H370.786V364.187H368.425L366.33 367.349H362.922L365.447 363.735C364.681 363.434 364.092 363.003 363.682 362.441C363.285 361.866 363.086 361.175 363.086 360.367C363.086 359.067 363.552 358.068 364.482 357.37C365.427 356.658 366.72 356.302 368.363 356.302H373.64ZM368.425 358.91C367.74 358.91 367.22 359.033 366.864 359.279C366.522 359.526 366.351 359.923 366.351 360.47C366.351 361.018 366.515 361.421 366.844 361.682C367.186 361.928 367.699 362.051 368.384 362.051H370.786V358.91H368.425Z" fill="#20201F"/>
<path d="M312.865 393.924V396.635H302.003V394.479L307.547 389.243C308.135 388.682 308.532 388.203 308.738 387.806C308.943 387.395 309.046 386.991 309.046 386.594C309.046 386.019 308.847 385.581 308.45 385.28C308.067 384.965 307.499 384.808 306.746 384.808C306.116 384.808 305.548 384.931 305.042 385.177C304.535 385.41 304.111 385.766 303.769 386.245L301.346 384.685C301.907 383.85 302.68 383.199 303.666 382.734C304.652 382.255 305.781 382.015 307.054 382.015C308.122 382.015 309.052 382.193 309.846 382.549C310.654 382.891 311.277 383.384 311.715 384.028C312.167 384.657 312.392 385.403 312.392 386.266C312.392 387.046 312.228 387.778 311.9 388.463C311.571 389.147 310.935 389.927 309.99 390.803L306.684 393.924H312.865ZM319.781 382.262V396.635H316.455V384.931H313.58V382.262H319.781ZM324.167 396.799C323.606 396.799 323.133 396.607 322.75 396.224C322.367 395.841 322.175 395.362 322.175 394.787C322.175 394.198 322.367 393.726 322.75 393.37C323.133 393 323.606 392.816 324.167 392.816C324.728 392.816 325.2 393 325.584 393.37C325.967 393.726 326.158 394.198 326.158 394.787C326.158 395.362 325.967 395.841 325.584 396.224C325.2 396.607 324.728 396.799 324.167 396.799ZM332.875 382.262V396.635H329.548V384.931H326.674V382.262H332.875ZM345.207 389.079C345.918 389.435 346.459 389.9 346.829 390.475C347.212 391.05 347.404 391.714 347.404 392.467C347.404 393.356 347.15 394.137 346.644 394.807C346.137 395.464 345.426 395.978 344.509 396.347C343.591 396.703 342.531 396.881 341.326 396.881C340.121 396.881 339.061 396.703 338.143 396.347C337.24 395.978 336.535 395.464 336.029 394.807C335.536 394.137 335.289 393.356 335.289 392.467C335.289 391.714 335.474 391.05 335.844 390.475C336.227 389.9 336.768 389.435 337.466 389.079C336.932 388.75 336.521 388.34 336.234 387.847C335.946 387.34 335.803 386.765 335.803 386.122C335.803 385.287 336.035 384.561 336.501 383.945C336.966 383.33 337.616 382.857 338.451 382.529C339.286 382.187 340.245 382.015 341.326 382.015C342.421 382.015 343.386 382.187 344.221 382.529C345.07 382.857 345.727 383.33 346.192 383.945C346.658 384.561 346.89 385.287 346.89 386.122C346.89 386.765 346.747 387.34 346.459 387.847C346.172 388.34 345.754 388.75 345.207 389.079ZM341.326 384.459C340.655 384.459 340.115 384.623 339.704 384.952C339.307 385.266 339.108 385.704 339.108 386.266C339.108 386.813 339.307 387.244 339.704 387.559C340.101 387.874 340.642 388.032 341.326 388.032C342.01 388.032 342.558 387.874 342.969 387.559C343.379 387.244 343.585 386.813 343.585 386.266C343.585 385.704 343.379 385.266 342.969 384.952C342.558 384.623 342.01 384.459 341.326 384.459ZM341.326 394.438C342.161 394.438 342.818 394.253 343.297 393.883C343.79 393.5 344.036 392.994 344.036 392.364C344.036 391.734 343.79 391.235 343.297 390.865C342.818 390.495 342.161 390.311 341.326 390.311C340.505 390.311 339.854 390.495 339.375 390.865C338.896 391.235 338.657 391.734 338.657 392.364C338.657 393.007 338.896 393.514 339.375 393.883C339.854 394.253 340.505 394.438 341.326 394.438Z" fill="#20201F"/>
<path d="M121.011 215.478H119.348V219.667H116.144V208.62H119.348V212.912H121.072L124.07 208.62H127.479L123.618 213.918L127.745 219.667H123.967L121.011 215.478ZM139.764 208.62L134.774 220.345C134.268 221.618 133.638 222.514 132.885 223.034C132.146 223.555 131.25 223.815 130.196 223.815C129.621 223.815 129.053 223.726 128.491 223.548C127.93 223.37 127.472 223.123 127.116 222.809L128.286 220.529C128.532 220.748 128.813 220.919 129.128 221.043C129.456 221.166 129.778 221.227 130.093 221.227C130.531 221.227 130.887 221.118 131.161 220.899C131.434 220.694 131.681 220.345 131.9 219.852L131.941 219.749L127.157 208.62H130.463L133.563 216.115L136.684 208.62H139.764ZM147.628 219.667L145.205 216.279L142.7 219.667H139.209L143.459 214.103L139.353 208.62H142.946L145.287 211.844L147.689 208.62H151.098L146.991 214.02L151.262 219.667H147.628ZM152.839 208.62H156.021V212.932H160.826V208.62H164.029V219.667H160.826V215.54H156.021V219.667H152.839V208.62ZM176.91 208.62V219.667H174.056V216.505H171.695L169.6 219.667H166.192L168.718 216.053C167.951 215.752 167.362 215.321 166.952 214.76C166.555 214.185 166.356 213.493 166.356 212.686C166.356 211.385 166.822 210.386 167.753 209.688C168.697 208.976 169.991 208.62 171.633 208.62H176.91ZM171.695 211.228C171.01 211.228 170.49 211.351 170.134 211.598C169.792 211.844 169.621 212.241 169.621 212.789C169.621 213.336 169.785 213.74 170.114 214C170.456 214.246 170.969 214.37 171.654 214.37H174.056V211.228H171.695Z" fill="#20201F"/>
<path d="M137.655 241.397C138.367 241.752 138.908 242.218 139.277 242.793C139.66 243.368 139.852 244.032 139.852 244.784C139.852 245.674 139.599 246.454 139.092 247.125C138.586 247.782 137.874 248.296 136.957 248.665C136.04 249.021 134.979 249.199 133.774 249.199C132.57 249.199 131.509 249.021 130.592 248.665C129.688 248.296 128.983 247.782 128.477 247.125C127.984 246.454 127.738 245.674 127.738 244.784C127.738 244.032 127.922 243.368 128.292 242.793C128.675 242.218 129.216 241.752 129.914 241.397C129.38 241.068 128.97 240.657 128.682 240.165C128.395 239.658 128.251 239.083 128.251 238.44C128.251 237.605 128.484 236.879 128.949 236.263C129.415 235.647 130.065 235.175 130.9 234.847C131.735 234.504 132.693 234.333 133.774 234.333C134.869 234.333 135.834 234.504 136.669 234.847C137.518 235.175 138.175 235.647 138.641 236.263C139.106 236.879 139.339 237.605 139.339 238.44C139.339 239.083 139.195 239.658 138.908 240.165C138.62 240.657 138.203 241.068 137.655 241.397ZM133.774 236.777C133.104 236.777 132.563 236.941 132.152 237.269C131.755 237.584 131.557 238.022 131.557 238.584C131.557 239.131 131.755 239.562 132.152 239.877C132.549 240.192 133.09 240.349 133.774 240.349C134.459 240.349 135.006 240.192 135.417 239.877C135.828 239.562 136.033 239.131 136.033 238.584C136.033 238.022 135.828 237.584 135.417 237.269C135.006 236.941 134.459 236.777 133.774 236.777ZM133.774 246.756C134.609 246.756 135.266 246.571 135.745 246.201C136.238 245.818 136.485 245.311 136.485 244.682C136.485 244.052 136.238 243.553 135.745 243.183C135.266 242.813 134.609 242.629 133.774 242.629C132.953 242.629 132.303 242.813 131.824 243.183C131.345 243.553 131.105 244.052 131.105 244.682C131.105 245.325 131.345 245.832 131.824 246.201C132.303 246.571 132.953 246.756 133.774 246.756ZM143.464 249.117C142.903 249.117 142.431 248.925 142.047 248.542C141.664 248.159 141.473 247.68 141.473 247.105C141.473 246.516 141.664 246.044 142.047 245.688C142.431 245.318 142.903 245.134 143.464 245.134C144.025 245.134 144.498 245.318 144.881 245.688C145.264 246.044 145.456 246.516 145.456 247.105C145.456 247.68 145.264 248.159 144.881 248.542C144.498 248.925 144.025 249.117 143.464 249.117ZM152.172 234.58V248.953H148.846V237.249H145.971V234.58H152.172ZM165.408 246.242V248.953H154.546V246.797L160.09 241.561C160.678 241 161.075 240.52 161.28 240.124C161.486 239.713 161.588 239.309 161.588 238.912C161.588 238.337 161.39 237.899 160.993 237.598C160.61 237.283 160.042 237.126 159.289 237.126C158.659 237.126 158.091 237.249 157.585 237.495C157.078 237.728 156.654 238.084 156.311 238.563L153.889 237.003C154.45 236.168 155.223 235.517 156.209 235.052C157.194 234.573 158.324 234.333 159.597 234.333C160.664 234.333 161.595 234.511 162.389 234.867C163.197 235.209 163.82 235.702 164.258 236.345C164.709 236.975 164.935 237.721 164.935 238.584C164.935 239.364 164.771 240.096 164.442 240.781C164.114 241.465 163.477 242.245 162.533 243.121L159.227 246.242H165.408Z" fill="#20201F"/>
<path d="M215.294 402.744L212.288 398.784L209.264 402.744H207.824L211.568 397.884L208.004 393.276H209.444L212.288 396.984L215.132 393.276H216.536L212.972 397.884L216.752 402.744H215.294ZM222.418 402.834C221.506 402.834 220.684 402.63 219.952 402.222C219.22 401.802 218.644 401.226 218.224 400.494C217.804 399.762 217.594 398.934 217.594 398.01C217.594 397.086 217.804 396.258 218.224 395.526C218.644 394.794 219.22 394.224 219.952 393.816C220.684 393.408 221.506 393.204 222.418 393.204C223.33 393.204 224.152 393.408 224.884 393.816C225.616 394.224 226.186 394.794 226.594 395.526C227.014 396.258 227.224 397.086 227.224 398.01C227.224 398.934 227.014 399.762 226.594 400.494C226.186 401.226 225.616 401.802 224.884 402.222C224.152 402.63 223.33 402.834 222.418 402.834ZM222.418 401.7C223.09 401.7 223.69 401.55 224.218 401.25C224.758 400.938 225.178 400.5 225.478 399.936C225.778 399.372 225.928 398.73 225.928 398.01C225.928 397.29 225.778 396.648 225.478 396.084C225.178 395.52 224.758 395.088 224.218 394.788C223.69 394.476 223.09 394.32 222.418 394.32C221.746 394.32 221.14 394.476 220.6 394.788C220.072 395.088 219.652 395.52 219.34 396.084C219.04 396.648 218.89 397.29 218.89 398.01C218.89 398.73 219.04 399.372 219.34 399.936C219.652 400.5 220.072 400.938 220.6 401.25C221.14 401.55 221.746 401.7 222.418 401.7ZM237.643 393.276V402.744H236.365V394.41H231.829L231.703 396.75C231.607 398.718 231.379 400.23 231.019 401.286C230.659 402.342 230.017 402.87 229.093 402.87C228.841 402.87 228.535 402.822 228.175 402.726L228.265 401.628C228.481 401.676 228.631 401.7 228.715 401.7C229.207 401.7 229.579 401.472 229.831 401.016C230.083 400.56 230.251 399.996 230.335 399.324C230.419 398.652 230.491 397.764 230.551 396.66L230.713 393.276H237.643ZM249.016 393.276V402.744H247.738V394.41H243.202L243.076 396.75C242.98 398.718 242.752 400.23 242.392 401.286C242.032 402.342 241.39 402.87 240.466 402.87C240.214 402.87 239.908 402.822 239.548 402.726L239.638 401.628C239.854 401.676 240.004 401.7 240.088 401.7C240.58 401.7 240.952 401.472 241.204 401.016C241.456 400.56 241.624 399.996 241.708 399.324C241.792 398.652 241.864 397.764 241.924 396.66L242.086 393.276H249.016Z" fill="black"/>
<path d="M217.121 424.83C218.441 424.902 219.443 425.262 220.127 425.91C220.823 426.546 221.171 427.38 221.171 428.412C221.171 429.132 220.997 429.774 220.649 430.338C220.301 430.89 219.785 431.328 219.101 431.652C218.417 431.976 217.583 432.138 216.599 432.138C215.687 432.138 214.823 431.994 214.007 431.706C213.203 431.406 212.555 431.01 212.063 430.518L212.693 429.492C213.113 429.924 213.671 430.278 214.367 430.554C215.063 430.818 215.807 430.95 216.599 430.95C217.631 430.95 218.429 430.728 218.993 430.284C219.557 429.828 219.839 429.204 219.839 428.412C219.839 427.632 219.557 427.02 218.993 426.576C218.429 426.132 217.577 425.91 216.437 425.91H215.537V424.956L219.029 420.582H212.585V419.43H220.685V420.348L217.121 424.83ZM223.969 432.12C223.705 432.12 223.477 432.024 223.285 431.832C223.105 431.64 223.015 431.406 223.015 431.13C223.015 430.854 223.105 430.626 223.285 430.446C223.477 430.254 223.705 430.158 223.969 430.158C224.233 430.158 224.461 430.254 224.653 430.446C224.845 430.626 224.941 430.854 224.941 431.13C224.941 431.406 224.845 431.64 224.653 431.832C224.461 432.024 224.233 432.12 223.969 432.12ZM235.493 419.43V420.348L230.219 432.03H228.815L233.999 420.582H227.519V422.94H226.241V419.43H235.493ZM245.804 430.878V432.03H236.966V431.112L242.204 425.982C242.864 425.334 243.308 424.776 243.536 424.308C243.776 423.828 243.896 423.348 243.896 422.868C243.896 422.124 243.638 421.548 243.122 421.14C242.618 420.72 241.892 420.51 240.944 420.51C239.468 420.51 238.322 420.978 237.506 421.914L236.588 421.122C237.08 420.546 237.704 420.102 238.46 419.79C239.228 419.478 240.092 419.322 241.052 419.322C242.336 419.322 243.35 419.628 244.094 420.24C244.85 420.84 245.228 421.668 245.228 422.724C245.228 423.372 245.084 423.996 244.796 424.596C244.508 425.196 243.962 425.886 243.158 426.666L238.874 430.878H245.804Z" fill="black"/>
<path d="M142.408 62.2534C143.284 62.2534 144.064 62.4514 144.748 62.8474C145.444 63.2314 145.984 63.7774 146.368 64.4854C146.752 65.1814 146.944 65.9795 146.944 66.8795C146.944 67.8035 146.74 68.6255 146.332 69.3455C145.936 70.0535 145.378 70.6055 144.658 71.0015C143.938 71.3975 143.11 71.5956 142.174 71.5956C140.602 71.5956 139.384 71.0435 138.52 69.9395C137.656 68.8355 137.224 67.3115 137.224 65.3674C137.224 63.3394 137.608 61.7854 138.376 60.7054C139.156 59.6254 140.368 58.8933 142.012 58.5093L146.26 57.5373L146.476 58.7073L142.48 59.6254C141.124 59.9254 140.128 60.4594 139.492 61.2274C138.856 61.9834 138.508 63.1054 138.448 64.5934C138.832 63.8614 139.366 63.2914 140.05 62.8834C140.734 62.4634 141.52 62.2534 142.408 62.2534ZM142.21 70.5335C142.87 70.5335 143.458 70.3835 143.974 70.0835C144.502 69.7715 144.91 69.3395 145.198 68.7875C145.498 68.2355 145.648 67.6115 145.648 66.9155C145.648 66.2195 145.504 65.6075 145.216 65.0794C144.928 64.5514 144.52 64.1434 143.992 63.8554C143.476 63.5554 142.882 63.4054 142.21 63.4054C141.538 63.4054 140.938 63.5554 140.41 63.8554C139.894 64.1434 139.486 64.5514 139.186 65.0794C138.898 65.6075 138.754 66.2195 138.754 66.9155C138.754 67.6115 138.898 68.2355 139.186 68.7875C139.486 69.3395 139.9 69.7715 140.428 70.0835C140.956 70.3835 141.55 70.5335 142.21 70.5335ZM152.889 61.9474C154.125 61.9474 155.073 62.2594 155.733 62.8834C156.393 63.4954 156.723 64.4074 156.723 65.6195V71.4875H155.499V70.0115C155.211 70.5035 154.785 70.8875 154.221 71.1635C153.669 71.4395 153.009 71.5776 152.241 71.5776C151.185 71.5776 150.345 71.3255 149.721 70.8215C149.097 70.3175 148.785 69.6515 148.785 68.8235C148.785 68.0195 149.073 67.3715 149.649 66.8795C150.237 66.3875 151.167 66.1415 152.439 66.1415H155.445V65.5654C155.445 64.7494 155.217 64.1314 154.761 63.7114C154.305 63.2794 153.639 63.0634 152.763 63.0634C152.163 63.0634 151.587 63.1654 151.035 63.3694C150.483 63.5614 150.009 63.8314 149.613 64.1794L149.037 63.2254C149.517 62.8174 150.093 62.5054 150.765 62.2894C151.437 62.0614 152.145 61.9474 152.889 61.9474ZM152.439 70.5695C153.159 70.5695 153.777 70.4075 154.293 70.0835C154.809 69.7475 155.193 69.2675 155.445 68.6435V67.0955H152.475C150.855 67.0955 150.045 67.6595 150.045 68.7875C150.045 69.3395 150.255 69.7775 150.675 70.1015C151.095 70.4135 151.683 70.5695 152.439 70.5695ZM167.865 62.0194V71.4875H166.587V63.1534H162.051L161.925 65.4934C161.829 67.4615 161.601 68.9735 161.241 70.0295C160.881 71.0855 160.239 71.6136 159.315 71.6136C159.063 71.6136 158.757 71.5656 158.397 71.4695L158.487 70.3715C158.703 70.4195 158.853 70.4435 158.937 70.4435C159.429 70.4435 159.801 70.2155 160.053 69.7595C160.305 69.3035 160.473 68.7395 160.557 68.0675C160.641 67.3955 160.713 66.5075 160.773 65.4034L160.935 62.0194H167.865ZM174.936 67.2755H172.776V71.4875H171.498V62.0194H172.776V66.1775H174.954L178.284 62.0194H179.67L175.944 66.6095L179.94 71.4875H178.428L174.936 67.2755ZM185.53 71.5776C184.617 71.5776 183.795 71.3735 183.063 70.9655C182.331 70.5455 181.755 69.9695 181.335 69.2375C180.915 68.5055 180.705 67.6775 180.705 66.7535C180.705 65.8295 180.915 65.0014 181.335 64.2694C181.755 63.5374 182.331 62.9674 183.063 62.5594C183.795 62.1514 184.617 61.9474 185.53 61.9474C186.442 61.9474 187.264 62.1514 187.996 62.5594C188.728 62.9674 189.298 63.5374 189.706 64.2694C190.126 65.0014 190.336 65.8295 190.336 66.7535C190.336 67.6775 190.126 68.5055 189.706 69.2375C189.298 69.9695 188.728 70.5455 187.996 70.9655C187.264 71.3735 186.442 71.5776 185.53 71.5776ZM185.53 70.4435C186.202 70.4435 186.802 70.2935 187.33 69.9935C187.87 69.6815 188.29 69.2435 188.59 68.6795C188.89 68.1155 189.04 67.4735 189.04 66.7535C189.04 66.0335 188.89 65.3914 188.59 64.8274C188.29 64.2634 187.87 63.8314 187.33 63.5314C186.802 63.2194 186.202 63.0634 185.53 63.0634C184.858 63.0634 184.251 63.2194 183.711 63.5314C183.183 63.8314 182.763 64.2634 182.451 64.8274C182.151 65.3914 182.001 66.0335 182.001 66.7535C182.001 67.4735 182.151 68.1155 182.451 68.6795C182.763 69.2435 183.183 69.6815 183.711 69.9935C184.251 70.2935 184.858 70.4435 185.53 70.4435ZM193.067 62.0194H194.345V66.2135H200.303V62.0194H201.581V71.4875H200.303V67.3115H194.345V71.4875H193.067V62.0194Z" fill="#20201F"/>
<path d="M156.22 93.5736C157.54 93.6456 158.542 94.0056 159.226 94.6536C159.922 95.2896 160.27 96.1236 160.27 97.1556C160.27 97.8756 160.096 98.5176 159.748 99.0817C159.4 99.6337 158.884 100.072 158.2 100.396C157.516 100.72 156.682 100.882 155.698 100.882C154.786 100.882 153.922 100.738 153.106 100.45C152.302 100.15 151.654 99.7537 151.162 99.2617L151.792 98.2356C152.212 98.6676 152.77 99.0217 153.466 99.2977C154.162 99.5617 154.906 99.6937 155.698 99.6937C156.73 99.6937 157.528 99.4717 158.092 99.0277C158.656 98.5716 158.938 97.9476 158.938 97.1556C158.938 96.3756 158.656 95.7636 158.092 95.3196C157.528 94.8756 156.676 94.6536 155.536 94.6536H154.636V93.6996L158.128 89.3255H151.684V88.1735H159.784V89.0915L156.22 93.5736ZM163.068 100.864C162.804 100.864 162.576 100.768 162.384 100.576C162.204 100.384 162.114 100.15 162.114 99.8737C162.114 99.5977 162.204 99.3697 162.384 99.1897C162.576 98.9977 162.804 98.9017 163.068 98.9017C163.332 98.9017 163.56 98.9977 163.752 99.1897C163.944 99.3697 164.04 99.5977 164.04 99.8737C164.04 100.15 163.944 100.384 163.752 100.576C163.56 100.768 163.332 100.864 163.068 100.864ZM169.835 88.0655C171.503 88.0655 172.781 88.6175 173.669 89.7215C174.557 90.8135 175.001 92.3615 175.001 94.3656C175.001 95.7696 174.761 96.9576 174.281 97.9296C173.801 98.9017 173.129 99.6397 172.265 100.144C171.401 100.636 170.393 100.882 169.241 100.882C167.993 100.882 166.997 100.654 166.253 100.198L166.775 99.1537C167.375 99.5497 168.191 99.7477 169.223 99.7477C170.615 99.7477 171.707 99.3097 172.499 98.4336C173.291 97.5456 173.687 96.2616 173.687 94.5816C173.687 94.2696 173.669 93.9276 173.633 93.5556C173.321 94.2396 172.823 94.7736 172.139 95.1576C171.455 95.5296 170.669 95.7156 169.781 95.7156C168.953 95.7156 168.215 95.5596 167.567 95.2476C166.931 94.9356 166.433 94.4976 166.073 93.9336C165.713 93.3576 165.533 92.6915 165.533 91.9355C165.533 91.1675 165.719 90.4895 166.091 89.9015C166.463 89.3135 166.973 88.8635 167.621 88.5515C168.281 88.2275 169.019 88.0655 169.835 88.0655ZM169.979 94.6176C170.615 94.6176 171.173 94.4976 171.653 94.2576C172.145 94.0176 172.529 93.6876 172.805 93.2676C173.081 92.8475 173.219 92.3795 173.219 91.8635C173.219 91.3835 173.087 90.9395 172.823 90.5315C172.571 90.1235 172.193 89.7935 171.689 89.5415C171.185 89.2895 170.585 89.1635 169.889 89.1635C168.977 89.1635 168.233 89.4155 167.657 89.9195C167.093 90.4115 166.811 91.0715 166.811 91.8995C166.811 92.7275 167.093 93.3876 167.657 93.8796C168.233 94.3716 169.007 94.6176 169.979 94.6176ZM184.098 94.1676C184.89 94.4316 185.496 94.8276 185.916 95.3556C186.348 95.8836 186.564 96.5196 186.564 97.2636C186.564 97.9956 186.366 98.6376 185.97 99.1897C185.574 99.7297 185.004 100.15 184.26 100.45C183.528 100.738 182.664 100.882 181.668 100.882C180.156 100.882 178.968 100.558 178.104 99.9097C177.24 99.2617 176.808 98.3796 176.808 97.2636C176.808 96.5076 177.012 95.8716 177.42 95.3556C177.84 94.8276 178.446 94.4316 179.238 94.1676C178.59 93.9156 178.098 93.5556 177.762 93.0876C177.426 92.6075 177.258 92.0435 177.258 91.3955C177.258 90.3755 177.654 89.5655 178.446 88.9655C179.25 88.3655 180.324 88.0655 181.668 88.0655C182.556 88.0655 183.33 88.2035 183.99 88.4795C184.662 88.7435 185.184 89.1275 185.556 89.6315C185.928 90.1355 186.114 90.7235 186.114 91.3955C186.114 92.0435 185.94 92.6075 185.592 93.0876C185.244 93.5556 184.746 93.9156 184.098 94.1676ZM178.554 91.4315C178.554 92.1275 178.83 92.6795 179.382 93.0876C179.934 93.4956 180.696 93.6996 181.668 93.6996C182.64 93.6996 183.402 93.4956 183.954 93.0876C184.518 92.6795 184.8 92.1335 184.8 91.4495C184.8 90.7415 184.512 90.1835 183.936 89.7755C183.372 89.3675 182.616 89.1635 181.668 89.1635C180.708 89.1635 179.946 89.3675 179.382 89.7755C178.83 90.1835 178.554 90.7355 178.554 91.4315ZM181.668 99.7837C182.784 99.7837 183.654 99.5557 184.278 99.0997C184.914 98.6436 185.232 98.0256 185.232 97.2456C185.232 96.4656 184.914 95.8536 184.278 95.4096C183.654 94.9536 182.784 94.7256 181.668 94.7256C180.564 94.7256 179.694 94.9536 179.058 95.4096C178.434 95.8536 178.122 96.4656 178.122 97.2456C178.122 98.0376 178.434 98.6616 179.058 99.1177C179.682 99.5617 180.552 99.7837 181.668 99.7837Z" fill="#20201F"/>
<path d="M134.916 460.395H132.396V463.707H131.1V460.395H123.99V459.459L130.668 451.107H132.108L125.664 459.243H131.136V456.327H132.396V459.243H134.916V460.395ZM137.429 463.797C137.165 463.797 136.937 463.701 136.745 463.509C136.565 463.317 136.475 463.083 136.475 462.807C136.475 462.531 136.565 462.303 136.745 462.123C136.937 461.931 137.165 461.835 137.429 461.835C137.693 461.835 137.921 461.931 138.113 462.123C138.305 462.303 138.401 462.531 138.401 462.807C138.401 463.083 138.305 463.317 138.113 463.509C137.921 463.701 137.693 463.797 137.429 463.797ZM143.584 456.273C145.408 456.273 146.734 456.603 147.562 457.263C148.402 457.911 148.822 458.823 148.822 459.999C148.822 460.731 148.648 461.385 148.3 461.961C147.964 462.537 147.454 462.993 146.77 463.329C146.086 463.653 145.246 463.815 144.25 463.815C143.35 463.815 142.492 463.671 141.676 463.383C140.872 463.083 140.224 462.687 139.732 462.195L140.362 461.169C140.782 461.601 141.334 461.955 142.018 462.231C142.702 462.495 143.44 462.627 144.232 462.627C145.276 462.627 146.08 462.393 146.644 461.925C147.22 461.457 147.508 460.833 147.508 460.053C147.508 459.189 147.184 458.535 146.536 458.091C145.9 457.647 144.82 457.425 143.296 457.425H140.614L141.262 451.107H148.156V452.259H142.396L141.964 456.273H143.584ZM157.685 457.101C158.477 457.365 159.083 457.761 159.503 458.289C159.935 458.817 160.151 459.453 160.151 460.197C160.151 460.929 159.953 461.571 159.557 462.123C159.161 462.663 158.591 463.083 157.847 463.383C157.115 463.671 156.251 463.815 155.255 463.815C153.743 463.815 152.555 463.491 151.691 462.843C150.827 462.195 150.395 461.313 150.395 460.197C150.395 459.441 150.599 458.805 151.007 458.289C151.427 457.761 152.033 457.365 152.825 457.101C152.177 456.849 151.685 456.489 151.349 456.021C151.013 455.541 150.845 454.977 150.845 454.329C150.845 453.309 151.241 452.499 152.033 451.899C152.837 451.299 153.911 450.999 155.255 450.999C156.143 450.999 156.917 451.137 157.577 451.413C158.249 451.677 158.771 452.061 159.143 452.565C159.515 453.069 159.701 453.657 159.701 454.329C159.701 454.977 159.527 455.541 159.179 456.021C158.831 456.489 158.333 456.849 157.685 457.101ZM152.141 454.365C152.141 455.061 152.417 455.613 152.969 456.021C153.521 456.429 154.283 456.633 155.255 456.633C156.227 456.633 156.989 456.429 157.541 456.021C158.105 455.613 158.387 455.067 158.387 454.383C158.387 453.675 158.099 453.117 157.523 452.709C156.959 452.301 156.203 452.097 155.255 452.097C154.295 452.097 153.533 452.301 152.969 452.709C152.417 453.117 152.141 453.669 152.141 454.365ZM155.255 462.717C156.371 462.717 157.241 462.489 157.865 462.033C158.501 461.577 158.819 460.959 158.819 460.179C158.819 459.399 158.501 458.787 157.865 458.343C157.241 457.887 156.371 457.659 155.255 457.659C154.151 457.659 153.281 457.887 152.645 458.343C152.021 458.787 151.709 459.399 151.709 460.179C151.709 460.971 152.021 461.595 152.645 462.051C153.269 462.495 154.139 462.717 155.255 462.717Z" fill="black"/>
</g>
<defs>
<clipPath id="clip0_2384_28735">
<rect width="398.249" height="542.578" fill="white" transform="translate(51 29)"/>
</clipPath>
</defs>
</svg>
