<svg width="500" height="600" fill="none" xmlns="http://www.w3.org/2000/svg"><path fill="#fff" d="M0 0h500v600H0z"/><g clip-path="url(#a)"><path fill-rule="evenodd" clip-rule="evenodd" d="M40 112.871h214.997V46.996L447.241 35h3.607l-.013 77.871h8.376v380.882h-123.97v71.866H197.502v-197.63H40V112.871z" fill="#C6C0E1"/><path fill-rule="evenodd" clip-rule="evenodd" d="M40 112.871h214.997V46.996L447.241 35h3.607l-.013 77.871h8.376v380.882h-123.97v71.866H197.502v-197.63H40V112.871z" fill="#FFF9D0"/><path d="M264.573 128.441h-35.929v35.933h35.929v-35.933zM54.975 128.441H40v14.973h14.975v-14.973zM459.211 128.441h-14.975v14.973h14.975v-14.973z" fill="#20201F"/><path d="M54.975 143.414H40v224.575h14.975V143.414zM459.211 143.414h-14.975v350.339h14.975V143.414zM444.236 478.781H320.274v14.972h123.962v-14.972z" fill="#20201F"/><path d="M335.241 478.781h-14.967v86.838h14.967v-86.838zM260.38 550.645h-47.919v14.974h47.919v-14.974z" fill="#20201F"/><path d="M212.478 367.989h-14.976v197.63h14.976v-197.63z" fill="#20201F"/><path d="M212.46 353.018H54.975v14.971H212.46v-14.971zM84.918 120.656H40v22.758h44.918v-22.758zM272.958 120.656h-62.283v22.757h62.283v-22.757zM459.211 120.656H368.78v22.758h90.431v-22.758zM88.506 112.871H40v7.785h48.506v-7.785zM272.958 112.871h-65.872v7.785h65.872v-7.785zM459.211 112.871H368.78v7.785h90.431v-7.785z" fill="#20201F"/><path fill-rule="evenodd" clip-rule="evenodd" d="M254.997 46.996 447.229 35h11.982v6.452l-8.385.523v70.896h-7.186V42.423L262.183 53.747v59.124h-7.186V46.996z" fill="#20201F"/><path d="M267.991 353.018h-55.53v4.791h55.53v-4.791zM325.061 297.921h-4.787v88.697h4.787v-88.697zM320.274 353.317h-4.371v4.492h4.371v-4.492zM444.235 297.922h-67.674v4.791h67.674v-4.791zM376.561 297.922h-51.5v4.791h51.5v-4.791zM325.061 428.54h-4.787v50.241h4.787V428.54zM207.086 112.871H88.506v3.852h118.58v-3.852zM210.675 120.636H84.917v3.851h125.758v-3.851zM210.675 139.541H84.917v3.851h125.758v-3.851zM320.867 112.869h-47.912v3.852h47.912v-3.852zM320.869 120.634h-47.914v3.851h47.914v-3.851zM320.869 139.539h-47.914v3.852h47.914v-3.852z" fill="#20201F"/><path d="M320.869 112.869h-2.827v30.543h2.827v-30.543z" fill="#20201F"/><path fill-rule="evenodd" clip-rule="evenodd" d="M266.138 560.347a1.701 1.701 0 0 1-3.401 0v-35.996a1.702 1.702 0 0 1 3.401 0v35.996zM316.291 560.689a.851.851 0 0 1-1.701 0c0-9.765-4.903-18.618-12.827-25.035-7.972-6.457-19.001-10.453-31.19-10.453a.85.85 0 0 1 0-1.701c12.584 0 23.993 4.144 32.26 10.839 8.313 6.731 13.458 16.048 13.458 26.35zM310.111 355.905a1.701 1.701 0 0 1 3.401 0v35.996a1.702 1.702 0 0 1-3.401 0v-35.996zM269.804 355.563a.85.85 0 0 1 1.7 0c0 9.802 3.96 18.675 10.357 25.095 6.396 6.42 15.237 10.393 24.999 10.393a.85.85 0 1 1 0 1.701c-10.227 0-19.494-4.166-26.202-10.898a37.14 37.14 0 0 1-10.854-26.291zM322.906 391.693a1.701 1.701 0 0 1 0-3.402h35.997a1.701 1.701 0 0 1 0 3.402h-35.997zM322.565 426.165a.851.851 0 1 1 0-1.701c9.826 0 18.716-3.401 25.141-8.896 6.392-5.465 10.346-13.008 10.346-21.326a.851.851 0 1 1 1.701 0c0 8.836-4.184 16.834-10.944 22.615-6.724 5.749-16.004 9.308-26.244 9.308zM363.634 122.417a1.702 1.702 0 0 1 3.402 0v35.996a1.702 1.702 0 0 1-3.402 0v-35.996zM322.356 122.075a.851.851 0 1 1 1.701 0c0 9.797 4.052 18.668 10.599 25.088 6.553 6.424 15.609 10.4 25.611 10.4a.85.85 0 0 1 0 1.7c-10.46 0-19.937-4.162-26.8-10.891-6.863-6.729-11.111-16.028-11.111-26.297zM443.543 172.974v90.354h-36.142v-91.417h36.142v1.063zm-4.273 62.075c0-.994-.407-1.9-1.065-2.554a3.608 3.608 0 0 0-2.549-1.061h-20.41a3.624 3.624 0 0 0-3.614 3.615v20.41a3.618 3.618 0 0 0 3.614 3.613h20.41c.995 0 1.899-.406 2.551-1.063a3.6 3.6 0 0 0 1.063-2.55v-20.41zm-1.689-51.565a4.99 4.99 0 0 0-1.464-3.532 4.985 4.985 0 0 0-7.064.003 4.982 4.982 0 0 0 .002 7.059 4.975 4.975 0 0 0 3.53 1.466c1.378 0 2.628-.56 3.532-1.464a4.982 4.982 0 0 0 1.464-3.532zm-13.163 0c0-1.672-.68-3.187-1.776-4.283a6.043 6.043 0 0 0-4.283-1.776c-1.672 0-3.188.68-4.284 1.776a6.04 6.04 0 0 0-1.775 4.283c0 1.671.679 3.187 1.775 4.284a6.043 6.043 0 0 0 4.284 1.775 6.042 6.042 0 0 0 4.283-1.775 6.047 6.047 0 0 0 1.776-4.284zm-2.827 3.232a4.558 4.558 0 0 0 1.339-3.232 4.558 4.558 0 0 0-1.339-3.232 4.56 4.56 0 0 0-3.232-1.339 4.56 4.56 0 0 0-3.233 1.339 4.561 4.561 0 0 0-1.338 3.232c0 1.262.513 2.407 1.338 3.232a4.56 4.56 0 0 0 3.233 1.339 4.56 4.56 0 0 0 3.232-1.339zm17.053 9.763a6.037 6.037 0 0 0-1.776-4.283 6.037 6.037 0 0 0-4.283-1.776 6.043 6.043 0 0 0-4.284 1.775 6.038 6.038 0 0 0-1.775 4.284 6.04 6.04 0 0 0 1.775 4.283 6.041 6.041 0 0 0 4.284 1.776 6.039 6.039 0 0 0 4.283-1.776 6.039 6.039 0 0 0 1.776-4.283zm-2.827 3.232a4.558 4.558 0 0 0 1.339-3.232 4.556 4.556 0 0 0-1.339-3.232 4.556 4.556 0 0 0-3.232-1.339 4.558 4.558 0 0 0-3.233 1.338 4.56 4.56 0 0 0-1.338 3.233c0 1.263.513 2.407 1.339 3.232a4.556 4.556 0 0 0 3.232 1.339 4.558 4.558 0 0 0 3.232-1.339zm-12.462-3.232a4.99 4.99 0 0 0-1.465-3.532 4.982 4.982 0 0 0-3.531-1.464c-1.375 0-2.625.56-3.532 1.467a4.982 4.982 0 0 0 .002 7.059 4.975 4.975 0 0 0 3.53 1.466c1.377 0 2.627-.56 3.531-1.464a4.983 4.983 0 0 0 1.465-3.532zm-2.516 2.481a3.5 3.5 0 0 0 1.028-2.481c0-.971-.392-1.849-1.025-2.481a3.513 3.513 0 0 0-4.964-.002 3.496 3.496 0 0 0-1.027 2.483 3.503 3.503 0 0 0 3.508 3.508c.968 0 1.847-.394 2.48-1.027zm14.227-12.995a3.503 3.503 0 0 0 1.027-2.481 3.508 3.508 0 0 0-3.508-3.508c-.971 0-1.849.392-2.481 1.025a3.496 3.496 0 0 0-1.027 2.483 3.503 3.503 0 0 0 3.508 3.508c.969 0 1.847-.394 2.481-1.027zm2.078 69.494v-20.41c0-.408-.168-.781-.438-1.051a1.475 1.475 0 0 0-1.05-.438h-20.41a1.486 1.486 0 0 0-1.488 1.489v20.41c0 .41.167.782.434 1.049.274.27.648.438 1.054.438h20.41c.406 0 .78-.168 1.05-.438.271-.267.438-.639.438-1.049zm-27.617-49.567h31.89v-31.855h-31.89v31.855zm31.89 2.126h-31.89v53.184h31.89v-53.184zM408.891 453.653c2.797 1.799 6.385 2.909 9.54 2.909 3.106 0 5.529-1.065 7.217-2.809v-.005c.637-.661 1.131-1.445 1.55-2.276v3.588c0 2.141.894 3.396 2.331 4.125 1.307.665 3.036.829 4.931.829h.783v-.019c1.58-.045 3.022-.242 4.145-.81 1.436-.729 2.326-1.984 2.326-4.115v-17.595c0-2.14-.89-3.394-2.326-4.118-1.123-.564-2.565-.767-4.145-.81v-.019h-.783c-1.895 0-3.624.164-4.931.829-1.437.724-2.331 1.978-2.331 4.118v3.595c-.419-.831-.908-1.612-1.55-2.275-1.688-1.747-4.111-2.814-7.217-2.814-3.334 0-7.151 1.244-10.013 3.226-2.642 1.829-4.495 4.303-4.495 7.064 0 2.925 2.079 5.528 4.968 7.382zm27.903-7.889h.005v.003c0 .631-.264 1.212-.681 1.63v.005a2.302 2.302 0 0 1-3.26 0h-.008l.001-.005a2.315 2.315 0 0 1-.001-3.266 2.314 2.314 0 0 1 1.636-.677c.638 0 1.209.261 1.632.677a2.3 2.3 0 0 1 .676 1.633zm-1.183-.002v.005c0 .311-.124.592-.321.792h-.007a1.144 1.144 0 0 1-1.598.011l-.005-.009a1.141 1.141 0 0 1-.323-.794c0-.323.127-.602.323-.803.201-.196.49-.321.806-.321a1.1 1.1 0 0 1 .797.33c.209.197.335.481.335.789h-.007zm-6.851-8.287c0-1.444.567-2.268 1.466-2.729.932-.464 2.225-.62 3.686-.648h.548c1.683 0 3.192.129 4.23.648.9.461 1.46 1.287 1.46 2.729v17.595c0 1.441-.56 2.263-1.46 2.723-1.038.524-2.547.651-4.23.651h-.609c-1.43-.033-2.713-.187-3.625-.648-.906-.463-1.466-1.292-1.466-2.736v-17.585zm-19.458 3.012c2.613-1.812 6.093-2.944 9.129-2.944 2.653 0 4.694.886 6.095 2.332 1.533 1.583 2.326 3.862 2.326 6.396 0 2.538-.793 4.815-2.326 6.402-1.401 1.443-3.442 2.327-6.095 2.327-2.867 0-6.142-1.014-8.702-2.658-2.467-1.583-4.243-3.74-4.243-6.071 0-2.191 1.58-4.228 3.816-5.784zM364.003 476.867l-19.49.006c-6.518 0-5.75-13.492-5.683-14.393a11.29 11.29 0 0 1 3.327-8.007 11.305 11.305 0 0 1 8.009-3.316h8.271c3.128 0 5.963 1.267 8.017 3.316a11.388 11.388 0 0 1 3.329 8.013c.042.915.713 14.387-5.78 14.381zm-9.705-13.142v-.003a2.533 2.533 0 0 0 1.769-.727 2.534 2.534 0 0 0 .718-1.765 2.481 2.481 0 0 0-2.49-2.493c-.683 0-1.309.276-1.759.728h-.009v.005a2.482 2.482 0 0 0-.732 1.76c0 .682.282 1.315.732 1.765h.003a2.504 2.504 0 0 0 1.765.734l.003-.004zm.004-1.272c.326 0 .633-.134.852-.359.214-.215.352-.523.352-.864 0-.341-.132-.649-.346-.87a1.225 1.225 0 0 0-.865-.347c-.343 0-.64.133-.86.347l-.005.006a1.206 1.206 0 0 0-.353.864c0 .335.142.643.354.864l.005.002c.215.216.522.346.854.346l.012-.002v.013zm-.004 9.665c3.142 0 5.994-.936 8.068-2.439 2.155-1.571 3.495-3.767 3.496-6.2 0-2.443-1.341-4.637-3.496-6.212-2.081-1.511-4.935-2.439-8.078-2.439h-.014c-3.135.007-5.981.942-8.061 2.448-2.145 1.571-3.482 3.76-3.484 6.189l.002.014c0 2.439 1.337 4.622 3.499 6.2 2.069 1.505 4.92 2.439 8.06 2.436l.008.003zm0-1.758c2.753-.005 5.242-.813 7.041-2.111 1.698-1.242 2.755-2.933 2.755-4.77 0-1.849-1.057-3.54-2.769-4.787-1.79-1.293-4.274-2.099-7.037-2.099h-.006l-.008-.005c-2.756.005-5.234.811-7.024 2.112-1.694 1.236-2.75 2.93-2.756 4.765l.006.014c-.004 1.84 1.054 3.533 2.756 4.77 1.791 1.293 4.275 2.106 7.032 2.104h.01v.007zm9.699 4.748c4.839 0 4.015-12.525 4.015-12.558l-.008-.064a9.559 9.559 0 0 0-2.791-6.764 9.573 9.573 0 0 0-6.776-2.799h-8.263a9.558 9.558 0 0 0-9.584 9.563l-.002.062c0 .031-.888 12.56 3.93 12.56h19.479zM439.356 409.159V307.57h-41.559v101.589h41.559zm-24.819-19.796a4.036 4.036 0 0 1 6.893-2.856 4.03 4.03 0 0 1 .003 5.71 4.019 4.019 0 0 1-2.857 1.185 4.028 4.028 0 0 1-2.856-1.182 4.03 4.03 0 0 1-1.183-2.857zm2.324-1.715a2.42 2.42 0 0 1 1.715-.709 2.421 2.421 0 0 1 1.715 4.138 2.423 2.423 0 0 1-4.138-1.714c0-.669.271-1.276.708-1.715zm-17.875 13.843 1.616-71.712c0-10.771 7.204-19.591 17.974-19.591 10.771 0 17.975 8.82 17.975 19.591l1.616 71.712c0 1.39-.569 2.653-1.483 3.567a5.048 5.048 0 0 1-3.567 1.482h-29.081a5.038 5.038 0 0 1-3.563-1.482 5.038 5.038 0 0 1-1.487-3.567zm3.636-71.712c0-9.667 6.287-17.571 15.954-17.571 9.667 0 15.955 7.904 15.955 17.571l1.616 71.712c0 .831-.342 1.589-.891 2.143a3.02 3.02 0 0 1-2.139.886h-29.081c-.835 0-1.592-.34-2.143-.891a3.016 3.016 0 0 1-.887-2.138l1.616-71.712zm38.712-22.422v102.015c0 .507-.201.97-.52 1.305-.32.338-.766.546-1.255.546h-41.965c-.489 0-.935-.208-1.255-.542a1.89 1.89 0 0 1-.52-1.309V307.357c0-.51.199-.975.52-1.31a1.755 1.755 0 0 1 1.255-.542h41.965c.487 0 .93.209 1.252.542.323.34.523.802.523 1.31z" fill="#20201F"/><path d="M118.029 187.756V228h-9.314v-32.77h-8.049v-7.474h17.363zM136.861 157h-2.126v101.095h2.126V157zM161.327 165.971v14.373h-1.478v-13.059h-3.388v-1.314h4.866zm7.214 5.892c2.081 0 3.593.377 4.538 1.13.958.739 1.437 1.779 1.437 3.121 0 .835-.198 1.581-.595 2.238-.384.657-.966 1.177-1.746 1.56-.78.37-1.738.555-2.874.555a8.774 8.774 0 0 1-2.937-.493c-.917-.342-1.656-.794-2.217-1.355l.719-1.171c.479.493 1.108.897 1.889 1.212.78.301 1.622.452 2.525.452 1.191 0 2.108-.267 2.752-.801.657-.534.985-1.246.985-2.136 0-.985-.369-1.731-1.109-2.238-.725-.506-1.957-.759-3.696-.759h-3.059l.739-7.207h7.864v1.314h-6.57l-.493 4.578h1.848zm8.961 8.583c-.302 0-.562-.109-.781-.328a1.13 1.13 0 0 1-.308-.801c0-.315.103-.575.308-.78.219-.219.479-.329.781-.329.301 0 .561.11.78.329.219.205.328.465.328.78s-.109.582-.328.801a1.065 1.065 0 0 1-.78.328zm6.985-14.475v14.373h-1.479v-13.059h-3.388v-1.314h4.867zm9.39 5.769c.944 0 1.779.178 2.505.534.739.356 1.314.862 1.725 1.52.41.643.616 1.396.616 2.258 0 .876-.212 1.65-.637 2.32-.424.671-1.013 1.191-1.766 1.561-.739.356-1.574.534-2.505.534-1.902 0-3.36-.623-4.373-1.869-1.013-1.259-1.52-3.032-1.52-5.318 0-1.601.274-2.957.822-4.065.547-1.109 1.314-1.944 2.299-2.505.986-.575 2.136-.863 3.45-.863 1.424 0 2.56.26 3.408.781l-.595 1.19c-.684-.451-1.615-.677-2.793-.677-1.587 0-2.833.506-3.736 1.519-.904 1-1.356 2.457-1.356 4.374 0 .342.021.732.062 1.17.356-.78.924-1.382 1.704-1.807.78-.438 1.677-.657 2.69-.657zm-.123 7.474c1.04 0 1.882-.28 2.525-.842.657-.575.986-1.334.986-2.279 0-.944-.329-1.697-.986-2.258-.643-.562-1.519-.842-2.628-.842-.725 0-1.369.137-1.93.41a3.254 3.254 0 0 0-1.294 1.13 2.86 2.86 0 0 0-.472 1.601c0 .548.144 1.054.431 1.52.302.465.74.842 1.314 1.129.575.287 1.26.431 2.054.431zM156.307 201.417c1.506.082 2.649.492 3.429 1.231.794.726 1.191 1.677 1.191 2.855 0 .821-.199 1.553-.596 2.197-.397.629-.985 1.129-1.766 1.498-.78.37-1.731.555-2.854.555a8.8 8.8 0 0 1-2.956-.493c-.917-.342-1.657-.794-2.218-1.355l.719-1.17c.479.492 1.115.896 1.909 1.211a7.124 7.124 0 0 0 2.546.452c1.178 0 2.088-.254 2.731-.76.644-.52.965-1.232.965-2.135 0-.89-.321-1.588-.965-2.095-.643-.506-1.615-.76-2.915-.76H154.5v-1.088l3.983-4.989h-7.35v-1.314h9.239v1.047l-4.065 5.113zm12.431 8.336c-1.108 0-2.101-.294-2.977-.883-.862-.589-1.54-1.431-2.033-2.526-.479-1.108-.718-2.409-.718-3.901s.239-2.785.718-3.881c.493-1.108 1.171-1.957 2.033-2.546.876-.588 1.869-.883 2.977-.883 1.109 0 2.095.295 2.957.883.876.589 1.561 1.438 2.053 2.546.493 1.096.74 2.389.74 3.881s-.247 2.793-.74 3.901c-.492 1.095-1.177 1.937-2.053 2.526-.862.589-1.848.883-2.957.883zm0-1.355c.835 0 1.568-.233 2.197-.698.644-.466 1.143-1.143 1.499-2.033.356-.89.534-1.964.534-3.224 0-1.259-.178-2.334-.534-3.223-.356-.89-.855-1.568-1.499-2.033-.629-.466-1.362-.698-2.197-.698s-1.574.232-2.217.698c-.63.465-1.123 1.143-1.478 2.033-.356.889-.534 1.964-.534 3.223 0 1.26.178 2.334.534 3.224.355.89.848 1.567 1.478 2.033.643.465 1.382.698 2.217.698zm8.755 1.334c-.301 0-.561-.109-.78-.328a1.125 1.125 0 0 1-.308-.801c0-.315.102-.575.308-.78.219-.219.479-.329.78-.329.301 0 .561.11.78.329.219.205.329.465.329.78s-.11.582-.329.801a1.065 1.065 0 0 1-.78.328zm7.719-14.599c1.902 0 3.36.63 4.373 1.889 1.013 1.246 1.519 3.012 1.519 5.298 0 1.602-.273 2.957-.821 4.065-.547 1.109-1.314 1.951-2.3 2.526-.985.561-2.135.842-3.449.842-1.424 0-2.56-.26-3.408-.78l.595-1.191c.684.451 1.615.677 2.792.677 1.588 0 2.834-.499 3.737-1.499.904-1.013 1.356-2.477 1.356-4.394 0-.356-.021-.746-.062-1.17-.356.78-.924 1.389-1.704 1.827-.781.425-1.677.637-2.69.637-.945 0-1.786-.178-2.526-.534a4.131 4.131 0 0 1-1.704-1.499c-.41-.657-.616-1.417-.616-2.279 0-.876.212-1.649.637-2.32a4.144 4.144 0 0 1 1.745-1.54c.753-.37 1.595-.555 2.526-.555zm.164 7.474c.725 0 1.362-.136 1.909-.41.562-.274 1-.65 1.314-1.13a2.85 2.85 0 0 0 .473-1.601c0-.548-.151-1.054-.452-1.52-.287-.465-.719-.841-1.294-1.129-.575-.287-1.259-.431-2.053-.431-1.04 0-1.889.287-2.546.862-.643.562-.965 1.314-.965 2.259 0 .944.322 1.697.965 2.259.657.561 1.54.841 2.649.841zm16.105-.513c.904.301 1.595.753 2.074 1.355.493.603.739 1.328.739 2.177 0 .835-.226 1.567-.677 2.197-.452.616-1.102 1.095-1.951 1.437-.835.329-1.821.493-2.957.493-1.724 0-3.08-.37-4.065-1.109-.986-.739-1.479-1.745-1.479-3.018 0-.863.233-1.588.699-2.177.479-.602 1.17-1.054 2.073-1.355-.739-.287-1.3-.698-1.683-1.232-.384-.547-.575-1.191-.575-1.93 0-1.163.451-2.087 1.355-2.772.917-.684 2.142-1.027 3.675-1.027 1.013 0 1.896.158 2.649.473.767.301 1.362.739 1.786 1.314.425.575.637 1.245.637 2.012 0 .739-.199 1.383-.596 1.93-.397.534-.965.945-1.704 1.232zm-6.324-3.121c0 .794.315 1.424.945 1.889.629.466 1.499.698 2.607.698 1.109 0 1.978-.232 2.608-.698.643-.465.965-1.088.965-1.868 0-.808-.329-1.444-.986-1.91-.643-.465-1.505-.698-2.587-.698-1.095 0-1.964.233-2.607.698-.63.466-.945 1.095-.945 1.889zm3.552 9.527c1.273 0 2.266-.26 2.978-.78.725-.52 1.088-1.225 1.088-2.115 0-.89-.363-1.588-1.088-2.094-.712-.52-1.705-.78-2.978-.78-1.259 0-2.251.26-2.977.78-.712.506-1.068 1.204-1.068 2.094 0 .904.356 1.615 1.068 2.136.712.506 1.704.759 2.977.759zM159.582 230.702c1.505.082 2.648.493 3.429 1.232.794.726 1.191 1.677 1.191 2.854 0 .822-.199 1.554-.596 2.197-.397.63-.985 1.13-1.766 1.499-.78.37-1.731.554-2.854.554a8.825 8.825 0 0 1-2.956-.492c-.918-.343-1.657-.794-2.218-1.355l.719-1.171c.479.493 1.115.897 1.909 1.212a7.123 7.123 0 0 0 2.546.451c1.177 0 2.088-.253 2.731-.759.643-.521.965-1.232.965-2.136 0-.89-.322-1.588-.965-2.094-.643-.507-1.615-.76-2.916-.76h-1.026v-1.088l3.983-4.99h-7.351v-1.314h9.24v1.047l-4.065 5.113zm10.686-6.16v14.373h-1.478v-13.059h-3.388v-1.314h4.866zm4.545 14.476c-.302 0-.562-.11-.781-.329a1.129 1.129 0 0 1-.308-.8c0-.315.103-.575.308-.781.219-.219.479-.328.781-.328.301 0 .561.109.78.328.219.206.328.466.328.781 0 .314-.109.581-.328.8a1.066 1.066 0 0 1-.78.329zm7.718-14.599c1.903 0 3.361.63 4.374 1.889 1.013 1.246 1.519 3.012 1.519 5.298 0 1.601-.274 2.956-.821 4.065-.548 1.109-1.314 1.951-2.3 2.526-.986.561-2.135.841-3.449.841-1.424 0-2.56-.26-3.409-.78l.596-1.191c.684.452 1.615.678 2.792.678 1.588 0 2.834-.5 3.737-1.499.903-1.013 1.355-2.478 1.355-4.394 0-.356-.02-.746-.061-1.17-.356.78-.924 1.389-1.705 1.827-.78.424-1.677.637-2.689.637-.945 0-1.787-.178-2.526-.534a4.126 4.126 0 0 1-1.704-1.499c-.411-.657-.616-1.417-.616-2.279 0-.876.212-1.65.636-2.321a4.144 4.144 0 0 1 1.746-1.539c.752-.37 1.594-.555 2.525-.555zm.164 7.474c.726 0 1.362-.137 1.91-.411.561-.273.999-.65 1.314-1.129a2.851 2.851 0 0 0 .472-1.601c0-.548-.15-1.054-.451-1.52-.288-.465-.719-.842-1.294-1.129-.575-.288-1.259-.431-2.053-.431-1.041 0-1.889.287-2.546.862-.644.561-.965 1.314-.965 2.259 0 .944.321 1.697.965 2.258.657.561 1.54.842 2.648.842zm13.827-1.581c.944 0 1.779.178 2.505.534.739.356 1.314.862 1.724 1.519.411.644.616 1.397.616 2.259 0 .876-.212 1.649-.636 2.32-.424.671-1.013 1.191-1.766 1.561-.739.356-1.574.533-2.505.533-1.903 0-3.36-.622-4.373-1.868-1.013-1.259-1.52-3.032-1.52-5.318 0-1.602.274-2.957.821-4.065.548-1.109 1.315-1.944 2.3-2.505.986-.575 2.136-.863 3.45-.863 1.423 0 2.559.26 3.408.78l-.595 1.191c-.685-.451-1.616-.677-2.793-.677-1.588 0-2.833.506-3.737 1.519-.903.999-1.355 2.457-1.355 4.374 0 .342.021.732.062 1.17a3.824 3.824 0 0 1 1.704-1.807c.78-.438 1.677-.657 2.69-.657zm-.124 7.474c1.041 0 1.883-.281 2.526-.842.657-.575.986-1.334.986-2.279 0-.945-.329-1.697-.986-2.259-.643-.561-1.519-.841-2.628-.841-.726 0-1.369.136-1.93.41-.548.274-.979.65-1.294 1.13a2.849 2.849 0 0 0-.472 1.601c0 .548.144 1.054.431 1.519.301.466.739.842 1.314 1.13.575.287 1.26.431 2.053.431zM97.31 298.071h-5.668v8.419H88.46v-11.047h8.85v2.628zm6.41 8.583c-1.164 0-2.211-.24-3.142-.719a5.507 5.507 0 0 1-2.156-2.033c-.52-.862-.78-1.841-.78-2.936s.26-2.074.78-2.936a5.366 5.366 0 0 1 2.156-2.012c.931-.493 1.978-.739 3.142-.739 1.163 0 2.204.246 3.121.739a5.365 5.365 0 0 1 2.156 2.012c.52.862.78 1.841.78 2.936s-.26 2.074-.78 2.936a5.506 5.506 0 0 1-2.156 2.033c-.917.479-1.958.719-3.121.719zm0-2.628c.821 0 1.492-.274 2.012-.822.534-.561.801-1.307.801-2.238s-.267-1.67-.801-2.217c-.52-.562-1.191-.842-2.012-.842s-1.499.28-2.033.842c-.534.547-.801 1.286-.801 2.217s.267 1.677.801 2.238c.534.548 1.212.822 2.033.822zm13.517 2.628c-1.178 0-2.239-.24-3.183-.719a5.62 5.62 0 0 1-2.197-2.033c-.52-.862-.78-1.841-.78-2.936s.26-2.074.78-2.936a5.476 5.476 0 0 1 2.197-2.012c.944-.493 2.005-.739 3.183-.739 1.163 0 2.176.246 3.038.739a4.259 4.259 0 0 1 1.91 2.074l-2.485 1.334c-.574-1.013-1.403-1.519-2.484-1.519-.835 0-1.526.274-2.074.821-.547.548-.821 1.294-.821 2.238 0 .945.274 1.691.821 2.238.548.548 1.239.822 2.074.822 1.095 0 1.923-.507 2.484-1.52l2.485 1.355c-.397.876-1.034 1.561-1.91 2.054-.862.492-1.875.739-3.038.739zm16.135-8.583h-3.737v8.419h-3.182v-8.419h-3.737v-2.628h10.656v2.628zm1.708-2.628h3.182v6.57l5.38-6.57h2.936v11.047h-3.183v-6.571l-5.359 6.571h-2.956v-11.047zm14.577 0h3.183v4.312h4.804v-4.312h3.203v11.047h-3.203v-4.128h-4.804v4.128h-3.183v-11.047zm18.548-.164c1.711 0 3.025.41 3.942 1.232.917.807 1.376 2.032 1.376 3.675v6.304h-2.998v-1.376c-.602 1.026-1.725 1.54-3.367 1.54-.849 0-1.588-.144-2.218-.431-.616-.288-1.088-.685-1.416-1.191a3.099 3.099 0 0 1-.493-1.725c0-1.027.383-1.834 1.15-2.423.78-.589 1.978-.883 3.593-.883h2.546c0-.698-.212-1.232-.637-1.601-.424-.384-1.06-.575-1.909-.575-.589 0-1.171.095-1.745.287a4.447 4.447 0 0 0-1.438.739l-1.15-2.238c.603-.424 1.321-.753 2.156-.985a9.807 9.807 0 0 1 2.608-.349zm-.246 9.219c.547 0 1.033-.123 1.457-.37.425-.26.726-.636.904-1.129v-1.129h-2.197c-1.314 0-1.971.431-1.971 1.293 0 .411.157.739.472.986.329.232.773.349 1.335.349zm18.161-9.055v11.047h-2.854v-3.163h-2.361l-2.094 3.163h-3.409l2.526-3.614c-.767-.301-1.356-.733-1.766-1.294-.397-.575-.596-1.266-.596-2.074 0-1.3.466-2.299 1.397-2.997.944-.712 2.238-1.068 3.88-1.068h5.277zm-5.215 2.608c-.685 0-1.205.123-1.561.369-.342.247-.513.643-.513 1.191s.164.951.493 1.211c.342.247.855.37 1.54.37h2.402v-3.141h-2.361zM122.788 333.065v2.71h-10.862v-2.156l5.544-5.236c.589-.561.986-1.04 1.191-1.437.205-.411.308-.814.308-1.211 0-.575-.198-1.013-.595-1.314-.384-.315-.952-.473-1.705-.473a3.84 3.84 0 0 0-1.704.37 3.178 3.178 0 0 0-1.273 1.068l-2.423-1.561c.562-.835 1.335-1.485 2.321-1.951.985-.479 2.114-.718 3.387-.718 1.068 0 1.999.178 2.793.534.808.342 1.43.835 1.868 1.478.452.63.678 1.376.678 2.238 0 .78-.164 1.513-.493 2.197-.328.685-.965 1.465-1.909 2.341l-3.306 3.121h6.18zm7.492 2.957c-1.19 0-2.251-.295-3.182-.883-.931-.589-1.663-1.438-2.197-2.546-.52-1.123-.78-2.458-.78-4.004 0-1.547.26-2.875.78-3.984.534-1.122 1.266-1.978 2.197-2.566.931-.589 1.992-.883 3.182-.883 1.191 0 2.252.294 3.183.883.931.588 1.656 1.444 2.177 2.566.533 1.109.8 2.437.8 3.984 0 1.546-.267 2.881-.8 4.004-.521 1.108-1.246 1.957-2.177 2.546-.931.588-1.992.883-3.183.883zm0-2.813c.877 0 1.561-.377 2.054-1.13.506-.753.759-1.916.759-3.49 0-1.575-.253-2.738-.759-3.491-.493-.753-1.177-1.129-2.054-1.129-.862 0-1.546.376-2.053 1.129-.493.753-.739 1.916-.739 3.491 0 1.574.246 2.737.739 3.49.507.753 1.191 1.13 2.053 1.13zm9.405 2.73a1.923 1.923 0 0 1-1.417-.575c-.383-.383-.575-.862-.575-1.437 0-.588.192-1.061.575-1.417.383-.369.856-.554 1.417-.554s1.033.185 1.417.554c.383.356.574.829.574 1.417 0 .575-.191 1.054-.574 1.437a1.925 1.925 0 0 1-1.417.575zm8.708-14.537v14.373h-3.327v-11.704h-2.874v-2.669h6.201zm9.416 5.359c.917 0 1.752.185 2.505.555a4.341 4.341 0 0 1 1.786 1.581c.438.67.657 1.451.657 2.34 0 .959-.239 1.8-.718 2.526-.479.725-1.136 1.287-1.971 1.684-.822.383-1.739.575-2.752.575-2.012 0-3.586-.616-4.722-1.848-1.136-1.232-1.705-2.991-1.705-5.277 0-1.629.308-3.026.924-4.189.616-1.164 1.472-2.046 2.567-2.649 1.109-.602 2.389-.903 3.84-.903.766 0 1.499.089 2.197.267.711.164 1.314.404 1.807.718l-1.232 2.444c-.712-.479-1.609-.719-2.69-.719-1.219 0-2.184.356-2.895 1.068-.712.712-1.095 1.745-1.15 3.1.849-.848 2.033-1.273 3.552-1.273zm-.678 6.776c.712 0 1.287-.192 1.725-.575.452-.383.678-.903.678-1.56s-.226-1.178-.678-1.561c-.438-.397-1.026-.595-1.766-.595-.725 0-1.321.205-1.786.616-.465.397-.698.91-.698 1.54 0 .629.226 1.143.677 1.54.452.397 1.068.595 1.848.595z" fill="#20201F"/><path d="M333.913 214.566h-1.663v4.189h-3.203v-11.047h3.203V212h1.725l2.997-4.292h3.409l-3.86 5.298 4.127 5.749h-3.778l-2.957-4.189zm18.753-6.858-4.989 11.725c-.507 1.273-1.136 2.169-1.889 2.69-.739.52-1.636.78-2.69.78a5.603 5.603 0 0 1-1.704-.267c-.561-.178-1.02-.425-1.376-.739l1.17-2.279a2.783 2.783 0 0 0 1.807.698c.438 0 .794-.11 1.068-.329.274-.205.52-.554.739-1.047l.041-.103-4.784-11.129h3.306l3.1 7.495 3.121-7.495h3.08zm7.864 11.047-2.423-3.388-2.505 3.388h-3.49l4.25-5.564-4.107-5.483h3.594l2.34 3.224 2.403-3.224H364l-4.107 5.401 4.271 5.646h-3.634zm5.211-11.047h3.183v4.312h4.804v-4.312h3.204v11.047h-3.204v-4.127h-4.804v4.127h-3.183v-11.047zm24.071 0v11.047h-2.854v-3.162h-2.361l-2.094 3.162h-3.409l2.526-3.614c-.767-.301-1.355-.732-1.766-1.293-.397-.575-.595-1.266-.595-2.074 0-1.3.465-2.3 1.396-2.998.944-.712 2.238-1.068 3.881-1.068h5.276zm-5.215 2.608c-.684 0-1.204.123-1.56.37-.343.246-.514.643-.514 1.191 0 .547.165.951.493 1.211.342.246.856.37 1.54.37h2.402v-3.142h-2.361zm7.822 1.376h5.811v2.566h-5.811v-2.566zM334.354 226.957h3.183v4.312h4.805v-4.312h3.203v11.047h-3.203v-4.127h-4.805v4.127h-3.183v-11.047zm14.257 0h3.183v6.571l5.379-6.571h2.936v11.047h-3.182v-6.571l-5.359 6.571h-2.957v-11.047zm31.435 0v11.047h-16.857v-11.047h3.182v8.418h3.676v-8.418h3.182v8.418h3.634v-8.418h3.183zm7.365-.164c1.711 0 3.025.41 3.942 1.232.918.807 1.376 2.032 1.376 3.675v6.304h-2.998v-1.376c-.602 1.027-1.724 1.54-3.367 1.54-.849 0-1.588-.144-2.218-.431-.616-.288-1.088-.685-1.416-1.191a3.099 3.099 0 0 1-.493-1.725c0-1.027.383-1.834 1.15-2.423.78-.588 1.978-.883 3.593-.883h2.546c0-.698-.212-1.232-.636-1.601-.425-.384-1.061-.575-1.91-.575a5.5 5.5 0 0 0-1.745.287 4.467 4.467 0 0 0-1.438.739l-1.149-2.238c.602-.424 1.321-.752 2.156-.985a9.795 9.795 0 0 1 2.607-.349zm-.246 9.219c.547 0 1.033-.123 1.458-.37.424-.26.725-.636.903-1.129v-1.129h-2.197c-1.314 0-1.971.431-1.971 1.293 0 .411.157.74.472.986.329.233.774.349 1.335.349z" fill="#000"/><path d="m250.913 433.823-3.006-3.96-3.024 3.96h-1.44l3.744-4.86-3.564-4.608h1.44l2.844 3.708 2.844-3.708h1.404l-3.564 4.608 3.78 4.86h-1.458zm7.125.09c-.912 0-1.734-.204-2.466-.612a4.594 4.594 0 0 1-1.728-1.728c-.42-.732-.63-1.56-.63-2.484 0-.924.21-1.752.63-2.484a4.465 4.465 0 0 1 1.728-1.71c.732-.408 1.554-.612 2.466-.612.912 0 1.734.204 2.466.612a4.34 4.34 0 0 1 1.71 1.71c.42.732.63 1.56.63 2.484 0 .924-.21 1.752-.63 2.484a4.465 4.465 0 0 1-1.71 1.728c-.732.408-1.554.612-2.466.612zm0-1.134c.672 0 1.272-.15 1.8-.45.54-.312.96-.75 1.26-1.314.3-.564.45-1.206.45-1.926s-.15-1.362-.45-1.926c-.3-.564-.72-.996-1.26-1.296-.528-.312-1.128-.468-1.8-.468-.672 0-1.278.156-1.818.468-.528.3-.948.732-1.26 1.296-.3.564-.45 1.206-.45 1.926s.15 1.362.45 1.926a3.406 3.406 0 0 0 1.26 1.314c.54.3 1.146.45 1.818.45zm15.224-8.424v9.468h-1.278v-8.334h-4.536l-.126 2.34c-.096 1.968-.324 3.48-.684 4.536-.36 1.056-1.002 1.584-1.926 1.584-.252 0-.558-.048-.918-.144l.09-1.098c.216.048.366.072.45.072.492 0 .864-.228 1.116-.684.252-.456.42-1.02.504-1.692.084-.672.156-1.56.216-2.664l.162-3.384h6.93zm11.373 0v9.468h-1.278v-8.334h-4.536l-.126 2.34c-.096 1.968-.324 3.48-.684 4.536-.36 1.056-1.002 1.584-1.926 1.584-.252 0-.558-.048-.918-.144l.09-1.098c.216.048.366.072.45.072.492 0 .864-.228 1.116-.684.252-.456.42-1.02.504-1.692.084-.672.156-1.56.216-2.664l.162-3.384h6.93zM251.444 455.675c1.824 0 3.15.33 3.978.99.84.648 1.26 1.56 1.26 2.736 0 .732-.174 1.386-.522 1.962-.336.576-.846 1.032-1.53 1.368-.684.324-1.524.486-2.52.486-.9 0-1.758-.144-2.574-.432-.804-.3-1.452-.696-1.944-1.188l.63-1.026c.42.432.972.786 1.656 1.062a6.096 6.096 0 0 0 2.214.396c1.044 0 1.848-.234 2.412-.702.576-.468.864-1.092.864-1.872 0-.864-.324-1.518-.972-1.962-.636-.444-1.716-.666-3.24-.666h-2.682l.648-6.318h6.894v1.152h-5.76l-.432 4.014h1.62zm7.855 7.524a.934.934 0 0 1-.684-.288.989.989 0 0 1-.27-.702c0-.276.09-.504.27-.684a.934.934 0 0 1 .684-.288c.264 0 .492.096.684.288.192.18.288.408.288.684 0 .276-.096.51-.288.702a.934.934 0 0 1-.684.288zm7.869-7.632c.828 0 1.56.156 2.196.468a3.556 3.556 0 0 1 1.512 1.332c.36.564.54 1.224.54 1.98 0 .768-.186 1.446-.558 2.034a3.733 3.733 0 0 1-1.548 1.368c-.648.312-1.38.468-2.196.468-1.668 0-2.946-.546-3.834-1.638-.888-1.104-1.332-2.658-1.332-4.662 0-1.404.24-2.592.72-3.564s1.152-1.704 2.016-2.196c.864-.504 1.872-.756 3.024-.756 1.248 0 2.244.228 2.988.684l-.522 1.044c-.6-.396-1.416-.594-2.448-.594-1.392 0-2.484.444-3.276 1.332-.792.876-1.188 2.154-1.188 3.834 0 .3.018.642.054 1.026a3.351 3.351 0 0 1 1.494-1.584c.684-.384 1.47-.576 2.358-.576zm-.108 6.552c.912 0 1.65-.246 2.214-.738.576-.504.864-1.17.864-1.998 0-.828-.288-1.488-.864-1.98-.564-.492-1.332-.738-2.304-.738-.636 0-1.2.12-1.692.36-.48.24-.858.57-1.134.99-.276.42-.414.888-.414 1.404 0 .48.126.924.378 1.332.264.408.648.738 1.152.99.504.252 1.104.378 1.8.378zm14.608-11.61v.918l-5.274 11.682h-1.404l5.184-11.448h-6.48v2.358h-1.278v-3.51h9.252zM333.408 62.991c.876 0 1.656.198 2.34.594.696.384 1.236.93 1.62 1.639.384.695.576 1.493.576 2.394 0 .924-.204 1.746-.612 2.466a4.194 4.194 0 0 1-1.674 1.656c-.72.396-1.548.594-2.484.594-1.572 0-2.79-.552-3.654-1.656-.864-1.105-1.296-2.629-1.296-4.572 0-2.028.384-3.583 1.152-4.663.78-1.08 1.992-1.812 3.636-2.196l4.248-.972.216 1.17-3.996.918c-1.356.3-2.352.834-2.988 1.602-.636.756-.984 1.878-1.044 3.367a4.238 4.238 0 0 1 1.602-1.71c.684-.42 1.47-.63 2.358-.63zm-.198 8.28c.66 0 1.248-.15 1.764-.45a3.185 3.185 0 0 0 1.224-1.296c.3-.552.45-1.175.45-1.872 0-.696-.144-1.308-.432-1.836a3.006 3.006 0 0 0-1.224-1.223c-.516-.3-1.11-.45-1.782-.45-.672 0-1.272.15-1.8.45a3.158 3.158 0 0 0-1.224 1.224c-.288.528-.432 1.14-.432 1.835 0 .697.144 1.32.432 1.872.3.553.714.985 1.242 1.297.528.3 1.122.45 1.782.45zm10.679-8.586c1.236 0 2.184.312 2.844.936.66.613.99 1.524.99 2.736v5.869h-1.224V70.75c-.288.492-.714.876-1.278 1.152-.552.276-1.212.414-1.98.414-1.056 0-1.896-.252-2.52-.756-.624-.504-.936-1.17-.936-1.999 0-.804.288-1.452.864-1.944.588-.492 1.518-.738 2.79-.738h3.006v-.576c0-.816-.228-1.433-.684-1.853-.456-.433-1.122-.649-1.998-.649-.6 0-1.176.102-1.728.306a4.233 4.233 0 0 0-1.422.81l-.576-.954a4.99 4.99 0 0 1 1.728-.936 6.566 6.566 0 0 1 2.124-.342zm-.45 8.623c.72 0 1.338-.162 1.854-.486.516-.336.9-.817 1.152-1.44v-1.549h-2.97c-1.62 0-2.43.564-2.43 1.692 0 .553.21.99.63 1.315.42.312 1.008.468 1.764.468zm15.426-8.55v9.468h-1.278V63.89h-4.536l-.126 2.34c-.096 1.969-.324 3.48-.684 4.537-.36 1.056-1.002 1.584-1.926 1.584-.252 0-.558-.048-.918-.144l.09-1.098c.216.048.366.072.45.072.492 0 .864-.228 1.116-.684.252-.457.42-1.02.504-1.693.084-.672.156-1.56.216-2.664l.162-3.384h6.93zm7.071 5.255h-2.16v4.213h-1.278v-9.469h1.278v4.158h2.178l3.33-4.158h1.386l-3.726 4.59 3.996 4.879h-1.512l-3.492-4.213zm10.594 4.303c-.913 0-1.735-.204-2.467-.612a4.594 4.594 0 0 1-1.728-1.728c-.42-.733-.63-1.56-.63-2.484 0-.925.21-1.752.63-2.485a4.465 4.465 0 0 1 1.728-1.71c.732-.408 1.554-.612 2.467-.612.912 0 1.734.204 2.466.612a4.34 4.34 0 0 1 1.71 1.71c.42.733.63 1.56.63 2.484 0 .924-.21 1.752-.63 2.484a4.464 4.464 0 0 1-1.71 1.729c-.732.408-1.554.612-2.466.612zm0-1.134c.672 0 1.272-.15 1.8-.45.54-.312.96-.75 1.26-1.314.3-.565.45-1.207.45-1.927s-.15-1.362-.45-1.925c-.3-.565-.72-.996-1.26-1.297-.528-.312-1.128-.468-1.8-.468a3.57 3.57 0 0 0-1.819.468c-.528.3-.948.732-1.26 1.296-.3.564-.45 1.207-.45 1.927s.15 1.361.45 1.925a3.406 3.406 0 0 0 1.26 1.315c.54.3 1.147.45 1.819.45zm7.537-8.425h1.278v4.194h5.958v-4.194h1.278v9.469h-1.278v-4.177h-5.958v4.177h-1.278v-9.469zM348.22 94.312c1.32.072 2.322.432 3.006 1.08.696.636 1.044 1.47 1.044 2.502 0 .72-.174 1.362-.522 1.926-.348.552-.864.99-1.548 1.314-.684.324-1.518.486-2.502.486a7.73 7.73 0 0 1-2.592-.432c-.804-.3-1.452-.696-1.944-1.188l.63-1.026c.42.432.978.786 1.674 1.062a6.24 6.24 0 0 0 2.232.396c1.032 0 1.83-.222 2.394-.666.564-.456.846-1.08.846-1.872 0-.78-.282-1.392-.846-1.836-.564-.444-1.416-.666-2.556-.666h-.9v-.954l3.492-4.374h-6.444v-1.152h8.1v.917l-3.564 4.483zm6.848 7.29a.934.934 0 0 1-.684-.288.989.989 0 0 1-.27-.702c0-.276.09-.504.27-.684a.934.934 0 0 1 .684-.288c.264 0 .492.096.684.288.192.18.288.408.288.684 0 .276-.096.51-.288.702a.934.934 0 0 1-.684.288zm11.623-1.242v1.152h-8.838v-.918l5.238-5.13c.66-.648 1.104-1.206 1.332-1.674.24-.48.36-.96.36-1.44 0-.744-.258-1.32-.774-1.728-.504-.42-1.23-.63-2.178-.63-1.476 0-2.622.468-3.438 1.403l-.918-.791a4.846 4.846 0 0 1 1.872-1.332c.768-.313 1.632-.469 2.592-.469 1.284 0 2.298.306 3.042.919.756.6 1.134 1.428 1.134 2.484 0 .648-.144 1.272-.432 1.872-.288.6-.834 1.29-1.638 2.07l-4.284 4.212h6.93zm8.844-5.454c.792.264 1.398.66 1.818 1.188.432.528.648 1.164.648 1.908 0 .732-.198 1.374-.594 1.926-.396.54-.966.96-1.71 1.26-.732.288-1.596.432-2.592.432-1.512 0-2.7-.324-3.564-.972-.864-.648-1.296-1.53-1.296-2.646 0-.756.204-1.392.612-1.908.42-.528 1.026-.924 1.818-1.188-.648-.252-1.14-.612-1.476-1.08-.336-.48-.504-1.044-.504-1.692 0-1.02.396-1.83 1.188-2.43.804-.6 1.878-.9 3.222-.9.888 0 1.662.138 2.322.413.672.264 1.194.648 1.566 1.153.372.504.558 1.092.558 1.764 0 .648-.174 1.212-.522 1.692-.348.468-.846.828-1.494 1.08zm-5.544-2.736c0 .696.276 1.248.828 1.656.552.408 1.314.612 2.286.612s1.734-.204 2.286-.612c.564-.408.846-.954.846-1.638 0-.708-.288-1.267-.864-1.675-.564-.407-1.32-.612-2.268-.612-.96 0-1.722.205-2.286.612-.552.408-.828.96-.828 1.657zm3.114 8.352c1.116 0 1.986-.228 2.61-.684.636-.456.954-1.074.954-1.854s-.318-1.392-.954-1.836c-.624-.456-1.494-.684-2.61-.684-1.104 0-1.974.228-2.61.684-.624.444-.936 1.056-.936 1.836 0 .792.312 1.416.936 1.872.624.444 1.494.666 2.61.666zM348.588 344.714c1.824 0 3.15.33 3.978.99.84.648 1.26 1.56 1.26 2.736 0 .732-.174 1.386-.522 1.962-.336.576-.846 1.032-1.53 1.368-.684.324-1.524.486-2.52.486-.9 0-1.758-.144-2.574-.432-.804-.3-1.452-.696-1.944-1.188l.63-1.026c.42.432.972.786 1.656 1.062a6.096 6.096 0 0 0 2.214.396c1.044 0 1.848-.234 2.412-.702.576-.468.864-1.092.864-1.872 0-.864-.324-1.518-.972-1.962-.636-.444-1.716-.666-3.24-.666h-2.682l.648-6.318h6.894v1.152h-5.76l-.432 4.014h1.62zm7.855 7.524a.934.934 0 0 1-.684-.288.989.989 0 0 1-.27-.702c0-.276.09-.504.27-.684a.934.934 0 0 1 .684-.288c.264 0 .492.096.684.288.192.18.288.408.288.684 0 .276-.096.51-.288.702a.934.934 0 0 1-.684.288zm6.124-12.69v12.6h-1.296V340.7h-2.97v-1.152h4.266zm6.324 5.166c1.824 0 3.15.33 3.978.99.84.648 1.26 1.56 1.26 2.736 0 .732-.174 1.386-.522 1.962-.336.576-.846 1.032-1.53 1.368-.684.324-1.524.486-2.52.486-.9 0-1.758-.144-2.574-.432-.804-.3-1.452-.696-1.944-1.188l.63-1.026c.42.432.972.786 1.656 1.062a6.096 6.096 0 0 0 2.214.396c1.044 0 1.848-.234 2.412-.702.576-.468.864-1.092.864-1.872 0-.864-.324-1.518-.972-1.962-.636-.444-1.716-.666-3.24-.666h-2.682l.648-6.318h6.894v1.152h-5.76l-.432 4.014h1.62z" fill="#20201F"/></g><defs><clipPath id="a"><path fill="#fff" transform="translate(40 35)" d="M0 0h419.211v530.619H0z"/></clipPath></defs></svg>