<svg width="500" height="600" viewBox="0 0 500 600" fill="none" xmlns="http://www.w3.org/2000/svg">
<rect width="500" height="600" fill="white"/>
<g clip-path="url(#clip0_2384_28730)">
<path fill-rule="evenodd" clip-rule="evenodd" d="M40 41.1464L46.6126 40.7337L234.63 29V118.828H459.088V118.83V571.578H40V41.1464Z" fill="#2A2274"/>
<path fill-rule="evenodd" clip-rule="evenodd" d="M40 41.1463L46.6126 40.7336L46.5999 118.83H54.9754V358.976V373.948V499.712H40V41.1463Z" fill="#C6C0E1"/>
<path fill-rule="evenodd" clip-rule="evenodd" d="M234.63 118.828H459.088V571.578H40V122.723V41.1464L234.63 29V118.828Z" fill="#ED9FA6"/>
<path d="M459.088 118.83H444.113V536.243H459.088V118.83Z" fill="#94D0F5"/>
<path fill-rule="evenodd" clip-rule="evenodd" d="M40 484.74H54.9754V556.604H444.236V521.271H459.088V571.577H40V484.74Z" fill="#CFD0D0"/>
<path fill-rule="evenodd" clip-rule="evenodd" d="M40 41.1463L46.6126 40.7336L46.5999 118.83H54.9754V358.976V373.948V499.712H40V41.1463Z" fill="#FFF9D0"/>
<path fill-rule="evenodd" clip-rule="evenodd" d="M234.63 118.828H459.088V571.578H40V122.723V41.1464L234.63 29V118.828Z" fill="#FFF9D0"/>
<path d="M459.088 118.83H444.113V536.243H459.088V118.83Z" fill="#FFF9D0"/>
<path d="M54.9754 134.4H40V149.372H54.9754V134.4Z" fill="#20201F"/>
<path d="M270.567 134.247H234.629V170.333H270.567V134.247Z" fill="#20201F"/>
<path d="M54.9754 149.372H40V571.578H54.9754V149.372Z" fill="#20201F"/>
<path d="M459.088 149.372H444.113V571.578H459.088V149.372Z" fill="#20201F"/>
<path d="M459.088 521.271H444.235V536.243H459.088V521.271Z" fill="#20201F"/>
<path d="M444.113 556.604H244.817V571.578H444.113V556.604Z" fill="#20201F"/>
<path d="M184.924 556.604H54.9756V571.578H184.924V556.604Z" fill="#20201F"/>
<path d="M121.451 126.615H40V149.372H121.451V126.615Z" fill="#20201F"/>
<path d="M285.534 126.615H217.265V149.372H285.534V126.615Z" fill="#20201F"/>
<path d="M459.089 126.615H411.3V149.372H459.089V126.615Z" fill="#20201F"/>
<path d="M121.451 118.83H40V126.615H121.451V118.83Z" fill="#20201F"/>
<path d="M289.131 118.829H217.265V126.615H289.131V118.829Z" fill="#20201F"/>
<path d="M459.088 118.83H407.711V126.615H459.088V118.83Z" fill="#20201F"/>
<path fill-rule="evenodd" clip-rule="evenodd" d="M40 41.1456L234.63 29V118.83H227.444V36.6484L46.5905 47.934V118.83H40V41.1456Z" fill="#20201F"/>
<path d="M122.641 375.745H54.9756V380.536H122.641V375.745Z" fill="#20201F"/>
<path d="M174.15 375.745H122.642V380.536H174.15V375.745Z" fill="#20201F"/>
<path d="M183.224 375.745H174.15V380.536H183.224V375.745Z" fill="#20201F"/>
<path d="M178.938 380.536H174.15V457.996H178.938V380.536Z" fill="#20201F"/>
<path d="M178.938 499.918H174.15V556.604H178.938V499.918Z" fill="#20201F"/>
<path d="M291.53 442.041H286.733V556.603H291.53V442.041Z" fill="#20201F"/>
<path d="M291.53 375.745H231.135V380.536H291.53V375.745Z" fill="#20201F"/>
<path d="M291.53 375.744H286.733V388.142H291.53V375.744Z" fill="#20201F"/>
<path d="M239.426 170.333H234.63V375.744H239.426V170.333Z" fill="#20201F"/>
<path d="M407.71 118.83H289.123V122.682H407.71V118.83Z" fill="#20201F"/>
<path d="M411.299 126.595H285.534V130.446H411.299V126.595Z" fill="#20201F"/>
<path d="M411.299 145.5H285.534V149.351H411.299V145.5Z" fill="#20201F"/>
<path d="M217.264 118.828H169.352V122.68H217.264V118.828Z" fill="#20201F"/>
<path d="M217.265 126.593H169.351V130.444H217.265V126.593Z" fill="#20201F"/>
<path d="M217.265 145.498H169.351V149.349H217.265V145.498Z" fill="#20201F"/>
<path d="M172.177 118.828H169.351V149.371H172.177V118.828Z" fill="#20201F"/>
<path fill-rule="evenodd" clip-rule="evenodd" d="M190.558 566.662C190.558 567.601 189.796 568.363 188.857 568.363C187.918 568.363 187.156 567.601 187.156 566.662V530.666C187.156 529.727 187.918 528.965 188.857 528.965C189.796 528.965 190.558 529.727 190.558 530.666V566.662Z" fill="#20201F"/>
<path fill-rule="evenodd" clip-rule="evenodd" d="M241.934 567.004C241.934 567.474 241.553 567.855 241.083 567.855C240.614 567.855 240.233 567.474 240.233 567.004C240.233 557.242 235.213 548.391 227.101 541.975C218.932 535.514 207.631 531.516 195.14 531.516C194.671 531.516 194.29 531.135 194.29 530.666C194.29 530.197 194.671 529.816 195.14 529.816C208.015 529.816 219.69 533.955 228.151 540.647C236.664 547.38 241.934 556.7 241.934 567.004Z" fill="#20201F"/>
<path fill-rule="evenodd" clip-rule="evenodd" d="M175.522 459.999C176.461 459.999 177.223 460.761 177.223 461.7C177.223 462.639 176.461 463.401 175.522 463.401H139.526C138.587 463.401 137.825 462.639 137.825 461.7C137.825 460.761 138.587 459.999 139.526 459.999H175.522Z" fill="#20201F"/>
<path fill-rule="evenodd" clip-rule="evenodd" d="M175.864 495.228C176.333 495.228 176.714 495.609 176.714 496.079C176.714 496.548 176.333 496.929 175.864 496.929C165.628 496.929 156.352 493.466 149.628 487.872C142.862 482.24 138.675 474.448 138.675 465.835C138.675 465.366 139.056 464.985 139.526 464.985C139.995 464.985 140.376 465.366 140.376 465.835C140.376 473.922 144.327 481.255 150.712 486.569C157.14 491.918 166.032 495.228 175.864 495.228Z" fill="#20201F"/>
<path fill-rule="evenodd" clip-rule="evenodd" d="M122.678 128.375C122.678 127.436 123.44 126.675 124.379 126.675C125.317 126.675 126.079 127.436 126.079 128.375V164.372C126.079 165.31 125.317 166.072 124.379 166.072C123.44 166.072 122.678 165.31 122.678 164.372V128.375Z" fill="#20201F"/>
<path fill-rule="evenodd" clip-rule="evenodd" d="M165.656 128.034C165.656 127.564 166.037 127.183 166.507 127.183C166.976 127.183 167.357 127.564 167.357 128.034C167.357 138.303 163.109 147.602 156.246 154.331C149.383 161.059 139.906 165.222 129.447 165.222C128.977 165.222 128.596 164.841 128.596 164.372C128.596 163.902 128.977 163.521 129.447 163.521C139.448 163.521 148.505 159.546 155.057 153.122C161.604 146.702 165.656 137.831 165.656 128.034Z" fill="#20201F"/>
<path fill-rule="evenodd" clip-rule="evenodd" d="M229.691 378.532C229.691 379.471 228.929 380.233 227.99 380.233C227.051 380.233 226.289 379.471 226.289 378.532V342.536C226.289 341.597 227.051 340.835 227.99 340.835C228.929 340.835 229.691 341.597 229.691 342.536V378.532Z" fill="#20201F"/>
<path fill-rule="evenodd" clip-rule="evenodd" d="M187.683 378.874C187.683 379.344 187.302 379.724 186.832 379.724C186.363 379.724 185.982 379.344 185.982 378.874C185.982 368.609 190.132 359.312 196.836 352.583C203.544 345.852 212.811 341.686 223.039 341.686C223.508 341.686 223.889 342.067 223.889 342.536C223.889 343.005 223.508 343.386 223.039 343.386C213.276 343.386 204.435 347.359 198.039 353.779C191.642 360.199 187.683 369.072 187.683 378.874Z" fill="#20201F"/>
<path fill-rule="evenodd" clip-rule="evenodd" d="M289.926 440.119C288.988 440.119 288.226 439.358 288.226 438.419C288.226 437.48 288.988 436.718 289.926 436.718H325.923C326.862 436.718 327.623 437.48 327.623 438.419C327.623 439.358 326.862 440.119 325.923 440.119H289.926Z" fill="#20201F"/>
<path fill-rule="evenodd" clip-rule="evenodd" d="M289.585 391.932C289.115 391.932 288.734 391.551 288.734 391.082C288.734 390.612 289.115 390.231 289.585 390.231C299.873 390.231 309.183 395.005 315.915 402.722C322.623 410.408 326.773 421.019 326.773 432.724C326.773 433.194 326.392 433.575 325.923 433.575C325.453 433.575 325.072 433.194 325.072 432.724C325.072 421.437 321.084 411.223 314.64 403.837C308.223 396.483 299.363 391.932 289.585 391.932Z" fill="#20201F"/>
<path fill-rule="evenodd" clip-rule="evenodd" d="M93.4972 237.236V327.59H57.3555V236.173H93.4972V237.236ZM89.224 299.311C89.224 298.317 88.8175 297.411 88.1593 296.757C87.5045 296.103 86.6013 295.696 85.6098 295.696H65.2003C64.2088 295.696 63.3057 296.103 62.6466 296.757C61.9926 297.411 61.5862 298.317 61.5862 299.311V319.721C61.5862 320.712 61.9935 321.616 62.6466 322.273C63.3006 322.927 64.2054 323.334 65.2003 323.334H85.6098C86.6047 323.334 87.5096 322.927 88.161 322.271C88.8166 321.616 89.224 320.712 89.224 319.721V299.311ZM87.5351 247.746C87.5351 246.37 86.9747 245.12 86.0707 244.214C85.1667 243.31 83.9166 242.75 82.539 242.75C81.1639 242.75 79.9147 243.31 79.0073 244.217C78.1034 245.122 77.5429 246.371 77.5429 247.746C77.5429 249.123 78.1034 250.374 79.009 251.276C79.913 252.181 81.1631 252.742 82.539 252.742C83.9166 252.742 85.1667 252.181 86.0707 251.278C86.9747 250.374 87.5351 249.123 87.5351 247.746ZM74.3718 247.746C74.3718 246.074 73.6924 244.559 72.5962 243.462C71.5001 242.366 69.9838 241.687 68.3128 241.687C66.6409 241.687 65.1255 242.366 64.0293 243.462C62.9332 244.559 62.2537 246.074 62.2537 247.746C62.2537 249.417 62.9332 250.933 64.0293 252.029C65.1255 253.125 66.6409 253.805 68.3128 253.805C69.9838 253.805 71.5001 253.125 72.5962 252.029C73.6924 250.933 74.3718 249.417 74.3718 247.746ZM71.5451 250.978C72.3709 250.152 72.8836 249.008 72.8836 247.746C72.8836 246.483 72.3709 245.339 71.5451 244.513C70.7194 243.688 69.5748 243.175 68.3128 243.175C67.0499 243.175 65.9062 243.688 65.0804 244.513C64.2547 245.339 63.7419 246.483 63.7419 247.746C63.7419 249.008 64.2547 250.152 65.0804 250.978C65.9062 251.804 67.0499 252.317 68.3128 252.317C69.5748 252.317 70.7194 251.804 71.5451 250.978ZM88.5981 260.741C88.5981 259.069 87.9186 257.553 86.8224 256.457C85.7263 255.361 84.2109 254.682 82.539 254.682C80.8671 254.682 79.3509 255.36 78.2547 256.456C77.1586 257.553 76.48 259.069 76.48 260.741C76.48 262.413 77.1594 263.928 78.2556 265.024C79.3517 266.12 80.8671 266.8 82.539 266.8C84.21 266.8 85.7263 266.12 86.8224 265.024C87.9186 263.928 88.5981 262.412 88.5981 260.741ZM85.7714 263.973C86.5971 263.147 87.1099 262.003 87.1099 260.741C87.1099 259.478 86.5971 258.334 85.7714 257.508C84.9456 256.683 83.8018 256.17 82.539 256.17C81.2762 256.17 80.1315 256.682 79.3058 257.508C78.4801 258.333 77.9681 259.478 77.9681 260.741C77.9681 262.004 78.4809 263.147 79.3067 263.973C80.1324 264.799 81.2762 265.312 82.539 265.312C83.801 265.312 84.9456 264.799 85.7714 263.973ZM73.3088 260.741C73.3088 259.365 72.7484 258.115 71.8445 257.209C70.9405 256.305 69.6904 255.745 68.3128 255.745C66.9377 255.745 65.6885 256.305 64.7811 257.212C63.8771 258.116 63.3167 259.366 63.3167 260.741C63.3167 262.118 63.8771 263.368 64.7828 264.271C65.6868 265.176 66.9368 265.737 68.3128 265.737C69.6904 265.737 70.9405 265.176 71.8445 264.272C72.7484 263.368 73.3088 262.118 73.3088 260.741ZM70.7934 263.221C71.4269 262.588 71.8206 261.709 71.8206 260.741C71.8206 259.77 71.4286 258.892 70.7959 258.26C70.1598 257.627 69.2814 257.233 68.3128 257.233C67.3416 257.233 66.464 257.625 65.8322 258.258C65.1969 258.892 64.8049 259.77 64.8049 260.741C64.8049 261.709 65.1986 262.588 65.8322 263.221C66.464 263.857 67.3416 264.249 68.3128 264.249C69.2814 264.249 70.1598 263.855 70.7934 263.221ZM85.0196 250.226C85.6532 249.593 86.0469 248.714 86.0469 247.746C86.0469 246.775 85.6549 245.897 85.0222 245.265C84.3861 244.632 83.5076 244.238 82.539 244.238C81.5679 244.238 80.6903 244.63 80.0584 245.263C79.4232 245.897 79.0311 246.775 79.0311 247.746C79.0311 248.714 79.4249 249.593 80.0584 250.226C80.6903 250.862 81.5679 251.254 82.539 251.254C83.5076 251.254 84.3861 250.86 85.0196 250.226ZM87.098 319.721V299.311C87.098 298.903 86.9296 298.53 86.66 298.26C86.393 297.99 86.0197 297.822 85.6098 297.822H65.2003C64.7904 297.822 64.4171 297.99 64.1484 298.258C63.8805 298.53 63.7121 298.903 63.7121 299.311V319.721C63.7121 320.131 63.8788 320.503 64.1458 320.77C64.4197 321.04 64.7938 321.208 65.2003 321.208H85.6098C86.0163 321.208 86.3904 321.04 86.66 320.77C86.9313 320.503 87.098 320.131 87.098 319.721ZM59.4814 270.154H91.3712V238.299H59.4814V270.154ZM91.3712 272.28H59.4814V325.464H91.3712V272.28Z" fill="#20201F"/>
<path fill-rule="evenodd" clip-rule="evenodd" d="M89.8992 533.139C87.1022 534.938 83.5136 536.048 80.3586 536.048C77.253 536.048 74.8293 534.983 73.1422 533.238V533.233C72.5044 532.573 72.0103 531.788 71.5919 530.958V534.545C71.5919 536.687 70.6973 537.942 69.261 538.671C67.9539 539.336 66.2251 539.5 64.3295 539.5H63.5472V539.48C61.9671 539.436 60.5249 539.239 59.4015 538.671C57.966 537.942 57.0757 536.687 57.0757 534.556V516.961C57.0757 514.821 57.966 513.567 59.4015 512.843C60.5249 512.279 61.9671 512.076 63.5472 512.033V512.013H64.3295C66.2251 512.013 67.9539 512.178 69.261 512.843C70.6973 513.567 71.5919 514.821 71.5919 516.961V520.556C72.0103 519.725 72.4993 518.943 73.1422 518.281C74.8293 516.533 77.253 515.467 80.3586 515.467C83.693 515.467 87.5096 516.71 90.372 518.692C93.0133 520.522 94.8672 522.995 94.8672 525.757C94.8672 528.681 92.788 531.285 89.8992 533.139ZM61.9961 525.25H61.9909V525.252C61.9909 525.883 62.2546 526.464 62.6721 526.883V526.888C63.0897 527.304 63.6654 527.563 64.304 527.563C64.9435 527.563 65.5141 527.304 65.9317 526.888H65.9393L65.9385 526.883C66.356 526.462 66.6137 525.883 66.6137 525.252C66.6137 524.611 66.356 524.032 65.9393 523.617C65.5218 523.2 64.9435 522.939 64.304 522.939C63.6654 522.939 63.0948 523.2 62.6721 523.617C62.2546 524.032 61.9961 524.611 61.9961 525.25ZM63.1789 525.247V525.252C63.1789 525.564 63.3031 525.845 63.4995 526.045H63.5072C63.7087 526.246 63.9945 526.375 64.304 526.375C64.6195 526.375 64.9086 526.25 65.1042 526.055L65.1093 526.047C65.3058 525.845 65.4325 525.564 65.4325 525.252C65.4325 524.93 65.3058 524.65 65.1093 524.45C64.9086 524.253 64.6195 524.129 64.304 524.129C63.9894 524.129 63.7028 524.253 63.5072 524.459C63.298 524.655 63.1713 524.939 63.1713 525.247H63.1789ZM70.0297 516.961C70.0297 515.517 69.4625 514.692 68.5636 514.232C67.6316 513.768 66.339 513.611 64.878 513.584H64.3295C62.6466 513.584 61.138 513.713 60.0997 514.232C59.2 514.692 58.6395 515.519 58.6395 516.961V534.556C58.6395 535.996 59.2 536.819 60.0997 537.279C61.138 537.802 62.6466 537.929 64.3295 537.929H64.9384C66.3688 537.897 67.652 537.743 68.5636 537.281C69.4702 536.819 70.0297 535.989 70.0297 534.545V516.961ZM89.4876 519.972C86.8752 518.161 83.3945 517.028 80.3586 517.028C77.7054 517.028 75.6644 517.914 74.2638 519.361C72.7306 520.943 71.938 523.222 71.938 525.757C71.938 528.295 72.7306 530.572 74.2638 532.158C75.6644 533.602 77.7054 534.486 80.3586 534.486C83.2261 534.486 86.501 533.471 89.0607 531.828C91.5277 530.244 93.3041 528.088 93.3041 525.757C93.3041 523.565 91.7241 521.528 89.4876 519.972Z" fill="#20201F"/>
<path fill-rule="evenodd" clip-rule="evenodd" d="M154.698 555.208L135.208 555.214C128.689 555.214 129.457 541.722 129.525 540.821C129.525 537.698 130.798 534.864 132.851 532.814C134.899 530.767 137.738 529.498 140.86 529.498H149.131C152.26 529.498 155.095 530.765 157.149 532.814C159.195 534.864 160.464 537.703 160.478 540.826C160.52 541.742 161.191 555.214 154.698 555.208ZM144.992 542.065V542.063C145.678 542.056 146.31 541.786 146.762 541.336C147.206 540.878 147.48 540.252 147.48 539.57C147.48 538.882 147.204 538.256 146.753 537.806C146.302 537.354 145.678 537.078 144.99 537.078C144.306 537.078 143.681 537.354 143.23 537.806H143.222V537.811C142.771 538.261 142.49 538.882 142.49 539.57C142.49 540.252 142.771 540.886 143.222 541.336H143.224C143.675 541.786 144.306 542.07 144.99 542.07L144.992 542.065ZM144.997 540.794C145.322 540.794 145.629 540.66 145.849 540.434C146.063 540.22 146.201 539.912 146.201 539.57C146.201 539.23 146.069 538.922 145.855 538.701C145.634 538.49 145.333 538.35 144.99 538.353C144.646 538.353 144.349 538.487 144.129 538.701L144.124 538.706C143.906 538.922 143.772 539.23 143.772 539.57C143.772 539.906 143.914 540.214 144.126 540.434L144.131 540.437C144.346 540.653 144.653 540.783 144.985 540.783L144.997 540.78V540.794ZM144.992 550.459C148.135 550.459 150.987 549.523 153.061 548.02C155.216 546.448 156.555 544.253 156.557 541.82C156.557 539.377 155.216 537.182 153.061 535.608C150.979 534.096 148.125 533.169 144.982 533.169H144.969C141.834 533.176 138.988 534.111 136.908 535.617C134.762 537.188 133.425 539.377 133.424 541.806L133.425 541.82C133.425 544.259 134.762 546.442 136.925 548.02C138.994 549.525 141.845 550.459 144.985 550.456L144.992 550.459ZM144.992 548.701C147.746 548.696 150.234 547.888 152.034 546.589C153.732 545.348 154.789 543.656 154.789 541.82C154.789 539.971 153.732 538.28 152.02 537.033C150.23 535.739 147.746 534.934 144.982 534.934H144.977L144.969 534.929C142.212 534.934 139.734 535.739 137.944 537.04C136.25 538.277 135.194 539.971 135.189 541.806L135.194 541.82C135.191 543.66 136.249 545.353 137.95 546.589C139.741 547.883 142.226 548.696 144.982 548.693H144.992V548.701ZM154.692 553.449C159.531 553.449 158.707 540.923 158.707 540.891L158.699 540.826C158.699 538.187 157.633 535.799 155.908 534.062C154.167 532.332 151.775 531.264 149.131 531.264H140.869C138.216 531.264 135.819 532.327 134.086 534.062C132.356 535.79 131.29 538.187 131.285 540.826L131.282 540.888C131.282 540.92 130.395 553.449 135.213 553.449H154.692Z" fill="#20201F"/>
<path fill-rule="evenodd" clip-rule="evenodd" d="M101.406 486.973V385.384H59.8474V486.973H101.406ZM76.5874 467.177C76.5874 466.062 77.0398 465.051 77.77 464.321C78.5045 463.591 79.5136 463.138 80.6268 463.138C81.7399 463.138 82.7491 463.591 83.4801 464.321C84.2137 465.055 84.6661 466.064 84.6661 467.177C84.6661 468.291 84.2137 469.3 83.4835 470.031C82.753 470.764 81.7425 471.217 80.6268 471.217C79.5111 471.217 78.5005 470.764 77.77 470.034C77.0398 469.304 76.5874 468.293 76.5874 467.177ZM78.9115 465.463C79.3486 465.025 79.9564 464.754 80.6268 464.754C81.2972 464.754 81.9049 465.025 82.342 465.463C82.7788 465.9 83.0504 466.507 83.0504 467.177C83.0504 467.848 82.7788 468.456 82.3412 468.892C81.9024 469.33 81.2958 469.601 80.6268 469.601C79.9578 469.601 79.3512 469.33 78.9124 468.892C78.4747 468.453 78.2032 467.846 78.2032 467.177C78.2032 466.509 78.4747 465.902 78.9115 465.463ZM61.0365 479.305L62.6523 407.593C62.6523 396.822 69.8563 388.003 80.6268 388.003C91.3973 388.003 98.6013 396.822 98.6013 407.593L100.217 479.305C100.217 480.695 99.6481 481.958 98.7345 482.872C97.8166 483.786 96.5541 484.355 95.1677 484.355H66.0859C64.7012 484.355 63.4392 483.787 62.523 482.872C61.6046 481.952 61.0365 480.69 61.0365 479.305ZM64.672 407.593C64.672 397.926 70.9598 390.022 80.6268 390.022C90.2938 390.022 96.5816 397.926 96.5816 407.593L98.1973 479.305C98.1973 480.137 97.8555 480.894 97.3061 481.448C96.7599 481.995 96.0022 482.335 95.1677 482.335H66.0859C65.2514 482.335 64.4942 481.995 63.9435 481.444C63.3964 480.897 63.0562 480.14 63.0562 479.305L64.672 407.593ZM103.384 385.171V487.186C103.384 487.693 103.184 488.156 102.864 488.492C102.544 488.829 102.098 489.038 101.61 489.038H59.6439C59.1552 489.038 58.7093 488.829 58.3893 488.496C58.0684 488.16 57.8691 487.696 57.8691 487.186V385.171C57.8691 384.661 58.0684 384.197 58.3893 383.862C58.7133 383.53 59.1575 383.32 59.6439 383.32H101.61C102.096 383.32 102.539 383.529 102.861 383.862C103.184 384.202 103.384 384.664 103.384 385.171Z" fill="#20201F"/>
<path d="M302.546 221.756V262H293.233V229.23H285.184V221.756H302.546Z" fill="#20201F"/>
<path d="M321.376 190H319.25V291.095H321.376V190Z" fill="#20201F"/>
<path d="M343.684 215.738V217.052H333.603V216.004L339.578 210.153C340.33 209.413 340.837 208.777 341.097 208.243C341.371 207.696 341.508 207.148 341.508 206.6C341.508 205.752 341.213 205.095 340.625 204.629C340.05 204.15 339.222 203.911 338.14 203.911C336.457 203.911 335.149 204.444 334.219 205.512L333.171 204.609C333.733 203.952 334.444 203.445 335.307 203.089C336.183 202.733 337.168 202.555 338.263 202.555C339.728 202.555 340.885 202.905 341.734 203.603C342.596 204.287 343.027 205.232 343.027 206.436C343.027 207.175 342.863 207.887 342.534 208.572C342.206 209.256 341.583 210.043 340.666 210.933L335.779 215.738H343.684ZM351.188 217.175C350.079 217.175 349.087 216.881 348.211 216.292C347.348 215.703 346.671 214.861 346.178 213.766C345.699 212.658 345.459 211.357 345.459 209.865C345.459 208.373 345.699 207.08 346.178 205.984C346.671 204.876 347.348 204.027 348.211 203.438C349.087 202.85 350.079 202.555 351.188 202.555C352.297 202.555 353.282 202.85 354.145 203.438C355.021 204.027 355.705 204.876 356.198 205.984C356.691 207.08 356.937 208.373 356.937 209.865C356.937 211.357 356.691 212.658 356.198 213.766C355.705 214.861 355.021 215.703 354.145 216.292C353.282 216.881 352.297 217.175 351.188 217.175ZM351.188 215.82C352.023 215.82 352.755 215.587 353.385 215.122C354.028 214.656 354.528 213.979 354.884 213.089C355.24 212.199 355.418 211.125 355.418 209.865C355.418 208.606 355.24 207.531 354.884 206.642C354.528 205.752 354.028 205.074 353.385 204.609C352.755 204.143 352.023 203.911 351.188 203.911C350.353 203.911 349.614 204.143 348.97 204.609C348.341 205.074 347.848 205.752 347.492 206.642C347.136 207.531 346.958 208.606 346.958 209.865C346.958 211.125 347.136 212.199 347.492 213.089C347.848 213.979 348.341 214.656 348.97 215.122C349.614 215.587 350.353 215.82 351.188 215.82ZM359.942 217.154C359.641 217.154 359.381 217.045 359.162 216.826C358.957 216.607 358.854 216.34 358.854 216.025C358.854 215.71 358.957 215.45 359.162 215.245C359.381 215.026 359.641 214.916 359.942 214.916C360.244 214.916 360.504 215.026 360.723 215.245C360.942 215.45 361.051 215.71 361.051 216.025C361.051 216.34 360.942 216.607 360.723 216.826C360.504 217.045 360.244 217.154 359.942 217.154ZM368.693 217.175C367.584 217.175 366.592 216.881 365.716 216.292C364.853 215.703 364.176 214.861 363.683 213.766C363.204 212.658 362.964 211.357 362.964 209.865C362.964 208.373 363.204 207.08 363.683 205.984C364.176 204.876 364.853 204.027 365.716 203.438C366.592 202.85 367.584 202.555 368.693 202.555C369.802 202.555 370.787 202.85 371.65 203.438C372.526 204.027 373.21 204.876 373.703 205.984C374.196 207.08 374.442 208.373 374.442 209.865C374.442 211.357 374.196 212.658 373.703 213.766C373.21 214.861 372.526 215.703 371.65 216.292C370.787 216.881 369.802 217.175 368.693 217.175ZM368.693 215.82C369.528 215.82 370.26 215.587 370.89 215.122C371.533 214.656 372.033 213.979 372.389 213.089C372.745 212.199 372.923 211.125 372.923 209.865C372.923 208.606 372.745 207.531 372.389 206.642C372.033 205.752 371.533 205.074 370.89 204.609C370.26 204.143 369.528 203.911 368.693 203.911C367.858 203.911 367.119 204.143 366.475 204.609C365.846 205.074 365.353 205.752 364.997 206.642C364.641 207.531 364.463 208.606 364.463 209.865C364.463 211.125 364.641 212.199 364.997 213.089C365.353 213.979 365.846 214.656 366.475 215.122C367.119 215.587 367.858 215.82 368.693 215.82ZM380.337 208.572C382.418 208.572 383.931 208.948 384.875 209.701C385.833 210.44 386.312 211.48 386.312 212.822C386.312 213.657 386.114 214.403 385.717 215.06C385.334 215.717 384.752 216.237 383.972 216.62C383.191 216.99 382.233 217.175 381.097 217.175C380.07 217.175 379.092 217.011 378.161 216.682C377.244 216.34 376.504 215.888 375.943 215.327L376.662 214.157C377.141 214.649 377.771 215.053 378.551 215.368C379.331 215.669 380.173 215.82 381.076 215.82C382.267 215.82 383.184 215.553 383.828 215.019C384.485 214.485 384.813 213.773 384.813 212.883C384.813 211.898 384.444 211.152 383.705 210.645C382.979 210.139 381.747 209.886 380.009 209.886H376.949L377.689 202.679H385.553V203.993H378.982L378.489 208.572H380.337Z" fill="#20201F"/>
<path d="M347.893 242.56H345.019V246.338H343.54V242.56H335.43V241.492L343.047 231.965H344.69L337.339 241.246H343.581V237.919H345.019V241.246H347.893V242.56ZM352.713 231.965V246.338H351.235V233.279H347.847V231.965H352.713ZM357.258 246.44C356.956 246.44 356.696 246.331 356.477 246.112C356.272 245.893 356.169 245.626 356.169 245.311C356.169 244.996 356.272 244.736 356.477 244.531C356.696 244.312 356.956 244.202 357.258 244.202C357.559 244.202 357.819 244.312 358.038 244.531C358.257 244.736 358.366 244.996 358.366 245.311C358.366 245.626 358.257 245.893 358.038 246.112C357.819 246.331 357.559 246.44 357.258 246.44ZM366.234 237.735C367.178 237.735 368.013 237.912 368.739 238.268C369.478 238.624 370.053 239.131 370.464 239.788C370.874 240.431 371.08 241.184 371.08 242.046C371.08 242.922 370.867 243.696 370.443 244.367C370.019 245.037 369.43 245.558 368.677 245.927C367.938 246.283 367.103 246.461 366.172 246.461C364.27 246.461 362.812 245.838 361.799 244.592C360.786 243.333 360.279 241.56 360.279 239.274C360.279 237.673 360.553 236.318 361.101 235.209C361.648 234.1 362.415 233.265 363.4 232.704C364.386 232.129 365.536 231.842 366.85 231.842C368.273 231.842 369.41 232.102 370.258 232.622L369.663 233.813C368.978 233.361 368.048 233.135 366.87 233.135C365.283 233.135 364.037 233.642 363.133 234.655C362.23 235.654 361.778 237.112 361.778 239.028C361.778 239.37 361.799 239.76 361.84 240.198C362.196 239.418 362.764 238.816 363.544 238.392C364.324 237.954 365.221 237.735 366.234 237.735ZM366.111 245.208C367.151 245.208 367.993 244.928 368.636 244.367C369.293 243.792 369.622 243.032 369.622 242.087C369.622 241.143 369.293 240.39 368.636 239.829C367.993 239.268 367.117 238.987 366.008 238.987C365.283 238.987 364.639 239.124 364.078 239.398C363.53 239.671 363.099 240.048 362.784 240.527C362.47 241.006 362.312 241.54 362.312 242.129C362.312 242.676 362.456 243.183 362.743 243.648C363.044 244.113 363.482 244.49 364.057 244.777C364.632 245.065 365.317 245.208 366.111 245.208ZM385.009 242.56H382.134V246.338H380.656V242.56H372.545V241.492L380.163 231.965H381.805L374.455 241.246H380.697V237.919H382.134V241.246H385.009V242.56Z" fill="#20201F"/>
<path d="M344.927 271.845H342.053V275.623H340.574V271.845H332.464V270.778L340.082 261.25H341.724L334.373 270.531H340.615V267.205H342.053V270.531H344.927V271.845ZM356.02 274.309V275.623H345.938V274.576L351.913 268.724C352.666 267.985 353.172 267.349 353.433 266.815C353.706 266.267 353.843 265.72 353.843 265.172C353.843 264.324 353.549 263.666 352.96 263.201C352.385 262.722 351.557 262.482 350.476 262.482C348.792 262.482 347.485 263.016 346.554 264.084L345.507 263.181C346.068 262.523 346.78 262.017 347.642 261.661C348.518 261.305 349.504 261.127 350.599 261.127C352.064 261.127 353.22 261.476 354.069 262.174C354.931 262.859 355.363 263.803 355.363 265.008C355.363 265.747 355.198 266.459 354.87 267.143C354.541 267.828 353.918 268.615 353.001 269.505L348.115 274.309H356.02ZM359.184 275.726C358.883 275.726 358.623 275.617 358.404 275.398C358.199 275.179 358.096 274.912 358.096 274.597C358.096 274.282 358.199 274.022 358.404 273.817C358.623 273.598 358.883 273.488 359.184 273.488C359.485 273.488 359.746 273.598 359.965 273.817C360.184 274.022 360.293 274.282 360.293 274.597C360.293 274.912 360.184 275.179 359.965 275.398C359.746 275.617 359.485 275.726 359.184 275.726ZM370.861 268.088C371.764 268.389 372.456 268.841 372.935 269.443C373.427 270.045 373.674 270.771 373.674 271.62C373.674 272.455 373.448 273.187 372.996 273.817C372.545 274.433 371.894 274.912 371.046 275.254C370.211 275.582 369.225 275.747 368.089 275.747C366.364 275.747 365.009 275.377 364.023 274.638C363.038 273.899 362.545 272.893 362.545 271.62C362.545 270.757 362.778 270.032 363.243 269.443C363.722 268.841 364.414 268.389 365.317 268.088C364.578 267.8 364.017 267.39 363.633 266.856C363.25 266.308 363.058 265.665 363.058 264.926C363.058 263.762 363.51 262.838 364.414 262.154C365.331 261.469 366.556 261.127 368.089 261.127C369.102 261.127 369.985 261.285 370.738 261.6C371.504 261.901 372.1 262.339 372.524 262.914C372.948 263.489 373.161 264.159 373.161 264.926C373.161 265.665 372.962 266.308 372.565 266.856C372.168 267.39 371.6 267.8 370.861 268.088ZM364.537 264.967C364.537 265.761 364.852 266.39 365.481 266.856C366.111 267.321 366.98 267.554 368.089 267.554C369.198 267.554 370.067 267.321 370.697 266.856C371.34 266.39 371.662 265.768 371.662 264.987C371.662 264.18 371.333 263.543 370.676 263.078C370.033 262.612 369.17 262.38 368.089 262.38C366.994 262.38 366.125 262.612 365.481 263.078C364.852 263.543 364.537 264.173 364.537 264.967ZM368.089 274.494C369.362 274.494 370.354 274.234 371.066 273.714C371.792 273.194 372.154 272.489 372.154 271.599C372.154 270.709 371.792 270.011 371.066 269.505C370.354 268.984 369.362 268.724 368.089 268.724C366.83 268.724 365.837 268.984 365.112 269.505C364.4 270.011 364.044 270.709 364.044 271.599C364.044 272.502 364.4 273.214 365.112 273.734C365.823 274.241 366.816 274.494 368.089 274.494ZM381.45 275.747C380.341 275.747 379.348 275.452 378.472 274.864C377.61 274.275 376.932 273.433 376.44 272.338C375.96 271.229 375.721 269.929 375.721 268.437C375.721 266.945 375.96 265.651 376.44 264.556C376.932 263.447 377.61 262.599 378.472 262.01C379.348 261.422 380.341 261.127 381.45 261.127C382.558 261.127 383.544 261.422 384.406 262.01C385.282 262.599 385.967 263.447 386.46 264.556C386.952 265.651 387.199 266.945 387.199 268.437C387.199 269.929 386.952 271.229 386.46 272.338C385.967 273.433 385.282 274.275 384.406 274.864C383.544 275.452 382.558 275.747 381.45 275.747ZM381.45 274.391C382.285 274.391 383.017 274.159 383.647 273.693C384.29 273.228 384.79 272.55 385.145 271.661C385.501 270.771 385.679 269.696 385.679 268.437C385.679 267.178 385.501 266.103 385.145 265.213C384.79 264.324 384.29 263.646 383.647 263.181C383.017 262.715 382.285 262.482 381.45 262.482C380.615 262.482 379.875 262.715 379.232 263.181C378.602 263.646 378.11 264.324 377.754 265.213C377.398 266.103 377.22 267.178 377.22 268.437C377.22 269.696 377.398 270.771 377.754 271.661C378.11 272.55 378.602 273.228 379.232 273.693C379.875 274.159 380.615 274.391 381.45 274.391Z" fill="#20201F"/>
<path d="M327.575 478.63H321.908V487.048H318.726V476.002H327.575V478.63ZM333.986 487.212C332.822 487.212 331.775 486.973 330.844 486.494C329.927 486.001 329.208 485.323 328.688 484.461C328.168 483.599 327.908 482.62 327.908 481.525C327.908 480.43 328.168 479.451 328.688 478.589C329.208 477.726 329.927 477.056 330.844 476.576C331.775 476.084 332.822 475.837 333.986 475.837C335.149 475.837 336.19 476.084 337.107 476.576C338.024 477.056 338.742 477.726 339.263 478.589C339.783 479.451 340.043 480.43 340.043 481.525C340.043 482.62 339.783 483.599 339.263 484.461C338.742 485.323 338.024 486.001 337.107 486.494C336.19 486.973 335.149 487.212 333.986 487.212ZM333.986 484.584C334.807 484.584 335.478 484.311 335.998 483.763C336.532 483.202 336.799 482.456 336.799 481.525C336.799 480.594 336.532 479.855 335.998 479.307C335.478 478.746 334.807 478.466 333.986 478.466C333.164 478.466 332.487 478.746 331.953 479.307C331.419 479.855 331.152 480.594 331.152 481.525C331.152 482.456 331.419 483.202 331.953 483.763C332.487 484.311 333.164 484.584 333.986 484.584ZM347.502 487.212C346.325 487.212 345.264 486.973 344.32 486.494C343.389 486.001 342.657 485.323 342.123 484.461C341.603 483.599 341.343 482.62 341.343 481.525C341.343 480.43 341.603 479.451 342.123 478.589C342.657 477.726 343.389 477.056 344.32 476.576C345.264 476.084 346.325 475.837 347.502 475.837C348.666 475.837 349.679 476.084 350.541 476.576C351.417 477.056 352.054 477.747 352.451 478.65L349.966 479.985C349.391 478.972 348.563 478.466 347.482 478.466C346.647 478.466 345.956 478.739 345.408 479.287C344.861 479.834 344.587 480.58 344.587 481.525C344.587 482.469 344.861 483.215 345.408 483.763C345.956 484.311 346.647 484.584 347.482 484.584C348.577 484.584 349.405 484.078 349.966 483.065L352.451 484.42C352.054 485.296 351.417 485.981 350.541 486.473C349.679 486.966 348.666 487.212 347.502 487.212ZM363.638 478.63H359.901V487.048H356.718V478.63H352.981V476.002H363.638V478.63ZM365.345 476.002H368.528V482.572L373.908 476.002H376.844V487.048H373.661V480.478L368.302 487.048H365.345V476.002ZM379.923 476.002H383.105V480.313H387.91V476.002H391.113V487.048H387.91V482.921H383.105V487.048H379.923V476.002ZM398.471 475.837C400.182 475.837 401.496 476.248 402.413 477.069C403.33 477.877 403.789 479.102 403.789 480.745V487.048H400.791V485.673C400.189 486.699 399.066 487.212 397.424 487.212C396.575 487.212 395.836 487.069 395.206 486.781C394.59 486.494 394.118 486.097 393.789 485.59C393.461 485.084 393.297 484.509 393.297 483.866C393.297 482.839 393.68 482.031 394.446 481.443C395.227 480.854 396.424 480.56 398.04 480.56H400.586C400.586 479.862 400.374 479.328 399.949 478.958C399.525 478.575 398.888 478.383 398.04 478.383C397.451 478.383 396.869 478.479 396.294 478.671C395.733 478.849 395.254 479.095 394.857 479.41L393.707 477.172C394.31 476.748 395.028 476.419 395.863 476.186C396.712 475.954 397.581 475.837 398.471 475.837ZM398.225 485.057C398.772 485.057 399.258 484.933 399.682 484.687C400.107 484.427 400.408 484.05 400.586 483.558V482.428H398.389C397.075 482.428 396.418 482.86 396.418 483.722C396.418 484.133 396.575 484.461 396.89 484.707C397.218 484.94 397.663 485.057 398.225 485.057ZM416.386 476.002V487.048H413.532V483.886H411.171L409.076 487.048H405.668L408.193 483.434C407.427 483.133 406.838 482.702 406.428 482.141C406.031 481.566 405.832 480.875 405.832 480.067C405.832 478.767 406.298 477.767 407.228 477.069C408.173 476.357 409.467 476.002 411.109 476.002H416.386ZM411.171 478.609C410.486 478.609 409.966 478.732 409.61 478.979C409.268 479.225 409.097 479.622 409.097 480.17C409.097 480.717 409.261 481.121 409.59 481.381C409.932 481.628 410.445 481.751 411.13 481.751H413.532V478.609H411.171Z" fill="#20201F"/>
<path d="M350.508 513.624V516.334H339.646V514.178L345.19 508.943C345.779 508.381 346.176 507.902 346.381 507.505C346.586 507.095 346.689 506.691 346.689 506.294C346.689 505.719 346.491 505.281 346.094 504.98C345.71 504.665 345.142 504.507 344.389 504.507C343.76 504.507 343.192 504.631 342.685 504.877C342.179 505.11 341.754 505.466 341.412 505.945L338.989 504.384C339.551 503.549 340.324 502.899 341.309 502.434C342.295 501.955 343.424 501.715 344.697 501.715C345.765 501.715 346.696 501.893 347.49 502.249C348.297 502.591 348.92 503.084 349.358 503.727C349.81 504.357 350.036 505.103 350.036 505.965C350.036 506.746 349.872 507.478 349.543 508.162C349.215 508.847 348.578 509.627 347.634 510.503L344.328 513.624H350.508ZM358 516.581C356.81 516.581 355.749 516.286 354.818 515.698C353.887 515.109 353.155 514.261 352.621 513.152C352.101 512.029 351.841 510.695 351.841 509.148C351.841 507.601 352.101 506.273 352.621 505.165C353.155 504.042 353.887 503.187 354.818 502.598C355.749 502.009 356.81 501.715 358 501.715C359.191 501.715 360.252 502.009 361.183 502.598C362.114 503.187 362.839 504.042 363.359 505.165C363.893 506.273 364.16 507.601 364.16 509.148C364.16 510.695 363.893 512.029 363.359 513.152C362.839 514.261 362.114 515.109 361.183 515.698C360.252 516.286 359.191 516.581 358 516.581ZM358 513.768C358.876 513.768 359.561 513.391 360.054 512.638C360.56 511.886 360.813 510.722 360.813 509.148C360.813 507.574 360.56 506.41 360.054 505.657C359.561 504.904 358.876 504.528 358 504.528C357.138 504.528 356.454 504.904 355.947 505.657C355.454 506.41 355.208 507.574 355.208 509.148C355.208 510.722 355.454 511.886 355.947 512.638C356.454 513.391 357.138 513.768 358 513.768ZM367.405 516.499C366.844 516.499 366.371 516.307 365.988 515.924C365.605 515.54 365.413 515.061 365.413 514.486C365.413 513.898 365.605 513.426 365.988 513.07C366.371 512.7 366.844 512.515 367.405 512.515C367.966 512.515 368.438 512.7 368.822 513.07C369.205 513.426 369.396 513.898 369.396 514.486C369.396 515.061 369.205 515.54 368.822 515.924C368.438 516.307 367.966 516.499 367.405 516.499ZM376.789 516.581C375.598 516.581 374.537 516.286 373.606 515.698C372.675 515.109 371.943 514.261 371.409 513.152C370.889 512.029 370.629 510.695 370.629 509.148C370.629 507.601 370.889 506.273 371.409 505.165C371.943 504.042 372.675 503.187 373.606 502.598C374.537 502.009 375.598 501.715 376.789 501.715C377.98 501.715 379.04 502.009 379.971 502.598C380.902 503.187 381.628 504.042 382.148 505.165C382.682 506.273 382.949 507.601 382.949 509.148C382.949 510.695 382.682 512.029 382.148 513.152C381.628 514.261 380.902 515.109 379.971 515.698C379.04 516.286 377.98 516.581 376.789 516.581ZM376.789 513.768C377.665 513.768 378.349 513.391 378.842 512.638C379.348 511.886 379.602 510.722 379.602 509.148C379.602 507.574 379.348 506.41 378.842 505.657C378.349 504.904 377.665 504.528 376.789 504.528C375.926 504.528 375.242 504.904 374.735 505.657C374.243 506.41 373.996 507.574 373.996 509.148C373.996 510.722 374.243 511.886 374.735 512.638C375.242 513.391 375.926 513.768 376.789 513.768ZM389.493 507.362C391.518 507.362 393.011 507.765 393.969 508.573C394.941 509.381 395.427 510.462 395.427 511.817C395.427 512.693 395.208 513.494 394.77 514.219C394.331 514.931 393.661 515.506 392.757 515.944C391.868 516.369 390.766 516.581 389.452 516.581C388.439 516.581 387.439 516.451 386.454 516.191C385.482 515.917 384.654 515.534 383.969 515.041L385.283 512.495C385.831 512.905 386.461 513.227 387.172 513.46C387.884 513.679 388.617 513.788 389.369 513.788C390.204 513.788 390.861 513.624 391.341 513.295C391.82 512.967 392.059 512.508 392.059 511.92C392.059 511.304 391.806 510.838 391.299 510.524C390.807 510.209 389.944 510.051 388.712 510.051H385.037L385.776 501.961H394.544V504.631H388.548L388.322 507.362H389.493Z" fill="#20201F"/>
<path d="M126.744 248.777H125.081V252.966H121.878V241.92H125.081V246.211H126.806L129.804 241.92H133.212L129.352 247.217L133.479 252.966H129.701L126.744 248.777ZM145.497 241.92L140.508 253.644C140.001 254.917 139.372 255.813 138.619 256.334C137.88 256.854 136.983 257.114 135.929 257.114C135.354 257.114 134.786 257.025 134.225 256.847C133.664 256.669 133.205 256.423 132.849 256.108L134.019 253.829C134.266 254.048 134.546 254.219 134.861 254.342C135.19 254.465 135.512 254.527 135.826 254.527C136.264 254.527 136.62 254.417 136.894 254.198C137.168 253.993 137.414 253.644 137.633 253.151L137.674 253.048L132.89 241.92H136.196L139.296 249.414L142.417 241.92H145.497ZM153.361 252.966L150.938 249.578L148.433 252.966H144.943L149.193 247.402L145.086 241.92H148.68L151.02 245.143L153.423 241.92H156.831L152.725 247.32L156.995 252.966H153.361ZM158.572 241.92H161.755V246.231H166.559V241.92H169.763V252.966H166.559V248.839H161.755V252.966H158.572V241.92ZM182.644 241.92V252.966H179.789V249.804H177.428L175.334 252.966H171.925L174.451 249.352C173.684 249.051 173.096 248.62 172.685 248.059C172.288 247.484 172.09 246.793 172.09 245.985C172.09 244.685 172.555 243.685 173.486 242.987C174.43 242.275 175.724 241.92 177.367 241.92H182.644ZM177.428 244.527C176.744 244.527 176.224 244.65 175.868 244.897C175.526 245.143 175.354 245.54 175.354 246.088C175.354 246.635 175.519 247.039 175.847 247.299C176.189 247.546 176.703 247.669 177.387 247.669H179.789V244.527H177.428Z" fill="#20201F"/>
<path d="M137.903 267.879V282.252H134.577V270.549H131.702V267.879H137.903ZM145.944 267.879V282.252H142.618V270.549H139.743V267.879H145.944ZM150.33 282.417C149.769 282.417 149.296 282.225 148.913 281.842C148.53 281.458 148.338 280.979 148.338 280.404C148.338 279.816 148.53 279.344 148.913 278.988C149.296 278.618 149.769 278.433 150.33 278.433C150.891 278.433 151.363 278.618 151.747 278.988C152.13 279.344 152.321 279.816 152.321 280.404C152.321 280.979 152.13 281.458 151.747 281.842C151.363 282.225 150.891 282.417 150.33 282.417ZM159.038 267.879V282.252H155.711V270.549H152.837V267.879H159.038ZM166.462 273.279C168.488 273.279 169.98 273.683 170.938 274.491C171.91 275.299 172.396 276.38 172.396 277.735C172.396 278.611 172.177 279.412 171.739 280.137C171.301 280.849 170.63 281.424 169.727 281.862C168.837 282.287 167.735 282.499 166.421 282.499C165.408 282.499 164.409 282.369 163.423 282.109C162.452 281.835 161.623 281.452 160.939 280.959L162.253 278.413C162.801 278.823 163.43 279.145 164.142 279.378C164.854 279.597 165.586 279.706 166.339 279.706C167.174 279.706 167.831 279.542 168.31 279.213C168.789 278.885 169.029 278.426 169.029 277.838C169.029 277.222 168.776 276.756 168.269 276.442C167.776 276.127 166.914 275.969 165.682 275.969H162.007L162.746 267.879H171.513V270.549H165.518L165.292 273.279H166.462Z" fill="#20201F"/>
<path d="M220.329 437.981L217.323 434.021L214.299 437.981H212.859L216.603 433.121L213.039 428.513H214.479L217.323 432.221L220.167 428.513H221.571L218.007 433.121L221.787 437.981H220.329ZM227.453 438.071C226.541 438.071 225.719 437.867 224.987 437.459C224.255 437.039 223.679 436.463 223.259 435.731C222.839 434.999 222.629 434.171 222.629 433.247C222.629 432.323 222.839 431.495 223.259 430.763C223.679 430.031 224.255 429.461 224.987 429.053C225.719 428.645 226.541 428.441 227.453 428.441C228.365 428.441 229.187 428.645 229.919 429.053C230.651 429.461 231.221 430.031 231.629 430.763C232.049 431.495 232.259 432.323 232.259 433.247C232.259 434.171 232.049 434.999 231.629 435.731C231.221 436.463 230.651 437.039 229.919 437.459C229.187 437.867 228.365 438.071 227.453 438.071ZM227.453 436.937C228.125 436.937 228.725 436.787 229.253 436.487C229.793 436.175 230.213 435.737 230.513 435.173C230.813 434.609 230.963 433.967 230.963 433.247C230.963 432.527 230.813 431.885 230.513 431.321C230.213 430.757 229.793 430.325 229.253 430.025C228.725 429.713 228.125 429.557 227.453 429.557C226.781 429.557 226.175 429.713 225.635 430.025C225.107 430.325 224.687 430.757 224.375 431.321C224.075 431.885 223.925 432.527 223.925 433.247C223.925 433.967 224.075 434.609 224.375 435.173C224.687 435.737 225.107 436.175 225.635 436.487C226.175 436.787 226.781 436.937 227.453 436.937ZM242.678 428.513V437.981H241.4V429.647H236.864L236.738 431.987C236.642 433.955 236.414 435.467 236.054 436.523C235.694 437.579 235.052 438.107 234.128 438.107C233.876 438.107 233.57 438.059 233.21 437.963L233.3 436.865C233.516 436.913 233.666 436.937 233.75 436.937C234.242 436.937 234.614 436.709 234.866 436.253C235.118 435.797 235.286 435.233 235.37 434.561C235.454 433.889 235.526 433.001 235.586 431.897L235.748 428.513H242.678ZM254.051 428.513V437.981H252.773V429.647H248.237L248.111 431.987C248.015 433.955 247.787 435.467 247.427 436.523C247.067 437.579 246.425 438.107 245.501 438.107C245.249 438.107 244.943 438.059 244.583 437.963L244.673 436.865C244.889 436.913 245.039 436.937 245.123 436.937C245.615 436.937 245.987 436.709 246.239 436.253C246.491 435.797 246.659 435.233 246.743 434.561C246.827 433.889 246.899 433.001 246.959 431.897L247.121 428.513H254.051Z" fill="#20201F"/>
<path d="M220.788 459.833C222.612 459.833 223.938 460.163 224.766 460.823C225.606 461.471 226.026 462.383 226.026 463.559C226.026 464.291 225.852 464.945 225.504 465.521C225.168 466.097 224.658 466.553 223.974 466.889C223.29 467.213 222.45 467.375 221.454 467.375C220.554 467.375 219.696 467.231 218.88 466.943C218.076 466.643 217.428 466.247 216.936 465.755L217.566 464.729C217.986 465.161 218.538 465.515 219.222 465.791C219.906 466.055 220.644 466.187 221.436 466.187C222.48 466.187 223.284 465.953 223.848 465.485C224.424 465.017 224.712 464.393 224.712 463.613C224.712 462.749 224.388 462.095 223.74 461.651C223.104 461.207 222.024 460.985 220.5 460.985H217.818L218.466 454.667H225.36V455.819H219.6L219.168 459.833H220.788ZM228.643 467.357C228.379 467.357 228.151 467.261 227.959 467.069C227.779 466.877 227.689 466.643 227.689 466.367C227.689 466.091 227.779 465.863 227.959 465.683C228.151 465.491 228.379 465.395 228.643 465.395C228.907 465.395 229.135 465.491 229.327 465.683C229.519 465.863 229.615 466.091 229.615 466.367C229.615 466.643 229.519 466.877 229.327 467.069C229.135 467.261 228.907 467.357 228.643 467.357ZM240.266 466.115V467.267H231.428V466.349L236.666 461.219C237.326 460.571 237.77 460.013 237.998 459.545C238.238 459.065 238.358 458.585 238.358 458.105C238.358 457.361 238.1 456.785 237.584 456.377C237.08 455.957 236.354 455.747 235.406 455.747C233.93 455.747 232.784 456.215 231.968 457.151L231.05 456.359C231.542 455.783 232.166 455.339 232.922 455.027C233.69 454.715 234.554 454.559 235.514 454.559C236.798 454.559 237.812 454.865 238.556 455.477C239.312 456.077 239.69 456.905 239.69 457.961C239.69 458.609 239.546 459.233 239.258 459.833C238.97 460.433 238.424 461.123 237.62 461.903L233.336 466.115H240.266ZM245.816 454.559C247.484 454.559 248.762 455.111 249.65 456.215C250.538 457.307 250.982 458.855 250.982 460.859C250.982 462.263 250.742 463.451 250.262 464.423C249.782 465.395 249.11 466.133 248.246 466.637C247.382 467.129 246.374 467.375 245.222 467.375C243.974 467.375 242.978 467.147 242.234 466.691L242.756 465.647C243.356 466.043 244.172 466.241 245.204 466.241C246.596 466.241 247.688 465.803 248.48 464.927C249.272 464.039 249.668 462.755 249.668 461.075C249.668 460.763 249.65 460.421 249.614 460.049C249.302 460.733 248.804 461.267 248.12 461.651C247.436 462.023 246.65 462.209 245.762 462.209C244.934 462.209 244.196 462.053 243.548 461.741C242.912 461.429 242.414 460.991 242.054 460.427C241.694 459.851 241.514 459.185 241.514 458.429C241.514 457.661 241.7 456.983 242.072 456.395C242.444 455.807 242.954 455.357 243.602 455.045C244.262 454.721 245 454.559 245.816 454.559ZM245.96 461.111C246.596 461.111 247.154 460.991 247.634 460.751C248.126 460.511 248.51 460.181 248.786 459.761C249.062 459.341 249.2 458.873 249.2 458.357C249.2 457.877 249.068 457.433 248.804 457.025C248.552 456.617 248.174 456.287 247.67 456.035C247.166 455.783 246.566 455.657 245.87 455.657C244.958 455.657 244.214 455.909 243.638 456.413C243.074 456.905 242.792 457.565 242.792 458.393C242.792 459.221 243.074 459.881 243.638 460.373C244.214 460.865 244.988 461.111 245.96 461.111Z" fill="#20201F"/>
<path d="M99.4081 68.9502C100.284 68.9502 101.064 69.1482 101.748 69.5442C102.444 69.9282 102.984 70.4742 103.368 71.1822C103.752 71.8782 103.944 72.6762 103.944 73.5762C103.944 74.5003 103.74 75.3223 103.332 76.0423C102.936 76.7503 102.378 77.3023 101.658 77.6983C100.938 78.0943 100.11 78.2923 99.1741 78.2923C97.6021 78.2923 96.3841 77.7403 95.52 76.6363C94.656 75.5323 94.224 74.0083 94.224 72.0642C94.224 70.0362 94.608 68.4822 95.376 67.4021C96.1561 66.3221 97.3681 65.5901 99.0121 65.2061L103.26 64.2341L103.476 65.4041L99.4801 66.3221C98.1241 66.6221 97.1281 67.1561 96.4921 67.9242C95.856 68.6802 95.508 69.8022 95.448 71.2902C95.832 70.5582 96.3661 69.9882 97.0501 69.5802C97.7341 69.1602 98.5201 68.9502 99.4081 68.9502ZM99.2101 77.2303C99.8701 77.2303 100.458 77.0803 100.974 76.7803C101.502 76.4683 101.91 76.0363 102.198 75.4843C102.498 74.9323 102.648 74.3083 102.648 73.6122C102.648 72.9162 102.504 72.3042 102.216 71.7762C101.928 71.2482 101.52 70.8402 100.992 70.5522C100.476 70.2522 99.8821 70.1022 99.2101 70.1022C98.5381 70.1022 97.9381 70.2522 97.4101 70.5522C96.8941 70.8402 96.4861 71.2482 96.1861 71.7762C95.898 72.3042 95.754 72.9162 95.754 73.6122C95.754 74.3083 95.898 74.9323 96.1861 75.4843C96.4861 76.0363 96.9001 76.4683 97.4281 76.7803C97.9561 77.0803 98.5501 77.2303 99.2101 77.2303ZM109.889 68.6442C111.125 68.6442 112.073 68.9562 112.733 69.5802C113.393 70.1922 113.723 71.1042 113.723 72.3162V78.1843H112.499V76.7083C112.211 77.2003 111.785 77.5843 111.221 77.8603C110.669 78.1363 110.009 78.2743 109.241 78.2743C108.185 78.2743 107.345 78.0223 106.721 77.5183C106.097 77.0143 105.785 76.3483 105.785 75.5203C105.785 74.7163 106.073 74.0683 106.649 73.5762C107.237 73.0842 108.167 72.8382 109.439 72.8382H112.445V72.2622C112.445 71.4462 112.217 70.8282 111.761 70.4082C111.305 69.9762 110.639 69.7602 109.763 69.7602C109.163 69.7602 108.587 69.8622 108.035 70.0662C107.483 70.2582 107.009 70.5282 106.613 70.8762L106.037 69.9222C106.517 69.5142 107.093 69.2022 107.765 68.9862C108.437 68.7582 109.145 68.6442 109.889 68.6442ZM109.439 77.2663C110.159 77.2663 110.777 77.1043 111.293 76.7803C111.809 76.4443 112.193 75.9643 112.445 75.3403V73.7923H109.475C107.855 73.7923 107.045 74.3563 107.045 75.4843C107.045 76.0363 107.255 76.4743 107.675 76.7983C108.095 77.1103 108.683 77.2663 109.439 77.2663ZM124.865 68.7162V78.1843H123.587V69.8502H119.051L118.925 72.1902C118.829 74.1583 118.601 75.6703 118.241 76.7263C117.881 77.7823 117.239 78.3103 116.315 78.3103C116.063 78.3103 115.757 78.2623 115.397 78.1663L115.487 77.0683C115.703 77.1163 115.853 77.1403 115.937 77.1403C116.429 77.1403 116.801 76.9123 117.053 76.4563C117.305 76.0003 117.473 75.4363 117.557 74.7643C117.641 74.0923 117.713 73.2042 117.773 72.1002L117.935 68.7162H124.865ZM131.936 73.9723H129.776V78.1843H128.498V68.7162H129.776V72.8742H131.954L135.284 68.7162H136.67L132.944 73.3062L136.94 78.1843H135.428L131.936 73.9723ZM142.53 78.2743C141.617 78.2743 140.795 78.0703 140.063 77.6623C139.331 77.2423 138.755 76.6663 138.335 75.9343C137.915 75.2023 137.705 74.3743 137.705 73.4502C137.705 72.5262 137.915 71.6982 138.335 70.9662C138.755 70.2342 139.331 69.6642 140.063 69.2562C140.795 68.8482 141.617 68.6442 142.53 68.6442C143.442 68.6442 144.264 68.8482 144.996 69.2562C145.728 69.6642 146.298 70.2342 146.706 70.9662C147.126 71.6982 147.336 72.5262 147.336 73.4502C147.336 74.3743 147.126 75.2023 146.706 75.9343C146.298 76.6663 145.728 77.2423 144.996 77.6623C144.264 78.0703 143.442 78.2743 142.53 78.2743ZM142.53 77.1403C143.202 77.1403 143.802 76.9903 144.33 76.6903C144.87 76.3783 145.29 75.9403 145.59 75.3763C145.89 74.8123 146.04 74.1703 146.04 73.4502C146.04 72.7302 145.89 72.0882 145.59 71.5242C145.29 70.9602 144.87 70.5282 144.33 70.2282C143.802 69.9162 143.202 69.7602 142.53 69.7602C141.858 69.7602 141.251 69.9162 140.711 70.2282C140.183 70.5282 139.763 70.9602 139.451 71.5242C139.151 72.0882 139.001 72.7302 139.001 73.4502C139.001 74.1703 139.151 74.8123 139.451 75.3763C139.763 75.9403 140.183 76.3783 140.711 76.6903C141.251 76.9903 141.858 77.1403 142.53 77.1403ZM150.067 68.7162H151.345V72.9102H157.303V68.7162H158.581V78.1843H157.303V74.0083H151.345V78.1843H150.067V68.7162Z" fill="black"/>
<path d="M114.22 100.27C115.54 100.342 116.542 100.702 117.226 101.35C117.922 101.986 118.27 102.82 118.27 103.852C118.27 104.572 118.096 105.214 117.748 105.778C117.4 106.33 116.884 106.768 116.2 107.092C115.516 107.416 114.682 107.578 113.698 107.578C112.786 107.578 111.922 107.434 111.106 107.146C110.302 106.846 109.654 106.45 109.162 105.958L109.792 104.932C110.212 105.364 110.77 105.718 111.466 105.994C112.162 106.258 112.906 106.39 113.698 106.39C114.73 106.39 115.528 106.168 116.092 105.724C116.656 105.268 116.938 104.644 116.938 103.852C116.938 103.072 116.656 102.46 116.092 102.016C115.528 101.572 114.676 101.35 113.536 101.35H112.636V100.396L116.128 96.0223H109.684V94.8702H117.784V95.7883L114.22 100.27ZM121.068 107.56C120.804 107.56 120.576 107.464 120.384 107.272C120.204 107.08 120.114 106.846 120.114 106.57C120.114 106.294 120.204 106.066 120.384 105.886C120.576 105.694 120.804 105.598 121.068 105.598C121.332 105.598 121.56 105.694 121.752 105.886C121.944 106.066 122.04 106.294 122.04 106.57C122.04 106.846 121.944 107.08 121.752 107.272C121.56 107.464 121.332 107.56 121.068 107.56ZM131.305 100.864C132.097 101.128 132.703 101.524 133.123 102.052C133.555 102.58 133.771 103.216 133.771 103.96C133.771 104.692 133.573 105.334 133.177 105.886C132.781 106.426 132.211 106.846 131.467 107.146C130.735 107.434 129.871 107.578 128.875 107.578C127.363 107.578 126.175 107.254 125.311 106.606C124.447 105.958 124.015 105.076 124.015 103.96C124.015 103.204 124.219 102.568 124.627 102.052C125.047 101.524 125.653 101.128 126.445 100.864C125.797 100.612 125.305 100.252 124.969 99.7843C124.633 99.3043 124.465 98.7403 124.465 98.0923C124.465 97.0723 124.861 96.2623 125.653 95.6623C126.457 95.0623 127.531 94.7622 128.875 94.7622C129.763 94.7622 130.537 94.9002 131.197 95.1763C131.869 95.4403 132.391 95.8243 132.763 96.3283C133.135 96.8323 133.321 97.4203 133.321 98.0923C133.321 98.7403 133.147 99.3043 132.799 99.7843C132.451 100.252 131.953 100.612 131.305 100.864ZM125.761 98.1283C125.761 98.8243 126.037 99.3763 126.589 99.7843C127.141 100.192 127.903 100.396 128.875 100.396C129.847 100.396 130.609 100.192 131.161 99.7843C131.725 99.3763 132.007 98.8303 132.007 98.1463C132.007 97.4383 131.719 96.8803 131.143 96.4723C130.579 96.0643 129.823 95.8603 128.875 95.8603C127.915 95.8603 127.153 96.0643 126.589 96.4723C126.037 96.8803 125.761 97.4323 125.761 98.1283ZM128.875 106.48C129.991 106.48 130.861 106.252 131.485 105.796C132.121 105.34 132.439 104.722 132.439 103.942C132.439 103.162 132.121 102.55 131.485 102.106C130.861 101.65 129.991 101.422 128.875 101.422C127.771 101.422 126.901 101.65 126.265 102.106C125.641 102.55 125.329 103.162 125.329 103.942C125.329 104.734 125.641 105.358 126.265 105.814C126.889 106.258 127.759 106.48 128.875 106.48ZM140.785 99.9283C141.613 99.9283 142.345 100.084 142.981 100.396C143.629 100.708 144.133 101.152 144.493 101.728C144.854 102.292 145.034 102.952 145.034 103.708C145.034 104.476 144.848 105.154 144.475 105.742C144.103 106.33 143.587 106.786 142.927 107.11C142.279 107.422 141.547 107.578 140.731 107.578C139.063 107.578 137.785 107.032 136.897 105.94C136.009 104.836 135.565 103.282 135.565 101.278C135.565 99.8743 135.805 98.6863 136.285 97.7143C136.765 96.7423 137.437 96.0103 138.301 95.5183C139.165 95.0143 140.173 94.7622 141.325 94.7622C142.573 94.7622 143.569 94.9903 144.313 95.4463L143.791 96.4903C143.191 96.0943 142.375 95.8963 141.343 95.8963C139.951 95.8963 138.859 96.3403 138.067 97.2283C137.275 98.1043 136.879 99.3823 136.879 101.062C136.879 101.362 136.897 101.704 136.933 102.088C137.245 101.404 137.743 100.876 138.427 100.504C139.111 100.12 139.897 99.9283 140.785 99.9283ZM140.677 106.48C141.589 106.48 142.327 106.234 142.891 105.742C143.467 105.238 143.755 104.572 143.755 103.744C143.755 102.916 143.467 102.256 142.891 101.764C142.327 101.272 141.559 101.026 140.587 101.026C139.951 101.026 139.387 101.146 138.895 101.386C138.415 101.626 138.037 101.956 137.761 102.376C137.485 102.796 137.347 103.264 137.347 103.78C137.347 104.26 137.473 104.704 137.725 105.112C137.989 105.52 138.373 105.85 138.877 106.102C139.381 106.354 139.981 106.48 140.677 106.48Z" fill="#20201F"/>
<path d="M128.852 432.273C130.676 432.273 132.002 432.603 132.83 433.263C133.67 433.911 134.09 434.823 134.09 435.999C134.09 436.731 133.916 437.385 133.568 437.961C133.232 438.537 132.722 438.993 132.038 439.329C131.354 439.653 130.514 439.815 129.518 439.815C128.618 439.815 127.76 439.671 126.944 439.383C126.14 439.083 125.492 438.687 125 438.195L125.63 437.169C126.05 437.601 126.602 437.955 127.286 438.231C127.97 438.495 128.708 438.627 129.5 438.627C130.544 438.627 131.348 438.393 131.912 437.925C132.488 437.457 132.776 436.833 132.776 436.053C132.776 435.189 132.452 434.535 131.804 434.091C131.168 433.647 130.088 433.425 128.564 433.425H125.882L126.53 427.107H133.424V428.259H127.664L127.232 432.273H128.852ZM136.708 439.797C136.444 439.797 136.216 439.701 136.024 439.509C135.844 439.317 135.754 439.083 135.754 438.807C135.754 438.531 135.844 438.303 136.024 438.123C136.216 437.931 136.444 437.835 136.708 437.835C136.972 437.835 137.2 437.931 137.392 438.123C137.584 438.303 137.68 438.531 137.68 438.807C137.68 439.083 137.584 439.317 137.392 439.509C137.2 439.701 136.972 439.797 136.708 439.797ZM142.831 427.107V439.707H141.535V428.259H138.565V427.107H142.831ZM149.155 432.273C150.979 432.273 152.305 432.603 153.133 433.263C153.973 433.911 154.393 434.823 154.393 435.999C154.393 436.731 154.219 437.385 153.871 437.961C153.535 438.537 153.025 438.993 152.341 439.329C151.657 439.653 150.817 439.815 149.821 439.815C148.921 439.815 148.063 439.671 147.247 439.383C146.443 439.083 145.795 438.687 145.303 438.195L145.933 437.169C146.353 437.601 146.905 437.955 147.589 438.231C148.273 438.495 149.011 438.627 149.803 438.627C150.847 438.627 151.651 438.393 152.215 437.925C152.791 437.457 153.079 436.833 153.079 436.053C153.079 435.189 152.755 434.535 152.107 434.091C151.471 433.647 150.391 433.425 148.867 433.425H146.185L146.833 427.107H153.727V428.259H147.967L147.535 432.273H149.155Z" fill="#20201F"/>
</g>
<defs>
<clipPath id="clip0_2384_28730">
<rect width="419.088" height="542.578" fill="white" transform="translate(40 29)"/>
</clipPath>
</defs>
</svg>
