<svg width="600" height="550" viewBox="0 0 600 550" fill="none" xmlns="http://www.w3.org/2000/svg">
<rect width="600" height="550" fill="white"/>
<g clip-path="url(#clip0_2384_28740)">
<path d="M501.379 499.739H92.3472V514.196H501.379V499.739Z" fill="#E4CDA1"/>
<path fill-rule="evenodd" clip-rule="evenodd" d="M63 51.5724H324.71V36H536.704L518.744 248.896H501.379V269.857V304.595V514.196H92.3471V395.532H63V311.556V304.595V51.5724Z" fill="#FFF9D0"/>
<path d="M425.32 52.2129H324.709V67.0582H425.32V52.2129Z" fill="#20201F"/>
<path d="M485.808 257.793H410.344V272.768H485.808V257.793Z" fill="#20201F"/>
<path d="M77.9754 52.0828H63V306.469H77.9754V52.0828Z" fill="#20201F"/>
<path d="M77.9754 273.661H63V288.637H77.9754V273.661Z" fill="#20201F"/>
<path d="M77.6735 366.355H63V395.532H77.6735V366.355Z" fill="#20201F"/>
<path d="M107.323 380.565H92.3472V514.196H107.323V380.565Z" fill="#20201F"/>
<path d="M107.323 380.565H63V395.532H107.323V380.565Z" fill="#20201F"/>
<path d="M470.833 499.739H92.3472V514.196H470.833V499.739Z" fill="#20201F"/>
<path d="M493.589 450.666H470.833V514.196H493.589V450.666Z" fill="#20201F"/>
<path d="M493.589 251.806H470.833V354.814H493.589V251.806Z" fill="#20201F"/>
<path d="M433.101 234.441H410.344V257.793H433.101V234.441Z" fill="#20201F"/>
<path d="M433.101 46.0959H410.344V120.65H433.101V46.0959Z" fill="#20201F"/>
<path d="M324.709 52.0828H77.9751V67.0582H324.709V52.0828Z" fill="#20201F"/>
<path d="M347.466 36H324.709V52.2128H347.466V36Z" fill="#20201F"/>
<path d="M355.247 36H347.466V52.2128H355.247V36Z" fill="#20201F"/>
<path d="M440.89 36.512H355.247V43.6978H440.89V36.512Z" fill="#20201F"/>
<path d="M440.89 46.0959H433.101V120.65H440.89V46.0959Z" fill="#20201F"/>
<path d="M440.882 234.441H433.101V257.793H440.882V234.441Z" fill="#20201F"/>
<path d="M501.379 242.222H440.89V249.408H501.379V242.222Z" fill="#20201F"/>
<path d="M501.378 251.806H493.589V358.404H501.378V251.806Z" fill="#20201F"/>
<path d="M501.378 447.041H493.589V514.196H501.378V447.041Z" fill="#20201F"/>
<path d="M501.378 245.815H436.771V261.447H501.378V245.815Z" fill="#20201F"/>
<path d="M440.89 37.7029H351.356V57.8224H440.89V37.7029Z" fill="#20201F"/>
<path fill-rule="evenodd" clip-rule="evenodd" d="M440.89 36.512H536.704L518.744 249.408H501.379V242.222H512.136L528.889 43.6978H440.89V36.512Z" fill="#20201F"/>
<path d="M176.791 267.972H77.9756V272.76H176.791V267.972Z" fill="#20201F"/>
<path d="M291.17 436.853H286.382V499.739H291.17V436.853Z" fill="#20201F"/>
<path d="M291.17 385.353H286.382V436.853H291.17V385.353Z" fill="#20201F"/>
<path d="M291.17 335.647H286.382V385.353H291.17V335.647Z" fill="#20201F"/>
<path d="M286.382 380.565H188.892V385.353H286.382V380.565Z" fill="#20201F"/>
<path d="M146.977 380.565H107.323V385.353H146.977V380.565Z" fill="#20201F"/>
<path d="M410.345 267.972H230.69V272.76H410.345V267.972Z" fill="#20201F"/>
<path d="M291.17 272.76H286.382V287.735H291.17V272.76Z" fill="#20201F"/>
<path d="M501.379 358.403H497.526V447.04H501.379V358.403Z" fill="#20201F"/>
<path d="M493.614 354.806H489.763V450.629H493.614V354.806Z" fill="#20201F"/>
<path d="M474.709 354.806H470.857V450.629H474.709V354.806Z" fill="#20201F"/>
<path d="M440.892 120.652H437.04V186.53H440.892V120.652Z" fill="#20201F"/>
<path d="M433.127 120.65H429.276V186.53H433.127V120.65Z" fill="#20201F"/>
<path d="M414.222 120.65H410.371V186.53H414.222V120.65Z" fill="#20201F"/>
<path d="M440.892 183.703H410.349V186.53H440.892V183.703Z" fill="#20201F"/>
<path fill-rule="evenodd" clip-rule="evenodd" d="M182.016 270.597C182.016 271.536 181.254 272.298 180.315 272.298C179.376 272.298 178.614 271.536 178.614 270.597V234.601C178.614 233.662 179.376 232.9 180.315 232.9C181.254 232.9 182.016 233.662 182.016 234.601V270.597Z" fill="#20201F"/>
<path fill-rule="evenodd" clip-rule="evenodd" d="M228.761 270.939C228.761 271.409 228.38 271.79 227.911 271.79C227.441 271.79 227.06 271.409 227.06 270.939C227.06 261.162 222.485 252.304 215.091 245.888C207.663 239.441 197.39 235.452 186.04 235.452C185.57 235.452 185.189 235.071 185.189 234.601C185.189 234.132 185.57 233.751 186.04 233.751C197.807 233.751 208.474 237.9 216.2 244.605C223.96 251.339 228.761 260.65 228.761 270.939Z" fill="#20201F"/>
<path fill-rule="evenodd" clip-rule="evenodd" d="M431.865 228.935C432.804 228.935 433.566 229.697 433.566 230.636C433.566 231.574 432.804 232.336 431.865 232.336H395.869C394.93 232.336 394.168 231.574 394.168 230.636C394.168 229.697 394.93 228.935 395.869 228.935H431.865Z" fill="#20201F"/>
<path fill-rule="evenodd" clip-rule="evenodd" d="M432.207 188.975C432.676 188.975 433.057 189.356 433.057 189.825C433.057 190.295 432.676 190.676 432.207 190.676C422.404 190.676 413.529 194.602 407.108 200.946C400.69 207.286 396.719 216.051 396.719 225.727C396.719 226.197 396.338 226.578 395.868 226.578C395.399 226.578 395.018 226.197 395.018 225.727C395.018 215.582 399.185 206.39 405.919 199.737C412.648 193.089 421.943 188.975 432.207 188.975Z" fill="#20201F"/>
<path fill-rule="evenodd" clip-rule="evenodd" d="M288.495 292.214C287.556 292.214 286.794 291.452 286.794 290.514C286.794 289.575 287.556 288.813 288.495 288.813H324.492C325.43 288.813 326.192 289.575 326.192 290.514C326.192 291.452 325.43 292.214 324.492 292.214H288.495Z" fill="#20201F"/>
<path fill-rule="evenodd" clip-rule="evenodd" d="M288.154 333.692C287.684 333.692 287.303 333.311 287.303 332.842C287.303 332.372 287.684 331.991 288.154 331.991C297.95 331.991 306.821 327.922 313.239 321.344C319.665 314.758 323.641 305.656 323.641 295.605C323.641 295.135 324.022 294.754 324.492 294.754C324.961 294.754 325.342 295.135 325.342 295.605C325.342 306.113 321.18 315.634 314.455 322.526C307.724 329.424 298.424 333.692 288.154 333.692Z" fill="#20201F"/>
<path fill-rule="evenodd" clip-rule="evenodd" d="M73.6221 312.494C72.6833 312.494 71.9214 311.732 71.9214 310.793C71.9214 309.854 72.6833 309.092 73.6221 309.092H109.619C110.557 309.092 111.319 309.854 111.319 310.793C111.319 311.732 110.557 312.494 109.619 312.494H73.6221Z" fill="#20201F"/>
<path fill-rule="evenodd" clip-rule="evenodd" d="M73.2801 362.374C72.8107 362.374 72.4297 361.993 72.4297 361.524C72.4297 361.055 72.8107 360.674 73.2801 360.674C83.046 360.674 91.8995 355.797 98.3165 347.917C104.773 339.986 108.768 329.018 108.768 316.895C108.768 316.426 109.149 316.045 109.618 316.045C110.088 316.045 110.469 316.426 110.469 316.895C110.469 329.415 106.326 340.763 99.6312 348.987C92.897 357.257 83.5809 362.374 73.2801 362.374Z" fill="#20201F"/>
<path fill-rule="evenodd" clip-rule="evenodd" d="M184.583 382.908C184.583 381.969 185.344 381.207 186.283 381.207C187.222 381.207 187.984 381.969 187.984 382.908V418.904C187.984 419.843 187.222 420.605 186.283 420.605C185.344 420.605 184.583 419.843 184.583 418.904V382.908Z" fill="#20201F"/>
<path fill-rule="evenodd" clip-rule="evenodd" d="M149.432 382.566C149.432 382.097 149.813 381.716 150.283 381.716C150.752 381.716 151.133 382.097 151.133 382.566C151.133 392.39 154.597 401.277 160.197 407.701C165.771 414.096 173.464 418.054 181.952 418.054C182.421 418.054 182.802 418.435 182.802 418.904C182.802 419.374 182.421 419.755 181.952 419.755C172.954 419.755 164.81 415.574 158.922 408.817C153.059 402.092 149.432 392.809 149.432 382.566Z" fill="#20201F"/>
<path fill-rule="evenodd" clip-rule="evenodd" d="M429.643 461.187H339.289V497.328H430.706V461.187H429.643ZM367.568 465.46C368.562 465.46 369.468 465.866 370.122 466.525C370.775 467.179 371.183 468.083 371.183 469.074V489.484C371.183 490.475 370.775 491.378 370.122 492.037C369.468 492.691 368.562 493.098 367.568 493.098H347.158C346.167 493.098 345.263 492.69 344.605 492.037C343.951 491.383 343.545 490.479 343.545 489.484V469.074C343.545 468.079 343.951 467.174 344.608 466.523C345.263 465.867 346.167 465.46 347.158 465.46H367.568ZM419.133 467.149C420.509 467.149 421.759 467.709 422.665 468.613C423.569 469.517 424.129 470.767 424.129 472.145C424.129 473.52 423.569 474.769 422.662 475.677C421.757 476.581 420.508 477.141 419.133 477.141C417.755 477.141 416.505 476.581 415.603 475.675C414.697 474.771 414.137 473.521 414.137 472.145C414.137 470.767 414.697 469.517 415.601 468.613C416.505 467.709 417.755 467.149 419.133 467.149ZM419.133 480.312C420.805 480.312 422.32 480.992 423.416 482.088C424.512 483.184 425.192 484.7 425.192 486.371C425.192 488.043 424.512 489.558 423.416 490.655C422.32 491.751 420.805 492.43 419.133 492.43C417.462 492.43 415.946 491.751 414.849 490.655C413.753 489.558 413.074 488.043 413.074 486.371C413.074 484.7 413.753 483.184 414.849 482.088C415.946 480.992 417.462 480.312 419.133 480.312ZM415.901 483.139C416.726 482.313 417.871 481.8 419.133 481.8C420.396 481.8 421.54 482.313 422.365 483.139C423.191 483.965 423.704 485.109 423.704 486.371C423.704 487.634 423.191 488.778 422.365 489.603C421.54 490.429 420.396 490.942 419.133 490.942C417.871 490.942 416.726 490.429 415.901 489.603C415.075 488.778 414.562 487.634 414.562 486.371C414.562 485.109 415.075 483.965 415.901 483.139ZM406.138 466.086C407.81 466.086 409.325 466.765 410.421 467.861C411.518 468.958 412.197 470.473 412.197 472.145C412.197 473.817 411.518 475.333 410.422 476.429C409.326 477.525 407.81 478.204 406.138 478.204C404.466 478.204 402.951 477.524 401.855 476.428C400.758 475.332 400.079 473.817 400.079 472.145C400.079 470.474 400.758 468.958 401.855 467.861C402.951 466.765 404.467 466.086 406.138 466.086ZM402.906 468.913C403.731 468.087 404.876 467.574 406.138 467.574C407.401 467.574 408.545 468.087 409.37 468.913C410.196 469.738 410.709 470.882 410.709 472.145C410.709 473.408 410.197 474.552 409.371 475.378C408.546 476.204 407.401 476.716 406.138 476.716C404.875 476.716 403.731 476.203 402.906 475.377C402.08 474.552 401.567 473.408 401.567 472.145C401.567 470.883 402.08 469.738 402.906 468.913ZM406.138 481.375C407.514 481.375 408.764 481.935 409.67 482.839C410.574 483.743 411.134 484.993 411.134 486.371C411.134 487.746 410.574 488.995 409.667 489.903C408.762 490.807 407.513 491.367 406.138 491.367C404.76 491.367 403.51 490.807 402.608 489.901C401.702 488.997 401.142 487.747 401.142 486.371C401.142 484.993 401.702 483.743 402.606 482.839C403.51 481.935 404.76 481.375 406.138 481.375ZM403.657 483.891C404.291 483.257 405.169 482.863 406.138 482.863C407.109 482.863 407.987 483.255 408.619 483.888C409.252 484.524 409.646 485.403 409.646 486.371C409.646 487.342 409.254 488.22 408.621 488.852C407.987 489.487 407.109 489.879 406.138 489.879C405.169 489.879 404.291 489.485 403.657 488.852C403.022 488.22 402.63 487.342 402.63 486.371C402.63 485.403 403.024 484.524 403.657 483.891ZM416.652 469.664C417.286 469.031 418.164 468.637 419.133 468.637C420.104 468.637 420.982 469.029 421.614 469.662C422.247 470.298 422.641 471.176 422.641 472.145C422.641 473.116 422.249 473.994 421.616 474.625C420.982 475.261 420.104 475.653 419.133 475.653C418.164 475.653 417.286 475.259 416.652 474.625C416.017 473.994 415.625 473.116 415.625 472.145C415.625 471.176 416.019 470.298 416.652 469.664ZM347.158 467.586H367.568C367.976 467.586 368.349 467.754 368.619 468.024C368.889 468.291 369.057 468.664 369.057 469.074V489.484C369.057 489.893 368.889 490.267 368.62 490.536C368.349 490.803 367.976 490.972 367.568 490.972H347.158C346.748 490.972 346.376 490.805 346.109 490.538C345.839 490.264 345.671 489.89 345.671 489.484V469.074C345.671 468.668 345.839 468.293 346.109 468.024C346.376 467.753 346.748 467.586 347.158 467.586ZM396.725 495.202V463.313H428.58V495.202H396.725ZM394.599 463.313V495.202H341.415V463.313H394.599Z" fill="#20201F"/>
<path fill-rule="evenodd" clip-rule="evenodd" d="M136.588 464.544C134.789 467.341 133.679 470.93 133.679 474.085C133.679 477.19 134.744 479.614 136.489 481.301H136.494C137.154 481.939 137.938 482.433 138.769 482.851H135.181C133.04 482.851 131.785 483.746 131.056 485.182C130.391 486.489 130.227 488.218 130.227 490.114V490.896H130.247C130.291 492.476 130.488 493.918 131.056 495.042C131.785 496.477 133.04 497.367 135.171 497.367H152.766C154.906 497.367 156.16 496.477 156.884 495.042C157.448 493.918 157.651 492.476 157.694 490.896H157.713V490.114C157.713 488.218 157.549 486.489 156.884 485.182C156.16 483.746 154.906 482.851 152.766 482.851H149.171C150.002 482.433 150.784 481.944 151.446 481.301C153.194 479.614 154.26 477.19 154.26 474.085C154.26 470.75 153.017 466.934 151.034 464.071C149.205 461.43 146.731 459.576 143.97 459.576C141.046 459.576 138.442 461.655 136.588 464.544ZM144.477 492.447V492.452H144.475C143.844 492.452 143.263 492.189 142.844 491.771H142.839C142.423 491.353 142.164 490.778 142.164 490.139C142.164 489.5 142.423 488.929 142.839 488.511V488.504L142.844 488.505C143.265 488.087 143.844 487.829 144.475 487.829C145.116 487.829 145.695 488.087 146.11 488.504C146.527 488.921 146.788 489.5 146.788 490.139C146.788 490.778 146.527 491.348 146.11 491.771C145.695 492.189 145.116 492.447 144.477 492.447ZM144.48 491.264H144.475C144.163 491.264 143.882 491.14 143.682 490.944V490.936C143.48 490.734 143.352 490.449 143.352 490.139C143.352 489.824 143.477 489.534 143.672 489.339L143.68 489.334C143.882 489.137 144.163 489.011 144.475 489.011C144.797 489.011 145.077 489.137 145.277 489.334C145.474 489.534 145.598 489.824 145.598 490.139C145.598 490.454 145.474 490.74 145.268 490.936C145.072 491.145 144.787 491.272 144.48 491.272V491.264ZM152.766 484.413C154.21 484.413 155.035 484.981 155.495 485.879C155.959 486.812 156.116 488.104 156.143 489.565V490.114C156.143 491.797 156.014 493.305 155.495 494.343C155.035 495.243 154.208 495.804 152.766 495.804H135.171C133.731 495.804 132.908 495.243 132.448 494.343C131.924 493.305 131.798 491.797 131.798 490.114V489.505C131.83 488.074 131.984 486.791 132.446 485.879C132.908 484.973 133.737 484.413 135.181 484.413H152.766ZM149.755 464.956C151.566 467.568 152.699 471.049 152.699 474.085C152.699 476.738 151.813 478.779 150.366 480.179C148.783 481.713 146.504 482.505 143.97 482.505C141.432 482.505 139.155 481.713 137.569 480.179C136.125 478.779 135.241 476.738 135.241 474.085C135.241 471.217 136.255 467.942 137.899 465.382C139.483 462.915 141.639 461.139 143.97 461.139C146.162 461.139 148.198 462.719 149.755 464.956Z" fill="#20201F"/>
<path fill-rule="evenodd" clip-rule="evenodd" d="M108.846 426.778L108.84 407.288C108.84 400.77 122.333 401.538 123.233 401.605C126.357 401.605 129.19 402.879 131.241 404.932C133.287 406.979 134.556 409.818 134.556 412.941V421.212C134.556 424.34 133.29 427.175 131.241 429.229C129.19 431.275 126.352 432.545 123.228 432.558C122.312 432.6 108.84 433.271 108.846 426.778ZM121.989 417.073H121.992C121.998 417.758 122.268 418.391 122.719 418.842C123.177 419.286 123.802 419.56 124.484 419.56C125.173 419.56 125.799 419.285 126.249 418.833C126.7 418.382 126.977 417.758 126.977 417.07C126.977 416.386 126.7 415.761 126.249 415.311V415.302H126.244C125.794 414.851 125.173 414.57 124.484 414.57C123.802 414.57 123.169 414.851 122.719 415.302V415.305C122.268 415.755 121.985 416.386 121.985 417.07L121.989 417.073ZM123.26 417.077C123.26 417.403 123.395 417.71 123.62 417.929C123.834 418.143 124.142 418.281 124.484 418.281C124.824 418.281 125.133 418.149 125.353 417.935C125.565 417.714 125.704 417.414 125.701 417.07C125.701 416.727 125.568 416.43 125.353 416.209L125.348 416.204C125.133 415.986 124.824 415.852 124.484 415.852C124.148 415.852 123.84 415.994 123.62 416.206L123.618 416.211C123.402 416.426 123.271 416.733 123.271 417.065L123.274 417.077H123.26ZM113.596 417.073C113.596 420.215 114.532 423.067 116.035 425.141C117.606 427.296 119.802 428.635 122.235 428.637C124.677 428.637 126.872 427.296 128.447 425.141C129.958 423.059 130.886 420.205 130.886 417.062V417.049C130.878 413.914 129.944 411.068 128.438 408.988C126.867 406.842 124.677 405.506 122.248 405.504L122.235 405.506C119.796 405.506 117.613 406.842 116.035 409.005C114.529 411.074 113.596 413.925 113.598 417.065L113.596 417.073ZM115.353 417.073C115.359 419.826 116.166 422.314 117.465 424.114C118.707 425.812 120.398 426.869 122.235 426.869C124.084 426.869 125.775 425.812 127.022 424.1C128.315 422.31 129.12 419.826 129.12 417.062V417.057L129.126 417.049C129.12 414.293 128.315 411.815 127.014 410.025C125.778 408.331 124.084 407.274 122.248 407.269L122.235 407.274C120.395 407.271 118.701 408.329 117.465 410.031C116.172 411.821 115.359 414.306 115.361 417.062V417.073H115.353ZM110.606 426.772C110.606 431.611 123.131 430.787 123.163 430.787L123.228 430.779C125.868 430.779 128.256 429.714 129.992 427.988C131.723 426.248 132.791 423.855 132.791 421.212V412.949C132.791 410.296 131.728 407.899 129.992 406.166C128.264 404.436 125.868 403.37 123.228 403.365L123.166 403.363C123.135 403.363 110.606 402.475 110.606 407.293V426.772Z" fill="#20201F"/>
<path fill-rule="evenodd" clip-rule="evenodd" d="M281.556 454.018H181.528V494.896H281.556V454.018ZM262.065 478.43C260.966 478.43 259.971 477.985 259.252 477.267C258.533 476.544 258.087 475.552 258.087 474.457C258.087 473.362 258.533 472.37 259.252 471.65C259.975 470.929 260.968 470.484 262.065 470.484C263.161 470.484 264.154 470.929 264.874 471.647C265.596 472.366 266.042 473.36 266.042 474.457C266.042 475.554 265.596 476.548 264.877 477.267C264.158 477.985 263.163 478.43 262.065 478.43ZM260.376 476.144C259.945 475.714 259.678 475.117 259.678 474.457C259.678 473.797 259.945 473.2 260.376 472.77C260.806 472.34 261.404 472.073 262.065 472.073C262.725 472.073 263.323 472.34 263.753 472.771C264.184 473.202 264.451 473.799 264.451 474.457C264.451 475.115 264.184 475.712 263.753 476.143C263.321 476.574 262.723 476.841 262.065 476.841C261.406 476.841 260.808 476.574 260.376 476.144ZM274.006 493.726L203.395 492.137C192.79 492.137 184.106 485.051 184.106 474.457C184.106 463.863 192.79 456.777 203.395 456.777L274.006 455.188C275.374 455.188 276.618 455.747 277.518 456.646C278.418 457.549 278.978 458.791 278.978 460.154V488.76C278.978 490.122 278.418 491.363 277.518 492.264C276.612 493.168 275.37 493.726 274.006 493.726ZM203.395 490.15C193.877 490.15 186.095 483.966 186.095 474.457C186.095 464.948 193.877 458.764 203.395 458.764L274.006 457.174C274.825 457.174 275.571 457.511 276.116 458.051C276.654 458.588 276.989 459.334 276.989 460.154V488.76C276.989 489.58 276.654 490.325 276.112 490.867C275.573 491.405 274.828 491.74 274.006 491.74L203.395 490.15ZM181.318 452.072H281.766C282.265 452.072 282.721 452.27 283.051 452.584C283.384 452.898 283.589 453.337 283.589 453.818V495.096C283.589 495.577 283.384 496.016 283.055 496.33C282.725 496.646 282.268 496.842 281.766 496.842H181.318C180.816 496.842 180.359 496.646 180.028 496.33C179.702 496.012 179.495 495.575 179.495 495.096V453.818C179.495 453.339 179.701 452.903 180.028 452.587C180.364 452.269 180.818 452.072 181.318 452.072Z" fill="#20201F"/>
<path d="M137.96 95.7041H135.834V196.799H137.96V95.7041Z" fill="#20201F"/>
<path d="M119.142 120.756V161H109.829V128.23H101.78V120.756H119.142Z" fill="#20201F"/>
<path d="M160.051 110.151V124.524H158.573V111.465H155.185V110.151H160.051ZM171.72 116.988C172.624 117.29 173.315 117.741 173.794 118.344C174.287 118.946 174.533 119.671 174.533 120.52C174.533 121.355 174.308 122.087 173.856 122.717C173.404 123.333 172.754 123.812 171.905 124.154C171.07 124.483 170.085 124.647 168.949 124.647C167.224 124.647 165.869 124.278 164.883 123.538C163.897 122.799 163.405 121.793 163.405 120.52C163.405 119.658 163.637 118.932 164.103 118.344C164.582 117.741 165.273 117.29 166.177 116.988C165.437 116.701 164.876 116.29 164.493 115.756C164.11 115.209 163.918 114.566 163.918 113.826C163.918 112.663 164.37 111.739 165.273 111.054C166.19 110.37 167.415 110.028 168.949 110.028C169.961 110.028 170.844 110.185 171.597 110.5C172.364 110.801 172.959 111.239 173.384 111.814C173.808 112.389 174.02 113.06 174.02 113.826C174.02 114.566 173.822 115.209 173.425 115.756C173.028 116.29 172.46 116.701 171.72 116.988ZM165.396 113.867C165.396 114.661 165.711 115.291 166.341 115.756C166.971 116.222 167.84 116.455 168.949 116.455C170.057 116.455 170.927 116.222 171.556 115.756C172.2 115.291 172.521 114.668 172.521 113.888C172.521 113.08 172.193 112.444 171.536 111.978C170.892 111.513 170.03 111.28 168.949 111.28C167.853 111.28 166.984 111.513 166.341 111.978C165.711 112.444 165.396 113.073 165.396 113.867ZM168.949 123.395C170.222 123.395 171.214 123.135 171.926 122.614C172.651 122.094 173.014 121.389 173.014 120.499C173.014 119.61 172.651 118.912 171.926 118.405C171.214 117.885 170.222 117.625 168.949 117.625C167.689 117.625 166.697 117.885 165.971 118.405C165.259 118.912 164.904 119.61 164.904 120.499C164.904 121.403 165.259 122.115 165.971 122.635C166.683 123.141 167.675 123.395 168.949 123.395ZM177.89 124.627C177.589 124.627 177.329 124.517 177.109 124.298C176.904 124.079 176.802 123.812 176.802 123.497C176.802 123.182 176.904 122.922 177.109 122.717C177.329 122.498 177.589 122.389 177.89 122.389C178.191 122.389 178.451 122.498 178.67 122.717C178.889 122.922 178.999 123.182 178.999 123.497C178.999 123.812 178.889 124.079 178.67 124.298C178.451 124.517 178.191 124.627 177.89 124.627ZM191.147 123.21V124.524H181.066V123.477L187.041 117.625C187.794 116.886 188.3 116.249 188.56 115.715C188.834 115.168 188.971 114.62 188.971 114.073C188.971 113.224 188.677 112.567 188.088 112.102C187.513 111.622 186.685 111.383 185.603 111.383C183.92 111.383 182.613 111.917 181.682 112.984L180.635 112.081C181.196 111.424 181.908 110.918 182.77 110.562C183.646 110.206 184.632 110.028 185.727 110.028C187.191 110.028 188.348 110.377 189.197 111.075C190.059 111.759 190.49 112.704 190.49 113.908C190.49 114.648 190.326 115.359 189.998 116.044C189.669 116.728 189.046 117.515 188.129 118.405L183.242 123.21H191.147ZM196.781 116.044C198.861 116.044 200.374 116.42 201.318 117.173C202.277 117.912 202.756 118.953 202.756 120.294C202.756 121.129 202.557 121.875 202.16 122.532C201.777 123.189 201.195 123.709 200.415 124.093C199.635 124.462 198.677 124.647 197.54 124.647C196.514 124.647 195.535 124.483 194.604 124.154C193.687 123.812 192.948 123.36 192.387 122.799L193.105 121.629C193.584 122.122 194.214 122.525 194.994 122.84C195.775 123.141 196.616 123.292 197.52 123.292C198.711 123.292 199.628 123.025 200.271 122.491C200.928 121.957 201.257 121.246 201.257 120.356C201.257 119.37 200.887 118.624 200.148 118.118C199.423 117.611 198.191 117.358 196.452 117.358H193.393L194.132 110.151H201.996V111.465H195.426L194.933 116.044H196.781Z" fill="#20201F"/>
<path d="M164.285 150.032H161.41V153.81H159.932V150.032H151.821V148.964L159.439 139.437H161.082L153.731 148.718H159.973V145.392H161.41V148.718H164.285V150.032ZM171.371 153.933C170.262 153.933 169.27 153.639 168.394 153.05C167.532 152.462 166.854 151.62 166.361 150.525C165.882 149.416 165.643 148.116 165.643 146.624C165.643 145.132 165.882 143.838 166.361 142.743C166.854 141.634 167.532 140.785 168.394 140.197C169.27 139.608 170.262 139.314 171.371 139.314C172.48 139.314 173.466 139.608 174.328 140.197C175.204 140.785 175.888 141.634 176.381 142.743C176.874 143.838 177.12 145.132 177.12 146.624C177.12 148.116 176.874 149.416 176.381 150.525C175.888 151.62 175.204 152.462 174.328 153.05C173.466 153.639 172.48 153.933 171.371 153.933ZM171.371 152.578C172.206 152.578 172.939 152.345 173.568 151.88C174.212 151.415 174.711 150.737 175.067 149.847C175.423 148.957 175.601 147.883 175.601 146.624C175.601 145.364 175.423 144.29 175.067 143.4C174.711 142.51 174.212 141.833 173.568 141.367C172.939 140.902 172.206 140.669 171.371 140.669C170.536 140.669 169.797 140.902 169.154 141.367C168.524 141.833 168.031 142.51 167.675 143.4C167.319 144.29 167.142 145.364 167.142 146.624C167.142 147.883 167.319 148.957 167.675 149.847C168.031 150.737 168.524 151.415 169.154 151.88C169.797 152.345 170.536 152.578 171.371 152.578ZM180.126 153.913C179.825 153.913 179.565 153.803 179.346 153.584C179.14 153.365 179.038 153.098 179.038 152.783C179.038 152.469 179.14 152.209 179.346 152.003C179.565 151.784 179.825 151.675 180.126 151.675C180.427 151.675 180.687 151.784 180.906 152.003C181.125 152.209 181.235 152.469 181.235 152.783C181.235 153.098 181.125 153.365 180.906 153.584C180.687 153.803 180.427 153.913 180.126 153.913ZM189.102 145.207C190.047 145.207 190.882 145.385 191.607 145.741C192.346 146.097 192.921 146.603 193.332 147.26C193.743 147.903 193.948 148.656 193.948 149.519C193.948 150.395 193.736 151.168 193.311 151.839C192.887 152.51 192.298 153.03 191.546 153.399C190.806 153.755 189.971 153.933 189.041 153.933C187.138 153.933 185.68 153.31 184.667 152.065C183.654 150.805 183.148 149.033 183.148 146.747C183.148 145.145 183.421 143.79 183.969 142.681C184.516 141.573 185.283 140.738 186.269 140.176C187.254 139.601 188.404 139.314 189.718 139.314C191.142 139.314 192.278 139.574 193.127 140.094L192.531 141.285C191.847 140.833 190.916 140.607 189.739 140.607C188.151 140.607 186.905 141.114 186.002 142.127C185.098 143.126 184.647 144.584 184.647 146.5C184.647 146.843 184.667 147.233 184.708 147.671C185.064 146.891 185.632 146.288 186.412 145.864C187.193 145.426 188.089 145.207 189.102 145.207ZM188.979 152.681C190.019 152.681 190.861 152.4 191.504 151.839C192.162 151.264 192.49 150.504 192.49 149.56C192.49 148.615 192.162 147.862 191.504 147.301C190.861 146.74 189.985 146.459 188.876 146.459C188.151 146.459 187.507 146.596 186.946 146.87C186.399 147.144 185.967 147.52 185.653 147.999C185.338 148.478 185.18 149.012 185.18 149.601C185.18 150.148 185.324 150.655 185.612 151.12C185.913 151.586 186.351 151.962 186.926 152.25C187.501 152.537 188.185 152.681 188.979 152.681ZM200.547 145.597C202.052 145.679 203.195 146.09 203.976 146.829C204.77 147.554 205.166 148.506 205.166 149.683C205.166 150.504 204.968 151.237 204.571 151.88C204.174 152.51 203.585 153.009 202.805 153.379C202.025 153.748 201.074 153.933 199.951 153.933C198.911 153.933 197.925 153.769 196.994 153.44C196.077 153.098 195.338 152.647 194.777 152.085L195.496 150.915C195.975 151.408 196.611 151.812 197.405 152.126C198.199 152.428 199.048 152.578 199.951 152.578C201.128 152.578 202.039 152.325 202.682 151.818C203.325 151.298 203.647 150.586 203.647 149.683C203.647 148.793 203.325 148.095 202.682 147.589C202.039 147.082 201.067 146.829 199.766 146.829H198.74V145.741L202.723 140.751H195.372V139.437H204.612V140.484L200.547 145.597Z" fill="#20201F"/>
<path d="M163.878 179.318H161.003V183.096H159.525V179.318H151.415V178.25L159.032 168.723H160.675L153.324 178.004H159.566V174.678H161.003V178.004H163.878V179.318ZM174.97 181.782V183.096H164.889V182.049L170.864 176.197C171.617 175.458 172.123 174.821 172.383 174.288C172.657 173.74 172.794 173.193 172.794 172.645C172.794 171.796 172.5 171.139 171.911 170.674C171.336 170.195 170.508 169.955 169.426 169.955C167.743 169.955 166.436 170.489 165.505 171.557L164.458 170.653C165.019 169.996 165.731 169.49 166.593 169.134C167.469 168.778 168.455 168.6 169.55 168.6C171.014 168.6 172.171 168.949 173.02 169.647C173.882 170.332 174.313 171.276 174.313 172.481C174.313 173.22 174.149 173.932 173.821 174.616C173.492 175.301 172.869 176.088 171.952 176.977L167.065 181.782H174.97ZM178.135 183.199C177.834 183.199 177.574 183.089 177.355 182.87C177.149 182.651 177.047 182.384 177.047 182.07C177.047 181.755 177.149 181.495 177.355 181.289C177.574 181.07 177.834 180.961 178.135 180.961C178.436 180.961 178.696 181.07 178.915 181.289C179.134 181.495 179.244 181.755 179.244 182.07C179.244 182.384 179.134 182.651 178.915 182.87C178.696 183.089 178.436 183.199 178.135 183.199ZM189.812 175.561C190.715 175.862 191.406 176.314 191.885 176.916C192.378 177.518 192.625 178.244 192.625 179.092C192.625 179.927 192.399 180.66 191.947 181.289C191.495 181.905 190.845 182.384 189.996 182.727C189.161 183.055 188.176 183.219 187.04 183.219C185.315 183.219 183.96 182.85 182.974 182.111C181.989 181.371 181.496 180.365 181.496 179.092C181.496 178.23 181.728 177.504 182.194 176.916C182.673 176.314 183.364 175.862 184.268 175.561C183.529 175.273 182.967 174.863 182.584 174.329C182.201 173.781 182.009 173.138 182.009 172.399C182.009 171.235 182.461 170.311 183.364 169.627C184.281 168.942 185.507 168.6 187.04 168.6C188.053 168.6 188.935 168.757 189.688 169.072C190.455 169.373 191.05 169.811 191.475 170.386C191.899 170.961 192.111 171.632 192.111 172.399C192.111 173.138 191.913 173.781 191.516 174.329C191.119 174.863 190.551 175.273 189.812 175.561ZM183.487 172.44C183.487 173.234 183.802 173.863 184.432 174.329C185.062 174.794 185.931 175.027 187.04 175.027C188.148 175.027 189.018 174.794 189.647 174.329C190.291 173.863 190.612 173.24 190.612 172.46C190.612 171.653 190.284 171.016 189.627 170.551C188.983 170.085 188.121 169.853 187.04 169.853C185.945 169.853 185.075 170.085 184.432 170.551C183.802 171.016 183.487 171.646 183.487 172.44ZM187.04 181.967C188.313 181.967 189.305 181.707 190.017 181.187C190.742 180.666 191.105 179.962 191.105 179.072C191.105 178.182 190.742 177.484 190.017 176.977C189.305 176.457 188.313 176.197 187.04 176.197C185.78 176.197 184.788 176.457 184.062 176.977C183.351 177.484 182.995 178.182 182.995 179.072C182.995 179.975 183.351 180.687 184.062 181.207C184.774 181.714 185.767 181.967 187.04 181.967ZM206.889 179.318H204.014V183.096H202.536V179.318H194.425V178.25L202.043 168.723H203.685L196.335 178.004H202.577V174.678H204.014V178.004H206.889V179.318Z" fill="#20201F"/>
<path d="M257.248 143.75H251.581V152.168H248.398V141.122H257.248V143.75ZM263.659 152.333C262.495 152.333 261.448 152.093 260.517 151.614C259.6 151.121 258.881 150.444 258.361 149.581C257.841 148.719 257.581 147.74 257.581 146.645C257.581 145.55 257.841 144.571 258.361 143.709C258.881 142.847 259.6 142.176 260.517 141.697C261.448 141.204 262.495 140.958 263.659 140.958C264.822 140.958 265.862 141.204 266.78 141.697C267.697 142.176 268.415 142.847 268.935 143.709C269.456 144.571 269.716 145.55 269.716 146.645C269.716 147.74 269.456 148.719 268.935 149.581C268.415 150.444 267.697 151.121 266.78 151.614C265.862 152.093 264.822 152.333 263.659 152.333ZM263.659 149.705C264.48 149.705 265.151 149.431 265.671 148.883C266.205 148.322 266.472 147.576 266.472 146.645C266.472 145.714 266.205 144.975 265.671 144.428C265.151 143.866 264.48 143.586 263.659 143.586C262.837 143.586 262.16 143.866 261.626 144.428C261.092 144.975 260.825 145.714 260.825 146.645C260.825 147.576 261.092 148.322 261.626 148.883C262.16 149.431 262.837 149.705 263.659 149.705ZM277.175 152.333C275.998 152.333 274.937 152.093 273.993 151.614C273.062 151.121 272.329 150.444 271.796 149.581C271.275 148.719 271.015 147.74 271.015 146.645C271.015 145.55 271.275 144.571 271.796 143.709C272.329 142.847 273.062 142.176 273.993 141.697C274.937 141.204 275.998 140.958 277.175 140.958C278.339 140.958 279.352 141.204 280.214 141.697C281.09 142.176 281.727 142.867 282.124 143.771L279.639 145.105C279.064 144.092 278.236 143.586 277.155 143.586C276.32 143.586 275.628 143.86 275.081 144.407C274.533 144.955 274.26 145.701 274.26 146.645C274.26 147.59 274.533 148.336 275.081 148.883C275.628 149.431 276.32 149.705 277.155 149.705C278.25 149.705 279.078 149.198 279.639 148.185L282.124 149.54C281.727 150.416 281.09 151.101 280.214 151.594C279.352 152.086 278.339 152.333 277.175 152.333ZM293.311 143.75H289.574V152.168H286.391V143.75H282.654V141.122H293.311V143.75ZM295.018 141.122H298.201V147.692L303.58 141.122H306.517V152.168H303.334V145.598L297.975 152.168H295.018V141.122ZM309.596 141.122H312.778V145.434H317.583V141.122H320.786V152.168H317.583V148.041H312.778V152.168H309.596V141.122ZM328.144 140.958C329.855 140.958 331.169 141.368 332.086 142.19C333.003 142.997 333.462 144.222 333.462 145.865V152.168H330.464V150.793C329.862 151.819 328.739 152.333 327.097 152.333C326.248 152.333 325.509 152.189 324.879 151.902C324.263 151.614 323.791 151.217 323.462 150.711C323.134 150.204 322.969 149.629 322.969 148.986C322.969 147.959 323.353 147.152 324.119 146.563C324.9 145.974 326.097 145.68 327.713 145.68H330.259C330.259 144.982 330.046 144.448 329.622 144.079C329.198 143.695 328.561 143.504 327.713 143.504C327.124 143.504 326.542 143.599 325.967 143.791C325.406 143.969 324.927 144.215 324.53 144.53L323.38 142.292C323.982 141.868 324.701 141.539 325.536 141.307C326.385 141.074 327.254 140.958 328.144 140.958ZM327.897 150.177C328.445 150.177 328.931 150.054 329.355 149.807C329.78 149.547 330.081 149.171 330.259 148.678V147.549H328.062C326.748 147.549 326.09 147.98 326.09 148.842C326.09 149.253 326.248 149.581 326.563 149.828C326.891 150.06 327.336 150.177 327.897 150.177ZM346.059 141.122V152.168H343.205V149.006H340.844L338.749 152.168H335.341L337.866 148.555C337.1 148.254 336.511 147.822 336.101 147.261C335.704 146.686 335.505 145.995 335.505 145.187C335.505 143.887 335.97 142.888 336.901 142.19C337.846 141.478 339.139 141.122 340.782 141.122H346.059ZM340.844 143.729C340.159 143.729 339.639 143.853 339.283 144.099C338.941 144.345 338.77 144.742 338.77 145.29C338.77 145.838 338.934 146.241 339.263 146.501C339.605 146.748 340.118 146.871 340.803 146.871H343.205V143.729H340.844Z" fill="#20201F"/>
<path d="M277.635 167.081V181.454H274.309V169.75H271.434V167.081H277.635ZM289.967 173.898C290.679 174.253 291.22 174.719 291.589 175.294C291.973 175.869 292.164 176.533 292.164 177.285C292.164 178.175 291.911 178.955 291.404 179.626C290.898 180.283 290.186 180.797 289.269 181.166C288.352 181.522 287.291 181.7 286.086 181.7C284.882 181.7 283.821 181.522 282.904 181.166C282 180.797 281.296 180.283 280.789 179.626C280.296 178.955 280.05 178.175 280.05 177.285C280.05 176.533 280.235 175.869 280.604 175.294C280.988 174.719 281.528 174.253 282.226 173.898C281.692 173.569 281.282 173.158 280.994 172.666C280.707 172.159 280.563 171.584 280.563 170.941C280.563 170.106 280.796 169.38 281.261 168.764C281.727 168.148 282.377 167.676 283.212 167.348C284.047 167.005 285.005 166.834 286.086 166.834C287.182 166.834 288.147 167.005 288.982 167.348C289.83 167.676 290.487 168.148 290.953 168.764C291.418 169.38 291.651 170.106 291.651 170.941C291.651 171.584 291.507 172.159 291.22 172.666C290.932 173.158 290.515 173.569 289.967 173.898ZM286.086 169.278C285.416 169.278 284.875 169.442 284.464 169.77C284.067 170.085 283.869 170.523 283.869 171.085C283.869 171.632 284.067 172.063 284.464 172.378C284.861 172.693 285.402 172.85 286.086 172.85C286.771 172.85 287.318 172.693 287.729 172.378C288.14 172.063 288.345 171.632 288.345 171.085C288.345 170.523 288.14 170.085 287.729 169.77C287.318 169.442 286.771 169.278 286.086 169.278ZM286.086 179.257C286.921 179.257 287.579 179.072 288.058 178.702C288.55 178.319 288.797 177.812 288.797 177.183C288.797 176.553 288.55 176.053 288.058 175.684C287.579 175.314 286.921 175.13 286.086 175.13C285.265 175.13 284.615 175.314 284.136 175.684C283.657 176.053 283.417 176.553 283.417 177.183C283.417 177.826 283.657 178.333 284.136 178.702C284.615 179.072 285.265 179.257 286.086 179.257ZM295.776 181.618C295.215 181.618 294.743 181.426 294.36 181.043C293.976 180.66 293.785 180.181 293.785 179.606C293.785 179.017 293.976 178.545 294.36 178.189C294.743 177.819 295.215 177.635 295.776 177.635C296.338 177.635 296.81 177.819 297.193 178.189C297.576 178.545 297.768 179.017 297.768 179.606C297.768 180.181 297.576 180.66 297.193 181.043C296.81 181.426 296.338 181.618 295.776 181.618ZM310.2 178.743V181.454H299.338V179.298L304.882 174.062C305.471 173.501 305.868 173.021 306.073 172.625C306.279 172.214 306.381 171.81 306.381 171.413C306.381 170.838 306.183 170.4 305.786 170.099C305.403 169.784 304.834 169.627 304.082 169.627C303.452 169.627 302.884 169.75 302.377 169.996C301.871 170.229 301.447 170.585 301.104 171.064L298.681 169.504C299.243 168.669 300.016 168.018 301.002 167.553C301.987 167.074 303.117 166.834 304.39 166.834C305.457 166.834 306.388 167.012 307.182 167.368C307.99 167.71 308.612 168.203 309.051 168.846C309.502 169.476 309.728 170.222 309.728 171.085C309.728 171.865 309.564 172.597 309.235 173.282C308.907 173.966 308.27 174.746 307.326 175.622L304.02 178.743H310.2ZM316.501 172.481C318.527 172.481 320.019 172.885 320.977 173.692C321.949 174.5 322.435 175.581 322.435 176.936C322.435 177.812 322.216 178.613 321.778 179.339C321.34 180.051 320.669 180.625 319.765 181.063C318.876 181.488 317.774 181.7 316.46 181.7C315.447 181.7 314.447 181.57 313.462 181.31C312.49 181.036 311.662 180.653 310.977 180.16L312.291 177.614C312.839 178.025 313.469 178.346 314.181 178.579C314.892 178.798 315.625 178.908 316.378 178.908C317.213 178.908 317.87 178.743 318.349 178.415C318.828 178.086 319.067 177.628 319.067 177.039C319.067 176.423 318.814 175.958 318.308 175.643C317.815 175.328 316.952 175.171 315.72 175.171H312.045L312.784 167.081H321.552V169.75H315.556L315.33 172.481H316.501Z" fill="#20201F"/>
<path d="M357.139 362.061H355.475V366.25H352.272V355.203H355.475V359.494H357.2L360.198 355.203H363.606L359.746 360.5L363.873 366.25H360.095L357.139 362.061ZM375.892 355.203L370.902 366.927C370.396 368.2 369.766 369.097 369.013 369.617C368.274 370.137 367.378 370.397 366.324 370.397C365.749 370.397 365.181 370.308 364.619 370.13C364.058 369.952 363.6 369.706 363.244 369.391L364.414 367.112C364.66 367.331 364.941 367.502 365.256 367.625C365.584 367.748 365.906 367.81 366.221 367.81C366.659 367.81 367.015 367.7 367.289 367.481C367.562 367.276 367.809 366.927 368.028 366.434L368.069 366.332L363.285 355.203H366.59L369.691 362.697L372.812 355.203H375.892ZM383.756 366.25L381.333 362.862L378.828 366.25H375.337L379.587 360.685L375.481 355.203H379.074L381.415 358.427L383.817 355.203H387.226L383.119 360.603L387.39 366.25H383.756ZM388.967 355.203H392.149V359.515H396.954V355.203H400.157V366.25H396.954V362.122H392.149V366.25H388.967V355.203ZM413.038 355.203V366.25H410.184V363.087H407.823L405.728 366.25H402.32L404.845 362.636C404.079 362.335 403.49 361.903 403.08 361.342C402.683 360.767 402.484 360.076 402.484 359.268C402.484 357.968 402.95 356.969 403.88 356.271C404.825 355.559 406.119 355.203 407.761 355.203H413.038ZM407.823 357.811C407.138 357.811 406.618 357.934 406.262 358.18C405.92 358.427 405.749 358.823 405.749 359.371C405.749 359.919 405.913 360.322 406.242 360.582C406.584 360.829 407.097 360.952 407.782 360.952H410.184V357.811H407.823Z" fill="#20201F"/>
<path d="M368.041 381.163V395.536H364.715V383.832H361.841V381.163H368.041ZM376.082 381.163V395.536H372.756V383.832H369.881V381.163H376.082ZM380.468 395.7C379.907 395.7 379.434 395.508 379.051 395.125C378.668 394.742 378.476 394.263 378.476 393.688C378.476 393.099 378.668 392.627 379.051 392.271C379.434 391.901 379.907 391.717 380.468 391.717C381.029 391.717 381.501 391.901 381.885 392.271C382.268 392.627 382.46 393.099 382.46 393.688C382.46 394.263 382.268 394.742 381.885 395.125C381.501 395.508 381.029 395.7 380.468 395.7ZM389.176 381.163V395.536H385.849V383.832H382.975V381.163H389.176ZM402.925 381.163V383.319L397.586 395.536H393.972L399.126 383.873H394.362V386.214H391.406V381.163H402.925Z" fill="#20201F"/>
<path d="M174.513 318.732L171.507 314.772L168.483 318.732H167.043L170.787 313.872L167.223 309.264H168.663L171.507 312.972L174.351 309.264H175.755L172.191 313.872L175.971 318.732H174.513ZM181.638 318.822C180.726 318.822 179.904 318.618 179.172 318.21C178.44 317.79 177.864 317.214 177.444 316.482C177.024 315.75 176.814 314.922 176.814 313.998C176.814 313.074 177.024 312.246 177.444 311.514C177.864 310.782 178.44 310.212 179.172 309.804C179.904 309.396 180.726 309.192 181.638 309.192C182.55 309.192 183.372 309.396 184.104 309.804C184.836 310.212 185.406 310.782 185.814 311.514C186.234 312.246 186.444 313.074 186.444 313.998C186.444 314.922 186.234 315.75 185.814 316.482C185.406 317.214 184.836 317.79 184.104 318.21C183.372 318.618 182.55 318.822 181.638 318.822ZM181.638 317.688C182.31 317.688 182.91 317.538 183.438 317.238C183.978 316.926 184.398 316.488 184.698 315.924C184.998 315.36 185.148 314.718 185.148 313.998C185.148 313.278 184.998 312.636 184.698 312.072C184.398 311.508 183.978 311.076 183.438 310.776C182.91 310.464 182.31 310.308 181.638 310.308C180.966 310.308 180.36 310.464 179.82 310.776C179.292 311.076 178.872 311.508 178.56 312.072C178.26 312.636 178.11 313.278 178.11 313.998C178.11 314.718 178.26 315.36 178.56 315.924C178.872 316.488 179.292 316.926 179.82 317.238C180.36 317.538 180.966 317.688 181.638 317.688ZM196.863 309.264V318.732H195.585V310.398H191.049L190.923 312.738C190.827 314.706 190.599 316.218 190.239 317.274C189.879 318.33 189.237 318.858 188.313 318.858C188.061 318.858 187.755 318.81 187.395 318.714L187.485 317.616C187.701 317.664 187.851 317.688 187.935 317.688C188.427 317.688 188.799 317.46 189.051 317.004C189.303 316.548 189.471 315.984 189.555 315.312C189.639 314.64 189.711 313.752 189.771 312.648L189.933 309.264H196.863ZM208.236 309.264V318.732H206.958V310.398H202.422L202.296 312.738C202.2 314.706 201.972 316.218 201.612 317.274C201.252 318.33 200.61 318.858 199.686 318.858C199.434 318.858 199.128 318.81 198.768 318.714L198.858 317.616C199.074 317.664 199.224 317.688 199.308 317.688C199.8 317.688 200.172 317.46 200.424 317.004C200.676 316.548 200.844 315.984 200.928 315.312C201.012 314.64 201.084 313.752 201.144 312.648L201.306 309.264H208.236Z" fill="#20201F"/>
<path d="M175.963 340.477C176.791 340.477 177.523 340.633 178.159 340.945C178.807 341.257 179.311 341.701 179.671 342.277C180.031 342.841 180.211 343.501 180.211 344.257C180.211 345.025 180.025 345.703 179.653 346.291C179.281 346.879 178.765 347.335 178.105 347.659C177.457 347.971 176.725 348.127 175.909 348.127C174.241 348.127 172.963 347.581 172.075 346.489C171.187 345.385 170.743 343.831 170.743 341.827C170.743 340.423 170.983 339.235 171.463 338.263C171.943 337.291 172.615 336.559 173.479 336.067C174.343 335.563 175.351 335.311 176.503 335.311C177.751 335.311 178.747 335.539 179.491 335.995L178.969 337.039C178.369 336.643 177.553 336.445 176.521 336.445C175.129 336.445 174.037 336.889 173.245 337.777C172.453 338.653 172.057 339.931 172.057 341.611C172.057 341.911 172.075 342.253 172.111 342.637C172.423 341.953 172.921 341.425 173.605 341.053C174.289 340.669 175.075 340.477 175.963 340.477ZM175.855 347.029C176.767 347.029 177.505 346.783 178.069 346.291C178.645 345.787 178.933 345.121 178.933 344.293C178.933 343.465 178.645 342.805 178.069 342.313C177.505 341.821 176.737 341.575 175.765 341.575C175.129 341.575 174.565 341.695 174.073 341.935C173.593 342.175 173.215 342.505 172.939 342.925C172.663 343.345 172.525 343.813 172.525 344.329C172.525 344.809 172.651 345.253 172.903 345.661C173.167 346.069 173.551 346.399 174.055 346.651C174.559 346.903 175.159 347.029 175.855 347.029ZM182.859 348.109C182.595 348.109 182.367 348.013 182.175 347.821C181.995 347.629 181.905 347.395 181.905 347.119C181.905 346.843 181.995 346.615 182.175 346.435C182.367 346.243 182.595 346.147 182.859 346.147C183.123 346.147 183.351 346.243 183.543 346.435C183.735 346.615 183.831 346.843 183.831 347.119C183.831 347.395 183.735 347.629 183.543 347.821C183.351 348.013 183.123 348.109 182.859 348.109ZM194.481 346.867V348.019H185.643V347.101L190.881 341.971C191.541 341.323 191.985 340.765 192.213 340.297C192.453 339.817 192.573 339.337 192.573 338.857C192.573 338.113 192.315 337.537 191.799 337.129C191.295 336.709 190.569 336.499 189.621 336.499C188.145 336.499 186.999 336.967 186.183 337.903L185.265 337.111C185.757 336.535 186.381 336.091 187.137 335.779C187.905 335.467 188.769 335.311 189.729 335.311C191.013 335.311 192.027 335.617 192.771 336.229C193.527 336.829 193.905 337.657 193.905 338.713C193.905 339.361 193.761 339.985 193.473 340.585C193.185 341.185 192.639 341.875 191.835 342.655L187.551 346.867H194.481ZM201.06 348.127C200.088 348.127 199.218 347.869 198.45 347.353C197.694 346.837 197.1 346.099 196.668 345.139C196.248 344.167 196.038 343.027 196.038 341.719C196.038 340.411 196.248 339.277 196.668 338.317C197.1 337.345 197.694 336.601 198.45 336.085C199.218 335.569 200.088 335.311 201.06 335.311C202.032 335.311 202.896 335.569 203.652 336.085C204.42 336.601 205.02 337.345 205.452 338.317C205.884 339.277 206.1 340.411 206.1 341.719C206.1 343.027 205.884 344.167 205.452 345.139C205.02 346.099 204.42 346.837 203.652 347.353C202.896 347.869 202.032 348.127 201.06 348.127ZM201.06 346.939C201.792 346.939 202.434 346.735 202.986 346.327C203.55 345.919 203.988 345.325 204.3 344.545C204.612 343.765 204.768 342.823 204.768 341.719C204.768 340.615 204.612 339.673 204.3 338.893C203.988 338.113 203.55 337.519 202.986 337.111C202.434 336.703 201.792 336.499 201.06 336.499C200.328 336.499 199.68 336.703 199.116 337.111C198.564 337.519 198.132 338.113 197.82 338.893C197.508 339.673 197.352 340.615 197.352 341.719C197.352 342.823 197.508 343.765 197.82 344.545C198.132 345.325 198.564 345.919 199.116 346.327C199.68 346.735 200.328 346.939 201.06 346.939Z" fill="#20201F"/>
<path d="M459.209 61.9486V71.4167H457.931V63.0826H453.394L453.268 65.4226C453.172 67.3907 452.944 68.9027 452.584 69.9587C452.224 71.0147 451.582 71.5428 450.658 71.5428C450.406 71.5428 450.1 71.4947 449.74 71.3987L449.83 70.3007C450.046 70.3487 450.196 70.3727 450.28 70.3727C450.772 70.3727 451.144 70.1447 451.396 69.6887C451.648 69.2327 451.816 68.6687 451.9 67.9967C451.984 67.3247 452.056 66.4367 452.116 65.3326L452.278 61.9486H459.209ZM466.748 71.5067C465.836 71.5067 465.014 71.3027 464.282 70.8947C463.55 70.4747 462.974 69.8987 462.554 69.1667C462.134 68.4347 461.924 67.6067 461.924 66.6827C461.924 65.7587 462.134 64.9306 462.554 64.1986C462.974 63.4666 463.55 62.8966 464.282 62.4886C465.014 62.0806 465.836 61.8766 466.748 61.8766C467.66 61.8766 468.482 62.0806 469.214 62.4886C469.946 62.8966 470.516 63.4666 470.924 64.1986C471.344 64.9306 471.554 65.7587 471.554 66.6827C471.554 67.6067 471.344 68.4347 470.924 69.1667C470.516 69.8987 469.946 70.4747 469.214 70.8947C468.482 71.3027 467.66 71.5067 466.748 71.5067ZM466.748 70.3727C467.42 70.3727 468.02 70.2227 468.548 69.9227C469.088 69.6107 469.508 69.1727 469.808 68.6087C470.108 68.0447 470.258 67.4027 470.258 66.6827C470.258 65.9627 470.108 65.3206 469.808 64.7566C469.508 64.1926 469.088 63.7606 468.548 63.4606C468.02 63.1486 467.42 62.9926 466.748 62.9926C466.076 62.9926 465.47 63.1486 464.93 63.4606C464.402 63.7606 463.982 64.1926 463.67 64.7566C463.37 65.3206 463.22 65.9627 463.22 66.6827C463.22 67.4027 463.37 68.0447 463.67 68.6087C463.982 69.1727 464.402 69.6107 464.93 69.9227C465.47 70.2227 466.076 70.3727 466.748 70.3727ZM483.467 70.3007V73.7028H482.261V71.4167H473.782V73.7028H472.576V70.3007H473.116C473.752 70.2647 474.184 69.7967 474.412 68.8967C474.64 67.9967 474.796 66.7367 474.88 65.1166L475.006 61.9486H481.991V70.3007H483.467ZM476.051 65.1886C475.99 66.5327 475.876 67.6427 475.708 68.5187C475.54 69.3827 475.24 69.9767 474.808 70.3007H480.713V63.0826H476.159L476.051 65.1886ZM494.255 67.2047H492.203V71.4167H490.925V67.2047H488.873L485.975 71.4167H484.445L487.847 66.5387L484.715 61.9486H486.101L488.873 66.1067H490.925V61.9486H492.203V66.1067H494.255L497.045 61.9486H498.431L495.299 66.5567L498.701 71.4167H497.171L494.255 67.2047ZM500.829 61.9486H502.107V69.4727L508.425 61.9486H509.559V71.4167H508.281V63.8926L501.981 71.4167H500.829V61.9486ZM520.494 61.9486V71.4167H519.324V68.2847H516.353H515.993L513.797 71.4167H512.411L514.769 68.1047C514.037 67.9007 513.473 67.5527 513.077 67.0607C512.681 66.5687 512.483 65.9447 512.483 65.1886C512.483 64.1326 512.843 63.3286 513.563 62.7766C514.283 62.2246 515.267 61.9486 516.515 61.9486H520.494ZM513.779 65.2246C513.779 66.6287 514.673 67.3307 516.461 67.3307H519.324V63.0826H516.551C514.703 63.0826 513.779 63.7966 513.779 65.2246Z" fill="#20201F"/>
<path d="M480.728 97.3908H478.208V100.703H476.912V97.3908H469.802V96.4548L476.48 88.1027H477.92L471.476 96.2388H476.948V93.3228H478.208V96.2388H480.728V97.3908ZM483.242 100.793C482.978 100.793 482.75 100.697 482.558 100.505C482.378 100.313 482.288 100.079 482.288 99.8029C482.288 99.5269 482.378 99.2989 482.558 99.1189C482.75 98.9269 482.978 98.8308 483.242 98.8308C483.506 98.8308 483.734 98.9269 483.926 99.1189C484.118 99.2989 484.214 99.5269 484.214 99.8029C484.214 100.079 484.118 100.313 483.926 100.505C483.734 100.697 483.506 100.793 483.242 100.793ZM496.566 97.3908H494.046V100.703H492.75V97.3908H485.64V96.4548L492.318 88.1027H493.758L487.314 96.2388H492.786V93.3228H494.046V96.2388H496.566V97.3908ZM500.791 88.1027V100.703H499.495V89.2547H496.525V88.1027H500.791Z" fill="#20201F"/>
<path d="M222.634 419.713C224.458 419.713 225.784 420.043 226.612 420.703C227.452 421.351 227.872 422.263 227.872 423.439C227.872 424.171 227.698 424.825 227.35 425.401C227.014 425.977 226.504 426.433 225.82 426.769C225.136 427.093 224.296 427.255 223.3 427.255C222.4 427.255 221.542 427.111 220.726 426.823C219.922 426.523 219.274 426.127 218.782 425.635L219.412 424.609C219.832 425.041 220.384 425.395 221.068 425.671C221.752 425.935 222.49 426.067 223.282 426.067C224.326 426.067 225.13 425.833 225.694 425.365C226.27 424.897 226.558 424.273 226.558 423.493C226.558 422.629 226.234 421.975 225.586 421.531C224.95 421.087 223.87 420.865 222.346 420.865H219.664L220.312 414.547H227.206V415.699H221.446L221.014 419.713H222.634ZM230.49 427.237C230.226 427.237 229.998 427.141 229.806 426.949C229.626 426.757 229.536 426.523 229.536 426.247C229.536 425.971 229.626 425.743 229.806 425.563C229.998 425.371 230.226 425.275 230.49 425.275C230.754 425.275 230.982 425.371 231.174 425.563C231.366 425.743 231.462 425.971 231.462 426.247C231.462 426.523 231.366 426.757 231.174 426.949C230.982 427.141 230.754 427.237 230.49 427.237ZM238.161 427.255C237.189 427.255 236.319 426.997 235.551 426.481C234.795 425.965 234.201 425.227 233.769 424.267C233.349 423.295 233.139 422.155 233.139 420.847C233.139 419.539 233.349 418.405 233.769 417.445C234.201 416.473 234.795 415.729 235.551 415.213C236.319 414.697 237.189 414.439 238.161 414.439C239.133 414.439 239.997 414.697 240.753 415.213C241.521 415.729 242.121 416.473 242.553 417.445C242.985 418.405 243.201 419.539 243.201 420.847C243.201 422.155 242.985 423.295 242.553 424.267C242.121 425.227 241.521 425.965 240.753 426.481C239.997 426.997 239.133 427.255 238.161 427.255ZM238.161 426.067C238.893 426.067 239.535 425.863 240.087 425.455C240.651 425.047 241.089 424.453 241.401 423.673C241.713 422.893 241.869 421.951 241.869 420.847C241.869 419.743 241.713 418.801 241.401 418.021C241.089 417.241 240.651 416.647 240.087 416.239C239.535 415.831 238.893 415.627 238.161 415.627C237.429 415.627 236.781 415.831 236.217 416.239C235.665 416.647 235.233 417.241 234.921 418.021C234.609 418.801 234.453 419.743 234.453 420.847C234.453 421.951 234.609 422.893 234.921 423.673C235.233 424.453 235.665 425.047 236.217 425.455C236.781 425.863 237.429 426.067 238.161 426.067ZM248.513 414.547V427.147H247.217V415.699H244.247V414.547H248.513Z" fill="#20201F"/>
</g>
<defs>
<clipPath id="clip0_2384_28740">
<rect width="473.704" height="478.196" fill="white" transform="translate(63 36)"/>
</clipPath>
</defs>
</svg>
