<svg width="600" height="550" fill="none" xmlns="http://www.w3.org/2000/svg"><path fill="#fff" d="M0 0h600v550H0z"/><g clip-path="url(#a)"><path fill-rule="evenodd" clip-rule="evenodd" d="M287.588 19h247.328v416.813h-97.591v95.218H330.131v-8.98H66V93.861h221.588V19z" fill="#FFE900"/><path d="M534.916 19h-14.967v416.813h14.967V19z" fill="#ED9FA6"/><path fill-rule="evenodd" clip-rule="evenodd" d="M287.588 19h247.328v416.813h-97.591v95.218H330.131v-8.98H66V93.861h221.588V19z" fill="#FFF9D0"/><path d="M534.916 19h-14.967v416.813h14.967V19z" fill="#FFF9D0"/><path d="M534.916 405.275h-14.967v15.027h14.967v-15.027zM342.676 333.408h-35.954v35.929h35.954v-35.929zM342.676 507.084h-14.967v14.967h14.967v-14.967zM534.916 19h-14.967v386.275h14.967V19zM302.555 19h-14.967v89.836h14.967V19zM80.975 93.86H66v259.311h14.975V93.861z" fill="#20201F"/><path d="M125.885 338.195H66v14.976h59.885v-14.976z" fill="#20201F"/><path d="M125.885 338.195h-14.967v183.856h14.967V338.195z" fill="#20201F"/><path d="M327.71 507.084H66v14.967h261.71v-14.967z" fill="#20201F"/><path d="M350.466 449.589h-22.757v81.442h22.757v-81.442zM350.466 356.164h-22.757v15.571h22.757v-15.571zM366.037 333.408h-23.36v22.756h23.36v-22.756zM519.95 333.408h-28.148v22.756h28.148v-22.756zM534.916 405.275h-20.962v22.757h20.962v-22.757zM217.549 93.86H80.975v14.976H217.55V93.86zM287.588 93.86h-10.154v14.976h10.154V93.86zM519.949 19H302.555v14.975h217.394V19zM534.917 428.032h-20.963v7.781h20.963v-7.781zM511.565 364.209h-7.186v71.604h7.186v-71.604zM519.95 356.164h-31.746v8.045h31.746v-8.045zM369.625 356.164h-19.159v7.79h19.159v-7.79zM358.247 363.954h-7.781v7.781h7.781v-7.781zM358.247 449.589h-7.781v81.442h7.781v-81.442z" fill="#20201F"/><path d="M522.023 359.422H510.07v76.391h11.953v-76.391z" fill="#20201F"/><path fill-rule="evenodd" clip-rule="evenodd" d="M358.247 523.846h71.892v-95.219H504.379v7.186h-67.054v95.218h-79.078v-7.185z" fill="#20201F"/><path d="M306.722 333.408H252.22v4.787h54.502v-4.787zM264.542 216.7h-4.787v116.708h4.787V216.7z" fill="#20201F"/><path d="M302.555 216.7h-42.8v4.787h42.8V216.7z" fill="#20201F"/><path d="M302.555 191.749h-4.788v29.738h4.788v-29.738zM197.046 172.207h-4.788v55.42h4.788v-55.42z" fill="#20201F"/><path d="M192.258 174.92H80.975v4.796h111.283v-4.796zM197.046 281.525h-4.788v56.301h4.788v-56.301z" fill="#20201F"/><path d="M198.321 333.408h-6.063v4.418h6.063v-4.418z" fill="#20201F"/><path d="M198.321 333.408H80.975v4.787h117.346v-4.787zM73.186 353.171H66v153.914h7.186V353.171zM302.555 108.836h-4.788v29.015h4.788v-29.015zM488.213 360.101H369.626v3.853h118.587v-3.853zM491.802 352.337H366.036v3.851h125.766v-3.851zM491.802 333.432H366.036v3.851h125.766v-3.851zM358.231 419.646h-3.852v29.943h3.852v-29.943zM350.466 419.645h-3.851v29.944h3.851v-29.944zM331.561 419.645h-3.852v29.944h3.852v-29.944z" fill="#20201F"/><path d="M358.252 419.645h-30.543v2.827h30.543v-2.827z" fill="#20201F"/><path fill-rule="evenodd" clip-rule="evenodd" d="M271.828 97.737a1.701 1.701 0 0 1 3.401 0v35.996a1.702 1.702 0 0 1-3.401 0V97.737zM220.347 97.395a.85.85 0 0 1 1.701 0c0 9.762 5.03 18.613 13.159 25.03 8.186 6.461 19.51 10.458 32.027 10.458a.85.85 0 0 1 0 1.701c-12.902 0-24.599-4.14-33.076-10.831-8.531-6.734-13.811-16.052-13.811-26.358zM300.61 142.83a1.702 1.702 0 0 1 0-3.402h35.996a1.702 1.702 0 0 1 0 3.402H300.61zM300.268 189.728a.85.85 0 0 1 0-1.701c9.776 0 18.635-4.59 25.052-12.008 6.447-7.452 10.436-17.758 10.436-29.145a.85.85 0 1 1 1.701 0c0 11.803-4.149 22.503-10.855 30.254-6.732 7.783-16.043 12.6-26.334 12.6zM195.193 280.441a1.702 1.702 0 0 1 0-3.402h35.996a1.702 1.702 0 0 1 0 3.402h-35.996zM194.851 231.843a.851.851 0 1 1 0-1.701c10.29 0 19.601 4.816 26.334 12.599 6.705 7.752 10.854 18.451 10.854 30.255a.85.85 0 0 1-1.7 0c0-11.387-3.99-21.694-10.436-29.146-6.417-7.418-15.276-12.007-25.052-12.007zM250.527 335.155a1.702 1.702 0 0 1-3.402 0v-35.996a1.702 1.702 0 0 1 3.402 0v35.996zM201.929 335.497a.851.851 0 1 1-1.701 0c0-10.29 4.816-19.601 12.599-26.334 7.752-6.705 18.452-10.854 30.256-10.854a.85.85 0 0 1 0 1.7c-11.387 0-21.695 3.99-29.147 10.436-7.418 6.417-12.007 15.276-12.007 25.052zM347.959 374.709a1.702 1.702 0 0 1 0 3.401h-35.996a1.701 1.701 0 0 1 0-3.401h35.996zM348.3 415.233a.851.851 0 1 1 0 1.701c-10.26 0-19.551-3.999-26.28-10.462-6.739-6.473-10.907-15.415-10.907-25.29a.85.85 0 1 1 1.7 0c0 9.396 3.968 17.907 10.382 24.067 6.422 6.168 15.298 9.984 25.105 9.984zM164.438 478.327v-90.355h-36.142v91.417h36.142v-1.062zm-4.273-62.076c0 .994-.407 1.901-1.065 2.555a3.607 3.607 0 0 1-2.549 1.06h-20.41a3.624 3.624 0 0 1-3.614-3.615v-20.409c0-.992.407-1.896 1.061-2.553a3.602 3.602 0 0 1 2.553-1.061h20.41a3.59 3.59 0 0 1 2.551 1.063 3.6 3.6 0 0 1 1.063 2.551v20.409zm-1.689 51.565c0 1.376-.56 2.627-1.464 3.532a4.989 4.989 0 0 1-7.064-.002 4.983 4.983 0 0 1 .002-7.059 4.983 4.983 0 0 1 7.062-.002 4.982 4.982 0 0 1 1.464 3.531zm-13.163 0c0 1.672-.68 3.188-1.776 4.284a6.043 6.043 0 0 1-4.283 1.776 6.044 6.044 0 0 1-4.284-1.776 6.043 6.043 0 0 1-1.775-4.284c0-1.671.679-3.187 1.775-4.283a6.044 6.044 0 0 1 4.284-1.776c1.671 0 3.187.68 4.283 1.776a6.043 6.043 0 0 1 1.776 4.283zm-2.827-3.232a4.561 4.561 0 0 1 1.339 3.232 4.56 4.56 0 0 1-1.339 3.233 4.559 4.559 0 0 1-3.232 1.338 4.56 4.56 0 0 1-3.233-1.338 4.564 4.564 0 0 1-1.338-3.233 4.565 4.565 0 0 1 4.571-4.57c1.262 0 2.406.512 3.232 1.338zm17.053-9.762a6.039 6.039 0 0 1-1.776 4.283 6.041 6.041 0 0 1-4.283 1.776 6.043 6.043 0 0 1-4.284-1.775 6.04 6.04 0 0 1-1.775-4.284c0-1.672.679-3.188 1.775-4.284a6.044 6.044 0 0 1 4.284-1.775c1.671 0 3.187.679 4.283 1.775a6.041 6.041 0 0 1 1.776 4.284zm-2.827-3.233a4.562 4.562 0 0 1 1.339 3.233 4.56 4.56 0 0 1-1.339 3.232 4.555 4.555 0 0 1-3.232 1.338 4.557 4.557 0 0 1-3.233-1.337 4.561 4.561 0 0 1-1.338-3.233 4.56 4.56 0 0 1 1.339-3.233 4.56 4.56 0 0 1 3.232-1.338c1.262 0 2.407.513 3.232 1.338zm-12.462 3.233a4.986 4.986 0 0 1-1.465 3.531 4.983 4.983 0 0 1-7.063-.002 4.982 4.982 0 0 1 .002-7.059 4.975 4.975 0 0 1 3.53-1.466c1.377 0 2.627.56 3.531 1.464a4.983 4.983 0 0 1 1.465 3.532zm-2.516-2.481a3.5 3.5 0 0 1 1.028 2.481c0 .971-.392 1.848-1.025 2.48a3.51 3.51 0 0 1-2.483 1.027 3.498 3.498 0 0 1-3.508-3.507 3.503 3.503 0 0 1 3.508-3.508c.968 0 1.847.393 2.48 1.027zm14.227 12.995a3.501 3.501 0 0 1 1.027 2.48c0 .972-.392 1.849-1.025 2.481a3.507 3.507 0 0 1-2.483 1.027 3.498 3.498 0 0 1-3.508-3.508c0-.968.394-1.847 1.027-2.48a3.488 3.488 0 0 1 2.481-1.027 3.5 3.5 0 0 1 2.481 1.027zm2.078-69.494v20.409c0 .408-.168.782-.438 1.051a1.47 1.47 0 0 1-1.05.438h-20.41a1.485 1.485 0 0 1-1.488-1.489v-20.409c0-.41.167-.783.434-1.05a1.508 1.508 0 0 1 1.054-.438h20.41c.406 0 .78.169 1.05.438.271.267.438.64.438 1.05zm-27.617 49.567h31.89v31.855h-31.89v-31.855zm31.89-2.126h-31.89v-53.185h31.89v53.185zM100.755 298.062c-1.799 2.797-2.91 6.385-2.91 9.54 0 3.106 1.066 5.53 2.81 7.217h.005c.661.638 1.445 1.132 2.276 1.55h-3.588c-2.141 0-3.396.895-4.125 2.331-.665 1.307-.83 3.036-.83 4.931v.783h.02c.045 1.58.242 3.022.81 4.145.729 1.436 1.984 2.326 4.115 2.326h17.595c2.14 0 3.393-.89 4.118-2.326.564-1.123.767-2.565.81-4.145h.019v-.783c0-1.895-.164-3.624-.829-4.931-.725-1.436-1.978-2.331-4.118-2.331h-3.595c.831-.418 1.612-.907 2.275-1.55 1.747-1.687 2.814-4.111 2.814-7.217 0-3.334-1.244-7.151-3.226-10.013-1.829-2.641-4.303-4.495-7.064-4.495-2.925 0-5.528 2.079-7.382 4.968zm7.889 27.903v.005h-.003a2.315 2.315 0 0 1-1.63-.681h-.005a2.3 2.3 0 0 1-.675-1.632c0-.64.258-1.21.675-1.628v-.007h.005a2.315 2.315 0 0 1 3.266 0 2.31 2.31 0 0 1-1.633 3.943zm.002-1.183h-.005c-.311 0-.593-.124-.792-.321v-.007a1.132 1.132 0 0 1-.33-.797c0-.316.125-.605.319-.8l.009-.005c.201-.197.483-.324.794-.324.323 0 .602.127.803.324.196.2.321.489.321.805a1.1 1.1 0 0 1-.33.797 1.084 1.084 0 0 1-.789.336v-.008zm8.287-6.851c1.444 0 2.268.567 2.728 1.466.465.932.621 2.225.648 3.686v.548c0 1.683-.128 3.192-.648 4.23-.46.9-1.286 1.46-2.728 1.46H99.338c-1.44 0-2.263-.56-2.723-1.46-.524-1.038-.65-2.547-.65-4.23v-.608c.032-1.431.186-2.714.647-3.626.463-.906 1.292-1.466 2.736-1.466h17.585zm-3.012-19.458c1.812 2.613 2.944 6.093 2.944 9.129 0 2.654-.886 4.694-2.332 6.095-1.583 1.533-3.862 2.326-6.396 2.326-2.538 0-4.815-.793-6.402-2.326-1.443-1.401-2.327-3.441-2.327-6.095 0-2.867 1.014-6.142 2.658-8.702 1.583-2.467 3.74-4.243 6.071-4.243 2.191 0 4.228 1.58 5.784 3.816zM83.758 239.219l-.006 19.49c0 6.518 13.492 5.75 14.393 5.683a11.29 11.29 0 0 0 8.007-3.327 11.305 11.305 0 0 0 3.316-8.009v-8.271c0-3.128-1.266-5.963-3.316-8.017a11.387 11.387 0 0 0-8.012-3.329c-.916-.042-14.388-.713-14.382 5.78zm13.143 9.705h.002a2.534 2.534 0 0 1 .727-1.769 2.535 2.535 0 0 1 1.766-.718 2.48 2.48 0 0 1 2.492 2.49c0 .683-.276 1.309-.728 1.759v.009h-.005c-.45.451-1.07.732-1.76.732a2.502 2.502 0 0 1-1.764-.732v-.003a2.505 2.505 0 0 1-.734-1.765l.004-.003zm1.271-.004c0-.326.135-.633.36-.852.214-.214.522-.352.864-.352.34 0 .649.132.869.346.212.221.351.521.348.865 0 .343-.134.64-.348.86l-.005.006a1.21 1.21 0 0 1-.864.352 1.26 1.26 0 0 1-.864-.354l-.003-.005a1.205 1.205 0 0 1-.346-.854l.003-.012h-.014zm-9.665.004c0-3.142.937-5.994 2.44-8.068 1.57-2.155 3.767-3.495 6.2-3.496 2.442 0 4.637 1.341 6.212 3.496 1.511 2.082 2.439 4.935 2.439 8.079v.013c-.008 3.135-.943 5.981-2.449 8.061-1.57 2.146-3.76 3.482-6.189 3.484l-.013-.002c-2.44 0-4.622-1.336-6.2-3.499-1.506-2.069-2.44-4.92-2.437-8.06l-.003-.008zm1.758 0c.005-2.753.813-5.242 2.112-7.041 1.241-1.698 2.933-2.755 4.77-2.755 1.848 0 3.54 1.057 4.786 2.769 1.294 1.79 2.099 4.274 2.099 7.038v.005l.005.008c-.005 2.756-.81 5.234-2.111 7.024-1.237 1.694-2.93 2.75-4.766 2.756l-.013-.006c-1.84.004-3.534-1.054-4.77-2.756-1.294-1.791-2.107-4.275-2.104-7.031v-.011h-.008zm-4.748-9.699c0-4.839 12.526-4.015 12.558-4.015l.065.008a9.563 9.563 0 0 1 6.764 2.791 9.578 9.578 0 0 1 2.798 6.776v8.263a9.556 9.556 0 0 1-9.562 9.584l-.062.002c-.032 0-12.56.888-12.56-3.93v-19.479zM85.822 225.649h101.589V184.09H85.822v41.559zm19.796-24.819a4.036 4.036 0 0 1 2.856 6.893 4.03 4.03 0 0 1-5.71.003 4.02 4.02 0 0 1-1.186-2.857 4.03 4.03 0 0 1 1.183-2.856 4.032 4.032 0 0 1 2.857-1.183zm1.715 2.324a2.42 2.42 0 0 1 .708 1.715 2.418 2.418 0 0 1-2.423 2.424 2.422 2.422 0 0 1-2.424-2.424 2.42 2.42 0 0 1 2.424-2.423c.669 0 1.275.271 1.715.708zM93.49 185.279l71.712 1.616c10.771 0 19.591 7.204 19.591 17.974 0 10.771-8.82 17.975-19.591 17.975l-71.712 1.615a5.035 5.035 0 0 1-3.567-1.482 5.05 5.05 0 0 1-1.482-3.567v-29.082c0-1.384.568-2.646 1.482-3.562a5.038 5.038 0 0 1 3.567-1.487zm71.712 3.636c9.667 0 17.571 6.287 17.571 15.954 0 9.667-7.904 15.955-17.571 15.955L93.49 222.44a3.04 3.04 0 0 1-2.143-.891 3.017 3.017 0 0 1-.887-2.139v-29.082c0-.834.34-1.591.892-2.142a3.017 3.017 0 0 1 2.138-.887l71.712 1.616zm22.422 38.712H85.609c-.507 0-.97-.201-1.305-.52a1.727 1.727 0 0 1-.546-1.255v-41.965c0-.489.208-.935.542-1.255.335-.321.8-.52 1.31-.52h102.014c.51 0 .974.199 1.31.52.332.324.542.768.542 1.255v41.965c0 .487-.21.93-.542 1.252a1.9 1.9 0 0 1-1.31.523z" fill="#20201F"/><path d="M417.715 70h-2.126v101.095h2.126V70zM445.166 83.87v14.373h-1.478V85.185H440.3V83.87h4.866zm7.912-.123c1.903 0 3.361.63 4.374 1.89 1.013 1.245 1.519 3.01 1.519 5.297 0 1.601-.274 2.957-.821 4.065-.548 1.109-1.314 1.95-2.3 2.526-.985.561-2.135.842-3.449.842-1.424 0-2.56-.26-3.409-.78l.596-1.192c.684.452 1.615.678 2.792.678 1.588 0 2.834-.5 3.737-1.499.903-1.013 1.355-2.477 1.355-4.394 0-.356-.02-.746-.061-1.17-.356.78-.924 1.39-1.705 1.827-.78.424-1.676.637-2.689.637-.945 0-1.787-.178-2.526-.534a4.128 4.128 0 0 1-1.704-1.5c-.411-.656-.616-1.416-.616-2.278 0-.876.212-1.65.636-2.32a4.148 4.148 0 0 1 1.746-1.54c.753-.37 1.594-.555 2.525-.555zm.164 7.474c.726 0 1.362-.137 1.91-.41.561-.274.999-.65 1.314-1.13.315-.479.472-1.013.472-1.601 0-.548-.15-1.054-.451-1.52-.288-.465-.719-.842-1.294-1.13-.575-.287-1.259-.43-2.053-.43-1.041 0-1.889.287-2.546.862-.644.561-.965 1.314-.965 2.259 0 .944.321 1.697.965 2.258.657.562 1.54.842 2.648.842zm8.76 7.125c-.301 0-.561-.11-.78-.329a1.129 1.129 0 0 1-.308-.8c0-.315.103-.575.308-.78.219-.22.479-.329.78-.329.302 0 .562.11.781.328.219.206.328.466.328.78 0 .316-.109.583-.328.802-.219.219-.479.328-.781.328zm7.021-8.583c2.081 0 3.593.377 4.538 1.13.958.739 1.437 1.78 1.437 3.12 0 .836-.199 1.582-.596 2.239-.383.657-.965 1.177-1.745 1.56-.78.37-1.738.555-2.874.555a8.761 8.761 0 0 1-2.937-.493c-.917-.342-1.656-.794-2.217-1.355l.718-1.17c.48.492 1.109.896 1.889 1.21a6.96 6.96 0 0 0 2.526.452c1.191 0 2.108-.266 2.751-.8.657-.534.986-1.246.986-2.136 0-.985-.37-1.731-1.109-2.238-.725-.506-1.957-.76-3.696-.76h-3.059l.739-7.207h7.864v1.314h-6.57l-.493 4.58h1.848zm11.835-5.893v14.373h-1.478V85.185h-3.388V83.87h4.866zM448.113 123.751h-2.875v3.778h-1.478v-3.778h-8.111v-1.068l7.618-9.527h1.643l-7.351 9.281h6.242v-3.326h1.437v3.326h2.875v1.314zm7.086 3.901c-1.108 0-2.101-.294-2.977-.883-.862-.588-1.54-1.43-2.033-2.525-.479-1.109-.718-2.409-.718-3.901s.239-2.786.718-3.881c.493-1.109 1.171-1.958 2.033-2.546.876-.589 1.869-.883 2.977-.883 1.109 0 2.095.294 2.957.883.876.588 1.561 1.437 2.053 2.546.493 1.095.74 2.389.74 3.881s-.247 2.792-.74 3.901c-.492 1.095-1.177 1.937-2.053 2.525-.862.589-1.848.883-2.957.883zm0-1.355c.835 0 1.568-.233 2.197-.698.644-.465 1.143-1.143 1.499-2.033.356-.89.534-1.964.534-3.223 0-1.26-.178-2.334-.534-3.224-.356-.89-.855-1.567-1.499-2.033-.629-.465-1.362-.698-2.197-.698s-1.574.233-2.217.698c-.63.466-1.123 1.143-1.479 2.033-.355.89-.533 1.964-.533 3.224 0 1.259.178 2.333.533 3.223.356.89.849 1.568 1.479 2.033.643.465 1.382.698 2.217.698zm8.755 1.335c-.301 0-.561-.11-.78-.329a1.125 1.125 0 0 1-.308-.801c0-.314.102-.575.308-.78.219-.219.479-.328.78-.328.301 0 .561.109.78.328.219.205.329.466.329.78 0 .315-.11.582-.329.801a1.066 1.066 0 0 1-.78.329zm6.985-14.476v14.373h-1.478V114.47h-3.388v-1.314h4.866zm13.579 0v1.047l-6.016 13.326H476.9l5.914-13.059h-7.392v2.69h-1.458v-4.004h10.554zM450.197 153.037h-2.875v3.778h-1.478v-3.778h-8.111v-1.068l7.618-9.527h1.643l-7.351 9.281h6.242v-3.326h1.437v3.326h2.875v1.314zm10.478-10.595v1.047l-6.016 13.326h-1.601l5.913-13.059h-7.392v2.69h-1.458v-4.004h10.554zm1.974 14.476c-.301 0-.561-.11-.78-.329a1.129 1.129 0 0 1-.308-.8c0-.315.103-.575.308-.781.219-.219.479-.328.78-.328.301 0 .561.109.78.328.219.206.329.466.329.781 0 .314-.11.581-.329.8a1.066 1.066 0 0 1-.78.329zm7.719-14.599c1.902 0 3.36.63 4.373 1.889 1.013 1.246 1.52 3.012 1.52 5.298 0 1.601-.274 2.956-.822 4.065-.547 1.109-1.314 1.951-2.299 2.526-.986.561-2.136.841-3.45.841-1.423 0-2.56-.26-3.408-.78l.595-1.191c.685.452 1.615.678 2.793.678 1.587 0 2.833-.5 3.737-1.499.903-1.013 1.355-2.478 1.355-4.394 0-.356-.021-.746-.062-1.17-.356.78-.924 1.389-1.704 1.827-.78.424-1.677.636-2.69.636-.944 0-1.786-.177-2.525-.533a4.135 4.135 0 0 1-1.705-1.499c-.41-.657-.616-1.417-.616-2.279 0-.876.213-1.65.637-2.321a4.15 4.15 0 0 1 1.745-1.54c.753-.369 1.595-.554 2.526-.554zm.164 7.474c.725 0 1.362-.137 1.91-.411.561-.273.999-.65 1.314-1.129a2.86 2.86 0 0 0 .472-1.602c0-.547-.151-1.054-.452-1.519-.287-.465-.718-.842-1.293-1.129-.575-.288-1.26-.431-2.054-.431-1.04 0-1.889.287-2.546.862-.643.561-.965 1.314-.965 2.259 0 .944.322 1.697.965 2.258.657.561 1.54.842 2.649.842zm13.6 7.145c-1.108 0-2.101-.294-2.977-.883-.862-.588-1.54-1.43-2.033-2.525-.479-1.109-.718-2.409-.718-3.901s.239-2.786.718-3.881c.493-1.109 1.171-1.957 2.033-2.546.876-.589 1.869-.883 2.977-.883 1.109 0 2.095.294 2.957.883.876.589 1.561 1.437 2.053 2.546.493 1.095.74 2.389.74 3.881s-.247 2.792-.74 3.901c-.492 1.095-1.177 1.937-2.053 2.525-.862.589-1.848.883-2.957.883zm0-1.355c.835 0 1.568-.232 2.197-.698.644-.465 1.143-1.143 1.499-2.033.356-.889.534-1.964.534-3.223 0-1.26-.178-2.334-.534-3.224-.356-.89-.855-1.567-1.499-2.033-.629-.465-1.362-.698-2.197-.698s-1.574.233-2.217.698c-.63.466-1.123 1.143-1.478 2.033-.356.89-.534 1.964-.534 3.224 0 1.259.178 2.334.534 3.223.355.89.848 1.568 1.478 2.033.643.466 1.382.698 2.217.698zM398.646 101.756V142h-9.313v-32.77h-8.049v-7.474h17.362z" fill="#20201F"/><path d="M355.643 253.826h-5.667v8.418h-3.183v-11.046h8.85v2.628zm6.411 8.583c-1.164 0-2.211-.24-3.142-.719a5.506 5.506 0 0 1-2.156-2.033c-.52-.862-.78-1.841-.78-2.936s.26-2.074.78-2.936a5.358 5.358 0 0 1 2.156-2.012c.931-.493 1.978-.74 3.142-.74 1.163 0 2.203.247 3.121.74a5.365 5.365 0 0 1 2.156 2.012c.52.862.78 1.841.78 2.936s-.26 2.074-.78 2.936a5.513 5.513 0 0 1-2.156 2.033c-.918.479-1.958.719-3.121.719zm0-2.629c.821 0 1.492-.273 2.012-.821.534-.561.801-1.307.801-2.238s-.267-1.67-.801-2.217c-.52-.562-1.191-.842-2.012-.842-.822 0-1.499.28-2.033.842-.534.547-.801 1.286-.801 2.217s.267 1.677.801 2.238c.534.548 1.211.821 2.033.821zm13.516 2.629c-1.177 0-2.238-.24-3.182-.719a5.62 5.62 0 0 1-2.197-2.033c-.52-.862-.781-1.841-.781-2.936s.261-2.074.781-2.936a5.469 5.469 0 0 1 2.197-2.012c.944-.493 2.005-.74 3.182-.74 1.164 0 2.177.247 3.039.74a4.26 4.26 0 0 1 1.91 2.073l-2.485 1.335c-.575-1.013-1.403-1.519-2.484-1.519-.835 0-1.527.273-2.074.821-.548.548-.821 1.294-.821 2.238 0 .945.273 1.691.821 2.238.547.548 1.239.821 2.074.821 1.095 0 1.923-.506 2.484-1.519l2.485 1.355c-.397.876-1.034 1.561-1.91 2.053-.862.493-1.875.74-3.039.74zm16.136-8.583h-3.737v8.418h-3.183v-8.418h-3.737v-2.628h10.657v2.628zm1.707-2.628h3.183v6.57l5.379-6.57h2.937v11.046h-3.183v-6.57l-5.359 6.57h-2.957v-11.046zm14.578 0h3.182v4.312h4.805v-4.312h3.203v11.046h-3.203v-4.127h-4.805v4.127h-3.182v-11.046zm18.548-.165c1.711 0 3.025.411 3.942 1.232.917.808 1.376 2.033 1.376 3.676v6.303h-2.998v-1.375c-.602 1.026-1.725 1.54-3.367 1.54-.849 0-1.588-.144-2.218-.432-.616-.287-1.088-.684-1.417-1.19a3.106 3.106 0 0 1-.492-1.725c0-1.027.383-1.834 1.149-2.423.781-.589 1.978-.883 3.594-.883h2.546c0-.698-.213-1.232-.637-1.602-.424-.383-1.061-.574-1.909-.574-.589 0-1.171.095-1.746.287a4.452 4.452 0 0 0-1.437.739l-1.15-2.238c.602-.424 1.321-.753 2.156-.985a9.808 9.808 0 0 1 2.608-.35zm-.247 9.22c.548 0 1.034-.123 1.458-.37.425-.26.726-.636.904-1.129v-1.129h-2.197c-1.314 0-1.972.431-1.972 1.293 0 .411.158.739.473.986.328.232.773.349 1.334.349zm18.162-9.055v11.046H441.6v-3.162h-2.361l-2.095 3.162h-3.408l2.525-3.613c-.766-.302-1.355-.733-1.765-1.294-.397-.575-.596-1.266-.596-2.074 0-1.3.466-2.299 1.396-2.998.945-.711 2.238-1.067 3.881-1.067h5.277zm-5.215 2.607c-.685 0-1.205.124-1.561.37-.342.246-.513.643-.513 1.191 0 .547.164.951.493 1.211.342.247.855.37 1.54.37h2.402v-3.142h-2.361zM378.638 277.157v14.373h-3.327v-11.704h-2.874v-2.669h6.201zm7.547-.246c2.013 0 3.587.616 4.723 1.848 1.136 1.218 1.704 2.977 1.704 5.277 0 1.628-.308 3.025-.924 4.188-.602 1.164-1.458 2.047-2.566 2.649-1.109.602-2.389.903-3.84.903a9.575 9.575 0 0 1-2.197-.246c-.698-.178-1.294-.424-1.786-.739l1.232-2.444c.698.48 1.594.719 2.689.719 1.219 0 2.184-.356 2.896-1.068.711-.725 1.095-1.765 1.149-3.121-.862.863-2.053 1.294-3.572 1.294-.917 0-1.752-.185-2.505-.554a4.406 4.406 0 0 1-1.787-1.561c-.438-.684-.657-1.471-.657-2.361 0-.958.24-1.8.719-2.526a4.628 4.628 0 0 1 1.951-1.663c.835-.397 1.759-.595 2.771-.595zm.247 6.775c.725 0 1.314-.198 1.766-.595.465-.411.698-.931.698-1.56 0-.63-.226-1.143-.678-1.54-.438-.397-1.047-.596-1.827-.596-.712 0-1.294.192-1.745.575-.438.383-.658.904-.658 1.561 0 .657.22 1.184.658 1.581.451.383 1.047.574 1.786.574zm9.404 8.008a1.92 1.92 0 0 1-1.416-.575c-.384-.383-.575-.862-.575-1.437 0-.589.191-1.061.575-1.417.383-.369.855-.554 1.416-.554.562 0 1.034.185 1.417.554.383.356.575.828.575 1.417 0 .575-.192 1.054-.575 1.437-.383.384-.855.575-1.417.575zm8.413-9.137c2.026 0 3.518.404 4.476 1.212.972.807 1.458 1.889 1.458 3.244 0 .876-.219 1.677-.657 2.402-.438.712-1.109 1.287-2.012 1.725-.89.424-1.992.636-3.306.636-1.013 0-2.012-.13-2.998-.39-.972-.273-1.8-.657-2.484-1.15l1.314-2.546a6.437 6.437 0 0 0 1.889.965 7.43 7.43 0 0 0 2.197.329c.835 0 1.492-.164 1.971-.493.479-.328.719-.787.719-1.376 0-.616-.254-1.081-.76-1.396-.493-.315-1.355-.472-2.587-.472h-3.676l.74-8.09h8.767v2.669h-5.995l-.226 2.731h1.17zm12.827-5.4v14.373h-3.326v-11.704h-2.874v-2.669h6.2z" fill="#000"/><path d="M208.02 407.824h-1.663v4.189h-3.203v-11.047h3.203v4.292h1.725l2.998-4.292h3.408l-3.86 5.298 4.127 5.749h-3.778l-2.957-4.189zm18.754-6.858-4.99 11.725c-.506 1.273-1.136 2.169-1.889 2.689-.739.52-1.636.781-2.69.781a5.603 5.603 0 0 1-1.704-.267c-.561-.178-1.02-.425-1.376-.74l1.171-2.279a2.737 2.737 0 0 0 1.807.698c.438 0 .794-.109 1.067-.328.274-.205.521-.554.74-1.047l.041-.103-4.784-11.129h3.305l3.101 7.495 3.121-7.495h3.08zm7.863 11.047-2.422-3.388-2.505 3.388h-3.491l4.25-5.564-4.106-5.483h3.593l2.341 3.224 2.402-3.224h3.408l-4.106 5.4 4.271 5.647h-3.635zm5.212-11.047h3.182v4.312h4.805v-4.312h3.203v11.047h-3.203v-4.127h-4.805v4.127h-3.182v-11.047zm24.071 0v11.047h-2.854v-3.162h-2.361l-2.095 3.162h-3.408l2.525-3.614c-.766-.301-1.355-.732-1.765-1.293-.397-.575-.596-1.267-.596-2.074 0-1.301.465-2.3 1.396-2.998.945-.712 2.238-1.068 3.881-1.068h5.277zm-5.215 2.608c-.685 0-1.205.123-1.561.37-.342.246-.513.643-.513 1.19 0 .548.164.952.493 1.212.342.246.855.369 1.54.369h2.402v-3.141h-2.361zM217.951 426.68c2.012 0 3.586.616 4.723 1.848 1.136 1.218 1.704 2.977 1.704 5.277 0 1.629-.308 3.025-.924 4.188-.603 1.164-1.458 2.047-2.567 2.649-1.109.602-2.388.903-3.839.903a9.575 9.575 0 0 1-2.197-.246c-.699-.178-1.294-.424-1.787-.739l1.232-2.444c.698.48 1.595.719 2.69.719 1.218 0 2.183-.356 2.895-1.068.712-.725 1.095-1.765 1.15-3.121-.862.863-2.053 1.294-3.573 1.294-.917 0-1.752-.185-2.505-.554a4.403 4.403 0 0 1-1.786-1.561c-.438-.684-.657-1.471-.657-2.361 0-.958.239-1.8.718-2.526a4.64 4.64 0 0 1 1.951-1.663c.835-.397 1.759-.595 2.772-.595zm.246 6.776c.726 0 1.314-.199 1.766-.596a1.99 1.99 0 0 0 .698-1.56c0-.63-.226-1.143-.677-1.54-.438-.397-1.047-.596-1.828-.596-.712 0-1.293.192-1.745.575-.438.383-.657.904-.657 1.561 0 .657.219 1.184.657 1.581.452.383 1.047.575 1.786.575zm9.405 8.007a1.923 1.923 0 0 1-1.417-.575c-.383-.383-.575-.862-.575-1.437 0-.588.192-1.061.575-1.417.383-.369.856-.554 1.417-.554s1.033.185 1.417.554c.383.356.575.829.575 1.417 0 .575-.192 1.054-.575 1.437a1.925 1.925 0 0 1-1.417.575zm10.399-8.685c1.26.205 2.225.678 2.896 1.417.67.725 1.006 1.629 1.006 2.71 0 .835-.219 1.608-.657 2.32-.438.698-1.109 1.26-2.013 1.684-.889.424-1.984.636-3.285.636-1.013 0-2.012-.13-2.998-.39-.972-.273-1.8-.657-2.484-1.149l1.293-2.547a6.462 6.462 0 0 0 1.889.965 7.639 7.639 0 0 0 2.218.329c.835 0 1.492-.157 1.971-.472.479-.329.719-.787.719-1.376 0-1.177-.897-1.766-2.69-1.766h-1.519v-2.197l2.956-3.347h-6.118v-2.669h10.061v2.156l-3.245 3.696zm10.165-.452c2.026 0 3.518.404 4.476 1.212.972.807 1.458 1.889 1.458 3.244 0 .876-.219 1.677-.657 2.402-.438.712-1.109 1.287-2.012 1.725-.89.424-1.992.636-3.306.636-1.013 0-2.012-.13-2.998-.39-.972-.273-1.8-.657-2.485-1.149l1.315-2.547a6.437 6.437 0 0 0 1.889.965 7.425 7.425 0 0 0 2.197.329c.835 0 1.492-.164 1.971-.493.479-.328.718-.787.718-1.375 0-.616-.253-1.082-.759-1.397-.493-.315-1.355-.472-2.587-.472h-3.676l.739-8.09h8.768v2.669h-5.996l-.226 2.731h1.171zM237.142 157.826l-3.006-3.96-3.024 3.96h-1.44l3.744-4.86-3.564-4.608h1.44l2.844 3.708 2.844-3.708h1.404l-3.564 4.608 3.78 4.86h-1.458zm7.125.09c-.912 0-1.734-.204-2.466-.612a4.594 4.594 0 0 1-1.728-1.728c-.42-.732-.63-1.56-.63-2.484 0-.924.21-1.752.63-2.484a4.465 4.465 0 0 1 1.728-1.71c.732-.408 1.554-.612 2.466-.612.912 0 1.734.204 2.466.612a4.34 4.34 0 0 1 1.71 1.71c.42.732.63 1.56.63 2.484 0 .924-.21 1.752-.63 2.484a4.465 4.465 0 0 1-1.71 1.728c-.732.408-1.554.612-2.466.612zm0-1.134c.672 0 1.272-.15 1.8-.45.54-.312.96-.75 1.26-1.314.3-.564.45-1.206.45-1.926s-.15-1.362-.45-1.926c-.3-.564-.72-.996-1.26-1.296-.528-.312-1.128-.468-1.8-.468-.672 0-1.278.156-1.818.468-.528.3-.948.732-1.26 1.296-.3.564-.45 1.206-.45 1.926s.15 1.362.45 1.926a3.406 3.406 0 0 0 1.26 1.314c.54.3 1.146.45 1.818.45zm15.225-8.424v9.468h-1.278v-8.334h-4.536l-.126 2.34c-.096 1.968-.324 3.48-.684 4.536-.36 1.056-1.002 1.584-1.926 1.584-.252 0-.558-.048-.918-.144l.09-1.098c.216.048.366.072.45.072.492 0 .864-.228 1.116-.684.252-.456.42-1.02.504-1.692.084-.672.156-1.56.216-2.664l.162-3.384h6.93zm11.373 0v9.468h-1.278v-8.334h-4.536l-.126 2.34c-.096 1.968-.324 3.48-.684 4.536-.36 1.056-1.002 1.584-1.926 1.584-.252 0-.558-.048-.918-.144l.09-1.098c.216.048.366.072.45.072.492 0 .864-.228 1.116-.684.252-.456.42-1.02.504-1.692.084-.672.156-1.56.216-2.664l.162-3.384h6.93zM236.944 179.679c1.824 0 3.15.33 3.978.99.84.648 1.26 1.56 1.26 2.736 0 .732-.174 1.386-.522 1.962-.336.576-.846 1.032-1.53 1.368-.684.324-1.524.486-2.52.486-.9 0-1.758-.144-2.574-.432-.804-.3-1.452-.696-1.944-1.188l.63-1.026c.42.432.972.786 1.656 1.062a6.096 6.096 0 0 0 2.214.396c1.044 0 1.848-.234 2.412-.702.576-.468.864-1.092.864-1.872 0-.864-.324-1.518-.972-1.962-.636-.444-1.716-.666-3.24-.666h-2.682l.648-6.318h6.894v1.152h-5.76l-.432 4.014h1.62zm7.856 7.524a.934.934 0 0 1-.684-.288.989.989 0 0 1-.27-.702c0-.276.09-.504.27-.684a.934.934 0 0 1 .684-.288c.264 0 .492.096.684.288.192.18.288.408.288.684 0 .276-.096.51-.288.702a.934.934 0 0 1-.684.288zm7.671.018c-.972 0-1.842-.258-2.61-.774-.756-.516-1.35-1.254-1.782-2.214-.42-.972-.63-2.112-.63-3.42 0-1.308.21-2.442.63-3.402.432-.972 1.026-1.716 1.782-2.232.768-.516 1.638-.774 2.61-.774s1.836.258 2.592.774c.768.516 1.368 1.26 1.8 2.232.432.96.648 2.094.648 3.402 0 1.308-.216 2.448-.648 3.42-.432.96-1.032 1.698-1.8 2.214-.756.516-1.62.774-2.592.774zm0-1.188c.732 0 1.374-.204 1.926-.612.564-.408 1.002-1.002 1.314-1.782.312-.78.468-1.722.468-2.826s-.156-2.046-.468-2.826c-.312-.78-.75-1.374-1.314-1.782-.552-.408-1.194-.612-1.926-.612s-1.38.204-1.944.612c-.552.408-.984 1.002-1.296 1.782-.312.78-.468 1.722-.468 2.826s.156 2.046.468 2.826c.312.78.744 1.374 1.296 1.782a3.231 3.231 0 0 0 1.944.612zm12.116-6.462c.828 0 1.56.156 2.196.468a3.556 3.556 0 0 1 1.512 1.332c.36.564.54 1.224.54 1.98 0 .768-.186 1.446-.558 2.034a3.733 3.733 0 0 1-1.548 1.368c-.648.312-1.38.468-2.196.468-1.668 0-2.946-.546-3.834-1.638-.888-1.104-1.332-2.658-1.332-4.662 0-1.404.24-2.592.72-3.564s1.152-1.704 2.016-2.196c.864-.504 1.872-.756 3.024-.756 1.248 0 2.244.228 2.988.684l-.522 1.044c-.6-.396-1.416-.594-2.448-.594-1.392 0-2.484.444-3.276 1.332-.792.876-1.188 2.154-1.188 3.834 0 .3.018.642.054 1.026a3.351 3.351 0 0 1 1.494-1.584c.684-.384 1.47-.576 2.358-.576zm-.108 6.552c.912 0 1.65-.246 2.214-.738.576-.504.864-1.17.864-1.998 0-.828-.288-1.488-.864-1.98-.564-.492-1.332-.738-2.304-.738-.636 0-1.2.12-1.692.36-.48.24-.858.57-1.134.99-.276.42-.414.888-.414 1.404 0 .48.126.924.378 1.332.264.408.648.738 1.152.99.504.252 1.104.378 1.8.378zM368.378 391.256v9.468H367.1v-8.334h-4.536l-.126 2.34c-.096 1.968-.324 3.48-.684 4.536-.36 1.056-1.002 1.584-1.926 1.584-.252 0-.558-.048-.918-.144l.09-1.098c.216.048.366.072.45.072.492 0 .864-.228 1.116-.684.252-.456.42-1.02.504-1.692.084-.672.156-1.56.216-2.664l.162-3.384h6.93zm7.539 9.558c-.912 0-1.734-.204-2.466-.612a4.594 4.594 0 0 1-1.728-1.728c-.42-.732-.63-1.56-.63-2.484 0-.924.21-1.752.63-2.484a4.465 4.465 0 0 1 1.728-1.71c.732-.408 1.554-.612 2.466-.612.912 0 1.734.204 2.466.612a4.34 4.34 0 0 1 1.71 1.71c.42.732.63 1.56.63 2.484 0 .924-.21 1.752-.63 2.484a4.465 4.465 0 0 1-1.71 1.728c-.732.408-1.554.612-2.466.612zm0-1.134c.672 0 1.272-.15 1.8-.45.54-.312.96-.75 1.26-1.314.3-.564.45-1.206.45-1.926s-.15-1.362-.45-1.926c-.3-.564-.72-.996-1.26-1.296-.528-.312-1.128-.468-1.8-.468-.672 0-1.278.156-1.818.468-.528.3-.948.732-1.26 1.296-.3.564-.45 1.206-.45 1.926s.15 1.362.45 1.926a3.406 3.406 0 0 0 1.26 1.314c.54.3 1.146.45 1.818.45zm16.719-.072v3.402h-1.206v-2.286h-8.478v2.286h-1.206v-3.402h.54c.636-.036 1.068-.504 1.296-1.404.228-.9.384-2.16.468-3.78l.126-3.168h6.984v8.352h1.476zm-7.416-5.112c-.06 1.344-.174 2.454-.342 3.33-.168.864-.468 1.458-.9 1.782h5.904v-7.218h-4.554l-.108 2.106zm18.205 2.016h-2.052v4.212h-1.278v-4.212h-2.052l-2.898 4.212h-1.53l3.402-4.878-3.132-4.59h1.386l2.772 4.158h2.052v-4.158h1.278v4.158h2.052l2.79-4.158h1.386l-3.132 4.608 3.402 4.86h-1.53l-2.916-4.212zm6.573-5.256h1.278v7.524l6.318-7.524h1.134v9.468h-1.278V393.2l-6.3 7.524h-1.152v-9.468zm19.665 0v9.468h-1.17v-3.132h-3.33l-2.196 3.132h-1.386l2.358-3.312c-.732-.204-1.296-.552-1.692-1.044-.396-.492-.594-1.116-.594-1.872 0-1.056.36-1.86 1.08-2.412.72-.552 1.704-.828 2.952-.828h3.978zm-6.714 3.276c0 1.404.894 2.106 2.682 2.106h2.862v-4.248h-2.772c-1.848 0-2.772.714-2.772 2.142zM387.71 426.698h-2.52v3.312h-1.296v-3.312h-7.11v-.936l6.678-8.352h1.44l-6.444 8.136h5.472v-2.916h1.26v2.916h2.52v1.152zm2.514 3.402a.934.934 0 0 1-.684-.288.989.989 0 0 1-.27-.702c0-.276.09-.504.27-.684a.934.934 0 0 1 .684-.288c.264 0 .492.096.684.288.192.18.288.408.288.684 0 .276-.096.51-.288.702a.934.934 0 0 1-.684.288zm6.155-7.524c1.824 0 3.15.33 3.978.99.84.648 1.26 1.56 1.26 2.736 0 .732-.174 1.386-.522 1.962-.336.576-.846 1.032-1.53 1.368-.684.324-1.524.486-2.52.486-.9 0-1.758-.144-2.574-.432-.804-.3-1.452-.696-1.944-1.188l.63-1.026c.42.432.972.786 1.656 1.062a6.096 6.096 0 0 0 2.214.396c1.044 0 1.848-.234 2.412-.702.576-.468.864-1.092.864-1.872 0-.864-.324-1.518-.972-1.962-.636-.444-1.716-.666-3.24-.666h-2.682l.648-6.318h6.894v1.152h-5.76l-.432 4.014h1.62zm17.593 4.122h-2.52v3.312h-1.296v-3.312h-7.11v-.936l6.678-8.352h1.44l-6.444 8.136h5.472v-2.916h1.26v2.916h2.52v1.152zM144.755 279.54h-2.52v3.312h-1.296v-3.312h-7.11v-.936l6.678-8.352h1.44l-6.444 8.136h5.472v-2.916h1.26v2.916h2.52v1.152zm2.514 3.402a.934.934 0 0 1-.684-.288.989.989 0 0 1-.27-.702c0-.276.09-.504.27-.684a.934.934 0 0 1 .684-.288c.264 0 .492.096.684.288.192.18.288.408.288.684 0 .276-.096.51-.288.702a.934.934 0 0 1-.684.288zm11.622-1.242v1.152h-8.838v-.918l5.238-5.13c.66-.648 1.104-1.206 1.332-1.674.24-.48.36-.96.36-1.44 0-.744-.258-1.32-.774-1.728-.504-.42-1.23-.63-2.178-.63-1.476 0-2.622.468-3.438 1.404l-.918-.792a4.846 4.846 0 0 1 1.872-1.332c.768-.312 1.632-.468 2.592-.468 1.284 0 2.298.306 3.042.918.756.6 1.134 1.428 1.134 2.484 0 .648-.144 1.272-.432 1.872-.288.6-.834 1.29-1.638 2.07l-4.284 4.212h6.93zm8.845-5.454c.792.264 1.398.66 1.818 1.188.432.528.648 1.164.648 1.908 0 .732-.198 1.374-.594 1.926-.396.54-.966.96-1.71 1.26-.732.288-1.596.432-2.592.432-1.512 0-2.7-.324-3.564-.972-.864-.648-1.296-1.53-1.296-2.646 0-.756.204-1.392.612-1.908.42-.528 1.026-.924 1.818-1.188-.648-.252-1.14-.612-1.476-1.08-.336-.48-.504-1.044-.504-1.692 0-1.02.396-1.83 1.188-2.43.804-.6 1.878-.9 3.222-.9.888 0 1.662.138 2.322.414.672.264 1.194.648 1.566 1.152.372.504.558 1.092.558 1.764 0 .648-.174 1.212-.522 1.692-.348.468-.846.828-1.494 1.08zm-5.544-2.736c0 .696.276 1.248.828 1.656.552.408 1.314.612 2.286.612s1.734-.204 2.286-.612c.564-.408.846-.954.846-1.638 0-.708-.288-1.266-.864-1.674-.564-.408-1.32-.612-2.268-.612-.96 0-1.722.204-2.286.612-.552.408-.828.96-.828 1.656zm3.114 8.352c1.116 0 1.986-.228 2.61-.684.636-.456.954-1.074.954-1.854s-.318-1.392-.954-1.836c-.624-.456-1.494-.684-2.61-.684-1.104 0-1.974.228-2.61.684-.624.444-.936 1.056-.936 1.836 0 .792.312 1.416.936 1.872.624.444 1.494.666 2.61.666zM107.625 129.926h-2.16v4.212h-1.278v-9.468h1.278v4.158h2.178l3.33-4.158h1.386l-3.726 4.59 3.996 4.878h-1.512l-3.492-4.212zm14.761-5.256v9.468h-1.278v-8.334h-4.536l-.126 2.34c-.096 1.968-.324 3.48-.684 4.536-.36 1.056-1.002 1.584-1.926 1.584-.252 0-.558-.048-.918-.144l.09-1.098c.216.048.366.072.45.072.492 0 .864-.228 1.116-.684.252-.456.42-1.02.504-1.692.084-.672.156-1.56.216-2.664l.162-3.384h6.93zm6.891-.072c1.236 0 2.184.312 2.844.936.66.612.99 1.524.99 2.736v5.868h-1.224v-1.476c-.288.492-.714.876-1.278 1.152-.552.276-1.212.414-1.98.414-1.056 0-1.896-.252-2.52-.756-.624-.504-.936-1.17-.936-1.998 0-.804.288-1.452.864-1.944.588-.492 1.518-.738 2.79-.738h3.006v-.576c0-.816-.228-1.434-.684-1.854-.456-.432-1.122-.648-1.998-.648-.6 0-1.176.102-1.728.306a4.233 4.233 0 0 0-1.422.81l-.576-.954a4.99 4.99 0 0 1 1.728-.936 6.566 6.566 0 0 1 2.124-.342zm-.45 8.622c.72 0 1.338-.162 1.854-.486.516-.336.9-.816 1.152-1.44v-1.548h-2.97c-1.62 0-2.43.564-2.43 1.692 0 .552.21.99.63 1.314.42.312 1.008.468 1.764.468zm16.92-.198v3.402h-1.206v-2.286h-8.478v2.286h-1.206v-3.402h.54c.636-.036 1.068-.504 1.296-1.404.228-.9.384-2.16.468-3.78l.126-3.168h6.984v8.352h1.476zm-7.416-5.112c-.06 1.344-.174 2.454-.342 3.33-.168.864-.468 1.458-.9 1.782h5.904v-7.218h-4.554l-.108 2.106zm13.813 6.318c-.912 0-1.734-.204-2.466-.612a4.594 4.594 0 0 1-1.728-1.728c-.42-.732-.63-1.56-.63-2.484 0-.924.21-1.752.63-2.484a4.465 4.465 0 0 1 1.728-1.71c.732-.408 1.554-.612 2.466-.612.912 0 1.734.204 2.466.612a4.34 4.34 0 0 1 1.71 1.71c.42.732.63 1.56.63 2.484 0 .924-.21 1.752-.63 2.484a4.465 4.465 0 0 1-1.71 1.728c-.732.408-1.554.612-2.466.612zm0-1.134c.672 0 1.272-.15 1.8-.45.54-.312.96-.75 1.26-1.314.3-.564.45-1.206.45-1.926s-.15-1.362-.45-1.926c-.3-.564-.72-.996-1.26-1.296-.528-.312-1.128-.468-1.8-.468-.672 0-1.278.156-1.818.468-.528.3-.948.732-1.26 1.296-.3.564-.45 1.206-.45 1.926s.15 1.362.45 1.926a3.406 3.406 0 0 0 1.26 1.314c.54.3 1.146.45 1.818.45zm13.567-3.852c1.284.3 1.926 1.074 1.926 2.322 0 .828-.306 1.464-.918 1.908-.612.444-1.524.666-2.736.666h-4.302v-9.468h4.176c1.08 0 1.926.21 2.538.63.612.42.918 1.02.918 1.8 0 .516-.144.96-.432 1.332-.276.36-.666.63-1.17.81zm-4.788-.36h2.844c.732 0 1.29-.138 1.674-.414.396-.276.594-.678.594-1.206 0-.528-.198-.924-.594-1.188-.384-.264-.942-.396-1.674-.396h-2.844v3.204zm3.006 4.248c.816 0 1.428-.132 1.836-.396.408-.264.612-.678.612-1.242s-.186-.978-.558-1.242c-.372-.276-.96-.414-1.764-.414h-3.132v3.294h3.006zm9.961-8.532c1.236 0 2.184.312 2.844.936.66.612.99 1.524.99 2.736v5.868H176.5v-1.476c-.288.492-.714.876-1.278 1.152-.552.276-1.212.414-1.98.414-1.056 0-1.896-.252-2.52-.756-.624-.504-.936-1.17-.936-1.998 0-.804.288-1.452.864-1.944.588-.492 1.518-.738 2.79-.738h3.006v-.576c0-.816-.228-1.434-.684-1.854-.456-.432-1.122-.648-1.998-.648-.6 0-1.176.102-1.728.306a4.233 4.233 0 0 0-1.422.81l-.576-.954a4.99 4.99 0 0 1 1.728-.936 6.566 6.566 0 0 1 2.124-.342zm-.45 8.622c.72 0 1.338-.162 1.854-.486.516-.336.9-.816 1.152-1.44v-1.548h-2.97c-1.62 0-2.43.564-2.43 1.692 0 .552.21.99.63 1.314.42.312 1.008.468 1.764.468zm14.959-8.55v9.468h-1.17v-3.132h-3.33l-2.196 3.132h-1.386l2.358-3.312c-.732-.204-1.296-.552-1.692-1.044-.396-.492-.594-1.116-.594-1.872 0-1.056.36-1.86 1.08-2.412.72-.552 1.704-.828 2.952-.828h3.978zm-6.714 3.276c0 1.404.894 2.106 2.682 2.106h2.862v-4.248h-2.772c-1.848 0-2.772.714-2.772 2.142zM134.759 150.824v12.6h-1.296v-11.448h-2.97v-1.152h4.266zm3.984 12.69a.934.934 0 0 1-.684-.288.989.989 0 0 1-.27-.702c0-.276.09-.504.27-.684a.934.934 0 0 1 .684-.288c.264 0 .492.096.684.288.192.18.288.408.288.684 0 .276-.096.51-.288.702a.934.934 0 0 1-.684.288zm6.766-12.798c1.668 0 2.946.552 3.834 1.656.888 1.092 1.332 2.64 1.332 4.644 0 1.404-.24 2.592-.72 3.564s-1.152 1.71-2.016 2.214c-.864.492-1.872.738-3.024.738-1.248 0-2.244-.228-2.988-.684l.522-1.044c.6.396 1.416.594 2.448.594 1.392 0 2.484-.438 3.276-1.314.792-.888 1.188-2.172 1.188-3.852 0-.312-.018-.654-.054-1.026a3.445 3.445 0 0 1-1.494 1.602c-.684.372-1.47.558-2.358.558-.828 0-1.566-.156-2.214-.468a3.62 3.62 0 0 1-1.494-1.314c-.36-.576-.54-1.242-.54-1.998 0-.768.186-1.446.558-2.034a3.635 3.635 0 0 1 1.53-1.35c.66-.324 1.398-.486 2.214-.486zm.144 6.552c.636 0 1.194-.12 1.674-.36.492-.24.876-.57 1.152-.99.276-.42.414-.888.414-1.404 0-.48-.132-.924-.396-1.332-.252-.408-.63-.738-1.134-.99-.504-.252-1.104-.378-1.8-.378-.912 0-1.656.252-2.232.756-.564.492-.846 1.152-.846 1.98 0 .828.282 1.488.846 1.98.576.492 1.35.738 2.322.738zm15.653-6.444v.918l-5.274 11.682h-1.404l5.184-11.448h-6.48v2.358h-1.278v-3.51h9.252z" fill="#20201F"/></g><defs><clipPath id="a"><path fill="#fff" transform="translate(66 19)" d="M0 0h468.916v512.031H0z"/></clipPath></defs></svg>