<svg width="450" height="600" fill="none" xmlns="http://www.w3.org/2000/svg"><path fill="#fff" d="M0 0h450v600H0z"/><g clip-path="url(#a)"><path fill-rule="evenodd" clip-rule="evenodd" d="M410.22 478.75h-14.967v-.026H265.296v95.84l-211.32-19.33v19.33H39V26h371.22v452.75z" fill="#2A2274"/><path fill-rule="evenodd" clip-rule="evenodd" d="M39 26h371.22v452.724H265.296v95.84L39 553.864V26z" fill="#C6C0E1"/><path d="M410.22 26h-14.967v452.75h14.967V26z" fill="#ED9FA6"/><path fill-rule="evenodd" clip-rule="evenodd" d="M410.22 70.918h-14.967V40.975H53.976v533.589H39V26h371.22v44.918z" fill="#CFD0D0"/><path fill-rule="evenodd" clip-rule="evenodd" d="M39 26h371.22v452.724H265.296v95.84L39 553.864V26z" fill="#FFF9D0"/><path d="M410.22 26h-14.967v452.75h14.967V26z" fill="#E4CDA1"/><path d="M410.22 448.204h-14.967v14.976h14.967v-14.976zM238.347 427.242h-35.93v35.938h35.93v-35.938zM410.22 26h-14.967v422.204h14.967V26zM53.975 26H39v544.976h14.975V26z" fill="#20201F"/><path d="M189.245 26H39v14.975h150.245V26zM410.22 26H249.13v14.975h161.09V26zM53.896 570.976H39v3.588h14.896v-3.588zM82.64 448.204H53.976v22.757H82.64v-22.757zM269.488 448.204h-85.039v22.74h85.039v-22.74zM410.22 448.204h-14.967v22.757h14.967v-22.757zM410.22 470.961h-18.564v7.79h18.564v-7.79zM273.085 470.944h-88.636v7.807h88.636v-7.807zM82.64 470.961H53.976v7.79H82.64v-7.79z" fill="#20201F"/><path d="M69.467 478.75h-7.186v95.814h7.186V478.75z" fill="#20201F"/><path d="M64.161 475.966H47.85v98.598h16.312v-98.598z" fill="#20201F"/><path fill-rule="evenodd" clip-rule="evenodd" d="M258.11 478.75h7.186v95.814l-195.829-17.96v-7.22L258.11 566.69v-87.94z" fill="#20201F"/><path d="M201.687 194.905h-28.616v4.771h28.616v-4.771z" fill="#20201F"/><path d="M201.686 194.905h-4.787v70.642h4.787v-70.642zM177.867 138.482h-4.796v61.219h4.796v-61.219zM277.278 194.905H257.88v4.796h19.398v-4.796zM173.071 194.905H53.897v4.771H173.07v-4.771zM177.867 40.975h-4.796v60.336h4.796V40.975z" fill="#20201F"/><path d="M277.278 114.186h-4.796v85.515h4.796v-85.515zM395.253 119.671H277.278v4.788h117.975v-4.788zM277.278 40.975h-4.796v6.548h4.796v-6.548zM391.663 474.872H273.076v3.852h118.587v-3.852zM395.252 467.107H269.486v3.852h125.766v-3.852zM395.252 448.202H269.486v3.852h125.766v-3.852zM184.447 474.872h-53.896v3.852h53.896v-3.852zM184.449 467.107h-53.898v3.852h53.898v-3.852zM184.449 448.202h-53.898v3.852h53.898v-3.852z" fill="#20201F"/><path d="M133.377 448.203h-2.826v30.542h2.826v-30.542z" fill="#20201F"/><path fill-rule="evenodd" clip-rule="evenodd" d="M243.691 29.362a1.702 1.702 0 0 1 3.402 0v35.996a1.701 1.701 0 0 1-3.402 0V29.362zM191.641 29.02a.85.85 0 0 1 1.7 0c0 9.759 5.086 18.609 13.303 25.026 8.277 6.462 19.728 10.461 32.384 10.461a.85.85 0 0 1 0 1.701c-13.039 0-24.86-4.139-33.426-10.827-8.624-6.734-13.961-16.054-13.961-26.361zM175.368 103.129a1.702 1.702 0 0 1 0 3.402h-35.996a1.702 1.702 0 0 1 0-3.402h35.996zM175.71 135.48a.852.852 0 0 1 0 1.701c-10.222 0-19.49-3.169-26.208-8.293-6.783-5.173-10.98-12.34-10.98-20.269a.85.85 0 0 1 1.701 0c0 7.372 3.94 14.064 10.308 18.921 6.433 4.906 15.335 7.94 25.179 7.94zM88.31 468.749a1.702 1.702 0 0 1-3.402 0v-35.996a1.701 1.701 0 0 1 3.401 0v35.996zM128.404 469.091a.85.85 0 0 1-1.701 0c0-9.803-3.938-18.676-10.302-25.095-6.363-6.421-15.158-10.393-24.867-10.393a.85.85 0 0 1 0-1.701c10.177 0 19.397 4.165 26.07 10.898a37.237 37.237 0 0 1 10.8 26.291zM147.025 202.623H56.67v36.142h91.418v-36.142h-1.063zm-62.076 4.274c.995 0 1.901.406 2.555 1.064a3.608 3.608 0 0 1 1.06 2.55v20.409a3.624 3.624 0 0 1-3.615 3.614H64.54a3.62 3.62 0 0 1-3.612-3.614v-20.409c0-.995.406-1.9 1.063-2.551a3.599 3.599 0 0 1 2.55-1.063h20.41zm51.566 1.689c1.376 0 2.626.56 3.531 1.464a4.983 4.983 0 0 1-.002 7.063 4.983 4.983 0 0 1-7.059-.001 4.975 4.975 0 0 1-1.466-3.53c0-1.378.56-2.628 1.464-3.532a4.982 4.982 0 0 1 3.532-1.464zm0 13.163a6.04 6.04 0 0 1 4.283 1.775 6.047 6.047 0 0 1 1.776 4.284c0 1.672-.68 3.187-1.776 4.283a6.041 6.041 0 0 1-4.283 1.776 6.045 6.045 0 0 1-4.284-1.776 6.04 6.04 0 0 1-1.775-4.283c0-1.671.679-3.187 1.775-4.284a6.044 6.044 0 0 1 4.284-1.775zm-3.233 2.826a4.565 4.565 0 0 1 3.233-1.338c1.263 0 2.406.513 3.232 1.338a4.562 4.562 0 0 1 1.339 3.233 4.558 4.558 0 0 1-1.339 3.232 4.558 4.558 0 0 1-3.232 1.339 4.562 4.562 0 0 1-3.233-1.339 4.561 4.561 0 0 1-1.338-3.232c0-1.262.513-2.407 1.338-3.233zm-9.762-17.052a6.04 6.04 0 0 1 4.283 1.775 6.044 6.044 0 0 1 1.776 4.284 6.044 6.044 0 0 1-1.775 4.284 6.043 6.043 0 0 1-4.284 1.775 6.045 6.045 0 0 1-4.284-1.776 6.042 6.042 0 0 1-1.775-4.283c0-1.671.679-3.188 1.775-4.284a6.046 6.046 0 0 1 4.284-1.775zm-3.232 2.826a4.561 4.561 0 0 1 3.232-1.338c1.263 0 2.406.513 3.232 1.338a4.56 4.56 0 0 1 1.339 3.233 4.561 4.561 0 0 1-1.338 3.233 4.559 4.559 0 0 1-3.233 1.337 4.555 4.555 0 0 1-3.232-1.338 4.56 4.56 0 0 1-1.339-3.232c0-1.262.513-2.407 1.339-3.233zm3.232 12.463a4.99 4.99 0 0 1 3.532 1.464 4.985 4.985 0 0 1-.003 7.064 4.987 4.987 0 0 1-7.059-.002 4.975 4.975 0 0 1-1.466-3.53c0-1.378.56-2.628 1.464-3.532a4.982 4.982 0 0 1 3.532-1.464zm-2.481 2.515a3.503 3.503 0 0 1 2.481-1.027 3.508 3.508 0 0 1 3.508 3.508 3.49 3.49 0 0 1-1.025 2.48 3.493 3.493 0 0 1-2.483 1.028 3.5 3.5 0 0 1-2.481-1.028 3.484 3.484 0 0 1-1.027-2.48c0-.969.394-1.847 1.027-2.481zm12.995-14.226a3.5 3.5 0 0 1 2.481-1.027c.971 0 1.848.392 2.48 1.024a3.512 3.512 0 0 1 .003 4.964 3.498 3.498 0 0 1-2.483 1.027 3.5 3.5 0 0 1-2.481-1.027 3.486 3.486 0 0 1-1.027-2.48c0-.969.394-1.847 1.027-2.481zm-69.494-2.078h20.41c.407 0 .78.168 1.05.438.27.267.438.64.438 1.05v20.409a1.486 1.486 0 0 1-1.489 1.488H64.54c-.409 0-.782-.166-1.049-.433a1.506 1.506 0 0 1-.437-1.055v-20.409c0-.407.168-.781.438-1.05.267-.272.639-.438 1.049-.438zm49.567 27.616v-31.89h31.855v31.89h-31.855zm-2.126-31.89v31.89H58.796v-31.89h53.185zM89.325 157.757c-2.797 1.799-6.386 2.91-9.541 2.91-3.106 0-5.53-1.066-7.217-2.81v-.005c-.637-.661-1.131-1.445-1.55-2.276v3.588c0 2.141-.894 3.396-2.33 4.125-1.308.665-3.037.829-4.932.829h-.783v-.019c-1.58-.044-3.022-.242-4.145-.81-1.436-.729-2.326-1.984-2.326-4.115V141.58c0-2.141.89-3.394 2.326-4.119 1.123-.564 2.566-.767 4.145-.81v-.019h.783c1.895 0 3.624.164 4.931.829 1.437.725 2.331 1.978 2.331 4.119v3.594c.419-.831.908-1.612 1.55-2.275 1.688-1.747 4.111-2.814 7.217-2.814 3.334 0 7.15 1.244 10.013 3.226 2.642 1.829 4.496 4.303 4.496 7.064 0 2.925-2.08 5.529-4.969 7.382zm-27.904-7.889h-.005v.003c0 .631.264 1.212.681 1.63v.005a2.3 2.3 0 0 0 1.632.675c.64 0 1.21-.258 1.628-.675h.008l-.001-.005a2.313 2.313 0 0 0 0-3.265 2.31 2.31 0 0 0-3.943 1.632zm1.183-.002v.005c0 .311.124.593.32.792h.009a1.142 1.142 0 0 0 1.597.011l.005-.009c.196-.201.323-.483.323-.794a1.14 1.14 0 0 0-.323-.803c-.201-.196-.49-.321-.806-.321-.314 0-.6.125-.796.33-.21.197-.336.481-.336.789h.007zm6.851-8.286c0-1.444-.567-2.269-1.466-2.729-.932-.465-2.225-.621-3.686-.648h-.548c-1.683 0-3.192.128-4.23.648-.9.46-1.46 1.286-1.46 2.729v17.594c0 1.441.56 2.263 1.46 2.723 1.038.524 2.547.651 4.23.651h.609c1.43-.033 2.713-.187 3.625-.648.906-.463 1.466-1.292 1.466-2.736V141.58zm19.458 3.011c-2.612-1.812-6.093-2.944-9.129-2.944-2.653 0-4.694.886-6.095 2.332-1.533 1.583-2.326 3.862-2.326 6.396 0 2.539.793 4.815 2.326 6.402 1.4 1.443 3.442 2.327 6.095 2.327 2.867 0 6.142-1.014 8.702-2.658 2.467-1.583 4.243-3.74 4.243-6.071 0-2.191-1.58-4.228-3.816-5.784zM56.039 121.307l-.006-19.49c0-6.518 13.492-5.75 14.393-5.683a11.29 11.29 0 0 1 8.007 3.326 11.307 11.307 0 0 1 3.316 8.009v8.271c0 3.129-1.267 5.964-3.316 8.018a11.392 11.392 0 0 1-8.013 3.329c-.915.042-14.387.713-14.381-5.78zm13.142-9.706h.003c.007.686.276 1.319.727 1.77a2.536 2.536 0 0 0 1.766.718 2.484 2.484 0 0 0 2.492-2.49c0-.684-.276-1.309-.728-1.76v-.008h-.005a2.477 2.477 0 0 0-1.76-.732c-.681 0-1.315.281-1.765.732v.002a2.505 2.505 0 0 0-.734 1.766l.004.002zm1.272.005c0 .325.134.632.36.852.214.214.522.352.864.352.34 0 .648-.132.869-.346.211-.221.35-.522.347-.865 0-.344-.133-.64-.347-.861l-.006-.005a1.21 1.21 0 0 0-.864-.352c-.335 0-.643.142-.864.354l-.002.005a1.205 1.205 0 0 0-.346.854l.002.012h-.013zm-9.665-.005c0 3.143.936 5.995 2.439 8.069 1.572 2.155 3.767 3.494 6.2 3.496 2.443 0 4.637-1.341 6.212-3.496 1.511-2.082 2.44-4.936 2.44-8.079v-.013c-.008-3.135-.943-5.981-2.449-8.061-1.57-2.146-3.76-3.483-6.19-3.484l-.013.001c-2.439 0-4.622 1.337-6.2 3.5-1.505 2.069-2.439 4.92-2.436 8.06l-.003.007zm1.758 0c.005 2.754.813 5.242 2.111 7.042 1.242 1.698 2.933 2.755 4.77 2.755 1.849 0 3.54-1.057 4.787-2.769 1.293-1.79 2.099-4.274 2.099-7.038v-.005l.005-.008c-.005-2.757-.81-5.235-2.112-7.025-1.236-1.694-2.93-2.75-4.765-2.755l-.014.005c-1.84-.003-3.533 1.055-4.77 2.756-1.293 1.791-2.106 4.276-2.103 7.032v.01h-.008zm-4.748 9.7c0 4.839 12.525 4.015 12.558 4.015l.065-.008a9.56 9.56 0 0 0 6.763-2.791 9.579 9.579 0 0 0 2.8-6.777v-8.262a9.557 9.557 0 0 0-9.563-9.584l-.063-.003c-.031 0-12.56-.887-12.56 3.931v19.479zM58.8 45.847H160.39v41.559H58.8V45.847zm19.795 24.819a4.04 4.04 0 1 0 0-8.078 4.04 4.04 0 0 0 0 8.078zm1.716-2.325a2.419 2.419 0 0 0 .708-1.715 2.42 2.42 0 0 0-2.424-2.423 2.421 2.421 0 0 0-2.424 2.424 2.42 2.42 0 0 0 2.424 2.423c.67 0 1.276-.272 1.716-.709zM66.468 86.216l71.712-1.615c10.771 0 19.59-7.204 19.59-17.975 0-10.77-8.819-17.974-19.59-17.974l-71.712-1.616c-1.39 0-2.653.57-3.567 1.483a5.05 5.05 0 0 0-1.483 3.567v29.081c0 1.385.568 2.647 1.483 3.563a5.04 5.04 0 0 0 3.567 1.486zm71.712-3.635c9.667 0 17.571-6.288 17.571-15.955s-7.904-15.954-17.571-15.954l-71.712-1.616a3.038 3.038 0 0 0-3.03 3.03v29.081c0 .835.34 1.592.891 2.143a3.017 3.017 0 0 0 2.139.887l71.712-1.616zm22.422-38.713H58.587c-.507 0-.97.202-1.306.52-.338.32-.546.767-.546 1.256v41.965c0 .489.208.935.542 1.255.335.32.8.52 1.31.52h102.015c.51 0 .974-.2 1.31-.52a1.76 1.76 0 0 0 .542-1.255V45.644c0-.487-.21-.93-.542-1.252a1.902 1.902 0 0 0-1.31-.524z" fill="#20201F"/><path d="M292.935 262h-2.126v101.095h2.126V262zM315.682 271.362v14.373h-1.478v-13.059h-3.388v-1.314h4.866zm7.214 5.893c2.081 0 3.593.376 4.538 1.129.958.739 1.437 1.78 1.437 3.121 0 .835-.199 1.581-.595 2.238-.384.657-.966 1.178-1.746 1.561-.78.369-1.738.554-2.874.554a8.749 8.749 0 0 1-2.937-.493c-.917-.342-1.656-.794-2.217-1.355l.719-1.17c.479.493 1.108.896 1.889 1.211.78.301 1.622.452 2.525.452 1.191 0 2.108-.267 2.751-.801.658-.534.986-1.245.986-2.135 0-.986-.37-1.732-1.109-2.238-.725-.507-1.957-.76-3.696-.76h-3.059l.739-7.207h7.864v1.314h-6.57l-.493 4.579h1.848zm8.961 8.583c-.302 0-.562-.11-.781-.329a1.13 1.13 0 0 1-.308-.801c0-.314.103-.575.308-.78.219-.219.479-.328.781-.328.301 0 .561.109.78.328.219.205.328.466.328.78 0 .315-.109.582-.328.801a1.066 1.066 0 0 1-.78.329zm8.976-8.706c.944 0 1.779.178 2.505.534a4.054 4.054 0 0 1 1.725 1.519c.41.643.616 1.396.616 2.259 0 .876-.213 1.649-.637 2.32a4.25 4.25 0 0 1-1.766 1.56c-.739.356-1.574.534-2.505.534-1.902 0-3.36-.623-4.373-1.868-1.013-1.26-1.52-3.032-1.52-5.318 0-1.602.274-2.957.822-4.066.547-1.109 1.314-1.944 2.299-2.505.986-.575 2.136-.862 3.45-.862 1.424 0 2.56.26 3.408.78l-.595 1.191c-.685-.452-1.615-.678-2.793-.678-1.587 0-2.833.507-3.737 1.52-.903.999-1.355 2.457-1.355 4.373 0 .343.021.733.062 1.171.356-.781.924-1.383 1.704-1.807.78-.438 1.677-.657 2.69-.657zm-.123 7.474c1.04 0 1.882-.281 2.525-.842.657-.575.986-1.335.986-2.279 0-.945-.329-1.698-.986-2.259-.643-.561-1.519-.842-2.628-.842-.725 0-1.369.137-1.93.411-.548.274-.979.65-1.294 1.129a2.86 2.86 0 0 0-.472 1.602c0 .547.144 1.054.431 1.519.302.466.74.842 1.314 1.129.575.288 1.26.432 2.054.432zm12.635-7.474c.945 0 1.78.178 2.505.534a4.054 4.054 0 0 1 1.725 1.519c.411.643.616 1.396.616 2.259 0 .876-.212 1.649-.637 2.32a4.253 4.253 0 0 1-1.765 1.56c-.74.356-1.575.534-2.505.534-1.903 0-3.361-.623-4.374-1.868-1.013-1.26-1.519-3.032-1.519-5.318 0-1.602.273-2.957.821-4.066.547-1.109 1.314-1.944 2.3-2.505.985-.575 2.135-.862 3.449-.862 1.424 0 2.56.26 3.409.78l-.596 1.191c-.684-.452-1.615-.678-2.792-.678-1.588 0-2.834.507-3.737 1.52-.904.999-1.356 2.457-1.356 4.373 0 .343.021.733.062 1.171.356-.781.924-1.383 1.704-1.807.781-.438 1.677-.657 2.69-.657zm-.123 7.474c1.04 0 1.882-.281 2.525-.842.657-.575.986-1.335.986-2.279 0-.945-.329-1.698-.986-2.259-.643-.561-1.519-.842-2.628-.842-.725 0-1.369.137-1.93.411-.547.274-.979.65-1.293 1.129a2.853 2.853 0 0 0-.473 1.602c0 .547.144 1.054.432 1.519.301.466.739.842 1.314 1.129.575.288 1.259.432 2.053.432zM316.965 306.808c1.506.082 2.649.492 3.429 1.231.794.726 1.191 1.677 1.191 2.855 0 .821-.198 1.553-.595 2.197-.397.629-.986 1.129-1.766 1.498-.78.37-1.731.555-2.854.555a8.81 8.81 0 0 1-2.957-.493c-.917-.342-1.656-.794-2.217-1.355l.718-1.17c.48.492 1.116.896 1.91 1.211a7.124 7.124 0 0 0 2.546.452c1.177 0 2.088-.254 2.731-.76.643-.52.965-1.232.965-2.135 0-.89-.322-1.588-.965-2.095-.643-.506-1.615-.76-2.916-.76h-1.026v-1.088l3.983-4.989h-7.351v-1.314h9.24v1.047l-4.066 5.113zm16.586-6.16v1.047l-6.016 13.326h-1.602l5.914-13.059h-7.392v2.69h-1.458v-4.004h10.554zm1.974 14.475c-.301 0-.561-.109-.78-.328a1.125 1.125 0 0 1-.308-.801c0-.315.102-.575.308-.78.219-.219.479-.329.78-.329.301 0 .561.11.78.329.219.205.329.465.329.78s-.11.582-.329.801a1.065 1.065 0 0 1-.78.328zm8.75.021c-1.108 0-2.101-.294-2.977-.883-.862-.589-1.54-1.431-2.033-2.526-.479-1.108-.718-2.409-.718-3.901s.239-2.785.718-3.881c.493-1.108 1.171-1.957 2.033-2.546.876-.588 1.869-.883 2.977-.883 1.109 0 2.095.295 2.957.883.876.589 1.561 1.438 2.053 2.546.493 1.096.74 2.389.74 3.881s-.247 2.793-.74 3.901c-.492 1.095-1.177 1.937-2.053 2.526-.862.589-1.848.883-2.957.883zm0-1.355c.835 0 1.568-.233 2.197-.698.644-.466 1.143-1.143 1.499-2.033.356-.89.534-1.965.534-3.224 0-1.259-.178-2.334-.534-3.224-.356-.889-.855-1.567-1.499-2.032-.629-.466-1.362-.698-2.197-.698s-1.574.232-2.217.698c-.63.465-1.123 1.143-1.478 2.032-.356.89-.534 1.965-.534 3.224 0 1.259.178 2.334.534 3.224.355.89.848 1.567 1.478 2.033.643.465 1.382.698 2.217.698zm11.81-13.141v14.373h-1.478v-13.059h-3.388v-1.314h4.866zM316.185 336.094c1.506.082 2.649.492 3.429 1.232.794.725 1.191 1.676 1.191 2.854 0 .821-.198 1.553-.595 2.197-.397.629-.986 1.129-1.766 1.499-.78.369-1.732.554-2.854.554a8.806 8.806 0 0 1-2.957-.493c-.917-.342-1.656-.794-2.217-1.355l.718-1.17c.479.492 1.116.896 1.91 1.211a7.12 7.12 0 0 0 2.546.452c1.177 0 2.087-.253 2.731-.76.643-.52.965-1.232.965-2.135 0-.89-.322-1.588-.965-2.095-.644-.506-1.616-.759-2.916-.759h-1.027v-1.089l3.984-4.989h-7.351v-1.314h9.24v1.047l-4.066 5.113zm11.179-6.283c1.903 0 3.361.629 4.374 1.889 1.013 1.245 1.519 3.011 1.519 5.297 0 1.602-.273 2.957-.821 4.066-.548 1.108-1.314 1.95-2.3 2.525-.985.561-2.135.842-3.449.842-1.424 0-2.56-.26-3.409-.78l.596-1.191c.684.452 1.615.677 2.792.677 1.588 0 2.834-.499 3.737-1.499.904-1.012 1.355-2.477 1.355-4.394 0-.355-.02-.746-.061-1.17-.356.78-.924 1.389-1.704 1.828-.781.424-1.677.636-2.69.636-.945 0-1.787-.178-2.526-.534a4.131 4.131 0 0 1-1.704-1.499c-.411-.657-.616-1.416-.616-2.279 0-.876.212-1.649.637-2.32a4.144 4.144 0 0 1 1.745-1.54c.753-.37 1.595-.554 2.525-.554zm.165 7.474c.725 0 1.362-.137 1.909-.411.561-.274.999-.65 1.314-1.129.315-.48.473-1.013.473-1.602a2.74 2.74 0 0 0-.452-1.519c-.288-.466-.719-.842-1.294-1.13-.575-.287-1.259-.431-2.053-.431-1.04 0-1.889.288-2.546.862-.643.562-.965 1.315-.965 2.259 0 .945.322 1.697.965 2.259.657.561 1.54.842 2.649.842zm8.76 7.124c-.302 0-.562-.109-.781-.328a1.13 1.13 0 0 1-.308-.801c0-.315.103-.575.308-.78.219-.219.479-.329.781-.329.301 0 .561.11.78.329.219.205.328.465.328.78s-.109.582-.328.801a1.065 1.065 0 0 1-.78.328zm6.985-14.475v14.373h-1.479v-13.059h-3.388v-1.314h4.867zm9.164 14.496c-1.109 0-2.101-.294-2.977-.883-.863-.589-1.54-1.43-2.033-2.525-.479-1.109-.719-2.41-.719-3.902s.24-2.785.719-3.88c.493-1.109 1.17-1.958 2.033-2.546.876-.589 1.868-.883 2.977-.883 1.109 0 2.094.294 2.957.883.876.588 1.56 1.437 2.053 2.546.493 1.095.739 2.388.739 3.88s-.246 2.793-.739 3.902c-.493 1.095-1.177 1.936-2.053 2.525-.863.589-1.848.883-2.957.883zm0-1.355c.835 0 1.567-.233 2.197-.698.644-.466 1.143-1.143 1.499-2.033.356-.89.534-1.964.534-3.224 0-1.259-.178-2.334-.534-3.223-.356-.89-.855-1.568-1.499-2.033-.63-.466-1.362-.698-2.197-.698s-1.574.232-2.217.698c-.63.465-1.123 1.143-1.479 2.033-.356.889-.534 1.964-.534 3.223 0 1.26.178 2.334.534 3.224.356.89.849 1.567 1.479 2.033.643.465 1.382.698 2.217.698zM273.002 292.756V333h-9.314v-32.77h-8.049v-7.474h17.363z" fill="#20201F"/><path d="M296.896 160.494h-5.667v8.419h-3.183v-11.047h8.85v2.628zm6.41 8.583c-1.163 0-2.21-.24-3.141-.719a5.504 5.504 0 0 1-2.156-2.032c-.52-.863-.78-1.842-.78-2.937 0-1.095.26-2.073.78-2.936a5.365 5.365 0 0 1 2.156-2.012c.931-.493 1.978-.739 3.141-.739 1.164 0 2.204.246 3.121.739a5.365 5.365 0 0 1 2.156 2.012c.52.863.78 1.841.78 2.936s-.26 2.074-.78 2.937a5.504 5.504 0 0 1-2.156 2.032c-.917.479-1.957.719-3.121.719zm0-2.628c.822 0 1.492-.274 2.012-.822.534-.561.801-1.307.801-2.238 0-.93-.267-1.67-.801-2.217-.52-.561-1.19-.842-2.012-.842-.821 0-1.499.281-2.032.842-.534.547-.801 1.287-.801 2.217 0 .931.267 1.677.801 2.238.533.548 1.211.822 2.032.822zm13.517 2.628c-1.177 0-2.238-.24-3.183-.719a5.624 5.624 0 0 1-2.197-2.032c-.52-.863-.78-1.842-.78-2.937 0-1.095.26-2.073.78-2.936a5.482 5.482 0 0 1 2.197-2.012c.945-.493 2.006-.739 3.183-.739 1.163 0 2.176.246 3.039.739a4.257 4.257 0 0 1 1.909 2.074l-2.484 1.334c-.575-1.013-1.403-1.519-2.485-1.519-.835 0-1.526.274-2.073.821-.548.548-.822 1.294-.822 2.238 0 .945.274 1.691.822 2.238.547.548 1.238.822 2.073.822 1.095 0 1.924-.507 2.485-1.52l2.484 1.356c-.397.876-1.033 1.56-1.909 2.053-.863.493-1.876.739-3.039.739zm16.136-8.583h-3.737v8.419h-3.183v-8.419h-3.737v-2.628h10.657v2.628zm1.707-2.628h3.183v6.571l5.379-6.571h2.936v11.047h-3.182v-6.571l-5.359 6.571h-2.957v-11.047zm14.577 0h3.183v4.312h4.805v-4.312h3.203v11.047h-3.203v-4.127h-4.805v4.127h-3.183v-11.047zm18.548-.164c1.712 0 3.026.41 3.943 1.232.917.807 1.375 2.033 1.375 3.675v6.304h-2.997v-1.376c-.603 1.027-1.725 1.54-3.368 1.54-.848 0-1.588-.144-2.217-.431-.616-.288-1.089-.685-1.417-1.191a3.099 3.099 0 0 1-.493-1.725c0-1.027.383-1.834 1.15-2.423.78-.588 1.978-.883 3.593-.883h2.546c0-.698-.212-1.232-.636-1.601-.425-.383-1.061-.575-1.91-.575-.588 0-1.17.096-1.745.287a4.454 4.454 0 0 0-1.437.74l-1.15-2.239c.602-.424 1.321-.752 2.156-.985a9.8 9.8 0 0 1 2.607-.349zm-.246 9.219c.548 0 1.034-.123 1.458-.37.424-.26.725-.636.903-1.129v-1.129h-2.197c-1.314 0-1.971.431-1.971 1.293 0 .411.158.74.472.986.329.233.774.349 1.335.349zm18.162-9.055v11.047h-2.854v-3.162h-2.362l-2.094 3.162h-3.408l2.525-3.614c-.767-.301-1.355-.732-1.766-1.294-.397-.575-.595-1.266-.595-2.073 0-1.301.465-2.3 1.396-2.998.945-.712 2.238-1.068 3.881-1.068h5.277zm-5.216 2.608c-.684 0-1.204.123-1.56.369-.342.247-.514.644-.514 1.191 0 .548.165.952.493 1.212.343.246.856.369 1.54.369h2.403v-3.141h-2.362zM317.509 183.656v14.373h-3.326v-11.703h-2.875v-2.67h6.201zm7.425 5.401c2.026 0 3.518.403 4.476 1.211.972.808 1.458 1.889 1.458 3.244 0 .876-.219 1.677-.657 2.403-.438.711-1.109 1.286-2.013 1.724-.889.425-1.991.637-3.305.637-1.013 0-2.013-.13-2.998-.39-.972-.274-1.8-.657-2.485-1.15l1.314-2.546c.548.41 1.178.732 1.889.965a7.434 7.434 0 0 0 2.197.328c.835 0 1.492-.164 1.972-.492.479-.329.718-.788.718-1.376 0-.616-.253-1.082-.759-1.396-.493-.315-1.356-.473-2.588-.473h-3.675l.739-8.09h8.768v2.67h-5.996l-.226 2.731h1.171zm9.172 9.137a1.928 1.928 0 0 1-1.417-.575c-.383-.384-.574-.863-.574-1.438 0-.588.191-1.06.574-1.416.384-.37.856-.555 1.417-.555s1.034.185 1.417.555c.383.356.575.828.575 1.416 0 .575-.192 1.054-.575 1.438a1.927 1.927 0 0 1-1.417.575zm10.144-9.178c.917 0 1.752.184 2.505.554a4.348 4.348 0 0 1 1.786 1.581c.438.671.657 1.451.657 2.341 0 .958-.239 1.8-.718 2.525-.479.726-1.137 1.287-1.972 1.684-.821.383-1.738.575-2.751.575-2.012 0-3.586-.616-4.722-1.848-1.137-1.232-1.705-2.991-1.705-5.277 0-1.629.308-3.025.924-4.189.616-1.163 1.472-2.046 2.567-2.648 1.109-.603 2.389-.904 3.84-.904.766 0 1.498.089 2.197.267.711.164 1.314.404 1.806.719l-1.232 2.443c-.711-.479-1.608-.719-2.689-.719-1.219 0-2.184.356-2.895 1.068-.712.712-1.096 1.745-1.15 3.101.848-.849 2.032-1.273 3.552-1.273zm-.678 6.775c.712 0 1.287-.191 1.725-.575.452-.383.678-.903.678-1.56s-.226-1.177-.678-1.561c-.438-.397-1.027-.595-1.766-.595-.725 0-1.321.205-1.786.616-.466.397-.698.91-.698 1.54s.226 1.143.677 1.54c.452.397 1.068.595 1.848.595zm13.751-6.775c.918 0 1.753.184 2.505.554a4.35 4.35 0 0 1 1.787 1.581c.438.671.657 1.451.657 2.341 0 .958-.24 1.8-.719 2.525-.479.726-1.136 1.287-1.971 1.684-.821.383-1.738.575-2.751.575-2.013 0-3.587-.616-4.723-1.848-1.136-1.232-1.704-2.991-1.704-5.277 0-1.629.308-3.025.924-4.189.616-1.163 1.471-2.046 2.567-2.648 1.108-.603 2.388-.904 3.839-.904.767 0 1.499.089 2.197.267.712.164 1.314.404 1.807.719l-1.232 2.443c-.712-.479-1.608-.719-2.69-.719-1.218 0-2.183.356-2.895 1.068-.712.712-1.095 1.745-1.15 3.101.849-.849 2.033-1.273 3.552-1.273zm-.677 6.775c.712 0 1.287-.191 1.725-.575.451-.383.677-.903.677-1.56s-.226-1.177-.677-1.561c-.438-.397-1.027-.595-1.766-.595-.726 0-1.321.205-1.787.616-.465.397-.698.91-.698 1.54s.226 1.143.678 1.54c.452.397 1.068.595 1.848.595z" fill="#000"/><path d="M107.739 317.174h-1.663v4.189h-3.203v-11.047h3.203v4.292h1.725l2.998-4.292h3.408l-3.86 5.298 4.127 5.749h-3.778l-2.957-4.189zm18.754-6.858-4.99 11.724c-.506 1.274-1.136 2.17-1.889 2.69-.739.52-1.636.781-2.69.781a5.603 5.603 0 0 1-1.704-.267c-.561-.178-1.02-.425-1.376-.74l1.171-2.279a2.737 2.737 0 0 0 1.807.698c.438 0 .794-.109 1.067-.328.274-.205.521-.555.74-1.047l.041-.103-4.784-11.129h3.305l3.101 7.495 3.121-7.495h3.08zm7.863 11.047-2.422-3.388-2.505 3.388h-3.491l4.25-5.564-4.106-5.483h3.593l2.341 3.224 2.402-3.224h3.408l-4.106 5.4 4.271 5.647h-3.635zm5.212-11.047h3.182v4.312h4.805v-4.312h3.203v11.047h-3.203v-4.127h-4.805v4.127h-3.182v-11.047zm24.071 0v11.047h-2.854v-3.162h-2.361l-2.095 3.162h-3.408l2.525-3.614c-.766-.301-1.355-.732-1.765-1.293-.397-.575-.596-1.267-.596-2.074 0-1.301.465-2.3 1.396-2.998.945-.712 2.238-1.068 3.881-1.068h5.277zm-5.215 2.608c-.685 0-1.205.123-1.561.37-.342.246-.513.643-.513 1.19 0 .548.164.952.493 1.212.342.246.855.369 1.54.369h2.402v-3.141h-2.361zM115.839 336.276v14.373h-3.326v-11.704h-2.875v-2.669h6.201zm8.657 14.619c-1.191 0-2.252-.294-3.183-.882-.931-.589-1.663-1.438-2.197-2.547-.52-1.122-.78-2.457-.78-4.003 0-1.547.26-2.875.78-3.984.534-1.122 1.266-1.978 2.197-2.566.931-.589 1.992-.883 3.183-.883 1.191 0 2.251.294 3.182.883.931.588 1.657 1.444 2.177 2.566.534 1.109.801 2.437.801 3.984 0 1.546-.267 2.881-.801 4.003-.52 1.109-1.246 1.958-2.177 2.547-.931.588-1.991.882-3.182.882zm0-2.813c.876 0 1.56-.376 2.053-1.129.506-.753.76-1.916.76-3.49 0-1.575-.254-2.738-.76-3.491-.493-.753-1.177-1.129-2.053-1.129-.863 0-1.547.376-2.054 1.129-.492.753-.739 1.916-.739 3.491 0 1.574.247 2.737.739 3.49.507.753 1.191 1.129 2.054 1.129zm9.404 2.731a1.925 1.925 0 0 1-1.417-.575c-.383-.383-.575-.862-.575-1.437 0-.589.192-1.061.575-1.417.384-.369.856-.554 1.417-.554s1.034.185 1.417.554c.383.356.575.828.575 1.417 0 .575-.192 1.054-.575 1.437a1.923 1.923 0 0 1-1.417.575zm8.708-14.537v14.373h-3.326v-11.704h-2.875v-2.669h6.201zm13.235 11.663v2.71h-10.862v-2.156l5.544-5.236c.589-.561.986-1.04 1.191-1.437.206-.411.308-.815.308-1.211 0-.575-.198-1.013-.595-1.315-.383-.314-.952-.472-1.704-.472a3.84 3.84 0 0 0-1.705.37c-.506.232-.93.588-1.273 1.067l-2.423-1.56c.562-.835 1.335-1.485 2.321-1.951.985-.479 2.115-.718 3.388-.718 1.067 0 1.998.178 2.792.534.808.342 1.43.835 1.868 1.478.452.63.678 1.376.678 2.238 0 .78-.164 1.513-.493 2.197-.328.684-.965 1.465-1.909 2.341l-3.306 3.121h6.18zM213.024 107.677l-3.006-3.96-3.024 3.96h-1.44l3.744-4.86-3.564-4.607h1.44l2.844 3.707 2.844-3.707h1.404l-3.564 4.607 3.78 4.86h-1.458zm7.125.09c-.912 0-1.734-.204-2.466-.612a4.594 4.594 0 0 1-1.728-1.728c-.42-.732-.63-1.56-.63-2.484 0-.924.21-1.752.63-2.484a4.467 4.467 0 0 1 1.728-1.71c.732-.407 1.554-.611 2.466-.611.912 0 1.734.203 2.466.611a4.342 4.342 0 0 1 1.71 1.71c.42.732.63 1.56.63 2.484 0 .924-.21 1.752-.63 2.484a4.465 4.465 0 0 1-1.71 1.728c-.732.408-1.554.612-2.466.612zm0-1.134c.672 0 1.272-.15 1.8-.45.54-.312.96-.75 1.26-1.314.3-.564.45-1.206.45-1.926s-.15-1.362-.45-1.926a3.12 3.12 0 0 0-1.26-1.295c-.528-.313-1.128-.468-1.8-.468-.672 0-1.278.155-1.818.468-.528.299-.948.731-1.26 1.295-.3.564-.45 1.206-.45 1.926s.15 1.362.45 1.926a3.406 3.406 0 0 0 1.26 1.314c.54.3 1.146.45 1.818.45zm15.225-8.423v9.467h-1.278v-8.334h-4.536l-.126 2.34c-.096 1.968-.324 3.48-.684 4.536-.36 1.056-1.002 1.584-1.926 1.584-.252 0-.558-.048-.918-.144l.09-1.098c.216.048.366.072.45.072.492 0 .864-.228 1.116-.684.252-.456.42-1.02.504-1.692.084-.672.156-1.56.216-2.664l.162-3.383h6.93zm11.373 0v9.467h-1.278v-8.334h-4.536l-.126 2.34c-.096 1.968-.324 3.48-.684 4.536-.36 1.056-1.002 1.584-1.926 1.584-.252 0-.558-.048-.918-.144l.09-1.098c.216.048.366.072.45.072.492 0 .864-.228 1.116-.684.252-.456.42-1.02.504-1.692.084-.672.156-1.56.216-2.664l.162-3.383h6.93zM219.369 133.651h-2.52v3.312h-1.296v-3.312h-7.11v-.936l6.678-8.352h1.44l-6.444 8.136h5.472v-2.916h1.26v2.916h2.52v1.152zm2.514 3.402a.934.934 0 0 1-.684-.288.989.989 0 0 1-.27-.702c0-.276.09-.504.27-.684a.934.934 0 0 1 .684-.288c.264 0 .492.096.684.288.192.18.288.408.288.684 0 .276-.096.51-.288.702a.934.934 0 0 1-.684.288zm7.671.018c-.972 0-1.842-.258-2.61-.774-.756-.516-1.35-1.254-1.782-2.214-.42-.972-.63-2.112-.63-3.42 0-1.308.21-2.442.63-3.402.432-.972 1.026-1.716 1.782-2.232.768-.516 1.638-.774 2.61-.774s1.836.258 2.592.774c.768.516 1.368 1.26 1.8 2.232.432.96.648 2.094.648 3.402 0 1.308-.216 2.448-.648 3.42-.432.96-1.032 1.698-1.8 2.214-.756.516-1.62.774-2.592.774zm0-1.188c.732 0 1.374-.204 1.926-.612.564-.408 1.002-1.002 1.314-1.782.312-.78.468-1.722.468-2.826s-.156-2.046-.468-2.826c-.312-.78-.75-1.374-1.314-1.782-.552-.408-1.194-.612-1.926-.612s-1.38.204-1.944.612c-.552.408-.984 1.002-1.296 1.782-.312.78-.468 1.722-.468 2.826s.156 2.046.468 2.826c.312.78.744 1.374 1.296 1.782a3.231 3.231 0 0 0 1.944.612zm12.116-6.462c.828 0 1.56.156 2.196.468a3.556 3.556 0 0 1 1.512 1.332c.36.564.54 1.224.54 1.98 0 .768-.186 1.446-.558 2.034a3.733 3.733 0 0 1-1.548 1.368c-.648.312-1.38.468-2.196.468-1.668 0-2.946-.546-3.834-1.638-.888-1.104-1.332-2.658-1.332-4.662 0-1.404.24-2.592.72-3.564s1.152-1.704 2.016-2.196c.864-.504 1.872-.756 3.024-.756 1.248 0 2.244.228 2.988.684l-.522 1.044c-.6-.396-1.416-.594-2.448-.594-1.392 0-2.484.444-3.276 1.332-.792.876-1.188 2.154-1.188 3.834 0 .3.018.642.054 1.026a3.351 3.351 0 0 1 1.494-1.584c.684-.384 1.47-.576 2.358-.576zm-.108 6.552c.912 0 1.65-.246 2.214-.738.576-.504.864-1.17.864-1.998 0-.828-.288-1.488-.864-1.98-.564-.492-1.332-.738-2.304-.738-.636 0-1.2.12-1.692.36-.48.24-.858.57-1.134.99-.276.42-.414.888-.414 1.404 0 .48.126.924.378 1.332.264.408.648.738 1.152.99.504.252 1.104.378 1.8.378zM169.558 498.871v9.468h-1.278v-8.334h-4.536l-.126 2.34c-.096 1.968-.324 3.48-.684 4.536-.36 1.056-1.002 1.584-1.926 1.584-.252 0-.558-.048-.918-.144l.09-1.098c.216.048.366.072.45.072.492 0 .864-.228 1.116-.684.252-.456.42-1.02.504-1.692.084-.672.156-1.56.216-2.664l.162-3.384h6.93zm7.539 9.558c-.912 0-1.734-.204-2.466-.612a4.594 4.594 0 0 1-1.728-1.728c-.42-.732-.63-1.56-.63-2.484 0-.924.21-1.752.63-2.484a4.465 4.465 0 0 1 1.728-1.71c.732-.408 1.554-.612 2.466-.612.912 0 1.734.204 2.466.612a4.34 4.34 0 0 1 1.71 1.71c.42.732.63 1.56.63 2.484 0 .924-.21 1.752-.63 2.484a4.465 4.465 0 0 1-1.71 1.728c-.732.408-1.554.612-2.466.612zm0-1.134c.672 0 1.272-.15 1.8-.45.54-.312.96-.75 1.26-1.314.3-.564.45-1.206.45-1.926s-.15-1.362-.45-1.926c-.3-.564-.72-.996-1.26-1.296-.528-.312-1.128-.468-1.8-.468-.672 0-1.278.156-1.818.468-.528.3-.948.732-1.26 1.296-.3.564-.45 1.206-.45 1.926s.15 1.362.45 1.926a3.406 3.406 0 0 0 1.26 1.314c.54.3 1.146.45 1.818.45zm16.719-.072v3.402h-1.206v-2.286h-8.478v2.286h-1.206v-3.402h.54c.636-.036 1.068-.504 1.296-1.404.228-.9.384-2.16.468-3.78l.126-3.168h6.984v8.352h1.476zm-7.416-5.112c-.06 1.344-.174 2.454-.342 3.33-.168.864-.468 1.458-.9 1.782h5.904v-7.218h-4.554l-.108 2.106zm18.205 2.016h-2.052v4.212h-1.278v-4.212h-2.052l-2.898 4.212h-1.53l3.402-4.878-3.132-4.59h1.386l2.772 4.158h2.052v-4.158h1.278v4.158h2.052l2.79-4.158h1.386l-3.132 4.608 3.402 4.86h-1.53l-2.916-4.212zm6.573-5.256h1.278v7.524l6.318-7.524h1.134v9.468h-1.278v-7.524l-6.3 7.524h-1.152v-9.468zm19.665 0v9.468h-1.17v-3.132h-3.33l-2.196 3.132h-1.386l2.358-3.312c-.732-.204-1.296-.552-1.692-1.044-.396-.492-.594-1.116-.594-1.872 0-1.056.36-1.86 1.08-2.412.72-.552 1.704-.828 2.952-.828h3.978zm-6.714 3.276c0 1.404.894 2.106 2.682 2.106h2.862v-4.248h-2.772c-1.848 0-2.772.714-2.772 2.142zM191.646 534.313h-2.52v3.312h-1.296v-3.312h-7.11v-.936l6.678-8.352h1.44l-6.444 8.136h5.472v-2.916h1.26v2.916h2.52v1.152zm2.514 3.402a.934.934 0 0 1-.684-.288.989.989 0 0 1-.27-.702c0-.276.09-.504.27-.684a.934.934 0 0 1 .684-.288c.264 0 .492.096.684.288.192.18.288.408.288.684 0 .276-.096.51-.288.702a.934.934 0 0 1-.684.288zm6.124-12.69v12.6h-1.296v-11.448h-2.97v-1.152h4.266zm10.23 5.994c.792.264 1.398.66 1.818 1.188.432.528.648 1.164.648 1.908 0 .732-.198 1.374-.594 1.926-.396.54-.966.96-1.71 1.26-.732.288-1.596.432-2.592.432-1.512 0-2.7-.324-3.564-.972-.864-.648-1.296-1.53-1.296-2.646 0-.756.204-1.392.612-1.908.42-.528 1.026-.924 1.818-1.188-.648-.252-1.14-.612-1.476-1.08-.336-.48-.504-1.044-.504-1.692 0-1.02.396-1.83 1.188-2.43.804-.6 1.878-.9 3.222-.9.888 0 1.662.138 2.322.414.672.264 1.194.648 1.566 1.152.372.504.558 1.092.558 1.764 0 .648-.174 1.212-.522 1.692-.348.468-.846.828-1.494 1.08zm-5.544-2.736c0 .696.276 1.248.828 1.656.552.408 1.314.612 2.286.612s1.734-.204 2.286-.612c.564-.408.846-.954.846-1.638 0-.708-.288-1.266-.864-1.674-.564-.408-1.32-.612-2.268-.612-.96 0-1.722.204-2.286.612-.552.408-.828.96-.828 1.656zm3.114 8.352c1.116 0 1.986-.228 2.61-.684.636-.456.954-1.074.954-1.854s-.318-1.392-.954-1.836c-.624-.456-1.494-.684-2.61-.684-1.104 0-1.974.228-2.61.684-.624.444-.936 1.056-.936 1.836 0 .792.312 1.416.936 1.872.624.444 1.494.666 2.61.666zM112.757 169.091h-2.52v3.312h-1.296v-3.312h-7.11v-.936l6.678-8.352h1.44l-6.444 8.136h5.472v-2.916h1.26v2.916h2.52v1.152zm2.514 3.402a.934.934 0 0 1-.684-.288.989.989 0 0 1-.27-.702c0-.276.09-.504.27-.684a.934.934 0 0 1 .684-.288c.264 0 .492.096.684.288.192.18.288.408.288.684 0 .276-.096.51-.288.702a.934.934 0 0 1-.684.288zm6.154-7.524c1.824 0 3.15.33 3.978.99.84.648 1.26 1.56 1.26 2.736 0 .732-.174 1.386-.522 1.962-.336.576-.846 1.032-1.53 1.368-.684.324-1.524.486-2.52.486-.9 0-1.758-.144-2.574-.432-.804-.3-1.452-.696-1.944-1.188l.63-1.026c.42.432.972.786 1.656 1.062a6.096 6.096 0 0 0 2.214.396c1.044 0 1.848-.234 2.412-.702.576-.468.864-1.092.864-1.872 0-.864-.324-1.518-.972-1.962-.636-.444-1.716-.666-3.24-.666h-2.682l.648-6.318h6.894v1.152h-5.76l-.432 4.014h1.62zm14.101.828c.792.264 1.398.66 1.818 1.188.432.528.648 1.164.648 1.908 0 .732-.198 1.374-.594 1.926-.396.54-.966.96-1.71 1.26-.732.288-1.596.432-2.592.432-1.512 0-2.7-.324-3.564-.972-.864-.648-1.296-1.53-1.296-2.646 0-.756.204-1.392.612-1.908.42-.528 1.026-.924 1.818-1.188-.648-.252-1.14-.612-1.476-1.08-.336-.48-.504-1.044-.504-1.692 0-1.02.396-1.83 1.188-2.43.804-.6 1.878-.9 3.222-.9.888 0 1.662.138 2.322.414.672.264 1.194.648 1.566 1.152.372.504.558 1.092.558 1.764 0 .648-.174 1.212-.522 1.692-.348.468-.846.828-1.494 1.08zm-5.544-2.736c0 .696.276 1.248.828 1.656.552.408 1.314.612 2.286.612s1.734-.204 2.286-.612c.564-.408.846-.954.846-1.638 0-.708-.288-1.266-.864-1.674-.564-.408-1.32-.612-2.268-.612-.96 0-1.722.204-2.286.612-.552.408-.828.96-.828 1.656zm3.114 8.352c1.116 0 1.986-.228 2.61-.684.636-.456.954-1.074.954-1.854s-.318-1.392-.954-1.836c-.624-.456-1.494-.684-2.61-.684-1.104 0-1.974.228-2.61.684-.624.444-.936 1.056-.936 1.836 0 .792.312 1.416.936 1.872.624.444 1.494.666 2.61.666z" fill="#20201F"/><path d="M324.566 88.672v1.153h-8.838v-.919l5.238-5.13c.66-.647 1.104-1.206 1.332-1.673.24-.48.36-.96.36-1.44 0-.745-.258-1.32-.774-1.728-.504-.42-1.23-.63-2.178-.63-1.476 0-2.622.467-3.438 1.403l-.918-.791a4.846 4.846 0 0 1 1.872-1.332c.768-.313 1.632-.468 2.592-.468 1.284 0 2.298.305 3.042.917.756.6 1.134 1.428 1.134 2.484 0 .648-.144 1.272-.432 1.873-.288.6-.834 1.29-1.638 2.07l-4.284 4.212h6.93zm2.774 1.243a.934.934 0 0 1-.684-.289.989.989 0 0 1-.27-.702c0-.276.09-.504.27-.684a.934.934 0 0 1 .684-.287c.264 0 .492.096.684.287.192.18.288.409.288.684 0 .276-.096.51-.288.702a.934.934 0 0 1-.684.288zm6.154-7.525c1.824 0 3.15.33 3.978.99.84.648 1.26 1.56 1.26 2.737 0 .731-.174 1.385-.522 1.962-.336.576-.846 1.032-1.53 1.368-.684.323-1.524.486-2.52.486-.9 0-1.758-.145-2.574-.433-.804-.3-1.452-.695-1.944-1.188l.63-1.025c.42.431.972.785 1.656 1.061a6.096 6.096 0 0 0 2.214.397c1.044 0 1.848-.235 2.412-.703.576-.468.864-1.091.864-1.871 0-.865-.324-1.519-.972-1.963-.636-.444-1.716-.665-3.24-.665h-2.682l.648-6.319h6.894v1.152h-5.76l-.432 4.014h1.62zm10.808-5.273c1.668 0 2.946.551 3.834 1.655.888 1.093 1.332 2.64 1.332 4.644 0 1.404-.24 2.593-.72 3.565s-1.152 1.71-2.016 2.214c-.864.492-1.872.738-3.024.738-1.248 0-2.244-.229-2.988-.684l.522-1.044c.6.395 1.416.594 2.448.594 1.392 0 2.484-.439 3.276-1.315.792-.887 1.188-2.171 1.188-3.852 0-.312-.018-.654-.054-1.026a3.445 3.445 0 0 1-1.494 1.603c-.684.371-1.47.557-2.358.557-.828 0-1.566-.156-2.214-.468a3.62 3.62 0 0 1-1.494-1.314c-.36-.575-.54-1.241-.54-1.997 0-.768.186-1.447.558-2.034a3.635 3.635 0 0 1 1.53-1.35c.66-.325 1.398-.486 2.214-.486zm.144 6.551c.636 0 1.194-.12 1.674-.36.492-.24.876-.57 1.152-.99.276-.42.414-.888.414-1.403 0-.48-.132-.925-.396-1.333-.252-.407-.63-.737-1.134-.99-.504-.251-1.104-.377-1.8-.377-.912 0-1.656.251-2.232.755-.564.493-.846 1.153-.846 1.98 0 .828.282 1.489.846 1.98.576.492 1.35.738 2.322.738z" fill="#000"/></g><defs><clipPath id="a"><path fill="#fff" transform="translate(39 26)" d="M0 0h371.22v548.564H0z"/></clipPath></defs></svg>