<svg width="600" height="550" fill="none" xmlns="http://www.w3.org/2000/svg"><path fill="#fff" d="M0 0h600v550H0z"/><g clip-path="url(#a)"><path fill-rule="evenodd" clip-rule="evenodd" d="M52 498.624h283.565v15.572h211.994L529.599 301.3h-17.365V36H103.202v119.174H73.855v90.427H52v253.023z" fill="#FFF9D0"/><path d="M512.234 36H103.202v14.457h409.032V36z" fill="#FFF9D0"/><path d="M496.663 277.946h-75.464v14.966h75.464v-14.966zM436.472 483.657h-15.273v14.967h15.273v-14.967zM118.178 155.174H73.855v14.967h44.323v-14.967z" fill="#20201F"/><path d="M118.178 36h-14.976v134.141h14.976V36z" fill="#20201F"/><path d="M481.688 36H103.202v14.967h378.486V36zM88.83 230.034H73.855v23.054H88.83v-23.054z" fill="#20201F"/><path d="M88.83 238.113H52v14.976h36.83v-14.976z" fill="#20201F"/><path d="M66.967 238.113H52v260.511h14.967V238.113z" fill="#20201F"/><path d="M421.199 483.656H52v14.967h369.199v-14.967z" fill="#20201F"/><path d="M358.321 483.656h-22.757v30.54h22.757v-30.54zM443.956 430.055h-22.757v53.602h22.757v-53.602zM443.956 292.912h-22.757v23.361h22.757v-23.361zM504.444 195.899h-22.756v102.892h22.756V195.899zM504.444 36h-22.756v64.077h22.756V36zM512.234 36h-7.79v67.674h7.79V36zM512.234 192.302h-7.79v106.597h7.79V192.302zM512.234 301.297h-60.488v7.186h60.488v-7.186z" fill="#20201F"/><path d="M451.746 292.912h-7.79v23.361h7.79v-23.361zM451.746 430.055h-7.79v53.602h7.79v-53.602z" fill="#20201F"/><path d="M451.745 483.656h-7.185v30.538h7.185v-30.538zM444.56 507.008h-78.457v7.186h78.457v-7.186zM366.102 498.624h-7.781v15.572h7.781v-15.572z" fill="#20201F"/><path d="M447.065 495.495h-85.501v13.5h85.501v-13.5z" fill="#20201F"/><path d="M444.559 475.563h-13.714v23.362h13.714v-23.362zM512.234 289.056h-64.889v15.694h64.889v-15.694z" fill="#20201F"/><path fill-rule="evenodd" clip-rule="evenodd" d="M451.746 514.196h95.813L529.599 301.3h-17.365v7.186h10.758l16.752 198.524h-87.998v7.186z" fill="#20201F"/><path d="M231.493 277.945H66.967v4.788h164.526v-4.788zM421.199 277.945H285.391v4.788h135.808v-4.788z" fill="#20201F"/><path d="M302.025 262.97h-4.788v17.587h4.788V262.97zM157.832 165.353h-39.654v4.788h39.654v-4.788zM302.025 165.353H199.747v4.788h102.278v-4.788z" fill="#20201F"/><path d="M302.025 165.353h-4.788v49.706h4.788v-49.706zM302.025 113.854h-4.788v51.499h4.788v-51.499zM302.025 50.967h-4.788v62.886h4.788V50.967zM512.234 103.674h-3.852v88.637h3.852v-88.637zM504.469 100.076h-3.851V195.9h3.851v-95.824zM485.564 100.076h-3.852V195.9h3.852v-95.824zM451.747 364.177h-3.852v65.878h3.852v-65.878zM443.982 364.177h-3.851v65.88h3.851v-65.88zM425.077 364.177h-3.851v65.88h3.851v-65.88z" fill="#20201F"/><path d="M451.747 364.177h-30.543v2.827h30.543v-2.827z" fill="#20201F"/><path fill-rule="evenodd" clip-rule="evenodd" d="M198.192 168.456a1.701 1.701 0 0 1-3.402 0v-35.997a1.7 1.7 0 0 1 3.402 0v35.997zM161.341 168.797a.85.85 0 1 1-1.701 0c0-10.242 3.627-19.525 9.49-26.25 5.888-6.758 14.032-10.938 23.03-10.938a.85.85 0 1 1 0 1.701c-8.488 0-16.181 3.957-21.755 10.352-5.6 6.424-9.064 15.311-9.064 25.135zM299.407 261.49a1.7 1.7 0 0 1 0-3.401h35.997a1.701 1.701 0 0 1 0 3.401h-35.997zM299.065 219.555a.85.85 0 0 1 0-1.701 37.172 37.172 0 0 1 26.292 10.837c6.732 6.696 10.897 15.946 10.897 26.157a.85.85 0 0 1-1.701 0c0-9.745-3.972-18.569-10.392-24.955a35.477 35.477 0 0 0-25.096-10.338zM77.644 227.504a1.702 1.702 0 0 1 0-3.402h35.997a1.701 1.701 0 0 1 0 3.402H77.644zM77.302 174.261a.85.85 0 0 1 0-1.7c10.308 0 19.628 5.285 26.361 13.826 6.689 8.484 10.828 20.195 10.828 33.114a.85.85 0 0 1-1.701 0c0-12.529-3.999-23.868-10.462-32.064-6.416-8.139-15.266-13.176-25.026-13.176zM234.062 281.021a1.7 1.7 0 0 1 3.401 0v35.997a1.701 1.701 0 0 1-3.401 0v-35.997zM280.672 280.68a.85.85 0 1 1 1.7 0c0 10.283-4.616 19.592-12.073 26.323-7.435 6.713-17.704 10.865-29.032 10.865a.85.85 0 0 1 0-1.701c10.896 0 20.761-3.985 27.895-10.426 7.11-6.417 11.51-15.279 11.51-25.061zM442.385 318.241a1.702 1.702 0 0 1 0 3.402h-35.996a1.702 1.702 0 0 1 0-3.402h35.996zM442.727 360.177a.85.85 0 0 1 0 1.701 37.172 37.172 0 0 1-26.292-10.837c-6.732-6.696-10.897-15.946-10.897-26.157a.85.85 0 1 1 1.701 0c0 9.745 3.972 18.569 10.392 24.955a35.477 35.477 0 0 0 25.096 10.338zM440.569 53.363h-90.355v36.142h91.418V53.363h-1.063zm-62.076 4.273c.994 0 1.901.407 2.555 1.065a3.607 3.607 0 0 1 1.06 2.55v20.41c0 .99-.407 1.894-1.06 2.553a3.61 3.61 0 0 1-2.555 1.06h-20.409a3.618 3.618 0 0 1-3.613-3.614V61.25c0-.994.406-1.9 1.063-2.55a3.598 3.598 0 0 1 2.55-1.064h20.409zm51.566 1.69c1.376 0 2.626.56 3.531 1.464a4.983 4.983 0 0 1-.002 7.063 4.983 4.983 0 0 1-7.059-.001 4.975 4.975 0 0 1-1.466-3.53c0-1.378.56-2.628 1.464-3.532a4.983 4.983 0 0 1 3.532-1.465zm0 13.163a6.04 6.04 0 0 1 4.283 1.775 6.044 6.044 0 0 1 1.776 4.284c0 1.672-.68 3.187-1.776 4.283a6.04 6.04 0 0 1-4.283 1.776 6.044 6.044 0 0 1-4.284-1.776A6.042 6.042 0 0 1 424 78.548c0-1.671.679-3.188 1.775-4.284a6.044 6.044 0 0 1 4.284-1.775zm-3.233 2.826a4.563 4.563 0 0 1 3.233-1.338c1.263 0 2.406.513 3.232 1.338a4.56 4.56 0 0 1 1.339 3.233 4.559 4.559 0 0 1-1.339 3.232 4.559 4.559 0 0 1-3.232 1.339 4.563 4.563 0 0 1-3.233-1.339 4.562 4.562 0 0 1-1.338-3.232c0-1.262.513-2.407 1.338-3.233zm-9.762-17.053a6.04 6.04 0 0 1 4.283 1.776 6.043 6.043 0 0 1 1.776 4.284 6.044 6.044 0 0 1-1.775 4.284 6.042 6.042 0 0 1-4.284 1.775 6.044 6.044 0 0 1-4.284-1.776 6.042 6.042 0 0 1-1.775-4.284c0-1.67.679-3.187 1.775-4.283a6.046 6.046 0 0 1 4.284-1.776zm-3.233 2.827a4.563 4.563 0 0 1 3.233-1.338c1.263 0 2.406.512 3.232 1.338a4.559 4.559 0 0 1 1.339 3.233 4.56 4.56 0 0 1-1.338 3.233 4.56 4.56 0 0 1-3.233 1.337 4.56 4.56 0 0 1-3.233-1.338 4.562 4.562 0 0 1-1.338-3.233c0-1.261.513-2.406 1.338-3.232zm3.233 12.463a4.99 4.99 0 0 1 3.532 1.464 4.987 4.987 0 0 1-.003 7.063 4.983 4.983 0 0 1-7.059-.001 4.975 4.975 0 0 1-1.466-3.53c0-1.378.56-2.628 1.464-3.532a4.983 4.983 0 0 1 3.532-1.464zm-2.481 2.515a3.502 3.502 0 0 1 2.481-1.027c.971 0 1.849.392 2.48 1.025a3.51 3.51 0 0 1 1.028 2.483c0 .97-.392 1.849-1.025 2.48a3.495 3.495 0 0 1-2.483 1.028 3.501 3.501 0 0 1-2.481-1.028 3.486 3.486 0 0 1-1.027-2.48c0-.969.394-1.847 1.027-2.48zm12.995-14.226a3.501 3.501 0 0 1 2.481-1.027c.971 0 1.848.392 2.48 1.024a3.51 3.51 0 0 1 1.028 2.483c0 .972-.392 1.85-1.025 2.481a3.497 3.497 0 0 1-2.483 1.027 3.501 3.501 0 0 1-2.481-1.027 3.487 3.487 0 0 1-1.027-2.48c0-.97.394-1.848 1.027-2.481zm-69.494-2.078h20.409c.409 0 .782.168 1.051.438.271.267.438.64.438 1.05v20.41a1.485 1.485 0 0 1-1.489 1.487h-20.409a1.48 1.48 0 0 1-1.049-.433 1.504 1.504 0 0 1-.438-1.055V61.25c0-.406.168-.78.438-1.05a1.467 1.467 0 0 1 1.049-.438zm49.567 27.616v-31.89h31.855v31.89h-31.855zm-2.126-31.89v31.89H352.34v-31.89h53.185zM147.443 85.703c-1.799-2.797-2.909-6.386-2.909-9.54 0-3.106 1.065-5.53 2.81-7.217h.005c.66-.638 1.444-1.132 2.275-1.55h-3.588c-2.141 0-3.396-.895-4.125-2.331-.665-1.307-.829-3.036-.829-4.932v-.782h.02c.044-1.58.241-3.022.809-4.146.729-1.435 1.984-2.326 4.115-2.326h17.595c2.14 0 3.394.89 4.118 2.326.564 1.124.767 2.566.81 4.146h.019v.782c0 1.896-.164 3.625-.829 4.932-.724 1.436-1.978 2.33-4.118 2.33h-3.595c.831.419 1.613.908 2.275 1.55 1.748 1.688 2.814 4.112 2.814 7.217 0 3.335-1.243 7.151-3.226 10.014-1.829 2.641-4.303 4.495-7.064 4.495-2.924 0-5.528-2.08-7.382-4.968zm7.889-27.903v-.005h-.002c-.631 0-1.212.263-1.631.68h-.005a2.304 2.304 0 0 0 0 3.26v.008h.005a2.315 2.315 0 0 0 3.266 0 2.31 2.31 0 0 0-1.633-3.943zm.003 1.183h-.005a1.13 1.13 0 0 0-.793.32v.008a1.13 1.13 0 0 0-.33.797c0 .315.125.604.32.8l.008.005c.202.197.483.323.795.323.322 0 .602-.127.802-.323.197-.2.321-.49.321-.805 0-.315-.124-.601-.33-.797a1.08 1.08 0 0 0-.788-.336v.008zm8.286 6.85c1.444 0 2.269-.567 2.729-1.466.464-.932.621-2.224.648-3.685v-.549c0-1.683-.129-3.191-.648-4.23-.46-.9-1.287-1.46-2.729-1.46h-17.595c-1.44 0-2.263.56-2.723 1.46-.524 1.039-.65 2.547-.65 4.23v.61c.032 1.43.186 2.713.648 3.624.462.907 1.291 1.466 2.735 1.466h17.585zm-3.011 19.458c1.811-2.612 2.944-6.093 2.944-9.129 0-2.653-.886-4.694-2.333-6.094-1.583-1.534-3.862-2.326-6.396-2.326-2.538 0-4.815.792-6.401 2.326-1.444 1.4-2.328 3.441-2.328 6.094 0 2.868 1.014 6.143 2.658 8.702 1.584 2.467 3.74 4.244 6.071 4.244 2.192 0 4.228-1.58 5.785-3.817zM120.297 142.449l-.005-19.49c0-6.519 13.492-5.751 14.392-5.684 3.124 0 5.957 1.274 8.008 3.327a11.307 11.307 0 0 1 3.315 8.009v8.271c0 3.129-1.266 5.964-3.315 8.018a11.394 11.394 0 0 1-8.013 3.329c-.916.042-14.387.713-14.382-5.78zm13.143-9.706h.003c.007.686.276 1.318.727 1.77a2.534 2.534 0 0 0 1.765.718 2.485 2.485 0 0 0 2.493-2.49c0-.684-.277-1.309-.728-1.76v-.008h-.005a2.478 2.478 0 0 0-1.76-.732c-.682 0-1.315.281-1.765.732v.002a2.504 2.504 0 0 0-.734 1.766l.004.002zm1.272.005c0 .325.134.632.359.852.215.214.522.352.864.352.341 0 .649-.132.869-.346.212-.222.352-.522.348-.865 0-.344-.133-.641-.348-.861l-.005-.005a1.205 1.205 0 0 0-.864-.352c-.336 0-.643.142-.864.354l-.002.005a1.205 1.205 0 0 0-.346.854l.002.012h-.013zm-9.665-.005c0 3.142.936 5.995 2.439 8.069 1.571 2.155 3.767 3.494 6.2 3.496 2.442 0 4.637-1.341 6.212-3.496 1.511-2.082 2.439-4.936 2.439-8.079v-.014c-.008-3.134-.942-5.98-2.448-8.06-1.571-2.146-3.761-3.483-6.189-3.485l-.014.002c-2.439 0-4.622 1.337-6.2 3.5-1.505 2.069-2.439 4.92-2.437 8.06l-.002.007zm1.758 0c.005 2.754.813 5.242 2.111 7.042 1.242 1.698 2.933 2.755 4.77 2.755 1.849 0 3.54-1.057 4.787-2.769 1.293-1.79 2.099-4.274 2.099-7.038v-.005l.005-.009c-.005-2.756-.811-5.234-2.112-7.024-1.236-1.694-2.93-2.75-4.765-2.755l-.014.005c-1.84-.003-3.533 1.055-4.77 2.756-1.293 1.791-2.106 4.276-2.104 7.032v.01h-.007zm-4.748 9.7c0 4.839 12.525 4.015 12.558 4.015l.064-.008a9.563 9.563 0 0 0 6.764-2.791 9.577 9.577 0 0 0 2.799-6.777v-8.262a9.54 9.54 0 0 0-2.799-6.783 9.554 9.554 0 0 0-6.764-2.801l-.062-.003c-.031 0-12.56-.888-12.56 3.931v19.479zM292.411 96.697H192.383V55.82h100.028v40.878zM272.92 72.285a3.97 3.97 0 0 0-3.977 3.974c0 1.094.445 2.087 1.164 2.806a3.97 3.97 0 0 0 2.813 1.167c1.096 0 2.09-.445 2.81-1.164a3.95 3.95 0 0 0 1.167-2.81 3.96 3.96 0 0 0-1.164-2.81 3.968 3.968 0 0 0-2.813-1.163zm-1.689 2.287a2.379 2.379 0 0 0-.697 1.686 2.379 2.379 0 0 0 2.386 2.384 2.381 2.381 0 0 0 1.688-4.07 2.392 2.392 0 0 0-3.377 0zm13.63-17.583-70.61 1.59c-10.605 0-19.289 7.085-19.289 17.68 0 10.594 8.684 17.68 19.289 17.68l70.61 1.589c1.369 0 2.613-.56 3.512-1.459a4.963 4.963 0 0 0 1.46-3.508V61.956a4.95 4.95 0 0 0-1.46-3.505 4.963 4.963 0 0 0-3.512-1.462zm-70.61 3.576c-9.519 0-17.301 6.185-17.301 15.694 0 9.508 7.782 15.693 17.301 15.693l70.61 1.589c.819 0 1.565-.336 2.11-.876a2.963 2.963 0 0 0 .873-2.104V61.956c0-.821-.334-1.566-.877-2.108a2.974 2.974 0 0 0-2.106-.872l-70.61 1.59zm-22.078 38.078h100.448c.5 0 .956-.198 1.286-.511a1.7 1.7 0 0 0 .538-1.235V55.62c0-.48-.206-.92-.534-1.234a1.866 1.866 0 0 0-1.29-.511H192.173c-.501 0-.959.196-1.289.511a1.726 1.726 0 0 0-.534 1.234v41.278c0 .479.206.915.534 1.231.335.318.79.515 1.289.515z" fill="#20201F"/><path d="M133.069 329h-2.126v101.095h2.126V329zM114.251 359.756V400h-9.313v-32.77h-8.05v-7.474h17.363zM153.745 341.373v14.373h-1.478v-13.059h-3.388v-1.314h4.866zm7.912-.124c1.902 0 3.36.63 4.373 1.889 1.013 1.246 1.52 3.012 1.52 5.298 0 1.601-.274 2.957-.822 4.065-.547 1.109-1.314 1.951-2.299 2.526-.986.561-2.136.842-3.45.842-1.423 0-2.56-.26-3.408-.78l.595-1.191c.685.451 1.615.677 2.793.677 1.588 0 2.833-.499 3.737-1.499.903-1.013 1.355-2.477 1.355-4.394 0-.356-.021-.746-.062-1.17-.356.78-.924 1.389-1.704 1.827-.78.425-1.677.637-2.69.637-.944 0-1.786-.178-2.525-.534a4.128 4.128 0 0 1-1.705-1.499c-.41-.657-.616-1.417-.616-2.279 0-.876.213-1.649.637-2.32a4.144 4.144 0 0 1 1.745-1.54c.753-.37 1.595-.555 2.526-.555zm.164 7.474c.726 0 1.362-.136 1.91-.41a3.22 3.22 0 0 0 1.314-1.13 2.851 2.851 0 0 0 .472-1.601c0-.548-.151-1.054-.452-1.52-.287-.465-.718-.841-1.293-1.129-.575-.287-1.26-.431-2.054-.431-1.04 0-1.889.287-2.546.862-.643.562-.965 1.314-.965 2.259 0 .944.322 1.697.965 2.259.657.561 1.54.841 2.649.841zm8.76 7.125c-.301 0-.561-.109-.78-.328a1.125 1.125 0 0 1-.308-.801c0-.315.102-.575.308-.78.219-.219.479-.329.78-.329.301 0 .561.11.78.329.219.205.329.465.329.78s-.11.582-.329.801a1.065 1.065 0 0 1-.78.328zm15.199-3.88h-2.875v3.778h-1.478v-3.778h-8.111V350.9l7.618-9.527h1.643l-7.351 9.28h6.242v-3.326h1.437v3.326h2.875v1.315zm10.478-10.595v1.047l-6.016 13.326h-1.601l5.913-13.059h-7.392v2.69h-1.458v-4.004h10.554zM161.383 381.254h-2.874v3.778h-1.479v-3.778h-8.11v-1.068l7.618-9.527h1.642l-7.351 9.281h6.242v-3.327h1.438v3.327h2.874v1.314zm4.82-10.595v14.373h-1.478v-13.059h-3.388v-1.314h4.866zm4.545 14.475c-.301 0-.561-.109-.78-.328a1.125 1.125 0 0 1-.308-.801c0-.315.102-.575.308-.78.219-.219.479-.329.78-.329.301 0 .561.11.78.329.219.205.329.465.329.78s-.11.582-.329.801a1.065 1.065 0 0 1-.78.328zm7.718-14.598c1.903 0 3.361.629 4.374 1.889 1.013 1.245 1.519 3.011 1.519 5.297 0 1.602-.274 2.957-.821 4.066-.548 1.108-1.314 1.95-2.3 2.525-.985.561-2.135.842-3.449.842-1.424 0-2.56-.26-3.409-.78l.596-1.191c.684.452 1.615.677 2.792.677 1.588 0 2.834-.499 3.737-1.499.904-1.012 1.355-2.477 1.355-4.394 0-.355-.02-.746-.061-1.17-.356.78-.924 1.389-1.704 1.828-.781.424-1.677.636-2.69.636-.945 0-1.787-.178-2.526-.534a4.131 4.131 0 0 1-1.704-1.499c-.411-.657-.616-1.416-.616-2.279 0-.876.212-1.649.637-2.32a4.144 4.144 0 0 1 1.745-1.54c.753-.37 1.595-.554 2.525-.554zm.165 7.474c.725 0 1.362-.137 1.909-.411.561-.274.999-.65 1.314-1.129.315-.48.472-1.013.472-1.602a2.74 2.74 0 0 0-.451-1.519c-.288-.466-.719-.842-1.294-1.13-.575-.287-1.259-.431-2.053-.431-1.04 0-1.889.288-2.546.862-.644.562-.965 1.315-.965 2.259 0 .945.321 1.697.965 2.259.657.561 1.54.842 2.649.842zm12.347-7.474c1.903 0 3.361.629 4.374 1.889 1.013 1.245 1.519 3.011 1.519 5.297 0 1.602-.273 2.957-.821 4.066-.547 1.108-1.314 1.95-2.3 2.525-.985.561-2.135.842-3.449.842-1.424 0-2.56-.26-3.409-.78l.596-1.191c.684.452 1.615.677 2.792.677 1.588 0 2.834-.499 3.737-1.499.904-1.012 1.356-2.477 1.356-4.394 0-.355-.021-.746-.062-1.17-.356.78-.924 1.389-1.704 1.828-.781.424-1.677.636-2.69.636-.945 0-1.786-.178-2.526-.534a4.131 4.131 0 0 1-1.704-1.499c-.411-.657-.616-1.416-.616-2.279 0-.876.212-1.649.637-2.32a4.144 4.144 0 0 1 1.745-1.54c.753-.37 1.595-.554 2.525-.554zm.165 7.474c.725 0 1.362-.137 1.909-.411.562-.274 1-.65 1.314-1.129.315-.48.473-1.013.473-1.602a2.74 2.74 0 0 0-.452-1.519c-.288-.466-.719-.842-1.294-1.13-.575-.287-1.259-.431-2.053-.431-1.04 0-1.889.288-2.546.862-.643.562-.965 1.315-.965 2.259 0 .945.322 1.697.965 2.259.657.561 1.54.842 2.649.842zM157.657 410.54h-2.875v3.778h-1.478v-3.778h-8.111v-1.068l7.618-9.527h1.643l-7.351 9.281h6.242v-3.327h1.437v3.327h2.875v1.314zm13.575 0h-2.875v3.778h-1.478v-3.778h-8.111v-1.068l7.618-9.527h1.643l-7.351 9.281h6.242v-3.327h1.437v3.327h2.875v1.314zm2.867 3.881c-.301 0-.561-.11-.78-.329a1.13 1.13 0 0 1-.308-.801c0-.315.103-.575.308-.78.219-.219.479-.329.78-.329.302 0 .562.11.781.329.219.205.328.465.328.78s-.109.582-.328.801a1.067 1.067 0 0 1-.781.329zm13.258-1.417v1.314h-10.082v-1.047l5.975-5.852c.753-.739 1.26-1.376 1.52-1.91a3.64 3.64 0 0 0 .411-1.642c0-.849-.295-1.506-.883-1.971-.575-.48-1.403-.719-2.485-.719-1.684 0-2.991.534-3.922 1.601l-1.047-.903c.561-.657 1.273-1.164 2.136-1.519.876-.356 1.861-.534 2.956-.534 1.465 0 2.622.349 3.47 1.047.863.684 1.294 1.629 1.294 2.833 0 .74-.164 1.451-.493 2.136-.328.684-.951 1.471-1.868 2.361l-4.887 4.805h7.905zm7.504 1.437c-1.109 0-2.101-.294-2.977-.883-.863-.588-1.54-1.43-2.033-2.525-.479-1.109-.719-2.41-.719-3.902s.24-2.785.719-3.88c.493-1.109 1.17-1.958 2.033-2.546.876-.589 1.868-.883 2.977-.883 1.109 0 2.094.294 2.957.883.876.588 1.56 1.437 2.053 2.546.493 1.095.739 2.388.739 3.88s-.246 2.793-.739 3.902c-.493 1.095-1.177 1.937-2.053 2.525-.863.589-1.848.883-2.957.883zm0-1.355c.835 0 1.567-.233 2.197-.698.643-.466 1.143-1.143 1.499-2.033.356-.89.534-1.964.534-3.224 0-1.259-.178-2.334-.534-3.223-.356-.89-.856-1.568-1.499-2.033-.63-.465-1.362-.698-2.197-.698s-1.574.233-2.218.698c-.629.465-1.122 1.143-1.478 2.033-.356.889-.534 1.964-.534 3.223 0 1.26.178 2.334.534 3.224.356.89.849 1.567 1.478 2.033.644.465 1.383.698 2.218.698z" fill="#20201F"/><path d="M262.39 349.26h-5.667v8.418h-3.183v-11.046h8.85v2.628zm6.41 8.582c-1.163 0-2.211-.239-3.141-.718a5.513 5.513 0 0 1-2.156-2.033c-.52-.862-.781-1.841-.781-2.936s.261-2.074.781-2.936a5.368 5.368 0 0 1 2.156-2.013c.93-.492 1.978-.739 3.141-.739 1.164 0 2.204.247 3.121.739a5.368 5.368 0 0 1 2.156 2.013c.52.862.78 1.841.78 2.936s-.26 2.074-.78 2.936a5.513 5.513 0 0 1-2.156 2.033c-.917.479-1.957.718-3.121.718zm0-2.628c.821 0 1.492-.273 2.012-.821.534-.561.801-1.307.801-2.238s-.267-1.67-.801-2.218c-.52-.561-1.191-.841-2.012-.841s-1.499.28-2.033.841c-.533.548-.8 1.287-.8 2.218s.267 1.677.8 2.238c.534.548 1.212.821 2.033.821zm13.517 2.628c-1.177 0-2.238-.239-3.183-.718a5.627 5.627 0 0 1-2.197-2.033c-.52-.862-.78-1.841-.78-2.936s.26-2.074.78-2.936a5.478 5.478 0 0 1 2.197-2.013c.945-.492 2.006-.739 3.183-.739 1.163 0 2.176.247 3.039.739a4.265 4.265 0 0 1 1.909 2.074l-2.484 1.335c-.575-1.013-1.403-1.519-2.485-1.519-.835 0-1.526.273-2.074.821-.547.547-.821 1.293-.821 2.238 0 .944.274 1.69.821 2.238.548.548 1.239.821 2.074.821 1.095 0 1.924-.506 2.485-1.519l2.484 1.355c-.397.876-1.033 1.561-1.909 2.053-.863.493-1.876.739-3.039.739zm16.135-8.582h-3.737v8.418h-3.182v-8.418h-3.737v-2.628h10.656v2.628zm1.708-2.628h3.182v6.57l5.38-6.57h2.936v11.046h-3.182v-6.57l-5.359 6.57h-2.957v-11.046zm14.577 0h3.183v4.311h4.805v-4.311h3.203v11.046h-3.203v-4.127h-4.805v4.127h-3.183v-11.046zm18.548-.165c1.711 0 3.026.411 3.943 1.232.917.808 1.375 2.033 1.375 3.676v6.303h-2.997v-1.375c-.603 1.026-1.725 1.539-3.368 1.539-.849 0-1.588-.143-2.217-.431-.616-.287-1.089-.684-1.417-1.191a3.093 3.093 0 0 1-.493-1.724c0-1.027.383-1.835 1.15-2.423.78-.589 1.978-.883 3.593-.883h2.546c0-.698-.212-1.232-.636-1.602-.425-.383-1.061-.575-1.91-.575-.588 0-1.17.096-1.745.288a4.452 4.452 0 0 0-1.437.739l-1.15-2.238c.602-.424 1.321-.753 2.156-.986a9.841 9.841 0 0 1 2.607-.349zm-.246 9.22c.547 0 1.033-.124 1.458-.37a2.13 2.13 0 0 0 .903-1.129v-1.13h-2.197c-1.314 0-1.971.432-1.971 1.294 0 .411.157.739.472.985.329.233.774.35 1.335.35zm18.162-9.055v11.046h-2.855v-3.162h-2.361l-2.094 3.162h-3.409l2.526-3.614c-.767-.301-1.355-.732-1.766-1.293-.397-.575-.595-1.266-.595-2.074 0-1.3.465-2.3 1.396-2.998.944-.712 2.238-1.067 3.881-1.067h5.277zm-5.216 2.607c-.684 0-1.204.123-1.56.37-.342.246-.514.643-.514 1.191 0 .547.165.951.493 1.211.342.247.856.37 1.54.37h2.402v-3.142h-2.361zM282.717 372.591v14.373h-3.326v-11.703h-2.874v-2.67h6.2zm7.548-.246c2.013 0 3.587.616 4.723 1.848 1.136 1.218 1.704 2.977 1.704 5.277 0 1.629-.308 3.025-.924 4.189-.602 1.163-1.458 2.046-2.566 2.648-1.109.603-2.389.904-3.84.904a9.52 9.52 0 0 1-2.197-.247c-.698-.178-1.294-.424-1.786-.739l1.231-2.443c.699.479 1.595.718 2.69.718 1.219 0 2.184-.355 2.895-1.067.712-.726 1.096-1.766 1.15-3.121-.862.862-2.053 1.293-3.572 1.293-.918 0-1.753-.185-2.505-.554a4.406 4.406 0 0 1-1.787-1.561c-.438-.684-.657-1.471-.657-2.361 0-.958.24-1.8.719-2.525a4.633 4.633 0 0 1 1.95-1.664c.835-.397 1.759-.595 2.772-.595zm.247 6.776c.725 0 1.314-.199 1.766-.596.465-.41.698-.93.698-1.56s-.226-1.143-.678-1.54c-.438-.397-1.047-.596-1.827-.596-.712 0-1.294.192-1.746.575-.438.384-.657.904-.657 1.561 0 .657.219 1.184.657 1.581.452.383 1.048.575 1.787.575zm9.404 8.008a1.928 1.928 0 0 1-1.417-.575c-.383-.384-.574-.863-.574-1.438 0-.588.191-1.06.574-1.416.384-.37.856-.555 1.417-.555s1.034.185 1.417.555c.383.356.575.828.575 1.416 0 .575-.192 1.054-.575 1.438a1.927 1.927 0 0 1-1.417.575zm16.647-3.183h-2.341v3.018h-3.244v-3.018h-7.741v-2.238l6.776-9.117h3.49l-6.283 8.645h3.86v-2.69h3.142v2.69h2.341v2.71zm11.384-11.355v2.156l-5.338 12.217h-3.614l5.154-11.662h-4.764v2.34h-2.957v-5.051h11.519z" fill="#000"/><path d="M367.994 157.822h-1.664v4.188h-3.203v-11.046h3.203v4.291h1.725l2.998-4.291h3.408l-3.86 5.297 4.127 5.749h-3.778l-2.956-4.188zm18.753-6.858-4.99 11.724c-.506 1.273-1.136 2.169-1.889 2.69-.739.52-1.635.78-2.689.78a5.615 5.615 0 0 1-1.705-.267c-.561-.178-1.019-.424-1.375-.739l1.17-2.279a2.77 2.77 0 0 0 1.807.698c.438 0 .794-.11 1.068-.329.273-.205.52-.554.739-1.047l.041-.103-4.784-11.128h3.305l3.101 7.494 3.121-7.494h3.08zm7.864 11.046-2.423-3.388-2.505 3.388h-3.491l4.25-5.564-4.106-5.482h3.593l2.341 3.223 2.402-3.223h3.409l-4.107 5.4 4.271 5.646h-3.634zm5.211-11.046h3.182v4.311h4.805v-4.311h3.203v11.046h-3.203v-4.127h-4.805v4.127h-3.182v-11.046zm24.071 0v11.046h-2.854v-3.162h-2.361l-2.095 3.162h-3.408l2.525-3.614c-.766-.301-1.355-.732-1.765-1.293-.397-.575-.596-1.266-.596-2.074 0-1.3.466-2.3 1.396-2.998.945-.711 2.239-1.067 3.881-1.067h5.277zm-5.215 2.607c-.685 0-1.205.123-1.561.37-.342.246-.513.643-.513 1.191 0 .547.164.951.493 1.211.342.247.855.37 1.54.37h2.402v-3.142h-2.361zM378.896 176.923v14.373h-3.326v-11.703h-2.875v-2.67h6.201zm8.041 0v14.373h-3.326v-11.703h-2.875v-2.67h6.201zm4.386 14.538a1.927 1.927 0 0 1-1.417-.575c-.383-.384-.575-.863-.575-1.438 0-.588.192-1.06.575-1.416.383-.37.856-.555 1.417-.555s1.033.185 1.417.555c.383.356.575.828.575 1.416 0 .575-.192 1.054-.575 1.438a1.928 1.928 0 0 1-1.417.575zm8.708-14.538v14.373h-3.327v-11.703h-2.874v-2.67h6.201zm13.749 0v2.156l-5.339 12.217h-3.614l5.154-11.662h-4.764v2.34h-2.956v-5.051h11.519zM176.577 216.334l-3.006-3.96-3.024 3.96h-1.44l3.744-4.86-3.564-4.608h1.44l2.844 3.708 2.844-3.708h1.404l-3.564 4.608 3.78 4.86h-1.458zm7.125.09c-.912 0-1.734-.204-2.466-.612a4.594 4.594 0 0 1-1.728-1.728c-.42-.732-.63-1.56-.63-2.484 0-.924.21-1.752.63-2.484a4.465 4.465 0 0 1 1.728-1.71c.732-.408 1.554-.612 2.466-.612.912 0 1.734.204 2.466.612a4.34 4.34 0 0 1 1.71 1.71c.42.732.63 1.56.63 2.484 0 .924-.21 1.752-.63 2.484a4.465 4.465 0 0 1-1.71 1.728c-.732.408-1.554.612-2.466.612zm0-1.134c.672 0 1.272-.15 1.8-.45.54-.312.96-.75 1.26-1.314.3-.564.45-1.206.45-1.926s-.15-1.362-.45-1.926c-.3-.564-.72-.996-1.26-1.296-.528-.312-1.128-.468-1.8-.468-.672 0-1.278.156-1.818.468-.528.3-.948.732-1.26 1.296-.3.564-.45 1.206-.45 1.926s.15 1.362.45 1.926a3.406 3.406 0 0 0 1.26 1.314c.54.3 1.146.45 1.818.45zm15.225-8.424v9.468h-1.278V208h-4.536l-.126 2.34c-.096 1.968-.324 3.48-.684 4.536-.36 1.056-1.002 1.584-1.926 1.584-.252 0-.558-.048-.918-.144l.09-1.098c.216.048.366.072.45.072.492 0 .864-.228 1.116-.684.252-.456.42-1.02.504-1.692.084-.672.156-1.56.216-2.664l.162-3.384h6.93zm11.373 0v9.468h-1.278V208h-4.536l-.126 2.34c-.096 1.968-.324 3.48-.684 4.536-.36 1.056-1.002 1.584-1.926 1.584-.252 0-.558-.048-.918-.144l.09-1.098c.216.048.366.072.45.072.492 0 .864-.228 1.116-.684.252-.456.42-1.02.504-1.692.084-.672.156-1.56.216-2.664l.162-3.384h6.93zM178.035 238.078c.828 0 1.56.156 2.196.468a3.556 3.556 0 0 1 1.512 1.332c.36.564.54 1.224.54 1.98 0 .768-.186 1.446-.558 2.034a3.733 3.733 0 0 1-1.548 1.368c-.648.312-1.38.468-2.196.468-1.668 0-2.946-.546-3.834-1.638-.888-1.104-1.332-2.658-1.332-4.662 0-1.404.24-2.592.72-3.564s1.152-1.704 2.016-2.196c.864-.504 1.872-.756 3.024-.756 1.248 0 2.244.228 2.988.684l-.522 1.044c-.6-.396-1.416-.594-2.448-.594-1.392 0-2.484.444-3.276 1.332-.792.876-1.188 2.154-1.188 3.834 0 .3.018.642.054 1.026a3.351 3.351 0 0 1 1.494-1.584c.684-.384 1.47-.576 2.358-.576zm-.108 6.552c.912 0 1.65-.246 2.214-.738.576-.504.864-1.17.864-1.998 0-.828-.288-1.488-.864-1.98-.564-.492-1.332-.738-2.304-.738-.636 0-1.2.12-1.692.36-.48.24-.858.57-1.134.99-.276.42-.414.888-.414 1.404 0 .48.126.924.378 1.332.264.408.648.738 1.152.99.504.252 1.104.378 1.8.378zm7.005 1.08a.934.934 0 0 1-.684-.288.989.989 0 0 1-.27-.702c0-.276.09-.504.27-.684a.934.934 0 0 1 .684-.288c.264 0 .492.096.684.288.192.18.288.408.288.684 0 .276-.096.51-.288.702a.934.934 0 0 1-.684.288zm7.302-7.29c1.32.072 2.322.432 3.006 1.08.696.636 1.044 1.47 1.044 2.502 0 .72-.174 1.362-.522 1.926-.348.552-.864.99-1.548 1.314-.684.324-1.518.486-2.502.486a7.73 7.73 0 0 1-2.592-.432c-.804-.3-1.452-.696-1.944-1.188l.63-1.026c.42.432.978.786 1.674 1.062a6.24 6.24 0 0 0 2.232.396c1.032 0 1.83-.222 2.394-.666.564-.456.846-1.08.846-1.872 0-.78-.282-1.392-.846-1.836-.564-.444-1.416-.666-2.556-.666h-.9v-.954l3.492-4.374h-6.444v-1.152h8.1v.918l-3.564 4.482zm16.586 3.888h-2.52v3.312h-1.296v-3.312h-7.11v-.936l6.678-8.352h1.44l-6.444 8.136h5.472v-2.916h1.26v2.916h2.52v1.152zM458.975 338.913v9.469h-1.278v-8.335h-4.536l-.126 2.34c-.096 1.969-.324 3.481-.684 4.537-.36 1.056-1.002 1.584-1.926 1.584-.252 0-.558-.048-.918-.144l.09-1.098c.216.048.366.072.45.072.492 0 .864-.228 1.116-.684.252-.456.42-1.02.504-1.692.084-.672.156-1.56.216-2.665l.162-3.384h6.93zm7.539 9.559c-.912 0-1.734-.204-2.466-.612a4.594 4.594 0 0 1-1.728-1.728c-.42-.732-.63-1.56-.63-2.484 0-.925.21-1.753.63-2.485a4.465 4.465 0 0 1 1.728-1.71c.732-.408 1.554-.612 2.466-.612.912 0 1.734.204 2.466.612a4.34 4.34 0 0 1 1.71 1.71c.42.732.63 1.56.63 2.485 0 .924-.21 1.752-.63 2.484a4.465 4.465 0 0 1-1.71 1.728c-.732.408-1.554.612-2.466.612zm0-1.134c.672 0 1.272-.15 1.8-.45.54-.312.96-.75 1.26-1.314.3-.564.45-1.206.45-1.926s-.15-1.363-.45-1.927c-.3-.564-.72-.996-1.26-1.296-.528-.312-1.128-.468-1.8-.468-.672 0-1.278.156-1.818.468-.528.3-.948.732-1.26 1.296-.3.564-.45 1.207-.45 1.927s.15 1.362.45 1.926a3.406 3.406 0 0 0 1.26 1.314c.54.3 1.146.45 1.818.45zm16.719-.072v3.402h-1.206v-2.286h-8.478v2.286h-1.206v-3.402h.54c.636-.036 1.068-.504 1.296-1.404.228-.9.384-2.16.468-3.781l.126-3.168h6.984v8.353h1.476zm-7.416-5.113c-.06 1.345-.174 2.455-.342 3.331-.168.864-.468 1.458-.9 1.782h5.904v-7.219h-4.554l-.108 2.106zm18.205 2.017h-2.053v4.212h-1.278v-4.212h-2.052l-2.898 4.212h-1.53l3.402-4.878-3.132-4.591h1.386l2.772 4.159h2.052v-4.159h1.278v4.159h2.053l2.79-4.159h1.386l-3.132 4.609 3.402 4.86h-1.53l-2.916-4.212zm6.573-5.257h1.278v7.525l6.318-7.525h1.134v9.469h-1.278v-7.525l-6.3 7.525h-1.152v-9.469zm19.665 0v9.469h-1.17v-3.132h-3.33l-2.196 3.132h-1.387l2.359-3.312c-.732-.204-1.296-.552-1.692-1.044-.396-.492-.594-1.116-.594-1.873 0-1.056.36-1.86 1.08-2.412.72-.552 1.704-.828 2.952-.828h3.978zm-6.714 3.276c0 1.405.894 2.107 2.682 2.107h2.862v-4.249h-2.772c-1.848 0-2.772.714-2.772 2.142zM480.448 374.355h-2.52v3.312h-1.296v-3.312h-7.11v-.936l6.678-8.352h1.44l-6.444 8.136h5.472v-2.916h1.26v2.916h2.52v1.152zm2.514 3.402a.934.934 0 0 1-.684-.288.989.989 0 0 1-.27-.702c0-.276.09-.504.27-.684a.934.934 0 0 1 .684-.288c.264 0 .492.096.684.288.192.18.288.408.288.684 0 .276-.096.51-.288.702a.934.934 0 0 1-.684.288zm13.325-3.402h-2.52v3.312h-1.296v-3.312h-7.111v-.936l6.679-8.352h1.44l-6.445 8.136h5.473v-2.916h1.26v2.916h2.52v1.152zm4.225-9.288v12.6h-1.296v-11.448h-2.97v-1.152h4.266zM232.171 131.345c1.824 0 3.15.33 3.978.99.84.648 1.26 1.56 1.26 2.736 0 .732-.174 1.386-.522 1.962-.336.576-.846 1.032-1.53 1.368-.684.324-1.524.486-2.52.486-.9 0-1.758-.144-2.574-.432-.804-.3-1.452-.696-1.944-1.188l.63-1.026c.42.432.972.786 1.656 1.062a6.096 6.096 0 0 0 2.214.396c1.044 0 1.848-.234 2.412-.702.576-.468.864-1.092.864-1.872 0-.864-.324-1.518-.972-1.962-.636-.444-1.716-.666-3.24-.666h-2.682l.648-6.318h6.894v1.152h-5.76l-.432 4.014h1.62zm7.856 7.524a.934.934 0 0 1-.684-.288.989.989 0 0 1-.27-.702c0-.276.09-.504.27-.684a.934.934 0 0 1 .684-.288c.264 0 .492.096.684.288.192.18.288.408.288.684 0 .276-.096.51-.288.702a.934.934 0 0 1-.684.288zm7.671.018c-.972 0-1.842-.258-2.61-.774-.756-.516-1.35-1.254-1.782-2.214-.42-.972-.63-2.112-.63-3.42 0-1.308.21-2.442.63-3.402.432-.972 1.026-1.716 1.782-2.232.768-.516 1.638-.774 2.61-.774s1.836.258 2.592.774c.768.516 1.368 1.26 1.8 2.232.432.96.648 2.094.648 3.402 0 1.308-.216 2.448-.648 3.42-.432.96-1.032 1.698-1.8 2.214-.756.516-1.62.774-2.592.774zm0-1.188c.732 0 1.374-.204 1.926-.612.564-.408 1.002-1.002 1.314-1.782.312-.78.468-1.722.468-2.826s-.156-2.046-.468-2.826c-.312-.78-.75-1.374-1.314-1.782-.552-.408-1.194-.612-1.926-.612s-1.38.204-1.944.612c-.552.408-.984 1.002-1.296 1.782-.312.78-.468 1.722-.468 2.826s.156 2.046.468 2.826c.312.78.744 1.374 1.296 1.782a3.231 3.231 0 0 0 1.944.612zm10.353-11.52v12.6h-1.296v-11.448h-2.97v-1.152h4.266z" fill="#20201F"/></g><defs><clipPath id="a"><path fill="#fff" transform="translate(52 36)" d="M0 0h495.559v478.196H0z"/></clipPath></defs></svg>