<svg width="500" height="600" fill="none" xmlns="http://www.w3.org/2000/svg"><path fill="#fff" d="M0 0h500v600H0z"/><g clip-path="url(#a)"><path fill-rule="evenodd" clip-rule="evenodd" d="M28 112.654h243.957V46.779L460.228 35h7.557v77.654h3.583v452.748H209.579v-35.335H28V112.654z" fill="#94D0F5"/><path fill-rule="evenodd" clip-rule="evenodd" d="M28 112.654h243.957V46.779L460.228 35h7.557v77.654h3.583v452.748H209.579v-35.335H28V112.654z" fill="#FFF9D0"/><path d="M307.8 128.224h-35.938v35.933H307.8v-35.933zM42.975 143.197H28v386.87h14.975v-386.87zM471.368 143.243h-14.975v422.159h14.975V143.243z" fill="#20201F"/><path d="M471.368 550.428H332.351v14.974h139.017v-14.974zM272.466 550.428H209.58v14.974h62.886v-14.974z" fill="#20201F"/><path d="M224.555 515.095H209.58v50.307h14.975v-50.307z" fill="#20201F"/><path d="M224.555 515.095H28.123v14.972h196.432v-14.972zM83.823 120.439H28v22.758h55.823v-22.758zM307.8 120.439h-98.22v22.757h98.22v-22.757zM471.368 120.439h-85.715v22.758h85.715v-22.758zM87.412 112.654H28v7.785h59.412v-7.785z" fill="#20201F"/><path d="M307.8 112.653H205.991v7.786H307.8v-7.786zM471.368 112.654h-85.715v7.785h85.715v-7.785z" fill="#20201F"/><path fill-rule="evenodd" clip-rule="evenodd" d="M271.957 46.779 460.709 35h10.659v6.534l-3.583.224v70.896h-7.186V42.206L279.142 53.53v59.124h-7.185V46.779z" fill="#20201F"/><path d="M276.659 164.157h-4.797V374.36h4.797V164.157z" fill="#20201F"/><path d="M279.524 369.569h-59.757v4.791h59.757v-4.791z" fill="#20201F"/><path d="M224.523 369.569h-4.756v8.676h4.756v-8.676zM456.392 369.569h-67.584v4.791h67.584v-4.791zM388.808 369.569h-51.67v4.791h51.67v-4.791z" fill="#20201F"/><path d="M337.139 369.569h-9.703v4.791h9.703v-4.791zM337.138 374.36h-4.787v87.106h4.787V374.36zM471.368 369.569h-.079v4.791h.079v-4.791zM224.555 432.143h-4.788v82.952h4.788v-82.952zM337.138 503.386h-4.787v47.042h4.787v-47.042zM205.99 112.654H87.403v3.852H205.99v-3.852zM209.58 120.419H83.814v3.851H209.58v-3.851zM209.58 139.324H83.814v3.851H209.58v-3.851zM337.744 112.652h-29.943v3.852h29.943v-3.852zM337.744 120.417H307.8v3.851h29.944v-3.851zM337.744 139.322H307.8v3.851h29.944v-3.851z" fill="#20201F"/><path d="M337.744 112.652h-2.827v30.543h2.827v-30.543z" fill="#20201F"/><path fill-rule="evenodd" clip-rule="evenodd" d="M380.479 121.965a1.702 1.702 0 0 1 3.402 0v35.996a1.702 1.702 0 0 1-3.402 0v-35.996zM339.201 121.623a.851.851 0 1 1 1.701 0c0 9.797 4.052 18.669 10.599 25.088 6.553 6.424 15.609 10.4 25.611 10.4a.85.85 0 0 1 0 1.7c-10.46 0-19.937-4.162-26.8-10.891-6.863-6.729-11.111-16.028-11.111-26.297zM222.117 427.157a1.702 1.702 0 0 1 0 3.402h-35.996a1.702 1.702 0 0 1 0-3.402h35.996zM222.459 380.671a.85.85 0 1 1 0 1.7c-9.779 0-18.638 4.552-25.055 11.906-6.444 7.386-10.433 17.6-10.433 28.887a.85.85 0 0 1-1.7 0c0-11.706 4.15-22.316 10.857-30.003 6.733-7.716 16.043-12.49 26.331-12.49zM285.041 371.615a1.7 1.7 0 0 1-3.401 0v-35.997a1.701 1.701 0 0 1 3.401 0v35.997zM325.047 371.957a.85.85 0 0 1-1.701 0c0-9.8-3.93-18.674-10.282-25.095-6.351-6.421-15.123-10.393-24.809-10.393a.851.851 0 1 1 0-1.701c10.158 0 19.359 4.165 26.018 10.898 6.655 6.728 10.774 16.025 10.774 26.291zM334.855 466.486a1.701 1.701 0 0 1 0-3.401h35.996a1.702 1.702 0 0 1 0 3.401h-35.996zM334.513 501.228a.85.85 0 1 1 0-1.7c9.825 0 18.714-3.427 25.138-8.963 6.393-5.509 10.349-13.111 10.349-21.498a.85.85 0 0 1 1.701 0c0 8.902-4.182 16.957-10.941 22.781-6.724 5.794-16.006 9.38-26.247 9.38zM331.19 562.926a1.702 1.702 0 0 1-3.401 0V526.93a1.701 1.701 0 0 1 3.401 0v35.996zM276.114 563.268a.85.85 0 0 1-1.7 0c0-10.313 5.469-19.635 14.308-26.368 8.776-6.684 20.886-10.821 34.245-10.821a.85.85 0 0 1 0 1.701c-12.981 0-24.725 4.002-33.216 10.468-8.424 6.418-13.637 15.266-13.637 25.02zM453.879 231.083v90.354h-36.142V230.02h36.142v1.063zm-4.273 62.075c0-.994-.407-1.9-1.065-2.554a3.608 3.608 0 0 0-2.549-1.061h-20.41a3.624 3.624 0 0 0-3.614 3.615v20.41a3.618 3.618 0 0 0 3.614 3.613h20.41c.995 0 1.9-.406 2.551-1.063a3.6 3.6 0 0 0 1.063-2.55v-20.41zm-1.689-51.565a4.99 4.99 0 0 0-1.464-3.532 4.985 4.985 0 0 0-7.064.003 4.982 4.982 0 0 0 .002 7.059 4.975 4.975 0 0 0 3.53 1.466c1.378 0 2.628-.56 3.532-1.464a4.982 4.982 0 0 0 1.464-3.532zm-13.163 0c0-1.672-.68-3.187-1.776-4.284a6.042 6.042 0 0 0-4.283-1.775 6.043 6.043 0 0 0-4.284 1.775 6.044 6.044 0 0 0-1.775 4.284c0 1.671.679 3.187 1.775 4.283a6.04 6.04 0 0 0 4.284 1.776 6.039 6.039 0 0 0 4.283-1.776 6.043 6.043 0 0 0 1.776-4.283zm-2.827 3.232a4.558 4.558 0 0 0 1.339-3.232 4.556 4.556 0 0 0-1.339-3.232 4.56 4.56 0 0 0-3.232-1.339 4.56 4.56 0 0 0-3.233 1.339 4.56 4.56 0 0 0-1.338 3.232c0 1.262.513 2.407 1.338 3.232a4.56 4.56 0 0 0 3.233 1.339 4.56 4.56 0 0 0 3.232-1.339zm17.053 9.763a6.04 6.04 0 0 0-1.776-4.284 6.04 6.04 0 0 0-4.283-1.775 6.042 6.042 0 0 0-4.284 1.774 6.047 6.047 0 0 0-1.775 4.285c0 1.672.679 3.187 1.776 4.283a6.041 6.041 0 0 0 4.283 1.776c1.671 0 3.187-.68 4.283-1.776a6.039 6.039 0 0 0 1.776-4.283zm-2.827 3.232a4.56 4.56 0 0 0 1.339-3.232 4.56 4.56 0 0 0-1.339-3.233 4.56 4.56 0 0 0-3.232-1.338 4.558 4.558 0 0 0-3.233 1.338 4.558 4.558 0 0 0-1.338 3.233c0 1.263.513 2.406 1.339 3.232a4.556 4.556 0 0 0 3.232 1.339 4.558 4.558 0 0 0 3.232-1.339zm-12.462-3.232a4.99 4.99 0 0 0-1.465-3.532 4.982 4.982 0 0 0-3.531-1.464c-1.375 0-2.625.56-3.532 1.467a4.982 4.982 0 0 0 .002 7.059 4.986 4.986 0 0 0 7.061.002 4.987 4.987 0 0 0 1.465-3.532zm-2.516 2.48a3.498 3.498 0 0 0 1.028-2.48c0-.971-.392-1.849-1.025-2.481a3.513 3.513 0 0 0-4.964-.002 3.496 3.496 0 0 0-1.027 2.483c0 .968.394 1.847 1.027 2.48a3.485 3.485 0 0 0 2.481 1.028c.968 0 1.847-.394 2.48-1.028zm14.227-12.994a3.503 3.503 0 0 0 1.027-2.481c0-.971-.392-1.849-1.025-2.481a3.512 3.512 0 0 0-2.483-1.027c-.971 0-1.849.392-2.481 1.025a3.496 3.496 0 0 0-1.027 2.483 3.503 3.503 0 0 0 3.508 3.508c.969 0 1.847-.394 2.481-1.027zm2.078 69.494v-20.41c0-.408-.168-.781-.438-1.051a1.475 1.475 0 0 0-1.05-.438h-20.41a1.49 1.49 0 0 0-1.488 1.489v20.41c0 .41.167.782.434 1.049.274.27.648.438 1.054.438h20.41c.406 0 .78-.168 1.05-.438.271-.267.438-.639.438-1.049zm-27.617-49.567h31.89v-31.855h-31.89v31.855zm31.89 2.126h-31.89v53.184h31.89v-53.184zM421.09 527.18c2.797 1.798 6.386 2.909 9.541 2.909 3.105 0 5.529-1.065 7.216-2.81v-.005c.638-.66 1.132-1.445 1.55-2.275v3.587c0 2.142.895 3.397 2.331 4.126 1.307.665 3.036.829 4.932.829h.782v-.02c1.58-.044 3.022-.241 4.146-.809 1.435-.729 2.326-1.984 2.326-4.115v-17.595c0-2.14-.891-3.394-2.326-4.118-1.124-.564-2.566-.768-4.146-.81v-.02h-.782c-1.896 0-3.625.165-4.932.83-1.436.724-2.331 1.978-2.331 4.118v3.595c-.418-.831-.907-1.613-1.55-2.275-1.687-1.748-4.111-2.814-7.216-2.814-3.335 0-7.151 1.243-10.014 3.225-2.641 1.83-4.495 4.303-4.495 7.065 0 2.924 2.079 5.528 4.968 7.382zm27.903-7.889h.005v.002c0 .631-.263 1.212-.681 1.631v.005a2.303 2.303 0 0 1-3.259 0h-.008l.001-.005a2.313 2.313 0 0 1 1.634-3.944 2.31 2.31 0 0 1 2.308 2.311zm-1.183-.003v.005c0 .312-.124.593-.32.793h-.008a1.14 1.14 0 0 1-1.597.01l-.005-.008a1.138 1.138 0 0 1-.323-.795c0-.322.126-.602.323-.802.201-.197.49-.321.805-.321.315 0 .601.124.797.33.209.196.336.48.336.788h-.008zm-6.85-8.286c0-1.444.567-2.269 1.466-2.729.932-.464 2.224-.621 3.685-.648h.549c1.683 0 3.191.128 4.23.648.899.46 1.46 1.287 1.46 2.729v17.595c0 1.44-.561 2.263-1.46 2.723-1.039.523-2.547.65-4.23.65h-.609c-1.431-.032-2.714-.186-3.625-.648-.907-.462-1.466-1.292-1.466-2.736v-17.584zm-19.458 3.011c2.612-1.811 6.093-2.944 9.129-2.944 2.653 0 4.694.886 6.094 2.333 1.534 1.582 2.326 3.861 2.326 6.396 0 2.538-.792 4.815-2.326 6.401-1.4 1.443-3.441 2.328-6.094 2.328-2.868 0-6.143-1.015-8.702-2.658-2.467-1.584-4.244-3.74-4.244-6.071 0-2.192 1.58-4.229 3.817-5.785zM372.429 548.876l-19.49.006c-6.519 0-5.751-13.492-5.684-14.393a11.29 11.29 0 0 1 3.327-8.007 11.308 11.308 0 0 1 8.009-3.316h8.271c3.129 0 5.964 1.266 8.018 3.316a11.391 11.391 0 0 1 3.329 8.012c.042.916.713 14.388-5.78 14.382zm-9.706-13.143v-.002a2.537 2.537 0 0 0 1.77-.728 2.534 2.534 0 0 0 .718-1.765 2.481 2.481 0 0 0-2.49-2.492 2.48 2.48 0 0 0-1.76.728h-.008v.005a2.474 2.474 0 0 0-.732 1.759 2.5 2.5 0 0 0 .732 1.765h.002a2.504 2.504 0 0 0 1.766.734l.002-.004zm.004-1.271c.326 0 .633-.135.853-.36.214-.214.352-.522.352-.864 0-.34-.132-.649-.346-.869a1.23 1.23 0 0 0-.865-.348c-.344 0-.641.134-.861.348l-.005.005a1.207 1.207 0 0 0-.352.864c0 .336.142.644.354.864l.005.003c.215.216.522.346.854.346l.011-.003v.014zm-.004 9.665c3.142 0 5.995-.937 8.069-2.439 2.155-1.572 3.494-3.768 3.496-6.201 0-2.442-1.341-4.637-3.496-6.212-2.082-1.511-4.936-2.439-8.079-2.439h-.014c-3.134.008-5.98.943-8.06 2.449-2.146 1.57-3.483 3.76-3.485 6.189l.002.013c0 2.439 1.337 4.622 3.5 6.201 2.069 1.505 4.92 2.439 8.06 2.436l.007.003zm0-1.758c2.754-.005 5.242-.813 7.041-2.112 1.699-1.241 2.756-2.933 2.756-4.77 0-1.848-1.057-3.54-2.769-4.786-1.79-1.294-4.274-2.099-7.038-2.099h-.005l-.009-.005c-2.756.005-5.234.81-7.024 2.111-1.694 1.237-2.75 2.931-2.755 4.766l.005.013c-.003 1.841 1.054 3.534 2.756 4.77 1.791 1.294 4.276 2.107 7.032 2.104h.01v.008zm9.7 4.748c4.839 0 4.015-12.526 4.015-12.558l-.008-.065a9.565 9.565 0 0 0-2.791-6.764 9.582 9.582 0 0 0-6.777-2.799H358.6a9.54 9.54 0 0 0-6.783 2.799 9.554 9.554 0 0 0-2.801 6.764l-.003.062c0 .032-.888 12.561 3.931 12.561h19.479zM451.509 480.789V379.2H409.95v101.589h41.559zm-24.819-19.796a4.036 4.036 0 0 1 6.893-2.856 4.03 4.03 0 0 1 .003 5.71 4.02 4.02 0 0 1-2.857 1.186 4.03 4.03 0 0 1-2.856-1.183 4.026 4.026 0 0 1-1.183-2.857zm2.324-1.715a2.42 2.42 0 0 1 1.715-.708c.671 0 1.278.271 1.716.708.436.437.708 1.045.708 1.715a2.419 2.419 0 0 1-2.424 2.424 2.42 2.42 0 0 1-2.423-2.424c0-.669.271-1.275.708-1.715zm-17.875 13.843 1.616-71.712c0-10.771 7.204-19.591 17.974-19.591 10.771 0 17.975 8.82 17.975 19.591l1.616 71.712c0 1.39-.569 2.653-1.483 3.567a5.048 5.048 0 0 1-3.567 1.482h-29.082a5.038 5.038 0 0 1-3.562-1.482 5.038 5.038 0 0 1-1.487-3.567zm3.636-71.712c0-9.667 6.287-17.571 15.954-17.571 9.667 0 15.955 7.904 15.955 17.571l1.616 71.712c0 .831-.342 1.589-.891 2.143a3.022 3.022 0 0 1-2.139.887h-29.082a3.022 3.022 0 0 1-2.142-.892 3.014 3.014 0 0 1-.887-2.138l1.616-71.712zm38.712-22.422v102.015c0 .507-.201.97-.52 1.305-.32.338-.766.546-1.255.546h-41.966c-.488 0-.934-.208-1.254-.542a1.89 1.89 0 0 1-.52-1.309V378.987c0-.51.199-.974.52-1.31a1.755 1.755 0 0 1 1.254-.542h41.966c.487 0 .93.209 1.252.542.323.34.523.802.523 1.31z" fill="#20201F"/><path d="M144.235 180h-2.126v101.095h2.126V180zM171.491 204.764v1.314h-10.082v-1.047l5.975-5.852c.753-.739 1.26-1.376 1.52-1.91.273-.547.41-1.095.41-1.642 0-.849-.294-1.506-.883-1.971-.575-.48-1.403-.719-2.484-.719-1.684 0-2.991.534-3.922 1.601l-1.047-.903c.561-.657 1.273-1.164 2.135-1.519.876-.356 1.862-.534 2.957-.534 1.465 0 2.621.349 3.47 1.047.863.684 1.294 1.629 1.294 2.833 0 .74-.165 1.451-.493 2.136-.329.684-.951 1.471-1.869 2.361l-4.886 4.805h7.905zm5.838-13.059v14.373h-1.478v-13.059h-3.388v-1.314h4.866zm4.545 14.476c-.301 0-.561-.11-.78-.329a1.125 1.125 0 0 1-.308-.801c0-.315.102-.575.308-.78.219-.219.479-.329.78-.329.301 0 .561.11.78.329.219.205.329.465.329.78s-.11.582-.329.801a1.066 1.066 0 0 1-.78.329zm13.258-1.417v1.314H185.05v-1.047l5.975-5.852c.753-.739 1.259-1.376 1.519-1.91a3.64 3.64 0 0 0 .411-1.642c0-.849-.294-1.506-.883-1.971-.575-.48-1.403-.719-2.484-.719-1.684 0-2.991.534-3.922 1.601l-1.047-.903c.561-.657 1.273-1.164 2.135-1.519.876-.356 1.862-.534 2.957-.534 1.465 0 2.621.349 3.47 1.047.862.684 1.294 1.629 1.294 2.833 0 .74-.165 1.451-.493 2.136-.329.684-.952 1.471-1.869 2.361l-4.887 4.805h7.906zm11.67 0v1.314H196.72v-1.047l5.975-5.852c.753-.739 1.259-1.376 1.519-1.91a3.64 3.64 0 0 0 .411-1.642c0-.849-.294-1.506-.883-1.971-.575-.48-1.403-.719-2.484-.719-1.684 0-2.991.534-3.922 1.601l-1.047-.903c.561-.657 1.273-1.164 2.135-1.519.876-.356 1.862-.534 2.957-.534 1.465 0 2.621.349 3.47 1.047.862.684 1.294 1.629 1.294 2.833 0 .74-.165 1.451-.493 2.136-.329.684-.952 1.471-1.869 2.361l-4.887 4.805h7.906zM169.92 231.586h-2.874v3.778h-1.478v-3.778h-8.111v-1.068l7.618-9.527h1.642l-7.35 9.281h6.242v-3.326h1.437v3.326h2.874v1.314zm11.093 2.464v1.314h-10.082v-1.047l5.975-5.852c.753-.739 1.26-1.376 1.52-1.91.273-.547.41-1.095.41-1.642 0-.849-.294-1.506-.883-1.971-.574-.479-1.403-.719-2.484-.719-1.684 0-2.991.534-3.922 1.602l-1.047-.904c.561-.657 1.273-1.163 2.135-1.519.877-.356 1.862-.534 2.957-.534 1.465 0 2.622.349 3.47 1.047.863.684 1.294 1.629 1.294 2.834a4.87 4.87 0 0 1-.493 2.135c-.329.684-.951 1.471-1.868 2.361l-4.887 4.805h7.905zm3.164 1.417c-.301 0-.561-.11-.78-.329a1.13 1.13 0 0 1-.308-.801c0-.314.103-.575.308-.78.219-.219.479-.328.78-.328.302 0 .562.109.781.328.219.205.328.466.328.78 0 .315-.109.582-.328.801a1.067 1.067 0 0 1-.781.329zm7.021-8.583c2.081 0 3.593.376 4.538 1.129.958.739 1.437 1.78 1.437 3.121 0 .835-.199 1.581-.596 2.238-.383.657-.965 1.178-1.745 1.561-.78.369-1.738.554-2.874.554a8.749 8.749 0 0 1-2.937-.493c-.917-.342-1.656-.794-2.217-1.355l.719-1.17c.479.493 1.108.896 1.889 1.211.78.301 1.622.452 2.525.452 1.191 0 2.108-.267 2.751-.801.658-.534.986-1.245.986-2.135 0-.986-.37-1.732-1.109-2.238-.725-.507-1.957-.76-3.696-.76h-3.059l.739-7.207h7.864v1.314h-6.57l-.493 4.579h1.848zm20.069 4.702h-2.875v3.778h-1.478v-3.778h-8.111v-1.068l7.618-9.527h1.643l-7.351 9.281h6.242v-3.326h1.437v3.326h2.875v1.314zM171.183 260.872h-2.874v3.778h-1.479v-3.778h-8.11v-1.068l7.617-9.527h1.643l-7.351 9.281h6.242v-3.327h1.438v3.327h2.874v1.314zm5.944-4.435c1.506.082 2.649.492 3.429 1.232.794.725 1.191 1.676 1.191 2.854 0 .821-.199 1.553-.595 2.197-.397.629-.986 1.129-1.766 1.498-.781.37-1.732.555-2.854.555a8.806 8.806 0 0 1-2.957-.493c-.917-.342-1.656-.794-2.218-1.355l.719-1.17c.479.492 1.116.896 1.91 1.211a7.12 7.12 0 0 0 2.546.452c1.177 0 2.087-.254 2.73-.76.644-.52.966-1.232.966-2.135 0-.89-.322-1.588-.966-2.095-.643-.506-1.615-.759-2.915-.759h-1.027v-1.089l3.984-4.989h-7.351v-1.314h9.24v1.047l-4.066 5.113zm7.812 8.315c-.301 0-.561-.109-.78-.328a1.125 1.125 0 0 1-.308-.801c0-.315.102-.575.308-.78.219-.219.479-.329.78-.329.301 0 .561.11.78.329.219.205.329.465.329.78s-.11.582-.329.801a1.065 1.065 0 0 1-.78.328zm7.02-8.582c2.081 0 3.594.376 4.538 1.129.958.739 1.437 1.779 1.437 3.121 0 .835-.198 1.581-.595 2.238-.383.657-.965 1.177-1.745 1.56-.781.37-1.739.555-2.875.555a8.743 8.743 0 0 1-2.936-.493c-.917-.342-1.656-.794-2.218-1.355l.719-1.17c.479.492 1.109.896 1.889 1.211.78.301 1.622.452 2.525.452 1.191 0 2.109-.267 2.752-.801.657-.534.985-1.246.985-2.136 0-.985-.369-1.731-1.108-2.238-.726-.506-1.958-.759-3.696-.759h-3.06l.74-7.207h7.864v1.314h-6.571l-.493 4.579h1.848zm17.567 7.166v1.314h-10.082v-1.048l5.975-5.851c.753-.74 1.259-1.376 1.519-1.91a3.64 3.64 0 0 0 .411-1.643c0-.848-.294-1.505-.883-1.971-.575-.479-1.403-.718-2.484-.718-1.684 0-2.991.534-3.922 1.601l-1.047-.903c.561-.657 1.273-1.164 2.135-1.52.876-.356 1.862-.533 2.957-.533 1.465 0 2.621.349 3.47 1.047.862.684 1.294 1.629 1.294 2.833a4.89 4.89 0 0 1-.493 2.136c-.329.684-.952 1.471-1.869 2.361l-4.887 4.805h7.906zM125.667 211.756V252h-9.313v-32.77h-8.049v-7.474h17.362zM83.361 458.096h-5.667v8.418h-3.182v-11.046h8.85v2.628zm6.41 8.583c-1.163 0-2.21-.24-3.14-.719a5.506 5.506 0 0 1-2.157-2.033c-.52-.862-.78-1.841-.78-2.936s.26-2.074.78-2.936a5.365 5.365 0 0 1 2.156-2.012c.931-.493 1.978-.74 3.142-.74 1.163 0 2.204.247 3.12.74a5.365 5.365 0 0 1 2.157 2.012c.52.862.78 1.841.78 2.936s-.26 2.074-.78 2.936a5.506 5.506 0 0 1-2.156 2.033c-.917.479-1.958.719-3.121.719zm0-2.629c.822 0 1.493-.273 2.013-.821.534-.561.8-1.307.8-2.238s-.266-1.67-.8-2.217c-.52-.562-1.19-.842-2.012-.842-.822 0-1.5.28-2.033.842-.534.547-.8 1.286-.8 2.217s.266 1.677.8 2.238c.534.548 1.212.821 2.033.821zm13.518 2.629c-1.178 0-2.239-.24-3.183-.719a5.62 5.62 0 0 1-2.197-2.033c-.52-.862-.78-1.841-.78-2.936s.26-2.074.78-2.936a5.476 5.476 0 0 1 2.197-2.012c.944-.493 2.005-.74 3.183-.74 1.163 0 2.176.247 3.038.74a4.26 4.26 0 0 1 1.91 2.073l-2.485 1.335c-.574-1.013-1.403-1.519-2.484-1.519-.835 0-1.526.273-2.074.821-.547.548-.821 1.294-.821 2.238 0 .945.274 1.691.821 2.238.548.548 1.239.821 2.074.821 1.095 0 1.923-.506 2.484-1.519l2.485 1.355c-.397.876-1.034 1.561-1.91 2.053-.862.493-1.875.74-3.038.74zm16.135-8.583h-3.737v8.418h-3.182v-8.418h-3.737v-2.628h10.656v2.628zm1.708-2.628h3.182v6.57l5.38-6.57h2.936v11.046h-3.183v-6.57l-5.359 6.57h-2.956v-11.046zm14.577 0h3.183v4.312h4.804v-4.312h3.203v11.046h-3.203v-4.127h-4.804v4.127h-3.183v-11.046zm18.548-.165c1.711 0 3.025.411 3.942 1.232.917.808 1.376 2.033 1.376 3.676v6.303h-2.998v-1.375c-.602 1.026-1.725 1.54-3.367 1.54-.849 0-1.588-.144-2.218-.432-.616-.287-1.088-.684-1.416-1.19a3.099 3.099 0 0 1-.493-1.725c0-1.027.383-1.834 1.15-2.423.78-.589 1.978-.883 3.593-.883h2.546c0-.698-.212-1.232-.637-1.602-.424-.383-1.06-.574-1.909-.574-.589 0-1.171.095-1.745.287a4.447 4.447 0 0 0-1.438.739l-1.15-2.238c.603-.424 1.321-.753 2.156-.985a9.808 9.808 0 0 1 2.608-.35zm-.246 9.22c.547 0 1.033-.123 1.457-.37.425-.26.726-.636.904-1.129v-1.129h-2.197c-1.314 0-1.971.431-1.971 1.293 0 .411.157.739.472.986.329.232.773.349 1.335.349zm18.161-9.055v11.046h-2.854v-3.162h-2.361l-2.094 3.162h-3.409l2.526-3.613c-.767-.302-1.356-.733-1.766-1.294-.397-.575-.596-1.266-.596-2.074 0-1.3.466-2.299 1.397-2.998.944-.711 2.238-1.067 3.88-1.067h5.277zm-5.215 2.607c-.685 0-1.205.124-1.561.37-.342.246-.513.643-.513 1.191 0 .547.164.951.493 1.211.342.247.855.37 1.54.37h2.402v-3.142h-2.361zM109.816 493.09v2.71H98.954v-2.156l5.544-5.236c.588-.561.985-1.04 1.191-1.437.205-.411.308-.815.308-1.211 0-.575-.199-1.013-.596-1.315-.383-.314-.951-.472-1.704-.472-.63 0-1.198.123-1.704.37a3.17 3.17 0 0 0-1.273 1.067l-2.423-1.56c.561-.835 1.335-1.485 2.32-1.951.986-.479 2.115-.718 3.388-.718 1.068 0 1.999.178 2.792.534.808.342 1.431.835 1.869 1.478.452.63.678 1.376.678 2.238 0 .78-.165 1.513-.493 2.197-.329.684-.965 1.465-1.91 2.341l-3.306 3.121h6.181zm6.916-11.663V495.8h-3.326v-11.704h-2.875v-2.669h6.201zm4.386 14.537a1.925 1.925 0 0 1-1.417-.575c-.383-.383-.575-.862-.575-1.437 0-.589.192-1.061.575-1.417.384-.369.856-.554 1.417-.554s1.033.185 1.417.554c.383.356.575.828.575 1.417 0 .575-.192 1.054-.575 1.437a1.925 1.925 0 0 1-1.417.575zm14.424-2.874v2.71H124.68v-2.156l5.544-5.236c.589-.561.986-1.04 1.191-1.437.205-.411.308-.815.308-1.211 0-.575-.199-1.013-.596-1.315-.383-.314-.951-.472-1.704-.472-.629 0-1.198.123-1.704.37a3.17 3.17 0 0 0-1.273 1.067l-2.423-1.56c.561-.835 1.335-1.485 2.32-1.951.986-.479 2.115-.718 3.388-.718 1.068 0 1.999.178 2.793.534.807.342 1.43.835 1.868 1.478.452.63.678 1.376.678 2.238 0 .78-.165 1.513-.493 2.197-.329.684-.965 1.465-1.91 2.341l-3.305 3.121h6.18zm12.111 0v2.71h-10.862v-2.156l5.544-5.236c.589-.561.986-1.04 1.191-1.437.205-.411.308-.815.308-1.211 0-.575-.198-1.013-.595-1.315-.384-.314-.952-.472-1.705-.472a3.84 3.84 0 0 0-1.704.37 3.176 3.176 0 0 0-1.273 1.067l-2.423-1.56c.561-.835 1.335-1.485 2.32-1.951.986-.479 2.115-.718 3.388-.718 1.068 0 1.999.178 2.793.534.807.342 1.43.835 1.868 1.478.452.63.678 1.376.678 2.238 0 .78-.164 1.513-.493 2.197-.328.684-.965 1.465-1.909 2.341l-3.306 3.121h6.18zM328.032 239.902h-1.663v4.189h-3.203v-11.047h3.203v4.291h1.725l2.998-4.291h3.408l-3.86 5.297 4.127 5.75h-3.778l-2.957-4.189zm18.753-6.858-4.989 11.724c-.507 1.273-1.136 2.17-1.889 2.69-.739.52-1.636.78-2.69.78a5.603 5.603 0 0 1-1.704-.267c-.561-.178-1.02-.424-1.376-.739l1.171-2.279a2.778 2.778 0 0 0 1.806.698c.438 0 .794-.109 1.068-.328.274-.206.52-.555.739-1.048l.041-.102-4.784-11.129h3.306l3.1 7.494 3.121-7.494h3.08zm7.864 11.047-2.423-3.388-2.505 3.388h-3.49l4.25-5.565-4.107-5.482h3.594l2.34 3.224 2.403-3.224h3.408l-4.106 5.4 4.27 5.647h-3.634zm5.211-11.047h3.183v4.312h4.805v-4.312h3.203v11.047h-3.203v-4.128h-4.805v4.128h-3.183v-11.047zm24.072 0v11.047h-2.854v-3.162h-2.362l-2.094 3.162h-3.408l2.525-3.614c-.767-.301-1.355-.733-1.766-1.294-.397-.575-.595-1.266-.595-2.074 0-1.3.465-2.299 1.396-2.997.945-.712 2.238-1.068 3.881-1.068h5.277zm-5.216 2.608c-.684 0-1.204.123-1.56.369-.342.247-.514.644-.514 1.191 0 .548.165.951.493 1.212.342.246.856.369 1.54.369h2.403v-3.141h-2.362zM333.699 259.003v14.373h-3.326v-11.703h-2.875v-2.67h6.201zm8.657 14.62c-1.191 0-2.252-.295-3.183-.883-.931-.589-1.663-1.438-2.197-2.546-.52-1.123-.78-2.457-.78-4.004 0-1.547.26-2.875.78-3.984.534-1.122 1.266-1.978 2.197-2.566.931-.589 1.992-.883 3.183-.883 1.191 0 2.252.294 3.182.883.931.588 1.657 1.444 2.177 2.566.534 1.109.801 2.437.801 3.984 0 1.547-.267 2.881-.801 4.004-.52 1.108-1.246 1.957-2.177 2.546-.93.588-1.991.883-3.182.883zm0-2.813c.876 0 1.56-.377 2.053-1.13.507-.753.76-1.916.76-3.49 0-1.574-.253-2.738-.76-3.491-.493-.753-1.177-1.129-2.053-1.129-.863 0-1.547.376-2.053 1.129-.493.753-.74 1.917-.74 3.491s.247 2.737.74 3.49c.506.753 1.19 1.13 2.053 1.13zm9.404 2.73a1.928 1.928 0 0 1-1.417-.574c-.383-.384-.575-.863-.575-1.438 0-.588.192-1.061.575-1.416.384-.37.856-.555 1.417-.555s1.034.185 1.417.555c.383.355.575.828.575 1.416 0 .575-.192 1.054-.575 1.438a1.926 1.926 0 0 1-1.417.574zm8.536-14.783c2.012 0 3.586.616 4.723 1.848 1.136 1.218 1.704 2.977 1.704 5.277 0 1.629-.308 3.025-.924 4.188-.603 1.164-1.458 2.047-2.567 2.649-1.109.602-2.388.904-3.839.904a9.575 9.575 0 0 1-2.197-.247c-.699-.178-1.294-.424-1.787-.739l1.232-2.443c.698.479 1.595.718 2.69.718 1.218 0 2.183-.356 2.895-1.067.712-.726 1.095-1.766 1.15-3.121-.862.862-2.053 1.293-3.573 1.293-.917 0-1.752-.185-2.505-.554a4.403 4.403 0 0 1-1.786-1.561c-.438-.684-.657-1.471-.657-2.361 0-.958.239-1.8.718-2.526a4.647 4.647 0 0 1 1.951-1.663c.835-.397 1.759-.595 2.772-.595zm.246 6.776c.726 0 1.314-.199 1.766-.596.466-.41.698-.931.698-1.56 0-.63-.226-1.143-.677-1.54-.438-.397-1.047-.596-1.828-.596-.711 0-1.293.192-1.745.575-.438.384-.657.904-.657 1.561 0 .657.219 1.184.657 1.581.452.383 1.047.575 1.786.575zm12.704-1.13c2.026 0 3.518.404 4.477 1.212.971.807 1.457 1.889 1.457 3.244 0 .876-.219 1.677-.657 2.402-.438.712-1.108 1.287-2.012 1.725-.89.424-1.992.637-3.306.637-1.013 0-2.012-.13-2.997-.391-.972-.273-1.8-.657-2.485-1.149l1.314-2.546c.548.41 1.177.732 1.889.965a7.429 7.429 0 0 0 2.197.328c.835 0 1.492-.164 1.971-.493.479-.328.719-.787.719-1.375 0-.616-.253-1.082-.76-1.397-.492-.314-1.355-.472-2.587-.472h-3.675l.739-8.09h8.767v2.67h-5.995l-.226 2.73h1.17zM265.765 462.405l-3.006-3.96-3.024 3.96h-1.44l3.744-4.86-3.564-4.608h1.44l2.844 3.708 2.844-3.708h1.404l-3.564 4.608 3.78 4.86h-1.458zm7.125.09c-.912 0-1.734-.204-2.466-.612a4.594 4.594 0 0 1-1.728-1.728c-.42-.732-.63-1.56-.63-2.484 0-.924.21-1.752.63-2.484a4.465 4.465 0 0 1 1.728-1.71c.732-.408 1.554-.612 2.466-.612.912 0 1.734.204 2.466.612a4.34 4.34 0 0 1 1.71 1.71c.42.732.63 1.56.63 2.484 0 .924-.21 1.752-.63 2.484a4.465 4.465 0 0 1-1.71 1.728c-.732.408-1.554.612-2.466.612zm0-1.134c.672 0 1.272-.15 1.8-.45.54-.312.96-.75 1.26-1.314.3-.564.45-1.206.45-1.926s-.15-1.362-.45-1.926c-.3-.564-.72-.996-1.26-1.296-.528-.312-1.128-.468-1.8-.468-.672 0-1.278.156-1.818.468-.528.3-.948.732-1.26 1.296-.3.564-.45 1.206-.45 1.926s.15 1.362.45 1.926a3.406 3.406 0 0 0 1.26 1.314c.54.3 1.146.45 1.818.45zm15.225-8.424v9.468h-1.278v-8.334h-4.536l-.126 2.34c-.096 1.968-.324 3.48-.684 4.536-.36 1.056-1.002 1.584-1.926 1.584-.252 0-.558-.048-.918-.144l.09-1.098c.216.048.366.072.45.072.492 0 .864-.228 1.116-.684.252-.456.42-1.02.504-1.692.084-.672.156-1.56.216-2.664l.162-3.384h6.93zm11.373 0v9.468h-1.278v-8.334h-4.536l-.126 2.34c-.096 1.968-.324 3.48-.684 4.536-.36 1.056-1.002 1.584-1.926 1.584-.252 0-.558-.048-.918-.144l.09-1.098c.216.048.366.072.45.072.492 0 .864-.228 1.116-.684.252-.456.42-1.02.504-1.692.084-.672.156-1.56.216-2.664l.162-3.384h6.93zM266.593 484.257c1.824 0 3.15.33 3.978.99.84.648 1.26 1.56 1.26 2.736 0 .732-.174 1.386-.522 1.962-.336.576-.846 1.032-1.53 1.368-.684.324-1.524.486-2.52.486-.9 0-1.758-.144-2.574-.432-.804-.3-1.452-.696-1.944-1.188l.63-1.026c.42.432.972.786 1.656 1.062a6.096 6.096 0 0 0 2.214.396c1.044 0 1.848-.234 2.412-.702.576-.468.864-1.092.864-1.872 0-.864-.324-1.518-.972-1.962-.636-.444-1.716-.666-3.24-.666h-2.682l.648-6.318h6.894v1.152h-5.76l-.432 4.014h1.62zm7.855 7.524a.934.934 0 0 1-.684-.288.989.989 0 0 1-.27-.702c0-.276.09-.504.27-.684a.934.934 0 0 1 .684-.288c.264 0 .492.096.684.288.192.18.288.408.288.684 0 .276-.096.51-.288.702a.934.934 0 0 1-.684.288zm11.622-1.242v1.152h-8.838v-.918l5.238-5.13c.66-.648 1.104-1.206 1.332-1.674.24-.48.36-.96.36-1.44 0-.744-.258-1.32-.774-1.728-.504-.42-1.23-.63-2.178-.63-1.476 0-2.622.468-3.438 1.404l-.918-.792a4.846 4.846 0 0 1 1.872-1.332c.768-.312 1.632-.468 2.592-.468 1.284 0 2.298.306 3.042.918.756.6 1.134 1.428 1.134 2.484 0 .648-.144 1.272-.432 1.872-.288.6-.834 1.29-1.638 2.07l-4.284 4.212h6.93zm10.231 0v1.152h-8.838v-.918l5.238-5.13c.66-.648 1.104-1.206 1.332-1.674.24-.48.36-.96.36-1.44 0-.744-.258-1.32-.774-1.728-.504-.42-1.23-.63-2.178-.63-1.476 0-2.622.468-3.438 1.404l-.918-.792a4.846 4.846 0 0 1 1.872-1.332c.768-.312 1.632-.468 2.592-.468 1.284 0 2.298.306 3.042.918.756.6 1.134 1.428 1.134 2.484 0 .648-.144 1.272-.432 1.872-.288.6-.834 1.29-1.638 2.07l-4.284 4.212h6.93zM347.408 62.83c.876 0 1.656.198 2.34.594.696.384 1.236.93 1.62 1.639.384.695.576 1.493.576 2.394 0 .924-.204 1.746-.612 2.466a4.194 4.194 0 0 1-1.674 1.656c-.72.396-1.548.594-2.484.594-1.572 0-2.79-.552-3.654-1.657-.864-1.104-1.296-2.628-1.296-4.572 0-2.028.384-3.582 1.152-4.662.78-1.08 1.992-1.812 3.636-2.196l4.248-.972.216 1.17-3.996.918c-1.356.3-2.352.834-2.988 1.602-.636.756-.984 1.878-1.044 3.367a4.237 4.237 0 0 1 1.602-1.71c.684-.42 1.47-.63 2.358-.63zm-.198 8.28c.66 0 1.248-.15 1.764-.45a3.187 3.187 0 0 0 1.224-1.295c.3-.552.45-1.176.45-1.872 0-.697-.144-1.308-.432-1.837a3.007 3.007 0 0 0-1.224-1.224c-.516-.3-1.11-.45-1.782-.45-.672 0-1.272.15-1.8.45a3.159 3.159 0 0 0-1.224 1.224c-.288.528-.432 1.14-.432 1.837 0 .696.144 1.32.432 1.872.3.552.714.984 1.242 1.296.528.3 1.122.45 1.782.45zm10.679-8.586c1.236 0 2.184.312 2.844.936.66.612.99 1.524.99 2.736v5.869h-1.224v-1.476c-.288.492-.714.876-1.278 1.152-.552.276-1.212.414-1.98.414-1.056 0-1.896-.252-2.52-.756-.624-.504-.936-1.17-.936-1.999 0-.803.288-1.452.864-1.944.588-.492 1.518-.737 2.79-.737h3.006v-.576c0-.817-.228-1.434-.684-1.855-.456-.432-1.122-.648-1.998-.648-.6 0-1.176.102-1.728.306a4.231 4.231 0 0 0-1.422.81l-.576-.954a4.99 4.99 0 0 1 1.728-.936 6.566 6.566 0 0 1 2.124-.342zm-.45 8.623c.72 0 1.338-.162 1.854-.486.516-.337.9-.817 1.152-1.44v-1.549h-2.97c-1.62 0-2.43.565-2.43 1.693 0 .552.21.99.63 1.314.42.312 1.008.468 1.764.468zm15.426-8.55v9.468h-1.278V63.73h-4.536l-.126 2.34c-.096 1.969-.324 3.48-.684 4.537-.36 1.056-1.002 1.584-1.926 1.584-.252 0-.558-.048-.918-.144l.09-1.098c.216.048.366.072.45.072.492 0 .864-.228 1.116-.684.252-.457.42-1.02.504-1.693.084-.672.156-1.56.216-2.663l.162-3.385h6.93zm7.071 5.256h-2.16v4.212h-1.278v-9.469h1.278v4.158h2.178l3.33-4.158h1.386l-3.726 4.59 3.996 4.879h-1.512l-3.492-4.212zm10.594 4.302c-.913 0-1.735-.204-2.467-.612a4.595 4.595 0 0 1-1.728-1.729c-.42-.731-.63-1.56-.63-2.483 0-.925.21-1.752.63-2.484a4.464 4.464 0 0 1 1.728-1.71c.732-.409 1.554-.613 2.467-.613.912 0 1.734.204 2.466.612a4.34 4.34 0 0 1 1.71 1.71c.42.733.63 1.56.63 2.484 0 .924-.21 1.752-.63 2.484a4.465 4.465 0 0 1-1.71 1.729c-.732.408-1.554.612-2.466.612zm0-1.134c.672 0 1.272-.15 1.8-.45.54-.313.96-.75 1.26-1.314.3-.565.45-1.207.45-1.927s-.15-1.361-.45-1.925c-.3-.564-.72-.997-1.26-1.297-.528-.312-1.128-.468-1.8-.468-.672 0-1.279.156-1.819.468-.528.3-.948.733-1.26 1.296-.3.565-.45 1.207-.45 1.927s.15 1.361.45 1.925a3.407 3.407 0 0 0 1.26 1.315c.54.3 1.147.45 1.819.45zm7.537-8.425h1.278v4.194h5.958v-4.194h1.278v9.469h-1.278v-4.177h-5.958v4.177h-1.278v-9.469zM362.22 94.15c1.32.073 2.322.433 3.006 1.08.696.637 1.044 1.47 1.044 2.503 0 .72-.174 1.362-.522 1.926-.348.552-.864.99-1.548 1.314-.684.324-1.518.486-2.502.486a7.73 7.73 0 0 1-2.592-.432c-.804-.3-1.452-.696-1.944-1.188l.63-1.026c.42.432.978.786 1.674 1.062.696.264 1.44.396 2.232.396 1.032 0 1.83-.222 2.394-.666.564-.456.846-1.08.846-1.872 0-.78-.282-1.392-.846-1.836-.564-.444-1.416-.666-2.556-.666h-.9v-.954l3.492-4.374h-6.444V88.75h8.1v.918l-3.564 4.483zm6.848 7.291a.934.934 0 0 1-.684-.288.989.989 0 0 1-.27-.702c0-.276.09-.504.27-.684a.934.934 0 0 1 .684-.288c.264 0 .492.096.684.288.192.18.288.408.288.684 0 .276-.096.51-.288.702a.934.934 0 0 1-.684.288zm11.623-1.242v1.152h-8.838v-.918l5.238-5.13c.66-.648 1.104-1.206 1.332-1.674.24-.48.36-.96.36-1.44 0-.744-.258-1.32-.774-1.728-.504-.42-1.23-.63-2.178-.63-1.476 0-2.622.468-3.438 1.403l-.918-.791a4.846 4.846 0 0 1 1.872-1.332c.768-.313 1.632-.469 2.592-.469 1.284 0 2.298.306 3.042.919.756.6 1.134 1.427 1.134 2.484 0 .648-.144 1.272-.432 1.872-.288.6-.834 1.29-1.638 2.07l-4.284 4.212h6.93zm8.844-5.454c.792.264 1.398.66 1.818 1.188.432.528.648 1.164.648 1.908 0 .732-.198 1.374-.594 1.926-.396.54-.966.96-1.71 1.26-.732.288-1.596.432-2.592.432-1.512 0-2.7-.324-3.564-.972-.864-.648-1.296-1.53-1.296-2.646 0-.756.204-1.392.612-1.908.42-.528 1.026-.924 1.818-1.188-.648-.252-1.14-.612-1.476-1.08-.336-.48-.504-1.044-.504-1.692 0-1.02.396-1.83 1.188-2.43.804-.6 1.878-.9 3.222-.9.888 0 1.662.138 2.322.413.672.264 1.194.648 1.566 1.153.372.504.558 1.091.558 1.764 0 .648-.174 1.212-.522 1.692-.348.468-.846.828-1.494 1.08zm-5.544-2.736c0 .696.276 1.248.828 1.656.552.408 1.314.612 2.286.612s1.734-.204 2.286-.612c.564-.408.846-.954.846-1.638 0-.709-.288-1.267-.864-1.674-.564-.408-1.32-.612-2.268-.612-.96 0-1.722.204-2.286.612-.552.407-.828.96-.828 1.656zm3.114 8.352c1.116 0 1.986-.228 2.61-.684.636-.456.954-1.074.954-1.854s-.318-1.392-.954-1.836c-.624-.456-1.494-.684-2.61-.684-1.104 0-1.974.228-2.61.684-.624.444-.936 1.056-.936 1.836 0 .792.312 1.416.936 1.872.624.444 1.494.666 2.61.666zM359.907 418.296c1.824 0 3.15.33 3.978.99.84.648 1.26 1.56 1.26 2.736 0 .732-.174 1.386-.522 1.962-.336.576-.846 1.032-1.53 1.368-.684.324-1.524.486-2.52.486-.9 0-1.758-.144-2.574-.432-.804-.3-1.452-.696-1.944-1.188l.63-1.026c.42.432.972.786 1.656 1.062a6.096 6.096 0 0 0 2.214.396c1.044 0 1.848-.234 2.412-.702.576-.468.864-1.092.864-1.872 0-.864-.324-1.518-.972-1.962-.636-.444-1.716-.666-3.24-.666h-2.682l.648-6.318h6.894v1.152h-5.76l-.432 4.014h1.62zm7.855 7.524a.934.934 0 0 1-.684-.288.989.989 0 0 1-.27-.702c0-.276.09-.504.27-.684a.934.934 0 0 1 .684-.288c.264 0 .492.096.684.288.192.18.288.408.288.684 0 .276-.096.51-.288.702a.934.934 0 0 1-.684.288zm6.124-12.69v12.6h-1.296v-11.448h-2.97v-1.152h4.266zm6.324 5.166c1.824 0 3.15.33 3.978.99.84.648 1.26 1.56 1.26 2.736 0 .732-.174 1.386-.522 1.962-.336.576-.846 1.032-1.53 1.368-.684.324-1.524.486-2.52.486-.9 0-1.758-.144-2.574-.432-.804-.3-1.452-.696-1.944-1.188l.63-1.026c.42.432.972.786 1.656 1.062a6.096 6.096 0 0 0 2.214.396c1.044 0 1.848-.234 2.412-.702.576-.468.864-1.092.864-1.872 0-.864-.324-1.518-.972-1.962-.636-.444-1.716-.666-3.24-.666h-2.682l.648-6.318h6.894v1.152h-5.76l-.432 4.014h1.62z" fill="#20201F"/></g><defs><clipPath id="a"><path fill="#fff" transform="translate(28 35)" d="M0 0h443.368v530.402H0z"/></clipPath></defs></svg>