<svg width="500" height="600" viewBox="0 0 500 600" fill="none" xmlns="http://www.w3.org/2000/svg">
<rect width="500" height="600" fill="white"/>
<g clip-path="url(#clip0_2384_28731)">
<path fill-rule="evenodd" clip-rule="evenodd" d="M40 112.871H254.997V46.9959L447.241 35H450.848L450.835 112.871H459.211V353.018V367.989V493.753H335.241V565.619H197.502V493.753V401.056V367.989H40V112.871Z" fill="#C6C0E1"/>
<path fill-rule="evenodd" clip-rule="evenodd" d="M40 112.871H254.997V46.9959L447.241 35H450.848L450.835 112.871H459.211V353.018V367.989V493.753H335.241V565.619H197.502V493.753V401.056V367.989H40V112.871Z" fill="#FFF9D0"/>
<path d="M264.573 128.441H228.644V164.374H264.573V128.441Z" fill="#20201F"/>
<path d="M54.9754 128.441H40V143.414H54.9754V128.441Z" fill="#20201F"/>
<path d="M459.211 128.441H444.236V143.414H459.211V128.441Z" fill="#20201F"/>
<path d="M54.9754 143.414H40V367.989H54.9754V143.414Z" fill="#20201F"/>
<path d="M459.211 143.414H444.236V493.753H459.211V143.414Z" fill="#20201F"/>
<path d="M444.236 478.781H320.274V493.753H444.236V478.781Z" fill="#20201F"/>
<path d="M335.241 478.781H320.274V565.619H335.241V478.781Z" fill="#20201F"/>
<path d="M260.38 550.645H212.461V565.619H260.38V550.645Z" fill="#20201F"/>
<path d="M212.478 367.989H197.502V565.619H212.478V367.989Z" fill="#20201F"/>
<path d="M212.46 353.018H54.9751V367.989H212.46V353.018Z" fill="#20201F"/>
<path d="M84.9178 120.656H40V143.414H84.9178V120.656Z" fill="#20201F"/>
<path d="M272.958 120.656H210.675V143.413H272.958V120.656Z" fill="#20201F"/>
<path d="M459.211 120.656H368.78V143.414H459.211V120.656Z" fill="#20201F"/>
<path d="M88.5064 112.871H40V120.656H88.5064V112.871Z" fill="#20201F"/>
<path d="M272.958 112.871H207.086V120.656H272.958V112.871Z" fill="#20201F"/>
<path d="M459.211 112.871H368.78V120.656H459.211V112.871Z" fill="#20201F"/>
<path fill-rule="evenodd" clip-rule="evenodd" d="M254.997 46.9959L447.229 35H459.211V41.4519L450.826 41.9752V112.871H443.64V42.4233L262.183 53.7472V112.871H254.997V46.9959Z" fill="#20201F"/>
<path d="M267.991 353.018H212.461V357.809H267.991V353.018Z" fill="#20201F"/>
<path d="M325.061 297.921H320.274V386.618H325.061V297.921Z" fill="#20201F"/>
<path d="M320.274 353.317H315.903V357.809H320.274V353.317Z" fill="#20201F"/>
<path d="M444.235 297.922H376.561V302.713H444.235V297.922Z" fill="#20201F"/>
<path d="M376.561 297.922H325.061V302.713H376.561V297.922Z" fill="#20201F"/>
<path d="M325.061 428.54H320.274V478.781H325.061V428.54Z" fill="#20201F"/>
<path d="M207.086 112.871H88.5066V116.723H207.086V112.871Z" fill="#20201F"/>
<path d="M210.675 120.636H84.9175V124.487H210.675V120.636Z" fill="#20201F"/>
<path d="M210.675 139.541H84.9175V143.392H210.675V139.541Z" fill="#20201F"/>
<path d="M320.867 112.869H272.955V116.721H320.867V112.869Z" fill="#20201F"/>
<path d="M320.869 120.634H272.955V124.485H320.869V120.634Z" fill="#20201F"/>
<path d="M320.869 139.539H272.955V143.391H320.869V139.539Z" fill="#20201F"/>
<path d="M320.869 112.869H318.042V143.412H320.869V112.869Z" fill="#20201F"/>
<path fill-rule="evenodd" clip-rule="evenodd" d="M266.138 560.347C266.138 561.286 265.376 562.048 264.438 562.048C263.499 562.048 262.737 561.286 262.737 560.347V524.351C262.737 523.412 263.499 522.65 264.438 522.65C265.376 522.65 266.138 523.412 266.138 524.351V560.347Z" fill="#20201F"/>
<path fill-rule="evenodd" clip-rule="evenodd" d="M316.291 560.689C316.291 561.158 315.91 561.54 315.441 561.54C314.972 561.54 314.59 561.158 314.59 560.689C314.59 550.924 309.687 542.071 301.763 535.654C293.791 529.197 282.762 525.201 270.573 525.201C270.104 525.201 269.723 524.82 269.723 524.351C269.723 523.882 270.104 523.5 270.573 523.5C283.157 523.5 294.566 527.644 302.833 534.339C311.146 541.07 316.291 550.387 316.291 560.689Z" fill="#20201F"/>
<path fill-rule="evenodd" clip-rule="evenodd" d="M310.111 355.905C310.111 354.966 310.873 354.204 311.811 354.204C312.75 354.204 313.512 354.966 313.512 355.905V391.901C313.512 392.84 312.75 393.602 311.811 393.602C310.873 393.602 310.111 392.84 310.111 391.901V355.905Z" fill="#20201F"/>
<path fill-rule="evenodd" clip-rule="evenodd" d="M269.804 355.563C269.804 355.094 270.185 354.713 270.654 354.713C271.124 354.713 271.504 355.094 271.504 355.563C271.504 365.365 275.464 374.238 281.861 380.658C288.257 387.078 297.098 391.051 306.86 391.051C307.33 391.051 307.711 391.432 307.711 391.901C307.711 392.371 307.33 392.752 306.86 392.752C296.633 392.752 287.366 388.586 280.658 381.854C273.954 375.125 269.804 365.828 269.804 355.563Z" fill="#20201F"/>
<path fill-rule="evenodd" clip-rule="evenodd" d="M322.906 391.693C321.968 391.693 321.206 390.931 321.206 389.992C321.206 389.053 321.968 388.291 322.906 388.291H358.903C359.841 388.291 360.603 389.053 360.603 389.992C360.603 390.931 359.841 391.693 358.903 391.693H322.906Z" fill="#20201F"/>
<path fill-rule="evenodd" clip-rule="evenodd" d="M322.565 426.165C322.095 426.165 321.714 425.784 321.714 425.314C321.714 424.845 322.095 424.464 322.565 424.464C332.391 424.464 341.281 421.063 347.706 415.568C354.098 410.103 358.052 402.56 358.052 394.242C358.052 393.772 358.433 393.391 358.903 393.391C359.372 393.391 359.753 393.772 359.753 394.242C359.753 403.078 355.569 411.076 348.809 416.857C342.085 422.606 332.805 426.165 322.565 426.165Z" fill="#20201F"/>
<path fill-rule="evenodd" clip-rule="evenodd" d="M363.634 122.417C363.634 121.478 364.396 120.716 365.335 120.716C366.274 120.716 367.036 121.478 367.036 122.417V158.413C367.036 159.352 366.274 160.114 365.335 160.114C364.396 160.114 363.634 159.352 363.634 158.413V122.417Z" fill="#20201F"/>
<path fill-rule="evenodd" clip-rule="evenodd" d="M322.356 122.075C322.356 121.605 322.737 121.224 323.207 121.224C323.676 121.224 324.057 121.605 324.057 122.075C324.057 131.872 328.109 140.743 334.656 147.163C341.209 153.587 350.265 157.563 360.267 157.563C360.736 157.563 361.117 157.944 361.117 158.413C361.117 158.882 360.736 159.263 360.267 159.263C349.807 159.263 340.33 155.101 333.467 148.372C326.604 141.643 322.356 132.344 322.356 122.075Z" fill="#20201F"/>
<path fill-rule="evenodd" clip-rule="evenodd" d="M443.543 172.974V263.328H407.401V171.911H443.543V172.974ZM439.27 235.049C439.27 234.055 438.863 233.149 438.205 232.495C437.55 231.842 436.647 231.434 435.656 231.434H415.246C414.255 231.434 413.352 231.842 412.693 232.495C412.039 233.149 411.632 234.055 411.632 235.049V255.459C411.632 256.45 412.039 257.354 412.693 258.012C413.346 258.666 414.251 259.072 415.246 259.072H435.656C436.651 259.072 437.555 258.666 438.207 258.009C438.863 257.354 439.27 256.45 439.27 255.459V235.049ZM437.581 183.484C437.581 182.108 437.021 180.858 436.117 179.952C435.213 179.048 433.963 178.488 432.585 178.488C431.21 178.488 429.961 179.048 429.053 179.955C428.149 180.86 427.589 182.109 427.589 183.484C427.589 184.862 428.149 186.112 429.055 187.014C429.959 187.92 431.209 188.48 432.585 188.48C433.963 188.48 435.213 187.92 436.117 187.016C437.021 186.112 437.581 184.862 437.581 183.484ZM424.418 183.484C424.418 181.812 423.738 180.297 422.642 179.201C421.546 178.105 420.03 177.425 418.359 177.425C416.687 177.425 415.171 178.105 414.075 179.201C412.979 180.297 412.3 181.812 412.3 183.484C412.3 185.155 412.979 186.671 414.075 187.768C415.171 188.864 416.687 189.543 418.359 189.543C420.03 189.543 421.546 188.864 422.642 187.768C423.738 186.671 424.418 185.155 424.418 183.484ZM421.591 186.716C422.417 185.891 422.93 184.746 422.93 183.484C422.93 182.221 422.417 181.078 421.591 180.252C420.765 179.426 419.621 178.913 418.359 178.913C417.096 178.913 415.952 179.426 415.126 180.252C414.301 181.078 413.788 182.221 413.788 183.484C413.788 184.746 414.301 185.891 415.126 186.716C415.952 187.542 417.096 188.055 418.359 188.055C419.621 188.055 420.765 187.542 421.591 186.716ZM438.644 196.479C438.644 194.807 437.965 193.292 436.868 192.196C435.772 191.099 434.257 190.42 432.585 190.42C430.913 190.42 429.397 191.099 428.301 192.195C427.204 193.291 426.526 194.807 426.526 196.479C426.526 198.151 427.205 199.666 428.301 200.762C429.398 201.859 430.913 202.538 432.585 202.538C434.256 202.538 435.772 201.859 436.868 200.762C437.965 199.666 438.644 198.15 438.644 196.479ZM435.817 199.711C436.643 198.886 437.156 197.741 437.156 196.479C437.156 195.216 436.643 194.072 435.817 193.247C434.992 192.421 433.848 191.908 432.585 191.908C431.322 191.908 430.177 192.42 429.352 193.246C428.526 194.072 428.014 195.216 428.014 196.479C428.014 197.742 428.527 198.886 429.353 199.711C430.178 200.537 431.322 201.05 432.585 201.05C433.847 201.05 434.992 200.537 435.817 199.711ZM423.355 196.479C423.355 195.103 422.794 193.853 421.89 192.947C420.986 192.043 419.736 191.483 418.359 191.483C416.984 191.483 415.734 192.043 414.827 192.95C413.923 193.855 413.363 195.104 413.363 196.479C413.363 197.857 413.923 199.107 414.829 200.009C415.733 200.915 416.983 201.475 418.359 201.475C419.736 201.475 420.986 200.915 421.89 200.011C422.794 199.107 423.355 197.857 423.355 196.479ZM420.839 198.96C421.473 198.326 421.867 197.448 421.867 196.479C421.867 195.508 421.475 194.63 420.842 193.998C420.206 193.365 419.327 192.971 418.359 192.971C417.388 192.971 416.51 193.363 415.878 193.996C415.243 194.63 414.851 195.508 414.851 196.479C414.851 197.448 415.245 198.326 415.878 198.96C416.51 199.595 417.388 199.987 418.359 199.987C419.327 199.987 420.206 199.593 420.839 198.96ZM435.066 185.965C435.699 185.331 436.093 184.453 436.093 183.484C436.093 182.513 435.701 181.635 435.068 181.004C434.432 180.37 433.554 179.976 432.585 179.976C431.614 179.976 430.736 180.368 430.104 181.001C429.469 181.635 429.077 182.513 429.077 183.484C429.077 184.453 429.471 185.331 430.104 185.965C430.736 186.6 431.614 186.992 432.585 186.992C433.554 186.992 434.432 186.598 435.066 185.965ZM437.144 255.459V235.049C437.144 234.641 436.976 234.268 436.706 233.998C436.439 233.728 436.066 233.56 435.656 233.56H415.246C414.836 233.56 414.463 233.728 414.194 233.997C413.926 234.268 413.758 234.641 413.758 235.049V255.459C413.758 255.869 413.925 256.241 414.192 256.508C414.466 256.778 414.84 256.946 415.246 256.946H435.656C436.062 256.946 436.436 256.778 436.706 256.508C436.977 256.241 437.144 255.869 437.144 255.459ZM409.527 205.892H441.417V174.037H409.527V205.892ZM441.417 208.018H409.527V261.202H441.417V208.018Z" fill="#20201F"/>
<path fill-rule="evenodd" clip-rule="evenodd" d="M408.891 453.653C411.688 455.452 415.276 456.562 418.431 456.562C421.537 456.562 423.96 455.497 425.648 453.753V453.748C426.285 453.087 426.779 452.303 427.198 451.472V455.06C427.198 457.201 428.092 458.456 429.529 459.185C430.836 459.85 432.565 460.014 434.46 460.014H435.243V459.995C436.823 459.95 438.265 459.753 439.388 459.185C440.824 458.456 441.714 457.201 441.714 455.07V437.475C441.714 435.335 440.824 434.081 439.388 433.357C438.265 432.793 436.823 432.59 435.243 432.547V432.528H434.46C432.565 432.528 430.836 432.692 429.529 433.357C428.092 434.081 427.198 435.335 427.198 437.475V441.07C426.779 440.239 426.29 439.458 425.648 438.795C423.96 437.048 421.537 435.981 418.431 435.981C415.097 435.981 411.28 437.225 408.418 439.207C405.776 441.036 403.923 443.51 403.923 446.271C403.923 449.196 406.002 451.799 408.891 453.653ZM436.794 445.764H436.799V445.767C436.799 446.398 436.535 446.979 436.118 447.397V447.402C435.7 447.819 435.124 448.077 434.486 448.077C433.846 448.077 433.276 447.819 432.858 447.402H432.85L432.851 447.397C432.434 446.976 432.176 446.398 432.176 445.767C432.176 445.126 432.434 444.546 432.85 444.131C433.268 443.715 433.846 443.454 434.486 443.454C435.124 443.454 435.695 443.715 436.118 444.131C436.535 444.546 436.794 445.126 436.794 445.764ZM435.611 445.762V445.767C435.611 446.078 435.487 446.359 435.29 446.559H435.283C435.081 446.761 434.795 446.889 434.486 446.889C434.17 446.889 433.881 446.764 433.685 446.57L433.68 446.561C433.484 446.359 433.357 446.078 433.357 445.767C433.357 445.444 433.484 445.165 433.68 444.964C433.881 444.768 434.17 444.643 434.486 444.643C434.8 444.643 435.087 444.768 435.283 444.973C435.492 445.17 435.618 445.454 435.618 445.762H435.611ZM428.76 437.475C428.76 436.031 429.327 435.207 430.226 434.746C431.158 434.282 432.451 434.126 433.912 434.098H434.46C436.143 434.098 437.652 434.227 438.69 434.746C439.59 435.207 440.15 436.033 440.15 437.475V455.07C440.15 456.511 439.59 457.333 438.69 457.793C437.652 458.317 436.143 458.444 434.46 458.444H433.851C432.421 458.411 431.138 458.257 430.226 457.796C429.32 457.333 428.76 456.504 428.76 455.06V437.475ZM409.302 440.487C411.915 438.675 415.395 437.543 418.431 437.543C421.084 437.543 423.125 438.429 424.526 439.875C426.059 441.458 426.852 443.737 426.852 446.271C426.852 448.809 426.059 451.086 424.526 452.673C423.125 454.116 421.084 455 418.431 455C415.564 455 412.289 453.986 409.729 452.342C407.262 450.759 405.486 448.602 405.486 446.271C405.486 444.08 407.066 442.043 409.302 440.487Z" fill="#20201F"/>
<path fill-rule="evenodd" clip-rule="evenodd" d="M364.003 476.867L344.513 476.873C337.995 476.873 338.763 463.381 338.83 462.48C338.83 459.357 340.104 456.523 342.157 454.473C344.204 452.426 347.043 451.157 350.166 451.157H358.437C361.565 451.157 364.4 452.424 366.454 454.473C368.5 456.523 369.77 459.362 369.783 462.486C369.825 463.401 370.496 476.873 364.003 476.867ZM354.298 463.725V463.722C354.983 463.715 355.616 463.446 356.067 462.995C356.511 462.537 356.785 461.912 356.785 461.23C356.785 460.541 356.51 459.915 356.058 459.465C355.607 459.013 354.983 458.737 354.295 458.737C353.612 458.737 352.986 459.013 352.536 459.465H352.527V459.47C352.077 459.92 351.795 460.541 351.795 461.23C351.795 461.912 352.077 462.545 352.527 462.995H352.53C352.981 463.446 353.612 463.729 354.295 463.729L354.298 463.725ZM354.302 462.453C354.628 462.453 354.935 462.319 355.154 462.094C355.368 461.879 355.506 461.571 355.506 461.23C355.506 460.889 355.374 460.581 355.16 460.36C354.939 460.149 354.639 460.009 354.295 460.013C353.952 460.013 353.655 460.146 353.435 460.36L353.43 460.366C353.211 460.581 353.077 460.889 353.077 461.23C353.077 461.565 353.219 461.873 353.431 462.094L353.436 462.096C353.651 462.312 353.958 462.442 354.29 462.442L354.302 462.44V462.453ZM354.298 472.118C357.44 472.118 360.292 471.182 362.366 469.679C364.521 468.108 365.861 465.912 365.862 463.479C365.862 461.036 364.521 458.842 362.366 457.267C360.285 455.756 357.431 454.828 354.288 454.828H354.274C351.139 454.835 348.293 455.77 346.213 457.276C344.068 458.847 342.731 461.036 342.729 463.465L342.731 463.479C342.731 465.918 344.068 468.101 346.23 469.679C348.299 471.184 351.15 472.118 354.29 472.115L354.298 472.118ZM354.298 470.36C357.051 470.355 359.54 469.547 361.339 468.249C363.037 467.007 364.094 465.316 364.094 463.479C364.094 461.63 363.037 459.939 361.325 458.692C359.535 457.399 357.051 456.593 354.288 456.593H354.282L354.274 456.588C351.518 456.593 349.04 457.399 347.25 458.7C345.556 459.936 344.5 461.63 344.494 463.465L344.5 463.479C344.496 465.319 345.554 467.012 347.256 468.249C349.047 469.542 351.531 470.355 354.288 470.353H354.298V470.36ZM363.997 475.108C368.836 475.108 368.012 462.583 368.012 462.55L368.004 462.486C368.004 459.846 366.939 457.458 365.213 455.722C363.473 453.991 361.081 452.923 358.437 452.923H350.174C347.521 452.923 345.125 453.986 343.391 455.722C341.661 457.45 340.595 459.846 340.59 462.486L340.588 462.548C340.588 462.579 339.7 475.108 344.518 475.108H363.997Z" fill="#20201F"/>
<path fill-rule="evenodd" clip-rule="evenodd" d="M439.356 409.159V307.57H397.797V409.159H439.356ZM414.537 389.363C414.537 388.247 414.99 387.237 415.72 386.507C416.454 385.776 417.463 385.324 418.576 385.324C419.69 385.324 420.699 385.776 421.43 386.507C422.163 387.241 422.616 388.25 422.616 389.363C422.616 390.476 422.163 391.485 421.433 392.217C420.703 392.95 419.692 393.402 418.576 393.402C417.461 393.402 416.45 392.95 415.72 392.22C414.99 391.49 414.537 390.479 414.537 389.363ZM416.861 387.648C417.298 387.211 417.906 386.939 418.576 386.939C419.247 386.939 419.855 387.211 420.292 387.648C420.729 388.085 421 388.693 421 389.363C421 390.034 420.729 390.641 420.291 391.077C419.852 391.515 419.245 391.787 418.576 391.787C417.908 391.787 417.301 391.515 416.862 391.077C416.424 390.639 416.153 390.032 416.153 389.363C416.153 388.694 416.424 388.087 416.861 387.648ZM398.986 401.491L400.602 329.779C400.602 319.008 407.806 310.188 418.576 310.188C429.347 310.188 436.551 319.008 436.551 329.779L438.167 401.491C438.167 402.881 437.598 404.144 436.684 405.058C435.766 405.972 434.504 406.54 433.117 406.54H404.036C402.651 406.54 401.389 405.972 400.473 405.058C399.554 404.138 398.986 402.876 398.986 401.491ZM402.622 329.779C402.622 320.112 408.909 312.208 418.576 312.208C428.243 312.208 434.531 320.112 434.531 329.779L436.147 401.491C436.147 402.322 435.805 403.08 435.256 403.634C434.71 404.18 433.952 404.52 433.117 404.52H404.036C403.201 404.52 402.444 404.18 401.893 403.629C401.346 403.082 401.006 402.326 401.006 401.491L402.622 329.779ZM441.334 307.357V409.372C441.334 409.879 441.133 410.342 440.814 410.677C440.494 411.015 440.048 411.223 439.559 411.223H397.594C397.105 411.223 396.659 411.015 396.339 410.681C396.018 410.346 395.819 409.882 395.819 409.372V307.357C395.819 306.847 396.018 306.382 396.339 306.047C396.663 305.715 397.107 305.505 397.594 305.505H439.559C440.046 305.505 440.489 305.714 440.811 306.047C441.134 306.387 441.334 306.849 441.334 307.357Z" fill="#20201F"/>
<path d="M118.029 187.756V228H108.715V195.23H100.666V187.756H118.029Z" fill="#20201F"/>
<path d="M136.861 157H134.735V258.095H136.861V157Z" fill="#20201F"/>
<path d="M161.327 165.971V180.344H159.849V167.285H156.461V165.971H161.327ZM168.541 171.863C170.622 171.863 172.134 172.24 173.079 172.993C174.037 173.732 174.516 174.772 174.516 176.114C174.516 176.949 174.318 177.695 173.921 178.352C173.537 179.009 172.955 179.529 172.175 179.912C171.395 180.282 170.437 180.467 169.301 180.467C168.274 180.467 167.295 180.302 166.364 179.974C165.447 179.632 164.708 179.18 164.147 178.619L164.866 177.448C165.345 177.941 165.974 178.345 166.755 178.66C167.535 178.961 168.377 179.112 169.28 179.112C170.471 179.112 171.388 178.845 172.032 178.311C172.689 177.777 173.017 177.065 173.017 176.175C173.017 175.19 172.648 174.444 171.908 173.937C171.183 173.431 169.951 173.178 168.212 173.178H165.153L165.892 165.971H173.756V167.285H167.186L166.693 171.863H168.541ZM177.502 180.446C177.2 180.446 176.94 180.337 176.721 180.118C176.516 179.899 176.413 179.632 176.413 179.317C176.413 179.002 176.516 178.742 176.721 178.537C176.94 178.318 177.2 178.208 177.502 178.208C177.803 178.208 178.063 178.318 178.282 178.537C178.501 178.742 178.61 179.002 178.61 179.317C178.61 179.632 178.501 179.899 178.282 180.118C178.063 180.337 177.803 180.446 177.502 180.446ZM184.487 165.971V180.344H183.008V167.285H179.62V165.971H184.487ZM193.877 171.74C194.821 171.74 195.656 171.918 196.382 172.274C197.121 172.63 197.696 173.136 198.107 173.794C198.517 174.437 198.723 175.19 198.723 176.052C198.723 176.928 198.511 177.702 198.086 178.372C197.662 179.043 197.073 179.563 196.32 179.933C195.581 180.289 194.746 180.467 193.815 180.467C191.913 180.467 190.455 179.844 189.442 178.598C188.429 177.339 187.922 175.566 187.922 173.28C187.922 171.679 188.196 170.323 188.744 169.215C189.291 168.106 190.058 167.271 191.043 166.71C192.029 166.135 193.179 165.847 194.493 165.847C195.917 165.847 197.053 166.107 197.901 166.628L197.306 167.818C196.622 167.367 195.691 167.141 194.513 167.141C192.926 167.141 191.68 167.647 190.777 168.66C189.873 169.66 189.421 171.117 189.421 173.034C189.421 173.376 189.442 173.766 189.483 174.204C189.839 173.424 190.407 172.822 191.187 172.397C191.967 171.959 192.864 171.74 193.877 171.74ZM193.754 179.214C194.794 179.214 195.636 178.934 196.279 178.372C196.936 177.797 197.265 177.038 197.265 176.093C197.265 175.149 196.936 174.396 196.279 173.835C195.636 173.273 194.76 172.993 193.651 172.993C192.926 172.993 192.282 173.13 191.721 173.403C191.173 173.677 190.742 174.054 190.427 174.533C190.113 175.012 189.955 175.546 189.955 176.134C189.955 176.682 190.099 177.188 190.386 177.654C190.688 178.119 191.126 178.496 191.7 178.783C192.275 179.07 192.96 179.214 193.754 179.214Z" fill="#20201F"/>
<path d="M156.307 201.417C157.813 201.499 158.956 201.909 159.736 202.648C160.53 203.374 160.927 204.325 160.927 205.503C160.927 206.324 160.728 207.056 160.331 207.7C159.934 208.329 159.346 208.829 158.565 209.198C157.785 209.568 156.834 209.753 155.711 209.753C154.671 209.753 153.685 209.589 152.755 209.26C151.838 208.918 151.098 208.466 150.537 207.905L151.256 206.735C151.735 207.227 152.371 207.631 153.165 207.946C153.959 208.247 154.808 208.398 155.711 208.398C156.889 208.398 157.799 208.144 158.442 207.638C159.086 207.118 159.407 206.406 159.407 205.503C159.407 204.613 159.086 203.915 158.442 203.408C157.799 202.902 156.827 202.648 155.527 202.648H154.5V201.56L158.483 196.571H151.133V195.257H160.372V196.304L156.307 201.417ZM168.738 209.753C167.63 209.753 166.637 209.459 165.761 208.87C164.899 208.281 164.221 207.439 163.728 206.344C163.249 205.236 163.01 203.935 163.01 202.443C163.01 200.951 163.249 199.658 163.728 198.562C164.221 197.454 164.899 196.605 165.761 196.016C166.637 195.428 167.63 195.133 168.738 195.133C169.847 195.133 170.833 195.428 171.695 196.016C172.571 196.605 173.256 197.454 173.748 198.562C174.241 199.658 174.488 200.951 174.488 202.443C174.488 203.935 174.241 205.236 173.748 206.344C173.256 207.439 172.571 208.281 171.695 208.87C170.833 209.459 169.847 209.753 168.738 209.753ZM168.738 208.398C169.573 208.398 170.306 208.165 170.935 207.7C171.579 207.234 172.078 206.557 172.434 205.667C172.79 204.777 172.968 203.703 172.968 202.443C172.968 201.184 172.79 200.109 172.434 199.22C172.078 198.33 171.579 197.652 170.935 197.187C170.306 196.721 169.573 196.489 168.738 196.489C167.903 196.489 167.164 196.721 166.521 197.187C165.891 197.652 165.398 198.33 165.043 199.22C164.687 200.109 164.509 201.184 164.509 202.443C164.509 203.703 164.687 204.777 165.043 205.667C165.398 206.557 165.891 207.234 166.521 207.7C167.164 208.165 167.903 208.398 168.738 208.398ZM177.493 209.732C177.192 209.732 176.932 209.623 176.713 209.404C176.507 209.185 176.405 208.918 176.405 208.603C176.405 208.288 176.507 208.028 176.713 207.823C176.932 207.604 177.192 207.494 177.493 207.494C177.794 207.494 178.054 207.604 178.273 207.823C178.492 208.028 178.602 208.288 178.602 208.603C178.602 208.918 178.492 209.185 178.273 209.404C178.054 209.623 177.794 209.732 177.493 209.732ZM185.212 195.133C187.114 195.133 188.572 195.763 189.585 197.022C190.598 198.268 191.104 200.034 191.104 202.32C191.104 203.922 190.831 205.277 190.283 206.385C189.736 207.494 188.969 208.336 187.983 208.911C186.998 209.472 185.848 209.753 184.534 209.753C183.11 209.753 181.974 209.493 181.126 208.973L181.721 207.782C182.405 208.233 183.336 208.459 184.513 208.459C186.101 208.459 187.347 207.96 188.25 206.96C189.154 205.947 189.606 204.483 189.606 202.566C189.606 202.21 189.585 201.82 189.544 201.396C189.188 202.176 188.62 202.785 187.84 203.223C187.059 203.648 186.163 203.86 185.15 203.86C184.205 203.86 183.364 203.682 182.624 203.326C181.899 202.97 181.331 202.471 180.92 201.827C180.51 201.17 180.304 200.41 180.304 199.548C180.304 198.672 180.516 197.899 180.941 197.228C181.365 196.557 181.947 196.044 182.686 195.688C183.439 195.318 184.281 195.133 185.212 195.133ZM185.376 202.607C186.101 202.607 186.738 202.471 187.285 202.197C187.847 201.923 188.285 201.547 188.599 201.067C188.914 200.588 189.072 200.055 189.072 199.466C189.072 198.918 188.921 198.412 188.62 197.946C188.333 197.481 187.901 197.105 187.326 196.817C186.751 196.53 186.067 196.386 185.273 196.386C184.233 196.386 183.384 196.673 182.727 197.248C182.084 197.81 181.762 198.562 181.762 199.507C181.762 200.451 182.084 201.204 182.727 201.766C183.384 202.327 184.267 202.607 185.376 202.607ZM201.481 202.094C202.385 202.395 203.076 202.847 203.555 203.449C204.048 204.052 204.294 204.777 204.294 205.626C204.294 206.461 204.068 207.193 203.617 207.823C203.165 208.439 202.515 208.918 201.666 209.26C200.831 209.589 199.845 209.753 198.709 209.753C196.985 209.753 195.629 209.383 194.644 208.644C193.658 207.905 193.165 206.899 193.165 205.626C193.165 204.763 193.398 204.038 193.864 203.449C194.343 202.847 195.034 202.395 195.937 202.094C195.198 201.807 194.637 201.396 194.254 200.862C193.87 200.315 193.679 199.671 193.679 198.932C193.679 197.769 194.13 196.845 195.034 196.16C195.951 195.476 197.176 195.133 198.709 195.133C199.722 195.133 200.605 195.291 201.358 195.606C202.125 195.907 202.72 196.345 203.144 196.92C203.569 197.495 203.781 198.165 203.781 198.932C203.781 199.671 203.582 200.315 203.185 200.862C202.788 201.396 202.22 201.807 201.481 202.094ZM195.157 198.973C195.157 199.767 195.472 200.397 196.102 200.862C196.731 201.328 197.601 201.56 198.709 201.56C199.818 201.56 200.687 201.328 201.317 200.862C201.96 200.397 202.282 199.774 202.282 198.994C202.282 198.186 201.953 197.55 201.296 197.084C200.653 196.619 199.791 196.386 198.709 196.386C197.614 196.386 196.745 196.619 196.102 197.084C195.472 197.55 195.157 198.179 195.157 198.973ZM198.709 208.5C199.982 208.5 200.975 208.24 201.687 207.72C202.412 207.2 202.775 206.495 202.775 205.605C202.775 204.715 202.412 204.017 201.687 203.511C200.975 202.991 199.982 202.731 198.709 202.731C197.45 202.731 196.458 202.991 195.732 203.511C195.02 204.017 194.664 204.715 194.664 205.605C194.664 206.509 195.02 207.22 195.732 207.741C196.444 208.247 197.436 208.5 198.709 208.5Z" fill="#20201F"/>
<path d="M159.582 230.702C161.087 230.784 162.23 231.195 163.011 231.934C163.805 232.66 164.202 233.611 164.202 234.788C164.202 235.61 164.003 236.342 163.606 236.985C163.209 237.615 162.621 238.115 161.84 238.484C161.06 238.854 160.109 239.038 158.986 239.038C157.946 239.038 156.96 238.874 156.03 238.546C155.112 238.203 154.373 237.752 153.812 237.191L154.531 236.02C155.01 236.513 155.646 236.917 156.44 237.232C157.234 237.533 158.083 237.683 158.986 237.683C160.163 237.683 161.074 237.43 161.717 236.924C162.36 236.403 162.682 235.692 162.682 234.788C162.682 233.898 162.36 233.2 161.717 232.694C161.074 232.187 160.102 231.934 158.801 231.934H157.775V230.846L161.758 225.856H154.407V224.542H163.647V225.589L159.582 230.702ZM170.268 224.542V238.915H168.79V225.856H165.402V224.542H170.268ZM174.813 239.018C174.511 239.018 174.251 238.908 174.032 238.689C173.827 238.47 173.724 238.203 173.724 237.889C173.724 237.574 173.827 237.314 174.032 237.108C174.251 236.889 174.511 236.78 174.813 236.78C175.114 236.78 175.374 236.889 175.593 237.108C175.812 237.314 175.921 237.574 175.921 237.889C175.921 238.203 175.812 238.47 175.593 238.689C175.374 238.908 175.114 239.018 174.813 239.018ZM182.531 224.419C184.434 224.419 185.892 225.049 186.905 226.308C187.918 227.554 188.424 229.32 188.424 231.606C188.424 233.207 188.15 234.562 187.603 235.671C187.055 236.78 186.289 237.622 185.303 238.197C184.317 238.758 183.168 239.038 181.854 239.038C180.43 239.038 179.294 238.778 178.445 238.258L179.041 237.067C179.725 237.519 180.656 237.745 181.833 237.745C183.421 237.745 184.667 237.245 185.57 236.246C186.473 235.233 186.925 233.768 186.925 231.852C186.925 231.496 186.905 231.106 186.864 230.682C186.508 231.462 185.94 232.071 185.159 232.509C184.379 232.933 183.482 233.146 182.47 233.146C181.525 233.146 180.683 232.968 179.944 232.612C179.218 232.256 178.65 231.756 178.24 231.113C177.829 230.456 177.624 229.696 177.624 228.834C177.624 227.958 177.836 227.184 178.26 226.513C178.685 225.843 179.266 225.329 180.006 224.974C180.758 224.604 181.6 224.419 182.531 224.419ZM182.695 231.893C183.421 231.893 184.057 231.756 184.605 231.482C185.166 231.209 185.604 230.832 185.919 230.353C186.234 229.874 186.391 229.34 186.391 228.752C186.391 228.204 186.241 227.698 185.94 227.232C185.652 226.767 185.221 226.39 184.646 226.103C184.071 225.815 183.387 225.672 182.593 225.672C181.552 225.672 180.704 225.959 180.047 226.534C179.403 227.095 179.082 227.848 179.082 228.793C179.082 229.737 179.403 230.49 180.047 231.051C180.704 231.612 181.587 231.893 182.695 231.893ZM196.522 230.312C197.466 230.312 198.301 230.49 199.027 230.846C199.766 231.202 200.341 231.708 200.751 232.365C201.162 233.009 201.367 233.762 201.367 234.624C201.367 235.5 201.155 236.273 200.731 236.944C200.307 237.615 199.718 238.135 198.965 238.505C198.226 238.861 197.391 239.038 196.46 239.038C194.557 239.038 193.1 238.416 192.087 237.17C191.074 235.911 190.567 234.138 190.567 231.852C190.567 230.25 190.841 228.895 191.388 227.787C191.936 226.678 192.703 225.843 193.688 225.282C194.674 224.707 195.824 224.419 197.138 224.419C198.561 224.419 199.697 224.679 200.546 225.199L199.951 226.39C199.266 225.939 198.335 225.713 197.158 225.713C195.57 225.713 194.325 226.219 193.421 227.232C192.518 228.231 192.066 229.689 192.066 231.606C192.066 231.948 192.087 232.338 192.128 232.776C192.484 231.996 193.052 231.393 193.832 230.969C194.612 230.531 195.509 230.312 196.522 230.312ZM196.398 237.786C197.439 237.786 198.281 237.505 198.924 236.944C199.581 236.369 199.91 235.61 199.91 234.665C199.91 233.72 199.581 232.968 198.924 232.406C198.281 231.845 197.405 231.565 196.296 231.565C195.57 231.565 194.927 231.701 194.366 231.975C193.818 232.249 193.387 232.625 193.072 233.105C192.757 233.584 192.6 234.117 192.6 234.706C192.6 235.254 192.744 235.76 193.031 236.225C193.332 236.691 193.77 237.067 194.345 237.355C194.92 237.642 195.605 237.786 196.398 237.786Z" fill="#20201F"/>
<path d="M97.3093 298.071H91.6422V306.49H88.4596V295.443H97.3093V298.071ZM103.72 306.654C102.556 306.654 101.509 306.414 100.578 305.935C99.6612 305.442 98.9425 304.765 98.4224 303.902C97.9022 303.04 97.6421 302.061 97.6421 300.966C97.6421 299.871 97.9022 298.892 98.4224 298.03C98.9425 297.168 99.6612 296.497 100.578 296.018C101.509 295.525 102.556 295.279 103.72 295.279C104.883 295.279 105.924 295.525 106.841 296.018C107.758 296.497 108.477 297.168 108.997 298.03C109.517 298.892 109.777 299.871 109.777 300.966C109.777 302.061 109.517 303.04 108.997 303.902C108.477 304.765 107.758 305.442 106.841 305.935C105.924 306.414 104.883 306.654 103.72 306.654ZM103.72 304.026C104.541 304.026 105.212 303.752 105.732 303.204C106.266 302.643 106.533 301.897 106.533 300.966C106.533 300.035 106.266 299.296 105.732 298.749C105.212 298.187 104.541 297.907 103.72 297.907C102.899 297.907 102.221 298.187 101.687 298.749C101.153 299.296 100.886 300.035 100.886 300.966C100.886 301.897 101.153 302.643 101.687 303.204C102.221 303.752 102.899 304.026 103.72 304.026ZM117.237 306.654C116.059 306.654 114.998 306.414 114.054 305.935C113.123 305.442 112.391 304.765 111.857 303.902C111.337 303.04 111.077 302.061 111.077 300.966C111.077 299.871 111.337 298.892 111.857 298.03C112.391 297.168 113.123 296.497 114.054 296.018C114.998 295.525 116.059 295.279 117.237 295.279C118.4 295.279 119.413 295.525 120.275 296.018C121.151 296.497 121.788 297.188 122.185 298.092L119.7 299.426C119.126 298.413 118.297 297.907 117.216 297.907C116.381 297.907 115.69 298.181 115.142 298.728C114.595 299.276 114.321 300.022 114.321 300.966C114.321 301.911 114.595 302.657 115.142 303.204C115.69 303.752 116.381 304.026 117.216 304.026C118.311 304.026 119.139 303.519 119.7 302.506L122.185 303.861C121.788 304.737 121.151 305.422 120.275 305.915C119.413 306.407 118.4 306.654 117.237 306.654ZM133.372 298.071H129.635V306.49H126.453V298.071H122.716V295.443H133.372V298.071ZM135.08 295.443H138.262V302.013L143.642 295.443H146.578V306.49H143.395V299.919L138.036 306.49H135.08V295.443ZM149.657 295.443H152.84V299.755H157.644V295.443H160.847V306.49H157.644V302.362H152.84V306.49H149.657V295.443ZM168.205 295.279C169.916 295.279 171.23 295.689 172.147 296.511C173.064 297.318 173.523 298.543 173.523 300.186V306.49H170.525V305.114C169.923 306.14 168.8 306.654 167.158 306.654C166.309 306.654 165.57 306.51 164.94 306.223C164.324 305.935 163.852 305.538 163.524 305.032C163.195 304.525 163.031 303.95 163.031 303.307C163.031 302.28 163.414 301.473 164.181 300.884C164.961 300.295 166.159 300.001 167.774 300.001H170.32C170.32 299.303 170.108 298.769 169.683 298.4C169.259 298.016 168.623 297.825 167.774 297.825C167.185 297.825 166.603 297.92 166.029 298.112C165.467 298.29 164.988 298.536 164.591 298.851L163.441 296.613C164.044 296.189 164.762 295.86 165.597 295.628C166.446 295.395 167.315 295.279 168.205 295.279ZM167.959 304.498C168.506 304.498 168.992 304.375 169.416 304.128C169.841 303.868 170.142 303.492 170.32 302.999V301.87H168.123C166.809 301.87 166.152 302.301 166.152 303.163C166.152 303.574 166.309 303.902 166.624 304.149C166.953 304.381 167.397 304.498 167.959 304.498ZM186.12 295.443V306.49H183.266V303.327H180.905L178.811 306.49H175.402L177.928 302.876C177.161 302.575 176.572 302.143 176.162 301.582C175.765 301.007 175.566 300.316 175.566 299.508C175.566 298.208 176.032 297.209 176.963 296.511C177.907 295.799 179.201 295.443 180.843 295.443H186.12ZM180.905 298.051C180.22 298.051 179.7 298.174 179.344 298.42C179.002 298.667 178.831 299.063 178.831 299.611C178.831 300.159 178.995 300.562 179.324 300.822C179.666 301.069 180.179 301.192 180.864 301.192H183.266V298.051H180.905Z" fill="#20201F"/>
<path d="M122.788 333.065V335.775H111.926V333.619L117.47 328.383C118.059 327.822 118.456 327.343 118.661 326.946C118.866 326.535 118.969 326.132 118.969 325.735C118.969 325.16 118.771 324.722 118.374 324.421C117.99 324.106 117.422 323.948 116.669 323.948C116.04 323.948 115.472 324.071 114.965 324.318C114.459 324.551 114.034 324.906 113.692 325.386L111.269 323.825C111.831 322.99 112.604 322.34 113.59 321.874C114.575 321.395 115.704 321.156 116.977 321.156C118.045 321.156 118.976 321.334 119.77 321.69C120.578 322.032 121.2 322.525 121.638 323.168C122.09 323.798 122.316 324.544 122.316 325.406C122.316 326.186 122.152 326.919 121.823 327.603C121.495 328.288 120.858 329.068 119.914 329.944L116.608 333.065H122.788ZM130.28 336.022C129.09 336.022 128.029 335.727 127.098 335.139C126.167 334.55 125.435 333.701 124.901 332.593C124.381 331.47 124.121 330.135 124.121 328.589C124.121 327.042 124.381 325.714 124.901 324.605C125.435 323.483 126.167 322.627 127.098 322.039C128.029 321.45 129.09 321.156 130.28 321.156C131.471 321.156 132.532 321.45 133.463 322.039C134.394 322.627 135.119 323.483 135.64 324.605C136.173 325.714 136.44 327.042 136.44 328.589C136.44 330.135 136.173 331.47 135.64 332.593C135.119 333.701 134.394 334.55 133.463 335.139C132.532 335.727 131.471 336.022 130.28 336.022ZM130.28 333.209C131.157 333.209 131.841 332.832 132.334 332.079C132.84 331.326 133.093 330.163 133.093 328.589C133.093 327.014 132.84 325.851 132.334 325.098C131.841 324.345 131.157 323.969 130.28 323.969C129.418 323.969 128.734 324.345 128.227 325.098C127.734 325.851 127.488 327.014 127.488 328.589C127.488 330.163 127.734 331.326 128.227 332.079C128.734 332.832 129.418 333.209 130.28 333.209ZM139.685 335.939C139.124 335.939 138.651 335.748 138.268 335.364C137.885 334.981 137.693 334.502 137.693 333.927C137.693 333.339 137.885 332.866 138.268 332.51C138.651 332.141 139.124 331.956 139.685 331.956C140.246 331.956 140.718 332.141 141.102 332.51C141.485 332.866 141.676 333.339 141.676 333.927C141.676 334.502 141.485 334.981 141.102 335.364C140.718 335.748 140.246 335.939 139.685 335.939ZM148.393 321.402V335.775H145.066V324.071H142.192V321.402H148.393ZM157.809 326.761C158.726 326.761 159.561 326.946 160.314 327.316C161.067 327.685 161.662 328.212 162.1 328.897C162.538 329.567 162.757 330.348 162.757 331.237C162.757 332.196 162.518 333.037 162.039 333.763C161.56 334.488 160.903 335.05 160.068 335.447C159.246 335.83 158.329 336.022 157.316 336.022C155.304 336.022 153.73 335.406 152.594 334.174C151.458 332.942 150.889 331.183 150.889 328.897C150.889 327.268 151.197 325.871 151.813 324.708C152.429 323.544 153.285 322.662 154.38 322.059C155.489 321.457 156.769 321.156 158.22 321.156C158.986 321.156 159.719 321.245 160.417 321.423C161.128 321.587 161.731 321.827 162.224 322.141L160.992 324.585C160.28 324.106 159.383 323.866 158.302 323.866C157.083 323.866 156.118 324.222 155.407 324.934C154.695 325.646 154.312 326.679 154.257 328.034C155.106 327.186 156.29 326.761 157.809 326.761ZM157.131 333.537C157.843 333.537 158.418 333.345 158.856 332.962C159.308 332.579 159.534 332.059 159.534 331.402C159.534 330.745 159.308 330.224 158.856 329.841C158.418 329.444 157.83 329.246 157.09 329.246C156.365 329.246 155.769 329.451 155.304 329.862C154.839 330.259 154.606 330.772 154.606 331.402C154.606 332.031 154.832 332.545 155.283 332.942C155.735 333.339 156.351 333.537 157.131 333.537Z" fill="#20201F"/>
<path d="M333.913 214.566H332.25V218.755H329.047V207.708H332.25V212H333.975L336.972 207.708H340.381L336.521 213.006L340.648 218.755H336.87L333.913 214.566ZM352.666 207.708L347.677 219.433C347.17 220.706 346.541 221.602 345.788 222.123C345.049 222.643 344.152 222.903 343.098 222.903C342.523 222.903 341.955 222.814 341.394 222.636C340.833 222.458 340.374 222.211 340.018 221.897L341.188 219.618C341.435 219.837 341.715 220.008 342.03 220.131C342.359 220.254 342.68 220.316 342.995 220.316C343.433 220.316 343.789 220.206 344.063 219.987C344.337 219.782 344.583 219.433 344.802 218.94L344.843 218.837L340.059 207.708H343.365L346.465 215.203L349.586 207.708H352.666ZM360.53 218.755L358.107 215.367L355.602 218.755H352.112L356.362 213.191L352.255 207.708H355.849L358.189 210.932L360.592 207.708H364L359.893 213.109L364.164 218.755H360.53ZM365.741 207.708H368.924V212.02H373.728V207.708H376.932V218.755H373.728V214.628H368.924V218.755H365.741V207.708ZM389.812 207.708V218.755H386.958V215.593H384.597L382.503 218.755H379.094L381.62 215.141C380.853 214.84 380.265 214.409 379.854 213.848C379.457 213.273 379.259 212.582 379.259 211.774C379.259 210.474 379.724 209.474 380.655 208.776C381.599 208.064 382.893 207.708 384.536 207.708H389.812ZM384.597 210.316C383.913 210.316 383.393 210.439 383.037 210.686C382.694 210.932 382.523 211.329 382.523 211.877C382.523 212.424 382.688 212.828 383.016 213.088C383.358 213.334 383.872 213.458 384.556 213.458H386.958V210.316H384.597ZM392.419 211.692H398.23V214.258H392.419V211.692Z" fill="black"/>
<path d="M334.354 226.957H337.537V231.269H342.342V226.957H345.545V238.004H342.342V233.877H337.537V238.004H334.354V226.957ZM348.611 226.957H351.794V233.528L357.173 226.957H360.109V238.004H356.927V231.433L351.568 238.004H348.611V226.957ZM380.046 226.957V238.004H363.189V226.957H366.371V235.375H370.047V226.957H373.229V235.375H376.863V226.957H380.046ZM387.411 226.793C389.122 226.793 390.436 227.203 391.353 228.025C392.271 228.832 392.729 230.057 392.729 231.7V238.004H389.731V236.628C389.129 237.655 388.007 238.168 386.364 238.168C385.515 238.168 384.776 238.024 384.146 237.737C383.53 237.449 383.058 237.052 382.73 236.546C382.401 236.039 382.237 235.464 382.237 234.821C382.237 233.794 382.62 232.987 383.387 232.398C384.167 231.81 385.365 231.515 386.98 231.515H389.526C389.526 230.817 389.314 230.283 388.89 229.914C388.465 229.53 387.829 229.339 386.98 229.339C386.391 229.339 385.81 229.435 385.235 229.626C384.673 229.804 384.194 230.051 383.797 230.365L382.648 228.127C383.25 227.703 383.969 227.375 384.804 227.142C385.652 226.909 386.521 226.793 387.411 226.793ZM387.165 236.012C387.712 236.012 388.198 235.889 388.623 235.642C389.047 235.382 389.348 235.006 389.526 234.513V233.384H387.329C386.015 233.384 385.358 233.815 385.358 234.677C385.358 235.088 385.515 235.417 385.83 235.663C386.159 235.896 386.604 236.012 387.165 236.012Z" fill="black"/>
<path d="M250.913 433.823L247.907 429.863L244.883 433.823H243.443L247.187 428.963L243.623 424.355H245.063L247.907 428.063L250.751 424.355H252.155L248.591 428.963L252.371 433.823H250.913ZM258.038 433.913C257.126 433.913 256.304 433.709 255.572 433.301C254.84 432.881 254.264 432.305 253.844 431.573C253.424 430.841 253.214 430.013 253.214 429.089C253.214 428.165 253.424 427.337 253.844 426.605C254.264 425.873 254.84 425.303 255.572 424.895C256.304 424.487 257.126 424.283 258.038 424.283C258.95 424.283 259.772 424.487 260.504 424.895C261.236 425.303 261.806 425.873 262.214 426.605C262.634 427.337 262.844 428.165 262.844 429.089C262.844 430.013 262.634 430.841 262.214 431.573C261.806 432.305 261.236 432.881 260.504 433.301C259.772 433.709 258.95 433.913 258.038 433.913ZM258.038 432.779C258.71 432.779 259.31 432.629 259.838 432.329C260.378 432.017 260.798 431.579 261.098 431.015C261.398 430.451 261.548 429.809 261.548 429.089C261.548 428.369 261.398 427.727 261.098 427.163C260.798 426.599 260.378 426.167 259.838 425.867C259.31 425.555 258.71 425.399 258.038 425.399C257.366 425.399 256.76 425.555 256.22 425.867C255.692 426.167 255.272 426.599 254.96 427.163C254.66 427.727 254.51 428.369 254.51 429.089C254.51 429.809 254.66 430.451 254.96 431.015C255.272 431.579 255.692 432.017 256.22 432.329C256.76 432.629 257.366 432.779 258.038 432.779ZM273.262 424.355V433.823H271.984V425.489H267.448L267.322 427.829C267.226 429.797 266.998 431.309 266.638 432.365C266.278 433.421 265.636 433.949 264.712 433.949C264.46 433.949 264.154 433.901 263.794 433.805L263.884 432.707C264.1 432.755 264.25 432.779 264.334 432.779C264.826 432.779 265.198 432.551 265.45 432.095C265.702 431.639 265.87 431.075 265.954 430.403C266.038 429.731 266.11 428.843 266.17 427.739L266.332 424.355H273.262ZM284.635 424.355V433.823H283.357V425.489H278.821L278.695 427.829C278.599 429.797 278.371 431.309 278.011 432.365C277.651 433.421 277.009 433.949 276.085 433.949C275.833 433.949 275.527 433.901 275.167 433.805L275.257 432.707C275.473 432.755 275.623 432.779 275.707 432.779C276.199 432.779 276.571 432.551 276.823 432.095C277.075 431.639 277.243 431.075 277.327 430.403C277.411 429.731 277.483 428.843 277.543 427.739L277.705 424.355H284.635Z" fill="#20201F"/>
<path d="M251.444 455.675C253.268 455.675 254.594 456.005 255.422 456.665C256.262 457.313 256.682 458.225 256.682 459.401C256.682 460.133 256.508 460.787 256.16 461.363C255.824 461.939 255.314 462.395 254.63 462.731C253.946 463.055 253.106 463.217 252.11 463.217C251.21 463.217 250.352 463.073 249.536 462.785C248.732 462.485 248.084 462.089 247.592 461.597L248.222 460.571C248.642 461.003 249.194 461.357 249.878 461.633C250.562 461.897 251.3 462.029 252.092 462.029C253.136 462.029 253.94 461.795 254.504 461.327C255.08 460.859 255.368 460.235 255.368 459.455C255.368 458.591 255.044 457.937 254.396 457.493C253.76 457.049 252.68 456.827 251.156 456.827H248.474L249.122 450.509H256.016V451.661H250.256L249.824 455.675H251.444ZM259.299 463.199C259.035 463.199 258.807 463.103 258.615 462.911C258.435 462.719 258.345 462.485 258.345 462.209C258.345 461.933 258.435 461.705 258.615 461.525C258.807 461.333 259.035 461.237 259.299 461.237C259.563 461.237 259.791 461.333 259.983 461.525C260.175 461.705 260.271 461.933 260.271 462.209C260.271 462.485 260.175 462.719 259.983 462.911C259.791 463.103 259.563 463.199 259.299 463.199ZM267.168 455.567C267.996 455.567 268.728 455.723 269.364 456.035C270.012 456.347 270.516 456.791 270.876 457.367C271.236 457.931 271.416 458.591 271.416 459.347C271.416 460.115 271.23 460.793 270.858 461.381C270.486 461.969 269.97 462.425 269.31 462.749C268.662 463.061 267.93 463.217 267.114 463.217C265.446 463.217 264.168 462.671 263.28 461.579C262.392 460.475 261.948 458.921 261.948 456.917C261.948 455.513 262.188 454.325 262.668 453.353C263.148 452.381 263.82 451.649 264.684 451.157C265.548 450.653 266.556 450.401 267.708 450.401C268.956 450.401 269.952 450.629 270.696 451.085L270.174 452.129C269.574 451.733 268.758 451.535 267.726 451.535C266.334 451.535 265.242 451.979 264.45 452.867C263.658 453.743 263.262 455.021 263.262 456.701C263.262 457.001 263.28 457.343 263.316 457.727C263.628 457.043 264.126 456.515 264.81 456.143C265.494 455.759 266.28 455.567 267.168 455.567ZM267.06 462.119C267.972 462.119 268.71 461.873 269.274 461.381C269.85 460.877 270.138 460.211 270.138 459.383C270.138 458.555 269.85 457.895 269.274 457.403C268.71 456.911 267.942 456.665 266.97 456.665C266.334 456.665 265.77 456.785 265.278 457.025C264.798 457.265 264.42 457.595 264.144 458.015C263.868 458.435 263.73 458.903 263.73 459.419C263.73 459.899 263.856 460.343 264.108 460.751C264.372 461.159 264.756 461.489 265.26 461.741C265.764 461.993 266.364 462.119 267.06 462.119ZM281.668 450.509V451.427L276.394 463.109H274.99L280.174 451.661H273.694V454.019H272.416V450.509H281.668Z" fill="#20201F"/>
<path d="M333.408 62.9914C334.284 62.9914 335.064 63.1894 335.748 63.5854C336.444 63.9694 336.984 64.5155 337.368 65.2235C337.752 65.9195 337.944 66.7175 337.944 67.6175C337.944 68.5415 337.74 69.3635 337.332 70.0836C336.936 70.7916 336.378 71.3436 335.658 71.7396C334.938 72.1356 334.11 72.3336 333.174 72.3336C331.602 72.3336 330.384 71.7816 329.52 70.6776C328.656 69.5735 328.224 68.0495 328.224 66.1055C328.224 64.0775 328.608 62.5234 329.376 61.4434C330.156 60.3634 331.368 59.6314 333.012 59.2474L337.26 58.2754L337.476 59.4454L333.48 60.3634C332.124 60.6634 331.128 61.1974 330.492 61.9654C329.856 62.7214 329.508 63.8434 329.448 65.3315C329.832 64.5995 330.366 64.0294 331.05 63.6214C331.734 63.2014 332.52 62.9914 333.408 62.9914ZM333.21 71.2716C333.87 71.2716 334.458 71.1216 334.974 70.8216C335.502 70.5096 335.91 70.0776 336.198 69.5255C336.498 68.9735 336.648 68.3495 336.648 67.6535C336.648 66.9575 336.504 66.3455 336.216 65.8175C335.928 65.2895 335.52 64.8815 334.992 64.5935C334.476 64.2935 333.882 64.1435 333.21 64.1435C332.538 64.1435 331.938 64.2935 331.41 64.5935C330.894 64.8815 330.486 65.2895 330.186 65.8175C329.898 66.3455 329.754 66.9575 329.754 67.6535C329.754 68.3495 329.898 68.9735 330.186 69.5255C330.486 70.0776 330.9 70.5096 331.428 70.8216C331.956 71.1216 332.55 71.2716 333.21 71.2716ZM343.889 62.6854C345.125 62.6854 346.073 62.9974 346.733 63.6214C347.393 64.2335 347.723 65.1455 347.723 66.3575V72.2256H346.499V70.7496C346.211 71.2416 345.785 71.6256 345.221 71.9016C344.669 72.1776 344.009 72.3156 343.241 72.3156C342.185 72.3156 341.345 72.0636 340.721 71.5596C340.097 71.0556 339.785 70.3896 339.785 69.5615C339.785 68.7575 340.073 68.1095 340.649 67.6175C341.237 67.1255 342.167 66.8795 343.439 66.8795H346.445V66.3035C346.445 65.4875 346.217 64.8695 345.761 64.4495C345.305 64.0174 344.639 63.8014 343.763 63.8014C343.163 63.8014 342.587 63.9034 342.035 64.1075C341.483 64.2995 341.009 64.5695 340.613 64.9175L340.037 63.9634C340.517 63.5554 341.093 63.2434 341.765 63.0274C342.437 62.7994 343.145 62.6854 343.889 62.6854ZM343.439 71.3076C344.159 71.3076 344.777 71.1456 345.293 70.8216C345.809 70.4856 346.193 70.0055 346.445 69.3815V67.8335H343.475C341.855 67.8335 341.045 68.3975 341.045 69.5255C341.045 70.0776 341.255 70.5156 341.675 70.8396C342.095 71.1516 342.683 71.3076 343.439 71.3076ZM358.865 62.7574V72.2256H357.587V63.8914H353.051L352.925 66.2315C352.829 68.1995 352.601 69.7115 352.241 70.7676C351.881 71.8236 351.239 72.3516 350.315 72.3516C350.063 72.3516 349.757 72.3036 349.397 72.2076L349.487 71.1096C349.703 71.1576 349.853 71.1816 349.937 71.1816C350.429 71.1816 350.801 70.9536 351.053 70.4976C351.305 70.0415 351.473 69.4775 351.557 68.8055C351.641 68.1335 351.713 67.2455 351.773 66.1415L351.935 62.7574H358.865ZM365.936 68.0135H363.776V72.2256H362.498V62.7574H363.776V66.9155H365.954L369.284 62.7574H370.67L366.944 67.3475L370.94 72.2256H369.428L365.936 68.0135ZM376.53 72.3156C375.617 72.3156 374.795 72.1116 374.063 71.7036C373.331 71.2836 372.755 70.7076 372.335 69.9755C371.915 69.2435 371.705 68.4155 371.705 67.4915C371.705 66.5675 371.915 65.7395 372.335 65.0075C372.755 64.2755 373.331 63.7054 374.063 63.2974C374.795 62.8894 375.617 62.6854 376.53 62.6854C377.442 62.6854 378.264 62.8894 378.996 63.2974C379.728 63.7054 380.298 64.2755 380.706 65.0075C381.126 65.7395 381.336 66.5675 381.336 67.4915C381.336 68.4155 381.126 69.2435 380.706 69.9755C380.298 70.7076 379.728 71.2836 378.996 71.7036C378.264 72.1116 377.442 72.3156 376.53 72.3156ZM376.53 71.1816C377.202 71.1816 377.802 71.0316 378.33 70.7316C378.87 70.4196 379.29 69.9815 379.59 69.4175C379.89 68.8535 380.04 68.2115 380.04 67.4915C380.04 66.7715 379.89 66.1295 379.59 65.5655C379.29 65.0015 378.87 64.5695 378.33 64.2695C377.802 63.9574 377.202 63.8014 376.53 63.8014C375.858 63.8014 375.251 63.9574 374.711 64.2695C374.183 64.5695 373.763 65.0015 373.451 65.5655C373.151 66.1295 373.001 66.7715 373.001 67.4915C373.001 68.2115 373.151 68.8535 373.451 69.4175C373.763 69.9815 374.183 70.4196 374.711 70.7316C375.251 71.0316 375.858 71.1816 376.53 71.1816ZM384.067 62.7574H385.345V66.9515H391.303V62.7574H392.581V72.2256H391.303V68.0495H385.345V72.2256H384.067V62.7574Z" fill="#20201F"/>
<path d="M348.22 94.3116C349.54 94.3836 350.542 94.7436 351.226 95.3916C351.922 96.0276 352.27 96.8616 352.27 97.8937C352.27 98.6137 352.096 99.2557 351.748 99.8197C351.4 100.372 350.884 100.81 350.2 101.134C349.516 101.458 348.682 101.62 347.698 101.62C346.786 101.62 345.922 101.476 345.106 101.188C344.302 100.888 343.654 100.492 343.162 99.9997L343.792 98.9737C344.212 99.4057 344.77 99.7597 345.466 100.036C346.162 100.3 346.906 100.432 347.698 100.432C348.73 100.432 349.528 100.21 350.092 99.7657C350.656 99.3097 350.938 98.6857 350.938 97.8937C350.938 97.1136 350.656 96.5016 350.092 96.0576C349.528 95.6136 348.676 95.3916 347.536 95.3916H346.636V94.4376L350.128 90.0635H343.684V88.9115H351.784V89.8295L348.22 94.3116ZM355.068 101.602C354.804 101.602 354.576 101.506 354.384 101.314C354.204 101.122 354.114 100.888 354.114 100.612C354.114 100.336 354.204 100.108 354.384 99.9277C354.576 99.7357 354.804 99.6397 355.068 99.6397C355.332 99.6397 355.56 99.7357 355.752 99.9277C355.944 100.108 356.04 100.336 356.04 100.612C356.04 100.888 355.944 101.122 355.752 101.314C355.56 101.506 355.332 101.602 355.068 101.602ZM366.691 100.36V101.512H357.853V100.594L363.091 95.4636C363.751 94.8156 364.195 94.2576 364.423 93.7896C364.663 93.3096 364.783 92.8296 364.783 92.3496C364.783 91.6056 364.525 91.0295 364.009 90.6215C363.505 90.2015 362.779 89.9915 361.831 89.9915C360.355 89.9915 359.209 90.4595 358.393 91.3955L357.475 90.6035C357.967 90.0275 358.591 89.5835 359.347 89.2715C360.115 88.9595 360.979 88.8035 361.939 88.8035C363.223 88.8035 364.237 89.1095 364.981 89.7215C365.737 90.3215 366.115 91.1495 366.115 92.2056C366.115 92.8536 365.971 93.4776 365.683 94.0776C365.395 94.6776 364.849 95.3676 364.045 96.1476L359.761 100.36H366.691ZM375.535 94.9056C376.327 95.1696 376.933 95.5656 377.353 96.0936C377.785 96.6216 378.001 97.2576 378.001 98.0017C378.001 98.7337 377.803 99.3757 377.407 99.9277C377.011 100.468 376.441 100.888 375.697 101.188C374.965 101.476 374.101 101.62 373.105 101.62C371.593 101.62 370.405 101.296 369.541 100.648C368.677 99.9997 368.245 99.1177 368.245 98.0017C368.245 97.2456 368.449 96.6096 368.857 96.0936C369.277 95.5656 369.883 95.1696 370.675 94.9056C370.027 94.6536 369.535 94.2936 369.199 93.8256C368.863 93.3456 368.695 92.7816 368.695 92.1336C368.695 91.1135 369.091 90.3035 369.883 89.7035C370.687 89.1035 371.761 88.8035 373.105 88.8035C373.993 88.8035 374.767 88.9415 375.427 89.2175C376.099 89.4815 376.621 89.8655 376.993 90.3695C377.365 90.8735 377.551 91.4616 377.551 92.1336C377.551 92.7816 377.377 93.3456 377.029 93.8256C376.681 94.2936 376.183 94.6536 375.535 94.9056ZM369.991 92.1696C369.991 92.8656 370.267 93.4176 370.819 93.8256C371.371 94.2336 372.133 94.4376 373.105 94.4376C374.077 94.4376 374.839 94.2336 375.391 93.8256C375.955 93.4176 376.237 92.8716 376.237 92.1876C376.237 91.4796 375.949 90.9215 375.373 90.5135C374.809 90.1055 374.053 89.9015 373.105 89.9015C372.145 89.9015 371.383 90.1055 370.819 90.5135C370.267 90.9215 369.991 91.4736 369.991 92.1696ZM373.105 100.522C374.221 100.522 375.091 100.294 375.715 99.8377C376.351 99.3817 376.669 98.7637 376.669 97.9837C376.669 97.2036 376.351 96.5916 375.715 96.1476C375.091 95.6916 374.221 95.4636 373.105 95.4636C372.001 95.4636 371.131 95.6916 370.495 96.1476C369.871 96.5916 369.559 97.2036 369.559 97.9837C369.559 98.7757 369.871 99.3997 370.495 99.8557C371.119 100.3 371.989 100.522 373.105 100.522Z" fill="#20201F"/>
<path d="M348.588 344.714C350.412 344.714 351.738 345.044 352.566 345.704C353.406 346.352 353.826 347.264 353.826 348.44C353.826 349.172 353.652 349.826 353.304 350.402C352.968 350.978 352.458 351.434 351.774 351.77C351.09 352.094 350.25 352.256 349.254 352.256C348.354 352.256 347.496 352.112 346.68 351.824C345.876 351.524 345.228 351.128 344.736 350.636L345.366 349.61C345.786 350.042 346.338 350.396 347.022 350.672C347.706 350.936 348.444 351.068 349.236 351.068C350.28 351.068 351.084 350.834 351.648 350.366C352.224 349.898 352.512 349.274 352.512 348.494C352.512 347.63 352.188 346.976 351.54 346.532C350.904 346.088 349.824 345.866 348.3 345.866H345.618L346.266 339.548H353.16V340.7H347.4L346.968 344.714H348.588ZM356.443 352.238C356.179 352.238 355.951 352.142 355.759 351.95C355.579 351.758 355.489 351.524 355.489 351.248C355.489 350.972 355.579 350.744 355.759 350.564C355.951 350.372 356.179 350.276 356.443 350.276C356.707 350.276 356.935 350.372 357.127 350.564C357.319 350.744 357.415 350.972 357.415 351.248C357.415 351.524 357.319 351.758 357.127 351.95C356.935 352.142 356.707 352.238 356.443 352.238ZM362.567 339.548V352.148H361.271V340.7H358.301V339.548H362.567ZM368.891 344.714C370.715 344.714 372.041 345.044 372.869 345.704C373.709 346.352 374.129 347.264 374.129 348.44C374.129 349.172 373.955 349.826 373.607 350.402C373.271 350.978 372.761 351.434 372.077 351.77C371.393 352.094 370.553 352.256 369.557 352.256C368.657 352.256 367.799 352.112 366.983 351.824C366.179 351.524 365.531 351.128 365.039 350.636L365.669 349.61C366.089 350.042 366.641 350.396 367.325 350.672C368.009 350.936 368.747 351.068 369.539 351.068C370.583 351.068 371.387 350.834 371.951 350.366C372.527 349.898 372.815 349.274 372.815 348.494C372.815 347.63 372.491 346.976 371.843 346.532C371.207 346.088 370.127 345.866 368.603 345.866H365.921L366.569 339.548H373.463V340.7H367.703L367.271 344.714H368.891Z" fill="#20201F"/>
</g>
<defs>
<clipPath id="clip0_2384_28731">
<rect width="419.211" height="530.619" fill="white" transform="translate(40 35)"/>
</clipPath>
</defs>
</svg>
