<svg width="600" height="550" viewBox="0 0 600 550" fill="none" xmlns="http://www.w3.org/2000/svg">
<rect width="600" height="550" fill="white"/>
<g clip-path="url(#clip0_2384_28741)">
<path fill-rule="evenodd" clip-rule="evenodd" d="M52 498.624H335.565V514.196H547.559L529.599 301.3H512.234V280.339V245.601V36H103.202V155.174H73.8551V245.601H52V498.624Z" fill="#FFF9D0"/>
<path d="M512.234 36H103.202V50.4567H512.234V36Z" fill="#FFF9D0"/>
<path d="M496.663 277.946H421.199V292.912H496.663V277.946Z" fill="#20201F"/>
<path d="M436.472 483.657H421.199V498.624H436.472V483.657Z" fill="#20201F"/>
<path d="M118.178 155.174H73.855V170.141H118.178V155.174Z" fill="#20201F"/>
<path d="M118.178 36H103.202V170.141H118.178V36Z" fill="#20201F"/>
<path d="M481.688 36H103.202V50.9669H481.688V36Z" fill="#20201F"/>
<path d="M88.8304 230.034H73.855V253.088H88.8304V230.034Z" fill="#20201F"/>
<path d="M88.8305 238.113H52V253.089H88.8305V238.113Z" fill="#20201F"/>
<path d="M66.9669 238.113H52V498.624H66.9669V238.113Z" fill="#20201F"/>
<path d="M421.199 483.656H52V498.623H421.199V483.656Z" fill="#20201F"/>
<path d="M358.321 483.656H335.564V514.196H358.321V483.656Z" fill="#20201F"/>
<path d="M443.956 430.055H421.199V483.657H443.956V430.055Z" fill="#20201F"/>
<path d="M443.956 292.912H421.199V316.273H443.956V292.912Z" fill="#20201F"/>
<path d="M504.444 195.899H481.688V298.791H504.444V195.899Z" fill="#20201F"/>
<path d="M504.444 36H481.688V100.077H504.444V36Z" fill="#20201F"/>
<path d="M512.234 36H504.444V103.674H512.234V36Z" fill="#20201F"/>
<path d="M512.234 192.302H504.444V298.899H512.234V192.302Z" fill="#20201F"/>
<path d="M512.234 301.297H451.746V308.483H512.234V301.297Z" fill="#20201F"/>
<path d="M451.746 292.912H443.956V316.273H451.746V292.912Z" fill="#20201F"/>
<path d="M451.746 430.055H443.956V483.657H451.746V430.055Z" fill="#20201F"/>
<path d="M451.745 483.656H444.56V514.194H451.745V483.656Z" fill="#20201F"/>
<path d="M444.56 507.008H366.103V514.194H444.56V507.008Z" fill="#20201F"/>
<path d="M366.102 498.624H358.321V514.196H366.102V498.624Z" fill="#20201F"/>
<path d="M447.065 495.495H361.564V508.995H447.065V495.495Z" fill="#20201F"/>
<path d="M444.559 475.563H430.845V498.925H444.559V475.563Z" fill="#20201F"/>
<path d="M512.234 289.056H447.345V304.75H512.234V289.056Z" fill="#20201F"/>
<path fill-rule="evenodd" clip-rule="evenodd" d="M451.746 514.196H547.559L529.599 301.3H512.234V308.486H522.992L539.744 507.01H451.746V514.196Z" fill="#20201F"/>
<path d="M231.493 277.945H66.9668V282.733H231.493V277.945Z" fill="#20201F"/>
<path d="M421.199 277.945H285.391V282.733H421.199V277.945Z" fill="#20201F"/>
<path d="M302.025 262.97H297.237V280.557H302.025V262.97Z" fill="#20201F"/>
<path d="M157.832 165.353H118.178V170.141H157.832V165.353Z" fill="#20201F"/>
<path d="M302.025 165.353H199.747V170.141H302.025V165.353Z" fill="#20201F"/>
<path d="M302.025 165.353H297.237V215.059H302.025V165.353Z" fill="#20201F"/>
<path d="M302.025 113.854H297.237V165.353H302.025V113.854Z" fill="#20201F"/>
<path d="M302.025 50.9668H297.237V113.853H302.025V50.9668Z" fill="#20201F"/>
<path d="M512.234 103.674H508.382V192.311H512.234V103.674Z" fill="#20201F"/>
<path d="M504.469 100.076H500.618V195.9H504.469V100.076Z" fill="#20201F"/>
<path d="M485.564 100.076H481.712V195.9H485.564V100.076Z" fill="#20201F"/>
<path d="M451.747 364.177H447.895V430.055H451.747V364.177Z" fill="#20201F"/>
<path d="M443.982 364.177H440.131V430.057H443.982V364.177Z" fill="#20201F"/>
<path d="M425.077 364.177H421.226V430.057H425.077V364.177Z" fill="#20201F"/>
<path d="M451.747 364.177H421.204V367.004H451.747V364.177Z" fill="#20201F"/>
<path fill-rule="evenodd" clip-rule="evenodd" d="M198.192 168.456C198.192 169.394 197.43 170.156 196.491 170.156C195.552 170.156 194.79 169.394 194.79 168.456V132.459C194.79 131.52 195.552 130.759 196.491 130.759C197.43 130.759 198.192 131.52 198.192 132.459V168.456Z" fill="#20201F"/>
<path fill-rule="evenodd" clip-rule="evenodd" d="M161.341 168.797C161.341 169.267 160.96 169.648 160.491 169.648C160.021 169.648 159.64 169.267 159.64 168.797C159.64 158.555 163.267 149.272 169.13 142.547C175.018 135.789 183.162 131.609 192.16 131.609C192.63 131.609 193.01 131.99 193.01 132.459C193.01 132.929 192.63 133.31 192.16 133.31C183.672 133.31 175.979 137.267 170.405 143.662C164.805 150.086 161.341 158.973 161.341 168.797Z" fill="#20201F"/>
<path fill-rule="evenodd" clip-rule="evenodd" d="M299.407 261.49C298.468 261.49 297.707 260.728 297.707 259.79C297.707 258.851 298.468 258.089 299.407 258.089H335.404C336.342 258.089 337.104 258.851 337.104 259.79C337.104 260.728 336.342 261.49 335.404 261.49H299.407Z" fill="#20201F"/>
<path fill-rule="evenodd" clip-rule="evenodd" d="M299.065 219.555C298.596 219.555 298.215 219.174 298.215 218.705C298.215 218.235 298.596 217.854 299.065 217.854C309.33 217.854 318.627 221.997 325.357 228.691C332.089 235.387 336.254 244.637 336.254 254.848C336.254 255.317 335.873 255.698 335.403 255.698C334.934 255.698 334.553 255.317 334.553 254.848C334.553 245.103 330.581 236.279 324.161 229.893C317.741 223.507 308.867 219.555 299.065 219.555Z" fill="#20201F"/>
<path fill-rule="evenodd" clip-rule="evenodd" d="M77.6442 227.504C76.7054 227.504 75.9434 226.742 75.9434 225.803C75.9434 224.864 76.7054 224.102 77.6442 224.102H113.641C114.579 224.102 115.341 224.864 115.341 225.803C115.341 226.742 114.579 227.504 113.641 227.504H77.6442Z" fill="#20201F"/>
<path fill-rule="evenodd" clip-rule="evenodd" d="M77.3025 174.261C76.8331 174.261 76.4521 173.88 76.4521 173.411C76.4521 172.942 76.8331 172.561 77.3025 172.561C87.6101 172.561 96.9296 177.846 103.663 186.387C110.352 194.871 114.491 206.582 114.491 219.501C114.491 219.97 114.11 220.351 113.641 220.351C113.171 220.351 112.79 219.97 112.79 219.501C112.79 206.972 108.791 195.633 102.328 187.437C95.9125 179.298 87.0616 174.261 77.3025 174.261Z" fill="#20201F"/>
<path fill-rule="evenodd" clip-rule="evenodd" d="M234.062 281.021C234.062 280.082 234.824 279.321 235.762 279.321C236.701 279.321 237.463 280.082 237.463 281.021V317.018C237.463 317.956 236.701 318.718 235.762 318.718C234.824 318.718 234.062 317.956 234.062 317.018V281.021Z" fill="#20201F"/>
<path fill-rule="evenodd" clip-rule="evenodd" d="M280.672 280.68C280.672 280.21 281.053 279.829 281.522 279.829C281.991 279.829 282.372 280.21 282.372 280.68C282.372 290.963 277.756 300.272 270.299 307.003C262.864 313.716 252.595 317.868 241.267 317.868C240.798 317.868 240.417 317.487 240.417 317.018C240.417 316.548 240.798 316.167 241.267 316.167C252.163 316.167 262.028 312.182 269.162 305.741C276.272 299.324 280.672 290.462 280.672 280.68Z" fill="#20201F"/>
<path fill-rule="evenodd" clip-rule="evenodd" d="M442.385 318.241C443.324 318.241 444.086 319.003 444.086 319.942C444.086 320.881 443.324 321.643 442.385 321.643H406.389C405.45 321.643 404.688 320.881 404.688 319.942C404.688 319.003 405.45 318.241 406.389 318.241H442.385Z" fill="#20201F"/>
<path fill-rule="evenodd" clip-rule="evenodd" d="M442.727 360.177C443.196 360.177 443.577 360.558 443.577 361.027C443.577 361.497 443.196 361.878 442.727 361.878C432.462 361.878 423.165 357.735 416.435 351.041C409.703 344.345 405.538 335.095 405.538 324.884C405.538 324.414 405.919 324.033 406.388 324.033C406.858 324.033 407.239 324.414 407.239 324.884C407.239 334.629 411.211 343.453 417.631 349.839C424.051 356.225 432.925 360.177 442.727 360.177Z" fill="#20201F"/>
<path fill-rule="evenodd" clip-rule="evenodd" d="M440.569 53.3633H350.214V89.505H441.632V53.3633H440.569ZM378.493 57.6365C379.487 57.6365 380.394 58.043 381.048 58.7012C381.701 59.356 382.108 60.2591 382.108 61.2507V81.6602C382.108 82.6517 381.701 83.5548 381.048 84.2139C380.394 84.8678 379.487 85.2743 378.493 85.2743H358.084C357.092 85.2743 356.188 84.867 355.531 84.2139C354.877 83.5599 354.471 82.6551 354.471 81.6602V61.2507C354.471 60.2557 354.877 59.3509 355.534 58.6995C356.188 58.0439 357.092 57.6365 358.084 57.6365H378.493ZM430.059 59.3254C431.435 59.3254 432.685 59.8858 433.59 60.7898C434.494 61.6938 435.055 62.9438 435.055 64.3215C435.055 65.6966 434.494 66.9458 433.588 67.8532C432.683 68.7571 431.434 69.3175 430.059 69.3175C428.681 69.3175 427.431 68.7571 426.529 67.8515C425.623 66.9475 425.063 65.6974 425.063 64.3215C425.063 62.9438 425.623 61.6938 426.527 60.7898C427.431 59.8858 428.681 59.3254 430.059 59.3254ZM430.059 72.4887C431.731 72.4887 433.246 73.1681 434.342 74.2643C435.438 75.3604 436.118 76.8767 436.118 78.5477C436.118 80.2196 435.438 81.735 434.342 82.8311C433.246 83.9273 431.731 84.6068 430.059 84.6068C428.388 84.6068 426.871 83.9273 425.775 82.8311C424.679 81.735 424 80.2196 424 78.5477C424 76.8767 424.679 75.3604 425.775 74.2643C426.871 73.1681 428.388 72.4887 430.059 72.4887ZM426.826 75.3154C427.652 74.4896 428.797 73.9768 430.059 73.9768C431.322 73.9768 432.465 74.4896 433.291 75.3154C434.117 76.1411 434.63 77.2857 434.63 78.5477C434.63 79.8105 434.117 80.9543 433.291 81.7801C432.465 82.6058 431.322 83.1186 430.059 83.1186C428.797 83.1186 427.652 82.6058 426.826 81.7801C426.001 80.9543 425.488 79.8105 425.488 78.5477C425.488 77.2857 426.001 76.1411 426.826 75.3154ZM417.064 58.2624C418.736 58.2624 420.251 58.9419 421.347 60.038C422.443 61.1342 423.123 62.6496 423.123 64.3215C423.123 65.9933 422.444 67.5096 421.348 68.6058C420.252 69.7019 418.736 70.3805 417.064 70.3805C415.392 70.3805 413.877 69.7011 412.78 68.6049C411.684 67.5087 411.005 65.9933 411.005 64.3215C411.005 62.6505 411.684 61.1342 412.78 60.038C413.877 58.9419 415.393 58.2624 417.064 58.2624ZM413.831 61.0891C414.657 60.2634 415.802 59.7506 417.064 59.7506C418.327 59.7506 419.47 60.2634 420.296 61.0891C421.122 61.9149 421.635 63.0586 421.635 64.3215C421.635 65.5843 421.123 66.7289 420.297 67.5547C419.471 68.3804 418.327 68.8923 417.064 68.8923C415.801 68.8923 414.657 68.3796 413.831 67.5538C413.006 66.7281 412.493 65.5843 412.493 64.3215C412.493 63.0595 413.006 61.9149 413.831 61.0891ZM417.064 73.5516C418.44 73.5516 419.69 74.1121 420.596 75.016C421.499 75.92 422.06 77.1701 422.06 78.5477C422.06 79.9228 421.499 81.172 420.593 82.0794C419.688 82.9834 418.439 83.5438 417.064 83.5438C415.686 83.5438 414.436 82.9834 413.534 82.0777C412.628 81.1737 412.068 79.9236 412.068 78.5477C412.068 77.1701 412.628 75.92 413.532 75.016C414.436 74.1121 415.686 73.5516 417.064 73.5516ZM414.583 76.0671C415.217 75.4336 416.095 75.0398 417.064 75.0398C418.035 75.0398 418.913 75.4319 419.544 76.0646C420.178 76.7007 420.572 77.5791 420.572 78.5477C420.572 79.5189 420.18 80.3965 419.547 81.0283C418.913 81.6636 418.035 82.0556 417.064 82.0556C416.095 82.0556 415.217 81.6619 414.583 81.0283C413.948 80.3965 413.556 79.5189 413.556 78.5477C413.556 77.5791 413.95 76.7007 414.583 76.0671ZM427.578 61.8409C428.212 61.2073 429.09 60.8136 430.059 60.8136C431.03 60.8136 431.907 61.2056 432.539 61.8383C433.173 62.4744 433.567 63.3529 433.567 64.3215C433.567 65.2926 433.175 66.1702 432.542 66.8021C431.907 67.4373 431.03 67.8293 430.059 67.8293C429.09 67.8293 428.212 67.4356 427.578 66.8021C426.943 66.1702 426.551 65.2926 426.551 64.3215C426.551 63.3529 426.945 62.4744 427.578 61.8409ZM358.084 59.7625H378.493C378.902 59.7625 379.275 59.9309 379.544 60.2005C379.815 60.4675 379.982 60.8408 379.982 61.2507V81.6602C379.982 82.07 379.815 82.4434 379.546 82.7121C379.275 82.98 378.902 83.1483 378.493 83.1483H358.084C357.674 83.1483 357.302 82.9817 357.035 82.7146C356.765 82.4408 356.597 82.0666 356.597 81.6602V61.2507C356.597 60.8442 356.765 60.47 357.035 60.2005C357.302 59.9292 357.674 59.7625 358.084 59.7625ZM407.651 87.379V55.4893H439.506V87.379H407.651ZM405.525 55.4893V87.379H352.34V55.4893H405.525Z" fill="#20201F"/>
<path fill-rule="evenodd" clip-rule="evenodd" d="M147.443 85.7029C145.644 82.906 144.534 79.3173 144.534 76.1624C144.534 73.0567 145.599 70.6331 147.344 68.9459H147.349C148.009 68.3081 148.793 67.814 149.624 67.3956H146.036C143.895 67.3956 142.64 66.501 141.911 65.0647C141.246 63.7577 141.082 62.0288 141.082 60.1333V59.3509H141.102C141.146 57.7709 141.343 56.3286 141.911 55.2053C142.64 53.7698 143.895 52.8794 146.026 52.8794H163.621C165.761 52.8794 167.015 53.7698 167.739 55.2053C168.303 56.3286 168.506 57.7709 168.549 59.3509H168.568V60.1333C168.568 62.0288 168.404 63.7577 167.739 65.0647C167.015 66.501 165.761 67.3956 163.621 67.3956H160.026C160.857 67.814 161.639 68.303 162.301 68.9459C164.049 70.6331 165.115 73.0567 165.115 76.1624C165.115 79.4967 163.872 83.3133 161.889 86.1757C160.06 88.8171 157.586 90.6709 154.825 90.6709C151.901 90.6709 149.297 88.5917 147.443 85.7029ZM155.332 57.7998V57.7947H155.33C154.699 57.7947 154.118 58.0583 153.699 58.4759H153.694C153.278 58.8934 153.019 59.4691 153.019 60.1078C153.019 60.7473 153.278 61.3179 153.694 61.7354V61.7431L153.699 61.7422C154.12 62.1598 154.699 62.4174 155.33 62.4174C155.971 62.4174 156.55 62.1598 156.965 61.7431C157.382 61.3255 157.643 60.7473 157.643 60.1078C157.643 59.4691 157.382 58.8985 156.965 58.4759C156.55 58.0583 155.971 57.7998 155.332 57.7998ZM155.335 58.9827H155.33C155.018 58.9827 154.737 59.1069 154.537 59.3033V59.311C154.335 59.5125 154.207 59.7982 154.207 60.1078C154.207 60.4233 154.332 60.7124 154.527 60.908L154.535 60.9131C154.737 61.1095 155.018 61.2362 155.33 61.2362C155.652 61.2362 155.932 61.1095 156.132 60.9131C156.329 60.7124 156.453 60.4233 156.453 60.1078C156.453 59.7931 156.329 59.5065 156.123 59.311C155.927 59.1018 155.642 58.975 155.335 58.975V58.9827ZM163.621 65.8335C165.065 65.8335 165.89 65.2663 166.35 64.3674C166.814 63.4354 166.971 62.1428 166.998 60.6818V60.1333C166.998 58.4504 166.869 56.9418 166.35 55.9034C165.89 55.0037 165.063 54.4433 163.621 54.4433H146.026C144.586 54.4433 143.763 55.0037 143.303 55.9034C142.779 56.9418 142.653 58.4504 142.653 60.1333V60.7422C142.685 62.1725 142.839 63.4558 143.301 64.3674C143.763 65.2739 144.592 65.8335 146.036 65.8335H163.621ZM160.61 85.2913C162.421 82.6789 163.554 79.1983 163.554 76.1624C163.554 73.5091 162.668 71.4682 161.221 70.0676C159.638 68.5343 157.359 67.7418 154.825 67.7418C152.287 67.7418 150.01 68.5343 148.424 70.0676C146.98 71.4682 146.096 73.5091 146.096 76.1624C146.096 79.0299 147.11 82.3047 148.754 84.8644C150.338 87.3314 152.494 89.1079 154.825 89.1079C157.017 89.1079 159.053 87.5279 160.61 85.2913Z" fill="#20201F"/>
<path fill-rule="evenodd" clip-rule="evenodd" d="M120.297 142.449L120.292 122.959C120.292 116.44 133.784 117.208 134.684 117.275C137.808 117.275 140.641 118.549 142.692 120.602C144.739 122.65 146.007 125.489 146.007 128.611V136.882C146.007 140.011 144.741 142.846 142.692 144.9C140.641 146.946 137.803 148.215 134.679 148.229C133.763 148.271 120.292 148.942 120.297 142.449ZM133.44 132.743H133.443C133.45 133.429 133.719 134.061 134.17 134.513C134.628 134.957 135.253 135.231 135.935 135.231C136.624 135.231 137.25 134.955 137.7 134.504C138.151 134.053 138.428 133.429 138.428 132.741C138.428 132.057 138.151 131.432 137.7 130.981V130.973H137.695C137.245 130.522 136.624 130.241 135.935 130.241C135.253 130.241 134.62 130.522 134.17 130.973V130.975C133.719 131.426 133.436 132.057 133.436 132.741L133.44 132.743ZM134.712 132.748C134.712 133.073 134.846 133.38 135.071 133.6C135.286 133.814 135.593 133.952 135.935 133.952C136.276 133.952 136.584 133.82 136.804 133.606C137.016 133.384 137.156 133.084 137.152 132.741C137.152 132.397 137.019 132.1 136.804 131.88L136.799 131.875C136.584 131.656 136.276 131.523 135.935 131.523C135.599 131.523 135.292 131.665 135.071 131.877L135.069 131.882C134.853 132.097 134.723 132.404 134.723 132.736L134.725 132.748H134.712ZM125.047 132.743C125.047 135.885 125.983 138.738 127.486 140.812C129.057 142.967 131.253 144.306 133.686 144.308C136.128 144.308 138.323 142.967 139.898 140.812C141.409 138.73 142.337 135.876 142.337 132.733V132.719C142.329 129.585 141.395 126.739 139.889 124.659C138.318 122.513 136.128 121.176 133.7 121.174L133.686 121.176C131.247 121.176 129.064 122.513 127.486 124.676C125.981 126.745 125.047 129.596 125.049 132.736L125.047 132.743ZM126.805 132.743C126.81 135.497 127.618 137.985 128.916 139.785C130.158 141.483 131.849 142.54 133.686 142.54C135.535 142.54 137.226 141.483 138.473 139.771C139.766 137.981 140.572 135.497 140.572 132.733V132.728L140.577 132.719C140.572 129.963 139.766 127.485 138.465 125.695C137.229 124.001 135.535 122.945 133.7 122.94L133.686 122.945C131.846 122.942 130.153 124 128.916 125.701C127.623 127.492 126.81 129.977 126.812 132.733V132.743H126.805ZM122.057 142.443C122.057 147.282 134.582 146.458 134.615 146.458L134.679 146.45C137.319 146.45 139.707 145.384 141.443 143.659C143.174 141.918 144.242 139.526 144.242 136.882V128.62C144.242 125.966 143.179 123.57 141.443 121.837C139.715 120.106 137.319 119.041 134.679 119.036L134.617 119.033C134.586 119.033 122.057 118.145 122.057 122.964V142.443Z" fill="#20201F"/>
<path fill-rule="evenodd" clip-rule="evenodd" d="M292.411 96.6974H192.383V55.8195H292.411V96.6974ZM272.92 72.2851C271.822 72.2851 270.826 72.7302 270.107 73.4487C269.388 74.171 268.943 75.1634 268.943 76.2585C268.943 77.3535 269.388 78.3459 270.107 79.065C270.83 79.7867 271.824 80.2318 272.92 80.2318C274.016 80.2318 275.01 79.7867 275.73 79.0682C276.452 78.3499 276.897 77.3557 276.897 76.2585C276.897 75.1612 276.452 74.167 275.733 73.4487C275.014 72.7302 274.019 72.2851 272.92 72.2851ZM271.231 74.5716C270.801 75.0013 270.534 75.5988 270.534 76.2585C270.534 76.9181 270.801 77.5156 271.231 77.9453C271.662 78.3754 272.26 78.6424 272.92 78.6424C273.58 78.6424 274.179 78.3754 274.608 77.9448C275.039 77.5131 275.307 76.9164 275.307 76.2585C275.307 75.6005 275.039 75.0038 274.608 74.5721C274.176 74.1415 273.579 73.8745 272.92 73.8745C272.262 73.8745 271.664 74.1415 271.231 74.5716ZM284.861 56.9894L214.251 58.5785C203.646 58.5785 194.962 65.6642 194.962 76.2585C194.962 86.8527 203.646 93.9384 214.251 93.9384L284.861 95.5275C286.23 95.5275 287.474 94.9682 288.373 94.0694C289.273 93.1668 289.833 91.9247 289.833 90.5612V61.9557C289.833 60.5939 289.274 59.3526 288.373 58.4515C287.467 57.5478 286.225 56.9894 284.861 56.9894ZM214.251 60.5653C204.732 60.5653 196.95 66.7499 196.95 76.2585C196.95 85.767 204.732 91.9516 214.251 91.9516L284.861 93.541C285.68 93.541 286.426 93.2048 286.971 92.6645C287.51 92.1274 287.844 91.3819 287.844 90.5612V61.9557C287.844 61.135 287.51 60.3904 286.967 59.8484C286.428 59.3104 285.683 58.9759 284.861 58.9759L214.251 60.5653ZM192.173 98.6434H292.621C293.121 98.6434 293.577 98.4455 293.907 98.1317C294.239 97.8171 294.445 97.3783 294.445 96.8975V55.6194C294.445 55.1386 294.239 54.6998 293.911 54.3852C293.581 54.0697 293.123 53.8735 292.621 53.8735H192.173C191.672 53.8735 191.214 54.0697 190.884 54.3852C190.557 54.7038 190.35 55.1409 190.35 55.6194V96.8975C190.35 97.376 190.556 97.8122 190.884 98.1283C191.219 98.4464 191.674 98.6434 192.173 98.6434Z" fill="#20201F"/>
<path d="M133.069 329H130.943V430.095H133.069V329Z" fill="#20201F"/>
<path d="M114.251 359.756V400H104.938V367.23H96.8888V359.756H114.251Z" fill="#20201F"/>
<path d="M153.745 341.373V355.746H152.267V342.687H148.879V341.373H153.745ZM161.657 341.249C163.559 341.249 165.017 341.879 166.03 343.138C167.043 344.384 167.55 346.15 167.55 348.436C167.55 350.037 167.276 351.393 166.728 352.501C166.181 353.61 165.414 354.452 164.429 355.027C163.443 355.588 162.293 355.869 160.979 355.869C159.556 355.869 158.419 355.609 157.571 355.089L158.166 353.898C158.851 354.349 159.781 354.575 160.959 354.575C162.547 354.575 163.792 354.076 164.696 353.076C165.599 352.063 166.051 350.599 166.051 348.682C166.051 348.326 166.03 347.936 165.989 347.512C165.633 348.292 165.065 348.901 164.285 349.339C163.505 349.764 162.608 349.976 161.595 349.976C160.651 349.976 159.809 349.798 159.07 349.442C158.344 349.086 157.776 348.587 157.365 347.943C156.955 347.286 156.749 346.526 156.749 345.664C156.749 344.788 156.962 344.015 157.386 343.344C157.81 342.673 158.392 342.16 159.131 341.804C159.884 341.434 160.726 341.249 161.657 341.249ZM161.821 348.723C162.547 348.723 163.183 348.587 163.731 348.313C164.292 348.039 164.73 347.663 165.045 347.183C165.36 346.704 165.517 346.17 165.517 345.582C165.517 345.034 165.366 344.528 165.065 344.062C164.778 343.597 164.347 343.221 163.772 342.933C163.197 342.646 162.512 342.502 161.718 342.502C160.678 342.502 159.829 342.789 159.172 343.364C158.529 343.926 158.207 344.678 158.207 345.623C158.207 346.567 158.529 347.32 159.172 347.882C159.829 348.443 160.712 348.723 161.821 348.723ZM170.581 355.848C170.28 355.848 170.02 355.739 169.801 355.52C169.595 355.301 169.493 355.034 169.493 354.719C169.493 354.404 169.595 354.144 169.801 353.939C170.02 353.72 170.28 353.61 170.581 353.61C170.882 353.61 171.142 353.72 171.361 353.939C171.58 354.144 171.69 354.404 171.69 354.719C171.69 355.034 171.58 355.301 171.361 355.52C171.142 355.739 170.882 355.848 170.581 355.848ZM185.78 351.968H182.905V355.746H181.427V351.968H173.316V350.9L180.934 341.373H182.577L175.226 350.653H181.468V347.327H182.905V350.653H185.78V351.968ZM196.258 341.373V342.42L190.242 355.746H188.641L194.554 342.687H187.162V345.377H185.704V341.373H196.258Z" fill="#20201F"/>
<path d="M161.383 381.254H158.509V385.032H157.03V381.254H148.92V380.186L156.538 370.659H158.18L150.829 379.94H157.071V376.613H158.509V379.94H161.383V381.254ZM166.203 370.659V385.032H164.725V371.973H161.337V370.659H166.203ZM170.748 385.134C170.447 385.134 170.187 385.025 169.968 384.806C169.762 384.587 169.66 384.32 169.66 384.005C169.66 383.69 169.762 383.43 169.968 383.225C170.187 383.006 170.447 382.896 170.748 382.896C171.049 382.896 171.309 383.006 171.528 383.225C171.747 383.43 171.857 383.69 171.857 384.005C171.857 384.32 171.747 384.587 171.528 384.806C171.309 385.025 171.049 385.134 170.748 385.134ZM178.466 370.536C180.369 370.536 181.827 371.165 182.84 372.425C183.853 373.67 184.359 375.436 184.359 377.722C184.359 379.324 184.085 380.679 183.538 381.788C182.99 382.896 182.224 383.738 181.238 384.313C180.253 384.874 179.103 385.155 177.789 385.155C176.365 385.155 175.229 384.895 174.38 384.375L174.976 383.184C175.66 383.636 176.591 383.861 177.768 383.861C179.356 383.861 180.602 383.362 181.505 382.362C182.409 381.35 182.86 379.885 182.86 377.968C182.86 377.613 182.84 377.222 182.799 376.798C182.443 377.578 181.875 378.187 181.095 378.626C180.314 379.05 179.418 379.262 178.405 379.262C177.46 379.262 176.618 379.084 175.879 378.728C175.154 378.372 174.586 377.873 174.175 377.229C173.764 376.572 173.559 375.813 173.559 374.95C173.559 374.074 173.771 373.301 174.196 372.63C174.62 371.959 175.202 371.446 175.941 371.09C176.694 370.72 177.536 370.536 178.466 370.536ZM178.631 378.01C179.356 378.01 179.993 377.873 180.54 377.599C181.101 377.325 181.539 376.949 181.854 376.47C182.169 375.99 182.326 375.457 182.326 374.868C182.326 374.32 182.176 373.814 181.875 373.349C181.587 372.883 181.156 372.507 180.581 372.219C180.006 371.932 179.322 371.788 178.528 371.788C177.488 371.788 176.639 372.076 175.982 372.65C175.338 373.212 175.017 373.965 175.017 374.909C175.017 375.854 175.338 376.606 175.982 377.168C176.639 377.729 177.522 378.01 178.631 378.01ZM190.978 370.536C192.881 370.536 194.339 371.165 195.352 372.425C196.365 373.67 196.871 375.436 196.871 377.722C196.871 379.324 196.598 380.679 196.05 381.788C195.503 382.896 194.736 383.738 193.75 384.313C192.765 384.874 191.615 385.155 190.301 385.155C188.877 385.155 187.741 384.895 186.892 384.375L187.488 383.184C188.172 383.636 189.103 383.861 190.28 383.861C191.868 383.861 193.114 383.362 194.017 382.362C194.921 381.35 195.373 379.885 195.373 377.968C195.373 377.613 195.352 377.222 195.311 376.798C194.955 377.578 194.387 378.187 193.607 378.626C192.826 379.05 191.93 379.262 190.917 379.262C189.972 379.262 189.131 379.084 188.391 378.728C187.666 378.372 187.098 377.873 186.687 377.229C186.276 376.572 186.071 375.813 186.071 374.95C186.071 374.074 186.283 373.301 186.708 372.63C187.132 371.959 187.714 371.446 188.453 371.09C189.206 370.72 190.048 370.536 190.978 370.536ZM191.143 378.01C191.868 378.01 192.505 377.873 193.052 377.599C193.614 377.325 194.052 376.949 194.366 376.47C194.681 375.99 194.839 375.457 194.839 374.868C194.839 374.32 194.688 373.814 194.387 373.349C194.099 372.883 193.668 372.507 193.093 372.219C192.518 371.932 191.834 371.788 191.04 371.788C190 371.788 189.151 372.076 188.494 372.65C187.851 373.212 187.529 373.965 187.529 374.909C187.529 375.854 187.851 376.606 188.494 377.168C189.151 377.729 190.034 378.01 191.143 378.01Z" fill="#20201F"/>
<path d="M157.657 410.54H154.782V414.318H153.304V410.54H145.193V409.472L152.811 399.945H154.454L147.103 409.226H153.345V405.899H154.782V409.226H157.657V410.54ZM171.232 410.54H168.357V414.318H166.879V410.54H158.768V409.472L166.386 399.945H168.029L160.678 409.226H166.92V405.899H168.357V409.226H171.232V410.54ZM174.099 414.421C173.798 414.421 173.538 414.311 173.319 414.092C173.114 413.873 173.011 413.606 173.011 413.291C173.011 412.976 173.114 412.716 173.319 412.511C173.538 412.292 173.798 412.182 174.099 412.182C174.401 412.182 174.661 412.292 174.88 412.511C175.099 412.716 175.208 412.976 175.208 413.291C175.208 413.606 175.099 413.873 174.88 414.092C174.661 414.311 174.401 414.421 174.099 414.421ZM187.357 413.004V414.318H177.275V413.271L183.25 407.419C184.003 406.68 184.51 406.043 184.77 405.509C185.044 404.962 185.181 404.414 185.181 403.867C185.181 403.018 184.886 402.361 184.298 401.896C183.723 401.416 182.895 401.177 181.813 401.177C180.129 401.177 178.822 401.711 177.891 402.778L176.844 401.875C177.405 401.218 178.117 400.711 178.98 400.356C179.856 400 180.841 399.822 181.936 399.822C183.401 399.822 184.558 400.171 185.406 400.869C186.269 401.553 186.7 402.498 186.7 403.702C186.7 404.442 186.536 405.153 186.207 405.838C185.879 406.522 185.256 407.309 184.339 408.199L179.452 413.004H187.357ZM194.861 414.441C193.752 414.441 192.76 414.147 191.884 413.558C191.021 412.97 190.344 412.128 189.851 411.033C189.372 409.924 189.132 408.623 189.132 407.131C189.132 405.639 189.372 404.346 189.851 403.251C190.344 402.142 191.021 401.293 191.884 400.705C192.76 400.116 193.752 399.822 194.861 399.822C195.97 399.822 196.955 400.116 197.818 400.705C198.694 401.293 199.378 402.142 199.871 403.251C200.364 404.346 200.61 405.639 200.61 407.131C200.61 408.623 200.364 409.924 199.871 411.033C199.378 412.128 198.694 412.97 197.818 413.558C196.955 414.147 195.97 414.441 194.861 414.441ZM194.861 413.086C195.696 413.086 196.428 412.853 197.058 412.388C197.701 411.922 198.201 411.245 198.557 410.355C198.913 409.465 199.091 408.391 199.091 407.131C199.091 405.872 198.913 404.797 198.557 403.908C198.201 403.018 197.701 402.34 197.058 401.875C196.428 401.41 195.696 401.177 194.861 401.177C194.026 401.177 193.287 401.41 192.643 401.875C192.014 402.34 191.521 403.018 191.165 403.908C190.809 404.797 190.631 405.872 190.631 407.131C190.631 408.391 190.809 409.465 191.165 410.355C191.521 411.245 192.014 411.922 192.643 412.388C193.287 412.853 194.026 413.086 194.861 413.086Z" fill="#20201F"/>
<path d="M262.39 349.26H256.723V357.678H253.54V346.632H262.39V349.26ZM268.8 357.842C267.637 357.842 266.589 357.603 265.659 357.124C264.742 356.631 264.023 355.953 263.503 355.091C262.983 354.229 262.722 353.25 262.722 352.155C262.722 351.06 262.983 350.081 263.503 349.219C264.023 348.356 264.742 347.686 265.659 347.206C266.589 346.714 267.637 346.467 268.8 346.467C269.964 346.467 271.004 346.714 271.921 347.206C272.838 347.686 273.557 348.356 274.077 349.219C274.597 350.081 274.857 351.06 274.857 352.155C274.857 353.25 274.597 354.229 274.077 355.091C273.557 355.953 272.838 356.631 271.921 357.124C271.004 357.603 269.964 357.842 268.8 357.842ZM268.8 355.214C269.621 355.214 270.292 354.941 270.812 354.393C271.346 353.832 271.613 353.086 271.613 352.155C271.613 351.224 271.346 350.485 270.812 349.937C270.292 349.376 269.621 349.096 268.8 349.096C267.979 349.096 267.301 349.376 266.767 349.937C266.234 350.485 265.967 351.224 265.967 352.155C265.967 353.086 266.234 353.832 266.767 354.393C267.301 354.941 267.979 355.214 268.8 355.214ZM282.317 357.842C281.14 357.842 280.079 357.603 279.134 357.124C278.203 356.631 277.471 355.953 276.937 355.091C276.417 354.229 276.157 353.25 276.157 352.155C276.157 351.06 276.417 350.081 276.937 349.219C277.471 348.356 278.203 347.686 279.134 347.206C280.079 346.714 281.14 346.467 282.317 346.467C283.48 346.467 284.493 346.714 285.356 347.206C286.232 347.686 286.868 348.377 287.265 349.28L284.781 350.615C284.206 349.602 283.378 349.096 282.296 349.096C281.461 349.096 280.77 349.369 280.222 349.917C279.675 350.464 279.401 351.21 279.401 352.155C279.401 353.099 279.675 353.845 280.222 354.393C280.77 354.941 281.461 355.214 282.296 355.214C283.391 355.214 284.22 354.708 284.781 353.695L287.265 355.05C286.868 355.926 286.232 356.611 285.356 357.103C284.493 357.596 283.48 357.842 282.317 357.842ZM298.452 349.26H294.715V357.678H291.533V349.26H287.796V346.632H298.452V349.26ZM300.16 346.632H303.342V353.202L308.722 346.632H311.658V357.678H308.476V351.108L303.117 357.678H300.16V346.632ZM314.737 346.632H317.92V350.943H322.725V346.632H325.928V357.678H322.725V353.551H317.92V357.678H314.737V346.632ZM333.285 346.467C334.996 346.467 336.311 346.878 337.228 347.699C338.145 348.507 338.603 349.732 338.603 351.375V357.678H335.606V356.303C335.003 357.329 333.881 357.842 332.238 357.842C331.389 357.842 330.65 357.699 330.021 357.411C329.405 357.124 328.932 356.727 328.604 356.22C328.275 355.714 328.111 355.139 328.111 354.496C328.111 353.469 328.494 352.661 329.261 352.073C330.041 351.484 331.239 351.19 332.854 351.19H335.4C335.4 350.492 335.188 349.958 334.764 349.588C334.339 349.205 333.703 349.013 332.854 349.013C332.266 349.013 331.684 349.109 331.109 349.301C330.548 349.479 330.069 349.725 329.672 350.04L328.522 347.802C329.124 347.378 329.843 347.049 330.678 346.816C331.526 346.584 332.396 346.467 333.285 346.467ZM333.039 355.687C333.586 355.687 334.072 355.563 334.497 355.317C334.921 355.057 335.222 354.68 335.4 354.188V353.058H333.203C331.889 353.058 331.232 353.49 331.232 354.352C331.232 354.763 331.389 355.091 331.704 355.337C332.033 355.57 332.478 355.687 333.039 355.687ZM351.201 346.632V357.678H348.346V354.516H345.985L343.891 357.678H340.482L343.008 354.064C342.241 353.763 341.653 353.332 341.242 352.771C340.845 352.196 340.647 351.505 340.647 350.697C340.647 349.397 341.112 348.397 342.043 347.699C342.987 346.987 344.281 346.632 345.924 346.632H351.201ZM345.985 349.239C345.301 349.239 344.781 349.362 344.425 349.609C344.083 349.855 343.911 350.252 343.911 350.8C343.911 351.347 344.076 351.751 344.404 352.011C344.746 352.258 345.26 352.381 345.944 352.381H348.346V349.239H345.985Z" fill="black"/>
<path d="M282.717 372.591V386.964H279.391V375.261H276.517V372.591H282.717ZM290.265 372.345C292.278 372.345 293.852 372.961 294.988 374.193C296.124 375.411 296.692 377.17 296.692 379.47C296.692 381.099 296.384 382.495 295.768 383.659C295.166 384.822 294.31 385.705 293.202 386.307C292.093 386.91 290.813 387.211 289.362 387.211C288.595 387.211 287.863 387.129 287.165 386.964C286.467 386.786 285.871 386.54 285.379 386.225L286.61 383.782C287.309 384.261 288.205 384.5 289.3 384.5C290.519 384.5 291.484 384.145 292.195 383.433C292.907 382.707 293.291 381.667 293.345 380.312C292.483 381.174 291.292 381.605 289.773 381.605C288.855 381.605 288.02 381.42 287.268 381.051C286.515 380.681 285.919 380.161 285.481 379.49C285.043 378.806 284.824 378.019 284.824 377.129C284.824 376.171 285.064 375.329 285.543 374.604C286.022 373.878 286.672 373.324 287.493 372.94C288.328 372.543 289.252 372.345 290.265 372.345ZM290.512 379.121C291.237 379.121 291.826 378.922 292.278 378.525C292.743 378.115 292.976 377.595 292.976 376.965C292.976 376.335 292.75 375.822 292.298 375.425C291.86 375.028 291.251 374.829 290.471 374.829C289.759 374.829 289.177 375.021 288.725 375.404C288.287 375.788 288.068 376.308 288.068 376.965C288.068 377.622 288.287 378.149 288.725 378.546C289.177 378.929 289.773 379.121 290.512 379.121ZM299.916 387.129C299.355 387.129 298.883 386.937 298.499 386.554C298.116 386.17 297.925 385.691 297.925 385.116C297.925 384.528 298.116 384.056 298.499 383.7C298.883 383.33 299.355 383.145 299.916 383.145C300.477 383.145 300.95 383.33 301.333 383.7C301.716 384.056 301.908 384.528 301.908 385.116C301.908 385.691 301.716 386.17 301.333 386.554C300.95 386.937 300.477 387.129 299.916 387.129ZM316.563 383.946H314.222V386.964H310.978V383.946H303.237V381.708L310.013 372.591H313.503L307.22 381.236H311.08V378.546H314.222V381.236H316.563V383.946ZM327.947 372.591V374.747L322.609 386.964H318.995L324.149 375.302H319.385V377.642H316.428V372.591H327.947Z" fill="black"/>
<path d="M367.994 157.822H366.33V162.01H363.127V150.964H366.33V155.255H368.055L371.053 150.964H374.461L370.601 156.261L374.728 162.01H370.95L367.994 157.822ZM386.747 150.964L381.757 162.688C381.251 163.961 380.621 164.857 379.868 165.378C379.129 165.898 378.233 166.158 377.179 166.158C376.604 166.158 376.036 166.069 375.474 165.891C374.913 165.713 374.455 165.467 374.099 165.152L375.269 162.873C375.515 163.092 375.796 163.263 376.111 163.386C376.439 163.509 376.761 163.571 377.076 163.571C377.514 163.571 377.87 163.461 378.144 163.242C378.417 163.037 378.664 162.688 378.883 162.195L378.924 162.092L374.14 150.964H377.445L380.546 158.458L383.667 150.964H386.747ZM394.611 162.01L392.188 158.622L389.683 162.01H386.192L390.442 156.446L386.336 150.964H389.929L392.27 154.187L394.672 150.964H398.081L393.974 156.364L398.245 162.01H394.611ZM399.822 150.964H403.004V155.275H407.809V150.964H411.012V162.01H407.809V157.883H403.004V162.01H399.822V150.964ZM423.893 150.964V162.01H421.039V158.848H418.678L416.583 162.01H413.175L415.7 158.396C414.934 158.095 414.345 157.664 413.935 157.103C413.538 156.528 413.339 155.837 413.339 155.029C413.339 153.729 413.805 152.729 414.735 152.031C415.68 151.32 416.974 150.964 418.616 150.964H423.893ZM418.678 153.571C417.993 153.571 417.473 153.694 417.117 153.941C416.775 154.187 416.604 154.584 416.604 155.132C416.604 155.679 416.768 156.083 417.097 156.343C417.439 156.59 417.952 156.713 418.637 156.713H421.039V153.571H418.678Z" fill="#20201F"/>
<path d="M378.896 176.923V191.296H375.57V179.593H372.695V176.923H378.896ZM386.937 176.923V191.296H383.611V179.593H380.736V176.923H386.937ZM391.323 191.461C390.762 191.461 390.289 191.269 389.906 190.886C389.523 190.502 389.331 190.023 389.331 189.448C389.331 188.86 389.523 188.388 389.906 188.032C390.289 187.662 390.762 187.477 391.323 187.477C391.884 187.477 392.356 187.662 392.74 188.032C393.123 188.388 393.315 188.86 393.315 189.448C393.315 190.023 393.123 190.502 392.74 190.886C392.356 191.269 391.884 191.461 391.323 191.461ZM400.031 176.923V191.296H396.704V179.593H393.83V176.923H400.031ZM413.78 176.923V179.079L408.441 191.296H404.827L409.981 179.634H405.217V181.974H402.261V176.923H413.78Z" fill="#20201F"/>
<path d="M176.577 216.334L173.571 212.374L170.547 216.334H169.107L172.851 211.474L169.287 206.866H170.727L173.571 210.574L176.415 206.866H177.819L174.255 211.474L178.035 216.334H176.577ZM183.702 216.424C182.79 216.424 181.968 216.22 181.236 215.812C180.504 215.392 179.928 214.816 179.508 214.084C179.088 213.352 178.878 212.524 178.878 211.6C178.878 210.676 179.088 209.848 179.508 209.116C179.928 208.384 180.504 207.814 181.236 207.406C181.968 206.998 182.79 206.794 183.702 206.794C184.614 206.794 185.436 206.998 186.168 207.406C186.9 207.814 187.47 208.384 187.878 209.116C188.298 209.848 188.508 210.676 188.508 211.6C188.508 212.524 188.298 213.352 187.878 214.084C187.47 214.816 186.9 215.392 186.168 215.812C185.436 216.22 184.614 216.424 183.702 216.424ZM183.702 215.29C184.374 215.29 184.974 215.14 185.502 214.84C186.042 214.528 186.462 214.09 186.762 213.526C187.062 212.962 187.212 212.32 187.212 211.6C187.212 210.88 187.062 210.238 186.762 209.674C186.462 209.11 186.042 208.678 185.502 208.378C184.974 208.066 184.374 207.91 183.702 207.91C183.03 207.91 182.424 208.066 181.884 208.378C181.356 208.678 180.936 209.11 180.624 209.674C180.324 210.238 180.174 210.88 180.174 211.6C180.174 212.32 180.324 212.962 180.624 213.526C180.936 214.09 181.356 214.528 181.884 214.84C182.424 215.14 183.03 215.29 183.702 215.29ZM198.927 206.866V216.334H197.649V208H193.113L192.987 210.34C192.891 212.308 192.663 213.82 192.303 214.876C191.943 215.932 191.301 216.46 190.377 216.46C190.125 216.46 189.819 216.412 189.459 216.316L189.549 215.218C189.765 215.266 189.915 215.29 189.999 215.29C190.491 215.29 190.863 215.062 191.115 214.606C191.367 214.15 191.535 213.586 191.619 212.914C191.703 212.242 191.775 211.354 191.835 210.25L191.997 206.866H198.927ZM210.3 206.866V216.334H209.022V208H204.486L204.36 210.34C204.264 212.308 204.036 213.82 203.676 214.876C203.316 215.932 202.674 216.46 201.75 216.46C201.498 216.46 201.192 216.412 200.832 216.316L200.922 215.218C201.138 215.266 201.288 215.29 201.372 215.29C201.864 215.29 202.236 215.062 202.488 214.606C202.74 214.15 202.908 213.586 202.992 212.914C203.076 212.242 203.148 211.354 203.208 210.25L203.37 206.866H210.3Z" fill="#20201F"/>
<path d="M178.035 238.078C178.863 238.078 179.595 238.234 180.231 238.546C180.879 238.858 181.383 239.302 181.743 239.878C182.103 240.442 182.283 241.102 182.283 241.858C182.283 242.626 182.097 243.304 181.725 243.892C181.353 244.48 180.837 244.936 180.177 245.26C179.529 245.572 178.797 245.728 177.981 245.728C176.313 245.728 175.035 245.182 174.147 244.09C173.259 242.986 172.815 241.432 172.815 239.428C172.815 238.024 173.055 236.836 173.535 235.864C174.015 234.892 174.687 234.16 175.551 233.668C176.415 233.164 177.423 232.912 178.575 232.912C179.823 232.912 180.819 233.14 181.563 233.596L181.041 234.64C180.441 234.244 179.625 234.046 178.593 234.046C177.201 234.046 176.109 234.49 175.317 235.378C174.525 236.254 174.129 237.532 174.129 239.212C174.129 239.512 174.147 239.854 174.183 240.238C174.495 239.554 174.993 239.026 175.677 238.654C176.361 238.27 177.147 238.078 178.035 238.078ZM177.927 244.63C178.839 244.63 179.577 244.384 180.141 243.892C180.717 243.388 181.005 242.722 181.005 241.894C181.005 241.066 180.717 240.406 180.141 239.914C179.577 239.422 178.809 239.176 177.837 239.176C177.201 239.176 176.637 239.296 176.145 239.536C175.665 239.776 175.287 240.106 175.011 240.526C174.735 240.946 174.597 241.414 174.597 241.93C174.597 242.41 174.723 242.854 174.975 243.262C175.239 243.67 175.623 244 176.127 244.252C176.631 244.504 177.231 244.63 177.927 244.63ZM184.932 245.71C184.668 245.71 184.44 245.614 184.248 245.422C184.068 245.23 183.978 244.996 183.978 244.72C183.978 244.444 184.068 244.216 184.248 244.036C184.44 243.844 184.668 243.748 184.932 243.748C185.196 243.748 185.424 243.844 185.616 244.036C185.808 244.216 185.904 244.444 185.904 244.72C185.904 244.996 185.808 245.23 185.616 245.422C185.424 245.614 185.196 245.71 184.932 245.71ZM192.234 238.42C193.554 238.492 194.556 238.852 195.24 239.5C195.936 240.136 196.284 240.97 196.284 242.002C196.284 242.722 196.11 243.364 195.762 243.928C195.414 244.48 194.898 244.918 194.214 245.242C193.53 245.566 192.696 245.728 191.712 245.728C190.8 245.728 189.936 245.584 189.12 245.296C188.316 244.996 187.668 244.6 187.176 244.108L187.806 243.082C188.226 243.514 188.784 243.868 189.48 244.144C190.176 244.408 190.92 244.54 191.712 244.54C192.744 244.54 193.542 244.318 194.106 243.874C194.67 243.418 194.952 242.794 194.952 242.002C194.952 241.222 194.67 240.61 194.106 240.166C193.542 239.722 192.69 239.5 191.55 239.5H190.65V238.546L194.142 234.172H187.698V233.02H195.798V233.938L192.234 238.42ZM208.82 242.308H206.3V245.62H205.004V242.308H197.894V241.372L204.572 233.02H206.012L199.568 241.156H205.04V238.24H206.3V241.156H208.82V242.308Z" fill="#20201F"/>
<path d="M458.975 338.913V348.382H457.697V340.047H453.161L453.035 342.387C452.939 344.356 452.711 345.868 452.351 346.924C451.991 347.98 451.349 348.508 450.425 348.508C450.173 348.508 449.867 348.46 449.507 348.364L449.597 347.266C449.813 347.314 449.963 347.338 450.047 347.338C450.539 347.338 450.911 347.11 451.163 346.654C451.415 346.198 451.583 345.634 451.667 344.962C451.751 344.29 451.823 343.402 451.883 342.297L452.045 338.913H458.975ZM466.514 348.472C465.602 348.472 464.78 348.268 464.048 347.86C463.316 347.44 462.74 346.864 462.32 346.132C461.9 345.4 461.69 344.572 461.69 343.648C461.69 342.723 461.9 341.895 462.32 341.163C462.74 340.431 463.316 339.861 464.048 339.453C464.78 339.045 465.602 338.841 466.514 338.841C467.426 338.841 468.248 339.045 468.98 339.453C469.712 339.861 470.282 340.431 470.69 341.163C471.11 341.895 471.32 342.723 471.32 343.648C471.32 344.572 471.11 345.4 470.69 346.132C470.282 346.864 469.712 347.44 468.98 347.86C468.248 348.268 467.426 348.472 466.514 348.472ZM466.514 347.338C467.186 347.338 467.786 347.188 468.314 346.888C468.854 346.576 469.274 346.138 469.574 345.574C469.874 345.01 470.024 344.368 470.024 343.648C470.024 342.928 469.874 342.285 469.574 341.721C469.274 341.157 468.854 340.725 468.314 340.425C467.786 340.113 467.186 339.957 466.514 339.957C465.842 339.957 465.236 340.113 464.696 340.425C464.168 340.725 463.748 341.157 463.436 341.721C463.136 342.285 462.986 342.928 462.986 343.648C462.986 344.368 463.136 345.01 463.436 345.574C463.748 346.138 464.168 346.576 464.696 346.888C465.236 347.188 465.842 347.338 466.514 347.338ZM483.233 347.266V350.668H482.027V348.382H473.549V350.668H472.343V347.266H472.883C473.519 347.23 473.951 346.762 474.179 345.862C474.407 344.962 474.563 343.702 474.647 342.081L474.773 338.913H481.757V347.266H483.233ZM475.817 342.153C475.757 343.498 475.643 344.608 475.475 345.484C475.307 346.348 475.007 346.942 474.575 347.266H480.479V340.047H475.925L475.817 342.153ZM494.022 344.17H491.969V348.382H490.691V344.17H488.639L485.741 348.382H484.211L487.613 343.504L484.481 338.913H485.867L488.639 343.072H490.691V338.913H491.969V343.072H494.022L496.812 338.913H498.198L495.066 343.522L498.468 348.382H496.938L494.022 344.17ZM500.595 338.913H501.873V346.438L508.191 338.913H509.325V348.382H508.047V340.857L501.747 348.382H500.595V338.913ZM520.26 338.913V348.382H519.09V345.25H516.12H515.76L513.564 348.382H512.177L514.536 345.07C513.804 344.866 513.24 344.518 512.844 344.026C512.448 343.534 512.25 342.91 512.25 342.153C512.25 341.097 512.61 340.293 513.33 339.741C514.05 339.189 515.034 338.913 516.282 338.913H520.26ZM513.546 342.189C513.546 343.594 514.44 344.296 516.228 344.296H519.09V340.047H516.318C514.47 340.047 513.546 340.761 513.546 342.189Z" fill="#20201F"/>
<path d="M480.448 374.355H477.928V377.667H476.632V374.355H469.522V373.419L476.2 365.067H477.64L471.196 373.203H476.668V370.287H477.928V373.203H480.448V374.355ZM482.962 377.757C482.698 377.757 482.47 377.661 482.278 377.469C482.098 377.277 482.008 377.043 482.008 376.767C482.008 376.491 482.098 376.263 482.278 376.083C482.47 375.891 482.698 375.795 482.962 375.795C483.226 375.795 483.454 375.891 483.646 376.083C483.838 376.263 483.934 376.491 483.934 376.767C483.934 377.043 483.838 377.277 483.646 377.469C483.454 377.661 483.226 377.757 482.962 377.757ZM496.287 374.355H493.767V377.667H492.471V374.355H485.36V373.419L492.039 365.067H493.479L487.034 373.203H492.507V370.287H493.767V373.203H496.287V374.355ZM500.512 365.067V377.667H499.216V366.219H496.246V365.067H500.512Z" fill="#20201F"/>
<path d="M232.171 131.345C233.995 131.345 235.321 131.675 236.149 132.335C236.989 132.983 237.409 133.895 237.409 135.071C237.409 135.803 237.235 136.457 236.887 137.033C236.551 137.609 236.041 138.065 235.357 138.401C234.673 138.725 233.833 138.887 232.837 138.887C231.937 138.887 231.079 138.743 230.263 138.455C229.459 138.155 228.811 137.759 228.319 137.267L228.949 136.241C229.369 136.673 229.921 137.027 230.605 137.303C231.289 137.567 232.027 137.699 232.819 137.699C233.863 137.699 234.667 137.465 235.231 136.997C235.807 136.529 236.095 135.905 236.095 135.125C236.095 134.261 235.771 133.607 235.123 133.163C234.487 132.719 233.407 132.497 231.883 132.497H229.201L229.849 126.179H236.743V127.331H230.983L230.551 131.345H232.171ZM240.027 138.869C239.763 138.869 239.535 138.773 239.343 138.581C239.163 138.389 239.073 138.155 239.073 137.879C239.073 137.603 239.163 137.375 239.343 137.195C239.535 137.003 239.763 136.907 240.027 136.907C240.291 136.907 240.519 137.003 240.711 137.195C240.903 137.375 240.999 137.603 240.999 137.879C240.999 138.155 240.903 138.389 240.711 138.581C240.519 138.773 240.291 138.869 240.027 138.869ZM247.698 138.887C246.726 138.887 245.856 138.629 245.088 138.113C244.332 137.597 243.738 136.859 243.306 135.899C242.886 134.927 242.676 133.787 242.676 132.479C242.676 131.171 242.886 130.037 243.306 129.077C243.738 128.105 244.332 127.361 245.088 126.845C245.856 126.329 246.726 126.071 247.698 126.071C248.67 126.071 249.534 126.329 250.29 126.845C251.058 127.361 251.658 128.105 252.09 129.077C252.522 130.037 252.738 131.171 252.738 132.479C252.738 133.787 252.522 134.927 252.09 135.899C251.658 136.859 251.058 137.597 250.29 138.113C249.534 138.629 248.67 138.887 247.698 138.887ZM247.698 137.699C248.43 137.699 249.072 137.495 249.624 137.087C250.188 136.679 250.626 136.085 250.938 135.305C251.25 134.525 251.406 133.583 251.406 132.479C251.406 131.375 251.25 130.433 250.938 129.653C250.626 128.873 250.188 128.279 249.624 127.871C249.072 127.463 248.43 127.259 247.698 127.259C246.966 127.259 246.318 127.463 245.754 127.871C245.202 128.279 244.77 128.873 244.458 129.653C244.146 130.433 243.99 131.375 243.99 132.479C243.99 133.583 244.146 134.525 244.458 135.305C244.77 136.085 245.202 136.679 245.754 137.087C246.318 137.495 246.966 137.699 247.698 137.699ZM258.051 126.179V138.779H256.755V127.331H253.785V126.179H258.051Z" fill="#20201F"/>
</g>
<defs>
<clipPath id="clip0_2384_28741">
<rect width="495.559" height="478.196" fill="white" transform="translate(52 36)"/>
</clipPath>
</defs>
</svg>
