<svg width="500" height="600" fill="none" xmlns="http://www.w3.org/2000/svg"><path fill="#fff" d="M0 0h500v600H0z"/><g clip-path="url(#a)"><path fill-rule="evenodd" clip-rule="evenodd" d="m40 41.146 6.613-.412L234.63 29v89.828h224.458v452.75H40V41.146z" fill="#2A2274"/><path fill-rule="evenodd" clip-rule="evenodd" d="m40 41.146 6.613-.412-.013 78.096h8.375v380.882H40V41.146z" fill="#C6C0E1"/><path fill-rule="evenodd" clip-rule="evenodd" d="M234.63 118.828h224.458v452.75H40V41.146L234.63 29v89.828z" fill="#ED9FA6"/><path d="M459.088 118.83h-14.975v417.413h14.975V118.83z" fill="#94D0F5"/><path fill-rule="evenodd" clip-rule="evenodd" d="M40 484.74h14.975v71.864h389.261v-35.333h14.852v50.306H40V484.74z" fill="#CFD0D0"/><path fill-rule="evenodd" clip-rule="evenodd" d="m40 41.146 6.613-.412-.013 78.096h8.375v380.882H40V41.146z" fill="#FFF9D0"/><path fill-rule="evenodd" clip-rule="evenodd" d="M234.63 118.828h224.458v452.75H40V41.146L234.63 29v89.828z" fill="#FFF9D0"/><path d="M459.088 118.83h-14.975v417.413h14.975V118.83z" fill="#FFF9D0"/><path d="M54.975 134.4H40v14.972h14.975V134.4zM270.567 134.247h-35.938v36.086h35.938v-36.086zM54.975 149.372H40v422.206h14.975V149.372zM459.088 149.372h-14.975v422.206h14.975V149.372z" fill="#20201F"/><path d="M459.088 521.271h-14.853v14.972h14.853v-14.972zM444.113 556.604H244.817v14.974h199.296v-14.974zM184.924 556.604H54.976v14.974h129.948v-14.974zM121.451 126.615H40v22.757h81.451v-22.757zM285.534 126.615h-68.269v22.757h68.269v-22.757zM459.089 126.615H411.3v22.757h47.789v-22.757z" fill="#20201F"/><path d="M121.451 118.83H40v7.785h81.451v-7.785zM289.131 118.829h-71.866v7.786h71.866v-7.786zM459.088 118.83h-51.377v7.785h51.377v-7.785z" fill="#20201F"/><path fill-rule="evenodd" clip-rule="evenodd" d="M40 41.146 234.63 29v89.83h-7.186V36.648L46.591 47.934v70.896H40V41.146z" fill="#20201F"/><path d="M122.641 375.745H54.976v4.791h67.665v-4.791zM174.15 375.745h-51.508v4.791h51.508v-4.791z" fill="#20201F"/><path d="M183.224 375.745h-9.074v4.791h9.074v-4.791zM178.938 380.536h-4.788v77.46h4.788v-77.46zM178.938 499.918h-4.788v56.686h4.788v-56.686zM291.53 442.041h-4.797v114.562h4.797V442.041zM291.53 375.745h-60.395v4.791h60.395v-4.791z" fill="#20201F"/><path d="M291.53 375.744h-4.797v12.398h4.797v-12.398zM239.426 170.333h-4.796v205.411h4.796V170.333zM407.71 118.83H289.123v3.852H407.71v-3.852zM411.299 126.595H285.534v3.851h125.765v-3.851zM411.299 145.5H285.534v3.851h125.765V145.5zM217.264 118.828h-47.912v3.852h47.912v-3.852zM217.265 126.593h-47.914v3.851h47.914v-3.851zM217.265 145.498h-47.914v3.851h47.914v-3.851z" fill="#20201F"/><path d="M172.177 118.828h-2.826v30.543h2.826v-30.543z" fill="#20201F"/><path fill-rule="evenodd" clip-rule="evenodd" d="M190.558 566.662a1.702 1.702 0 0 1-3.402 0v-35.996a1.702 1.702 0 0 1 3.402 0v35.996zM241.934 567.004a.851.851 0 1 1-1.701 0c0-9.762-5.02-18.613-13.132-25.029-8.169-6.461-19.47-10.459-31.961-10.459a.85.85 0 0 1 0-1.7c12.875 0 24.55 4.139 33.011 10.831 8.513 6.733 13.783 16.053 13.783 26.357zM175.522 459.999a1.702 1.702 0 0 1 0 3.402h-35.996a1.702 1.702 0 0 1 0-3.402h35.996zM175.864 495.228a.85.85 0 0 1 0 1.701c-10.236 0-19.512-3.463-26.236-9.057-6.766-5.632-10.953-13.424-10.953-22.037a.85.85 0 0 1 1.701 0c0 8.087 3.951 15.42 10.336 20.734 6.428 5.349 15.32 8.659 25.152 8.659zM122.678 128.375a1.7 1.7 0 0 1 3.401 0v35.997a1.701 1.701 0 0 1-3.401 0v-35.997zM165.656 128.034a.851.851 0 1 1 1.701 0c0 10.269-4.248 19.568-11.111 26.297-6.863 6.728-16.34 10.891-26.799 10.891a.85.85 0 1 1 0-1.701c10.001 0 19.058-3.975 25.61-10.399 6.547-6.42 10.599-15.291 10.599-25.088zM229.691 378.532a1.702 1.702 0 0 1-3.402 0v-35.996a1.702 1.702 0 0 1 3.402 0v35.996zM187.683 378.874a.85.85 0 0 1-1.701 0 37.14 37.14 0 0 1 10.854-26.291c6.708-6.731 15.975-10.897 26.203-10.897a.85.85 0 0 1 0 1.7c-9.763 0-18.604 3.973-25 10.393a35.444 35.444 0 0 0-10.356 25.095zM289.926 440.119a1.7 1.7 0 0 1 0-3.401h35.997a1.7 1.7 0 0 1 0 3.401h-35.997zM289.585 391.932a.85.85 0 1 1 0-1.701c10.288 0 19.598 4.774 26.33 12.491 6.708 7.686 10.858 18.297 10.858 30.002a.85.85 0 1 1-1.701 0c0-11.287-3.988-21.501-10.432-28.887-6.417-7.354-15.277-11.905-25.055-11.905zM93.497 237.236v90.354H57.355v-91.417h36.142v1.063zm-4.273 62.075c0-.994-.407-1.9-1.065-2.554a3.604 3.604 0 0 0-2.55-1.061H65.2a3.621 3.621 0 0 0-3.614 3.615v20.41c0 .991.407 1.895 1.06 2.552a3.606 3.606 0 0 0 2.554 1.061h20.41c.995 0 1.9-.407 2.551-1.063a3.601 3.601 0 0 0 1.063-2.55v-20.41zm-1.689-51.565a4.99 4.99 0 0 0-1.464-3.532 4.982 4.982 0 0 0-3.532-1.464c-1.375 0-2.624.56-3.532 1.467a4.983 4.983 0 0 0 .002 7.059 4.987 4.987 0 0 0 7.062.002 4.984 4.984 0 0 0 1.464-3.532zm-13.163 0c0-1.672-.68-3.187-1.776-4.284a6.043 6.043 0 0 0-4.283-1.775 6.042 6.042 0 0 0-4.284 1.775 6.044 6.044 0 0 0-1.775 4.284c0 1.671.68 3.187 1.775 4.283a6.043 6.043 0 0 0 4.284 1.776c1.67 0 3.187-.68 4.283-1.776a6.042 6.042 0 0 0 1.776-4.283zm-2.827 3.232a4.56 4.56 0 0 0 1.339-3.232 4.56 4.56 0 0 0-1.339-3.233 4.563 4.563 0 0 0-3.232-1.338 4.562 4.562 0 0 0-3.233 1.338 4.561 4.561 0 0 0-1.338 3.233 4.56 4.56 0 0 0 1.338 3.232 4.559 4.559 0 0 0 3.233 1.339 4.56 4.56 0 0 0 3.232-1.339zm17.053 9.763c0-1.672-.68-3.188-1.776-4.284a6.042 6.042 0 0 0-4.283-1.775 6.043 6.043 0 0 0-4.284 1.774 6.046 6.046 0 0 0-1.775 4.285 6.04 6.04 0 0 0 1.776 4.283 6.042 6.042 0 0 0 4.283 1.776c1.671 0 3.187-.68 4.283-1.776a6.042 6.042 0 0 0 1.776-4.283zm-2.827 3.232a4.56 4.56 0 0 0 1.339-3.232 4.561 4.561 0 0 0-1.339-3.233 4.562 4.562 0 0 0-3.232-1.338 4.56 4.56 0 0 0-3.233 1.338 4.559 4.559 0 0 0-1.338 3.233c0 1.263.513 2.406 1.339 3.232a4.558 4.558 0 0 0 3.232 1.339 4.56 4.56 0 0 0 3.232-1.339zm-12.462-3.232a4.99 4.99 0 0 0-1.465-3.532 4.982 4.982 0 0 0-3.531-1.464c-1.375 0-2.624.56-3.532 1.467a4.981 4.981 0 0 0 .002 7.059 4.983 4.983 0 0 0 7.062.001 4.982 4.982 0 0 0 1.464-3.531zm-2.516 2.48a3.5 3.5 0 0 0 1.028-2.48c0-.971-.392-1.849-1.025-2.481a3.513 3.513 0 0 0-4.964-.002 3.495 3.495 0 0 0-1.027 2.483c0 .968.394 1.847 1.027 2.48a3.483 3.483 0 0 0 2.48 1.028 3.5 3.5 0 0 0 2.481-1.028zm14.227-12.995a3.499 3.499 0 0 0 1.027-2.48c0-.971-.392-1.849-1.025-2.481a3.513 3.513 0 0 0-4.964-.002 3.496 3.496 0 0 0-1.027 2.483 3.5 3.5 0 0 0 1.027 2.48 3.483 3.483 0 0 0 2.481 1.028c.969 0 1.847-.394 2.48-1.028zm2.078 69.495v-20.41c0-.408-.168-.781-.438-1.051a1.475 1.475 0 0 0-1.05-.438H65.2a1.489 1.489 0 0 0-1.488 1.489v20.41c0 .41.167.782.434 1.049.274.27.648.438 1.054.438h20.41c.406 0 .78-.168 1.05-.438.271-.267.438-.639.438-1.049zm-27.617-49.567h31.89v-31.855h-31.89v31.855zm31.89 2.126h-31.89v53.184h31.89V272.28zM89.9 533.139c-2.798 1.799-6.386 2.909-9.541 2.909-3.106 0-5.53-1.065-7.217-2.81v-.005c-.638-.66-1.132-1.445-1.55-2.275v3.587c0 2.142-.895 3.397-2.331 4.126-1.307.665-3.036.829-4.931.829h-.783v-.02c-1.58-.044-3.022-.241-4.145-.809-1.436-.729-2.326-1.984-2.326-4.115v-17.595c0-2.14.89-3.394 2.325-4.118 1.124-.564 2.566-.767 4.146-.81v-.02h.782c1.896 0 3.625.165 4.932.83 1.436.724 2.33 1.978 2.33 4.118v3.595c.42-.831.908-1.613 1.551-2.275 1.687-1.748 4.111-2.814 7.217-2.814 3.334 0 7.15 1.243 10.013 3.225 2.641 1.83 4.495 4.303 4.495 7.065 0 2.924-2.079 5.528-4.968 7.382zm-27.904-7.889h-.005v.002c0 .631.264 1.212.681 1.631v.005a2.304 2.304 0 0 0 3.26 0h.007v-.005a2.316 2.316 0 0 0 0-3.266 2.309 2.309 0 0 0-3.943 1.633zm1.183-.003v.005c0 .312.124.593.32.793h.008c.202.201.488.33.797.33.316 0 .605-.125.8-.32l.005-.008a1.14 1.14 0 0 0 .324-.795c0-.322-.127-.602-.324-.802-.2-.197-.49-.321-.805-.321-.315 0-.601.124-.797.33-.209.196-.336.48-.336.788h.008zm6.85-8.286c0-1.444-.566-2.269-1.465-2.729-.932-.464-2.225-.621-3.686-.648h-.549c-1.682 0-3.191.129-4.23.648-.899.46-1.46 1.287-1.46 2.729v17.595c0 1.44.561 2.263 1.46 2.723 1.039.523 2.548.65 4.23.65h.61c1.43-.032 2.713-.186 3.625-.648.906-.462 1.466-1.292 1.466-2.736v-17.584zm19.459 3.011c-2.613-1.811-6.094-2.944-9.13-2.944-2.653 0-4.694.886-6.094 2.333-1.533 1.582-2.326 3.861-2.326 6.396 0 2.538.793 4.815 2.326 6.401 1.4 1.444 3.441 2.328 6.095 2.328 2.867 0 6.142-1.015 8.702-2.658 2.467-1.584 4.243-3.74 4.243-6.071 0-2.192-1.58-4.229-3.816-5.785zM154.698 555.208l-19.49.006c-6.519 0-5.751-13.492-5.683-14.393 0-3.123 1.273-5.957 3.326-8.007a11.308 11.308 0 0 1 8.009-3.316h8.271a11.32 11.32 0 0 1 8.018 3.316 11.391 11.391 0 0 1 3.329 8.012c.042.916.713 14.388-5.78 14.382zm-9.706-13.143v-.002a2.54 2.54 0 0 0 1.77-.727 2.536 2.536 0 0 0 .718-1.766 2.485 2.485 0 0 0-2.49-2.492 2.48 2.48 0 0 0-1.76.728h-.008v.005a2.477 2.477 0 0 0-.732 1.759c0 .682.281 1.316.732 1.766h.002c.451.45 1.082.734 1.766.734l.002-.005zm.005-1.271c.325 0 .632-.134.852-.36.214-.214.352-.522.352-.864 0-.34-.132-.648-.346-.869a1.232 1.232 0 0 0-.865-.348c-.344 0-.641.134-.861.348l-.005.005a1.213 1.213 0 0 0-.352.864c0 .336.142.644.354.864l.005.003c.215.216.522.346.854.346l.012-.003v.014zm-.005 9.665c3.143 0 5.995-.936 8.069-2.439 2.155-1.572 3.494-3.767 3.496-6.2 0-2.443-1.341-4.638-3.496-6.212-2.082-1.512-4.936-2.439-8.079-2.439h-.013c-3.135.007-5.981.942-8.061 2.448-2.146 1.571-3.483 3.76-3.484 6.189l.001.014c0 2.439 1.337 4.622 3.5 6.2 2.069 1.505 4.92 2.439 8.06 2.436l.007.003zm0-1.758c2.754-.005 5.242-.813 7.042-2.112 1.698-1.241 2.755-2.933 2.755-4.769 0-1.849-1.057-3.54-2.769-4.787-1.79-1.294-4.274-2.099-7.038-2.099h-.005l-.008-.005c-2.757.005-5.235.81-7.025 2.111-1.694 1.237-2.75 2.931-2.755 4.766l.005.014c-.003 1.84 1.055 3.533 2.756 4.769 1.791 1.294 4.276 2.107 7.032 2.104h.01v.008zm9.7 4.748c4.839 0 4.015-12.526 4.015-12.558l-.008-.065a9.567 9.567 0 0 0-2.791-6.764 9.58 9.58 0 0 0-6.777-2.798h-8.262a9.56 9.56 0 0 0-9.584 9.562l-.003.062c0 .032-.887 12.561 3.931 12.561h19.479zM101.406 486.973V385.384H59.847v101.589h41.559zm-24.819-19.796a4.042 4.042 0 0 1 4.04-4.039c1.113 0 2.122.453 2.853 1.183a4.027 4.027 0 0 1 1.186 2.856 4.027 4.027 0 0 1-1.182 2.854 4.02 4.02 0 0 1-2.857 1.186 4.03 4.03 0 0 1-2.857-1.183 4.029 4.029 0 0 1-1.183-2.857zm2.325-1.714a2.417 2.417 0 0 1 1.715-.709 2.417 2.417 0 0 1 2.423 2.423 2.42 2.42 0 0 1-2.424 2.424 2.42 2.42 0 0 1-2.423-2.424c0-.668.272-1.275.709-1.714zm-17.876 13.842 1.616-71.712c0-10.771 7.204-19.59 17.975-19.59 10.77 0 17.974 8.819 17.974 19.59l1.616 71.712c0 1.39-.569 2.653-1.483 3.567a5.049 5.049 0 0 1-3.566 1.483H66.086a5.036 5.036 0 0 1-3.563-1.483 5.04 5.04 0 0 1-1.487-3.567zm3.636-71.712c0-9.667 6.288-17.571 15.955-17.571s15.955 7.904 15.955 17.571l1.615 71.712a3.039 3.039 0 0 1-3.03 3.03H66.087a3.02 3.02 0 0 1-2.142-.891 3.018 3.018 0 0 1-.888-2.139l1.616-71.712zm38.712-22.422v102.015c0 .507-.2.97-.52 1.306-.32.337-.766.546-1.254.546H59.644a1.74 1.74 0 0 1-1.255-.542c-.32-.336-.52-.8-.52-1.31V385.171c0-.51.2-.974.52-1.309a1.756 1.756 0 0 1 1.255-.542h41.966c.486 0 .929.209 1.251.542.323.34.523.802.523 1.309z" fill="#20201F"/><path d="M302.546 221.756V262h-9.313v-32.77h-8.049v-7.474h17.362zM321.376 190h-2.126v101.095h2.126V190zM343.684 215.738v1.314h-10.081v-1.048l5.975-5.851c.752-.74 1.259-1.376 1.519-1.91a3.64 3.64 0 0 0 .411-1.643c0-.848-.295-1.505-.883-1.971-.575-.479-1.403-.718-2.485-.718-1.683 0-2.991.533-3.921 1.601l-1.048-.903c.562-.657 1.273-1.164 2.136-1.52.876-.356 1.861-.534 2.956-.534 1.465 0 2.622.35 3.471 1.048.862.684 1.293 1.629 1.293 2.833 0 .739-.164 1.451-.493 2.136-.328.684-.951 1.471-1.868 2.361l-4.887 4.805h7.905zm7.504 1.437c-1.109 0-2.101-.294-2.977-.883-.863-.589-1.54-1.431-2.033-2.526-.479-1.108-.719-2.409-.719-3.901s.24-2.785.719-3.881c.493-1.108 1.17-1.957 2.033-2.546.876-.588 1.868-.883 2.977-.883 1.109 0 2.094.295 2.957.883.876.589 1.56 1.438 2.053 2.546.493 1.096.739 2.389.739 3.881s-.246 2.793-.739 3.901c-.493 1.095-1.177 1.937-2.053 2.526-.863.589-1.848.883-2.957.883zm0-1.355c.835 0 1.567-.233 2.197-.698.643-.466 1.143-1.143 1.499-2.033.356-.89.534-1.964.534-3.224 0-1.259-.178-2.334-.534-3.223-.356-.89-.856-1.568-1.499-2.033-.63-.466-1.362-.698-2.197-.698s-1.574.232-2.218.698c-.629.465-1.122 1.143-1.478 2.033-.356.889-.534 1.964-.534 3.223 0 1.26.178 2.334.534 3.224.356.89.849 1.567 1.478 2.033.644.465 1.383.698 2.218.698zm8.754 1.334c-.301 0-.561-.109-.78-.328a1.13 1.13 0 0 1-.308-.801c0-.315.103-.575.308-.78.219-.219.479-.329.78-.329.302 0 .562.11.781.329.219.205.328.465.328.78s-.109.582-.328.801a1.066 1.066 0 0 1-.781.328zm8.751.021c-1.109 0-2.101-.294-2.977-.883-.863-.589-1.54-1.431-2.033-2.526-.479-1.108-.719-2.409-.719-3.901s.24-2.785.719-3.881c.493-1.108 1.17-1.957 2.033-2.546.876-.588 1.868-.883 2.977-.883 1.109 0 2.094.295 2.957.883.876.589 1.56 1.438 2.053 2.546.493 1.096.739 2.389.739 3.881s-.246 2.793-.739 3.901c-.493 1.095-1.177 1.937-2.053 2.526-.863.589-1.848.883-2.957.883zm0-1.355c.835 0 1.567-.233 2.197-.698.643-.466 1.143-1.143 1.499-2.033.356-.89.534-1.964.534-3.224 0-1.259-.178-2.334-.534-3.223-.356-.89-.856-1.568-1.499-2.033-.63-.466-1.362-.698-2.197-.698s-1.574.232-2.218.698c-.629.465-1.122 1.143-1.478 2.033-.356.889-.534 1.964-.534 3.223 0 1.26.178 2.334.534 3.224.356.89.849 1.567 1.478 2.033.644.465 1.383.698 2.218.698zm11.644-7.248c2.081 0 3.594.376 4.538 1.129.958.739 1.437 1.779 1.437 3.121 0 .835-.198 1.581-.595 2.238-.383.657-.965 1.177-1.745 1.56-.781.37-1.739.555-2.875.555a8.743 8.743 0 0 1-2.936-.493c-.917-.342-1.657-.794-2.218-1.355l.719-1.17c.479.492 1.109.896 1.889 1.211.78.301 1.622.452 2.525.452 1.191 0 2.108-.267 2.752-.801.657-.534.985-1.246.985-2.136 0-.985-.369-1.731-1.108-2.238-.726-.506-1.958-.759-3.696-.759h-3.06l.74-7.207h7.864v1.314h-6.571l-.493 4.579h1.848zM347.893 242.56h-2.874v3.778h-1.479v-3.778h-8.11v-1.068l7.617-9.527h1.643l-7.351 9.281h6.242v-3.327h1.438v3.327h2.874v1.314zm4.82-10.595v14.373h-1.478v-13.059h-3.388v-1.314h4.866zm4.545 14.475c-.302 0-.562-.109-.781-.328a1.13 1.13 0 0 1-.308-.801c0-.315.103-.575.308-.78.219-.219.479-.329.781-.329.301 0 .561.11.78.329.219.205.328.465.328.78s-.109.582-.328.801a1.065 1.065 0 0 1-.78.328zm8.976-8.705c.944 0 1.779.177 2.505.533a4.062 4.062 0 0 1 1.725 1.52c.41.643.616 1.396.616 2.258 0 .876-.213 1.65-.637 2.321a4.256 4.256 0 0 1-1.766 1.56c-.739.356-1.574.534-2.505.534-1.902 0-3.36-.623-4.373-1.869-1.013-1.259-1.52-3.032-1.52-5.318 0-1.601.274-2.956.822-4.065.547-1.109 1.314-1.944 2.299-2.505.986-.575 2.136-.862 3.45-.862 1.423 0 2.56.26 3.408.78l-.595 1.191c-.685-.452-1.615-.678-2.793-.678-1.587 0-2.833.507-3.737 1.52-.903.999-1.355 2.457-1.355 4.373 0 .342.021.732.062 1.17.356-.78.924-1.382 1.704-1.806.78-.438 1.677-.657 2.69-.657zm-.123 7.473c1.04 0 1.882-.28 2.525-.841.657-.575.986-1.335.986-2.28 0-.944-.329-1.697-.986-2.258-.643-.561-1.519-.842-2.628-.842-.725 0-1.369.137-1.93.411-.548.273-.979.65-1.294 1.129a2.86 2.86 0 0 0-.472 1.602c0 .547.144 1.054.431 1.519.301.465.739.842 1.314 1.129.575.288 1.26.431 2.054.431zm18.898-2.648h-2.875v3.778h-1.478v-3.778h-8.111v-1.068l7.618-9.527h1.642l-7.35 9.281h6.242v-3.327h1.437v3.327h2.875v1.314zM344.927 271.845h-2.874v3.778h-1.479v-3.778h-8.11v-1.067l7.618-9.528h1.642l-7.351 9.281h6.242v-3.326h1.438v3.326h2.874v1.314zm11.093 2.464v1.314h-10.082v-1.047l5.975-5.852c.753-.739 1.259-1.375 1.52-1.909.273-.548.41-1.095.41-1.643 0-.848-.294-1.506-.883-1.971-.575-.479-1.403-.719-2.484-.719-1.684 0-2.991.534-3.922 1.602l-1.047-.903c.561-.658 1.273-1.164 2.135-1.52.876-.356 1.862-.534 2.957-.534 1.465 0 2.621.349 3.47 1.047.862.685 1.294 1.629 1.294 2.834 0 .739-.165 1.451-.493 2.135-.329.685-.952 1.472-1.869 2.362l-4.886 4.804h7.905zm3.164 1.417c-.301 0-.561-.109-.78-.328a1.13 1.13 0 0 1-.308-.801c0-.315.103-.575.308-.78.219-.219.479-.329.78-.329.301 0 .562.11.781.329.219.205.328.465.328.78s-.109.582-.328.801c-.219.219-.48.328-.781.328zm11.677-7.638c.903.301 1.595.753 2.074 1.355.492.602.739 1.328.739 2.177 0 .835-.226 1.567-.678 2.197-.451.616-1.102 1.095-1.95 1.437-.835.328-1.821.493-2.957.493-1.725 0-3.08-.37-4.066-1.109-.985-.739-1.478-1.745-1.478-3.018 0-.863.233-1.588.698-2.177.479-.602 1.171-1.054 2.074-1.355-.739-.288-1.3-.698-1.684-1.232-.383-.548-.575-1.191-.575-1.93 0-1.164.452-2.088 1.356-2.772.917-.685 2.142-1.027 3.675-1.027 1.013 0 1.896.158 2.649.473.766.301 1.362.739 1.786 1.314.424.575.637 1.245.637 2.012 0 .739-.199 1.382-.596 1.93-.397.534-.965.944-1.704 1.232zm-6.324-3.121c0 .794.315 1.423.944 1.889.63.465 1.499.698 2.608.698s1.978-.233 2.608-.698c.643-.466.965-1.088.965-1.869 0-.807-.329-1.444-.986-1.909-.643-.466-1.506-.698-2.587-.698-1.095 0-1.964.232-2.608.698-.629.465-.944 1.095-.944 1.889zm3.552 9.527c1.273 0 2.265-.26 2.977-.78.726-.52 1.088-1.225 1.088-2.115 0-.89-.362-1.588-1.088-2.094-.712-.521-1.704-.781-2.977-.781-1.259 0-2.252.26-2.977.781-.712.506-1.068 1.204-1.068 2.094 0 .903.356 1.615 1.068 2.135.711.507 1.704.76 2.977.76zm13.361 1.253c-1.109 0-2.102-.295-2.978-.883-.862-.589-1.54-1.431-2.032-2.526-.48-1.109-.719-2.409-.719-3.901s.239-2.786.719-3.881c.492-1.109 1.17-1.957 2.032-2.546.876-.588 1.869-.883 2.978-.883 1.108 0 2.094.295 2.956.883.876.589 1.561 1.437 2.054 2.546.492 1.095.739 2.389.739 3.881s-.247 2.792-.739 3.901c-.493 1.095-1.178 1.937-2.054 2.526-.862.588-1.848.883-2.956.883zm0-1.356c.835 0 1.567-.232 2.197-.698.643-.465 1.143-1.143 1.498-2.032.356-.89.534-1.965.534-3.224 0-1.259-.178-2.334-.534-3.224-.355-.889-.855-1.567-1.498-2.032-.63-.466-1.362-.699-2.197-.699s-1.575.233-2.218.699c-.63.465-1.122 1.143-1.478 2.032-.356.89-.534 1.965-.534 3.224 0 1.259.178 2.334.534 3.224.356.889.848 1.567 1.478 2.032.643.466 1.383.698 2.218.698zM327.575 478.63h-5.667v8.418h-3.182v-11.046h8.849v2.628zm6.411 8.582c-1.164 0-2.211-.239-3.142-.718a5.513 5.513 0 0 1-2.156-2.033c-.52-.862-.78-1.841-.78-2.936s.26-2.074.78-2.936a5.368 5.368 0 0 1 2.156-2.013c.931-.492 1.978-.739 3.142-.739 1.163 0 2.204.247 3.121.739a5.374 5.374 0 0 1 2.156 2.013c.52.862.78 1.841.78 2.936s-.26 2.074-.78 2.936a5.52 5.52 0 0 1-2.156 2.033c-.917.479-1.958.718-3.121.718zm0-2.628c.821 0 1.492-.273 2.012-.821.534-.561.801-1.307.801-2.238s-.267-1.67-.801-2.218c-.52-.561-1.191-.841-2.012-.841-.822 0-1.499.28-2.033.841-.534.548-.801 1.287-.801 2.218s.267 1.677.801 2.238c.534.548 1.211.821 2.033.821zm13.516 2.628c-1.177 0-2.238-.239-3.182-.718a5.627 5.627 0 0 1-2.197-2.033c-.52-.862-.78-1.841-.78-2.936s.26-2.074.78-2.936a5.478 5.478 0 0 1 2.197-2.013c.944-.492 2.005-.739 3.182-.739 1.164 0 2.177.247 3.039.739a4.267 4.267 0 0 1 1.91 2.074l-2.485 1.335c-.575-1.013-1.403-1.519-2.484-1.519-.835 0-1.526.273-2.074.821-.547.547-.821 1.293-.821 2.238 0 .944.274 1.69.821 2.238.548.548 1.239.821 2.074.821 1.095 0 1.923-.506 2.484-1.519l2.485 1.355c-.397.876-1.034 1.561-1.91 2.053-.862.493-1.875.739-3.039.739zm16.136-8.582h-3.737v8.418h-3.183v-8.418h-3.737v-2.628h10.657v2.628zm1.707-2.628h3.183v6.57l5.38-6.57h2.936v11.046h-3.183v-6.57l-5.359 6.57h-2.957v-11.046zm14.578 0h3.182v4.311h4.805v-4.311h3.203v11.046h-3.203v-4.127h-4.805v4.127h-3.182v-11.046zm18.548-.165c1.711 0 3.025.411 3.942 1.232.917.808 1.376 2.033 1.376 3.676v6.303h-2.998v-1.375c-.602 1.026-1.725 1.539-3.367 1.539-.849 0-1.588-.143-2.218-.431-.616-.287-1.088-.684-1.417-1.191a3.1 3.1 0 0 1-.492-1.724c0-1.027.383-1.835 1.149-2.423.781-.589 1.978-.883 3.594-.883h2.546c0-.698-.212-1.232-.637-1.602-.424-.383-1.061-.575-1.909-.575a5.48 5.48 0 0 0-1.746.288 4.452 4.452 0 0 0-1.437.739l-1.15-2.238c.603-.424 1.321-.753 2.156-.986a9.848 9.848 0 0 1 2.608-.349zm-.246 9.22c.547 0 1.033-.124 1.457-.37.425-.26.726-.637.904-1.129v-1.13h-2.197c-1.314 0-1.971.432-1.971 1.294 0 .411.157.739.472.985.328.233.773.35 1.335.35zm18.161-9.055v11.046h-2.854v-3.162h-2.361l-2.095 3.162h-3.408l2.525-3.614c-.766-.301-1.355-.732-1.765-1.293-.397-.575-.596-1.266-.596-2.074 0-1.3.466-2.3 1.396-2.998.945-.712 2.239-1.067 3.881-1.067h5.277zm-5.215 2.607c-.685 0-1.205.123-1.561.37-.342.246-.513.643-.513 1.191 0 .547.164.951.493 1.211.342.247.855.37 1.54.37h2.402v-3.142h-2.361zM350.508 513.624v2.71h-10.862v-2.156l5.544-5.235c.589-.562.986-1.041 1.191-1.438.205-.41.308-.814.308-1.211 0-.575-.198-1.013-.595-1.314-.384-.315-.952-.473-1.705-.473-.629 0-1.197.124-1.704.37a3.186 3.186 0 0 0-1.273 1.068l-2.423-1.561c.562-.835 1.335-1.485 2.32-1.95.986-.479 2.115-.719 3.388-.719 1.068 0 1.999.178 2.793.534.807.342 1.43.835 1.868 1.478.452.63.678 1.376.678 2.238 0 .781-.164 1.513-.493 2.197-.328.685-.965 1.465-1.909 2.341l-3.306 3.121h6.18zm7.492 2.957c-1.19 0-2.251-.295-3.182-.883-.931-.589-1.663-1.437-2.197-2.546-.52-1.123-.78-2.457-.78-4.004 0-1.547.26-2.875.78-3.983.534-1.123 1.266-1.978 2.197-2.567.931-.589 1.992-.883 3.182-.883 1.191 0 2.252.294 3.183.883s1.656 1.444 2.176 2.567c.534 1.108.801 2.436.801 3.983 0 1.547-.267 2.881-.801 4.004-.52 1.109-1.245 1.957-2.176 2.546-.931.588-1.992.883-3.183.883zm0-2.813c.876 0 1.561-.377 2.054-1.13.506-.752.759-1.916.759-3.49 0-1.574-.253-2.738-.759-3.491-.493-.753-1.178-1.129-2.054-1.129-.862 0-1.546.376-2.053 1.129-.493.753-.739 1.917-.739 3.491s.246 2.738.739 3.49c.507.753 1.191 1.13 2.053 1.13zm9.405 2.731a1.927 1.927 0 0 1-1.417-.575c-.383-.384-.575-.863-.575-1.438 0-.588.192-1.06.575-1.416.383-.37.856-.555 1.417-.555s1.033.185 1.417.555c.383.356.574.828.574 1.416 0 .575-.191 1.054-.574 1.438a1.928 1.928 0 0 1-1.417.575zm9.384.082c-1.191 0-2.252-.295-3.183-.883-.931-.589-1.663-1.437-2.197-2.546-.52-1.123-.78-2.457-.78-4.004 0-1.547.26-2.875.78-3.983.534-1.123 1.266-1.978 2.197-2.567.931-.589 1.992-.883 3.183-.883 1.191 0 2.251.294 3.182.883s1.657 1.444 2.177 2.567c.534 1.108.801 2.436.801 3.983 0 1.547-.267 2.881-.801 4.004-.52 1.109-1.246 1.957-2.177 2.546-.931.588-1.991.883-3.182.883zm0-2.813c.876 0 1.56-.377 2.053-1.13.506-.752.76-1.916.76-3.49 0-1.574-.254-2.738-.76-3.491-.493-.753-1.177-1.129-2.053-1.129-.863 0-1.547.376-2.054 1.129-.492.753-.739 1.917-.739 3.491s.247 2.738.739 3.49c.507.753 1.191 1.13 2.054 1.13zm12.704-6.406c2.025 0 3.518.403 4.476 1.211.972.808 1.458 1.889 1.458 3.244 0 .876-.219 1.677-.657 2.402-.439.712-1.109 1.287-2.013 1.725-.889.425-1.991.637-3.305.637-1.013 0-2.013-.13-2.998-.39-.972-.274-1.8-.657-2.485-1.15l1.314-2.546c.548.41 1.178.732 1.889.965a7.434 7.434 0 0 0 2.197.328c.835 0 1.492-.164 1.972-.493.479-.328.718-.787.718-1.375 0-.616-.253-1.082-.76-1.396-.492-.315-1.355-.473-2.587-.473h-3.675l.739-8.09h8.768v2.67h-5.996l-.226 2.731h1.171zM126.744 248.777h-1.663v4.189h-3.203V241.92h3.203v4.291h1.725l2.998-4.291h3.408l-3.86 5.297 4.127 5.749h-3.778l-2.957-4.189zm18.753-6.857-4.989 11.724c-.507 1.273-1.136 2.169-1.889 2.69-.739.52-1.636.78-2.69.78a5.603 5.603 0 0 1-1.704-.267c-.561-.178-1.02-.424-1.376-.739l1.17-2.279a2.783 2.783 0 0 0 1.807.698c.438 0 .794-.11 1.068-.329.274-.205.52-.554.739-1.047l.041-.103-4.784-11.128h3.306l3.1 7.494 3.121-7.494h3.08zm7.864 11.046-2.423-3.388-2.505 3.388h-3.49l4.25-5.564-4.107-5.482h3.594l2.34 3.223 2.403-3.223h3.408l-4.106 5.4 4.27 5.646h-3.634zm5.211-11.046h3.183v4.311h4.804v-4.311h3.204v11.046h-3.204v-4.127h-4.804v4.127h-3.183V241.92zm24.072 0v11.046h-2.855v-3.162h-2.361l-2.094 3.162h-3.409l2.526-3.614c-.767-.301-1.355-.732-1.766-1.293-.397-.575-.595-1.266-.595-2.074 0-1.3.465-2.3 1.396-2.998.944-.712 2.238-1.067 3.881-1.067h5.277zm-5.216 2.607c-.684 0-1.204.123-1.56.37-.342.246-.514.643-.514 1.191 0 .547.165.951.493 1.211.342.247.856.37 1.54.37h2.402v-3.142h-2.361zM137.903 267.879v14.373h-3.326v-11.703h-2.875v-2.67h6.201zm8.041 0v14.373h-3.326v-11.703h-2.875v-2.67h6.201zm4.386 14.538a1.927 1.927 0 0 1-1.417-.575c-.383-.384-.575-.863-.575-1.438 0-.588.192-1.06.575-1.416.383-.37.856-.555 1.417-.555s1.033.185 1.417.555c.383.356.574.828.574 1.416 0 .575-.191 1.054-.574 1.438a1.928 1.928 0 0 1-1.417.575zm8.708-14.538v14.373h-3.327v-11.703h-2.874v-2.67h6.201zm7.424 5.4c2.026 0 3.518.404 4.476 1.212.972.808 1.458 1.889 1.458 3.244 0 .876-.219 1.677-.657 2.402-.438.712-1.109 1.287-2.012 1.725-.89.425-1.992.637-3.306.637-1.013 0-2.012-.13-2.998-.39-.971-.274-1.8-.657-2.484-1.15l1.314-2.546c.548.41 1.177.732 1.889.965a7.429 7.429 0 0 0 2.197.328c.835 0 1.492-.164 1.971-.493.479-.328.719-.787.719-1.375 0-.616-.253-1.082-.76-1.396-.493-.315-1.355-.473-2.587-.473h-3.675l.739-8.09h8.767v2.67h-5.995l-.226 2.73h1.17zM220.329 437.981l-3.006-3.96-3.024 3.96h-1.44l3.744-4.86-3.564-4.608h1.44l2.844 3.708 2.844-3.708h1.404l-3.564 4.608 3.78 4.86h-1.458zm7.124.09c-.912 0-1.734-.204-2.466-.612a4.594 4.594 0 0 1-1.728-1.728c-.42-.732-.63-1.56-.63-2.484 0-.924.21-1.752.63-2.484a4.465 4.465 0 0 1 1.728-1.71c.732-.408 1.554-.612 2.466-.612.912 0 1.734.204 2.466.612a4.34 4.34 0 0 1 1.71 1.71c.42.732.63 1.56.63 2.484 0 .924-.21 1.752-.63 2.484a4.465 4.465 0 0 1-1.71 1.728c-.732.408-1.554.612-2.466.612zm0-1.134c.672 0 1.272-.15 1.8-.45.54-.312.96-.75 1.26-1.314.3-.564.45-1.206.45-1.926s-.15-1.362-.45-1.926c-.3-.564-.72-.996-1.26-1.296-.528-.312-1.128-.468-1.8-.468-.672 0-1.278.156-1.818.468-.528.3-.948.732-1.26 1.296-.3.564-.45 1.206-.45 1.926s.15 1.362.45 1.926a3.406 3.406 0 0 0 1.26 1.314c.54.3 1.146.45 1.818.45zm15.225-8.424v9.468H241.4v-8.334h-4.536l-.126 2.34c-.096 1.968-.324 3.48-.684 4.536-.36 1.056-1.002 1.584-1.926 1.584-.252 0-.558-.048-.918-.144l.09-1.098c.216.048.366.072.45.072.492 0 .864-.228 1.116-.684.252-.456.42-1.02.504-1.692.084-.672.156-1.56.216-2.664l.162-3.384h6.93zm11.373 0v9.468h-1.278v-8.334h-4.536l-.126 2.34c-.096 1.968-.324 3.48-.684 4.536-.36 1.056-1.002 1.584-1.926 1.584-.252 0-.558-.048-.918-.144l.09-1.098c.216.048.366.072.45.072.492 0 .864-.228 1.116-.684.252-.456.42-1.02.504-1.692.084-.672.156-1.56.216-2.664l.162-3.384h6.93zM220.788 459.833c1.824 0 3.15.33 3.978.99.84.648 1.26 1.56 1.26 2.736 0 .732-.174 1.386-.522 1.962-.336.576-.846 1.032-1.53 1.368-.684.324-1.524.486-2.52.486-.9 0-1.758-.144-2.574-.432-.804-.3-1.452-.696-1.944-1.188l.63-1.026c.42.432.972.786 1.656 1.062a6.096 6.096 0 0 0 2.214.396c1.044 0 1.848-.234 2.412-.702.576-.468.864-1.092.864-1.872 0-.864-.324-1.518-.972-1.962-.636-.444-1.716-.666-3.24-.666h-2.682l.648-6.318h6.894v1.152h-5.76l-.432 4.014h1.62zm7.855 7.524a.934.934 0 0 1-.684-.288.989.989 0 0 1-.27-.702c0-.276.09-.504.27-.684a.934.934 0 0 1 .684-.288c.264 0 .492.096.684.288.192.18.288.408.288.684 0 .276-.096.51-.288.702a.934.934 0 0 1-.684.288zm11.623-1.242v1.152h-8.838v-.918l5.238-5.13c.66-.648 1.104-1.206 1.332-1.674.24-.48.36-.96.36-1.44 0-.744-.258-1.32-.774-1.728-.504-.42-1.23-.63-2.178-.63-1.476 0-2.622.468-3.438 1.404l-.918-.792a4.846 4.846 0 0 1 1.872-1.332c.768-.312 1.632-.468 2.592-.468 1.284 0 2.298.306 3.042.918.756.6 1.134 1.428 1.134 2.484 0 .648-.144 1.272-.432 1.872-.288.6-.834 1.29-1.638 2.07l-4.284 4.212h6.93zm5.55-11.556c1.668 0 2.946.552 3.834 1.656.888 1.092 1.332 2.64 1.332 4.644 0 1.404-.24 2.592-.72 3.564s-1.152 1.71-2.016 2.214c-.864.492-1.872.738-3.024.738-1.248 0-2.244-.228-2.988-.684l.522-1.044c.6.396 1.416.594 2.448.594 1.392 0 2.484-.438 3.276-1.314.792-.888 1.188-2.172 1.188-3.852 0-.312-.018-.654-.054-1.026a3.445 3.445 0 0 1-1.494 1.602c-.684.372-1.47.558-2.358.558-.828 0-1.566-.156-2.214-.468a3.62 3.62 0 0 1-1.494-1.314c-.36-.576-.54-1.242-.54-1.998 0-.768.186-1.446.558-2.034a3.635 3.635 0 0 1 1.53-1.35c.66-.324 1.398-.486 2.214-.486zm.144 6.552c.636 0 1.194-.12 1.674-.36.492-.24.876-.57 1.152-.99.276-.42.414-.888.414-1.404 0-.48-.132-.924-.396-1.332-.252-.408-.63-.738-1.134-.99-.504-.252-1.104-.378-1.8-.378-.912 0-1.656.252-2.232.756-.564.492-.846 1.152-.846 1.98 0 .828.282 1.488.846 1.98.576.492 1.35.738 2.322.738z" fill="#20201F"/><path d="M99.408 68.95c.876 0 1.656.198 2.34.594.696.384 1.236.93 1.62 1.638.384.696.576 1.494.576 2.394 0 .924-.204 1.746-.612 2.466a4.194 4.194 0 0 1-1.674 1.656c-.72.396-1.548.594-2.484.594-1.572 0-2.79-.552-3.654-1.656-.864-1.104-1.296-2.628-1.296-4.572 0-2.028.384-3.582 1.152-4.662.78-1.08 1.992-1.812 3.636-2.196l4.248-.972.216 1.17-3.996.918c-1.356.3-2.352.834-2.988 1.602-.636.756-.984 1.878-1.044 3.366a4.238 4.238 0 0 1 1.602-1.71c.684-.42 1.47-.63 2.358-.63zm-.198 8.28c.66 0 1.248-.15 1.764-.45a3.186 3.186 0 0 0 1.224-1.296c.3-.552.45-1.176.45-1.872 0-.696-.144-1.308-.432-1.836a3.006 3.006 0 0 0-1.224-1.224c-.516-.3-1.11-.45-1.782-.45-.672 0-1.272.15-1.8.45a3.158 3.158 0 0 0-1.224 1.224c-.288.528-.432 1.14-.432 1.836 0 .696.144 1.32.432 1.872.3.552.714.984 1.242 1.296.528.3 1.122.45 1.782.45zm10.679-8.586c1.236 0 2.184.312 2.844.936.66.612.99 1.524.99 2.736v5.868h-1.224v-1.476c-.288.492-.714.876-1.278 1.152-.552.276-1.212.414-1.98.414-1.056 0-1.896-.252-2.52-.756-.624-.504-.936-1.17-.936-1.998 0-.804.288-1.452.864-1.944.588-.492 1.518-.738 2.79-.738h3.006v-.576c0-.816-.228-1.434-.684-1.854-.456-.432-1.122-.648-1.998-.648-.6 0-1.176.102-1.728.306a4.233 4.233 0 0 0-1.422.81l-.576-.954a4.99 4.99 0 0 1 1.728-.936 6.566 6.566 0 0 1 2.124-.342zm-.45 8.622c.72 0 1.338-.162 1.854-.486.516-.336.9-.816 1.152-1.44v-1.548h-2.97c-1.62 0-2.43.564-2.43 1.692 0 .552.21.99.63 1.314.42.312 1.008.468 1.764.468zm15.426-8.55v9.468h-1.278V69.85h-4.536l-.126 2.34c-.096 1.968-.324 3.48-.684 4.536-.36 1.056-1.002 1.584-1.926 1.584-.252 0-.558-.048-.918-.144l.09-1.098c.216.048.366.072.45.072.492 0 .864-.228 1.116-.684.252-.456.42-1.02.504-1.692.084-.672.156-1.56.216-2.664l.162-3.384h6.93zm7.071 5.256h-2.16v4.212h-1.278v-9.468h1.278v4.158h2.178l3.33-4.158h1.386l-3.726 4.59 3.996 4.878h-1.512l-3.492-4.212zm10.594 4.302c-.913 0-1.735-.204-2.467-.612a4.594 4.594 0 0 1-1.728-1.728c-.42-.732-.63-1.56-.63-2.484 0-.924.21-1.752.63-2.484a4.465 4.465 0 0 1 1.728-1.71c.732-.408 1.554-.612 2.467-.612.912 0 1.734.204 2.466.612a4.34 4.34 0 0 1 1.71 1.71c.42.732.63 1.56.63 2.484 0 .924-.21 1.752-.63 2.484a4.465 4.465 0 0 1-1.71 1.728c-.732.408-1.554.612-2.466.612zm0-1.134c.672 0 1.272-.15 1.8-.45.54-.312.96-.75 1.26-1.314.3-.564.45-1.206.45-1.926s-.15-1.362-.45-1.926c-.3-.564-.72-.996-1.26-1.296-.528-.312-1.128-.468-1.8-.468-.672 0-1.279.156-1.819.468-.528.3-.948.732-1.26 1.296-.3.564-.45 1.206-.45 1.926s.15 1.362.45 1.926a3.406 3.406 0 0 0 1.26 1.314c.54.3 1.147.45 1.819.45zm7.537-8.424h1.278v4.194h5.958v-4.194h1.278v9.468h-1.278v-4.176h-5.958v4.176h-1.278v-9.468z" fill="#000"/><path d="M114.22 100.27c1.32.072 2.322.432 3.006 1.08.696.636 1.044 1.47 1.044 2.502 0 .72-.174 1.362-.522 1.926-.348.552-.864.99-1.548 1.314-.684.324-1.518.486-2.502.486a7.73 7.73 0 0 1-2.592-.432c-.804-.3-1.452-.696-1.944-1.188l.63-1.026c.42.432.978.786 1.674 1.062a6.24 6.24 0 0 0 2.232.396c1.032 0 1.83-.222 2.394-.666.564-.456.846-1.08.846-1.872 0-.78-.282-1.392-.846-1.836-.564-.444-1.416-.666-2.556-.666h-.9v-.954l3.492-4.374h-6.444V94.87h8.1v.918l-3.564 4.482zm6.848 7.29a.934.934 0 0 1-.684-.288.989.989 0 0 1-.27-.702c0-.276.09-.504.27-.684a.934.934 0 0 1 .684-.288c.264 0 .492.096.684.288.192.18.288.408.288.684 0 .276-.096.51-.288.702a.934.934 0 0 1-.684.288zm10.237-6.696c.792.264 1.398.66 1.818 1.188.432.528.648 1.164.648 1.908 0 .732-.198 1.374-.594 1.926-.396.54-.966.96-1.71 1.26-.732.288-1.596.432-2.592.432-1.512 0-2.7-.324-3.564-.972-.864-.648-1.296-1.53-1.296-2.646 0-.756.204-1.392.612-1.908.42-.528 1.026-.924 1.818-1.188-.648-.252-1.14-.612-1.476-1.08-.336-.48-.504-1.044-.504-1.692 0-1.02.396-1.83 1.188-2.43.804-.6 1.878-.9 3.222-.9.888 0 1.662.138 2.322.414.672.264 1.194.648 1.566 1.152.372.504.558 1.092.558 1.764 0 .648-.174 1.212-.522 1.692-.348.468-.846.828-1.494 1.08zm-5.544-2.736c0 .696.276 1.248.828 1.656.552.408 1.314.612 2.286.612s1.734-.204 2.286-.612c.564-.408.846-.954.846-1.638 0-.708-.288-1.266-.864-1.674-.564-.408-1.32-.612-2.268-.612-.96 0-1.722.204-2.286.612-.552.408-.828.96-.828 1.656zm3.114 8.352c1.116 0 1.986-.228 2.61-.684.636-.456.954-1.074.954-1.854s-.318-1.392-.954-1.836c-.624-.456-1.494-.684-2.61-.684-1.104 0-1.974.228-2.61.684-.624.444-.936 1.056-.936 1.836 0 .792.312 1.416.936 1.872.624.444 1.494.666 2.61.666zm11.91-6.552c.828 0 1.56.156 2.196.468a3.556 3.556 0 0 1 1.512 1.332c.361.564.541 1.224.541 1.98 0 .768-.186 1.446-.559 2.034a3.733 3.733 0 0 1-1.548 1.368c-.648.312-1.38.468-2.196.468-1.668 0-2.946-.546-3.834-1.638-.888-1.104-1.332-2.658-1.332-4.662 0-1.404.24-2.592.72-3.564s1.152-1.704 2.016-2.196c.864-.504 1.872-.756 3.024-.756 1.248 0 2.244.228 2.988.684l-.522 1.044c-.6-.396-1.416-.594-2.448-.594-1.392 0-2.484.444-3.276 1.332-.792.876-1.188 2.154-1.188 3.834 0 .3.018.642.054 1.026a3.351 3.351 0 0 1 1.494-1.584c.684-.384 1.47-.576 2.358-.576zm-.108 6.552c.912 0 1.65-.246 2.214-.738.576-.504.864-1.17.864-1.998 0-.828-.288-1.488-.864-1.98-.564-.492-1.332-.738-2.304-.738-.636 0-1.2.12-1.692.36-.48.24-.858.57-1.134.99-.276.42-.414.888-.414 1.404 0 .48.126.924.378 1.332.264.408.648.738 1.152.99.504.252 1.104.378 1.8.378zM128.852 432.273c1.824 0 3.15.33 3.978.99.84.648 1.26 1.56 1.26 2.736 0 .732-.174 1.386-.522 1.962-.336.576-.846 1.032-1.53 1.368-.684.324-1.524.486-2.52.486-.9 0-1.758-.144-2.574-.432-.804-.3-1.452-.696-1.944-1.188l.63-1.026c.42.432.972.786 1.656 1.062a6.096 6.096 0 0 0 2.214.396c1.044 0 1.848-.234 2.412-.702.576-.468.864-1.092.864-1.872 0-.864-.324-1.518-.972-1.962-.636-.444-1.716-.666-3.24-.666h-2.682l.648-6.318h6.894v1.152h-5.76l-.432 4.014h1.62zm7.856 7.524a.934.934 0 0 1-.684-.288.989.989 0 0 1-.27-.702c0-.276.09-.504.27-.684a.934.934 0 0 1 .684-.288c.264 0 .492.096.684.288.192.18.288.408.288.684 0 .276-.096.51-.288.702a.934.934 0 0 1-.684.288zm6.123-12.69v12.6h-1.296v-11.448h-2.97v-1.152h4.266zm6.324 5.166c1.824 0 3.15.33 3.978.99.84.648 1.26 1.56 1.26 2.736 0 .732-.174 1.386-.522 1.962-.336.576-.846 1.032-1.53 1.368-.684.324-1.524.486-2.52.486-.9 0-1.758-.144-2.574-.432-.804-.3-1.452-.696-1.944-1.188l.63-1.026c.42.432.972.786 1.656 1.062a6.096 6.096 0 0 0 2.214.396c1.044 0 1.848-.234 2.412-.702.576-.468.864-1.092.864-1.872 0-.864-.324-1.518-.972-1.962-.636-.444-1.716-.666-3.24-.666h-2.682l.648-6.318h6.894v1.152h-5.76l-.432 4.014h1.62z" fill="#20201F"/></g><defs><clipPath id="a"><path fill="#fff" transform="translate(40 29)" d="M0 0h419.088v542.578H0z"/></clipPath></defs></svg>