<svg width="500" height="600" viewBox="0 0 500 600" fill="none" xmlns="http://www.w3.org/2000/svg">
<rect width="500" height="600" fill="white"/>
<g clip-path="url(#clip0_2384_28729)">
<path fill-rule="evenodd" clip-rule="evenodd" d="M28 112.654H271.957V46.7788L460.228 35H467.785V112.654H471.368V431.812V530.067V565.402H209.579V530.067H28V112.654Z" fill="#94D0F5"/>
<path fill-rule="evenodd" clip-rule="evenodd" d="M28 112.654H271.957V46.7788L460.228 35H467.785V112.654H471.368V431.812V530.067V565.402H209.579V530.067H28V112.654Z" fill="#FFF9D0"/>
<path d="M307.8 128.224H271.862V164.157H307.8V128.224Z" fill="#20201F"/>
<path d="M42.9754 143.197H28V530.067H42.9754V143.197Z" fill="#20201F"/>
<path d="M471.368 143.243H456.393V565.402H471.368V143.243Z" fill="#20201F"/>
<path d="M471.368 550.428H332.351V565.402H471.368V550.428Z" fill="#20201F"/>
<path d="M272.466 550.428H209.58V565.402H272.466V550.428Z" fill="#20201F"/>
<path d="M224.555 515.095H209.58V565.402H224.555V515.095Z" fill="#20201F"/>
<path d="M224.555 515.095H28.1226V530.067H224.555V515.095Z" fill="#20201F"/>
<path d="M83.8233 120.439H28V143.197H83.8233V120.439Z" fill="#20201F"/>
<path d="M307.8 120.439H209.58V143.196H307.8V120.439Z" fill="#20201F"/>
<path d="M471.368 120.439H385.653V143.197H471.368V120.439Z" fill="#20201F"/>
<path d="M87.4119 112.654H28V120.439H87.4119V112.654Z" fill="#20201F"/>
<path d="M307.8 112.653H205.991V120.439H307.8V112.653Z" fill="#20201F"/>
<path d="M471.368 112.654H385.653V120.439H471.368V112.654Z" fill="#20201F"/>
<path fill-rule="evenodd" clip-rule="evenodd" d="M271.957 46.7788L460.709 35H471.368V41.5344L467.785 41.7581V112.654H460.599V42.2062L279.142 53.5301V112.654H271.957V46.7788Z" fill="#20201F"/>
<path d="M276.659 164.157H271.862V374.36H276.659V164.157Z" fill="#20201F"/>
<path d="M279.524 369.569H219.767V374.36H279.524V369.569Z" fill="#20201F"/>
<path d="M224.523 369.569H219.767V378.245H224.523V369.569Z" fill="#20201F"/>
<path d="M456.392 369.569H388.808V374.36H456.392V369.569Z" fill="#20201F"/>
<path d="M388.808 369.569H337.138V374.36H388.808V369.569Z" fill="#20201F"/>
<path d="M337.139 369.569H327.436V374.36H337.139V369.569Z" fill="#20201F"/>
<path d="M337.138 374.36H332.351V461.466H337.138V374.36Z" fill="#20201F"/>
<path d="M471.368 369.569H471.289V374.36H471.368V369.569Z" fill="#20201F"/>
<path d="M224.555 432.143H219.767V515.095H224.555V432.143Z" fill="#20201F"/>
<path d="M337.138 503.386H332.351V550.428H337.138V503.386Z" fill="#20201F"/>
<path d="M205.99 112.654H87.4033V116.506H205.99V112.654Z" fill="#20201F"/>
<path d="M209.58 120.419H83.814V124.27H209.58V120.419Z" fill="#20201F"/>
<path d="M209.58 139.324H83.814V143.175H209.58V139.324Z" fill="#20201F"/>
<path d="M337.744 112.652H307.801V116.504H337.744V112.652Z" fill="#20201F"/>
<path d="M337.744 120.417H307.8V124.268H337.744V120.417Z" fill="#20201F"/>
<path d="M337.744 139.322H307.8V143.173H337.744V139.322Z" fill="#20201F"/>
<path d="M337.744 112.652H334.917V143.195H337.744V112.652Z" fill="#20201F"/>
<path fill-rule="evenodd" clip-rule="evenodd" d="M380.479 121.965C380.479 121.026 381.241 120.264 382.18 120.264C383.119 120.264 383.881 121.026 383.881 121.965V157.961C383.881 158.9 383.119 159.662 382.18 159.662C381.241 159.662 380.479 158.9 380.479 157.961V121.965Z" fill="#20201F"/>
<path fill-rule="evenodd" clip-rule="evenodd" d="M339.201 121.623C339.201 121.153 339.582 120.772 340.052 120.772C340.521 120.772 340.902 121.153 340.902 121.623C340.902 131.42 344.954 140.292 351.501 146.711C358.054 153.135 367.11 157.111 377.112 157.111C377.581 157.111 377.962 157.492 377.962 157.961C377.962 158.43 377.581 158.811 377.112 158.811C366.652 158.811 357.175 154.649 350.312 147.92C343.449 141.191 339.201 131.892 339.201 121.623Z" fill="#20201F"/>
<path fill-rule="evenodd" clip-rule="evenodd" d="M222.117 427.157C223.056 427.157 223.818 427.919 223.818 428.858C223.818 429.797 223.056 430.559 222.117 430.559H186.121C185.182 430.559 184.42 429.797 184.42 428.858C184.42 427.919 185.182 427.157 186.121 427.157H222.117Z" fill="#20201F"/>
<path fill-rule="evenodd" clip-rule="evenodd" d="M222.459 380.671C222.929 380.671 223.31 381.052 223.31 381.521C223.31 381.99 222.929 382.371 222.459 382.371C212.68 382.371 203.821 386.923 197.404 394.277C190.96 401.663 186.971 411.877 186.971 423.164C186.971 423.633 186.59 424.014 186.121 424.014C185.652 424.014 185.271 423.633 185.271 423.164C185.271 411.458 189.421 400.848 196.128 393.161C202.861 385.445 212.171 380.671 222.459 380.671Z" fill="#20201F"/>
<path fill-rule="evenodd" clip-rule="evenodd" d="M285.041 371.615C285.041 372.554 284.279 373.315 283.34 373.315C282.402 373.315 281.64 372.554 281.64 371.615V335.618C281.64 334.68 282.402 333.918 283.34 333.918C284.279 333.918 285.041 334.68 285.041 335.618V371.615Z" fill="#20201F"/>
<path fill-rule="evenodd" clip-rule="evenodd" d="M325.047 371.957C325.047 372.426 324.666 372.807 324.197 372.807C323.727 372.807 323.346 372.426 323.346 371.957C323.346 362.157 319.416 353.283 313.064 346.862C306.713 340.441 297.941 336.469 288.255 336.469C287.785 336.469 287.404 336.088 287.404 335.618C287.404 335.149 287.785 334.768 288.255 334.768C298.413 334.768 307.614 338.933 314.273 345.666C320.928 352.394 325.047 361.691 325.047 371.957Z" fill="#20201F"/>
<path fill-rule="evenodd" clip-rule="evenodd" d="M334.855 466.486C333.916 466.486 333.154 465.724 333.154 464.786C333.154 463.847 333.916 463.085 334.855 463.085H370.851C371.79 463.085 372.552 463.847 372.552 464.786C372.552 465.724 371.79 466.486 370.851 466.486H334.855Z" fill="#20201F"/>
<path fill-rule="evenodd" clip-rule="evenodd" d="M334.513 501.228C334.043 501.228 333.662 500.847 333.662 500.378C333.662 499.909 334.043 499.528 334.513 499.528C344.338 499.528 353.227 496.101 359.651 490.565C366.044 485.056 370 477.454 370 469.067C370 468.598 370.381 468.217 370.851 468.217C371.32 468.217 371.701 468.598 371.701 469.067C371.701 477.969 367.519 486.024 360.76 491.848C354.036 497.642 344.754 501.228 334.513 501.228Z" fill="#20201F"/>
<path fill-rule="evenodd" clip-rule="evenodd" d="M331.19 562.926C331.19 563.865 330.428 564.627 329.489 564.627C328.551 564.627 327.789 563.865 327.789 562.926V526.93C327.789 525.991 328.551 525.229 329.489 525.229C330.428 525.229 331.19 525.991 331.19 526.93V562.926Z" fill="#20201F"/>
<path fill-rule="evenodd" clip-rule="evenodd" d="M276.114 563.268C276.114 563.737 275.733 564.118 275.264 564.118C274.795 564.118 274.414 563.737 274.414 563.268C274.414 552.955 279.883 543.633 288.722 536.9C297.498 530.216 309.608 526.079 322.967 526.079C323.436 526.079 323.817 526.46 323.817 526.93C323.817 527.399 323.436 527.78 322.967 527.78C309.986 527.78 298.242 531.782 289.751 538.248C281.327 544.666 276.114 553.514 276.114 563.268Z" fill="#20201F"/>
<path fill-rule="evenodd" clip-rule="evenodd" d="M453.879 231.083V321.437H417.737V230.02H453.879V231.083ZM449.606 293.158C449.606 292.164 449.199 291.258 448.541 290.604C447.886 289.951 446.983 289.543 445.992 289.543H425.582C424.591 289.543 423.688 289.951 423.029 290.604C422.375 291.258 421.968 292.164 421.968 293.158V313.568C421.968 314.559 422.375 315.463 423.029 316.121C423.682 316.775 424.587 317.181 425.582 317.181H445.992C446.987 317.181 447.892 316.775 448.543 316.118C449.199 315.463 449.606 314.559 449.606 313.568V293.158ZM447.917 241.593C447.917 240.217 447.357 238.967 446.453 238.061C445.549 237.157 444.299 236.597 442.921 236.597C441.546 236.597 440.297 237.157 439.389 238.064C438.485 238.969 437.925 240.218 437.925 241.593C437.925 242.971 438.485 244.221 439.391 245.123C440.295 246.029 441.545 246.589 442.921 246.589C444.299 246.589 445.549 246.029 446.453 245.125C447.357 244.221 447.917 242.971 447.917 241.593ZM434.754 241.593C434.754 239.921 434.074 238.406 432.978 237.309C431.882 236.213 430.366 235.534 428.695 235.534C427.023 235.534 425.507 236.213 424.411 237.309C423.315 238.406 422.636 239.921 422.636 241.593C422.636 243.264 423.315 244.78 424.411 245.876C425.507 246.973 427.023 247.652 428.695 247.652C430.366 247.652 431.882 246.973 432.978 245.876C434.074 244.78 434.754 243.264 434.754 241.593ZM431.927 244.825C432.753 244 433.266 242.855 433.266 241.593C433.266 240.33 432.753 239.186 431.927 238.361C431.101 237.535 429.957 237.022 428.695 237.022C427.432 237.022 426.288 237.535 425.462 238.361C424.637 239.186 424.124 240.33 424.124 241.593C424.124 242.855 424.637 244 425.462 244.825C426.288 245.651 427.432 246.164 428.695 246.164C429.957 246.164 431.101 245.651 431.927 244.825ZM448.98 254.588C448.98 252.916 448.301 251.4 447.204 250.304C446.108 249.208 444.593 248.529 442.921 248.529C441.249 248.529 439.733 249.207 438.637 250.303C437.541 251.4 436.862 252.916 436.862 254.588C436.862 256.26 437.541 257.775 438.638 258.871C439.734 259.967 441.249 260.647 442.921 260.647C444.592 260.647 446.108 259.967 447.204 258.871C448.301 257.775 448.98 256.259 448.98 254.588ZM446.153 257.82C446.979 256.994 447.492 255.85 447.492 254.588C447.492 253.325 446.979 252.181 446.153 251.355C445.328 250.53 444.184 250.017 442.921 250.017C441.658 250.017 440.513 250.529 439.688 251.355C438.862 252.18 438.35 253.325 438.35 254.588C438.35 255.851 438.863 256.994 439.689 257.82C440.514 258.646 441.658 259.159 442.921 259.159C444.183 259.159 445.328 258.646 446.153 257.82ZM433.691 254.588C433.691 253.212 433.13 251.962 432.226 251.056C431.322 250.152 430.072 249.592 428.695 249.592C427.32 249.592 426.07 250.152 425.163 251.059C424.259 251.964 423.699 253.213 423.699 254.588C423.699 255.965 424.259 257.215 425.165 258.118C426.069 259.023 427.319 259.584 428.695 259.584C430.072 259.584 431.322 259.023 432.226 258.12C433.13 257.215 433.691 255.965 433.691 254.588ZM431.175 257.068C431.809 256.435 432.203 255.556 432.203 254.588C432.203 253.617 431.811 252.739 431.178 252.107C430.542 251.474 429.663 251.08 428.695 251.08C427.724 251.08 426.846 251.472 426.214 252.105C425.579 252.739 425.187 253.617 425.187 254.588C425.187 255.556 425.581 256.435 426.214 257.068C426.846 257.704 427.724 258.096 428.695 258.096C429.663 258.096 430.542 257.702 431.175 257.068ZM445.402 244.074C446.035 243.44 446.429 242.562 446.429 241.593C446.429 240.622 446.037 239.744 445.404 239.112C444.768 238.479 443.89 238.085 442.921 238.085C441.95 238.085 441.072 238.477 440.44 239.11C439.805 239.744 439.413 240.622 439.413 241.593C439.413 242.562 439.807 243.44 440.44 244.074C441.072 244.709 441.95 245.101 442.921 245.101C443.89 245.101 444.768 244.707 445.402 244.074ZM447.48 313.568V293.158C447.48 292.75 447.312 292.377 447.042 292.107C446.775 291.837 446.402 291.669 445.992 291.669H425.582C425.172 291.669 424.799 291.837 424.53 292.105C424.262 292.377 424.094 292.75 424.094 293.158V313.568C424.094 313.978 424.261 314.35 424.528 314.617C424.802 314.887 425.176 315.055 425.582 315.055H445.992C446.398 315.055 446.772 314.887 447.042 314.617C447.313 314.35 447.48 313.978 447.48 313.568ZM419.863 264.001H451.753V232.146H419.863V264.001ZM451.753 266.127H419.863V319.311H451.753V266.127Z" fill="#20201F"/>
<path fill-rule="evenodd" clip-rule="evenodd" d="M421.09 527.18C423.887 528.978 427.476 530.089 430.631 530.089C433.736 530.089 436.16 529.024 437.847 527.279V527.274C438.485 526.614 438.979 525.829 439.397 524.999V528.586C439.397 530.728 440.292 531.983 441.728 532.712C443.035 533.377 444.764 533.541 446.66 533.541H447.442V533.521C449.022 533.477 450.464 533.28 451.588 532.712C453.023 531.983 453.914 530.728 453.914 528.597V511.002C453.914 508.862 453.023 507.608 451.588 506.884C450.464 506.32 449.022 506.116 447.442 506.074V506.054H446.66C444.764 506.054 443.035 506.219 441.728 506.884C440.292 507.608 439.397 508.862 439.397 511.002V514.597C438.979 513.766 438.49 512.984 437.847 512.322C436.16 510.574 433.736 509.508 430.631 509.508C427.296 509.508 423.48 510.751 420.617 512.733C417.976 514.563 416.122 517.036 416.122 519.798C416.122 522.722 418.201 525.326 421.09 527.18ZM448.993 519.291H448.998V519.293C448.998 519.924 448.735 520.505 448.317 520.924V520.929C447.9 521.345 447.324 521.604 446.685 521.604C446.046 521.604 445.475 521.345 445.058 520.929H445.05L445.051 520.924C444.633 520.503 444.376 519.924 444.376 519.293C444.376 518.652 444.633 518.073 445.05 517.658C445.467 517.241 446.046 516.98 446.685 516.98C447.324 516.98 447.895 517.241 448.317 517.658C448.735 518.073 448.993 518.652 448.993 519.291ZM447.81 519.288V519.293C447.81 519.605 447.686 519.886 447.49 520.086H447.482C447.281 520.287 446.995 520.416 446.685 520.416C446.37 520.416 446.081 520.291 445.885 520.096L445.88 520.088C445.683 519.886 445.557 519.605 445.557 519.293C445.557 518.971 445.683 518.691 445.88 518.491C446.081 518.294 446.37 518.17 446.685 518.17C447 518.17 447.286 518.294 447.482 518.5C447.691 518.696 447.818 518.98 447.818 519.288H447.81ZM440.96 511.002C440.96 509.558 441.527 508.733 442.426 508.273C443.358 507.809 444.65 507.652 446.111 507.625H446.66C448.343 507.625 449.851 507.753 450.89 508.273C451.789 508.733 452.35 509.56 452.35 511.002V528.597C452.35 530.037 451.789 530.86 450.89 531.32C449.851 531.843 448.343 531.97 446.66 531.97H446.051C444.62 531.938 443.337 531.784 442.426 531.322C441.519 530.86 440.96 530.03 440.96 528.586V511.002ZM421.502 514.013C424.114 512.202 427.595 511.069 430.631 511.069C433.284 511.069 435.325 511.955 436.725 513.402C438.259 514.984 439.051 517.263 439.051 519.798C439.051 522.336 438.259 524.613 436.725 526.199C435.325 527.642 433.284 528.527 430.631 528.527C427.763 528.527 424.488 527.512 421.929 525.869C419.462 524.285 417.685 522.129 417.685 519.798C417.685 517.606 419.265 515.569 421.502 514.013Z" fill="#20201F"/>
<path fill-rule="evenodd" clip-rule="evenodd" d="M372.429 548.876L352.939 548.882C346.42 548.882 347.188 535.39 347.255 534.489C347.255 531.366 348.529 528.532 350.582 526.482C352.63 524.435 355.469 523.166 358.591 523.166H366.862C369.991 523.166 372.826 524.432 374.88 526.482C376.926 528.532 378.195 531.371 378.209 534.494C378.251 535.41 378.922 548.882 372.429 548.876ZM362.723 535.733V535.731C363.409 535.724 364.041 535.454 364.493 535.003C364.937 534.545 365.211 533.92 365.211 533.238C365.211 532.549 364.935 531.923 364.484 531.474C364.033 531.022 363.409 530.746 362.721 530.746C362.037 530.746 361.412 531.022 360.961 531.474H360.953V531.479C360.502 531.928 360.221 532.549 360.221 533.238C360.221 533.92 360.502 534.554 360.953 535.003H360.955C361.406 535.454 362.037 535.737 362.721 535.737L362.723 535.733ZM362.727 534.462C363.053 534.462 363.36 534.327 363.58 534.102C363.794 533.888 363.932 533.58 363.932 533.238C363.932 532.898 363.8 532.589 363.586 532.369C363.364 532.157 363.064 532.018 362.721 532.021C362.377 532.021 362.08 532.155 361.86 532.369L361.855 532.374C361.636 532.589 361.503 532.898 361.503 533.238C361.503 533.574 361.645 533.882 361.857 534.102L361.862 534.105C362.077 534.321 362.384 534.451 362.716 534.451L362.727 534.448V534.462ZM362.723 544.127C365.865 544.127 368.718 543.19 370.792 541.688C372.947 540.116 374.286 537.92 374.288 535.487C374.288 533.045 372.947 530.85 370.792 529.275C368.71 527.764 365.856 526.836 362.713 526.836H362.699C359.565 526.844 356.719 527.779 354.639 529.285C352.493 530.855 351.156 533.045 351.154 535.474L351.156 535.487C351.156 537.926 352.493 540.109 354.656 541.688C356.725 543.193 359.576 544.127 362.716 544.124L362.723 544.127ZM362.723 542.369C365.477 542.364 367.965 541.556 369.764 540.257C371.463 539.016 372.52 537.324 372.52 535.487C372.52 533.639 371.463 531.947 369.751 530.701C367.961 529.407 365.477 528.602 362.713 528.602H362.708L362.699 528.597C359.943 528.602 357.465 529.407 355.675 530.708C353.981 531.945 352.925 533.639 352.92 535.474L352.925 535.487C352.922 537.328 353.979 539.021 355.681 540.257C357.472 541.551 359.957 542.364 362.713 542.361H362.723V542.369ZM372.423 547.117C377.262 547.117 376.438 534.591 376.438 534.559L376.43 534.494C376.43 531.854 375.364 529.467 373.639 527.73C371.898 526 369.506 524.931 366.862 524.931H358.6C355.946 524.931 353.55 525.994 351.817 527.73C350.086 529.458 349.021 531.854 349.016 534.494L349.013 534.556C349.013 534.588 348.125 547.117 352.944 547.117H372.423Z" fill="#20201F"/>
<path fill-rule="evenodd" clip-rule="evenodd" d="M451.509 480.789V379.2H409.95V480.789H451.509ZM426.69 460.993C426.69 459.877 427.142 458.867 427.873 458.137C428.607 457.406 429.616 456.954 430.729 456.954C431.842 456.954 432.852 457.406 433.583 458.137C434.316 458.871 434.769 459.88 434.769 460.993C434.769 462.107 434.316 463.115 433.586 463.847C432.856 464.58 431.845 465.033 430.729 465.033C429.614 465.033 428.603 464.58 427.873 463.85C427.142 463.12 426.69 462.109 426.69 460.993ZM429.014 459.278C429.451 458.841 430.059 458.57 430.729 458.57C431.4 458.57 432.007 458.841 432.445 459.278C432.881 459.715 433.153 460.323 433.153 460.993C433.153 461.664 432.881 462.271 432.444 462.708C432.005 463.146 431.398 463.417 430.729 463.417C430.06 463.417 429.454 463.146 429.015 462.708C428.577 462.269 428.306 461.662 428.306 460.993C428.306 460.324 428.577 459.718 429.014 459.278ZM411.139 473.121L412.755 401.409C412.755 390.638 419.959 381.818 430.729 381.818C441.5 381.818 448.704 390.638 448.704 401.409L450.32 473.121C450.32 474.511 449.751 475.774 448.837 476.688C447.919 477.602 446.657 478.17 445.27 478.17H416.188C414.804 478.17 413.542 477.602 412.626 476.688C411.707 475.768 411.139 474.506 411.139 473.121ZM414.775 401.409C414.775 391.742 421.062 383.838 430.729 383.838C440.396 383.838 446.684 391.742 446.684 401.409L448.3 473.121C448.3 473.952 447.958 474.71 447.409 475.264C446.862 475.81 446.105 476.151 445.27 476.151H416.188C415.354 476.151 414.597 475.81 414.046 475.259C413.499 474.713 413.159 473.956 413.159 473.121L414.775 401.409ZM453.487 378.987V481.002C453.487 481.509 453.286 481.972 452.967 482.307C452.647 482.645 452.201 482.853 451.712 482.853H409.746C409.258 482.853 408.812 482.645 408.492 482.311C408.171 481.976 407.972 481.512 407.972 481.002V378.987C407.972 378.477 408.171 378.013 408.492 377.677C408.816 377.345 409.26 377.135 409.746 377.135H451.712C452.199 377.135 452.642 377.344 452.964 377.677C453.287 378.017 453.487 378.479 453.487 378.987Z" fill="#20201F"/>
<path d="M144.235 180H142.109V281.095H144.235V180Z" fill="#20201F"/>
<path d="M171.491 204.764V206.078H161.409V205.031L167.384 199.179C168.137 198.44 168.644 197.803 168.904 197.269C169.177 196.722 169.314 196.174 169.314 195.627C169.314 194.778 169.02 194.121 168.431 193.656C167.856 193.176 167.028 192.937 165.947 192.937C164.263 192.937 162.956 193.471 162.025 194.538L160.978 193.635C161.539 192.978 162.251 192.471 163.113 192.116C163.989 191.76 164.975 191.582 166.07 191.582C167.535 191.582 168.691 191.931 169.54 192.629C170.403 193.313 170.834 194.258 170.834 195.462C170.834 196.202 170.669 196.913 170.341 197.598C170.012 198.282 169.39 199.069 168.472 199.959L163.586 204.764H171.491ZM177.329 191.705V206.078H175.851V193.019H172.463V191.705H177.329ZM181.874 206.181C181.573 206.181 181.313 206.071 181.094 205.852C180.888 205.633 180.786 205.366 180.786 205.051C180.786 204.736 180.888 204.476 181.094 204.271C181.313 204.052 181.573 203.942 181.874 203.942C182.175 203.942 182.435 204.052 182.654 204.271C182.873 204.476 182.983 204.736 182.983 205.051C182.983 205.366 182.873 205.633 182.654 205.852C182.435 206.071 182.175 206.181 181.874 206.181ZM195.132 204.764V206.078H185.05V205.031L191.025 199.179C191.778 198.44 192.284 197.803 192.544 197.269C192.818 196.722 192.955 196.174 192.955 195.627C192.955 194.778 192.661 194.121 192.072 193.656C191.497 193.176 190.669 192.937 189.588 192.937C187.904 192.937 186.597 193.471 185.666 194.538L184.619 193.635C185.18 192.978 185.892 192.471 186.754 192.116C187.63 191.76 188.616 191.582 189.711 191.582C191.176 191.582 192.332 191.931 193.181 192.629C194.043 193.313 194.475 194.258 194.475 195.462C194.475 196.202 194.31 196.913 193.982 197.598C193.653 198.282 193.03 199.069 192.113 199.959L187.226 204.764H195.132ZM206.802 204.764V206.078H196.72V205.031L202.695 199.179C203.448 198.44 203.954 197.803 204.214 197.269C204.488 196.722 204.625 196.174 204.625 195.627C204.625 194.778 204.331 194.121 203.742 193.656C203.167 193.176 202.339 192.937 201.258 192.937C199.574 192.937 198.267 193.471 197.336 194.538L196.289 193.635C196.85 192.978 197.562 192.471 198.424 192.116C199.3 191.76 200.286 191.582 201.381 191.582C202.846 191.582 204.002 191.931 204.851 192.629C205.713 193.313 206.145 194.258 206.145 195.462C206.145 196.202 205.98 196.913 205.652 197.598C205.323 198.282 204.7 199.069 203.783 199.959L198.896 204.764H206.802Z" fill="#20201F"/>
<path d="M169.92 231.586H167.046V235.364H165.568V231.586H157.457V230.518L165.075 220.991H166.717L159.367 230.272H165.609V226.946H167.046V230.272H169.92V231.586ZM181.013 234.05V235.364H170.931V234.317L176.906 228.465C177.659 227.726 178.166 227.089 178.426 226.555C178.699 226.008 178.836 225.46 178.836 224.913C178.836 224.064 178.542 223.407 177.953 222.942C177.379 222.463 176.55 222.223 175.469 222.223C173.785 222.223 172.478 222.757 171.547 223.825L170.5 222.921C171.061 222.264 171.773 221.758 172.635 221.402C173.512 221.046 174.497 220.868 175.592 220.868C177.057 220.868 178.214 221.217 179.062 221.915C179.925 222.599 180.356 223.544 180.356 224.749C180.356 225.488 180.192 226.2 179.863 226.884C179.534 227.568 178.912 228.355 177.995 229.245L173.108 234.05H181.013ZM184.177 235.467C183.876 235.467 183.616 235.357 183.397 235.138C183.192 234.919 183.089 234.652 183.089 234.337C183.089 234.023 183.192 233.762 183.397 233.557C183.616 233.338 183.876 233.229 184.177 233.229C184.479 233.229 184.739 233.338 184.958 233.557C185.177 233.762 185.286 234.023 185.286 234.337C185.286 234.652 185.177 234.919 184.958 235.138C184.739 235.357 184.479 235.467 184.177 235.467ZM191.198 226.884C193.279 226.884 194.791 227.26 195.736 228.013C196.694 228.752 197.173 229.793 197.173 231.134C197.173 231.969 196.974 232.715 196.577 233.372C196.194 234.029 195.612 234.55 194.832 234.933C194.052 235.302 193.094 235.487 191.958 235.487C190.931 235.487 189.952 235.323 189.021 234.994C188.104 234.652 187.365 234.2 186.804 233.639L187.523 232.469C188.002 232.962 188.631 233.365 189.412 233.68C190.192 233.981 191.034 234.132 191.937 234.132C193.128 234.132 194.045 233.865 194.688 233.331C195.346 232.797 195.674 232.086 195.674 231.196C195.674 230.21 195.304 229.464 194.565 228.958C193.84 228.451 192.608 228.198 190.869 228.198H187.81L188.549 220.991H196.413V222.305H189.843L189.35 226.884H191.198ZM211.267 231.586H208.392V235.364H206.914V231.586H198.803V230.518L206.421 220.991H208.064L200.713 230.272H206.955V226.946H208.392V230.272H211.267V231.586Z" fill="#20201F"/>
<path d="M171.183 260.872H168.309V264.65H166.83V260.872H158.72V259.804L166.337 250.277H167.98L160.629 259.558H166.871V256.231H168.309V259.558H171.183V260.872ZM177.127 256.437C178.633 256.519 179.776 256.929 180.556 257.669C181.35 258.394 181.747 259.345 181.747 260.523C181.747 261.344 181.548 262.076 181.152 262.72C180.755 263.349 180.166 263.849 179.386 264.218C178.605 264.588 177.654 264.773 176.532 264.773C175.491 264.773 174.506 264.609 173.575 264.28C172.658 263.938 171.919 263.486 171.357 262.925L172.076 261.755C172.555 262.247 173.192 262.651 173.986 262.966C174.78 263.267 175.628 263.418 176.532 263.418C177.709 263.418 178.619 263.164 179.262 262.658C179.906 262.138 180.228 261.426 180.228 260.523C180.228 259.633 179.906 258.935 179.262 258.428C178.619 257.922 177.647 257.669 176.347 257.669H175.32V256.58L179.304 251.591H171.953V250.277H181.193V251.324L177.127 256.437ZM184.939 264.752C184.638 264.752 184.378 264.643 184.159 264.424C183.953 264.205 183.851 263.938 183.851 263.623C183.851 263.308 183.953 263.048 184.159 262.843C184.378 262.624 184.638 262.514 184.939 262.514C185.24 262.514 185.5 262.624 185.719 262.843C185.938 263.048 186.048 263.308 186.048 263.623C186.048 263.938 185.938 264.205 185.719 264.424C185.5 264.643 185.24 264.752 184.939 264.752ZM191.959 256.17C194.04 256.17 195.553 256.546 196.497 257.299C197.455 258.038 197.934 259.078 197.934 260.42C197.934 261.255 197.736 262.001 197.339 262.658C196.956 263.315 196.374 263.835 195.594 264.218C194.813 264.588 193.855 264.773 192.719 264.773C191.692 264.773 190.714 264.609 189.783 264.28C188.866 263.938 188.127 263.486 187.565 262.925L188.284 261.755C188.763 262.247 189.393 262.651 190.173 262.966C190.953 263.267 191.795 263.418 192.698 263.418C193.889 263.418 194.807 263.151 195.45 262.617C196.107 262.083 196.435 261.371 196.435 260.481C196.435 259.496 196.066 258.75 195.327 258.243C194.601 257.737 193.369 257.484 191.631 257.484H188.571L189.311 250.277H197.175V251.591H190.604L190.111 256.17H191.959ZM209.526 263.336V264.65H199.444V263.602L205.419 257.751C206.172 257.011 206.678 256.375 206.938 255.841C207.212 255.294 207.349 254.746 207.349 254.198C207.349 253.35 207.055 252.693 206.466 252.227C205.891 251.748 205.063 251.509 203.982 251.509C202.298 251.509 200.991 252.043 200.06 253.11L199.013 252.207C199.574 251.55 200.286 251.043 201.148 250.687C202.024 250.331 203.01 250.154 204.105 250.154C205.57 250.154 206.726 250.503 207.575 251.201C208.437 251.885 208.869 252.83 208.869 254.034C208.869 254.773 208.704 255.485 208.376 256.17C208.047 256.854 207.424 257.641 206.507 258.531L201.62 263.336H209.526Z" fill="#20201F"/>
<path d="M125.667 211.756V252H116.354V219.23H108.305V211.756H125.667Z" fill="#20201F"/>
<path d="M83.3613 458.096H77.6942V466.514H74.5116V455.468H83.3613V458.096ZM89.7718 466.679C88.6083 466.679 87.5611 466.439 86.6303 465.96C85.7132 465.467 84.9945 464.79 84.4744 463.927C83.9542 463.065 83.6941 462.086 83.6941 460.991C83.6941 459.896 83.9542 458.917 84.4744 458.055C84.9945 457.193 85.7132 456.522 86.6303 456.043C87.5611 455.55 88.6083 455.303 89.7718 455.303C90.9354 455.303 91.9757 455.55 92.8928 456.043C93.81 456.522 94.5286 457.193 95.0488 458.055C95.5689 458.917 95.829 459.896 95.829 460.991C95.829 462.086 95.5689 463.065 95.0488 463.927C94.5286 464.79 93.81 465.467 92.8928 465.96C91.9757 466.439 90.9354 466.679 89.7718 466.679ZM89.7718 464.05C90.5932 464.05 91.2639 463.777 91.7841 463.229C92.3179 462.668 92.5848 461.922 92.5848 460.991C92.5848 460.06 92.3179 459.321 91.7841 458.774C91.2639 458.212 90.5932 457.932 89.7718 457.932C88.9505 457.932 88.2729 458.212 87.7391 458.774C87.2052 459.321 86.9383 460.06 86.9383 460.991C86.9383 461.922 87.2052 462.668 87.7391 463.229C88.2729 463.777 88.9505 464.05 89.7718 464.05ZM103.289 466.679C102.111 466.679 101.05 466.439 100.106 465.96C99.1751 465.467 98.4428 464.79 97.9089 463.927C97.3888 463.065 97.1287 462.086 97.1287 460.991C97.1287 459.896 97.3888 458.917 97.9089 458.055C98.4428 457.193 99.1751 456.522 100.106 456.043C101.05 455.55 102.111 455.303 103.289 455.303C104.452 455.303 105.465 455.55 106.327 456.043C107.203 456.522 107.84 457.213 108.237 458.116L105.752 459.451C105.178 458.438 104.349 457.932 103.268 457.932C102.433 457.932 101.742 458.205 101.194 458.753C100.647 459.301 100.373 460.047 100.373 460.991C100.373 461.936 100.647 462.682 101.194 463.229C101.742 463.777 102.433 464.05 103.268 464.05C104.363 464.05 105.191 463.544 105.752 462.531L108.237 463.886C107.84 464.762 107.203 465.447 106.327 465.939C105.465 466.432 104.452 466.679 103.289 466.679ZM119.424 458.096H115.687V466.514H112.505V458.096H108.768V455.468H119.424V458.096ZM121.132 455.468H124.314V462.038L129.694 455.468H132.63V466.514H129.447V459.944L124.088 466.514H121.132V455.468ZM135.709 455.468H138.892V459.78H143.696V455.468H146.899V466.514H143.696V462.387H138.892V466.514H135.709V455.468ZM154.257 455.303C155.968 455.303 157.282 455.714 158.199 456.535C159.116 457.343 159.575 458.568 159.575 460.211V466.514H156.577V465.139C155.975 466.165 154.852 466.679 153.21 466.679C152.361 466.679 151.622 466.535 150.992 466.247C150.376 465.96 149.904 465.563 149.576 465.057C149.247 464.55 149.083 463.975 149.083 463.332C149.083 462.305 149.466 461.498 150.233 460.909C151.013 460.32 152.211 460.026 153.826 460.026H156.372C156.372 459.328 156.16 458.794 155.735 458.424C155.311 458.041 154.675 457.85 153.826 457.85C153.237 457.85 152.655 457.945 152.081 458.137C151.519 458.315 151.04 458.561 150.643 458.876L149.493 456.638C150.096 456.214 150.814 455.885 151.649 455.653C152.498 455.42 153.367 455.303 154.257 455.303ZM154.011 464.523C154.558 464.523 155.044 464.4 155.468 464.153C155.893 463.893 156.194 463.517 156.372 463.024V461.895H154.175C152.861 461.895 152.204 462.326 152.204 463.188C152.204 463.599 152.361 463.927 152.676 464.174C153.005 464.406 153.449 464.523 154.011 464.523ZM172.172 455.468V466.514H169.318V463.352H166.957L164.863 466.514H161.454L163.98 462.901C163.213 462.599 162.624 462.168 162.214 461.607C161.817 461.032 161.618 460.341 161.618 459.533C161.618 458.233 162.084 457.234 163.015 456.535C163.959 455.824 165.253 455.468 166.895 455.468H172.172ZM166.957 458.075C166.272 458.075 165.752 458.199 165.396 458.445C165.054 458.691 164.883 459.088 164.883 459.636C164.883 460.183 165.047 460.587 165.376 460.847C165.718 461.094 166.231 461.217 166.916 461.217H169.318V458.075H166.957Z" fill="#20201F"/>
<path d="M109.816 493.09V495.8H98.9539V493.644L104.498 488.408C105.086 487.847 105.483 487.368 105.689 486.971C105.894 486.56 105.997 486.156 105.997 485.76C105.997 485.185 105.798 484.747 105.401 484.445C105.018 484.131 104.45 483.973 103.697 483.973C103.067 483.973 102.499 484.096 101.993 484.343C101.486 484.575 101.062 484.931 100.72 485.41L98.2969 483.85C98.8581 483.015 99.6315 482.365 100.617 481.899C101.603 481.42 102.732 481.181 104.005 481.181C105.073 481.181 106.004 481.359 106.797 481.715C107.605 482.057 108.228 482.55 108.666 483.193C109.118 483.823 109.344 484.569 109.344 485.431C109.344 486.211 109.179 486.944 108.851 487.628C108.522 488.312 107.886 489.093 106.941 489.969L103.635 493.09H109.816ZM116.732 481.427V495.8H113.406V484.096H110.531V481.427H116.732ZM121.118 495.964C120.557 495.964 120.085 495.773 119.701 495.389C119.318 495.006 119.126 494.527 119.126 493.952C119.126 493.363 119.318 492.891 119.701 492.535C120.085 492.166 120.557 491.981 121.118 491.981C121.679 491.981 122.151 492.166 122.535 492.535C122.918 492.891 123.11 493.363 123.11 493.952C123.11 494.527 122.918 495.006 122.535 495.389C122.151 495.773 121.679 495.964 121.118 495.964ZM135.542 493.09V495.8H124.68V493.644L130.224 488.408C130.813 487.847 131.21 487.368 131.415 486.971C131.62 486.56 131.723 486.156 131.723 485.76C131.723 485.185 131.524 484.747 131.127 484.445C130.744 484.131 130.176 483.973 129.423 483.973C128.794 483.973 128.225 484.096 127.719 484.343C127.212 484.575 126.788 484.931 126.446 485.41L124.023 483.85C124.584 483.015 125.358 482.365 126.343 481.899C127.329 481.42 128.458 481.181 129.731 481.181C130.799 481.181 131.73 481.359 132.524 481.715C133.331 482.057 133.954 482.55 134.392 483.193C134.844 483.823 135.07 484.569 135.07 485.431C135.07 486.211 134.905 486.944 134.577 487.628C134.248 488.312 133.612 489.093 132.667 489.969L129.362 493.09H135.542ZM147.653 493.09V495.8H136.791V493.644L142.335 488.408C142.924 487.847 143.321 487.368 143.526 486.971C143.731 486.56 143.834 486.156 143.834 485.76C143.834 485.185 143.636 484.747 143.239 484.445C142.855 484.131 142.287 483.973 141.534 483.973C140.905 483.973 140.337 484.096 139.83 484.343C139.324 484.575 138.899 484.931 138.557 485.41L136.134 483.85C136.695 483.015 137.469 482.365 138.454 481.899C139.44 481.42 140.569 481.181 141.842 481.181C142.91 481.181 143.841 481.359 144.635 481.715C145.442 482.057 146.065 482.55 146.503 483.193C146.955 483.823 147.181 484.569 147.181 485.431C147.181 486.211 147.017 486.944 146.688 487.628C146.36 488.312 145.723 489.093 144.779 489.969L141.473 493.09H147.653Z" fill="#20201F"/>
<path d="M328.032 239.902H326.369V244.091H323.166V233.044H326.369V237.335H328.094L331.092 233.044H334.5L330.64 238.341L334.767 244.091H330.989L328.032 239.902ZM346.785 233.044L341.796 244.768C341.289 246.041 340.66 246.938 339.907 247.458C339.168 247.978 338.271 248.238 337.217 248.238C336.642 248.238 336.074 248.149 335.513 247.971C334.952 247.793 334.493 247.547 334.137 247.232L335.308 244.953C335.554 245.172 335.835 245.343 336.149 245.466C336.478 245.589 336.8 245.651 337.114 245.651C337.552 245.651 337.908 245.542 338.182 245.323C338.456 245.117 338.702 244.768 338.921 244.275L338.962 244.173L334.178 233.044H337.484L340.584 240.538L343.705 233.044H346.785ZM354.649 244.091L352.226 240.703L349.721 244.091H346.231L350.481 238.526L346.374 233.044H349.968L352.308 236.268L354.711 233.044H358.119L354.013 238.444L358.283 244.091H354.649ZM359.86 233.044H363.043V237.356H367.848V233.044H371.051V244.091H367.848V239.963H363.043V244.091H359.86V233.044ZM383.932 233.044V244.091H381.078V240.929H378.716L376.622 244.091H373.214L375.739 240.477C374.972 240.176 374.384 239.744 373.973 239.183C373.576 238.608 373.378 237.917 373.378 237.109C373.378 235.809 373.843 234.81 374.774 234.112C375.719 233.4 377.012 233.044 378.655 233.044H383.932ZM378.716 235.652C378.032 235.652 377.512 235.775 377.156 236.021C376.814 236.268 376.642 236.665 376.642 237.212C376.642 237.76 376.807 238.163 377.135 238.424C377.477 238.67 377.991 238.793 378.675 238.793H381.078V235.652H378.716Z" fill="#20201F"/>
<path d="M333.699 259.003V273.376H330.373V261.673H327.498V259.003H333.699ZM342.356 273.623C341.165 273.623 340.104 273.328 339.173 272.74C338.242 272.151 337.51 271.302 336.976 270.194C336.456 269.071 336.196 267.737 336.196 266.19C336.196 264.643 336.456 263.315 336.976 262.206C337.51 261.084 338.242 260.228 339.173 259.64C340.104 259.051 341.165 258.757 342.356 258.757C343.547 258.757 344.608 259.051 345.538 259.64C346.469 260.228 347.195 261.084 347.715 262.206C348.249 263.315 348.516 264.643 348.516 266.19C348.516 267.737 348.249 269.071 347.715 270.194C347.195 271.302 346.469 272.151 345.538 272.74C344.608 273.328 343.547 273.623 342.356 273.623ZM342.356 270.81C343.232 270.81 343.916 270.433 344.409 269.68C344.916 268.927 345.169 267.764 345.169 266.19C345.169 264.616 344.916 263.452 344.409 262.699C343.916 261.946 343.232 261.57 342.356 261.57C341.493 261.57 340.809 261.946 340.303 262.699C339.81 263.452 339.563 264.616 339.563 266.19C339.563 267.764 339.81 268.927 340.303 269.68C340.809 270.433 341.493 270.81 342.356 270.81ZM351.76 273.54C351.199 273.54 350.727 273.349 350.343 272.966C349.96 272.582 349.768 272.103 349.768 271.528C349.768 270.94 349.96 270.467 350.343 270.112C350.727 269.742 351.199 269.557 351.76 269.557C352.321 269.557 352.794 269.742 353.177 270.112C353.56 270.467 353.752 270.94 353.752 271.528C353.752 272.103 353.56 272.582 353.177 272.966C352.794 273.349 352.321 273.54 351.76 273.54ZM360.296 258.757C362.308 258.757 363.882 259.373 365.019 260.605C366.155 261.823 366.723 263.582 366.723 265.882C366.723 267.511 366.415 268.907 365.799 270.07C365.196 271.234 364.341 272.117 363.232 272.719C362.123 273.321 360.844 273.623 359.393 273.623C358.626 273.623 357.894 273.54 357.196 273.376C356.497 273.198 355.902 272.952 355.409 272.637L356.641 270.194C357.339 270.673 358.236 270.912 359.331 270.912C360.549 270.912 361.514 270.556 362.226 269.845C362.938 269.119 363.321 268.079 363.376 266.724C362.514 267.586 361.323 268.017 359.803 268.017C358.886 268.017 358.051 267.832 357.298 267.463C356.545 267.093 355.95 266.573 355.512 265.902C355.074 265.218 354.855 264.431 354.855 263.541C354.855 262.583 355.094 261.741 355.573 261.015C356.053 260.29 356.703 259.736 357.524 259.352C358.359 258.955 359.283 258.757 360.296 258.757ZM360.542 265.533C361.268 265.533 361.856 265.334 362.308 264.937C362.774 264.527 363.006 264.006 363.006 263.377C363.006 262.747 362.78 262.234 362.329 261.837C361.891 261.44 361.282 261.241 360.501 261.241C359.79 261.241 359.208 261.433 358.756 261.816C358.318 262.2 358.099 262.72 358.099 263.377C358.099 264.034 358.318 264.561 358.756 264.958C359.208 265.341 359.803 265.533 360.542 265.533ZM373.246 264.403C375.272 264.403 376.764 264.807 377.723 265.615C378.694 266.422 379.18 267.504 379.18 268.859C379.18 269.735 378.961 270.536 378.523 271.261C378.085 271.973 377.415 272.548 376.511 272.986C375.621 273.41 374.519 273.623 373.205 273.623C372.192 273.623 371.193 273.493 370.208 273.232C369.236 272.959 368.408 272.575 367.723 272.083L369.037 269.537C369.585 269.947 370.214 270.269 370.926 270.502C371.638 270.721 372.37 270.83 373.123 270.83C373.958 270.83 374.615 270.666 375.094 270.337C375.573 270.009 375.813 269.55 375.813 268.962C375.813 268.346 375.56 267.88 375.053 267.565C374.561 267.251 373.698 267.093 372.466 267.093H368.791L369.53 259.003H378.297V261.673H372.302L372.076 264.403H373.246Z" fill="#20201F"/>
<path d="M265.765 462.405L262.759 458.445L259.735 462.405H258.295L262.039 457.545L258.475 452.937H259.915L262.759 456.645L265.603 452.937H267.007L263.443 457.545L267.223 462.405H265.765ZM272.89 462.495C271.978 462.495 271.156 462.291 270.424 461.883C269.692 461.463 269.116 460.887 268.696 460.155C268.276 459.423 268.066 458.595 268.066 457.671C268.066 456.747 268.276 455.919 268.696 455.187C269.116 454.455 269.692 453.885 270.424 453.477C271.156 453.069 271.978 452.865 272.89 452.865C273.802 452.865 274.624 453.069 275.356 453.477C276.088 453.885 276.658 454.455 277.066 455.187C277.486 455.919 277.696 456.747 277.696 457.671C277.696 458.595 277.486 459.423 277.066 460.155C276.658 460.887 276.088 461.463 275.356 461.883C274.624 462.291 273.802 462.495 272.89 462.495ZM272.89 461.361C273.562 461.361 274.162 461.211 274.69 460.911C275.23 460.599 275.65 460.161 275.95 459.597C276.25 459.033 276.4 458.391 276.4 457.671C276.4 456.951 276.25 456.309 275.95 455.745C275.65 455.181 275.23 454.749 274.69 454.449C274.162 454.137 273.562 453.981 272.89 453.981C272.218 453.981 271.612 454.137 271.072 454.449C270.544 454.749 270.124 455.181 269.812 455.745C269.512 456.309 269.362 456.951 269.362 457.671C269.362 458.391 269.512 459.033 269.812 459.597C270.124 460.161 270.544 460.599 271.072 460.911C271.612 461.211 272.218 461.361 272.89 461.361ZM288.115 452.937V462.405H286.837V454.071H282.301L282.175 456.411C282.079 458.379 281.851 459.891 281.491 460.947C281.131 462.003 280.489 462.531 279.565 462.531C279.313 462.531 279.007 462.483 278.647 462.387L278.737 461.289C278.953 461.337 279.103 461.361 279.187 461.361C279.679 461.361 280.051 461.133 280.303 460.677C280.555 460.221 280.723 459.657 280.807 458.985C280.891 458.313 280.963 457.425 281.023 456.321L281.185 452.937H288.115ZM299.488 452.937V462.405H298.21V454.071H293.674L293.548 456.411C293.452 458.379 293.224 459.891 292.864 460.947C292.504 462.003 291.862 462.531 290.938 462.531C290.686 462.531 290.38 462.483 290.02 462.387L290.11 461.289C290.326 461.337 290.476 461.361 290.56 461.361C291.052 461.361 291.424 461.133 291.676 460.677C291.928 460.221 292.096 459.657 292.18 458.985C292.264 458.313 292.336 457.425 292.396 456.321L292.558 452.937H299.488Z" fill="#20201F"/>
<path d="M266.593 484.257C268.417 484.257 269.743 484.587 270.571 485.247C271.411 485.895 271.831 486.807 271.831 487.983C271.831 488.715 271.657 489.369 271.309 489.945C270.973 490.521 270.463 490.977 269.779 491.313C269.095 491.637 268.255 491.799 267.259 491.799C266.359 491.799 265.501 491.655 264.685 491.367C263.881 491.067 263.233 490.671 262.741 490.179L263.371 489.153C263.791 489.585 264.343 489.939 265.027 490.215C265.711 490.479 266.449 490.611 267.241 490.611C268.285 490.611 269.089 490.377 269.653 489.909C270.229 489.441 270.517 488.817 270.517 488.037C270.517 487.173 270.193 486.519 269.545 486.075C268.909 485.631 267.829 485.409 266.305 485.409H263.623L264.271 479.091H271.165V480.243H265.405L264.973 484.257H266.593ZM274.448 491.781C274.184 491.781 273.956 491.685 273.764 491.493C273.584 491.301 273.494 491.067 273.494 490.791C273.494 490.515 273.584 490.287 273.764 490.107C273.956 489.915 274.184 489.819 274.448 489.819C274.712 489.819 274.94 489.915 275.132 490.107C275.324 490.287 275.42 490.515 275.42 490.791C275.42 491.067 275.324 491.301 275.132 491.493C274.94 491.685 274.712 491.781 274.448 491.781ZM286.07 490.539V491.691H277.232V490.773L282.47 485.643C283.13 484.995 283.574 484.437 283.802 483.969C284.042 483.489 284.162 483.009 284.162 482.529C284.162 481.785 283.904 481.209 283.388 480.801C282.884 480.381 282.158 480.171 281.21 480.171C279.734 480.171 278.588 480.639 277.772 481.575L276.854 480.783C277.346 480.207 277.97 479.763 278.726 479.451C279.494 479.139 280.358 478.983 281.318 478.983C282.602 478.983 283.616 479.289 284.36 479.901C285.116 480.501 285.494 481.329 285.494 482.385C285.494 483.033 285.35 483.657 285.062 484.257C284.774 484.857 284.228 485.547 283.424 486.327L279.14 490.539H286.07ZM296.301 490.539V491.691H287.463V490.773L292.701 485.643C293.361 484.995 293.805 484.437 294.033 483.969C294.273 483.489 294.393 483.009 294.393 482.529C294.393 481.785 294.135 481.209 293.619 480.801C293.115 480.381 292.389 480.171 291.441 480.171C289.965 480.171 288.819 480.639 288.003 481.575L287.085 480.783C287.577 480.207 288.201 479.763 288.957 479.451C289.725 479.139 290.589 478.983 291.549 478.983C292.833 478.983 293.847 479.289 294.591 479.901C295.347 480.501 295.725 481.329 295.725 482.385C295.725 483.033 295.581 483.657 295.293 484.257C295.005 484.857 294.459 485.547 293.655 486.327L289.371 490.539H296.301Z" fill="#20201F"/>
<path d="M347.408 62.8304C348.284 62.8304 349.064 63.0284 349.748 63.4244C350.444 63.8084 350.984 64.3544 351.368 65.0625C351.752 65.7585 351.944 66.5565 351.944 67.4565C351.944 68.3805 351.74 69.2025 351.332 69.9225C350.936 70.6306 350.378 71.1826 349.658 71.5786C348.938 71.9746 348.11 72.1726 347.174 72.1726C345.602 72.1726 344.384 71.6206 343.52 70.5165C342.656 69.4125 342.224 67.8885 342.224 65.9445C342.224 63.9164 342.608 62.3624 343.376 61.2824C344.156 60.2024 345.368 59.4704 347.012 59.0864L351.26 58.1143L351.476 59.2844L347.48 60.2024C346.124 60.5024 345.128 61.0364 344.492 61.8044C343.856 62.5604 343.508 63.6824 343.448 65.1705C343.832 64.4384 344.366 63.8684 345.05 63.4604C345.734 63.0404 346.52 62.8304 347.408 62.8304ZM347.21 71.1106C347.87 71.1106 348.458 70.9606 348.974 70.6606C349.502 70.3485 349.91 69.9165 350.198 69.3645C350.498 68.8125 350.648 68.1885 350.648 67.4925C350.648 66.7965 350.504 66.1845 350.216 65.6565C349.928 65.1285 349.52 64.7205 348.992 64.4324C348.476 64.1324 347.882 63.9824 347.21 63.9824C346.538 63.9824 345.938 64.1324 345.41 64.4324C344.894 64.7205 344.486 65.1285 344.186 65.6565C343.898 66.1845 343.754 66.7965 343.754 67.4925C343.754 68.1885 343.898 68.8125 344.186 69.3645C344.486 69.9165 344.9 70.3485 345.428 70.6606C345.956 70.9606 346.55 71.1106 347.21 71.1106ZM357.889 62.5244C359.125 62.5244 360.073 62.8364 360.733 63.4604C361.393 64.0724 361.723 64.9845 361.723 66.1965V72.0646H360.499V70.5886C360.211 71.0806 359.785 71.4646 359.221 71.7406C358.669 72.0166 358.009 72.1546 357.241 72.1546C356.185 72.1546 355.345 71.9026 354.721 71.3986C354.097 70.8946 353.785 70.2285 353.785 69.4005C353.785 68.5965 354.073 67.9485 354.649 67.4565C355.237 66.9645 356.167 66.7185 357.439 66.7185H360.445V66.1425C360.445 65.3265 360.217 64.7085 359.761 64.2884C359.305 63.8564 358.639 63.6404 357.763 63.6404C357.163 63.6404 356.587 63.7424 356.035 63.9464C355.483 64.1384 355.009 64.4084 354.613 64.7565L354.037 63.8024C354.517 63.3944 355.093 63.0824 355.765 62.8664C356.437 62.6384 357.145 62.5244 357.889 62.5244ZM357.439 71.1466C358.159 71.1466 358.777 70.9846 359.293 70.6606C359.809 70.3245 360.193 69.8445 360.445 69.2205V67.6725H357.475C355.855 67.6725 355.045 68.2365 355.045 69.3645C355.045 69.9165 355.255 70.3545 355.675 70.6786C356.095 70.9906 356.683 71.1466 357.439 71.1466ZM372.865 62.5964V72.0646H371.587V63.7304H367.051L366.925 66.0705C366.829 68.0385 366.601 69.5505 366.241 70.6066C365.881 71.6626 365.239 72.1906 364.315 72.1906C364.063 72.1906 363.757 72.1426 363.397 72.0466L363.487 70.9486C363.703 70.9966 363.853 71.0206 363.937 71.0206C364.429 71.0206 364.801 70.7926 365.053 70.3365C365.305 69.8805 365.473 69.3165 365.557 68.6445C365.641 67.9725 365.713 67.0845 365.773 65.9805L365.935 62.5964H372.865ZM379.936 67.8525H377.776V72.0646H376.498V62.5964H377.776V66.7545H379.954L383.284 62.5964H384.67L380.944 67.1865L384.94 72.0646H383.428L379.936 67.8525ZM390.53 72.1546C389.617 72.1546 388.795 71.9506 388.063 71.5426C387.331 71.1226 386.755 70.5465 386.335 69.8145C385.915 69.0825 385.705 68.2545 385.705 67.3305C385.705 66.4065 385.915 65.5785 386.335 64.8465C386.755 64.1144 387.331 63.5444 388.063 63.1364C388.795 62.7284 389.617 62.5244 390.53 62.5244C391.442 62.5244 392.264 62.7284 392.996 63.1364C393.728 63.5444 394.298 64.1144 394.706 64.8465C395.126 65.5785 395.336 66.4065 395.336 67.3305C395.336 68.2545 395.126 69.0825 394.706 69.8145C394.298 70.5465 393.728 71.1226 392.996 71.5426C392.264 71.9506 391.442 72.1546 390.53 72.1546ZM390.53 71.0206C391.202 71.0206 391.802 70.8706 392.33 70.5706C392.87 70.2585 393.29 69.8205 393.59 69.2565C393.89 68.6925 394.04 68.0505 394.04 67.3305C394.04 66.6105 393.89 65.9685 393.59 65.4045C393.29 64.8405 392.87 64.4084 392.33 64.1084C391.802 63.7964 391.202 63.6404 390.53 63.6404C389.858 63.6404 389.251 63.7964 388.711 64.1084C388.183 64.4084 387.763 64.8405 387.451 65.4045C387.151 65.9685 387.001 66.6105 387.001 67.3305C387.001 68.0505 387.151 68.6925 387.451 69.2565C387.763 69.8205 388.183 70.2585 388.711 70.5706C389.251 70.8706 389.858 71.0206 390.53 71.0206ZM398.067 62.5964H399.345V66.7905H405.303V62.5964H406.581V72.0646H405.303V67.8885H399.345V72.0646H398.067V62.5964Z" fill="#20201F"/>
<path d="M362.22 94.1506C363.54 94.2226 364.542 94.5826 365.226 95.2306C365.922 95.8666 366.27 96.7006 366.27 97.7326C366.27 98.4527 366.096 99.0947 365.748 99.6587C365.4 100.211 364.884 100.649 364.2 100.973C363.516 101.297 362.682 101.459 361.698 101.459C360.786 101.459 359.922 101.315 359.106 101.027C358.302 100.727 357.654 100.331 357.162 99.8387L357.792 98.8127C358.212 99.2447 358.77 99.5987 359.466 99.8747C360.162 100.139 360.906 100.271 361.698 100.271C362.73 100.271 363.528 100.049 364.092 99.6047C364.656 99.1487 364.938 98.5247 364.938 97.7326C364.938 96.9526 364.656 96.3406 364.092 95.8966C363.528 95.4526 362.676 95.2306 361.536 95.2306H360.636V94.2766L364.128 89.9025H357.684V88.7505H365.784V89.6685L362.22 94.1506ZM369.068 101.441C368.804 101.441 368.576 101.345 368.384 101.153C368.204 100.961 368.114 100.727 368.114 100.451C368.114 100.175 368.204 99.9467 368.384 99.7667C368.576 99.5747 368.804 99.4787 369.068 99.4787C369.332 99.4787 369.56 99.5747 369.752 99.7667C369.944 99.9467 370.04 100.175 370.04 100.451C370.04 100.727 369.944 100.961 369.752 101.153C369.56 101.345 369.332 101.441 369.068 101.441ZM380.691 100.199V101.351H371.853V100.433L377.091 95.3026C377.751 94.6546 378.195 94.0966 378.423 93.6286C378.663 93.1486 378.783 92.6686 378.783 92.1886C378.783 91.4445 378.525 90.8685 378.009 90.4605C377.505 90.0405 376.779 89.8305 375.831 89.8305C374.355 89.8305 373.209 90.2985 372.393 91.2345L371.475 90.4425C371.967 89.8665 372.591 89.4225 373.347 89.1105C374.115 88.7985 374.979 88.6425 375.939 88.6425C377.223 88.6425 378.237 88.9485 378.981 89.5605C379.737 90.1605 380.115 90.9885 380.115 92.0446C380.115 92.6926 379.971 93.3166 379.683 93.9166C379.395 94.5166 378.849 95.2066 378.045 95.9866L373.761 100.199H380.691ZM389.535 94.7446C390.327 95.0086 390.933 95.4046 391.353 95.9326C391.785 96.4606 392.001 97.0966 392.001 97.8406C392.001 98.5727 391.803 99.2147 391.407 99.7667C391.011 100.307 390.441 100.727 389.697 101.027C388.965 101.315 388.101 101.459 387.105 101.459C385.593 101.459 384.405 101.135 383.541 100.487C382.677 99.8387 382.245 98.9567 382.245 97.8406C382.245 97.0846 382.449 96.4486 382.857 95.9326C383.277 95.4046 383.883 95.0086 384.675 94.7446C384.027 94.4926 383.535 94.1326 383.199 93.6646C382.863 93.1846 382.695 92.6206 382.695 91.9726C382.695 90.9525 383.091 90.1425 383.883 89.5425C384.687 88.9425 385.761 88.6425 387.105 88.6425C387.993 88.6425 388.767 88.7805 389.427 89.0565C390.099 89.3205 390.621 89.7045 390.993 90.2085C391.365 90.7125 391.551 91.3005 391.551 91.9726C391.551 92.6206 391.377 93.1846 391.029 93.6646C390.681 94.1326 390.183 94.4926 389.535 94.7446ZM383.991 92.0086C383.991 92.7046 384.267 93.2566 384.819 93.6646C385.371 94.0726 386.133 94.2766 387.105 94.2766C388.077 94.2766 388.839 94.0726 389.391 93.6646C389.955 93.2566 390.237 92.7106 390.237 92.0266C390.237 91.3185 389.949 90.7605 389.373 90.3525C388.809 89.9445 388.053 89.7405 387.105 89.7405C386.145 89.7405 385.383 89.9445 384.819 90.3525C384.267 90.7605 383.991 91.3125 383.991 92.0086ZM387.105 100.361C388.221 100.361 389.091 100.133 389.715 99.6767C390.351 99.2207 390.669 98.6027 390.669 97.8226C390.669 97.0426 390.351 96.4306 389.715 95.9866C389.091 95.5306 388.221 95.3026 387.105 95.3026C386.001 95.3026 385.131 95.5306 384.495 95.9866C383.871 96.4306 383.559 97.0426 383.559 97.8226C383.559 98.6147 383.871 99.2387 384.495 99.6947C385.119 100.139 385.989 100.361 387.105 100.361Z" fill="#20201F"/>
<path d="M359.907 418.296C361.731 418.296 363.057 418.626 363.885 419.286C364.725 419.934 365.145 420.846 365.145 422.022C365.145 422.754 364.971 423.408 364.623 423.984C364.287 424.56 363.777 425.016 363.093 425.352C362.409 425.676 361.569 425.838 360.573 425.838C359.673 425.838 358.815 425.694 357.999 425.406C357.195 425.106 356.547 424.71 356.055 424.218L356.685 423.192C357.105 423.624 357.657 423.978 358.341 424.254C359.025 424.518 359.763 424.65 360.555 424.65C361.599 424.65 362.403 424.416 362.967 423.948C363.543 423.48 363.831 422.856 363.831 422.076C363.831 421.212 363.507 420.558 362.859 420.114C362.223 419.67 361.143 419.448 359.619 419.448H356.937L357.585 413.13H364.479V414.282H358.719L358.287 418.296H359.907ZM367.762 425.82C367.498 425.82 367.27 425.724 367.078 425.532C366.898 425.34 366.808 425.106 366.808 424.83C366.808 424.554 366.898 424.326 367.078 424.146C367.27 423.954 367.498 423.858 367.762 423.858C368.026 423.858 368.254 423.954 368.446 424.146C368.638 424.326 368.734 424.554 368.734 424.83C368.734 425.106 368.638 425.34 368.446 425.532C368.254 425.724 368.026 425.82 367.762 425.82ZM373.886 413.13V425.73H372.59V414.282H369.62V413.13H373.886ZM380.21 418.296C382.034 418.296 383.36 418.626 384.188 419.286C385.028 419.934 385.448 420.846 385.448 422.022C385.448 422.754 385.274 423.408 384.926 423.984C384.59 424.56 384.08 425.016 383.396 425.352C382.712 425.676 381.872 425.838 380.876 425.838C379.976 425.838 379.118 425.694 378.302 425.406C377.498 425.106 376.85 424.71 376.358 424.218L376.988 423.192C377.408 423.624 377.96 423.978 378.644 424.254C379.328 424.518 380.066 424.65 380.858 424.65C381.902 424.65 382.706 424.416 383.27 423.948C383.846 423.48 384.134 422.856 384.134 422.076C384.134 421.212 383.81 420.558 383.162 420.114C382.526 419.67 381.446 419.448 379.922 419.448H377.24L377.888 413.13H384.782V414.282H379.022L378.59 418.296H380.21Z" fill="#20201F"/>
</g>
<defs>
<clipPath id="clip0_2384_28729">
<rect width="443.368" height="530.402" fill="white" transform="translate(28 35)"/>
</clipPath>
</defs>
</svg>
