<svg width="600" height="550" viewBox="0 0 600 550" fill="none" xmlns="http://www.w3.org/2000/svg">
<rect width="600" height="550" fill="white"/>
<g clip-path="url(#clip0_2384_28737)">
<path fill-rule="evenodd" clip-rule="evenodd" d="M287.588 19H534.916V435.813H437.325V531.031H330.131V522.051H66V93.8602H287.588V19Z" fill="#FFE900"/>
<path d="M534.916 19H519.949V435.813H534.916V19Z" fill="#ED9FA6"/>
<path fill-rule="evenodd" clip-rule="evenodd" d="M287.588 19H534.916V435.813H437.325V531.031H330.131V522.051H66V93.8602H287.588V19Z" fill="#FFF9D0"/>
<path d="M534.916 19H519.949V435.813H534.916V19Z" fill="#FFF9D0"/>
<path d="M534.916 405.275H519.949V420.302H534.916V405.275Z" fill="#20201F"/>
<path d="M342.676 333.408H306.722V369.337H342.676V333.408Z" fill="#20201F"/>
<path d="M342.676 507.084H327.709V522.051H342.676V507.084Z" fill="#20201F"/>
<path d="M534.916 19H519.949V405.275H534.916V19Z" fill="#20201F"/>
<path d="M302.555 19H287.588V108.836H302.555V19Z" fill="#20201F"/>
<path d="M80.9754 93.8601H66V353.171H80.9754V93.8601Z" fill="#20201F"/>
<path d="M125.885 338.195H66V353.171H125.885V338.195Z" fill="#20201F"/>
<path d="M125.885 338.195H110.918V522.051H125.885V338.195Z" fill="#20201F"/>
<path d="M327.71 507.084H66V522.051H327.71V507.084Z" fill="#20201F"/>
<path d="M350.466 449.589H327.709V531.031H350.466V449.589Z" fill="#20201F"/>
<path d="M350.466 356.164H327.709V371.735H350.466V356.164Z" fill="#20201F"/>
<path d="M366.037 333.408H342.677V356.164H366.037V333.408Z" fill="#20201F"/>
<path d="M519.95 333.408H491.802V356.164H519.95V333.408Z" fill="#20201F"/>
<path d="M534.916 405.275H513.954V428.032H534.916V405.275Z" fill="#20201F"/>
<path d="M217.549 93.8601H80.9751V108.836H217.549V93.8601Z" fill="#20201F"/>
<path d="M287.588 93.8601H277.434V108.836H287.588V93.8601Z" fill="#20201F"/>
<path d="M519.949 19H302.555V33.9754H519.949V19Z" fill="#20201F"/>
<path d="M534.917 428.032H513.954V435.813H534.917V428.032Z" fill="#20201F"/>
<path d="M511.565 364.209H504.379V435.813H511.565V364.209Z" fill="#20201F"/>
<path d="M519.95 356.164H488.204V364.209H519.95V356.164Z" fill="#20201F"/>
<path d="M369.625 356.164H350.466V363.954H369.625V356.164Z" fill="#20201F"/>
<path d="M358.247 363.954H350.466V371.735H358.247V363.954Z" fill="#20201F"/>
<path d="M358.247 449.589H350.466V531.031H358.247V449.589Z" fill="#20201F"/>
<path d="M522.023 359.422H510.07V435.813H522.023V359.422Z" fill="#20201F"/>
<path fill-rule="evenodd" clip-rule="evenodd" d="M358.247 523.846H430.139V435.813V428.627H437.325H504.379V435.813H437.325V523.846V531.031H430.139H358.247V523.846Z" fill="#20201F"/>
<path d="M306.722 333.408H252.22V338.195H306.722V333.408Z" fill="#20201F"/>
<path d="M264.542 216.7H259.755V333.408H264.542V216.7Z" fill="#20201F"/>
<path d="M302.555 216.7H259.755V221.487H302.555V216.7Z" fill="#20201F"/>
<path d="M302.555 191.749H297.767V221.487H302.555V191.749Z" fill="#20201F"/>
<path d="M197.046 172.207H192.258V227.627H197.046V172.207Z" fill="#20201F"/>
<path d="M192.258 174.92H80.9753V179.716H192.258V174.92Z" fill="#20201F"/>
<path d="M197.046 281.525H192.258V337.826H197.046V281.525Z" fill="#20201F"/>
<path d="M198.321 333.408H192.258V337.826H198.321V333.408Z" fill="#20201F"/>
<path d="M198.321 333.408H80.9753V338.195H198.321V333.408Z" fill="#20201F"/>
<path d="M73.1858 353.171H66V507.085H73.1858V353.171Z" fill="#20201F"/>
<path d="M302.555 108.836H297.767V137.851H302.555V108.836Z" fill="#20201F"/>
<path d="M488.213 360.101H369.626V363.954H488.213V360.101Z" fill="#20201F"/>
<path d="M491.802 352.337H366.036V356.188H491.802V352.337Z" fill="#20201F"/>
<path d="M491.802 333.432H366.036V337.283H491.802V333.432Z" fill="#20201F"/>
<path d="M358.231 419.646H354.379V449.589H358.231V419.646Z" fill="#20201F"/>
<path d="M350.466 419.645H346.615V449.589H350.466V419.645Z" fill="#20201F"/>
<path d="M331.561 419.645H327.709V449.589H331.561V419.645Z" fill="#20201F"/>
<path d="M358.252 419.645H327.709V422.472H358.252V419.645Z" fill="#20201F"/>
<path fill-rule="evenodd" clip-rule="evenodd" d="M271.828 97.7372C271.828 96.7984 272.59 96.0364 273.528 96.0364C274.467 96.0364 275.229 96.7984 275.229 97.7372V133.733C275.229 134.672 274.467 135.434 273.528 135.434C272.59 135.434 271.828 134.672 271.828 133.733V97.7372Z" fill="#20201F"/>
<path fill-rule="evenodd" clip-rule="evenodd" d="M220.347 97.3955C220.347 96.9261 220.728 96.5452 221.198 96.5452C221.667 96.5452 222.048 96.9261 222.048 97.3955C222.048 107.157 227.078 116.008 235.207 122.425C243.393 128.886 254.717 132.883 267.234 132.883C267.703 132.883 268.084 133.264 268.084 133.734C268.084 134.203 267.703 134.584 267.234 134.584C254.332 134.584 242.635 130.444 234.158 123.753C225.627 117.019 220.347 107.701 220.347 97.3955Z" fill="#20201F"/>
<path fill-rule="evenodd" clip-rule="evenodd" d="M300.61 142.83C299.671 142.83 298.909 142.068 298.909 141.129C298.909 140.19 299.671 139.428 300.61 139.428H336.606C337.545 139.428 338.307 140.19 338.307 141.129C338.307 142.068 337.545 142.83 336.606 142.83H300.61Z" fill="#20201F"/>
<path fill-rule="evenodd" clip-rule="evenodd" d="M300.268 189.728C299.799 189.728 299.418 189.347 299.418 188.877C299.418 188.408 299.799 188.027 300.268 188.027C310.044 188.027 318.903 183.437 325.32 176.019C331.767 168.567 335.756 158.261 335.756 146.874C335.756 146.404 336.137 146.023 336.606 146.023C337.076 146.023 337.457 146.404 337.457 146.874C337.457 158.677 333.308 169.377 326.602 177.128C319.87 184.911 310.559 189.728 300.268 189.728Z" fill="#20201F"/>
<path fill-rule="evenodd" clip-rule="evenodd" d="M195.193 280.441C194.254 280.441 193.492 279.679 193.492 278.74C193.492 277.801 194.254 277.039 195.193 277.039H231.189C232.128 277.039 232.89 277.801 232.89 278.74C232.89 279.679 232.128 280.441 231.189 280.441H195.193Z" fill="#20201F"/>
<path fill-rule="evenodd" clip-rule="evenodd" d="M194.851 231.843C194.381 231.843 194 231.462 194 230.992C194 230.523 194.381 230.142 194.851 230.142C205.141 230.142 214.452 234.958 221.185 242.741C227.89 250.493 232.039 261.192 232.039 272.996C232.039 273.465 231.658 273.846 231.189 273.846C230.72 273.846 230.339 273.465 230.339 272.996C230.339 261.609 226.349 251.302 219.903 243.85C213.486 236.432 204.627 231.843 194.851 231.843Z" fill="#20201F"/>
<path fill-rule="evenodd" clip-rule="evenodd" d="M250.527 335.155C250.527 336.094 249.765 336.856 248.826 336.856C247.887 336.856 247.125 336.094 247.125 335.155V299.159C247.125 298.22 247.887 297.458 248.826 297.458C249.765 297.458 250.527 298.22 250.527 299.159V335.155Z" fill="#20201F"/>
<path fill-rule="evenodd" clip-rule="evenodd" d="M201.929 335.497C201.929 335.967 201.548 336.348 201.078 336.348C200.609 336.348 200.228 335.967 200.228 335.497C200.228 325.207 205.044 315.896 212.827 309.163C220.579 302.458 231.279 298.309 243.083 298.309C243.552 298.309 243.933 298.69 243.933 299.159C243.933 299.628 243.552 300.009 243.083 300.009C231.696 300.009 221.388 303.999 213.936 310.445C206.518 316.862 201.929 325.721 201.929 335.497Z" fill="#20201F"/>
<path fill-rule="evenodd" clip-rule="evenodd" d="M347.959 374.709C348.898 374.709 349.66 375.471 349.66 376.41C349.66 377.348 348.898 378.11 347.959 378.11H311.963C311.024 378.11 310.262 377.348 310.262 376.41C310.262 375.471 311.024 374.709 311.963 374.709H347.959Z" fill="#20201F"/>
<path fill-rule="evenodd" clip-rule="evenodd" d="M348.3 415.233C348.77 415.233 349.151 415.614 349.151 416.084C349.151 416.553 348.77 416.934 348.3 416.934C338.04 416.934 328.749 412.935 322.02 406.472C315.281 399.999 311.113 391.057 311.113 381.182C311.113 380.713 311.493 380.332 311.963 380.332C312.432 380.332 312.813 380.713 312.813 381.182C312.813 390.578 316.781 399.089 323.195 405.249C329.617 411.417 338.493 415.233 348.3 415.233Z" fill="#20201F"/>
<path fill-rule="evenodd" clip-rule="evenodd" d="M164.438 478.327V387.972H128.296V479.389H164.438V478.327ZM160.165 416.251C160.165 417.245 159.758 418.152 159.1 418.806C158.445 419.459 157.542 419.866 156.551 419.866H136.141C135.15 419.866 134.247 419.459 133.588 418.806C132.934 418.152 132.527 417.245 132.527 416.251V395.842C132.527 394.85 132.934 393.946 133.588 393.289C134.241 392.635 135.146 392.228 136.141 392.228H156.551C157.546 392.228 158.45 392.635 159.102 393.291C159.758 393.946 160.165 394.85 160.165 395.842V416.251ZM158.476 467.816C158.476 469.192 157.916 470.443 157.012 471.348C156.108 472.252 154.858 472.813 153.48 472.813C152.105 472.813 150.856 472.252 149.948 471.346C149.044 470.441 148.484 469.192 148.484 467.816C148.484 466.439 149.044 465.189 149.95 464.287C150.854 463.381 152.104 462.82 153.48 462.82C154.858 462.82 156.108 463.381 157.012 464.285C157.916 465.189 158.476 466.439 158.476 467.816ZM145.313 467.816C145.313 469.488 144.633 471.004 143.537 472.1C142.441 473.196 140.925 473.876 139.254 473.876C137.582 473.876 136.066 473.196 134.97 472.1C133.874 471.004 133.195 469.488 133.195 467.816C133.195 466.145 133.874 464.629 134.97 463.533C136.066 462.437 137.582 461.757 139.254 461.757C140.925 461.757 142.441 462.437 143.537 463.533C144.633 464.629 145.313 466.145 145.313 467.816ZM142.486 464.584C143.312 465.41 143.825 466.555 143.825 467.816C143.825 469.079 143.312 470.223 142.486 471.049C141.66 471.875 140.516 472.387 139.254 472.387C137.991 472.387 136.847 471.875 136.021 471.049C135.196 470.223 134.683 469.079 134.683 467.816C134.683 466.555 135.196 465.41 136.021 464.584C136.847 463.758 137.991 463.246 139.254 463.246C140.516 463.246 141.66 463.758 142.486 464.584ZM159.539 454.822C159.539 456.493 158.86 458.009 157.763 459.105C156.667 460.201 155.152 460.881 153.48 460.881C151.808 460.881 150.292 460.202 149.196 459.106C148.099 458.01 147.421 456.493 147.421 454.822C147.421 453.15 148.1 451.634 149.196 450.538C150.293 449.442 151.808 448.763 153.48 448.763C155.151 448.763 156.667 449.442 157.763 450.538C158.86 451.634 159.539 453.151 159.539 454.822ZM156.712 451.589C157.538 452.415 158.051 453.56 158.051 454.822C158.051 456.084 157.538 457.228 156.712 458.054C155.887 458.88 154.743 459.392 153.48 459.392C152.217 459.392 151.072 458.881 150.247 458.055C149.421 457.229 148.909 456.084 148.909 454.822C148.909 453.559 149.422 452.415 150.248 451.589C151.073 450.764 152.217 450.251 153.48 450.251C154.742 450.251 155.887 450.764 156.712 451.589ZM144.25 454.822C144.25 456.198 143.689 457.448 142.785 458.353C141.881 459.257 140.631 459.818 139.254 459.818C137.879 459.818 136.629 459.257 135.722 458.351C134.818 457.446 134.258 456.197 134.258 454.822C134.258 453.444 134.818 452.194 135.724 451.292C136.628 450.386 137.878 449.826 139.254 449.826C140.631 449.826 141.881 450.386 142.785 451.29C143.689 452.194 144.25 453.444 144.25 454.822ZM141.734 452.341C142.368 452.975 142.762 453.853 142.762 454.822C142.762 455.793 142.37 456.67 141.737 457.302C141.101 457.936 140.222 458.329 139.254 458.329C138.283 458.329 137.405 457.937 136.773 457.305C136.138 456.67 135.746 455.793 135.746 454.822C135.746 453.853 136.14 452.975 136.773 452.341C137.405 451.706 138.283 451.314 139.254 451.314C140.222 451.314 141.101 451.707 141.734 452.341ZM155.961 465.336C156.594 465.969 156.988 466.848 156.988 467.816C156.988 468.788 156.596 469.665 155.963 470.297C155.327 470.931 154.449 471.324 153.48 471.324C152.509 471.324 151.631 470.932 150.999 470.3C150.364 469.665 149.972 468.788 149.972 467.816C149.972 466.848 150.366 465.969 150.999 465.336C151.631 464.701 152.509 464.309 153.48 464.309C154.449 464.309 155.327 464.702 155.961 465.336ZM158.039 395.842V416.251C158.039 416.659 157.871 417.033 157.601 417.302C157.334 417.573 156.961 417.74 156.551 417.74H136.141C135.731 417.74 135.358 417.573 135.089 417.304C134.821 417.033 134.653 416.659 134.653 416.251V395.842C134.653 395.432 134.82 395.059 135.087 394.792C135.361 394.523 135.735 394.354 136.141 394.354H156.551C156.957 394.354 157.331 394.523 157.601 394.792C157.872 395.059 158.039 395.432 158.039 395.842ZM130.422 445.409H162.312V477.264H130.422V445.409ZM162.312 443.283H130.422V390.098H162.312V443.283Z" fill="#20201F"/>
<path fill-rule="evenodd" clip-rule="evenodd" d="M100.755 298.062C98.9561 300.859 97.8455 304.447 97.8455 307.602C97.8455 310.708 98.9111 313.132 100.655 314.819H100.66C101.321 315.457 102.105 315.951 102.936 316.369H99.3482C97.2069 316.369 95.9517 317.264 95.2229 318.7C94.5579 320.007 94.3938 321.736 94.3938 323.631V324.414H94.4133C94.4576 325.994 94.6548 327.436 95.2229 328.559C95.9517 329.995 97.2069 330.885 99.338 330.885H116.933C119.073 330.885 120.326 329.995 121.051 328.559C121.615 327.436 121.818 325.994 121.861 324.414H121.88V323.631C121.88 321.736 121.716 320.007 121.051 318.7C120.326 317.264 119.073 316.369 116.933 316.369H113.338C114.169 315.951 114.95 315.462 115.613 314.819C117.36 313.132 118.427 310.708 118.427 307.602C118.427 304.268 117.183 300.451 115.201 297.589C113.372 294.948 110.898 293.094 108.137 293.094C105.212 293.094 102.609 295.173 100.755 298.062ZM108.644 325.965V325.97H108.641C108.01 325.97 107.429 325.706 107.011 325.289H107.006C106.589 324.871 106.331 324.296 106.331 323.657C106.331 323.017 106.589 322.447 107.006 322.029V322.022L107.011 322.022C107.432 321.605 108.01 321.347 108.641 321.347C109.282 321.347 109.862 321.605 110.277 322.022C110.693 322.439 110.954 323.017 110.954 323.657C110.954 324.296 110.693 324.866 110.277 325.289C109.862 325.706 109.282 325.965 108.644 325.965ZM108.646 324.782H108.641C108.33 324.782 108.048 324.658 107.849 324.461V324.454C107.647 324.252 107.519 323.966 107.519 323.657C107.519 323.341 107.644 323.052 107.838 322.857L107.847 322.852C108.048 322.655 108.33 322.528 108.641 322.528C108.964 322.528 109.243 322.655 109.444 322.852C109.64 323.052 109.765 323.341 109.765 323.657C109.765 323.972 109.64 324.258 109.435 324.454C109.238 324.663 108.954 324.79 108.646 324.79V324.782ZM116.933 317.931C118.377 317.931 119.201 318.498 119.661 319.397C120.126 320.329 120.282 321.622 120.309 323.083V323.631C120.309 325.314 120.181 326.823 119.661 327.861C119.201 328.761 118.375 329.321 116.933 329.321H99.338C97.8974 329.321 97.0751 328.761 96.615 327.861C96.0912 326.823 95.9645 325.314 95.9645 323.631V323.023C95.9968 321.592 96.1507 320.309 96.6125 319.397C97.0751 318.491 97.9042 317.931 99.3482 317.931H116.933ZM113.921 298.473C115.733 301.086 116.865 304.566 116.865 307.602C116.865 310.256 115.979 312.296 114.533 313.697C112.95 315.23 110.671 316.023 108.137 316.023C105.599 316.023 103.322 315.23 101.735 313.697C100.292 312.296 99.4077 310.256 99.4077 307.602C99.4077 304.735 100.422 301.46 102.066 298.9C103.649 296.433 105.806 294.657 108.137 294.657C110.328 294.657 112.365 296.237 113.921 298.473Z" fill="#20201F"/>
<path fill-rule="evenodd" clip-rule="evenodd" d="M83.758 239.219L83.752 258.709C83.752 265.227 97.2444 264.459 98.145 264.392C101.268 264.392 104.102 263.118 106.152 261.065C108.199 259.018 109.468 256.179 109.468 253.056V244.785C109.468 241.657 108.202 238.822 106.152 236.768C104.102 234.722 101.263 233.452 98.1399 233.439C97.224 233.397 83.752 232.726 83.758 239.219ZM96.9008 248.924H96.9034C96.9102 248.239 97.1798 247.606 97.6305 247.155C98.0888 246.711 98.7139 246.437 99.3959 246.437C100.085 246.437 100.711 246.712 101.16 247.164C101.612 247.615 101.888 248.239 101.888 248.927C101.888 249.61 101.612 250.236 101.16 250.686V250.695H101.155C100.705 251.146 100.085 251.427 99.3959 251.427C98.7139 251.427 98.0803 251.146 97.6305 250.695V250.692C97.1798 250.241 96.8966 249.61 96.8966 248.927L96.9008 248.924ZM98.1722 248.92C98.1722 248.594 98.3065 248.287 98.5319 248.068C98.7462 247.854 99.054 247.716 99.3959 247.716C99.736 247.716 100.045 247.848 100.265 248.062C100.477 248.283 100.616 248.583 100.613 248.927C100.613 249.27 100.479 249.567 100.265 249.787L100.26 249.793C100.045 250.011 99.736 250.145 99.3959 250.145C99.06 250.145 98.7521 250.002 98.5319 249.791L98.5293 249.786C98.3133 249.571 98.1832 249.264 98.1832 248.932L98.1858 248.92H98.1722ZM88.5075 248.924C88.5075 245.782 89.4437 242.93 90.9464 240.856C92.5179 238.701 94.7136 237.361 97.1466 237.36C99.5889 237.36 101.784 238.701 103.359 240.856C104.87 242.938 105.798 245.791 105.798 248.935V248.948C105.79 252.083 104.855 254.929 103.349 257.009C101.779 259.155 99.5889 260.491 97.1602 260.493L97.1466 260.491C94.7077 260.491 92.5247 259.155 90.9464 256.992C89.4412 254.923 88.5075 252.072 88.51 248.932L88.5075 248.924ZM90.2652 248.924C90.2703 246.171 91.0782 243.682 92.3767 241.883C93.6183 240.185 95.3098 239.128 97.1466 239.128C98.9954 239.128 100.687 240.185 101.933 241.897C103.227 243.687 104.032 246.171 104.032 248.935V248.94L104.037 248.948C104.032 251.704 103.227 254.182 101.926 255.972C100.689 257.666 98.9954 258.722 97.1602 258.728L97.1466 258.722C95.3063 258.726 93.6132 257.668 92.3767 255.966C91.0833 254.175 90.2703 251.691 90.2729 248.935V248.924H90.2652ZM85.5175 239.225C85.5175 234.386 98.0429 235.21 98.0752 235.21L98.1399 235.218C100.779 235.218 103.167 236.283 104.904 238.009C106.634 239.749 107.702 242.142 107.702 244.785V253.048C107.702 255.701 106.639 258.097 104.904 259.83C103.176 261.561 100.779 262.627 98.1399 262.632L98.0778 262.634C98.0463 262.634 85.5175 263.522 85.5175 258.704V239.225Z" fill="#20201F"/>
<path fill-rule="evenodd" clip-rule="evenodd" d="M85.8224 225.649H187.411V184.09H85.8224V225.649ZM105.618 200.83C106.734 200.83 107.744 201.283 108.474 202.013C109.205 202.747 109.657 203.756 109.657 204.869C109.657 205.983 109.205 206.991 108.474 207.723C107.74 208.456 106.731 208.909 105.618 208.909C104.504 208.909 103.495 208.456 102.764 207.726C102.031 206.996 101.578 205.985 101.578 204.869C101.578 203.754 102.031 202.743 102.761 202.013C103.492 201.283 104.502 200.83 105.618 200.83ZM107.333 203.154C107.77 203.591 108.041 204.199 108.041 204.869C108.041 205.54 107.77 206.147 107.333 206.584C106.896 207.022 106.288 207.293 105.618 207.293C104.947 207.293 104.34 207.022 103.903 206.584C103.465 206.145 103.194 205.538 103.194 204.869C103.194 204.2 103.465 203.594 103.903 203.155C104.342 202.717 104.949 202.446 105.618 202.446C106.287 202.446 106.893 202.717 107.333 203.154ZM93.4901 185.279L165.202 186.895C175.973 186.895 184.793 194.099 184.793 204.869C184.793 215.64 175.973 222.844 165.202 222.844L93.4901 224.459C92.1005 224.459 90.8369 223.891 89.9233 222.977C89.0094 222.059 88.4407 220.796 88.4407 219.41V190.328C88.4407 188.944 89.0088 187.682 89.9233 186.766C90.8434 185.847 92.1054 185.279 93.4901 185.279ZM165.202 188.915C174.869 188.915 182.773 195.202 182.773 204.869C182.773 214.536 174.869 220.824 165.202 220.824L93.4901 222.44C92.6587 222.44 91.901 222.098 91.3474 221.549C90.8006 221.003 90.4604 220.245 90.4604 219.41V190.328C90.4604 189.494 90.8006 188.737 91.3516 188.186C91.8984 187.639 92.6556 187.299 93.4901 187.299L165.202 188.915ZM187.624 227.627H85.6092C85.1018 227.627 84.6389 227.426 84.3036 227.107C83.966 226.787 83.7576 226.341 83.7576 225.852V183.887C83.7576 183.398 83.966 182.952 84.2996 182.632C84.6349 182.311 85.0993 182.112 85.6092 182.112H187.624C188.134 182.112 188.598 182.311 188.934 182.632C189.266 182.956 189.476 183.4 189.476 183.887V225.852C189.476 226.339 189.266 226.782 188.934 227.104C188.594 227.427 188.131 227.627 187.624 227.627Z" fill="#20201F"/>
<path d="M417.715 70.0002H415.589V171.095H417.715V70.0002Z" fill="#20201F"/>
<path d="M445.166 83.8704V98.2434H443.688V85.1845H440.3V83.8704H445.166ZM453.078 83.7473C454.981 83.7473 456.439 84.3769 457.452 85.6363C458.465 86.8819 458.971 88.6477 458.971 90.9337C458.971 92.5353 458.697 93.8905 458.15 94.9992C457.602 96.108 456.836 96.9498 455.85 97.5248C454.865 98.086 453.715 98.3666 452.401 98.3666C450.977 98.3666 449.841 98.1065 448.992 97.5864L449.588 96.3955C450.272 96.8472 451.203 97.073 452.38 97.073C453.968 97.073 455.214 96.5734 456.117 95.5741C457.02 94.5612 457.472 93.0965 457.472 91.1801C457.472 90.8242 457.452 90.4341 457.411 90.0098C457.055 90.79 456.487 91.3991 455.706 91.8372C454.926 92.2615 454.03 92.4737 453.017 92.4737C452.072 92.4737 451.23 92.2957 450.491 91.9398C449.766 91.5839 449.197 91.0843 448.787 90.4409C448.376 89.7839 448.171 89.0242 448.171 88.1618C448.171 87.2857 448.383 86.5123 448.807 85.8416C449.232 85.1709 449.813 84.6575 450.553 84.3016C451.306 83.932 452.147 83.7473 453.078 83.7473ZM453.242 91.2212C453.968 91.2212 454.604 91.0843 455.152 90.8105C455.713 90.5368 456.151 90.1603 456.466 89.6812C456.781 89.2021 456.938 88.6683 456.938 88.0797C456.938 87.5321 456.788 87.0257 456.487 86.5602C456.199 86.0948 455.768 85.7184 455.193 85.4309C454.618 85.1435 453.934 84.9998 453.14 84.9998C452.099 84.9998 451.251 85.2872 450.594 85.8621C449.95 86.4234 449.629 87.1762 449.629 88.1207C449.629 89.0652 449.95 89.8181 450.594 90.3793C451.251 90.9406 452.134 91.2212 453.242 91.2212ZM462.002 98.3461C461.701 98.3461 461.441 98.2366 461.222 98.0175C461.017 97.7985 460.914 97.5316 460.914 97.2168C460.914 96.9019 461.017 96.6418 461.222 96.4365C461.441 96.2175 461.701 96.108 462.002 96.108C462.304 96.108 462.564 96.2175 462.783 96.4365C463.002 96.6418 463.111 96.9019 463.111 97.2168C463.111 97.5316 463.002 97.7985 462.783 98.0175C462.564 98.2366 462.304 98.3461 462.002 98.3461ZM469.023 89.7634C471.104 89.7634 472.616 90.1398 473.561 90.8927C474.519 91.6318 474.998 92.6722 474.998 94.0137C474.998 94.8487 474.799 95.5947 474.402 96.2517C474.019 96.9088 473.437 97.4289 472.657 97.8122C471.877 98.1818 470.919 98.3666 469.783 98.3666C468.756 98.3666 467.777 98.2023 466.846 97.8738C465.929 97.5316 465.19 97.0799 464.629 96.5187L465.347 95.3483C465.827 95.8411 466.456 96.2449 467.236 96.5597C468.017 96.8609 468.859 97.0114 469.762 97.0114C470.953 97.0114 471.87 96.7445 472.513 96.2107C473.17 95.6768 473.499 94.965 473.499 94.0752C473.499 93.0897 473.129 92.3437 472.39 91.8372C471.665 91.3307 470.433 91.0775 468.694 91.0775H465.635L466.374 83.8704H474.238V85.1845H467.668L467.175 89.7634H469.023ZM480.858 83.8704V98.2434H479.38V85.1845H475.992V83.8704H480.858Z" fill="#20201F"/>
<path d="M448.113 123.751H445.238V127.529H443.76V123.751H435.649V122.683L443.267 113.156H444.91L437.559 122.437H443.801V119.111H445.238V122.437H448.113V123.751ZM455.199 127.652C454.091 127.652 453.098 127.358 452.222 126.769C451.36 126.181 450.682 125.339 450.189 124.244C449.71 123.135 449.471 121.835 449.471 120.343C449.471 118.851 449.71 117.557 450.189 116.462C450.682 115.353 451.36 114.504 452.222 113.916C453.098 113.327 454.091 113.033 455.199 113.033C456.308 113.033 457.294 113.327 458.156 113.916C459.032 114.504 459.717 115.353 460.209 116.462C460.702 117.557 460.949 118.851 460.949 120.343C460.949 121.835 460.702 123.135 460.209 124.244C459.717 125.339 459.032 126.181 458.156 126.769C457.294 127.358 456.308 127.652 455.199 127.652ZM455.199 126.297C456.034 126.297 456.767 126.064 457.396 125.599C458.04 125.134 458.539 124.456 458.895 123.566C459.251 122.676 459.429 121.602 459.429 120.343C459.429 119.083 459.251 118.009 458.895 117.119C458.539 116.229 458.04 115.552 457.396 115.086C456.767 114.621 456.034 114.388 455.199 114.388C454.364 114.388 453.625 114.621 452.982 115.086C452.352 115.552 451.859 116.229 451.503 117.119C451.148 118.009 450.97 119.083 450.97 120.343C450.97 121.602 451.148 122.676 451.503 123.566C451.859 124.456 452.352 125.134 452.982 125.599C453.625 126.064 454.364 126.297 455.199 126.297ZM463.954 127.632C463.653 127.632 463.393 127.522 463.174 127.303C462.968 127.084 462.866 126.817 462.866 126.502C462.866 126.188 462.968 125.927 463.174 125.722C463.393 125.503 463.653 125.394 463.954 125.394C464.255 125.394 464.515 125.503 464.734 125.722C464.953 125.927 465.063 126.188 465.063 126.502C465.063 126.817 464.953 127.084 464.734 127.303C464.515 127.522 464.255 127.632 463.954 127.632ZM470.939 113.156V127.529H469.461V114.47H466.073V113.156H470.939ZM484.518 113.156V114.203L478.502 127.529H476.9L482.814 114.47H475.422V117.16H473.964V113.156H484.518Z" fill="#20201F"/>
<path d="M450.197 153.037H447.322V156.815H445.844V153.037H437.733V151.969L445.351 142.442H446.994L439.643 151.723H445.885V148.397H447.322V151.723H450.197V153.037ZM460.675 142.442V143.489L454.659 156.815H453.058L458.971 143.756H451.579V146.446H450.121V142.442H460.675ZM462.649 156.918C462.348 156.918 462.088 156.808 461.869 156.589C461.664 156.37 461.561 156.103 461.561 155.789C461.561 155.474 461.664 155.214 461.869 155.008C462.088 154.789 462.348 154.68 462.649 154.68C462.95 154.68 463.21 154.789 463.429 155.008C463.648 155.214 463.758 155.474 463.758 155.789C463.758 156.103 463.648 156.37 463.429 156.589C463.21 156.808 462.95 156.918 462.649 156.918ZM470.368 142.319C472.27 142.319 473.728 142.949 474.741 144.208C475.754 145.454 476.261 147.22 476.261 149.506C476.261 151.107 475.987 152.462 475.439 153.571C474.892 154.68 474.125 155.522 473.14 156.097C472.154 156.658 471.004 156.938 469.69 156.938C468.267 156.938 467.13 156.678 466.282 156.158L466.877 154.967C467.562 155.419 468.492 155.645 469.67 155.645C471.257 155.645 472.503 155.145 473.407 154.146C474.31 153.133 474.762 151.668 474.762 149.752C474.762 149.396 474.741 149.006 474.7 148.582C474.344 149.362 473.776 149.971 472.996 150.409C472.216 150.833 471.319 151.045 470.306 151.045C469.362 151.045 468.52 150.868 467.781 150.512C467.055 150.156 466.487 149.656 466.076 149.013C465.666 148.356 465.46 147.596 465.46 146.734C465.46 145.858 465.673 145.084 466.097 144.413C466.521 143.743 467.103 143.229 467.842 142.873C468.595 142.504 469.437 142.319 470.368 142.319ZM470.532 149.793C471.257 149.793 471.894 149.656 472.442 149.382C473.003 149.109 473.441 148.732 473.756 148.253C474.07 147.774 474.228 147.24 474.228 146.651C474.228 146.104 474.077 145.597 473.776 145.132C473.489 144.667 473.058 144.29 472.483 144.003C471.908 143.715 471.223 143.572 470.429 143.572C469.389 143.572 468.54 143.859 467.883 144.434C467.24 144.995 466.918 145.748 466.918 146.693C466.918 147.637 467.24 148.39 467.883 148.951C468.54 149.512 469.423 149.793 470.532 149.793ZM484.132 156.938C483.024 156.938 482.031 156.644 481.155 156.055C480.293 155.467 479.615 154.625 479.122 153.53C478.643 152.421 478.404 151.121 478.404 149.629C478.404 148.137 478.643 146.843 479.122 145.748C479.615 144.639 480.293 143.791 481.155 143.202C482.031 142.613 483.024 142.319 484.132 142.319C485.241 142.319 486.227 142.613 487.089 143.202C487.965 143.791 488.65 144.639 489.142 145.748C489.635 146.843 489.882 148.137 489.882 149.629C489.882 151.121 489.635 152.421 489.142 153.53C488.65 154.625 487.965 155.467 487.089 156.055C486.227 156.644 485.241 156.938 484.132 156.938ZM484.132 155.583C484.967 155.583 485.7 155.351 486.329 154.885C486.973 154.42 487.472 153.742 487.828 152.852C488.184 151.963 488.362 150.888 488.362 149.629C488.362 148.369 488.184 147.295 487.828 146.405C487.472 145.515 486.973 144.838 486.329 144.372C485.7 143.907 484.967 143.674 484.132 143.674C483.297 143.674 482.558 143.907 481.915 144.372C481.285 144.838 480.792 145.515 480.437 146.405C480.081 147.295 479.903 148.369 479.903 149.629C479.903 150.888 480.081 151.963 480.437 152.852C480.792 153.742 481.285 154.42 481.915 154.885C482.558 155.351 483.297 155.583 484.132 155.583Z" fill="#20201F"/>
<path d="M398.646 101.756V142H389.333V109.23H381.284V101.756H398.646Z" fill="#20201F"/>
<path d="M355.643 253.826H349.976V262.244H346.793V251.198H355.643V253.826ZM362.054 262.409C360.89 262.409 359.843 262.169 358.912 261.69C357.995 261.197 357.276 260.52 356.756 259.657C356.236 258.795 355.976 257.816 355.976 256.721C355.976 255.626 356.236 254.647 356.756 253.785C357.276 252.922 357.995 252.252 358.912 251.773C359.843 251.28 360.89 251.033 362.054 251.033C363.217 251.033 364.257 251.28 365.175 251.773C366.092 252.252 366.81 252.922 367.331 253.785C367.851 254.647 368.111 255.626 368.111 256.721C368.111 257.816 367.851 258.795 367.331 259.657C366.81 260.52 366.092 261.197 365.175 261.69C364.257 262.169 363.217 262.409 362.054 262.409ZM362.054 259.78C362.875 259.78 363.546 259.507 364.066 258.959C364.6 258.398 364.867 257.652 364.867 256.721C364.867 255.79 364.6 255.051 364.066 254.504C363.546 253.942 362.875 253.662 362.054 253.662C361.232 253.662 360.555 253.942 360.021 254.504C359.487 255.051 359.22 255.79 359.22 256.721C359.22 257.652 359.487 258.398 360.021 258.959C360.555 259.507 361.232 259.78 362.054 259.78ZM375.57 262.409C374.393 262.409 373.332 262.169 372.388 261.69C371.457 261.197 370.725 260.52 370.191 259.657C369.671 258.795 369.41 257.816 369.41 256.721C369.41 255.626 369.671 254.647 370.191 253.785C370.725 252.922 371.457 252.252 372.388 251.773C373.332 251.28 374.393 251.033 375.57 251.033C376.734 251.033 377.747 251.28 378.609 251.773C379.485 252.252 380.122 252.943 380.519 253.846L378.034 255.181C377.459 254.168 376.631 253.662 375.55 253.662C374.715 253.662 374.023 253.935 373.476 254.483C372.928 255.031 372.655 255.777 372.655 256.721C372.655 257.666 372.928 258.412 373.476 258.959C374.023 259.507 374.715 259.78 375.55 259.78C376.645 259.78 377.473 259.274 378.034 258.261L380.519 259.616C380.122 260.492 379.485 261.177 378.609 261.669C377.747 262.162 376.734 262.409 375.57 262.409ZM391.706 253.826H387.969V262.244H384.786V253.826H381.049V251.198H391.706V253.826ZM393.413 251.198H396.596V257.768L401.975 251.198H404.912V262.244H401.729V255.674L396.37 262.244H393.413V251.198ZM407.991 251.198H411.173V255.51H415.978V251.198H419.181V262.244H415.978V258.117H411.173V262.244H407.991V251.198ZM426.539 251.033C428.25 251.033 429.564 251.444 430.481 252.265C431.398 253.073 431.857 254.298 431.857 255.941V262.244H428.859V260.869C428.257 261.895 427.134 262.409 425.492 262.409C424.643 262.409 423.904 262.265 423.274 261.977C422.658 261.69 422.186 261.293 421.857 260.787C421.529 260.28 421.365 259.705 421.365 259.062C421.365 258.035 421.748 257.228 422.514 256.639C423.295 256.05 424.492 255.756 426.108 255.756H428.654C428.654 255.058 428.441 254.524 428.017 254.154C427.593 253.771 426.956 253.58 426.108 253.58C425.519 253.58 424.937 253.675 424.362 253.867C423.801 254.045 423.322 254.291 422.925 254.606L421.775 252.368C422.377 251.944 423.096 251.615 423.931 251.383C424.78 251.15 425.649 251.033 426.539 251.033ZM426.292 260.253C426.84 260.253 427.326 260.13 427.75 259.883C428.175 259.623 428.476 259.247 428.654 258.754V257.625H426.457C425.143 257.625 424.485 258.056 424.485 258.918C424.485 259.329 424.643 259.657 424.958 259.904C425.286 260.136 425.731 260.253 426.292 260.253ZM444.454 251.198V262.244H441.6V259.082H439.239L437.144 262.244H433.736L436.261 258.631C435.495 258.329 434.906 257.898 434.496 257.337C434.099 256.762 433.9 256.071 433.9 255.263C433.9 253.963 434.366 252.964 435.296 252.265C436.241 251.554 437.534 251.198 439.177 251.198H444.454ZM439.239 253.805C438.554 253.805 438.034 253.929 437.678 254.175C437.336 254.421 437.165 254.818 437.165 255.366C437.165 255.913 437.329 256.317 437.658 256.577C438 256.824 438.513 256.947 439.198 256.947H441.6V253.805H439.239Z" fill="black"/>
<path d="M378.638 277.157V291.53H375.311V279.826H372.437V277.157H378.638ZM386.185 276.911C388.198 276.911 389.772 277.527 390.908 278.759C392.044 279.977 392.612 281.736 392.612 284.036C392.612 285.664 392.304 287.061 391.688 288.224C391.086 289.388 390.23 290.271 389.122 290.873C388.013 291.475 386.733 291.776 385.282 291.776C384.515 291.776 383.783 291.694 383.085 291.53C382.387 291.352 381.791 291.106 381.299 290.791L382.531 288.347C383.229 288.827 384.125 289.066 385.22 289.066C386.439 289.066 387.404 288.71 388.116 287.998C388.827 287.273 389.211 286.233 389.265 284.877C388.403 285.74 387.212 286.171 385.693 286.171C384.776 286.171 383.941 285.986 383.188 285.617C382.435 285.247 381.839 284.727 381.401 284.056C380.963 283.372 380.744 282.585 380.744 281.695C380.744 280.737 380.984 279.895 381.463 279.169C381.942 278.444 382.592 277.889 383.414 277.506C384.249 277.109 385.173 276.911 386.185 276.911ZM386.432 283.686C387.157 283.686 387.746 283.488 388.198 283.091C388.663 282.68 388.896 282.16 388.896 281.531C388.896 280.901 388.67 280.388 388.218 279.991C387.78 279.594 387.171 279.395 386.391 279.395C385.679 279.395 385.097 279.587 384.646 279.97C384.208 280.353 383.988 280.874 383.988 281.531C383.988 282.188 384.208 282.715 384.646 283.112C385.097 283.495 385.693 283.686 386.432 283.686ZM395.836 291.694C395.275 291.694 394.803 291.503 394.42 291.119C394.036 290.736 393.845 290.257 393.845 289.682C393.845 289.093 394.036 288.621 394.42 288.265C394.803 287.896 395.275 287.711 395.836 287.711C396.398 287.711 396.87 287.896 397.253 288.265C397.636 288.621 397.828 289.093 397.828 289.682C397.828 290.257 397.636 290.736 397.253 291.119C396.87 291.503 396.398 291.694 395.836 291.694ZM404.249 282.557C406.275 282.557 407.767 282.961 408.725 283.769C409.697 284.576 410.183 285.658 410.183 287.013C410.183 287.889 409.964 288.69 409.526 289.415C409.088 290.127 408.417 290.702 407.514 291.14C406.624 291.564 405.522 291.776 404.208 291.776C403.195 291.776 402.196 291.646 401.21 291.386C400.238 291.113 399.41 290.729 398.726 290.236L400.04 287.69C400.587 288.101 401.217 288.423 401.929 288.655C402.641 288.874 403.373 288.984 404.126 288.984C404.961 288.984 405.618 288.82 406.097 288.491C406.576 288.163 406.816 287.704 406.816 287.115C406.816 286.499 406.562 286.034 406.056 285.719C405.563 285.404 404.701 285.247 403.469 285.247H399.793L400.533 277.157H409.3V279.826H403.305L403.079 282.557H404.249ZM417.076 277.157V291.53H413.75V279.826H410.876V277.157H417.076Z" fill="black"/>
<path d="M208.02 407.824H206.357V412.013H203.154V400.966H206.357V405.258H208.082L211.08 400.966H214.488L210.628 406.264L214.755 412.013H210.977L208.02 407.824ZM226.774 400.966L221.784 412.691C221.278 413.964 220.648 414.86 219.895 415.38C219.156 415.9 218.259 416.161 217.205 416.161C216.63 416.161 216.062 416.072 215.501 415.894C214.94 415.716 214.481 415.469 214.125 415.154L215.296 412.875C215.542 413.094 215.823 413.265 216.138 413.389C216.466 413.512 216.788 413.573 217.103 413.573C217.541 413.573 217.897 413.464 218.17 413.245C218.444 413.04 218.691 412.691 218.91 412.198L218.951 412.095L214.167 400.966H217.472L220.573 408.461L223.694 400.966H226.774ZM234.637 412.013L232.215 408.625L229.71 412.013H226.219L230.469 406.449L226.363 400.966H229.956L232.297 404.19L234.699 400.966H238.107L234.001 406.366L238.272 412.013H234.637ZM239.849 400.966H243.031V405.278H247.836V400.966H251.039V412.013H247.836V407.886H243.031V412.013H239.849V400.966ZM263.92 400.966V412.013H261.066V408.851H258.705L256.61 412.013H253.202L255.727 408.399C254.961 408.098 254.372 407.667 253.962 407.106C253.565 406.531 253.366 405.839 253.366 405.032C253.366 403.731 253.831 402.732 254.762 402.034C255.707 401.322 257 400.966 258.643 400.966H263.92ZM258.705 403.574C258.02 403.574 257.5 403.697 257.144 403.944C256.802 404.19 256.631 404.587 256.631 405.134C256.631 405.682 256.795 406.086 257.124 406.346C257.466 406.592 257.979 406.715 258.664 406.715H261.066V403.574H258.705Z" fill="#20201F"/>
<path d="M217.951 426.68C219.963 426.68 221.537 427.296 222.674 428.528C223.81 429.746 224.378 431.505 224.378 433.805C224.378 435.434 224.07 436.83 223.454 437.993C222.851 439.157 221.996 440.04 220.887 440.642C219.778 441.244 218.499 441.545 217.048 441.545C216.281 441.545 215.549 441.463 214.851 441.299C214.152 441.121 213.557 440.875 213.064 440.56L214.296 438.116C214.994 438.596 215.891 438.835 216.986 438.835C218.204 438.835 219.169 438.479 219.881 437.767C220.593 437.042 220.976 436.002 221.031 434.646C220.169 435.509 218.978 435.94 217.458 435.94C216.541 435.94 215.706 435.755 214.953 435.386C214.2 435.016 213.605 434.496 213.167 433.825C212.729 433.141 212.51 432.354 212.51 431.464C212.51 430.506 212.749 429.664 213.228 428.938C213.708 428.213 214.358 427.658 215.179 427.275C216.014 426.878 216.938 426.68 217.951 426.68ZM218.197 433.456C218.923 433.456 219.511 433.257 219.963 432.86C220.429 432.449 220.661 431.929 220.661 431.3C220.661 430.67 220.435 430.157 219.984 429.76C219.546 429.363 218.937 429.164 218.156 429.164C217.444 429.164 216.863 429.356 216.411 429.739C215.973 430.122 215.754 430.643 215.754 431.3C215.754 431.957 215.973 432.484 216.411 432.881C216.863 433.264 217.458 433.456 218.197 433.456ZM227.602 441.463C227.041 441.463 226.568 441.272 226.185 440.888C225.802 440.505 225.61 440.026 225.61 439.451C225.61 438.863 225.802 438.39 226.185 438.034C226.568 437.665 227.041 437.48 227.602 437.48C228.163 437.48 228.635 437.665 229.019 438.034C229.402 438.39 229.594 438.863 229.594 439.451C229.594 440.026 229.402 440.505 229.019 440.888C228.635 441.272 228.163 441.463 227.602 441.463ZM238.001 432.778C239.261 432.983 240.226 433.456 240.897 434.195C241.567 434.92 241.903 435.824 241.903 436.905C241.903 437.74 241.684 438.513 241.246 439.225C240.808 439.923 240.137 440.485 239.233 440.909C238.344 441.333 237.249 441.545 235.948 441.545C234.935 441.545 233.936 441.415 232.95 441.155C231.978 440.882 231.15 440.498 230.466 440.006L231.759 437.459C232.307 437.87 232.937 438.192 233.648 438.424C234.374 438.643 235.113 438.753 235.866 438.753C236.701 438.753 237.358 438.596 237.837 438.281C238.316 437.952 238.556 437.494 238.556 436.905C238.556 435.728 237.659 435.139 235.866 435.139H234.347V432.942L237.303 429.595H231.185V426.926H241.246V429.082L238.001 432.778ZM248.166 432.326C250.192 432.326 251.684 432.73 252.642 433.538C253.614 434.345 254.1 435.427 254.1 436.782C254.1 437.658 253.881 438.459 253.443 439.184C253.005 439.896 252.334 440.471 251.431 440.909C250.541 441.333 249.439 441.545 248.125 441.545C247.112 441.545 246.113 441.415 245.127 441.155C244.155 440.882 243.327 440.498 242.642 440.006L243.957 437.459C244.504 437.87 245.134 438.192 245.846 438.424C246.557 438.643 247.29 438.753 248.043 438.753C248.878 438.753 249.535 438.589 250.014 438.26C250.493 437.932 250.732 437.473 250.732 436.885C250.732 436.269 250.479 435.803 249.973 435.488C249.48 435.173 248.618 435.016 247.386 435.016H243.71L244.449 426.926H253.217V429.595H247.221L246.995 432.326H248.166Z" fill="#20201F"/>
<path d="M237.142 157.826L234.136 153.866L231.112 157.826H229.672L233.416 152.966L229.852 148.358H231.292L234.136 152.066L236.98 148.358H238.384L234.82 152.966L238.6 157.826H237.142ZM244.267 157.916C243.355 157.916 242.533 157.712 241.801 157.304C241.069 156.884 240.493 156.308 240.073 155.576C239.653 154.844 239.443 154.016 239.443 153.092C239.443 152.168 239.653 151.34 240.073 150.608C240.493 149.876 241.069 149.306 241.801 148.898C242.533 148.49 243.355 148.286 244.267 148.286C245.179 148.286 246.001 148.49 246.733 148.898C247.465 149.306 248.035 149.876 248.443 150.608C248.863 151.34 249.073 152.168 249.073 153.092C249.073 154.016 248.863 154.844 248.443 155.576C248.035 156.308 247.465 156.884 246.733 157.304C246.001 157.712 245.179 157.916 244.267 157.916ZM244.267 156.782C244.939 156.782 245.539 156.632 246.067 156.332C246.607 156.02 247.027 155.582 247.327 155.018C247.627 154.454 247.777 153.812 247.777 153.092C247.777 152.372 247.627 151.73 247.327 151.166C247.027 150.602 246.607 150.17 246.067 149.87C245.539 149.558 244.939 149.402 244.267 149.402C243.595 149.402 242.989 149.558 242.449 149.87C241.921 150.17 241.501 150.602 241.189 151.166C240.889 151.73 240.739 152.372 240.739 153.092C240.739 153.812 240.889 154.454 241.189 155.018C241.501 155.582 241.921 156.02 242.449 156.332C242.989 156.632 243.595 156.782 244.267 156.782ZM259.492 148.358V157.826H258.214V149.492H253.678L253.552 151.832C253.456 153.8 253.228 155.312 252.868 156.368C252.508 157.424 251.866 157.952 250.942 157.952C250.69 157.952 250.384 157.904 250.024 157.808L250.114 156.71C250.33 156.758 250.48 156.782 250.564 156.782C251.056 156.782 251.428 156.554 251.68 156.098C251.932 155.642 252.1 155.078 252.184 154.406C252.268 153.734 252.34 152.846 252.4 151.742L252.562 148.358H259.492ZM270.865 148.358V157.826H269.587V149.492H265.051L264.925 151.832C264.829 153.8 264.601 155.312 264.241 156.368C263.881 157.424 263.239 157.952 262.315 157.952C262.063 157.952 261.757 157.904 261.397 157.808L261.487 156.71C261.703 156.758 261.853 156.782 261.937 156.782C262.429 156.782 262.801 156.554 263.053 156.098C263.305 155.642 263.473 155.078 263.557 154.406C263.641 153.734 263.713 152.846 263.773 151.742L263.935 148.358H270.865Z" fill="#20201F"/>
<path d="M236.944 179.679C238.768 179.679 240.094 180.009 240.922 180.669C241.762 181.317 242.182 182.229 242.182 183.405C242.182 184.137 242.008 184.791 241.66 185.367C241.324 185.943 240.814 186.399 240.13 186.735C239.446 187.059 238.606 187.221 237.61 187.221C236.71 187.221 235.852 187.077 235.036 186.789C234.232 186.489 233.584 186.093 233.092 185.601L233.722 184.575C234.142 185.007 234.694 185.361 235.378 185.637C236.062 185.901 236.8 186.033 237.592 186.033C238.636 186.033 239.44 185.799 240.004 185.331C240.58 184.863 240.868 184.239 240.868 183.459C240.868 182.595 240.544 181.941 239.896 181.497C239.26 181.053 238.18 180.831 236.656 180.831H233.974L234.622 174.513H241.516V175.665H235.756L235.324 179.679H236.944ZM244.8 187.203C244.536 187.203 244.308 187.107 244.116 186.915C243.936 186.723 243.846 186.489 243.846 186.213C243.846 185.937 243.936 185.709 244.116 185.529C244.308 185.337 244.536 185.241 244.8 185.241C245.064 185.241 245.292 185.337 245.484 185.529C245.676 185.709 245.772 185.937 245.772 186.213C245.772 186.489 245.676 186.723 245.484 186.915C245.292 187.107 245.064 187.203 244.8 187.203ZM252.471 187.221C251.499 187.221 250.629 186.963 249.861 186.447C249.105 185.931 248.511 185.193 248.079 184.233C247.659 183.261 247.449 182.121 247.449 180.813C247.449 179.505 247.659 178.371 248.079 177.411C248.511 176.439 249.105 175.695 249.861 175.179C250.629 174.663 251.499 174.405 252.471 174.405C253.443 174.405 254.307 174.663 255.063 175.179C255.831 175.695 256.431 176.439 256.863 177.411C257.295 178.371 257.511 179.505 257.511 180.813C257.511 182.121 257.295 183.261 256.863 184.233C256.431 185.193 255.831 185.931 255.063 186.447C254.307 186.963 253.443 187.221 252.471 187.221ZM252.471 186.033C253.203 186.033 253.845 185.829 254.397 185.421C254.961 185.013 255.399 184.419 255.711 183.639C256.023 182.859 256.179 181.917 256.179 180.813C256.179 179.709 256.023 178.767 255.711 177.987C255.399 177.207 254.961 176.613 254.397 176.205C253.845 175.797 253.203 175.593 252.471 175.593C251.739 175.593 251.091 175.797 250.527 176.205C249.975 176.613 249.543 177.207 249.231 177.987C248.919 178.767 248.763 179.709 248.763 180.813C248.763 181.917 248.919 182.859 249.231 183.639C249.543 184.419 249.975 185.013 250.527 185.421C251.091 185.829 251.739 186.033 252.471 186.033ZM264.587 179.571C265.415 179.571 266.147 179.727 266.783 180.039C267.431 180.351 267.935 180.795 268.295 181.371C268.655 181.935 268.835 182.595 268.835 183.351C268.835 184.119 268.649 184.797 268.277 185.385C267.905 185.973 267.389 186.429 266.729 186.753C266.081 187.065 265.349 187.221 264.533 187.221C262.865 187.221 261.587 186.675 260.699 185.583C259.811 184.479 259.367 182.925 259.367 180.921C259.367 179.517 259.607 178.329 260.087 177.357C260.567 176.385 261.239 175.653 262.103 175.161C262.967 174.657 263.975 174.405 265.127 174.405C266.375 174.405 267.371 174.633 268.115 175.089L267.593 176.133C266.993 175.737 266.177 175.539 265.145 175.539C263.753 175.539 262.661 175.983 261.869 176.871C261.077 177.747 260.681 179.025 260.681 180.705C260.681 181.005 260.699 181.347 260.735 181.731C261.047 181.047 261.545 180.519 262.229 180.147C262.913 179.763 263.699 179.571 264.587 179.571ZM264.479 186.123C265.391 186.123 266.129 185.877 266.693 185.385C267.269 184.881 267.557 184.215 267.557 183.387C267.557 182.559 267.269 181.899 266.693 181.407C266.129 180.915 265.361 180.669 264.389 180.669C263.753 180.669 263.189 180.789 262.697 181.029C262.217 181.269 261.839 181.599 261.563 182.019C261.287 182.439 261.149 182.907 261.149 183.423C261.149 183.903 261.275 184.347 261.527 184.755C261.791 185.163 262.175 185.493 262.679 185.745C263.183 185.997 263.783 186.123 264.479 186.123Z" fill="#20201F"/>
<path d="M368.378 391.256V400.724H367.1V392.39H362.564L362.438 394.73C362.342 396.698 362.114 398.21 361.754 399.266C361.394 400.322 360.752 400.85 359.828 400.85C359.576 400.85 359.27 400.802 358.91 400.706L359 399.608C359.216 399.656 359.366 399.68 359.45 399.68C359.942 399.68 360.314 399.452 360.566 398.996C360.818 398.54 360.986 397.976 361.07 397.304C361.154 396.632 361.226 395.744 361.286 394.64L361.448 391.256H368.378ZM375.917 400.814C375.005 400.814 374.183 400.61 373.451 400.202C372.719 399.782 372.143 399.206 371.723 398.474C371.303 397.742 371.093 396.914 371.093 395.99C371.093 395.066 371.303 394.238 371.723 393.506C372.143 392.774 372.719 392.204 373.451 391.796C374.183 391.388 375.005 391.184 375.917 391.184C376.829 391.184 377.651 391.388 378.383 391.796C379.115 392.204 379.685 392.774 380.093 393.506C380.513 394.238 380.723 395.066 380.723 395.99C380.723 396.914 380.513 397.742 380.093 398.474C379.685 399.206 379.115 399.782 378.383 400.202C377.651 400.61 376.829 400.814 375.917 400.814ZM375.917 399.68C376.589 399.68 377.189 399.53 377.717 399.23C378.257 398.918 378.677 398.48 378.977 397.916C379.277 397.352 379.427 396.71 379.427 395.99C379.427 395.27 379.277 394.628 378.977 394.064C378.677 393.5 378.257 393.068 377.717 392.768C377.189 392.456 376.589 392.3 375.917 392.3C375.245 392.3 374.639 392.456 374.099 392.768C373.571 393.068 373.151 393.5 372.839 394.064C372.539 394.628 372.389 395.27 372.389 395.99C372.389 396.71 372.539 397.352 372.839 397.916C373.151 398.48 373.571 398.918 374.099 399.23C374.639 399.53 375.245 399.68 375.917 399.68ZM392.636 399.608V403.01H391.43V400.724H382.952V403.01H381.746V399.608H382.286C382.922 399.572 383.354 399.104 383.582 398.204C383.81 397.304 383.966 396.044 384.05 394.424L384.176 391.256H391.16V399.608H392.636ZM385.22 394.496C385.16 395.84 385.046 396.95 384.878 397.826C384.71 398.69 384.41 399.284 383.978 399.608H389.882V392.39H385.328L385.22 394.496ZM403.425 396.512H401.373V400.724H400.095V396.512H398.043L395.145 400.724H393.615L397.017 395.846L393.885 391.256H395.271L398.043 395.414H400.095V391.256H401.373V395.414H403.425L406.215 391.256H407.601L404.469 395.864L407.871 400.724H406.341L403.425 396.512ZM409.998 391.256H411.276V398.78L417.594 391.256H418.728V400.724H417.45V393.2L411.15 400.724H409.998V391.256ZM429.663 391.256V400.724H428.493V397.592H425.523H425.163L422.967 400.724H421.581L423.939 397.412C423.207 397.208 422.643 396.86 422.247 396.368C421.851 395.876 421.653 395.252 421.653 394.496C421.653 393.44 422.013 392.636 422.733 392.084C423.453 391.532 424.437 391.256 425.685 391.256H429.663ZM422.949 394.532C422.949 395.936 423.843 396.638 425.631 396.638H428.493V392.39H425.721C423.873 392.39 422.949 393.104 422.949 394.532Z" fill="#20201F"/>
<path d="M387.71 426.698H385.19V430.01H383.894V426.698H376.784V425.762L383.462 417.41H384.902L378.458 425.546H383.93V422.63H385.19V425.546H387.71V426.698ZM390.224 430.1C389.96 430.1 389.732 430.004 389.54 429.812C389.36 429.62 389.27 429.386 389.27 429.11C389.27 428.834 389.36 428.606 389.54 428.426C389.732 428.234 389.96 428.138 390.224 428.138C390.488 428.138 390.716 428.234 390.908 428.426C391.1 428.606 391.196 428.834 391.196 429.11C391.196 429.386 391.1 429.62 390.908 429.812C390.716 430.004 390.488 430.1 390.224 430.1ZM396.379 422.576C398.203 422.576 399.529 422.906 400.357 423.566C401.197 424.214 401.617 425.126 401.617 426.302C401.617 427.034 401.443 427.688 401.095 428.264C400.759 428.84 400.249 429.296 399.565 429.632C398.881 429.956 398.041 430.118 397.045 430.118C396.145 430.118 395.287 429.974 394.471 429.686C393.667 429.386 393.019 428.99 392.527 428.498L393.157 427.472C393.577 427.904 394.129 428.258 394.813 428.534C395.497 428.798 396.235 428.93 397.027 428.93C398.071 428.93 398.875 428.696 399.439 428.228C400.015 427.76 400.303 427.136 400.303 426.356C400.303 425.492 399.979 424.838 399.331 424.394C398.695 423.95 397.615 423.728 396.091 423.728H393.409L394.057 417.41H400.951V418.562H395.191L394.759 422.576H396.379ZM413.972 426.698H411.452V430.01H410.156V426.698H403.046V425.762L409.724 417.41H411.164L404.72 425.546H410.192V422.63H411.452V425.546H413.972V426.698Z" fill="#20201F"/>
<path d="M144.755 279.54H142.235V282.852H140.939V279.54H133.829V278.604L140.507 270.252H141.947L135.503 278.388H140.975V275.472H142.235V278.388H144.755V279.54ZM147.269 282.942C147.005 282.942 146.777 282.846 146.585 282.654C146.405 282.462 146.315 282.228 146.315 281.952C146.315 281.676 146.405 281.448 146.585 281.268C146.777 281.076 147.005 280.98 147.269 280.98C147.533 280.98 147.761 281.076 147.953 281.268C148.145 281.448 148.241 281.676 148.241 281.952C148.241 282.228 148.145 282.462 147.953 282.654C147.761 282.846 147.533 282.942 147.269 282.942ZM158.891 281.7V282.852H150.053V281.934L155.291 276.804C155.951 276.156 156.395 275.598 156.623 275.13C156.863 274.65 156.983 274.17 156.983 273.69C156.983 272.946 156.725 272.37 156.209 271.962C155.705 271.542 154.979 271.332 154.031 271.332C152.555 271.332 151.409 271.8 150.593 272.736L149.675 271.944C150.167 271.368 150.791 270.924 151.547 270.612C152.315 270.3 153.179 270.144 154.139 270.144C155.423 270.144 156.437 270.45 157.181 271.062C157.937 271.662 158.315 272.49 158.315 273.546C158.315 274.194 158.171 274.818 157.883 275.418C157.595 276.018 157.049 276.708 156.245 277.488L151.961 281.7H158.891ZM167.736 276.246C168.528 276.51 169.134 276.906 169.554 277.434C169.986 277.962 170.202 278.598 170.202 279.342C170.202 280.074 170.004 280.716 169.608 281.268C169.212 281.808 168.642 282.228 167.898 282.528C167.166 282.816 166.302 282.96 165.306 282.96C163.794 282.96 162.606 282.636 161.742 281.988C160.878 281.34 160.446 280.458 160.446 279.342C160.446 278.586 160.65 277.95 161.058 277.434C161.478 276.906 162.084 276.51 162.876 276.246C162.228 275.994 161.736 275.634 161.4 275.166C161.064 274.686 160.896 274.122 160.896 273.474C160.896 272.454 161.292 271.644 162.084 271.044C162.888 270.444 163.962 270.144 165.306 270.144C166.194 270.144 166.968 270.282 167.628 270.558C168.3 270.822 168.822 271.206 169.194 271.71C169.566 272.214 169.752 272.802 169.752 273.474C169.752 274.122 169.578 274.686 169.23 275.166C168.882 275.634 168.384 275.994 167.736 276.246ZM162.192 273.51C162.192 274.206 162.468 274.758 163.02 275.166C163.572 275.574 164.334 275.778 165.306 275.778C166.278 275.778 167.04 275.574 167.592 275.166C168.156 274.758 168.438 274.212 168.438 273.528C168.438 272.82 168.15 272.262 167.574 271.854C167.01 271.446 166.254 271.242 165.306 271.242C164.346 271.242 163.584 271.446 163.02 271.854C162.468 272.262 162.192 272.814 162.192 273.51ZM165.306 281.862C166.422 281.862 167.292 281.634 167.916 281.178C168.552 280.722 168.87 280.104 168.87 279.324C168.87 278.544 168.552 277.932 167.916 277.488C167.292 277.032 166.422 276.804 165.306 276.804C164.202 276.804 163.332 277.032 162.696 277.488C162.072 277.932 161.76 278.544 161.76 279.324C161.76 280.116 162.072 280.74 162.696 281.196C163.32 281.64 164.19 281.862 165.306 281.862Z" fill="#20201F"/>
<path d="M107.625 129.926H105.465V134.138H104.187V124.67H105.465V128.828H107.643L110.973 124.67H112.359L108.633 129.26L112.629 134.138H111.117L107.625 129.926ZM122.386 124.67V134.138H121.108V125.804H116.572L116.446 128.144C116.35 130.112 116.122 131.624 115.762 132.68C115.402 133.736 114.76 134.264 113.836 134.264C113.584 134.264 113.278 134.216 112.918 134.12L113.008 133.022C113.224 133.07 113.374 133.094 113.458 133.094C113.95 133.094 114.322 132.866 114.574 132.41C114.826 131.954 114.994 131.39 115.078 130.718C115.162 130.046 115.234 129.158 115.294 128.054L115.456 124.67H122.386ZM129.277 124.598C130.513 124.598 131.461 124.91 132.121 125.534C132.781 126.146 133.111 127.058 133.111 128.27V134.138H131.887V132.662C131.599 133.154 131.173 133.538 130.609 133.814C130.057 134.09 129.397 134.228 128.629 134.228C127.573 134.228 126.733 133.976 126.109 133.472C125.485 132.968 125.173 132.302 125.173 131.474C125.173 130.67 125.461 130.022 126.037 129.53C126.625 129.038 127.555 128.792 128.827 128.792H131.833V128.216C131.833 127.4 131.605 126.782 131.149 126.362C130.693 125.93 130.027 125.714 129.151 125.714C128.551 125.714 127.975 125.816 127.423 126.02C126.871 126.212 126.397 126.482 126.001 126.83L125.425 125.876C125.905 125.468 126.481 125.156 127.153 124.94C127.825 124.712 128.533 124.598 129.277 124.598ZM128.827 133.22C129.547 133.22 130.165 133.058 130.681 132.734C131.197 132.398 131.581 131.918 131.833 131.294V129.746H128.863C127.243 129.746 126.433 130.31 126.433 131.438C126.433 131.99 126.643 132.428 127.063 132.752C127.483 133.064 128.071 133.22 128.827 133.22ZM145.747 133.022V136.424H144.541V134.138H136.063V136.424H134.857V133.022H135.397C136.033 132.986 136.465 132.518 136.693 131.618C136.921 130.718 137.077 129.458 137.161 127.838L137.287 124.67H144.271V133.022H145.747ZM138.331 127.91C138.271 129.254 138.157 130.364 137.989 131.24C137.821 132.104 137.521 132.698 137.089 133.022H142.993V125.804H138.439L138.331 127.91ZM152.144 134.228C151.232 134.228 150.41 134.024 149.678 133.616C148.946 133.196 148.37 132.62 147.95 131.888C147.53 131.156 147.32 130.328 147.32 129.404C147.32 128.48 147.53 127.652 147.95 126.92C148.37 126.188 148.946 125.618 149.678 125.21C150.41 124.802 151.232 124.598 152.144 124.598C153.056 124.598 153.878 124.802 154.61 125.21C155.342 125.618 155.912 126.188 156.32 126.92C156.74 127.652 156.95 128.48 156.95 129.404C156.95 130.328 156.74 131.156 156.32 131.888C155.912 132.62 155.342 133.196 154.61 133.616C153.878 134.024 153.056 134.228 152.144 134.228ZM152.144 133.094C152.816 133.094 153.416 132.944 153.944 132.644C154.484 132.332 154.904 131.894 155.204 131.33C155.504 130.766 155.654 130.124 155.654 129.404C155.654 128.684 155.504 128.042 155.204 127.478C154.904 126.914 154.484 126.482 153.944 126.182C153.416 125.87 152.816 125.714 152.144 125.714C151.472 125.714 150.866 125.87 150.326 126.182C149.798 126.482 149.378 126.914 149.066 127.478C148.766 128.042 148.616 128.684 148.616 129.404C148.616 130.124 148.766 130.766 149.066 131.33C149.378 131.894 149.798 132.332 150.326 132.644C150.866 132.944 151.472 133.094 152.144 133.094ZM165.711 129.242C166.995 129.542 167.637 130.316 167.637 131.564C167.637 132.392 167.331 133.028 166.719 133.472C166.107 133.916 165.195 134.138 163.983 134.138H159.681V124.67H163.857C164.937 124.67 165.783 124.88 166.395 125.3C167.007 125.72 167.313 126.32 167.313 127.1C167.313 127.616 167.169 128.06 166.881 128.432C166.605 128.792 166.215 129.062 165.711 129.242ZM160.923 128.882H163.767C164.499 128.882 165.057 128.744 165.441 128.468C165.837 128.192 166.035 127.79 166.035 127.262C166.035 126.734 165.837 126.338 165.441 126.074C165.057 125.81 164.499 125.678 163.767 125.678H160.923V128.882ZM163.929 133.13C164.745 133.13 165.357 132.998 165.765 132.734C166.173 132.47 166.377 132.056 166.377 131.492C166.377 130.928 166.191 130.514 165.819 130.25C165.447 129.974 164.859 129.836 164.055 129.836H160.923V133.13H163.929ZM173.89 124.598C175.126 124.598 176.074 124.91 176.734 125.534C177.394 126.146 177.724 127.058 177.724 128.27V134.138H176.5V132.662C176.212 133.154 175.786 133.538 175.222 133.814C174.67 134.09 174.01 134.228 173.242 134.228C172.186 134.228 171.346 133.976 170.722 133.472C170.098 132.968 169.786 132.302 169.786 131.474C169.786 130.67 170.074 130.022 170.65 129.53C171.238 129.038 172.168 128.792 173.44 128.792H176.446V128.216C176.446 127.4 176.218 126.782 175.762 126.362C175.306 125.93 174.64 125.714 173.764 125.714C173.164 125.714 172.588 125.816 172.036 126.02C171.484 126.212 171.01 126.482 170.614 126.83L170.038 125.876C170.518 125.468 171.094 125.156 171.766 124.94C172.438 124.712 173.146 124.598 173.89 124.598ZM173.44 133.22C174.16 133.22 174.778 133.058 175.294 132.734C175.81 132.398 176.194 131.918 176.446 131.294V129.746H173.476C171.856 129.746 171.046 130.31 171.046 131.438C171.046 131.99 171.256 132.428 171.676 132.752C172.096 133.064 172.684 133.22 173.44 133.22ZM188.399 124.67V134.138H187.229V131.006H184.259H183.899L181.703 134.138H180.317L182.675 130.826C181.943 130.622 181.379 130.274 180.983 129.782C180.587 129.29 180.389 128.666 180.389 127.91C180.389 126.854 180.749 126.05 181.469 125.498C182.189 124.946 183.173 124.67 184.421 124.67H188.399ZM181.685 127.946C181.685 129.35 182.579 130.052 184.367 130.052H187.229V125.804H184.457C182.609 125.804 181.685 126.518 181.685 127.946Z" fill="#20201F"/>
<path d="M134.759 150.824V163.424H133.463V151.976H130.493V150.824H134.759ZM138.743 163.514C138.479 163.514 138.251 163.418 138.059 163.226C137.879 163.034 137.789 162.8 137.789 162.524C137.789 162.248 137.879 162.02 138.059 161.84C138.251 161.648 138.479 161.552 138.743 161.552C139.007 161.552 139.235 161.648 139.427 161.84C139.619 162.02 139.715 162.248 139.715 162.524C139.715 162.8 139.619 163.034 139.427 163.226C139.235 163.418 139.007 163.514 138.743 163.514ZM145.509 150.716C147.177 150.716 148.455 151.268 149.343 152.372C150.231 153.464 150.675 155.012 150.675 157.016C150.675 158.42 150.435 159.608 149.955 160.58C149.475 161.552 148.803 162.29 147.939 162.794C147.075 163.286 146.067 163.532 144.915 163.532C143.667 163.532 142.671 163.304 141.927 162.848L142.449 161.804C143.049 162.2 143.865 162.398 144.897 162.398C146.289 162.398 147.381 161.96 148.173 161.084C148.965 160.196 149.361 158.912 149.361 157.232C149.361 156.92 149.343 156.578 149.307 156.206C148.995 156.89 148.497 157.424 147.813 157.808C147.129 158.18 146.343 158.366 145.455 158.366C144.627 158.366 143.889 158.21 143.241 157.898C142.605 157.586 142.107 157.148 141.747 156.584C141.387 156.008 141.207 155.342 141.207 154.586C141.207 153.818 141.393 153.14 141.765 152.552C142.137 151.964 142.647 151.514 143.295 151.202C143.955 150.878 144.693 150.716 145.509 150.716ZM145.653 157.268C146.289 157.268 146.847 157.148 147.327 156.908C147.819 156.668 148.203 156.338 148.479 155.918C148.755 155.498 148.893 155.03 148.893 154.514C148.893 154.034 148.761 153.59 148.497 153.182C148.245 152.774 147.867 152.444 147.363 152.192C146.859 151.94 146.259 151.814 145.563 151.814C144.651 151.814 143.907 152.066 143.331 152.57C142.767 153.062 142.485 153.722 142.485 154.55C142.485 155.378 142.767 156.038 143.331 156.53C143.907 157.022 144.681 157.268 145.653 157.268ZM161.306 150.824V151.742L156.032 163.424H154.628L159.812 151.976H153.332V154.334H152.054V150.824H161.306Z" fill="#20201F"/>
</g>
<defs>
<clipPath id="clip0_2384_28737">
<rect width="468.916" height="512.031" fill="white" transform="translate(66 19)"/>
</clipPath>
</defs>
</svg>
