<svg width="750" height="700" viewBox="0 0 750 700" fill="none" xmlns="http://www.w3.org/2000/svg">
<rect width="750" height="700" fill="white"/>
<g clip-path="url(#clip0_2384_28736)">
<path fill-rule="evenodd" clip-rule="evenodd" d="M51 676.367H475.6V582.347H698.981V23H242.643V40.9739L185.73 40.9833L68.968 157.746V214.638H51V676.367Z" fill="#ED9FA6"/>
<path d="M698.981 58.9316H684.006V457.78H698.981V58.9316Z" fill="#C6C0E1"/>
<path fill-rule="evenodd" clip-rule="evenodd" d="M51 676.367H475.6V582.347H698.981V23H242.643V40.9739L185.73 40.9833L68.968 157.746V214.638H51V676.367Z" fill="#F6D6B9"/>
<path d="M698.981 58.9316H684.006V457.78H698.981V58.9316Z" fill="#E4CDA1"/>
<path d="M81.5436 626.058H58.7871V661.391H81.5436V626.058Z" fill="#20201F"/>
<path d="M475.6 661.391H51V676.367H475.6V661.391Z" fill="#20201F"/>
<path d="M475.6 567.372H460.625V661.391H475.6V567.372Z" fill="#20201F"/>
<path d="M488.994 567.372H460.625V582.347H488.994V567.372Z" fill="#20201F"/>
<path d="M81.5436 414.66H58.7871V500.299H81.5436V414.66Z" fill="#20201F"/>
<path d="M81.5436 222.423H58.7871V288.898H81.5436V222.423Z" fill="#20201F"/>
<path d="M272.832 222.423H58.7871V244.832H272.832V222.423Z" fill="#20201F"/>
<path d="M273.181 137.384H250.424V245.18H273.181V137.384Z" fill="#20201F"/>
<path d="M273.181 30.7854H250.424V89.4745H273.181V30.7854Z" fill="#20201F"/>
<path d="M316.9 30.7854H250.424V53.5419H316.9V30.7854Z" fill="#20201F"/>
<path d="M527.703 30.7854H442.664V53.5419H527.703V30.7854Z" fill="#20201F"/>
<path d="M684.006 30.7854H653.468V53.5419H684.006V30.7854Z" fill="#20201F"/>
<path d="M698.981 38.5105H684.006V457.78H698.981V38.5105Z" fill="#20201F"/>
<path d="M698.981 442.808H684.006V457.78H698.981V442.808Z" fill="#20201F"/>
<path d="M698.981 567.372H548.878V582.347H698.981V567.372Z" fill="#20201F"/>
<path d="M698.981 457.78H684.006V582.347H698.981V457.78Z" fill="#20201F"/>
<path d="M102.504 445.802H66.5723V481.734H102.504V445.802Z" fill="#20201F"/>
<path d="M102.504 230.892H66.5723V266.14H102.504V230.892Z" fill="#20201F"/>
<path d="M294.143 38.5703H258.214V74.5019H294.143V38.5703Z" fill="#20201F"/>
<path d="M273.007 230.015H234.085V244.658H273.007V230.015Z" fill="#20201F"/>
<path d="M273.181 206.253H258.214V244.483H273.181V206.253Z" fill="#20201F"/>
<path d="M527.704 38.5703H491.766V74.5019H527.704V38.5703Z" fill="#20201F"/>
<path d="M496.562 370.943H460.625V406.875H496.562V370.943Z" fill="#20201F"/>
<path d="M698.981 30.1262H684.006V58.9316H698.981V30.1262Z" fill="#20201F"/>
<path d="M250.424 214.638H51.0015V222.423H250.424V214.638Z" fill="#20201F"/>
<path d="M250.424 137.384H242.643V214.638H250.424V137.384Z" fill="#20201F"/>
<path d="M250.424 23H242.643V89.4745H250.424V23Z" fill="#20201F"/>
<path d="M320.497 23H242.643V30.7854H320.497V23Z" fill="#20201F"/>
<path d="M531.292 23H439.067V30.7854H531.292V23Z" fill="#20201F"/>
<path d="M698.981 23H650.466V30.7854H698.981V23Z" fill="#20201F"/>
<path d="M51.0017 645.821H51V652.954H51.0017V645.821Z" fill="#20201F"/>
<path d="M58.7868 622.469H51.0015V661.391H58.7868V622.469Z" fill="#20201F"/>
<path d="M58.7868 411.068H51.0015V503.892H58.7868V411.068Z" fill="#20201F"/>
<path d="M58.7868 222.423H51.0015V292.491H58.7868V222.423Z" fill="#20201F"/>
<path d="M53.3624 650.418H51V665.605H53.3624V650.418Z" fill="#20201F"/>
<path fill-rule="evenodd" clip-rule="evenodd" d="M188.447 48.4208H242.643V40.9663H185.747H185.73V40.9833L68.9678 157.746V214.638H76.1536V160.722L188.447 48.4208Z" fill="#20201F"/>
<path d="M273.181 245.181H268.393V412.189H273.181V245.181Z" fill="#20201F"/>
<path d="M327.648 402.085H270.844V406.875H327.648V402.085Z" fill="#20201F"/>
<path d="M460.624 402.085H405.502V406.875H460.624V402.085Z" fill="#20201F"/>
<path d="M281.251 476.944H102.504V481.735H281.251V476.944Z" fill="#20201F"/>
<path d="M273.181 466.087H268.393V479.314H273.181V466.087Z" fill="#20201F"/>
<path fill-rule="evenodd" clip-rule="evenodd" d="M335.149 476.944H417.339L415.392 481.735H335.149V476.944Z" fill="#20201F"/>
<path d="M367.277 479.246H362.48V496.463H367.277V479.246Z" fill="#20201F"/>
<path fill-rule="evenodd" clip-rule="evenodd" d="M417.339 476.944L432.604 491.777L429.271 495.213L415.392 481.735L417.339 476.944Z" fill="#20201F"/>
<path d="M400.553 479.482H395.765V567.372H400.553V479.482Z" fill="#20201F"/>
<path d="M460.624 567.372H362.48V572.16H460.624V567.372Z" fill="#20201F"/>
<path d="M367.277 563.128H362.48V583.393H367.277V563.128Z" fill="#20201F"/>
<path fill-rule="evenodd" clip-rule="evenodd" d="M484.197 548.587L488.993 546.563V567.372H484.197V548.587Z" fill="#20201F"/>
<path fill-rule="evenodd" clip-rule="evenodd" d="M480.359 538.175L488.993 546.563L484.197 548.587L476.973 541.562L480.359 538.175Z" fill="#20201F"/>
<path d="M564.832 544.114H560.044V567.372H564.832V544.114Z" fill="#20201F"/>
<path d="M564.832 412.865H560.044V502.195H564.832V412.865Z" fill="#20201F"/>
<path d="M564.832 315.847H552.458V320.187H564.832V315.847Z" fill="#20201F"/>
<path d="M564.832 315.847H560.044V370.943H564.832V315.847Z" fill="#20201F"/>
<path d="M504.547 315.847H494.043V320.638H504.547V315.847Z" fill="#20201F"/>
<path d="M496.562 74.5024H491.766V370.943H496.562V74.5024Z" fill="#20201F"/>
<path d="M684.006 315.847H564.832V320.638H684.006V315.847Z" fill="#20201F"/>
<path d="M684.006 487.723H564.832V492.514H684.006V487.723Z" fill="#20201F"/>
<path d="M698.981 504.491H698.644V511.68H698.981V504.491Z" fill="#20201F"/>
<path d="M367.277 650.056H362.48V661.391H367.277V650.056Z" fill="#20201F"/>
<path d="M439.067 23.0205H320.497V26.8728H439.067V23.0205Z" fill="#20201F"/>
<path d="M442.936 30.7854H316.899V34.6368H442.936V30.7854Z" fill="#20201F"/>
<path d="M442.936 49.6907H316.899V53.5421H442.936V49.6907Z" fill="#20201F"/>
<path d="M650.467 23.0205H531.279V26.8728H650.467V23.0205Z" fill="#20201F"/>
<path d="M653.564 30.7854H527.703V34.6368H653.564V30.7854Z" fill="#20201F"/>
<path d="M653.564 49.6907H527.703V53.5421H653.564V49.6907Z" fill="#20201F"/>
<path d="M54.8523 503.889H51V622.476H54.8523V503.889Z" fill="#20201F"/>
<path d="M62.6165 500.3H58.7651V626.065H62.6165V500.3Z" fill="#20201F"/>
<path d="M81.5213 500.3H77.6699V626.065H81.5213V500.3Z" fill="#20201F"/>
<path d="M54.8523 292.487H51V411.074H54.8523V292.487Z" fill="#20201F"/>
<path d="M62.6165 288.898H58.7651V414.664H62.6165V288.898Z" fill="#20201F"/>
<path d="M81.5213 288.898H77.6699V414.664H81.5213V288.898Z" fill="#20201F"/>
<path fill-rule="evenodd" clip-rule="evenodd" d="M329.367 402.427C329.367 401.488 330.129 400.726 331.067 400.726C332.006 400.726 332.768 401.488 332.768 402.427V438.423C332.768 439.362 332.006 440.124 331.067 440.124C330.129 440.124 329.367 439.362 329.367 438.423V402.427Z" fill="#20201F"/>
<path fill-rule="evenodd" clip-rule="evenodd" d="M363.985 402.085C363.985 401.616 364.366 401.235 364.835 401.235C365.305 401.235 365.686 401.616 365.686 402.085C365.686 412.321 362.285 421.596 356.791 428.317C351.258 435.086 343.598 439.274 335.129 439.274C334.66 439.274 334.279 438.893 334.279 438.423C334.279 437.954 334.66 437.573 335.129 437.573C343.062 437.573 350.258 433.623 355.477 427.24C360.732 420.811 363.985 411.918 363.985 402.085Z" fill="#20201F"/>
<path fill-rule="evenodd" clip-rule="evenodd" d="M399.723 402.433C399.723 401.494 400.485 400.732 401.424 400.732C402.363 400.732 403.125 401.494 403.125 402.433V438.431C403.125 439.37 402.363 440.132 401.424 440.132C400.485 440.132 399.723 439.37 399.723 438.431V402.433Z" fill="#20201F"/>
<path fill-rule="evenodd" clip-rule="evenodd" d="M366.803 402.093C366.803 401.623 367.184 401.242 367.653 401.242C368.123 401.242 368.504 401.623 368.504 402.093C368.504 411.924 371.757 420.819 377.013 427.247C382.232 433.631 389.43 437.581 397.362 437.581C397.832 437.581 398.213 437.962 398.213 438.431C398.213 438.9 397.832 439.281 397.362 439.281C388.893 439.281 381.232 435.093 375.699 428.324C370.204 421.603 366.803 412.326 366.803 402.093Z" fill="#20201F"/>
<path fill-rule="evenodd" clip-rule="evenodd" d="M270.03 418.183C269.091 418.183 268.329 417.421 268.329 416.482C268.329 415.543 269.091 414.781 270.03 414.781H306.026C306.965 414.781 307.727 415.543 307.727 416.482C307.727 417.421 306.965 418.183 306.026 418.183H270.03Z" fill="#20201F"/>
<path fill-rule="evenodd" clip-rule="evenodd" d="M269.688 463.177C269.218 463.177 268.837 462.796 268.837 462.326C268.837 461.857 269.218 461.476 269.688 461.476C279.47 461.476 288.333 457.068 294.75 449.945C301.191 442.796 305.176 432.914 305.176 421.997C305.176 421.528 305.557 421.147 306.026 421.147C306.495 421.147 306.876 421.528 306.876 421.997C306.876 433.346 302.724 443.632 296.012 451.081C289.28 458.553 279.973 463.177 269.688 463.177Z" fill="#20201F"/>
<path fill-rule="evenodd" clip-rule="evenodd" d="M330.257 478.975C330.257 478.036 331.019 477.274 331.958 477.274C332.897 477.274 333.659 478.036 333.659 478.975V514.971C333.659 515.91 332.897 516.672 331.958 516.672C331.019 516.672 330.257 515.91 330.257 514.971V478.975Z" fill="#20201F"/>
<path fill-rule="evenodd" clip-rule="evenodd" d="M283.354 478.633C283.354 478.164 283.735 477.783 284.204 477.783C284.674 477.783 285.055 478.164 285.055 478.633C285.055 488.409 289.646 497.269 297.064 503.685C304.517 510.132 314.825 514.121 326.214 514.121C326.683 514.121 327.064 514.502 327.064 514.972C327.064 515.441 326.683 515.822 326.214 515.822C314.409 515.822 303.707 511.673 295.955 504.968C288.171 498.235 283.354 488.924 283.354 478.633Z" fill="#20201F"/>
<path fill-rule="evenodd" clip-rule="evenodd" d="M509.723 318.569C509.723 319.508 508.961 320.27 508.023 320.27C507.084 320.27 506.322 319.508 506.322 318.569V282.573C506.322 281.634 507.084 280.872 508.023 280.872C508.961 280.872 509.723 281.634 509.723 282.573V318.569Z" fill="#20201F"/>
<path fill-rule="evenodd" clip-rule="evenodd" d="M550.114 318.911C550.114 319.38 549.733 319.761 549.263 319.761C548.794 319.761 548.413 319.38 548.413 318.911C548.413 309.11 544.446 300.236 538.035 293.816C531.625 287.395 522.767 283.423 512.984 283.423C512.514 283.423 512.133 283.042 512.133 282.573C512.133 282.103 512.514 281.722 512.984 281.722C523.232 281.722 532.516 285.887 539.237 292.62C545.956 299.349 550.114 308.646 550.114 318.911Z" fill="#20201F"/>
<path fill-rule="evenodd" clip-rule="evenodd" d="M561.966 375.063C561.027 375.063 560.266 374.301 560.266 373.362C560.266 372.423 561.027 371.661 561.966 371.661H597.963C598.901 371.661 599.664 372.423 599.664 373.362C599.664 374.301 598.901 375.063 597.963 375.063H561.966Z" fill="#20201F"/>
<path fill-rule="evenodd" clip-rule="evenodd" d="M561.625 410.382C561.155 410.382 560.774 410.001 560.774 409.532C560.774 409.063 561.155 408.682 561.625 408.682C571.448 408.682 580.335 405.2 586.76 399.574C593.156 393.974 597.113 386.242 597.113 377.713C597.113 377.243 597.494 376.863 597.963 376.863C598.432 376.863 598.813 377.243 598.813 377.713C598.813 386.75 594.633 394.933 587.876 400.85C581.151 406.739 571.868 410.382 561.625 410.382Z" fill="#20201F"/>
<path fill-rule="evenodd" clip-rule="evenodd" d="M561.966 506.94C561.027 506.94 560.266 506.178 560.266 505.24C560.266 504.301 561.027 503.539 561.966 503.539H597.963C598.901 503.539 599.664 504.301 599.664 505.24C599.664 506.178 598.901 506.94 597.963 506.94H561.966Z" fill="#20201F"/>
<path fill-rule="evenodd" clip-rule="evenodd" d="M561.625 542.26C561.155 542.26 560.774 541.879 560.774 541.409C560.774 540.94 561.155 540.559 561.625 540.559C571.448 540.559 580.335 537.077 586.76 531.451C593.156 525.851 597.113 518.12 597.113 509.59C597.113 509.121 597.494 508.74 597.963 508.74C598.432 508.74 598.813 509.121 598.813 509.59C598.813 518.627 594.633 526.811 587.876 532.727C581.151 538.616 571.868 542.26 561.625 542.26Z" fill="#20201F"/>
<path fill-rule="evenodd" clip-rule="evenodd" d="M493.416 577.573C493.416 578.512 492.654 579.274 491.715 579.274C490.777 579.274 490.015 578.512 490.015 577.573V541.577C490.015 540.638 490.777 539.876 491.715 539.876C492.654 539.876 493.416 540.638 493.416 541.577V577.573Z" fill="#20201F"/>
<path fill-rule="evenodd" clip-rule="evenodd" d="M544.897 577.915C544.897 578.385 544.516 578.766 544.046 578.766C543.577 578.766 543.196 578.385 543.196 577.915C543.196 568.153 538.166 559.303 530.037 552.885C521.851 546.425 510.527 542.427 498.01 542.427C497.541 542.427 497.16 542.046 497.16 541.577C497.16 541.108 497.541 540.727 498.01 540.727C510.912 540.727 522.609 544.866 531.086 551.557C539.616 558.291 544.897 567.61 544.897 577.915Z" fill="#20201F"/>
<path fill-rule="evenodd" clip-rule="evenodd" d="M252.034 135.801C251.095 135.801 250.333 135.039 250.333 134.1C250.333 133.161 251.095 132.399 252.034 132.399H288.03C288.969 132.399 289.731 133.161 289.731 134.1C289.731 135.039 288.969 135.801 288.03 135.801H252.034Z" fill="#20201F"/>
<path fill-rule="evenodd" clip-rule="evenodd" d="M251.692 92.8624C251.222 92.8624 250.841 92.4814 250.841 92.012C250.841 91.5426 251.222 91.1616 251.692 91.1616C261.96 91.1616 271.259 95.4059 277.989 102.263C284.718 109.119 288.88 118.588 288.88 129.037C288.88 129.507 288.499 129.888 288.03 129.888C287.561 129.888 287.18 129.507 287.18 129.037C287.18 119.045 283.205 109.999 276.78 103.452C270.36 96.9103 261.489 92.8624 251.692 92.8624Z" fill="#20201F"/>
<path fill-rule="evenodd" clip-rule="evenodd" d="M681.567 177.36V267.714H645.425V176.297H681.567V177.36ZM677.294 239.435C677.294 238.441 676.887 237.535 676.229 236.881C675.574 236.228 674.671 235.82 673.68 235.82H653.27C652.279 235.82 651.376 236.228 650.716 236.881C650.062 237.535 649.656 238.441 649.656 239.435V259.845C649.656 260.836 650.063 261.74 650.716 262.398C651.37 263.052 652.275 263.458 653.27 263.458H673.68C674.675 263.458 675.579 263.052 676.231 262.395C676.887 261.74 677.294 260.836 677.294 259.845V239.435ZM675.605 187.87C675.605 186.494 675.044 185.244 674.141 184.338C673.237 183.435 671.987 182.874 670.609 182.874C669.234 182.874 667.985 183.435 667.077 184.341C666.173 185.246 665.613 186.495 665.613 187.87C665.613 189.248 666.173 190.498 667.079 191.4C667.983 192.306 669.233 192.866 670.609 192.866C671.987 192.866 673.237 192.306 674.141 191.402C675.044 190.498 675.605 189.248 675.605 187.87ZM662.442 187.87C662.442 186.198 661.762 184.683 660.666 183.587C659.57 182.491 658.054 181.811 656.383 181.811C654.711 181.811 653.195 182.491 652.099 183.587C651.003 184.683 650.324 186.198 650.324 187.87C650.324 189.541 651.003 191.057 652.099 192.154C653.195 193.25 654.711 193.929 656.383 193.929C658.054 193.929 659.57 193.25 660.666 192.154C661.762 191.057 662.442 189.541 662.442 187.87ZM659.615 191.103C660.441 190.277 660.954 189.132 660.954 187.87C660.954 186.607 660.441 185.464 659.615 184.638C658.789 183.812 657.645 183.299 656.383 183.299C655.12 183.299 653.976 183.812 653.15 184.638C652.325 185.464 651.812 186.607 651.812 187.87C651.812 189.132 652.325 190.277 653.15 191.103C653.976 191.928 655.12 192.441 656.383 192.441C657.645 192.441 658.789 191.928 659.615 191.103ZM676.668 200.865C676.668 199.193 675.989 197.678 674.892 196.582C673.796 195.485 672.281 194.806 670.609 194.806C668.937 194.806 667.421 195.485 666.325 196.581C665.229 197.677 664.55 199.193 664.55 200.865C664.55 202.537 665.229 204.052 666.326 205.148C667.422 206.245 668.937 206.924 670.609 206.924C672.28 206.924 673.796 206.245 674.892 205.148C675.989 204.052 676.668 202.536 676.668 200.865ZM673.841 204.097C674.667 203.272 675.18 202.127 675.18 200.865C675.18 199.602 674.667 198.458 673.841 197.633C673.016 196.807 671.872 196.294 670.609 196.294C669.346 196.294 668.201 196.806 667.376 197.632C666.55 198.458 666.038 199.602 666.038 200.865C666.038 202.128 666.551 203.272 667.377 204.097C668.202 204.923 669.346 205.436 670.609 205.436C671.871 205.436 673.016 204.923 673.841 204.097ZM661.379 200.865C661.379 199.489 660.818 198.239 659.914 197.333C659.01 196.429 657.76 195.869 656.383 195.869C655.008 195.869 653.758 196.429 652.851 197.336C651.947 198.241 651.387 199.49 651.387 200.865C651.387 202.243 651.947 203.493 652.853 204.395C653.757 205.301 655.007 205.861 656.383 205.861C657.76 205.861 659.01 205.301 659.914 204.397C660.818 203.493 661.379 202.243 661.379 200.865ZM658.863 203.346C659.497 202.712 659.891 201.834 659.891 200.865C659.891 199.894 659.499 199.016 658.866 198.384C658.23 197.751 657.351 197.357 656.383 197.357C655.411 197.357 654.534 197.749 653.902 198.382C653.267 199.016 652.875 199.894 652.875 200.865C652.875 201.834 653.268 202.712 653.902 203.346C654.534 203.981 655.411 204.373 656.383 204.373C657.351 204.373 658.23 203.979 658.863 203.346ZM673.09 190.351C673.723 189.717 674.117 188.839 674.117 187.87C674.117 186.899 673.725 186.021 673.092 185.39C672.456 184.756 671.578 184.362 670.609 184.362C669.638 184.362 668.76 184.754 668.128 185.387C667.493 186.021 667.101 186.899 667.101 187.87C667.101 188.839 667.495 189.717 668.128 190.351C668.76 190.986 669.638 191.378 670.609 191.378C671.578 191.378 672.456 190.984 673.09 190.351ZM675.168 259.845V239.435C675.168 239.027 675 238.654 674.73 238.384C674.463 238.114 674.09 237.946 673.68 237.946H653.27C652.86 237.946 652.487 238.114 652.218 238.383C651.95 238.654 651.782 239.027 651.782 239.435V259.845C651.782 260.255 651.949 260.627 652.216 260.894C652.49 261.164 652.864 261.332 653.27 261.332H673.68C674.086 261.332 674.46 261.164 674.73 260.894C675.001 260.627 675.168 260.255 675.168 259.845ZM647.551 210.278H679.441V178.423H647.551V210.278ZM679.441 212.404H647.551V265.588H679.441V212.404Z" fill="#20201F"/>
<path fill-rule="evenodd" clip-rule="evenodd" d="M649.042 524.921C651.839 526.72 655.428 527.83 658.583 527.83C661.688 527.83 664.112 526.765 665.799 525.021V525.016C666.437 524.355 666.931 523.571 667.349 522.74V526.328C667.349 528.469 668.244 529.724 669.68 530.453C670.987 531.118 672.716 531.282 674.612 531.282H675.394V531.263C676.974 531.218 678.417 531.021 679.54 530.453C680.975 529.724 681.866 528.469 681.866 526.338V508.743C681.866 506.603 680.975 505.349 679.54 504.625C678.417 504.061 676.974 503.858 675.394 503.815V503.796H674.612C672.716 503.796 670.987 503.96 669.68 504.625C668.244 505.349 667.349 506.603 667.349 508.743V512.338C666.931 511.507 666.442 510.726 665.799 510.063C664.112 508.316 661.688 507.249 658.583 507.249C655.248 507.249 651.432 508.492 648.569 510.475C645.928 512.304 644.074 514.778 644.074 517.539C644.074 520.463 646.153 523.067 649.042 524.921ZM676.945 517.032H676.95V517.035C676.95 517.666 676.687 518.246 676.269 518.665V518.67C675.852 519.087 675.276 519.345 674.637 519.345C673.998 519.345 673.427 519.087 673.01 518.67H673.002L673.003 518.665C672.585 518.244 672.328 517.666 672.328 517.035C672.328 516.393 672.585 515.814 673.002 515.399C673.42 514.983 673.998 514.722 674.637 514.722C675.276 514.722 675.847 514.983 676.269 515.399C676.687 515.814 676.945 516.393 676.945 517.032ZM675.762 517.029V517.035C675.762 517.346 675.638 517.627 675.442 517.827H675.434C675.233 518.029 674.947 518.157 674.637 518.157C674.322 518.157 674.033 518.032 673.837 517.837L673.832 517.829C673.636 517.627 673.509 517.346 673.509 517.035C673.509 516.712 673.636 516.433 673.832 516.232C674.033 516.035 674.322 515.911 674.637 515.911C674.952 515.911 675.239 516.035 675.434 516.241C675.643 516.438 675.77 516.722 675.77 517.029H675.762ZM668.912 508.743C668.912 507.299 669.479 506.474 670.378 506.014C671.31 505.55 672.602 505.394 674.063 505.366H674.612C676.295 505.366 677.803 505.495 678.842 506.014C679.741 506.474 680.302 507.301 680.302 508.743V526.338C680.302 527.778 679.741 528.601 678.842 529.061C677.803 529.585 676.295 529.711 674.612 529.711H674.003C672.573 529.679 671.289 529.525 670.378 529.063C669.471 528.601 668.912 527.772 668.912 526.328V508.743ZM649.454 511.755C652.066 509.943 655.547 508.81 658.583 508.81C661.236 508.81 663.277 509.697 664.678 511.143C666.211 512.726 667.003 515.005 667.003 517.539C667.003 520.077 666.211 522.354 664.678 523.941C663.277 525.384 661.236 526.268 658.583 526.268C655.715 526.268 652.44 525.254 649.881 523.61C647.414 522.026 645.637 519.87 645.637 517.539C645.637 515.347 647.217 513.311 649.454 511.755Z" fill="#20201F"/>
<path fill-rule="evenodd" clip-rule="evenodd" d="M682.642 397.957L682.648 417.447C682.648 423.966 669.156 423.198 668.255 423.131C665.132 423.131 662.298 421.857 660.248 419.804C658.201 417.756 656.932 414.918 656.932 411.795V403.524C656.932 400.395 658.198 397.56 660.248 395.506C662.298 393.46 665.137 392.191 668.26 392.177C669.176 392.135 682.648 391.465 682.642 397.957ZM669.499 407.663H669.497C669.49 406.977 669.22 406.345 668.77 405.893C668.311 405.449 667.686 405.175 667.004 405.175C666.315 405.175 665.69 405.451 665.24 405.902C664.788 406.353 664.512 406.977 664.512 407.665C664.512 408.349 664.788 408.974 665.24 409.425V409.433H665.245C665.695 409.884 666.315 410.166 667.004 410.166C667.686 410.166 668.32 409.884 668.77 409.433V409.431C669.22 408.98 669.504 408.349 669.504 407.665L669.499 407.663ZM668.228 407.659C668.228 407.333 668.094 407.026 667.868 406.806C667.654 406.592 667.346 406.454 667.004 406.454C666.664 406.454 666.355 406.586 666.135 406.801C665.923 407.022 665.784 407.322 665.787 407.665C665.787 408.009 665.921 408.306 666.135 408.526L666.14 408.531C666.355 408.75 666.664 408.883 667.004 408.883C667.34 408.883 667.648 408.741 667.868 408.529L667.871 408.524C668.087 408.309 668.217 408.002 668.217 407.67L668.214 407.659H668.228ZM677.893 407.663C677.893 404.521 676.956 401.668 675.454 399.594C673.882 397.439 671.686 396.1 669.254 396.098C666.811 396.098 664.616 397.439 663.041 399.594C661.53 401.676 660.602 404.53 660.602 407.673V407.687C660.61 410.821 661.545 413.667 663.051 415.748C664.621 417.893 666.811 419.23 669.24 419.232L669.254 419.23C671.692 419.23 673.875 417.893 675.454 415.73C676.959 413.661 677.893 410.81 677.89 407.67L677.893 407.663ZM676.135 407.663C676.13 404.909 675.322 402.421 674.023 400.622C672.782 398.923 671.09 397.866 669.254 397.866C667.405 397.866 665.713 398.923 664.467 400.635C663.173 402.425 662.368 404.909 662.368 407.673V407.678L662.363 407.687C662.368 410.443 663.173 412.921 664.474 414.711C665.711 416.405 667.405 417.461 669.24 417.466L669.254 417.461C671.094 417.464 672.787 416.407 674.023 414.705C675.317 412.914 676.13 410.429 676.127 407.673V407.663H676.135ZM680.883 397.963C680.883 393.124 668.357 393.949 668.325 393.949L668.26 393.956C665.621 393.956 663.233 395.022 661.496 396.747C659.766 398.488 658.698 400.88 658.698 403.524V411.786C658.698 414.44 659.761 416.836 661.496 418.569C663.224 420.3 665.621 421.365 668.26 421.37L668.322 421.373C668.354 421.373 680.883 422.261 680.883 417.442V397.963Z" fill="#20201F"/>
<path fill-rule="evenodd" clip-rule="evenodd" d="M679.15 482.842H577.561V441.283H679.15V482.842ZM659.354 458.023C658.238 458.023 657.228 458.476 656.498 459.206C655.767 459.94 655.315 460.949 655.315 462.063C655.315 463.176 655.767 464.185 656.498 464.916C657.232 465.65 658.241 466.102 659.354 466.102C660.468 466.102 661.476 465.65 662.208 464.919C662.941 464.189 663.393 463.178 663.393 462.063C663.393 460.947 662.941 459.936 662.211 459.206C661.481 458.476 660.47 458.023 659.354 458.023ZM657.639 460.347C657.202 460.784 656.93 461.392 656.93 462.063C656.93 462.733 657.202 463.341 657.639 463.778C658.076 464.215 658.684 464.486 659.354 464.486C660.025 464.486 660.632 464.215 661.068 463.777C661.506 463.338 661.778 462.732 661.778 462.063C661.778 461.394 661.506 460.787 661.068 460.348C660.63 459.911 660.023 459.639 659.354 459.639C658.685 459.639 658.078 459.911 657.639 460.347ZM671.482 442.472L599.77 444.088C588.999 444.088 580.179 451.292 580.179 462.063C580.179 472.833 588.999 480.037 599.77 480.037L671.482 481.653C672.872 481.653 674.135 481.084 675.049 480.17C675.963 479.252 676.531 477.99 676.531 476.603V447.522C676.531 446.137 675.963 444.875 675.049 443.959C674.129 443.04 672.867 442.472 671.482 442.472ZM599.77 446.108C590.103 446.108 582.199 452.396 582.199 462.063C582.199 471.73 590.103 478.017 599.77 478.017L671.482 479.633C672.313 479.633 673.071 479.291 673.625 478.742C674.171 478.196 674.511 477.438 674.511 476.603V447.522C674.511 446.687 674.171 445.93 673.62 445.379C673.073 444.832 672.317 444.492 671.482 444.492L599.77 446.108ZM577.348 484.82H679.363C679.87 484.82 680.333 484.619 680.668 484.3C681.006 483.98 681.214 483.534 681.214 483.045V441.08C681.214 440.591 681.006 440.145 680.672 439.825C680.337 439.504 679.873 439.305 679.363 439.305H577.348C576.838 439.305 576.374 439.504 576.038 439.825C575.706 440.149 575.496 440.593 575.496 441.08V483.045C575.496 483.532 575.705 483.975 576.038 484.297C576.378 484.62 576.84 484.82 577.348 484.82Z" fill="#20201F"/>
<path fill-rule="evenodd" clip-rule="evenodd" d="M434.786 490.287L436.851 492.352C437.098 492.599 437.096 493.001 436.85 493.246L436.419 493.678L457.655 514.914C458.013 515.273 458.013 515.855 457.655 516.213C457.297 516.571 456.714 516.571 456.356 516.213L435.12 494.977L431.579 498.517C431.335 498.762 430.93 498.763 430.685 498.518L428.62 496.453C428.374 496.206 428.374 495.805 428.621 495.559L433.892 490.288C434.138 490.041 434.54 490.041 434.786 490.287Z" fill="#20201F"/>
<path fill-rule="evenodd" clip-rule="evenodd" d="M474.745 542.877L472.68 540.812C472.434 540.565 472.436 540.163 472.681 539.918L473.113 539.486L451.877 518.25C451.518 517.891 451.518 517.309 451.877 516.951C452.235 516.592 452.817 516.592 453.175 516.951L474.412 538.187L477.952 534.647C478.197 534.402 478.602 534.401 478.846 534.646L480.911 536.711C481.158 536.957 481.157 537.358 480.911 537.605L475.639 542.876C475.393 543.123 474.992 543.123 474.745 542.877Z" fill="#20201F"/>
<path fill-rule="evenodd" clip-rule="evenodd" d="M361.021 497.083V500.003C361.021 500.352 361.306 500.635 361.653 500.635H362.264V530.667C362.264 531.174 362.675 531.586 363.182 531.586C363.689 531.586 364.101 531.174 364.101 530.667V500.635H369.108C369.454 500.635 369.741 500.349 369.741 500.003V497.083C369.741 496.734 369.456 496.451 369.108 496.451H361.653C361.305 496.451 361.021 496.734 361.021 497.083Z" fill="#20201F"/>
<path fill-rule="evenodd" clip-rule="evenodd" d="M369.951 562.525V559.604C369.951 559.256 369.666 558.973 369.319 558.973H368.708V528.94C368.708 528.433 368.297 528.022 367.79 528.022C367.283 528.022 366.871 528.433 366.871 528.94V558.973H361.864C361.518 558.973 361.231 559.258 361.231 559.604V562.525C361.231 562.873 361.515 563.157 361.864 563.157H369.319C369.667 563.157 369.951 562.873 369.951 562.525Z" fill="#20201F"/>
<path fill-rule="evenodd" clip-rule="evenodd" d="M361.003 583.999V586.919C361.003 587.268 361.289 587.551 361.636 587.551H362.247V617.584C362.247 618.09 362.658 618.502 363.165 618.502C363.672 618.502 364.084 618.09 364.084 617.584V587.551H369.091C369.437 587.551 369.723 587.265 369.723 586.919V583.999C369.723 583.65 369.439 583.367 369.091 583.367H361.636C361.287 583.367 361.003 583.65 361.003 583.999Z" fill="#20201F"/>
<path fill-rule="evenodd" clip-rule="evenodd" d="M369.934 649.441V646.521C369.934 646.172 369.649 645.889 369.302 645.889H368.691V615.856C368.691 615.35 368.279 614.938 367.773 614.938C367.266 614.938 366.854 615.35 366.854 615.856V645.889H361.847C361.501 645.889 361.214 646.175 361.214 646.521V649.441C361.214 649.79 361.498 650.073 361.847 650.073H369.302C369.65 650.073 369.934 649.79 369.934 649.441Z" fill="#20201F"/>
<path d="M353.625 136.141C357.151 136.716 359.853 138.038 361.731 140.108C363.609 142.139 364.548 144.669 364.548 147.697C364.548 150.035 363.935 152.2 362.709 154.193C361.482 156.148 359.604 157.719 357.074 158.908C354.583 160.096 351.517 160.69 347.876 160.69C345.04 160.69 342.242 160.326 339.482 159.598C336.761 158.831 334.442 157.758 332.526 156.378L336.147 149.249C337.681 150.399 339.444 151.3 341.437 151.951C343.468 152.564 345.538 152.871 347.646 152.871C349.984 152.871 351.824 152.43 353.165 151.549C354.507 150.629 355.177 149.345 355.177 147.697C355.177 144.401 352.667 142.752 347.646 142.752H343.391V136.601L351.67 127.23H334.538V119.756H362.709V125.792L353.625 136.141Z" fill="#20201F"/>
<path d="M381.48 88H379.354V189.095H381.48V88Z" fill="#20201F"/>
<path d="M405.793 110.746H402.918V114.524H401.44V110.746H393.33V109.678L400.947 100.151H402.59L395.239 109.432H401.481V106.105H402.918V109.432H405.793V110.746ZM416.271 100.151V101.198L410.255 114.524H408.654L414.567 101.465H407.175V104.155H405.718V100.151H416.271ZM418.245 114.627C417.944 114.627 417.684 114.517 417.465 114.298C417.26 114.079 417.157 113.812 417.157 113.497C417.157 113.182 417.26 112.922 417.465 112.717C417.684 112.498 417.944 112.389 418.245 112.389C418.547 112.389 418.807 112.498 419.026 112.717C419.245 112.922 419.354 113.182 419.354 113.497C419.354 113.812 419.245 114.079 419.026 114.298C418.807 114.517 418.547 114.627 418.245 114.627ZM431.503 113.21V114.524H421.421V113.477L427.396 107.625C428.149 106.886 428.656 106.249 428.916 105.715C429.19 105.168 429.327 104.62 429.327 104.073C429.327 103.224 429.032 102.567 428.444 102.102C427.869 101.622 427.041 101.383 425.959 101.383C424.275 101.383 422.968 101.917 422.037 102.984L420.99 102.081C421.551 101.424 422.263 100.918 423.126 100.562C424.002 100.206 424.987 100.028 426.082 100.028C427.547 100.028 428.704 100.377 429.552 101.075C430.415 101.759 430.846 102.704 430.846 103.908C430.846 104.648 430.682 105.359 430.353 106.044C430.025 106.728 429.402 107.515 428.485 108.405L423.598 113.21H431.503ZM439.233 105.921C440.177 105.921 441.012 106.099 441.738 106.455C442.477 106.81 443.052 107.317 443.462 107.974C443.873 108.617 444.078 109.37 444.078 110.233C444.078 111.109 443.866 111.882 443.442 112.553C443.017 113.224 442.429 113.744 441.676 114.113C440.937 114.469 440.102 114.647 439.171 114.647C437.268 114.647 435.81 114.024 434.798 112.779C433.785 111.519 433.278 109.747 433.278 107.461C433.278 105.859 433.552 104.504 434.099 103.395C434.647 102.286 435.414 101.451 436.399 100.89C437.385 100.315 438.534 100.028 439.849 100.028C441.272 100.028 442.408 100.288 443.257 100.808L442.662 101.999C441.977 101.547 441.046 101.321 439.869 101.321C438.281 101.321 437.036 101.828 436.132 102.841C435.229 103.84 434.777 105.298 434.777 107.214C434.777 107.556 434.798 107.947 434.839 108.385C435.194 107.604 435.763 107.002 436.543 106.578C437.323 106.14 438.22 105.921 439.233 105.921ZM439.109 113.395C440.15 113.395 440.992 113.114 441.635 112.553C442.292 111.978 442.621 111.218 442.621 110.274C442.621 109.329 442.292 108.576 441.635 108.015C440.992 107.454 440.116 107.173 439.007 107.173C438.281 107.173 437.638 107.31 437.077 107.584C436.529 107.858 436.098 108.234 435.783 108.713C435.468 109.192 435.311 109.726 435.311 110.315C435.311 110.862 435.455 111.369 435.742 111.834C436.043 112.3 436.481 112.676 437.056 112.963C437.631 113.251 438.315 113.395 439.109 113.395Z" fill="#20201F"/>
<path d="M406.388 136.274C407.292 136.575 407.983 137.027 408.462 137.629C408.955 138.231 409.201 138.957 409.201 139.806C409.201 140.641 408.975 141.373 408.524 142.003C408.072 142.619 407.422 143.098 406.573 143.44C405.738 143.769 404.752 143.933 403.616 143.933C401.892 143.933 400.536 143.563 399.551 142.824C398.565 142.085 398.072 141.079 398.072 139.806C398.072 138.943 398.305 138.218 398.771 137.629C399.25 137.027 399.941 136.575 400.844 136.274C400.105 135.987 399.544 135.576 399.161 135.042C398.777 134.495 398.586 133.851 398.586 133.112C398.586 131.948 399.038 131.024 399.941 130.34C400.858 129.656 402.083 129.313 403.616 129.313C404.629 129.313 405.512 129.471 406.265 129.786C407.032 130.087 407.627 130.525 408.051 131.1C408.476 131.675 408.688 132.345 408.688 133.112C408.688 133.851 408.489 134.495 408.092 135.042C407.696 135.576 407.127 135.987 406.388 136.274ZM400.064 133.153C400.064 133.947 400.379 134.577 401.009 135.042C401.638 135.507 402.508 135.74 403.616 135.74C404.725 135.74 405.594 135.507 406.224 135.042C406.867 134.577 407.189 133.954 407.189 133.174C407.189 132.366 406.861 131.729 406.203 131.264C405.56 130.799 404.698 130.566 403.616 130.566C402.521 130.566 401.652 130.799 401.009 131.264C400.379 131.729 400.064 132.359 400.064 133.153ZM403.616 142.68C404.889 142.68 405.882 142.42 406.594 141.9C407.319 141.38 407.682 140.675 407.682 139.785C407.682 138.895 407.319 138.197 406.594 137.691C405.882 137.171 404.889 136.911 403.616 136.911C402.357 136.911 401.365 137.171 400.639 137.691C399.927 138.197 399.571 138.895 399.571 139.785C399.571 140.689 399.927 141.4 400.639 141.921C401.351 142.427 402.343 142.68 403.616 142.68ZM415.232 129.437V143.81H413.753V130.751H410.365V129.437H415.232ZM419.776 143.912C419.475 143.912 419.215 143.803 418.996 143.584C418.791 143.365 418.688 143.098 418.688 142.783C418.688 142.468 418.791 142.208 418.996 142.003C419.215 141.784 419.475 141.674 419.776 141.674C420.077 141.674 420.337 141.784 420.556 142.003C420.775 142.208 420.885 142.468 420.885 142.783C420.885 143.098 420.775 143.365 420.556 143.584C420.337 143.803 420.077 143.912 419.776 143.912ZM426.761 129.437V143.81H425.283V130.751H421.895V129.437H426.761ZM440.34 129.437V130.484L434.324 143.81H432.723L438.636 130.751H431.244V133.441H429.786V129.437H440.34Z" fill="#20201F"/>
<path d="M403.545 165.56C404.448 165.861 405.139 166.313 405.618 166.915C406.111 167.517 406.358 168.243 406.358 169.091C406.358 169.926 406.132 170.659 405.68 171.288C405.228 171.904 404.578 172.383 403.729 172.726C402.894 173.054 401.909 173.218 400.773 173.218C399.048 173.218 397.693 172.849 396.707 172.11C395.722 171.37 395.229 170.364 395.229 169.091C395.229 168.229 395.461 167.503 395.927 166.915C396.406 166.313 397.097 165.861 398.001 165.56C397.261 165.272 396.7 164.862 396.317 164.328C395.934 163.78 395.742 163.137 395.742 162.398C395.742 161.234 396.194 160.31 397.097 159.626C398.014 158.941 399.239 158.599 400.773 158.599C401.786 158.599 402.668 158.756 403.421 159.071C404.188 159.372 404.783 159.81 405.208 160.385C405.632 160.96 405.844 161.631 405.844 162.398C405.844 163.137 405.646 163.78 405.249 164.328C404.852 164.862 404.284 165.272 403.545 165.56ZM397.22 162.439C397.22 163.233 397.535 163.862 398.165 164.328C398.795 164.793 399.664 165.026 400.773 165.026C401.881 165.026 402.751 164.793 403.38 164.328C404.024 163.862 404.345 163.239 404.345 162.459C404.345 161.652 404.017 161.015 403.36 160.55C402.716 160.084 401.854 159.852 400.773 159.852C399.678 159.852 398.808 160.084 398.165 160.55C397.535 161.015 397.22 161.645 397.22 162.439ZM400.773 171.966C402.046 171.966 403.038 171.706 403.75 171.186C404.475 170.665 404.838 169.961 404.838 169.071C404.838 168.181 404.475 167.483 403.75 166.976C403.038 166.456 402.046 166.196 400.773 166.196C399.513 166.196 398.521 166.456 397.795 166.976C397.084 167.483 396.728 168.181 396.728 169.071C396.728 169.974 397.084 170.686 397.795 171.206C398.507 171.713 399.5 171.966 400.773 171.966ZM420.622 169.317H417.747V173.095H416.269V169.317H408.158V168.249L415.776 158.722H417.418L410.068 168.003H416.31V164.677H417.747V168.003H420.622V169.317ZM423.489 173.198C423.188 173.198 422.928 173.088 422.709 172.869C422.504 172.65 422.401 172.383 422.401 172.069C422.401 171.754 422.504 171.494 422.709 171.288C422.928 171.069 423.188 170.96 423.489 170.96C423.79 170.96 424.05 171.069 424.269 171.288C424.489 171.494 424.598 171.754 424.598 172.069C424.598 172.383 424.489 172.65 424.269 172.869C424.05 173.088 423.79 173.198 423.489 173.198ZM430.474 158.722V173.095H428.996V160.036H425.608V158.722H430.474ZM437.688 164.615C439.769 164.615 441.281 164.992 442.226 165.744C443.184 166.484 443.663 167.524 443.663 168.865C443.663 169.7 443.465 170.446 443.068 171.104C442.684 171.761 442.103 172.281 441.322 172.664C440.542 173.034 439.584 173.218 438.448 173.218C437.421 173.218 436.443 173.054 435.512 172.726C434.595 172.383 433.855 171.932 433.294 171.37L434.013 170.2C434.492 170.693 435.122 171.097 435.902 171.412C436.682 171.713 437.524 171.863 438.427 171.863C439.618 171.863 440.535 171.596 441.179 171.062C441.836 170.529 442.164 169.817 442.164 168.927C442.164 167.941 441.795 167.195 441.056 166.689C440.33 166.183 439.098 165.929 437.36 165.929H434.3L435.039 158.722H442.903V160.036H436.333L435.84 164.615H437.688Z" fill="#20201F"/>
<path d="M339.58 275.793H333.913V284.211H330.73V273.165H339.58V275.793ZM345.991 284.376C344.827 284.376 343.78 284.136 342.849 283.657C341.932 283.164 341.213 282.487 340.693 281.624C340.173 280.762 339.913 279.783 339.913 278.688C339.913 277.593 340.173 276.614 340.693 275.752C341.213 274.89 341.932 274.219 342.849 273.74C343.78 273.247 344.827 273.001 345.991 273.001C347.154 273.001 348.194 273.247 349.112 273.74C350.029 274.219 350.747 274.89 351.268 275.752C351.788 276.614 352.048 277.593 352.048 278.688C352.048 279.783 351.788 280.762 351.268 281.624C350.747 282.487 350.029 283.164 349.112 283.657C348.194 284.136 347.154 284.376 345.991 284.376ZM345.991 281.747C346.812 281.747 347.483 281.474 348.003 280.926C348.537 280.365 348.804 279.619 348.804 278.688C348.804 277.757 348.537 277.018 348.003 276.471C347.483 275.909 346.812 275.629 345.991 275.629C345.169 275.629 344.492 275.909 343.958 276.471C343.424 277.018 343.157 277.757 343.157 278.688C343.157 279.619 343.424 280.365 343.958 280.926C344.492 281.474 345.169 281.747 345.991 281.747ZM359.507 284.376C358.33 284.376 357.269 284.136 356.325 283.657C355.394 283.164 354.662 282.487 354.128 281.624C353.608 280.762 353.347 279.783 353.347 278.688C353.347 277.593 353.608 276.614 354.128 275.752C354.662 274.89 355.394 274.219 356.325 273.74C357.269 273.247 358.33 273.001 359.507 273.001C360.671 273.001 361.684 273.247 362.546 273.74C363.422 274.219 364.059 274.91 364.456 275.814L361.971 277.148C361.396 276.135 360.568 275.629 359.487 275.629C358.652 275.629 357.96 275.902 357.413 276.45C356.865 276.998 356.592 277.744 356.592 278.688C356.592 279.633 356.865 280.379 357.413 280.926C357.96 281.474 358.652 281.747 359.487 281.747C360.582 281.747 361.41 281.241 361.971 280.228L364.456 281.583C364.059 282.459 363.422 283.144 362.546 283.637C361.684 284.129 360.671 284.376 359.507 284.376ZM375.643 275.793H371.906V284.211H368.723V275.793H364.986V273.165H375.643V275.793ZM377.35 273.165H380.533V279.735L385.912 273.165H388.849V284.211H385.666V277.641L380.307 284.211H377.35V273.165ZM391.928 273.165H395.11V277.477H399.915V273.165H403.118V284.211H399.915V280.084H395.11V284.211H391.928V273.165ZM410.476 273.001C412.187 273.001 413.501 273.411 414.418 274.232C415.335 275.04 415.794 276.265 415.794 277.908V284.211H412.796V282.836C412.194 283.862 411.071 284.376 409.429 284.376C408.58 284.376 407.841 284.232 407.211 283.944C406.595 283.657 406.123 283.26 405.794 282.754C405.466 282.247 405.302 281.672 405.302 281.029C405.302 280.002 405.685 279.195 406.451 278.606C407.232 278.017 408.429 277.723 410.045 277.723H412.591C412.591 277.025 412.378 276.491 411.954 276.122C411.53 275.738 410.893 275.547 410.045 275.547C409.456 275.547 408.874 275.642 408.299 275.834C407.738 276.012 407.259 276.258 406.862 276.573L405.712 274.335C406.314 273.911 407.033 273.582 407.868 273.35C408.717 273.117 409.586 273.001 410.476 273.001ZM410.229 282.22C410.777 282.22 411.263 282.097 411.687 281.85C412.112 281.59 412.413 281.214 412.591 280.721V279.592H410.394C409.08 279.592 408.422 280.023 408.422 280.885C408.422 281.296 408.58 281.624 408.895 281.871C409.223 282.103 409.668 282.22 410.229 282.22ZM428.391 273.165V284.211H425.537V281.049H423.176L421.081 284.211H417.673L420.198 280.598C419.432 280.297 418.843 279.865 418.433 279.304C418.036 278.729 417.837 278.038 417.837 277.23C417.837 275.93 418.303 274.931 419.233 274.232C420.178 273.521 421.471 273.165 423.114 273.165H428.391ZM423.176 275.772C422.491 275.772 421.971 275.896 421.615 276.142C421.273 276.388 421.102 276.785 421.102 277.333C421.102 277.88 421.266 278.284 421.595 278.544C421.937 278.791 422.45 278.914 423.135 278.914H425.537V275.772H423.176Z" fill="black"/>
<path d="M362.339 310.787V313.497H351.477V311.341L357.021 306.105C357.609 305.544 358.006 305.065 358.212 304.668C358.417 304.257 358.52 303.853 358.52 303.457C358.52 302.882 358.321 302.444 357.924 302.142C357.541 301.828 356.973 301.67 356.22 301.67C355.59 301.67 355.022 301.793 354.516 302.04C354.009 302.272 353.585 302.628 353.243 303.107L350.82 301.547C351.381 300.712 352.154 300.062 353.14 299.596C354.126 299.117 355.255 298.878 356.528 298.878C357.596 298.878 358.526 299.056 359.32 299.412C360.128 299.754 360.751 300.247 361.189 300.89C361.641 301.52 361.866 302.266 361.866 303.128C361.866 303.908 361.702 304.641 361.374 305.325C361.045 306.009 360.409 306.79 359.464 307.666L356.158 310.787H362.339ZM369.831 313.743C368.64 313.743 367.579 313.449 366.648 312.861C365.718 312.272 364.985 311.423 364.451 310.314C363.931 309.192 363.671 307.857 363.671 306.311C363.671 304.764 363.931 303.436 364.451 302.327C364.985 301.205 365.718 300.349 366.648 299.761C367.579 299.172 368.64 298.878 369.831 298.878C371.022 298.878 372.083 299.172 373.014 299.761C373.944 300.349 374.67 301.205 375.19 302.327C375.724 303.436 375.991 304.764 375.991 306.311C375.991 307.857 375.724 309.192 375.19 310.314C374.67 311.423 373.944 312.272 373.014 312.861C372.083 313.449 371.022 313.743 369.831 313.743ZM369.831 310.93C370.707 310.93 371.391 310.554 371.884 309.801C372.391 309.048 372.644 307.885 372.644 306.311C372.644 304.736 372.391 303.573 371.884 302.82C371.391 302.067 370.707 301.691 369.831 301.691C368.969 301.691 368.284 302.067 367.778 302.82C367.285 303.573 367.039 304.736 367.039 306.311C367.039 307.885 367.285 309.048 367.778 309.801C368.284 310.554 368.969 310.93 369.831 310.93ZM379.235 313.661C378.674 313.661 378.202 313.47 377.819 313.086C377.435 312.703 377.244 312.224 377.244 311.649C377.244 311.061 377.435 310.588 377.819 310.232C378.202 309.863 378.674 309.678 379.235 309.678C379.797 309.678 380.269 309.863 380.652 310.232C381.035 310.588 381.227 311.061 381.227 311.649C381.227 312.224 381.035 312.703 380.652 313.086C380.269 313.47 379.797 313.661 379.235 313.661ZM392.756 305.941C393.468 306.297 394.008 306.762 394.378 307.337C394.761 307.912 394.953 308.576 394.953 309.329C394.953 310.219 394.7 310.999 394.193 311.67C393.687 312.327 392.975 312.84 392.058 313.21C391.141 313.566 390.08 313.743 388.875 313.743C387.671 313.743 386.61 313.566 385.693 313.21C384.789 312.84 384.084 312.327 383.578 311.67C383.085 310.999 382.839 310.219 382.839 309.329C382.839 308.576 383.023 307.912 383.393 307.337C383.776 306.762 384.317 306.297 385.015 305.941C384.481 305.612 384.07 305.202 383.783 304.709C383.496 304.203 383.352 303.628 383.352 302.984C383.352 302.149 383.585 301.424 384.05 300.808C384.515 300.192 385.166 299.72 386.001 299.391C386.836 299.049 387.794 298.878 388.875 298.878C389.97 298.878 390.935 299.049 391.77 299.391C392.619 299.72 393.276 300.192 393.741 300.808C394.207 301.424 394.44 302.149 394.44 302.984C394.44 303.628 394.296 304.203 394.008 304.709C393.721 305.202 393.303 305.612 392.756 305.941ZM388.875 301.321C388.204 301.321 387.664 301.485 387.253 301.814C386.856 302.129 386.658 302.567 386.658 303.128C386.658 303.676 386.856 304.107 387.253 304.422C387.65 304.736 388.191 304.894 388.875 304.894C389.56 304.894 390.107 304.736 390.518 304.422C390.928 304.107 391.134 303.676 391.134 303.128C391.134 302.567 390.928 302.129 390.518 301.814C390.107 301.485 389.56 301.321 388.875 301.321ZM388.875 311.3C389.71 311.3 390.367 311.115 390.846 310.746C391.339 310.362 391.585 309.856 391.585 309.226C391.585 308.597 391.339 308.097 390.846 307.727C390.367 307.358 389.71 307.173 388.875 307.173C388.054 307.173 387.404 307.358 386.925 307.727C386.445 308.097 386.206 308.597 386.206 309.226C386.206 309.87 386.445 310.376 386.925 310.746C387.404 311.115 388.054 311.3 388.875 311.3ZM401.403 304.524C403.429 304.524 404.921 304.928 405.88 305.736C406.851 306.543 407.337 307.625 407.337 308.98C407.337 309.856 407.118 310.657 406.68 311.382C406.242 312.094 405.572 312.669 404.668 313.107C403.778 313.531 402.676 313.743 401.362 313.743C400.349 313.743 399.35 313.613 398.365 313.353C397.393 313.08 396.564 312.696 395.88 312.204L397.194 309.657C397.742 310.068 398.371 310.39 399.083 310.622C399.795 310.841 400.527 310.951 401.28 310.951C402.115 310.951 402.772 310.787 403.251 310.458C403.73 310.13 403.97 309.671 403.97 309.083C403.97 308.467 403.717 308.001 403.21 307.686C402.717 307.371 401.855 307.214 400.623 307.214H396.948L397.687 299.124H406.454V301.793H400.459L400.233 304.524H401.403Z" fill="#20201F"/>
<path d="M140.657 349.955C139.479 349.955 138.419 349.716 137.474 349.237C136.543 348.744 135.811 348.066 135.277 347.204C134.757 346.342 134.497 345.363 134.497 344.268C134.497 343.173 134.757 342.194 135.277 341.332C135.811 340.469 136.543 339.798 137.474 339.319C138.419 338.826 139.479 338.58 140.657 338.58C141.82 338.58 142.833 338.826 143.696 339.319C144.572 339.798 145.208 340.49 145.605 341.393L143.121 342.728C142.546 341.715 141.718 341.208 140.636 341.208C139.801 341.208 139.11 341.482 138.562 342.03C138.015 342.577 137.741 343.323 137.741 344.268C137.741 345.212 138.015 345.958 138.562 346.506C139.11 347.053 139.801 347.327 140.636 347.327C141.731 347.327 142.559 346.821 143.121 345.808L145.605 347.163C145.208 348.039 144.572 348.723 143.696 349.216C142.833 349.709 141.82 349.955 140.657 349.955ZM158.537 338.744V349.791H155.333V341.373H150.734V349.791H147.552V338.744H158.537ZM165.899 338.58C167.61 338.58 168.924 338.991 169.841 339.812C170.758 340.62 171.217 341.845 171.217 343.487V349.791H168.219V348.415C167.617 349.442 166.495 349.955 164.852 349.955C164.003 349.955 163.264 349.812 162.634 349.524C162.018 349.237 161.546 348.84 161.218 348.333C160.889 347.827 160.725 347.252 160.725 346.608C160.725 345.582 161.108 344.774 161.875 344.186C162.655 343.597 163.853 343.303 165.468 343.303H168.014C168.014 342.605 167.802 342.071 167.377 341.701C166.953 341.318 166.317 341.126 165.468 341.126C164.879 341.126 164.298 341.222 163.723 341.414C163.161 341.592 162.682 341.838 162.285 342.153L161.135 339.915C161.738 339.49 162.456 339.162 163.291 338.929C164.14 338.696 165.009 338.58 165.899 338.58ZM165.653 347.799C166.2 347.799 166.686 347.676 167.11 347.43C167.535 347.17 167.836 346.793 168.014 346.3V345.171H165.817C164.503 345.171 163.846 345.602 163.846 346.465C163.846 346.875 164.003 347.204 164.318 347.45C164.647 347.683 165.091 347.799 165.653 347.799ZM184.594 338.744V349.791H181.391V341.373H177.901L177.798 343.323C177.743 344.774 177.606 345.979 177.387 346.937C177.168 347.895 176.813 348.648 176.32 349.196C175.827 349.743 175.143 350.017 174.266 350.017C173.801 350.017 173.247 349.935 172.603 349.77L172.768 347.142C172.987 347.17 173.144 347.183 173.24 347.183C173.719 347.183 174.075 347.012 174.308 346.67C174.554 346.314 174.718 345.869 174.8 345.335C174.882 344.788 174.944 344.069 174.985 343.179L175.149 338.744H184.594ZM193.65 342.276C195.087 342.29 196.189 342.618 196.956 343.262C197.722 343.891 198.105 344.788 198.105 345.951C198.105 347.17 197.674 348.121 196.812 348.805C195.963 349.476 194.765 349.812 193.219 349.812L187.675 349.791V338.744H190.857V342.276H193.65ZM192.931 347.532C193.547 347.546 194.019 347.416 194.348 347.142C194.676 346.869 194.841 346.458 194.841 345.91C194.841 345.376 194.676 344.986 194.348 344.74C194.033 344.494 193.561 344.364 192.931 344.35L190.857 344.329V347.532H192.931ZM200.107 338.744H203.289V343.056H208.094V338.744H211.297V349.791H208.094V345.664H203.289V349.791H200.107V338.744ZM224.178 338.744V349.791H221.324V346.629H218.963L216.868 349.791H213.46L215.985 346.177C215.219 345.876 214.63 345.445 214.22 344.884C213.823 344.309 213.624 343.617 213.624 342.81C213.624 341.509 214.09 340.51 215.02 339.812C215.965 339.1 217.258 338.744 218.901 338.744H224.178ZM218.963 341.352C218.278 341.352 217.758 341.475 217.402 341.722C217.06 341.968 216.889 342.365 216.889 342.913C216.889 343.46 217.053 343.864 217.382 344.124C217.724 344.37 218.237 344.494 218.922 344.494H221.324V341.352H218.963Z" fill="black"/>
<path d="M162.009 364.704V379.077H158.682V367.373H155.808V364.704H162.009ZM170.049 364.704V379.077H166.723V367.373H163.848V364.704H170.049ZM174.435 379.241C173.874 379.241 173.402 379.049 173.018 378.666C172.635 378.283 172.444 377.804 172.444 377.229C172.444 376.64 172.635 376.168 173.018 375.812C173.402 375.442 173.874 375.258 174.435 375.258C174.996 375.258 175.469 375.442 175.852 375.812C176.235 376.168 176.427 376.64 176.427 377.229C176.427 377.804 176.235 378.283 175.852 378.666C175.469 379.049 174.996 379.241 174.435 379.241ZM188.851 364.704V366.86L183.513 379.077H179.899L185.053 367.414H180.289V369.755H177.332V364.704H188.851ZM201.584 364.704V366.86L196.245 379.077H192.632L197.785 367.414H193.022V369.755H190.065V364.704H201.584Z" fill="black"/>
<path d="M168.059 573.565C166.882 573.565 165.821 573.325 164.876 572.846C163.946 572.353 163.213 571.676 162.679 570.813C162.159 569.951 161.899 568.972 161.899 567.877C161.899 566.782 162.159 565.803 162.679 564.941C163.213 564.078 163.946 563.408 164.876 562.929C165.821 562.436 166.882 562.189 168.059 562.189C169.223 562.189 170.236 562.436 171.098 562.929C171.974 563.408 172.61 564.099 173.007 565.002L170.523 566.337C169.948 565.324 169.12 564.818 168.039 564.818C167.204 564.818 166.512 565.091 165.965 565.639C165.417 566.187 165.143 566.933 165.143 567.877C165.143 568.822 165.417 569.568 165.965 570.115C166.512 570.663 167.204 570.936 168.039 570.936C169.134 570.936 169.962 570.43 170.523 569.417L173.007 570.772C172.61 571.648 171.974 572.333 171.098 572.825C170.236 573.318 169.223 573.565 168.059 573.565ZM185.939 562.354V573.4H182.736V564.982H178.136V573.4H174.954V562.354H185.939ZM193.301 562.189C195.012 562.189 196.327 562.6 197.244 563.421C198.161 564.229 198.619 565.454 198.619 567.097V573.4H195.622V572.025C195.019 573.051 193.897 573.565 192.254 573.565C191.406 573.565 190.666 573.421 190.037 573.133C189.421 572.846 188.948 572.449 188.62 571.943C188.291 571.436 188.127 570.861 188.127 570.218C188.127 569.191 188.51 568.384 189.277 567.795C190.057 567.206 191.255 566.912 192.87 566.912H195.416C195.416 566.214 195.204 565.68 194.78 565.31C194.355 564.927 193.719 564.736 192.87 564.736C192.282 564.736 191.7 564.831 191.125 565.023C190.564 565.201 190.085 565.447 189.688 565.762L188.538 563.524C189.14 563.1 189.859 562.771 190.694 562.539C191.542 562.306 192.412 562.189 193.301 562.189ZM193.055 571.409C193.603 571.409 194.088 571.286 194.513 571.039C194.937 570.779 195.238 570.403 195.416 569.91V568.781H193.219C191.905 568.781 191.248 569.212 191.248 570.074C191.248 570.485 191.406 570.813 191.72 571.06C192.049 571.292 192.494 571.409 193.055 571.409ZM211.997 562.354V573.4H208.794V564.982H205.303L205.2 566.933C205.146 568.384 205.009 569.588 204.79 570.546C204.571 571.505 204.215 572.257 203.722 572.805C203.229 573.352 202.545 573.626 201.669 573.626C201.203 573.626 200.649 573.544 200.006 573.38L200.17 570.752C200.389 570.779 200.546 570.793 200.642 570.793C201.121 570.793 201.477 570.622 201.71 570.279C201.956 569.924 202.121 569.479 202.203 568.945C202.285 568.397 202.346 567.679 202.387 566.789L202.552 562.354H211.997ZM221.052 565.885C222.489 565.899 223.591 566.228 224.358 566.871C225.124 567.501 225.508 568.397 225.508 569.561C225.508 570.779 225.077 571.73 224.214 572.415C223.365 573.086 222.168 573.421 220.621 573.421L215.077 573.4V562.354H218.26V565.885H221.052ZM220.333 571.142C220.949 571.155 221.422 571.025 221.75 570.752C222.079 570.478 222.243 570.067 222.243 569.52C222.243 568.986 222.079 568.596 221.75 568.349C221.435 568.103 220.963 567.973 220.333 567.959L218.26 567.939V571.142H220.333ZM227.509 562.354H230.692V566.666H235.496V562.354H238.699V573.4H235.496V569.273H230.692V573.4H227.509V562.354ZM251.58 562.354V573.4H248.726V570.238H246.365L244.271 573.4H240.862L243.388 569.787C242.621 569.485 242.033 569.054 241.622 568.493C241.225 567.918 241.027 567.227 241.027 566.419C241.027 565.119 241.492 564.12 242.423 563.421C243.367 562.71 244.661 562.354 246.303 562.354H251.58ZM246.365 564.961C245.681 564.961 245.16 565.085 244.805 565.331C244.462 565.577 244.291 565.974 244.291 566.522C244.291 567.069 244.456 567.473 244.784 567.733C245.126 567.98 245.64 568.103 246.324 568.103H248.726V564.961H246.365Z" fill="black"/>
<path d="M186.277 588.313V602.686H182.95V590.982H180.076V588.313H186.277ZM201.935 599.668H199.594V602.686H196.35V599.668H188.609V597.43L195.385 588.313H198.876L192.593 596.957H196.453V594.268H199.594V596.957H201.935V599.668ZM205.22 602.85C204.659 602.85 204.187 602.659 203.803 602.275C203.42 601.892 203.228 601.413 203.228 600.838C203.228 600.249 203.42 599.777 203.803 599.421C204.187 599.052 204.659 598.867 205.22 598.867C205.781 598.867 206.254 599.052 206.637 599.421C207.02 599.777 207.212 600.249 207.212 600.838C207.212 601.413 207.02 601.892 206.637 602.275C206.254 602.659 205.781 602.85 205.22 602.85ZM218.741 595.13C219.452 595.486 219.993 595.951 220.363 596.526C220.746 597.101 220.938 597.765 220.938 598.518C220.938 599.408 220.684 600.188 220.178 600.859C219.671 601.516 218.96 602.029 218.042 602.399C217.125 602.754 216.064 602.932 214.86 602.932C213.655 602.932 212.594 602.754 211.677 602.399C210.774 602.029 210.069 601.516 209.562 600.859C209.07 600.188 208.823 599.408 208.823 598.518C208.823 597.765 209.008 597.101 209.378 596.526C209.761 595.951 210.302 595.486 211 595.13C210.466 594.801 210.055 594.391 209.768 593.898C209.48 593.392 209.337 592.817 209.337 592.173C209.337 591.338 209.569 590.613 210.035 589.997C210.5 589.381 211.15 588.909 211.985 588.58C212.82 588.238 213.778 588.067 214.86 588.067C215.955 588.067 216.92 588.238 217.755 588.58C218.604 588.909 219.261 589.381 219.726 589.997C220.192 590.613 220.424 591.338 220.424 592.173C220.424 592.817 220.281 593.392 219.993 593.898C219.706 594.391 219.288 594.801 218.741 595.13ZM214.86 590.51C214.189 590.51 213.648 590.674 213.238 591.003C212.841 591.318 212.642 591.756 212.642 592.317C212.642 592.865 212.841 593.296 213.238 593.611C213.635 593.925 214.175 594.083 214.86 594.083C215.544 594.083 216.092 593.925 216.502 593.611C216.913 593.296 217.118 592.865 217.118 592.317C217.118 591.756 216.913 591.318 216.502 591.003C216.092 590.674 215.544 590.51 214.86 590.51ZM214.86 600.489C215.695 600.489 216.352 600.304 216.831 599.935C217.324 599.551 217.57 599.045 217.57 598.415C217.57 597.786 217.324 597.286 216.831 596.916C216.352 596.547 215.695 596.362 214.86 596.362C214.039 596.362 213.388 596.547 212.909 596.916C212.43 597.286 212.191 597.786 212.191 598.415C212.191 599.059 212.43 599.565 212.909 599.935C213.388 600.304 214.039 600.489 214.86 600.489ZM229.38 593.672C230.297 593.672 231.132 593.857 231.885 594.227C232.638 594.596 233.233 595.123 233.671 595.808C234.109 596.478 234.328 597.259 234.328 598.148C234.328 599.106 234.089 599.948 233.61 600.674C233.13 601.399 232.473 601.961 231.638 602.358C230.817 602.741 229.9 602.932 228.887 602.932C226.875 602.932 225.301 602.316 224.164 601.084C223.028 599.853 222.46 598.094 222.46 595.808C222.46 594.179 222.768 592.782 223.384 591.619C224 590.455 224.856 589.572 225.951 588.97C227.06 588.368 228.339 588.067 229.79 588.067C230.557 588.067 231.289 588.156 231.987 588.334C232.699 588.498 233.302 588.737 233.794 589.052L232.562 591.496C231.851 591.017 230.954 590.777 229.873 590.777C228.654 590.777 227.689 591.133 226.977 591.845C226.266 592.557 225.882 593.59 225.828 594.945C226.676 594.096 227.86 593.672 229.38 593.672ZM228.702 600.448C229.414 600.448 229.989 600.256 230.427 599.873C230.879 599.49 231.105 598.97 231.105 598.313C231.105 597.655 230.879 597.135 230.427 596.752C229.989 596.355 229.4 596.157 228.661 596.157C227.936 596.157 227.34 596.362 226.875 596.773C226.409 597.17 226.177 597.683 226.177 598.313C226.177 598.942 226.403 599.456 226.854 599.853C227.306 600.249 227.922 600.448 228.702 600.448Z" fill="black"/>
<path d="M560.062 150.179H558.399V154.368H555.196V143.322H558.399V147.613H560.124L563.122 143.322H566.53L562.67 148.619L566.797 154.368H563.019L560.062 150.179ZM578.816 143.322L573.826 155.046C573.32 156.319 572.69 157.215 571.937 157.736C571.198 158.256 570.301 158.516 569.247 158.516C568.672 158.516 568.104 158.427 567.543 158.249C566.982 158.071 566.523 157.825 566.167 157.51L567.338 155.231C567.584 155.45 567.865 155.621 568.18 155.744C568.508 155.867 568.83 155.929 569.145 155.929C569.583 155.929 569.939 155.819 570.212 155.6C570.486 155.395 570.733 155.046 570.952 154.553L570.993 154.45L566.209 143.322H569.514L572.615 150.816L575.736 143.322H578.816ZM586.679 154.368L584.257 150.98L581.752 154.368H578.261L582.511 148.804L578.405 143.322H581.998L584.339 146.545L586.741 143.322H590.149L586.043 148.722L590.314 154.368H586.679ZM591.891 143.322H595.073V147.633H599.878V143.322H603.081V154.368H599.878V150.241H595.073V154.368H591.891V143.322ZM615.962 143.322V154.368H613.108V151.206H610.747L608.652 154.368H605.244L607.769 150.754C607.003 150.453 606.414 150.022 606.004 149.461C605.607 148.886 605.408 148.195 605.408 147.387C605.408 146.087 605.873 145.087 606.804 144.389C607.749 143.677 609.042 143.322 610.685 143.322H615.962ZM610.747 145.929C610.062 145.929 609.542 146.052 609.186 146.299C608.844 146.545 608.673 146.942 608.673 147.49C608.673 148.037 608.837 148.441 609.166 148.701C609.508 148.948 610.021 149.071 610.706 149.071H613.108V145.929H610.747Z" fill="#20201F"/>
<path d="M567.002 169.281V183.654H563.676V171.95H560.801V169.281H567.002ZM576.213 175.133C577.473 175.338 578.438 175.81 579.109 176.549C579.779 177.275 580.115 178.178 580.115 179.26C580.115 180.095 579.896 180.868 579.458 181.58C579.02 182.278 578.349 182.839 577.445 183.264C576.556 183.688 575.461 183.9 574.16 183.9C573.147 183.9 572.148 183.77 571.162 183.51C570.19 183.236 569.362 182.853 568.678 182.36L569.971 179.814C570.519 180.225 571.149 180.547 571.86 180.779C572.586 180.998 573.325 181.108 574.078 181.108C574.913 181.108 575.57 180.95 576.049 180.635C576.528 180.307 576.768 179.848 576.768 179.26C576.768 178.083 575.871 177.494 574.078 177.494H572.559V175.297L575.515 171.95H569.397V169.281H579.458V171.437L576.213 175.133ZM583.539 183.818C582.978 183.818 582.506 183.626 582.123 183.243C581.739 182.86 581.548 182.381 581.548 181.806C581.548 181.217 581.739 180.745 582.123 180.389C582.506 180.02 582.978 179.835 583.539 179.835C584.101 179.835 584.573 180.02 584.956 180.389C585.339 180.745 585.531 181.217 585.531 181.806C585.531 182.381 585.339 182.86 584.956 183.243C584.573 183.626 584.101 183.818 583.539 183.818ZM591.952 174.681C593.978 174.681 595.47 175.085 596.428 175.892C597.4 176.7 597.886 177.781 597.886 179.137C597.886 180.013 597.667 180.813 597.229 181.539C596.791 182.251 596.12 182.826 595.217 183.264C594.327 183.688 593.225 183.9 591.911 183.9C590.898 183.9 589.899 183.77 588.913 183.51C587.941 183.236 587.113 182.853 586.429 182.36L587.743 179.814C588.29 180.225 588.92 180.547 589.632 180.779C590.344 180.998 591.076 181.108 591.829 181.108C592.664 181.108 593.321 180.943 593.8 180.615C594.279 180.286 594.519 179.828 594.519 179.239C594.519 178.623 594.265 178.158 593.759 177.843C593.266 177.528 592.404 177.371 591.172 177.371H587.496L588.236 169.281H597.003V171.95H591.008L590.782 174.681H591.952ZM605.85 175.133C607.109 175.338 608.074 175.81 608.745 176.549C609.415 177.275 609.751 178.178 609.751 179.26C609.751 180.095 609.532 180.868 609.094 181.58C608.656 182.278 607.985 182.839 607.082 183.264C606.192 183.688 605.097 183.9 603.796 183.9C602.783 183.9 601.784 183.77 600.799 183.51C599.827 183.236 598.998 182.853 598.314 182.36L599.608 179.814C600.155 180.225 600.785 180.547 601.497 180.779C602.222 180.998 602.961 181.108 603.714 181.108C604.549 181.108 605.206 180.95 605.685 180.635C606.164 180.307 606.404 179.848 606.404 179.26C606.404 178.083 605.507 177.494 603.714 177.494H602.195V175.297L605.151 171.95H599.033V169.281H609.094V171.437L605.85 175.133Z" fill="#20201F"/>
<path d="M479.718 443.54L476.712 439.58L473.688 443.54H472.248L475.992 438.68L472.428 434.072H473.868L476.712 437.78L479.556 434.072H480.96L477.396 438.68L481.176 443.54H479.718ZM486.842 443.63C485.93 443.63 485.108 443.426 484.376 443.018C483.644 442.598 483.068 442.022 482.648 441.29C482.228 440.558 482.018 439.73 482.018 438.806C482.018 437.882 482.228 437.054 482.648 436.322C483.068 435.59 483.644 435.02 484.376 434.612C485.108 434.204 485.93 434 486.842 434C487.754 434 488.576 434.204 489.308 434.612C490.04 435.02 490.61 435.59 491.018 436.322C491.438 437.054 491.648 437.882 491.648 438.806C491.648 439.73 491.438 440.558 491.018 441.29C490.61 442.022 490.04 442.598 489.308 443.018C488.576 443.426 487.754 443.63 486.842 443.63ZM486.842 442.496C487.514 442.496 488.114 442.346 488.642 442.046C489.182 441.734 489.602 441.296 489.902 440.732C490.202 440.168 490.352 439.526 490.352 438.806C490.352 438.086 490.202 437.444 489.902 436.88C489.602 436.316 489.182 435.884 488.642 435.584C488.114 435.272 487.514 435.116 486.842 435.116C486.17 435.116 485.564 435.272 485.024 435.584C484.496 435.884 484.076 436.316 483.764 436.88C483.464 437.444 483.314 438.086 483.314 438.806C483.314 439.526 483.464 440.168 483.764 440.732C484.076 441.296 484.496 441.734 485.024 442.046C485.564 442.346 486.17 442.496 486.842 442.496ZM502.067 434.072V443.54H500.789V435.206H496.253L496.127 437.546C496.031 439.514 495.803 441.026 495.443 442.082C495.083 443.138 494.441 443.666 493.517 443.666C493.265 443.666 492.959 443.618 492.599 443.522L492.689 442.424C492.905 442.472 493.055 442.496 493.139 442.496C493.631 442.496 494.003 442.268 494.255 441.812C494.507 441.356 494.675 440.792 494.759 440.12C494.843 439.448 494.915 438.56 494.975 437.456L495.137 434.072H502.067ZM513.44 434.072V443.54H512.162V435.206H507.626L507.5 437.546C507.404 439.514 507.176 441.026 506.816 442.082C506.456 443.138 505.814 443.666 504.89 443.666C504.638 443.666 504.332 443.618 503.972 443.522L504.062 442.424C504.278 442.472 504.428 442.496 504.512 442.496C505.004 442.496 505.376 442.268 505.628 441.812C505.88 441.356 506.048 440.792 506.132 440.12C506.216 439.448 506.288 438.56 506.348 437.456L506.51 434.072H513.44Z" fill="#20201F"/>
<path d="M479.205 460.226V472.826H477.909V461.378H474.939V460.226H479.205ZM485.709 460.226V472.826H484.413V461.378H481.443V460.226H485.709ZM489.693 472.916C489.429 472.916 489.201 472.82 489.009 472.628C488.829 472.436 488.739 472.202 488.739 471.926C488.739 471.65 488.829 471.422 489.009 471.242C489.201 471.05 489.429 470.954 489.693 470.954C489.957 470.954 490.185 471.05 490.377 471.242C490.569 471.422 490.665 471.65 490.665 471.926C490.665 472.202 490.569 472.436 490.377 472.628C490.185 472.82 489.957 472.916 489.693 472.916ZM501.217 460.226V461.144L495.943 472.826H494.539L499.723 461.378H493.243V463.736H491.965V460.226H501.217ZM509.808 466.22C510.6 466.484 511.206 466.88 511.626 467.408C512.058 467.936 512.274 468.572 512.274 469.316C512.274 470.048 512.076 470.69 511.68 471.242C511.284 471.782 510.714 472.202 509.97 472.502C509.238 472.79 508.374 472.934 507.378 472.934C505.866 472.934 504.678 472.61 503.814 471.962C502.95 471.314 502.518 470.432 502.518 469.316C502.518 468.56 502.722 467.924 503.13 467.408C503.55 466.88 504.156 466.484 504.948 466.22C504.3 465.968 503.808 465.608 503.472 465.14C503.136 464.66 502.968 464.096 502.968 463.448C502.968 462.428 503.364 461.618 504.156 461.018C504.96 460.418 506.034 460.118 507.378 460.118C508.266 460.118 509.04 460.256 509.7 460.532C510.372 460.796 510.894 461.18 511.266 461.684C511.638 462.188 511.824 462.776 511.824 463.448C511.824 464.096 511.65 464.66 511.302 465.14C510.954 465.608 510.456 465.968 509.808 466.22ZM504.264 463.484C504.264 464.18 504.54 464.732 505.092 465.14C505.644 465.548 506.406 465.752 507.378 465.752C508.35 465.752 509.112 465.548 509.664 465.14C510.228 464.732 510.51 464.186 510.51 463.502C510.51 462.794 510.222 462.236 509.646 461.828C509.082 461.42 508.326 461.216 507.378 461.216C506.418 461.216 505.656 461.42 505.092 461.828C504.54 462.236 504.264 462.788 504.264 463.484ZM507.378 471.836C508.494 471.836 509.364 471.608 509.988 471.152C510.624 470.696 510.942 470.078 510.942 469.298C510.942 468.518 510.624 467.906 509.988 467.462C509.364 467.006 508.494 466.778 507.378 466.778C506.274 466.778 505.404 467.006 504.768 467.462C504.144 467.906 503.832 468.518 503.832 469.298C503.832 470.09 504.144 470.714 504.768 471.17C505.392 471.614 506.262 471.836 507.378 471.836Z" fill="#20201F"/>
<path d="M480.59 489.403C482.258 489.403 483.536 489.955 484.424 491.059C485.312 492.151 485.756 493.699 485.756 495.703C485.756 497.107 485.516 498.295 485.036 499.267C484.556 500.239 483.884 500.977 483.02 501.481C482.156 501.973 481.148 502.219 479.996 502.219C478.748 502.219 477.752 501.991 477.008 501.535L477.53 500.491C478.13 500.887 478.946 501.085 479.978 501.085C481.37 501.085 482.462 500.647 483.254 499.771C484.046 498.883 484.442 497.599 484.442 495.919C484.442 495.607 484.424 495.265 484.388 494.893C484.076 495.577 483.578 496.111 482.894 496.495C482.21 496.867 481.424 497.053 480.536 497.053C479.708 497.053 478.97 496.897 478.322 496.585C477.686 496.273 477.188 495.835 476.828 495.271C476.468 494.695 476.288 494.029 476.288 493.273C476.288 492.505 476.474 491.827 476.846 491.239C477.218 490.651 477.728 490.201 478.376 489.889C479.036 489.565 479.774 489.403 480.59 489.403ZM480.734 495.955C481.37 495.955 481.928 495.835 482.408 495.595C482.9 495.355 483.284 495.025 483.56 494.605C483.836 494.185 483.974 493.717 483.974 493.201C483.974 492.721 483.842 492.277 483.578 491.869C483.326 491.461 482.948 491.131 482.444 490.879C481.94 490.627 481.34 490.501 480.644 490.501C479.732 490.501 478.988 490.753 478.412 491.257C477.848 491.749 477.566 492.409 477.566 493.237C477.566 494.065 477.848 494.725 478.412 495.217C478.988 495.709 479.762 495.955 480.734 495.955ZM488.413 502.201C488.149 502.201 487.921 502.105 487.729 501.913C487.549 501.721 487.459 501.487 487.459 501.211C487.459 500.935 487.549 500.707 487.729 500.527C487.921 500.335 488.149 500.239 488.413 500.239C488.677 500.239 488.905 500.335 489.097 500.527C489.289 500.707 489.385 500.935 489.385 501.211C489.385 501.487 489.289 501.721 489.097 501.913C488.905 502.105 488.677 502.201 488.413 502.201ZM496.282 494.569C497.11 494.569 497.842 494.725 498.478 495.037C499.126 495.349 499.63 495.793 499.99 496.369C500.35 496.933 500.53 497.593 500.53 498.349C500.53 499.117 500.344 499.795 499.972 500.383C499.6 500.971 499.084 501.427 498.424 501.751C497.776 502.063 497.044 502.219 496.228 502.219C494.56 502.219 493.282 501.673 492.394 500.581C491.506 499.477 491.062 497.923 491.062 495.919C491.062 494.515 491.302 493.327 491.782 492.355C492.262 491.383 492.934 490.651 493.798 490.159C494.662 489.655 495.67 489.403 496.822 489.403C498.07 489.403 499.066 489.631 499.81 490.087L499.288 491.131C498.688 490.735 497.872 490.537 496.84 490.537C495.448 490.537 494.356 490.981 493.564 491.869C492.772 492.745 492.376 494.023 492.376 495.703C492.376 496.003 492.394 496.345 492.43 496.729C492.742 496.045 493.24 495.517 493.924 495.145C494.608 494.761 495.394 494.569 496.282 494.569ZM496.174 501.121C497.086 501.121 497.824 500.875 498.388 500.383C498.964 499.879 499.252 499.213 499.252 498.385C499.252 497.557 498.964 496.897 498.388 496.405C497.824 495.913 497.056 495.667 496.084 495.667C495.448 495.667 494.884 495.787 494.392 496.027C493.912 496.267 493.534 496.597 493.258 497.017C492.982 497.437 492.844 497.905 492.844 498.421C492.844 498.901 492.97 499.345 493.222 499.753C493.486 500.161 493.87 500.491 494.374 500.743C494.878 500.995 495.478 501.121 496.174 501.121ZM510.635 500.959V502.111H501.797V501.193L507.035 496.063C507.695 495.415 508.139 494.857 508.367 494.389C508.607 493.909 508.727 493.429 508.727 492.949C508.727 492.205 508.469 491.629 507.953 491.221C507.449 490.801 506.723 490.591 505.775 490.591C504.299 490.591 503.153 491.059 502.337 491.995L501.419 491.203C501.911 490.627 502.535 490.183 503.291 489.871C504.059 489.559 504.923 489.403 505.883 489.403C507.167 489.403 508.181 489.709 508.925 490.321C509.681 490.921 510.059 491.749 510.059 492.805C510.059 493.453 509.915 494.077 509.627 494.677C509.339 495.277 508.793 495.967 507.989 496.747L503.705 500.959H510.635Z" fill="#20201F"/>
<path d="M143.631 121.011V130.479H142.353V122.145H137.817L137.691 124.485C137.595 126.453 137.367 127.965 137.007 129.021C136.647 130.077 136.005 130.605 135.081 130.605C134.829 130.605 134.523 130.557 134.163 130.461L134.253 129.363C134.469 129.411 134.619 129.435 134.703 129.435C135.195 129.435 135.567 129.207 135.819 128.751C136.071 128.295 136.239 127.731 136.323 127.059C136.407 126.387 136.479 125.499 136.539 124.395L136.701 121.011H143.631ZM151.171 130.569C150.259 130.569 149.437 130.365 148.705 129.957C147.973 129.537 147.397 128.961 146.977 128.229C146.556 127.497 146.346 126.669 146.346 125.745C146.346 124.821 146.556 123.993 146.977 123.261C147.397 122.529 147.973 121.959 148.705 121.551C149.437 121.143 150.259 120.939 151.171 120.939C152.083 120.939 152.905 121.143 153.637 121.551C154.369 121.959 154.939 122.529 155.347 123.261C155.767 123.993 155.977 124.821 155.977 125.745C155.977 126.669 155.767 127.497 155.347 128.229C154.939 128.961 154.369 129.537 153.637 129.957C152.905 130.365 152.083 130.569 151.171 130.569ZM151.171 129.435C151.843 129.435 152.443 129.285 152.971 128.985C153.511 128.673 153.931 128.235 154.231 127.671C154.531 127.107 154.681 126.465 154.681 125.745C154.681 125.025 154.531 124.383 154.231 123.819C153.931 123.255 153.511 122.823 152.971 122.523C152.443 122.211 151.843 122.055 151.171 122.055C150.499 122.055 149.893 122.211 149.353 122.523C148.825 122.823 148.405 123.255 148.093 123.819C147.793 124.383 147.643 125.025 147.643 125.745C147.643 126.465 147.793 127.107 148.093 127.671C148.405 128.235 148.825 128.673 149.353 128.985C149.893 129.285 150.499 129.435 151.171 129.435ZM167.889 129.363V132.765H166.683V130.479H158.205V132.765H156.999V129.363H157.539C158.175 129.327 158.607 128.859 158.835 127.959C159.063 127.059 159.219 125.799 159.303 124.179L159.429 121.011H166.413V129.363H167.889ZM160.473 124.251C160.413 125.595 160.299 126.705 160.131 127.581C159.963 128.445 159.663 129.039 159.231 129.363H165.135V122.145H160.581L160.473 124.251ZM178.678 126.267H176.626V130.479H175.348V126.267H173.296L170.398 130.479H168.868L172.27 125.601L169.138 121.011H170.524L173.296 125.169H175.348V121.011H176.626V125.169H178.678L181.468 121.011H182.854L179.722 125.619L183.124 130.479H181.594L178.678 126.267ZM185.251 121.011H186.529V128.535L192.848 121.011H193.982V130.479H192.704V122.955L186.403 130.479H185.251V121.011ZM204.916 121.011V130.479H203.746V127.347H200.776H200.416L198.22 130.479H196.834L199.192 127.167C198.46 126.963 197.896 126.615 197.5 126.123C197.104 125.631 196.906 125.007 196.906 124.251C196.906 123.195 197.266 122.391 197.986 121.839C198.706 121.287 199.69 121.011 200.938 121.011H204.916ZM198.202 124.287C198.202 125.691 199.096 126.393 200.884 126.393H203.746V122.145H200.974C199.126 122.145 198.202 122.859 198.202 124.287Z" fill="#20201F"/>
<path d="M156.636 152.331C158.46 152.331 159.786 152.661 160.614 153.321C161.454 153.969 161.874 154.881 161.874 156.057C161.874 156.789 161.7 157.443 161.352 158.019C161.016 158.595 160.506 159.051 159.822 159.387C159.138 159.711 158.298 159.873 157.302 159.873C156.402 159.873 155.544 159.729 154.728 159.441C153.924 159.141 153.276 158.745 152.784 158.253L153.414 157.227C153.834 157.659 154.386 158.013 155.07 158.289C155.754 158.553 156.492 158.685 157.284 158.685C158.328 158.685 159.132 158.451 159.696 157.983C160.272 157.515 160.56 156.891 160.56 156.111C160.56 155.247 160.236 154.593 159.588 154.149C158.952 153.705 157.872 153.483 156.348 153.483H153.666L154.314 147.165H161.208V148.317H155.448L155.016 152.331H156.636ZM164.492 159.855C164.228 159.855 164 159.759 163.808 159.567C163.628 159.375 163.538 159.141 163.538 158.865C163.538 158.589 163.628 158.361 163.808 158.181C164 157.989 164.228 157.893 164.492 157.893C164.756 157.893 164.984 157.989 165.176 158.181C165.368 158.361 165.464 158.589 165.464 158.865C165.464 159.141 165.368 159.375 165.176 159.567C164.984 159.759 164.756 159.855 164.492 159.855ZM171.258 147.057C172.926 147.057 174.204 147.609 175.092 148.713C175.98 149.805 176.424 151.353 176.424 153.357C176.424 154.761 176.184 155.949 175.704 156.921C175.224 157.893 174.552 158.631 173.688 159.135C172.824 159.627 171.816 159.873 170.664 159.873C169.416 159.873 168.42 159.645 167.676 159.189L168.198 158.145C168.798 158.541 169.614 158.739 170.646 158.739C172.038 158.739 173.13 158.301 173.922 157.425C174.714 156.537 175.11 155.253 175.11 153.573C175.11 153.261 175.092 152.919 175.056 152.547C174.744 153.231 174.246 153.765 173.562 154.149C172.878 154.521 172.092 154.707 171.204 154.707C170.376 154.707 169.638 154.551 168.99 154.239C168.354 153.927 167.856 153.489 167.496 152.925C167.136 152.349 166.956 151.683 166.956 150.927C166.956 150.159 167.142 149.481 167.514 148.893C167.886 148.305 168.396 147.855 169.044 147.543C169.704 147.219 170.442 147.057 171.258 147.057ZM171.402 153.609C172.038 153.609 172.596 153.489 173.076 153.249C173.568 153.009 173.952 152.679 174.228 152.259C174.504 151.839 174.642 151.371 174.642 150.855C174.642 150.375 174.51 149.931 174.246 149.523C173.994 149.115 173.616 148.785 173.112 148.533C172.608 148.281 172.008 148.155 171.312 148.155C170.4 148.155 169.656 148.407 169.08 148.911C168.516 149.403 168.234 150.063 168.234 150.891C168.234 151.719 168.516 152.379 169.08 152.871C169.656 153.363 170.43 153.609 171.402 153.609ZM183.523 152.223C184.351 152.223 185.083 152.379 185.719 152.691C186.367 153.003 186.871 153.447 187.231 154.023C187.591 154.587 187.771 155.247 187.771 156.003C187.771 156.771 187.585 157.449 187.213 158.037C186.841 158.625 186.325 159.081 185.665 159.405C185.017 159.717 184.285 159.873 183.469 159.873C181.801 159.873 180.523 159.327 179.635 158.235C178.747 157.131 178.303 155.577 178.303 153.573C178.303 152.169 178.543 150.981 179.023 150.009C179.503 149.037 180.175 148.305 181.039 147.813C181.903 147.309 182.911 147.057 184.063 147.057C185.311 147.057 186.307 147.285 187.051 147.741L186.529 148.785C185.929 148.389 185.113 148.191 184.081 148.191C182.689 148.191 181.597 148.635 180.805 149.523C180.013 150.399 179.617 151.677 179.617 153.357C179.617 153.657 179.635 153.999 179.671 154.383C179.983 153.699 180.481 153.171 181.165 152.799C181.849 152.415 182.635 152.223 183.523 152.223ZM183.415 158.775C184.327 158.775 185.065 158.529 185.629 158.037C186.205 157.533 186.493 156.867 186.493 156.039C186.493 155.211 186.205 154.551 185.629 154.059C185.065 153.567 184.297 153.321 183.325 153.321C182.689 153.321 182.125 153.441 181.633 153.681C181.153 153.921 180.775 154.251 180.499 154.671C180.223 155.091 180.085 155.559 180.085 156.075C180.085 156.555 180.211 156.999 180.463 157.407C180.727 157.815 181.111 158.145 181.615 158.397C182.119 158.649 182.719 158.775 183.415 158.775Z" fill="#20201F"/>
<path d="M621.323 368.506H618.803V371.818H617.507V368.506H610.397V367.57L617.075 359.218H618.515L612.071 367.354H617.543V364.438H618.803V367.354H621.323V368.506ZM623.837 371.908C623.573 371.908 623.345 371.812 623.153 371.62C622.973 371.428 622.883 371.194 622.883 370.918C622.883 370.642 622.973 370.414 623.153 370.234C623.345 370.042 623.573 369.946 623.837 369.946C624.101 369.946 624.329 370.042 624.521 370.234C624.713 370.414 624.809 370.642 624.809 370.918C624.809 371.194 624.713 371.428 624.521 371.62C624.329 371.812 624.101 371.908 623.837 371.908ZM630.603 359.11C632.271 359.11 633.549 359.662 634.437 360.766C635.325 361.858 635.769 363.406 635.769 365.41C635.769 366.814 635.529 368.002 635.049 368.974C634.569 369.946 633.897 370.684 633.033 371.188C632.169 371.68 631.161 371.926 630.009 371.926C628.761 371.926 627.765 371.698 627.021 371.242L627.543 370.198C628.143 370.594 628.959 370.792 629.991 370.792C631.383 370.792 632.475 370.354 633.267 369.478C634.059 368.59 634.455 367.306 634.455 365.626C634.455 365.314 634.437 364.972 634.401 364.6C634.089 365.284 633.591 365.818 632.907 366.202C632.223 366.574 631.437 366.76 630.549 366.76C629.721 366.76 628.983 366.604 628.335 366.292C627.699 365.98 627.201 365.542 626.841 364.978C626.481 364.402 626.301 363.736 626.301 362.98C626.301 362.212 626.487 361.534 626.859 360.946C627.231 360.358 627.741 359.908 628.389 359.596C629.049 359.272 629.787 359.11 630.603 359.11ZM630.747 365.662C631.383 365.662 631.941 365.542 632.421 365.302C632.913 365.062 633.297 364.732 633.573 364.312C633.849 363.892 633.987 363.424 633.987 362.908C633.987 362.428 633.855 361.984 633.591 361.576C633.339 361.168 632.961 360.838 632.457 360.586C631.953 360.334 631.353 360.208 630.657 360.208C629.745 360.208 629.001 360.46 628.425 360.964C627.861 361.456 627.579 362.116 627.579 362.944C627.579 363.772 627.861 364.432 628.425 364.924C629.001 365.416 629.775 365.662 630.747 365.662ZM646.217 370.666V371.818H637.379V370.9L642.617 365.77C643.277 365.122 643.721 364.564 643.949 364.096C644.189 363.616 644.309 363.136 644.309 362.656C644.309 361.912 644.051 361.336 643.535 360.928C643.031 360.508 642.305 360.298 641.357 360.298C639.881 360.298 638.735 360.766 637.919 361.702L637.001 360.91C637.493 360.334 638.117 359.89 638.873 359.578C639.641 359.266 640.505 359.11 641.465 359.11C642.749 359.11 643.763 359.416 644.507 360.028C645.263 360.628 645.641 361.456 645.641 362.512C645.641 363.16 645.497 363.784 645.209 364.384C644.921 364.984 644.375 365.674 643.571 366.454L639.287 370.666H646.217Z" fill="#20201F"/>
<path d="M615.139 541.128V542.28H606.301V541.362L611.539 536.232C612.199 535.584 612.643 535.026 612.871 534.558C613.111 534.078 613.231 533.598 613.231 533.118C613.231 532.374 612.973 531.798 612.457 531.39C611.953 530.97 611.227 530.76 610.279 530.76C608.803 530.76 607.657 531.228 606.841 532.164L605.923 531.372C606.415 530.796 607.039 530.352 607.795 530.04C608.563 529.728 609.427 529.572 610.387 529.572C611.671 529.572 612.685 529.878 613.429 530.49C614.185 531.09 614.563 531.918 614.563 532.974C614.563 533.622 614.419 534.246 614.131 534.846C613.843 535.446 613.297 536.136 612.493 536.916L608.209 541.128H615.139ZM617.913 542.37C617.649 542.37 617.421 542.274 617.229 542.082C617.049 541.89 616.959 541.656 616.959 541.38C616.959 541.104 617.049 540.876 617.229 540.696C617.421 540.504 617.649 540.408 617.913 540.408C618.177 540.408 618.405 540.504 618.597 540.696C618.789 540.876 618.885 541.104 618.885 541.38C618.885 541.656 618.789 541.89 618.597 542.082C618.405 542.274 618.177 542.37 617.913 542.37ZM624.036 529.68V542.28H622.74V530.832H619.77V529.68H624.036ZM630.36 534.846C632.184 534.846 633.51 535.176 634.338 535.836C635.178 536.484 635.598 537.396 635.598 538.572C635.598 539.304 635.424 539.958 635.076 540.534C634.74 541.11 634.23 541.566 633.546 541.902C632.862 542.226 632.022 542.388 631.026 542.388C630.126 542.388 629.268 542.244 628.452 541.956C627.648 541.656 627 541.26 626.508 540.768L627.138 539.742C627.558 540.174 628.11 540.528 628.794 540.804C629.478 541.068 630.216 541.2 631.008 541.2C632.052 541.2 632.856 540.966 633.42 540.498C633.996 540.03 634.284 539.406 634.284 538.626C634.284 537.762 633.96 537.108 633.312 536.664C632.676 536.22 631.596 535.998 630.072 535.998H627.39L628.038 529.68H634.932V530.832H629.172L628.74 534.846H630.36Z" fill="#20201F"/>
<path d="M423.52 533.789V546.389H422.224V534.941H419.254V533.789H423.52ZM427.504 546.479C427.24 546.479 427.012 546.383 426.82 546.191C426.64 545.999 426.55 545.765 426.55 545.489C426.55 545.213 426.64 544.985 426.82 544.805C427.012 544.613 427.24 544.517 427.504 544.517C427.768 544.517 427.996 544.613 428.188 544.805C428.38 544.985 428.476 545.213 428.476 545.489C428.476 545.765 428.38 545.999 428.188 546.191C427.996 546.383 427.768 546.479 427.504 546.479ZM434.806 539.189C436.126 539.261 437.128 539.621 437.812 540.269C438.508 540.905 438.856 541.739 438.856 542.771C438.856 543.491 438.682 544.133 438.334 544.697C437.986 545.249 437.47 545.687 436.786 546.011C436.102 546.335 435.268 546.497 434.284 546.497C433.372 546.497 432.508 546.353 431.692 546.065C430.888 545.765 430.24 545.369 429.748 544.877L430.378 543.851C430.798 544.283 431.356 544.637 432.052 544.913C432.748 545.177 433.492 545.309 434.284 545.309C435.316 545.309 436.114 545.087 436.678 544.643C437.242 544.187 437.524 543.563 437.524 542.771C437.524 541.991 437.242 541.379 436.678 540.935C436.114 540.491 435.262 540.269 434.122 540.269H433.222V539.315L436.714 534.941H430.27V533.789H438.37V534.707L434.806 539.189ZM449.346 533.789V534.707L444.072 546.389H442.668L447.852 534.941H441.372V537.299H440.094V533.789H449.346Z" fill="black"/>
<path d="M375.23 599.436H371.317V605.455H370.394V598.617H375.23V599.436ZM378.917 598.565C379.81 598.565 380.494 598.79 380.971 599.241C381.448 599.683 381.686 600.341 381.686 601.217V605.455H380.802V604.389C380.594 604.744 380.286 605.021 379.879 605.221C379.48 605.42 379.004 605.52 378.449 605.52C377.686 605.52 377.08 605.338 376.629 604.974C376.178 604.61 375.953 604.129 375.953 603.531C375.953 602.95 376.161 602.482 376.577 602.127C377.002 601.771 377.673 601.594 378.592 601.594H380.763V601.178C380.763 600.588 380.598 600.142 380.269 599.839C379.94 599.527 379.459 599.371 378.826 599.371C378.393 599.371 377.977 599.444 377.578 599.592C377.179 599.73 376.837 599.925 376.551 600.177L376.135 599.488C376.482 599.193 376.898 598.968 377.383 598.812C377.868 598.647 378.38 598.565 378.917 598.565ZM378.592 604.792C379.112 604.792 379.558 604.675 379.931 604.441C380.304 604.198 380.581 603.851 380.763 603.401V602.283H378.618C377.448 602.283 376.863 602.69 376.863 603.505C376.863 603.903 377.015 604.22 377.318 604.454C377.621 604.679 378.046 604.792 378.592 604.792ZM387.666 598.565C388.307 598.565 388.888 598.712 389.408 599.007C389.928 599.293 390.335 599.7 390.63 600.229C390.925 600.757 391.072 601.36 391.072 602.036C391.072 602.72 390.925 603.327 390.63 603.856C390.335 604.384 389.928 604.796 389.408 605.091C388.897 605.377 388.316 605.52 387.666 605.52C387.111 605.52 386.609 605.407 386.158 605.182C385.716 604.948 385.352 604.61 385.066 604.168V607.977H384.143V598.617H385.027V599.969C385.304 599.518 385.668 599.171 386.119 598.929C386.578 598.686 387.094 598.565 387.666 598.565ZM387.601 604.701C388.078 604.701 388.511 604.592 388.901 604.376C389.291 604.15 389.594 603.834 389.811 603.427C390.036 603.019 390.149 602.556 390.149 602.036C390.149 601.516 390.036 601.056 389.811 600.658C389.594 600.25 389.291 599.934 388.901 599.709C388.511 599.483 388.078 599.371 387.601 599.371C387.116 599.371 386.678 599.483 386.288 599.709C385.907 599.934 385.603 600.25 385.378 600.658C385.161 601.056 385.053 601.516 385.053 602.036C385.053 602.556 385.161 603.019 385.378 603.427C385.603 603.834 385.907 604.15 386.288 604.376C386.678 604.592 387.116 604.701 387.601 604.701ZM399.686 604.649V607.106H398.815V605.455H392.692V607.106H391.821V604.649H392.211C392.67 604.623 392.982 604.285 393.147 603.635C393.312 602.985 393.424 602.075 393.485 600.905L393.576 598.617H398.62V604.649H399.686ZM394.33 600.957C394.287 601.927 394.204 602.729 394.083 603.362C393.962 603.986 393.745 604.415 393.433 604.649H397.697V599.436H394.408L394.33 600.957ZM407.465 602.322H401.745C401.797 603.032 402.07 603.609 402.564 604.051C403.058 604.484 403.682 604.701 404.436 604.701C404.861 604.701 405.251 604.627 405.606 604.48C405.961 604.324 406.269 604.098 406.529 603.804L407.049 604.402C406.746 604.766 406.364 605.043 405.905 605.234C405.454 605.424 404.956 605.52 404.41 605.52C403.708 605.52 403.084 605.372 402.538 605.078C402.001 604.774 401.58 604.358 401.277 603.83C400.974 603.301 400.822 602.703 400.822 602.036C400.822 601.368 400.965 600.77 401.251 600.242C401.546 599.713 401.944 599.301 402.447 599.007C402.958 598.712 403.53 598.565 404.163 598.565C404.796 598.565 405.363 598.712 405.866 599.007C406.369 599.301 406.763 599.713 407.049 600.242C407.335 600.762 407.478 601.36 407.478 602.036L407.465 602.322ZM404.163 599.358C403.504 599.358 402.95 599.57 402.499 599.995C402.057 600.411 401.806 600.957 401.745 601.633H406.594C406.533 600.957 406.278 600.411 405.827 599.995C405.385 599.57 404.83 599.358 404.163 599.358ZM413.044 598.565C413.685 598.565 414.266 598.712 414.786 599.007C415.306 599.293 415.713 599.7 416.008 600.229C416.303 600.757 416.45 601.36 416.45 602.036C416.45 602.72 416.303 603.327 416.008 603.856C415.713 604.384 415.306 604.796 414.786 605.091C414.275 605.377 413.694 605.52 413.044 605.52C412.489 605.52 411.987 605.407 411.536 605.182C411.094 604.948 410.73 604.61 410.444 604.168V607.977H409.521V598.617H410.405V599.969C410.682 599.518 411.046 599.171 411.497 598.929C411.956 598.686 412.472 598.565 413.044 598.565ZM412.979 604.701C413.456 604.701 413.889 604.592 414.279 604.376C414.669 604.15 414.972 603.834 415.189 603.427C415.414 603.019 415.527 602.556 415.527 602.036C415.527 601.516 415.414 601.056 415.189 600.658C414.972 600.25 414.669 599.934 414.279 599.709C413.889 599.483 413.456 599.371 412.979 599.371C412.494 599.371 412.056 599.483 411.666 599.709C411.285 599.934 410.981 600.25 410.756 600.658C410.539 601.056 410.431 601.516 410.431 602.036C410.431 602.556 410.539 603.019 410.756 603.427C410.981 603.834 411.285 604.15 411.666 604.376C412.056 604.592 412.494 604.701 412.979 604.701ZM421.254 605.52C420.595 605.52 420.002 605.372 419.473 605.078C418.944 604.774 418.528 604.358 418.225 603.83C417.922 603.301 417.77 602.703 417.77 602.036C417.77 601.368 417.922 600.77 418.225 600.242C418.528 599.713 418.944 599.301 419.473 599.007C420.002 598.712 420.595 598.565 421.254 598.565C421.913 598.565 422.506 598.712 423.035 599.007C423.564 599.301 423.975 599.713 424.27 600.242C424.573 600.77 424.725 601.368 424.725 602.036C424.725 602.703 424.573 603.301 424.27 603.83C423.975 604.358 423.564 604.774 423.035 605.078C422.506 605.372 421.913 605.52 421.254 605.52ZM421.254 604.701C421.739 604.701 422.173 604.592 422.554 604.376C422.944 604.15 423.247 603.834 423.464 603.427C423.681 603.019 423.789 602.556 423.789 602.036C423.789 601.516 423.681 601.052 423.464 600.645C423.247 600.237 422.944 599.925 422.554 599.709C422.173 599.483 421.739 599.371 421.254 599.371C420.769 599.371 420.331 599.483 419.941 599.709C419.56 599.925 419.256 600.237 419.031 600.645C418.814 601.052 418.706 601.516 418.706 602.036C418.706 602.556 418.814 603.019 419.031 603.427C419.256 603.834 419.56 604.15 419.941 604.376C420.331 604.592 420.769 604.701 421.254 604.701ZM430.013 598.786C430.645 598.786 431.209 598.929 431.703 599.215C432.205 599.492 432.595 599.886 432.873 600.398C433.15 600.9 433.289 601.477 433.289 602.127C433.289 602.794 433.141 603.388 432.847 603.908C432.561 604.419 432.158 604.818 431.638 605.104C431.118 605.39 430.52 605.533 429.844 605.533C428.708 605.533 427.829 605.134 427.205 604.337C426.581 603.539 426.269 602.439 426.269 601.035C426.269 599.57 426.546 598.448 427.101 597.668C427.664 596.888 428.539 596.359 429.727 596.082L432.795 595.38L432.951 596.225L430.065 596.888C429.085 597.104 428.366 597.49 427.907 598.045C427.447 598.591 427.196 599.401 427.153 600.476C427.43 599.947 427.816 599.535 428.31 599.241C428.804 598.937 429.371 598.786 430.013 598.786ZM429.87 604.766C430.346 604.766 430.771 604.657 431.144 604.441C431.525 604.215 431.82 603.903 432.028 603.505C432.244 603.106 432.353 602.655 432.353 602.153C432.353 601.65 432.249 601.208 432.041 600.827C431.833 600.445 431.538 600.151 431.157 599.943C430.784 599.726 430.355 599.618 429.87 599.618C429.384 599.618 428.951 599.726 428.57 599.943C428.197 600.151 427.902 600.445 427.686 600.827C427.478 601.208 427.374 601.65 427.374 602.153C427.374 602.655 427.478 603.106 427.686 603.505C427.902 603.903 428.201 604.215 428.583 604.441C428.964 604.657 429.393 604.766 429.87 604.766ZM435.267 598.617H436.19V601.646H440.493V598.617H441.416V605.455H440.493V602.439H436.19V605.455H435.267V598.617ZM446.393 598.565C447.285 598.565 447.97 598.79 448.447 599.241C448.923 599.683 449.162 600.341 449.162 601.217V605.455H448.278V604.389C448.07 604.744 447.762 605.021 447.355 605.221C446.956 605.42 446.479 605.52 445.925 605.52C445.162 605.52 444.555 605.338 444.105 604.974C443.654 604.61 443.429 604.129 443.429 603.531C443.429 602.95 443.637 602.482 444.053 602.127C444.477 601.771 445.149 601.594 446.068 601.594H448.239V601.178C448.239 600.588 448.074 600.142 447.745 599.839C447.415 599.527 446.934 599.371 446.302 599.371C445.868 599.371 445.452 599.444 445.054 599.592C444.655 599.73 444.313 599.925 444.027 600.177L443.611 599.488C443.957 599.193 444.373 598.968 444.859 598.812C445.344 598.647 445.855 598.565 446.393 598.565ZM446.068 604.792C446.588 604.792 447.034 604.675 447.407 604.441C447.779 604.198 448.057 603.851 448.239 603.401V602.283H446.094C444.924 602.283 444.339 602.69 444.339 603.505C444.339 603.903 444.49 604.22 444.794 604.454C445.097 604.679 445.522 604.792 446.068 604.792ZM456.871 598.617V605.455H456.026V603.193H453.881H453.621L452.035 605.455H451.034L452.737 603.063C452.208 602.915 451.801 602.664 451.515 602.309C451.229 601.953 451.086 601.503 451.086 600.957C451.086 600.194 451.346 599.613 451.866 599.215C452.386 598.816 453.096 598.617 453.998 598.617H456.871ZM452.022 600.983C452.022 601.997 452.667 602.504 453.959 602.504H456.026V599.436H454.024C452.689 599.436 452.022 599.951 452.022 600.983Z" fill="#20201F"/>
<path d="M404.71 632.735V633.887H395.872V632.969L401.11 627.839C401.77 627.191 402.214 626.633 402.442 626.165C402.682 625.685 402.802 625.205 402.802 624.725C402.802 623.981 402.544 623.405 402.028 622.997C401.524 622.577 400.798 622.367 399.85 622.367C398.374 622.367 397.228 622.835 396.412 623.771L395.494 622.979C395.986 622.403 396.61 621.959 397.366 621.647C398.134 621.335 398.998 621.179 399.958 621.179C401.242 621.179 402.256 621.485 403 622.097C403.756 622.697 404.134 623.525 404.134 624.581C404.134 625.229 403.99 625.853 403.702 626.453C403.414 627.053 402.868 627.743 402.064 628.523L397.78 632.735H404.71ZM407.484 633.977C407.22 633.977 406.992 633.881 406.8 633.689C406.62 633.497 406.53 633.263 406.53 632.987C406.53 632.711 406.62 632.483 406.8 632.303C406.992 632.111 407.22 632.015 407.484 632.015C407.748 632.015 407.976 632.111 408.168 632.303C408.36 632.483 408.456 632.711 408.456 632.987C408.456 633.263 408.36 633.497 408.168 633.689C407.976 633.881 407.748 633.977 407.484 633.977ZM414.786 626.687C416.106 626.759 417.108 627.119 417.792 627.767C418.488 628.403 418.836 629.237 418.836 630.269C418.836 630.989 418.662 631.631 418.314 632.195C417.966 632.747 417.45 633.185 416.766 633.509C416.082 633.833 415.248 633.995 414.264 633.995C413.352 633.995 412.488 633.851 411.672 633.563C410.868 633.263 410.22 632.867 409.728 632.375L410.358 631.349C410.778 631.781 411.336 632.135 412.032 632.411C412.728 632.675 413.472 632.807 414.264 632.807C415.296 632.807 416.094 632.585 416.658 632.141C417.222 631.685 417.504 631.061 417.504 630.269C417.504 629.489 417.222 628.877 416.658 628.433C416.094 627.989 415.242 627.767 414.102 627.767H413.202V626.813L416.694 622.439H410.25V621.287H418.35V622.205L414.786 626.687ZM429.179 632.735V633.887H420.341V632.969L425.579 627.839C426.239 627.191 426.683 626.633 426.911 626.165C427.151 625.685 427.271 625.205 427.271 624.725C427.271 623.981 427.013 623.405 426.497 622.997C425.993 622.577 425.267 622.367 424.319 622.367C422.843 622.367 421.697 622.835 420.881 623.771L419.963 622.979C420.455 622.403 421.079 621.959 421.835 621.647C422.603 621.335 423.467 621.179 424.427 621.179C425.711 621.179 426.725 621.485 427.469 622.097C428.225 622.697 428.603 623.525 428.603 624.581C428.603 625.229 428.459 625.853 428.171 626.453C427.883 627.053 427.337 627.743 426.533 628.523L422.249 632.735H429.179Z" fill="#20201F"/>
</g>
<defs>
<clipPath id="clip0_2384_28736">
<rect width="647.981" height="653.367" fill="white" transform="translate(51 23)"/>
</clipPath>
</defs>
</svg>
