<svg width="500" height="970" fill="none" xmlns="http://www.w3.org/2000/svg"><path fill="#fff" d="M0 0h500v970H0z"/><g clip-path="url(#a)"><path fill-rule="evenodd" clip-rule="evenodd" d="M47.967 964.388H33V5H279.13v65.681l188.643 17.496v876.211H47.967z" fill="#D3001B"/><path d="M47.967 450.56H33v111.99h14.967V450.56z" fill="#CFD0D0"/><path d="M47.967 547.575H33v416.813h14.967V547.575z" fill="#FFE900"/><path fill-rule="evenodd" clip-rule="evenodd" d="M33 457.748h14.967V5H33v452.748z" fill="#C6C0E1"/><path fill-rule="evenodd" clip-rule="evenodd" d="m279.13 70.681 188.643 17.496v876.211H33V5h246.13v65.681z" fill="#ED9FA6"/><path d="M47.967 547.575H33v416.813h14.967V547.575z" fill="#E4CDA1"/><path fill-rule="evenodd" clip-rule="evenodd" d="M33 457.748h14.967V5H33v452.748z" fill="#E4CDA1"/><path fill-rule="evenodd" clip-rule="evenodd" d="m279.13 70.681 188.643 17.496v876.211H33V5h246.13v65.681z" fill="#F6D6B9"/><path d="M47.967 20.57H33v14.973h14.967V20.57zM263.559 20.57h-14.967v15.114h14.967V20.571zM284.521 912.888h-35.93v35.929h35.93v-35.929zM47.967 933.85H33v15.027h14.967V933.85zM266.552 361.927h-17.96v53.898h17.96v-53.898zM47.967 418.475H33v15.188h14.967v-15.188z" fill="#20201F"/><path d="M47.967 35.543H33V469.72h14.967V35.543zM263.559 35.543h-14.967v161.694h14.967V35.543zM467.773 197.237h-14.967V933.85h14.967V197.237zM47.967 518.117H33V933.85h14.967V518.117zM77.91 933.85H33v22.757h44.91V933.85zM314.464 933.85h-110.79v22.757h110.79V933.85zM467.773 933.85h-57.486v22.757h57.486V933.85z" fill="#20201F"/><path d="M467.773 174.48h-85.039v22.758h85.039V174.48zM286.92 174.48h-23.361v22.757h23.361V174.48zM92.885 12.785H33v22.758h59.885V12.785zM269.546 12.785h-50.897v22.758h50.897V12.785zM96.473 5H33v7.785h63.473V5zM269.545 5h-54.493v7.785h54.493V5zM279.13 5h-7.186v161.695h7.186V5z" fill="#20201F"/><path d="M286.92 166.694h-23.361v7.786h23.361v-7.786zM467.773 166.695h-85.039v7.785h85.039v-7.785zM467.773 956.607h-61.084v7.781h61.084v-7.781zM318.061 956.607H200.077v7.781h117.984v-7.781zM81.506 956.607H33v7.781h48.506v-7.781z" fill="#20201F"/><path d="M275.537 5h-11.978v161.695h11.978V5zM35.073 887.997H33v76.391h2.073v-76.391z" fill="#20201F"/><path fill-rule="evenodd" clip-rule="evenodd" d="M467.773 88.177h-7.186L279.13 70.68v7.414l181.457 17.281v71.319h7.186V88.177z" fill="#20201F"/><path d="M150.89 411.034H47.967v4.791H150.89v-4.791zM248.592 411.034h-37.809v4.791h37.809v-4.791zM253.38 197.237h-4.788v164.69h4.788v-164.69zM69.584 527.438H47.967v4.787h21.617v-4.787zM160.703 527.438h-24.457v4.787h24.457v-4.787zM253.379 527.438h-26.013v4.787h26.013v-4.787z" fill="#20201F"/><path d="M253.38 527.438h-4.788v90.643h4.788v-90.643z" fill="#20201F"/><path d="M248.592 608.88h-22.289v4.796h22.289v-4.796zM162.039 608.88h-26.694v4.796h26.694v-4.796zM70.936 608.88h-22.97v4.796h22.97v-4.796zM248.592 568.163H47.967v4.788h200.625v-4.788zM264.188 679.327h-10.809v4.796h10.809v-4.796z" fill="#20201F"/><path d="M253.38 673.144h-4.788v239.744h4.788V673.144zM453.193 679.327H312.091v4.796h141.102v-4.796zM325.842 619.374h-4.787v59.953h4.787v-59.953zM325.842 513.763h-4.787v63.695h4.787v-63.695z" fill="#20201F"/><path d="M452.806 539.19H323.448v4.796h129.358v-4.796zM325.842 411.034h-4.787v60.805h4.787v-60.805zM452.806 449.018h-23.029v4.791h23.029v-4.791z" fill="#20201F"/><path d="M429.777 449.018h-105.04v4.791h105.04v-4.791zM215.06 5H96.474v3.852H215.06V5zM218.649 12.765H92.885v3.851h125.764v-3.851zM218.649 31.67H92.885v3.852h125.764V31.67zM200.086 960.536H81.499v3.852h118.587v-3.852zM203.675 952.771H77.909v3.852h125.766v-3.852zM203.675 933.866H77.909v3.852h125.766v-3.852zM406.689 960.536h-88.637v3.852h88.637v-3.852zM410.287 952.771h-95.824v3.852h95.824v-3.852zM410.287 933.866h-95.824v3.852h95.824v-3.852zM382.733 166.718H334.82v3.852h47.913v-3.852zM382.734 174.483H334.82v3.851h47.914v-3.851zM382.734 193.388H334.82v3.851h47.914v-3.851z" fill="#20201F"/><path d="M337.647 166.696h-2.827v30.543h2.827v-30.543z" fill="#20201F"/><path fill-rule="evenodd" clip-rule="evenodd" d="M41.585 516.269a1.702 1.702 0 0 1 0-3.402H77.58a1.701 1.701 0 0 1 0 3.402H41.585zM41.243 473.794a.85.85 0 0 1 0-1.701c10.267 0 19.565 4.198 26.294 10.979a37.498 37.498 0 0 1 10.894 26.489.85.85 0 0 1-1.7 0 35.801 35.801 0 0 0-10.396-25.294c-6.42-6.469-15.293-10.473-25.092-10.473zM205.575 413.49a1.702 1.702 0 0 1 3.401 0v35.996a1.701 1.701 0 0 1-3.401 0V413.49zM153.296 413.148a.85.85 0 0 1 1.701 0c0 9.756 5.107 18.606 13.361 25.023 8.316 6.465 19.817 10.465 32.527 10.465a.85.85 0 0 1 0 1.701c-13.097 0-24.969-4.138-33.57-10.824-8.66-6.733-14.019-16.055-14.019-26.365zM271.559 414.428a1.702 1.702 0 0 1-3.401 0v-35.996a1.701 1.701 0 0 1 3.401 0v35.996zM318.142 414.77a.85.85 0 0 1-1.701 0c0-9.775-4.56-18.635-11.93-25.053-7.403-6.446-17.639-10.435-28.947-10.435a.85.85 0 1 1 0-1.701c11.732 0 22.363 4.149 30.063 10.854 7.731 6.732 12.515 16.044 12.515 26.335zM322.64 509.087a1.702 1.702 0 0 1 0 3.401h-35.996a1.7 1.7 0 1 1 0-3.401h35.996zM322.982 473.825a.851.851 0 1 1 0 1.701c-9.823 0-18.71 3.476-25.135 9.093-6.395 5.592-10.352 13.31-10.352 21.825a.85.85 0 0 1-1.701 0c0-9.024 4.181-17.193 10.938-23.1 6.725-5.88 16.008-9.519 26.25-9.519zM323.319 614.478a1.702 1.702 0 0 1 0 3.402h-35.996a1.702 1.702 0 0 1 0-3.402h35.996zM323.661 579.217a.85.85 0 1 1 0 1.7c-9.824 0-18.71 3.476-25.135 9.094-6.396 5.591-10.353 13.309-10.353 21.824a.85.85 0 0 1-1.7 0c0-9.024 4.181-17.193 10.937-23.1 6.725-5.88 16.008-9.518 26.251-9.518zM251.098 620.619a1.701 1.701 0 0 1 0 3.401h-35.996a1.702 1.702 0 0 1 0-3.401h35.996zM251.44 668.789a.851.851 0 1 1 0 1.701c-10.288 0-19.598-4.772-26.33-12.486-6.708-7.684-10.858-18.291-10.858-29.992a.85.85 0 0 1 1.701 0c0 11.282 3.987 21.493 10.432 28.876 6.417 7.352 15.278 11.901 25.055 11.901zM265.944 682.225a1.701 1.701 0 0 1 3.401 0v35.997a1.701 1.701 0 0 1-3.401 0v-35.997zM308.557 681.884a.85.85 0 1 1 1.7 0c0 10.27-4.211 19.569-11.014 26.297-6.802 6.728-16.2 10.891-26.575 10.891a.85.85 0 0 1 0-1.701c9.91 0 18.885-3.975 25.379-10.399 6.492-6.42 10.51-15.292 10.51-25.088zM288.155 175.703a1.702 1.702 0 0 1 3.401 0v35.996a1.701 1.701 0 0 1-3.401 0v-35.996zM331.133 175.361a.85.85 0 0 1 1.701 0c0 10.269-4.248 19.569-11.111 26.298-6.863 6.728-16.34 10.891-26.799 10.891a.851.851 0 1 1 0-1.701c10.001 0 19.058-3.976 25.61-10.4 6.547-6.419 10.599-15.29 10.599-25.088zM450.367 311.906v90.355h-36.141v-91.418h36.141v1.063zm-4.273 62.076c0-.995-.406-1.901-1.065-2.555a3.605 3.605 0 0 0-2.549-1.06h-20.41a3.624 3.624 0 0 0-3.614 3.615v20.409a3.62 3.62 0 0 0 3.614 3.613h20.41c.995 0 1.9-.406 2.551-1.063a3.596 3.596 0 0 0 1.063-2.55v-20.409zm-1.689-51.566c0-1.376-.56-2.626-1.464-3.531a4.983 4.983 0 0 0-7.063.002 4.98 4.98 0 0 0 .001 7.059 4.975 4.975 0 0 0 3.53 1.466c1.378 0 2.628-.56 3.532-1.464a4.982 4.982 0 0 0 1.464-3.532zm-13.163 0c0-1.672-.68-3.187-1.776-4.283a6.043 6.043 0 0 0-4.283-1.776c-1.672 0-3.187.68-4.283 1.776a6.037 6.037 0 0 0-1.776 4.283c0 1.671.679 3.187 1.776 4.284a6.04 6.04 0 0 0 4.283 1.775 6.042 6.042 0 0 0 4.283-1.775 6.047 6.047 0 0 0 1.776-4.284zm-2.827 3.233a4.562 4.562 0 0 0 1.339-3.233 4.558 4.558 0 0 0-1.339-3.232 4.558 4.558 0 0 0-3.232-1.339 4.556 4.556 0 0 0-3.232 1.339 4.558 4.558 0 0 0-1.339 3.232c0 1.262.513 2.407 1.339 3.233a4.56 4.56 0 0 0 3.232 1.338 4.561 4.561 0 0 0 3.232-1.338zm17.053 9.762a6.04 6.04 0 0 0-1.775-4.283 6.041 6.041 0 0 0-4.284-1.776 6.043 6.043 0 0 0-4.284 1.775 6.043 6.043 0 0 0-1.775 4.284c0 1.672.68 3.187 1.776 4.284a6.04 6.04 0 0 0 4.283 1.775 6.046 6.046 0 0 0 4.284-1.775 6.046 6.046 0 0 0 1.775-4.284zm-2.827 3.232a4.558 4.558 0 0 0 1.339-3.232 4.556 4.556 0 0 0-1.339-3.232 4.556 4.556 0 0 0-3.232-1.339 4.56 4.56 0 0 0-3.233 1.338 4.56 4.56 0 0 0-1.338 3.233c0 1.263.513 2.407 1.339 3.232a4.558 4.558 0 0 0 3.232 1.339 4.558 4.558 0 0 0 3.232-1.339zm-12.462-3.232a4.99 4.99 0 0 0-1.464-3.532 4.985 4.985 0 0 0-7.064.003 4.982 4.982 0 0 0 .002 7.059 4.975 4.975 0 0 0 3.53 1.466c1.378 0 2.628-.56 3.532-1.464a4.982 4.982 0 0 0 1.464-3.532zm-2.515 2.481a3.503 3.503 0 0 0 1.027-2.481c0-.971-.392-1.849-1.025-2.481a3.512 3.512 0 0 0-2.483-1.027c-.971 0-1.849.392-2.481 1.025a3.496 3.496 0 0 0-1.027 2.483 3.503 3.503 0 0 0 3.508 3.508c.969 0 1.847-.394 2.481-1.027zm14.226-12.995a3.503 3.503 0 0 0 1.027-2.481 3.508 3.508 0 0 0-3.508-3.508 3.49 3.49 0 0 0-2.48 1.025 3.493 3.493 0 0 0-1.028 2.483 3.5 3.5 0 0 0 1.028 2.481 3.484 3.484 0 0 0 2.48 1.027c.969 0 1.847-.394 2.481-1.027zm2.078 69.494v-20.409c0-.409-.168-.782-.438-1.052a1.475 1.475 0 0 0-1.05-.438h-20.41c-.409 0-.783.168-1.051.437a1.498 1.498 0 0 0-.437 1.053v20.409c0 .41.167.782.434 1.049.274.27.648.438 1.054.438h20.41c.407 0 .781-.168 1.05-.438.271-.267.438-.639.438-1.049zm-27.616-49.567h31.889v-31.855h-31.889v31.855zm31.889 2.126h-31.889v53.185h31.889V346.95zM417.802 508.134c2.797 1.798 6.386 2.909 9.541 2.909 3.106 0 5.529-1.066 7.216-2.81v-.005c.638-.661 1.132-1.445 1.551-2.275v3.587c0 2.142.894 3.397 2.331 4.126 1.307.665 3.036.829 4.931.829h.782v-.02c1.58-.044 3.023-.241 4.146-.809 1.436-.729 2.326-1.984 2.326-4.115v-17.595c0-2.141-.89-3.394-2.326-4.119-1.123-.563-2.566-.767-4.146-.809v-.02h-.782c-1.895 0-3.624.164-4.931.829-1.437.725-2.331 1.978-2.331 4.119v3.595c-.419-.831-.908-1.613-1.551-2.275-1.687-1.748-4.11-2.814-7.216-2.814-3.334 0-7.151 1.243-10.013 3.225-2.642 1.83-4.496 4.303-4.496 7.064 0 2.925 2.08 5.529 4.968 7.383zm27.904-7.889h.005v.002c0 .631-.264 1.212-.682 1.63v.006a2.302 2.302 0 0 1-3.259 0h-.008l.001-.006a2.313 2.313 0 0 1-.001-3.265 2.31 2.31 0 0 1 3.944 1.633zm-1.183-.003v.005c0 .311-.124.593-.321.793h-.008a1.14 1.14 0 0 1-1.597.01l-.005-.008a1.144 1.144 0 0 1-.323-.795c0-.322.127-.602.323-.803.201-.196.49-.32.806-.32.314 0 .601.124.796.33.21.196.336.48.336.788h-.007zm-6.851-8.286c0-1.444.567-2.269 1.466-2.729.932-.464 2.225-.621 3.686-.648h.548c1.683 0 3.192.128 4.23.648.9.46 1.46 1.287 1.46 2.729v17.595c0 1.44-.56 2.262-1.46 2.722-1.038.524-2.547.651-4.23.651h-.609c-1.43-.032-2.713-.186-3.625-.648-.907-.463-1.466-1.292-1.466-2.736v-17.584zm-19.458 3.011c2.612-1.811 6.093-2.944 9.129-2.944 2.653 0 4.694.886 6.095 2.333 1.533 1.582 2.326 3.861 2.326 6.395 0 2.539-.793 4.815-2.326 6.402-1.401 1.443-3.442 2.328-6.095 2.328-2.868 0-6.142-1.015-8.702-2.659-2.467-1.583-4.244-3.74-4.244-6.071 0-2.191 1.58-4.228 3.817-5.784zM387.935 546.151l-19.49-.006c-6.519 0-5.751 13.492-5.684 14.393a11.29 11.29 0 0 0 3.327 8.007 11.305 11.305 0 0 0 8.009 3.315h8.271c3.129 0 5.964-1.266 8.018-3.315a11.392 11.392 0 0 0 3.329-8.013c.042-.915.712-14.387-5.78-14.381zm-9.706 13.142v.003a2.536 2.536 0 0 1 1.77.727c.444.458.718 1.083.718 1.765a2.482 2.482 0 0 1-2.49 2.493 2.48 2.48 0 0 1-1.76-.728h-.008v-.005a2.479 2.479 0 0 1-.733-1.76c0-.682.282-1.315.733-1.765h.002a2.504 2.504 0 0 1 1.766-.734l.002.004zm.004 1.272c.326 0 .633.134.853.359.214.215.352.523.352.864 0 .341-.132.649-.347.87a1.225 1.225 0 0 1-.864.347c-.344 0-.641-.133-.861-.347l-.005-.006a1.205 1.205 0 0 1-.352-.864c0-.335.142-.643.354-.864l.005-.002c.215-.216.522-.346.854-.346l.011.002v-.013zm-.004-9.665c3.142 0 5.995.936 8.069 2.439 2.155 1.571 3.494 3.767 3.496 6.2 0 2.442-1.341 4.637-3.496 6.212-2.082 1.511-4.936 2.439-8.079 2.439h-.014c-3.134-.007-5.98-.942-8.061-2.448-2.145-1.571-3.482-3.761-3.484-6.189l.002-.014c0-2.439 1.337-4.622 3.499-6.2 2.069-1.505 4.921-2.439 8.061-2.436l.007-.003zm0 1.758c2.754.005 5.242.813 7.041 2.111 1.699 1.242 2.756 2.933 2.756 4.77 0 1.849-1.057 3.54-2.769 4.787-1.79 1.293-4.274 2.099-7.038 2.099h-.005l-.009.005c-2.756-.005-5.234-.811-7.024-2.112-1.694-1.236-2.75-2.93-2.755-4.765l.005-.014c-.003-1.84 1.054-3.533 2.756-4.77 1.791-1.293 4.276-2.106 7.032-2.104h.01v-.007zm9.7-4.748c4.839 0 4.014 12.525 4.014 12.558l-.007.064a9.563 9.563 0 0 1-2.791 6.764 9.577 9.577 0 0 1-6.777 2.799h-8.262a9.54 9.54 0 0 1-6.783-2.799 9.554 9.554 0 0 1-2.801-6.764l-.003-.062c0-.031-.888-12.56 3.931-12.56h19.479zM447.925 650.428V548.839h-41.559v101.589h41.559zm-24.819-19.796a4.036 4.036 0 0 1 6.893-2.856 4.03 4.03 0 0 1 .003 5.71 4.02 4.02 0 0 1-2.857 1.186 4.03 4.03 0 0 1-2.856-1.183 4.026 4.026 0 0 1-1.183-2.857zm2.324-1.715a2.42 2.42 0 0 1 1.715-.708c.671 0 1.278.271 1.716.708.436.437.708 1.045.708 1.715a2.419 2.419 0 0 1-2.424 2.424 2.42 2.42 0 0 1-2.423-2.424c0-.668.271-1.275.708-1.715zm-17.875 13.843 1.616-71.712c0-10.771 7.204-19.59 17.974-19.59 10.771 0 17.975 8.819 17.975 19.59l1.616 71.712c0 1.39-.569 2.653-1.483 3.567a5.048 5.048 0 0 1-3.567 1.482h-29.082a5.038 5.038 0 0 1-3.562-1.482 5.038 5.038 0 0 1-1.487-3.567zm3.636-71.712c0-9.667 6.287-17.571 15.954-17.571 9.667 0 15.955 7.904 15.955 17.571l1.616 71.712c0 .831-.342 1.589-.891 2.143a3.018 3.018 0 0 1-2.139.887h-29.082a3.02 3.02 0 0 1-2.142-.891 3.018 3.018 0 0 1-.887-2.139l1.616-71.712zm38.712-22.422v102.015c0 .507-.201.97-.52 1.306-.32.337-.766.546-1.255.546h-41.966a1.74 1.74 0 0 1-1.254-.542c-.321-.336-.52-.8-.52-1.31V548.626c0-.51.199-.974.52-1.31a1.755 1.755 0 0 1 1.254-.542h41.966c.487 0 .93.21 1.252.542.323.341.523.803.523 1.31zM70.153 534.361h2.92a.634.634 0 0 0 .632-.633v-.61h30.032a.92.92 0 0 0 0-1.837H73.705v-5.007a.636.636 0 0 0-.632-.633h-2.92a.633.633 0 0 0-.632.633v7.454c0 .349.283.633.632.633zM135.595 525.43h-2.921a.634.634 0 0 0-.631.633v.61H102.01a.919.919 0 0 0 0 1.837h30.033v5.007c0 .346.285.633.631.633h2.921a.634.634 0 0 0 .632-.633v-7.454a.634.634 0 0 0-.632-.633zM161.336 534.361h2.92a.635.635 0 0 0 .632-.633v-.61h30.032a.92.92 0 0 0 0-1.837h-30.032v-5.007a.636.636 0 0 0-.632-.633h-2.92a.633.633 0 0 0-.632.633v7.454c0 .349.283.633.632.633zM226.777 525.43h-2.92a.635.635 0 0 0-.632.633v.61h-30.032a.92.92 0 0 0 0 1.837h30.032v5.007c0 .346.286.633.632.633h2.92a.633.633 0 0 0 .632-.633v-7.454a.633.633 0 0 0-.632-.633zM70.153 615.999h2.92a.634.634 0 0 0 .632-.633v-.611h30.032a.919.919 0 1 0 0-1.836H73.705v-5.008a.636.636 0 0 0-.632-.632h-2.92a.633.633 0 0 0-.632.632v7.455c0 .349.283.633.632.633zM135.595 607.068h-2.921a.634.634 0 0 0-.631.633v.61H102.01a.919.919 0 0 0 0 1.837h30.033v5.007c0 .346.285.633.631.633h2.921a.634.634 0 0 0 .632-.633v-7.454a.634.634 0 0 0-.632-.633zM161.336 615.999h2.92a.635.635 0 0 0 .632-.633v-.611h30.032a.919.919 0 1 0 0-1.836h-30.032v-5.008a.636.636 0 0 0-.632-.632h-2.92a.633.633 0 0 0-.632.632v7.455c0 .349.283.633.632.633zM226.777 607.068h-2.92a.635.635 0 0 0-.632.633v.61h-30.032a.92.92 0 0 0 0 1.837h30.032v5.007c0 .346.286.633.632.633h2.92a.633.633 0 0 0 .632-.633v-7.454a.633.633 0 0 0-.632-.633z" fill="#20201F"/><path d="M115.087 122.141c3.527.575 6.229 1.897 8.107 3.967 1.878 2.031 2.817 4.561 2.817 7.589a12.16 12.16 0 0 1-1.84 6.496c-1.226 1.955-3.104 3.526-5.634 4.715-2.491 1.188-5.558 1.782-9.199 1.782-2.836 0-5.634-.364-8.394-1.092-2.72-.767-5.04-1.84-6.956-3.22l3.622-7.129c1.533 1.15 3.296 2.051 5.289 2.702 2.032.613 4.101.92 6.209.92 2.338 0 4.178-.441 5.519-1.322 1.342-.92 2.013-2.204 2.013-3.852 0-3.296-2.511-4.945-7.532-4.945h-4.254v-6.151l8.279-9.371H96v-7.474h28.171v6.036l-9.084 10.349zM159.075 93.933c2.081 0 3.593.376 4.538 1.129.958.739 1.437 1.78 1.437 3.12 0 .836-.198 1.582-.595 2.239-.383.657-.965 1.177-1.745 1.56-.781.37-1.739.555-2.875.555a8.743 8.743 0 0 1-2.936-.493c-.917-.342-1.657-.794-2.218-1.355l.719-1.17c.479.492 1.109.896 1.889 1.211.78.301 1.622.452 2.525.452 1.191 0 2.108-.267 2.752-.801.657-.534.985-1.246.985-2.136 0-.985-.369-1.731-1.108-2.238-.726-.506-1.958-.76-3.696-.76h-3.06l.74-7.206h7.864v1.314h-6.571l-.493 4.579h1.848zm20.069 4.702h-2.874v3.778h-1.479v-3.778h-8.11v-1.068l7.617-9.527h1.643l-7.351 9.28h6.242v-3.326h1.438v3.326h2.874v1.315zm2.868 3.88c-.301 0-.561-.109-.78-.328a1.125 1.125 0 0 1-.308-.801c0-.315.102-.575.308-.78.219-.219.479-.329.78-.329.301 0 .561.11.78.329.219.205.329.465.329.78s-.11.582-.329.801a1.065 1.065 0 0 1-.78.328zm11.676-7.638c.904.301 1.595.753 2.074 1.355.493.603.739 1.328.739 2.177 0 .835-.225 1.567-.677 2.197-.452.616-1.102 1.095-1.951 1.437-.835.329-1.82.493-2.957.493-1.724 0-3.079-.37-4.065-1.109-.986-.739-1.478-1.745-1.478-3.018 0-.863.232-1.588.698-2.177.479-.602 1.17-1.054 2.074-1.355-.74-.287-1.301-.698-1.684-1.232-.383-.547-.575-1.19-.575-1.93 0-1.163.452-2.088 1.355-2.772.917-.684 2.142-1.027 3.675-1.027 1.013 0 1.896.158 2.649.473.767.3 1.362.739 1.787 1.314.424.575.636 1.245.636 2.012 0 .74-.198 1.383-.595 1.93-.397.534-.965.945-1.705 1.232zm-6.324-3.12c0 .793.315 1.423.945 1.888.629.466 1.499.698 2.607.698 1.109 0 1.978-.233 2.608-.698.644-.465.965-1.088.965-1.868 0-.808-.328-1.445-.985-1.91-.644-.465-1.506-.698-2.588-.698-1.095 0-1.964.233-2.607.698-.63.465-.945 1.095-.945 1.89zm3.552 9.526c1.274 0 2.266-.26 2.978-.78.725-.52 1.088-1.225 1.088-2.115 0-.89-.363-1.588-1.088-2.094-.712-.52-1.704-.78-2.978-.78-1.259 0-2.251.26-2.977.78-.712.506-1.067 1.204-1.067 2.094 0 .904.355 1.615 1.067 2.136.712.506 1.704.759 2.977.759zm12.109-13.367c1.902 0 3.36.63 4.373 1.89 1.013 1.245 1.519 3.01 1.519 5.297 0 1.602-.273 2.957-.821 4.065-.547 1.109-1.314 1.951-2.3 2.526-.985.561-2.135.842-3.449.842-1.424 0-2.56-.26-3.408-.78l.595-1.191c.684.451 1.615.677 2.792.677 1.588 0 2.834-.499 3.737-1.499.904-1.013 1.356-2.477 1.356-4.394 0-.356-.021-.746-.062-1.17-.356.78-.924 1.39-1.704 1.827-.78.425-1.677.637-2.69.637-.945 0-1.786-.178-2.526-.534a4.135 4.135 0 0 1-1.704-1.499c-.41-.657-.616-1.417-.616-2.279 0-.876.212-1.65.637-2.32a4.145 4.145 0 0 1 1.745-1.54c.753-.37 1.595-.555 2.526-.555zm.164 7.474c.725 0 1.362-.136 1.909-.41.562-.274 1-.65 1.314-1.13.315-.479.473-1.012.473-1.601 0-.548-.151-1.054-.452-1.52-.287-.465-.719-.841-1.294-1.129-.574-.287-1.259-.431-2.053-.431-1.04 0-1.889.287-2.546.862-.643.561-.965 1.314-.965 2.259 0 .944.322 1.697.965 2.258.657.562 1.54.842 2.649.842zM163.972 124.163c.904.301 1.595.753 2.074 1.355.493.603.739 1.328.739 2.177 0 .835-.226 1.567-.677 2.197-.452.616-1.102 1.095-1.951 1.437-.835.329-1.821.493-2.957.493-1.724 0-3.08-.37-4.065-1.109-.986-.739-1.479-1.745-1.479-3.018 0-.863.233-1.588.699-2.177.479-.602 1.17-1.054 2.073-1.355-.739-.287-1.3-.698-1.683-1.232-.384-.547-.575-1.191-.575-1.93 0-1.163.452-2.087 1.355-2.772.917-.684 2.142-1.026 3.675-1.026 1.013 0 1.896.157 2.649.472.767.301 1.362.739 1.786 1.314.425.575.637 1.246.637 2.012 0 .739-.199 1.383-.596 1.93-.396.534-.965.945-1.704 1.232zm-6.324-3.121c0 .794.315 1.424.945 1.889.629.466 1.499.698 2.607.698 1.109 0 1.978-.232 2.608-.698.643-.465.965-1.088.965-1.868 0-.808-.328-1.444-.986-1.91-.643-.465-1.505-.698-2.587-.698-1.095 0-1.964.233-2.607.698-.63.466-.945 1.095-.945 1.889zm3.552 9.527c1.273 0 2.266-.26 2.978-.78.725-.52 1.088-1.225 1.088-2.115 0-.889-.363-1.588-1.088-2.094-.712-.52-1.705-.78-2.978-.78-1.259 0-2.251.26-2.977.78-.712.506-1.068 1.205-1.068 2.094 0 .904.356 1.616 1.068 2.136.712.506 1.704.759 2.977.759zm15.866-6.406c.903.301 1.595.753 2.074 1.355.493.603.739 1.328.739 2.177 0 .835-.226 1.567-.678 2.197-.451.616-1.102 1.095-1.95 1.437-.835.329-1.821.493-2.957.493-1.725 0-3.08-.37-4.065-1.109-.986-.739-1.479-1.745-1.479-3.018 0-.863.233-1.588.698-2.177.479-.602 1.171-1.054 2.074-1.355-.739-.287-1.3-.698-1.684-1.232-.383-.547-.575-1.191-.575-1.93 0-1.163.452-2.087 1.356-2.772.917-.684 2.142-1.026 3.675-1.026 1.013 0 1.896.157 2.649.472.766.301 1.362.739 1.786 1.314.424.575.637 1.246.637 2.012 0 .739-.199 1.383-.596 1.93-.397.534-.965.945-1.704 1.232zm-6.324-3.121c0 .794.315 1.424.944 1.889.63.466 1.499.698 2.608.698s1.978-.232 2.608-.698c.643-.465.965-1.088.965-1.868 0-.808-.329-1.444-.986-1.91-.643-.465-1.506-.698-2.587-.698-1.095 0-1.964.233-2.608.698-.629.466-.944 1.095-.944 1.889zm3.552 9.527c1.273 0 2.265-.26 2.977-.78.726-.52 1.088-1.225 1.088-2.115 0-.889-.362-1.588-1.088-2.094-.712-.52-1.704-.78-2.977-.78-1.259 0-2.252.26-2.977.78-.712.506-1.068 1.205-1.068 2.094 0 .904.356 1.616 1.068 2.136.712.506 1.704.759 2.977.759zm8.941 1.232c-.301 0-.561-.109-.78-.328a1.13 1.13 0 0 1-.308-.801c0-.315.103-.575.308-.78.219-.219.479-.329.78-.329.301 0 .561.11.78.329.219.205.329.465.329.78s-.11.582-.329.801a1.065 1.065 0 0 1-.78.328zm7.021-8.582c2.08 0 3.593.376 4.537 1.129.959.739 1.438 1.779 1.438 3.121 0 .835-.199 1.581-.596 2.238-.383.657-.965 1.177-1.745 1.561-.78.369-1.738.554-2.875.554a8.747 8.747 0 0 1-2.936-.493c-.917-.342-1.656-.794-2.217-1.355l.718-1.17c.479.492 1.109.896 1.889 1.211a6.96 6.96 0 0 0 2.526.452c1.191 0 2.108-.267 2.751-.801.657-.534.986-1.246.986-2.135 0-.986-.37-1.732-1.109-2.239-.725-.506-1.957-.759-3.696-.759h-3.059l.739-7.207h7.864v1.314h-6.57l-.493 4.579h1.848zm12.328-6.016c1.902 0 3.36.629 4.373 1.889 1.013 1.245 1.52 3.011 1.52 5.297 0 1.602-.274 2.957-.822 4.066-.547 1.108-1.314 1.95-2.299 2.525-.986.561-2.136.842-3.45.842-1.423 0-2.56-.26-3.408-.78l.595-1.191c.685.451 1.615.677 2.793.677 1.587 0 2.833-.499 3.737-1.499.903-1.012 1.355-2.477 1.355-4.394 0-.355-.021-.746-.062-1.17-.356.78-.924 1.389-1.704 1.827-.78.425-1.677.637-2.69.637-.944 0-1.786-.178-2.525-.534a4.128 4.128 0 0 1-1.705-1.499c-.41-.657-.616-1.416-.616-2.279 0-.876.213-1.649.637-2.32a4.144 4.144 0 0 1 1.745-1.54c.753-.37 1.595-.554 2.526-.554zm.164 7.474c.725 0 1.362-.137 1.91-.411.561-.274.999-.65 1.314-1.129.314-.48.472-1.013.472-1.602a2.74 2.74 0 0 0-.452-1.519c-.287-.466-.718-.842-1.293-1.13-.575-.287-1.26-.431-2.054-.431-1.04 0-1.889.288-2.546.862-.643.562-.965 1.315-.965 2.259 0 .945.322 1.697.965 2.259.657.561 1.54.842 2.649.842zM162.699 146.488c1.903 0 3.361.63 4.374 1.889 1.013 1.246 1.519 3.012 1.519 5.298 0 1.601-.274 2.956-.821 4.065-.548 1.109-1.314 1.951-2.3 2.526-.986.561-2.135.842-3.449.842-1.424 0-2.56-.261-3.409-.781l.596-1.191c.684.452 1.615.678 2.792.678 1.588 0 2.834-.5 3.737-1.499.903-1.013 1.355-2.478 1.355-4.394 0-.356-.02-.746-.061-1.17-.356.78-.924 1.389-1.705 1.827-.78.424-1.677.637-2.689.637-.945 0-1.787-.178-2.526-.534a4.132 4.132 0 0 1-1.704-1.499c-.411-.657-.616-1.417-.616-2.279 0-.876.212-1.65.636-2.32a4.147 4.147 0 0 1 1.746-1.54c.752-.37 1.594-.555 2.525-.555zm.164 7.474c.726 0 1.362-.137 1.91-.41a3.228 3.228 0 0 0 1.314-1.13 2.851 2.851 0 0 0 .472-1.601c0-.548-.15-1.054-.451-1.52-.288-.465-.719-.842-1.294-1.129-.575-.288-1.259-.431-2.053-.431-1.041 0-1.889.287-2.546.862-.644.561-.965 1.314-.965 2.259 0 .944.321 1.697.965 2.258.657.562 1.54.842 2.648.842zm13.601 7.146c-1.109 0-2.101-.295-2.977-.883-.863-.589-1.54-1.431-2.033-2.526-.479-1.109-.719-2.409-.719-3.901s.24-2.786.719-3.881c.493-1.109 1.17-1.957 2.033-2.546.876-.588 1.868-.883 2.977-.883 1.109 0 2.094.295 2.957.883.876.589 1.56 1.437 2.053 2.546.493 1.095.739 2.389.739 3.881s-.246 2.792-.739 3.901c-.493 1.095-1.177 1.937-2.053 2.526-.863.588-1.848.883-2.957.883zm0-1.356c.835 0 1.567-.232 2.197-.698.643-.465 1.143-1.143 1.499-2.032.356-.89.534-1.965.534-3.224 0-1.259-.178-2.334-.534-3.224-.356-.89-.856-1.567-1.499-2.033-.63-.465-1.362-.698-2.197-.698s-1.574.233-2.218.698c-.629.466-1.122 1.143-1.478 2.033-.356.89-.534 1.965-.534 3.224 0 1.259.178 2.334.534 3.224.356.889.849 1.567 1.478 2.032.644.466 1.383.698 2.218.698zm8.754 1.335c-.301 0-.561-.109-.78-.328a1.131 1.131 0 0 1-.308-.801c0-.315.103-.575.308-.781.219-.219.479-.328.78-.328.301 0 .562.109.781.328.219.206.328.466.328.781s-.109.581-.328.801c-.219.219-.48.328-.781.328zm8.977-8.706c.944 0 1.779.178 2.505.534.739.356 1.314.862 1.724 1.519.411.644.616 1.397.616 2.259 0 .876-.212 1.649-.636 2.32-.424.671-1.013 1.191-1.766 1.561-.739.356-1.574.534-2.505.534-1.903 0-3.36-.623-4.373-1.869-1.013-1.259-1.52-3.032-1.52-5.318 0-1.601.274-2.957.821-4.065.548-1.109 1.315-1.944 2.3-2.505.986-.575 2.136-.863 3.45-.863 1.423 0 2.559.26 3.408.78l-.595 1.191c-.685-.451-1.616-.677-2.793-.677-1.588 0-2.833.506-3.737 1.519-.903.999-1.355 2.457-1.355 4.374 0 .342.021.732.062 1.17.356-.78.924-1.382 1.704-1.807.78-.438 1.677-.657 2.69-.657zm-.124 7.474c1.041 0 1.883-.281 2.526-.842.657-.575.986-1.334.986-2.279 0-.944-.329-1.697-.986-2.259-.643-.561-1.519-.841-2.628-.841-.726 0-1.369.137-1.93.41-.548.274-.979.65-1.294 1.13a2.851 2.851 0 0 0-.472 1.601c0 .548.144 1.054.431 1.52.301.465.739.841 1.314 1.129.575.287 1.26.431 2.053.431zm10.665-13.244v14.373h-1.479v-13.058h-3.388v-1.315h4.867zM143.009 75h-2.126v101.095h2.126V75z" fill="#20201F"/><path d="M101.348 266.701h-5.667v8.418h-3.183v-11.047h8.85v2.629zm6.41 8.582c-1.163 0-2.211-.239-3.141-.718a5.513 5.513 0 0 1-2.156-2.033c-.52-.862-.781-1.841-.781-2.936s.261-2.074.781-2.936a5.368 5.368 0 0 1 2.156-2.013c.93-.492 1.978-.739 3.141-.739 1.164 0 2.204.247 3.121.739a5.368 5.368 0 0 1 2.156 2.013c.52.862.78 1.841.78 2.936s-.26 2.074-.78 2.936a5.513 5.513 0 0 1-2.156 2.033c-.917.479-1.957.718-3.121.718zm0-2.628c.821 0 1.492-.274 2.012-.821.534-.561.801-1.307.801-2.238s-.267-1.67-.801-2.218c-.52-.561-1.191-.842-2.012-.842s-1.499.281-2.033.842c-.533.548-.8 1.287-.8 2.218s.267 1.677.8 2.238c.534.547 1.212.821 2.033.821zm13.517 2.628c-1.177 0-2.238-.239-3.183-.718a5.627 5.627 0 0 1-2.197-2.033c-.52-.862-.78-1.841-.78-2.936s.26-2.074.78-2.936a5.478 5.478 0 0 1 2.197-2.013c.945-.492 2.006-.739 3.183-.739 1.163 0 2.176.247 3.039.739a4.265 4.265 0 0 1 1.909 2.074l-2.484 1.335c-.575-1.013-1.403-1.52-2.485-1.52-.835 0-1.526.274-2.073.822-.548.547-.822 1.293-.822 2.238 0 .944.274 1.69.822 2.238.547.547 1.238.821 2.073.821 1.095 0 1.924-.506 2.485-1.519l2.484 1.355c-.397.876-1.033 1.56-1.909 2.053-.863.493-1.876.739-3.039.739zm16.135-8.582h-3.737v8.418h-3.182v-8.418h-3.737v-2.629h10.656v2.629zm1.708-2.629h3.182v6.571l5.38-6.571h2.936v11.047h-3.182v-6.57l-5.359 6.57h-2.957v-11.047zm14.577 0h3.183v4.312h4.805v-4.312h3.203v11.047h-3.203v-4.127h-4.805v4.127h-3.183v-11.047zm18.548-.164c1.711 0 3.026.411 3.943 1.232.917.808 1.375 2.033 1.375 3.676v6.303h-2.997v-1.376c-.603 1.027-1.725 1.54-3.368 1.54-.849 0-1.588-.143-2.217-.431-.616-.287-1.089-.684-1.417-1.191a3.093 3.093 0 0 1-.493-1.724c0-1.027.383-1.835 1.15-2.423.78-.589 1.978-.883 3.593-.883h2.546c0-.698-.212-1.232-.636-1.602-.425-.383-1.061-.575-1.91-.575-.588 0-1.17.096-1.745.288a4.452 4.452 0 0 0-1.437.739l-1.15-2.238c.602-.424 1.321-.753 2.156-.986a9.841 9.841 0 0 1 2.607-.349zm-.246 9.219c.548 0 1.033-.123 1.458-.369a2.13 2.13 0 0 0 .903-1.129v-1.13h-2.197c-1.314 0-1.971.431-1.971 1.294 0 .41.157.739.472.985.329.233.774.349 1.335.349zm18.162-9.055v11.047h-2.855v-3.162h-2.361l-2.094 3.162h-3.409l2.526-3.614c-.767-.301-1.355-.732-1.766-1.293-.397-.575-.595-1.266-.595-2.074 0-1.3.465-2.3 1.396-2.998.944-.712 2.238-1.068 3.881-1.068h5.277zm-5.216 2.608c-.684 0-1.204.123-1.56.37-.342.246-.514.643-.514 1.191 0 .547.165.951.493 1.211.342.246.856.37 1.54.37h2.402v-3.142h-2.361zM126.211 301.695v2.71h-10.862v-2.156l5.544-5.236c.588-.561.985-1.04 1.191-1.437.205-.41.308-.814.308-1.211 0-.575-.199-1.013-.596-1.314-.383-.315-.951-.473-1.704-.473-.63 0-1.198.124-1.704.37a3.18 3.18 0 0 0-1.273 1.068l-2.423-1.561c.561-.835 1.335-1.485 2.32-1.95.986-.48 2.115-.719 3.388-.719 1.068 0 1.999.178 2.792.534.808.342 1.431.835 1.869 1.478.452.63.678 1.376.678 2.238 0 .78-.165 1.513-.493 2.197-.329.685-.965 1.465-1.91 2.341l-3.306 3.121h6.181zm6.916-11.663v14.373h-3.326v-11.703h-2.875v-2.67h6.201zm4.386 14.538a1.928 1.928 0 0 1-1.417-.575c-.383-.384-.575-.863-.575-1.438 0-.588.192-1.061.575-1.416.384-.37.856-.555 1.417-.555s1.033.185 1.417.555c.383.355.575.828.575 1.416 0 .575-.192 1.054-.575 1.438a1.928 1.928 0 0 1-1.417.575zm9.384.082c-1.191 0-2.252-.295-3.183-.883-.93-.589-1.663-1.438-2.197-2.546-.52-1.123-.78-2.457-.78-4.004 0-1.547.26-2.875.78-3.984.534-1.122 1.267-1.978 2.197-2.566.931-.589 1.992-.883 3.183-.883 1.191 0 2.252.294 3.183.883.93.588 1.656 1.444 2.176 2.566.534 1.109.801 2.437.801 3.984 0 1.547-.267 2.881-.801 4.004-.52 1.108-1.246 1.957-2.176 2.546-.931.588-1.992.883-3.183.883zm0-2.813c.876 0 1.56-.377 2.053-1.13.507-.753.76-1.916.76-3.49 0-1.574-.253-2.738-.76-3.491-.493-.753-1.177-1.129-2.053-1.129-.862 0-1.547.376-2.053 1.129-.493.753-.739 1.917-.739 3.491s.246 2.737.739 3.49c.506.753 1.191 1.13 2.053 1.13zm13.936 2.813c-1.191 0-2.252-.295-3.183-.883-.931-.589-1.663-1.438-2.197-2.546-.52-1.123-.78-2.457-.78-4.004 0-1.547.26-2.875.78-3.984.534-1.122 1.266-1.978 2.197-2.566.931-.589 1.992-.883 3.183-.883 1.191 0 2.252.294 3.182.883.931.588 1.657 1.444 2.177 2.566.534 1.109.801 2.437.801 3.984 0 1.547-.267 2.881-.801 4.004-.52 1.108-1.246 1.957-2.177 2.546-.93.588-1.991.883-3.182.883zm0-2.813c.876 0 1.56-.377 2.053-1.13.507-.753.76-1.916.76-3.49 0-1.574-.253-2.738-.76-3.491-.493-.753-1.177-1.129-2.053-1.129-.863 0-1.547.376-2.053 1.129-.493.753-.74 1.917-.74 3.491s.247 2.737.74 3.49c.506.753 1.19 1.13 2.053 1.13zM313.057 798.184c-1.177 0-2.238-.24-3.182-.719a5.613 5.613 0 0 1-2.197-2.033c-.521-.862-.781-1.841-.781-2.936s.26-2.074.781-2.936a5.47 5.47 0 0 1 2.197-2.012c.944-.493 2.005-.739 3.182-.739 1.164 0 2.177.246 3.039.739a4.259 4.259 0 0 1 1.91 2.074l-2.485 1.334c-.575-1.013-1.403-1.519-2.484-1.519-.835 0-1.527.274-2.074.821-.548.548-.822 1.294-.822 2.238 0 .945.274 1.691.822 2.238.547.548 1.239.822 2.074.822 1.095 0 1.923-.507 2.484-1.52l2.485 1.355c-.397.876-1.034 1.561-1.91 2.054-.862.492-1.875.739-3.039.739zm17.88-11.211v11.047h-3.203v-8.419h-4.599v8.419h-3.183v-11.047h10.985zm7.362-.164c1.712 0 3.026.41 3.943 1.232.917.807 1.375 2.032 1.375 3.675v6.304h-2.997v-1.376c-.603 1.026-1.725 1.54-3.368 1.54-.848 0-1.588-.144-2.217-.431-.616-.288-1.089-.685-1.417-1.191a3.099 3.099 0 0 1-.493-1.725c0-1.027.383-1.834 1.15-2.423.78-.589 1.978-.883 3.593-.883h2.546c0-.698-.212-1.232-.636-1.601-.425-.384-1.061-.575-1.91-.575-.588 0-1.17.096-1.745.287a4.452 4.452 0 0 0-1.437.739l-1.15-2.238c.602-.424 1.321-.753 2.156-.985a9.8 9.8 0 0 1 2.607-.349zm-.246 9.219c.548 0 1.034-.123 1.458-.37.424-.26.725-.636.903-1.129V793.4h-2.197c-1.314 0-1.971.431-1.971 1.293 0 .411.158.739.472.986.329.232.774.349 1.335.349zm18.942-9.055v11.047h-3.203v-8.419h-3.491l-.102 1.951c-.055 1.451-.192 2.655-.411 3.613-.219.959-.575 1.712-1.068 2.259-.493.548-1.177.821-2.053.821-.466 0-1.02-.082-1.663-.246l.164-2.628c.219.027.376.041.472.041.479 0 .835-.171 1.068-.513.246-.356.411-.801.493-1.335.082-.548.143-1.266.185-2.156l.164-4.435h9.445zm9.055 3.532c1.437.013 2.539.342 3.306.985.767.63 1.15 1.526 1.15 2.69 0 1.218-.431 2.17-1.294 2.854-.848.671-2.046 1.006-3.593 1.006l-5.544-.02v-11.047h3.183v3.532h2.792zm-.718 5.256c.616.014 1.088-.116 1.416-.39.329-.274.493-.685.493-1.232 0-.534-.164-.924-.493-1.171-.315-.246-.787-.376-1.416-.39l-2.074-.02v3.203h2.074zm7.175-8.788h3.183v4.312h4.804v-4.312h3.203v11.047h-3.203v-4.128h-4.804v4.128h-3.183v-11.047zm24.071 0v11.047h-2.854v-3.163h-2.361l-2.094 3.163h-3.409l2.526-3.614c-.767-.301-1.355-.733-1.766-1.294-.397-.575-.595-1.266-.595-2.074 0-1.3.465-2.299 1.396-2.997.944-.712 2.238-1.068 3.881-1.068h5.276zm-5.215 2.608c-.684 0-1.204.123-1.56.369-.343.247-.514.644-.514 1.191 0 .548.165.951.493 1.211.342.247.856.37 1.54.37h2.402v-3.141h-2.361zM332.778 812.932v14.373h-3.326v-11.704h-2.875v-2.669h6.201zm9.211 5.852c1.26.205 2.225.678 2.895 1.417.671.725 1.007 1.629 1.007 2.71 0 .835-.22 1.609-.658 2.32-.438.698-1.108 1.26-2.012 1.684-.89.424-1.985.637-3.285.637-1.013 0-2.012-.13-2.998-.391-.972-.273-1.8-.657-2.484-1.149l1.293-2.546c.548.41 1.178.732 1.889.965a7.638 7.638 0 0 0 2.218.328c.835 0 1.492-.157 1.971-.472.479-.329.719-.787.719-1.376 0-1.177-.897-1.766-2.69-1.766h-1.52v-2.197l2.957-3.347h-6.119v-2.669h10.061v2.156l-3.244 3.696zm7.326 8.685a1.924 1.924 0 0 1-1.416-.574c-.384-.384-.575-.863-.575-1.438 0-.588.191-1.061.575-1.417.383-.369.855-.554 1.416-.554.562 0 1.034.185 1.417.554.383.356.575.829.575 1.417 0 .575-.192 1.054-.575 1.438a1.924 1.924 0 0 1-1.417.574zm14.416-14.537v2.156l-5.338 12.217h-3.614l5.154-11.662h-4.764v2.34h-2.957v-5.051h11.519zm7.24 14.62c-1.191 0-2.252-.295-3.183-.883-.931-.589-1.663-1.438-2.197-2.546-.52-1.123-.78-2.458-.78-4.004 0-1.547.26-2.875.78-3.984.534-1.122 1.266-1.978 2.197-2.566.931-.589 1.992-.883 3.183-.883 1.191 0 2.252.294 3.182.883.931.588 1.657 1.444 2.177 2.566.534 1.109.801 2.437.801 3.984 0 1.546-.267 2.881-.801 4.004-.52 1.108-1.246 1.957-2.177 2.546-.93.588-1.991.883-3.182.883zm0-2.813c.876 0 1.56-.377 2.053-1.13.507-.753.76-1.916.76-3.49 0-1.574-.253-2.738-.76-3.491-.493-.753-1.177-1.129-2.053-1.129-.863 0-1.547.376-2.053 1.129-.493.753-.74 1.917-.74 3.491s.247 2.737.74 3.49c.506.753 1.19 1.13 2.053 1.13z" fill="#000"/><path d="M108.757 768.484c-1.177 0-2.238-.24-3.183-.719a5.62 5.62 0 0 1-2.197-2.033c-.52-.862-.78-1.841-.78-2.936s.26-2.074.78-2.936a5.469 5.469 0 0 1 2.197-2.012c.945-.493 2.006-.74 3.183-.74 1.163 0 2.176.247 3.039.74a4.259 4.259 0 0 1 1.909 2.073l-2.484 1.335c-.575-1.013-1.403-1.519-2.485-1.519-.835 0-1.526.273-2.074.821-.547.547-.821 1.294-.821 2.238 0 .945.274 1.691.821 2.238.548.548 1.239.821 2.074.821 1.095 0 1.924-.506 2.485-1.519l2.484 1.355c-.397.876-1.033 1.561-1.909 2.053-.863.493-1.876.74-3.039.74zm17.88-11.211v11.046h-3.203v-8.418h-4.6v8.418h-3.182v-11.046h10.985zm7.362-.165c1.711 0 3.025.411 3.942 1.232.918.808 1.376 2.033 1.376 3.676v6.303h-2.998v-1.375c-.602 1.026-1.724 1.54-3.367 1.54-.849 0-1.588-.144-2.218-.432-.616-.287-1.088-.684-1.416-1.19a3.099 3.099 0 0 1-.493-1.725c0-1.027.383-1.835 1.15-2.423.78-.589 1.978-.883 3.593-.883h2.546c0-.698-.212-1.232-.636-1.602-.425-.383-1.061-.575-1.91-.575-.589 0-1.17.096-1.745.288a4.447 4.447 0 0 0-1.438.739l-1.149-2.238c.602-.424 1.32-.753 2.155-.986a9.848 9.848 0 0 1 2.608-.349zm-.246 9.22c.547 0 1.033-.124 1.458-.37.424-.26.725-.636.903-1.129v-1.13h-2.197c-1.314 0-1.971.432-1.971 1.294 0 .411.157.739.472.986.329.232.774.349 1.335.349zm18.942-9.055v11.046h-3.204v-8.418h-3.49l-.103 1.951c-.055 1.45-.191 2.655-.41 3.613-.219.958-.575 1.711-1.068 2.259-.493.547-1.177.821-2.053.821-.466 0-1.02-.082-1.664-.246l.165-2.628c.219.027.376.041.472.041.479 0 .835-.171 1.068-.514.246-.356.41-.8.492-1.334.083-.548.144-1.266.185-2.156l.165-4.435h9.445zm9.055 3.531c1.437.014 2.539.343 3.306.986.766.63 1.149 1.526 1.149 2.69 0 1.218-.431 2.169-1.293 2.854-.849.67-2.047 1.006-3.593 1.006l-5.544-.021v-11.046h3.182v3.531h2.793zm-.719 5.257c.616.013 1.088-.117 1.417-.39.329-.274.493-.685.493-1.232 0-.534-.164-.924-.493-1.171-.315-.246-.787-.376-1.417-.39l-2.074-.02v3.203h2.074zm7.176-8.788h3.182v4.312h4.805v-4.312h3.203v11.046h-3.203v-4.127h-4.805v4.127h-3.182v-11.046zm24.071 0v11.046h-2.854v-3.162h-2.361l-2.095 3.162h-3.408l2.526-3.613c-.767-.302-1.356-.733-1.766-1.294-.397-.575-.596-1.266-.596-2.074 0-1.3.466-2.299 1.397-2.998.944-.711 2.238-1.067 3.88-1.067h5.277zm-5.215 2.607c-.685 0-1.205.124-1.561.37-.342.246-.513.643-.513 1.191 0 .547.164.951.493 1.211.342.247.855.37 1.54.37h2.402v-3.142h-2.361zM133.334 794.895v2.71h-10.862v-2.155l5.544-5.236c.588-.562.985-1.041 1.191-1.438.205-.41.308-.814.308-1.211 0-.575-.199-1.013-.596-1.314-.383-.315-.951-.472-1.704-.472-.63 0-1.198.123-1.704.369a3.18 3.18 0 0 0-1.273 1.068l-2.423-1.561c.561-.835 1.335-1.485 2.32-1.95.986-.479 2.115-.719 3.388-.719 1.068 0 1.999.178 2.793.534.807.342 1.43.835 1.868 1.478.452.63.678 1.376.678 2.238 0 .781-.165 1.513-.493 2.197-.329.685-.965 1.465-1.91 2.341l-3.306 3.121h6.181zm7.492 2.957c-1.191 0-2.252-.294-3.182-.883-.931-.589-1.664-1.437-2.197-2.546-.521-1.123-.781-2.457-.781-4.004 0-1.547.26-2.875.781-3.983.533-1.123 1.266-1.978 2.197-2.567.93-.589 1.991-.883 3.182-.883 1.191 0 2.252.294 3.183.883.93.589 1.656 1.444 2.176 2.567.534 1.108.801 2.436.801 3.983 0 1.547-.267 2.881-.801 4.004-.52 1.109-1.246 1.957-2.176 2.546-.931.589-1.992.883-3.183.883zm0-2.813c.876 0 1.561-.377 2.053-1.129.507-.753.76-1.917.76-3.491s-.253-2.738-.76-3.491c-.492-.752-1.177-1.129-2.053-1.129-.862 0-1.547.377-2.053 1.129-.493.753-.739 1.917-.739 3.491s.246 2.738.739 3.491c.506.752 1.191 1.129 2.053 1.129zm9.404 2.731a1.925 1.925 0 0 1-1.416-.575c-.384-.383-.575-.863-.575-1.437 0-.589.191-1.061.575-1.417.383-.37.855-.555 1.416-.555.562 0 1.034.185 1.417.555.383.356.575.828.575 1.417 0 .574-.192 1.054-.575 1.437a1.925 1.925 0 0 1-1.417.575zm8.708-14.537v14.372h-3.326v-11.703h-2.875v-2.669h6.201zm7.548-.247c2.012 0 3.587.616 4.723 1.848 1.136 1.218 1.704 2.977 1.704 5.277 0 1.629-.308 3.025-.924 4.189-.602 1.163-1.458 2.046-2.567 2.648-1.108.603-2.388.904-3.839.904a9.52 9.52 0 0 1-2.197-.247c-.698-.177-1.294-.424-1.787-.739l1.232-2.443c.698.479 1.595.719 2.69.719 1.218 0 2.183-.356 2.895-1.068.712-.726 1.095-1.766 1.15-3.121-.862.862-2.053 1.293-3.573 1.293-.917 0-1.752-.184-2.505-.554a4.414 4.414 0 0 1-1.786-1.56c-.438-.685-.657-1.472-.657-2.362 0-.958.24-1.8.719-2.525a4.624 4.624 0 0 1 1.95-1.663c.835-.397 1.759-.596 2.772-.596zm.247 6.776c.725 0 1.314-.199 1.765-.596.466-.41.698-.93.698-1.56s-.225-1.143-.677-1.54c-.438-.397-1.047-.595-1.828-.595-.711 0-1.293.191-1.745.575-.438.383-.657.903-.657 1.56s.219 1.184.657 1.581c.452.383 1.047.575 1.787.575z" fill="#20201F"/><path d="M318.118 259.148h-1.663v4.189h-3.203V252.29h3.203v4.292h1.725l2.998-4.292h3.408l-3.86 5.298 4.127 5.749h-3.778l-2.957-4.189zm18.753-6.858-4.989 11.724c-.507 1.274-1.136 2.17-1.889 2.69-.739.52-1.636.781-2.69.781a5.603 5.603 0 0 1-1.704-.267c-.561-.178-1.02-.425-1.376-.74l1.17-2.279a2.746 2.746 0 0 0 1.807.698c.438 0 .794-.109 1.068-.328.274-.205.52-.555.739-1.047l.041-.103-4.784-11.129h3.306l3.1 7.495 3.121-7.495h3.08zm7.864 11.047-2.423-3.388-2.505 3.388h-3.49l4.25-5.564-4.107-5.483h3.594l2.34 3.224 2.403-3.224h3.408l-4.106 5.4 4.27 5.647h-3.634zm5.211-11.047h3.183v4.312h4.804v-4.312h3.204v11.047h-3.204v-4.127h-4.804v4.127h-3.183V252.29zm24.072 0v11.047h-2.854v-3.162h-2.362l-2.094 3.162h-3.409l2.526-3.614c-.767-.301-1.355-.732-1.766-1.293-.397-.575-.595-1.267-.595-2.074 0-1.301.465-2.3 1.396-2.998.944-.712 2.238-1.068 3.881-1.068h5.277zm-5.216 2.608c-.684 0-1.204.123-1.56.37-.342.246-.514.643-.514 1.19 0 .548.165.952.493 1.212.342.246.856.369 1.54.369h2.403v-3.141h-2.362zM324.247 278.25v14.373h-3.326v-11.704h-2.875v-2.669h6.201zm9.211 5.852c1.259.205 2.224.678 2.895 1.417.671.725 1.006 1.629 1.006 2.71 0 .835-.219 1.608-.657 2.32-.438.698-1.109 1.26-2.012 1.684-.89.424-1.985.636-3.285.636-1.013 0-2.012-.13-2.998-.39-.972-.273-1.8-.657-2.485-1.15l1.294-2.546a6.45 6.45 0 0 0 1.889.965 7.639 7.639 0 0 0 2.218.329c.835 0 1.492-.157 1.971-.472.479-.329.718-.787.718-1.376 0-1.177-.896-1.766-2.689-1.766h-1.52v-2.197l2.957-3.347h-6.119v-2.669h10.061v2.156l-3.244 3.696zm7.326 8.685a1.925 1.925 0 0 1-1.417-.575c-.383-.383-.575-.862-.575-1.437 0-.589.192-1.061.575-1.417.384-.369.856-.554 1.417-.554s1.034.185 1.417.554c.383.356.575.828.575 1.417 0 .575-.192 1.054-.575 1.437a1.923 1.923 0 0 1-1.417.575zm9.384.082c-1.191 0-2.252-.294-3.183-.882-.93-.589-1.663-1.438-2.197-2.547-.52-1.122-.78-2.457-.78-4.003 0-1.547.26-2.875.78-3.984.534-1.122 1.267-1.978 2.197-2.566.931-.589 1.992-.883 3.183-.883 1.191 0 2.252.294 3.183.883.93.588 1.656 1.444 2.176 2.566.534 1.109.801 2.437.801 3.984 0 1.546-.267 2.881-.801 4.003-.52 1.109-1.246 1.958-2.176 2.547-.931.588-1.992.882-3.183.882zm0-2.813c.876 0 1.561-.376 2.053-1.129.507-.753.76-1.916.76-3.49 0-1.575-.253-2.738-.76-3.491-.492-.753-1.177-1.129-2.053-1.129-.862 0-1.547.376-2.053 1.129-.493.753-.739 1.916-.739 3.491 0 1.574.246 2.737.739 3.49.506.753 1.191 1.129 2.053 1.129zm12.704-6.406c2.026 0 3.518.404 4.476 1.212.972.807 1.458 1.889 1.458 3.244 0 .876-.219 1.677-.657 2.402-.438.712-1.109 1.287-2.012 1.725-.89.424-1.992.636-3.306.636-1.013 0-2.012-.13-2.998-.39-.972-.273-1.8-.657-2.484-1.15l1.314-2.546a6.437 6.437 0 0 0 1.889.965 7.43 7.43 0 0 0 2.197.329c.835 0 1.492-.164 1.971-.493.479-.328.719-.787.719-1.376 0-.615-.254-1.081-.76-1.396-.493-.315-1.355-.472-2.587-.472h-3.676l.739-8.09h8.768v2.669h-5.996l-.225 2.731h1.17zM101.201 468.152l-3.006-3.96-3.024 3.96h-1.44l3.744-4.86-3.564-4.608h1.44l2.844 3.708 2.844-3.708h1.404l-3.564 4.608 3.78 4.86h-1.458zm7.125.09c-.912 0-1.734-.204-2.466-.612a4.594 4.594 0 0 1-1.728-1.728c-.42-.732-.63-1.56-.63-2.484 0-.924.21-1.752.63-2.484a4.465 4.465 0 0 1 1.728-1.71c.732-.408 1.554-.612 2.466-.612.912 0 1.734.204 2.466.612a4.34 4.34 0 0 1 1.71 1.71c.42.732.63 1.56.63 2.484 0 .924-.21 1.752-.63 2.484a4.465 4.465 0 0 1-1.71 1.728c-.732.408-1.554.612-2.466.612zm0-1.134c.672 0 1.272-.15 1.8-.45.54-.312.96-.75 1.26-1.314.3-.564.45-1.206.45-1.926s-.15-1.362-.45-1.926c-.3-.564-.72-.996-1.26-1.296-.528-.312-1.128-.468-1.8-.468-.672 0-1.278.156-1.818.468-.528.3-.948.732-1.26 1.296-.3.564-.45 1.206-.45 1.926s.15 1.362.45 1.926a3.406 3.406 0 0 0 1.26 1.314c.54.3 1.146.45 1.818.45zm15.225-8.424v9.468h-1.278v-8.334h-4.536l-.126 2.34c-.096 1.968-.324 3.48-.684 4.536-.36 1.056-1.002 1.584-1.926 1.584-.252 0-.558-.048-.918-.144l.09-1.098c.216.048.366.072.45.072.492 0 .864-.228 1.116-.684.252-.456.42-1.02.504-1.692.084-.672.156-1.56.216-2.664l.162-3.384h6.93zm11.373 0v9.468h-1.278v-8.334h-4.536l-.126 2.34c-.096 1.968-.324 3.48-.684 4.536-.36 1.056-1.002 1.584-1.926 1.584-.252 0-.558-.048-.918-.144l.09-1.098c.216.048.366.072.45.072.492 0 .864-.228 1.116-.684.252-.456.42-1.02.504-1.692.084-.672.156-1.56.216-2.664l.162-3.384h6.93zM98.87 484.838v12.6h-1.295V485.99h-2.97v-1.152h4.266zm7.297 5.4c1.32.072 2.322.432 3.006 1.08.696.636 1.044 1.47 1.044 2.502 0 .72-.174 1.362-.522 1.926-.348.552-.864.99-1.548 1.314-.684.324-1.518.486-2.502.486a7.73 7.73 0 0 1-2.592-.432c-.804-.3-1.452-.696-1.944-1.188l.63-1.026c.42.432.978.786 1.674 1.062a6.24 6.24 0 0 0 2.232.396c1.032 0 1.83-.222 2.394-.666.564-.456.846-1.08.846-1.872 0-.78-.282-1.392-.846-1.836-.564-.444-1.416-.666-2.556-.666h-.9v-.954l3.492-4.374h-6.444v-1.152h8.1v.918l-3.564 4.482zm6.848 7.29a.934.934 0 0 1-.684-.288.989.989 0 0 1-.27-.702c0-.276.09-.504.27-.684a.934.934 0 0 1 .684-.288c.264 0 .492.096.684.288.192.18.288.408.288.684 0 .276-.096.51-.288.702a.934.934 0 0 1-.684.288zm7.869-7.632c.828 0 1.56.156 2.196.468a3.556 3.556 0 0 1 1.512 1.332c.36.564.54 1.224.54 1.98 0 .768-.186 1.446-.558 2.034a3.733 3.733 0 0 1-1.548 1.368c-.648.312-1.38.468-2.196.468-1.668 0-2.946-.546-3.834-1.638-.888-1.104-1.332-2.658-1.332-4.662 0-1.404.24-2.592.72-3.564s1.152-1.704 2.016-2.196c.864-.504 1.872-.756 3.024-.756 1.248 0 2.244.228 2.988.684l-.522 1.044c-.6-.396-1.416-.594-2.448-.594-1.392 0-2.484.444-3.276 1.332-.792.876-1.188 2.154-1.188 3.834 0 .3.018.642.054 1.026a3.351 3.351 0 0 1 1.494-1.584c.684-.384 1.47-.576 2.358-.576zm-.108 6.552c.912 0 1.65-.246 2.214-.738.576-.504.864-1.17.864-1.998 0-.828-.288-1.488-.864-1.98-.564-.492-1.332-.738-2.304-.738-.636 0-1.2.12-1.692.36-.48.24-.858.57-1.134.99-.276.42-.414.888-.414 1.404 0 .48.126.924.378 1.332.264.408.648.738 1.152.99.504.252 1.104.378 1.8.378zm14.461-.162v1.152h-8.838v-.918l5.238-5.13c.66-.648 1.104-1.206 1.332-1.674.24-.48.36-.96.36-1.44 0-.744-.258-1.32-.774-1.728-.504-.42-1.23-.63-2.178-.63-1.476 0-2.622.468-3.438 1.404l-.918-.792a4.846 4.846 0 0 1 1.872-1.332c.768-.312 1.632-.468 2.592-.468 1.284 0 2.298.306 3.042.918.756.6 1.134 1.428 1.134 2.484 0 .648-.144 1.272-.432 1.872-.288.6-.834 1.29-1.638 2.07l-4.284 4.212h6.93z" fill="#000"/><path d="M334.558 107.823v9.468h-1.278v-8.334h-4.536l-.126 2.34c-.096 1.968-.324 3.48-.684 4.536-.36 1.056-1.002 1.584-1.926 1.584-.252 0-.558-.048-.918-.144l.09-1.098c.216.048.366.072.45.072.492 0 .864-.228 1.116-.684.252-.456.42-1.02.504-1.692.084-.672.156-1.56.216-2.664l.162-3.384h6.93zm7.539 9.558c-.912 0-1.734-.204-2.466-.612a4.594 4.594 0 0 1-1.728-1.728c-.42-.732-.63-1.56-.63-2.484 0-.924.21-1.752.63-2.484a4.465 4.465 0 0 1 1.728-1.71c.732-.408 1.554-.612 2.466-.612.912 0 1.734.204 2.466.612a4.34 4.34 0 0 1 1.71 1.71c.42.732.63 1.56.63 2.484 0 .924-.21 1.752-.63 2.484a4.465 4.465 0 0 1-1.71 1.728c-.732.408-1.554.612-2.466.612zm0-1.134c.672 0 1.272-.15 1.8-.45.54-.312.96-.75 1.26-1.314.3-.564.45-1.206.45-1.926s-.15-1.362-.45-1.926c-.3-.564-.72-.996-1.26-1.296-.528-.312-1.128-.468-1.8-.468-.672 0-1.278.156-1.818.468-.528.3-.948.732-1.26 1.296-.3.564-.45 1.206-.45 1.926s.15 1.362.45 1.926a3.406 3.406 0 0 0 1.26 1.314c.54.3 1.146.45 1.818.45zm16.719-.072v3.402h-1.206v-2.286h-8.478v2.286h-1.206v-3.402h.54c.636-.036 1.068-.504 1.296-1.404.228-.9.384-2.16.468-3.78l.126-3.168h6.984v8.352h1.476zm-7.416-5.112c-.06 1.344-.174 2.454-.342 3.33-.168.864-.468 1.458-.9 1.782h5.904v-7.218h-4.554l-.108 2.106zm18.205 2.016h-2.052v4.212h-1.278v-4.212h-2.052l-2.898 4.212h-1.53l3.402-4.878-3.132-4.59h1.386l2.772 4.158h2.052v-4.158h1.278v4.158h2.052l2.79-4.158h1.386l-3.132 4.608 3.402 4.86h-1.53l-2.916-4.212zm6.573-5.256h1.278v7.524l6.318-7.524h1.134v9.468h-1.278v-7.524l-6.3 7.524h-1.152v-9.468zm19.665 0v9.468h-1.17v-3.132h-3.33l-2.196 3.132h-1.386l2.358-3.312c-.732-.204-1.296-.552-1.692-1.044-.396-.492-.594-1.116-.594-1.872 0-1.056.36-1.86 1.08-2.412.72-.552 1.704-.828 2.952-.828h3.978zm-6.714 3.276c0 1.404.894 2.106 2.682 2.106h2.862v-4.248h-2.772c-1.848 0-2.772.714-2.772 2.142zM353.646 143.265h-2.52v3.312h-1.296v-3.312h-7.11v-.936l6.678-8.352h1.44l-6.444 8.136h5.472v-2.916h1.26v2.916h2.52v1.152zm2.514 3.402a.934.934 0 0 1-.684-.288.989.989 0 0 1-.27-.702c0-.276.09-.504.27-.684a.934.934 0 0 1 .684-.288c.264 0 .492.096.684.288.192.18.288.408.288.684 0 .276-.096.51-.288.702a.934.934 0 0 1-.684.288zm7.671.018c-.972 0-1.842-.258-2.61-.774-.756-.516-1.35-1.254-1.782-2.214-.42-.972-.63-2.112-.63-3.42 0-1.308.21-2.442.63-3.402.432-.972 1.026-1.716 1.782-2.232.768-.516 1.638-.774 2.61-.774s1.836.258 2.592.774c.768.516 1.368 1.26 1.8 2.232.432.96.648 2.094.648 3.402 0 1.308-.216 2.448-.648 3.42-.432.96-1.032 1.698-1.8 2.214-.756.516-1.62.774-2.592.774zm0-1.188c.732 0 1.374-.204 1.926-.612.564-.408 1.002-1.002 1.314-1.782.312-.78.468-1.722.468-2.826s-.156-2.046-.468-2.826c-.312-.78-.75-1.374-1.314-1.782-.552-.408-1.194-.612-1.926-.612s-1.38.204-1.944.612c-.552.408-.984 1.002-1.296 1.782-.312.78-.468 1.722-.468 2.826s.156 2.046.468 2.826c.312.78.744 1.374 1.296 1.782a3.231 3.231 0 0 0 1.944.612zm10.209-6.354c1.824 0 3.15.33 3.978.99.84.648 1.26 1.56 1.26 2.736 0 .732-.174 1.386-.522 1.962-.336.576-.846 1.032-1.53 1.368-.684.324-1.524.486-2.52.486-.9 0-1.758-.144-2.574-.432-.804-.3-1.453-.696-1.945-1.188l.63-1.026c.421.432.973.786 1.657 1.062a6.096 6.096 0 0 0 2.214.396c1.044 0 1.848-.234 2.412-.702.576-.468.864-1.092.864-1.872 0-.864-.324-1.518-.972-1.962-.636-.444-1.716-.666-3.24-.666h-2.682l.648-6.318h6.894v1.152h-5.76l-.432 4.014h1.62z" fill="#20201F"/><path d="M355.496 617.889h-2.52v3.312h-1.296v-3.312h-7.11v-.936l6.678-8.352h1.44l-6.444 8.136h5.472v-2.916h1.26v2.916h2.52v1.152zm2.514 3.402a.934.934 0 0 1-.684-.288.989.989 0 0 1-.27-.702c0-.276.09-.504.27-.684a.934.934 0 0 1 .684-.288c.264 0 .492.096.684.288.192.18.288.408.288.684 0 .276-.096.51-.288.702a.934.934 0 0 1-.684.288zm13.324-3.402h-2.52v3.312h-1.296v-3.312h-7.11v-.936l6.678-8.352h1.44l-6.444 8.136h5.472v-2.916h1.26v2.916h2.52v1.152zm4.974-9.396c1.668 0 2.946.552 3.834 1.656.888 1.092 1.332 2.64 1.332 4.644 0 1.404-.24 2.592-.72 3.564s-1.152 1.71-2.016 2.214c-.864.492-1.872.738-3.024.738-1.248 0-2.244-.228-2.988-.684l.522-1.044c.6.396 1.416.594 2.448.594 1.392 0 2.484-.438 3.276-1.314.792-.888 1.188-2.172 1.188-3.852 0-.312-.018-.654-.054-1.026a3.445 3.445 0 0 1-1.494 1.602c-.684.372-1.47.558-2.358.558-.828 0-1.566-.156-2.214-.468a3.62 3.62 0 0 1-1.494-1.314c-.36-.576-.54-1.242-.54-1.998 0-.768.186-1.446.558-2.034a3.635 3.635 0 0 1 1.53-1.35c.66-.324 1.398-.486 2.214-.486zm.144 6.552c.636 0 1.194-.12 1.674-.36.492-.24.876-.57 1.152-.99.276-.42.414-.888.414-1.404 0-.48-.132-.924-.396-1.332-.252-.408-.63-.738-1.134-.99-.504-.252-1.104-.378-1.8-.378-.912 0-1.656.252-2.232.756-.564.492-.846 1.152-.846 1.98 0 .828.282 1.488.846 1.98.576.492 1.35.738 2.322.738zM360.399 504.225v1.152h-8.838v-.918l5.238-5.13c.66-.648 1.104-1.206 1.332-1.674.24-.48.36-.96.36-1.44 0-.744-.258-1.32-.774-1.728-.504-.42-1.23-.63-2.178-.63-1.476 0-2.622.468-3.438 1.404l-.918-.792a4.846 4.846 0 0 1 1.872-1.332c.768-.312 1.632-.468 2.592-.468 1.284 0 2.298.306 3.042.918.756.6 1.134 1.428 1.134 2.484 0 .648-.144 1.272-.432 1.872-.288.6-.834 1.29-1.638 2.07l-4.284 4.212h6.93zm2.775 1.242a.934.934 0 0 1-.684-.288.989.989 0 0 1-.27-.702c0-.276.09-.504.27-.684a.934.934 0 0 1 .684-.288c.264 0 .492.096.684.288.192.18.288.408.288.684 0 .276-.096.51-.288.702a.934.934 0 0 1-.684.288zm6.154-7.524c1.824 0 3.15.33 3.978.99.84.648 1.26 1.56 1.26 2.736 0 .732-.174 1.386-.522 1.962-.336.576-.846 1.032-1.53 1.368-.684.324-1.524.486-2.52.486-.9 0-1.758-.144-2.574-.432-.804-.3-1.452-.696-1.944-1.188l.63-1.026c.42.432.972.786 1.656 1.062a6.096 6.096 0 0 0 2.214.396c1.044 0 1.848-.234 2.412-.702.576-.468.864-1.092.864-1.872 0-.864-.324-1.518-.972-1.962-.636-.444-1.716-.666-3.24-.666h-2.682l.648-6.318h6.894v1.152h-5.76l-.432 4.014h1.62zm17.593 4.122h-2.52v3.312h-1.296v-3.312h-7.11v-.936l6.678-8.352h1.44l-6.444 8.136h5.472v-2.916h1.26v2.916h2.52v1.152z" fill="#000"/></g><defs><clipPath id="a"><path fill="#fff" transform="translate(33 5)" d="M0 0h434.773v959.388H0z"/></clipPath></defs></svg>