<svg width="950" height="550" viewBox="0 0 950 550" fill="none" xmlns="http://www.w3.org/2000/svg">
<rect width="950" height="550" fill="white"/>
<g clip-path="url(#clip0_2384_28738)">
<path fill-rule="evenodd" clip-rule="evenodd" d="M902.585 79.9471V493.171H104.894V306.322H48V70.9661V56H902.585V79.9471Z" fill="#D3001B"/>
<path d="M617.524 56H48V70.9663H617.524V56Z" fill="#CFD0D0"/>
<path fill-rule="evenodd" clip-rule="evenodd" d="M104.894 493.171H902.585V56H142.427H104.894H48V306.322H104.894V493.171Z" fill="#208832"/>
<path fill-rule="evenodd" clip-rule="evenodd" d="M902.585 79.9471H874.47V70.9669H610.338V56H902.585V79.9471Z" fill="#FFE900"/>
<path fill-rule="evenodd" clip-rule="evenodd" d="M104.894 493.171H902.585V56H142.427H104.894H48V306.322H104.894V493.171Z" fill="#F6D6B9"/>
<path fill-rule="evenodd" clip-rule="evenodd" d="M902.585 79.9471H874.47V70.9669H610.338V56H902.585V79.9471Z" fill="#E4CDA1"/>
<path d="M135.436 275.784H63.5723V290.751H135.436V275.784Z" fill="#20201F"/>
<path d="M359.412 275.784H287.546V290.751H359.412V275.784Z" fill="#20201F"/>
<path d="M682.205 275.784H610.338V290.751H682.205V275.784Z" fill="#20201F"/>
<path d="M887.015 275.784H815.156V290.751H887.015V275.784Z" fill="#20201F"/>
<path d="M887.015 478.195H872.048V493.171H887.015V478.195Z" fill="#20201F"/>
<path d="M135.437 478.195H120.465V493.171H135.437V478.195Z" fill="#20201F"/>
<path d="M887.015 56H872.048V70.9669H887.015V56Z" fill="#20201F"/>
<path d="M670.223 56H655.256V70.9669H670.223V56Z" fill="#20201F"/>
<path d="M872.048 56H490.875V70.9669H872.048V56Z" fill="#20201F"/>
<path d="M430.982 56H48V70.9669H430.982V56Z" fill="#20201F"/>
<path d="M872.048 478.195H135.437V493.171H872.048V478.195Z" fill="#20201F"/>
<path d="M803.778 388.963H781.021V478.195H803.778V388.963Z" fill="#20201F"/>
<path d="M803.778 275.784H781.021V314.111H803.778V275.784Z" fill="#20201F"/>
<path d="M815.156 275.784H781.021V298.541H815.156V275.784Z" fill="#20201F"/>
<path d="M894.804 242.245H872.048V296.738H894.804V242.245Z" fill="#20201F"/>
<path d="M894.804 56H872.048V116.48H894.804V56Z" fill="#20201F"/>
<path d="M78.5436 70.9668H55.7871V127.263H78.5436V70.9668Z" fill="#20201F"/>
<path d="M78.5436 253.028H55.7871V298.541H78.5436V253.028Z" fill="#20201F"/>
<path d="M135.437 290.751H55.7871V298.541H135.437V290.751Z" fill="#20201F"/>
<path d="M135.436 298.541H112.679V336.868H135.436V298.541Z" fill="#20201F"/>
<path d="M135.436 462.624H112.679V478.195H135.436V462.624Z" fill="#20201F"/>
<path d="M902.585 56H894.804V120.077H902.585V56Z" fill="#20201F"/>
<path d="M902.585 238.648H894.804V296.738H902.585V238.648Z" fill="#20201F"/>
<path d="M902.585 299.136H815.156V306.322H902.585V299.136Z" fill="#20201F"/>
<path d="M815.156 298.541H803.778V306.322H815.156V298.541Z" fill="#20201F"/>
<path d="M811.559 306.322H803.778V314.111H811.559V306.322Z" fill="#20201F"/>
<path d="M811.559 388.963H803.778V478.195H811.559V388.963Z" fill="#20201F"/>
<path d="M902.585 462.624H811.559V469.819H902.585V462.624Z" fill="#20201F"/>
<path d="M902.585 469.819H895.399V493.171H902.585V469.819Z" fill="#20201F"/>
<path d="M112.679 459.616H104.894V493.171H112.679V459.616Z" fill="#20201F"/>
<path d="M112.679 298.541H104.894V340.457H112.679V298.541Z" fill="#20201F"/>
<path d="M112.679 298.541H48.0017V306.322H112.679V298.541Z" fill="#20201F"/>
<path d="M55.9053 249.431H48.0017V306.322H55.9053V249.431Z" fill="#20201F"/>
<path d="M55.7868 70.9668H48.0015V130.852H55.7868V70.9668Z" fill="#20201F"/>
<path d="M48.0017 79.3518H48V86.5377H48.0017V79.3518Z" fill="#20201F"/>
<path d="M902.585 287.273H810.949V301.249H902.585V287.273Z" fill="#20201F"/>
<path d="M896.63 468.176H809.864V480.692H896.63V468.176Z" fill="#20201F"/>
<path d="M898.992 478.195H884.818V493.171H898.992V478.195Z" fill="#20201F"/>
<path d="M51.6618 68H48V81.4575H51.6618V68Z" fill="#20201F"/>
<path d="M124.058 473.297H108.787V493.171H124.058V473.297Z" fill="#20201F"/>
<path d="M902.585 306.322H895.399V462.624H902.585V306.322Z" fill="#20201F"/>
<path d="M364.209 70.9668H359.412V144.041H364.209V70.9668Z" fill="#20201F"/>
<path d="M403.701 138.981H359.412V143.769H403.701V138.981Z" fill="#20201F"/>
<path d="M403.701 137.629H398.905V218.825H403.701V137.629Z" fill="#20201F"/>
<path d="M401.686 210.704H359.412V215.772H401.686V210.704Z" fill="#20201F"/>
<path d="M403.701 272.723H398.905V293.149H403.701V272.723Z" fill="#20201F"/>
<path d="M398.905 275.784H359.412V280.572H398.905V275.784Z" fill="#20201F"/>
<path d="M287.545 275.784H135.436V280.572H287.545V275.784Z" fill="#20201F"/>
<path d="M460.524 349.445H398.905V354.233H460.524V349.445Z" fill="#20201F"/>
<path d="M403.701 347.047H398.905V478.195H403.701V347.047Z" fill="#20201F"/>
<path d="M523.045 349.445H502.44V354.233H523.045V349.445Z" fill="#20201F"/>
<path d="M518.606 349.445H513.818V478.195H518.606V349.445Z" fill="#20201F"/>
<path d="M593.228 349.445H564.969V354.233H593.228V349.445Z" fill="#20201F"/>
<path d="M593.228 338.662H588.44V354.233H593.228V338.662Z" fill="#20201F"/>
<path d="M593.228 457.241H588.44V478.195H593.228V457.241Z" fill="#20201F"/>
<path d="M593.228 354.233H588.44V457.241H593.228V354.233Z" fill="#20201F"/>
<path d="M511.531 223.885H506.735V280.572H511.531V223.885Z" fill="#20201F"/>
<path d="M610.338 275.784H506.735V280.572H610.338V275.784Z" fill="#20201F"/>
<path d="M593.228 278.498H588.44V290.751H593.228V278.498Z" fill="#20201F"/>
<path d="M781.021 275.784H682.205V280.572H781.021V275.784Z" fill="#20201F"/>
<path d="M511.531 70.9668H506.735V146.031H511.531V70.9668Z" fill="#20201F"/>
<path d="M902.567 120.069H898.715V238.656H902.567V120.069Z" fill="#20201F"/>
<path d="M894.802 116.48H890.951V242.246H894.802V116.48Z" fill="#20201F"/>
<path d="M875.897 116.48H872.046V242.246H875.897V116.48Z" fill="#20201F"/>
<path d="M108.746 340.457H104.894V459.044H108.746V340.457Z" fill="#20201F"/>
<path d="M116.51 336.868H112.659V462.634H116.51V336.868Z" fill="#20201F"/>
<path d="M135.415 336.868H131.564V462.634H135.415V336.868Z" fill="#20201F"/>
<path d="M51.8523 130.853H48V249.44H51.8523V130.853Z" fill="#20201F"/>
<path d="M59.6163 127.264H55.7649V253.029H59.6163V127.264Z" fill="#20201F"/>
<path d="M78.5216 127.264H74.6702V253.029H78.5216V127.264Z" fill="#20201F"/>
<path d="M811.542 362.016H807.689V388.962H811.542V362.016Z" fill="#20201F"/>
<path d="M803.776 362.016H799.925V388.963H803.776V362.016Z" fill="#20201F"/>
<path d="M784.871 362.016H781.02V388.963H784.871V362.016Z" fill="#20201F"/>
<path d="M811.563 362.016H781.02V364.843H811.563V362.016Z" fill="#20201F"/>
<path fill-rule="evenodd" clip-rule="evenodd" d="M484.853 64.4154C484.853 63.4766 485.615 62.7146 486.554 62.7146C487.493 62.7146 488.255 63.4766 488.255 64.4154V100.412C488.255 101.351 487.493 102.112 486.554 102.112C485.615 102.112 484.853 101.351 484.853 100.412V64.4154Z" fill="#20201F"/>
<path fill-rule="evenodd" clip-rule="evenodd" d="M433.49 64.0745C433.49 63.6051 433.87 63.2241 434.34 63.2241C434.809 63.2241 435.19 63.6051 435.19 64.0745C435.19 73.837 440.208 82.6871 448.32 89.1033C456.488 95.5637 467.786 99.5614 480.273 99.5614C480.742 99.5614 481.123 99.9424 481.123 100.412C481.123 100.881 480.742 101.262 480.273 101.262C467.4 101.262 455.728 97.1217 447.27 90.4316C438.757 83.6973 433.49 74.3787 433.49 64.0745Z" fill="#20201F"/>
<path fill-rule="evenodd" clip-rule="evenodd" d="M509.186 151.381C508.247 151.381 507.485 150.619 507.485 149.68C507.485 148.741 508.247 147.979 509.186 147.979H545.182C546.121 147.979 546.883 148.741 546.883 149.68C546.883 150.619 546.121 151.381 545.182 151.381H509.186Z" fill="#20201F"/>
<path fill-rule="evenodd" clip-rule="evenodd" d="M508.844 184.298C508.374 184.298 507.993 183.917 507.993 183.448C507.993 182.978 508.374 182.597 508.844 182.597C518.676 182.597 527.569 179.344 533.998 174.089C540.382 168.87 544.332 161.674 544.332 153.742C544.332 153.272 544.712 152.891 545.182 152.891C545.651 152.891 546.032 153.272 546.032 153.742C546.032 162.211 541.844 169.87 535.075 175.404C528.354 180.897 519.079 184.298 508.844 184.298Z" fill="#20201F"/>
<path fill-rule="evenodd" clip-rule="evenodd" d="M509.191 221.737C508.253 221.737 507.491 220.975 507.491 220.036C507.491 219.098 508.253 218.336 509.191 218.336H545.19C546.128 218.336 546.89 219.098 546.89 220.036C546.89 220.975 546.128 221.737 545.19 221.737H509.191Z" fill="#20201F"/>
<path fill-rule="evenodd" clip-rule="evenodd" d="M508.851 187.116C508.382 187.116 508.001 186.735 508.001 186.266C508.001 185.796 508.382 185.415 508.851 185.415C519.085 185.415 528.362 188.817 535.083 194.311C541.852 199.845 546.04 207.506 546.04 215.975C546.04 216.444 545.659 216.825 545.189 216.825C544.72 216.825 544.339 216.444 544.339 215.975C544.339 208.043 540.389 200.845 534.006 195.626C527.577 190.37 518.683 187.116 508.851 187.116Z" fill="#20201F"/>
<path fill-rule="evenodd" clip-rule="evenodd" d="M400.869 268.145C401.808 268.145 402.57 268.907 402.57 269.846C402.57 270.785 401.808 271.547 400.869 271.547H364.873C363.934 271.547 363.172 270.785 363.172 269.846C363.172 268.907 363.934 268.145 364.873 268.145H400.869Z" fill="#20201F"/>
<path fill-rule="evenodd" clip-rule="evenodd" d="M401.21 220.762C401.68 220.762 402.061 221.143 402.061 221.612C402.061 222.082 401.68 222.463 401.21 222.463C391.436 222.463 382.579 227.099 376.162 234.593C369.712 242.123 365.723 252.537 365.723 264.044C365.723 264.514 365.342 264.895 364.873 264.895C364.403 264.895 364.022 264.514 364.022 264.044C364.022 252.123 368.169 241.318 374.873 233.491C381.607 225.627 390.919 220.762 401.21 220.762Z" fill="#20201F"/>
<path fill-rule="evenodd" clip-rule="evenodd" d="M401.657 345.821C400.718 345.821 399.956 345.059 399.956 344.12C399.956 343.181 400.718 342.419 401.657 342.419H437.653C438.592 342.419 439.354 343.181 439.354 344.12C439.354 345.059 438.592 345.821 437.653 345.821H401.657Z" fill="#20201F"/>
<path fill-rule="evenodd" clip-rule="evenodd" d="M401.316 296.737C400.846 296.737 400.465 296.356 400.465 295.887C400.465 295.417 400.846 295.036 401.316 295.036C411.607 295.036 420.919 299.901 427.653 307.765C434.357 315.592 438.503 326.397 438.503 338.319C438.503 338.788 438.122 339.169 437.653 339.169C437.184 339.169 436.803 338.788 436.803 338.319C436.803 326.811 432.813 316.397 426.364 308.867C419.947 301.373 411.09 296.737 401.316 296.737Z" fill="#20201F"/>
<path fill-rule="evenodd" clip-rule="evenodd" d="M501.449 352.592C501.449 353.531 500.687 354.292 499.748 354.292C498.809 354.292 498.047 353.531 498.047 352.592V316.595C498.047 315.657 498.809 314.895 499.748 314.895C500.687 314.895 501.449 315.657 501.449 316.595V352.592Z" fill="#20201F"/>
<path fill-rule="evenodd" clip-rule="evenodd" d="M463.182 352.933C463.182 353.402 462.801 353.783 462.331 353.783C461.862 353.783 461.481 353.402 461.481 352.933C461.481 342.684 465.252 333.399 471.346 326.672C477.46 319.921 485.912 315.745 495.247 315.745C495.716 315.745 496.097 316.126 496.097 316.595C496.097 317.065 495.716 317.446 495.247 317.446C486.408 317.446 478.399 321.406 472.601 327.808C466.781 334.232 463.182 343.114 463.182 352.933Z" fill="#20201F"/>
<path fill-rule="evenodd" clip-rule="evenodd" d="M527.391 352.592C527.391 353.531 526.629 354.292 525.69 354.292C524.751 354.292 523.989 353.531 523.989 352.592V316.595C523.989 315.657 524.751 314.895 525.69 314.895C526.629 314.895 527.391 315.657 527.391 316.595V352.592Z" fill="#20201F"/>
<path fill-rule="evenodd" clip-rule="evenodd" d="M563.957 352.933C563.957 353.402 563.576 353.783 563.107 353.783C562.637 353.783 562.256 353.402 562.256 352.933C562.256 343.114 558.657 334.232 552.837 327.808C547.039 321.406 539.03 317.446 530.191 317.446C529.722 317.446 529.341 317.065 529.341 316.595C529.341 316.126 529.722 315.745 530.191 315.745C539.526 315.745 547.978 319.921 554.092 326.672C560.186 333.399 563.957 342.684 563.957 352.933Z" fill="#20201F"/>
<path fill-rule="evenodd" clip-rule="evenodd" d="M591.608 291.013C592.547 291.013 593.309 291.775 593.309 292.714C593.309 293.653 592.547 294.415 591.608 294.415H555.612C554.673 294.415 553.911 293.653 553.911 292.714C553.911 291.775 554.673 291.013 555.612 291.013H591.608Z" fill="#20201F"/>
<path fill-rule="evenodd" clip-rule="evenodd" d="M591.949 335.495C592.419 335.495 592.8 335.876 592.8 336.346C592.8 336.815 592.419 337.196 591.949 337.196C581.674 337.196 572.373 332.797 565.642 325.688C558.92 318.588 554.762 308.783 554.762 297.962C554.762 297.493 555.143 297.112 555.612 297.112C556.082 297.112 556.462 297.493 556.462 297.962C556.462 308.335 560.441 317.726 566.871 324.518C573.292 331.299 582.159 335.495 591.949 335.495Z" fill="#20201F"/>
<path fill-rule="evenodd" clip-rule="evenodd" d="M591.608 291.013C592.547 291.013 593.309 291.775 593.309 292.714C593.309 293.653 592.547 294.415 591.608 294.415H555.612C554.673 294.415 553.911 293.653 553.911 292.714C553.911 291.775 554.673 291.013 555.612 291.013H591.608Z" fill="#20201F"/>
<path fill-rule="evenodd" clip-rule="evenodd" d="M591.949 335.495C592.419 335.495 592.8 335.876 592.8 336.346C592.8 336.815 592.419 337.196 591.949 337.196C581.674 337.196 572.373 332.797 565.642 325.688C558.92 318.588 554.762 308.783 554.762 297.962C554.762 297.493 555.143 297.112 555.612 297.112C556.082 297.112 556.462 297.493 556.462 297.962C556.462 308.335 560.441 317.726 566.871 324.518C573.292 331.299 582.159 335.495 591.949 335.495Z" fill="#20201F"/>
<path fill-rule="evenodd" clip-rule="evenodd" d="M801.922 315.638C802.86 315.638 803.622 316.4 803.622 317.339C803.622 318.278 802.86 319.039 801.922 319.039H765.925C764.987 319.039 764.225 318.278 764.225 317.339C764.225 316.4 764.987 315.638 765.925 315.638H801.922Z" fill="#20201F"/>
<path fill-rule="evenodd" clip-rule="evenodd" d="M802.263 358.364C802.732 358.364 803.113 358.745 803.113 359.214C803.113 359.684 802.732 360.065 802.263 360.065C791.994 360.065 782.697 355.842 775.965 349.018C769.237 342.197 765.075 332.776 765.075 322.376C765.075 321.907 765.456 321.526 765.925 321.526C766.395 321.526 766.776 321.907 766.776 322.376C766.776 332.316 770.75 341.317 777.174 347.829C783.594 354.337 792.464 358.364 802.263 358.364Z" fill="#20201F"/>
<path fill-rule="evenodd" clip-rule="evenodd" d="M738.183 439.557H647.829V475.699H739.246V439.557H738.183ZM676.108 443.831C677.102 443.831 678.008 444.237 678.662 444.895C679.315 445.55 679.723 446.453 679.723 447.445V467.854C679.723 468.846 679.315 469.749 678.662 470.408C678.008 471.062 677.102 471.468 676.108 471.468H655.698C654.707 471.468 653.803 471.061 653.145 470.408C652.491 469.754 652.085 468.849 652.085 467.854V447.445C652.085 446.45 652.491 445.545 653.148 444.894C653.803 444.238 654.707 443.831 655.698 443.831H676.108ZM727.673 445.52C729.049 445.52 730.299 446.08 731.205 446.984C732.109 447.888 732.669 449.138 732.669 450.516C732.669 451.891 732.109 453.14 731.202 454.047C730.297 454.951 729.048 455.512 727.673 455.512C726.295 455.512 725.045 454.951 724.143 454.046C723.237 453.142 722.677 451.892 722.677 450.516C722.677 449.138 723.237 447.888 724.141 446.984C725.045 446.08 726.295 445.52 727.673 445.52ZM727.673 458.683C729.345 458.683 730.86 459.362 731.956 460.458C733.052 461.555 733.732 463.071 733.732 464.742C733.732 466.414 733.052 467.929 731.956 469.025C730.86 470.121 729.345 470.801 727.673 470.801C726.002 470.801 724.486 470.121 723.39 469.025C722.293 467.929 721.614 466.414 721.614 464.742C721.614 463.071 722.293 461.555 723.39 460.458C724.486 459.362 726.002 458.683 727.673 458.683ZM724.441 461.509C725.266 460.684 726.411 460.171 727.673 460.171C728.936 460.171 730.08 460.684 730.905 461.509C731.731 462.335 732.244 463.48 732.244 464.742C732.244 466.005 731.731 467.148 730.905 467.974C730.08 468.8 728.936 469.313 727.673 469.313C726.411 469.313 725.266 468.8 724.441 467.974C723.615 467.148 723.102 466.005 723.102 464.742C723.102 463.48 723.615 462.335 724.441 461.509ZM714.678 444.457C716.35 444.457 717.865 445.136 718.961 446.232C720.058 447.328 720.737 448.844 720.737 450.516C720.737 452.187 720.058 453.704 718.962 454.8C717.866 455.896 716.35 456.575 714.678 456.575C713.006 456.575 711.491 455.895 710.395 454.799C709.299 453.703 708.619 452.187 708.619 450.516C708.619 448.845 709.299 447.328 710.395 446.232C711.491 445.136 713.007 444.457 714.678 444.457ZM711.446 447.283C712.271 446.457 713.416 445.945 714.678 445.945C715.941 445.945 717.085 446.457 717.91 447.283C718.736 448.109 719.249 449.253 719.249 450.516C719.249 451.778 718.737 452.923 717.911 453.749C717.086 454.574 715.941 455.086 714.678 455.086C713.415 455.086 712.271 454.574 711.446 453.748C710.62 452.922 710.107 451.778 710.107 450.516C710.107 449.254 710.62 448.109 711.446 447.283ZM714.678 459.746C716.054 459.746 717.304 460.306 718.21 461.21C719.114 462.114 719.674 463.364 719.674 464.742C719.674 466.117 719.114 467.366 718.207 468.273C717.302 469.177 716.053 469.738 714.678 469.738C713.3 469.738 712.05 469.177 711.148 468.272C710.242 467.368 709.682 466.118 709.682 464.742C709.682 463.364 710.242 462.114 711.146 461.21C712.05 460.306 713.3 459.746 714.678 459.746ZM712.198 462.261C712.831 461.628 713.709 461.234 714.678 461.234C715.649 461.234 716.527 461.626 717.159 462.259C717.792 462.895 718.186 463.773 718.186 464.742C718.186 465.713 717.794 466.591 717.161 467.222C716.527 467.858 715.649 468.25 714.678 468.25C713.709 468.25 712.831 467.856 712.198 467.222C711.562 466.591 711.17 465.713 711.17 464.742C711.17 463.773 711.564 462.895 712.198 462.261ZM725.192 448.035C725.826 447.401 726.704 447.008 727.673 447.008C728.644 447.008 729.522 447.4 730.154 448.032C730.787 448.669 731.181 449.547 731.181 450.516C731.181 451.487 730.789 452.364 730.156 452.996C729.522 453.631 728.644 454.023 727.673 454.023C726.704 454.023 725.826 453.63 725.192 452.996C724.557 452.364 724.165 451.487 724.165 450.516C724.165 449.547 724.559 448.669 725.192 448.035ZM655.698 445.957H676.108C676.516 445.957 676.889 446.125 677.159 446.395C677.429 446.662 677.597 447.035 677.597 447.445V467.854C677.597 468.264 677.429 468.637 677.16 468.906C676.889 469.174 676.516 469.342 676.108 469.342H655.698C655.288 469.342 654.916 469.176 654.649 468.909C654.379 468.635 654.211 468.261 654.211 467.854V447.445C654.211 447.038 654.379 446.664 654.649 446.395C654.916 446.123 655.288 445.957 655.698 445.957ZM705.265 473.573V441.683H737.12V473.573H705.265ZM703.139 441.683V473.573H649.955V441.683H703.139Z" fill="#20201F"/>
<path fill-rule="evenodd" clip-rule="evenodd" d="M538.835 441.57C537.036 444.367 535.925 447.956 535.925 451.111C535.925 454.216 536.991 456.64 538.735 458.327H538.74C539.401 458.965 540.185 459.459 541.016 459.878H537.428C535.287 459.878 534.032 460.772 533.303 462.208C532.638 463.516 532.474 465.244 532.474 467.14V467.922H532.493C532.537 469.502 532.735 470.945 533.303 472.068C534.032 473.503 535.287 474.394 537.418 474.394H555.012C557.153 474.394 558.406 473.503 559.131 472.068C559.695 470.945 559.898 469.502 559.94 467.922H559.96V467.14C559.96 465.244 559.796 463.516 559.131 462.208C558.406 460.772 557.153 459.878 555.012 459.878H551.418C552.249 459.459 553.03 458.97 553.693 458.327C555.44 456.64 556.507 454.216 556.507 451.111C556.507 447.776 555.263 443.96 553.281 441.098C551.452 438.456 548.978 436.602 546.217 436.602C543.292 436.602 540.688 438.681 538.835 441.57ZM546.724 469.473V469.478H546.721C546.09 469.478 545.509 469.215 545.091 468.797H545.086C544.669 468.38 544.411 467.804 544.411 467.165C544.411 466.526 544.669 465.955 545.086 465.538V465.53L545.091 465.531C545.512 465.113 546.09 464.856 546.721 464.856C547.362 464.856 547.941 465.113 548.356 465.53C548.773 465.948 549.034 466.526 549.034 467.165C549.034 467.804 548.773 468.375 548.356 468.797C547.941 469.215 547.362 469.473 546.724 469.473ZM546.726 468.29H546.721C546.41 468.29 546.128 468.166 545.929 467.97V467.962C545.727 467.761 545.599 467.475 545.599 467.165C545.599 466.85 545.724 466.561 545.918 466.365L545.927 466.36C546.128 466.164 546.41 466.037 546.721 466.037C547.043 466.037 547.323 466.164 547.524 466.36C547.72 466.561 547.844 466.85 547.844 467.165C547.844 467.48 547.72 467.767 547.515 467.962C547.318 468.171 547.034 468.298 546.726 468.298V468.29ZM555.012 461.44C556.456 461.44 557.281 462.007 557.741 462.906C558.206 463.838 558.362 465.13 558.389 466.591V467.14C558.389 468.823 558.261 470.331 557.741 471.37C557.281 472.27 556.455 472.83 555.012 472.83H537.418C535.977 472.83 535.155 472.27 534.695 471.37C534.171 470.331 534.044 468.823 534.044 467.14V466.531C534.077 465.101 534.231 463.818 534.692 462.906C535.155 461.999 535.984 461.44 537.428 461.44H555.012ZM552.001 441.982C553.813 444.594 554.945 448.075 554.945 451.111C554.945 453.764 554.059 455.805 552.613 457.206C551.03 458.739 548.751 459.531 546.217 459.531C543.678 459.531 541.402 458.739 539.815 457.206C538.372 455.805 537.488 453.764 537.488 451.111C537.488 448.243 538.502 444.969 540.146 442.409C541.729 439.942 543.886 438.165 546.217 438.165C548.408 438.165 550.445 439.745 552.001 441.982Z" fill="#20201F"/>
<path fill-rule="evenodd" clip-rule="evenodd" d="M511.173 398.812L511.179 418.303C511.179 424.821 497.686 424.053 496.786 423.986C493.662 423.986 490.829 422.712 488.779 420.659C486.732 418.611 485.463 415.773 485.463 412.65V404.379C485.463 401.251 486.729 398.415 488.779 396.362C490.829 394.316 493.667 393.046 496.791 393.032C497.707 392.991 511.179 392.32 511.173 398.812ZM498.03 408.518H498.027C498.021 407.833 497.751 407.2 497.3 406.748C496.842 406.304 496.217 406.031 495.535 406.031C494.846 406.031 494.22 406.306 493.77 406.758C493.319 407.208 493.042 407.833 493.042 408.521C493.042 409.204 493.319 409.829 493.77 410.28V410.289H493.775C494.225 410.739 494.846 411.021 495.535 411.021C496.217 411.021 496.85 410.739 497.3 410.289V410.286C497.751 409.835 498.034 409.204 498.034 408.521L498.03 408.518ZM496.759 408.514C496.759 408.188 496.624 407.881 496.399 407.662C496.185 407.447 495.877 407.31 495.535 407.31C495.195 407.31 494.886 407.441 494.666 407.656C494.454 407.877 494.315 408.177 494.318 408.521C494.318 408.864 494.451 409.161 494.666 409.381L494.671 409.386C494.886 409.605 495.195 409.738 495.535 409.738C495.871 409.738 496.179 409.596 496.399 409.385L496.401 409.379C496.617 409.164 496.748 408.857 496.748 408.526L496.745 408.514H496.759ZM506.423 408.518C506.423 405.376 505.487 402.524 503.984 400.449C502.413 398.295 500.217 396.955 497.784 396.954C495.342 396.954 493.147 398.295 491.572 400.449C490.061 402.531 489.133 405.385 489.133 408.528V408.542C489.141 411.676 490.075 414.523 491.581 416.603C493.152 418.748 495.342 420.085 497.771 420.087L497.784 420.085C500.223 420.085 502.406 418.748 503.984 416.586C505.49 414.517 506.423 411.665 506.421 408.526L506.423 408.518ZM504.666 408.518C504.66 405.764 503.853 403.276 502.554 401.477C501.312 399.779 499.621 398.721 497.784 398.721C495.935 398.721 494.244 399.779 492.997 401.49C491.704 403.28 490.899 405.764 490.899 408.528V408.533L490.893 408.542C490.899 411.298 491.704 413.776 493.005 415.566C494.241 417.26 495.935 418.316 497.771 418.321L497.784 418.316C499.624 418.32 501.318 417.262 502.554 415.56C503.847 413.769 504.66 411.284 504.658 408.528V408.518H504.666ZM509.413 398.818C509.413 393.98 496.888 394.804 496.856 394.804L496.791 394.811C494.151 394.811 491.763 395.877 490.027 397.602C488.296 399.343 487.228 401.735 487.228 404.379V412.642C487.228 415.295 488.291 417.691 490.027 419.424C491.755 421.155 494.151 422.22 496.791 422.226L496.853 422.228C496.884 422.228 509.413 423.116 509.413 418.298V398.818Z" fill="#20201F"/>
<path fill-rule="evenodd" clip-rule="evenodd" d="M408.518 473.853H508.651V432.925H408.518V473.853ZM428.03 449.411C429.13 449.411 430.126 449.856 430.846 450.576C431.566 451.299 432.011 452.293 432.011 453.389C432.011 454.485 431.566 455.479 430.846 456.199C430.122 456.921 429.127 457.367 428.03 457.367C426.933 457.367 425.938 456.921 425.217 456.202C424.495 455.483 424.049 454.488 424.049 453.389C424.049 452.29 424.495 451.295 425.214 450.576C425.934 449.856 426.93 449.411 428.03 449.411ZM429.72 451.7C430.151 452.13 430.419 452.728 430.419 453.389C430.419 454.049 430.151 454.648 429.72 455.078C429.29 455.508 428.691 455.776 428.03 455.776C427.369 455.776 426.77 455.508 426.34 455.077C425.909 454.645 425.641 454.048 425.641 453.389C425.641 452.73 425.909 452.133 426.34 451.701C426.773 451.269 427.371 451.002 428.03 451.002C428.689 451.002 429.287 451.269 429.72 451.7ZM416.076 434.096L486.761 435.688C497.377 435.688 506.07 442.782 506.07 453.389C506.07 463.996 497.377 471.09 486.761 471.09L416.076 472.682C414.706 472.682 413.461 472.121 412.56 471.221C411.66 470.318 411.099 469.074 411.099 467.709V439.069C411.099 437.705 411.659 436.462 412.56 435.56C413.467 434.656 414.711 434.096 416.076 434.096ZM486.761 437.677C496.289 437.677 504.079 443.869 504.079 453.389C504.079 462.909 496.289 469.101 486.761 469.101L416.076 470.692C415.257 470.692 414.51 470.356 413.964 469.815C413.425 469.277 413.09 468.531 413.09 467.709V439.069C413.09 438.247 413.425 437.502 413.968 436.959C414.507 436.42 415.254 436.085 416.076 436.085L486.761 437.677ZM508.861 475.801H408.308C407.808 475.801 407.352 475.603 407.021 475.289C406.688 474.974 406.483 474.535 406.483 474.053V432.725C406.483 432.243 406.688 431.804 407.018 431.489C407.348 431.173 407.806 430.977 408.308 430.977H508.861C509.363 430.977 509.821 431.173 510.152 431.489C510.479 431.808 510.686 432.246 510.686 432.725V474.053C510.686 474.532 510.48 474.969 510.152 475.285C509.816 475.604 509.361 475.801 508.861 475.801Z" fill="#20201F"/>
<path fill-rule="evenodd" clip-rule="evenodd" d="M357.702 210.065V207.116C357.702 206.764 357.988 206.478 358.335 206.478H358.946V176.141C358.946 175.629 359.357 175.214 359.864 175.214C360.371 175.214 360.782 175.629 360.782 176.141V206.478H365.79C366.136 206.478 366.422 206.766 366.422 207.116V210.065C366.422 210.418 366.138 210.704 365.79 210.704H358.335C357.986 210.704 357.702 210.418 357.702 210.065Z" fill="#20201F"/>
<path fill-rule="evenodd" clip-rule="evenodd" d="M366.633 143.962V146.912C366.633 147.264 366.348 147.55 366.001 147.55H365.39V177.886C365.39 178.398 364.978 178.814 364.472 178.814C363.965 178.814 363.553 178.398 363.553 177.886V147.55H358.546C358.2 147.55 357.913 147.261 357.913 146.912V143.962C357.913 143.61 358.197 143.323 358.546 143.323H366.001C366.349 143.323 366.633 143.61 366.633 143.962Z" fill="#20201F"/>
<path fill-rule="evenodd" clip-rule="evenodd" d="M397.033 136.998V134.078C397.033 133.729 397.319 133.446 397.666 133.446H398.276V103.414C398.276 102.907 398.688 102.495 399.195 102.495C399.702 102.495 400.113 102.907 400.113 103.414V133.446H405.12C405.466 133.446 405.753 133.732 405.753 134.078V136.998C405.753 137.347 405.469 137.63 405.12 137.63H397.666C397.317 137.63 397.033 137.347 397.033 136.998Z" fill="#20201F"/>
<path fill-rule="evenodd" clip-rule="evenodd" d="M405.964 71.5562V74.4764C405.964 74.8251 405.678 75.1083 405.331 75.1083H404.721V105.141C404.721 105.648 404.309 106.059 403.802 106.059C403.296 106.059 402.884 105.648 402.884 105.141V75.1083H397.877C397.531 75.1083 397.244 74.8225 397.244 74.4764V71.5562C397.244 71.2075 397.528 70.9243 397.877 70.9243H405.331C405.68 70.9243 405.964 71.2075 405.964 71.5562Z" fill="#20201F"/>
<path d="M621.412 108H619.286V209.095H621.412V108Z" fill="#20201F"/>
<path d="M642.969 124.943C645.049 124.943 646.562 125.319 647.506 126.072C648.464 126.812 648.944 127.852 648.944 129.193C648.944 130.028 648.745 130.774 648.348 131.431C647.965 132.088 647.383 132.609 646.603 132.992C645.823 133.361 644.864 133.546 643.728 133.546C642.702 133.546 641.723 133.382 640.792 133.054C639.875 132.711 639.136 132.26 638.575 131.698L639.293 130.528C639.772 131.021 640.402 131.425 641.182 131.739C641.962 132.041 642.804 132.191 643.708 132.191C644.899 132.191 645.816 131.924 646.459 131.39C647.116 130.856 647.445 130.145 647.445 129.255C647.445 128.269 647.075 127.523 646.336 127.017C645.61 126.51 644.378 126.257 642.64 126.257H639.581L640.32 119.05H648.184V120.364H641.613L641.121 124.943H642.969ZM660.535 132.109V133.423H650.453V132.376L656.428 126.524C657.181 125.785 657.688 125.148 657.948 124.615C658.221 124.067 658.358 123.519 658.358 122.972C658.358 122.123 658.064 121.466 657.475 121.001C656.901 120.522 656.072 120.282 654.991 120.282C653.307 120.282 652 120.816 651.069 121.884L650.022 120.98C650.583 120.323 651.295 119.817 652.157 119.461C653.034 119.105 654.019 118.927 655.114 118.927C656.579 118.927 657.736 119.276 658.584 119.974C659.447 120.659 659.878 121.603 659.878 122.808C659.878 123.547 659.714 124.259 659.385 124.943C659.056 125.627 658.434 126.415 657.517 127.304L652.63 132.109H660.535ZM663.699 133.526C663.398 133.526 663.138 133.416 662.919 133.197C662.714 132.978 662.611 132.711 662.611 132.396C662.611 132.082 662.714 131.822 662.919 131.616C663.138 131.397 663.398 131.288 663.699 131.288C664.001 131.288 664.261 131.397 664.48 131.616C664.699 131.822 664.808 132.082 664.808 132.396C664.808 132.711 664.699 132.978 664.48 133.197C664.261 133.416 664.001 133.526 663.699 133.526ZM672.029 125.21C673.535 125.292 674.678 125.703 675.458 126.442C676.252 127.167 676.649 128.119 676.649 129.296C676.649 130.117 676.451 130.85 676.054 131.493C675.657 132.123 675.068 132.622 674.288 132.992C673.508 133.361 672.556 133.546 671.434 133.546C670.393 133.546 669.408 133.382 668.477 133.054C667.56 132.711 666.821 132.26 666.259 131.698L666.978 130.528C667.457 131.021 668.094 131.425 668.888 131.739C669.682 132.041 670.53 132.191 671.434 132.191C672.611 132.191 673.521 131.938 674.165 131.431C674.808 130.911 675.13 130.199 675.13 129.296C675.13 128.406 674.808 127.708 674.165 127.202C673.521 126.695 672.549 126.442 671.249 126.442H670.222V125.354L674.206 120.364H666.855V119.05H676.095V120.097L672.029 125.21ZM683.208 118.927C685.111 118.927 686.569 119.557 687.582 120.816C688.595 122.062 689.101 123.827 689.101 126.113C689.101 127.715 688.827 129.07 688.28 130.179C687.732 131.288 686.966 132.13 685.98 132.704C684.995 133.266 683.845 133.546 682.531 133.546C681.107 133.546 679.971 133.286 679.122 132.766L679.718 131.575C680.402 132.027 681.333 132.253 682.51 132.253C684.098 132.253 685.344 131.753 686.247 130.754C687.151 129.741 687.602 128.276 687.602 126.36C687.602 126.004 687.582 125.614 687.541 125.189C687.185 125.97 686.617 126.579 685.837 127.017C685.056 127.441 684.16 127.653 683.147 127.653C682.202 127.653 681.36 127.475 680.621 127.12C679.896 126.764 679.328 126.264 678.917 125.621C678.506 124.964 678.301 124.204 678.301 123.341C678.301 122.465 678.513 121.692 678.938 121.021C679.362 120.351 679.944 119.837 680.683 119.481C681.436 119.112 682.278 118.927 683.208 118.927ZM683.373 126.401C684.098 126.401 684.735 126.264 685.282 125.99C685.843 125.716 686.281 125.34 686.596 124.861C686.911 124.382 687.069 123.848 687.069 123.259C687.069 122.712 686.918 122.205 686.617 121.74C686.329 121.275 685.898 120.898 685.323 120.611C684.748 120.323 684.064 120.179 683.27 120.179C682.23 120.179 681.381 120.467 680.724 121.042C680.081 121.603 679.759 122.356 679.759 123.3C679.759 124.245 680.081 124.998 680.724 125.559C681.381 126.12 682.264 126.401 683.373 126.401Z" fill="#20201F"/>
<path d="M647.352 148.336V149.383L641.336 162.709H639.735L645.648 149.65H638.256V152.34H636.798V148.336H647.352ZM657.153 155.174C658.056 155.475 658.748 155.927 659.227 156.529C659.719 157.131 659.966 157.857 659.966 158.705C659.966 159.54 659.74 160.273 659.288 160.902C658.837 161.518 658.186 161.997 657.338 162.34C656.503 162.668 655.517 162.832 654.381 162.832C652.656 162.832 651.301 162.463 650.315 161.724C649.33 160.984 648.837 159.978 648.837 158.705C648.837 157.843 649.07 157.117 649.535 156.529C650.014 155.927 650.706 155.475 651.609 155.174C650.87 154.886 650.309 154.476 649.925 153.942C649.542 153.394 649.35 152.751 649.35 152.012C649.35 150.848 649.802 149.924 650.706 149.24C651.623 148.555 652.848 148.213 654.381 148.213C655.394 148.213 656.277 148.37 657.03 148.685C657.796 148.986 658.392 149.425 658.816 149.999C659.24 150.574 659.453 151.245 659.453 152.012C659.453 152.751 659.254 153.394 658.857 153.942C658.46 154.476 657.892 154.886 657.153 155.174ZM650.829 152.053C650.829 152.847 651.144 153.476 651.773 153.942C652.403 154.407 653.272 154.64 654.381 154.64C655.49 154.64 656.359 154.407 656.989 153.942C657.632 153.476 657.954 152.853 657.954 152.073C657.954 151.266 657.625 150.629 656.968 150.164C656.325 149.698 655.462 149.466 654.381 149.466C653.286 149.466 652.417 149.698 651.773 150.164C651.144 150.629 650.829 151.259 650.829 152.053ZM654.381 161.58C655.654 161.58 656.646 161.32 657.358 160.8C658.084 160.28 658.446 159.575 658.446 158.685C658.446 157.795 658.084 157.097 657.358 156.59C656.646 156.07 655.654 155.81 654.381 155.81C653.122 155.81 652.129 156.07 651.404 156.59C650.692 157.097 650.336 157.795 650.336 158.685C650.336 159.588 650.692 160.3 651.404 160.82C652.115 161.327 653.108 161.58 654.381 161.58ZM663.322 162.812C663.021 162.812 662.761 162.702 662.542 162.483C662.337 162.264 662.234 161.997 662.234 161.683C662.234 161.368 662.337 161.108 662.542 160.902C662.761 160.683 663.021 160.574 663.322 160.574C663.623 160.574 663.883 160.683 664.102 160.902C664.321 161.108 664.431 161.368 664.431 161.683C664.431 161.997 664.321 162.264 664.102 162.483C663.883 162.702 663.623 162.812 663.322 162.812ZM672.073 162.832C670.964 162.832 669.971 162.538 669.095 161.95C668.233 161.361 667.555 160.519 667.063 159.424C666.584 158.315 666.344 157.015 666.344 155.523C666.344 154.031 666.584 152.737 667.063 151.642C667.555 150.533 668.233 149.685 669.095 149.096C669.971 148.507 670.964 148.213 672.073 148.213C673.181 148.213 674.167 148.507 675.029 149.096C675.905 149.685 676.59 150.533 677.083 151.642C677.575 152.737 677.822 154.031 677.822 155.523C677.822 157.015 677.575 158.315 677.083 159.424C676.59 160.519 675.905 161.361 675.029 161.95C674.167 162.538 673.181 162.832 672.073 162.832ZM672.073 161.477C672.908 161.477 673.64 161.245 674.27 160.779C674.913 160.314 675.413 159.636 675.769 158.746C676.124 157.857 676.302 156.782 676.302 155.523C676.302 154.263 676.124 153.189 675.769 152.299C675.413 151.409 674.913 150.732 674.27 150.266C673.64 149.801 672.908 149.568 672.073 149.568C671.238 149.568 670.498 149.801 669.855 150.266C669.225 150.732 668.733 151.409 668.377 152.299C668.021 153.189 667.843 154.263 667.843 155.523C667.843 156.782 668.021 157.857 668.377 158.746C668.733 159.636 669.225 160.314 669.855 160.779C670.498 161.245 671.238 161.477 672.073 161.477ZM688.173 155.174C689.076 155.475 689.767 155.927 690.246 156.529C690.739 157.131 690.986 157.857 690.986 158.705C690.986 159.54 690.76 160.273 690.308 160.902C689.856 161.518 689.206 161.997 688.357 162.34C687.522 162.668 686.537 162.832 685.401 162.832C683.676 162.832 682.321 162.463 681.335 161.724C680.35 160.984 679.857 159.978 679.857 158.705C679.857 157.843 680.09 157.117 680.555 156.529C681.034 155.927 681.725 155.475 682.629 155.174C681.89 154.886 681.328 154.476 680.945 153.942C680.562 153.394 680.37 152.751 680.37 152.012C680.37 150.848 680.822 149.924 681.725 149.24C682.642 148.555 683.868 148.213 685.401 148.213C686.414 148.213 687.297 148.37 688.049 148.685C688.816 148.986 689.411 149.425 689.836 149.999C690.26 150.574 690.472 151.245 690.472 152.012C690.472 152.751 690.274 153.394 689.877 153.942C689.48 154.476 688.912 154.886 688.173 155.174ZM681.848 152.053C681.848 152.847 682.163 153.476 682.793 153.942C683.423 154.407 684.292 154.64 685.401 154.64C686.509 154.64 687.379 154.407 688.008 153.942C688.652 153.476 688.973 152.853 688.973 152.073C688.973 151.266 688.645 150.629 687.988 150.164C687.344 149.698 686.482 149.466 685.401 149.466C684.306 149.466 683.436 149.698 682.793 150.164C682.163 150.629 681.848 151.259 681.848 152.053ZM685.401 161.58C686.674 161.58 687.666 161.32 688.378 160.8C689.103 160.28 689.466 159.575 689.466 158.685C689.466 157.795 689.103 157.097 688.378 156.59C687.666 156.07 686.674 155.81 685.401 155.81C684.141 155.81 683.149 156.07 682.423 156.59C681.712 157.097 681.356 157.795 681.356 158.685C681.356 159.588 681.712 160.3 682.423 160.82C683.135 161.327 684.128 161.58 685.401 161.58Z" fill="#20201F"/>
<path d="M650.751 177.622V178.669L644.735 191.995H643.133L649.046 178.936H641.655V181.626H640.197V177.622H650.751ZM657.175 177.499C659.077 177.499 660.535 178.128 661.548 179.388C662.561 180.633 663.068 182.399 663.068 184.685C663.068 186.287 662.794 187.642 662.246 188.751C661.699 189.859 660.932 190.701 659.947 191.276C658.961 191.837 657.811 192.118 656.497 192.118C655.074 192.118 653.937 191.858 653.089 191.338L653.684 190.147C654.369 190.599 655.299 190.825 656.477 190.825C658.064 190.825 659.31 190.325 660.214 189.326C661.117 188.313 661.569 186.848 661.569 184.932C661.569 184.576 661.548 184.186 661.507 183.761C661.151 184.541 660.583 185.151 659.803 185.589C659.023 186.013 658.126 186.225 657.113 186.225C656.169 186.225 655.327 186.047 654.588 185.691C653.862 185.335 653.294 184.836 652.883 184.192C652.473 183.535 652.267 182.776 652.267 181.913C652.267 181.037 652.48 180.264 652.904 179.593C653.328 178.922 653.91 178.409 654.649 178.053C655.402 177.684 656.244 177.499 657.175 177.499ZM657.339 184.973C658.064 184.973 658.701 184.836 659.249 184.562C659.81 184.288 660.248 183.912 660.563 183.433C660.877 182.954 661.035 182.42 661.035 181.831C661.035 181.284 660.884 180.777 660.583 180.312C660.296 179.846 659.865 179.47 659.29 179.182C658.715 178.895 658.03 178.751 657.236 178.751C656.196 178.751 655.347 179.039 654.69 179.614C654.047 180.175 653.725 180.928 653.725 181.872C653.725 182.817 654.047 183.57 654.69 184.131C655.347 184.692 656.23 184.973 657.339 184.973ZM666.099 192.098C665.798 192.098 665.538 191.988 665.319 191.769C665.113 191.55 665.011 191.283 665.011 190.968C665.011 190.653 665.113 190.393 665.319 190.188C665.538 189.969 665.798 189.859 666.099 189.859C666.4 189.859 666.66 189.969 666.879 190.188C667.098 190.393 667.208 190.653 667.208 190.968C667.208 191.283 667.098 191.55 666.879 191.769C666.66 191.988 666.4 192.098 666.099 192.098ZM673.818 177.499C675.72 177.499 677.178 178.128 678.191 179.388C679.204 180.633 679.71 182.399 679.71 184.685C679.71 186.287 679.437 187.642 678.889 188.751C678.342 189.859 677.575 190.701 676.589 191.276C675.604 191.837 674.454 192.118 673.14 192.118C671.716 192.118 670.58 191.858 669.732 191.338L670.327 190.147C671.011 190.599 671.942 190.825 673.119 190.825C674.707 190.825 675.953 190.325 676.856 189.326C677.76 188.313 678.212 186.848 678.212 184.932C678.212 184.576 678.191 184.186 678.15 183.761C677.794 184.541 677.226 185.151 676.446 185.589C675.665 186.013 674.769 186.225 673.756 186.225C672.811 186.225 671.97 186.047 671.23 185.691C670.505 185.335 669.937 184.836 669.526 184.192C669.116 183.535 668.91 182.776 668.91 181.913C668.91 181.037 669.122 180.264 669.547 179.593C669.971 178.922 670.553 178.409 671.292 178.053C672.045 177.684 672.887 177.499 673.818 177.499ZM673.982 184.973C674.707 184.973 675.344 184.836 675.891 184.562C676.453 184.288 676.891 183.912 677.205 183.433C677.52 182.954 677.678 182.42 677.678 181.831C677.678 181.284 677.527 180.777 677.226 180.312C676.939 179.846 676.507 179.47 675.932 179.182C675.358 178.895 674.673 178.751 673.879 178.751C672.839 178.751 671.99 179.039 671.333 179.614C670.69 180.175 670.368 180.928 670.368 181.872C670.368 182.817 670.69 183.57 671.333 184.131C671.99 184.692 672.873 184.973 673.982 184.973ZM685.797 177.622V191.995H684.318V178.936H680.931V177.622H685.797Z" fill="#20201F"/>
<path d="M593.187 155.141C596.713 155.716 599.415 157.038 601.294 159.108C603.172 161.139 604.111 163.669 604.111 166.697C604.111 169.035 603.497 171.2 602.271 173.193C601.044 175.148 599.166 176.719 596.637 177.907C594.145 179.096 591.079 179.69 587.438 179.69C584.602 179.69 581.804 179.326 579.044 178.597C576.323 177.831 574.004 176.758 572.088 175.378L575.71 168.249C577.243 169.399 579.006 170.299 580.999 170.951C583.03 171.564 585.1 171.871 587.208 171.871C589.546 171.871 591.386 171.43 592.727 170.548C594.069 169.629 594.74 168.345 594.74 166.697C594.74 163.4 592.229 161.752 587.208 161.752H582.954V155.601L591.233 146.229H574.1V138.756H602.271V144.792L593.187 155.141Z" fill="#20201F"/>
<path d="M736.271 152.648H730.604V161.066H727.422V150.02H736.271V152.648ZM742.682 161.23C741.518 161.23 740.471 160.991 739.54 160.512C738.623 160.019 737.904 159.341 737.384 158.479C736.864 157.617 736.604 156.638 736.604 155.543C736.604 154.448 736.864 153.469 737.384 152.607C737.904 151.744 738.623 151.074 739.54 150.594C740.471 150.102 741.518 149.855 742.682 149.855C743.845 149.855 744.886 150.102 745.803 150.594C746.72 151.074 747.439 151.744 747.959 152.607C748.479 153.469 748.739 154.448 748.739 155.543C748.739 156.638 748.479 157.617 747.959 158.479C747.439 159.341 746.72 160.019 745.803 160.512C744.886 160.991 743.845 161.23 742.682 161.23ZM742.682 158.602C743.503 158.602 744.174 158.328 744.694 157.781C745.228 157.22 745.495 156.474 745.495 155.543C745.495 154.612 745.228 153.873 744.694 153.325C744.174 152.764 743.503 152.483 742.682 152.483C741.86 152.483 741.183 152.764 740.649 153.325C740.115 153.873 739.848 154.612 739.848 155.543C739.848 156.474 740.115 157.22 740.649 157.781C741.183 158.328 741.86 158.602 742.682 158.602ZM756.198 161.23C755.021 161.23 753.96 160.991 753.016 160.512C752.085 160.019 751.353 159.341 750.819 158.479C750.299 157.617 750.039 156.638 750.039 155.543C750.039 154.448 750.299 153.469 750.819 152.607C751.353 151.744 752.085 151.074 753.016 150.594C753.96 150.102 755.021 149.855 756.198 149.855C757.362 149.855 758.375 150.102 759.237 150.594C760.113 151.074 760.75 151.765 761.147 152.668L758.662 154.003C758.087 152.99 757.259 152.483 756.178 152.483C755.343 152.483 754.652 152.757 754.104 153.305C753.557 153.852 753.283 154.598 753.283 155.543C753.283 156.487 753.557 157.233 754.104 157.781C754.652 158.328 755.343 158.602 756.178 158.602C757.273 158.602 758.101 158.096 758.662 157.083L761.147 158.438C760.75 159.314 760.113 159.998 759.237 160.491C758.375 160.984 757.362 161.23 756.198 161.23ZM772.334 152.648H768.597V161.066H765.414V152.648H761.677V150.02H772.334V152.648ZM774.041 150.02H777.224V156.59L782.604 150.02H785.54V161.066H782.357V154.496L776.998 161.066H774.041V150.02ZM788.619 150.02H791.802V154.331H796.606V150.02H799.809V161.066H796.606V156.939H791.802V161.066H788.619V150.02ZM807.167 149.855C808.878 149.855 810.192 150.266 811.109 151.087C812.026 151.895 812.485 153.12 812.485 154.763V161.066H809.487V159.69C808.885 160.717 807.762 161.23 806.12 161.23C805.271 161.23 804.532 161.087 803.902 160.799C803.286 160.512 802.814 160.115 802.485 159.608C802.157 159.102 801.993 158.527 801.993 157.884C801.993 156.857 802.376 156.049 803.143 155.461C803.923 154.872 805.121 154.578 806.736 154.578H809.282C809.282 153.88 809.07 153.346 808.645 152.976C808.221 152.593 807.584 152.401 806.736 152.401C806.147 152.401 805.565 152.497 804.99 152.689C804.429 152.867 803.95 153.113 803.553 153.428L802.403 151.19C803.006 150.766 803.724 150.437 804.559 150.204C805.408 149.972 806.277 149.855 807.167 149.855ZM806.921 159.074C807.468 159.074 807.954 158.951 808.378 158.705C808.803 158.445 809.104 158.068 809.282 157.576V156.446H807.085C805.771 156.446 805.114 156.877 805.114 157.74C805.114 158.151 805.271 158.479 805.586 158.725C805.914 158.958 806.359 159.074 806.921 159.074ZM825.082 150.02V161.066H822.228V157.904H819.867L817.772 161.066H814.364L816.89 157.452C816.123 157.151 815.534 156.72 815.124 156.159C814.727 155.584 814.528 154.893 814.528 154.085C814.528 152.785 814.994 151.785 815.925 151.087C816.869 150.375 818.163 150.02 819.805 150.02H825.082ZM819.867 152.627C819.182 152.627 818.662 152.75 818.306 152.997C817.964 153.243 817.793 153.64 817.793 154.188C817.793 154.735 817.957 155.139 818.286 155.399C818.628 155.646 819.141 155.769 819.826 155.769H822.228V152.627H819.867Z" fill="black"/>
<path d="M759.369 187.641V190.352H748.507V188.196L754.051 182.96C754.639 182.399 755.036 181.92 755.242 181.523C755.447 181.112 755.55 180.708 755.55 180.311C755.55 179.736 755.351 179.298 754.954 178.997C754.571 178.682 754.003 178.525 753.25 178.525C752.62 178.525 752.052 178.648 751.546 178.895C751.039 179.127 750.615 179.483 750.273 179.962L747.85 178.402C748.411 177.567 749.185 176.917 750.17 176.451C751.156 175.972 752.285 175.732 753.558 175.732C754.626 175.732 755.557 175.91 756.35 176.266C757.158 176.609 757.781 177.101 758.219 177.745C758.671 178.374 758.897 179.12 758.897 179.983C758.897 180.763 758.732 181.495 758.404 182.18C758.075 182.864 757.439 183.644 756.494 184.52L753.188 187.641H759.369ZM766.861 190.598C765.67 190.598 764.609 190.304 763.678 189.715C762.748 189.127 762.015 188.278 761.481 187.169C760.961 186.047 760.701 184.712 760.701 183.165C760.701 181.619 760.961 180.291 761.481 179.182C762.015 178.06 762.748 177.204 763.678 176.615C764.609 176.027 765.67 175.732 766.861 175.732C768.052 175.732 769.113 176.027 770.044 176.615C770.974 177.204 771.7 178.06 772.22 179.182C772.754 180.291 773.021 181.619 773.021 183.165C773.021 184.712 772.754 186.047 772.22 187.169C771.7 188.278 770.974 189.127 770.044 189.715C769.113 190.304 768.052 190.598 766.861 190.598ZM766.861 187.785C767.737 187.785 768.421 187.409 768.914 186.656C769.421 185.903 769.674 184.74 769.674 183.165C769.674 181.591 769.421 180.428 768.914 179.675C768.421 178.922 767.737 178.545 766.861 178.545C765.999 178.545 765.314 178.922 764.808 179.675C764.315 180.428 764.069 181.591 764.069 183.165C764.069 184.74 764.315 185.903 764.808 186.656C765.314 187.409 765.999 187.785 766.861 187.785ZM776.265 190.516C775.704 190.516 775.232 190.324 774.849 189.941C774.465 189.558 774.274 189.079 774.274 188.504C774.274 187.915 774.465 187.443 774.849 187.087C775.232 186.718 775.704 186.533 776.265 186.533C776.827 186.533 777.299 186.718 777.682 187.087C778.065 187.443 778.257 187.915 778.257 188.504C778.257 189.079 778.065 189.558 777.682 189.941C777.299 190.324 776.827 190.516 776.265 190.516ZM784.678 181.379C786.704 181.379 788.196 181.783 789.154 182.59C790.126 183.398 790.612 184.479 790.612 185.835C790.612 186.711 790.393 187.511 789.955 188.237C789.517 188.949 788.846 189.524 787.943 189.962C787.053 190.386 785.951 190.598 784.637 190.598C783.624 190.598 782.625 190.468 781.639 190.208C780.667 189.934 779.839 189.551 779.155 189.058L780.469 186.512C781.016 186.923 781.646 187.245 782.358 187.477C783.07 187.696 783.802 187.806 784.555 187.806C785.39 187.806 786.047 187.641 786.526 187.313C787.005 186.984 787.245 186.526 787.245 185.937C787.245 185.321 786.991 184.856 786.485 184.541C785.992 184.226 785.13 184.069 783.898 184.069H780.222L780.962 175.979H789.729V178.648H783.734L783.508 181.379H784.678ZM797.013 175.732C799.025 175.732 800.599 176.348 801.735 177.58C802.871 178.799 803.439 180.558 803.439 182.857C803.439 184.486 803.131 185.883 802.515 187.046C801.913 188.21 801.058 189.092 799.949 189.695C798.84 190.297 797.56 190.598 796.109 190.598C795.343 190.598 794.61 190.516 793.912 190.352C793.214 190.174 792.619 189.927 792.126 189.613L793.358 187.169C794.056 187.648 794.952 187.888 796.048 187.888C797.266 187.888 798.231 187.532 798.943 186.82C799.655 186.095 800.038 185.054 800.093 183.699C799.23 184.562 798.039 184.993 796.52 184.993C795.603 184.993 794.768 184.808 794.015 184.438C793.262 184.069 792.667 183.549 792.228 182.878C791.79 182.193 791.571 181.406 791.571 180.517C791.571 179.558 791.811 178.717 792.29 177.991C792.769 177.266 793.419 176.711 794.241 176.328C795.076 175.931 796 175.732 797.013 175.732ZM797.259 182.508C797.985 182.508 798.573 182.31 799.025 181.913C799.49 181.502 799.723 180.982 799.723 180.352C799.723 179.723 799.497 179.209 799.045 178.812C798.607 178.415 797.998 178.217 797.218 178.217C796.506 178.217 795.924 178.409 795.473 178.792C795.035 179.175 794.816 179.695 794.816 180.352C794.816 181.009 795.035 181.536 795.473 181.933C795.924 182.317 796.52 182.508 797.259 182.508Z" fill="black"/>
<path d="M222.879 372.521C221.701 372.521 220.641 372.281 219.696 371.802C218.765 371.31 218.033 370.632 217.499 369.77C216.979 368.907 216.719 367.928 216.719 366.833C216.719 365.738 216.979 364.76 217.499 363.897C218.033 363.035 218.765 362.364 219.696 361.885C220.641 361.392 221.701 361.146 222.879 361.146C224.042 361.146 225.055 361.392 225.917 361.885C226.794 362.364 227.43 363.055 227.827 363.959L225.343 365.293C224.768 364.28 223.939 363.774 222.858 363.774C222.023 363.774 221.332 364.048 220.784 364.595C220.237 365.143 219.963 365.889 219.963 366.833C219.963 367.778 220.237 368.524 220.784 369.071C221.332 369.619 222.023 369.893 222.858 369.893C223.953 369.893 224.781 369.386 225.343 368.373L227.827 369.728C227.43 370.605 226.794 371.289 225.917 371.782C225.055 372.275 224.042 372.521 222.879 372.521ZM240.759 361.31V372.357H237.555V363.938H232.956V372.357H229.773V361.31H240.759ZM248.121 361.146C249.832 361.146 251.146 361.556 252.063 362.378C252.98 363.185 253.439 364.41 253.439 366.053V372.357H250.441V370.981C249.839 372.008 248.716 372.521 247.074 372.521C246.225 372.521 245.486 372.377 244.856 372.09C244.24 371.802 243.768 371.405 243.44 370.899C243.111 370.392 242.947 369.817 242.947 369.174C242.947 368.147 243.33 367.34 244.097 366.751C244.877 366.163 246.075 365.868 247.69 365.868H250.236C250.236 365.17 250.024 364.636 249.599 364.267C249.175 363.883 248.538 363.692 247.69 363.692C247.101 363.692 246.519 363.788 245.945 363.979C245.383 364.157 244.904 364.404 244.507 364.718L243.357 362.48C243.96 362.056 244.678 361.728 245.513 361.495C246.362 361.262 247.231 361.146 248.121 361.146ZM247.875 370.365C248.422 370.365 248.908 370.242 249.332 369.995C249.757 369.735 250.058 369.359 250.236 368.866V367.737H248.039C246.725 367.737 246.068 368.168 246.068 369.03C246.068 369.441 246.225 369.77 246.54 370.016C246.868 370.249 247.313 370.365 247.875 370.365ZM266.816 361.31V372.357H263.613V363.938H260.123L260.02 365.889C259.965 367.34 259.828 368.544 259.609 369.503C259.39 370.461 259.034 371.214 258.542 371.761C258.049 372.309 257.364 372.583 256.488 372.583C256.023 372.583 255.469 372.5 254.825 372.336L254.99 369.708C255.209 369.735 255.366 369.749 255.462 369.749C255.941 369.749 256.297 369.578 256.529 369.236C256.776 368.88 256.94 368.435 257.022 367.901C257.104 367.354 257.166 366.635 257.207 365.745L257.371 361.31H266.816ZM275.872 364.842C277.309 364.855 278.411 365.184 279.177 365.827C279.944 366.457 280.327 367.354 280.327 368.517C280.327 369.735 279.896 370.687 279.034 371.371C278.185 372.042 276.987 372.377 275.441 372.377L269.897 372.357V361.31H273.079V364.842H275.872ZM275.153 370.098C275.769 370.112 276.241 369.982 276.57 369.708C276.898 369.434 277.063 369.024 277.063 368.476C277.063 367.942 276.898 367.552 276.57 367.306C276.255 367.059 275.783 366.929 275.153 366.915L273.079 366.895V370.098H275.153ZM282.329 361.31H285.511V365.622H290.316V361.31H293.519V372.357H290.316V368.23H285.511V372.357H282.329V361.31ZM306.4 361.31V372.357H303.546V369.195H301.185L299.09 372.357H295.682L298.207 368.743C297.441 368.442 296.852 368.011 296.442 367.449C296.045 366.874 295.846 366.183 295.846 365.376C295.846 364.075 296.312 363.076 297.242 362.378C298.187 361.666 299.48 361.31 301.123 361.31H306.4ZM301.185 363.918C300.5 363.918 299.98 364.041 299.624 364.287C299.282 364.534 299.111 364.931 299.111 365.478C299.111 366.026 299.275 366.43 299.604 366.69C299.946 366.936 300.459 367.059 301.144 367.059H303.546V363.918H301.185Z" fill="#20201F"/>
<path d="M244.468 387.269V401.642H241.142V389.939H238.268V387.269H244.468ZM260.127 398.624H257.786V401.642H254.542V398.624H246.801V396.386L253.577 387.269H257.067L250.784 395.914H254.645V393.224H257.786V395.914H260.127V398.624ZM263.412 401.807C262.85 401.807 262.378 401.615 261.995 401.232C261.612 400.848 261.42 400.369 261.42 399.794C261.42 399.206 261.612 398.734 261.995 398.378C262.378 398.008 262.85 397.823 263.412 397.823C263.973 397.823 264.445 398.008 264.828 398.378C265.212 398.734 265.403 399.206 265.403 399.794C265.403 400.369 265.212 400.848 264.828 401.232C264.445 401.615 263.973 401.807 263.412 401.807ZM273.811 393.121C275.071 393.327 276.036 393.799 276.706 394.538C277.377 395.263 277.712 396.167 277.712 397.248C277.712 398.083 277.493 398.857 277.055 399.569C276.617 400.267 275.947 400.828 275.043 401.252C274.153 401.677 273.058 401.889 271.758 401.889C270.745 401.889 269.746 401.759 268.76 401.499C267.788 401.225 266.96 400.842 266.276 400.349L267.569 397.803C268.117 398.213 268.746 398.535 269.458 398.768C270.184 398.987 270.923 399.096 271.676 399.096C272.511 399.096 273.168 398.939 273.647 398.624C274.126 398.295 274.366 397.837 274.366 397.248C274.366 396.071 273.469 395.482 271.676 395.482H270.156V393.285L273.113 389.939H266.994V387.269H277.055V389.425L273.811 393.121ZM284.792 387.269V401.642H281.466V389.939H278.591V387.269H284.792Z" fill="#20201F"/>
<path d="M174.129 161.23C172.952 161.23 171.891 160.991 170.947 160.512C170.016 160.019 169.283 159.341 168.75 158.479C168.229 157.617 167.969 156.638 167.969 155.543C167.969 154.448 168.229 153.469 168.75 152.607C169.283 151.744 170.016 151.074 170.947 150.594C171.891 150.102 172.952 149.855 174.129 149.855C175.293 149.855 176.306 150.102 177.168 150.594C178.044 151.074 178.681 151.765 179.078 152.668L176.593 154.003C176.018 152.99 175.19 152.483 174.109 152.483C173.274 152.483 172.582 152.757 172.035 153.305C171.487 153.852 171.213 154.598 171.213 155.543C171.213 156.487 171.487 157.233 172.035 157.781C172.582 158.328 173.274 158.602 174.109 158.602C175.204 158.602 176.032 158.096 176.593 157.083L179.078 158.438C178.681 159.314 178.044 159.998 177.168 160.491C176.306 160.984 175.293 161.23 174.129 161.23ZM192.009 150.02V161.066H188.806V152.648H184.207V161.066H181.024V150.02H192.009ZM199.371 149.855C201.083 149.855 202.397 150.266 203.314 151.087C204.231 151.895 204.689 153.12 204.689 154.763V161.066H201.692V159.69C201.089 160.717 199.967 161.23 198.324 161.23C197.476 161.23 196.736 161.087 196.107 160.799C195.491 160.512 195.019 160.115 194.69 159.608C194.361 159.102 194.197 158.527 194.197 157.884C194.197 156.857 194.58 156.049 195.347 155.461C196.127 154.872 197.325 154.578 198.94 154.578H201.486C201.486 153.88 201.274 153.346 200.85 152.976C200.425 152.593 199.789 152.401 198.94 152.401C198.352 152.401 197.77 152.497 197.195 152.689C196.634 152.867 196.155 153.113 195.758 153.428L194.608 151.19C195.21 150.766 195.929 150.437 196.764 150.204C197.612 149.972 198.482 149.855 199.371 149.855ZM199.125 159.074C199.673 159.074 200.159 158.951 200.583 158.705C201.007 158.445 201.308 158.068 201.486 157.576V156.446H199.289C197.975 156.446 197.318 156.877 197.318 157.74C197.318 158.151 197.476 158.479 197.79 158.725C198.119 158.958 198.564 159.074 199.125 159.074ZM218.067 150.02V161.066H214.864V152.648H211.373L211.271 154.598C211.216 156.049 211.079 157.254 210.86 158.212C210.641 159.17 210.285 159.923 209.792 160.471C209.299 161.018 208.615 161.292 207.739 161.292C207.273 161.292 206.719 161.21 206.076 161.046L206.24 158.417C206.459 158.445 206.616 158.458 206.712 158.458C207.191 158.458 207.547 158.287 207.78 157.945C208.026 157.589 208.191 157.144 208.273 156.611C208.355 156.063 208.416 155.344 208.458 154.455L208.622 150.02H218.067ZM227.122 153.551C228.559 153.565 229.661 153.893 230.428 154.537C231.195 155.166 231.578 156.063 231.578 157.227C231.578 158.445 231.147 159.396 230.284 160.081C229.436 160.751 228.238 161.087 226.691 161.087L221.147 161.066V150.02H224.33V153.551H227.122ZM226.404 158.808C227.02 158.821 227.492 158.691 227.82 158.417C228.149 158.144 228.313 157.733 228.313 157.185C228.313 156.652 228.149 156.261 227.82 156.015C227.505 155.769 227.033 155.639 226.404 155.625L224.33 155.604V158.808H226.404ZM233.579 150.02H236.762V154.331H241.566V150.02H244.769V161.066H241.566V156.939H236.762V161.066H233.579V150.02ZM257.65 150.02V161.066H254.796V157.904H252.435L250.341 161.066H246.932L249.458 157.452C248.691 157.151 248.103 156.72 247.692 156.159C247.295 155.584 247.097 154.893 247.097 154.085C247.097 152.785 247.562 151.785 248.493 151.087C249.437 150.375 250.731 150.02 252.374 150.02H257.65ZM252.435 152.627C251.751 152.627 251.231 152.75 250.875 152.997C250.532 153.243 250.361 153.64 250.361 154.188C250.361 154.735 250.526 155.139 250.854 155.399C251.196 155.646 251.71 155.769 252.394 155.769H254.796V152.627H252.435Z" fill="#20201F"/>
<path d="M192.957 175.979V190.352H189.631V178.648H186.756V175.979H192.957ZM206.706 175.979V178.135L201.367 190.352H197.754L202.907 178.689H198.144V181.03H195.187V175.979H206.706ZM209.073 190.516C208.512 190.516 208.04 190.324 207.656 189.941C207.273 189.558 207.082 189.079 207.082 188.504C207.082 187.915 207.273 187.443 207.656 187.087C208.04 186.718 208.512 186.533 209.073 186.533C209.634 186.533 210.107 186.718 210.49 187.087C210.873 187.443 211.065 187.915 211.065 188.504C211.065 189.079 210.873 189.558 210.49 189.941C210.107 190.324 209.634 190.516 209.073 190.516ZM225.72 187.333H223.379V190.352H220.135V187.333H212.394V185.095L219.17 175.979H222.66L216.377 184.623H220.237V181.933H223.379V184.623H225.72V187.333ZM231.685 175.732C233.697 175.732 235.272 176.348 236.408 177.58C237.544 178.799 238.112 180.558 238.112 182.857C238.112 184.486 237.804 185.883 237.188 187.046C236.586 188.21 235.73 189.092 234.621 189.695C233.513 190.297 232.233 190.598 230.782 190.598C230.015 190.598 229.283 190.516 228.585 190.352C227.887 190.174 227.291 189.927 226.798 189.613L228.03 187.169C228.729 187.648 229.625 187.888 230.72 187.888C231.938 187.888 232.904 187.532 233.615 186.82C234.327 186.095 234.71 185.054 234.765 183.699C233.903 184.562 232.712 184.993 231.192 184.993C230.275 184.993 229.44 184.808 228.687 184.438C227.935 184.069 227.339 183.549 226.901 182.878C226.463 182.193 226.244 181.406 226.244 180.517C226.244 179.558 226.484 178.717 226.963 177.991C227.442 177.266 228.092 176.711 228.913 176.328C229.748 175.931 230.672 175.732 231.685 175.732ZM231.932 182.508C232.657 182.508 233.246 182.31 233.697 181.913C234.163 181.502 234.396 180.982 234.396 180.352C234.396 179.723 234.17 179.209 233.718 178.812C233.28 178.415 232.671 178.217 231.891 178.217C231.179 178.217 230.597 178.409 230.145 178.792C229.707 179.175 229.488 179.695 229.488 180.352C229.488 181.009 229.707 181.536 230.145 181.933C230.597 182.317 231.192 182.508 231.932 182.508Z" fill="#20201F"/>
<path d="M658.291 368.086H656.628V372.275H653.424V361.228H656.628V365.52H658.352L661.35 361.228H664.759L660.898 366.526L665.026 372.275H661.247L658.291 368.086ZM677.044 361.228L672.054 372.953C671.548 374.226 670.918 375.122 670.165 375.643C669.426 376.163 668.53 376.423 667.476 376.423C666.901 376.423 666.333 376.334 665.771 376.156C665.21 375.978 664.752 375.732 664.396 375.417L665.566 373.138C665.812 373.357 666.093 373.528 666.408 373.651C666.736 373.774 667.058 373.836 667.373 373.836C667.811 373.836 668.167 373.726 668.441 373.507C668.714 373.302 668.961 372.953 669.18 372.46L669.221 372.357L664.437 361.228H667.743L670.843 368.723L673.964 361.228H677.044ZM684.908 372.275L682.485 368.887L679.98 372.275H676.489L680.74 366.711L676.633 361.228H680.226L682.567 364.452L684.969 361.228H688.378L684.271 366.629L688.542 372.275H684.908ZM690.119 361.228H693.301V365.54H698.106V361.228H701.309V372.275H698.106V368.148H693.301V372.275H690.119V361.228ZM714.19 361.228V372.275H711.336V369.113H708.975L706.881 372.275H703.472L705.998 368.661C705.231 368.36 704.642 367.929 704.232 367.368C703.835 366.793 703.636 366.102 703.636 365.294C703.636 363.994 704.102 362.994 705.033 362.296C705.977 361.584 707.271 361.228 708.913 361.228H714.19ZM708.975 363.836C708.29 363.836 707.77 363.959 707.414 364.206C707.072 364.452 706.901 364.849 706.901 365.397C706.901 365.944 707.065 366.348 707.394 366.608C707.736 366.854 708.249 366.978 708.934 366.978H711.336V363.836H708.975Z" fill="#20201F"/>
<path d="M666.555 387.188V401.561H663.229V389.857H660.354V387.188H666.555ZM675.212 401.807C674.021 401.807 672.96 401.513 672.029 400.924C671.099 400.336 670.366 399.487 669.832 398.378C669.312 397.256 669.052 395.921 669.052 394.374C669.052 392.828 669.312 391.5 669.832 390.391C670.366 389.268 671.099 388.413 672.029 387.824C672.96 387.236 674.021 386.941 675.212 386.941C676.403 386.941 677.464 387.236 678.395 387.824C679.325 388.413 680.051 389.268 680.571 390.391C681.105 391.5 681.372 392.828 681.372 394.374C681.372 395.921 681.105 397.256 680.571 398.378C680.051 399.487 679.325 400.336 678.395 400.924C677.464 401.513 676.403 401.807 675.212 401.807ZM675.212 398.994C676.088 398.994 676.772 398.618 677.265 397.865C677.772 397.112 678.025 395.948 678.025 394.374C678.025 392.8 677.772 391.637 677.265 390.884C676.772 390.131 676.088 389.754 675.212 389.754C674.35 389.754 673.665 390.131 673.159 390.884C672.666 391.637 672.42 392.8 672.42 394.374C672.42 395.948 672.666 397.112 673.159 397.865C673.665 398.618 674.35 398.994 675.212 398.994ZM684.616 401.725C684.055 401.725 683.583 401.533 683.2 401.15C682.816 400.767 682.625 400.288 682.625 399.713C682.625 399.124 682.816 398.652 683.2 398.296C683.583 397.926 684.055 397.742 684.616 397.742C685.178 397.742 685.65 397.926 686.033 398.296C686.416 398.652 686.608 399.124 686.608 399.713C686.608 400.288 686.416 400.767 686.033 401.15C685.65 401.533 685.178 401.725 684.616 401.725ZM693.324 387.188V401.561H689.998V389.857H687.123V387.188H693.324ZM706.56 398.85V401.561H695.698V399.405L701.242 394.169C701.83 393.608 702.227 393.129 702.433 392.732C702.638 392.321 702.741 391.917 702.741 391.52C702.741 390.945 702.542 390.507 702.145 390.206C701.762 389.891 701.194 389.734 700.441 389.734C699.811 389.734 699.243 389.857 698.737 390.103C698.23 390.336 697.806 390.692 697.464 391.171L695.041 389.611C695.602 388.776 696.375 388.125 697.361 387.66C698.347 387.181 699.476 386.941 700.749 386.941C701.817 386.941 702.747 387.119 703.541 387.475C704.349 387.818 704.972 388.31 705.41 388.954C705.862 389.583 706.087 390.329 706.087 391.192C706.087 391.972 705.923 392.704 705.595 393.389C705.266 394.073 704.63 394.853 703.685 395.729L700.379 398.85H706.56Z" fill="#20201F"/>
<path d="M436.477 160.599L433.471 156.639L430.447 160.599H429.007L432.751 155.739L429.187 151.131H430.627L433.471 154.839L436.315 151.131H437.719L434.155 155.739L437.935 160.599H436.477ZM443.602 160.689C442.69 160.689 441.868 160.485 441.136 160.077C440.404 159.657 439.828 159.081 439.408 158.349C438.988 157.617 438.778 156.789 438.778 155.865C438.778 154.941 438.988 154.113 439.408 153.381C439.828 152.649 440.404 152.079 441.136 151.671C441.868 151.263 442.69 151.059 443.602 151.059C444.514 151.059 445.336 151.263 446.068 151.671C446.8 152.079 447.37 152.649 447.778 153.381C448.198 154.113 448.408 154.941 448.408 155.865C448.408 156.789 448.198 157.617 447.778 158.349C447.37 159.081 446.8 159.657 446.068 160.077C445.336 160.485 444.514 160.689 443.602 160.689ZM443.602 159.555C444.274 159.555 444.874 159.405 445.402 159.105C445.942 158.793 446.362 158.355 446.662 157.791C446.962 157.227 447.112 156.585 447.112 155.865C447.112 155.145 446.962 154.503 446.662 153.939C446.362 153.375 445.942 152.943 445.402 152.643C444.874 152.331 444.274 152.175 443.602 152.175C442.93 152.175 442.324 152.331 441.784 152.643C441.256 152.943 440.836 153.375 440.524 153.939C440.224 154.503 440.074 155.145 440.074 155.865C440.074 156.585 440.224 157.227 440.524 157.791C440.836 158.355 441.256 158.793 441.784 159.105C442.324 159.405 442.93 159.555 443.602 159.555ZM458.826 151.131V160.599H457.548V152.265H453.012L452.886 154.605C452.79 156.573 452.562 158.085 452.202 159.141C451.842 160.197 451.2 160.725 450.276 160.725C450.024 160.725 449.718 160.677 449.358 160.581L449.448 159.483C449.664 159.531 449.814 159.555 449.898 159.555C450.39 159.555 450.762 159.327 451.014 158.871C451.266 158.415 451.434 157.851 451.518 157.179C451.602 156.507 451.674 155.619 451.734 154.515L451.896 151.131H458.826ZM470.199 151.131V160.599H468.921V152.265H464.385L464.259 154.605C464.163 156.573 463.935 158.085 463.575 159.141C463.215 160.197 462.573 160.725 461.649 160.725C461.397 160.725 461.091 160.677 460.731 160.581L460.821 159.483C461.037 159.531 461.187 159.555 461.271 159.555C461.763 159.555 462.135 159.327 462.387 158.871C462.639 158.415 462.807 157.851 462.891 157.179C462.975 156.507 463.047 155.619 463.107 154.515L463.269 151.131H470.199Z" fill="#20201F"/>
<path d="M433.494 177.285V189.885H432.198V178.437H429.228V177.285H433.494ZM441.528 189.993C440.556 189.993 439.686 189.735 438.918 189.219C438.162 188.703 437.568 187.965 437.136 187.005C436.716 186.033 436.506 184.893 436.506 183.585C436.506 182.277 436.716 181.143 437.136 180.183C437.568 179.211 438.162 178.467 438.918 177.951C439.686 177.435 440.556 177.177 441.528 177.177C442.5 177.177 443.364 177.435 444.12 177.951C444.888 178.467 445.488 179.211 445.92 180.183C446.352 181.143 446.568 182.277 446.568 183.585C446.568 184.893 446.352 186.033 445.92 187.005C445.488 187.965 444.888 188.703 444.12 189.219C443.364 189.735 442.5 189.993 441.528 189.993ZM441.528 188.805C442.26 188.805 442.902 188.601 443.454 188.193C444.018 187.785 444.456 187.191 444.768 186.411C445.08 185.631 445.236 184.689 445.236 183.585C445.236 182.481 445.08 181.539 444.768 180.759C444.456 179.979 444.018 179.385 443.454 178.977C442.902 178.569 442.26 178.365 441.528 178.365C440.796 178.365 440.148 178.569 439.584 178.977C439.032 179.385 438.6 179.979 438.288 180.759C437.976 181.539 437.82 182.481 437.82 183.585C437.82 184.689 437.976 185.631 438.288 186.411C438.6 187.191 439.032 187.785 439.584 188.193C440.148 188.601 440.796 188.805 441.528 188.805ZM449.202 189.975C448.938 189.975 448.71 189.879 448.518 189.687C448.338 189.495 448.248 189.261 448.248 188.985C448.248 188.709 448.338 188.481 448.518 188.301C448.71 188.109 448.938 188.013 449.202 188.013C449.466 188.013 449.694 188.109 449.886 188.301C450.078 188.481 450.174 188.709 450.174 188.985C450.174 189.261 450.078 189.495 449.886 189.687C449.694 189.879 449.466 189.975 449.202 189.975ZM460.824 188.733V189.885H451.986V188.967L457.224 183.837C457.884 183.189 458.328 182.631 458.556 182.163C458.796 181.683 458.916 181.203 458.916 180.723C458.916 179.979 458.658 179.403 458.142 178.995C457.638 178.575 456.912 178.365 455.964 178.365C454.488 178.365 453.342 178.833 452.526 179.769L451.608 178.977C452.1 178.401 452.724 177.957 453.48 177.645C454.248 177.333 455.112 177.177 456.072 177.177C457.356 177.177 458.37 177.483 459.114 178.095C459.87 178.695 460.248 179.523 460.248 180.579C460.248 181.227 460.104 181.851 459.816 182.451C459.528 183.051 458.982 183.741 458.178 184.521L453.894 188.733H460.824ZM471.055 188.733V189.885H462.217V188.967L467.455 183.837C468.115 183.189 468.559 182.631 468.787 182.163C469.027 181.683 469.147 181.203 469.147 180.723C469.147 179.979 468.889 179.403 468.373 178.995C467.869 178.575 467.143 178.365 466.195 178.365C464.719 178.365 463.573 178.833 462.757 179.769L461.839 178.977C462.331 178.401 462.955 177.957 463.711 177.645C464.479 177.333 465.343 177.177 466.303 177.177C467.587 177.177 468.601 177.483 469.345 178.095C470.101 178.695 470.479 179.523 470.479 180.579C470.479 181.227 470.335 181.851 470.047 182.451C469.759 183.051 469.213 183.741 468.409 184.521L464.125 188.733H471.055Z" fill="#20201F"/>
<path d="M825.047 345.218V354.687H823.769V346.352H819.233L819.107 348.692C819.011 350.66 818.783 352.172 818.423 353.228C818.063 354.285 817.421 354.813 816.497 354.813C816.245 354.813 815.939 354.765 815.579 354.669L815.669 353.571C815.885 353.619 816.035 353.643 816.119 353.643C816.611 353.643 816.983 353.415 817.235 352.958C817.487 352.502 817.655 351.938 817.739 351.266C817.823 350.594 817.895 349.706 817.955 348.602L818.117 345.218H825.047ZM832.586 354.777C831.674 354.777 830.852 354.573 830.12 354.165C829.388 353.745 828.812 353.168 828.392 352.436C827.972 351.704 827.762 350.876 827.762 349.952C827.762 349.028 827.972 348.2 828.392 347.468C828.812 346.736 829.388 346.166 830.12 345.758C830.852 345.35 831.674 345.146 832.586 345.146C833.498 345.146 834.32 345.35 835.052 345.758C835.784 346.166 836.354 346.736 836.762 347.468C837.182 348.2 837.392 349.028 837.392 349.952C837.392 350.876 837.182 351.704 836.762 352.436C836.354 353.168 835.784 353.745 835.052 354.165C834.32 354.573 833.498 354.777 832.586 354.777ZM832.586 353.643C833.258 353.643 833.858 353.493 834.386 353.192C834.926 352.88 835.346 352.442 835.646 351.878C835.946 351.314 836.096 350.672 836.096 349.952C836.096 349.232 835.946 348.59 835.646 348.026C835.346 347.462 834.926 347.03 834.386 346.73C833.858 346.418 833.258 346.262 832.586 346.262C831.914 346.262 831.308 346.418 830.768 346.73C830.24 347.03 829.82 347.462 829.508 348.026C829.208 348.59 829.058 349.232 829.058 349.952C829.058 350.672 829.208 351.314 829.508 351.878C829.82 352.442 830.24 352.88 830.768 353.192C831.308 353.493 831.914 353.643 832.586 353.643ZM849.305 353.571V356.973H848.099V354.687H839.621V356.973H838.415V353.571H838.955C839.591 353.535 840.023 353.066 840.251 352.166C840.479 351.266 840.635 350.006 840.719 348.386L840.845 345.218H847.829V353.571H849.305ZM841.889 348.458C841.829 349.802 841.715 350.912 841.547 351.788C841.379 352.652 841.079 353.246 840.647 353.571H846.551V346.352H841.997L841.889 348.458ZM860.094 350.474H858.042V354.687H856.763V350.474H854.711L851.813 354.687H850.283L853.685 349.808L850.553 345.218H851.939L854.711 349.376H856.763V345.218H858.042V349.376H860.094L862.884 345.218H864.27L861.138 349.826L864.54 354.687H863.01L860.094 350.474ZM866.667 345.218H867.945V352.742L874.263 345.218H875.397V354.687H874.119V347.162L867.819 354.687H866.667V345.218ZM886.332 345.218V354.687H885.162V351.554H882.192H881.832L879.636 354.687H878.25L880.608 351.374C879.876 351.17 879.312 350.822 878.916 350.33C878.52 349.838 878.322 349.214 878.322 348.458C878.322 347.402 878.682 346.598 879.402 346.046C880.122 345.494 881.106 345.218 882.354 345.218H886.332ZM879.618 348.494C879.618 349.898 880.512 350.6 882.3 350.6H885.162V346.352H882.39C880.542 346.352 879.618 347.066 879.618 348.494Z" fill="#20201F"/>
<path d="M839.573 376.772C840.893 376.844 841.895 377.204 842.579 377.852C843.275 378.488 843.623 379.322 843.623 380.354C843.623 381.074 843.449 381.716 843.101 382.28C842.753 382.832 842.237 383.27 841.553 383.594C840.869 383.918 840.035 384.08 839.051 384.08C838.139 384.08 837.275 383.936 836.459 383.648C835.655 383.348 835.007 382.952 834.515 382.46L835.145 381.434C835.565 381.866 836.123 382.22 836.819 382.496C837.515 382.76 838.259 382.892 839.051 382.892C840.083 382.892 840.881 382.67 841.445 382.226C842.009 381.77 842.291 381.146 842.291 380.354C842.291 379.574 842.009 378.962 841.445 378.518C840.881 378.074 840.029 377.852 838.889 377.852H837.989V376.898L841.481 372.524H835.037V371.372H843.137V372.29L839.573 376.772ZM846.421 384.062C846.157 384.062 845.929 383.966 845.737 383.774C845.557 383.582 845.467 383.348 845.467 383.072C845.467 382.796 845.557 382.568 845.737 382.388C845.929 382.196 846.157 382.1 846.421 382.1C846.685 382.1 846.913 382.196 847.105 382.388C847.297 382.568 847.393 382.796 847.393 383.072C847.393 383.348 847.297 383.582 847.105 383.774C846.913 383.966 846.685 384.062 846.421 384.062ZM854.29 376.43C855.118 376.43 855.85 376.586 856.486 376.898C857.134 377.21 857.638 377.654 857.998 378.23C858.358 378.794 858.538 379.454 858.538 380.21C858.538 380.978 858.352 381.656 857.98 382.244C857.608 382.832 857.092 383.288 856.432 383.612C855.784 383.924 855.052 384.08 854.236 384.08C852.568 384.08 851.29 383.534 850.402 382.442C849.514 381.338 849.07 379.784 849.07 377.78C849.07 376.376 849.31 375.188 849.79 374.216C850.27 373.244 850.942 372.512 851.806 372.02C852.67 371.516 853.678 371.264 854.83 371.264C856.078 371.264 857.074 371.492 857.818 371.948L857.296 372.992C856.696 372.596 855.88 372.398 854.848 372.398C853.456 372.398 852.364 372.842 851.572 373.73C850.78 374.606 850.384 375.884 850.384 377.564C850.384 377.864 850.402 378.206 850.438 378.59C850.75 377.906 851.248 377.378 851.932 377.006C852.616 376.622 853.402 376.43 854.29 376.43ZM854.182 382.982C855.094 382.982 855.832 382.736 856.396 382.244C856.972 381.74 857.26 381.074 857.26 380.246C857.26 379.418 856.972 378.758 856.396 378.266C855.832 377.774 855.064 377.528 854.092 377.528C853.456 377.528 852.892 377.648 852.4 377.888C851.92 378.128 851.542 378.458 851.266 378.878C850.99 379.298 850.852 379.766 850.852 380.282C850.852 380.762 850.978 381.206 851.23 381.614C851.494 382.022 851.878 382.352 852.382 382.604C852.886 382.856 853.486 382.982 854.182 382.982ZM863.351 376.538C865.175 376.538 866.501 376.868 867.329 377.528C868.169 378.176 868.589 379.088 868.589 380.264C868.589 380.996 868.415 381.65 868.067 382.226C867.731 382.802 867.221 383.258 866.537 383.594C865.853 383.918 865.013 384.08 864.017 384.08C863.117 384.08 862.259 383.936 861.443 383.648C860.639 383.348 859.991 382.952 859.499 382.46L860.129 381.434C860.549 381.866 861.101 382.22 861.785 382.496C862.469 382.76 863.207 382.892 863.999 382.892C865.043 382.892 865.847 382.658 866.411 382.19C866.987 381.722 867.275 381.098 867.275 380.318C867.275 379.454 866.951 378.8 866.303 378.356C865.667 377.912 864.587 377.69 863.063 377.69H860.381L861.029 371.372H867.923V372.524H862.163L861.731 376.538H863.351Z" fill="#20201F"/>
<path d="M440.814 393.975C442.134 394.047 443.136 394.407 443.82 395.055C444.516 395.691 444.864 396.525 444.864 397.557C444.864 398.277 444.69 398.919 444.342 399.483C443.994 400.035 443.478 400.473 442.794 400.797C442.11 401.121 441.276 401.283 440.292 401.283C439.38 401.283 438.516 401.139 437.7 400.851C436.896 400.551 436.248 400.155 435.756 399.663L436.386 398.637C436.806 399.069 437.364 399.423 438.06 399.699C438.756 399.963 439.5 400.095 440.292 400.095C441.324 400.095 442.122 399.873 442.686 399.429C443.25 398.973 443.532 398.349 443.532 397.557C443.532 396.777 443.25 396.165 442.686 395.721C442.122 395.277 441.27 395.055 440.13 395.055H439.23V394.101L442.722 389.727H436.278V388.575H444.378V389.493L440.814 393.975ZM447.663 401.265C447.399 401.265 447.171 401.169 446.979 400.977C446.799 400.785 446.709 400.551 446.709 400.275C446.709 399.999 446.799 399.771 446.979 399.591C447.171 399.399 447.399 399.303 447.663 399.303C447.927 399.303 448.155 399.399 448.347 399.591C448.539 399.771 448.635 399.999 448.635 400.275C448.635 400.551 448.539 400.785 448.347 400.977C448.155 401.169 447.927 401.265 447.663 401.265ZM453.817 393.741C455.641 393.741 456.967 394.071 457.795 394.731C458.635 395.379 459.055 396.291 459.055 397.467C459.055 398.199 458.881 398.853 458.533 399.429C458.197 400.005 457.687 400.461 457.003 400.797C456.319 401.121 455.479 401.283 454.483 401.283C453.583 401.283 452.725 401.139 451.909 400.851C451.105 400.551 450.457 400.155 449.965 399.663L450.595 398.637C451.015 399.069 451.567 399.423 452.251 399.699C452.935 399.963 453.673 400.095 454.465 400.095C455.509 400.095 456.313 399.861 456.877 399.393C457.453 398.925 457.741 398.301 457.741 397.521C457.741 396.657 457.417 396.003 456.769 395.559C456.133 395.115 455.053 394.893 453.529 394.893H450.847L451.495 388.575H458.389V389.727H452.629L452.197 393.741H453.817ZM465.722 401.283C464.75 401.283 463.88 401.025 463.112 400.509C462.356 399.993 461.762 399.255 461.33 398.295C460.91 397.323 460.7 396.183 460.7 394.875C460.7 393.567 460.91 392.433 461.33 391.473C461.762 390.501 462.356 389.757 463.112 389.241C463.88 388.725 464.75 388.467 465.722 388.467C466.694 388.467 467.558 388.725 468.314 389.241C469.082 389.757 469.682 390.501 470.114 391.473C470.546 392.433 470.762 393.567 470.762 394.875C470.762 396.183 470.546 397.323 470.114 398.295C469.682 399.255 469.082 399.993 468.314 400.509C467.558 401.025 466.694 401.283 465.722 401.283ZM465.722 400.095C466.454 400.095 467.096 399.891 467.648 399.483C468.212 399.075 468.65 398.481 468.962 397.701C469.274 396.921 469.43 395.979 469.43 394.875C469.43 393.771 469.274 392.829 468.962 392.049C468.65 391.269 468.212 390.675 467.648 390.267C467.096 389.859 466.454 389.655 465.722 389.655C464.99 389.655 464.342 389.859 463.778 390.267C463.226 390.675 462.794 391.269 462.482 392.049C462.17 392.829 462.014 393.771 462.014 394.875C462.014 395.979 462.17 396.921 462.482 397.701C462.794 398.481 463.226 399.075 463.778 399.483C464.342 399.891 464.99 400.095 465.722 400.095Z" fill="#20201F"/>
<path d="M542.563 391.615V404.215H541.267V392.767H538.297V391.615H542.563ZM546.547 404.305C546.283 404.305 546.055 404.209 545.863 404.017C545.683 403.825 545.593 403.591 545.593 403.315C545.593 403.039 545.683 402.811 545.863 402.631C546.055 402.439 546.283 402.343 546.547 402.343C546.811 402.343 547.039 402.439 547.231 402.631C547.423 402.811 547.519 403.039 547.519 403.315C547.519 403.591 547.423 403.825 547.231 404.017C547.039 404.209 546.811 404.305 546.547 404.305ZM556.783 397.609C557.575 397.873 558.181 398.269 558.601 398.797C559.033 399.325 559.249 399.961 559.249 400.705C559.249 401.437 559.051 402.079 558.655 402.631C558.259 403.171 557.689 403.591 556.945 403.891C556.213 404.179 555.349 404.323 554.353 404.323C552.841 404.323 551.653 403.999 550.789 403.351C549.925 402.703 549.493 401.821 549.493 400.705C549.493 399.949 549.697 399.313 550.105 398.797C550.525 398.269 551.131 397.873 551.923 397.609C551.275 397.357 550.783 396.997 550.447 396.529C550.111 396.049 549.943 395.485 549.943 394.837C549.943 393.817 550.339 393.007 551.131 392.407C551.935 391.807 553.009 391.507 554.353 391.507C555.241 391.507 556.015 391.645 556.675 391.921C557.347 392.185 557.869 392.569 558.241 393.073C558.613 393.577 558.799 394.165 558.799 394.837C558.799 395.485 558.625 396.049 558.277 396.529C557.929 396.997 557.431 397.357 556.783 397.609ZM551.239 394.873C551.239 395.569 551.515 396.121 552.067 396.529C552.619 396.937 553.381 397.141 554.353 397.141C555.325 397.141 556.087 396.937 556.639 396.529C557.203 396.121 557.485 395.575 557.485 394.891C557.485 394.183 557.197 393.625 556.621 393.217C556.057 392.809 555.301 392.605 554.353 392.605C553.393 392.605 552.631 392.809 552.067 393.217C551.515 393.625 551.239 394.177 551.239 394.873ZM554.353 403.225C555.469 403.225 556.339 402.997 556.963 402.541C557.599 402.085 557.917 401.467 557.917 400.687C557.917 399.907 557.599 399.295 556.963 398.851C556.339 398.395 555.469 398.167 554.353 398.167C553.249 398.167 552.379 398.395 551.743 398.851C551.119 399.295 550.807 399.907 550.807 400.687C550.807 401.479 551.119 402.103 551.743 402.559C552.367 403.003 553.237 403.225 554.353 403.225ZM564.356 396.781C566.18 396.781 567.506 397.111 568.334 397.771C569.174 398.419 569.594 399.331 569.594 400.507C569.594 401.239 569.42 401.893 569.072 402.469C568.736 403.045 568.226 403.501 567.542 403.837C566.858 404.161 566.018 404.323 565.022 404.323C564.122 404.323 563.264 404.179 562.448 403.891C561.644 403.591 560.996 403.195 560.504 402.703L561.134 401.677C561.554 402.109 562.106 402.463 562.79 402.739C563.474 403.003 564.212 403.135 565.004 403.135C566.048 403.135 566.852 402.901 567.416 402.433C567.992 401.965 568.28 401.341 568.28 400.561C568.28 399.697 567.956 399.043 567.308 398.599C566.672 398.155 565.592 397.933 564.068 397.933H561.386L562.034 391.615H568.928V392.767H563.168L562.736 396.781H564.356Z" fill="#20201F"/>
</g>
<defs>
<clipPath id="clip0_2384_28738">
<rect width="854.585" height="437.171" fill="white" transform="translate(48 56)"/>
</clipPath>
</defs>
</svg>
