<svg width="950" height="550" fill="none" xmlns="http://www.w3.org/2000/svg"><path fill="#fff" d="M0 0h950v550H0z"/><g clip-path="url(#a)"><path fill-rule="evenodd" clip-rule="evenodd" d="M902.585 79.947v413.224H104.894V306.322H48V56h854.585v23.947z" fill="#D3001B"/><path d="M617.524 56H48v14.966h569.524V56z" fill="#CFD0D0"/><path fill-rule="evenodd" clip-rule="evenodd" d="M104.894 493.171h797.691V56H48v250.322h56.894v186.849z" fill="#208832"/><path fill-rule="evenodd" clip-rule="evenodd" d="M902.585 79.947H874.47v-8.98H610.338V56h292.247v23.947z" fill="#FFE900"/><path fill-rule="evenodd" clip-rule="evenodd" d="M104.894 493.171h797.691V56H48v250.322h56.894v186.849z" fill="#F6D6B9"/><path fill-rule="evenodd" clip-rule="evenodd" d="M902.585 79.947H874.47v-8.98H610.338V56h292.247v23.947z" fill="#E4CDA1"/><path d="M135.436 275.784H63.572v14.967h71.864v-14.967zM359.412 275.784h-71.866v14.967h71.866v-14.967zM682.205 275.784h-71.867v14.967h71.867v-14.967zM887.015 275.784h-71.859v14.967h71.859v-14.967zM887.015 478.195h-14.967v14.976h14.967v-14.976zM135.437 478.195h-14.972v14.976h14.972v-14.976zM887.015 56h-14.967v14.967h14.967V56zM670.223 56h-14.967v14.967h14.967V56z" fill="#20201F"/><path d="M872.048 56H490.875v14.967h381.173V56zM430.982 56H48v14.967h382.982V56zM872.048 478.195H135.437v14.976h736.611v-14.976z" fill="#20201F"/><path d="M803.778 388.963h-22.757v89.232h22.757v-89.232zM803.778 275.784h-22.757v38.327h22.757v-38.327z" fill="#20201F"/><path d="M815.156 275.784h-34.135v22.757h34.135v-22.757zM894.804 242.245h-22.756v54.493h22.756v-54.493zM894.804 56h-22.756v60.48h22.756V56zM78.544 70.967H55.787v56.296h22.757V70.967zM78.544 253.028H55.787v45.513h22.757v-45.513z" fill="#20201F"/><path d="M135.437 290.751h-79.65v7.79h79.65v-7.79zM135.436 298.541h-22.757v38.327h22.757v-38.327zM135.436 462.624h-22.757v15.571h22.757v-15.571zM902.585 56h-7.781v64.077h7.781V56zM902.585 238.648h-7.781v58.09h7.781v-58.09zM902.585 299.136h-87.429v7.186h87.429v-7.186zM815.156 298.541h-11.378v7.781h11.378v-7.781zM811.559 306.322h-7.781v7.789h7.781v-7.789zM811.559 388.963h-7.781v89.232h7.781v-89.232zM902.585 462.624h-91.026v7.195h91.026v-7.195zM902.585 469.819h-7.186v23.352h7.186v-23.352zM112.679 459.616h-7.785v33.555h7.785v-33.555zM112.679 298.541h-7.785v41.916h7.785v-41.916z" fill="#20201F"/><path d="M112.679 298.541H48.002v7.781h64.677v-7.781z" fill="#20201F"/><path d="M55.905 249.431h-7.903v56.891h7.903v-56.891zM55.787 70.967h-7.785v59.885h7.785V70.967z" fill="#20201F"/><path d="M48.002 79.352H48v7.186h.002v-7.186zM902.585 287.273h-91.636v13.976h91.636v-13.976zM896.63 468.176h-86.766v12.516h86.766v-12.516z" fill="#20201F"/><path d="M898.992 478.195h-14.174v14.976h14.174v-14.976zM51.662 68H48v13.457h3.662V68zM124.058 473.297h-15.271v19.874h15.271v-19.874zM902.585 306.322h-7.186v156.302h7.186V306.322zM364.209 70.967h-4.797v73.074h4.797V70.967z" fill="#20201F"/><path d="M403.701 138.981h-44.289v4.788h44.289v-4.788z" fill="#20201F"/><path d="M403.701 137.629h-4.796v81.196h4.796v-81.196z" fill="#20201F"/><path d="M401.686 210.704h-42.274v5.068h42.274v-5.068zM403.701 272.723h-4.796v20.426h4.796v-20.426zM398.905 275.784h-39.493v4.788h39.493v-4.788zM287.545 275.784H135.436v4.788h152.109v-4.788zM460.524 349.445h-61.619v4.788h61.619v-4.788z" fill="#20201F"/><path d="M403.701 347.047h-4.796v131.148h4.796V347.047zM523.045 349.445H502.44v4.788h20.605v-4.788z" fill="#20201F"/><path d="M518.606 349.445h-4.788v128.75h4.788v-128.75zM593.228 349.445h-28.259v4.788h28.259v-4.788z" fill="#20201F"/><path d="M593.228 338.662h-4.788v15.571h4.788v-15.571zM593.228 457.241h-4.788v20.954h4.788v-20.954zM593.228 354.233h-4.788v103.008h4.788V354.233zM511.531 223.885h-4.796v56.687h4.796v-56.687z" fill="#20201F"/><path d="M610.338 275.784H506.735v4.788h103.603v-4.788z" fill="#20201F"/><path d="M593.228 278.498h-4.788v12.253h4.788v-12.253zM781.021 275.784h-98.816v4.788h98.816v-4.788zM511.531 70.967h-4.796v75.064h4.796V70.967zM902.567 120.069h-3.852v118.587h3.852V120.069zM894.802 116.48h-3.851v125.766h3.851V116.48zM875.897 116.48h-3.851v125.766h3.851V116.48zM108.746 340.457h-3.852v118.587h3.852V340.457zM116.51 336.868h-3.851v125.766h3.851V336.868zM135.415 336.868h-3.851v125.766h3.851V336.868zM51.852 130.853H48V249.44h3.852V130.853zM59.616 127.264h-3.851v125.765h3.851V127.264zM78.522 127.264H74.67v125.765h3.852V127.264zM811.542 362.016h-3.853v26.946h3.853v-26.946zM803.776 362.016h-3.851v26.947h3.851v-26.947zM784.871 362.016h-3.851v26.947h3.851v-26.947z" fill="#20201F"/><path d="M811.563 362.016H781.02v2.827h30.543v-2.827z" fill="#20201F"/><path fill-rule="evenodd" clip-rule="evenodd" d="M484.853 64.415a1.702 1.702 0 0 1 3.402 0v35.997a1.7 1.7 0 0 1-3.402 0V64.415zM433.49 64.075a.85.85 0 1 1 1.7 0c0 9.762 5.018 18.612 13.13 25.028 8.168 6.46 19.466 10.458 31.953 10.458a.85.85 0 0 1 0 1.701c-12.873 0-24.545-4.14-33.003-10.83-8.513-6.735-13.78-16.053-13.78-26.358zM509.186 151.381a1.702 1.702 0 0 1 0-3.402h35.996a1.702 1.702 0 0 1 0 3.402h-35.996zM508.844 184.298a.85.85 0 1 1 0-1.701c9.832 0 18.725-3.253 25.154-8.508 6.384-5.219 10.334-12.415 10.334-20.347a.85.85 0 1 1 1.7 0c0 8.469-4.188 16.128-10.957 21.662-6.721 5.493-15.996 8.894-26.231 8.894zM509.191 221.737a1.701 1.701 0 0 1 0-3.401h35.999a1.701 1.701 0 0 1 0 3.401h-35.999zM508.851 187.116a.85.85 0 0 1 0-1.701c10.234 0 19.511 3.402 26.232 8.896 6.769 5.534 10.957 13.195 10.957 21.664a.85.85 0 0 1-1.701 0c0-7.932-3.95-15.13-10.333-20.349-6.429-5.256-15.323-8.51-25.155-8.51zM400.869 268.145a1.702 1.702 0 0 1 0 3.402h-35.996a1.702 1.702 0 0 1 0-3.402h35.996zM401.21 220.762a.85.85 0 1 1 0 1.701c-9.774 0-18.631 4.636-25.048 12.13-6.45 7.53-10.439 17.944-10.439 29.451a.85.85 0 1 1-1.701 0c0-11.921 4.147-22.726 10.851-30.553 6.734-7.864 16.046-12.729 26.337-12.729zM401.657 345.821a1.702 1.702 0 0 1 0-3.402h35.996a1.702 1.702 0 0 1 0 3.402h-35.996zM401.316 296.737a.85.85 0 1 1 0-1.701c10.291 0 19.603 4.865 26.337 12.729 6.704 7.827 10.85 18.632 10.85 30.554a.85.85 0 0 1-1.7 0c0-11.508-3.99-21.922-10.439-29.452-6.417-7.494-15.274-12.13-25.048-12.13zM501.449 352.592a1.7 1.7 0 0 1-3.402 0v-35.997a1.701 1.701 0 0 1 3.402 0v35.997zM463.182 352.933a.85.85 0 0 1-1.701 0c0-10.249 3.771-19.534 9.865-26.261 6.114-6.751 14.566-10.927 23.901-10.927a.85.85 0 0 1 0 1.701c-8.839 0-16.848 3.96-22.646 10.362-5.82 6.424-9.419 15.306-9.419 25.125zM527.391 352.592a1.7 1.7 0 0 1-3.402 0v-35.997a1.701 1.701 0 0 1 3.402 0v35.997zM563.957 352.933a.85.85 0 0 1-1.701 0c0-9.819-3.599-18.701-9.419-25.125-5.798-6.402-13.807-10.362-22.646-10.362a.85.85 0 0 1 0-1.701c9.335 0 17.787 4.176 23.901 10.927 6.094 6.727 9.865 16.012 9.865 26.261zM591.608 291.013a1.702 1.702 0 0 1 0 3.402h-35.996a1.702 1.702 0 0 1 0-3.402h35.996zM591.949 335.495a.851.851 0 1 1 0 1.701c-10.275 0-19.576-4.399-26.307-11.508-6.722-7.1-10.88-16.905-10.88-27.726a.85.85 0 0 1 1.7 0c0 10.373 3.979 19.764 10.409 26.556 6.421 6.781 15.288 10.977 25.078 10.977z" fill="#20201F"/><path fill-rule="evenodd" clip-rule="evenodd" d="M591.608 291.013a1.702 1.702 0 0 1 0 3.402h-35.996a1.702 1.702 0 0 1 0-3.402h35.996zM591.949 335.495a.851.851 0 1 1 0 1.701c-10.275 0-19.576-4.399-26.307-11.508-6.722-7.1-10.88-16.905-10.88-27.726a.85.85 0 0 1 1.7 0c0 10.373 3.979 19.764 10.409 26.556 6.421 6.781 15.288 10.977 25.078 10.977zM801.922 315.638a1.701 1.701 0 0 1 0 3.401h-35.997a1.7 1.7 0 0 1 0-3.401h35.997zM802.263 358.364a.85.85 0 0 1 0 1.701c-10.269 0-19.566-4.223-26.298-11.047-6.728-6.821-10.89-16.242-10.89-26.642a.85.85 0 0 1 1.701 0c0 9.94 3.974 18.941 10.398 25.453 6.42 6.508 15.29 10.535 25.089 10.535zM738.183 439.557h-90.354v36.142h91.417v-36.142h-1.063zm-62.075 4.274c.994 0 1.9.406 2.554 1.064a3.608 3.608 0 0 1 1.061 2.55v20.409a3.625 3.625 0 0 1-3.615 3.614h-20.41a3.622 3.622 0 0 1-3.613-3.614v-20.409c0-.995.406-1.9 1.063-2.551a3.6 3.6 0 0 1 2.55-1.063h20.41zm51.565 1.689a4.99 4.99 0 0 1 3.532 1.464 4.982 4.982 0 0 1 1.464 3.532 4.98 4.98 0 0 1-1.467 3.531 4.983 4.983 0 0 1-7.059-.001 4.975 4.975 0 0 1-1.466-3.53c0-1.378.56-2.628 1.464-3.532a4.982 4.982 0 0 1 3.532-1.464zm0 13.163a6.04 6.04 0 0 1 4.283 1.775 6.047 6.047 0 0 1 1.776 4.284c0 1.672-.68 3.187-1.776 4.283a6.041 6.041 0 0 1-4.283 1.776 6.043 6.043 0 0 1-4.283-1.776 6.037 6.037 0 0 1-1.776-4.283c0-1.671.679-3.187 1.776-4.284a6.042 6.042 0 0 1 4.283-1.775zm-3.232 2.826a4.561 4.561 0 0 1 3.232-1.338 4.56 4.56 0 0 1 3.232 1.338 4.562 4.562 0 0 1 1.339 3.233 4.558 4.558 0 0 1-1.339 3.232 4.556 4.556 0 0 1-3.232 1.339 4.558 4.558 0 0 1-3.232-1.339 4.558 4.558 0 0 1-1.339-3.232c0-1.262.513-2.407 1.339-3.233zm-9.763-17.052a6.04 6.04 0 0 1 4.283 1.775 6.04 6.04 0 0 1 1.776 4.284 6.044 6.044 0 0 1-1.775 4.284 6.043 6.043 0 0 1-4.284 1.775 6.041 6.041 0 0 1-4.283-1.776 6.043 6.043 0 0 1-1.776-4.283c0-1.671.68-3.188 1.776-4.284a6.042 6.042 0 0 1 4.283-1.775zm-3.232 2.826a4.557 4.557 0 0 1 3.232-1.338c1.263 0 2.407.512 3.232 1.338a4.56 4.56 0 0 1 1.339 3.233 4.561 4.561 0 0 1-1.338 3.233 4.561 4.561 0 0 1-3.233 1.337 4.555 4.555 0 0 1-3.232-1.338 4.56 4.56 0 0 1-1.339-3.232c0-1.262.513-2.407 1.339-3.233zm3.232 12.463a4.99 4.99 0 0 1 3.532 1.464 4.982 4.982 0 0 1 1.464 3.532 4.98 4.98 0 0 1-1.467 3.531 4.983 4.983 0 0 1-7.059-.001 4.975 4.975 0 0 1-1.466-3.53c0-1.378.56-2.628 1.464-3.532a4.982 4.982 0 0 1 3.532-1.464zm-2.48 2.515a3.5 3.5 0 0 1 2.48-1.027c.971 0 1.849.392 2.481 1.025a3.512 3.512 0 0 1-2.481 5.991 3.496 3.496 0 0 1-2.48-1.028 3.48 3.48 0 0 1-1.028-2.48 3.5 3.5 0 0 1 1.028-2.481zm12.994-14.226a3.5 3.5 0 0 1 2.481-1.027 3.498 3.498 0 0 1 3.508 3.508c0 .971-.392 1.848-1.025 2.48a3.496 3.496 0 0 1-2.483 1.027 3.5 3.5 0 0 1-2.481-1.027 3.486 3.486 0 0 1-1.027-2.48c0-.969.394-1.847 1.027-2.481zm-69.494-2.078h20.41c.408 0 .781.168 1.051.438.27.267.438.64.438 1.05v20.409a1.486 1.486 0 0 1-1.489 1.488h-20.41a1.48 1.48 0 0 1-1.049-.433 1.504 1.504 0 0 1-.438-1.055v-20.409c0-.407.168-.781.438-1.05a1.464 1.464 0 0 1 1.049-.438zm49.567 27.616v-31.89h31.855v31.89h-31.855zm-2.126-31.89v31.89h-53.184v-31.89h53.184zM538.835 441.57c-1.799 2.797-2.91 6.386-2.91 9.541 0 3.105 1.066 5.529 2.81 7.216h.005c.661.638 1.445 1.132 2.276 1.551h-3.588c-2.141 0-3.396.894-4.125 2.33-.665 1.308-.829 3.036-.829 4.932v.782h.019c.044 1.58.242 3.023.81 4.146.729 1.435 1.984 2.326 4.115 2.326h17.594c2.141 0 3.394-.891 4.119-2.326.564-1.123.767-2.566.809-4.146h.02v-.782c0-1.896-.164-3.624-.829-4.932-.725-1.436-1.978-2.33-4.119-2.33h-3.594c.831-.419 1.612-.908 2.275-1.551 1.747-1.687 2.814-4.111 2.814-7.216 0-3.335-1.244-7.151-3.226-10.013-1.829-2.642-4.303-4.496-7.064-4.496-2.925 0-5.529 2.079-7.382 4.968zm7.889 27.903v.005h-.003a2.31 2.31 0 0 1-1.63-.681h-.005a2.299 2.299 0 0 1-.675-1.632c0-.639.258-1.21.675-1.627v-.008l.005.001a2.31 2.31 0 0 1 3.943 1.634 2.31 2.31 0 0 1-2.31 2.308zm.002-1.183h-.005c-.311 0-.593-.124-.792-.32v-.008a1.143 1.143 0 0 1-.011-1.597l.009-.005a1.14 1.14 0 0 1 .794-.323c.322 0 .602.127.803.323.196.201.32.49.32.805 0 .315-.124.602-.329.797a1.084 1.084 0 0 1-.789.336v-.008zm8.286-6.85c1.444 0 2.269.567 2.729 1.466.465.932.621 2.224.648 3.685v.549c0 1.683-.128 3.191-.648 4.23-.46.9-1.286 1.46-2.729 1.46h-17.594c-1.441 0-2.263-.56-2.723-1.46-.524-1.039-.651-2.547-.651-4.23v-.609c.033-1.43.187-2.713.648-3.625.463-.907 1.292-1.466 2.736-1.466h17.584zm-3.011-19.458c1.812 2.612 2.944 6.093 2.944 9.129 0 2.653-.886 4.694-2.332 6.095-1.583 1.533-3.862 2.325-6.396 2.325-2.539 0-4.815-.792-6.402-2.325-1.443-1.401-2.327-3.442-2.327-6.095 0-2.868 1.014-6.142 2.658-8.702 1.583-2.467 3.74-4.244 6.071-4.244 2.191 0 4.228 1.58 5.784 3.817zM511.173 398.812l.006 19.491c0 6.518-13.493 5.75-14.393 5.683a11.288 11.288 0 0 1-8.007-3.327 11.306 11.306 0 0 1-3.316-8.009v-8.271c0-3.128 1.266-5.964 3.316-8.017a11.39 11.39 0 0 1 8.012-3.33c.916-.041 14.388-.712 14.382 5.78zm-13.143 9.706h-.003a2.533 2.533 0 0 0-.727-1.77 2.533 2.533 0 0 0-1.765-.717 2.481 2.481 0 0 0-2.493 2.49c0 .683.277 1.308.728 1.759v.009h.005c.45.45 1.071.732 1.76.732.682 0 1.315-.282 1.765-.732v-.003a2.504 2.504 0 0 0 .734-1.765l-.004-.003zm-1.271-.004a1.218 1.218 0 0 0-1.224-1.204c-.34 0-.649.131-.869.346a1.226 1.226 0 0 0-.348.865c0 .343.133.64.348.86l.005.005c.215.219.524.352.864.352.336 0 .644-.142.864-.353l.002-.006c.216-.215.347-.522.347-.853l-.003-.012h.014zm9.664.004c0-3.142-.936-5.994-2.439-8.069-1.571-2.154-3.767-3.494-6.2-3.495-2.442 0-4.637 1.341-6.212 3.495-1.511 2.082-2.439 4.936-2.439 8.079v.014c.008 3.134.942 5.981 2.448 8.061 1.571 2.145 3.761 3.482 6.19 3.484l.013-.002c2.439 0 4.622-1.337 6.2-3.499 1.506-2.069 2.439-4.921 2.437-8.06l.002-.008zm-1.757 0c-.006-2.754-.813-5.242-2.112-7.041-1.242-1.698-2.933-2.756-4.77-2.756-1.849 0-3.54 1.058-4.787 2.769-1.293 1.79-2.098 4.274-2.098 7.038v.005l-.006.009c.006 2.756.811 5.234 2.112 7.024 1.236 1.694 2.93 2.75 4.766 2.755l.013-.005c1.84.004 3.534-1.054 4.77-2.756 1.293-1.791 2.106-4.276 2.104-7.032v-.01h.008zm4.747-9.7c0-4.838-12.525-4.014-12.557-4.014l-.065.007a9.563 9.563 0 0 0-6.764 2.791 9.577 9.577 0 0 0-2.799 6.777v8.263a9.539 9.539 0 0 0 2.799 6.782 9.559 9.559 0 0 0 6.764 2.802l.062.002c.031 0 12.56.888 12.56-3.93v-19.48zM408.518 473.853h100.133v-40.928H408.518v40.928zm19.512-24.442a3.975 3.975 0 0 1 2.816 6.788 3.976 3.976 0 0 1-5.629.003 3.957 3.957 0 0 1-1.168-2.813c0-1.099.446-2.094 1.165-2.813a3.97 3.97 0 0 1 2.816-1.165zm1.69 2.289a2.38 2.38 0 0 1 .699 1.689 2.381 2.381 0 0 1-2.389 2.387 2.384 2.384 0 0 1-1.69-4.075 2.39 2.39 0 0 1 3.38-.001zm-13.644-17.604 70.685 1.592c10.616 0 19.309 7.094 19.309 17.701s-8.693 17.701-19.309 17.701l-70.685 1.592a4.968 4.968 0 0 1-3.516-1.461 4.97 4.97 0 0 1-1.461-3.512v-28.64a4.96 4.96 0 0 1 1.461-3.509 4.973 4.973 0 0 1 3.516-1.464zm70.685 3.581c9.528 0 17.318 6.192 17.318 15.712s-7.79 15.712-17.318 15.712l-70.685 1.591a2.997 2.997 0 0 1-2.112-.877 2.97 2.97 0 0 1-.874-2.106v-28.64c0-.822.335-1.567.878-2.11a2.976 2.976 0 0 1 2.108-.874l70.685 1.592zm22.1 38.124H408.308c-.5 0-.956-.198-1.287-.512a1.698 1.698 0 0 1-.538-1.236v-41.328c0-.482.205-.921.535-1.236.33-.316.788-.512 1.29-.512h100.553c.502 0 .96.196 1.291.512.327.319.534.757.534 1.236v41.328c0 .479-.206.916-.534 1.232a1.87 1.87 0 0 1-1.291.516zM357.702 210.065v-2.949c0-.352.286-.638.633-.638h.611v-30.337c0-.512.411-.927.918-.927.507 0 .918.415.918.927v30.337h5.008c.346 0 .632.288.632.638v2.949a.636.636 0 0 1-.632.639h-7.455a.636.636 0 0 1-.633-.639zM366.633 143.962v2.95a.637.637 0 0 1-.632.638h-.611v30.336a.924.924 0 0 1-.918.928.924.924 0 0 1-.919-.928V147.55h-5.007a.64.64 0 0 1-.633-.638v-2.95c0-.352.284-.639.633-.639h7.455c.348 0 .632.287.632.639zM397.033 136.998v-2.92c0-.349.286-.632.633-.632h.61v-30.032a.92.92 0 0 1 1.837 0v30.032h5.007c.346 0 .633.286.633.632v2.92a.633.633 0 0 1-.633.632h-7.454a.633.633 0 0 1-.633-.632zM405.964 71.556v2.92a.634.634 0 0 1-.633.632h-.61v30.033a.919.919 0 0 1-1.837 0V75.108h-5.007a.637.637 0 0 1-.633-.632v-2.92c0-.349.284-.632.633-.632h7.454c.349 0 .633.283.633.632z" fill="#20201F"/><path d="M621.412 108h-2.126v101.095h2.126V108zM642.969 124.943c2.08 0 3.593.376 4.537 1.129.958.74 1.438 1.78 1.438 3.121 0 .835-.199 1.581-.596 2.238-.383.657-.965 1.178-1.745 1.561-.78.369-1.739.554-2.875.554a8.772 8.772 0 0 1-2.936-.492c-.917-.343-1.656-.794-2.217-1.356l.718-1.17c.479.493 1.109.897 1.889 1.211.78.302 1.622.452 2.526.452 1.191 0 2.108-.267 2.751-.801.657-.534.986-1.245.986-2.135 0-.986-.37-1.732-1.109-2.238-.726-.507-1.958-.76-3.696-.76h-3.059l.739-7.207h7.864v1.314h-6.571l-.492 4.579h1.848zm17.566 7.166v1.314h-10.082v-1.047l5.975-5.852c.753-.739 1.26-1.376 1.52-1.909.273-.548.41-1.096.41-1.643 0-.849-.294-1.506-.883-1.971-.574-.479-1.403-.719-2.484-.719-1.684 0-2.991.534-3.922 1.602l-1.047-.904c.561-.657 1.273-1.163 2.135-1.519.877-.356 1.862-.534 2.957-.534 1.465 0 2.622.349 3.47 1.047.863.685 1.294 1.629 1.294 2.834a4.87 4.87 0 0 1-.493 2.135c-.329.684-.951 1.472-1.868 2.361l-4.887 4.805h7.905zm3.164 1.417c-.301 0-.561-.11-.78-.329a1.13 1.13 0 0 1-.308-.801c0-.314.103-.574.308-.78.219-.219.479-.328.78-.328.302 0 .562.109.781.328.219.206.328.466.328.78 0 .315-.109.582-.328.801a1.067 1.067 0 0 1-.781.329zm8.33-8.316c1.506.082 2.649.493 3.429 1.232.794.725 1.191 1.677 1.191 2.854 0 .821-.198 1.554-.595 2.197-.397.63-.986 1.129-1.766 1.499-.78.369-1.732.554-2.854.554a8.83 8.83 0 0 1-2.957-.492c-.917-.343-1.656-.794-2.218-1.356l.719-1.17c.479.493 1.116.897 1.91 1.211a7.098 7.098 0 0 0 2.546.452c1.177 0 2.087-.253 2.731-.76.643-.52.965-1.232.965-2.135 0-.89-.322-1.588-.965-2.094-.644-.507-1.616-.76-2.916-.76h-1.027v-1.088l3.984-4.99h-7.351v-1.314h9.24v1.047l-4.066 5.113zm11.179-6.283c1.903 0 3.361.63 4.374 1.889 1.013 1.246 1.519 3.011 1.519 5.297 0 1.602-.274 2.957-.821 4.066-.548 1.109-1.314 1.951-2.3 2.525-.985.562-2.135.842-3.449.842-1.424 0-2.56-.26-3.409-.78l.596-1.191c.684.452 1.615.678 2.792.678 1.588 0 2.834-.5 3.737-1.499.904-1.013 1.355-2.478 1.355-4.394 0-.356-.02-.746-.061-1.171-.356.781-.924 1.39-1.704 1.828-.781.424-1.677.636-2.69.636-.945 0-1.787-.178-2.526-.533a4.138 4.138 0 0 1-1.704-1.499c-.411-.657-.616-1.417-.616-2.28 0-.876.212-1.649.637-2.32a4.15 4.15 0 0 1 1.745-1.54c.753-.369 1.595-.554 2.525-.554zm.165 7.474c.725 0 1.362-.137 1.909-.411.561-.274.999-.65 1.314-1.129a2.853 2.853 0 0 0 .473-1.602c0-.547-.151-1.054-.452-1.519-.288-.465-.719-.842-1.294-1.129-.575-.288-1.259-.432-2.053-.432-1.04 0-1.889.288-2.546.863-.643.561-.965 1.314-.965 2.258 0 .945.322 1.698.965 2.259.657.561 1.54.842 2.649.842zM647.352 148.336v1.047l-6.016 13.326h-1.601l5.913-13.059h-7.392v2.69h-1.458v-4.004h10.554zm9.801 6.838c.903.301 1.595.753 2.074 1.355.492.602.739 1.328.739 2.176 0 .835-.226 1.568-.678 2.197-.451.616-1.102 1.095-1.95 1.438-.835.328-1.821.492-2.957.492-1.725 0-3.08-.369-4.066-1.108-.985-.74-1.478-1.746-1.478-3.019 0-.862.233-1.588.698-2.176.479-.602 1.171-1.054 2.074-1.355-.739-.288-1.3-.698-1.684-1.232-.383-.548-.575-1.191-.575-1.93 0-1.164.452-2.088 1.356-2.772.917-.685 2.142-1.027 3.675-1.027 1.013 0 1.896.157 2.649.472.766.301 1.362.74 1.786 1.314.424.575.637 1.246.637 2.013 0 .739-.199 1.382-.596 1.93-.397.534-.965.944-1.704 1.232zm-6.324-3.121c0 .794.315 1.423.944 1.889.63.465 1.499.698 2.608.698s1.978-.233 2.608-.698c.643-.466.965-1.089.965-1.869 0-.807-.329-1.444-.986-1.909-.643-.466-1.506-.698-2.587-.698-1.095 0-1.964.232-2.608.698-.629.465-.944 1.095-.944 1.889zm3.552 9.527c1.273 0 2.265-.26 2.977-.78.726-.52 1.088-1.225 1.088-2.115 0-.89-.362-1.588-1.088-2.095-.712-.52-1.704-.78-2.977-.78-1.259 0-2.252.26-2.977.78-.712.507-1.068 1.205-1.068 2.095 0 .903.356 1.615 1.068 2.135.711.507 1.704.76 2.977.76zm8.941 1.232c-.301 0-.561-.11-.78-.329a1.129 1.129 0 0 1-.308-.8c0-.315.103-.575.308-.781.219-.219.479-.328.78-.328.301 0 .561.109.78.328.219.206.329.466.329.781 0 .314-.11.581-.329.8a1.066 1.066 0 0 1-.78.329zm8.751.02c-1.109 0-2.102-.294-2.978-.882-.862-.589-1.54-1.431-2.032-2.526-.479-1.109-.719-2.409-.719-3.901s.24-2.786.719-3.881c.492-1.109 1.17-1.957 2.032-2.546.876-.589 1.869-.883 2.978-.883 1.108 0 2.094.294 2.956.883.876.589 1.561 1.437 2.054 2.546.492 1.095.739 2.389.739 3.881s-.247 2.792-.739 3.901c-.493 1.095-1.178 1.937-2.054 2.526-.862.588-1.848.882-2.956.882zm0-1.355c.835 0 1.567-.232 2.197-.698.643-.465 1.143-1.143 1.499-2.033.355-.889.533-1.964.533-3.223 0-1.26-.178-2.334-.533-3.224-.356-.89-.856-1.567-1.499-2.033-.63-.465-1.362-.698-2.197-.698s-1.575.233-2.218.698c-.63.466-1.122 1.143-1.478 2.033-.356.89-.534 1.964-.534 3.224 0 1.259.178 2.334.534 3.223.356.89.848 1.568 1.478 2.033.643.466 1.383.698 2.218.698zm16.1-6.303c.903.301 1.594.753 2.073 1.355.493.602.74 1.328.74 2.176 0 .835-.226 1.568-.678 2.197-.452.616-1.102 1.095-1.951 1.438-.835.328-1.82.492-2.956.492-1.725 0-3.08-.369-4.066-1.108-.985-.74-1.478-1.746-1.478-3.019 0-.862.233-1.588.698-2.176.479-.602 1.17-1.054 2.074-1.355-.739-.288-1.301-.698-1.684-1.232-.383-.548-.575-1.191-.575-1.93 0-1.164.452-2.088 1.355-2.772.917-.685 2.143-1.027 3.676-1.027 1.013 0 1.896.157 2.648.472.767.301 1.362.74 1.787 1.314.424.575.636 1.246.636 2.013 0 .739-.198 1.382-.595 1.93-.397.534-.965.944-1.704 1.232zm-6.325-3.121c0 .794.315 1.423.945 1.889.63.465 1.499.698 2.608.698 1.108 0 1.978-.233 2.607-.698.644-.466.965-1.089.965-1.869 0-.807-.328-1.444-.985-1.909-.644-.466-1.506-.698-2.587-.698-1.095 0-1.965.232-2.608.698-.63.465-.945 1.095-.945 1.889zm3.553 9.527c1.273 0 2.265-.26 2.977-.78.725-.52 1.088-1.225 1.088-2.115 0-.89-.363-1.588-1.088-2.095-.712-.52-1.704-.78-2.977-.78-1.26 0-2.252.26-2.978.78-.711.507-1.067 1.205-1.067 2.095 0 .903.356 1.615 1.067 2.135.712.507 1.705.76 2.978.76zM650.751 177.622v1.047l-6.016 13.326h-1.602l5.913-13.059h-7.391v2.69h-1.458v-4.004h10.554zm6.424-.123c1.902 0 3.36.629 4.373 1.889 1.013 1.245 1.52 3.011 1.52 5.297 0 1.602-.274 2.957-.822 4.066-.547 1.108-1.314 1.95-2.299 2.525-.986.561-2.136.842-3.45.842-1.423 0-2.56-.26-3.408-.78l.595-1.191c.685.452 1.615.678 2.793.678 1.587 0 2.833-.5 3.737-1.499.903-1.013 1.355-2.478 1.355-4.394 0-.356-.021-.746-.062-1.171-.356.78-.924 1.39-1.704 1.828-.78.424-1.677.636-2.69.636-.944 0-1.786-.178-2.525-.534a4.128 4.128 0 0 1-1.705-1.499c-.41-.657-.616-1.416-.616-2.279 0-.876.213-1.649.637-2.32a4.144 4.144 0 0 1 1.745-1.54c.753-.369 1.595-.554 2.526-.554zm.164 7.474c.725 0 1.362-.137 1.91-.411.561-.274.999-.65 1.314-1.129a2.86 2.86 0 0 0 .472-1.602c0-.547-.151-1.054-.452-1.519-.287-.466-.718-.842-1.293-1.13-.575-.287-1.26-.431-2.054-.431-1.04 0-1.889.288-2.546.863-.643.561-.965 1.314-.965 2.258 0 .945.322 1.698.965 2.259.657.561 1.54.842 2.649.842zm8.76 7.125c-.301 0-.561-.11-.78-.329a1.125 1.125 0 0 1-.308-.801c0-.315.102-.575.308-.78.219-.219.479-.329.78-.329.301 0 .561.11.78.329.219.205.329.465.329.78s-.11.582-.329.801a1.066 1.066 0 0 1-.78.329zm7.719-14.599c1.902 0 3.36.629 4.373 1.889 1.013 1.245 1.519 3.011 1.519 5.297 0 1.602-.273 2.957-.821 4.066-.547 1.108-1.314 1.95-2.3 2.525-.985.561-2.135.842-3.449.842-1.424 0-2.56-.26-3.408-.78l.595-1.191c.684.452 1.615.678 2.792.678 1.588 0 2.834-.5 3.737-1.499.904-1.013 1.356-2.478 1.356-4.394 0-.356-.021-.746-.062-1.171-.356.78-.924 1.39-1.704 1.828-.781.424-1.677.636-2.69.636-.945 0-1.786-.178-2.526-.534a4.131 4.131 0 0 1-1.704-1.499c-.41-.657-.616-1.416-.616-2.279 0-.876.212-1.649.637-2.32a4.144 4.144 0 0 1 1.745-1.54c.753-.369 1.595-.554 2.526-.554zm.164 7.474c.725 0 1.362-.137 1.909-.411.562-.274 1-.65 1.314-1.129a2.853 2.853 0 0 0 .473-1.602c0-.547-.151-1.054-.452-1.519-.287-.466-.719-.842-1.294-1.13-.574-.287-1.259-.431-2.053-.431-1.04 0-1.889.288-2.546.863-.643.561-.965 1.314-.965 2.258 0 .945.322 1.698.965 2.259.657.561 1.54.842 2.649.842zm11.815-7.351v14.373h-1.479v-13.059h-3.387v-1.314h4.866zM593.187 155.141c3.526.575 6.228 1.897 8.107 3.967 1.878 2.031 2.817 4.561 2.817 7.589 0 2.338-.614 4.503-1.84 6.496-1.227 1.955-3.105 3.526-5.634 4.714-2.492 1.189-5.558 1.783-9.199 1.783-2.836 0-5.634-.364-8.394-1.093-2.721-.766-5.04-1.839-6.956-3.219l3.622-7.129c1.533 1.15 3.296 2.05 5.289 2.702 2.031.613 4.101.92 6.209.92 2.338 0 4.178-.441 5.519-1.323 1.342-.919 2.013-2.203 2.013-3.851 0-3.297-2.511-4.945-7.532-4.945h-4.254v-6.151l8.279-9.372H574.1v-7.473h28.171v6.036l-9.084 10.349z" fill="#20201F"/><path d="M736.271 152.648h-5.667v8.418h-3.182V150.02h8.849v2.628zm6.411 8.582c-1.164 0-2.211-.239-3.142-.718a5.513 5.513 0 0 1-2.156-2.033c-.52-.862-.78-1.841-.78-2.936s.26-2.074.78-2.936a5.368 5.368 0 0 1 2.156-2.013c.931-.492 1.978-.739 3.142-.739 1.163 0 2.204.247 3.121.739a5.368 5.368 0 0 1 2.156 2.013c.52.862.78 1.841.78 2.936s-.26 2.074-.78 2.936a5.513 5.513 0 0 1-2.156 2.033c-.917.479-1.958.718-3.121.718zm0-2.628c.821 0 1.492-.274 2.012-.821.534-.561.801-1.307.801-2.238s-.267-1.67-.801-2.218c-.52-.561-1.191-.842-2.012-.842-.822 0-1.499.281-2.033.842-.534.548-.801 1.287-.801 2.218s.267 1.677.801 2.238c.534.547 1.211.821 2.033.821zm13.516 2.628c-1.177 0-2.238-.239-3.182-.718a5.627 5.627 0 0 1-2.197-2.033c-.52-.862-.78-1.841-.78-2.936s.26-2.074.78-2.936a5.478 5.478 0 0 1 2.197-2.013c.944-.492 2.005-.739 3.182-.739 1.164 0 2.177.247 3.039.739a4.267 4.267 0 0 1 1.91 2.074l-2.485 1.335c-.575-1.013-1.403-1.52-2.484-1.52-.835 0-1.526.274-2.074.822-.547.547-.821 1.293-.821 2.238 0 .944.274 1.69.821 2.238.548.547 1.239.821 2.074.821 1.095 0 1.923-.506 2.484-1.519l2.485 1.355c-.397.876-1.034 1.56-1.91 2.053-.862.493-1.875.739-3.039.739zm16.136-8.582h-3.737v8.418h-3.183v-8.418h-3.737v-2.628h10.657v2.628zm1.707-2.628h3.183v6.57l5.38-6.57h2.936v11.046h-3.183v-6.57l-5.359 6.57h-2.957V150.02zm14.578 0h3.183v4.311h4.804v-4.311h3.203v11.046h-3.203v-4.127h-4.804v4.127h-3.183V150.02zm18.548-.165c1.711 0 3.025.411 3.942 1.232.917.808 1.376 2.033 1.376 3.676v6.303h-2.998v-1.376c-.602 1.027-1.725 1.54-3.367 1.54-.849 0-1.588-.143-2.218-.431-.616-.287-1.088-.684-1.417-1.191a3.1 3.1 0 0 1-.492-1.724c0-1.027.383-1.835 1.15-2.423.78-.589 1.978-.883 3.593-.883h2.546c0-.698-.212-1.232-.637-1.602-.424-.383-1.061-.575-1.909-.575a5.48 5.48 0 0 0-1.746.288 4.452 4.452 0 0 0-1.437.739l-1.15-2.238c.603-.424 1.321-.753 2.156-.986a9.848 9.848 0 0 1 2.608-.349zm-.246 9.219c.547 0 1.033-.123 1.457-.369.425-.26.726-.637.904-1.129v-1.13h-2.197c-1.314 0-1.971.431-1.971 1.294 0 .411.157.739.472.985.328.233.773.349 1.335.349zm18.161-9.054v11.046h-2.854v-3.162h-2.361l-2.095 3.162h-3.408l2.526-3.614c-.767-.301-1.356-.732-1.766-1.293-.397-.575-.596-1.266-.596-2.074 0-1.3.466-2.3 1.397-2.998.944-.712 2.238-1.067 3.88-1.067h5.277zm-5.215 2.607c-.685 0-1.205.123-1.561.37-.342.246-.513.643-.513 1.191 0 .547.164.951.493 1.211.342.247.855.37 1.54.37h2.402v-3.142h-2.361zM759.369 187.641v2.711h-10.862v-2.156l5.544-5.236c.588-.561.985-1.04 1.191-1.437.205-.411.308-.815.308-1.212 0-.575-.199-1.013-.596-1.314-.383-.315-.951-.472-1.704-.472-.63 0-1.198.123-1.704.37a3.17 3.17 0 0 0-1.273 1.067l-2.423-1.56c.561-.835 1.335-1.485 2.32-1.951.986-.479 2.115-.719 3.388-.719 1.068 0 1.999.178 2.792.534.808.343 1.431.835 1.869 1.479.452.629.678 1.375.678 2.238 0 .78-.165 1.512-.493 2.197-.329.684-.965 1.464-1.91 2.34l-3.306 3.121h6.181zm7.492 2.957c-1.191 0-2.252-.294-3.183-.883-.93-.588-1.663-1.437-2.197-2.546-.52-1.122-.78-2.457-.78-4.004 0-1.546.26-2.874.78-3.983.534-1.122 1.267-1.978 2.197-2.567.931-.588 1.992-.883 3.183-.883 1.191 0 2.252.295 3.183.883.93.589 1.656 1.445 2.176 2.567.534 1.109.801 2.437.801 3.983 0 1.547-.267 2.882-.801 4.004-.52 1.109-1.246 1.958-2.176 2.546-.931.589-1.992.883-3.183.883zm0-2.813c.876 0 1.56-.376 2.053-1.129.507-.753.76-1.916.76-3.491 0-1.574-.253-2.737-.76-3.49-.493-.753-1.177-1.13-2.053-1.13-.862 0-1.547.377-2.053 1.13-.493.753-.739 1.916-.739 3.49 0 1.575.246 2.738.739 3.491.506.753 1.191 1.129 2.053 1.129zm9.404 2.731a1.925 1.925 0 0 1-1.416-.575c-.384-.383-.575-.862-.575-1.437 0-.589.191-1.061.575-1.417.383-.369.855-.554 1.416-.554.562 0 1.034.185 1.417.554.383.356.575.828.575 1.417 0 .575-.192 1.054-.575 1.437a1.925 1.925 0 0 1-1.417.575zm8.413-9.137c2.026 0 3.518.404 4.476 1.211.972.808 1.458 1.889 1.458 3.245a4.56 4.56 0 0 1-.657 2.402c-.438.712-1.109 1.287-2.012 1.725-.89.424-1.992.636-3.306.636-1.013 0-2.012-.13-2.998-.39-.972-.274-1.8-.657-2.484-1.15l1.314-2.546a6.437 6.437 0 0 0 1.889.965 7.43 7.43 0 0 0 2.197.329c.835 0 1.492-.165 1.971-.493.479-.329.719-.787.719-1.376 0-.616-.254-1.081-.76-1.396-.493-.315-1.355-.472-2.587-.472h-3.676l.74-8.09h8.767v2.669h-5.995l-.226 2.731h1.17zm12.335-5.647c2.012 0 3.586.616 4.722 1.848 1.136 1.219 1.704 2.978 1.704 5.277 0 1.629-.308 3.026-.924 4.189-.602 1.164-1.457 2.046-2.566 2.649-1.109.602-2.389.903-3.84.903a9.582 9.582 0 0 1-2.197-.246c-.698-.178-1.293-.425-1.786-.739l1.232-2.444c.698.479 1.594.719 2.69.719 1.218 0 2.183-.356 2.895-1.068.712-.725 1.095-1.766 1.15-3.121-.863.863-2.054 1.294-3.573 1.294-.917 0-1.752-.185-2.505-.555a4.403 4.403 0 0 1-1.787-1.56c-.438-.685-.657-1.472-.657-2.361 0-.959.24-1.8.719-2.526a4.628 4.628 0 0 1 1.951-1.663c.835-.397 1.759-.596 2.772-.596zm.246 6.776c.726 0 1.314-.198 1.766-.595.465-.411.698-.931.698-1.561 0-.629-.226-1.143-.678-1.54-.438-.397-1.047-.595-1.827-.595-.712 0-1.294.192-1.745.575-.438.383-.657.903-.657 1.56s.219 1.184.657 1.581c.451.384 1.047.575 1.786.575z" fill="#000"/><path d="M222.879 372.521c-1.178 0-2.238-.24-3.183-.719a5.617 5.617 0 0 1-2.197-2.032c-.52-.863-.78-1.842-.78-2.937 0-1.095.26-2.073.78-2.936a5.476 5.476 0 0 1 2.197-2.012c.945-.493 2.005-.739 3.183-.739 1.163 0 2.176.246 3.038.739a4.254 4.254 0 0 1 1.91 2.074l-2.484 1.334c-.575-1.013-1.404-1.519-2.485-1.519-.835 0-1.526.274-2.074.821-.547.548-.821 1.294-.821 2.238 0 .945.274 1.691.821 2.238.548.548 1.239.822 2.074.822 1.095 0 1.923-.507 2.485-1.52l2.484 1.355c-.397.877-1.033 1.561-1.91 2.054-.862.493-1.875.739-3.038.739zm17.88-11.211v11.047h-3.204v-8.419h-4.599v8.419h-3.183V361.31h10.986zm7.362-.164c1.711 0 3.025.41 3.942 1.232.917.807 1.376 2.032 1.376 3.675v6.304h-2.998v-1.376c-.602 1.027-1.725 1.54-3.367 1.54-.849 0-1.588-.144-2.218-.431-.616-.288-1.088-.685-1.416-1.191a3.099 3.099 0 0 1-.493-1.725c0-1.027.383-1.834 1.15-2.423.78-.588 1.978-.883 3.593-.883h2.546c0-.698-.212-1.232-.637-1.601-.424-.384-1.061-.575-1.909-.575-.589 0-1.171.096-1.745.287a4.467 4.467 0 0 0-1.438.739l-1.15-2.238c.603-.424 1.321-.752 2.156-.985a9.807 9.807 0 0 1 2.608-.349zm-.246 9.219c.547 0 1.033-.123 1.457-.37.425-.26.726-.636.904-1.129v-1.129h-2.197c-1.314 0-1.971.431-1.971 1.293 0 .411.157.74.472.986.328.233.773.349 1.335.349zm18.941-9.055v11.047h-3.203v-8.419h-3.49l-.103 1.951c-.055 1.451-.192 2.655-.411 3.614-.219.958-.575 1.711-1.067 2.258-.493.548-1.178.822-2.054.822-.465 0-1.019-.083-1.663-.247l.165-2.628c.219.027.376.041.472.041.479 0 .835-.171 1.067-.513.247-.356.411-.801.493-1.335a21.95 21.95 0 0 0 .185-2.156l.164-4.435h9.445zm9.056 3.532c1.437.013 2.539.342 3.305.985.767.63 1.15 1.527 1.15 2.69 0 1.218-.431 2.17-1.293 2.854-.849.671-2.047 1.006-3.593 1.006l-5.544-.02V361.31h3.182v3.532h2.793zm-.719 5.256c.616.014 1.088-.116 1.417-.39.328-.274.493-.684.493-1.232 0-.534-.165-.924-.493-1.17-.315-.247-.787-.377-1.417-.391l-2.074-.02v3.203h2.074zm7.176-8.788h3.182v4.312h4.805v-4.312h3.203v11.047h-3.203v-4.127h-4.805v4.127h-3.182V361.31zm24.071 0v11.047h-2.854v-3.162h-2.361l-2.095 3.162h-3.408l2.525-3.614c-.766-.301-1.355-.732-1.765-1.294-.397-.575-.596-1.266-.596-2.073 0-1.301.466-2.3 1.396-2.998.945-.712 2.238-1.068 3.881-1.068h5.277zm-5.215 2.608c-.685 0-1.205.123-1.561.369-.342.247-.513.644-.513 1.191 0 .548.164.952.493 1.212.342.246.855.369 1.54.369h2.402v-3.141h-2.361zM244.468 387.269v14.373h-3.326v-11.703h-2.874v-2.67h6.2zm15.659 11.355h-2.341v3.018h-3.244v-3.018h-7.741v-2.238l6.776-9.117h3.49l-6.283 8.645h3.861v-2.69h3.141v2.69h2.341v2.71zm3.285 3.183a1.925 1.925 0 0 1-1.417-.575c-.383-.384-.575-.863-.575-1.438 0-.588.192-1.06.575-1.416.383-.37.855-.555 1.417-.555.561 0 1.033.185 1.416.555.384.356.575.828.575 1.416 0 .575-.191 1.054-.575 1.438a1.925 1.925 0 0 1-1.416.575zm10.399-8.686c1.26.206 2.225.678 2.895 1.417.671.725 1.006 1.629 1.006 2.71 0 .835-.219 1.609-.657 2.321-.438.698-1.108 1.259-2.012 1.683-.89.425-1.985.637-3.285.637-1.013 0-2.012-.13-2.998-.39-.972-.274-1.8-.657-2.484-1.15l1.293-2.546c.548.41 1.177.732 1.889.965a7.638 7.638 0 0 0 2.218.328c.835 0 1.492-.157 1.971-.472.479-.329.719-.787.719-1.376 0-1.177-.897-1.766-2.69-1.766h-1.52v-2.197l2.957-3.346h-6.119v-2.67h10.061v2.156l-3.244 3.696zm10.981-5.852v14.373h-3.326v-11.703h-2.875v-2.67h6.201zM174.129 161.23c-1.177 0-2.238-.239-3.182-.718a5.62 5.62 0 0 1-2.197-2.033c-.521-.862-.781-1.841-.781-2.936s.26-2.074.781-2.936a5.472 5.472 0 0 1 2.197-2.013c.944-.492 2.005-.739 3.182-.739 1.164 0 2.177.247 3.039.739a4.267 4.267 0 0 1 1.91 2.074l-2.485 1.335c-.575-1.013-1.403-1.52-2.484-1.52-.835 0-1.527.274-2.074.822-.548.547-.822 1.293-.822 2.238 0 .944.274 1.69.822 2.238.547.547 1.239.821 2.074.821 1.095 0 1.923-.506 2.484-1.519l2.485 1.355c-.397.876-1.034 1.56-1.91 2.053-.862.493-1.875.739-3.039.739zm17.88-11.21v11.046h-3.203v-8.418h-4.599v8.418h-3.183V150.02h10.985zm7.362-.165c1.712 0 3.026.411 3.943 1.232.917.808 1.375 2.033 1.375 3.676v6.303h-2.997v-1.376c-.603 1.027-1.725 1.54-3.368 1.54-.848 0-1.588-.143-2.217-.431-.616-.287-1.088-.684-1.417-1.191a3.093 3.093 0 0 1-.493-1.724c0-1.027.383-1.835 1.15-2.423.78-.589 1.978-.883 3.593-.883h2.546c0-.698-.212-1.232-.636-1.602-.425-.383-1.061-.575-1.91-.575-.588 0-1.17.096-1.745.288a4.452 4.452 0 0 0-1.437.739l-1.15-2.238c.602-.424 1.321-.753 2.156-.986a9.841 9.841 0 0 1 2.607-.349zm-.246 9.219c.548 0 1.034-.123 1.458-.369a2.13 2.13 0 0 0 .903-1.129v-1.13h-2.197c-1.314 0-1.971.431-1.971 1.294 0 .411.158.739.472.985.329.233.774.349 1.335.349zm18.942-9.054v11.046h-3.203v-8.418h-3.491l-.102 1.95c-.055 1.451-.192 2.656-.411 3.614-.219.958-.575 1.711-1.068 2.259-.493.547-1.177.821-2.053.821-.466 0-1.02-.082-1.663-.246l.164-2.629c.219.028.376.041.472.041.479 0 .835-.171 1.068-.513.246-.356.411-.801.493-1.334.082-.548.143-1.267.185-2.156l.164-4.435h9.445zm9.055 3.531c1.437.014 2.539.342 3.306.986.767.629 1.15 1.526 1.15 2.69 0 1.218-.431 2.169-1.294 2.854-.848.67-2.046 1.006-3.593 1.006l-5.544-.021V150.02h3.183v3.531h2.792zm-.718 5.257c.616.013 1.088-.117 1.416-.391.329-.273.493-.684.493-1.232 0-.533-.164-.924-.493-1.17-.315-.246-.787-.376-1.416-.39l-2.074-.021v3.204h2.074zm7.175-8.788h3.183v4.311h4.804v-4.311h3.203v11.046h-3.203v-4.127h-4.804v4.127h-3.183V150.02zm24.071 0v11.046h-2.854v-3.162h-2.361l-2.094 3.162h-3.409l2.526-3.614c-.767-.301-1.355-.732-1.766-1.293-.397-.575-.595-1.266-.595-2.074 0-1.3.465-2.3 1.396-2.998.944-.712 2.238-1.067 3.881-1.067h5.276zm-5.215 2.607c-.684 0-1.204.123-1.56.37-.343.246-.514.643-.514 1.191 0 .547.165.951.493 1.211.342.247.856.37 1.54.37h2.402v-3.142h-2.361zM192.957 175.979v14.373h-3.326v-11.704h-2.875v-2.669h6.201zm13.749 0v2.156l-5.339 12.217h-3.613l5.153-11.663h-4.763v2.341h-2.957v-5.051h11.519zm2.367 14.537a1.928 1.928 0 0 1-1.417-.575c-.383-.383-.574-.862-.574-1.437 0-.589.191-1.061.574-1.417.384-.369.856-.554 1.417-.554s1.034.185 1.417.554c.383.356.575.828.575 1.417 0 .575-.192 1.054-.575 1.437a1.927 1.927 0 0 1-1.417.575zm16.647-3.183h-2.341v3.019h-3.244v-3.019h-7.741v-2.238l6.776-9.116h3.49l-6.283 8.644h3.86v-2.69h3.142v2.69h2.341v2.71zm5.965-11.601c2.012 0 3.587.616 4.723 1.848 1.136 1.219 1.704 2.978 1.704 5.277 0 1.629-.308 3.026-.924 4.189-.602 1.164-1.458 2.046-2.567 2.649-1.108.602-2.388.903-3.839.903a9.575 9.575 0 0 1-2.197-.246c-.698-.178-1.294-.425-1.787-.739l1.232-2.444c.699.479 1.595.719 2.69.719 1.218 0 2.184-.356 2.895-1.068.712-.725 1.095-1.766 1.15-3.121-.862.863-2.053 1.294-3.573 1.294-.917 0-1.752-.185-2.505-.555a4.4 4.4 0 0 1-1.786-1.56c-.438-.685-.657-1.472-.657-2.361 0-.959.24-1.8.719-2.526a4.63 4.63 0 0 1 1.95-1.663c.835-.397 1.759-.596 2.772-.596zm.247 6.776c.725 0 1.314-.198 1.765-.595a1.99 1.99 0 0 0 .699-1.561c0-.629-.226-1.143-.678-1.54-.438-.397-1.047-.595-1.827-.595-.712 0-1.294.192-1.746.575-.438.383-.657.903-.657 1.56s.219 1.184.657 1.581c.452.384 1.047.575 1.787.575zM658.291 368.086h-1.663v4.189h-3.204v-11.047h3.204v4.292h1.724l2.998-4.292h3.409l-3.861 5.298 4.128 5.749h-3.779l-2.956-4.189zm18.753-6.858-4.99 11.725c-.506 1.273-1.136 2.169-1.889 2.69-.739.52-1.635.78-2.689.78a5.615 5.615 0 0 1-1.705-.267c-.561-.178-1.019-.424-1.375-.739l1.17-2.279a2.77 2.77 0 0 0 1.807.698c.438 0 .794-.11 1.068-.329.273-.205.52-.554.739-1.047l.041-.103-4.784-11.129h3.306l3.1 7.495 3.121-7.495h3.08zm7.864 11.047-2.423-3.388-2.505 3.388h-3.491l4.251-5.564-4.107-5.483h3.593l2.341 3.224 2.402-3.224h3.409l-4.107 5.401 4.271 5.646h-3.634zm5.211-11.047h3.182v4.312h4.805v-4.312h3.203v11.047h-3.203v-4.127h-4.805v4.127h-3.182v-11.047zm24.071 0v11.047h-2.854v-3.162h-2.361l-2.094 3.162h-3.409l2.526-3.614c-.767-.301-1.356-.732-1.766-1.293-.397-.575-.596-1.266-.596-2.074 0-1.3.466-2.3 1.397-2.998.944-.712 2.238-1.068 3.88-1.068h5.277zm-5.215 2.608c-.685 0-1.205.123-1.561.37-.342.246-.513.643-.513 1.191 0 .547.164.951.493 1.211.342.246.855.37 1.54.37h2.402v-3.142h-2.361zM666.555 387.188v14.373h-3.326v-11.704h-2.875v-2.669h6.201zm8.657 14.619c-1.191 0-2.252-.294-3.183-.883-.93-.588-1.663-1.437-2.197-2.546-.52-1.122-.78-2.457-.78-4.004 0-1.546.26-2.874.78-3.983.534-1.123 1.267-1.978 2.197-2.567.931-.588 1.992-.883 3.183-.883 1.191 0 2.252.295 3.183.883.93.589 1.656 1.444 2.176 2.567.534 1.109.801 2.437.801 3.983 0 1.547-.267 2.882-.801 4.004-.52 1.109-1.246 1.958-2.176 2.546-.931.589-1.992.883-3.183.883zm0-2.813c.876 0 1.56-.376 2.053-1.129.507-.753.76-1.917.76-3.491s-.253-2.737-.76-3.49c-.493-.753-1.177-1.13-2.053-1.13-.862 0-1.547.377-2.053 1.13-.493.753-.739 1.916-.739 3.49 0 1.574.246 2.738.739 3.491.506.753 1.191 1.129 2.053 1.129zm9.404 2.731a1.925 1.925 0 0 1-1.416-.575c-.384-.383-.575-.862-.575-1.437 0-.589.191-1.061.575-1.417.383-.37.855-.554 1.416-.554.562 0 1.034.184 1.417.554.383.356.575.828.575 1.417 0 .575-.192 1.054-.575 1.437a1.925 1.925 0 0 1-1.417.575zm8.708-14.537v14.373h-3.326v-11.704h-2.875v-2.669h6.201zm13.236 11.662v2.711h-10.862v-2.156l5.544-5.236c.588-.561.985-1.04 1.191-1.437.205-.411.308-.815.308-1.212 0-.575-.199-1.013-.596-1.314-.383-.315-.951-.472-1.704-.472-.63 0-1.198.123-1.704.369a3.18 3.18 0 0 0-1.273 1.068l-2.423-1.56c.561-.835 1.334-1.486 2.32-1.951.986-.479 2.115-.719 3.388-.719 1.068 0 1.998.178 2.792.534.808.343 1.431.835 1.869 1.479.452.629.677 1.375.677 2.238 0 .78-.164 1.512-.492 2.197-.329.684-.965 1.464-1.91 2.34l-3.306 3.121h6.181zM436.477 160.599l-3.006-3.96-3.024 3.96h-1.44l3.744-4.86-3.564-4.608h1.44l2.844 3.708 2.844-3.708h1.404l-3.564 4.608 3.78 4.86h-1.458zm7.125.09c-.912 0-1.734-.204-2.466-.612a4.594 4.594 0 0 1-1.728-1.728c-.42-.732-.63-1.56-.63-2.484 0-.924.21-1.752.63-2.484a4.465 4.465 0 0 1 1.728-1.71c.732-.408 1.554-.612 2.466-.612.912 0 1.734.204 2.466.612a4.34 4.34 0 0 1 1.71 1.71c.42.732.63 1.56.63 2.484 0 .924-.21 1.752-.63 2.484a4.465 4.465 0 0 1-1.71 1.728c-.732.408-1.554.612-2.466.612zm0-1.134c.672 0 1.272-.15 1.8-.45.54-.312.96-.75 1.26-1.314.3-.564.45-1.206.45-1.926s-.15-1.362-.45-1.926c-.3-.564-.72-.996-1.26-1.296-.528-.312-1.128-.468-1.8-.468-.672 0-1.278.156-1.818.468-.528.3-.948.732-1.26 1.296-.3.564-.45 1.206-.45 1.926s.15 1.362.45 1.926a3.406 3.406 0 0 0 1.26 1.314c.54.3 1.146.45 1.818.45zm15.224-8.424v9.468h-1.278v-8.334h-4.536l-.126 2.34c-.096 1.968-.324 3.48-.684 4.536-.36 1.056-1.002 1.584-1.926 1.584-.252 0-.558-.048-.918-.144l.09-1.098c.216.048.366.072.45.072.492 0 .864-.228 1.116-.684.252-.456.42-1.02.504-1.692.084-.672.156-1.56.216-2.664l.162-3.384h6.93zm11.373 0v9.468h-1.278v-8.334h-4.536l-.126 2.34c-.096 1.968-.324 3.48-.684 4.536-.36 1.056-1.002 1.584-1.926 1.584-.252 0-.558-.048-.918-.144l.09-1.098c.216.048.366.072.45.072.492 0 .864-.228 1.116-.684.252-.456.42-1.02.504-1.692.084-.672.156-1.56.216-2.664l.162-3.384h6.93zM433.494 177.285v12.6h-1.296v-11.448h-2.97v-1.152h4.266zm8.034 12.708c-.972 0-1.842-.258-2.61-.774-.756-.516-1.35-1.254-1.782-2.214-.42-.972-.63-2.112-.63-3.42 0-1.308.21-2.442.63-3.402.432-.972 1.026-1.716 1.782-2.232.768-.516 1.638-.774 2.61-.774s1.836.258 2.592.774c.768.516 1.368 1.26 1.8 2.232.432.96.648 2.094.648 3.402 0 1.308-.216 2.448-.648 3.42-.432.96-1.032 1.698-1.8 2.214-.756.516-1.62.774-2.592.774zm0-1.188c.732 0 1.374-.204 1.926-.612.564-.408 1.002-1.002 1.314-1.782.312-.78.468-1.722.468-2.826s-.156-2.046-.468-2.826c-.312-.78-.75-1.374-1.314-1.782-.552-.408-1.194-.612-1.926-.612s-1.38.204-1.944.612c-.552.408-.984 1.002-1.296 1.782-.312.78-.468 1.722-.468 2.826s.156 2.046.468 2.826c.312.78.744 1.374 1.296 1.782a3.231 3.231 0 0 0 1.944.612zm7.674 1.17a.934.934 0 0 1-.684-.288.989.989 0 0 1-.27-.702c0-.276.09-.504.27-.684a.934.934 0 0 1 .684-.288c.264 0 .492.096.684.288.192.18.288.408.288.684 0 .276-.096.51-.288.702a.934.934 0 0 1-.684.288zm11.622-1.242v1.152h-8.838v-.918l5.238-5.13c.66-.648 1.104-1.206 1.332-1.674.24-.48.36-.96.36-1.44 0-.744-.258-1.32-.774-1.728-.504-.42-1.23-.63-2.178-.63-1.476 0-2.622.468-3.438 1.404l-.918-.792a4.846 4.846 0 0 1 1.872-1.332c.768-.312 1.632-.468 2.592-.468 1.284 0 2.298.306 3.042.918.756.6 1.134 1.428 1.134 2.484 0 .648-.144 1.272-.432 1.872-.288.6-.834 1.29-1.638 2.07l-4.284 4.212h6.93zm10.231 0v1.152h-8.838v-.918l5.238-5.13c.66-.648 1.104-1.206 1.332-1.674.24-.48.36-.96.36-1.44 0-.744-.258-1.32-.774-1.728-.504-.42-1.23-.63-2.178-.63-1.476 0-2.622.468-3.438 1.404l-.918-.792a4.846 4.846 0 0 1 1.872-1.332c.768-.312 1.632-.468 2.592-.468 1.284 0 2.298.306 3.042.918.756.6 1.134 1.428 1.134 2.484 0 .648-.144 1.272-.432 1.872-.288.6-.834 1.29-1.638 2.07l-4.284 4.212h6.93zM825.047 345.218v9.469h-1.278v-8.335h-4.536l-.126 2.34c-.096 1.968-.324 3.48-.684 4.536-.36 1.057-1.002 1.585-1.926 1.585-.252 0-.558-.048-.918-.144l.09-1.098c.216.048.366.072.45.072.492 0 .864-.228 1.116-.685.252-.456.42-1.02.504-1.692.084-.672.156-1.56.216-2.664l.162-3.384h6.93zm7.539 9.559c-.912 0-1.734-.204-2.466-.612a4.597 4.597 0 0 1-1.728-1.729c-.42-.732-.63-1.56-.63-2.484 0-.924.21-1.752.63-2.484a4.465 4.465 0 0 1 1.728-1.71c.732-.408 1.554-.612 2.466-.612.912 0 1.734.204 2.466.612a4.34 4.34 0 0 1 1.71 1.71c.42.732.63 1.56.63 2.484 0 .924-.21 1.752-.63 2.484a4.467 4.467 0 0 1-1.71 1.729c-.732.408-1.554.612-2.466.612zm0-1.134c.672 0 1.272-.15 1.8-.451.54-.312.96-.75 1.26-1.314.3-.564.45-1.206.45-1.926s-.15-1.362-.45-1.926c-.3-.564-.72-.996-1.26-1.296-.528-.312-1.128-.468-1.8-.468-.672 0-1.278.156-1.818.468-.528.3-.948.732-1.26 1.296-.3.564-.45 1.206-.45 1.926s.15 1.362.45 1.926a3.406 3.406 0 0 0 1.26 1.314 3.67 3.67 0 0 0 1.818.451zm16.719-.072v3.402h-1.206v-2.286h-8.478v2.286h-1.206v-3.402h.54c.636-.036 1.068-.505 1.296-1.405.228-.9.384-2.16.468-3.78l.126-3.168h6.984v8.353h1.476zm-7.416-5.113c-.06 1.344-.174 2.454-.342 3.33-.168.864-.468 1.458-.9 1.783h5.904v-7.219h-4.554l-.108 2.106zm18.205 2.016h-2.052v4.213h-1.279v-4.213h-2.052l-2.898 4.213h-1.53l3.402-4.879-3.132-4.59h1.386l2.772 4.158h2.052v-4.158h1.279v4.158h2.052l2.79-4.158h1.386l-3.132 4.608 3.402 4.861h-1.53l-2.916-4.213zm6.573-5.256h1.278v7.524l6.318-7.524h1.134v9.469h-1.278v-7.525l-6.3 7.525h-1.152v-9.469zm19.665 0v9.469h-1.17v-3.133h-3.33l-2.196 3.133h-1.386l2.358-3.313c-.732-.204-1.296-.552-1.692-1.044-.396-.492-.594-1.116-.594-1.872 0-1.056.36-1.86 1.08-2.412.72-.552 1.704-.828 2.952-.828h3.978zm-6.714 3.276c0 1.404.894 2.106 2.682 2.106h2.862v-4.248h-2.772c-1.848 0-2.772.714-2.772 2.142zM839.573 376.772c1.32.072 2.322.432 3.006 1.08.696.636 1.044 1.47 1.044 2.502 0 .72-.174 1.362-.522 1.926-.348.552-.864.99-1.548 1.314-.684.324-1.518.486-2.502.486a7.73 7.73 0 0 1-2.592-.432c-.804-.3-1.452-.696-1.944-1.188l.63-1.026c.42.432.978.786 1.674 1.062a6.24 6.24 0 0 0 2.232.396c1.032 0 1.83-.222 2.394-.666.564-.456.846-1.08.846-1.872 0-.78-.282-1.392-.846-1.836-.564-.444-1.416-.666-2.556-.666h-.9v-.954l3.492-4.374h-6.444v-1.152h8.1v.918l-3.564 4.482zm6.848 7.29a.934.934 0 0 1-.684-.288.989.989 0 0 1-.27-.702c0-.276.09-.504.27-.684a.934.934 0 0 1 .684-.288c.264 0 .492.096.684.288.192.18.288.408.288.684 0 .276-.096.51-.288.702a.934.934 0 0 1-.684.288zm7.869-7.632c.828 0 1.56.156 2.196.468a3.556 3.556 0 0 1 1.512 1.332c.36.564.54 1.224.54 1.98 0 .768-.186 1.446-.558 2.034a3.733 3.733 0 0 1-1.548 1.368c-.648.312-1.38.468-2.196.468-1.668 0-2.946-.546-3.834-1.638-.888-1.104-1.332-2.658-1.332-4.662 0-1.404.24-2.592.72-3.564s1.152-1.704 2.016-2.196c.864-.504 1.872-.756 3.024-.756 1.248 0 2.244.228 2.988.684l-.522 1.044c-.6-.396-1.416-.594-2.448-.594-1.392 0-2.484.444-3.276 1.332-.792.876-1.188 2.154-1.188 3.834 0 .3.018.642.054 1.026a3.351 3.351 0 0 1 1.494-1.584c.684-.384 1.47-.576 2.358-.576zm-.108 6.552c.912 0 1.65-.246 2.214-.738.576-.504.864-1.17.864-1.998 0-.828-.288-1.488-.864-1.98-.564-.492-1.332-.738-2.304-.738-.636 0-1.2.12-1.692.36-.48.24-.858.57-1.134.99-.276.42-.414.888-.414 1.404 0 .48.126.924.378 1.332.264.408.648.738 1.152.99.504.252 1.104.378 1.8.378zm9.169-6.444c1.824 0 3.15.33 3.978.99.84.648 1.26 1.56 1.26 2.736 0 .732-.174 1.386-.522 1.962-.336.576-.846 1.032-1.53 1.368-.684.324-1.524.486-2.52.486-.9 0-1.758-.144-2.574-.432-.804-.3-1.452-.696-1.944-1.188l.63-1.026c.42.432.972.786 1.656 1.062a6.096 6.096 0 0 0 2.214.396c1.044 0 1.848-.234 2.412-.702.576-.468.864-1.092.864-1.872 0-.864-.324-1.518-.972-1.962-.636-.444-1.716-.666-3.24-.666h-2.682l.648-6.318h6.894v1.152h-5.76l-.432 4.014h1.62zM440.814 393.975c1.32.072 2.322.432 3.006 1.08.696.636 1.044 1.47 1.044 2.502 0 .72-.174 1.362-.522 1.926-.348.552-.864.99-1.548 1.314-.684.324-1.518.486-2.502.486a7.73 7.73 0 0 1-2.592-.432c-.804-.3-1.452-.696-1.944-1.188l.63-1.026c.42.432.978.786 1.674 1.062a6.24 6.24 0 0 0 2.232.396c1.032 0 1.83-.222 2.394-.666.564-.456.846-1.08.846-1.872 0-.78-.282-1.392-.846-1.836-.564-.444-1.416-.666-2.556-.666h-.9v-.954l3.492-4.374h-6.444v-1.152h8.1v.918l-3.564 4.482zm6.849 7.29a.934.934 0 0 1-.684-.288.989.989 0 0 1-.27-.702c0-.276.09-.504.27-.684a.934.934 0 0 1 .684-.288c.264 0 .492.096.684.288.192.18.288.408.288.684 0 .276-.096.51-.288.702a.934.934 0 0 1-.684.288zm6.154-7.524c1.824 0 3.15.33 3.978.99.84.648 1.26 1.56 1.26 2.736 0 .732-.174 1.386-.522 1.962-.336.576-.846 1.032-1.53 1.368-.684.324-1.524.486-2.52.486-.9 0-1.758-.144-2.574-.432-.804-.3-1.452-.696-1.944-1.188l.63-1.026c.42.432.972.786 1.656 1.062a6.096 6.096 0 0 0 2.214.396c1.044 0 1.848-.234 2.412-.702.576-.468.864-1.092.864-1.872 0-.864-.324-1.518-.972-1.962-.636-.444-1.716-.666-3.24-.666h-2.682l.648-6.318h6.894v1.152h-5.76l-.432 4.014h1.62zm11.905 7.542c-.972 0-1.842-.258-2.61-.774-.756-.516-1.35-1.254-1.782-2.214-.42-.972-.63-2.112-.63-3.42 0-1.308.21-2.442.63-3.402.432-.972 1.026-1.716 1.782-2.232.768-.516 1.638-.774 2.61-.774s1.836.258 2.592.774c.768.516 1.368 1.26 1.8 2.232.432.96.648 2.094.648 3.402 0 1.308-.216 2.448-.648 3.42-.432.96-1.032 1.698-1.8 2.214-.756.516-1.62.774-2.592.774zm0-1.188c.732 0 1.374-.204 1.926-.612.564-.408 1.002-1.002 1.314-1.782.312-.78.468-1.722.468-2.826s-.156-2.046-.468-2.826c-.312-.78-.75-1.374-1.314-1.782-.552-.408-1.194-.612-1.926-.612s-1.38.204-1.944.612c-.552.408-.984 1.002-1.296 1.782-.312.78-.468 1.722-.468 2.826s.156 2.046.468 2.826c.312.78.744 1.374 1.296 1.782a3.231 3.231 0 0 0 1.944.612zM542.563 391.615v12.6h-1.296v-11.448h-2.97v-1.152h4.266zm3.984 12.69a.934.934 0 0 1-.684-.288.989.989 0 0 1-.27-.702c0-.276.09-.504.27-.684a.934.934 0 0 1 .684-.288c.264 0 .492.096.684.288.192.18.288.408.288.684 0 .276-.096.51-.288.702a.934.934 0 0 1-.684.288zm10.236-6.696c.792.264 1.398.66 1.818 1.188.432.528.648 1.164.648 1.908 0 .732-.198 1.374-.594 1.926-.396.54-.966.96-1.71 1.26-.732.288-1.596.432-2.592.432-1.512 0-2.7-.324-3.564-.972-.864-.648-1.296-1.53-1.296-2.646 0-.756.204-1.392.612-1.908.42-.528 1.026-.924 1.818-1.188-.648-.252-1.14-.612-1.476-1.08-.336-.48-.504-1.044-.504-1.692 0-1.02.396-1.83 1.188-2.43.804-.6 1.878-.9 3.222-.9.888 0 1.662.138 2.322.414.672.264 1.194.648 1.566 1.152.372.504.558 1.092.558 1.764 0 .648-.174 1.212-.522 1.692-.348.468-.846.828-1.494 1.08zm-5.544-2.736c0 .696.276 1.248.828 1.656.552.408 1.314.612 2.286.612s1.734-.204 2.286-.612c.564-.408.846-.954.846-1.638 0-.708-.288-1.266-.864-1.674-.564-.408-1.32-.612-2.268-.612-.96 0-1.722.204-2.286.612-.552.408-.828.96-.828 1.656zm3.114 8.352c1.116 0 1.986-.228 2.61-.684.636-.456.954-1.074.954-1.854s-.318-1.392-.954-1.836c-.624-.456-1.494-.684-2.61-.684-1.104 0-1.974.228-2.61.684-.624.444-.936 1.056-.936 1.836 0 .792.312 1.416.936 1.872.624.444 1.494.666 2.61.666zm10.003-6.444c1.824 0 3.15.33 3.978.99.84.648 1.26 1.56 1.26 2.736 0 .732-.174 1.386-.522 1.962-.336.576-.846 1.032-1.53 1.368-.684.324-1.524.486-2.52.486-.9 0-1.758-.144-2.574-.432-.804-.3-1.452-.696-1.944-1.188l.63-1.026c.42.432.972.786 1.656 1.062a6.096 6.096 0 0 0 2.214.396c1.044 0 1.848-.234 2.412-.702.576-.468.864-1.092.864-1.872 0-.864-.324-1.518-.972-1.962-.636-.444-1.716-.666-3.24-.666h-2.682l.648-6.318h6.894v1.152h-5.76l-.432 4.014h1.62z" fill="#20201F"/></g><defs><clipPath id="a"><path fill="#fff" transform="translate(48 56)" d="M0 0h854.585v437.171H0z"/></clipPath></defs></svg>