<svg width="750" height="700" fill="none" xmlns="http://www.w3.org/2000/svg"><path fill="#fff" d="M0 0h750v700H0z"/><g clip-path="url(#a)"><path fill-rule="evenodd" clip-rule="evenodd" d="M51 676.367h424.6v-94.02h223.381V23H242.643v17.974l-56.913.01L68.968 157.745v56.892H51v461.729z" fill="#ED9FA6"/><path d="M698.981 58.932h-14.975V457.78h14.975V58.932z" fill="#C6C0E1"/><path fill-rule="evenodd" clip-rule="evenodd" d="M51 676.367h424.6v-94.02h223.381V23H242.643v17.974l-56.913.01L68.968 157.745v56.892H51v461.729z" fill="#F6D6B9"/><path d="M698.981 58.932h-14.975V457.78h14.975V58.932z" fill="#E4CDA1"/><path d="M81.544 626.058H58.787v35.333h22.757v-35.333zM475.6 661.391H51v14.976h424.6v-14.976zM475.6 567.372h-14.975v94.019H475.6v-94.019z" fill="#20201F"/><path d="M488.994 567.372h-28.369v14.975h28.369v-14.975zM81.544 414.66H58.787v85.639h22.757V414.66zM81.544 222.423H58.787v66.475h22.757v-66.475z" fill="#20201F"/><path d="M272.832 222.423H58.787v22.409h214.045v-22.409z" fill="#20201F"/><path d="M273.181 137.384h-22.757V245.18h22.757V137.384zM273.181 30.785h-22.757v58.69h22.757v-58.69z" fill="#20201F"/><path d="M316.9 30.785h-66.476v22.757H316.9V30.785zM527.703 30.785h-85.039v22.757h85.039V30.785zM684.006 30.785h-30.538v22.757h30.538V30.785zM698.981 38.51h-14.975v419.27h14.975V38.51z" fill="#20201F"/><path d="M698.981 442.808h-14.975v14.972h14.975v-14.972zM698.981 567.372H548.878v14.975h150.103v-14.975z" fill="#20201F"/><path d="M698.981 457.78h-14.975v124.567h14.975V457.78zM102.504 445.802H66.572v35.932h35.932v-35.932zM102.504 230.892H66.572v35.248h35.932v-35.248zM294.143 38.57h-35.929v35.932h35.929V38.57zM273.007 230.015h-38.922v14.643h38.922v-14.643z" fill="#20201F"/><path d="M273.181 206.253h-14.967v38.23h14.967v-38.23zM527.704 38.57h-35.938v35.932h35.938V38.57zM496.562 370.943h-35.937v35.932h35.937v-35.932zM698.981 30.126h-14.975v28.806h14.975V30.126zM250.424 214.638H51.001v7.785h199.423v-7.785zM250.424 137.384h-7.781v77.254h7.781v-77.254zM250.424 23h-7.781v66.475h7.781V23z" fill="#20201F"/><path d="M320.497 23h-77.854v7.785h77.854V23zM531.292 23h-92.225v7.785h92.225V23zM698.981 23h-48.515v7.785h48.515V23zM51.002 645.821H51v7.133h.002v-7.133z" fill="#20201F"/><path d="M58.787 622.469h-7.785v38.922h7.785v-38.922zM58.787 411.068h-7.785v92.824h7.785v-92.824zM58.787 222.423h-7.785v70.068h7.785v-70.068z" fill="#20201F"/><path d="M53.362 650.418H51v15.187h2.362v-15.187z" fill="#20201F"/><path fill-rule="evenodd" clip-rule="evenodd" d="M188.447 48.42h54.196v-7.454H185.73v.017L68.968 157.746v56.892h7.186v-53.916L188.447 48.421z" fill="#20201F"/><path d="M273.181 245.181h-4.788v167.008h4.788V245.181z" fill="#20201F"/><path d="M327.648 402.085h-56.804v4.79h56.804v-4.79zM460.624 402.085h-55.122v4.79h55.122v-4.79zM281.251 476.944H102.504v4.791h178.747v-4.791z" fill="#20201F"/><path d="M273.181 466.087h-4.788v13.227h4.788v-13.227z" fill="#20201F"/><path fill-rule="evenodd" clip-rule="evenodd" d="M335.149 476.944h82.19l-1.947 4.791h-80.243v-4.791z" fill="#20201F"/><path d="M367.277 479.246h-4.797v17.217h4.797v-17.217z" fill="#20201F"/><path fill-rule="evenodd" clip-rule="evenodd" d="m417.339 476.944 15.265 14.833-3.333 3.436-13.879-13.478 1.947-4.791z" fill="#20201F"/><path d="M400.553 479.482h-4.788v87.89h4.788v-87.89z" fill="#20201F"/><path d="M460.624 567.372H362.48v4.788h98.144v-4.788z" fill="#20201F"/><path d="M367.277 563.128h-4.797v20.265h4.797v-20.265z" fill="#20201F"/><path fill-rule="evenodd" clip-rule="evenodd" d="m484.197 548.587 4.796-2.024v20.809h-4.796v-18.785z" fill="#20201F"/><path fill-rule="evenodd" clip-rule="evenodd" d="m480.359 538.175 8.634 8.388-4.796 2.024-7.224-7.025 3.386-3.387z" fill="#20201F"/><path d="M564.832 544.114h-4.788v23.258h4.788v-23.258zM564.832 412.865h-4.788v89.33h4.788v-89.33zM564.832 315.847h-12.374v4.34h12.374v-4.34z" fill="#20201F"/><path d="M564.832 315.847h-4.788v55.096h4.788v-55.096zM504.547 315.847h-10.504v4.791h10.504v-4.791z" fill="#20201F"/><path d="M496.562 74.502h-4.796v296.441h4.796V74.503zM684.006 315.847H564.832v4.791h119.174v-4.791zM684.006 487.723H564.832v4.791h119.174v-4.791zM698.981 504.491h-.337v7.189h.337v-7.189zM367.277 650.056h-4.797v11.335h4.797v-11.335zM439.067 23.02h-118.57v3.853h118.57V23.02zM442.936 30.785H316.899v3.852h126.037v-3.852zM442.936 49.69H316.899v3.852h126.037v-3.851zM650.467 23.02H531.279v3.853h119.188V23.02zM653.564 30.785H527.703v3.852h125.861v-3.852zM653.564 49.69H527.703v3.852h125.861v-3.851zM54.852 503.889H51v118.587h3.852V503.889zM62.617 500.3h-3.852v125.765h3.852V500.3zM81.521 500.3H77.67v125.765h3.851V500.3zM54.852 292.487H51v118.587h3.852V292.487zM62.617 288.898h-3.852v125.766h3.852V288.898zM81.521 288.898H77.67v125.766h3.851V288.898z" fill="#20201F"/><path fill-rule="evenodd" clip-rule="evenodd" d="M329.367 402.427a1.701 1.701 0 0 1 3.401 0v35.996a1.702 1.702 0 0 1-3.401 0v-35.996zM363.985 402.085a.85.85 0 0 1 1.701 0c0 10.236-3.401 19.511-8.895 26.232-5.533 6.769-13.193 10.957-21.662 10.957a.85.85 0 0 1 0-1.701c7.933 0 15.129-3.95 20.348-10.333 5.255-6.429 8.508-15.322 8.508-25.155zM399.723 402.433a1.702 1.702 0 0 1 3.402 0v35.998a1.702 1.702 0 0 1-3.402 0v-35.998zM366.803 402.093a.85.85 0 1 1 1.701 0c0 9.831 3.253 18.726 8.509 25.154 5.219 6.384 12.417 10.334 20.349 10.334a.85.85 0 1 1 0 1.7c-8.469 0-16.13-4.188-21.663-10.957-5.495-6.721-8.896-15.998-8.896-26.231zM270.03 418.183a1.702 1.702 0 0 1 0-3.402h35.996a1.702 1.702 0 0 1 0 3.402H270.03zM269.688 463.177a.851.851 0 1 1 0-1.701c9.782 0 18.645-4.408 25.062-11.531 6.441-7.149 10.426-17.031 10.426-27.948a.85.85 0 0 1 1.7 0c0 11.349-4.152 21.635-10.864 29.084-6.732 7.472-16.039 12.096-26.324 12.096zM330.257 478.975a1.702 1.702 0 0 1 3.402 0v35.996a1.702 1.702 0 0 1-3.402 0v-35.996zM283.354 478.633a.85.85 0 0 1 1.701 0c0 9.776 4.591 18.636 12.009 25.052 7.453 6.447 17.761 10.436 29.15 10.436a.85.85 0 0 1 0 1.701c-11.805 0-22.507-4.149-30.259-10.854-7.784-6.733-12.601-16.044-12.601-26.335zM509.723 318.569a1.701 1.701 0 0 1-3.401 0v-35.996a1.702 1.702 0 0 1 3.401 0v35.996zM550.114 318.911a.85.85 0 0 1-1.701 0c0-9.801-3.967-18.675-10.378-25.095-6.41-6.421-15.268-10.393-25.051-10.393a.85.85 0 1 1 0-1.701c10.248 0 19.532 4.165 26.253 10.898 6.719 6.729 10.877 16.026 10.877 26.291zM561.966 375.063a1.7 1.7 0 0 1 0-3.402h35.997a1.702 1.702 0 0 1 0 3.402h-35.997zM561.625 410.382a.85.85 0 1 1 0-1.7c9.823 0 18.71-3.482 25.135-9.108 6.396-5.6 10.353-13.332 10.353-21.861a.85.85 0 1 1 1.7 0c0 9.037-4.18 17.22-10.937 23.137-6.725 5.889-16.008 9.532-26.251 9.532zM561.966 506.94a1.7 1.7 0 0 1 0-3.401h35.997c.938 0 1.701.762 1.701 1.701 0 .938-.763 1.7-1.701 1.7h-35.997zM561.625 542.26a.851.851 0 1 1 0-1.701c9.823 0 18.71-3.482 25.135-9.108 6.396-5.6 10.353-13.331 10.353-21.861a.85.85 0 0 1 1.7 0c0 9.037-4.18 17.221-10.937 23.137-6.725 5.889-16.008 9.533-26.251 9.533zM493.416 577.573a1.702 1.702 0 0 1-3.401 0v-35.996a1.701 1.701 0 0 1 3.401 0v35.996zM544.897 577.915a.851.851 0 1 1-1.701 0c0-9.762-5.03-18.612-13.159-25.03-8.186-6.46-19.51-10.458-32.027-10.458a.85.85 0 0 1 0-1.7c12.902 0 24.599 4.139 33.076 10.83 8.53 6.734 13.811 16.053 13.811 26.358zM252.034 135.801a1.702 1.702 0 0 1 0-3.402h35.996a1.702 1.702 0 0 1 0 3.402h-35.996zM251.692 92.862a.85.85 0 1 1 0-1.7c10.268 0 19.567 4.244 26.297 11.101 6.729 6.856 10.891 16.325 10.891 26.774a.85.85 0 1 1-1.7 0c0-9.992-3.975-19.038-10.4-25.585-6.42-6.542-15.291-10.59-25.088-10.59zM681.567 177.36v90.354h-36.142v-91.417h36.142v1.063zm-4.273 62.075c0-.994-.407-1.9-1.065-2.554a3.608 3.608 0 0 0-2.549-1.061h-20.41c-.991 0-1.894.408-2.554 1.061a3.608 3.608 0 0 0-1.06 2.554v20.41a3.622 3.622 0 0 0 3.614 3.613h20.41c.995 0 1.899-.406 2.551-1.063a3.6 3.6 0 0 0 1.063-2.55v-20.41zm-1.689-51.565a4.994 4.994 0 0 0-1.464-3.532 4.987 4.987 0 0 0-7.064.003 4.982 4.982 0 0 0 .002 7.059 4.975 4.975 0 0 0 3.53 1.466c1.378 0 2.628-.56 3.532-1.464a4.987 4.987 0 0 0 1.464-3.532zm-13.163 0c0-1.672-.68-3.187-1.776-4.283a6.043 6.043 0 0 0-4.283-1.776c-1.672 0-3.188.68-4.284 1.776a6.04 6.04 0 0 0-1.775 4.283c0 1.671.679 3.187 1.775 4.284a6.043 6.043 0 0 0 4.284 1.775 6.042 6.042 0 0 0 4.283-1.775 6.047 6.047 0 0 0 1.776-4.284zm-2.827 3.233a4.562 4.562 0 0 0 1.339-3.233 4.558 4.558 0 0 0-1.339-3.232 4.56 4.56 0 0 0-3.232-1.339 4.56 4.56 0 0 0-3.233 1.339 4.561 4.561 0 0 0-1.338 3.232 4.565 4.565 0 0 0 4.571 4.571 4.563 4.563 0 0 0 3.232-1.338zm17.053 9.762a6.037 6.037 0 0 0-1.776-4.283 6.037 6.037 0 0 0-4.283-1.776 6.043 6.043 0 0 0-4.284 1.775 6.043 6.043 0 0 0-1.775 4.284c0 1.672.679 3.187 1.776 4.283a6.037 6.037 0 0 0 4.283 1.776 6.039 6.039 0 0 0 4.283-1.776 6.039 6.039 0 0 0 1.776-4.283zm-2.827 3.232a4.558 4.558 0 0 0 1.339-3.232 4.556 4.556 0 0 0-1.339-3.232 4.556 4.556 0 0 0-3.232-1.339 4.558 4.558 0 0 0-3.233 1.338 4.56 4.56 0 0 0-1.338 3.233c0 1.263.513 2.407 1.339 3.232a4.556 4.556 0 0 0 3.232 1.339 4.558 4.558 0 0 0 3.232-1.339zm-12.462-3.232a4.99 4.99 0 0 0-1.465-3.532 4.982 4.982 0 0 0-3.531-1.464c-1.375 0-2.625.56-3.532 1.467a4.982 4.982 0 0 0 .002 7.059 4.975 4.975 0 0 0 3.53 1.466c1.377 0 2.627-.56 3.531-1.464a4.983 4.983 0 0 0 1.465-3.532zm-2.516 2.481a3.5 3.5 0 0 0 1.028-2.481c0-.971-.392-1.849-1.025-2.481a3.513 3.513 0 0 0-4.964-.002 3.496 3.496 0 0 0-1.027 2.483 3.5 3.5 0 0 0 1.027 2.481 3.486 3.486 0 0 0 2.481 1.027c.968 0 1.847-.394 2.48-1.027zm14.227-12.995a3.503 3.503 0 0 0 1.027-2.481 3.508 3.508 0 0 0-3.508-3.508c-.971 0-1.849.392-2.481 1.025a3.496 3.496 0 0 0-1.027 2.483 3.503 3.503 0 0 0 3.508 3.508c.969 0 1.847-.394 2.481-1.027zm2.078 69.494v-20.41c0-.408-.168-.781-.438-1.051a1.475 1.475 0 0 0-1.05-.438h-20.41a1.486 1.486 0 0 0-1.488 1.489v20.41c0 .41.167.782.434 1.049.274.27.648.438 1.054.438h20.41c.406 0 .78-.168 1.05-.438.271-.267.438-.639.438-1.049zm-27.617-49.567h31.89v-31.855h-31.89v31.855zm31.89 2.126h-31.89v53.184h31.89v-53.184zM649.042 524.921c2.797 1.799 6.386 2.909 9.541 2.909 3.105 0 5.529-1.065 7.216-2.809v-.005c.638-.661 1.132-1.445 1.55-2.276v3.588c0 2.141.895 3.396 2.331 4.125 1.307.665 3.036.829 4.932.829h.782v-.019c1.58-.045 3.023-.242 4.146-.81 1.435-.729 2.326-1.984 2.326-4.115v-17.595c0-2.14-.891-3.394-2.326-4.118-1.123-.564-2.566-.767-4.146-.81v-.019h-.782c-1.896 0-3.625.164-4.932.829-1.436.724-2.331 1.978-2.331 4.118v3.595c-.418-.831-.907-1.612-1.55-2.275-1.687-1.747-4.111-2.814-7.216-2.814-3.335 0-7.151 1.243-10.014 3.226-2.641 1.829-4.495 4.303-4.495 7.064 0 2.924 2.079 5.528 4.968 7.382zm27.903-7.889h.005v.003c0 .631-.263 1.211-.681 1.63v.005a2.299 2.299 0 0 1-1.632.675c-.639 0-1.21-.258-1.627-.675h-.008l.001-.005a2.31 2.31 0 0 1-.675-1.63c0-.642.257-1.221.674-1.636a2.313 2.313 0 0 1 3.943 1.633zm-1.183-.003v.006c0 .311-.124.592-.32.792h-.008a1.14 1.14 0 0 1-1.597.01l-.005-.008a1.141 1.141 0 0 1-.323-.794c0-.323.127-.602.323-.803.201-.197.49-.321.805-.321.315 0 .602.124.797.33.209.197.336.481.336.788h-.008zm-6.85-8.286c0-1.444.567-2.269 1.466-2.729.932-.464 2.224-.62 3.685-.648h.549c1.683 0 3.191.129 4.23.648.899.46 1.46 1.287 1.46 2.729v17.595c0 1.44-.561 2.263-1.46 2.723-1.039.524-2.547.65-4.23.65h-.609c-1.43-.032-2.714-.186-3.625-.648-.907-.462-1.466-1.291-1.466-2.735v-17.585zm-19.458 3.012c2.612-1.812 6.093-2.945 9.129-2.945 2.653 0 4.694.887 6.095 2.333 1.533 1.583 2.325 3.862 2.325 6.396 0 2.538-.792 4.815-2.325 6.402-1.401 1.443-3.442 2.327-6.095 2.327-2.868 0-6.143-1.014-8.702-2.658-2.467-1.584-4.244-3.74-4.244-6.071 0-2.192 1.58-4.228 3.817-5.784zM682.642 397.957l.006 19.49c0 6.519-13.492 5.751-14.393 5.684a11.29 11.29 0 0 1-8.007-3.327 11.306 11.306 0 0 1-3.316-8.009v-8.271c0-3.129 1.266-5.964 3.316-8.018a11.391 11.391 0 0 1 8.012-3.329c.916-.042 14.388-.712 14.382 5.78zm-13.143 9.706h-.002a2.54 2.54 0 0 0-.727-1.77 2.538 2.538 0 0 0-1.766-.718 2.483 2.483 0 0 0-2.492 2.49c0 .684.276 1.309.728 1.76v.008h.005c.45.451 1.07.733 1.759.733.682 0 1.316-.282 1.766-.733v-.002c.45-.451.734-1.082.734-1.766l-.005-.002zm-1.271-.004c0-.326-.134-.633-.36-.853a1.222 1.222 0 0 0-.864-.352c-.34 0-.649.132-.869.347a1.226 1.226 0 0 0-.348.864c0 .344.134.641.348.861l.005.005c.215.219.524.352.864.352.336 0 .644-.142.864-.354l.003-.005c.216-.215.346-.522.346-.854l-.003-.011h.014zm9.665.004c0-3.142-.937-5.995-2.439-8.069-1.572-2.155-3.768-3.494-6.2-3.496-2.443 0-4.638 1.341-6.213 3.496-1.511 2.082-2.439 4.936-2.439 8.079v.014c.008 3.134.943 5.98 2.449 8.061 1.57 2.145 3.76 3.482 6.189 3.484l.014-.002c2.438 0 4.621-1.337 6.2-3.5 1.505-2.069 2.439-4.92 2.436-8.06l.003-.007zm-1.758 0c-.005-2.754-.813-5.242-2.112-7.041-1.241-1.699-2.933-2.756-4.769-2.756-1.849 0-3.541 1.057-4.787 2.769-1.294 1.79-2.099 4.274-2.099 7.038v.005l-.005.009c.005 2.756.81 5.234 2.111 7.024 1.237 1.694 2.931 2.75 4.766 2.755l.014-.005c1.84.003 3.533-1.054 4.769-2.756 1.294-1.791 2.107-4.276 2.104-7.032v-.01h.008zm4.748-9.7c0-4.839-12.526-4.014-12.558-4.014l-.065.007a9.567 9.567 0 0 0-6.764 2.791 9.58 9.58 0 0 0-2.798 6.777v8.262a9.555 9.555 0 0 0 9.562 9.584l.062.003c.032 0 12.561.888 12.561-3.931v-19.479zM679.15 482.842H577.561v-41.559H679.15v41.559zm-19.796-24.819a4.036 4.036 0 0 0-2.856 6.893 4.026 4.026 0 0 0 2.856 1.186 4.026 4.026 0 0 0 2.854-1.183 4.018 4.018 0 0 0 1.185-2.856 4.029 4.029 0 0 0-1.182-2.857 4.03 4.03 0 0 0-2.857-1.183zm-1.715 2.324a2.421 2.421 0 0 0-.709 1.716 2.42 2.42 0 0 0 2.424 2.423 2.42 2.42 0 0 0 2.424-2.423 2.423 2.423 0 0 0-2.424-2.424 2.43 2.43 0 0 0-1.715.708zm13.843-17.875-71.712 1.616c-10.771 0-19.591 7.204-19.591 17.975 0 10.77 8.82 17.974 19.591 17.974l71.712 1.616c1.39 0 2.653-.569 3.567-1.483a5.048 5.048 0 0 0 1.482-3.567v-29.081a5.038 5.038 0 0 0-1.482-3.563 5.038 5.038 0 0 0-3.567-1.487zm-71.712 3.636c-9.667 0-17.571 6.288-17.571 15.955s7.904 15.954 17.571 15.954l71.712 1.616c.831 0 1.589-.342 2.143-.891a3.02 3.02 0 0 0 .886-2.139v-29.081c0-.835-.34-1.592-.891-2.143a3.016 3.016 0 0 0-2.138-.887l-71.712 1.616zm-22.422 38.712h102.015c.507 0 .97-.201 1.305-.52.338-.32.546-.766.546-1.255V441.08c0-.489-.208-.935-.542-1.255a1.89 1.89 0 0 0-1.309-.52H577.348c-.51 0-.974.199-1.31.52a1.755 1.755 0 0 0-.542 1.255v41.965c0 .487.209.93.542 1.252.34.323.802.523 1.31.523zM434.786 490.287l2.065 2.065a.633.633 0 0 1-.001.894l-.431.432 21.236 21.236a.92.92 0 0 1 0 1.299.92.92 0 0 1-1.299 0l-21.236-21.236-3.541 3.54a.636.636 0 0 1-.894.001l-2.065-2.065a.633.633 0 0 1 .001-.894l5.271-5.271a.633.633 0 0 1 .894-.001zM474.745 542.877l-2.065-2.065a.635.635 0 0 1 .001-.894l.432-.432-21.236-21.236a.918.918 0 1 1 1.298-1.299l21.237 21.236 3.54-3.54a.636.636 0 0 1 .894-.001l2.065 2.065a.633.633 0 0 1 0 .894l-5.272 5.271a.633.633 0 0 1-.894.001zM361.021 497.083v2.92c0 .349.285.632.632.632h.611v30.032a.919.919 0 1 0 1.837 0v-30.032h5.007a.637.637 0 0 0 .633-.632v-2.92a.634.634 0 0 0-.633-.632h-7.455a.633.633 0 0 0-.632.632zM369.951 562.525v-2.921a.633.633 0 0 0-.632-.631h-.611V528.94a.918.918 0 1 0-1.837 0v30.033h-5.007a.636.636 0 0 0-.633.631v2.921c0 .348.284.632.633.632h7.455a.633.633 0 0 0 .632-.632zM361.003 583.999v2.92c0 .349.286.632.633.632h.611v30.033a.919.919 0 0 0 1.837 0v-30.033h5.007a.636.636 0 0 0 .632-.632v-2.92a.633.633 0 0 0-.632-.632h-7.455a.633.633 0 0 0-.633.632zM369.934 649.441v-2.92a.633.633 0 0 0-.632-.632h-.611v-30.033a.92.92 0 0 0-1.837 0v30.033h-5.007a.637.637 0 0 0-.633.632v2.92c0 .349.284.632.633.632h7.455a.633.633 0 0 0 .632-.632z" fill="#20201F"/><path d="M353.625 136.141c3.526.575 6.228 1.897 8.106 3.967 1.878 2.031 2.817 4.561 2.817 7.589 0 2.338-.613 4.503-1.839 6.496-1.227 1.955-3.105 3.526-5.635 4.715-2.491 1.188-5.557 1.782-9.198 1.782-2.836 0-5.634-.364-8.394-1.092-2.721-.767-5.04-1.84-6.956-3.22l3.621-7.129c1.534 1.15 3.297 2.051 5.29 2.702 2.031.613 4.101.92 6.209.92 2.338 0 4.178-.441 5.519-1.322 1.342-.92 2.012-2.204 2.012-3.852 0-3.296-2.51-4.945-7.531-4.945h-4.255v-6.151l8.279-9.371h-17.132v-7.474h28.171v6.036l-9.084 10.349zM381.48 88h-2.126v101.095h2.126V88zM405.793 110.746h-2.875v3.778h-1.478v-3.778h-8.11v-1.068l7.617-9.527h1.643l-7.351 9.281h6.242v-3.327h1.437v3.327h2.875v1.314zm10.478-10.595v1.047l-6.016 13.326h-1.601l5.913-13.059h-7.392v2.69h-1.457v-4.004h10.553zm1.974 14.476c-.301 0-.561-.11-.78-.329a1.13 1.13 0 0 1-.308-.801c0-.315.103-.575.308-.78.219-.219.479-.328.78-.328.302 0 .562.109.781.328.219.205.328.465.328.78s-.109.582-.328.801a1.067 1.067 0 0 1-.781.329zm13.258-1.417v1.314h-10.082v-1.047l5.975-5.852c.753-.739 1.26-1.376 1.52-1.91a3.64 3.64 0 0 0 .411-1.642c0-.849-.295-1.506-.883-1.971-.575-.48-1.403-.719-2.485-.719-1.684 0-2.991.534-3.922 1.601l-1.047-.903c.561-.657 1.273-1.163 2.136-1.519.876-.356 1.861-.534 2.956-.534 1.465 0 2.622.349 3.47 1.047.863.684 1.294 1.629 1.294 2.833 0 .74-.164 1.451-.493 2.136-.328.684-.951 1.471-1.868 2.361l-4.887 4.805h7.905zm7.73-7.289c.944 0 1.779.178 2.505.534a4.045 4.045 0 0 1 1.724 1.519c.411.643.616 1.396.616 2.259 0 .876-.212 1.649-.636 2.32a4.256 4.256 0 0 1-1.766 1.56c-.739.356-1.574.534-2.505.534-1.903 0-3.361-.623-4.373-1.868-1.013-1.26-1.52-3.032-1.52-5.318 0-1.602.274-2.957.821-4.066.548-1.109 1.315-1.944 2.3-2.505.986-.575 2.135-.862 3.45-.862 1.423 0 2.559.26 3.408.78l-.595 1.191c-.685-.452-1.616-.678-2.793-.678-1.588 0-2.833.507-3.737 1.52-.903.999-1.355 2.457-1.355 4.373 0 .342.021.733.062 1.171.355-.781.924-1.383 1.704-1.807.78-.438 1.677-.657 2.69-.657zm-.124 7.474c1.041 0 1.883-.281 2.526-.842.657-.575.986-1.335.986-2.279 0-.945-.329-1.698-.986-2.259-.643-.561-1.519-.842-2.628-.842-.726 0-1.369.137-1.93.411-.548.274-.979.65-1.294 1.129a2.852 2.852 0 0 0-.472 1.602c0 .547.144 1.054.431 1.519.301.466.739.842 1.314 1.129.575.288 1.259.432 2.053.432zM406.388 136.274c.904.301 1.595.753 2.074 1.355.493.602.739 1.328.739 2.177 0 .835-.226 1.567-.677 2.197-.452.616-1.102 1.095-1.951 1.437-.835.329-1.821.493-2.957.493-1.724 0-3.08-.37-4.065-1.109-.986-.739-1.479-1.745-1.479-3.018 0-.863.233-1.588.699-2.177.479-.602 1.17-1.054 2.073-1.355-.739-.287-1.3-.698-1.683-1.232-.384-.547-.575-1.191-.575-1.93 0-1.164.452-2.088 1.355-2.772.917-.684 2.142-1.027 3.675-1.027 1.013 0 1.896.158 2.649.473.767.301 1.362.739 1.786 1.314.425.575.637 1.245.637 2.012 0 .739-.199 1.383-.596 1.93-.396.534-.965.945-1.704 1.232zm-6.324-3.121c0 .794.315 1.424.945 1.889.629.465 1.499.698 2.607.698 1.109 0 1.978-.233 2.608-.698.643-.465.965-1.088.965-1.868 0-.808-.328-1.445-.986-1.91-.643-.465-1.505-.698-2.587-.698-1.095 0-1.964.233-2.607.698-.63.465-.945 1.095-.945 1.889zm3.552 9.527c1.273 0 2.266-.26 2.978-.78.725-.52 1.088-1.225 1.088-2.115 0-.89-.363-1.588-1.088-2.094-.712-.52-1.705-.78-2.978-.78-1.259 0-2.251.26-2.977.78-.712.506-1.068 1.204-1.068 2.094 0 .904.356 1.615 1.068 2.136.712.506 1.704.759 2.977.759zm11.616-13.243v14.373h-1.479v-13.059h-3.388v-1.314h4.867zm4.544 14.475c-.301 0-.561-.109-.78-.328a1.13 1.13 0 0 1-.308-.801c0-.315.103-.575.308-.78.219-.219.479-.329.78-.329.301 0 .561.11.78.329.219.205.329.465.329.78s-.11.582-.329.801a1.065 1.065 0 0 1-.78.328zm6.985-14.475v14.373h-1.478v-13.059h-3.388v-1.314h4.866zm13.579 0v1.047l-6.016 13.326h-1.601l5.913-13.059h-7.392v2.69h-1.458v-4.004h10.554zM403.545 165.56c.903.301 1.594.753 2.073 1.355.493.602.74 1.328.74 2.176 0 .835-.226 1.568-.678 2.197-.452.616-1.102 1.095-1.951 1.438-.835.328-1.82.492-2.956.492-1.725 0-3.08-.369-4.066-1.108-.985-.74-1.478-1.746-1.478-3.019 0-.862.232-1.588.698-2.176.479-.602 1.17-1.054 2.074-1.355-.74-.288-1.301-.698-1.684-1.232-.383-.548-.575-1.191-.575-1.93 0-1.164.452-2.088 1.355-2.772.917-.685 2.142-1.027 3.676-1.027 1.013 0 1.895.157 2.648.472.767.301 1.362.739 1.787 1.314.424.575.636 1.246.636 2.013 0 .739-.198 1.382-.595 1.93-.397.534-.965.944-1.704 1.232zm-6.325-3.121c0 .794.315 1.423.945 1.889.63.465 1.499.698 2.608.698 1.108 0 1.978-.233 2.607-.698.644-.466.965-1.089.965-1.869 0-.807-.328-1.444-.985-1.909-.644-.466-1.506-.698-2.587-.698-1.095 0-1.965.232-2.608.698-.63.465-.945 1.095-.945 1.889zm3.553 9.527c1.273 0 2.265-.26 2.977-.78.725-.521 1.088-1.225 1.088-2.115 0-.89-.363-1.588-1.088-2.095-.712-.52-1.704-.78-2.977-.78-1.26 0-2.252.26-2.978.78-.711.507-1.067 1.205-1.067 2.095 0 .903.356 1.615 1.067 2.135.712.507 1.705.76 2.978.76zm19.849-2.649h-2.875v3.778h-1.478v-3.778h-8.111v-1.068l7.618-9.527h1.642l-7.35 9.281h6.242v-3.326h1.437v3.326h2.875v1.314zm2.867 3.881c-.301 0-.561-.11-.78-.329a1.129 1.129 0 0 1-.308-.8c0-.315.103-.575.308-.781.219-.219.479-.328.78-.328.301 0 .561.109.78.328.22.206.329.466.329.781 0 .314-.109.581-.329.8a1.066 1.066 0 0 1-.78.329zm6.985-14.476v14.373h-1.478v-13.059h-3.388v-1.314h4.866zm7.214 5.893c2.081 0 3.593.377 4.538 1.129.958.74 1.437 1.78 1.437 3.121 0 .835-.198 1.581-.595 2.239-.384.657-.965 1.177-1.746 1.56-.78.37-1.738.554-2.874.554a8.768 8.768 0 0 1-2.936-.492c-.917-.343-1.657-.794-2.218-1.356l.719-1.17c.479.493 1.109.897 1.889 1.212.78.301 1.622.451 2.525.451 1.191 0 2.108-.267 2.752-.801.657-.533.985-1.245.985-2.135 0-.986-.369-1.732-1.108-2.238-.726-.506-1.958-.76-3.696-.76h-3.06l.739-7.207h7.864v1.314h-6.57l-.493 4.579h1.848z" fill="#20201F"/><path d="M339.58 275.793h-5.667v8.418h-3.183v-11.046h8.85v2.628zm6.411 8.583c-1.164 0-2.211-.24-3.142-.719a5.506 5.506 0 0 1-2.156-2.033c-.52-.862-.78-1.841-.78-2.936s.26-2.074.78-2.936a5.365 5.365 0 0 1 2.156-2.012c.931-.493 1.978-.739 3.142-.739 1.163 0 2.203.246 3.121.739a5.372 5.372 0 0 1 2.156 2.012c.52.862.78 1.841.78 2.936s-.26 2.074-.78 2.936a5.513 5.513 0 0 1-2.156 2.033c-.918.479-1.958.719-3.121.719zm0-2.629c.821 0 1.492-.273 2.012-.821.534-.561.801-1.307.801-2.238s-.267-1.67-.801-2.217c-.52-.562-1.191-.842-2.012-.842-.822 0-1.499.28-2.033.842-.534.547-.801 1.286-.801 2.217s.267 1.677.801 2.238c.534.548 1.211.821 2.033.821zm13.516 2.629c-1.177 0-2.238-.24-3.182-.719a5.62 5.62 0 0 1-2.197-2.033c-.52-.862-.781-1.841-.781-2.936s.261-2.074.781-2.936a5.476 5.476 0 0 1 2.197-2.012c.944-.493 2.005-.739 3.182-.739 1.164 0 2.177.246 3.039.739a4.259 4.259 0 0 1 1.91 2.074l-2.485 1.334c-.575-1.013-1.403-1.519-2.484-1.519-.835 0-1.527.273-2.074.821-.548.548-.821 1.294-.821 2.238 0 .945.273 1.691.821 2.238.547.548 1.239.821 2.074.821 1.095 0 1.923-.506 2.484-1.519l2.485 1.355c-.397.876-1.034 1.561-1.91 2.054-.862.492-1.875.739-3.039.739zm16.136-8.583h-3.737v8.418h-3.183v-8.418h-3.737v-2.628h10.657v2.628zm1.707-2.628h3.183v6.57l5.379-6.57h2.937v11.046h-3.183v-6.57l-5.359 6.57h-2.957v-11.046zm14.578 0h3.182v4.312h4.805v-4.312h3.203v11.046h-3.203v-4.127h-4.805v4.127h-3.182v-11.046zm18.548-.164c1.711 0 3.025.41 3.942 1.231.917.808 1.376 2.033 1.376 3.676v6.303h-2.998v-1.375c-.602 1.026-1.725 1.54-3.367 1.54-.849 0-1.588-.144-2.218-.432-.616-.287-1.088-.684-1.417-1.19a3.106 3.106 0 0 1-.492-1.725c0-1.027.383-1.834 1.149-2.423.781-.589 1.978-.883 3.594-.883h2.546c0-.698-.213-1.232-.637-1.601-.424-.384-1.061-.575-1.909-.575-.589 0-1.171.095-1.746.287a4.452 4.452 0 0 0-1.437.739l-1.15-2.238c.602-.424 1.321-.753 2.156-.985a9.807 9.807 0 0 1 2.608-.349zm-.247 9.219c.548 0 1.034-.123 1.458-.37.425-.26.726-.636.904-1.129v-1.129h-2.197c-1.314 0-1.972.431-1.972 1.293 0 .411.158.739.473.986.328.232.773.349 1.334.349zm18.162-9.055v11.046h-2.854v-3.162h-2.361l-2.095 3.162h-3.408l2.525-3.613c-.766-.301-1.355-.733-1.765-1.294-.397-.575-.596-1.266-.596-2.074 0-1.3.466-2.299 1.396-2.998.945-.711 2.238-1.067 3.881-1.067h5.277zm-5.215 2.607c-.685 0-1.205.124-1.561.37-.342.246-.513.643-.513 1.191 0 .547.164.951.493 1.211.342.247.855.37 1.54.37h2.402v-3.142h-2.361z" fill="#000"/><path d="M362.339 310.787v2.71h-10.862v-2.156l5.544-5.236c.588-.561.985-1.04 1.191-1.437.205-.411.308-.815.308-1.211 0-.575-.199-1.013-.596-1.315-.383-.314-.951-.472-1.704-.472-.63 0-1.198.123-1.704.37a3.17 3.17 0 0 0-1.273 1.067l-2.423-1.56c.561-.835 1.334-1.485 2.32-1.951.986-.479 2.115-.718 3.388-.718 1.068 0 1.998.178 2.792.534.808.342 1.431.835 1.869 1.478.452.63.677 1.376.677 2.238 0 .78-.164 1.513-.492 2.197-.329.684-.965 1.465-1.91 2.341l-3.306 3.121h6.181zm7.492 2.956c-1.191 0-2.252-.294-3.183-.882-.93-.589-1.663-1.438-2.197-2.547-.52-1.122-.78-2.457-.78-4.003 0-1.547.26-2.875.78-3.984.534-1.122 1.267-1.978 2.197-2.566.931-.589 1.992-.883 3.183-.883 1.191 0 2.252.294 3.183.883.93.588 1.656 1.444 2.176 2.566.534 1.109.801 2.437.801 3.984 0 1.546-.267 2.881-.801 4.003-.52 1.109-1.246 1.958-2.176 2.547-.931.588-1.992.882-3.183.882zm0-2.813c.876 0 1.56-.376 2.053-1.129.507-.753.76-1.916.76-3.49 0-1.575-.253-2.738-.76-3.491-.493-.753-1.177-1.129-2.053-1.129-.862 0-1.547.376-2.053 1.129-.493.753-.739 1.916-.739 3.491 0 1.574.246 2.737.739 3.49.506.753 1.191 1.129 2.053 1.129zm9.404 2.731a1.92 1.92 0 0 1-1.416-.575c-.384-.383-.575-.862-.575-1.437 0-.588.191-1.061.575-1.417.383-.369.855-.554 1.416-.554.562 0 1.034.185 1.417.554.383.356.575.829.575 1.417 0 .575-.192 1.054-.575 1.437-.383.384-.855.575-1.417.575zm13.521-7.72c.712.356 1.252.821 1.622 1.396.383.575.575 1.239.575 1.992 0 .89-.253 1.67-.76 2.341-.506.657-1.218 1.17-2.135 1.54-.917.356-1.978.533-3.183.533-1.204 0-2.265-.177-3.182-.533-.904-.37-1.609-.883-2.115-1.54-.493-.671-.739-1.451-.739-2.341 0-.753.184-1.417.554-1.992.383-.575.924-1.04 1.622-1.396a3.534 3.534 0 0 1-1.232-1.232c-.287-.506-.431-1.081-.431-1.725 0-.835.233-1.56.698-2.176.465-.616 1.116-1.088 1.951-1.417.835-.342 1.793-.513 2.874-.513 1.095 0 2.06.171 2.895.513.849.329 1.506.801 1.971 1.417.466.616.699 1.341.699 2.176 0 .644-.144 1.219-.432 1.725-.287.493-.705.903-1.252 1.232zm-3.881-4.62c-.671 0-1.211.164-1.622.493-.397.315-.595.753-.595 1.314 0 .548.198.979.595 1.294.397.314.938.472 1.622.472.685 0 1.232-.158 1.643-.472.41-.315.616-.746.616-1.294 0-.561-.206-.999-.616-1.314-.411-.329-.958-.493-1.643-.493zm0 9.979c.835 0 1.492-.185 1.971-.554.493-.384.739-.89.739-1.52 0-.629-.246-1.129-.739-1.499-.479-.369-1.136-.554-1.971-.554-.821 0-1.471.185-1.95.554-.48.37-.719.87-.719 1.499 0 .644.239 1.15.719 1.52.479.369 1.129.554 1.95.554zm12.528-6.776c2.026 0 3.518.404 4.477 1.212.971.807 1.457 1.889 1.457 3.244 0 .876-.219 1.677-.657 2.402-.438.712-1.108 1.287-2.012 1.725-.89.424-1.992.636-3.306.636-1.013 0-2.012-.13-2.997-.39-.972-.273-1.801-.657-2.485-1.149l1.314-2.547a6.45 6.45 0 0 0 1.889.965 7.43 7.43 0 0 0 2.197.329c.835 0 1.492-.164 1.971-.493.479-.328.719-.787.719-1.375 0-.616-.253-1.082-.76-1.397-.493-.315-1.355-.472-2.587-.472h-3.675l.739-8.09h8.767v2.669h-5.995l-.226 2.731h1.17z" fill="#20201F"/><path d="M140.657 349.955c-1.178 0-2.238-.239-3.183-.718a5.627 5.627 0 0 1-2.197-2.033c-.52-.862-.78-1.841-.78-2.936s.26-2.074.78-2.936a5.471 5.471 0 0 1 2.197-2.013c.945-.493 2.005-.739 3.183-.739 1.163 0 2.176.246 3.039.739a4.261 4.261 0 0 1 1.909 2.074l-2.484 1.335c-.575-1.013-1.403-1.52-2.485-1.52-.835 0-1.526.274-2.074.822-.547.547-.821 1.293-.821 2.238 0 .944.274 1.69.821 2.238.548.547 1.239.821 2.074.821 1.095 0 1.923-.506 2.485-1.519l2.484 1.355c-.397.876-1.033 1.56-1.909 2.053-.863.493-1.876.739-3.039.739zm17.88-11.211v11.047h-3.204v-8.418h-4.599v8.418h-3.182v-11.047h10.985zm7.362-.164c1.711 0 3.025.411 3.942 1.232.917.808 1.376 2.033 1.376 3.675v6.304h-2.998v-1.376c-.602 1.027-1.724 1.54-3.367 1.54-.849 0-1.588-.143-2.218-.431-.616-.287-1.088-.684-1.416-1.191a3.094 3.094 0 0 1-.493-1.725c0-1.026.383-1.834 1.15-2.422.78-.589 1.978-.883 3.593-.883h2.546c0-.698-.212-1.232-.637-1.602-.424-.383-1.06-.575-1.909-.575-.589 0-1.17.096-1.745.288a4.447 4.447 0 0 0-1.438.739l-1.15-2.238c.603-.425 1.321-.753 2.156-.986a9.807 9.807 0 0 1 2.608-.349zm-.246 9.219c.547 0 1.033-.123 1.457-.369.425-.26.726-.637.904-1.13v-1.129h-2.197c-1.314 0-1.971.431-1.971 1.294 0 .41.157.739.472.985.329.233.773.349 1.335.349zm18.941-9.055v11.047h-3.203v-8.418h-3.49l-.103 1.95c-.055 1.451-.192 2.656-.411 3.614-.219.958-.574 1.711-1.067 2.259-.493.547-1.177.821-2.054.821-.465 0-1.019-.082-1.663-.247l.165-2.628c.219.028.376.041.472.041.479 0 .835-.171 1.068-.513.246-.356.41-.801.492-1.335a21.95 21.95 0 0 0 .185-2.156l.164-4.435h9.445zm9.056 3.532c1.437.014 2.539.342 3.306.986.766.629 1.149 1.526 1.149 2.689 0 1.219-.431 2.17-1.293 2.854-.849.671-2.047 1.007-3.593 1.007l-5.544-.021v-11.047h3.182v3.532h2.793zm-.719 5.256c.616.014 1.088-.116 1.417-.39.328-.273.493-.684.493-1.232 0-.534-.165-.924-.493-1.17-.315-.246-.787-.376-1.417-.39l-2.074-.021v3.203h2.074zm7.176-8.788h3.182v4.312h4.805v-4.312h3.203v11.047h-3.203v-4.127h-4.805v4.127h-3.182v-11.047zm24.071 0v11.047h-2.854v-3.162h-2.361l-2.095 3.162h-3.408l2.525-3.614c-.766-.301-1.355-.732-1.765-1.293-.397-.575-.596-1.267-.596-2.074 0-1.301.466-2.3 1.396-2.998.945-.712 2.238-1.068 3.881-1.068h5.277zm-5.215 2.608c-.685 0-1.205.123-1.561.37-.342.246-.513.643-.513 1.191 0 .547.164.951.493 1.211.342.246.855.37 1.54.37h2.402v-3.142h-2.361zM162.009 364.704v14.373h-3.327v-11.704h-2.874v-2.669h6.201zm8.04 0v14.373h-3.326v-11.704h-2.875v-2.669h6.201zm4.386 14.537a1.928 1.928 0 0 1-1.417-.575c-.383-.383-.574-.862-.574-1.437 0-.589.191-1.061.574-1.417.384-.37.856-.554 1.417-.554s1.034.184 1.417.554c.383.356.575.828.575 1.417 0 .575-.192 1.054-.575 1.437a1.927 1.927 0 0 1-1.417.575zm14.416-14.537v2.156l-5.338 12.217h-3.614l5.154-11.663h-4.764v2.341h-2.957v-5.051h11.519zm12.733 0v2.156l-5.339 12.217h-3.613l5.153-11.663h-4.763v2.341h-2.957v-5.051h11.519zM168.059 573.565c-1.177 0-2.238-.24-3.183-.719a5.626 5.626 0 0 1-2.197-2.033c-.52-.862-.78-1.841-.78-2.936s.26-2.074.78-2.936a5.475 5.475 0 0 1 2.197-2.012c.945-.493 2.006-.74 3.183-.74 1.164 0 2.177.247 3.039.74a4.259 4.259 0 0 1 1.909 2.073l-2.484 1.335c-.575-1.013-1.403-1.519-2.484-1.519-.835 0-1.527.273-2.074.821-.548.548-.822 1.294-.822 2.238 0 .945.274 1.691.822 2.238.547.548 1.239.821 2.074.821 1.095 0 1.923-.506 2.484-1.519l2.484 1.355c-.397.876-1.033 1.561-1.909 2.053-.862.493-1.875.74-3.039.74zm17.88-11.211V573.4h-3.203v-8.418h-4.6v8.418h-3.182v-11.046h10.985zm7.362-.165c1.711 0 3.026.411 3.943 1.232.917.808 1.375 2.033 1.375 3.676v6.303h-2.997v-1.375c-.603 1.026-1.725 1.54-3.368 1.54-.848 0-1.588-.144-2.217-.432-.616-.287-1.089-.684-1.417-1.19a3.099 3.099 0 0 1-.493-1.725c0-1.027.383-1.834 1.15-2.423.78-.589 1.978-.883 3.593-.883h2.546c0-.698-.212-1.232-.636-1.602-.425-.383-1.061-.574-1.91-.574-.588 0-1.17.095-1.745.287a4.452 4.452 0 0 0-1.437.739l-1.15-2.238c.602-.424 1.321-.753 2.156-.985a9.8 9.8 0 0 1 2.607-.35zm-.246 9.22c.548 0 1.033-.123 1.458-.37.424-.26.725-.636.903-1.129v-1.129h-2.197c-1.314 0-1.971.431-1.971 1.293 0 .411.158.739.472.986.329.232.774.349 1.335.349zm18.942-9.055V573.4h-3.203v-8.418h-3.491l-.103 1.951c-.054 1.451-.191 2.655-.41 3.613-.219.959-.575 1.711-1.068 2.259-.493.547-1.177.821-2.053.821-.466 0-1.02-.082-1.663-.246l.164-2.628c.219.027.376.041.472.041.479 0 .835-.171 1.068-.514.246-.355.411-.8.493-1.334.082-.548.143-1.266.184-2.156l.165-4.435h9.445zm9.055 3.531c1.437.014 2.539.343 3.306.986.766.63 1.15 1.526 1.15 2.69 0 1.218-.431 2.169-1.294 2.854-.849.671-2.046 1.006-3.593 1.006l-5.544-.021v-11.046h3.183v3.531h2.792zm-.719 5.257c.616.013 1.089-.117 1.417-.39.329-.274.493-.685.493-1.232 0-.534-.164-.924-.493-1.171-.315-.246-.787-.376-1.417-.39l-2.073-.02v3.203h2.073zm7.176-8.788h3.183v4.312h4.804v-4.312h3.203V573.4h-3.203v-4.127h-4.804v4.127h-3.183v-11.046zm24.071 0V573.4h-2.854v-3.162h-2.361l-2.094 3.162h-3.409l2.526-3.613c-.767-.302-1.355-.733-1.766-1.294-.397-.575-.595-1.266-.595-2.074 0-1.3.465-2.299 1.396-2.998.944-.711 2.238-1.067 3.88-1.067h5.277zm-5.215 2.607c-.684 0-1.205.124-1.56.37-.343.246-.514.643-.514 1.191 0 .547.165.951.493 1.211.342.247.856.37 1.54.37h2.402v-3.142h-2.361zM186.277 588.313v14.373h-3.327v-11.704h-2.874v-2.669h6.201zm15.658 11.355h-2.341v3.018h-3.244v-3.018h-7.741v-2.238l6.776-9.117h3.491l-6.283 8.644h3.86v-2.689h3.141v2.689h2.341v2.711zm3.285 3.182a1.925 1.925 0 0 1-1.417-.575c-.383-.383-.575-.862-.575-1.437 0-.589.192-1.061.575-1.417.384-.369.856-.554 1.417-.554s1.034.185 1.417.554c.383.356.575.828.575 1.417 0 .575-.192 1.054-.575 1.437a1.923 1.923 0 0 1-1.417.575zm13.521-7.72c.711.356 1.252.821 1.622 1.396.383.575.575 1.239.575 1.992 0 .89-.254 1.67-.76 2.341-.507.657-1.218 1.17-2.136 1.54-.917.355-1.978.533-3.182.533-1.205 0-2.266-.178-3.183-.533-.903-.37-1.608-.883-2.115-1.54-.492-.671-.739-1.451-.739-2.341 0-.753.185-1.417.555-1.992.383-.575.924-1.04 1.622-1.396a3.534 3.534 0 0 1-1.232-1.232c-.288-.506-.431-1.081-.431-1.725 0-.835.232-1.56.698-2.176.465-.616 1.115-1.088 1.95-1.417.835-.342 1.793-.513 2.875-.513 1.095 0 2.06.171 2.895.513.849.329 1.506.801 1.971 1.417.466.616.698 1.341.698 2.176 0 .644-.143 1.219-.431 1.725-.287.493-.705.903-1.252 1.232zm-3.881-4.62c-.671 0-1.212.164-1.622.493-.397.315-.596.753-.596 1.314 0 .548.199.979.596 1.294.397.314.937.472 1.622.472.684 0 1.232-.158 1.642-.472.411-.315.616-.746.616-1.294 0-.561-.205-.999-.616-1.314-.41-.329-.958-.493-1.642-.493zm0 9.979c.835 0 1.492-.185 1.971-.554.493-.384.739-.89.739-1.52 0-.629-.246-1.129-.739-1.499-.479-.369-1.136-.554-1.971-.554-.821 0-1.472.185-1.951.554-.479.37-.718.87-.718 1.499 0 .644.239 1.15.718 1.52.479.369 1.13.554 1.951.554zm14.52-6.817c.917 0 1.752.185 2.505.555a4.341 4.341 0 0 1 1.786 1.581c.438.67.657 1.451.657 2.34 0 .958-.239 1.8-.718 2.526-.48.725-1.137 1.287-1.972 1.684-.821.383-1.738.574-2.751.574-2.012 0-3.586-.616-4.723-1.848-1.136-1.231-1.704-2.99-1.704-5.276 0-1.629.308-3.026.924-4.189.616-1.164 1.472-2.047 2.567-2.649 1.109-.602 2.388-.903 3.839-.903.767 0 1.499.089 2.197.267.712.164 1.315.403 1.807.718l-1.232 2.444c-.711-.479-1.608-.719-2.689-.719-1.219 0-2.184.356-2.896 1.068-.711.712-1.095 1.745-1.149 3.1.848-.849 2.032-1.273 3.552-1.273zm-.678 6.776c.712 0 1.287-.192 1.725-.575.452-.383.678-.903.678-1.56 0-.658-.226-1.178-.678-1.561-.438-.397-1.027-.595-1.766-.595-.725 0-1.321.205-1.786.616-.466.397-.698.91-.698 1.54 0 .629.226 1.143.677 1.54.452.396 1.068.595 1.848.595z" fill="#000"/><path d="M560.062 150.179h-1.663v4.189h-3.203v-11.046h3.203v4.291h1.725l2.998-4.291h3.408l-3.86 5.297 4.127 5.749h-3.778l-2.957-4.189zm18.754-6.857-4.99 11.724c-.506 1.273-1.136 2.169-1.889 2.69-.739.52-1.636.78-2.69.78a5.603 5.603 0 0 1-1.704-.267c-.561-.178-1.02-.424-1.376-.739l1.171-2.279a2.77 2.77 0 0 0 1.807.698c.438 0 .794-.11 1.067-.329.274-.205.521-.554.74-1.047l.041-.103-4.784-11.128h3.305l3.101 7.494 3.121-7.494h3.08zm7.863 11.046-2.422-3.388-2.505 3.388h-3.491l4.25-5.564-4.106-5.482h3.593l2.341 3.223 2.402-3.223h3.408l-4.106 5.4 4.271 5.646h-3.635zm5.212-11.046h3.182v4.311h4.805v-4.311h3.203v11.046h-3.203v-4.127h-4.805v4.127h-3.182v-11.046zm24.071 0v11.046h-2.854v-3.162h-2.361l-2.095 3.162h-3.408l2.525-3.614c-.766-.301-1.355-.732-1.765-1.293-.397-.575-.596-1.266-.596-2.074 0-1.3.465-2.3 1.396-2.998.945-.712 2.238-1.067 3.881-1.067h5.277zm-5.215 2.607c-.685 0-1.205.123-1.561.37-.342.246-.513.643-.513 1.191 0 .547.164.951.493 1.211.342.247.855.37 1.54.37h2.402v-3.142h-2.361zM567.002 169.281v14.373h-3.326V171.95h-2.875v-2.669h6.201zm9.211 5.852c1.26.205 2.225.677 2.896 1.416.67.726 1.006 1.629 1.006 2.711 0 .835-.219 1.608-.657 2.32-.438.698-1.109 1.259-2.013 1.684-.889.424-1.984.636-3.285.636-1.013 0-2.012-.13-2.998-.39-.972-.274-1.8-.657-2.484-1.15l1.293-2.546a6.462 6.462 0 0 0 1.889.965 7.639 7.639 0 0 0 2.218.329c.835 0 1.492-.158 1.971-.473.479-.328.719-.787.719-1.375 0-1.177-.897-1.766-2.69-1.766h-1.519v-2.197l2.956-3.347h-6.118v-2.669h10.061v2.156l-3.245 3.696zm7.326 8.685a1.925 1.925 0 0 1-1.416-.575c-.384-.383-.575-.862-.575-1.437 0-.589.191-1.061.575-1.417.383-.369.855-.554 1.416-.554.562 0 1.034.185 1.417.554.383.356.575.828.575 1.417 0 .575-.192 1.054-.575 1.437a1.925 1.925 0 0 1-1.417.575zm8.413-9.137c2.026 0 3.518.404 4.476 1.211.972.808 1.458 1.889 1.458 3.245a4.56 4.56 0 0 1-.657 2.402c-.438.712-1.109 1.287-2.012 1.725-.89.424-1.992.636-3.306.636-1.013 0-2.012-.13-2.998-.39-.972-.274-1.8-.657-2.484-1.15l1.314-2.546a6.437 6.437 0 0 0 1.889.965 7.43 7.43 0 0 0 2.197.329c.835 0 1.492-.165 1.971-.493.479-.329.719-.787.719-1.376 0-.616-.254-1.081-.76-1.396-.493-.315-1.355-.472-2.587-.472h-3.676l.74-8.09h8.767v2.669h-5.995l-.226 2.731h1.17zm13.898.452c1.259.205 2.224.677 2.895 1.416.67.726 1.006 1.629 1.006 2.711 0 .835-.219 1.608-.657 2.32-.438.698-1.109 1.259-2.012 1.684-.89.424-1.985.636-3.286.636-1.013 0-2.012-.13-2.997-.39-.972-.274-1.801-.657-2.485-1.15l1.294-2.546a6.437 6.437 0 0 0 1.889.965 7.627 7.627 0 0 0 2.217.329c.835 0 1.492-.158 1.971-.473.479-.328.719-.787.719-1.375 0-1.177-.897-1.766-2.69-1.766h-1.519v-2.197l2.956-3.347h-6.118v-2.669h10.061v2.156l-3.244 3.696zM479.718 443.54l-3.006-3.96-3.024 3.96h-1.44l3.744-4.86-3.564-4.608h1.44l2.844 3.708 2.844-3.708h1.404l-3.564 4.608 3.78 4.86h-1.458zm7.124.09c-.912 0-1.734-.204-2.466-.612a4.594 4.594 0 0 1-1.728-1.728c-.42-.732-.63-1.56-.63-2.484 0-.924.21-1.752.63-2.484a4.465 4.465 0 0 1 1.728-1.71c.732-.408 1.554-.612 2.466-.612.912 0 1.734.204 2.466.612a4.34 4.34 0 0 1 1.71 1.71c.42.732.63 1.56.63 2.484 0 .924-.21 1.752-.63 2.484a4.465 4.465 0 0 1-1.71 1.728c-.732.408-1.554.612-2.466.612zm0-1.134c.672 0 1.272-.15 1.8-.45.54-.312.96-.75 1.26-1.314.3-.564.45-1.206.45-1.926s-.15-1.362-.45-1.926c-.3-.564-.72-.996-1.26-1.296-.528-.312-1.128-.468-1.8-.468-.672 0-1.278.156-1.818.468-.528.3-.948.732-1.26 1.296-.3.564-.45 1.206-.45 1.926s.15 1.362.45 1.926a3.406 3.406 0 0 0 1.26 1.314c.54.3 1.146.45 1.818.45zm15.225-8.424v9.468h-1.278v-8.334h-4.536l-.126 2.34c-.096 1.968-.324 3.48-.684 4.536-.36 1.056-1.002 1.584-1.926 1.584-.252 0-.558-.048-.918-.144l.09-1.098c.216.048.366.072.45.072.492 0 .864-.228 1.116-.684.252-.456.42-1.02.504-1.692.084-.672.156-1.56.216-2.664l.162-3.384h6.93zm11.373 0v9.468h-1.278v-8.334h-4.536l-.126 2.34c-.096 1.968-.324 3.48-.684 4.536-.36 1.056-1.002 1.584-1.926 1.584-.252 0-.558-.048-.918-.144l.09-1.098c.216.048.366.072.45.072.492 0 .864-.228 1.116-.684.252-.456.42-1.02.504-1.692.084-.672.156-1.56.216-2.664l.162-3.384h6.93zM479.205 460.226v12.6h-1.296v-11.448h-2.97v-1.152h4.266zm6.504 0v12.6h-1.296v-11.448h-2.97v-1.152h4.266zm3.984 12.69a.934.934 0 0 1-.684-.288.989.989 0 0 1-.27-.702c0-.276.09-.504.27-.684a.934.934 0 0 1 .684-.288c.264 0 .492.096.684.288.192.18.288.408.288.684 0 .276-.096.51-.288.702a.934.934 0 0 1-.684.288zm11.524-12.69v.918l-5.274 11.682h-1.404l5.184-11.448h-6.48v2.358h-1.278v-3.51h9.252zm8.591 5.994c.792.264 1.398.66 1.818 1.188.432.528.648 1.164.648 1.908 0 .732-.198 1.374-.594 1.926-.396.54-.966.96-1.71 1.26-.732.288-1.596.432-2.592.432-1.512 0-2.7-.324-3.564-.972-.864-.648-1.296-1.53-1.296-2.646 0-.756.204-1.392.612-1.908.42-.528 1.026-.924 1.818-1.188-.648-.252-1.14-.612-1.476-1.08-.336-.48-.504-1.044-.504-1.692 0-1.02.396-1.83 1.188-2.43.804-.6 1.878-.9 3.222-.9.888 0 1.662.138 2.322.414.672.264 1.194.648 1.566 1.152.372.504.558 1.092.558 1.764 0 .648-.174 1.212-.522 1.692-.348.468-.846.828-1.494 1.08zm-5.544-2.736c0 .696.276 1.248.828 1.656.552.408 1.314.612 2.286.612s1.734-.204 2.286-.612c.564-.408.846-.954.846-1.638 0-.708-.288-1.266-.864-1.674-.564-.408-1.32-.612-2.268-.612-.96 0-1.722.204-2.286.612-.552.408-.828.96-.828 1.656zm3.114 8.352c1.116 0 1.986-.228 2.61-.684.636-.456.954-1.074.954-1.854s-.318-1.392-.954-1.836c-.624-.456-1.494-.684-2.61-.684-1.104 0-1.974.228-2.61.684-.624.444-.936 1.056-.936 1.836 0 .792.312 1.416.936 1.872.624.444 1.494.666 2.61.666zM480.59 489.403c1.668 0 2.946.552 3.834 1.656.888 1.092 1.332 2.64 1.332 4.644 0 1.404-.24 2.592-.72 3.564s-1.152 1.71-2.016 2.214c-.864.492-1.872.738-3.024.738-1.248 0-2.244-.228-2.988-.684l.522-1.044c.6.396 1.416.594 2.448.594 1.392 0 2.484-.438 3.276-1.314.792-.888 1.188-2.172 1.188-3.852 0-.312-.018-.654-.054-1.026a3.445 3.445 0 0 1-1.494 1.602c-.684.372-1.47.558-2.358.558-.828 0-1.566-.156-2.214-.468a3.62 3.62 0 0 1-1.494-1.314c-.36-.576-.54-1.242-.54-1.998 0-.768.186-1.446.558-2.034a3.635 3.635 0 0 1 1.53-1.35c.66-.324 1.398-.486 2.214-.486zm.144 6.552c.636 0 1.194-.12 1.674-.36.492-.24.876-.57 1.152-.99.276-.42.414-.888.414-1.404 0-.48-.132-.924-.396-1.332-.252-.408-.63-.738-1.134-.99-.504-.252-1.104-.378-1.8-.378-.912 0-1.656.252-2.232.756-.564.492-.846 1.152-.846 1.98 0 .828.282 1.488.846 1.98.576.492 1.35.738 2.322.738zm7.679 6.246a.934.934 0 0 1-.684-.288.989.989 0 0 1-.27-.702c0-.276.09-.504.27-.684a.934.934 0 0 1 .684-.288c.264 0 .492.096.684.288.192.18.288.408.288.684 0 .276-.096.51-.288.702a.934.934 0 0 1-.684.288zm7.869-7.632c.828 0 1.56.156 2.196.468a3.556 3.556 0 0 1 1.512 1.332c.36.564.54 1.224.54 1.98 0 .768-.186 1.446-.558 2.034a3.733 3.733 0 0 1-1.548 1.368c-.648.312-1.38.468-2.196.468-1.668 0-2.946-.546-3.834-1.638-.888-1.104-1.332-2.658-1.332-4.662 0-1.404.24-2.592.72-3.564s1.152-1.704 2.016-2.196c.864-.504 1.872-.756 3.024-.756 1.248 0 2.244.228 2.988.684l-.522 1.044c-.6-.396-1.416-.594-2.448-.594-1.392 0-2.484.444-3.276 1.332-.792.876-1.188 2.154-1.188 3.834 0 .3.018.642.054 1.026a3.351 3.351 0 0 1 1.494-1.584c.684-.384 1.47-.576 2.358-.576zm-.108 6.552c.912 0 1.65-.246 2.214-.738.576-.504.864-1.17.864-1.998 0-.828-.288-1.488-.864-1.98-.564-.492-1.332-.738-2.304-.738-.636 0-1.2.12-1.692.36-.48.24-.858.57-1.134.99-.276.42-.414.888-.414 1.404 0 .48.126.924.378 1.332.264.408.648.738 1.152.99.504.252 1.104.378 1.8.378zm14.461-.162v1.152h-8.838v-.918l5.238-5.13c.66-.648 1.104-1.206 1.332-1.674.24-.48.36-.96.36-1.44 0-.744-.258-1.32-.774-1.728-.504-.42-1.23-.63-2.178-.63-1.476 0-2.622.468-3.438 1.404l-.918-.792a4.846 4.846 0 0 1 1.872-1.332c.768-.312 1.632-.468 2.592-.468 1.284 0 2.298.306 3.042.918.756.6 1.134 1.428 1.134 2.484 0 .648-.144 1.272-.432 1.872-.288.6-.834 1.29-1.638 2.07l-4.284 4.212h6.93zM143.631 121.011v9.468h-1.278v-8.334h-4.536l-.126 2.34c-.096 1.968-.324 3.48-.684 4.536-.36 1.056-1.002 1.584-1.926 1.584-.252 0-.558-.048-.918-.144l.09-1.098c.216.048.366.072.45.072.492 0 .864-.228 1.116-.684.252-.456.42-1.02.504-1.692.084-.672.156-1.56.216-2.664l.162-3.384h6.93zm7.54 9.558c-.912 0-1.734-.204-2.466-.612a4.594 4.594 0 0 1-1.728-1.728c-.421-.732-.631-1.56-.631-2.484 0-.924.21-1.752.631-2.484a4.465 4.465 0 0 1 1.728-1.71c.732-.408 1.554-.612 2.466-.612.912 0 1.734.204 2.466.612a4.34 4.34 0 0 1 1.71 1.71c.42.732.63 1.56.63 2.484 0 .924-.21 1.752-.63 2.484a4.465 4.465 0 0 1-1.71 1.728c-.732.408-1.554.612-2.466.612zm0-1.134c.672 0 1.272-.15 1.8-.45.54-.312.96-.75 1.26-1.314.3-.564.45-1.206.45-1.926s-.15-1.362-.45-1.926c-.3-.564-.72-.996-1.26-1.296-.528-.312-1.128-.468-1.8-.468-.672 0-1.278.156-1.818.468-.528.3-.948.732-1.26 1.296-.3.564-.45 1.206-.45 1.926s.15 1.362.45 1.926a3.406 3.406 0 0 0 1.26 1.314c.54.3 1.146.45 1.818.45zm16.718-.072v3.402h-1.206v-2.286h-8.478v2.286h-1.206v-3.402h.54c.636-.036 1.068-.504 1.296-1.404.228-.9.384-2.16.468-3.78l.126-3.168h6.984v8.352h1.476zm-7.416-5.112c-.06 1.344-.174 2.454-.342 3.33-.168.864-.468 1.458-.9 1.782h5.904v-7.218h-4.554l-.108 2.106zm18.205 2.016h-2.052v4.212h-1.278v-4.212h-2.052l-2.898 4.212h-1.53l3.402-4.878-3.132-4.59h1.386l2.772 4.158h2.052v-4.158h1.278v4.158h2.052l2.79-4.158h1.386l-3.132 4.608 3.402 4.86h-1.53l-2.916-4.212zm6.573-5.256h1.278v7.524l6.319-7.524h1.134v9.468h-1.278v-7.524l-6.301 7.524h-1.152v-9.468zm19.665 0v9.468h-1.17v-3.132h-3.33l-2.196 3.132h-1.386l2.358-3.312c-.732-.204-1.296-.552-1.692-1.044-.396-.492-.594-1.116-.594-1.872 0-1.056.36-1.86 1.08-2.412.72-.552 1.704-.828 2.952-.828h3.978zm-6.714 3.276c0 1.404.894 2.106 2.682 2.106h2.862v-4.248h-2.772c-1.848 0-2.772.714-2.772 2.142zM156.636 152.331c1.824 0 3.15.33 3.978.99.84.648 1.26 1.56 1.26 2.736 0 .732-.174 1.386-.522 1.962-.336.576-.846 1.032-1.53 1.368-.684.324-1.524.486-2.52.486-.9 0-1.758-.144-2.574-.432-.804-.3-1.452-.696-1.944-1.188l.63-1.026c.42.432.972.786 1.656 1.062a6.096 6.096 0 0 0 2.214.396c1.044 0 1.848-.234 2.412-.702.576-.468.864-1.092.864-1.872 0-.864-.324-1.518-.972-1.962-.636-.444-1.716-.666-3.24-.666h-2.682l.648-6.318h6.894v1.152h-5.76l-.432 4.014h1.62zm7.856 7.524a.934.934 0 0 1-.684-.288.989.989 0 0 1-.27-.702c0-.276.09-.504.27-.684a.934.934 0 0 1 .684-.288c.264 0 .492.096.684.288.192.18.288.408.288.684 0 .276-.096.51-.288.702a.934.934 0 0 1-.684.288zm6.766-12.798c1.668 0 2.946.552 3.834 1.656.888 1.092 1.332 2.64 1.332 4.644 0 1.404-.24 2.592-.72 3.564s-1.152 1.71-2.016 2.214c-.864.492-1.872.738-3.024.738-1.248 0-2.244-.228-2.988-.684l.522-1.044c.6.396 1.416.594 2.448.594 1.392 0 2.484-.438 3.276-1.314.792-.888 1.188-2.172 1.188-3.852 0-.312-.018-.654-.054-1.026a3.445 3.445 0 0 1-1.494 1.602c-.684.372-1.47.558-2.358.558-.828 0-1.566-.156-2.214-.468a3.62 3.62 0 0 1-1.494-1.314c-.36-.576-.54-1.242-.54-1.998 0-.768.186-1.446.558-2.034a3.635 3.635 0 0 1 1.53-1.35c.66-.324 1.398-.486 2.214-.486zm.144 6.552c.636 0 1.194-.12 1.674-.36.492-.24.876-.57 1.152-.99.276-.42.414-.888.414-1.404 0-.48-.132-.924-.396-1.332-.252-.408-.63-.738-1.134-.99-.504-.252-1.104-.378-1.8-.378-.912 0-1.656.252-2.232.756-.564.492-.846 1.152-.846 1.98 0 .828.282 1.488.846 1.98.576.492 1.35.738 2.322.738zm12.121-1.386c.828 0 1.56.156 2.196.468a3.556 3.556 0 0 1 1.512 1.332c.36.564.54 1.224.54 1.98 0 .768-.186 1.446-.558 2.034a3.733 3.733 0 0 1-1.548 1.368c-.648.312-1.38.468-2.196.468-1.668 0-2.946-.546-3.834-1.638-.888-1.104-1.332-2.658-1.332-4.662 0-1.404.24-2.592.72-3.564s1.152-1.704 2.016-2.196c.864-.504 1.872-.756 3.024-.756 1.248 0 2.244.228 2.988.684l-.522 1.044c-.6-.396-1.416-.594-2.448-.594-1.392 0-2.484.444-3.276 1.332-.792.876-1.188 2.154-1.188 3.834 0 .3.018.642.054 1.026a3.351 3.351 0 0 1 1.494-1.584c.684-.384 1.47-.576 2.358-.576zm-.108 6.552c.912 0 1.65-.246 2.214-.738.576-.504.864-1.17.864-1.998 0-.828-.288-1.488-.864-1.98-.564-.492-1.332-.738-2.304-.738-.636 0-1.2.12-1.692.36-.48.24-.858.57-1.134.99-.276.42-.414.888-.414 1.404 0 .48.126.924.378 1.332.264.408.648.738 1.152.99.504.252 1.104.378 1.8.378zM621.323 368.506h-2.52v3.312h-1.296v-3.312h-7.11v-.936l6.678-8.352h1.44l-6.444 8.136h5.472v-2.916h1.26v2.916h2.52v1.152zm2.514 3.402a.934.934 0 0 1-.684-.288.989.989 0 0 1-.27-.702c0-.276.09-.504.27-.684a.934.934 0 0 1 .684-.288c.264 0 .492.096.684.288.192.18.288.408.288.684 0 .276-.096.51-.288.702a.934.934 0 0 1-.684.288zm6.766-12.798c1.668 0 2.946.552 3.834 1.656.888 1.092 1.332 2.64 1.332 4.644 0 1.404-.24 2.592-.72 3.564s-1.152 1.71-2.016 2.214c-.864.492-1.872.738-3.024.738-1.248 0-2.244-.228-2.988-.684l.522-1.044c.6.396 1.416.594 2.448.594 1.392 0 2.484-.438 3.276-1.314.792-.888 1.188-2.172 1.188-3.852 0-.312-.018-.654-.054-1.026a3.445 3.445 0 0 1-1.494 1.602c-.684.372-1.47.558-2.358.558-.828 0-1.566-.156-2.214-.468a3.62 3.62 0 0 1-1.494-1.314c-.36-.576-.54-1.242-.54-1.998 0-.768.186-1.446.558-2.034a3.635 3.635 0 0 1 1.53-1.35c.66-.324 1.398-.486 2.214-.486zm.144 6.552c.636 0 1.194-.12 1.674-.36.492-.24.876-.57 1.152-.99.276-.42.414-.888.414-1.404 0-.48-.132-.924-.396-1.332-.252-.408-.63-.738-1.134-.99-.504-.252-1.104-.378-1.8-.378-.912 0-1.656.252-2.232.756-.564.492-.846 1.152-.846 1.98 0 .828.282 1.488.846 1.98.576.492 1.35.738 2.322.738zm15.47 5.004v1.152h-8.838v-.918l5.238-5.13c.66-.648 1.104-1.206 1.332-1.674.24-.48.36-.96.36-1.44 0-.744-.258-1.32-.774-1.728-.504-.42-1.23-.63-2.178-.63-1.476 0-2.622.468-3.438 1.404l-.918-.792a4.846 4.846 0 0 1 1.872-1.332c.768-.312 1.632-.468 2.592-.468 1.284 0 2.298.306 3.042.918.756.6 1.134 1.428 1.134 2.484 0 .648-.144 1.272-.432 1.872-.288.6-.834 1.29-1.638 2.07l-4.284 4.212h6.93zM615.139 541.128v1.152h-8.838v-.918l5.238-5.13c.66-.648 1.104-1.206 1.332-1.674.24-.48.36-.96.36-1.44 0-.744-.258-1.32-.774-1.728-.504-.42-1.23-.63-2.178-.63-1.476 0-2.622.468-3.438 1.404l-.918-.792a4.846 4.846 0 0 1 1.872-1.332c.768-.312 1.632-.468 2.592-.468 1.284 0 2.298.306 3.042.918.756.6 1.134 1.428 1.134 2.484 0 .648-.144 1.272-.432 1.872-.288.6-.834 1.29-1.638 2.07l-4.284 4.212h6.93zm2.774 1.242a.934.934 0 0 1-.684-.288.989.989 0 0 1-.27-.702c0-.276.09-.504.27-.684a.934.934 0 0 1 .684-.288c.264 0 .492.096.684.288.192.18.288.408.288.684 0 .276-.096.51-.288.702a.934.934 0 0 1-.684.288zm6.123-12.69v12.6h-1.296v-11.448h-2.97v-1.152h4.266zm6.324 5.166c1.824 0 3.15.33 3.978.99.84.648 1.26 1.56 1.26 2.736 0 .732-.174 1.386-.522 1.962-.336.576-.846 1.032-1.53 1.368-.684.324-1.524.486-2.52.486-.9 0-1.758-.144-2.574-.432-.804-.3-1.452-.696-1.944-1.188l.63-1.026c.42.432.972.786 1.656 1.062a6.096 6.096 0 0 0 2.214.396c1.044 0 1.848-.234 2.412-.702.576-.468.864-1.092.864-1.872 0-.864-.324-1.518-.972-1.962-.636-.444-1.716-.666-3.24-.666h-2.682l.648-6.318h6.894v1.152h-5.76l-.432 4.014h1.62z" fill="#20201F"/><path d="M423.52 533.789v12.6h-1.296v-11.448h-2.97v-1.152h4.266zm3.984 12.69a.934.934 0 0 1-.684-.288.989.989 0 0 1-.27-.702c0-.276.09-.504.27-.684a.934.934 0 0 1 .684-.288c.264 0 .492.096.684.288.192.18.288.408.288.684 0 .276-.096.51-.288.702a.934.934 0 0 1-.684.288zm7.302-7.29c1.32.072 2.322.432 3.006 1.08.696.636 1.044 1.47 1.044 2.502 0 .72-.174 1.362-.522 1.926-.348.552-.864.99-1.548 1.314-.684.324-1.518.486-2.502.486a7.73 7.73 0 0 1-2.592-.432c-.804-.3-1.452-.696-1.944-1.188l.63-1.026c.42.432.978.786 1.674 1.062a6.24 6.24 0 0 0 2.232.396c1.032 0 1.83-.222 2.394-.666.564-.456.846-1.08.846-1.872 0-.78-.282-1.392-.846-1.836-.564-.444-1.416-.666-2.556-.666h-.9v-.954l3.492-4.374h-6.444v-1.152h8.1v.918l-3.564 4.482zm14.54-5.4v.918l-5.274 11.682h-1.404l5.184-11.448h-6.48v2.358h-1.278v-3.51h9.252z" fill="#000"/><path d="M375.23 599.436h-3.913v6.019h-.923v-6.838h4.836v.819zm3.687-.871c.893 0 1.577.225 2.054.676.477.442.715 1.1.715 1.976v4.238h-.884v-1.066a2.118 2.118 0 0 1-.923.832c-.399.199-.875.299-1.43.299-.763 0-1.369-.182-1.82-.546-.451-.364-.676-.845-.676-1.443 0-.581.208-1.049.624-1.404.425-.356 1.096-.533 2.015-.533h2.171v-.416c0-.59-.165-1.036-.494-1.339-.329-.312-.81-.468-1.443-.468-.433 0-.849.073-1.248.221a3.031 3.031 0 0 0-1.027.585l-.416-.689c.347-.295.763-.52 1.248-.676a4.733 4.733 0 0 1 1.534-.247zm-.325 6.227c.52 0 .966-.117 1.339-.351.373-.243.65-.59.832-1.04v-1.118h-2.145c-1.17 0-1.755.407-1.755 1.222 0 .398.152.715.455.949.303.225.728.338 1.274.338zm9.074-6.227c.641 0 1.222.147 1.742.442.52.286.927.693 1.222 1.222.295.528.442 1.131.442 1.807 0 .684-.147 1.291-.442 1.82-.295.528-.702.94-1.222 1.235-.511.286-1.092.429-1.742.429a3.329 3.329 0 0 1-1.508-.338 2.91 2.91 0 0 1-1.092-1.014v3.809h-.923v-9.36h.884v1.352a2.844 2.844 0 0 1 1.092-1.04 3.255 3.255 0 0 1 1.547-.364zm-.065 6.136c.477 0 .91-.109 1.3-.325a2.35 2.35 0 0 0 .91-.949 2.83 2.83 0 0 0 .338-1.391c0-.52-.113-.98-.338-1.378a2.338 2.338 0 0 0-.91-.949 2.544 2.544 0 0 0-1.3-.338 2.57 2.57 0 0 0-1.313.338 2.453 2.453 0 0 0-.91.949c-.217.398-.325.858-.325 1.378 0 .52.108.983.325 1.391.225.407.529.723.91.949.39.216.828.325 1.313.325zm12.085-.052v2.457h-.871v-1.651h-6.123v1.651h-.871v-2.457h.39c.459-.026.771-.364.936-1.014.165-.65.277-1.56.338-2.73l.091-2.288h5.044v6.032h1.066zm-5.356-3.692c-.043.97-.126 1.772-.247 2.405-.121.624-.338 1.053-.65 1.287h4.264v-5.213h-3.289l-.078 1.521zm13.135 1.365h-5.72c.052.71.325 1.287.819 1.729.494.433 1.118.65 1.872.65a3.03 3.03 0 0 0 1.17-.221c.355-.156.663-.382.923-.676l.52.598a2.922 2.922 0 0 1-1.144.832c-.451.19-.949.286-1.495.286-.702 0-1.326-.148-1.872-.442a3.3 3.3 0 0 1-1.261-1.248c-.303-.529-.455-1.127-.455-1.794 0-.668.143-1.266.429-1.794a3.207 3.207 0 0 1 1.196-1.235 3.37 3.37 0 0 1 1.716-.442c.633 0 1.2.147 1.703.442.503.294.897.706 1.183 1.235.286.52.429 1.118.429 1.794l-.013.286zm-3.302-2.964c-.659 0-1.213.212-1.664.637-.442.416-.693.962-.754 1.638h4.849c-.061-.676-.316-1.222-.767-1.638-.442-.425-.997-.637-1.664-.637zm8.881-.793c.641 0 1.222.147 1.742.442.52.286.927.693 1.222 1.222.295.528.442 1.131.442 1.807 0 .684-.147 1.291-.442 1.82-.295.528-.702.94-1.222 1.235-.511.286-1.092.429-1.742.429a3.329 3.329 0 0 1-1.508-.338 2.91 2.91 0 0 1-1.092-1.014v3.809h-.923v-9.36h.884v1.352a2.844 2.844 0 0 1 1.092-1.04 3.255 3.255 0 0 1 1.547-.364zm-.065 6.136c.477 0 .91-.109 1.3-.325a2.35 2.35 0 0 0 .91-.949 2.83 2.83 0 0 0 .338-1.391c0-.52-.113-.98-.338-1.378a2.338 2.338 0 0 0-.91-.949 2.544 2.544 0 0 0-1.3-.338 2.57 2.57 0 0 0-1.313.338 2.453 2.453 0 0 0-.91.949c-.217.398-.325.858-.325 1.378 0 .52.108.983.325 1.391.225.407.529.723.91.949.39.216.828.325 1.313.325zm8.275.819a3.602 3.602 0 0 1-1.781-.442 3.323 3.323 0 0 1-1.248-1.248c-.303-.529-.455-1.127-.455-1.794 0-.668.152-1.266.455-1.794a3.213 3.213 0 0 1 1.248-1.235 3.592 3.592 0 0 1 1.781-.442c.659 0 1.252.147 1.781.442.529.294.94.706 1.235 1.235.303.528.455 1.126.455 1.794 0 .667-.152 1.265-.455 1.794a3.233 3.233 0 0 1-1.235 1.248 3.602 3.602 0 0 1-1.781.442zm0-.819c.485 0 .919-.109 1.3-.325a2.35 2.35 0 0 0 .91-.949c.217-.408.325-.871.325-1.391s-.108-.984-.325-1.391a2.251 2.251 0 0 0-.91-.936 2.5 2.5 0 0 0-1.3-.338 2.57 2.57 0 0 0-1.313.338 2.358 2.358 0 0 0-.91.936 2.911 2.911 0 0 0-.325 1.391c0 .52.108.983.325 1.391.225.407.529.723.91.949.39.216.828.325 1.313.325zm8.759-5.915c.632 0 1.196.143 1.69.429.502.277.892.671 1.17 1.183.277.502.416 1.079.416 1.729 0 .667-.148 1.261-.442 1.781-.286.511-.689.91-1.209 1.196-.52.286-1.118.429-1.794.429-1.136 0-2.015-.399-2.639-1.196-.624-.798-.936-1.898-.936-3.302 0-1.465.277-2.587.832-3.367.563-.78 1.438-1.309 2.626-1.586l3.068-.702.156.845-2.886.663c-.98.216-1.699.602-2.158 1.157-.46.546-.711 1.356-.754 2.431a3.052 3.052 0 0 1 1.157-1.235c.494-.304 1.061-.455 1.703-.455zm-.143 5.98c.476 0 .901-.109 1.274-.325.381-.226.676-.538.884-.936.216-.399.325-.85.325-1.352 0-.503-.104-.945-.312-1.326a2.17 2.17 0 0 0-.884-.884 2.512 2.512 0 0 0-1.287-.325c-.486 0-.919.108-1.3.325a2.27 2.27 0 0 0-.884.884c-.208.381-.312.823-.312 1.326 0 .502.104.953.312 1.352.216.398.515.71.897.936.381.216.81.325 1.287.325zm5.397-6.149h.923v3.029h4.303v-3.029h.923v6.838h-.923v-3.016h-4.303v3.016h-.923v-6.838zm11.126-.052c.892 0 1.577.225 2.054.676.476.442.715 1.1.715 1.976v4.238h-.884v-1.066a2.118 2.118 0 0 1-.923.832c-.399.199-.876.299-1.43.299-.763 0-1.37-.182-1.82-.546-.451-.364-.676-.845-.676-1.443 0-.581.208-1.049.624-1.404.424-.356 1.096-.533 2.015-.533h2.171v-.416c0-.59-.165-1.036-.494-1.339-.33-.312-.811-.468-1.443-.468-.434 0-.85.073-1.248.221a3.031 3.031 0 0 0-1.027.585l-.416-.689c.346-.295.762-.52 1.248-.676a4.728 4.728 0 0 1 1.534-.247zm-.325 6.227c.52 0 .966-.117 1.339-.351.372-.243.65-.59.832-1.04v-1.118h-2.145c-1.17 0-1.755.407-1.755 1.222 0 .398.151.715.455.949.303.225.728.338 1.274.338zm10.803-6.175v6.838h-.845v-2.262H453.621l-1.586 2.262h-1.001l1.703-2.392c-.529-.148-.936-.399-1.222-.754-.286-.356-.429-.806-.429-1.352 0-.763.26-1.344.78-1.742.52-.399 1.23-.598 2.132-.598h2.873zm-4.849 2.366c0 1.014.645 1.521 1.937 1.521h2.067v-3.068h-2.002c-1.335 0-2.002.515-2.002 1.547zM404.71 632.735v1.152h-8.838v-.918l5.238-5.13c.66-.648 1.104-1.206 1.332-1.674.24-.48.36-.96.36-1.44 0-.744-.258-1.32-.774-1.728-.504-.42-1.23-.63-2.178-.63-1.476 0-2.622.468-3.438 1.404l-.918-.792a4.846 4.846 0 0 1 1.872-1.332c.768-.312 1.632-.468 2.592-.468 1.284 0 2.298.306 3.042.918.756.6 1.134 1.428 1.134 2.484 0 .648-.144 1.272-.432 1.872-.288.6-.834 1.29-1.638 2.07l-4.284 4.212h6.93zm2.774 1.242a.934.934 0 0 1-.684-.288.989.989 0 0 1-.27-.702c0-.276.09-.504.27-.684a.934.934 0 0 1 .684-.288c.264 0 .492.096.684.288.192.18.288.408.288.684 0 .276-.096.51-.288.702a.934.934 0 0 1-.684.288zm7.302-7.29c1.32.072 2.322.432 3.006 1.08.696.636 1.044 1.47 1.044 2.502 0 .72-.174 1.362-.522 1.926-.348.552-.864.99-1.548 1.314-.684.324-1.518.486-2.502.486a7.73 7.73 0 0 1-2.592-.432c-.804-.3-1.452-.696-1.944-1.188l.63-1.026c.42.432.978.786 1.674 1.062a6.24 6.24 0 0 0 2.232.396c1.032 0 1.83-.222 2.394-.666.564-.456.846-1.08.846-1.872 0-.78-.282-1.392-.846-1.836-.564-.444-1.416-.666-2.556-.666h-.9v-.954l3.492-4.374h-6.444v-1.152h8.1v.918l-3.564 4.482zm14.393 6.048v1.152h-8.838v-.918l5.238-5.13c.66-.648 1.104-1.206 1.332-1.674.24-.48.36-.96.36-1.44 0-.744-.258-1.32-.774-1.728-.504-.42-1.23-.63-2.178-.63-1.476 0-2.622.468-3.438 1.404l-.918-.792a4.846 4.846 0 0 1 1.872-1.332c.768-.312 1.632-.468 2.592-.468 1.284 0 2.298.306 3.042.918.756.6 1.134 1.428 1.134 2.484 0 .648-.144 1.272-.432 1.872-.288.6-.834 1.29-1.638 2.07l-4.284 4.212h6.93z" fill="#20201F"/></g><defs><clipPath id="a"><path fill="#fff" transform="translate(51 23)" d="M0 0h647.981v653.367H0z"/></clipPath></defs></svg>