<svg width="500" height="970" viewBox="0 0 500 970" fill="none" xmlns="http://www.w3.org/2000/svg">
<rect width="500" height="970" fill="white"/>
<g clip-path="url(#clip0_2384_28734)">
<path fill-rule="evenodd" clip-rule="evenodd" d="M47.9669 964.388H33V5H47.9669H279.13V70.681L467.773 88.177V964.388H47.9669Z" fill="#D3001B"/>
<path d="M47.9669 450.56H33V562.55H47.9669V450.56Z" fill="#CFD0D0"/>
<path d="M47.9669 547.575H33V964.388H47.9669V547.575Z" fill="#FFE900"/>
<path fill-rule="evenodd" clip-rule="evenodd" d="M33 457.748H47.9669V403.848V302.581V5H33V457.748Z" fill="#C6C0E1"/>
<path fill-rule="evenodd" clip-rule="evenodd" d="M279.13 70.681L467.773 88.177V964.388H33V112.079V88.177V5H279.13V70.681Z" fill="#ED9FA6"/>
<path d="M47.9669 547.575H33V964.388H47.9669V547.575Z" fill="#E4CDA1"/>
<path fill-rule="evenodd" clip-rule="evenodd" d="M33 457.748H47.9669V403.848V302.581V5H33V457.748Z" fill="#E4CDA1"/>
<path fill-rule="evenodd" clip-rule="evenodd" d="M279.13 70.681L467.773 88.177V964.388H33V112.079V88.177V5H279.13V70.681Z" fill="#F6D6B9"/>
<path d="M47.9669 20.5708H33V35.5429H47.9669V20.5708Z" fill="#20201F"/>
<path d="M263.559 20.5708H248.592V35.684H263.559V20.5708Z" fill="#20201F"/>
<path d="M284.521 912.888H248.591V948.817H284.521V912.888Z" fill="#20201F"/>
<path d="M47.9669 933.85H33V948.877H47.9669V933.85Z" fill="#20201F"/>
<path d="M266.552 361.927H248.592V415.825H266.552V361.927Z" fill="#20201F"/>
<path d="M47.9669 418.475H33V433.663H47.9669V418.475Z" fill="#20201F"/>
<path d="M47.9669 35.5427H33V469.721H47.9669V35.5427Z" fill="#20201F"/>
<path d="M263.559 35.5427H248.592V197.237H263.559V35.5427Z" fill="#20201F"/>
<path d="M467.773 197.237H452.806V933.85H467.773V197.237Z" fill="#20201F"/>
<path d="M47.9669 518.117H33V933.85H47.9669V518.117Z" fill="#20201F"/>
<path d="M77.9093 933.85H33V956.607H77.9093V933.85Z" fill="#20201F"/>
<path d="M314.464 933.85H203.674V956.607H314.464V933.85Z" fill="#20201F"/>
<path d="M467.773 933.85H410.287V956.607H467.773V933.85Z" fill="#20201F"/>
<path d="M467.773 174.48H382.734V197.238H467.773V174.48Z" fill="#20201F"/>
<path d="M286.92 174.48H263.559V197.237H286.92V174.48Z" fill="#20201F"/>
<path d="M92.8847 12.7854H33V35.5428H92.8847V12.7854Z" fill="#20201F"/>
<path d="M269.546 12.7852H218.649V35.5426H269.546V12.7852Z" fill="#20201F"/>
<path d="M96.4734 5H33V12.7854H96.4734V5Z" fill="#20201F"/>
<path d="M269.545 5H215.052V12.7854H269.545V5Z" fill="#20201F"/>
<path d="M279.13 5H271.944V166.695H279.13V5Z" fill="#20201F"/>
<path d="M286.92 166.694H263.559V174.48H286.92V166.694Z" fill="#20201F"/>
<path d="M467.773 166.695H382.734V174.48H467.773V166.695Z" fill="#20201F"/>
<path d="M467.773 956.607H406.689V964.388H467.773V956.607Z" fill="#20201F"/>
<path d="M318.061 956.607H200.077V964.388H318.061V956.607Z" fill="#20201F"/>
<path d="M81.5064 956.607H33V964.388H81.5064V956.607Z" fill="#20201F"/>
<path d="M275.537 5H263.559V166.695H275.537V5Z" fill="#20201F"/>
<path d="M35.0733 887.997H33V964.388H35.0733V887.997Z" fill="#20201F"/>
<path fill-rule="evenodd" clip-rule="evenodd" d="M467.773 88.1769H460.587L279.13 70.6809V78.0947L460.587 95.3764V166.695H467.773V88.1769Z" fill="#20201F"/>
<path d="M150.89 411.034H47.9668V415.825H150.89V411.034Z" fill="#20201F"/>
<path d="M248.592 411.034H210.783V415.825H248.592V411.034Z" fill="#20201F"/>
<path d="M253.38 197.237H248.592V361.927H253.38V197.237Z" fill="#20201F"/>
<path d="M69.5838 527.438H47.9668V532.225H69.5838V527.438Z" fill="#20201F"/>
<path d="M160.703 527.438H136.246V532.225H160.703V527.438Z" fill="#20201F"/>
<path d="M253.379 527.438H227.366V532.225H253.379V527.438Z" fill="#20201F"/>
<path d="M253.38 527.438H248.592V618.081H253.38V527.438Z" fill="#20201F"/>
<path d="M248.592 608.88H226.303V613.676H248.592V608.88Z" fill="#20201F"/>
<path d="M162.039 608.88H135.345V613.676H162.039V608.88Z" fill="#20201F"/>
<path d="M70.936 608.88H47.9668V613.676H70.936V608.88Z" fill="#20201F"/>
<path d="M248.592 568.163H47.9668V572.951H248.592V568.163Z" fill="#20201F"/>
<path d="M264.188 679.327H253.379V684.123H264.188V679.327Z" fill="#20201F"/>
<path d="M253.38 673.144H248.592V912.888H253.38V673.144Z" fill="#20201F"/>
<path d="M453.193 679.327H312.091V684.123H453.193V679.327Z" fill="#20201F"/>
<path d="M325.842 619.374H321.055V679.327H325.842V619.374Z" fill="#20201F"/>
<path d="M325.842 513.763H321.055V577.458H325.842V513.763Z" fill="#20201F"/>
<path d="M452.806 539.19H323.448V543.986H452.806V539.19Z" fill="#20201F"/>
<path d="M325.842 411.034H321.055V471.839H325.842V411.034Z" fill="#20201F"/>
<path d="M452.806 449.018H429.777V453.809H452.806V449.018Z" fill="#20201F"/>
<path d="M429.777 449.018H324.737V453.809H429.777V449.018Z" fill="#20201F"/>
<path d="M215.06 5H96.4741V8.8523H215.06V5Z" fill="#20201F"/>
<path d="M218.649 12.7649H92.8848V16.6163H218.649V12.7649Z" fill="#20201F"/>
<path d="M218.649 31.6702H92.8848V35.5216H218.649V31.6702Z" fill="#20201F"/>
<path d="M200.086 960.536H81.499V964.388H200.086V960.536Z" fill="#20201F"/>
<path d="M203.675 952.771H77.9092V956.623H203.675V952.771Z" fill="#20201F"/>
<path d="M203.675 933.866H77.9092V937.718H203.675V933.866Z" fill="#20201F"/>
<path d="M406.689 960.536H318.052V964.388H406.689V960.536Z" fill="#20201F"/>
<path d="M410.287 952.771H314.463V956.623H410.287V952.771Z" fill="#20201F"/>
<path d="M410.287 933.866H314.463V937.718H410.287V933.866Z" fill="#20201F"/>
<path d="M382.733 166.718H334.82V170.57H382.733V166.718Z" fill="#20201F"/>
<path d="M382.734 174.483H334.82V178.334H382.734V174.483Z" fill="#20201F"/>
<path d="M382.734 193.388H334.82V197.239H382.734V193.388Z" fill="#20201F"/>
<path d="M337.647 166.696H334.82V197.239H337.647V166.696Z" fill="#20201F"/>
<path fill-rule="evenodd" clip-rule="evenodd" d="M41.5846 516.269C40.6458 516.269 39.8838 515.507 39.8838 514.568C39.8838 513.629 40.6458 512.867 41.5846 512.867H77.5809C78.5198 512.867 79.2817 513.629 79.2817 514.568C79.2817 515.507 78.5198 516.269 77.5809 516.269H41.5846Z" fill="#20201F"/>
<path fill-rule="evenodd" clip-rule="evenodd" d="M41.243 473.794C40.7735 473.794 40.3926 473.413 40.3926 472.944C40.3926 472.474 40.7735 472.093 41.243 472.093C51.5098 472.093 60.808 476.291 67.5371 483.072C74.2671 489.854 78.4315 499.222 78.4315 509.561C78.4315 510.03 78.0505 510.411 77.5811 510.411C77.1117 510.411 76.7307 510.03 76.7307 509.561C76.7307 499.683 72.7568 490.739 66.3347 484.267C59.9142 477.798 51.042 473.794 41.243 473.794Z" fill="#20201F"/>
<path fill-rule="evenodd" clip-rule="evenodd" d="M205.575 413.49C205.575 412.551 206.337 411.789 207.276 411.789C208.214 411.789 208.976 412.551 208.976 413.49V449.486C208.976 450.425 208.214 451.187 207.276 451.187C206.337 451.187 205.575 450.425 205.575 449.486V413.49Z" fill="#20201F"/>
<path fill-rule="evenodd" clip-rule="evenodd" d="M153.296 413.148C153.296 412.679 153.677 412.298 154.146 412.298C154.616 412.298 154.997 412.679 154.997 413.148C154.997 422.904 160.104 431.754 168.358 438.171C176.674 444.636 188.175 448.636 200.885 448.636C201.354 448.636 201.735 449.017 201.735 449.486C201.735 449.956 201.354 450.337 200.885 450.337C187.788 450.337 175.916 446.199 167.315 439.513C158.655 432.78 153.296 423.458 153.296 413.148Z" fill="#20201F"/>
<path fill-rule="evenodd" clip-rule="evenodd" d="M271.559 414.428C271.559 415.367 270.797 416.129 269.858 416.129C268.92 416.129 268.158 415.367 268.158 414.428V378.432C268.158 377.493 268.92 376.731 269.858 376.731C270.797 376.731 271.559 377.493 271.559 378.432V414.428Z" fill="#20201F"/>
<path fill-rule="evenodd" clip-rule="evenodd" d="M318.142 414.77C318.142 415.239 317.761 415.62 317.292 415.62C316.822 415.62 316.441 415.239 316.441 414.77C316.441 404.995 311.881 396.135 304.511 389.717C297.108 383.271 286.872 379.282 275.564 379.282C275.094 379.282 274.713 378.901 274.713 378.432C274.713 377.962 275.094 377.581 275.564 377.581C287.296 377.581 297.927 381.73 305.627 388.435C313.358 395.167 318.142 404.479 318.142 414.77Z" fill="#20201F"/>
<path fill-rule="evenodd" clip-rule="evenodd" d="M322.64 509.087C323.579 509.087 324.341 509.849 324.341 510.788C324.341 511.727 323.579 512.488 322.64 512.488H286.644C285.705 512.488 284.943 511.727 284.943 510.788C284.943 509.849 285.705 509.087 286.644 509.087H322.64Z" fill="#20201F"/>
<path fill-rule="evenodd" clip-rule="evenodd" d="M322.982 473.825C323.452 473.825 323.833 474.206 323.833 474.676C323.833 475.145 323.452 475.526 322.982 475.526C313.159 475.526 304.272 479.002 297.847 484.619C291.452 490.211 287.495 497.929 287.495 506.444C287.495 506.913 287.114 507.294 286.644 507.294C286.175 507.294 285.794 506.913 285.794 506.444C285.794 497.42 289.975 489.251 296.732 483.344C303.457 477.464 312.74 473.825 322.982 473.825Z" fill="#20201F"/>
<path fill-rule="evenodd" clip-rule="evenodd" d="M323.319 614.478C324.258 614.478 325.02 615.24 325.02 616.179C325.02 617.118 324.258 617.88 323.319 617.88H287.323C286.384 617.88 285.622 617.118 285.622 616.179C285.622 615.24 286.384 614.478 287.323 614.478H323.319Z" fill="#20201F"/>
<path fill-rule="evenodd" clip-rule="evenodd" d="M323.661 579.217C324.131 579.217 324.512 579.597 324.512 580.067C324.512 580.536 324.131 580.917 323.661 580.917C313.837 580.917 304.951 584.393 298.526 590.011C292.13 595.602 288.173 603.32 288.173 611.835C288.173 612.304 287.792 612.685 287.323 612.685C286.854 612.685 286.473 612.304 286.473 611.835C286.473 602.811 290.654 594.642 297.41 588.735C304.135 582.855 313.418 579.217 323.661 579.217Z" fill="#20201F"/>
<path fill-rule="evenodd" clip-rule="evenodd" d="M251.098 620.619C252.037 620.619 252.799 621.381 252.799 622.319C252.799 623.258 252.037 624.02 251.098 624.02H215.102C214.163 624.02 213.401 623.258 213.401 622.319C213.401 621.381 214.163 620.619 215.102 620.619H251.098Z" fill="#20201F"/>
<path fill-rule="evenodd" clip-rule="evenodd" d="M251.44 668.789C251.91 668.789 252.291 669.17 252.291 669.64C252.291 670.109 251.91 670.49 251.44 670.49C241.152 670.49 231.842 665.718 225.11 658.004C218.402 650.32 214.252 639.713 214.252 628.012C214.252 627.543 214.633 627.162 215.102 627.162C215.572 627.162 215.953 627.543 215.953 628.012C215.953 639.294 219.94 649.505 226.385 656.888C232.802 664.24 241.663 668.789 251.44 668.789Z" fill="#20201F"/>
<path fill-rule="evenodd" clip-rule="evenodd" d="M265.944 682.225C265.944 681.287 266.706 680.525 267.645 680.525C268.583 680.525 269.345 681.287 269.345 682.225V718.222C269.345 719.161 268.583 719.923 267.645 719.923C266.706 719.923 265.944 719.161 265.944 718.222V682.225Z" fill="#20201F"/>
<path fill-rule="evenodd" clip-rule="evenodd" d="M308.557 681.884C308.557 681.414 308.937 681.033 309.407 681.033C309.876 681.033 310.257 681.414 310.257 681.884C310.257 692.154 306.046 701.453 299.243 708.181C292.441 714.909 283.043 719.072 272.668 719.072C272.199 719.072 271.818 718.691 271.818 718.222C271.818 717.752 272.199 717.371 272.668 717.371C282.578 717.371 291.553 713.396 298.047 706.972C304.539 700.552 308.557 691.68 308.557 681.884Z" fill="#20201F"/>
<path fill-rule="evenodd" clip-rule="evenodd" d="M288.155 175.703C288.155 174.764 288.917 174.002 289.856 174.002C290.794 174.002 291.556 174.764 291.556 175.703V211.699C291.556 212.638 290.794 213.4 289.856 213.4C288.917 213.4 288.155 212.638 288.155 211.699V175.703Z" fill="#20201F"/>
<path fill-rule="evenodd" clip-rule="evenodd" d="M331.133 175.361C331.133 174.892 331.514 174.511 331.984 174.511C332.453 174.511 332.834 174.892 332.834 175.361C332.834 185.63 328.586 194.93 321.723 201.659C314.86 208.387 305.383 212.55 294.924 212.55C294.454 212.55 294.073 212.169 294.073 211.699C294.073 211.23 294.454 210.849 294.924 210.849C304.925 210.849 313.982 206.873 320.534 200.449C327.081 194.03 331.133 185.159 331.133 175.361Z" fill="#20201F"/>
<path fill-rule="evenodd" clip-rule="evenodd" d="M450.367 311.906V402.261H414.226V310.843H450.367V311.906ZM446.094 373.982C446.094 372.987 445.688 372.081 445.029 371.427C444.375 370.774 443.471 370.367 442.48 370.367H422.07C421.079 370.367 420.176 370.774 419.517 371.427C418.863 372.081 418.456 372.987 418.456 373.982V394.391C418.456 395.383 418.864 396.287 419.517 396.944C420.171 397.598 421.076 398.004 422.07 398.004H442.48C443.475 398.004 444.38 397.598 445.031 396.941C445.687 396.287 446.094 395.383 446.094 394.391V373.982ZM444.405 322.416C444.405 321.04 443.845 319.79 442.941 318.885C442.037 317.981 440.787 317.42 439.409 317.42C438.034 317.42 436.785 317.981 435.878 318.887C434.973 319.792 434.413 321.041 434.413 322.416C434.413 323.794 434.973 325.044 435.879 325.946C436.783 326.852 438.033 327.412 439.409 327.412C440.787 327.412 442.037 326.852 442.941 325.948C443.845 325.044 444.405 323.794 444.405 322.416ZM431.242 322.416C431.242 320.744 430.562 319.229 429.466 318.133C428.37 317.037 426.854 316.357 425.183 316.357C423.511 316.357 421.996 317.037 420.9 318.133C419.803 319.229 419.124 320.744 419.124 322.416C419.124 324.087 419.803 325.603 420.9 326.7C421.996 327.796 423.511 328.475 425.183 328.475C426.854 328.475 428.37 327.796 429.466 326.7C430.562 325.603 431.242 324.087 431.242 322.416ZM428.415 325.649C429.241 324.823 429.754 323.678 429.754 322.416C429.754 321.153 429.241 320.01 428.415 319.184C427.59 318.358 426.445 317.845 425.183 317.845C423.92 317.845 422.776 318.358 421.951 319.184C421.125 320.01 420.612 321.153 420.612 322.416C420.612 323.678 421.125 324.823 421.951 325.649C422.776 326.474 423.92 326.987 425.183 326.987C426.445 326.987 427.59 326.474 428.415 325.649ZM445.468 335.411C445.468 333.739 444.789 332.224 443.693 331.128C442.596 330.031 441.081 329.352 439.409 329.352C437.737 329.352 436.221 330.031 435.125 331.127C434.029 332.223 433.35 333.739 433.35 335.411C433.35 337.083 434.03 338.598 435.126 339.695C436.222 340.791 437.737 341.47 439.409 341.47C441.08 341.47 442.596 340.791 443.693 339.695C444.789 338.598 445.468 337.082 445.468 335.411ZM442.641 338.643C443.467 337.818 443.98 336.673 443.98 335.411C443.98 334.148 443.467 333.004 442.641 332.179C441.816 331.353 440.672 330.84 439.409 330.84C438.146 330.84 437.002 331.352 436.176 332.178C435.35 333.004 434.838 334.148 434.838 335.411C434.838 336.674 435.351 337.818 436.177 338.643C437.003 339.469 438.146 339.982 439.409 339.982C440.671 339.982 441.816 339.469 442.641 338.643ZM430.179 335.411C430.179 334.035 429.619 332.785 428.715 331.879C427.811 330.975 426.561 330.415 425.183 330.415C423.808 330.415 422.559 330.975 421.651 331.882C420.747 332.787 420.187 334.036 420.187 335.411C420.187 336.789 420.747 338.039 421.653 338.941C422.557 339.847 423.807 340.407 425.183 340.407C426.561 340.407 427.811 339.847 428.715 338.943C429.619 338.039 430.179 336.789 430.179 335.411ZM427.664 337.892C428.297 337.258 428.691 336.38 428.691 335.411C428.691 334.44 428.299 333.562 427.666 332.93C427.03 332.297 426.152 331.903 425.183 331.903C424.212 331.903 423.334 332.295 422.702 332.928C422.067 333.562 421.675 334.44 421.675 335.411C421.675 336.38 422.069 337.258 422.702 337.892C423.334 338.527 424.212 338.919 425.183 338.919C426.152 338.919 427.03 338.525 427.664 337.892ZM441.89 324.897C442.523 324.263 442.917 323.385 442.917 322.416C442.917 321.445 442.525 320.567 441.892 319.936C441.256 319.302 440.378 318.908 439.409 318.908C438.438 318.908 437.56 319.3 436.929 319.933C436.293 320.567 435.901 321.445 435.901 322.416C435.901 323.385 436.295 324.263 436.929 324.897C437.56 325.532 438.438 325.924 439.409 325.924C440.378 325.924 441.256 325.53 441.89 324.897ZM443.968 394.391V373.982C443.968 373.573 443.8 373.2 443.53 372.93C443.263 372.66 442.89 372.492 442.48 372.492H422.07C421.661 372.492 421.287 372.66 421.019 372.929C420.751 373.2 420.582 373.573 420.582 373.982V394.391C420.582 394.801 420.749 395.173 421.016 395.44C421.29 395.71 421.664 395.878 422.07 395.878H442.48C442.887 395.878 443.261 395.71 443.53 395.44C443.801 395.173 443.968 394.801 443.968 394.391ZM416.352 344.824H448.241V312.969H416.352V344.824ZM448.241 346.95H416.352V400.135H448.241V346.95Z" fill="#20201F"/>
<path fill-rule="evenodd" clip-rule="evenodd" d="M417.802 508.134C420.599 509.932 424.188 511.043 427.343 511.043C430.449 511.043 432.872 509.977 434.559 508.233V508.228C435.197 507.567 435.691 506.783 436.11 505.953V509.54C436.11 511.682 437.004 512.937 438.441 513.666C439.748 514.331 441.477 514.495 443.372 514.495H444.154V514.475C445.734 514.431 447.177 514.234 448.3 513.666C449.736 512.937 450.626 511.682 450.626 509.551V491.956C450.626 489.815 449.736 488.562 448.3 487.837C447.177 487.274 445.734 487.07 444.154 487.028V487.008H443.372C441.477 487.008 439.748 487.172 438.441 487.837C437.004 488.562 436.11 489.815 436.11 491.956V495.551C435.691 494.72 435.202 493.938 434.559 493.276C432.872 491.528 430.449 490.462 427.343 490.462C424.009 490.462 420.192 491.705 417.33 493.687C414.688 495.517 412.834 497.99 412.834 500.751C412.834 503.676 414.914 506.28 417.802 508.134ZM445.706 500.245H445.711V500.247C445.711 500.878 445.447 501.459 445.029 501.877V501.883C444.612 502.299 444.036 502.558 443.398 502.558C442.758 502.558 442.187 502.299 441.77 501.883H441.762L441.763 501.877C441.346 501.457 441.088 500.878 441.088 500.247C441.088 499.606 441.346 499.027 441.762 498.612C442.18 498.195 442.758 497.934 443.398 497.934C444.036 497.934 444.607 498.195 445.029 498.612C445.447 499.027 445.706 499.606 445.706 500.245ZM444.523 500.242V500.247C444.523 500.558 444.399 500.84 444.202 501.04H444.194C443.993 501.241 443.707 501.37 443.398 501.37C443.082 501.37 442.793 501.245 442.597 501.05L442.592 501.042C442.396 500.84 442.269 500.558 442.269 500.247C442.269 499.925 442.396 499.645 442.592 499.444C442.793 499.248 443.082 499.124 443.398 499.124C443.712 499.124 443.999 499.248 444.194 499.454C444.404 499.65 444.53 499.934 444.53 500.242H444.523ZM437.672 491.956C437.672 490.512 438.239 489.687 439.138 489.227C440.07 488.763 441.363 488.606 442.824 488.579H443.372C445.055 488.579 446.564 488.707 447.602 489.227C448.502 489.687 449.062 490.514 449.062 491.956V509.551C449.062 510.991 448.502 511.813 447.602 512.273C446.564 512.797 445.055 512.924 443.372 512.924H442.763C441.333 512.892 440.05 512.738 439.138 512.276C438.231 511.813 437.672 510.984 437.672 509.54V491.956ZM418.214 494.967C420.826 493.156 424.307 492.023 427.343 492.023C429.996 492.023 432.037 492.909 433.438 494.356C434.971 495.938 435.764 498.217 435.764 500.751C435.764 503.29 434.971 505.566 433.438 507.153C432.037 508.596 429.996 509.481 427.343 509.481C424.475 509.481 421.201 508.466 418.641 506.822C416.174 505.239 414.397 503.082 414.397 500.751C414.397 498.56 415.977 496.523 418.214 494.967Z" fill="#20201F"/>
<path fill-rule="evenodd" clip-rule="evenodd" d="M387.935 546.151L368.445 546.145C361.926 546.145 362.694 559.637 362.761 560.538C362.761 563.661 364.035 566.495 366.088 568.545C368.136 570.592 370.974 571.86 374.097 571.86H382.368C385.497 571.86 388.332 570.594 390.386 568.545C392.432 566.495 393.701 563.656 393.715 560.532C393.757 559.617 394.427 546.145 387.935 546.151ZM378.229 559.293V559.296C378.915 559.303 379.547 559.572 379.999 560.023C380.443 560.481 380.717 561.106 380.717 561.788C380.717 562.477 380.441 563.103 379.989 563.553C379.539 564.005 378.915 564.281 378.227 564.281C377.543 564.281 376.918 564.005 376.467 563.553H376.459V563.548C376.008 563.098 375.726 562.477 375.726 561.788C375.726 561.106 376.008 560.473 376.459 560.023H376.461C376.912 559.572 377.543 559.289 378.227 559.289L378.229 559.293ZM378.233 560.565C378.559 560.565 378.866 560.699 379.086 560.924C379.3 561.139 379.438 561.447 379.438 561.788C379.438 562.129 379.306 562.437 379.091 562.658C378.87 562.869 378.57 563.009 378.227 563.005C377.883 563.005 377.586 562.872 377.366 562.658L377.361 562.652C377.142 562.437 377.009 562.129 377.009 561.788C377.009 561.453 377.151 561.145 377.363 560.924L377.368 560.922C377.583 560.706 377.89 560.576 378.222 560.576L378.233 560.578V560.565ZM378.229 550.9C381.371 550.9 384.224 551.836 386.298 553.339C388.453 554.91 389.792 557.106 389.794 559.539C389.794 561.981 388.453 564.176 386.298 565.751C384.216 567.262 381.362 568.19 378.219 568.19H378.205C375.071 568.183 372.225 567.248 370.144 565.742C367.999 564.171 366.662 561.981 366.66 559.553L366.662 559.539C366.662 557.1 367.999 554.917 370.161 553.339C372.23 551.834 375.082 550.9 378.222 550.903L378.229 550.9ZM378.229 552.658C380.983 552.663 383.471 553.471 385.27 554.769C386.969 556.011 388.026 557.702 388.026 559.539C388.026 561.388 386.969 563.079 385.257 564.326C383.467 565.619 380.983 566.425 378.219 566.425H378.214L378.205 566.43C375.449 566.425 372.971 565.619 371.181 564.318C369.487 563.082 368.431 561.388 368.426 559.553L368.431 559.539C368.428 557.699 369.485 556.006 371.187 554.769C372.978 553.476 375.463 552.663 378.219 552.665H378.229V552.658ZM387.929 547.91C392.768 547.91 391.943 560.435 391.943 560.468L391.936 560.532C391.936 563.172 390.87 565.56 389.145 567.296C387.404 569.027 385.012 570.095 382.368 570.095H374.106C371.452 570.095 369.056 569.032 367.323 567.296C365.592 565.568 364.527 563.172 364.522 560.532L364.519 560.47C364.519 560.439 363.631 547.91 368.45 547.91H387.929Z" fill="#20201F"/>
<path fill-rule="evenodd" clip-rule="evenodd" d="M447.925 650.428V548.839H406.366V650.428H447.925ZM423.106 630.632C423.106 629.517 423.558 628.506 424.289 627.776C425.023 627.045 426.032 626.593 427.145 626.593C428.258 626.593 429.268 627.045 429.999 627.776C430.732 628.51 431.185 629.519 431.185 630.632C431.185 631.746 430.732 632.755 430.002 633.486C429.272 634.219 428.261 634.672 427.145 634.672C426.03 634.672 425.019 634.219 424.289 633.489C423.558 632.759 423.106 631.748 423.106 630.632ZM425.43 628.917C425.867 628.48 426.475 628.209 427.145 628.209C427.816 628.209 428.423 628.48 428.861 628.917C429.297 629.354 429.569 629.962 429.569 630.632C429.569 631.303 429.297 631.91 428.86 632.347C428.421 632.785 427.814 633.056 427.145 633.056C426.476 633.056 425.87 632.785 425.431 632.347C424.993 631.908 424.722 631.301 424.722 630.632C424.722 629.964 424.993 629.357 425.43 628.917ZM407.555 642.76L409.171 571.048C409.171 560.277 416.375 551.458 427.145 551.458C437.916 551.458 445.12 560.277 445.12 571.048L446.736 642.76C446.736 644.15 446.167 645.413 445.253 646.327C444.335 647.241 443.073 647.809 441.686 647.809H412.604C411.22 647.809 409.958 647.241 409.042 646.327C408.123 645.407 407.555 644.145 407.555 642.76ZM411.191 571.048C411.191 561.381 417.478 553.477 427.145 553.477C436.812 553.477 443.1 561.381 443.1 571.048L444.716 642.76C444.716 643.591 444.374 644.349 443.825 644.903C443.278 645.45 442.521 645.79 441.686 645.79H412.604C411.77 645.79 411.013 645.45 410.462 644.899C409.915 644.352 409.575 643.595 409.575 642.76L411.191 571.048ZM449.903 548.626V650.641C449.903 651.148 449.702 651.611 449.383 651.947C449.063 652.284 448.617 652.493 448.128 652.493H406.162C405.674 652.493 405.228 652.284 404.908 651.951C404.587 651.615 404.388 651.151 404.388 650.641V548.626C404.388 548.116 404.587 547.652 404.908 547.316C405.232 546.984 405.676 546.774 406.162 546.774H448.128C448.615 546.774 449.058 546.984 449.38 547.316C449.703 547.657 449.903 548.119 449.903 548.626Z" fill="#20201F"/>
<path fill-rule="evenodd" clip-rule="evenodd" d="M70.1528 534.361H73.0731C73.4218 534.361 73.7049 534.075 73.7049 533.728V533.118H103.737C104.244 533.118 104.656 532.706 104.656 532.199C104.656 531.692 104.244 531.281 103.737 531.281H73.7049V526.274C73.7049 525.927 73.4192 525.641 73.0731 525.641H70.1528C69.8042 525.641 69.521 525.925 69.521 526.274V533.728C69.521 534.077 69.8042 534.361 70.1528 534.361Z" fill="#20201F"/>
<path fill-rule="evenodd" clip-rule="evenodd" d="M135.595 525.43H132.674C132.326 525.43 132.043 525.716 132.043 526.063V526.673H102.01C101.503 526.673 101.092 527.085 101.092 527.592C101.092 528.098 101.503 528.51 102.01 528.51H132.043V533.517C132.043 533.863 132.328 534.15 132.674 534.15H135.595C135.943 534.15 136.227 533.866 136.227 533.517V526.063C136.227 525.714 135.943 525.43 135.595 525.43Z" fill="#20201F"/>
<path fill-rule="evenodd" clip-rule="evenodd" d="M161.336 534.361H164.256C164.604 534.361 164.888 534.075 164.888 533.728V533.118H194.92C195.427 533.118 195.839 532.706 195.839 532.199C195.839 531.692 195.427 531.281 194.92 531.281H164.888V526.274C164.888 525.927 164.602 525.641 164.256 525.641H161.336C160.987 525.641 160.704 525.925 160.704 526.274V533.728C160.704 534.077 160.987 534.361 161.336 534.361Z" fill="#20201F"/>
<path fill-rule="evenodd" clip-rule="evenodd" d="M226.777 525.43H223.857C223.509 525.43 223.225 525.716 223.225 526.063V526.673H193.193C192.686 526.673 192.274 527.085 192.274 527.592C192.274 528.098 192.686 528.51 193.193 528.51H223.225V533.517C223.225 533.863 223.511 534.15 223.857 534.15H226.777C227.126 534.15 227.409 533.866 227.409 533.517V526.063C227.409 525.714 227.126 525.43 226.777 525.43Z" fill="#20201F"/>
<path fill-rule="evenodd" clip-rule="evenodd" d="M70.1528 615.999H73.0731C73.4218 615.999 73.7049 615.713 73.7049 615.366V614.755H103.737C104.244 614.755 104.656 614.344 104.656 613.837C104.656 613.33 104.244 612.919 103.737 612.919H73.7049V607.911C73.7049 607.565 73.4192 607.279 73.0731 607.279H70.1528C69.8042 607.279 69.521 607.563 69.521 607.911V615.366C69.521 615.715 69.8042 615.999 70.1528 615.999Z" fill="#20201F"/>
<path fill-rule="evenodd" clip-rule="evenodd" d="M135.595 607.068H132.674C132.326 607.068 132.043 607.354 132.043 607.701V608.311H102.01C101.503 608.311 101.092 608.723 101.092 609.23C101.092 609.736 101.503 610.148 102.01 610.148H132.043V615.155C132.043 615.501 132.328 615.788 132.674 615.788H135.595C135.943 615.788 136.227 615.504 136.227 615.155V607.701C136.227 607.352 135.943 607.068 135.595 607.068Z" fill="#20201F"/>
<path fill-rule="evenodd" clip-rule="evenodd" d="M161.336 615.999H164.256C164.604 615.999 164.888 615.713 164.888 615.366V614.755H194.92C195.427 614.755 195.839 614.344 195.839 613.837C195.839 613.33 195.427 612.919 194.92 612.919H164.888V607.911C164.888 607.565 164.602 607.279 164.256 607.279H161.336C160.987 607.279 160.704 607.563 160.704 607.911V615.366C160.704 615.715 160.987 615.999 161.336 615.999Z" fill="#20201F"/>
<path fill-rule="evenodd" clip-rule="evenodd" d="M226.777 607.068H223.857C223.509 607.068 223.225 607.354 223.225 607.701V608.311H193.193C192.686 608.311 192.274 608.723 192.274 609.23C192.274 609.736 192.686 610.148 193.193 610.148H223.225V615.155C223.225 615.501 223.511 615.788 223.857 615.788H226.777C227.126 615.788 227.409 615.504 227.409 615.155V607.701C227.409 607.352 227.126 607.068 226.777 607.068Z" fill="#20201F"/>
<path d="M115.087 122.141C118.614 122.716 121.316 124.038 123.194 126.108C125.072 128.139 126.011 130.669 126.011 133.697C126.011 136.035 125.398 138.2 124.171 140.193C122.945 142.148 121.067 143.719 118.537 144.908C116.046 146.096 112.979 146.69 109.338 146.69C106.502 146.69 103.704 146.326 100.944 145.598C98.2231 144.831 95.9043 143.758 93.9879 142.378L97.6099 135.249C99.143 136.399 100.906 137.3 102.899 137.951C104.931 138.564 107 138.871 109.108 138.871C111.446 138.871 113.286 138.43 114.627 137.549C115.969 136.629 116.64 135.345 116.64 133.697C116.64 130.401 114.129 128.752 109.108 128.752H104.854V122.601L113.133 113.23H96.0001V105.756H124.171V111.792L115.087 122.141Z" fill="#20201F"/>
<path d="M159.075 93.9326C161.156 93.9326 162.668 94.309 163.613 95.0619C164.571 95.801 165.05 96.8414 165.05 98.1828C165.05 99.0178 164.852 99.7639 164.455 100.421C164.072 101.078 163.49 101.598 162.71 101.981C161.929 102.351 160.971 102.536 159.835 102.536C158.808 102.536 157.83 102.372 156.899 102.043C155.982 101.701 155.242 101.249 154.681 100.688L155.4 99.5175C155.879 100.01 156.509 100.414 157.289 100.729C158.069 101.03 158.911 101.181 159.814 101.181C161.005 101.181 161.922 100.914 162.566 100.38C163.223 99.846 163.551 99.1342 163.551 98.2444C163.551 97.2589 163.182 96.5128 162.443 96.0064C161.717 95.4999 160.485 95.2467 158.747 95.2467H155.687L156.427 88.0396H164.291V89.3537H157.72L157.227 93.9326H159.075ZM179.144 98.6346H176.27V102.413H174.791V98.6346H166.681V97.5669L174.298 88.0396H175.941L168.59 97.3205H174.832V93.9941H176.27V97.3205H179.144V98.6346ZM182.012 102.515C181.711 102.515 181.451 102.406 181.232 102.187C181.026 101.968 180.924 101.701 180.924 101.386C180.924 101.071 181.026 100.811 181.232 100.606C181.451 100.387 181.711 100.277 182.012 100.277C182.313 100.277 182.573 100.387 182.792 100.606C183.011 100.811 183.121 101.071 183.121 101.386C183.121 101.701 183.011 101.968 182.792 102.187C182.573 102.406 182.313 102.515 182.012 102.515ZM193.688 94.8771C194.592 95.1782 195.283 95.6299 195.762 96.2322C196.255 96.8345 196.501 97.56 196.501 98.4087C196.501 99.2437 196.276 99.976 195.824 100.606C195.372 101.222 194.722 101.701 193.873 102.043C193.038 102.372 192.053 102.536 190.916 102.536C189.192 102.536 187.837 102.166 186.851 101.427C185.865 100.688 185.373 99.6817 185.373 98.4087C185.373 97.5463 185.605 96.8208 186.071 96.2322C186.55 95.6299 187.241 95.1782 188.145 94.8771C187.405 94.5896 186.844 94.1789 186.461 93.6451C186.078 93.0976 185.886 92.4542 185.886 91.715C185.886 90.5515 186.338 89.6275 187.241 88.9431C188.158 88.2587 189.383 87.9164 190.916 87.9164C191.929 87.9164 192.812 88.0739 193.565 88.3887C194.332 88.6898 194.927 89.1279 195.352 89.7028C195.776 90.2777 195.988 90.9485 195.988 91.715C195.988 92.4542 195.79 93.0976 195.393 93.6451C194.996 94.1789 194.428 94.5896 193.688 94.8771ZM187.364 91.7561C187.364 92.55 187.679 93.1797 188.309 93.6451C188.938 94.1105 189.808 94.3432 190.916 94.3432C192.025 94.3432 192.894 94.1105 193.524 93.6451C194.168 93.1797 194.489 92.5569 194.489 91.7766C194.489 90.969 194.161 90.3325 193.504 89.8671C192.86 89.4016 191.998 89.1689 190.916 89.1689C189.821 89.1689 188.952 89.4016 188.309 89.8671C187.679 90.3325 187.364 90.9621 187.364 91.7561ZM190.916 101.283C192.19 101.283 193.182 101.023 193.894 100.503C194.619 99.9829 194.982 99.2779 194.982 98.3882C194.982 97.4984 194.619 96.8003 193.894 96.2938C193.182 95.7737 192.19 95.5136 190.916 95.5136C189.657 95.5136 188.665 95.7737 187.939 96.2938C187.227 96.8003 186.872 97.4984 186.872 98.3882C186.872 99.2916 187.227 100.003 187.939 100.524C188.651 101.03 189.643 101.283 190.916 101.283ZM203.025 87.9164C204.927 87.9164 206.385 88.5461 207.398 89.8055C208.411 91.0511 208.917 92.8169 208.917 95.1029C208.917 96.7045 208.644 98.0596 208.096 99.1684C207.549 100.277 206.782 101.119 205.796 101.694C204.811 102.255 203.661 102.536 202.347 102.536C200.923 102.536 199.787 102.276 198.939 101.756L199.534 100.565C200.218 101.016 201.149 101.242 202.326 101.242C203.914 101.242 205.16 100.743 206.063 99.7433C206.967 98.7304 207.419 97.2657 207.419 95.3493C207.419 94.9934 207.398 94.6033 207.357 94.1789C207.001 94.9592 206.433 95.5683 205.653 96.0064C204.873 96.4307 203.976 96.6429 202.963 96.6429C202.018 96.6429 201.177 96.4649 200.437 96.109C199.712 95.7531 199.144 95.2535 198.733 94.6101C198.323 93.9531 198.117 93.1934 198.117 92.331C198.117 91.4549 198.329 90.6815 198.754 90.0108C199.178 89.34 199.76 88.8267 200.499 88.4708C201.252 88.1012 202.094 87.9164 203.025 87.9164ZM203.189 95.3904C203.914 95.3904 204.551 95.2535 205.098 94.9797C205.66 94.706 206.098 94.3295 206.412 93.8504C206.727 93.3713 206.885 92.8375 206.885 92.2489C206.885 91.7013 206.734 91.1948 206.433 90.7294C206.146 90.264 205.714 89.8876 205.139 89.6001C204.565 89.3127 203.88 89.1689 203.086 89.1689C202.046 89.1689 201.197 89.4564 200.54 90.0313C199.897 90.5925 199.575 91.3454 199.575 92.2899C199.575 93.2344 199.897 93.9873 200.54 94.5485C201.197 95.1098 202.08 95.3904 203.189 95.3904Z" fill="#20201F"/>
<path d="M163.972 124.163C164.876 124.464 165.567 124.916 166.046 125.518C166.539 126.121 166.785 126.846 166.785 127.695C166.785 128.53 166.559 129.262 166.108 129.892C165.656 130.508 165.006 130.987 164.157 131.329C163.322 131.658 162.336 131.822 161.2 131.822C159.476 131.822 158.12 131.452 157.135 130.713C156.149 129.974 155.656 128.968 155.656 127.695C155.656 126.832 155.889 126.107 156.355 125.518C156.834 124.916 157.525 124.464 158.428 124.163C157.689 123.876 157.128 123.465 156.745 122.931C156.361 122.384 156.17 121.74 156.17 121.001C156.17 119.838 156.622 118.914 157.525 118.229C158.442 117.545 159.667 117.203 161.2 117.203C162.213 117.203 163.096 117.36 163.849 117.675C164.616 117.976 165.211 118.414 165.635 118.989C166.06 119.564 166.272 120.235 166.272 121.001C166.272 121.74 166.073 122.384 165.676 122.931C165.28 123.465 164.711 123.876 163.972 124.163ZM157.648 121.042C157.648 121.836 157.963 122.466 158.593 122.931C159.222 123.397 160.092 123.629 161.2 123.629C162.309 123.629 163.178 123.397 163.808 122.931C164.451 122.466 164.773 121.843 164.773 121.063C164.773 120.255 164.445 119.619 163.787 119.153C163.144 118.688 162.282 118.455 161.2 118.455C160.105 118.455 159.236 118.688 158.593 119.153C157.963 119.619 157.648 120.248 157.648 121.042ZM161.2 130.569C162.473 130.569 163.466 130.309 164.178 129.789C164.903 129.269 165.266 128.564 165.266 127.674C165.266 126.785 164.903 126.086 164.178 125.58C163.466 125.06 162.473 124.8 161.2 124.8C159.941 124.8 158.949 125.06 158.223 125.58C157.511 126.086 157.155 126.785 157.155 127.674C157.155 128.578 157.511 129.29 158.223 129.81C158.935 130.316 159.927 130.569 161.2 130.569ZM177.066 124.163C177.969 124.464 178.661 124.916 179.14 125.518C179.633 126.121 179.879 126.846 179.879 127.695C179.879 128.53 179.653 129.262 179.201 129.892C178.75 130.508 178.099 130.987 177.251 131.329C176.416 131.658 175.43 131.822 174.294 131.822C172.569 131.822 171.214 131.452 170.229 130.713C169.243 129.974 168.75 128.968 168.75 127.695C168.75 126.832 168.983 126.107 169.448 125.518C169.927 124.916 170.619 124.464 171.522 124.163C170.783 123.876 170.222 123.465 169.838 122.931C169.455 122.384 169.263 121.74 169.263 121.001C169.263 119.838 169.715 118.914 170.619 118.229C171.536 117.545 172.761 117.203 174.294 117.203C175.307 117.203 176.19 117.36 176.943 117.675C177.709 117.976 178.305 118.414 178.729 118.989C179.153 119.564 179.366 120.235 179.366 121.001C179.366 121.74 179.167 122.384 178.77 122.931C178.373 123.465 177.805 123.876 177.066 124.163ZM170.742 121.042C170.742 121.836 171.057 122.466 171.686 122.931C172.316 123.397 173.185 123.629 174.294 123.629C175.403 123.629 176.272 123.397 176.902 122.931C177.545 122.466 177.867 121.843 177.867 121.063C177.867 120.255 177.538 119.619 176.881 119.153C176.238 118.688 175.375 118.455 174.294 118.455C173.199 118.455 172.33 118.688 171.686 119.153C171.057 119.619 170.742 120.248 170.742 121.042ZM174.294 130.569C175.567 130.569 176.559 130.309 177.271 129.789C177.997 129.269 178.359 128.564 178.359 127.674C178.359 126.785 177.997 126.086 177.271 125.58C176.559 125.06 175.567 124.8 174.294 124.8C173.035 124.8 172.042 125.06 171.317 125.58C170.605 126.086 170.249 126.785 170.249 127.674C170.249 128.578 170.605 129.29 171.317 129.81C172.029 130.316 173.021 130.569 174.294 130.569ZM183.235 131.801C182.934 131.801 182.674 131.692 182.455 131.473C182.25 131.254 182.147 130.987 182.147 130.672C182.147 130.357 182.25 130.097 182.455 129.892C182.674 129.673 182.934 129.563 183.235 129.563C183.536 129.563 183.796 129.673 184.015 129.892C184.234 130.097 184.344 130.357 184.344 130.672C184.344 130.987 184.234 131.254 184.015 131.473C183.796 131.692 183.536 131.801 183.235 131.801ZM190.256 123.219C192.336 123.219 193.849 123.595 194.793 124.348C195.752 125.087 196.231 126.127 196.231 127.469C196.231 128.304 196.032 129.05 195.635 129.707C195.252 130.364 194.67 130.884 193.89 131.268C193.11 131.637 192.152 131.822 191.015 131.822C189.989 131.822 189.01 131.658 188.079 131.329C187.162 130.987 186.423 130.535 185.862 129.974L186.58 128.804C187.059 129.296 187.689 129.7 188.469 130.015C189.25 130.316 190.091 130.467 190.995 130.467C192.186 130.467 193.103 130.2 193.746 129.666C194.403 129.132 194.732 128.42 194.732 127.531C194.732 126.545 194.362 125.799 193.623 125.292C192.898 124.786 191.666 124.533 189.927 124.533H186.868L187.607 117.326H195.471V118.64H188.901L188.408 123.219H190.256ZM202.584 117.203C204.486 117.203 205.944 117.832 206.957 119.092C207.97 120.337 208.477 122.103 208.477 124.389C208.477 125.991 208.203 127.346 207.655 128.455C207.108 129.563 206.341 130.405 205.356 130.98C204.37 131.541 203.22 131.822 201.906 131.822C200.483 131.822 199.346 131.562 198.498 131.042L199.093 129.851C199.778 130.302 200.708 130.528 201.886 130.528C203.473 130.528 204.719 130.029 205.623 129.029C206.526 128.017 206.978 126.552 206.978 124.635C206.978 124.28 206.957 123.889 206.916 123.465C206.56 124.245 205.992 124.854 205.212 125.292C204.432 125.717 203.535 125.929 202.522 125.929C201.578 125.929 200.736 125.751 199.997 125.395C199.271 125.039 198.703 124.54 198.292 123.896C197.882 123.239 197.676 122.48 197.676 121.617C197.676 120.741 197.889 119.968 198.313 119.297C198.737 118.626 199.319 118.113 200.058 117.757C200.811 117.387 201.653 117.203 202.584 117.203ZM202.748 124.677C203.473 124.677 204.11 124.54 204.658 124.266C205.219 123.992 205.657 123.616 205.972 123.137C206.286 122.657 206.444 122.124 206.444 121.535C206.444 120.987 206.293 120.481 205.992 120.016C205.705 119.55 205.274 119.174 204.699 118.886C204.124 118.599 203.439 118.455 202.645 118.455C201.605 118.455 200.756 118.743 200.099 119.317C199.456 119.879 199.134 120.632 199.134 121.576C199.134 122.521 199.456 123.273 200.099 123.835C200.756 124.396 201.639 124.677 202.748 124.677Z" fill="#20201F"/>
<path d="M162.699 146.488C164.602 146.488 166.06 147.118 167.073 148.377C168.086 149.623 168.592 151.389 168.592 153.675C168.592 155.276 168.318 156.631 167.771 157.74C167.223 158.849 166.457 159.691 165.471 160.266C164.485 160.827 163.336 161.108 162.022 161.108C160.598 161.108 159.462 160.847 158.613 160.327L159.209 159.136C159.893 159.588 160.824 159.814 162.001 159.814C163.589 159.814 164.835 159.314 165.738 158.315C166.641 157.302 167.093 155.837 167.093 153.921C167.093 153.565 167.073 153.175 167.032 152.751C166.676 153.531 166.108 154.14 165.327 154.578C164.547 155.002 163.65 155.215 162.638 155.215C161.693 155.215 160.851 155.037 160.112 154.681C159.387 154.325 158.818 153.825 158.408 153.182C157.997 152.525 157.792 151.765 157.792 150.903C157.792 150.027 158.004 149.253 158.428 148.583C158.853 147.912 159.434 147.399 160.174 147.043C160.926 146.673 161.768 146.488 162.699 146.488ZM162.863 153.962C163.589 153.962 164.225 153.825 164.773 153.552C165.334 153.278 165.772 152.901 166.087 152.422C166.402 151.943 166.559 151.409 166.559 150.821C166.559 150.273 166.409 149.767 166.108 149.301C165.82 148.836 165.389 148.459 164.814 148.172C164.239 147.884 163.555 147.741 162.761 147.741C161.72 147.741 160.872 148.028 160.215 148.603C159.571 149.164 159.25 149.917 159.25 150.862C159.25 151.806 159.571 152.559 160.215 153.12C160.872 153.682 161.755 153.962 162.863 153.962ZM176.464 161.108C175.355 161.108 174.363 160.813 173.487 160.225C172.624 159.636 171.947 158.794 171.454 157.699C170.975 156.59 170.735 155.29 170.735 153.798C170.735 152.306 170.975 151.012 171.454 149.917C171.947 148.808 172.624 147.96 173.487 147.371C174.363 146.783 175.355 146.488 176.464 146.488C177.573 146.488 178.558 146.783 179.421 147.371C180.297 147.96 180.981 148.808 181.474 149.917C181.967 151.012 182.213 152.306 182.213 153.798C182.213 155.29 181.967 156.59 181.474 157.699C180.981 158.794 180.297 159.636 179.421 160.225C178.558 160.813 177.573 161.108 176.464 161.108ZM176.464 159.752C177.299 159.752 178.031 159.52 178.661 159.054C179.304 158.589 179.804 157.911 180.16 157.022C180.516 156.132 180.694 155.057 180.694 153.798C180.694 152.539 180.516 151.464 180.16 150.574C179.804 149.684 179.304 149.007 178.661 148.541C178.031 148.076 177.299 147.843 176.464 147.843C175.629 147.843 174.89 148.076 174.246 148.541C173.617 149.007 173.124 149.684 172.768 150.574C172.412 151.464 172.234 152.539 172.234 153.798C172.234 155.057 172.412 156.132 172.768 157.022C173.124 157.911 173.617 158.589 174.246 159.054C174.89 159.52 175.629 159.752 176.464 159.752ZM185.218 161.087C184.917 161.087 184.657 160.978 184.438 160.759C184.233 160.539 184.13 160.273 184.13 159.958C184.13 159.643 184.233 159.383 184.438 159.177C184.657 158.958 184.917 158.849 185.218 158.849C185.519 158.849 185.78 158.958 185.999 159.177C186.218 159.383 186.327 159.643 186.327 159.958C186.327 160.273 186.218 160.539 185.999 160.759C185.78 160.978 185.519 161.087 185.218 161.087ZM194.195 152.381C195.139 152.381 195.974 152.559 196.7 152.915C197.439 153.271 198.014 153.777 198.424 154.434C198.835 155.078 199.04 155.831 199.04 156.693C199.04 157.569 198.828 158.342 198.404 159.013C197.98 159.684 197.391 160.204 196.638 160.574C195.899 160.93 195.064 161.108 194.133 161.108C192.23 161.108 190.773 160.485 189.76 159.239C188.747 157.98 188.24 156.207 188.24 153.921C188.24 152.32 188.514 150.964 189.061 149.856C189.609 148.747 190.376 147.912 191.361 147.351C192.347 146.776 193.497 146.488 194.811 146.488C196.234 146.488 197.37 146.748 198.219 147.268L197.624 148.459C196.939 148.008 196.008 147.782 194.831 147.782C193.243 147.782 191.998 148.288 191.094 149.301C190.191 150.3 189.739 151.758 189.739 153.675C189.739 154.017 189.76 154.407 189.801 154.845C190.157 154.065 190.725 153.463 191.505 153.038C192.285 152.6 193.182 152.381 194.195 152.381ZM194.071 159.855C195.112 159.855 195.954 159.574 196.597 159.013C197.254 158.438 197.583 157.679 197.583 156.734C197.583 155.79 197.254 155.037 196.597 154.475C195.954 153.914 195.078 153.634 193.969 153.634C193.243 153.634 192.6 153.771 192.039 154.044C191.491 154.318 191.06 154.694 190.745 155.174C190.43 155.653 190.273 156.187 190.273 156.775C190.273 157.323 190.417 157.829 190.704 158.295C191.005 158.76 191.443 159.136 192.018 159.424C192.593 159.711 193.278 159.855 194.071 159.855ZM204.736 146.611V160.984H203.257V147.926H199.869V146.611H204.736Z" fill="#20201F"/>
<path d="M143.009 75H140.883V176.095H143.009V75Z" fill="#20201F"/>
<path d="M101.348 266.701H95.6806V275.119H92.498V264.072H101.348V266.701ZM107.758 275.283C106.595 275.283 105.547 275.044 104.617 274.565C103.7 274.072 102.981 273.394 102.461 272.532C101.941 271.67 101.68 270.691 101.68 269.596C101.68 268.501 101.941 267.522 102.461 266.66C102.981 265.797 103.7 265.127 104.617 264.647C105.547 264.155 106.595 263.908 107.758 263.908C108.922 263.908 109.962 264.155 110.879 264.647C111.796 265.127 112.515 265.797 113.035 266.66C113.555 267.522 113.815 268.501 113.815 269.596C113.815 270.691 113.555 271.67 113.035 272.532C112.515 273.394 111.796 274.072 110.879 274.565C109.962 275.044 108.922 275.283 107.758 275.283ZM107.758 272.655C108.579 272.655 109.25 272.381 109.77 271.834C110.304 271.273 110.571 270.527 110.571 269.596C110.571 268.665 110.304 267.926 109.77 267.378C109.25 266.817 108.579 266.536 107.758 266.536C106.937 266.536 106.259 266.817 105.725 267.378C105.192 267.926 104.925 268.665 104.925 269.596C104.925 270.527 105.192 271.273 105.725 271.834C106.259 272.381 106.937 272.655 107.758 272.655ZM121.275 275.283C120.098 275.283 119.037 275.044 118.092 274.565C117.161 274.072 116.429 273.394 115.895 272.532C115.375 271.67 115.115 270.691 115.115 269.596C115.115 268.501 115.375 267.522 115.895 266.66C116.429 265.797 117.161 265.127 118.092 264.647C119.037 264.155 120.098 263.908 121.275 263.908C122.438 263.908 123.451 264.155 124.314 264.647C125.19 265.127 125.826 265.818 126.223 266.721L123.739 268.056C123.164 267.043 122.336 266.536 121.254 266.536C120.419 266.536 119.728 266.81 119.181 267.358C118.633 267.905 118.359 268.651 118.359 269.596C118.359 270.54 118.633 271.286 119.181 271.834C119.728 272.381 120.419 272.655 121.254 272.655C122.349 272.655 123.178 272.149 123.739 271.136L126.223 272.491C125.826 273.367 125.19 274.051 124.314 274.544C123.451 275.037 122.438 275.283 121.275 275.283ZM137.41 266.701H133.673V275.119H130.491V266.701H126.754V264.072H137.41V266.701ZM139.118 264.072H142.3V270.643L147.68 264.072H150.616V275.119H147.434V268.549L142.075 275.119H139.118V264.072ZM153.695 264.072H156.878V268.384H161.683V264.072H164.886V275.119H161.683V270.992H156.878V275.119H153.695V264.072ZM172.243 263.908C173.954 263.908 175.269 264.319 176.186 265.14C177.103 265.948 177.561 267.173 177.561 268.816V275.119H174.564V273.743C173.961 274.77 172.839 275.283 171.196 275.283C170.347 275.283 169.608 275.14 168.979 274.852C168.363 274.565 167.89 274.168 167.562 273.661C167.233 273.155 167.069 272.58 167.069 271.937C167.069 270.91 167.452 270.102 168.219 269.514C168.999 268.925 170.197 268.631 171.812 268.631H174.358C174.358 267.933 174.146 267.399 173.722 267.029C173.297 266.646 172.661 266.454 171.812 266.454C171.224 266.454 170.642 266.55 170.067 266.742C169.506 266.92 169.027 267.166 168.63 267.481L167.48 265.243C168.082 264.819 168.801 264.49 169.636 264.257C170.484 264.025 171.354 263.908 172.243 263.908ZM171.997 273.127C172.545 273.127 173.03 273.004 173.455 272.758C173.879 272.498 174.18 272.121 174.358 271.629V270.499H172.161C170.847 270.499 170.19 270.93 170.19 271.793C170.19 272.203 170.347 272.532 170.662 272.778C170.991 273.011 171.436 273.127 171.997 273.127ZM190.159 264.072V275.119H187.304V271.957H184.943L182.849 275.119H179.44L181.966 271.505C181.199 271.204 180.611 270.773 180.2 270.212C179.803 269.637 179.605 268.946 179.605 268.138C179.605 266.838 180.07 265.838 181.001 265.14C181.945 264.428 183.239 264.072 184.882 264.072H190.159ZM184.943 266.68C184.259 266.68 183.739 266.803 183.383 267.05C183.041 267.296 182.869 267.693 182.869 268.241C182.869 268.788 183.034 269.192 183.362 269.452C183.704 269.698 184.218 269.822 184.902 269.822H187.304V266.68H184.943Z" fill="black"/>
<path d="M126.211 301.695V304.405H115.349V302.249L120.893 297.013C121.481 296.452 121.878 295.973 122.084 295.576C122.289 295.166 122.392 294.762 122.392 294.365C122.392 293.79 122.193 293.352 121.796 293.051C121.413 292.736 120.845 292.578 120.092 292.578C119.462 292.578 118.894 292.702 118.388 292.948C117.881 293.181 117.457 293.537 117.115 294.016L114.692 292.455C115.253 291.62 116.027 290.97 117.012 290.505C117.998 290.025 119.127 289.786 120.4 289.786C121.468 289.786 122.399 289.964 123.192 290.32C124 290.662 124.623 291.155 125.061 291.798C125.513 292.428 125.739 293.174 125.739 294.036C125.739 294.816 125.574 295.549 125.246 296.233C124.917 296.918 124.281 297.698 123.336 298.574L120.03 301.695H126.211ZM133.127 290.032V304.405H129.801V292.702H126.926V290.032H133.127ZM137.513 304.57C136.952 304.57 136.48 304.378 136.096 303.995C135.713 303.611 135.521 303.132 135.521 302.557C135.521 301.969 135.713 301.496 136.096 301.141C136.48 300.771 136.952 300.586 137.513 300.586C138.074 300.586 138.546 300.771 138.93 301.141C139.313 301.496 139.505 301.969 139.505 302.557C139.505 303.132 139.313 303.611 138.93 303.995C138.546 304.378 138.074 304.57 137.513 304.57ZM146.897 304.652C145.706 304.652 144.645 304.357 143.714 303.769C142.784 303.18 142.051 302.331 141.517 301.223C140.997 300.1 140.737 298.766 140.737 297.219C140.737 295.672 140.997 294.344 141.517 293.235C142.051 292.113 142.784 291.257 143.714 290.669C144.645 290.08 145.706 289.786 146.897 289.786C148.088 289.786 149.149 290.08 150.08 290.669C151.01 291.257 151.736 292.113 152.256 293.235C152.79 294.344 153.057 295.672 153.057 297.219C153.057 298.766 152.79 300.1 152.256 301.223C151.736 302.331 151.01 303.18 150.08 303.769C149.149 304.357 148.088 304.652 146.897 304.652ZM146.897 301.839C147.773 301.839 148.457 301.462 148.95 300.709C149.457 299.956 149.71 298.793 149.71 297.219C149.71 295.645 149.457 294.481 148.95 293.728C148.457 292.975 147.773 292.599 146.897 292.599C146.035 292.599 145.35 292.975 144.844 293.728C144.351 294.481 144.105 295.645 144.105 297.219C144.105 298.793 144.351 299.956 144.844 300.709C145.35 301.462 146.035 301.839 146.897 301.839ZM160.833 304.652C159.642 304.652 158.581 304.357 157.65 303.769C156.719 303.18 155.987 302.331 155.453 301.223C154.933 300.1 154.673 298.766 154.673 297.219C154.673 295.672 154.933 294.344 155.453 293.235C155.987 292.113 156.719 291.257 157.65 290.669C158.581 290.08 159.642 289.786 160.833 289.786C162.024 289.786 163.085 290.08 164.015 290.669C164.946 291.257 165.672 292.113 166.192 293.235C166.726 294.344 166.993 295.672 166.993 297.219C166.993 298.766 166.726 300.1 166.192 301.223C165.672 302.331 164.946 303.18 164.015 303.769C163.085 304.357 162.024 304.652 160.833 304.652ZM160.833 301.839C161.709 301.839 162.393 301.462 162.886 300.709C163.393 299.956 163.646 298.793 163.646 297.219C163.646 295.645 163.393 294.481 162.886 293.728C162.393 292.975 161.709 292.599 160.833 292.599C159.97 292.599 159.286 292.975 158.78 293.728C158.287 294.481 158.04 295.645 158.04 297.219C158.04 298.793 158.287 299.956 158.78 300.709C159.286 301.462 159.97 301.839 160.833 301.839Z" fill="black"/>
<path d="M313.057 798.184C311.88 798.184 310.819 797.944 309.875 797.465C308.944 796.972 308.211 796.295 307.678 795.432C307.157 794.57 306.897 793.591 306.897 792.496C306.897 791.401 307.157 790.422 307.678 789.56C308.211 788.698 308.944 788.027 309.875 787.548C310.819 787.055 311.88 786.809 313.057 786.809C314.221 786.809 315.234 787.055 316.096 787.548C316.972 788.027 317.609 788.718 318.006 789.622L315.521 790.956C314.946 789.943 314.118 789.437 313.037 789.437C312.202 789.437 311.51 789.711 310.963 790.258C310.415 790.806 310.141 791.552 310.141 792.496C310.141 793.441 310.415 794.187 310.963 794.734C311.51 795.282 312.202 795.556 313.037 795.556C314.132 795.556 314.96 795.049 315.521 794.036L318.006 795.391C317.609 796.267 316.972 796.952 316.096 797.445C315.234 797.937 314.221 798.184 313.057 798.184ZM330.937 786.973V798.02H327.734V789.601H323.135V798.02H319.952V786.973H330.937ZM338.299 786.809C340.011 786.809 341.325 787.219 342.242 788.041C343.159 788.848 343.617 790.073 343.617 791.716V798.02H340.62V796.644C340.017 797.67 338.895 798.184 337.252 798.184C336.404 798.184 335.664 798.04 335.035 797.753C334.419 797.465 333.946 797.068 333.618 796.562C333.289 796.055 333.125 795.48 333.125 794.837C333.125 793.81 333.508 793.003 334.275 792.414C335.055 791.825 336.253 791.531 337.868 791.531H340.414C340.414 790.833 340.202 790.299 339.778 789.93C339.353 789.546 338.717 789.355 337.868 789.355C337.28 789.355 336.698 789.451 336.123 789.642C335.562 789.82 335.083 790.066 334.686 790.381L333.536 788.143C334.138 787.719 334.857 787.39 335.692 787.158C336.54 786.925 337.41 786.809 338.299 786.809ZM338.053 796.028C338.601 796.028 339.087 795.905 339.511 795.658C339.935 795.398 340.236 795.022 340.414 794.529V793.4H338.217C336.903 793.4 336.246 793.831 336.246 794.693C336.246 795.104 336.404 795.432 336.718 795.679C337.047 795.911 337.492 796.028 338.053 796.028ZM356.995 786.973V798.02H353.792V789.601H350.301L350.199 791.552C350.144 793.003 350.007 794.207 349.788 795.165C349.569 796.124 349.213 796.877 348.72 797.424C348.227 797.972 347.543 798.245 346.667 798.245C346.201 798.245 345.647 798.163 345.004 797.999L345.168 795.371C345.387 795.398 345.544 795.412 345.64 795.412C346.119 795.412 346.475 795.241 346.708 794.899C346.954 794.543 347.119 794.098 347.201 793.564C347.283 793.016 347.344 792.298 347.386 791.408L347.55 786.973H356.995ZM366.05 790.505C367.487 790.518 368.589 790.847 369.356 791.49C370.123 792.12 370.506 793.016 370.506 794.18C370.506 795.398 370.075 796.35 369.212 797.034C368.364 797.705 367.166 798.04 365.619 798.04L360.075 798.02V786.973H363.258V790.505H366.05ZM365.332 795.761C365.948 795.775 366.42 795.645 366.748 795.371C367.077 795.097 367.241 794.686 367.241 794.139C367.241 793.605 367.077 793.215 366.748 792.968C366.433 792.722 365.961 792.592 365.332 792.578L363.258 792.558V795.761H365.332ZM372.507 786.973H375.69V791.285H380.494V786.973H383.697V798.02H380.494V793.892H375.69V798.02H372.507V786.973ZM396.578 786.973V798.02H393.724V794.857H391.363L389.269 798.02H385.86L388.386 794.406C387.619 794.105 387.031 793.673 386.62 793.112C386.223 792.537 386.025 791.846 386.025 791.038C386.025 789.738 386.49 788.739 387.421 788.041C388.365 787.329 389.659 786.973 391.302 786.973H396.578ZM391.363 789.581C390.679 789.581 390.159 789.704 389.803 789.95C389.46 790.197 389.289 790.594 389.289 791.141C389.289 791.689 389.454 792.092 389.782 792.352C390.124 792.599 390.638 792.722 391.322 792.722H393.724V789.581H391.363Z" fill="black"/>
<path d="M332.778 812.932V827.305H329.452V815.601H326.577V812.932H332.778ZM341.989 818.784C343.249 818.989 344.214 819.462 344.884 820.201C345.555 820.926 345.891 821.83 345.891 822.911C345.891 823.746 345.671 824.52 345.233 825.231C344.795 825.929 344.125 826.491 343.221 826.915C342.331 827.339 341.236 827.552 339.936 827.552C338.923 827.552 337.924 827.422 336.938 827.161C335.966 826.888 335.138 826.504 334.454 826.012L335.747 823.466C336.295 823.876 336.925 824.198 337.636 824.431C338.362 824.65 339.101 824.759 339.854 824.759C340.689 824.759 341.346 824.602 341.825 824.287C342.304 823.958 342.544 823.5 342.544 822.911C342.544 821.734 341.647 821.145 339.854 821.145H338.334V818.948L341.291 815.601H335.172V812.932H345.233V815.088L341.989 818.784ZM349.315 827.469C348.754 827.469 348.282 827.278 347.899 826.895C347.515 826.511 347.324 826.032 347.324 825.457C347.324 824.869 347.515 824.396 347.899 824.04C348.282 823.671 348.754 823.486 349.315 823.486C349.877 823.486 350.349 823.671 350.732 824.04C351.115 824.396 351.307 824.869 351.307 825.457C351.307 826.032 351.115 826.511 350.732 826.895C350.349 827.278 349.877 827.469 349.315 827.469ZM363.731 812.932V815.088L358.393 827.305H354.779L359.933 815.643H355.169V817.983H352.212V812.932H363.731ZM370.971 827.552C369.78 827.552 368.719 827.257 367.788 826.669C366.857 826.08 366.125 825.231 365.591 824.123C365.071 823 364.811 821.665 364.811 820.119C364.811 818.572 365.071 817.244 365.591 816.135C366.125 815.013 366.857 814.157 367.788 813.569C368.719 812.98 369.78 812.686 370.971 812.686C372.162 812.686 373.223 812.98 374.153 813.569C375.084 814.157 375.81 815.013 376.33 816.135C376.864 817.244 377.131 818.572 377.131 820.119C377.131 821.665 376.864 823 376.33 824.123C375.81 825.231 375.084 826.08 374.153 826.669C373.223 827.257 372.162 827.552 370.971 827.552ZM370.971 824.739C371.847 824.739 372.531 824.362 373.024 823.609C373.531 822.856 373.784 821.693 373.784 820.119C373.784 818.545 373.531 817.381 373.024 816.628C372.531 815.875 371.847 815.499 370.971 815.499C370.108 815.499 369.424 815.875 368.918 816.628C368.425 817.381 368.178 818.545 368.178 820.119C368.178 821.693 368.425 822.856 368.918 823.609C369.424 824.362 370.108 824.739 370.971 824.739Z" fill="black"/>
<path d="M108.757 768.484C107.58 768.484 106.519 768.244 105.574 767.765C104.643 767.272 103.911 766.595 103.377 765.732C102.857 764.87 102.597 763.891 102.597 762.796C102.597 761.701 102.857 760.722 103.377 759.86C103.911 758.997 104.643 758.327 105.574 757.848C106.519 757.355 107.58 757.108 108.757 757.108C109.92 757.108 110.933 757.355 111.796 757.848C112.672 758.327 113.308 759.018 113.705 759.921L111.221 761.256C110.646 760.243 109.818 759.737 108.736 759.737C107.901 759.737 107.21 760.01 106.662 760.558C106.115 761.105 105.841 761.852 105.841 762.796C105.841 763.741 106.115 764.487 106.662 765.034C107.21 765.582 107.901 765.855 108.736 765.855C109.831 765.855 110.66 765.349 111.221 764.336L113.705 765.691C113.308 766.567 112.672 767.252 111.796 767.744C110.933 768.237 109.92 768.484 108.757 768.484ZM126.637 757.273V768.319H123.434V759.901H118.834V768.319H115.652V757.273H126.637ZM133.999 757.108C135.71 757.108 137.024 757.519 137.941 758.34C138.859 759.148 139.317 760.373 139.317 762.016V768.319H136.319V766.944C135.717 767.97 134.595 768.484 132.952 768.484C132.103 768.484 131.364 768.34 130.734 768.052C130.118 767.765 129.646 767.368 129.318 766.862C128.989 766.355 128.825 765.78 128.825 765.137C128.825 764.11 129.208 763.302 129.975 762.714C130.755 762.125 131.953 761.831 133.568 761.831H136.114C136.114 761.133 135.902 760.599 135.478 760.229C135.053 759.846 134.417 759.654 133.568 759.654C132.979 759.654 132.398 759.75 131.823 759.942C131.261 760.12 130.782 760.366 130.385 760.681L129.236 758.443C129.838 758.019 130.556 757.69 131.391 757.457C132.24 757.225 133.109 757.108 133.999 757.108ZM133.753 766.328C134.3 766.328 134.786 766.204 135.211 765.958C135.635 765.698 135.936 765.322 136.114 764.829V763.699H133.917C132.603 763.699 131.946 764.131 131.946 764.993C131.946 765.404 132.103 765.732 132.418 765.979C132.747 766.211 133.192 766.328 133.753 766.328ZM152.695 757.273V768.319H149.491V759.901H146.001L145.898 761.852C145.843 763.302 145.707 764.507 145.488 765.465C145.269 766.423 144.913 767.176 144.42 767.724C143.927 768.271 143.243 768.545 142.367 768.545C141.901 768.545 141.347 768.463 140.703 768.299L140.868 765.671C141.087 765.698 141.244 765.712 141.34 765.712C141.819 765.712 142.175 765.541 142.408 765.198C142.654 764.842 142.818 764.398 142.9 763.864C142.983 763.316 143.044 762.598 143.085 761.708L143.25 757.273H152.695ZM161.75 760.804C163.187 760.818 164.289 761.147 165.056 761.79C165.822 762.42 166.205 763.316 166.205 764.48C166.205 765.698 165.774 766.649 164.912 767.334C164.063 768.004 162.865 768.34 161.319 768.34L155.775 768.319V757.273H158.957V760.804H161.75ZM161.031 766.061C161.647 766.074 162.119 765.944 162.448 765.671C162.777 765.397 162.941 764.986 162.941 764.439C162.941 763.905 162.777 763.515 162.448 763.268C162.133 763.022 161.661 762.892 161.031 762.878L158.957 762.858V766.061H161.031ZM168.207 757.273H171.389V761.585H176.194V757.273H179.397V768.319H176.194V764.192H171.389V768.319H168.207V757.273ZM192.278 757.273V768.319H189.424V765.157H187.063L184.968 768.319H181.56L184.086 764.706C183.319 764.404 182.73 763.973 182.32 763.412C181.923 762.837 181.724 762.146 181.724 761.338C181.724 760.038 182.19 759.039 183.121 758.34C184.065 757.629 185.359 757.273 187.001 757.273H192.278ZM187.063 759.88C186.378 759.88 185.858 760.004 185.502 760.25C185.16 760.496 184.989 760.893 184.989 761.441C184.989 761.988 185.153 762.392 185.482 762.652C185.824 762.899 186.337 763.022 187.022 763.022H189.424V759.88H187.063Z" fill="#20201F"/>
<path d="M133.334 794.895V797.605H122.472V795.45L128.016 790.214C128.604 789.652 129.001 789.173 129.207 788.776C129.412 788.366 129.515 787.962 129.515 787.565C129.515 786.99 129.316 786.552 128.919 786.251C128.536 785.936 127.968 785.779 127.215 785.779C126.585 785.779 126.017 785.902 125.511 786.148C125.004 786.381 124.58 786.737 124.238 787.216L121.815 785.655C122.376 784.82 123.15 784.17 124.135 783.705C125.121 783.226 126.25 782.986 127.523 782.986C128.591 782.986 129.522 783.164 130.316 783.52C131.123 783.862 131.746 784.355 132.184 784.998C132.636 785.628 132.862 786.374 132.862 787.236C132.862 788.017 132.697 788.749 132.369 789.433C132.04 790.118 131.404 790.898 130.459 791.774L127.153 794.895H133.334ZM140.826 797.852C139.635 797.852 138.574 797.558 137.644 796.969C136.713 796.38 135.98 795.532 135.447 794.423C134.926 793.3 134.666 791.966 134.666 790.419C134.666 788.872 134.926 787.544 135.447 786.436C135.98 785.313 136.713 784.458 137.644 783.869C138.574 783.28 139.635 782.986 140.826 782.986C142.017 782.986 143.078 783.28 144.009 783.869C144.939 784.458 145.665 785.313 146.185 786.436C146.719 787.544 146.986 788.872 146.986 790.419C146.986 791.966 146.719 793.3 146.185 794.423C145.665 795.532 144.939 796.38 144.009 796.969C143.078 797.558 142.017 797.852 140.826 797.852ZM140.826 795.039C141.702 795.039 142.387 794.662 142.879 793.91C143.386 793.157 143.639 791.993 143.639 790.419C143.639 788.845 143.386 787.681 142.879 786.928C142.387 786.176 141.702 785.799 140.826 785.799C139.964 785.799 139.279 786.176 138.773 786.928C138.28 787.681 138.034 788.845 138.034 790.419C138.034 791.993 138.28 793.157 138.773 793.91C139.279 794.662 139.964 795.039 140.826 795.039ZM150.23 797.77C149.669 797.77 149.197 797.578 148.814 797.195C148.43 796.812 148.239 796.332 148.239 795.758C148.239 795.169 148.43 794.697 148.814 794.341C149.197 793.971 149.669 793.786 150.23 793.786C150.792 793.786 151.264 793.971 151.647 794.341C152.03 794.697 152.222 795.169 152.222 795.758C152.222 796.332 152.03 796.812 151.647 797.195C151.264 797.578 150.792 797.77 150.23 797.77ZM158.938 783.233V797.605H155.612V785.902H152.737V783.233H158.938ZM166.486 782.986C168.498 782.986 170.073 783.602 171.209 784.834C172.345 786.052 172.913 787.811 172.913 790.111C172.913 791.74 172.605 793.136 171.989 794.3C171.387 795.463 170.531 796.346 169.422 796.948C168.314 797.551 167.034 797.852 165.583 797.852C164.816 797.852 164.084 797.77 163.386 797.605C162.688 797.428 162.092 797.181 161.599 796.866L162.831 794.423C163.529 794.902 164.426 795.142 165.521 795.142C166.739 795.142 167.704 794.786 168.416 794.074C169.128 793.348 169.511 792.308 169.566 790.953C168.704 791.815 167.513 792.246 165.993 792.246C165.076 792.246 164.241 792.062 163.488 791.692C162.736 791.322 162.14 790.802 161.702 790.132C161.264 789.447 161.045 788.66 161.045 787.77C161.045 786.812 161.285 785.97 161.764 785.245C162.243 784.519 162.893 783.965 163.714 783.582C164.549 783.185 165.473 782.986 166.486 782.986ZM166.733 789.762C167.458 789.762 168.047 789.563 168.498 789.166C168.964 788.756 169.196 788.236 169.196 787.606C169.196 786.976 168.971 786.463 168.519 786.066C168.081 785.669 167.472 785.471 166.691 785.471C165.98 785.471 165.398 785.662 164.946 786.046C164.508 786.429 164.289 786.949 164.289 787.606C164.289 788.263 164.508 788.79 164.946 789.187C165.398 789.57 165.993 789.762 166.733 789.762Z" fill="#20201F"/>
<path d="M318.118 259.148H316.455V263.337H313.252V252.29H316.455V256.582H318.18L321.178 252.29H324.586L320.726 257.588L324.853 263.337H321.075L318.118 259.148ZM336.871 252.29L331.882 264.014C331.375 265.288 330.746 266.184 329.993 266.704C329.254 267.224 328.357 267.485 327.303 267.485C326.728 267.485 326.16 267.396 325.599 267.218C325.038 267.04 324.579 266.793 324.223 266.478L325.393 264.199C325.64 264.418 325.921 264.589 326.235 264.713C326.564 264.836 326.886 264.897 327.2 264.897C327.638 264.897 327.994 264.788 328.268 264.569C328.542 264.364 328.788 264.014 329.007 263.522L329.048 263.419L324.264 252.29H327.57L330.67 259.785L333.791 252.29H336.871ZM344.735 263.337L342.312 259.949L339.807 263.337H336.317L340.567 257.773L336.46 252.29H340.054L342.394 255.514L344.797 252.29H348.205L344.099 257.69L348.369 263.337H344.735ZM349.946 252.29H353.129V256.602H357.933V252.29H361.137V263.337H357.933V259.21H353.129V263.337H349.946V252.29ZM374.018 252.29V263.337H371.164V260.175H368.802L366.708 263.337H363.299L365.825 259.723C365.058 259.422 364.47 258.991 364.059 258.43C363.662 257.855 363.464 257.163 363.464 256.356C363.464 255.055 363.929 254.056 364.86 253.358C365.804 252.646 367.098 252.29 368.741 252.29H374.018ZM368.802 254.898C368.118 254.898 367.598 255.021 367.242 255.268C366.9 255.514 366.728 255.911 366.728 256.458C366.728 257.006 366.893 257.41 367.221 257.67C367.563 257.916 368.077 258.039 368.761 258.039H371.164V254.898H368.802Z" fill="black"/>
<path d="M324.247 278.25V292.623H320.921V280.919H318.046V278.25H324.247ZM333.458 284.102C334.717 284.307 335.682 284.78 336.353 285.519C337.024 286.244 337.359 287.148 337.359 288.229C337.359 289.064 337.14 289.837 336.702 290.549C336.264 291.247 335.593 291.809 334.69 292.233C333.8 292.657 332.705 292.869 331.405 292.869C330.392 292.869 329.393 292.739 328.407 292.479C327.435 292.206 326.607 291.822 325.922 291.329L327.216 288.783C327.764 289.194 328.393 289.516 329.105 289.748C329.831 289.967 330.57 290.077 331.323 290.077C332.158 290.077 332.815 289.92 333.294 289.605C333.773 289.276 334.012 288.818 334.012 288.229C334.012 287.052 333.116 286.463 331.323 286.463H329.803V284.266L332.76 280.919H326.641V278.25H336.702V280.406L333.458 284.102ZM340.784 292.787C340.223 292.787 339.751 292.596 339.367 292.212C338.984 291.829 338.792 291.35 338.792 290.775C338.792 290.186 338.984 289.714 339.367 289.358C339.751 288.989 340.223 288.804 340.784 288.804C341.345 288.804 341.818 288.989 342.201 289.358C342.584 289.714 342.776 290.186 342.776 290.775C342.776 291.35 342.584 291.829 342.201 292.212C341.818 292.596 341.345 292.787 340.784 292.787ZM350.168 292.869C348.977 292.869 347.916 292.575 346.985 291.987C346.055 291.398 345.322 290.549 344.788 289.44C344.268 288.318 344.008 286.983 344.008 285.437C344.008 283.89 344.268 282.562 344.788 281.453C345.322 280.331 346.055 279.475 346.985 278.887C347.916 278.298 348.977 278.004 350.168 278.004C351.359 278.004 352.42 278.298 353.351 278.887C354.281 279.475 355.007 280.331 355.527 281.453C356.061 282.562 356.328 283.89 356.328 285.437C356.328 286.983 356.061 288.318 355.527 289.44C355.007 290.549 354.281 291.398 353.351 291.987C352.42 292.575 351.359 292.869 350.168 292.869ZM350.168 290.056C351.044 290.056 351.729 289.68 352.221 288.927C352.728 288.174 352.981 287.011 352.981 285.437C352.981 283.862 352.728 282.699 352.221 281.946C351.729 281.193 351.044 280.817 350.168 280.817C349.306 280.817 348.621 281.193 348.115 281.946C347.622 282.699 347.376 283.862 347.376 285.437C347.376 287.011 347.622 288.174 348.115 288.927C348.621 289.68 349.306 290.056 350.168 290.056ZM362.872 283.65C364.898 283.65 366.39 284.054 367.348 284.862C368.32 285.669 368.806 286.751 368.806 288.106C368.806 288.982 368.587 289.783 368.149 290.508C367.711 291.22 367.04 291.795 366.137 292.233C365.247 292.657 364.145 292.869 362.831 292.869C361.818 292.869 360.819 292.739 359.833 292.479C358.861 292.206 358.033 291.822 357.349 291.329L358.663 288.783C359.21 289.194 359.84 289.516 360.552 289.748C361.264 289.967 361.996 290.077 362.749 290.077C363.584 290.077 364.241 289.913 364.72 289.584C365.199 289.256 365.439 288.797 365.439 288.208C365.439 287.593 365.185 287.127 364.679 286.812C364.186 286.497 363.324 286.34 362.092 286.34H358.416L359.155 278.25H367.923V280.919H361.927L361.702 283.65H362.872Z" fill="black"/>
<path d="M101.201 468.152L98.1954 464.192L95.1714 468.152H93.7314L97.4754 463.292L93.9114 458.684H95.3514L98.1954 462.392L101.039 458.684H102.443L98.8794 463.292L102.659 468.152H101.201ZM108.326 468.242C107.414 468.242 106.592 468.038 105.86 467.63C105.128 467.21 104.552 466.634 104.132 465.902C103.712 465.17 103.502 464.342 103.502 463.418C103.502 462.494 103.712 461.666 104.132 460.934C104.552 460.202 105.128 459.632 105.86 459.224C106.592 458.816 107.414 458.612 108.326 458.612C109.238 458.612 110.06 458.816 110.792 459.224C111.524 459.632 112.094 460.202 112.502 460.934C112.922 461.666 113.132 462.494 113.132 463.418C113.132 464.342 112.922 465.17 112.502 465.902C112.094 466.634 111.524 467.21 110.792 467.63C110.06 468.038 109.238 468.242 108.326 468.242ZM108.326 467.108C108.998 467.108 109.598 466.958 110.126 466.658C110.666 466.346 111.086 465.908 111.386 465.344C111.686 464.78 111.836 464.138 111.836 463.418C111.836 462.698 111.686 462.056 111.386 461.492C111.086 460.928 110.666 460.496 110.126 460.196C109.598 459.884 108.998 459.728 108.326 459.728C107.654 459.728 107.048 459.884 106.508 460.196C105.98 460.496 105.56 460.928 105.248 461.492C104.948 462.056 104.798 462.698 104.798 463.418C104.798 464.138 104.948 464.78 105.248 465.344C105.56 465.908 105.98 466.346 106.508 466.658C107.048 466.958 107.654 467.108 108.326 467.108ZM123.551 458.684V468.152H122.273V459.818H117.737L117.611 462.158C117.515 464.126 117.287 465.638 116.927 466.694C116.567 467.75 115.925 468.278 115.001 468.278C114.749 468.278 114.443 468.23 114.083 468.134L114.173 467.036C114.389 467.084 114.539 467.108 114.623 467.108C115.115 467.108 115.487 466.88 115.739 466.424C115.991 465.968 116.159 465.404 116.243 464.732C116.327 464.06 116.399 463.172 116.459 462.068L116.621 458.684H123.551ZM134.924 458.684V468.152H133.646V459.818H129.11L128.984 462.158C128.888 464.126 128.66 465.638 128.3 466.694C127.94 467.75 127.298 468.278 126.374 468.278C126.122 468.278 125.816 468.23 125.456 468.134L125.546 467.036C125.762 467.084 125.912 467.108 125.996 467.108C126.488 467.108 126.86 466.88 127.112 466.424C127.364 465.968 127.532 465.404 127.616 464.732C127.7 464.06 127.772 463.172 127.832 462.068L127.994 458.684H134.924Z" fill="black"/>
<path d="M98.8709 484.838V497.438H97.5749V485.99H94.6049V484.838H98.8709ZM106.167 490.238C107.487 490.31 108.489 490.67 109.173 491.318C109.869 491.954 110.217 492.788 110.217 493.82C110.217 494.54 110.043 495.182 109.695 495.746C109.347 496.298 108.831 496.736 108.147 497.06C107.463 497.384 106.629 497.546 105.645 497.546C104.733 497.546 103.869 497.402 103.053 497.114C102.249 496.814 101.601 496.418 101.109 495.926L101.739 494.9C102.159 495.332 102.717 495.686 103.413 495.962C104.109 496.226 104.853 496.358 105.645 496.358C106.677 496.358 107.475 496.136 108.039 495.692C108.603 495.236 108.885 494.612 108.885 493.82C108.885 493.04 108.603 492.428 108.039 491.984C107.475 491.54 106.623 491.318 105.483 491.318H104.583V490.364L108.075 485.99H101.631V484.838H109.731V485.756L106.167 490.238ZM113.015 497.528C112.751 497.528 112.523 497.432 112.331 497.24C112.151 497.048 112.061 496.814 112.061 496.538C112.061 496.262 112.151 496.034 112.331 495.854C112.523 495.662 112.751 495.566 113.015 495.566C113.279 495.566 113.507 495.662 113.699 495.854C113.891 496.034 113.987 496.262 113.987 496.538C113.987 496.814 113.891 497.048 113.699 497.24C113.507 497.432 113.279 497.528 113.015 497.528ZM120.884 489.896C121.712 489.896 122.444 490.052 123.08 490.364C123.728 490.676 124.232 491.12 124.592 491.696C124.952 492.26 125.132 492.92 125.132 493.676C125.132 494.444 124.946 495.122 124.574 495.71C124.202 496.298 123.686 496.754 123.026 497.078C122.378 497.39 121.646 497.546 120.83 497.546C119.162 497.546 117.884 497 116.996 495.908C116.108 494.804 115.664 493.25 115.664 491.246C115.664 489.842 115.904 488.654 116.384 487.682C116.864 486.71 117.536 485.978 118.4 485.486C119.264 484.982 120.272 484.73 121.424 484.73C122.672 484.73 123.668 484.958 124.412 485.414L123.89 486.458C123.29 486.062 122.474 485.864 121.442 485.864C120.05 485.864 118.958 486.308 118.166 487.196C117.374 488.072 116.978 489.35 116.978 491.03C116.978 491.33 116.996 491.672 117.032 492.056C117.344 491.372 117.842 490.844 118.526 490.472C119.21 490.088 119.996 489.896 120.884 489.896ZM120.776 496.448C121.688 496.448 122.426 496.202 122.99 495.71C123.566 495.206 123.854 494.54 123.854 493.712C123.854 492.884 123.566 492.224 122.99 491.732C122.426 491.24 121.658 490.994 120.686 490.994C120.05 490.994 119.486 491.114 118.994 491.354C118.514 491.594 118.136 491.924 117.86 492.344C117.584 492.764 117.446 493.232 117.446 493.748C117.446 494.228 117.572 494.672 117.824 495.08C118.088 495.488 118.472 495.818 118.976 496.07C119.48 496.322 120.08 496.448 120.776 496.448ZM135.237 496.286V497.438H126.399V496.52L131.637 491.39C132.297 490.742 132.741 490.184 132.969 489.716C133.209 489.236 133.329 488.756 133.329 488.276C133.329 487.532 133.071 486.956 132.555 486.548C132.051 486.128 131.325 485.918 130.377 485.918C128.901 485.918 127.755 486.386 126.939 487.322L126.021 486.53C126.513 485.954 127.137 485.51 127.893 485.198C128.661 484.886 129.525 484.73 130.485 484.73C131.769 484.73 132.783 485.036 133.527 485.648C134.283 486.248 134.661 487.076 134.661 488.132C134.661 488.78 134.517 489.404 134.229 490.004C133.941 490.604 133.395 491.294 132.591 492.074L128.307 496.286H135.237Z" fill="black"/>
<path d="M334.558 107.823V117.291H333.28V108.957H328.744L328.618 111.297C328.522 113.265 328.294 114.777 327.934 115.833C327.574 116.889 326.932 117.417 326.008 117.417C325.756 117.417 325.45 117.369 325.09 117.273L325.18 116.175C325.396 116.223 325.546 116.247 325.63 116.247C326.122 116.247 326.494 116.019 326.746 115.563C326.998 115.107 327.166 114.543 327.25 113.871C327.334 113.199 327.406 112.311 327.466 111.207L327.628 107.823H334.558ZM342.097 117.381C341.185 117.381 340.363 117.177 339.631 116.769C338.899 116.349 338.323 115.773 337.903 115.041C337.483 114.309 337.273 113.481 337.273 112.557C337.273 111.633 337.483 110.805 337.903 110.073C338.323 109.341 338.899 108.771 339.631 108.363C340.363 107.955 341.185 107.751 342.097 107.751C343.009 107.751 343.831 107.955 344.563 108.363C345.295 108.771 345.865 109.341 346.273 110.073C346.693 110.805 346.903 111.633 346.903 112.557C346.903 113.481 346.693 114.309 346.273 115.041C345.865 115.773 345.295 116.349 344.563 116.769C343.831 117.177 343.009 117.381 342.097 117.381ZM342.097 116.247C342.769 116.247 343.369 116.097 343.897 115.797C344.437 115.485 344.857 115.047 345.157 114.483C345.457 113.919 345.607 113.277 345.607 112.557C345.607 111.837 345.457 111.195 345.157 110.631C344.857 110.067 344.437 109.635 343.897 109.335C343.369 109.023 342.769 108.867 342.097 108.867C341.425 108.867 340.819 109.023 340.279 109.335C339.751 109.635 339.331 110.067 339.019 110.631C338.719 111.195 338.569 111.837 338.569 112.557C338.569 113.277 338.719 113.919 339.019 114.483C339.331 115.047 339.751 115.485 340.279 115.797C340.819 116.097 341.425 116.247 342.097 116.247ZM358.816 116.175V119.577H357.61V117.291H349.132V119.577H347.926V116.175H348.466C349.102 116.139 349.534 115.671 349.762 114.771C349.99 113.871 350.146 112.611 350.23 110.991L350.356 107.823H357.34V116.175H358.816ZM351.4 111.063C351.34 112.407 351.226 113.517 351.058 114.393C350.89 115.257 350.59 115.851 350.158 116.175H356.062V108.957H351.508L351.4 111.063ZM369.605 113.079H367.553V117.291H366.275V113.079H364.223L361.325 117.291H359.795L363.197 112.413L360.065 107.823H361.451L364.223 111.981H366.275V107.823H367.553V111.981H369.605L372.395 107.823H373.781L370.649 112.431L374.051 117.291H372.521L369.605 113.079ZM376.178 107.823H377.456V115.347L383.774 107.823H384.908V117.291H383.63V109.767L377.33 117.291H376.178V107.823ZM395.843 107.823V117.291H394.673V114.159H391.703H391.343L389.147 117.291H387.761L390.119 113.979C389.387 113.775 388.823 113.427 388.427 112.935C388.031 112.443 387.833 111.819 387.833 111.063C387.833 110.007 388.193 109.203 388.913 108.651C389.633 108.099 390.617 107.823 391.865 107.823H395.843ZM389.129 111.099C389.129 112.503 390.023 113.205 391.811 113.205H394.673V108.957H391.901C390.053 108.957 389.129 109.671 389.129 111.099Z" fill="#20201F"/>
<path d="M353.646 143.265H351.126V146.577H349.83V143.265H342.72V142.329L349.398 133.977H350.838L344.394 142.113H349.866V139.197H351.126V142.113H353.646V143.265ZM356.16 146.667C355.896 146.667 355.668 146.571 355.476 146.379C355.296 146.187 355.206 145.953 355.206 145.677C355.206 145.401 355.296 145.173 355.476 144.993C355.668 144.801 355.896 144.705 356.16 144.705C356.424 144.705 356.652 144.801 356.844 144.993C357.036 145.173 357.132 145.401 357.132 145.677C357.132 145.953 357.036 146.187 356.844 146.379C356.652 146.571 356.424 146.667 356.16 146.667ZM363.831 146.685C362.859 146.685 361.989 146.427 361.221 145.911C360.465 145.395 359.871 144.657 359.439 143.697C359.019 142.725 358.809 141.585 358.809 140.277C358.809 138.969 359.019 137.835 359.439 136.875C359.871 135.903 360.465 135.159 361.221 134.643C361.989 134.127 362.859 133.869 363.831 133.869C364.803 133.869 365.667 134.127 366.423 134.643C367.191 135.159 367.791 135.903 368.223 136.875C368.655 137.835 368.871 138.969 368.871 140.277C368.871 141.585 368.655 142.725 368.223 143.697C367.791 144.657 367.191 145.395 366.423 145.911C365.667 146.427 364.803 146.685 363.831 146.685ZM363.831 145.497C364.563 145.497 365.205 145.293 365.757 144.885C366.321 144.477 366.759 143.883 367.071 143.103C367.383 142.323 367.539 141.381 367.539 140.277C367.539 139.173 367.383 138.231 367.071 137.451C366.759 136.671 366.321 136.077 365.757 135.669C365.205 135.261 364.563 135.057 363.831 135.057C363.099 135.057 362.451 135.261 361.887 135.669C361.335 136.077 360.903 136.671 360.591 137.451C360.279 138.231 360.123 139.173 360.123 140.277C360.123 141.381 360.279 142.323 360.591 143.103C360.903 143.883 361.335 144.477 361.887 144.885C362.451 145.293 363.099 145.497 363.831 145.497ZM374.04 139.143C375.864 139.143 377.19 139.473 378.018 140.133C378.858 140.781 379.278 141.693 379.278 142.869C379.278 143.601 379.104 144.255 378.756 144.831C378.42 145.407 377.91 145.863 377.226 146.199C376.542 146.523 375.702 146.685 374.706 146.685C373.806 146.685 372.948 146.541 372.132 146.253C371.328 145.953 370.679 145.557 370.187 145.065L370.817 144.039C371.238 144.471 371.79 144.825 372.474 145.101C373.158 145.365 373.896 145.497 374.688 145.497C375.732 145.497 376.536 145.263 377.1 144.795C377.676 144.327 377.964 143.703 377.964 142.923C377.964 142.059 377.64 141.405 376.992 140.961C376.356 140.517 375.276 140.295 373.752 140.295H371.07L371.718 133.977H378.612V135.129H372.852L372.42 139.143H374.04Z" fill="#20201F"/>
<path d="M355.496 617.889H352.976V621.201H351.68V617.889H344.57V616.953L351.248 608.601H352.688L346.244 616.737H351.716V613.821H352.976V616.737H355.496V617.889ZM358.01 621.291C357.746 621.291 357.518 621.195 357.326 621.003C357.146 620.811 357.056 620.577 357.056 620.301C357.056 620.025 357.146 619.797 357.326 619.617C357.518 619.425 357.746 619.329 358.01 619.329C358.274 619.329 358.502 619.425 358.694 619.617C358.886 619.797 358.982 620.025 358.982 620.301C358.982 620.577 358.886 620.811 358.694 621.003C358.502 621.195 358.274 621.291 358.01 621.291ZM371.334 617.889H368.814V621.201H367.518V617.889H360.408V616.953L367.086 608.601H368.526L362.082 616.737H367.554V613.821H368.814V616.737H371.334V617.889ZM376.308 608.493C377.976 608.493 379.254 609.045 380.142 610.149C381.03 611.241 381.474 612.789 381.474 614.793C381.474 616.197 381.234 617.385 380.754 618.357C380.274 619.329 379.602 620.067 378.738 620.571C377.874 621.063 376.866 621.309 375.714 621.309C374.466 621.309 373.47 621.081 372.726 620.625L373.248 619.581C373.848 619.977 374.664 620.175 375.696 620.175C377.088 620.175 378.18 619.737 378.972 618.861C379.764 617.973 380.16 616.689 380.16 615.009C380.16 614.697 380.142 614.355 380.106 613.983C379.794 614.667 379.296 615.201 378.612 615.585C377.928 615.957 377.142 616.143 376.254 616.143C375.426 616.143 374.688 615.987 374.04 615.675C373.404 615.363 372.906 614.925 372.546 614.361C372.186 613.785 372.006 613.119 372.006 612.363C372.006 611.595 372.192 610.917 372.564 610.329C372.936 609.741 373.446 609.291 374.094 608.979C374.754 608.655 375.492 608.493 376.308 608.493ZM376.452 615.045C377.088 615.045 377.646 614.925 378.126 614.685C378.618 614.445 379.002 614.115 379.278 613.695C379.554 613.275 379.692 612.807 379.692 612.291C379.692 611.811 379.56 611.367 379.296 610.959C379.044 610.551 378.666 610.221 378.162 609.969C377.658 609.717 377.058 609.591 376.362 609.591C375.45 609.591 374.706 609.843 374.13 610.347C373.566 610.839 373.284 611.499 373.284 612.327C373.284 613.155 373.566 613.815 374.13 614.307C374.706 614.799 375.48 615.045 376.452 615.045Z" fill="black"/>
<path d="M360.399 504.225V505.377H351.561V504.459L356.799 499.329C357.459 498.681 357.903 498.123 358.131 497.655C358.371 497.175 358.491 496.695 358.491 496.215C358.491 495.471 358.233 494.895 357.717 494.487C357.213 494.067 356.487 493.857 355.539 493.857C354.063 493.857 352.917 494.325 352.101 495.261L351.183 494.469C351.675 493.893 352.299 493.449 353.055 493.137C353.823 492.825 354.687 492.669 355.647 492.669C356.931 492.669 357.945 492.975 358.689 493.587C359.445 494.187 359.823 495.015 359.823 496.071C359.823 496.719 359.679 497.343 359.391 497.943C359.103 498.543 358.557 499.233 357.753 500.013L353.469 504.225H360.399ZM363.174 505.467C362.91 505.467 362.682 505.371 362.49 505.179C362.31 504.987 362.22 504.753 362.22 504.477C362.22 504.201 362.31 503.973 362.49 503.793C362.682 503.601 362.91 503.505 363.174 503.505C363.438 503.505 363.666 503.601 363.858 503.793C364.05 503.973 364.146 504.201 364.146 504.477C364.146 504.753 364.05 504.987 363.858 505.179C363.666 505.371 363.438 505.467 363.174 505.467ZM369.328 497.943C371.152 497.943 372.478 498.273 373.306 498.933C374.146 499.581 374.566 500.493 374.566 501.669C374.566 502.401 374.392 503.055 374.044 503.631C373.708 504.207 373.198 504.663 372.514 504.999C371.83 505.323 370.99 505.485 369.994 505.485C369.094 505.485 368.236 505.341 367.42 505.053C366.616 504.753 365.968 504.357 365.476 503.865L366.106 502.839C366.526 503.271 367.078 503.625 367.762 503.901C368.446 504.165 369.184 504.297 369.976 504.297C371.02 504.297 371.824 504.063 372.388 503.595C372.964 503.127 373.252 502.503 373.252 501.723C373.252 500.859 372.928 500.205 372.28 499.761C371.644 499.317 370.564 499.095 369.04 499.095H366.358L367.006 492.777H373.9V493.929H368.14L367.708 497.943H369.328ZM386.921 502.065H384.401V505.377H383.105V502.065H375.995V501.129L382.673 492.777H384.113L377.669 500.913H383.141V497.997H384.401V500.913H386.921V502.065Z" fill="black"/>
</g>
<defs>
<clipPath id="clip0_2384_28734">
<rect width="434.773" height="959.388" fill="white" transform="translate(33 5)"/>
</clipPath>
</defs>
</svg>
