<svg width="500" height="950" fill="none" xmlns="http://www.w3.org/2000/svg"><path fill="#fff" d="M0 0h500v950H0z"/><g clip-path="url(#a)"><path fill-rule="evenodd" clip-rule="evenodd" d="M431.05 202.468H273.547V28h-33.324L34 45.498v876.21H465.185V504.896H431.05V202.468z" fill="#FFE900"/><path fill-rule="evenodd" clip-rule="evenodd" d="M450.209 504.896h14.975v416.813h-7.185v-79.054h-7.79V504.896z" fill="#ED9FA6"/><path fill-rule="evenodd" clip-rule="evenodd" d="M431.05 202.468H273.547V28h-33.324L34 45.498v876.21H465.185V504.896H431.05V202.468z" fill="#E4CDA1"/><path fill-rule="evenodd" clip-rule="evenodd" d="M450.209 504.896h14.975v416.813h-7.185v-79.054h-7.79V504.896z" fill="#FFF9D0"/><path d="M465.184 812.117h-14.975v14.967h14.975v-14.967zM279.534 812.117h-14.975v94.021h14.975v-94.021zM48.967 154.558H34v736.613h14.967V154.558zM273.547 28h-14.975v387.069h14.975V28zM465.184 504.896h-14.975v307.221h14.975V504.896z" fill="#20201F"/><path d="M465.184 504.896h-14.975v14.975h14.975v-14.975zM108.852 891.171H34v22.756h74.852v-22.756zM264.559 891.171h-29.943v22.756h29.943v-22.756zM312.47 812.117h-32.936v22.757h32.936v-22.757zM465.184 812.117h-44.917v22.757h44.917v-22.757zM431.05 217.439h-14.976v211.585h14.976V217.439zM431.032 202.468H273.547v14.971h157.485v-14.971zM258.572 131.801h-23.36v22.757h23.36v-22.757zM133.411 131.801H34v22.757h99.411v-22.757zM431.05 488.908h-14.976v38.744h14.976v-38.744z" fill="#20201F"/><path d="M450.209 504.896h-34.135v22.756h34.135v-22.756zM41.186 45.498H34v78.518h7.186V45.498z" fill="#20201F"/><path d="M133.411 124.015H34v8.019h99.411v-8.019zM258.572 124.015h-23.36v7.786h23.36v-7.786z" fill="#20201F"/><path d="M250.187 28h-7.186v96.015h7.186V28zM465.184 834.874h-44.917v7.781h44.917v-7.781zM465.184 842.655h-7.185v71.922h7.185v-71.922z" fill="#20201F"/><path d="M461.592 914.523H295.105v7.185h166.487v-7.185zM465.185 914.523h-3.593v7.185h3.593v-7.185zM312.47 834.874h-32.936v7.781h32.936v-7.781zM295.105 842.655h-7.186v71.867h7.186v-71.867zM295.105 914.523h-30.546v7.185h30.546v-7.185zM264.559 913.927h-33.531v7.782h33.531v-7.782zM112.449 913.927H34v7.782h78.449v-7.782zM258.572 28h-11.978v96.015h11.978V28z" fill="#20201F"/><path d="M290.708 838.567h-16.321v78.753h16.321v-78.753z" fill="#20201F"/><path d="M282.548 902.478h-22.769v14.842h22.769v-14.842z" fill="#20201F"/><path fill-rule="evenodd" clip-rule="evenodd" d="M34 45.498h7.74L243.001 28v7.414L41.74 52.697v71.318H34V45.498z" fill="#20201F"/><path d="M134.602 410.276H48.967v4.792h85.635v-4.792zM186.11 410.276h-51.508v4.792h51.508v-4.792z" fill="#20201F"/><path d="M194.529 410.276h-8.419v4.792h8.419v-4.792z" fill="#20201F"/><path d="M190.898 410.276h-4.788v55.076h4.788v-55.076zM258.572 410.276h-10.145v4.792h10.145v-4.792zM192.692 522.865H48.967v4.787h143.725v-4.787z" fill="#20201F"/><path d="M190.898 507.277h-4.788v20.375h4.788v-20.375zM269.355 522.865h-4.796v289.252h4.796V522.865z" fill="#20201F"/><path d="M284.458 522.865h-19.899v4.787h19.899v-4.787zM326.901 347.273h-4.788v62.404h4.788v-62.404z" fill="#20201F"/><path d="M416.074 347.321H319.4v4.799h96.674v-4.799zM277.476 347.198h-3.929v4.796h3.929v-4.796zM337.131 409.677h-15.018v4.788h15.018v-4.788zM416.074 409.677h-12.28v4.788h12.28v-4.788zM416.074 522.865h-77.71v4.787h77.71v-4.787zM231.028 917.856H112.441v3.852h118.587v-3.852zM234.617 910.092H108.851v3.851h125.766v-3.851zM234.617 891.187H108.851v3.851h125.766v-3.851zM187.311 124.038h-53.898v3.853h53.898v-3.853zM187.311 131.803h-53.9v3.852h53.9v-3.852zM187.311 150.708h-53.9v3.852h53.9v-3.852z" fill="#20201F"/><path d="M187.311 124.017h-2.827v30.543h2.827v-30.543zM372.353 838.785H312.47v3.852h59.883v-3.852zM372.354 831.021H312.47v3.851h59.884v-3.851zM372.354 812.115H312.47v3.852h59.884v-3.852z" fill="#20201F"/><path d="M372.355 812.116h-2.827v30.543h2.827v-30.543z" fill="#20201F"/><path fill-rule="evenodd" clip-rule="evenodd" d="M230.516 133.024a1.701 1.701 0 0 1 3.401 0v35.996a1.702 1.702 0 0 1-3.401 0v-35.996zM189.238 132.682a.85.85 0 0 1 1.701 0c0 9.797 4.052 18.669 10.599 25.088 6.552 6.424 15.609 10.4 25.61 10.4a.85.85 0 1 1 0 1.7c-10.46 0-19.936-4.162-26.799-10.89-6.864-6.73-11.111-16.029-11.111-26.298zM247.133 412.422a1.7 1.7 0 1 1-3.401 0v-35.996a1.702 1.702 0 0 1 3.401 0v35.996zM198.423 412.764a.85.85 0 1 1-1.7 0c0-10.29 4.827-19.601 12.628-26.334 7.77-6.706 18.494-10.854 30.324-10.854a.85.85 0 1 1 0 1.7c-11.415 0-21.745 3.99-29.215 10.436-7.435 6.418-12.037 15.276-12.037 25.052zM279.317 349.206a1.702 1.702 0 0 1 3.402 0v35.996a1.702 1.702 0 0 1-3.402 0v-35.996zM316.263 348.864a.85.85 0 1 1 1.7 0c0 10.243-3.636 19.526-9.513 26.251-5.904 6.756-14.071 10.937-23.09 10.937a.85.85 0 0 1 0-1.7c8.511 0 16.226-3.957 21.814-10.353 5.615-6.424 9.089-15.311 9.089-25.135zM187.808 466.735a1.702 1.702 0 0 1 0 3.402h-35.996a1.702 1.702 0 0 1 0-3.402h35.996zM188.15 503.681a.85.85 0 0 1 0 1.7c-10.243 0-19.526-3.636-26.251-9.513-6.756-5.904-10.938-14.071-10.938-23.09a.85.85 0 0 1 1.701 0c0 8.511 3.957 16.226 10.353 21.814 6.424 5.615 15.311 9.089 25.135 9.089zM193.961 524.728a1.701 1.701 0 0 1 3.401 0v35.996a1.702 1.702 0 0 1-3.401 0v-35.996zM227.877 524.386a.85.85 0 0 1 1.701 0c0 10.228-3.33 19.5-8.711 26.222-5.423 6.774-12.929 10.967-21.228 10.967a.851.851 0 1 1 0-1.701c7.762 0 14.803-3.946 19.907-10.322 5.146-6.429 8.331-15.327 8.331-25.166zM260.092 524.728a1.702 1.702 0 0 1 3.402 0v35.996a1.702 1.702 0 0 1-3.402 0v-35.996z" fill="#20201F"/><path fill-rule="evenodd" clip-rule="evenodd" d="M227.877 524.386a.85.85 0 0 1 1.701 0c0 9.839 3.184 18.737 8.331 25.166 5.104 6.376 12.145 10.322 19.907 10.322a.85.85 0 0 1 0 1.701c-8.3 0-15.805-4.193-21.228-10.967-5.381-6.722-8.711-15.994-8.711-26.222zM285.694 524.728a1.702 1.702 0 0 1 3.402 0v35.996a1.702 1.702 0 0 1-3.402 0v-35.996zM333.789 524.386a.85.85 0 0 1 1.701 0c0 10.288-4.765 19.598-12.467 26.331-7.671 6.708-18.261 10.858-29.945 10.858a.85.85 0 0 1 0-1.701c11.265 0 21.459-3.988 28.83-10.433 7.339-6.417 11.881-15.277 11.881-25.055zM425.07 483.882a1.701 1.701 0 0 1 0 3.401h-35.997a1.701 1.701 0 0 1 0-3.401h35.997zM425.412 431.184a.85.85 0 0 1 0 1.7c-9.757 0-18.606 5.148-25.022 13.466-6.466 8.383-10.466 19.977-10.466 32.792a.85.85 0 0 1-1.701 0c0-13.194 4.137-25.158 10.825-33.827 6.732-8.73 16.055-14.131 26.364-14.131zM418.431 834.204a1.702 1.702 0 0 1-3.401 0v-35.996a1.701 1.701 0 0 1 3.401 0v35.996zM375.819 834.546a.85.85 0 0 1-1.701 0c0-10.27 4.211-19.569 11.014-26.298 6.803-6.728 16.2-10.891 26.575-10.891a.851.851 0 1 1 0 1.701c-9.909 0-18.884 3.976-25.379 10.4-6.492 6.42-10.509 15.291-10.509 25.088zM87.248 269.227v90.354H51.106v-91.417h36.142v1.063zm-4.273 62.075c0-.994-.407-1.9-1.065-2.554a3.608 3.608 0 0 0-2.55-1.061H58.952a3.625 3.625 0 0 0-3.614 3.615v20.41a3.622 3.622 0 0 0 3.614 3.613h20.41c.995 0 1.9-.406 2.55-1.063a3.6 3.6 0 0 0 1.064-2.55v-20.41zm-1.689-51.565a4.99 4.99 0 0 0-1.464-3.532 4.982 4.982 0 0 0-3.532-1.464c-1.375 0-2.624.56-3.532 1.467a4.983 4.983 0 0 0 .002 7.059 4.975 4.975 0 0 0 3.53 1.466c1.378 0 2.628-.56 3.532-1.464a4.983 4.983 0 0 0 1.464-3.532zm-13.163 0a6.04 6.04 0 0 0-1.776-4.283 6.04 6.04 0 0 0-4.283-1.776 6.039 6.039 0 0 0-4.284 1.776 6.04 6.04 0 0 0-1.775 4.283c0 1.671.68 3.187 1.775 4.283a6.039 6.039 0 0 0 4.284 1.776 6.04 6.04 0 0 0 4.283-1.776 6.042 6.042 0 0 0 1.776-4.283zm-2.827 3.232a4.559 4.559 0 0 0 1.339-3.232 4.557 4.557 0 0 0-1.339-3.232 4.56 4.56 0 0 0-3.232-1.339 4.558 4.558 0 0 0-3.233 1.339 4.557 4.557 0 0 0-1.338 3.232c0 1.262.513 2.407 1.338 3.232a4.558 4.558 0 0 0 3.233 1.339 4.56 4.56 0 0 0 3.232-1.339zm17.053 9.763c0-1.672-.68-3.187-1.776-4.284a6.042 6.042 0 0 0-4.283-1.775 6.04 6.04 0 0 0-4.284 1.775 6.042 6.042 0 0 0-1.775 4.284 6.04 6.04 0 0 0 1.776 4.283 6.043 6.043 0 0 0 4.283 1.776c1.671 0 3.187-.68 4.283-1.776a6.042 6.042 0 0 0 1.776-4.283zm-2.827 3.232a4.56 4.56 0 0 0 1.339-3.232 4.557 4.557 0 0 0-1.339-3.232 4.558 4.558 0 0 0-3.232-1.339 4.56 4.56 0 0 0-3.233 1.338 4.559 4.559 0 0 0-1.338 3.233c0 1.263.513 2.406 1.339 3.232a4.559 4.559 0 0 0 3.232 1.339 4.56 4.56 0 0 0 3.232-1.339zm-12.462-3.232a4.99 4.99 0 0 0-1.465-3.532 4.982 4.982 0 0 0-3.531-1.464c-1.375 0-2.625.56-3.532 1.467a4.983 4.983 0 0 0 .002 7.059 4.974 4.974 0 0 0 3.53 1.466c1.377 0 2.628-.56 3.531-1.464a4.983 4.983 0 0 0 1.465-3.532zm-2.516 2.48a3.499 3.499 0 0 0 1.028-2.48c0-.971-.392-1.849-1.025-2.481a3.513 3.513 0 0 0-4.964-.002 3.496 3.496 0 0 0-1.027 2.483 3.5 3.5 0 0 0 1.027 2.48 3.483 3.483 0 0 0 2.48 1.028c.97 0 1.848-.394 2.481-1.028zm14.227-12.994a3.502 3.502 0 0 0 1.027-2.481c0-.971-.392-1.849-1.025-2.481a3.513 3.513 0 0 0-4.964-.002 3.495 3.495 0 0 0-1.027 2.483c0 .969.394 1.847 1.027 2.481a3.486 3.486 0 0 0 2.481 1.027c.969 0 1.847-.394 2.48-1.027zm2.078 69.494v-20.41c0-.408-.168-.781-.438-1.051a1.476 1.476 0 0 0-1.05-.438H58.95c-.41 0-.783.168-1.052.437a1.497 1.497 0 0 0-.436 1.052v20.41c0 .41.167.782.434 1.049.274.27.648.438 1.054.438h20.41c.406 0 .78-.168 1.05-.438.271-.267.438-.639.438-1.049zm-27.617-49.567h31.89V270.29h-31.89v31.855zm31.89 2.126h-31.89v53.184h31.89v-53.184zM84.13 499.264c-2.797 1.798-6.386 2.909-9.54 2.909-3.106 0-5.53-1.066-7.217-2.81v-.005c-.638-.661-1.132-1.445-1.55-2.276v3.588c0 2.141-.895 3.397-2.331 4.126-1.307.664-3.036.829-4.932.829h-.782v-.02c-1.58-.044-3.022-.242-4.146-.809-1.435-.729-2.326-1.985-2.326-4.116v-17.594c0-2.141.89-3.394 2.326-4.119 1.124-.563 2.566-.767 4.146-.809v-.02h.782c1.896 0 3.625.164 4.932.829 1.436.725 2.33 1.978 2.33 4.119v3.594c.419-.831.908-1.612 1.55-2.274 1.688-1.748 4.112-2.814 7.217-2.814 3.335 0 7.151 1.243 10.014 3.225 2.641 1.829 4.495 4.303 4.495 7.064 0 2.925-2.08 5.529-4.968 7.383zm-27.903-7.89h-.005v.003c0 .631.263 1.212.68 1.63v.005a2.3 2.3 0 0 0 3.26 0h.008v-.005a2.313 2.313 0 0 0 0-3.265 2.309 2.309 0 0 0-3.943 1.632zm1.183-.002v.005c0 .311.124.593.32.793h.008c.201.201.487.33.797.33.315 0 .604-.125.8-.32l.005-.009c.196-.201.323-.483.323-.794a1.14 1.14 0 0 0-.323-.803c-.2-.196-.49-.32-.805-.32-.315 0-.601.124-.797.33-.21.196-.336.48-.336.788h.008zm6.85-8.286c0-1.444-.567-2.269-1.466-2.729-.932-.465-2.224-.621-3.685-.648h-.549c-1.683 0-3.191.128-4.23.648-.9.46-1.46 1.286-1.46 2.729v17.594c0 1.441.56 2.263 1.46 2.723 1.039.524 2.547.651 4.23.651h.61c1.43-.032 2.713-.186 3.624-.648.907-.463 1.466-1.292 1.466-2.736v-17.584zm19.458 3.011c-2.612-1.811-6.093-2.944-9.129-2.944-2.653 0-4.694.886-6.094 2.333-1.534 1.582-2.326 3.861-2.326 6.395 0 2.539.792 4.815 2.326 6.402 1.4 1.443 3.441 2.328 6.094 2.328 2.868 0 6.143-1.015 8.702-2.659 2.467-1.583 4.244-3.74 4.244-6.071 0-2.191-1.58-4.228-3.817-5.784zM334.042 219.105l-19.491-.006c-6.518 0-5.75 13.492-5.683 14.393a11.29 11.29 0 0 0 3.327 8.007 11.306 11.306 0 0 0 8.009 3.316h8.271a11.31 11.31 0 0 0 8.017-3.316 11.392 11.392 0 0 0 3.33-8.012c.041-.916.712-14.388-5.78-14.382zm-9.706 13.143v.002a2.542 2.542 0 0 1 1.77.727c.444.459.717 1.084.717 1.766 0 .689-.275 1.314-.727 1.764a2.478 2.478 0 0 1-1.762.728 2.48 2.48 0 0 1-1.76-.728h-.008v-.005a2.476 2.476 0 0 1-.733-1.759c0-.682.282-1.316.733-1.766h.002a2.508 2.508 0 0 1 1.766-.734l.002.005zm.004 1.271a1.218 1.218 0 0 1 1.204 1.224c0 .34-.131.649-.346.869a1.226 1.226 0 0 1-.864.348c-.344 0-.641-.134-.861-.348l-.005-.005a1.207 1.207 0 0 1-.352-.864c0-.336.142-.644.354-.864l.005-.003c.215-.216.522-.346.853-.346l.012.003v-.014zm-.004-9.665c3.142 0 5.994.937 8.069 2.439 2.155 1.572 3.494 3.767 3.496 6.2 0 2.443-1.341 4.638-3.496 6.213-2.082 1.511-4.936 2.438-8.079 2.438h-.014c-3.134-.007-5.981-.942-8.061-2.448-2.145-1.571-3.482-3.76-3.484-6.189l.002-.014c0-2.439 1.337-4.621 3.499-6.2 2.069-1.505 4.921-2.439 8.06-2.436l.008-.003zm0 1.758c2.754.005 5.242.813 7.041 2.112 1.699 1.241 2.756 2.933 2.756 4.769 0 1.849-1.057 3.541-2.769 4.787-1.79 1.294-4.274 2.099-7.038 2.099h-.005l-.009.005c-2.756-.005-5.234-.81-7.024-2.111-1.694-1.237-2.75-2.931-2.755-4.766l.005-.014c-.004-1.84 1.054-3.533 2.756-4.769 1.791-1.294 4.276-2.107 7.032-2.104h.01v-.008zm9.7-4.748c4.838 0 4.014 12.526 4.014 12.558l-.007.065a9.567 9.567 0 0 1-2.791 6.764 9.58 9.58 0 0 1-6.777 2.798h-8.262a9.555 9.555 0 0 1-9.584-9.562l-.003-.062c0-.032-.888-12.561 3.931-12.561h19.479zM102.128 417.19l-19.49-.005c-6.519 0-5.75 13.492-5.684 14.392 0 3.124 1.274 5.957 3.327 8.008a11.305 11.305 0 0 0 8.009 3.315h8.27c3.13 0 5.965-1.266 8.018-3.315a11.395 11.395 0 0 0 3.33-8.013c.041-.916.712-14.387-5.78-14.382zm-9.706 13.143v.003a2.535 2.535 0 0 1 1.77.727c.444.458.718 1.083.718 1.765a2.483 2.483 0 0 1-2.49 2.493 2.48 2.48 0 0 1-1.76-.728h-.008v-.005a2.48 2.48 0 0 1-.733-1.76c0-.682.282-1.315.733-1.765h.002a2.503 2.503 0 0 1 1.766-.734l.002.004zm.004 1.272c.326 0 .633.134.852.359.215.215.352.523.352.864 0 .341-.131.649-.346.869a1.222 1.222 0 0 1-.865.348c-.343 0-.64-.133-.86-.348l-.005-.005a1.207 1.207 0 0 1-.352-.864c0-.336.142-.643.353-.864l.006-.002c.215-.216.522-.346.853-.346l.012.002v-.013zm-.004-9.665c3.142 0 5.994.936 8.069 2.439 2.154 1.571 3.494 3.767 3.496 6.2 0 2.442-1.342 4.637-3.496 6.212-2.082 1.511-4.936 2.439-8.08 2.439h-.013c-3.134-.008-5.98-.942-8.06-2.448-2.146-1.571-3.483-3.761-3.485-6.189l.002-.014c0-2.439 1.337-4.622 3.5-6.2 2.068-1.505 4.92-2.439 8.06-2.437l.007-.002zm0 1.758c2.754.005 5.242.813 7.041 2.111 1.698 1.242 2.756 2.933 2.756 4.77 0 1.849-1.058 3.54-2.77 4.787-1.79 1.293-4.273 2.099-7.037 2.099h-.005l-.009.005c-2.756-.005-5.234-.811-7.024-2.112-1.694-1.236-2.75-2.93-2.755-4.765l.005-.014c-.004-1.84 1.054-3.533 2.756-4.77 1.79-1.293 4.276-2.106 7.032-2.104h.01v-.007zm9.7-4.748c4.838 0 4.014 12.525 4.014 12.558l-.007.064a9.563 9.563 0 0 1-2.791 6.764 9.578 9.578 0 0 1-6.777 2.799h-8.263a9.54 9.54 0 0 1-6.782-2.799 9.556 9.556 0 0 1-2.801-6.764l-.003-.062c0-.031-.888-12.56 3.93-12.56h19.48zM411.171 240.915v101.588h-41.559V240.915h41.559zm-24.819 19.795a4.036 4.036 0 0 0 6.893 2.856 4.03 4.03 0 0 0 .003-5.71 4.018 4.018 0 0 0-2.856-1.185 4.029 4.029 0 0 0-2.857 1.182 4.03 4.03 0 0 0-1.183 2.857zm2.324 1.715a2.421 2.421 0 0 0 1.716.709 2.42 2.42 0 0 0 2.423-2.424 2.422 2.422 0 0 0-4.138-1.714 2.425 2.425 0 0 0-.001 3.429zm-17.875-13.843 1.616 71.713c0 10.77 7.204 19.59 17.975 19.59 10.77 0 17.974-8.82 17.974-19.59l1.616-71.713c0-1.39-.569-2.653-1.483-3.567a5.052 5.052 0 0 0-3.567-1.482h-29.081a5.038 5.038 0 0 0-3.563 1.482 5.042 5.042 0 0 0-1.487 3.567zm3.636 71.713c0 9.667 6.287 17.57 15.955 17.57 9.667 0 15.954-7.903 15.954-17.57l1.616-71.713a3.038 3.038 0 0 0-3.03-3.029h-29.081c-.835 0-1.592.34-2.143.891a3.016 3.016 0 0 0-.887 2.138l1.616 71.713zm38.712 22.421V240.701c0-.507-.201-.97-.52-1.305a1.725 1.725 0 0 0-1.255-.546h-41.965c-.489 0-.935.208-1.255.542a1.89 1.89 0 0 0-.52 1.309v102.015c0 .51.199.975.52 1.31.324.332.768.542 1.255.542h41.965c.487 0 .93-.209 1.252-.542.323-.34.523-.802.523-1.31zM337.711 407.342h2.921c.348 0 .631.286.631.633v.61h30.033a.919.919 0 0 1 0 1.837h-30.033v5.007a.636.636 0 0 1-.631.633h-2.921a.633.633 0 0 1-.631-.633v-7.454c0-.349.283-.633.631-.633zM403.154 416.273h-2.921a.634.634 0 0 1-.632-.633v-.611h-30.032a.919.919 0 1 1 0-1.836h30.032v-5.008c0-.346.286-.632.632-.632h2.921c.348 0 .631.284.631.632v7.455a.633.633 0 0 1-.631.633z" fill="#20201F"/><path d="M149.499 589h-2.126v101.095h2.126V589zM169.659 609.38c1.506.082 2.649.493 3.429 1.232.794.726 1.191 1.677 1.191 2.854 0 .821-.198 1.554-.595 2.197-.397.63-.986 1.129-1.766 1.499-.78.37-1.732.554-2.854.554a8.835 8.835 0 0 1-2.957-.492c-.917-.343-1.656-.794-2.217-1.355l.718-1.171c.479.493 1.116.897 1.91 1.212a7.12 7.12 0 0 0 2.546.451c1.177 0 2.087-.253 2.731-.759.643-.521.965-1.232.965-2.136 0-.89-.322-1.588-.965-2.094-.644-.507-1.615-.76-2.916-.76h-1.027v-1.088l3.984-4.99h-7.351v-1.314h9.24v1.047l-4.066 5.113zm18.92 4.435h-2.874v3.778h-1.479v-3.778h-8.11v-1.067l7.618-9.528h1.642l-7.35 9.281h6.241v-3.326h1.438v3.326h2.874v1.314zm2.868 3.881c-.301 0-.561-.11-.78-.329a1.124 1.124 0 0 1-.308-.8c0-.315.102-.575.308-.781.219-.219.479-.328.78-.328.301 0 .561.109.78.328.219.206.329.466.329.781 0 .314-.11.581-.329.8a1.066 1.066 0 0 1-.78.329zm6.985-14.476v14.373h-1.478v-13.059h-3.388v-1.314h4.866zm7.214 5.893c2.081 0 3.593.377 4.538 1.13.958.739 1.437 1.779 1.437 3.121 0 .835-.198 1.581-.595 2.238-.384.657-.965 1.177-1.746 1.56-.78.37-1.738.554-2.874.554a8.773 8.773 0 0 1-2.937-.492c-.917-.343-1.656-.794-2.217-1.355l.719-1.171c.479.493 1.108.897 1.889 1.212.78.301 1.622.451 2.525.451 1.191 0 2.108-.267 2.752-.8.657-.534.985-1.246.985-2.136 0-.985-.369-1.731-1.109-2.238-.725-.506-1.957-.76-3.696-.76h-3.059l.739-7.207h7.864v1.314h-6.57l-.493 4.579h1.848zM167.708 638.276c.945 0 1.78.178 2.505.534.74.356 1.315.862 1.725 1.519.411.644.616 1.397.616 2.259 0 .876-.212 1.65-.636 2.32a4.265 4.265 0 0 1-1.766 1.561c-.739.356-1.574.534-2.505.534-1.903 0-3.361-.623-4.374-1.869-1.013-1.259-1.519-3.032-1.519-5.318 0-1.601.274-2.957.821-4.065.548-1.109 1.314-1.944 2.3-2.505.986-.575 2.135-.863 3.449-.863 1.424 0 2.56.26 3.409.78l-.596 1.191c-.684-.451-1.615-.677-2.792-.677-1.588 0-2.834.506-3.737 1.519-.903.999-1.355 2.457-1.355 4.374 0 .342.02.732.061 1.17.356-.78.924-1.382 1.705-1.807.78-.438 1.677-.657 2.689-.657zm-.123 7.474c1.041 0 1.882-.281 2.526-.842.657-.575.985-1.334.985-2.279 0-.944-.328-1.697-.985-2.259-.644-.561-1.52-.841-2.628-.841-.726 0-1.369.137-1.93.41a3.254 3.254 0 0 0-1.294 1.13 2.851 2.851 0 0 0-.472 1.601c0 .548.143 1.054.431 1.52.301.465.739.841 1.314 1.129.575.287 1.259.431 2.053.431zm10.459-7.351c2.081 0 3.593.377 4.538 1.13.958.739 1.437 1.779 1.437 3.121 0 .835-.198 1.581-.595 2.238-.383.657-.965 1.177-1.745 1.56-.781.37-1.739.555-2.875.555a8.768 8.768 0 0 1-2.936-.493c-.917-.342-1.657-.794-2.218-1.355l.719-1.171c.479.493 1.109.897 1.889 1.212.78.301 1.622.451 2.525.451 1.191 0 2.108-.266 2.752-.8.657-.534.985-1.246.985-2.136 0-.985-.369-1.731-1.108-2.238-.726-.506-1.958-.76-3.696-.76h-3.06l.739-7.207h7.865v1.315h-6.571l-.493 4.578h1.848zm8.961 8.583c-.301 0-.561-.109-.78-.328a1.125 1.125 0 0 1-.308-.801c0-.315.102-.575.308-.78.219-.22.479-.329.78-.329.301 0 .561.109.78.329.219.205.329.465.329.78s-.11.582-.329.801a1.065 1.065 0 0 1-.78.328zm8.976-8.706c.945 0 1.78.178 2.505.534.739.356 1.314.862 1.725 1.519.411.644.616 1.397.616 2.259 0 .876-.212 1.65-.637 2.32-.424.671-1.013 1.191-1.765 1.561-.74.356-1.575.534-2.505.534-1.903 0-3.361-.623-4.374-1.869-1.013-1.259-1.519-3.032-1.519-5.318 0-1.601.273-2.957.821-4.065.548-1.109 1.314-1.944 2.3-2.505.985-.575 2.135-.863 3.449-.863 1.424 0 2.56.26 3.409.78l-.596 1.191c-.684-.451-1.615-.677-2.792-.677-1.588 0-2.834.506-3.737 1.519-.904.999-1.355 2.457-1.355 4.374 0 .342.02.732.061 1.17.356-.78.924-1.382 1.704-1.807.781-.438 1.677-.657 2.69-.657zm-.123 7.474c1.04 0 1.882-.281 2.526-.842.657-.575.985-1.334.985-2.279 0-.944-.328-1.697-.985-2.259-.644-.561-1.52-.841-2.629-.841-.725 0-1.369.137-1.93.41a3.258 3.258 0 0 0-1.293 1.13 2.852 2.852 0 0 0-.473 1.601c0 .548.144 1.054.432 1.52.301.465.739.841 1.314 1.129.575.287 1.259.431 2.053.431zm18.898-2.649h-2.875v3.778h-1.478v-3.778h-8.111v-1.067l7.618-9.528h1.643l-7.351 9.281h6.242v-3.326h1.437v3.326h2.875v1.314zM168.048 667.562c.944 0 1.779.178 2.505.534.739.356 1.314.862 1.725 1.519.41.643.616 1.396.616 2.259 0 .876-.213 1.649-.637 2.32a4.25 4.25 0 0 1-1.766 1.56c-.739.356-1.574.534-2.505.534-1.902 0-3.36-.623-4.373-1.868-1.013-1.26-1.52-3.032-1.52-5.318 0-1.602.274-2.957.822-4.066.547-1.109 1.314-1.944 2.299-2.505.986-.575 2.136-.862 3.45-.862 1.423 0 2.56.26 3.408.78l-.595 1.191c-.685-.452-1.615-.678-2.793-.678-1.588 0-2.833.507-3.737 1.52-.903.999-1.355 2.457-1.355 4.373 0 .343.021.733.062 1.171.356-.781.924-1.383 1.704-1.807.78-.438 1.677-.657 2.69-.657zm-.123 7.474c1.04 0 1.882-.281 2.525-.842.657-.575.986-1.335.986-2.279 0-.945-.329-1.698-.986-2.259-.643-.561-1.519-.842-2.628-.842-.725 0-1.369.137-1.93.411-.548.274-.979.65-1.294 1.129a2.86 2.86 0 0 0-.472 1.602c0 .547.144 1.054.431 1.519.301.466.739.842 1.314 1.13.575.287 1.26.431 2.054.431zm11.157-13.367c1.902 0 3.36.63 4.373 1.889 1.013 1.246 1.52 3.011 1.52 5.297 0 1.602-.274 2.957-.822 4.066-.547 1.109-1.314 1.95-2.299 2.525-.986.562-2.136.842-3.45.842-1.424 0-2.56-.26-3.408-.78l.595-1.191c.685.452 1.615.678 2.793.678 1.587 0 2.833-.5 3.737-1.499.903-1.013 1.355-2.478 1.355-4.394 0-.356-.021-.746-.062-1.171-.356.781-.924 1.39-1.704 1.828-.78.424-1.677.636-2.69.636-.944 0-1.786-.178-2.525-.534a4.126 4.126 0 0 1-1.705-1.498c-.41-.657-.616-1.417-.616-2.28 0-.876.212-1.649.637-2.32a4.144 4.144 0 0 1 1.745-1.54c.753-.369 1.595-.554 2.526-.554zm.164 7.474c.725 0 1.362-.137 1.909-.411.562-.274 1-.65 1.315-1.129a2.86 2.86 0 0 0 .472-1.602c0-.547-.151-1.054-.452-1.519-.287-.466-.719-.842-1.293-1.129-.575-.288-1.26-.432-2.054-.432-1.04 0-1.889.288-2.546.863-.643.561-.965 1.314-.965 2.258 0 .945.322 1.698.965 2.259.657.561 1.54.842 2.649.842zm8.76 7.125c-.301 0-.561-.11-.78-.329a1.125 1.125 0 0 1-.308-.801c0-.314.102-.575.308-.78.219-.219.479-.328.78-.328.301 0 .561.109.78.328.219.205.329.466.329.78 0 .315-.11.582-.329.801a1.066 1.066 0 0 1-.78.329zm8.33-8.316c1.505.082 2.648.493 3.429 1.232.794.725 1.191 1.677 1.191 2.854 0 .821-.199 1.554-.596 2.197-.397.63-.986 1.129-1.766 1.499-.78.369-1.731.554-2.854.554a8.81 8.81 0 0 1-2.957-.493c-.917-.342-1.656-.793-2.217-1.355l.719-1.17c.479.493 1.115.897 1.909 1.211a7.124 7.124 0 0 0 2.546.452c1.177 0 2.088-.253 2.731-.76.643-.52.965-1.232.965-2.135 0-.89-.322-1.588-.965-2.094-.643-.507-1.615-.76-2.916-.76h-1.026v-1.088l3.983-4.99h-7.351v-1.314h9.24v1.047l-4.065 5.113zm12.657-.39c.945 0 1.78.178 2.505.534.739.356 1.314.862 1.725 1.519.411.643.616 1.396.616 2.259 0 .876-.212 1.649-.637 2.32a4.253 4.253 0 0 1-1.765 1.56c-.74.356-1.575.534-2.505.534-1.903 0-3.361-.623-4.374-1.868-1.013-1.26-1.519-3.032-1.519-5.318 0-1.602.273-2.957.821-4.066.547-1.109 1.314-1.944 2.3-2.505.985-.575 2.135-.862 3.449-.862 1.424 0 2.56.26 3.409.78l-.596 1.191c-.684-.452-1.615-.678-2.792-.678-1.588 0-2.834.507-3.737 1.52-.904.999-1.355 2.457-1.355 4.373 0 .343.02.733.061 1.171.356-.781.924-1.383 1.704-1.807.781-.438 1.677-.657 2.69-.657zm-.123 7.474c1.04 0 1.882-.281 2.525-.842.658-.575.986-1.335.986-2.279 0-.945-.328-1.698-.986-2.259-.643-.561-1.519-.842-2.628-.842-.725 0-1.369.137-1.93.411-.547.274-.979.65-1.293 1.129a2.853 2.853 0 0 0-.473 1.602c0 .547.144 1.054.432 1.519.301.466.739.842 1.314 1.13.575.287 1.259.431 2.053.431zM134.344 652.411V660h-30.413v-6.037l15.522-14.66c1.649-1.571 2.76-2.913 3.335-4.024.575-1.15.862-2.281.862-3.392 0-1.61-.555-2.837-1.667-3.68-1.073-.881-2.664-1.322-4.772-1.322-1.763 0-3.353.345-4.772 1.035-1.418.651-2.606 1.648-3.564 2.989l-6.784-4.369c1.571-2.338 3.737-4.159 6.497-5.462 2.759-1.341 5.921-2.012 9.486-2.012 2.989 0 5.595.498 7.819 1.495 2.261.958 4.005 2.338 5.231 4.139 1.265 1.763 1.897 3.852 1.897 6.267 0 2.184-.459 4.235-1.379 6.151-.92 1.917-2.702 4.101-5.347 6.554l-9.256 8.739h17.305zM117.88 781.122h-5.667v8.419h-3.183v-11.047h8.85v2.628zm6.411 8.583c-1.164 0-2.211-.24-3.142-.719a5.506 5.506 0 0 1-2.156-2.033c-.52-.862-.78-1.841-.78-2.936s.26-2.074.78-2.936a5.365 5.365 0 0 1 2.156-2.012c.931-.493 1.978-.739 3.142-.739 1.163 0 2.203.246 3.121.739a5.372 5.372 0 0 1 2.156 2.012c.52.862.78 1.841.78 2.936s-.26 2.074-.78 2.936a5.513 5.513 0 0 1-2.156 2.033c-.918.479-1.958.719-3.121.719zm0-2.628c.821 0 1.492-.274 2.012-.822.534-.561.801-1.307.801-2.238s-.267-1.67-.801-2.217c-.52-.562-1.191-.842-2.012-.842-.822 0-1.499.28-2.033.842-.534.547-.801 1.286-.801 2.217s.267 1.677.801 2.238c.534.548 1.211.822 2.033.822zm13.516 2.628c-1.177 0-2.238-.24-3.182-.719a5.62 5.62 0 0 1-2.197-2.033c-.52-.862-.781-1.841-.781-2.936s.261-2.074.781-2.936a5.476 5.476 0 0 1 2.197-2.012c.944-.493 2.005-.739 3.182-.739 1.164 0 2.177.246 3.039.739a4.259 4.259 0 0 1 1.91 2.074l-2.485 1.334c-.575-1.013-1.403-1.519-2.484-1.519-.835 0-1.526.274-2.074.821-.548.548-.821 1.294-.821 2.238 0 .945.273 1.691.821 2.238.548.548 1.239.822 2.074.822 1.095 0 1.923-.507 2.484-1.52l2.485 1.355c-.397.876-1.034 1.561-1.91 2.054-.862.492-1.875.739-3.039.739zm16.136-8.583h-3.737v8.419h-3.183v-8.419h-3.737v-2.628h10.657v2.628zm1.707-2.628h3.183v6.57l5.38-6.57h2.936v11.047h-3.183v-6.571l-5.359 6.571h-2.957v-11.047zm14.578 0h3.182v4.312h4.805v-4.312h3.203v11.047h-3.203v-4.128h-4.805v4.128h-3.182v-11.047zm18.548-.164c1.711 0 3.025.41 3.942 1.232.917.807 1.376 2.032 1.376 3.675v6.304h-2.998v-1.376c-.602 1.026-1.725 1.54-3.367 1.54-.849 0-1.588-.144-2.218-.431-.616-.288-1.088-.685-1.417-1.191a3.106 3.106 0 0 1-.492-1.725c0-1.027.383-1.834 1.149-2.423.781-.589 1.978-.883 3.594-.883h2.546c0-.698-.212-1.232-.637-1.601-.424-.384-1.061-.575-1.909-.575-.589 0-1.171.096-1.746.287a4.452 4.452 0 0 0-1.437.739l-1.15-2.238c.603-.424 1.321-.753 2.156-.985a9.807 9.807 0 0 1 2.608-.349zm-.247 9.219c.548 0 1.034-.123 1.458-.37.425-.26.726-.636.904-1.129v-1.129h-2.197c-1.314 0-1.971.431-1.971 1.293 0 .411.157.739.472.986.328.232.773.349 1.334.349zm18.162-9.055v11.047h-2.854v-3.163h-2.361l-2.095 3.163h-3.408l2.525-3.614c-.766-.301-1.355-.733-1.765-1.294-.397-.575-.596-1.266-.596-2.074 0-1.3.466-2.299 1.396-2.997.945-.712 2.238-1.068 3.881-1.068h5.277zm-5.215 2.608c-.685 0-1.205.123-1.561.369-.342.247-.513.643-.513 1.191s.164.951.493 1.211c.342.247.855.37 1.54.37h2.402v-3.141h-2.361zM140.813 816.116v2.71h-10.862v-2.156l5.544-5.236c.589-.561.986-1.04 1.191-1.437.205-.411.308-.814.308-1.211 0-.575-.198-1.013-.595-1.314-.384-.315-.952-.473-1.705-.473a3.84 3.84 0 0 0-1.704.37 3.178 3.178 0 0 0-1.273 1.068l-2.423-1.561c.561-.835 1.335-1.485 2.32-1.951.986-.479 2.115-.718 3.388-.718 1.068 0 1.999.178 2.793.534.807.342 1.43.835 1.868 1.478.452.63.678 1.376.678 2.238 0 .78-.164 1.513-.493 2.197-.328.685-.965 1.465-1.909 2.341l-3.306 3.121h6.18zm7.492 2.957c-1.191 0-2.251-.295-3.182-.883-.931-.589-1.663-1.438-2.197-2.546-.52-1.123-.78-2.458-.78-4.004 0-1.547.26-2.875.78-3.984.534-1.122 1.266-1.978 2.197-2.566.931-.589 1.991-.883 3.182-.883 1.191 0 2.252.294 3.183.883.931.588 1.656 1.444 2.176 2.566.534 1.109.801 2.437.801 3.984 0 1.546-.267 2.881-.801 4.004-.52 1.108-1.245 1.957-2.176 2.546-.931.588-1.992.883-3.183.883zm0-2.813c.876 0 1.561-.377 2.054-1.13.506-.753.759-1.916.759-3.49 0-1.574-.253-2.738-.759-3.491-.493-.753-1.178-1.129-2.054-1.129-.862 0-1.546.376-2.053 1.129-.493.753-.739 1.917-.739 3.491s.246 2.737.739 3.49c.507.753 1.191 1.13 2.053 1.13zm9.405 2.73a1.924 1.924 0 0 1-1.417-.574c-.383-.384-.575-.863-.575-1.438 0-.588.192-1.061.575-1.417.383-.369.855-.554 1.417-.554.561 0 1.033.185 1.416.554.384.356.575.829.575 1.417 0 .575-.191 1.054-.575 1.438a1.924 1.924 0 0 1-1.416.574zm9.384.083c-1.191 0-2.252-.295-3.183-.883-.931-.589-1.663-1.438-2.197-2.546-.52-1.123-.78-2.458-.78-4.004 0-1.547.26-2.875.78-3.984.534-1.122 1.266-1.978 2.197-2.566.931-.589 1.992-.883 3.183-.883 1.191 0 2.251.294 3.182.883.931.588 1.657 1.444 2.177 2.566.534 1.109.8 2.437.8 3.984 0 1.546-.266 2.881-.8 4.004-.52 1.108-1.246 1.957-2.177 2.546-.931.588-1.991.883-3.182.883zm0-2.813c.876 0 1.56-.377 2.053-1.13.506-.753.76-1.916.76-3.49 0-1.574-.254-2.738-.76-3.491-.493-.753-1.177-1.129-2.053-1.129-.863 0-1.547.376-2.054 1.129-.492.753-.739 1.917-.739 3.491s.247 2.737.739 3.49c.507.753 1.191 1.13 2.054 1.13zm12.704-6.407c2.025 0 3.517.404 4.476 1.212.972.807 1.458 1.889 1.458 3.244 0 .876-.22 1.677-.658 2.402-.438.712-1.108 1.287-2.012 1.725-.89.424-1.991.637-3.306.637-1.012 0-2.012-.13-2.997-.391-.972-.273-1.8-.657-2.485-1.149l1.314-2.546c.548.41 1.178.732 1.889.965a7.429 7.429 0 0 0 2.197.328c.835 0 1.492-.164 1.971-.493.48-.328.719-.787.719-1.375 0-.616-.253-1.082-.76-1.397-.492-.314-1.355-.472-2.587-.472h-3.675l.739-8.09h8.768v2.669h-5.996l-.226 2.731h1.171zM325.089 658.304c-1.177 0-2.238-.239-3.182-.718a5.627 5.627 0 0 1-2.197-2.033c-.52-.862-.781-1.841-.781-2.936s.261-2.074.781-2.936a5.478 5.478 0 0 1 2.197-2.013c.944-.492 2.005-.739 3.182-.739 1.164 0 2.177.247 3.039.739a4.267 4.267 0 0 1 1.91 2.074l-2.485 1.335c-.575-1.013-1.403-1.52-2.484-1.52-.835 0-1.526.274-2.074.822-.548.547-.821 1.293-.821 2.238 0 .944.273 1.69.821 2.238.548.547 1.239.821 2.074.821 1.095 0 1.923-.506 2.484-1.519l2.485 1.355c-.397.876-1.034 1.56-1.91 2.053-.862.493-1.875.739-3.039.739zm17.88-11.211v11.047h-3.203v-8.418h-4.599v8.418h-3.183v-11.047h10.985zm7.363-.164c1.711 0 3.025.411 3.942 1.232.917.808 1.376 2.033 1.376 3.676v6.303h-2.998v-1.376c-.602 1.027-1.725 1.54-3.367 1.54-.849 0-1.588-.143-2.218-.431-.616-.287-1.088-.684-1.417-1.191a3.101 3.101 0 0 1-.493-1.724c0-1.027.384-1.835 1.15-2.423.78-.589 1.978-.883 3.593-.883h2.547c0-.698-.213-1.232-.637-1.602-.424-.383-1.061-.575-1.91-.575-.588 0-1.17.096-1.745.288a4.452 4.452 0 0 0-1.437.739l-1.15-2.238c.602-.424 1.321-.753 2.156-.986a9.848 9.848 0 0 1 2.608-.349zm-.247 9.219c.548 0 1.034-.123 1.458-.369.424-.26.726-.637.904-1.129v-1.13h-2.197c-1.315 0-1.972.431-1.972 1.294 0 .41.158.739.473.985.328.233.773.349 1.334.349zm18.942-9.055v11.047h-3.203v-8.418h-3.491l-.102 1.95c-.055 1.451-.192 2.656-.411 3.614-.219.958-.575 1.711-1.068 2.259-.492.547-1.177.821-2.053.821-.465 0-1.02-.082-1.663-.246l.164-2.629c.219.028.377.041.472.041.48 0 .835-.171 1.068-.513.247-.356.411-.801.493-1.334.082-.548.144-1.267.185-2.156l.164-4.436h9.445zm9.055 3.532c1.438.014 2.54.342 3.306.986.767.629 1.15 1.526 1.15 2.69 0 1.218-.431 2.169-1.294 2.854-.848.67-2.046 1.006-3.593 1.006l-5.544-.021v-11.047h3.183v3.532h2.792zm-.718 5.257c.616.013 1.088-.117 1.417-.391.328-.273.492-.684.492-1.232 0-.533-.164-.924-.492-1.17-.315-.246-.788-.376-1.417-.39l-2.074-.021v3.204h2.074zm7.175-8.789h3.183v4.312h4.805v-4.312h3.203v11.047h-3.203v-4.127h-4.805v4.127h-3.183v-11.047zm24.072 0v11.047h-2.854v-3.162h-2.362l-2.094 3.162h-3.408l2.525-3.614c-.766-.301-1.355-.732-1.766-1.293-.397-.575-.595-1.266-.595-2.074 0-1.3.465-2.3 1.396-2.998.945-.712 2.238-1.068 3.881-1.068h5.277zm-5.216 2.608c-.684 0-1.204.123-1.56.37-.342.246-.513.643-.513 1.191 0 .547.164.951.492 1.211.343.246.856.37 1.54.37h2.403v-3.142h-2.362zM345.745 673.053v14.373h-3.326v-11.703h-2.875v-2.67h6.201zm15.658 11.355h-2.34v3.018h-3.245v-3.018h-7.74v-2.238l6.775-9.117h3.491l-6.283 8.645h3.86v-2.69h3.142v2.69h2.34v2.71zm3.285 3.183a1.925 1.925 0 0 1-1.416-.575c-.384-.384-.575-.863-.575-1.438 0-.588.191-1.061.575-1.416.383-.37.855-.555 1.416-.555.562 0 1.034.185 1.417.555.383.355.575.828.575 1.416 0 .575-.192 1.054-.575 1.438a1.925 1.925 0 0 1-1.417.575zm8.708-14.538v14.373h-3.326v-11.703h-2.875v-2.67h6.201zm8.657 14.62c-1.191 0-2.252-.295-3.183-.883-.931-.589-1.663-1.438-2.197-2.546-.52-1.123-.78-2.457-.78-4.004 0-1.547.26-2.875.78-3.984.534-1.122 1.266-1.978 2.197-2.566.931-.589 1.992-.883 3.183-.883 1.191 0 2.252.294 3.182.883.931.588 1.657 1.444 2.177 2.566.534 1.109.801 2.437.801 3.984 0 1.547-.267 2.881-.801 4.004-.52 1.108-1.246 1.957-2.177 2.546-.93.588-1.991.883-3.182.883zm0-2.813c.876 0 1.56-.377 2.053-1.13.507-.753.76-1.916.76-3.49 0-1.574-.253-2.738-.76-3.491-.493-.753-1.177-1.129-2.053-1.129-.863 0-1.547.376-2.053 1.129-.493.753-.74 1.917-.74 3.491s.247 2.737.74 3.49c.506.753 1.19 1.13 2.053 1.13zM137.55 214.669h-1.663v4.189h-3.203v-11.046h3.203v4.291h1.725l2.997-4.291h3.409l-3.86 5.297 4.127 5.749h-3.778l-2.957-4.189zm18.753-6.857-4.989 11.724c-.507 1.273-1.136 2.169-1.889 2.69-.739.52-1.636.78-2.69.78a5.603 5.603 0 0 1-1.704-.267c-.562-.178-1.02-.424-1.376-.739l1.17-2.279a2.783 2.783 0 0 0 1.807.698c.438 0 .794-.11 1.068-.329.274-.205.52-.554.739-1.047l.041-.103-4.784-11.128h3.306l3.1 7.494 3.121-7.494h3.08zm7.864 11.046-2.423-3.388-2.505 3.388h-3.49l4.25-5.564-4.107-5.482h3.593l2.341 3.223 2.403-3.223h3.408l-4.107 5.4 4.271 5.646h-3.634zm5.211-11.046h3.183v4.311h4.804v-4.311h3.203v11.046h-3.203v-4.127h-4.804v4.127h-3.183v-11.046zm24.071 0v11.046h-2.854v-3.162h-2.361l-2.094 3.162h-3.409l2.526-3.614c-.767-.301-1.355-.732-1.766-1.293-.397-.575-.595-1.266-.595-2.074 0-1.3.465-2.3 1.396-2.998.944-.712 2.238-1.067 3.881-1.067h5.276zm-5.215 2.607c-.684 0-1.204.123-1.56.37-.343.246-.514.643-.514 1.191 0 .547.165.951.493 1.211.342.246.856.37 1.54.37h2.402v-3.142h-2.361zM144.49 233.771v14.373h-3.326V236.44h-2.875v-2.669h6.201zm9.211 5.852c1.259.205 2.224.677 2.895 1.416.671.726 1.006 1.629 1.006 2.711 0 .835-.219 1.608-.657 2.32-.438.698-1.109 1.259-2.012 1.684-.89.424-1.985.636-3.285.636-1.013 0-2.013-.13-2.998-.39-.972-.274-1.8-.657-2.485-1.15l1.294-2.546a6.45 6.45 0 0 0 1.889.965 7.634 7.634 0 0 0 2.218.329c.835 0 1.492-.158 1.971-.473.479-.328.718-.787.718-1.375 0-1.177-.896-1.766-2.689-1.766h-1.52v-2.197l2.957-3.347h-6.119v-2.669h10.061v2.156l-3.244 3.696zm7.326 8.685a1.928 1.928 0 0 1-1.417-.575c-.383-.383-.575-.862-.575-1.437 0-.589.192-1.061.575-1.417.384-.37.856-.554 1.417-.554s1.033.184 1.417.554c.383.356.575.828.575 1.417 0 .575-.192 1.054-.575 1.437a1.928 1.928 0 0 1-1.417.575zm8.413-9.137c2.026 0 3.518.404 4.476 1.211.972.808 1.458 1.889 1.458 3.245a4.56 4.56 0 0 1-.657 2.402c-.438.712-1.109 1.287-2.013 1.725-.889.424-1.991.636-3.305.636-1.013 0-2.013-.13-2.998-.39-.972-.274-1.8-.657-2.485-1.15l1.314-2.546a6.462 6.462 0 0 0 1.889.965 7.435 7.435 0 0 0 2.197.329c.835 0 1.493-.165 1.972-.493.479-.329.718-.787.718-1.376 0-.616-.253-1.081-.759-1.396-.493-.315-1.356-.472-2.588-.472h-3.675l.739-8.09h8.768v2.669h-5.996l-.226 2.731h1.171zm13.897.452c1.26.205 2.225.677 2.895 1.416.671.726 1.006 1.629 1.006 2.711 0 .835-.219 1.608-.657 2.32-.438.698-1.108 1.259-2.012 1.684-.89.424-1.985.636-3.285.636-1.013 0-2.012-.13-2.998-.39-.972-.274-1.8-.657-2.484-1.15l1.293-2.546a6.45 6.45 0 0 0 1.889.965 7.639 7.639 0 0 0 2.218.329c.835 0 1.492-.158 1.971-.473.479-.328.719-.787.719-1.375 0-1.177-.897-1.766-2.69-1.766h-1.52v-2.197l2.957-3.347h-6.119v-2.669h10.061v2.156l-3.244 3.696zM276.296 456.234l-3.006-3.96-3.024 3.96h-1.44l3.744-4.86-3.564-4.608h1.44l2.844 3.708 2.844-3.708h1.404l-3.564 4.608 3.78 4.86h-1.458zm7.125.09c-.912 0-1.734-.204-2.466-.612a4.594 4.594 0 0 1-1.728-1.728c-.42-.732-.63-1.56-.63-2.484 0-.924.21-1.752.63-2.484a4.465 4.465 0 0 1 1.728-1.71c.732-.408 1.554-.612 2.466-.612.912 0 1.734.204 2.466.612a4.34 4.34 0 0 1 1.71 1.71c.42.732.63 1.56.63 2.484 0 .924-.21 1.752-.63 2.484a4.465 4.465 0 0 1-1.71 1.728c-.732.408-1.554.612-2.466.612zm0-1.134c.672 0 1.272-.15 1.8-.45.54-.312.96-.75 1.26-1.314.3-.564.45-1.206.45-1.926s-.15-1.362-.45-1.926c-.3-.564-.72-.996-1.26-1.296-.528-.312-1.128-.468-1.8-.468-.672 0-1.278.156-1.818.468-.528.3-.948.732-1.26 1.296-.3.564-.45 1.206-.45 1.926s.15 1.362.45 1.926a3.406 3.406 0 0 0 1.26 1.314c.54.3 1.146.45 1.818.45zm15.224-8.424v9.468h-1.278V447.9h-4.536l-.126 2.34c-.096 1.968-.324 3.48-.684 4.536-.36 1.056-1.002 1.584-1.926 1.584-.252 0-.558-.048-.918-.144l.09-1.098c.216.048.366.072.45.072.492 0 .864-.228 1.116-.684.252-.456.42-1.02.504-1.692.084-.672.156-1.56.216-2.664l.162-3.384h6.93zm11.373 0v9.468h-1.278V447.9h-4.536l-.126 2.34c-.096 1.968-.324 3.48-.684 4.536-.36 1.056-1.002 1.584-1.926 1.584-.252 0-.558-.048-.918-.144l.09-1.098c.216.048.366.072.45.072.492 0 .864-.228 1.116-.684.252-.456.42-1.02.504-1.692.084-.672.156-1.56.216-2.664l.162-3.384h6.93zM280.337 477.978c.828 0 1.56.156 2.196.468a3.556 3.556 0 0 1 1.512 1.332c.36.564.54 1.224.54 1.98 0 .768-.186 1.446-.558 2.034a3.733 3.733 0 0 1-1.548 1.368c-.648.312-1.38.468-2.196.468-1.668 0-2.946-.546-3.834-1.638-.888-1.104-1.332-2.658-1.332-4.662 0-1.404.24-2.592.72-3.564s1.152-1.704 2.016-2.196c.864-.504 1.872-.756 3.024-.756 1.248 0 2.244.228 2.988.684l-.522 1.044c-.6-.396-1.416-.594-2.448-.594-1.392 0-2.484.444-3.276 1.332-.792.876-1.188 2.154-1.188 3.834 0 .3.018.642.054 1.026a3.351 3.351 0 0 1 1.494-1.584c.684-.384 1.47-.576 2.358-.576zm-.108 6.552c.912 0 1.65-.246 2.214-.738.576-.504.864-1.17.864-1.998 0-.828-.288-1.488-.864-1.98-.564-.492-1.332-.738-2.304-.738-.636 0-1.2.12-1.692.36-.48.24-.858.57-1.134.99-.276.42-.414.888-.414 1.404 0 .48.126.924.378 1.332.264.408.648.738 1.152.99.504.252 1.104.378 1.8.378zm7.005 1.08a.934.934 0 0 1-.684-.288.989.989 0 0 1-.27-.702c0-.276.09-.504.27-.684a.934.934 0 0 1 .684-.288c.264 0 .492.096.684.288.192.18.288.408.288.684 0 .276-.096.51-.288.702a.934.934 0 0 1-.684.288zm11.523-12.69v.918l-5.274 11.682h-1.404l5.184-11.448h-6.48v2.358h-1.278v-3.51h9.252zm5.376 0v12.6h-1.296v-11.448h-2.97v-1.152h4.266zM138.558 67.844v9.468h-1.278v-8.334h-4.536l-.126 2.34c-.096 1.968-.324 3.48-.684 4.536-.36 1.056-1.002 1.584-1.926 1.584-.252 0-.558-.048-.918-.144l.09-1.098c.216.048.366.072.45.072.492 0 .864-.228 1.116-.684.252-.456.42-1.02.504-1.692.084-.672.156-1.56.216-2.664l.162-3.384h6.93zm7.539 9.558c-.912 0-1.734-.204-2.466-.612a4.594 4.594 0 0 1-1.728-1.728c-.42-.732-.63-1.56-.63-2.484 0-.924.21-1.752.63-2.484a4.465 4.465 0 0 1 1.728-1.71c.732-.408 1.554-.612 2.466-.612.912 0 1.734.204 2.466.612a4.34 4.34 0 0 1 1.71 1.71c.42.732.63 1.56.63 2.484 0 .924-.21 1.752-.63 2.484a4.465 4.465 0 0 1-1.71 1.728c-.732.408-1.554.612-2.466.612zm0-1.134c.672 0 1.272-.15 1.8-.45.54-.312.96-.75 1.26-1.314.3-.564.45-1.206.45-1.926s-.15-1.362-.45-1.926c-.3-.564-.72-.996-1.26-1.296-.528-.312-1.128-.468-1.8-.468-.672 0-1.278.156-1.818.468-.528.3-.948.732-1.26 1.296-.3.564-.45 1.206-.45 1.926s.15 1.362.45 1.926a3.406 3.406 0 0 0 1.26 1.314c.54.3 1.146.45 1.818.45zm16.719-.072v3.402h-1.206v-2.286h-8.478v2.286h-1.206v-3.402h.54c.636-.036 1.068-.504 1.296-1.404.228-.9.384-2.16.468-3.78l.126-3.168h6.984v8.352h1.476zm-7.416-5.112c-.06 1.344-.174 2.454-.342 3.33-.168.864-.468 1.458-.9 1.782h5.904v-7.218h-4.554l-.108 2.106zm18.205 2.016h-2.052v4.212h-1.278V73.1h-2.052l-2.898 4.212h-1.53l3.402-4.878-3.132-4.59h1.386l2.772 4.158h2.052v-4.158h1.278v4.158h2.052l2.79-4.158h1.386l-3.132 4.608 3.402 4.86h-1.53l-2.916-4.212zm6.573-5.256h1.278v7.524l6.318-7.524h1.134v9.468h-1.278v-7.524l-6.3 7.524h-1.152v-9.468zm19.665 0v9.468h-1.17V74.18h-3.33l-2.196 3.132h-1.386L194.119 74c-.732-.204-1.296-.552-1.692-1.044-.396-.492-.594-1.116-.594-1.872 0-1.056.36-1.86 1.08-2.412.72-.552 1.704-.828 2.952-.828h3.978zm-6.714 3.276c0 1.404.894 2.106 2.682 2.106h2.862v-4.248h-2.772c-1.848 0-2.772.714-2.772 2.142zM160.646 103.286h-2.52v3.312h-1.296v-3.312h-7.11v-.936l6.678-8.352h1.44l-6.444 8.136h5.472v-2.916h1.26v2.916h2.52v1.152zm2.514 3.402a.934.934 0 0 1-.684-.288.989.989 0 0 1-.27-.702c0-.276.09-.504.27-.684a.934.934 0 0 1 .684-.288c.264 0 .492.096.684.288.192.18.288.408.288.684 0 .276-.096.51-.288.702a.934.934 0 0 1-.684.288zm6.124-12.69v12.6h-1.296V95.15h-2.97v-1.152h4.266zm11.904 0v.918l-5.274 11.682h-1.404l5.184-11.448h-6.48v2.358h-1.278v-3.51h9.252zM347.558 861.645v9.468h-1.278v-8.334h-4.536l-.126 2.34c-.096 1.968-.324 3.48-.684 4.536-.36 1.056-1.002 1.584-1.926 1.584-.252 0-.558-.048-.918-.144l.09-1.098c.216.048.366.072.45.072.492 0 .864-.228 1.116-.684.252-.456.42-1.02.504-1.692.084-.672.156-1.56.216-2.664l.162-3.384h6.93zm7.539 9.558c-.912 0-1.734-.204-2.466-.612a4.594 4.594 0 0 1-1.728-1.728c-.42-.732-.63-1.56-.63-2.484 0-.924.21-1.752.63-2.484a4.465 4.465 0 0 1 1.728-1.71c.732-.408 1.554-.612 2.466-.612.912 0 1.734.204 2.466.612a4.34 4.34 0 0 1 1.71 1.71c.42.732.63 1.56.63 2.484 0 .924-.21 1.752-.63 2.484a4.465 4.465 0 0 1-1.71 1.728c-.732.408-1.554.612-2.466.612zm0-1.134c.672 0 1.272-.15 1.8-.45.54-.312.96-.75 1.26-1.314.3-.564.45-1.206.45-1.926s-.15-1.362-.45-1.926c-.3-.564-.72-.996-1.26-1.296-.528-.312-1.128-.468-1.8-.468-.672 0-1.278.156-1.818.468-.528.3-.948.732-1.26 1.296-.3.564-.45 1.206-.45 1.926s.15 1.362.45 1.926a3.406 3.406 0 0 0 1.26 1.314c.54.3 1.146.45 1.818.45zm16.719-.072v3.402h-1.206v-2.286h-8.478v2.286h-1.206v-3.402h.54c.636-.036 1.068-.504 1.296-1.404.228-.9.384-2.16.468-3.78l.126-3.168h6.984v8.352h1.476zm-7.416-5.112c-.06 1.344-.174 2.454-.342 3.33-.168.864-.468 1.458-.9 1.782h5.904v-7.218h-4.554l-.108 2.106zm18.205 2.016h-2.052v4.212h-1.278v-4.212h-2.052l-2.898 4.212h-1.53l3.402-4.878-3.132-4.59h1.386l2.772 4.158h2.052v-4.158h1.278v4.158h2.052l2.79-4.158h1.386l-3.132 4.608 3.402 4.86h-1.53l-2.916-4.212zm6.573-5.256h1.278v7.524l6.318-7.524h1.134v9.468h-1.278v-7.524l-6.3 7.524h-1.152v-9.468zm19.665 0v9.468h-1.17v-3.132h-3.33l-2.196 3.132h-1.386l2.358-3.312c-.732-.204-1.296-.552-1.692-1.044-.396-.492-.594-1.116-.594-1.872 0-1.056.36-1.86 1.08-2.412.72-.552 1.704-.828 2.952-.828h3.978zm-6.714 3.276c0 1.404.894 2.106 2.682 2.106h2.862v-4.248h-2.772c-1.848 0-2.772.714-2.772 2.142zM362.22 893.199c1.32.072 2.322.432 3.006 1.08.696.636 1.044 1.47 1.044 2.502 0 .72-.174 1.362-.522 1.926-.348.552-.864.99-1.548 1.314-.684.324-1.518.486-2.502.486a7.73 7.73 0 0 1-2.592-.432c-.804-.3-1.452-.696-1.944-1.188l.63-1.026c.42.432.978.786 1.674 1.062a6.24 6.24 0 0 0 2.232.396c1.032 0 1.83-.222 2.394-.666.564-.456.846-1.08.846-1.872 0-.78-.282-1.392-.846-1.836-.564-.444-1.416-.666-2.556-.666h-.9v-.954l3.492-4.374h-6.444v-1.152h8.1v.918l-3.564 4.482zm6.848 7.29a.934.934 0 0 1-.684-.288.989.989 0 0 1-.27-.702c0-.276.09-.504.27-.684a.934.934 0 0 1 .684-.288c.264 0 .492.096.684.288.192.18.288.408.288.684 0 .276-.096.51-.288.702a.934.934 0 0 1-.684.288zm11.623-1.242v1.152h-8.838v-.918l5.238-5.13c.66-.648 1.104-1.206 1.332-1.674.24-.48.36-.96.36-1.44 0-.744-.258-1.32-.774-1.728-.504-.42-1.23-.63-2.178-.63-1.476 0-2.622.468-3.438 1.404l-.918-.792a4.846 4.846 0 0 1 1.872-1.332c.768-.312 1.632-.468 2.592-.468 1.284 0 2.298.306 3.042.918.756.6 1.134 1.428 1.134 2.484 0 .648-.144 1.272-.432 1.872-.288.6-.834 1.29-1.638 2.07l-4.284 4.212h6.93zm6.776-6.39c.828 0 1.56.156 2.196.468a3.556 3.556 0 0 1 1.512 1.332c.36.564.54 1.224.54 1.98 0 .768-.186 1.446-.558 2.034a3.733 3.733 0 0 1-1.548 1.368c-.648.312-1.38.468-2.196.468-1.668 0-2.946-.546-3.834-1.638-.888-1.104-1.332-2.658-1.332-4.662 0-1.404.24-2.592.72-3.564s1.152-1.704 2.016-2.196c.864-.504 1.872-.756 3.024-.756 1.248 0 2.244.228 2.988.684l-.522 1.044c-.6-.396-1.416-.594-2.448-.594-1.392 0-2.484.444-3.276 1.332-.792.876-1.188 2.154-1.188 3.834 0 .3.018.642.054 1.026a3.351 3.351 0 0 1 1.494-1.584c.684-.384 1.47-.576 2.358-.576zm-.108 6.552c.912 0 1.65-.246 2.214-.738.576-.504.864-1.17.864-1.998 0-.828-.288-1.488-.864-1.98-.564-.492-1.332-.738-2.304-.738-.636 0-1.2.12-1.692.36-.48.24-.858.57-1.134.99-.276.42-.414.888-.414 1.404 0 .48.126.924.378 1.332.264.408.648.738 1.152.99.504.252 1.104.378 1.8.378zM107.522 469.298c1.32.072 2.322.432 3.006 1.08.696.636 1.044 1.47 1.044 2.502 0 .72-.174 1.362-.522 1.926-.348.552-.864.99-1.548 1.314-.684.324-1.518.486-2.502.486a7.73 7.73 0 0 1-2.592-.432c-.804-.3-1.452-.696-1.944-1.188l.63-1.026c.42.432.978.786 1.674 1.062a6.24 6.24 0 0 0 2.232.396c1.032 0 1.83-.222 2.394-.666.564-.456.846-1.08.846-1.872 0-.78-.282-1.392-.846-1.836-.564-.444-1.416-.666-2.556-.666h-.9v-.954l3.492-4.374h-6.444v-1.152h8.1v.918l-3.564 4.482zm6.848 7.29a.934.934 0 0 1-.684-.288.989.989 0 0 1-.27-.702c0-.276.09-.504.27-.684a.934.934 0 0 1 .684-.288c.264 0 .492.096.684.288.192.18.288.408.288.684 0 .276-.096.51-.288.702a.934.934 0 0 1-.684.288zm6.123-12.69v12.6h-1.296V465.05h-2.97v-1.152h4.266zm11.616 11.448v1.152h-8.838v-.918l5.238-5.13c.66-.648 1.104-1.206 1.332-1.674.24-.48.36-.96.36-1.44 0-.744-.258-1.32-.774-1.728-.504-.42-1.23-.63-2.178-.63-1.476 0-2.622.468-3.438 1.404l-.918-.792a4.846 4.846 0 0 1 1.872-1.332c.768-.312 1.632-.468 2.592-.468 1.284 0 2.298.306 3.042.918.756.6 1.134 1.428 1.134 2.484 0 .648-.144 1.272-.432 1.872-.288.6-.834 1.29-1.638 2.07l-4.284 4.212h6.93zM309.687 305.017c.828 0 1.56.156 2.196.468a3.556 3.556 0 0 1 1.512 1.332c.36.564.54 1.224.54 1.98 0 .768-.186 1.446-.558 2.034a3.733 3.733 0 0 1-1.548 1.368c-.648.312-1.38.468-2.196.468-1.668 0-2.946-.546-3.834-1.638-.888-1.104-1.332-2.658-1.332-4.662 0-1.404.24-2.592.72-3.564s1.152-1.704 2.016-2.196c.864-.504 1.872-.756 3.024-.756 1.248 0 2.244.228 2.988.684l-.522 1.044c-.6-.396-1.416-.594-2.448-.594-1.392 0-2.484.444-3.276 1.332-.792.876-1.188 2.154-1.188 3.834 0 .3.018.642.054 1.026a3.351 3.351 0 0 1 1.494-1.584c.684-.384 1.47-.576 2.358-.576zm-.108 6.552c.912 0 1.65-.246 2.214-.738.576-.504.864-1.17.864-1.998 0-.828-.288-1.488-.864-1.98-.564-.492-1.332-.738-2.304-.738-.636 0-1.2.12-1.692.36-.48.24-.858.57-1.134.99-.276.42-.414.888-.414 1.404 0 .48.126.924.378 1.332.264.408.648.738 1.152.99.504.252 1.104.378 1.8.378zm7.004 1.08a.934.934 0 0 1-.684-.288.989.989 0 0 1-.27-.702c0-.276.09-.504.27-.684a.934.934 0 0 1 .684-.288c.264 0 .492.096.684.288.192.18.288.408.288.684 0 .276-.096.51-.288.702a.934.934 0 0 1-.684.288zm6.767-12.798c1.668 0 2.946.552 3.834 1.656.888 1.092 1.332 2.64 1.332 4.644 0 1.404-.24 2.592-.72 3.564s-1.152 1.71-2.016 2.214c-.864.492-1.872.738-3.024.738-1.248 0-2.244-.228-2.988-.684l.522-1.044c.6.396 1.416.594 2.448.594 1.392 0 2.484-.438 3.276-1.314.792-.888 1.188-2.172 1.188-3.852 0-.312-.018-.654-.054-1.026a3.445 3.445 0 0 1-1.494 1.602c-.684.372-1.47.558-2.358.558-.828 0-1.566-.156-2.214-.468a3.62 3.62 0 0 1-1.494-1.314c-.36-.576-.54-1.242-.54-1.998 0-.768.186-1.446.558-2.034a3.635 3.635 0 0 1 1.53-1.35c.66-.324 1.398-.486 2.214-.486zm.144 6.552c.636 0 1.194-.12 1.674-.36.492-.24.876-.57 1.152-.99.276-.42.414-.888.414-1.404 0-.48-.132-.924-.396-1.332-.252-.408-.63-.738-1.134-.99-.504-.252-1.104-.378-1.8-.378-.912 0-1.656.252-2.232.756-.564.492-.846 1.152-.846 1.98 0 .828.282 1.488.846 1.98.576.492 1.35.738 2.322.738zm17.61 2.844h-2.52v3.312h-1.296v-3.312h-7.11v-.936l6.678-8.352h1.44l-6.444 8.136h5.472v-2.916h1.26v2.916h2.52v1.152zM359.318 376.12v12.6h-1.296v-11.448h-2.97v-1.152h4.266zm3.984 12.69a.934.934 0 0 1-.684-.288.989.989 0 0 1-.27-.702c0-.276.09-.504.27-.684a.934.934 0 0 1 .684-.288c.264 0 .492.096.684.288.192.18.288.408.288.684 0 .276-.096.51-.288.702a.934.934 0 0 1-.684.288zm6.124-12.69v12.6h-1.296v-11.448h-2.97v-1.152h4.266zm6.935-.108c1.668 0 2.946.552 3.834 1.656.888 1.092 1.332 2.64 1.332 4.644 0 1.404-.24 2.592-.72 3.564s-1.152 1.71-2.016 2.214c-.864.492-1.872.738-3.024.738-1.248 0-2.244-.228-2.988-.684l.522-1.044c.6.396 1.416.594 2.448.594 1.392 0 2.484-.438 3.276-1.314.792-.888 1.188-2.172 1.188-3.852 0-.312-.018-.654-.054-1.026a3.445 3.445 0 0 1-1.494 1.602c-.684.372-1.47.558-2.358.558-.828 0-1.566-.156-2.214-.468a3.62 3.62 0 0 1-1.494-1.314c-.36-.576-.54-1.242-.54-1.998 0-.768.186-1.446.558-2.034a3.635 3.635 0 0 1 1.53-1.35c.66-.324 1.398-.486 2.214-.486zm.144 6.552c.636 0 1.194-.12 1.674-.36.492-.24.876-.57 1.152-.99.276-.42.414-.888.414-1.404 0-.48-.132-.924-.396-1.332-.252-.408-.63-.738-1.134-.99-.504-.252-1.104-.378-1.8-.378-.912 0-1.656.252-2.232.756-.564.492-.846 1.152-.846 1.98 0 .828.282 1.488.846 1.98.576.492 1.35.738 2.322.738z" fill="#20201F"/></g><defs><clipPath id="a"><path fill="#fff" transform="translate(34 28)" d="M0 0h431.184v893.708H0z"/></clipPath></defs></svg>