<svg width="800" height="600" fill="none" xmlns="http://www.w3.org/2000/svg"><path fill="#fff" d="M0 0h800v600H0z"/><g clip-path="url(#a)"><path d="M749.88 537.174H299.528v14.975H749.88v-14.975z" fill="#ED9FA6"/><path fill-rule="evenodd" clip-rule="evenodd" d="M51 499.748h248.528v52.401H749.88V154.794h-2.994V81.409L525.308 58.78V47H51v452.748z" fill="#ED9FA6"/><path d="M65.967 47.023H51v452.725h14.967V47.023z" fill="#C6C0E1"/><path fill-rule="evenodd" clip-rule="evenodd" d="M51 499.748h248.528v52.401H749.88V154.794h-2.994V81.409L525.308 58.78V47H51v452.748z" fill="#E4CDA1"/><path d="M65.967 47.023H51v452.725h14.967V47.023zM749.88 537.174H299.528v14.975H749.88v-14.975z" fill="#E4CDA1"/><path d="M65.967 62.57H51v14.973h14.967V62.57zM308.517 62.57H272.58v35.933h35.937V62.571zM65.967 77.543H51v422.205h14.967V77.543zM211.495 400.933h-14.967v98.815h14.967v-98.815zM509.737 62.511h-20.962V227.26h20.962V62.511zM734.309 170.368h-20.962v381.781h20.962V170.368zM509.737 472.016h-20.962v80.133h20.962v-80.133z" fill="#20201F"/><path d="M713.347 537.174h-203.61v14.975h203.61v-14.975zM488.775 537.174H314.504v14.975h174.271v-14.975zM314.504 472.016h-14.976v80.133h14.976v-80.133zM196.528 484.774H65.967v14.974h130.561v-14.974zM117.662 54.785H51v22.758h66.662V54.785zM333.068 54.785h-89.641v22.758h89.641V54.785zM488.775 54.785h-29.942v22.758h29.942V54.785zM533.089 162.582h-23.352v22.757h23.352v-22.757zM713.347 162.582h-48.506v22.757h48.506v-22.757zM121.259 47H51v7.785h70.259V47zM336.657 47H239.83v7.785h96.827V47zM488.775 47h-33.54v7.785h33.54V47zM525.308 47h-36.533v7.127h36.533V47zM525.308 54.127h-7.194v100.67h7.194V54.127zM533.089 154.797h-23.352v7.785h23.352v-7.785zM749.88 154.797h-85.039v7.785h85.039v-7.785zM749.88 162.582h-7.186v389.567h7.186V162.582z" fill="#20201F"/><path d="M521.333 52.056h-35.288V64.73h35.288V52.057z" fill="#20201F"/><path d="M519.504 61.635H507.27v94.219h12.234V61.635zM744.785 158.818h-35.201v15.316h35.201v-15.316z" fill="#20201F"/><path d="M744.786 164.379h-14.063v380.162h14.063V164.379z" fill="#20201F"/><path d="M746.472 543.135H730.16v9.014h16.312v-9.014z" fill="#20201F"/><path fill-rule="evenodd" clip-rule="evenodd" d="M525.308 66.203v-7.225l221.579 22.628v73.385h-7.186V88.376L525.308 66.203z" fill="#20201F"/><path d="M155.199 305.113H65.592v4.79h89.607v-4.79z" fill="#20201F"/><path d="M206.707 305.113h-51.508v4.79h51.508v-4.79zM219.854 305.113h-13.147v4.79h13.147v-4.79zM211.495 309.904h-4.788v43.119h4.788v-43.119zM272.579 305.113h-4.813v4.79h4.813v-4.79zM290.548 385.147H272.58v4.791h17.968v-4.791z" fill="#20201F"/><path d="M277.376 337.483h-4.796v52.455h4.796v-52.455zM277.376 270.079h-4.796v13.506h4.796v-13.506z" fill="#20201F"/><path d="M277.376 98.503h-4.796V270.08h4.796V98.503zM404.048 343.602H277.375v4.846h126.673v-4.846zM396.048 348.533h-4.75v36.614h4.75v-36.614zM513.819 385.147H380.375v4.791h133.444v-4.791z" fill="#20201F"/><path d="M509.737 343.881h-4.796v57.597h4.796v-57.597z" fill="#20201F"/><path d="M509.737 343.867h-15.851v4.811h15.851v-4.811z" fill="#20201F"/><path d="M509.737 227.26h-4.796v116.624h4.796V227.26zM224.395 484.774h-12.9v14.974h12.9v-14.974zM299.528 484.774h-15.247v14.974h15.247v-14.974zM316.672 467.225h-17.055v4.791h17.055v-4.791zM368.172 467.225h-51.5v4.791h51.5v-4.791zM381.387 467.225h-13.215v4.791h13.215v-4.791zM509.737 467.225h-86.425v4.791h86.425v-4.791zM509.737 455.376h-4.796v11.848h4.796v-11.848zM51.002 54.765H51v3.851h.002v-3.851zM51.002 73.67H51v3.852h.002V73.67zM239.838 47H121.251v3.852h118.587V47zM243.427 54.765H117.662v3.851h125.765v-3.851zM243.427 73.67H117.662v3.851h125.765V73.67zM455.243 47H336.656v3.852h118.587V47zM458.832 54.765H333.067v3.851h125.765v-3.851zM458.832 73.67H333.067v3.851h125.765V73.67zM664.84 154.82H581v3.852h83.84v-3.852zM664.84 162.585H581v3.851h83.84v-3.851zM664.84 181.49H581v3.851h83.84v-3.851z" fill="#20201F"/><path fill-rule="evenodd" clip-rule="evenodd" d="M282.622 495.263a1.702 1.702 0 0 1-3.402 0v-35.996a1.702 1.702 0 0 1 3.402 0v35.996zM228.239 495.605a.85.85 0 0 1-1.701 0c0-10.309 5.4-19.631 14.127-26.365 8.667-6.687 20.625-10.824 33.817-10.824a.85.85 0 0 1 0 1.701c-12.812 0-24.402 4-32.781 10.465-8.316 6.417-13.462 15.265-13.462 25.023zM422.874 469.013a1.702 1.702 0 0 1-3.402 0v-35.996a1.702 1.702 0 0 1 3.402 0v35.996zM385.647 469.355a.85.85 0 0 1-1.701 0c0-10.246 3.665-19.53 9.587-26.254 5.947-6.755 14.174-10.935 23.264-10.935a.85.85 0 0 1 0 1.701c-8.579 0-16.355 3.959-21.989 10.356-5.659 6.426-9.161 15.311-9.161 25.132zM507.624 402.986a1.702 1.702 0 0 1 0 3.401h-35.996a1.7 1.7 0 1 1 0-3.401h35.996zM507.966 451.461a.85.85 0 0 1 0 1.701c-10.291 0-19.601-4.805-26.334-12.568-6.706-7.731-10.855-18.404-10.855-30.178a.851.851 0 1 1 1.701 0c0 11.357 3.988 21.636 10.436 29.069 6.416 7.397 15.275 11.976 25.052 11.976zM274.846 336.823a1.7 1.7 0 0 1 0-3.401h35.997a1.7 1.7 0 0 1 0 3.401h-35.997zM274.505 285.348a.85.85 0 1 1 0-1.7c10.3 0 19.617 5.107 26.35 13.36 6.695 8.206 10.838 19.531 10.838 32.025a.85.85 0 0 1-1.701 0c0-12.096-3.995-23.041-10.452-30.955-6.415-7.864-15.269-12.73-25.035-12.73zM267.06 307.37a1.702 1.702 0 0 1-3.401 0v-35.996a1.701 1.701 0 0 1 3.401 0v35.996zM223.647 307.712a.85.85 0 0 1-1.701 0c0-10.271 4.293-19.571 11.227-26.301 6.93-6.726 16.503-10.888 27.066-10.888a.851.851 0 1 1 0 1.701c-10.108 0-19.263 3.977-25.884 10.403-6.614 6.419-10.708 15.289-10.708 25.085zM534.655 172.674a1.702 1.702 0 0 1 3.402 0v35.996a1.702 1.702 0 0 1-3.402 0v-35.996zM577.259 172.332a.85.85 0 0 1 1.7 0c0 10.268-4.209 19.565-11.011 26.295a37.676 37.676 0 0 1-26.569 10.894.851.851 0 1 1 0-1.701c9.909 0 18.882-3.974 25.373-10.395 6.489-6.421 10.507-15.294 10.507-25.093zM209.035 352.905a1.701 1.701 0 0 1 0 3.402h-35.997a1.702 1.702 0 0 1 0-3.402h35.997zM209.376 396.319a.85.85 0 1 1 0 1.701c-10.271 0-19.571-4.293-26.301-11.227-6.725-6.93-10.887-16.503-10.887-27.067a.85.85 0 0 1 1.701 0c0 10.109 3.976 19.264 10.402 25.885 6.419 6.614 15.29 10.708 25.085 10.708zM104.527 165.377v90.355H68.385v-91.418h36.142v1.063zm-4.273 62.076c0-.994-.407-1.901-1.065-2.555a3.607 3.607 0 0 0-2.55-1.06H76.23c-.991 0-1.894.407-2.553 1.06a3.61 3.61 0 0 0-1.06 2.555v20.409c0 .992.406 1.896 1.06 2.553a3.606 3.606 0 0 0 2.553 1.061h20.41c.995 0 1.9-.407 2.551-1.063a3.602 3.602 0 0 0 1.063-2.551v-20.409zm-1.689-51.566c0-1.376-.56-2.626-1.464-3.531a4.983 4.983 0 0 0-7.064.002 4.983 4.983 0 0 0 .002 7.059 4.975 4.975 0 0 0 3.53 1.466c1.378 0 2.628-.56 3.532-1.464a4.983 4.983 0 0 0 1.464-3.532zm-13.163 0c0-1.671-.68-3.187-1.776-4.283a6.044 6.044 0 0 0-4.283-1.776c-1.672 0-3.188.68-4.284 1.776a6.042 6.042 0 0 0-1.775 4.283c0 1.671.68 3.188 1.775 4.284a6.042 6.042 0 0 0 4.284 1.775 6.043 6.043 0 0 0 4.283-1.775 6.044 6.044 0 0 0 1.776-4.284zm-2.827 3.233a4.563 4.563 0 0 0 1.339-3.233 4.56 4.56 0 0 0-1.339-3.232 4.559 4.559 0 0 0-3.232-1.338 4.558 4.558 0 0 0-3.233 1.338 4.56 4.56 0 0 0-1.338 3.232c0 1.262.513 2.407 1.338 3.233a4.558 4.558 0 0 0 3.233 1.338 4.559 4.559 0 0 0 3.232-1.338zm17.053 9.762a6.04 6.04 0 0 0-1.775-4.283 6.043 6.043 0 0 0-4.284-1.776 6.044 6.044 0 0 0-4.284 1.775 6.042 6.042 0 0 0-1.775 4.284c0 1.672.68 3.188 1.776 4.284a6.042 6.042 0 0 0 4.283 1.775 6.044 6.044 0 0 0 4.284-1.775 6.044 6.044 0 0 0 1.775-4.284zm-2.827 3.233a4.563 4.563 0 0 0 1.339-3.233 4.559 4.559 0 0 0-1.339-3.232 4.559 4.559 0 0 0-3.232-1.339 4.56 4.56 0 0 0-3.233 1.338 4.56 4.56 0 0 0-1.338 3.233 4.56 4.56 0 0 0 1.339 3.233 4.562 4.562 0 0 0 3.232 1.338 4.564 4.564 0 0 0 3.232-1.338zm-12.462-3.233c0-1.376-.56-2.626-1.465-3.531a4.983 4.983 0 0 0-7.063.002 4.983 4.983 0 0 0 .002 7.059 4.975 4.975 0 0 0 3.53 1.466c1.377 0 2.627-.56 3.531-1.464a4.983 4.983 0 0 0 1.465-3.532zm-2.516 2.481a3.502 3.502 0 0 0 1.028-2.481c0-.971-.392-1.848-1.025-2.48a3.51 3.51 0 0 0-2.483-1.028c-.971 0-1.849.392-2.48 1.025a3.497 3.497 0 0 0-1.028 2.483c0 .969.394 1.847 1.027 2.481a3.486 3.486 0 0 0 2.48 1.027c.97 0 1.848-.394 2.481-1.027zm14.227-12.995a3.501 3.501 0 0 0 1.027-2.481c0-.971-.392-1.848-1.025-2.48a3.509 3.509 0 0 0-2.483-1.027c-.971 0-1.849.392-2.48 1.024a3.497 3.497 0 0 0-1.028 2.483c0 .969.394 1.847 1.027 2.481a3.487 3.487 0 0 0 2.481 1.027c.969 0 1.847-.393 2.48-1.027zm2.078 69.494v-20.409c0-.408-.168-.782-.438-1.051a1.471 1.471 0 0 0-1.05-.438H76.23a1.485 1.485 0 0 0-1.488 1.489v20.409c0 .41.167.783.434 1.05.274.269.648.438 1.054.438h20.41c.406 0 .78-.169 1.05-.438a1.47 1.47 0 0 0 .438-1.05zm-27.617-49.567h31.89V166.44h-31.89v31.855zm31.89 2.126h-31.89v53.185h31.89v-53.185zM350.225 523.118c-2.797 1.798-6.386 2.909-9.541 2.909-3.105 0-5.529-1.066-7.216-2.81v-.005c-.638-.661-1.132-1.445-1.55-2.276v3.588c0 2.141-.895 3.397-2.331 4.125-1.307.665-3.036.829-4.932.829h-.782v-.019c-1.58-.044-3.023-.242-4.146-.81-1.435-.728-2.326-1.984-2.326-4.115V506.94c0-2.141.891-3.394 2.326-4.119 1.123-.564 2.566-.767 4.146-.809v-.02h.782c1.896 0 3.625.164 4.932.829 1.436.725 2.331 1.978 2.331 4.119v3.594c.418-.831.907-1.612 1.55-2.275 1.687-1.747 4.111-2.813 7.216-2.813 3.335 0 7.151 1.243 10.014 3.225 2.641 1.829 4.495 4.303 4.495 7.064 0 2.925-2.079 5.529-4.968 7.383zm-27.903-7.89h-.005v.003c0 .631.263 1.212.681 1.63v.005a2.3 2.3 0 0 0 3.259 0h.008l-.001-.005a2.31 2.31 0 0 0-1.634-3.943 2.31 2.31 0 0 0-2.308 2.31zm1.183-.002v.005c0 .311.124.593.32.793h.008a1.144 1.144 0 0 0 1.597.01l.005-.009a1.14 1.14 0 0 0 .323-.794c0-.322-.127-.602-.323-.803a1.157 1.157 0 0 0-.805-.32c-.315 0-.602.124-.797.33a1.08 1.08 0 0 0-.336.788h.008zm6.85-8.286c0-1.444-.567-2.269-1.466-2.729-.932-.465-2.224-.621-3.685-.648h-.549c-1.683 0-3.191.128-4.23.648-.899.46-1.46 1.286-1.46 2.729v17.594c0 1.441.561 2.263 1.46 2.723 1.039.524 2.547.651 4.23.651h.609c1.43-.033 2.714-.186 3.625-.648.907-.463 1.466-1.292 1.466-2.736V506.94zm19.458 3.011c-2.612-1.811-6.093-2.944-9.129-2.944-2.653 0-4.694.886-6.095 2.332-1.533 1.583-2.325 3.862-2.325 6.396 0 2.539.792 4.815 2.325 6.402 1.401 1.443 3.442 2.328 6.095 2.328 2.868 0 6.143-1.015 8.702-2.659 2.467-1.583 4.244-3.74 4.244-6.071 0-2.191-1.58-4.228-3.817-5.784zM468.054 534.612l-19.49.005c-6.518 0-5.75-13.492-5.683-14.393a11.29 11.29 0 0 1 3.327-8.007 11.304 11.304 0 0 1 8.009-3.315h8.271c3.128 0 5.963 1.266 8.017 3.315a11.388 11.388 0 0 1 3.329 8.013c.042.916.713 14.387-5.78 14.382zm-9.705-13.143v-.003a2.533 2.533 0 0 0 1.769-.727 2.534 2.534 0 0 0 .718-1.765 2.481 2.481 0 0 0-2.49-2.493 2.48 2.48 0 0 0-1.759.728h-.009v.005a2.482 2.482 0 0 0-.732 1.76c0 .682.282 1.315.732 1.765h.003a2.5 2.5 0 0 0 1.765.734l.003-.004zm.004-1.272c.326 0 .633-.134.852-.359.214-.215.352-.523.352-.864 0-.34-.132-.649-.346-.87a1.225 1.225 0 0 0-.865-.347c-.343 0-.64.133-.86.347l-.005.006a1.208 1.208 0 0 0-.353.864c0 .336.142.643.354.864l.005.002c.215.216.522.346.854.346l.012-.002v.013zm-.004 9.665c3.142 0 5.994-.936 8.068-2.439 2.155-1.571 3.495-3.767 3.496-6.2 0-2.442-1.341-4.637-3.496-6.212-2.081-1.511-4.935-2.439-8.078-2.439h-.014c-3.135.007-5.981.942-8.061 2.448-2.145 1.571-3.482 3.761-3.484 6.189l.002.014c0 2.439 1.337 4.622 3.499 6.2 2.069 1.505 4.92 2.439 8.06 2.436l.008.003zm0-1.758c2.753-.005 5.242-.813 7.041-2.111 1.698-1.242 2.755-2.933 2.755-4.77 0-1.849-1.057-3.54-2.769-4.787-1.79-1.293-4.274-2.099-7.037-2.099h-.006l-.008-.005c-2.756.005-5.234.811-7.024 2.112-1.694 1.236-2.75 2.93-2.756 4.765l.006.014c-.004 1.84 1.054 3.533 2.756 4.77 1.791 1.293 4.275 2.106 7.032 2.104h.01v.007zm9.699 4.748c4.839 0 4.015-12.525 4.015-12.558l-.008-.064a9.559 9.559 0 0 0-2.791-6.764 9.575 9.575 0 0 0-6.776-2.799h-8.263a9.558 9.558 0 0 0-9.584 9.563l-.002.062c0 .031-.888 12.56 3.93 12.56h19.479zM112.414 416.34V314.751H70.855V416.34h41.559zm-24.819-19.796a4.042 4.042 0 0 1 4.04-4.039c1.112 0 2.122.453 2.853 1.183a4.027 4.027 0 0 1 1.186 2.856 4.027 4.027 0 0 1-1.183 2.854 4.02 4.02 0 0 1-2.857 1.186 4.03 4.03 0 0 1-2.856-1.183 4.029 4.029 0 0 1-1.183-2.857zm2.324-1.714a2.417 2.417 0 0 1 1.715-.709 2.417 2.417 0 0 1 2.424 2.423 2.42 2.42 0 0 1-2.424 2.424 2.42 2.42 0 0 1-2.423-2.424c0-.668.271-1.275.708-1.714zm-17.875 13.843 1.616-71.713c0-10.771 7.204-19.59 17.974-19.59 10.771 0 17.975 8.819 17.975 19.59l1.616 71.713a5.035 5.035 0 0 1-1.483 3.566 5.048 5.048 0 0 1-3.567 1.483H77.094a5.036 5.036 0 0 1-3.563-1.483 5.04 5.04 0 0 1-1.487-3.566zm3.636-71.713c0-9.667 6.287-17.571 15.954-17.571 9.667 0 15.955 7.904 15.955 17.571l1.616 71.713a3.04 3.04 0 0 1-.891 2.142 3.016 3.016 0 0 1-2.139.887H77.094a3.02 3.02 0 0 1-2.143-.891 3.017 3.017 0 0 1-.887-2.138l1.616-71.713zm38.712-22.422v102.015c0 .508-.201.97-.52 1.306-.32.337-.766.546-1.255.546H70.651a1.74 1.74 0 0 1-1.254-.542c-.321-.336-.52-.8-.52-1.31V314.538c0-.51.199-.974.52-1.309a1.756 1.756 0 0 1 1.254-.542h41.966c.487 0 .93.209 1.252.542.323.34.523.802.523 1.309zM404.44 341.558h2.92c.349 0 .632.286.632.633v.611h41.938a.918.918 0 1 1 0 1.837h-41.938v5.007a.636.636 0 0 1-.632.632h-2.92a.633.633 0 0 1-.632-.632v-7.455c0-.348.283-.633.632-.633zM493.693 350.489h-2.921a.633.633 0 0 1-.631-.632v-.611h-41.938a.919.919 0 1 1 0-1.837h41.938v-5.007c0-.346.285-.633.631-.633h2.921c.348 0 .632.284.632.633v7.455a.633.633 0 0 1-.632.632zM291.19 382.815h2.92c.348 0 .632.286.632.633v.611h41.938a.919.919 0 0 1 0 1.837h-41.938v5.007a.636.636 0 0 1-.632.632h-2.92a.633.633 0 0 1-.632-.632v-7.455c0-.349.283-.633.632-.633zM380.443 391.746h-2.921a.633.633 0 0 1-.631-.632v-.611h-41.938a.92.92 0 0 1 0-1.837h41.938v-5.007c0-.346.285-.633.631-.633h2.921c.348 0 .632.284.632.633v7.455a.633.633 0 0 1-.632.632z" fill="#20201F"/><path d="M623.575 256.374c1.505.082 2.648.492 3.429 1.232.794.725 1.191 1.676 1.191 2.854 0 .821-.199 1.553-.596 2.197-.397.629-.986 1.129-1.766 1.499-.78.369-1.731.554-2.854.554a8.81 8.81 0 0 1-2.957-.493c-.917-.342-1.656-.794-2.217-1.355l.719-1.17c.479.492 1.115.896 1.909 1.211a7.124 7.124 0 0 0 2.546.452c1.177 0 2.088-.253 2.731-.76.643-.52.965-1.232.965-2.135 0-.89-.322-1.588-.965-2.095-.643-.506-1.615-.759-2.916-.759h-1.026v-1.089l3.983-4.989H618.4v-1.314h9.24v1.047l-4.065 5.113zm16.585-6.16v1.047l-6.016 13.326h-1.602l5.914-13.059h-7.392v2.69h-1.458v-4.004h10.554zm1.974 14.475c-.301 0-.561-.109-.78-.328a1.125 1.125 0 0 1-.308-.801c0-.315.102-.575.308-.78.219-.219.479-.329.78-.329.301 0 .561.11.78.329.219.205.329.465.329.78s-.11.582-.329.801a1.065 1.065 0 0 1-.78.328zm8.33-8.315c1.506.082 2.649.492 3.429 1.232.794.725 1.191 1.676 1.191 2.854 0 .821-.199 1.553-.596 2.197-.397.629-.985 1.129-1.766 1.499-.78.369-1.731.554-2.854.554a8.8 8.8 0 0 1-2.956-.493c-.918-.342-1.657-.794-2.218-1.355l.719-1.17c.479.492 1.115.896 1.909 1.211a7.124 7.124 0 0 0 2.546.452c1.178 0 2.088-.253 2.731-.76.644-.52.965-1.232.965-2.135 0-.89-.321-1.588-.965-2.095-.643-.506-1.615-.759-2.915-.759h-1.027v-1.089l3.983-4.989h-7.35v-1.314h9.239v1.047l-4.065 5.113zm12.431 8.336c-1.108 0-2.101-.294-2.977-.883-.862-.589-1.54-1.43-2.033-2.525-.479-1.109-.718-2.41-.718-3.902s.239-2.785.718-3.88c.493-1.109 1.171-1.958 2.033-2.546.876-.589 1.869-.883 2.977-.883 1.109 0 2.095.294 2.957.883.876.588 1.561 1.437 2.053 2.546.493 1.095.74 2.388.74 3.88s-.247 2.793-.74 3.902c-.492 1.095-1.177 1.936-2.053 2.525-.862.589-1.848.883-2.957.883zm0-1.355c.835 0 1.568-.233 2.197-.698.644-.466 1.143-1.143 1.499-2.033.356-.89.534-1.964.534-3.224 0-1.259-.178-2.334-.534-3.223-.356-.89-.855-1.568-1.499-2.033-.629-.465-1.362-.698-2.197-.698s-1.574.233-2.217.698c-.63.465-1.123 1.143-1.478 2.033-.356.889-.534 1.964-.534 3.223 0 1.26.178 2.334.534 3.224.355.89.848 1.567 1.478 2.033.643.465 1.382.698 2.217.698zM623.955 285.27c.944 0 1.779.178 2.505.534a4.054 4.054 0 0 1 1.725 1.519c.41.643.616 1.396.616 2.259 0 .876-.213 1.649-.637 2.32a4.25 4.25 0 0 1-1.766 1.56c-.739.356-1.574.534-2.505.534-1.902 0-3.36-.623-4.373-1.868-1.013-1.26-1.52-3.032-1.52-5.318 0-1.602.274-2.957.822-4.066.547-1.109 1.314-1.944 2.299-2.505.986-.575 2.136-.862 3.45-.862 1.423 0 2.56.26 3.408.78l-.595 1.191c-.685-.452-1.615-.678-2.793-.678-1.588 0-2.833.507-3.737 1.52-.903.999-1.355 2.457-1.355 4.373 0 .342.021.733.062 1.171.356-.781.924-1.383 1.704-1.807.78-.438 1.677-.657 2.69-.657zm-.123 7.474c1.04 0 1.882-.281 2.525-.842.657-.575.986-1.335.986-2.279 0-.945-.329-1.698-.986-2.259-.643-.561-1.519-.842-2.628-.842-.726 0-1.369.137-1.93.411-.548.274-.979.65-1.294 1.129a2.852 2.852 0 0 0-.472 1.602c0 .547.144 1.054.431 1.519.301.466.739.842 1.314 1.129.575.288 1.26.432 2.054.432zm14.914-6.407c.904.302 1.595.753 2.074 1.356.493.602.739 1.327.739 2.176 0 .835-.226 1.567-.677 2.197-.452.616-1.102 1.095-1.951 1.437-.835.329-1.821.493-2.957.493-1.725 0-3.08-.369-4.065-1.109-.986-.739-1.479-1.745-1.479-3.018 0-.862.233-1.588.698-2.176.48-.603 1.171-1.054 2.074-1.356-.739-.287-1.3-.698-1.683-1.232-.384-.547-.575-1.19-.575-1.93 0-1.163.451-2.087 1.355-2.772.917-.684 2.142-1.026 3.675-1.026 1.013 0 1.896.157 2.649.472.767.301 1.362.739 1.786 1.314.425.575.637 1.246.637 2.012 0 .74-.199 1.383-.596 1.93-.397.534-.965.945-1.704 1.232zm-6.324-3.121c0 .794.315 1.424.945 1.889.629.466 1.498.699 2.607.699 1.109 0 1.978-.233 2.608-.699.643-.465.965-1.088.965-1.868 0-.808-.329-1.444-.986-1.91-.643-.465-1.505-.698-2.587-.698-1.095 0-1.964.233-2.607.698-.63.466-.945 1.095-.945 1.889zm3.552 9.528c1.273 0 2.266-.26 2.977-.781.726-.52 1.089-1.225 1.089-2.115 0-.889-.363-1.587-1.089-2.094-.711-.52-1.704-.78-2.977-.78-1.259 0-2.252.26-2.977.78-.712.507-1.068 1.205-1.068 2.094 0 .904.356 1.616 1.068 2.136.712.506 1.704.76 2.977.76zm8.941 1.232c-.301 0-.561-.11-.78-.329a1.13 1.13 0 0 1-.308-.801c0-.315.103-.575.308-.78.219-.219.479-.328.78-.328.302 0 .562.109.781.328.219.205.328.465.328.78s-.109.582-.328.801a1.067 1.067 0 0 1-.781.329zM658.06 279.5v1.047l-6.016 13.326h-1.601l5.913-13.059h-7.392v2.69h-1.457V279.5h10.553zm6.424-.123c1.903 0 3.361.629 4.374 1.889 1.013 1.245 1.519 3.011 1.519 5.297 0 1.602-.273 2.957-.821 4.066-.547 1.109-1.314 1.95-2.3 2.525-.985.562-2.135.842-3.449.842-1.424 0-2.56-.26-3.409-.78l.596-1.191c.684.452 1.615.678 2.792.678 1.588 0 2.834-.5 3.737-1.499.904-1.013 1.356-2.478 1.356-4.394 0-.356-.021-.746-.062-1.171-.356.781-.924 1.39-1.704 1.828-.781.424-1.677.636-2.69.636-.945 0-1.786-.178-2.526-.534a4.131 4.131 0 0 1-1.704-1.499c-.411-.657-.616-1.416-.616-2.279 0-.876.212-1.649.637-2.32a4.144 4.144 0 0 1 1.745-1.54c.753-.369 1.595-.554 2.525-.554zm.165 7.474c.725 0 1.362-.137 1.909-.411.562-.274 1-.65 1.314-1.129a2.853 2.853 0 0 0 .473-1.602c0-.547-.151-1.054-.452-1.519-.288-.466-.719-.842-1.294-1.13-.575-.287-1.259-.431-2.053-.431-1.04 0-1.889.288-2.546.863-.643.561-.965 1.314-.965 2.258 0 .945.322 1.698.965 2.259.657.561 1.54.842 2.649.842zM633.235 308.786v1.047l-6.016 13.326h-1.601l5.913-13.059h-7.392v2.69h-1.458v-4.004h10.554zm6.132 0v14.373h-1.478V310.1h-3.388v-1.314h4.866zm4.545 14.475c-.302 0-.562-.109-.781-.328a1.13 1.13 0 0 1-.308-.801c0-.315.103-.575.308-.78.219-.219.479-.329.781-.329.301 0 .561.11.78.329.219.205.328.465.328.78s-.109.582-.328.801a1.065 1.065 0 0 1-.78.328zm6.985-14.475v14.373h-1.479V310.1h-3.388v-1.314h4.867zm11.669 6.837c.904.301 1.595.753 2.074 1.355.493.602.739 1.328.739 2.177 0 .835-.226 1.567-.677 2.197-.452.616-1.102 1.095-1.951 1.437-.835.329-1.821.493-2.957.493-1.725 0-3.08-.37-4.065-1.109-.986-.739-1.479-1.745-1.479-3.018 0-.863.233-1.588.698-2.177.48-.602 1.171-1.054 2.074-1.355-.739-.287-1.3-.698-1.683-1.232-.384-.547-.575-1.191-.575-1.93 0-1.164.451-2.088 1.355-2.772.917-.684 2.142-1.027 3.675-1.027 1.013 0 1.896.158 2.649.473.766.301 1.362.739 1.786 1.314.425.575.637 1.245.637 2.012 0 .739-.199 1.383-.596 1.93-.397.534-.965.945-1.704 1.232zm-6.324-3.121c0 .794.315 1.424.945 1.889.629.465 1.498.698 2.607.698 1.109 0 1.978-.233 2.608-.698.643-.465.965-1.088.965-1.868 0-.808-.329-1.445-.986-1.91-.643-.465-1.505-.698-2.587-.698-1.095 0-1.964.233-2.607.698-.63.465-.945 1.095-.945 1.889zm3.552 9.527c1.273 0 2.266-.26 2.977-.78.726-.52 1.089-1.225 1.089-2.115 0-.89-.363-1.588-1.089-2.094-.711-.52-1.704-.78-2.977-.78-1.259 0-2.252.26-2.977.78-.712.506-1.068 1.204-1.068 2.094 0 .904.356 1.615 1.068 2.136.712.506 1.704.759 2.977.759zM589.614 302.411V310h-30.413v-6.037l15.523-14.66c1.648-1.572 2.759-2.913 3.334-4.025.575-1.149.863-2.28.863-3.392 0-1.609-.556-2.836-1.668-3.679-1.073-.882-2.663-1.322-4.771-1.322-1.764 0-3.354.345-4.772 1.035-1.418.651-2.607 1.648-3.565 2.989l-6.784-4.369c1.572-2.338 3.737-4.159 6.497-5.462 2.759-1.341 5.921-2.012 9.486-2.012 2.989 0 5.596.498 7.819 1.495 2.261.958 4.005 2.338 5.232 4.139 1.264 1.763 1.897 3.852 1.897 6.267 0 2.184-.46 4.235-1.38 6.151-.92 1.917-2.702 4.101-5.347 6.554l-9.256 8.739h17.305zM606.047 239h-2.126v101.095h2.126V239z" fill="#20201F"/><path d="M575.418 438.301h-5.667v8.418h-3.183v-11.047h8.85v2.629zm6.41 8.582c-1.163 0-2.21-.239-3.141-.718a5.513 5.513 0 0 1-2.156-2.033c-.52-.862-.78-1.841-.78-2.936s.26-2.074.78-2.936a5.36 5.36 0 0 1 2.156-2.013c.931-.492 1.978-.739 3.141-.739 1.164 0 2.204.247 3.121.739a5.354 5.354 0 0 1 2.156 2.013c.521.862.781 1.841.781 2.936s-.26 2.074-.781 2.936a5.507 5.507 0 0 1-2.156 2.033c-.917.479-1.957.718-3.121.718zm0-2.628c.822 0 1.493-.274 2.013-.821.534-.561.8-1.307.8-2.238s-.266-1.67-.8-2.218c-.52-.561-1.191-.842-2.013-.842-.821 0-1.498.281-2.032.842-.534.548-.801 1.287-.801 2.218s.267 1.677.801 2.238c.534.547 1.211.821 2.032.821zm13.517 2.628c-1.177 0-2.238-.239-3.182-.718a5.62 5.62 0 0 1-2.197-2.033c-.521-.862-.781-1.841-.781-2.936s.26-2.074.781-2.936a5.465 5.465 0 0 1 2.197-2.013c.944-.492 2.005-.739 3.182-.739 1.164 0 2.177.247 3.039.739a4.263 4.263 0 0 1 1.91 2.074l-2.485 1.335c-.575-1.013-1.403-1.52-2.484-1.52-.835 0-1.527.274-2.074.822-.548.547-.821 1.293-.821 2.238 0 .944.273 1.69.821 2.238.547.547 1.239.821 2.074.821 1.095 0 1.923-.506 2.484-1.519l2.485 1.355c-.397.876-1.034 1.56-1.91 2.053-.862.493-1.875.739-3.039.739zm16.136-8.582h-3.737v8.418h-3.183v-8.418h-3.737v-2.629h10.657v2.629zm1.707-2.629h3.183v6.571l5.379-6.571h2.937v11.047h-3.183v-6.57l-5.359 6.57h-2.957v-11.047zm14.578 0h3.182v4.312h4.805v-4.312h3.203v11.047h-3.203v-4.127h-4.805v4.127h-3.182v-11.047zm18.548-.164c1.711 0 3.025.411 3.942 1.232.917.808 1.376 2.033 1.376 3.676v6.303h-2.998v-1.376c-.602 1.027-1.725 1.54-3.368 1.54-.848 0-1.587-.143-2.217-.431-.616-.287-1.088-.684-1.417-1.191a3.101 3.101 0 0 1-.493-1.724c0-1.027.384-1.835 1.15-2.423.78-.589 1.978-.883 3.593-.883h2.547c0-.698-.213-1.232-.637-1.602-.424-.383-1.061-.575-1.91-.575-.588 0-1.17.096-1.745.288a4.452 4.452 0 0 0-1.437.739l-1.15-2.238c.602-.425 1.321-.753 2.156-.986a9.848 9.848 0 0 1 2.608-.349zm-.247 9.219c.548 0 1.034-.123 1.458-.369.424-.26.726-.637.904-1.129v-1.13h-2.197c-1.315 0-1.972.431-1.972 1.294 0 .41.158.739.473.985.328.233.773.349 1.334.349zm18.162-9.055v11.047h-2.854v-3.162h-2.361l-2.095 3.162h-3.408l2.525-3.614c-.766-.301-1.355-.732-1.766-1.293-.397-.575-.595-1.266-.595-2.074 0-1.3.465-2.3 1.396-2.998.945-.712 2.238-1.068 3.881-1.068h5.277zm-5.215 2.608c-.685 0-1.205.123-1.561.37-.342.246-.513.643-.513 1.191 0 .547.164.951.493 1.211.342.246.855.37 1.539.37h2.403v-3.142h-2.361zM595.056 461.632v14.373h-3.327v-11.704h-2.874v-2.669h6.201zm7.547-.247c2.013 0 3.587.616 4.723 1.848 1.136 1.219 1.704 2.978 1.704 5.277 0 1.629-.308 3.025-.924 4.189-.602 1.164-1.458 2.046-2.566 2.649-1.109.602-2.389.903-3.84.903a9.575 9.575 0 0 1-2.197-.246c-.698-.178-1.294-.425-1.786-.739l1.232-2.444c.698.479 1.594.719 2.689.719 1.219 0 2.184-.356 2.896-1.068.711-.725 1.095-1.766 1.149-3.121-.862.863-2.053 1.294-3.572 1.294-.917 0-1.752-.185-2.505-.555a4.396 4.396 0 0 1-1.787-1.56c-.438-.685-.657-1.472-.657-2.361 0-.959.24-1.8.719-2.526a4.628 4.628 0 0 1 1.951-1.663c.835-.397 1.759-.596 2.771-.596zm.247 6.776c.725 0 1.314-.198 1.766-.595.465-.411.698-.931.698-1.561 0-.629-.226-1.143-.678-1.54-.438-.397-1.047-.595-1.827-.595-.712 0-1.294.192-1.745.575-.439.383-.658.903-.658 1.56s.219 1.184.658 1.581c.451.384 1.047.575 1.786.575zm9.404 8.008a1.925 1.925 0 0 1-1.416-.575c-.384-.383-.575-.862-.575-1.437 0-.589.191-1.061.575-1.417.383-.37.855-.554 1.416-.554.562 0 1.034.184 1.417.554.383.356.575.828.575 1.417 0 .575-.192 1.054-.575 1.437a1.925 1.925 0 0 1-1.417.575zm8.536-14.784c2.012 0 3.587.616 4.723 1.848 1.136 1.219 1.704 2.978 1.704 5.277 0 1.629-.308 3.025-.924 4.189-.602 1.164-1.458 2.046-2.567 2.649-1.108.602-2.388.903-3.839.903a9.575 9.575 0 0 1-2.197-.246c-.698-.178-1.294-.425-1.787-.739l1.232-2.444c.699.479 1.595.719 2.69.719 1.218 0 2.184-.356 2.895-1.068.712-.725 1.095-1.766 1.15-3.121-.862.863-2.053 1.294-3.573 1.294-.917 0-1.752-.185-2.505-.555a4.4 4.4 0 0 1-1.786-1.56c-.438-.685-.657-1.472-.657-2.361 0-.959.24-1.8.719-2.526a4.63 4.63 0 0 1 1.95-1.663c.835-.397 1.759-.596 2.772-.596zm.247 6.776c.725 0 1.314-.198 1.765-.595a1.99 1.99 0 0 0 .699-1.561c0-.629-.226-1.143-.678-1.54-.438-.397-1.047-.595-1.827-.595-.712 0-1.294.192-1.746.575-.438.383-.657.903-.657 1.56s.219 1.184.657 1.581c.452.384 1.047.575 1.787.575zm17.611.288c.712.356 1.252.821 1.622 1.396.383.575.575 1.239.575 1.992 0 .889-.253 1.67-.76 2.34-.506.657-1.218 1.171-2.135 1.54-.917.356-1.978.534-3.183.534-1.204 0-2.265-.178-3.182-.534-.904-.369-1.609-.883-2.115-1.54-.493-.67-.739-1.451-.739-2.34 0-.753.184-1.417.554-1.992.383-.575.924-1.04 1.622-1.396a3.543 3.543 0 0 1-1.232-1.232c-.287-.507-.431-1.082-.431-1.725 0-.835.233-1.561.698-2.177.465-.615 1.116-1.088 1.951-1.416.835-.342 1.793-.514 2.874-.514 1.095 0 2.06.172 2.895.514.849.328 1.506.801 1.972 1.416.465.616.698 1.342.698 2.177 0 .643-.144 1.218-.432 1.725-.287.493-.704.903-1.252 1.232zm-3.881-4.62c-.67 0-1.211.164-1.622.493-.397.314-.595.752-.595 1.314 0 .547.198.978.595 1.293.397.315.938.473 1.622.473.685 0 1.232-.158 1.643-.473.411-.315.616-.746.616-1.293 0-.562-.205-1-.616-1.314-.411-.329-.958-.493-1.643-.493zm0 9.979c.835 0 1.492-.185 1.971-.555.493-.383.74-.889.74-1.519 0-.63-.247-1.129-.74-1.499-.479-.37-1.136-.554-1.971-.554-.821 0-1.471.184-1.95.554-.479.37-.719.869-.719 1.499 0 .643.24 1.15.719 1.519.479.37 1.129.555 1.95.555z" fill="#000"/><path d="M338.246 185.065c-1.178 0-2.238-.24-3.183-.719a5.617 5.617 0 0 1-2.197-2.032c-.52-.863-.78-1.841-.78-2.937 0-1.095.26-2.073.78-2.936a5.476 5.476 0 0 1 2.197-2.012c.945-.493 2.005-.739 3.183-.739 1.163 0 2.176.246 3.038.739a4.259 4.259 0 0 1 1.91 2.074l-2.484 1.334c-.575-1.012-1.404-1.519-2.485-1.519-.835 0-1.526.274-2.074.821-.547.548-.821 1.294-.821 2.238 0 .945.274 1.691.821 2.239.548.547 1.239.821 2.074.821 1.095 0 1.923-.507 2.485-1.52l2.484 1.356c-.397.876-1.034 1.56-1.91 2.053-.862.493-1.875.739-3.038.739zm17.879-11.211v11.047h-3.203v-8.419h-4.599v8.419h-3.183v-11.047h10.985zm7.363-.164c1.711 0 3.025.411 3.942 1.232.917.807 1.376 2.033 1.376 3.675v6.304h-2.998v-1.376c-.602 1.027-1.725 1.54-3.367 1.54-.849 0-1.588-.144-2.218-.431-.616-.288-1.088-.685-1.417-1.191a3.104 3.104 0 0 1-.492-1.725c0-1.026.383-1.834 1.149-2.423.781-.588 1.978-.883 3.594-.883h2.546c0-.698-.212-1.232-.637-1.601-.424-.383-1.061-.575-1.909-.575-.589 0-1.171.096-1.746.287a4.454 4.454 0 0 0-1.437.74l-1.15-2.239c.603-.424 1.321-.752 2.156-.985a9.807 9.807 0 0 1 2.608-.349zm-.246 9.219c.547 0 1.033-.123 1.457-.37.425-.26.726-.636.904-1.129v-1.129h-2.197c-1.314 0-1.971.431-1.971 1.293 0 .411.157.74.472.986.328.233.773.349 1.335.349zm18.941-9.055v11.047h-3.203v-8.419h-3.49l-.103 1.951c-.055 1.451-.192 2.655-.411 3.614-.219.958-.575 1.711-1.067 2.258-.493.548-1.178.822-2.054.822-.465 0-1.019-.083-1.663-.247l.164-2.628c.219.027.377.041.473.041.479 0 .835-.171 1.067-.513.247-.356.411-.801.493-1.335a21.95 21.95 0 0 0 .185-2.156l.164-4.435h9.445zm9.056 3.532c1.437.013 2.539.342 3.305.985.767.63 1.15 1.527 1.15 2.69 0 1.218-.431 2.17-1.293 2.854-.849.671-2.047 1.006-3.594 1.006l-5.543-.02v-11.047h3.182v3.532h2.793zm-.719 5.256c.616.014 1.088-.116 1.417-.39.328-.274.493-.684.493-1.232 0-.534-.165-.924-.493-1.17-.315-.247-.787-.377-1.417-.39l-2.074-.021v3.203h2.074zm7.176-8.788h3.182v4.312h4.805v-4.312h3.203v11.047h-3.203v-4.127h-4.805v4.127h-3.182v-11.047zm24.071 0v11.047h-2.854v-3.162h-2.361l-2.095 3.162h-3.408l2.525-3.614c-.766-.301-1.355-.732-1.765-1.294-.397-.575-.596-1.266-.596-2.073 0-1.301.465-2.3 1.396-2.998.945-.712 2.238-1.068 3.881-1.068h5.277zm-5.215 2.608c-.685 0-1.205.123-1.561.369-.342.247-.513.644-.513 1.191 0 .548.164.952.493 1.212.342.246.855.369 1.54.369h2.402v-3.141h-2.361zM357.654 199.813v14.373h-3.326v-11.703h-2.875v-2.67h6.201zm13.749 0v2.156l-5.339 12.217h-3.613l5.153-11.662h-4.763v2.341h-2.957v-5.052h11.519zm2.367 14.538a1.928 1.928 0 0 1-1.417-.575c-.383-.384-.574-.863-.574-1.438 0-.588.191-1.06.574-1.416.384-.37.856-.555 1.417-.555s1.034.185 1.417.555c.383.356.575.828.575 1.416 0 .575-.192 1.054-.575 1.438a1.927 1.927 0 0 1-1.417.575zm14.424-2.875v2.71h-10.862v-2.156l5.544-5.235c.589-.562.986-1.041 1.191-1.438.205-.41.308-.814.308-1.211 0-.575-.198-1.013-.595-1.314-.384-.315-.952-.472-1.705-.472-.629 0-1.197.123-1.704.369a3.186 3.186 0 0 0-1.273 1.068l-2.423-1.561c.562-.835 1.335-1.485 2.32-1.95.986-.479 2.115-.719 3.388-.719 1.068 0 1.999.178 2.793.534.807.342 1.43.835 1.868 1.478.452.63.678 1.376.678 2.238 0 .781-.164 1.513-.493 2.197-.328.685-.965 1.465-1.909 2.341l-3.306 3.121h6.18zm11.208-4.846c.712.356 1.252.822 1.622 1.397.383.574.575 1.238.575 1.991 0 .89-.253 1.67-.76 2.341-.506.657-1.218 1.17-2.135 1.54-.917.356-1.978.534-3.183.534-1.204 0-2.265-.178-3.182-.534-.904-.37-1.609-.883-2.115-1.54-.493-.671-.739-1.451-.739-2.341 0-.753.184-1.417.554-1.991.383-.575.924-1.041 1.622-1.397a3.534 3.534 0 0 1-1.232-1.232c-.287-.506-.431-1.081-.431-1.724 0-.835.233-1.561.698-2.177.465-.616 1.116-1.088 1.951-1.417.835-.342 1.793-.513 2.874-.513 1.095 0 2.06.171 2.895.513.849.329 1.506.801 1.971 1.417.466.616.699 1.342.699 2.177 0 .643-.144 1.218-.432 1.724-.287.493-.705.904-1.252 1.232zm-3.881-4.62c-.671 0-1.211.165-1.622.493-.397.315-.595.753-.595 1.314 0 .548.198.979.595 1.294.397.315.938.472 1.622.472.685 0 1.232-.157 1.643-.472.41-.315.616-.746.616-1.294 0-.561-.206-.999-.616-1.314-.411-.328-.958-.493-1.643-.493zm0 9.979c.835 0 1.492-.184 1.971-.554.493-.383.74-.89.74-1.519 0-.63-.247-1.13-.74-1.499-.479-.37-1.136-.555-1.971-.555-.821 0-1.471.185-1.95.555-.48.369-.719.869-.719 1.499 0 .643.239 1.149.719 1.519.479.37 1.129.554 1.95.554zM153.298 180.548h-1.663v4.189h-3.203V173.69h3.203v4.291h1.725l2.997-4.291h3.409l-3.86 5.298 4.127 5.749h-3.778l-2.957-4.189zm18.753-6.858-4.989 11.724c-.507 1.273-1.136 2.17-1.889 2.69-.739.52-1.636.78-2.69.78a5.603 5.603 0 0 1-1.704-.267c-.561-.178-1.02-.424-1.376-.739l1.17-2.279a2.783 2.783 0 0 0 1.807.698c.438 0 .794-.109 1.068-.328.274-.206.52-.555.739-1.048l.041-.102-4.784-11.129h3.306l3.1 7.495 3.121-7.495h3.08zm7.864 11.047-2.423-3.388-2.505 3.388h-3.49l4.25-5.565-4.107-5.482h3.594l2.34 3.224 2.403-3.224h3.408l-4.107 5.4 4.271 5.647h-3.634zm5.211-11.047h3.183v4.312h4.804v-4.312h3.204v11.047h-3.204v-4.127h-4.804v4.127h-3.183V173.69zm24.072 0v11.047h-2.855v-3.162h-2.361l-2.094 3.162h-3.409l2.526-3.614c-.767-.301-1.355-.732-1.766-1.294-.397-.575-.595-1.266-.595-2.073 0-1.301.465-2.3 1.396-2.998.944-.712 2.238-1.068 3.881-1.068h5.277zm-5.216 2.608c-.684 0-1.204.123-1.56.369-.343.247-.514.644-.514 1.191 0 .548.165.952.493 1.212.342.246.856.369 1.54.369h2.402v-3.141h-2.361zM164.488 199.649v14.373h-3.326v-11.703h-2.874v-2.67h6.2zm9.211 5.852c1.26.206 2.225.678 2.896 1.417.67.725 1.006 1.629 1.006 2.71 0 .835-.219 1.609-.657 2.321-.438.698-1.109 1.259-2.013 1.683-.889.425-1.984.637-3.285.637-1.013 0-2.012-.13-2.998-.39-.971-.274-1.8-.657-2.484-1.15l1.294-2.546c.547.41 1.177.732 1.889.965a7.626 7.626 0 0 0 2.217.328c.835 0 1.492-.157 1.971-.472.479-.329.719-.787.719-1.376 0-1.177-.897-1.766-2.69-1.766h-1.519v-2.197l2.956-3.346h-6.118v-2.67h10.061v2.156l-3.245 3.696zm7.327 8.686a1.925 1.925 0 0 1-1.417-.575c-.384-.384-.575-.863-.575-1.438 0-.588.191-1.06.575-1.416.383-.37.855-.555 1.417-.555.561 0 1.033.185 1.416.555.384.356.575.828.575 1.416 0 .575-.191 1.054-.575 1.438a1.925 1.925 0 0 1-1.416.575zm8.707-14.538v14.373h-3.326v-11.703h-2.875v-2.67h6.201zm8.041 0v14.373h-3.326v-11.703h-2.875v-2.67h6.201zM334.072 418.351l-3.006-3.96-3.024 3.96h-1.44l3.744-4.86-3.564-4.608h1.44l2.844 3.708 2.844-3.708h1.404l-3.564 4.608 3.78 4.86h-1.458zm7.125.09c-.912 0-1.734-.204-2.466-.612a4.594 4.594 0 0 1-1.728-1.728c-.42-.732-.63-1.56-.63-2.484 0-.924.21-1.752.63-2.484a4.465 4.465 0 0 1 1.728-1.71c.732-.408 1.554-.612 2.466-.612.912 0 1.734.204 2.466.612a4.34 4.34 0 0 1 1.71 1.71c.42.732.63 1.56.63 2.484 0 .924-.21 1.752-.63 2.484a4.465 4.465 0 0 1-1.71 1.728c-.732.408-1.554.612-2.466.612zm0-1.134c.672 0 1.272-.15 1.8-.45.54-.312.96-.75 1.26-1.314.3-.564.45-1.206.45-1.926s-.15-1.362-.45-1.926c-.3-.564-.72-.996-1.26-1.296-.528-.312-1.128-.468-1.8-.468-.672 0-1.278.156-1.818.468-.528.3-.948.732-1.26 1.296-.3.564-.45 1.206-.45 1.926s.15 1.362.45 1.926a3.406 3.406 0 0 0 1.26 1.314c.54.3 1.146.45 1.818.45zm15.224-8.424v9.468h-1.278v-8.334h-4.536l-.126 2.34c-.096 1.968-.324 3.48-.684 4.536-.36 1.056-1.002 1.584-1.926 1.584-.252 0-.558-.048-.918-.144l.09-1.098c.216.048.366.072.45.072.492 0 .864-.228 1.116-.684.252-.456.42-1.02.504-1.692.084-.672.156-1.56.216-2.664l.162-3.384h6.93zm11.373 0v9.468h-1.278v-8.334h-4.536l-.126 2.34c-.096 1.968-.324 3.48-.684 4.536-.36 1.056-1.002 1.584-1.926 1.584-.252 0-.558-.048-.918-.144l.09-1.098c.216.048.366.072.45.072.492 0 .864-.228 1.116-.684.252-.456.42-1.02.504-1.692.084-.672.156-1.56.216-2.664l.162-3.384h6.93zM336.583 434.929c1.668 0 2.946.552 3.834 1.656.888 1.092 1.332 2.64 1.332 4.644 0 1.404-.24 2.592-.72 3.564s-1.152 1.71-2.016 2.214c-.864.492-1.872.738-3.024.738-1.248 0-2.244-.228-2.988-.684l.522-1.044c.6.396 1.416.594 2.448.594 1.392 0 2.484-.438 3.276-1.314.792-.888 1.188-2.172 1.188-3.852 0-.312-.018-.654-.054-1.026a3.445 3.445 0 0 1-1.494 1.602c-.684.372-1.47.558-2.358.558-.828 0-1.566-.156-2.214-.468a3.62 3.62 0 0 1-1.494-1.314c-.36-.576-.54-1.242-.54-1.998 0-.768.186-1.446.558-2.034a3.635 3.635 0 0 1 1.53-1.35c.66-.324 1.398-.486 2.214-.486zm.144 6.552c.636 0 1.194-.12 1.674-.36.492-.24.876-.57 1.152-.99.276-.42.414-.888.414-1.404 0-.48-.132-.924-.396-1.332-.252-.408-.63-.738-1.134-.99-.504-.252-1.104-.378-1.8-.378-.912 0-1.656.252-2.232.756-.564.492-.846 1.152-.846 1.98 0 .828.282 1.488.846 1.98.576.492 1.35.738 2.322.738zm7.679 6.246a.934.934 0 0 1-.684-.288.989.989 0 0 1-.27-.702c0-.276.09-.504.27-.684a.934.934 0 0 1 .684-.288c.264 0 .492.096.684.288.192.18.288.408.288.684 0 .276-.096.51-.288.702a.934.934 0 0 1-.684.288zm13.324-3.402h-2.52v3.312h-1.296v-3.312h-7.11v-.936l6.678-8.352h1.44l-6.444 8.136h5.472v-2.916h1.26v2.916h2.52v1.152zm4.225-9.288v12.6h-1.296v-11.448h-2.97v-1.152h4.266zM577.558 95.823v9.468h-1.278v-8.334h-4.536l-.126 2.34c-.096 1.968-.324 3.48-.684 4.536-.36 1.056-1.002 1.584-1.926 1.584-.252 0-.558-.048-.918-.144l.09-1.098c.216.048.366.072.45.072.492 0 .864-.228 1.116-.684.252-.456.42-1.02.504-1.692.084-.672.156-1.56.216-2.664l.162-3.384h6.93zm7.539 9.558c-.912 0-1.734-.204-2.466-.612a4.594 4.594 0 0 1-1.728-1.728c-.42-.732-.63-1.56-.63-2.484 0-.924.21-1.752.63-2.484a4.465 4.465 0 0 1 1.728-1.71c.732-.408 1.554-.612 2.466-.612.912 0 1.734.204 2.466.612a4.34 4.34 0 0 1 1.71 1.71c.42.732.63 1.56.63 2.484 0 .924-.21 1.752-.63 2.484a4.465 4.465 0 0 1-1.71 1.728c-.732.408-1.554.612-2.466.612zm0-1.134c.672 0 1.272-.15 1.8-.45.54-.312.96-.75 1.26-1.314.3-.564.45-1.206.45-1.926s-.15-1.362-.45-1.926c-.3-.564-.72-.996-1.26-1.296-.528-.312-1.128-.468-1.8-.468-.672 0-1.278.156-1.818.468-.528.3-.948.732-1.26 1.296-.3.564-.45 1.206-.45 1.926s.15 1.362.45 1.926a3.406 3.406 0 0 0 1.26 1.314c.54.3 1.146.45 1.818.45zm16.719-.072v3.402h-1.206v-2.286h-8.478v2.286h-1.206v-3.402h.54c.636-.036 1.068-.504 1.296-1.404.228-.9.384-2.16.468-3.78l.126-3.168h6.984v8.352h1.476zm-7.416-5.112c-.06 1.344-.174 2.454-.342 3.33-.168.864-.468 1.458-.9 1.782h5.904v-7.218h-4.554l-.108 2.106zm18.205 2.016h-2.052v4.212h-1.278v-4.212h-2.052l-2.898 4.212h-1.53l3.402-4.878-3.132-4.59h1.386l2.772 4.158h2.052v-4.158h1.278v4.158h2.052l2.79-4.158h1.386l-3.132 4.608 3.402 4.86h-1.53l-2.916-4.212zm6.573-5.256h1.278v7.524l6.318-7.524h1.134v9.468h-1.278v-7.524l-6.3 7.524h-1.152v-9.468zm19.665 0v9.468h-1.17v-3.132h-3.33l-2.196 3.132h-1.386l2.358-3.312c-.732-.204-1.296-.552-1.692-1.044-.396-.492-.594-1.116-.594-1.872 0-1.056.36-1.86 1.08-2.412.72-.552 1.704-.828 2.952-.828h3.978zm-6.714 3.276c0 1.404.894 2.106 2.682 2.106h2.862v-4.248h-2.772c-1.848 0-2.772.714-2.772 2.142zM596.646 131.265h-2.52v3.312h-1.296v-3.312h-7.11v-.936l6.678-8.352h1.44l-6.444 8.136h5.472v-2.916h1.26v2.916h2.52v1.152zm2.514 3.402a.934.934 0 0 1-.684-.288.989.989 0 0 1-.27-.702c0-.276.09-.504.27-.684a.934.934 0 0 1 .684-.288c.264 0 .492.096.684.288.192.18.288.408.288.684 0 .276-.096.51-.288.702a.934.934 0 0 1-.684.288zm7.869-7.632c.828 0 1.56.156 2.196.468a3.556 3.556 0 0 1 1.512 1.332c.36.564.54 1.224.54 1.98 0 .768-.186 1.446-.558 2.034a3.733 3.733 0 0 1-1.548 1.368c-.648.312-1.38.468-2.196.468-1.668 0-2.946-.546-3.834-1.638-.888-1.104-1.332-2.658-1.332-4.662 0-1.404.24-2.592.72-3.564s1.152-1.704 2.016-2.196c.864-.504 1.872-.756 3.024-.756 1.248 0 2.244.228 2.988.684l-.522 1.044c-.6-.396-1.416-.594-2.448-.594-1.392 0-2.484.444-3.276 1.332-.792.876-1.188 2.154-1.188 3.834 0 .3.018.642.054 1.026a3.351 3.351 0 0 1 1.494-1.584c.684-.384 1.47-.576 2.358-.576zm-.108 6.552c.912 0 1.65-.246 2.214-.738.576-.504.864-1.17.864-1.998 0-.828-.288-1.488-.864-1.98-.564-.492-1.332-.738-2.304-.738-.636 0-1.2.12-1.692.36-.48.24-.858.57-1.134.99-.276.42-.414.888-.414 1.404 0 .48.126.924.378 1.332.264.408.648.738 1.152.99.504.252 1.104.378 1.8.378zm16.567-2.322h-2.52v3.312h-1.296v-3.312h-7.11v-.936l6.678-8.352h1.44l-6.444 8.136h5.472v-2.916h1.26v2.916h2.52v1.152zM121.204 467.996c.828 0 1.56.156 2.196.468a3.556 3.556 0 0 1 1.512 1.332c.36.564.54 1.224.54 1.98 0 .768-.186 1.446-.558 2.034a3.733 3.733 0 0 1-1.548 1.368c-.648.312-1.38.468-2.196.468-1.668 0-2.946-.546-3.834-1.638-.888-1.104-1.332-2.658-1.332-4.662 0-1.404.24-2.592.72-3.564s1.152-1.704 2.016-2.196c.864-.504 1.872-.756 3.024-.756 1.248 0 2.244.228 2.988.684l-.522 1.044c-.6-.396-1.416-.594-2.448-.594-1.392 0-2.484.444-3.276 1.332-.792.876-1.188 2.154-1.188 3.834 0 .3.018.642.054 1.026a3.351 3.351 0 0 1 1.494-1.584c.684-.384 1.47-.576 2.358-.576zm-.108 6.552c.912 0 1.65-.246 2.214-.738.576-.504.864-1.17.864-1.998 0-.828-.288-1.488-.864-1.98-.564-.492-1.332-.738-2.304-.738-.636 0-1.2.12-1.692.36-.48.24-.858.57-1.134.99-.276.42-.414.888-.414 1.404 0 .48.126.924.378 1.332.264.408.648.738 1.152.99.504.252 1.104.378 1.8.378zm7.005 1.08a.934.934 0 0 1-.684-.288.989.989 0 0 1-.27-.702c0-.276.09-.504.27-.684a.934.934 0 0 1 .684-.288c.264 0 .492.096.684.288.192.18.288.408.288.684 0 .276-.096.51-.288.702a.934.934 0 0 1-.684.288zm7.671.018c-.972 0-1.842-.258-2.61-.774-.756-.516-1.35-1.254-1.782-2.214-.42-.972-.63-2.112-.63-3.42 0-1.308.21-2.442.63-3.402.432-.972 1.026-1.716 1.782-2.232.768-.516 1.638-.774 2.61-.774s1.836.258 2.592.774c.768.516 1.368 1.26 1.8 2.232.432.96.648 2.094.648 3.402 0 1.308-.216 2.448-.648 3.42-.432.96-1.032 1.698-1.8 2.214-.756.516-1.62.774-2.592.774zm0-1.188c.732 0 1.374-.204 1.926-.612.564-.408 1.002-1.002 1.314-1.782.312-.78.468-1.722.468-2.826s-.156-2.046-.468-2.826c-.312-.78-.75-1.374-1.314-1.782-.552-.408-1.194-.612-1.926-.612s-1.38.204-1.944.612c-.552.408-.984 1.002-1.296 1.782-.312.78-.468 1.722-.468 2.826s.156 2.046.468 2.826c.312.78.744 1.374 1.296 1.782a3.231 3.231 0 0 0 1.944.612zm12.116-6.462c.828 0 1.56.156 2.196.468a3.556 3.556 0 0 1 1.512 1.332c.36.564.54 1.224.54 1.98 0 .768-.186 1.446-.558 2.034a3.733 3.733 0 0 1-1.548 1.368c-.648.312-1.38.468-2.196.468-1.668 0-2.946-.546-3.834-1.638-.888-1.104-1.332-2.658-1.332-4.662 0-1.404.24-2.592.72-3.564s1.152-1.704 2.016-2.196c.864-.504 1.872-.756 3.024-.756 1.248 0 2.244.228 2.988.684l-.522 1.044c-.6-.396-1.416-.594-2.448-.594-1.392 0-2.484.444-3.276 1.332-.792.876-1.188 2.154-1.188 3.834 0 .3.018.642.054 1.026a3.351 3.351 0 0 1 1.494-1.584c.684-.384 1.47-.576 2.358-.576zm-.108 6.552c.912 0 1.65-.246 2.214-.738.576-.504.864-1.17.864-1.998 0-.828-.288-1.488-.864-1.98-.564-.492-1.332-.738-2.304-.738-.636 0-1.2.12-1.692.36-.48.24-.858.57-1.134.99-.276.42-.414.888-.414 1.404 0 .48.126.924.378 1.332.264.408.648.738 1.152.99.504.252 1.104.378 1.8.378z" fill="#20201F"/><path d="M389.514 506.286v1.152h-8.838v-.918l5.238-5.13c.66-.648 1.104-1.206 1.332-1.674.24-.48.36-.96.36-1.44 0-.744-.258-1.32-.774-1.728-.504-.42-1.23-.63-2.178-.63-1.476 0-2.622.468-3.438 1.404l-.918-.792a4.846 4.846 0 0 1 1.872-1.332c.768-.312 1.632-.468 2.592-.468 1.284 0 2.298.306 3.042.918.756.6 1.134 1.428 1.134 2.484 0 .648-.144 1.272-.432 1.872-.288.6-.834 1.29-1.638 2.07l-4.284 4.212h6.93zm2.774 1.242a.934.934 0 0 1-.684-.288.989.989 0 0 1-.27-.702c0-.276.09-.504.27-.684a.934.934 0 0 1 .684-.288c.264 0 .492.096.684.288.192.18.288.408.288.684 0 .276-.096.51-.288.702a.934.934 0 0 1-.684.288zm6.766-12.798c1.668 0 2.946.552 3.834 1.656.888 1.092 1.332 2.64 1.332 4.644 0 1.404-.24 2.592-.72 3.564s-1.152 1.71-2.016 2.214c-.864.492-1.872.738-3.024.738-1.248 0-2.244-.228-2.988-.684l.522-1.044c.6.396 1.416.594 2.448.594 1.392 0 2.484-.438 3.276-1.314.792-.888 1.188-2.172 1.188-3.852 0-.312-.018-.654-.054-1.026a3.445 3.445 0 0 1-1.494 1.602c-.684.372-1.47.558-2.358.558-.828 0-1.566-.156-2.214-.468a3.62 3.62 0 0 1-1.494-1.314c-.36-.576-.54-1.242-.54-1.998 0-.768.186-1.446.558-2.034a3.635 3.635 0 0 1 1.53-1.35c.66-.324 1.398-.486 2.214-.486zm.144 6.552c.636 0 1.194-.12 1.674-.36.492-.24.876-.57 1.152-.99.276-.42.414-.888.414-1.404 0-.48-.132-.924-.396-1.332-.252-.408-.63-.738-1.134-.99-.504-.252-1.104-.378-1.8-.378-.912 0-1.656.252-2.232.756-.564.492-.846 1.152-.846 1.98 0 .828.282 1.488.846 1.98.576.492 1.35.738 2.322.738zm10.358-6.444v12.6h-1.296V495.99h-2.97v-1.152h4.266z" fill="#000"/></g><defs><clipPath id="a"><path fill="#fff" transform="translate(51 47)" d="M0 0h698.88v505.149H0z"/></clipPath></defs></svg>