<svg width="950" height="550" fill="none" xmlns="http://www.w3.org/2000/svg"><path fill="#fff" d="M0 0h950v550H0z"/><g clip-path="url(#a)"><path fill-rule="evenodd" clip-rule="evenodd" d="M921.492 273.544H622.375V28H48.542L28 272.344h95.912v41.916h64.584v207.216h732.996V273.544z" fill="#FFE900"/><path d="M629.263 28H28v14.975h601.263V28z" fill="#CFD0D0"/><path fill-rule="evenodd" clip-rule="evenodd" d="M921.492 273.544H622.375V28H48.542L28 272.344h95.912v41.916h64.584v207.216h732.996V273.544z" fill="#E4CDA1"/><path d="M219.04 283.723h-79.651v14.967h79.651v-14.967zM446.607 283.723h-53.898v14.967h53.898v-14.967zM905.939 486.142h-53.897v20.954h53.897v-20.954zM473.556 486.142h-53.898v20.954h53.898v-20.954zM257.964 486.307h-54.049v20.64h54.049v-20.64zM482.842 28H28v14.975h454.842V28zM644.239 28h-14.976v14.975h14.976V28z" fill="#20201F"/><path d="M644.239 28H542.727v14.975h101.512V28z" fill="#20201F"/><path d="M622.375 28h-14.967v260.51h14.967V28z" fill="#20201F"/><path d="M921.493 273.544H607.408v14.967h314.085v-14.967zM219.04 468.769h-23.357v17.538h23.357v-17.538zM419.658 487.341H257.964v26.345h161.694v-26.345zM636.449 487.341H473.556v26.345h162.893v-26.345zM852.041 487.341H690.347v26.345h161.694v-26.345zM913.729 468.769h-22.756v17.373h22.756v-17.373z" fill="#20201F"/><path d="M913.729 273.544h-22.756v69.468h22.756v-69.468zM154.361 42.976h-22.757v90.43h22.757v-90.43zM154.361 241.203h-22.757v63.482h22.757v-63.482zM219.04 298.69h-22.758v44.322h22.758V298.69z" fill="#20201F"/><path d="M921.492 288.51h-7.763v58.091h7.763V288.51zM921.492 465.18h-7.763v56.296h7.763V465.18z" fill="#20201F"/><path d="M921.492 514.29h-69.45v7.186h69.45v-7.186z" fill="#20201F"/><path d="M852.042 513.686H690.288v7.79h161.754v-7.79zM636.449 513.686H473.556v7.79h162.893v-7.79zM473.556 513.686h-53.898v7.79h53.898v-7.79z" fill="#20201F"/><path d="M419.658 513.686H257.964v7.79h161.694v-7.79zM257.964 514.29h-69.467v7.186h69.467v-7.186z" fill="#20201F"/><path d="M195.683 465.18h-7.186v56.296h7.186V465.18zM196.282 298.69h-7.785v47.911h7.785V298.69zM188.497 307.075h-64.679v7.186h64.679v-7.186zM131.604 241.203h-7.786v63.482h7.786v-63.482zM131.604 42.976h-7.786v90.43h7.786v-90.43z" fill="#20201F"/><path d="M124.28 51.36H28v7.186h96.28V51.36z" fill="#20201F"/><path d="M135.878 35.488H28v19.465h107.878V35.488zM194.294 293.26h-70.475v17.408h70.475V293.26zM211.312 481.836h-18.704v34.665h18.704v-34.665z" fill="#20201F"/><path d="M261.937 503.423h-55.266v13.078h55.266v-13.078zM473.556 500.55h-60.801v17.031h60.801V500.55zM918.676 501.942H847.5v16.917h71.176v-16.917z" fill="#20201F"/><path d="M914.324 481.986h-9.777v22.772h9.777v-22.772zM921.493 285.382h-4.52v13.5h4.52v-13.5z" fill="#20201F"/><path fill-rule="evenodd" clip-rule="evenodd" d="M123.819 272.344H28L45.96 58.546h7.218L35.816 265.16h88.003v7.185z" fill="#20201F"/><path d="M392.709 283.723H219.04v4.787h173.669v-4.787zM373.252 221.771h-30.546v4.456h30.546v-4.456zM470.699 221.771h-55.531v4.787h55.531v-4.787zM342.706 168.74h-4.788v61.866h4.788V168.74z" fill="#20201F"/><path d="M470.69 103.413h-4.788v123.145h4.788V103.413z" fill="#20201F"/><path d="M470.699 104.161H342.706v4.788h127.993v-4.788zM470.699 42.975h-4.797v18.522h4.797V42.975zM572.593 42.975h-4.788v14.933h4.788V42.975zM572.593 135.107h-4.788v45.317h4.788v-45.317zM607.408 150.04h-34.815v4.788h34.815v-4.788zM572.593 257.624h-4.788v30.886h4.788v-30.886z" fill="#20201F"/><path d="M607.408 283.723h-42.749v4.787h42.749v-4.787zM510.669 283.723h-9.662v4.787h9.662v-4.787zM507.954 288.51h-4.796v198.831h4.796V288.51zM342.706 39.399h-4.788V172.9h4.788V39.399zM921.493 346.593h-3.852V465.18h3.852V346.593zM913.728 343.004h-3.852V468.77h3.852V343.004zM894.823 343.004h-3.852V468.77h3.852V343.004zM192.348 346.593h-3.852V465.18h3.852V346.593zM200.112 343.004h-3.851V468.77h3.851V343.004zM219.017 343.004h-3.851V468.77h3.851V343.004zM127.67 181.317h-3.853v59.884h3.853v-59.884zM135.434 181.317h-3.851v59.886h3.851v-59.886zM154.339 181.317h-3.852v59.886h3.852v-59.886z" fill="#20201F"/><path d="M154.36 181.317h-30.543v2.827h30.543v-2.827z" fill="#20201F"/><path fill-rule="evenodd" clip-rule="evenodd" d="M484.743 34.44a1.702 1.702 0 0 1 3.402 0v35.997a1.701 1.701 0 0 1-3.402 0V34.441zM537.985 34.099a.85.85 0 0 1 1.701 0c0 10.308-5.285 19.627-13.827 26.36-8.483 6.69-20.195 10.828-33.113 10.828a.85.85 0 0 1 0-1.7c12.529 0 23.867-4 32.064-10.463 8.138-6.415 13.175-15.266 13.175-25.025zM466.435 62.733a1.702 1.702 0 0 1 0 3.402h-35.996a1.702 1.702 0 0 1 0-3.402h35.996zM466.776 99.412a.85.85 0 1 1 0 1.7c-10.243 0-19.524-3.609-26.247-9.44-6.759-5.863-10.941-13.97-10.941-22.928a.85.85 0 0 1 1.701 0c0 8.444 3.956 16.1 10.349 21.645 6.425 5.573 15.314 9.023 25.138 9.023zM409.976 223.775a1.702 1.702 0 0 1 3.402 0v35.996a1.702 1.702 0 0 1-3.402 0v-35.996zM374.999 223.433a.85.85 0 1 1 1.7 0c0 9.825 3.45 18.713 9.023 25.139 5.545 6.393 13.201 10.349 21.645 10.349a.85.85 0 0 1 0 1.701c-8.957 0-17.065-4.183-22.927-10.941-5.832-6.724-9.441-16.005-9.441-26.248zM339.742 277.153a1.701 1.701 0 0 1 0 3.402h-35.997a1.702 1.702 0 0 1 0-3.402h35.997zM340.083 233.006a.85.85 0 1 1 0 1.701c-9.785 0-18.651 4.326-25.069 11.319-6.436 7.012-10.419 16.706-10.419 27.415a.85.85 0 1 1-1.7 0c0-11.147 4.155-21.249 10.871-28.564 6.731-7.334 16.037-11.871 26.317-11.871zM512.683 284.857a1.701 1.701 0 0 1 3.401 0v35.996a1.702 1.702 0 0 1-3.401 0v-35.996zM560.904 284.515a.85.85 0 0 1 1.701 0c0 10.289-4.778 19.598-12.499 26.332-7.692 6.706-18.311 10.857-30.024 10.857a.851.851 0 1 1 0-1.701c11.295 0 21.517-3.988 28.908-10.432 7.36-6.418 11.914-15.278 11.914-25.056zM495.671 284.857a1.702 1.702 0 0 1 3.402 0v35.996a1.702 1.702 0 0 1-3.402 0v-35.996zM449.15 284.515a.85.85 0 0 1 1.701 0c0 9.778 4.554 18.638 11.914 25.056 7.391 6.444 17.614 10.432 28.908 10.432a.85.85 0 1 1 0 1.701c-11.713 0-22.332-4.151-30.023-10.857-7.722-6.734-12.5-16.043-12.5-26.332zM133.839 139.558a1.702 1.702 0 0 1 0-3.402h35.996a1.702 1.702 0 0 1 0 3.402h-35.996zM133.497 178.738a.85.85 0 0 1 0-1.701c9.806 0 18.683-3.85 25.103-10.072 6.415-6.218 10.385-14.809 10.385-24.293a.85.85 0 0 1 1.701 0c0 9.96-4.168 18.98-10.904 25.509-6.73 6.521-16.025 10.557-26.285 10.557zM213.335 45.3h90.355v36.142h-91.418V45.3h1.063zm62.076 4.274c-.994 0-1.901.406-2.555 1.064a3.607 3.607 0 0 0-1.06 2.55v20.41a3.624 3.624 0 0 0 3.615 3.613h20.409c.992 0 1.896-.407 2.553-1.06a3.606 3.606 0 0 0 1.061-2.554v-20.41c0-.994-.407-1.899-1.063-2.55a3.601 3.601 0 0 0-2.551-1.063h-20.409zm-51.566 1.689c-1.375 0-2.626.56-3.531 1.464a4.983 4.983 0 0 0 .002 7.063 4.983 4.983 0 0 0 7.059-.002 4.983 4.983 0 0 0 .002-7.062 4.983 4.983 0 0 0-3.532-1.463zm0 13.163c-1.671 0-3.187.68-4.283 1.775a6.044 6.044 0 0 0-1.776 4.284c0 1.672.68 3.187 1.776 4.283a6.042 6.042 0 0 0 4.283 1.776c1.672 0 3.188-.68 4.284-1.776a6.043 6.043 0 0 0 1.776-4.283c0-1.671-.68-3.188-1.776-4.284a6.043 6.043 0 0 0-4.284-1.775zm3.233 2.826a4.563 4.563 0 0 0-3.233-1.338 4.56 4.56 0 0 0-3.232 1.338 4.56 4.56 0 0 0-1.338 3.233c0 1.263.512 2.406 1.338 3.232a4.56 4.56 0 0 0 3.232 1.339 4.563 4.563 0 0 0 3.233-1.339 4.558 4.558 0 0 0 1.338-3.232 4.56 4.56 0 0 0-1.338-3.233zM236.84 50.2a6.04 6.04 0 0 0-4.283 1.775 6.042 6.042 0 0 0-1.776 4.283c0 1.672.679 3.189 1.775 4.285a6.042 6.042 0 0 0 4.284 1.775c1.672 0 3.188-.68 4.284-1.776a6.042 6.042 0 0 0 1.775-4.284 6.043 6.043 0 0 0-1.775-4.283 6.044 6.044 0 0 0-4.284-1.776zm3.233 2.826a4.563 4.563 0 0 0-3.233-1.338 4.56 4.56 0 0 0-3.232 1.338 4.558 4.558 0 0 0-1.339 3.232 4.56 4.56 0 0 0 1.338 3.234 4.562 4.562 0 0 0 3.233 1.337 4.561 4.561 0 0 0 3.233-1.338 4.562 4.562 0 0 0 1.338-3.233 4.563 4.563 0 0 0-1.338-3.232zM236.84 65.49c-1.376 0-2.626.56-3.531 1.464a4.983 4.983 0 0 0 .002 7.063 4.983 4.983 0 0 0 7.059-.001 4.974 4.974 0 0 0 1.466-3.53c0-1.378-.56-2.628-1.464-3.532a4.983 4.983 0 0 0-3.532-1.464zm2.481 2.515a3.501 3.501 0 0 0-2.481-1.027c-.971 0-1.848.392-2.48 1.025a3.51 3.51 0 0 0-1.028 2.483c0 .97.393 1.849 1.025 2.48a3.497 3.497 0 0 0 2.483 1.028c.969 0 1.847-.394 2.481-1.028a3.487 3.487 0 0 0 1.027-2.48c0-.969-.394-1.847-1.027-2.48zm-12.995-14.226a3.5 3.5 0 0 0-2.481-1.027c-.971 0-1.848.392-2.48 1.024a3.509 3.509 0 0 0-1.027 2.483c0 .972.392 1.85 1.024 2.481a3.497 3.497 0 0 0 2.483 1.027 3.5 3.5 0 0 0 2.481-1.027 3.486 3.486 0 0 0 1.027-2.48c0-.97-.393-1.848-1.027-2.481zM295.82 51.7h-20.409c-.408 0-.782.168-1.051.438-.271.267-.438.64-.438 1.05v20.41c0 .41.167.782.436 1.051a1.5 1.5 0 0 0 1.053.436h20.409c.41 0 .783-.166 1.05-.433.269-.274.438-.648.438-1.055v-20.41c0-.406-.169-.78-.438-1.05a1.47 1.47 0 0 0-1.05-.437zm-49.567 27.616v-31.89h-31.855v31.89h31.855zm2.126-31.89v31.89h53.185v-31.89h-53.185zM378.568 82.913c-2.797 1.799-6.385 2.91-9.54 2.91-3.106 0-5.53-1.066-7.217-2.81v-.005c-.638-.661-1.132-1.445-1.55-2.276v3.588c0 2.141-.895 3.396-2.331 4.125-1.307.665-3.036.83-4.932.83h-.782v-.02c-1.58-.045-3.022-.242-4.146-.81-1.435-.729-2.325-1.984-2.325-4.115V66.735c0-2.14.89-3.394 2.325-4.118 1.124-.564 2.566-.767 4.146-.81v-.02h.782c1.896 0 3.625.165 4.932.83 1.436.724 2.331 1.978 2.331 4.118v3.595c.418-.83.907-1.612 1.55-2.275 1.687-1.747 4.111-2.814 7.217-2.814 3.334 0 7.151 1.243 10.013 3.226 2.641 1.829 4.495 4.303 4.495 7.064 0 2.924-2.079 5.528-4.968 7.382zm-27.903-7.889h-.005v.003c0 .63.264 1.212.681 1.63v.005a2.302 2.302 0 0 0 3.26 0h.007l-.001-.005a2.312 2.312 0 0 0-1.634-3.943 2.313 2.313 0 0 0-2.308 2.31zm1.183-.002v.005c0 .31.124.592.32.792h.008c.202.202.487.33.797.33.315 0 .605-.125.8-.32l.005-.008c.197-.202.323-.483.323-.794 0-.323-.126-.602-.323-.803-.2-.197-.49-.32-.805-.32-.315 0-.601.124-.797.33-.209.196-.336.48-.336.788h.008zm6.851-8.287c0-1.444-.568-2.269-1.466-2.728-.932-.465-2.225-.621-3.686-.649h-.549c-1.682 0-3.191.129-4.229.649-.9.46-1.461 1.286-1.461 2.728V84.33c0 1.44.561 2.263 1.461 2.723 1.038.524 2.547.65 4.229.65h.609c1.431-.032 2.714-.186 3.626-.648.906-.462 1.466-1.291 1.466-2.735V66.735zm19.458 3.012c-2.613-1.812-6.094-2.945-9.129-2.945-2.654 0-4.695.887-6.095 2.333-1.533 1.583-2.326 3.862-2.326 6.396 0 2.538.793 4.815 2.326 6.402 1.4 1.443 3.441 2.327 6.095 2.327 2.867 0 6.142-1.014 8.702-2.658 2.467-1.584 4.243-3.74 4.243-6.071 0-2.192-1.58-4.228-3.816-5.784zM388.075 110.383l19.491-.006c6.518 0 5.75 13.492 5.683 14.393a11.29 11.29 0 0 1-3.327 8.007 11.306 11.306 0 0 1-8.009 3.316h-8.271a11.315 11.315 0 0 1-8.017-3.316 11.392 11.392 0 0 1-3.33-8.012c-.041-.916-.712-14.388 5.78-14.382zm9.706 13.142v.003a2.538 2.538 0 0 0-1.77.727 2.537 2.537 0 0 0-.717 1.766 2.48 2.48 0 0 0 2.49 2.492 2.48 2.48 0 0 0 1.759-.728h.008v-.005c.451-.45.733-1.071.733-1.759 0-.682-.282-1.316-.733-1.766h-.002a2.504 2.504 0 0 0-1.765-.734l-.003.004zm-.004 1.272a1.218 1.218 0 0 0-1.204 1.224c0 .34.131.648.346.869.221.211.521.351.865.348.343 0 .64-.134.86-.348l.005-.005c.219-.216.352-.524.352-.864 0-.336-.142-.644-.353-.864l-.006-.003a1.204 1.204 0 0 0-.853-.346l-.012.003v-.014zm.004-9.665c-3.142 0-5.994.936-8.069 2.439-2.154 1.572-3.494 3.767-3.496 6.2 0 2.443 1.342 4.638 3.496 6.212 2.082 1.511 4.936 2.439 8.079 2.439h.014c3.134-.007 5.981-.942 8.061-2.448 2.145-1.571 3.482-3.76 3.484-6.189l-.002-.014c0-2.439-1.337-4.622-3.499-6.2-2.069-1.505-4.921-2.439-8.06-2.436l-.008-.003zm0 1.758c-2.754.005-5.242.813-7.041 2.111-1.699 1.242-2.756 2.933-2.756 4.77 0 1.849 1.057 3.541 2.769 4.787 1.79 1.294 4.274 2.099 7.038 2.099h.005l.009.005c2.756-.005 5.234-.81 7.024-2.112 1.694-1.236 2.75-2.93 2.755-4.765l-.005-.014c.004-1.84-1.054-3.533-2.756-4.77-1.791-1.293-4.276-2.106-7.032-2.104h-.01v-.007zm-9.7-4.748c-4.838 0-4.014 12.526-4.014 12.558l.007.065a9.567 9.567 0 0 0 2.791 6.764 9.58 9.58 0 0 0 6.777 2.798h8.263a9.555 9.555 0 0 0 9.583-9.562l.003-.063c0-.031.888-12.56-3.931-12.56h-19.479zM460.981 113.832v103.062h-42.117V113.832h42.117zm-25.152 20.082a4.093 4.093 0 0 0 4.093 4.098 4.078 4.078 0 0 0 2.892-1.2 4.086 4.086 0 0 0 1.202-2.898 4.085 4.085 0 0 0-1.198-2.894 4.07 4.07 0 0 0-2.896-1.204c-1.13 0-2.154.459-2.895 1.2a4.089 4.089 0 0 0-1.198 2.898zm2.355 1.74a2.45 2.45 0 0 0 1.738.719 2.45 2.45 0 0 0 2.457-2.459 2.454 2.454 0 0 0-2.457-2.459 2.455 2.455 0 0 0-2.456 2.459c0 .679.275 1.294.718 1.74zm-18.115-14.044 1.637 72.753c0 10.927 7.301 19.874 18.216 19.874 10.916 0 18.216-8.947 18.216-19.874l1.638-72.753a5.112 5.112 0 0 0-1.502-3.618 5.115 5.115 0 0 0-3.615-1.504h-29.473a5.103 5.103 0 0 0-3.611 1.504 5.114 5.114 0 0 0-1.506 3.618zm3.684 72.753c0 9.807 6.372 17.825 16.169 17.825s16.17-8.018 16.17-17.825l1.637-72.753a3.08 3.08 0 0 0-3.07-3.073h-29.473c-.846 0-1.613.345-2.171.904a3.06 3.06 0 0 0-.899 2.169l1.637 72.753zm39.233 22.747V113.615a1.92 1.92 0 0 0-.527-1.324 1.746 1.746 0 0 0-1.271-.554h-42.531c-.495 0-.947.211-1.271.55a1.92 1.92 0 0 0-.528 1.328V217.11c0 .517.203.988.528 1.329.328.337.778.549 1.271.549h42.531c.492 0 .942-.212 1.268-.549.327-.345.53-.814.53-1.329zM564.701 134.464v-3.385c0-.404.331-.732.733-.732h.708V95.536a1.065 1.065 0 0 1 2.129 0v34.811h5.804c.401 0 .733.331.733.732v3.385a.733.733 0 0 1-.733.732h-8.641a.733.733 0 0 1-.733-.732zM575.053 58.61v3.384a.735.735 0 0 1-.733.733h-.708v34.81a1.065 1.065 0 0 1-2.129 0v-34.81h-5.804a.738.738 0 0 1-.734-.733V58.61c0-.404.33-.733.734-.733h8.641c.403 0 .733.329.733.733zM564.701 256.921v-3.385c0-.404.331-.732.733-.732h.708v-34.811a1.065 1.065 0 0 1 2.129 0v34.811h5.804c.401 0 .733.331.733.732v3.385a.733.733 0 0 1-.733.732h-8.641a.733.733 0 0 1-.733-.732zM575.053 181.066v3.385a.735.735 0 0 1-.733.733h-.708v34.811a1.065 1.065 0 0 1-2.129 0v-34.811h-5.804a.738.738 0 0 1-.734-.733v-3.385c0-.404.33-.732.734-.732h8.641c.403 0 .733.328.733.732z" fill="#20201F"/><path d="M602.229 338h-2.126v101.095h2.126V338zM586.97 401.411V409h-30.414v-6.037l15.523-14.66c1.648-1.572 2.76-2.913 3.335-4.025.575-1.15.862-2.28.862-3.392 0-1.609-.556-2.836-1.667-3.679-1.073-.882-2.664-1.322-4.772-1.322-1.763 0-3.354.344-4.772 1.034-1.418.652-2.606 1.648-3.564 2.99l-6.784-4.369c1.571-2.338 3.737-4.159 6.496-5.462 2.76-1.342 5.922-2.012 9.486-2.012 2.99 0 5.596.498 7.819 1.494 2.262.959 4.005 2.338 5.232 4.14 1.265 1.763 1.897 3.852 1.897 6.266 0 2.185-.46 4.236-1.38 6.152-.919 1.916-2.702 4.101-5.346 6.554l-9.256 8.739h17.305zM690.347 486.142h-53.898v20.954h53.898v-20.954zM690.288 513.686h-53.839v7.79h53.839v-7.79z" fill="#20201F"/><path d="M695.628 500.907h-67.026v15.664h67.026v-15.664zM624.868 356.209c1.505.083 2.648.493 3.429 1.232.794.726 1.19 1.677 1.19 2.855 0 .821-.198 1.553-.595 2.197-.397.629-.986 1.129-1.766 1.498-.78.37-1.731.555-2.854.555a8.81 8.81 0 0 1-2.957-.493c-.917-.342-1.656-.794-2.217-1.355l.719-1.171c.479.493 1.115.897 1.909 1.212a7.124 7.124 0 0 0 2.546.452c1.177 0 2.088-.254 2.731-.76.643-.52.965-1.232.965-2.135 0-.89-.322-1.588-.965-2.095-.643-.506-1.615-.76-2.916-.76h-1.026v-1.088l3.983-4.989h-7.351v-1.314h9.24v1.047l-4.065 5.112zm12.657-.39c.945 0 1.78.178 2.505.534a4.062 4.062 0 0 1 1.725 1.52c.411.643.616 1.396.616 2.258 0 .876-.212 1.65-.637 2.32-.424.671-1.013 1.191-1.765 1.561-.74.356-1.575.534-2.505.534-1.903 0-3.361-.623-4.374-1.869-1.013-1.259-1.519-3.032-1.519-5.318 0-1.601.273-2.956.821-4.065.547-1.109 1.314-1.944 2.3-2.505.985-.575 2.135-.863 3.449-.863 1.424 0 2.56.261 3.409.781l-.596 1.191c-.684-.452-1.615-.678-2.792-.678-1.588 0-2.834.506-3.737 1.519-.904 1-1.356 2.458-1.356 4.374 0 .342.021.732.062 1.17.356-.78.924-1.382 1.704-1.807.781-.438 1.677-.657 2.69-.657zm-.123 7.474c1.04 0 1.882-.28 2.525-.842.657-.574.986-1.334.986-2.279 0-.944-.329-1.697-.986-2.258-.643-.562-1.519-.842-2.628-.842-.725 0-1.369.137-1.93.411-.547.273-.979.65-1.293 1.129a2.852 2.852 0 0 0-.473 1.601c0 .548.144 1.054.432 1.52.301.465.739.842 1.314 1.129.575.288 1.259.431 2.053.431zm7.99 1.232c-.301 0-.561-.109-.78-.328a1.125 1.125 0 0 1-.308-.801c0-.315.102-.575.308-.78.219-.219.479-.329.78-.329.301 0 .561.11.78.329.219.205.329.465.329.78s-.11.582-.329.801a1.065 1.065 0 0 1-.78.328zm8.976-8.706c.945 0 1.78.178 2.505.534.74.356 1.315.863 1.725 1.52.411.643.616 1.396.616 2.258 0 .876-.212 1.65-.636 2.32a4.265 4.265 0 0 1-1.766 1.561c-.739.356-1.574.534-2.505.534-1.903 0-3.361-.623-4.374-1.869-1.013-1.259-1.519-3.032-1.519-5.318 0-1.601.274-2.956.821-4.065.548-1.109 1.314-1.944 2.3-2.505.985-.575 2.135-.863 3.449-.863 1.424 0 2.56.261 3.409.781l-.596 1.191c-.684-.452-1.615-.678-2.792-.678-1.588 0-2.834.506-3.737 1.519-.903 1-1.355 2.458-1.355 4.374 0 .342.02.732.061 1.17.356-.78.924-1.382 1.705-1.807.78-.438 1.676-.657 2.689-.657zm-.123 7.474c1.041 0 1.882-.28 2.526-.842.657-.574.985-1.334.985-2.279 0-.944-.328-1.697-.985-2.258-.644-.562-1.52-.842-2.628-.842-.726 0-1.369.137-1.931.411-.547.273-.978.65-1.293 1.129a2.851 2.851 0 0 0-.472 1.601c0 .548.143 1.054.431 1.52.301.465.739.842 1.314 1.129.575.288 1.259.431 2.053.431zm12.636-7.474c.944 0 1.779.178 2.505.534.739.356 1.314.863 1.724 1.52.411.643.616 1.396.616 2.258 0 .876-.212 1.65-.636 2.32a4.265 4.265 0 0 1-1.766 1.561c-.739.356-1.574.534-2.505.534-1.903 0-3.361-.623-4.373-1.869-1.013-1.259-1.52-3.032-1.52-5.318 0-1.601.274-2.956.821-4.065.548-1.109 1.314-1.944 2.3-2.505.986-.575 2.135-.863 3.45-.863 1.423 0 2.559.261 3.408.781l-.595 1.191c-.685-.452-1.616-.678-2.793-.678-1.588 0-2.833.506-3.737 1.519-.903 1-1.355 2.458-1.355 4.374 0 .342.021.732.062 1.17.355-.78.924-1.382 1.704-1.807.78-.438 1.677-.657 2.69-.657zm-.124 7.474c1.041 0 1.883-.28 2.526-.842.657-.574.986-1.334.986-2.279 0-.944-.329-1.697-.986-2.258-.643-.562-1.519-.842-2.628-.842-.726 0-1.369.137-1.93.411-.548.273-.979.65-1.294 1.129a2.851 2.851 0 0 0-.472 1.601c0 .548.144 1.054.431 1.52.301.465.739.842 1.314 1.129.575.288 1.259.431 2.053.431zM625.37 385.105c.945 0 1.78.178 2.505.534.74.356 1.314.863 1.725 1.52.411.643.616 1.396.616 2.258 0 .876-.212 1.65-.636 2.321a4.27 4.27 0 0 1-1.766 1.56c-.739.356-1.574.534-2.505.534-1.903 0-3.361-.623-4.374-1.869-1.013-1.259-1.519-3.032-1.519-5.318 0-1.601.274-2.956.821-4.065.548-1.109 1.314-1.944 2.3-2.505.985-.575 2.135-.862 3.449-.862 1.424 0 2.56.26 3.409.78l-.596 1.191c-.684-.452-1.615-.678-2.792-.678-1.588 0-2.834.507-3.737 1.52-.904.999-1.355 2.457-1.355 4.373 0 .342.02.732.061 1.17.356-.78.924-1.382 1.705-1.806.78-.438 1.676-.658 2.689-.658zm-.123 7.474c1.04 0 1.882-.28 2.526-.841.657-.575.985-1.335.985-2.28 0-.944-.328-1.697-.985-2.258-.644-.561-1.52-.842-2.628-.842-.726 0-1.369.137-1.931.411-.547.273-.978.65-1.293 1.129a2.852 2.852 0 0 0-.472 1.602c0 .547.143 1.054.431 1.519.301.465.739.842 1.314 1.129.575.288 1.259.431 2.053.431zm10.459-7.35c2.081 0 3.593.376 4.538 1.129.958.739 1.437 1.78 1.437 3.121 0 .835-.198 1.581-.595 2.238-.384.657-.965 1.177-1.746 1.561-.78.369-1.738.554-2.874.554a8.739 8.739 0 0 1-2.936-.493c-.918-.342-1.657-.794-2.218-1.355l.719-1.17c.479.492 1.108.896 1.889 1.211.78.301 1.622.452 2.525.452 1.191 0 2.108-.267 2.752-.801.657-.534.985-1.246.985-2.135 0-.986-.369-1.732-1.109-2.238-.725-.507-1.957-.76-3.695-.76h-3.06l.739-7.207h7.864v1.314h-6.57l-.493 4.579h1.848zm8.961 8.582c-.301 0-.562-.109-.781-.328a1.13 1.13 0 0 1-.308-.801c0-.315.103-.575.308-.78.219-.219.48-.329.781-.329.301 0 .561.11.78.329.219.205.328.465.328.78s-.109.582-.328.801a1.065 1.065 0 0 1-.78.328zm8.75.021c-1.109 0-2.101-.294-2.977-.883-.862-.589-1.54-1.43-2.033-2.526-.479-1.108-.718-2.409-.718-3.901s.239-2.785.718-3.88c.493-1.109 1.171-1.958 2.033-2.547.876-.588 1.868-.882 2.977-.882 1.109 0 2.095.294 2.957.882.876.589 1.56 1.438 2.053 2.547.493 1.095.739 2.388.739 3.88s-.246 2.793-.739 3.901c-.493 1.096-1.177 1.937-2.053 2.526-.862.589-1.848.883-2.957.883zm0-1.355c.835 0 1.568-.233 2.197-.698.644-.466 1.143-1.143 1.499-2.033.356-.89.534-1.964.534-3.224 0-1.259-.178-2.334-.534-3.223-.356-.89-.855-1.568-1.499-2.033-.629-.466-1.362-.698-2.197-.698s-1.574.232-2.217.698c-.63.465-1.123 1.143-1.479 2.033-.356.889-.534 1.964-.534 3.223 0 1.26.178 2.334.534 3.224.356.89.849 1.567 1.479 2.033.643.465 1.382.698 2.217.698zm13.821-7.372c.945 0 1.78.178 2.505.534a4.062 4.062 0 0 1 1.725 1.52c.41.643.616 1.396.616 2.258 0 .876-.212 1.65-.637 2.321-.424.67-1.013 1.19-1.766 1.56-.739.356-1.574.534-2.505.534-1.902 0-3.36-.623-4.373-1.869-1.013-1.259-1.519-3.032-1.519-5.318 0-1.601.273-2.956.821-4.065.547-1.109 1.314-1.944 2.3-2.505.985-.575 2.135-.862 3.449-.862 1.424 0 2.56.26 3.408.78l-.595 1.191c-.684-.452-1.615-.678-2.792-.678-1.588 0-2.834.507-3.737 1.52-.904.999-1.356 2.457-1.356 4.373 0 .342.021.732.062 1.17.356-.78.924-1.382 1.704-1.806.78-.438 1.677-.658 2.69-.658zm-.123 7.474c1.04 0 1.882-.28 2.525-.841.657-.575.986-1.335.986-2.28 0-.944-.329-1.697-.986-2.258-.643-.561-1.519-.842-2.628-.842-.725 0-1.369.137-1.93.411-.547.273-.979.65-1.293 1.129a2.853 2.853 0 0 0-.473 1.602c0 .547.144 1.054.431 1.519.302.465.74.842 1.315 1.129.574.288 1.259.431 2.053.431zM626.551 414.392c.945 0 1.78.178 2.505.533a4.062 4.062 0 0 1 1.725 1.52c.41.643.616 1.396.616 2.259 0 .876-.212 1.649-.637 2.32a4.256 4.256 0 0 1-1.766 1.56c-.739.356-1.574.534-2.505.534-1.902 0-3.36-.623-4.373-1.868-1.013-1.26-1.519-3.032-1.519-5.318 0-1.602.273-2.957.821-4.066.547-1.109 1.314-1.944 2.3-2.505.985-.575 2.135-.862 3.449-.862 1.424 0 2.56.26 3.408.78l-.595 1.191c-.684-.452-1.615-.678-2.792-.678-1.588 0-2.834.507-3.737 1.52-.904.999-1.356 2.457-1.356 4.373 0 .342.021.733.062 1.171.356-.781.924-1.383 1.704-1.807.78-.438 1.677-.657 2.69-.657zm-.123 7.474c1.04 0 1.882-.281 2.525-.842.657-.575.986-1.335.986-2.279 0-.945-.329-1.698-.986-2.259-.643-.561-1.519-.842-2.628-.842-.725 0-1.369.137-1.93.411-.547.274-.979.65-1.293 1.129a2.853 2.853 0 0 0-.473 1.602c0 .547.144 1.054.431 1.519.302.465.74.842 1.315 1.129.574.288 1.259.432 2.053.432zm16.663-13.244v1.047l-6.016 13.326h-1.601l5.913-13.059h-7.392v2.69h-1.457v-4.004h10.553zm1.974 14.476c-.301 0-.561-.11-.78-.329a1.13 1.13 0 0 1-.308-.801c0-.315.103-.575.308-.78.219-.219.479-.329.78-.329.302 0 .562.11.781.329.219.205.328.465.328.78s-.109.582-.328.801a1.067 1.067 0 0 1-.781.329zm8.33-8.316c1.506.082 2.649.493 3.429 1.232.794.725 1.191 1.677 1.191 2.854 0 .821-.199 1.553-.595 2.197-.397.629-.986 1.129-1.766 1.499-.781.369-1.732.554-2.854.554a8.806 8.806 0 0 1-2.957-.493c-.917-.342-1.656-.794-2.218-1.355l.719-1.17c.479.493 1.116.896 1.91 1.211a7.12 7.12 0 0 0 2.546.452c1.177 0 2.087-.253 2.731-.76.643-.52.965-1.232.965-2.135 0-.89-.322-1.588-.965-2.095-.644-.506-1.616-.759-2.916-.759h-1.027v-1.089l3.984-4.989h-7.351v-1.314h9.24v1.047l-4.066 5.113zm10.281-.267c2.08 0 3.593.376 4.537 1.129.959.739 1.438 1.78 1.438 3.121 0 .835-.199 1.581-.596 2.238-.383.657-.965 1.177-1.745 1.561-.78.369-1.739.554-2.875.554a8.747 8.747 0 0 1-2.936-.493c-.917-.342-1.656-.794-2.217-1.355l.718-1.17c.479.493 1.109.896 1.889 1.211a6.96 6.96 0 0 0 2.526.452c1.191 0 2.108-.267 2.751-.801.657-.534.986-1.246.986-2.135 0-.986-.37-1.732-1.109-2.238-.725-.507-1.957-.76-3.696-.76h-3.059l.739-7.207h7.864v1.314h-6.571l-.492 4.579h1.848zM736.065 373.648h-5.667v8.418h-3.183V371.02h8.85v2.628zm6.41 8.582c-1.163 0-2.21-.239-3.141-.718a5.513 5.513 0 0 1-2.156-2.033c-.52-.862-.78-1.841-.78-2.936s.26-2.074.78-2.936a5.368 5.368 0 0 1 2.156-2.013c.931-.492 1.978-.739 3.141-.739 1.164 0 2.204.247 3.121.739a5.361 5.361 0 0 1 2.156 2.013c.521.862.781 1.841.781 2.936s-.26 2.074-.781 2.936a5.507 5.507 0 0 1-2.156 2.033c-.917.479-1.957.718-3.121.718zm0-2.628c.822 0 1.493-.274 2.013-.821.534-.561.8-1.307.8-2.238s-.266-1.67-.8-2.218c-.52-.561-1.191-.842-2.013-.842-.821 0-1.498.281-2.032.842-.534.548-.801 1.287-.801 2.218s.267 1.677.801 2.238c.534.547 1.211.821 2.032.821zm13.517 2.628c-1.177 0-2.238-.239-3.182-.718a5.62 5.62 0 0 1-2.197-2.033c-.521-.862-.781-1.841-.781-2.936s.26-2.074.781-2.936a5.472 5.472 0 0 1 2.197-2.013c.944-.492 2.005-.739 3.182-.739 1.164 0 2.177.247 3.039.739a4.267 4.267 0 0 1 1.91 2.074l-2.485 1.335c-.575-1.013-1.403-1.52-2.484-1.52-.835 0-1.527.274-2.074.822-.548.547-.822 1.293-.822 2.238 0 .944.274 1.69.822 2.238.547.547 1.239.821 2.074.821 1.095 0 1.923-.506 2.484-1.519l2.485 1.355c-.397.876-1.034 1.56-1.91 2.053-.862.493-1.875.739-3.039.739zm16.136-8.582h-3.737v8.418h-3.183v-8.418h-3.737v-2.628h10.657v2.628zm1.707-2.628h3.183v6.57l5.379-6.57h2.937v11.046h-3.183v-6.57l-5.359 6.57h-2.957V371.02zm14.578 0h3.182v4.311h4.805v-4.311h3.203v11.046H796.4v-4.127h-4.805v4.127h-3.182V371.02zm18.548-.165c1.711 0 3.025.411 3.942 1.232.917.808 1.376 2.033 1.376 3.676v6.303h-2.998v-1.376c-.602 1.027-1.725 1.54-3.368 1.54-.848 0-1.587-.143-2.217-.431-.616-.287-1.088-.684-1.417-1.191a3.101 3.101 0 0 1-.493-1.724c0-1.027.384-1.835 1.15-2.423.78-.589 1.978-.883 3.593-.883h2.547c0-.698-.213-1.232-.637-1.602-.424-.383-1.061-.575-1.91-.575-.588 0-1.17.096-1.745.288a4.452 4.452 0 0 0-1.437.739l-1.15-2.238c.602-.424 1.321-.753 2.156-.986a9.848 9.848 0 0 1 2.608-.349zm-.247 9.219c.548 0 1.034-.123 1.458-.369.424-.26.726-.637.904-1.129v-1.13h-2.197c-1.315 0-1.972.431-1.972 1.294 0 .411.158.739.473.985.328.233.773.349 1.334.349zm18.162-9.054v11.046h-2.854v-3.162h-2.361l-2.095 3.162h-3.408l2.525-3.614c-.766-.301-1.355-.732-1.766-1.293-.397-.575-.595-1.266-.595-2.074 0-1.3.465-2.3 1.396-2.998.945-.712 2.238-1.067 3.881-1.067h5.277zm-5.215 2.607c-.685 0-1.205.123-1.561.37-.342.246-.513.643-.513 1.191 0 .547.164.951.492 1.211.343.247.856.37 1.54.37h2.403v-3.142h-2.361zM761.626 408.642v2.71h-10.862v-2.156l5.544-5.236c.589-.561.986-1.04 1.191-1.437.206-.41.308-.814.308-1.211 0-.575-.198-1.013-.595-1.314-.383-.315-.952-.473-1.704-.473-.63 0-1.198.124-1.705.37-.506.233-.93.589-1.273 1.068l-2.423-1.561c.562-.835 1.335-1.485 2.321-1.95.985-.48 2.115-.719 3.388-.719 1.067 0 1.998.178 2.792.534.808.342 1.43.835 1.869 1.478.451.63.677 1.376.677 2.238 0 .78-.164 1.513-.493 2.197-.328.685-.965 1.465-1.909 2.341l-3.306 3.121h6.18zm6.917-11.663v14.373h-3.327v-11.703h-2.874v-2.67h6.201zm4.386 14.538a1.925 1.925 0 0 1-1.417-.575c-.384-.384-.575-.863-.575-1.438 0-.588.191-1.061.575-1.416.383-.37.855-.555 1.417-.555.561 0 1.033.185 1.416.555.384.355.575.828.575 1.416 0 .575-.191 1.054-.575 1.438a1.925 1.925 0 0 1-1.416.575zm14.424-2.875v2.71h-10.862v-2.156l5.544-5.236c.588-.561.985-1.04 1.19-1.437.206-.41.308-.814.308-1.211 0-.575-.198-1.013-.595-1.314-.383-.315-.951-.473-1.704-.473-.63 0-1.198.124-1.704.37a3.19 3.19 0 0 0-1.274 1.068l-2.422-1.561c.561-.835 1.334-1.485 2.32-1.95.985-.48 2.115-.719 3.388-.719 1.067 0 1.998.178 2.792.534.808.342 1.431.835 1.869 1.478.451.63.677 1.376.677 2.238 0 .78-.164 1.513-.493 2.197-.328.685-.965 1.465-1.909 2.341l-3.306 3.121h6.181zm7.492 2.957c-1.191 0-2.252-.295-3.183-.883-.931-.589-1.663-1.438-2.197-2.546-.52-1.123-.78-2.457-.78-4.004 0-1.547.26-2.875.78-3.984.534-1.122 1.266-1.978 2.197-2.566.931-.589 1.992-.883 3.183-.883 1.191 0 2.251.294 3.182.883.931.588 1.657 1.444 2.177 2.566.534 1.109.801 2.437.801 3.984 0 1.547-.267 2.881-.801 4.004-.52 1.108-1.246 1.957-2.177 2.546-.931.588-1.991.883-3.182.883zm0-2.813c.876 0 1.56-.377 2.053-1.13.506-.752.76-1.916.76-3.49 0-1.574-.254-2.738-.76-3.491-.493-.753-1.177-1.129-2.053-1.129-.863 0-1.547.376-2.054 1.129-.492.753-.739 1.917-.739 3.491s.247 2.738.739 3.49c.507.753 1.191 1.13 2.054 1.13z" fill="#20201F"/><path d="M326.172 382.23c-1.177 0-2.238-.239-3.182-.718a5.627 5.627 0 0 1-2.197-2.033c-.52-.862-.781-1.841-.781-2.936s.261-2.074.781-2.936a5.478 5.478 0 0 1 2.197-2.013c.944-.492 2.005-.739 3.182-.739 1.164 0 2.177.247 3.039.739a4.267 4.267 0 0 1 1.91 2.074l-2.485 1.335c-.575-1.013-1.403-1.52-2.484-1.52-.835 0-1.526.274-2.074.822-.548.547-.821 1.293-.821 2.238 0 .944.273 1.69.821 2.238.548.547 1.239.821 2.074.821 1.095 0 1.923-.506 2.484-1.519l2.485 1.355c-.397.876-1.034 1.56-1.91 2.053-.862.493-1.875.739-3.039.739zm17.88-11.21v11.046h-3.203v-8.418h-4.599v8.418h-3.183V371.02h10.985zm7.363-.165c1.711 0 3.025.411 3.942 1.232.917.808 1.376 2.033 1.376 3.676v6.303h-2.998v-1.376c-.602 1.027-1.725 1.54-3.367 1.54-.849 0-1.588-.143-2.218-.431-.616-.287-1.088-.684-1.417-1.191a3.101 3.101 0 0 1-.493-1.724c0-1.027.384-1.835 1.15-2.423.781-.589 1.978-.883 3.593-.883h2.547c0-.698-.213-1.232-.637-1.602-.424-.383-1.061-.575-1.91-.575-.588 0-1.17.096-1.745.288a4.452 4.452 0 0 0-1.437.739l-1.15-2.238c.602-.424 1.321-.753 2.156-.986a9.848 9.848 0 0 1 2.608-.349zm-.247 9.219c.548 0 1.034-.123 1.458-.369.424-.26.726-.637.904-1.129v-1.13h-2.197c-1.315 0-1.972.431-1.972 1.294 0 .411.158.739.473.985.328.233.773.349 1.334.349zm18.942-9.054v11.046h-3.203v-8.418h-3.491l-.102 1.95c-.055 1.451-.192 2.656-.411 3.614-.219.958-.575 1.711-1.068 2.259-.492.547-1.177.821-2.053.821-.465 0-1.02-.082-1.663-.246l.164-2.629c.219.028.377.041.472.041.48 0 .835-.171 1.068-.513.247-.356.411-.801.493-1.334.082-.548.144-1.267.185-2.156l.164-4.435h9.445zm9.055 3.531c1.438.014 2.54.342 3.306.986.767.629 1.15 1.526 1.15 2.69 0 1.218-.431 2.169-1.294 2.854-.848.67-2.046 1.006-3.593 1.006l-5.544-.021V371.02h3.183v3.531h2.792zm-.718 5.257c.616.013 1.088-.117 1.417-.391.328-.273.492-.684.492-1.232 0-.533-.164-.924-.492-1.17-.315-.246-.788-.376-1.417-.39l-2.074-.021v3.204h2.074zm7.175-8.788h3.183v4.311h4.805v-4.311h3.203v11.046h-3.203v-4.127h-4.805v4.127h-3.183V371.02zm24.072 0v11.046h-2.854v-3.162h-2.362l-2.094 3.162h-3.408l2.525-3.614c-.766-.301-1.355-.732-1.766-1.293-.397-.575-.595-1.266-.595-2.074 0-1.3.465-2.3 1.396-2.998.945-.712 2.238-1.067 3.881-1.067h5.277zm-5.216 2.607c-.684 0-1.204.123-1.56.37-.342.246-.513.643-.513 1.191 0 .547.164.951.492 1.211.343.247.856.37 1.54.37h2.403v-3.142h-2.362zM345.216 396.979v14.373h-3.326v-11.703h-2.875v-2.67h6.201zm7.425 5.4c2.026 0 3.518.404 4.476 1.212.972.808 1.458 1.889 1.458 3.244 0 .876-.219 1.677-.657 2.402-.438.712-1.109 1.287-2.012 1.725-.89.425-1.992.637-3.306.637-1.013 0-2.012-.13-2.998-.39-.972-.274-1.8-.657-2.484-1.15l1.314-2.546c.547.41 1.177.732 1.889.965a7.429 7.429 0 0 0 2.197.328c.835 0 1.492-.164 1.971-.493.479-.328.719-.787.719-1.375 0-.616-.254-1.082-.76-1.396-.493-.315-1.355-.473-2.587-.473h-3.676l.739-8.09h8.768v2.67h-5.996l-.225 2.73h1.17zm9.172 9.138a1.925 1.925 0 0 1-1.416-.575c-.384-.384-.575-.863-.575-1.438 0-.588.191-1.061.575-1.416.383-.37.855-.555 1.416-.555.562 0 1.034.185 1.417.555.384.355.575.828.575 1.416 0 .575-.191 1.054-.575 1.438a1.925 1.925 0 0 1-1.417.575zm16.647-3.183h-2.341v3.018h-3.244v-3.018h-7.741v-2.238l6.776-9.117h3.49l-6.283 8.645h3.861v-2.69h3.141v2.69h2.341v2.71zm7.914-5.996c.917 0 1.752.185 2.505.555a4.344 4.344 0 0 1 1.787 1.581c.438.671.657 1.451.657 2.341 0 .958-.24 1.8-.719 2.525-.479.726-1.136 1.287-1.971 1.684-.821.383-1.739.575-2.752.575-2.012 0-3.586-.616-4.722-1.848-1.136-1.232-1.704-2.991-1.704-5.277 0-1.629.308-3.025.924-4.189.616-1.163 1.471-2.046 2.566-2.649 1.109-.602 2.389-.903 3.84-.903.766 0 1.499.089 2.197.267.712.164 1.314.404 1.807.719l-1.232 2.443c-.712-.479-1.609-.719-2.69-.719-1.218 0-2.183.356-2.895 1.068-.712.712-1.095 1.745-1.15 3.1.849-.848 2.033-1.273 3.552-1.273zm-.677 6.776c.711 0 1.286-.191 1.724-.575.452-.383.678-.903.678-1.56s-.226-1.177-.678-1.561c-.438-.397-1.026-.595-1.765-.595-.726 0-1.321.205-1.787.616-.465.397-.698.91-.698 1.54 0 .629.226 1.143.678 1.54.451.397 1.067.595 1.848.595zM220.083 159.005h-1.663v4.189h-3.203v-11.047h3.203v4.292h1.725l2.998-4.292h3.408l-3.86 5.298 4.127 5.749h-3.778l-2.957-4.189zm18.754-6.858-4.99 11.725c-.506 1.273-1.136 2.169-1.889 2.689-.739.521-1.636.781-2.69.781a5.603 5.603 0 0 1-1.704-.267c-.561-.178-1.02-.425-1.376-.739l1.171-2.28a2.774 2.774 0 0 0 1.807.699c.438 0 .794-.11 1.067-.329.274-.205.521-.554.74-1.047l.041-.103-4.784-11.129h3.305l3.101 7.495 3.121-7.495h3.08zm7.863 11.047-2.422-3.388-2.505 3.388h-3.491l4.25-5.564-4.106-5.483h3.593l2.341 3.224 2.402-3.224h3.408l-4.106 5.401 4.271 5.646H246.7zm5.212-11.047h3.182v4.312h4.805v-4.312h3.203v11.047h-3.203v-4.127h-4.805v4.127h-3.182v-11.047zm24.071 0v11.047h-2.854v-3.162h-2.361l-2.095 3.162h-3.408l2.525-3.614c-.766-.301-1.355-.732-1.766-1.293-.396-.575-.595-1.266-.595-2.074 0-1.3.465-2.3 1.396-2.998.945-.712 2.238-1.068 3.881-1.068h5.277zm-5.215 2.608c-.685 0-1.205.123-1.561.37-.342.246-.513.643-.513 1.191 0 .547.164.951.493 1.211.342.246.855.37 1.54.37h2.402v-3.142h-2.361zM226.5 178.107v14.373h-3.326v-11.703h-2.875v-2.67h6.201zm13.235 11.663v2.71h-10.861v-2.156l5.543-5.236c.589-.561.986-1.04 1.191-1.437.206-.411.308-.814.308-1.211 0-.575-.198-1.013-.595-1.314-.383-.315-.952-.473-1.704-.473-.63 0-1.198.124-1.705.37-.506.233-.93.589-1.273 1.068l-2.423-1.561c.562-.835 1.335-1.485 2.321-1.95.985-.48 2.115-.719 3.388-.719 1.067 0 1.998.178 2.792.534.808.342 1.431.835 1.869 1.478.451.63.677 1.376.677 2.238 0 .78-.164 1.513-.493 2.197-.328.685-.965 1.465-1.909 2.341l-3.306 3.121h6.18zm3.462 2.874a1.924 1.924 0 0 1-1.416-.574c-.384-.384-.575-.863-.575-1.438 0-.588.191-1.061.575-1.416.383-.37.855-.555 1.416-.555.562 0 1.034.185 1.417.555.383.355.575.828.575 1.416 0 .575-.192 1.054-.575 1.438a1.924 1.924 0 0 1-1.417.574zm14.424-2.874v2.71H246.76v-2.156l5.543-5.236c.589-.561.986-1.04 1.191-1.437.206-.411.308-.814.308-1.211 0-.575-.198-1.013-.595-1.314-.383-.315-.952-.473-1.704-.473-.63 0-1.198.124-1.705.37-.506.233-.93.589-1.273 1.068l-2.423-1.561c.562-.835 1.335-1.485 2.321-1.95.985-.48 2.115-.719 3.388-.719 1.067 0 1.998.178 2.792.534.808.342 1.431.835 1.869 1.478.451.63.677 1.376.677 2.238 0 .78-.164 1.513-.493 2.197-.328.685-.965 1.465-1.909 2.341l-3.306 3.121h6.18zm8.252-6.304c.917 0 1.752.185 2.505.555a4.344 4.344 0 0 1 1.787 1.581c.438.67.657 1.451.657 2.34 0 .959-.24 1.801-.719 2.526-.479.726-1.136 1.287-1.971 1.684-.821.383-1.739.575-2.751.575-2.013 0-3.587-.616-4.723-1.848-1.136-1.232-1.704-2.991-1.704-5.277 0-1.629.308-3.025.924-4.189.616-1.163 1.471-2.046 2.566-2.649 1.109-.602 2.389-.903 3.84-.903.767 0 1.499.089 2.197.267.712.164 1.314.404 1.807.718l-1.232 2.444c-.712-.479-1.609-.719-2.69-.719-1.218 0-2.183.356-2.895 1.068-.712.712-1.095 1.745-1.15 3.1.849-.848 2.033-1.273 3.552-1.273zm-.677 6.776c.712 0 1.286-.191 1.724-.575.452-.383.678-.903.678-1.56s-.226-1.177-.678-1.561c-.438-.397-1.026-.595-1.765-.595-.726 0-1.321.205-1.787.616-.465.397-.698.91-.698 1.54 0 .629.226 1.143.678 1.54.452.397 1.067.595 1.848.595zM503.244 162.809l-3.006-3.96-3.024 3.96h-1.44l3.744-4.86-3.564-4.608h1.44l2.844 3.708 2.844-3.708h1.404l-3.564 4.608 3.78 4.86h-1.458zm7.125.09c-.912 0-1.734-.204-2.466-.612a4.594 4.594 0 0 1-1.728-1.728c-.42-.732-.63-1.56-.63-2.484 0-.924.21-1.752.63-2.484a4.465 4.465 0 0 1 1.728-1.71c.732-.408 1.554-.612 2.466-.612.912 0 1.734.204 2.466.612a4.34 4.34 0 0 1 1.71 1.71c.42.732.63 1.56.63 2.484 0 .924-.21 1.752-.63 2.484a4.465 4.465 0 0 1-1.71 1.728c-.732.408-1.554.612-2.466.612zm0-1.134c.672 0 1.272-.15 1.8-.45.54-.312.96-.75 1.26-1.314.3-.564.45-1.206.45-1.926s-.15-1.362-.45-1.926c-.3-.564-.72-.996-1.26-1.296-.528-.312-1.128-.468-1.8-.468-.672 0-1.278.156-1.818.468-.528.3-.948.732-1.26 1.296-.3.564-.45 1.206-.45 1.926s.15 1.362.45 1.926a3.406 3.406 0 0 0 1.26 1.314c.54.3 1.146.45 1.818.45zm15.225-8.424v9.468h-1.278v-8.334h-4.536l-.126 2.34c-.096 1.968-.324 3.48-.684 4.536-.36 1.056-1.002 1.584-1.926 1.584-.252 0-.558-.048-.918-.144l.09-1.098c.216.048.366.072.45.072.492 0 .864-.228 1.116-.684.252-.456.42-1.02.504-1.692.084-.672.156-1.56.216-2.664l.162-3.384h6.93zm11.373 0v9.468h-1.278v-8.334h-4.536l-.126 2.34c-.096 1.968-.324 3.48-.684 4.536-.36 1.056-1.002 1.584-1.926 1.584-.252 0-.558-.048-.918-.144l.09-1.098c.216.048.366.072.45.072.492 0 .864-.228 1.116-.684.252-.456.42-1.02.504-1.692.084-.672.156-1.56.216-2.664l.162-3.384h6.93zM502.147 179.495v12.6h-1.296v-11.448h-2.97v-1.152h4.266zm6.504 0v12.6h-1.296v-11.448h-2.97v-1.152h4.266zm3.984 12.69a.934.934 0 0 1-.684-.288.989.989 0 0 1-.27-.702c0-.276.09-.504.27-.684a.934.934 0 0 1 .684-.288c.264 0 .492.096.684.288.192.18.288.408.288.684 0 .276-.096.51-.288.702a.934.934 0 0 1-.684.288zm7.671.018c-.972 0-1.842-.258-2.61-.774-.756-.516-1.35-1.254-1.782-2.214-.42-.972-.63-2.112-.63-3.42 0-1.308.21-2.442.63-3.402.432-.972 1.026-1.716 1.782-2.232.768-.516 1.638-.774 2.61-.774s1.836.258 2.592.774c.768.516 1.368 1.26 1.8 2.232.432.96.648 2.094.648 3.402 0 1.308-.216 2.448-.648 3.42-.432.96-1.032 1.698-1.8 2.214-.756.516-1.62.774-2.592.774zm0-1.188c.732 0 1.374-.204 1.926-.612.564-.408 1.002-1.002 1.314-1.782.312-.78.468-1.722.468-2.826s-.156-2.046-.468-2.826c-.312-.78-.75-1.374-1.314-1.782-.552-.408-1.194-.612-1.926-.612s-1.38.204-1.944.612c-.552.408-.984 1.002-1.296 1.782-.312.78-.468 1.722-.468 2.826s.156 2.046.468 2.826c.312.78.744 1.374 1.296 1.782a3.231 3.231 0 0 0 1.944.612zm15.647-11.52v.918l-5.274 11.682h-1.404l5.184-11.448h-6.48v2.358h-1.278v-3.51h9.252z" fill="#000"/><path d="M62.77 156.628v9.468h-1.278v-8.334h-4.536l-.127 2.34c-.096 1.968-.324 3.48-.684 4.536-.36 1.056-1.002 1.584-1.926 1.584-.252 0-.558-.048-.918-.144l.09-1.098c.216.048.366.072.45.072.492 0 .864-.228 1.117-.684.252-.456.42-1.02.504-1.692.083-.672.155-1.56.215-2.664l.163-3.384h6.93zm7.539 9.558c-.912 0-1.734-.204-2.466-.612a4.594 4.594 0 0 1-1.728-1.728c-.42-.732-.63-1.56-.63-2.484 0-.924.21-1.752.63-2.484a4.465 4.465 0 0 1 1.728-1.71c.732-.408 1.554-.612 2.466-.612.912 0 1.734.204 2.466.612a4.34 4.34 0 0 1 1.71 1.71c.42.732.63 1.56.63 2.484 0 .924-.21 1.752-.63 2.484a4.465 4.465 0 0 1-1.71 1.728c-.732.408-1.554.612-2.466.612zm0-1.134c.672 0 1.272-.15 1.8-.45.54-.312.96-.75 1.26-1.314.3-.564.45-1.206.45-1.926s-.15-1.362-.45-1.926c-.3-.564-.72-.996-1.26-1.296-.528-.312-1.128-.468-1.8-.468-.672 0-1.278.156-1.818.468-.528.3-.948.732-1.26 1.296-.3.564-.45 1.206-.45 1.926s.15 1.362.45 1.926a3.406 3.406 0 0 0 1.26 1.314c.54.3 1.146.45 1.818.45zm16.719-.072v3.402h-1.206v-2.286h-8.478v2.286h-1.206v-3.402h.54c.636-.036 1.068-.504 1.296-1.404.227-.9.383-2.16.468-3.78l.126-3.168h6.984v8.352h1.476zm-7.416-5.112c-.06 1.344-.174 2.454-.343 3.33-.168.864-.468 1.458-.9 1.782h5.905v-7.218h-4.555l-.107 2.106zm18.204 2.016h-2.052v4.212h-1.278v-4.212h-2.052l-2.898 4.212h-1.53l3.402-4.878-3.132-4.59h1.386l2.772 4.158h2.052v-4.158h1.278v4.158h2.052l2.79-4.158h1.387l-3.132 4.608 3.402 4.86h-1.531l-2.916-4.212zm6.574-5.256h1.278v7.524l6.318-7.524h1.134v9.468h-1.278v-7.524l-6.3 7.524h-1.152v-9.468zm19.665 0v9.468h-1.17v-3.132h-3.331l-2.196 3.132h-1.386l2.358-3.312c-.732-.204-1.296-.552-1.692-1.044-.396-.492-.594-1.116-.594-1.872 0-1.056.36-1.86 1.08-2.412.72-.552 1.704-.828 2.952-.828h3.979zm-6.715 3.276c0 1.404.894 2.106 2.682 2.106h2.863v-4.248h-2.773c-1.848 0-2.772.714-2.772 2.142zM82.83 192.07h-2.52v3.312h-1.296v-3.312h-7.11v-.936l6.678-8.352h1.44l-6.444 8.136h5.472v-2.916h1.26v2.916h2.52v1.152zm2.514 3.402a.934.934 0 0 1-.684-.288.989.989 0 0 1-.27-.702c0-.276.09-.504.27-.684a.934.934 0 0 1 .684-.288c.264 0 .492.096.684.288.192.18.288.408.288.684 0 .276-.096.51-.288.702a.934.934 0 0 1-.684.288zm6.155-7.524c1.824 0 3.15.33 3.978.99.84.648 1.26 1.56 1.26 2.736 0 .732-.174 1.386-.522 1.962-.336.576-.846 1.032-1.53 1.368-.684.324-1.524.486-2.52.486-.9 0-1.758-.144-2.574-.432-.804-.3-1.452-.696-1.944-1.188l.63-1.026c.42.432.972.786 1.656 1.062a6.096 6.096 0 0 0 2.214.396c1.044 0 1.848-.234 2.412-.702.576-.468.864-1.092.864-1.872 0-.864-.324-1.518-.972-1.962-.636-.444-1.716-.666-3.24-.666h-2.682l.648-6.318h6.894v1.152h-5.76l-.432 4.014h1.62zm15.529-5.166v.918l-5.274 11.682h-1.404l5.184-11.448h-6.48v2.358h-1.278v-3.51h9.252z" fill="#20201F"/><path d="M368.57 184.895c1.32.072 2.322.432 3.006 1.08.696.636 1.044 1.47 1.044 2.502 0 .72-.174 1.362-.522 1.926-.348.552-.864.99-1.548 1.314-.684.324-1.518.486-2.502.486a7.73 7.73 0 0 1-2.592-.432c-.804-.3-1.452-.696-1.944-1.188l.63-1.026c.42.432.978.786 1.674 1.062a6.24 6.24 0 0 0 2.232.396c1.032 0 1.83-.222 2.394-.666.564-.456.846-1.08.846-1.872 0-.78-.282-1.392-.846-1.836-.564-.444-1.416-.666-2.556-.666h-.9v-.954l3.492-4.374h-6.444v-1.152h8.1v.918l-3.564 4.482zm6.848 7.29a.934.934 0 0 1-.684-.288.989.989 0 0 1-.27-.702c0-.276.09-.504.27-.684a.934.934 0 0 1 .684-.288c.264 0 .492.096.684.288.192.18.288.408.288.684 0 .276-.096.51-.288.702a.934.934 0 0 1-.684.288zm11.622-1.242v1.152h-8.838v-.918l5.238-5.13c.66-.648 1.104-1.206 1.332-1.674.24-.48.36-.96.36-1.44 0-.744-.258-1.32-.774-1.728-.504-.42-1.23-.63-2.178-.63-1.476 0-2.622.468-3.438 1.404l-.918-.792a4.846 4.846 0 0 1 1.872-1.332c.768-.312 1.632-.468 2.592-.468 1.284 0 2.298.306 3.042.918.756.6 1.134 1.428 1.134 2.484 0 .648-.144 1.272-.432 1.872-.288.6-.834 1.29-1.638 2.07l-4.284 4.212h6.93zm11.915-2.16h-2.52v3.312h-1.296v-3.312h-7.11v-.936l6.678-8.352h1.44l-6.444 8.136h5.472v-2.916h1.26v2.916h2.52v1.152zM393.726 81.067v12.6h-1.296V82.22h-2.97v-1.151h4.266zm3.984 12.69a.934.934 0 0 1-.684-.288.989.989 0 0 1-.27-.701c0-.276.09-.505.27-.684a.934.934 0 0 1 .684-.288c.264 0 .492.095.684.287.192.18.288.409.288.684 0 .276-.096.51-.288.703a.934.934 0 0 1-.684.287zm10.236-6.696c.792.264 1.398.66 1.818 1.188.432.529.648 1.165.648 1.909 0 .731-.198 1.373-.594 1.925-.396.54-.966.96-1.71 1.26-.732.288-1.596.432-2.592.432-1.512 0-2.7-.324-3.564-.972-.864-.647-1.296-1.53-1.296-2.645 0-.757.204-1.392.612-1.909.42-.527 1.026-.923 1.818-1.188-.648-.252-1.14-.612-1.476-1.08-.336-.48-.504-1.043-.504-1.691 0-1.02.396-1.83 1.188-2.43.804-.6 1.878-.9 3.222-.9.888 0 1.662.138 2.322.414.672.264 1.194.648 1.566 1.151.372.504.558 1.093.558 1.764 0 .648-.174 1.212-.522 1.692-.348.469-.846.829-1.494 1.08zm-5.544-2.736c0 .697.276 1.248.828 1.656.552.409 1.314.613 2.286.613s1.734-.204 2.286-.612c.564-.409.846-.954.846-1.638 0-.709-.288-1.266-.864-1.674-.564-.409-1.32-.612-2.268-.612-.96 0-1.722.203-2.286.611-.552.409-.828.96-.828 1.657zm3.114 8.352c1.116 0 1.986-.228 2.61-.684.636-.456.954-1.073.954-1.853s-.318-1.392-.954-1.837c-.624-.456-1.494-.683-2.61-.683-1.104 0-1.974.227-2.61.683-.624.445-.936 1.056-.936 1.837 0 .791.312 1.415.936 1.871.624.445 1.494.666 2.61.666zm10.975-6.21c1.32.073 2.322.433 3.006 1.08.696.636 1.044 1.47 1.044 2.502 0 .72-.174 1.362-.522 1.926-.348.553-.864.99-1.548 1.315-.684.323-1.518.485-2.502.485a7.73 7.73 0 0 1-2.592-.431c-.804-.3-1.452-.697-1.944-1.188l.63-1.027c.42.432.978.786 1.674 1.063a6.24 6.24 0 0 0 2.232.396c1.032 0 1.83-.222 2.394-.666.564-.456.846-1.08.846-1.873 0-.78-.282-1.392-.846-1.836-.564-.444-1.416-.665-2.556-.665h-.9v-.954l3.492-4.374h-6.444v-1.153h8.1v.919l-3.564 4.481z" fill="#000"/></g><defs><clipPath id="a"><path fill="#fff" transform="translate(28 28)" d="M0 0h893.492v493.476H0z"/></clipPath></defs></svg>