<svg width="950" height="550" fill="none" xmlns="http://www.w3.org/2000/svg"><path fill="#fff" d="M0 0h950v550H0z"/><g clip-path="url(#a)"><path fill-rule="evenodd" clip-rule="evenodd" d="M104.894 40h797.674v248.536H625.314v221.579H48V257.99h56.894V40z" fill="#FFE900"/><path d="M610.338 495.139H48v14.976h562.338v-14.976z" fill="#CFD0D0"/><path fill-rule="evenodd" clip-rule="evenodd" d="M104.894 40h797.674v248.536H625.314v221.579H48V257.99h56.894V40z" fill="#E4CDA1"/><path d="M887.015 40h-14.967v14.975h14.967V40zM135.437 40h-14.972v14.975h14.972V40zM270.181 273.561H63.573v14.975H270.18v-14.975zM902.585 273.691h-30.537v14.845h30.537v-14.845zM872.048 40H135.437v14.975h736.611V40zM625.314 273.561h-14.976v236.554h14.976V273.561z" fill="#20201F"/><path d="M625.313 495.139h-39.509v14.976h39.509v-14.976zM525.911 495.139H48v14.976h477.911v-14.976z" fill="#20201F"/><path d="M472.6 495.166h-14.975v14.949H472.6v-14.949zM872.048 273.561H625.313v14.975h246.735v-14.975zM894.804 218.753h-22.756v54.938h22.756v-54.938zM894.804 54.976h-22.756v38.012h22.756V54.976zM226.462 54.976h-22.756v90.43h22.756v-90.43zM226.462 250.209h-22.756v23.352h22.756v-23.352zM78.544 288.536H55.787v40.811h22.757v-40.811zM78.544 425.169H55.787v69.97h22.757v-69.97zM902.585 40h-7.781v56.577h7.781V40zM902.585 215.156h-7.781v58.535h7.781v-58.535zM55.787 421.572h-7.785v73.567h7.785v-73.567zM55.787 257.99h-7.785v74.954h7.785V257.99z" fill="#20201F"/><path d="M195.923 257.99H48.001v7.186h147.922v-7.186zM203.705 250.209h-7.782v23.352h7.782v-23.352zM203.705 54.976h-7.782v90.43h7.782v-90.43z" fill="#20201F"/><path d="M195.924 63.36h-91.03v7.186h91.03V63.36z" fill="#20201F"/><path d="M112.081 40h-7.187v30.546h7.187V40zM897.193 40H883.13v16.55h14.063V40z" fill="#20201F"/><path d="M129.808 40h-18.781v26.953h18.781V40z" fill="#20201F"/><path d="M200.075 54.976h-75.329v10.016h75.329V54.976zM63.762 263.839H53.025v27.2h10.737v-27.2z" fill="#20201F"/><path d="M203.705 261.885H59.508v17.127h144.197v-17.127zM51.724 483.162H48v18.358h3.724v-18.358zM902.585 259.18h-3.89v20.12h3.89v-20.12zM112.08 70.546h-7.186V257.99h7.186V70.546zM482.562 314.779h-68.648v4.788h68.648v-4.788zM270.181 288.536h-4.788v38.404h4.788v-38.404zM366.003 314.779h-95.822v4.788h95.822v-4.788zM270.181 368.856h-4.788v67.419h4.788v-67.419zM311 380.761h-40.819v4.72H311v-4.72zM270.181 487.775h-4.788v7.364h4.788v-7.364zM270.181 436.275h-4.788v51.5h4.788v-51.5zM433.175 380.761h-80.258v4.72h80.258v-4.72zM520.622 380.761H475.1v4.72h45.522v-4.72z" fill="#20201F"/><path d="M408.106 382.756h-4.788v112.647h4.788V382.756zM479.888 382.756H475.1v112.647h4.788V382.756zM520.621 471.481h-4.796v23.658h4.796v-23.658zM520.621 380.761h-4.796v13.522h4.796v-13.522zM479.888 54.976H475.1v264.591h4.788V54.976z" fill="#20201F"/><path d="M531.592 273.561h-54.175v4.703h54.175v-4.703zM610.338 273.561H585.49v4.787h24.848v-4.787zM902.567 96.578h-3.852v118.587h3.852V96.578zM894.803 92.989h-3.852v125.766h3.852V92.989zM875.897 92.989h-3.851v125.766h3.851V92.989zM51.852 332.942H48v88.637h3.852v-88.637zM59.616 329.345h-3.851v95.823h3.851v-95.823zM78.522 329.345H74.67v95.823h3.852v-95.823zM199.793 145.408h-3.853v56.888h3.853v-56.888zM207.557 145.406h-3.852v56.89h3.852v-56.89zM226.462 145.406h-3.852v56.89h3.852v-56.89z" fill="#20201F"/><path d="M226.462 199.469h-30.543v2.827h30.543v-2.827z" fill="#20201F"/><path fill-rule="evenodd" clip-rule="evenodd" d="M412.354 317.417a1.702 1.702 0 0 1-3.401 0v-35.996a1.701 1.701 0 0 1 3.401 0v35.996zM369.627 317.758a.85.85 0 1 1-1.7 0c0-10.268 4.223-19.566 11.046-26.297 6.821-6.729 16.243-10.89 26.642-10.89a.85.85 0 1 1 0 1.7c-9.939 0-18.941 3.974-25.453 10.399-6.507 6.42-10.535 15.29-10.535 25.088zM205.95 249.08a1.701 1.701 0 0 1 0-3.401h35.996a1.702 1.702 0 0 1 0 3.401H205.95zM205.609 206.354a.85.85 0 1 1 0-1.701c10.268 0 19.566 4.223 26.297 11.047 6.729 6.821 10.89 16.242 10.89 26.642a.85.85 0 0 1-1.7 0c0-9.939-3.974-18.941-10.399-25.453-6.42-6.507-15.29-10.535-25.088-10.535zM580.484 276.744a1.701 1.701 0 0 1 3.402 0v35.997a1.7 1.7 0 0 1-3.402 0v-35.997zM533.57 276.404a.85.85 0 1 1 1.701 0c0 9.776 4.592 18.634 12.012 25.051 7.456 6.448 17.765 10.436 29.157 10.436a.85.85 0 0 1 0 1.7c-11.808 0-22.512-4.148-30.266-10.853-7.786-6.734-12.604-16.044-12.604-26.334zM437.514 384.267a1.702 1.702 0 0 1-3.402 0v-35.996a1.702 1.702 0 0 1 3.402 0v35.996zM473.115 384.609a.85.85 0 0 1-1.7 0c0-9.823-3.509-18.708-9.178-25.132-5.644-6.398-13.439-10.355-22.039-10.355a.851.851 0 1 1 0-1.701c9.106 0 17.348 4.179 23.308 10.933 5.936 6.727 9.609 16.01 9.609 26.255zM315.907 384.267a1.7 1.7 0 1 1-3.401 0v-35.996a1.702 1.702 0 0 1 3.401 0v35.996zM351.509 384.609a.85.85 0 0 1-1.701 0c0-9.823-3.509-18.708-9.177-25.132-5.644-6.398-13.44-10.355-22.04-10.355a.85.85 0 0 1 0-1.701c9.106 0 17.348 4.179 23.309 10.933 5.935 6.727 9.609 16.01 9.609 26.255zM267.676 331.499a1.701 1.701 0 0 1 0-3.402h35.997a1.701 1.701 0 0 1 0 3.402h-35.997zM267.336 367.101a.851.851 0 1 1 0-1.701c9.822 0 18.708-3.509 25.131-9.178 6.398-5.644 10.356-13.439 10.356-22.039a.85.85 0 1 1 1.7 0c0 9.106-4.178 17.348-10.933 23.308-6.727 5.936-16.01 9.61-26.254 9.61zM531.955 498.496a1.7 1.7 0 0 1-3.401 0v-35.997a1.701 1.701 0 0 1 3.401 0v35.997zM582.455 498.838a.85.85 0 0 1-1.701 0c0-9.765-4.936-18.616-12.913-25.033-8.03-6.458-19.136-10.455-31.41-10.455a.85.85 0 0 1 0-1.701c12.668 0 24.152 4.141 32.473 10.835 8.37 6.732 13.551 16.05 13.551 26.354zM135.553 456.437h90.355v36.142H134.49v-36.142h1.063zm62.076 4.273c-.995 0-1.901.407-2.555 1.065a3.607 3.607 0 0 0-1.06 2.549v20.41c0 .991.407 1.895 1.06 2.554a3.612 3.612 0 0 0 2.555 1.06h20.409a3.618 3.618 0 0 0 3.613-3.614v-20.41c0-.995-.406-1.899-1.063-2.551a3.596 3.596 0 0 0-2.55-1.063h-20.409zm-51.566 1.689a4.99 4.99 0 0 0-3.531 1.464 4.987 4.987 0 0 0 .002 7.064 4.982 4.982 0 0 0 7.059-.002 4.975 4.975 0 0 0 1.466-3.53c0-1.378-.56-2.628-1.464-3.532a4.987 4.987 0 0 0-3.532-1.464zm0 13.163c-1.672 0-3.187.68-4.283 1.776a6.043 6.043 0 0 0-1.776 4.283c0 1.672.68 3.188 1.776 4.284a6.04 6.04 0 0 0 4.283 1.775 6.044 6.044 0 0 0 4.284-1.775 6.043 6.043 0 0 0 1.775-4.284 6.042 6.042 0 0 0-1.775-4.283 6.045 6.045 0 0 0-4.284-1.776zm3.233 2.827a4.561 4.561 0 0 0-3.233-1.338 4.557 4.557 0 0 0-3.232 1.338 4.56 4.56 0 0 0-1.339 3.232 4.56 4.56 0 0 0 1.339 3.233 4.557 4.557 0 0 0 3.232 1.338 4.561 4.561 0 0 0 3.233-1.338 4.564 4.564 0 0 0 1.338-3.233 4.563 4.563 0 0 0-1.338-3.232zm9.762-17.053c-1.672 0-3.187.68-4.283 1.776a6.041 6.041 0 0 0-1.776 4.283c0 1.672.679 3.188 1.775 4.284a6.038 6.038 0 0 0 4.284 1.775 6.044 6.044 0 0 0 4.284-1.775 6.044 6.044 0 0 0 1.775-4.284 6.042 6.042 0 0 0-1.775-4.283 6.047 6.047 0 0 0-4.284-1.776zm3.232 2.827a4.558 4.558 0 0 0-3.232-1.339 4.556 4.556 0 0 0-3.232 1.339 4.556 4.556 0 0 0-1.339 3.232c0 1.263.512 2.408 1.338 3.233a4.56 4.56 0 0 0 3.233 1.338 4.56 4.56 0 0 0 3.232-1.338 4.56 4.56 0 0 0 1.339-3.233 4.558 4.558 0 0 0-1.339-3.232zm-3.232 12.462a4.99 4.99 0 0 0-3.532 1.465 4.982 4.982 0 0 0-1.464 3.531c0 1.375.56 2.625 1.467 3.532a4.982 4.982 0 0 0 7.059-.002 4.975 4.975 0 0 0 1.466-3.53c0-1.377-.56-2.627-1.464-3.531a4.983 4.983 0 0 0-3.532-1.465zm2.481 2.516a3.5 3.5 0 0 0-2.481-1.028 3.49 3.49 0 0 0-2.48 1.025 3.51 3.51 0 0 0-1.028 2.483c0 .971.392 1.849 1.025 2.481a3.496 3.496 0 0 0 2.483 1.027 3.5 3.5 0 0 0 2.481-1.027 3.488 3.488 0 0 0 1.027-2.481c0-.968-.394-1.847-1.027-2.48zm-12.995-14.226a3.5 3.5 0 0 0-2.481-1.028 3.49 3.49 0 0 0-2.48 1.025 3.51 3.51 0 0 0-1.028 2.483c0 .971.392 1.849 1.025 2.481a3.496 3.496 0 0 0 2.483 1.027 3.503 3.503 0 0 0 3.508-3.508c0-.968-.394-1.847-1.027-2.48zm69.494-2.079h-20.409a1.49 1.49 0 0 0-1.489 1.488v20.41a1.485 1.485 0 0 0 1.489 1.488h20.409c.41 0 .782-.167 1.049-.434.27-.274.438-.648.438-1.054v-20.41c0-.406-.168-.78-.438-1.05a1.468 1.468 0 0 0-1.049-.438zm-49.567 27.617v-31.89h-31.855v31.89h31.855zm2.126-31.89v31.89h53.185v-31.89h-53.185zM444.663 459.884c-1.799 2.797-2.909 6.386-2.909 9.541 0 3.106 1.065 5.529 2.809 7.217h.005c.661.637 1.445 1.131 2.276 1.55h-3.588c-2.141 0-3.396.894-4.125 2.331-.665 1.307-.829 3.036-.829 4.931v.783h.019c.045 1.579.242 3.022.81 4.145.729 1.436 1.984 2.326 4.115 2.326h17.595c2.14 0 3.394-.89 4.118-2.326.564-1.123.767-2.566.81-4.145h.019v-.783c0-1.895-.164-3.624-.829-4.931-.724-1.437-1.978-2.331-4.118-2.331h-3.595c.831-.419 1.612-.908 2.275-1.55 1.747-1.688 2.814-4.111 2.814-7.217 0-3.334-1.244-7.151-3.226-10.013-1.829-2.642-4.303-4.495-7.064-4.495-2.925 0-5.528 2.079-7.382 4.967zm7.889 27.904v.005h-.003a2.315 2.315 0 0 1-1.63-.681h-.005a2.302 2.302 0 0 1 0-3.26v-.008l.005.001a2.315 2.315 0 0 1 3.266-.001c.416.418.677.996.677 1.636 0 .638-.261 1.209-.677 1.632a2.3 2.3 0 0 1-1.633.676zm.002-1.183h-.005c-.311 0-.592-.125-.792-.321v-.008a1.14 1.14 0 0 1-.01-1.597l.008-.005c.202-.196.483-.323.794-.323.323 0 .602.127.803.323.196.201.321.49.321.806 0 .314-.125.601-.33.796a1.08 1.08 0 0 1-.789.336v-.007zm8.287-6.851c1.444 0 2.268.567 2.729 1.466.464.932.62 2.225.648 3.686v.548c0 1.683-.129 3.192-.648 4.23-.461.9-1.287 1.46-2.729 1.46h-17.595c-1.441 0-2.263-.56-2.723-1.46-.524-1.038-.651-2.547-.651-4.23v-.609c.033-1.43.187-2.713.648-3.625.463-.906 1.292-1.466 2.736-1.466h17.585zm-3.012-19.458c1.812 2.613 2.944 6.093 2.944 9.129 0 2.653-.886 4.694-2.332 6.095-1.583 1.533-3.862 2.326-6.396 2.326-2.538 0-4.815-.793-6.402-2.326-1.443-1.401-2.327-3.442-2.327-6.095 0-2.868 1.014-6.142 2.658-8.702 1.583-2.467 3.74-4.244 6.071-4.244 2.191 0 4.228 1.581 5.784 3.817zM341.239 492.96l-19.49.006c-6.518 0-5.75-13.492-5.683-14.393a11.29 11.29 0 0 1 3.327-8.007 11.305 11.305 0 0 1 8.009-3.316h8.271c3.128 0 5.963 1.267 8.017 3.316a11.388 11.388 0 0 1 3.329 8.013c.042.915.713 14.387-5.78 14.381zm-9.705-13.142v-.003a2.533 2.533 0 0 0 1.769-.727 2.535 2.535 0 0 0 .718-1.766 2.48 2.48 0 0 0-2.49-2.492c-.683 0-1.309.276-1.759.728h-.009v.005a2.481 2.481 0 0 0-.732 1.759c0 .683.282 1.316.732 1.766h.003a2.504 2.504 0 0 0 1.765.734l.003-.004zm.004-1.272c.326 0 .633-.134.852-.36.214-.214.352-.522.352-.864 0-.34-.132-.648-.346-.869a1.225 1.225 0 0 0-.865-.347c-.343 0-.64.133-.86.347l-.005.005a1.21 1.21 0 0 0-.353.864c0 .336.143.644.354.864l.005.003c.216.216.522.346.854.346l.012-.002v.013zm-.004 9.665c3.142 0 5.994-.936 8.068-2.439 2.155-1.572 3.495-3.767 3.496-6.2 0-2.443-1.341-4.637-3.496-6.212-2.081-1.511-4.935-2.439-8.078-2.439h-.014c-3.135.007-5.981.942-8.061 2.448-2.145 1.571-3.482 3.76-3.484 6.189l.002.014c0 2.439 1.337 4.622 3.499 6.2 2.069 1.505 4.92 2.439 8.06 2.436l.008.003zm0-1.758c2.753-.005 5.242-.813 7.041-2.111 1.698-1.242 2.755-2.933 2.755-4.77 0-1.849-1.057-3.54-2.769-4.787-1.79-1.294-4.274-2.099-7.037-2.099h-.006l-.008-.005c-2.756.005-5.234.81-7.024 2.112-1.694 1.236-2.75 2.93-2.756 4.765l.006.014c-.004 1.84 1.054 3.533 2.756 4.77 1.791 1.293 4.275 2.106 7.032 2.104h.01v.007zm9.699 4.748c4.839 0 4.015-12.526 4.015-12.558l-.008-.064a9.563 9.563 0 0 0-2.791-6.765 9.577 9.577 0 0 0-6.776-2.798h-8.263a9.557 9.557 0 0 0-9.584 9.563l-.002.062c0 .031-.888 12.56 3.93 12.56h19.479zM398.378 490.324V390.296h-42.146v100.028h42.146zm-25.17-19.491c0-1.099.459-2.094 1.2-2.813a4.159 4.159 0 0 1 2.897-1.165c1.129 0 2.152.446 2.893 1.165a3.911 3.911 0 0 1 1.203 2.813 3.909 3.909 0 0 1-1.199 2.809 4.135 4.135 0 0 1-2.897 1.168 4.146 4.146 0 0 1-2.897-1.164 3.912 3.912 0 0 1-1.2-2.813zm2.357-1.689a2.495 2.495 0 0 1 1.74-.697c.68 0 1.296.267 1.739.697a2.35 2.35 0 0 1 .719 1.689c0 .66-.276 1.258-.72 1.688a2.492 2.492 0 0 1-1.738.698 2.493 2.493 0 0 1-1.739-.698 2.349 2.349 0 0 1-.719-1.688c0-.659.275-1.256.718-1.689zm-18.127 13.63 1.638-70.61c0-10.605 7.306-19.29 18.229-19.29 10.922 0 18.228 8.685 18.228 19.29l1.639 70.61a4.885 4.885 0 0 1-1.504 3.512 5.197 5.197 0 0 1-3.617 1.46h-29.493a5.183 5.183 0 0 1-3.613-1.46c-.931-.906-1.507-2.148-1.507-3.512zm3.686-70.61c0-9.519 6.377-17.301 16.181-17.301 9.803 0 16.18 7.782 16.18 17.301l1.638 70.61c0 .819-.346 1.565-.903 2.11a3.11 3.11 0 0 1-2.169.873h-29.493a3.114 3.114 0 0 1-2.173-.877 2.932 2.932 0 0 1-.899-2.106l1.638-70.61zm39.26-22.078v100.448c0 .5-.204.955-.528 1.286a1.774 1.774 0 0 1-1.272.537h-42.559c-.495 0-.948-.205-1.272-.533a1.839 1.839 0 0 1-.527-1.29V390.086c0-.502.202-.959.527-1.289a1.806 1.806 0 0 1 1.272-.534h42.559c.493 0 .943.206 1.269.534.328.335.531.79.531 1.289zM513.012 470.749v-3.381c0-.404.331-.732.733-.732h.707v-34.771a1.064 1.064 0 0 1 2.127 0v34.771h5.797c.4 0 .732.331.732.732v3.381a.732.732 0 0 1-.732.731h-8.631a.732.732 0 0 1-.733-.731zM523.352 394.981v3.381c0 .404-.33.732-.732.732h-.707v34.771a1.064 1.064 0 0 1-2.127 0v-34.771h-5.797a.736.736 0 0 1-.732-.732v-3.381c0-.403.329-.731.732-.731h8.631c.404 0 .732.328.732.731z" fill="#20201F"/><path d="M553.925 97.083h-2.126v101.095h2.126V97.083zM538.124 159.627v7.589h-30.413v-6.037l15.522-14.66c1.649-1.572 2.76-2.913 3.335-4.025.575-1.149.862-2.28.862-3.392 0-1.609-.555-2.836-1.667-3.679-1.073-.882-2.664-1.322-4.772-1.322-1.763 0-3.353.345-4.772 1.034-1.418.652-2.606 1.649-3.564 2.99l-6.784-4.369c1.571-2.338 3.737-4.159 6.497-5.462 2.759-1.342 5.921-2.012 9.486-2.012 2.989 0 5.596.498 7.819 1.495 2.261.958 4.005 2.338 5.231 4.139 1.265 1.763 1.898 3.852 1.898 6.267 0 2.184-.46 4.235-1.38 6.151-.92 1.917-2.702 4.101-5.347 6.554l-9.256 8.739h17.305zM586.163 119.064h-2.875v3.778h-1.478v-3.778h-8.111v-1.068l7.618-9.527h1.643l-7.351 9.281h6.242v-3.327h1.437v3.327h2.875v1.314zm4.82-10.595v14.373h-1.479v-13.059h-3.388v-1.314h4.867zm4.544 14.475c-.301 0-.561-.109-.78-.328a1.125 1.125 0 0 1-.308-.801c0-.315.102-.575.308-.78.219-.219.479-.329.78-.329.301 0 .561.11.78.329.219.205.329.465.329.78s-.11.582-.329.801a1.065 1.065 0 0 1-.78.328zm15.199-3.88h-2.875v3.778h-1.478v-3.778h-8.111v-1.068l7.618-9.527h1.643l-7.351 9.281h6.242v-3.327h1.437v3.327h2.875v1.314zm10.478-10.595v1.047l-6.016 13.326h-1.601l5.913-13.059h-7.392v2.69h-1.458v-4.004h10.554zM576.615 143.525c.945 0 1.78.178 2.505.534.74.355 1.315.862 1.725 1.519.411.643.616 1.396.616 2.259 0 .876-.212 1.649-.636 2.32a4.256 4.256 0 0 1-1.766 1.56c-.739.356-1.574.534-2.505.534-1.903 0-3.361-.623-4.374-1.868-1.013-1.26-1.519-3.032-1.519-5.318 0-1.602.274-2.957.821-4.066.548-1.109 1.314-1.944 2.3-2.505.986-.575 2.135-.862 3.449-.862 1.424 0 2.56.26 3.409.78l-.596 1.191c-.684-.452-1.615-.678-2.792-.678-1.588 0-2.834.507-3.737 1.52-.903.999-1.355 2.457-1.355 4.373 0 .342.02.733.061 1.171.356-.781.924-1.383 1.705-1.807.78-.438 1.677-.657 2.689-.657zm-.123 7.474c1.041 0 1.882-.281 2.526-.842.657-.575.985-1.335.985-2.279 0-.945-.328-1.698-.985-2.259-.644-.561-1.52-.842-2.628-.842-.726 0-1.369.137-1.93.411-.548.274-.979.65-1.294 1.129a2.852 2.852 0 0 0-.472 1.602c0 .547.143 1.054.431 1.519.301.466.739.842 1.314 1.129.575.288 1.259.432 2.053.432zm14.915-6.407c.903.302 1.595.753 2.074 1.356.492.602.739 1.327.739 2.176 0 .835-.226 1.567-.678 2.197-.452.616-1.102 1.095-1.95 1.437-.835.329-1.821.493-2.957.493-1.725 0-3.08-.369-4.066-1.109-.985-.739-1.478-1.745-1.478-3.018 0-.862.233-1.588.698-2.176.479-.603 1.17-1.054 2.074-1.356-.739-.287-1.3-.698-1.684-1.232-.383-.547-.575-1.19-.575-1.93 0-1.163.452-2.087 1.355-2.772.918-.684 2.143-1.026 3.676-1.026 1.013 0 1.896.157 2.649.472.766.301 1.362.739 1.786 1.314.424.575.636 1.246.636 2.012 0 .74-.198 1.383-.595 1.93-.397.534-.965.945-1.704 1.232zm-6.324-3.121c0 .794.315 1.424.944 1.889.63.466 1.499.699 2.608.699s1.978-.233 2.608-.699c.643-.465.965-1.088.965-1.868 0-.808-.329-1.444-.986-1.91-.643-.465-1.506-.698-2.587-.698-1.095 0-1.964.233-2.608.698-.629.466-.944 1.095-.944 1.889zm3.552 9.528c1.273 0 2.265-.26 2.977-.781.726-.52 1.088-1.225 1.088-2.114 0-.89-.362-1.588-1.088-2.095-.712-.52-1.704-.78-2.977-.78-1.259 0-2.252.26-2.977.78-.712.507-1.068 1.205-1.068 2.095 0 .903.356 1.615 1.068 2.135.711.506 1.704.76 2.977.76zm8.941 1.232c-.301 0-.561-.11-.78-.329a1.13 1.13 0 0 1-.308-.801c0-.315.103-.575.308-.78.219-.219.479-.328.78-.328.301 0 .561.109.78.328.219.205.329.465.329.78s-.11.582-.329.801a1.066 1.066 0 0 1-.78.329zm11.677-7.639c.903.302 1.594.753 2.074 1.356.492.602.739 1.327.739 2.176 0 .835-.226 1.567-.678 2.197-.452.616-1.102 1.095-1.951 1.437-.835.329-1.82.493-2.956.493-1.725 0-3.08-.369-4.066-1.109-.985-.739-1.478-1.745-1.478-3.018 0-.862.233-1.588.698-2.176.479-.603 1.17-1.054 2.074-1.356-.739-.287-1.301-.698-1.684-1.232-.383-.547-.575-1.19-.575-1.93 0-1.163.452-2.087 1.355-2.772.918-.684 2.143-1.026 3.676-1.026 1.013 0 1.896.157 2.648.472.767.301 1.362.739 1.787 1.314.424.575.636 1.246.636 2.012 0 .74-.198 1.383-.595 1.93-.397.534-.965.945-1.704 1.232zm-6.324-3.121c0 .794.314 1.424.944 1.889.63.466 1.499.699 2.608.699s1.978-.233 2.607-.699c.644-.465.965-1.088.965-1.868 0-.808-.328-1.444-.985-1.91-.643-.465-1.506-.698-2.587-.698-1.095 0-1.965.233-2.608.698-.63.466-.944 1.095-.944 1.889zm3.552 9.528c1.273 0 2.265-.26 2.977-.781.726-.52 1.088-1.225 1.088-2.114 0-.89-.362-1.588-1.088-2.095-.712-.52-1.704-.78-2.977-.78-1.26 0-2.252.26-2.977.78-.712.507-1.068 1.205-1.068 2.095 0 .903.356 1.615 1.068 2.135.711.506 1.704.76 2.977.76zm13.586-7.474c.945 0 1.78.178 2.505.534a4.054 4.054 0 0 1 1.725 1.519c.411.643.616 1.396.616 2.259 0 .876-.212 1.649-.637 2.32a4.253 4.253 0 0 1-1.765 1.56c-.74.356-1.575.534-2.505.534-1.903 0-3.361-.623-4.374-1.868-1.013-1.26-1.519-3.032-1.519-5.318 0-1.602.273-2.957.821-4.066.548-1.109 1.314-1.944 2.3-2.505.985-.575 2.135-.862 3.449-.862 1.424 0 2.56.26 3.409.78l-.596 1.191c-.684-.452-1.615-.678-2.792-.678-1.588 0-2.834.507-3.737 1.52-.904.999-1.355 2.457-1.355 4.373 0 .342.02.733.061 1.171.356-.781.924-1.383 1.704-1.807.781-.438 1.677-.657 2.69-.657zm-.123 7.474c1.04 0 1.882-.281 2.526-.842.657-.575.985-1.335.985-2.279 0-.945-.328-1.698-.985-2.259-.644-.561-1.52-.842-2.629-.842-.725 0-1.368.137-1.93.411-.547.274-.978.65-1.293 1.129a2.853 2.853 0 0 0-.473 1.602c0 .547.144 1.054.432 1.519.301.466.739.842 1.314 1.129.575.288 1.259.432 2.053.432zM584.161 167.041v1.047l-6.016 13.326h-1.602l5.914-13.059h-7.392v2.69h-1.458v-4.004h10.554zm6.132 0v14.373h-1.478v-13.059h-3.388v-1.314h4.866zm4.544 14.476c-.301 0-.561-.11-.78-.329a1.13 1.13 0 0 1-.308-.801c0-.314.103-.574.308-.78.219-.219.479-.328.78-.328.302 0 .562.109.781.328.219.206.328.466.328.78 0 .315-.109.582-.328.801a1.067 1.067 0 0 1-.781.329zm8.751.02c-1.109 0-2.101-.294-2.977-.883-.863-.588-1.54-1.43-2.033-2.525-.479-1.109-.719-2.409-.719-3.901s.24-2.786.719-3.881c.493-1.109 1.17-1.958 2.033-2.546.876-.589 1.868-.883 2.977-.883 1.109 0 2.094.294 2.957.883.876.588 1.56 1.437 2.053 2.546.493 1.095.739 2.389.739 3.881s-.246 2.792-.739 3.901c-.493 1.095-1.177 1.937-2.053 2.525-.863.589-1.848.883-2.957.883zm0-1.355c.835 0 1.567-.233 2.197-.698.643-.465 1.143-1.143 1.499-2.033.356-.89.534-1.964.534-3.223 0-1.26-.178-2.334-.534-3.224-.356-.89-.856-1.567-1.499-2.033-.63-.465-1.362-.698-2.197-.698s-1.574.233-2.218.698c-.629.466-1.122 1.143-1.478 2.033-.356.89-.534 1.964-.534 3.224 0 1.259.178 2.333.534 3.223.356.89.849 1.568 1.478 2.033.644.465 1.383.698 2.218.698zm11.644-7.248c2.081 0 3.593.376 4.538 1.129.958.74 1.437 1.78 1.437 3.121 0 .835-.198 1.581-.595 2.238-.383.657-.965 1.178-1.745 1.561-.781.369-1.739.554-2.875.554a8.743 8.743 0 0 1-2.936-.493c-.917-.342-1.657-.793-2.218-1.355l.719-1.17c.479.493 1.109.897 1.889 1.211.78.302 1.622.452 2.525.452 1.191 0 2.108-.267 2.752-.801.657-.534.985-1.245.985-2.135 0-.986-.369-1.732-1.108-2.238-.726-.507-1.958-.76-3.696-.76h-3.06l.739-7.207h7.865v1.314h-6.571l-.493 4.579h1.848z" fill="#20201F"/><path d="M703.419 143.627h-5.667v8.419h-3.183v-11.047h8.85v2.628zm6.41 8.583c-1.163 0-2.21-.239-3.141-.718a5.513 5.513 0 0 1-2.156-2.033c-.52-.863-.78-1.841-.78-2.936 0-1.096.26-2.074.78-2.937a5.365 5.365 0 0 1 2.156-2.012c.931-.493 1.978-.739 3.141-.739 1.164 0 2.204.246 3.121.739a5.359 5.359 0 0 1 2.156 2.012c.521.863.781 1.841.781 2.937 0 1.095-.26 2.073-.781 2.936a5.507 5.507 0 0 1-2.156 2.033c-.917.479-1.957.718-3.121.718zm0-2.628c.822 0 1.493-.274 2.013-.821.534-.562.8-1.308.8-2.238 0-.931-.266-1.67-.8-2.218-.52-.561-1.191-.842-2.013-.842-.821 0-1.498.281-2.032.842-.534.548-.801 1.287-.801 2.218 0 .93.267 1.676.801 2.238.534.547 1.211.821 2.032.821zm13.517 2.628c-1.177 0-2.238-.239-3.182-.718a5.62 5.62 0 0 1-2.197-2.033c-.521-.863-.781-1.841-.781-2.936 0-1.096.26-2.074.781-2.937a5.47 5.47 0 0 1 2.197-2.012c.944-.493 2.005-.739 3.182-.739 1.164 0 2.177.246 3.039.739a4.263 4.263 0 0 1 1.91 2.074l-2.485 1.335c-.575-1.013-1.403-1.52-2.484-1.52-.835 0-1.527.274-2.074.821-.548.548-.822 1.294-.822 2.239 0 .944.274 1.69.822 2.238.547.547 1.239.821 2.074.821 1.095 0 1.923-.507 2.484-1.519l2.485 1.355c-.397.876-1.034 1.56-1.91 2.053-.862.493-1.875.739-3.039.739zm16.136-8.583h-3.737v8.419h-3.183v-8.419h-3.737v-2.628h10.657v2.628zm1.707-2.628h3.183v6.571l5.379-6.571h2.937v11.047h-3.183v-6.571l-5.359 6.571h-2.957v-11.047zm14.578 0h3.182v4.312h4.805v-4.312h3.203v11.047h-3.203v-4.127h-4.805v4.127h-3.182v-11.047zm18.548-.164c1.711 0 3.025.411 3.942 1.232.917.808 1.376 2.033 1.376 3.675v6.304h-2.998v-1.376c-.602 1.027-1.725 1.54-3.368 1.54-.848 0-1.587-.144-2.217-.431-.616-.287-1.088-.684-1.417-1.191a3.102 3.102 0 0 1-.493-1.725c0-1.026.384-1.834 1.15-2.423.78-.588 1.978-.882 3.593-.882h2.547c0-.699-.213-1.232-.637-1.602-.424-.383-1.061-.575-1.91-.575-.588 0-1.17.096-1.745.288a4.433 4.433 0 0 0-1.437.739l-1.15-2.238c.602-.425 1.321-.753 2.156-.986a9.807 9.807 0 0 1 2.608-.349zm-.247 9.219c.548 0 1.034-.123 1.458-.369a2.13 2.13 0 0 0 .904-1.13v-1.129h-2.197c-1.315 0-1.972.431-1.972 1.294 0 .41.158.739.473.985.328.233.773.349 1.334.349zm18.162-9.055v11.047h-2.854v-3.162h-2.361l-2.095 3.162h-3.408l2.525-3.614c-.766-.301-1.355-.732-1.766-1.293-.397-.575-.595-1.267-.595-2.074 0-1.301.465-2.3 1.396-2.998.945-.712 2.238-1.068 3.881-1.068h5.277zm-5.215 2.608c-.685 0-1.205.123-1.561.37-.342.246-.513.643-.513 1.19 0 .548.164.952.492 1.212.343.246.856.369 1.54.369h2.403v-3.141h-2.361zM727.501 178.622v2.71h-10.862v-2.156l5.544-5.236c.589-.561.986-1.04 1.191-1.437a2.69 2.69 0 0 0 .308-1.212c0-.574-.198-1.012-.595-1.314-.383-.314-.952-.472-1.704-.472a3.84 3.84 0 0 0-1.705.37c-.506.232-.93.588-1.273 1.067l-2.423-1.56c.562-.835 1.335-1.485 2.321-1.951.985-.479 2.115-.718 3.388-.718 1.067 0 1.998.178 2.792.534.808.342 1.43.835 1.869 1.478.451.63.677 1.376.677 2.238 0 .78-.164 1.513-.493 2.197-.328.684-.965 1.465-1.909 2.341l-3.306 3.121h6.18zm8.087-5.811c1.259.205 2.224.678 2.895 1.417.671.725 1.006 1.629 1.006 2.71 0 .835-.219 1.608-.657 2.32-.438.698-1.109 1.26-2.012 1.684-.89.424-1.985.636-3.285.636-1.013 0-2.012-.13-2.998-.39-.972-.273-1.8-.657-2.484-1.15l1.293-2.546a6.45 6.45 0 0 0 1.889.965 7.639 7.639 0 0 0 2.218.329c.835 0 1.492-.157 1.971-.472.479-.329.718-.787.718-1.376 0-1.177-.896-1.766-2.689-1.766h-1.52v-2.197l2.957-3.347h-6.119v-2.669h10.061v2.156l-3.244 3.696zm7.326 8.685a1.925 1.925 0 0 1-1.417-.575c-.383-.383-.575-.862-.575-1.437 0-.589.192-1.061.575-1.417.384-.369.856-.554 1.417-.554s1.034.185 1.417.554c.383.356.575.828.575 1.417 0 .575-.192 1.054-.575 1.437a1.923 1.923 0 0 1-1.417.575zm14.416-14.537v2.156l-5.338 12.217h-3.614l5.153-11.663h-4.763v2.341h-2.957v-5.051h11.519zm7.999 5.359c.917 0 1.752.185 2.505.555a4.344 4.344 0 0 1 1.787 1.581c.438.67.657 1.451.657 2.34 0 .958-.24 1.8-.719 2.526-.479.725-1.136 1.287-1.971 1.684-.821.383-1.738.574-2.751.574-2.013 0-3.587-.616-4.723-1.848-1.136-1.231-1.704-2.99-1.704-5.276 0-1.629.308-3.026.924-4.189.616-1.164 1.471-2.047 2.566-2.649 1.109-.602 2.389-.903 3.84-.903.767 0 1.499.089 2.197.267.712.164 1.314.403 1.807.718l-1.232 2.444c-.712-.479-1.608-.719-2.69-.719-1.218 0-2.183.356-2.895 1.068-.712.712-1.095 1.745-1.15 3.1.849-.849 2.033-1.273 3.552-1.273zm-.677 6.776c.712 0 1.286-.192 1.725-.575.451-.383.677-.903.677-1.56 0-.658-.226-1.178-.677-1.561-.439-.397-1.027-.595-1.766-.595-.726 0-1.321.205-1.787.616-.465.397-.698.91-.698 1.54 0 .629.226 1.143.678 1.54.452.396 1.068.595 1.848.595z" fill="#000"/><path d="M309.879 150.752c-1.177 0-2.238-.239-3.182-.718a5.627 5.627 0 0 1-2.197-2.033c-.52-.863-.78-1.841-.78-2.936 0-1.096.26-2.074.78-2.937a5.476 5.476 0 0 1 2.197-2.012c.944-.493 2.005-.739 3.182-.739 1.164 0 2.177.246 3.039.739a4.263 4.263 0 0 1 1.91 2.074l-2.485 1.335c-.575-1.013-1.403-1.52-2.484-1.52-.835 0-1.526.274-2.074.821-.548.548-.821 1.294-.821 2.239 0 .944.273 1.69.821 2.238.548.547 1.239.821 2.074.821 1.095 0 1.923-.507 2.484-1.519l2.485 1.355c-.397.876-1.034 1.56-1.91 2.053-.862.493-1.875.739-3.039.739zm17.88-11.211v11.047h-3.203v-8.419h-4.599v8.419h-3.183v-11.047h10.985zm7.363-.164c1.711 0 3.025.411 3.942 1.232.917.808 1.376 2.033 1.376 3.675v6.304h-2.998v-1.376c-.602 1.027-1.725 1.54-3.367 1.54-.849 0-1.588-.144-2.218-.431-.616-.287-1.088-.684-1.417-1.191a3.102 3.102 0 0 1-.493-1.725c0-1.026.384-1.834 1.15-2.423.781-.588 1.978-.882 3.594-.882h2.546c0-.699-.213-1.232-.637-1.602-.424-.383-1.061-.575-1.909-.575a5.48 5.48 0 0 0-1.746.288 4.433 4.433 0 0 0-1.437.739l-1.15-2.238c.602-.425 1.321-.753 2.156-.986a9.807 9.807 0 0 1 2.608-.349zm-.247 9.219c.548 0 1.034-.123 1.458-.369a2.13 2.13 0 0 0 .904-1.13v-1.129h-2.197c-1.315 0-1.972.431-1.972 1.294 0 .41.158.739.473.985.328.233.773.349 1.334.349zm18.942-9.055v11.047h-3.203v-8.419h-3.491l-.102 1.951c-.055 1.451-.192 2.656-.411 3.614-.219.958-.575 1.711-1.068 2.258-.492.548-1.177.822-2.053.822-.465 0-1.02-.082-1.663-.247l.164-2.628c.219.028.377.041.473.041.479 0 .835-.171 1.067-.513.247-.356.411-.801.493-1.335a21.95 21.95 0 0 0 .185-2.156l.164-4.435h9.445zm9.055 3.532c1.438.014 2.54.342 3.306.985.767.63 1.15 1.527 1.15 2.69 0 1.219-.431 2.17-1.294 2.854-.848.671-2.046 1.006-3.593 1.006l-5.544-.02v-11.047h3.183v3.532h2.792zm-.718 5.256c.616.014 1.088-.116 1.417-.39.328-.274.492-.684.492-1.232 0-.534-.164-.924-.492-1.17-.315-.247-.788-.377-1.417-.39l-2.074-.021v3.203h2.074zm7.175-8.788h3.183v4.312h4.805v-4.312h3.203v11.047h-3.203v-4.127h-4.805v4.127h-3.183v-11.047zm24.072 0v11.047h-2.854v-3.162h-2.362l-2.094 3.162h-3.408l2.525-3.614c-.766-.301-1.355-.732-1.766-1.293-.397-.575-.595-1.267-.595-2.074 0-1.301.465-2.3 1.396-2.998.945-.712 2.238-1.068 3.881-1.068h5.277zm-5.216 2.608c-.684 0-1.204.123-1.56.369-.342.247-.513.644-.513 1.191 0 .548.164.952.492 1.212.343.246.856.369 1.54.369h2.403v-3.141h-2.362zM331.952 165.501v14.373h-3.327V168.17h-2.874v-2.669h6.201zm13.748 0v2.156l-5.338 12.217h-3.614l5.154-11.663h-4.764v2.341h-2.957v-5.051H345.7zm2.368 14.537c-.562 0-1.034-.191-1.417-.575-.383-.383-.575-.862-.575-1.437 0-.589.192-1.061.575-1.417.383-.369.855-.554 1.417-.554.561 0 1.033.185 1.416.554.384.356.575.828.575 1.417 0 .575-.191 1.054-.575 1.437a1.92 1.92 0 0 1-1.416.575zm14.416-14.537v2.156l-5.339 12.217h-3.614l5.154-11.663h-4.764v2.341h-2.956v-5.051h11.519zm7.225 0v14.373h-3.327V168.17h-2.874v-2.669h6.201z" fill="#20201F"/><path d="M146.225 361.497h-1.664v4.189h-3.203v-11.047h3.203v4.291h1.725l2.998-4.291h3.408l-3.86 5.297 4.127 5.75h-3.778l-2.956-4.189zm18.753-6.858-4.99 11.724c-.506 1.273-1.136 2.17-1.889 2.69-.739.52-1.635.78-2.69.78a5.608 5.608 0 0 1-1.704-.267c-.561-.178-1.02-.424-1.375-.739l1.17-2.279a2.77 2.77 0 0 0 1.807.698c.438 0 .794-.109 1.068-.328.273-.206.52-.555.739-1.048l.041-.102-4.784-11.129h3.305l3.101 7.494 3.121-7.494h3.08zm7.864 11.047-2.423-3.388-2.505 3.388h-3.491l4.25-5.565-4.106-5.482h3.593l2.341 3.224 2.402-3.224h3.409l-4.107 5.4 4.271 5.647h-3.634zm5.211-11.047h3.182v4.312h4.805v-4.312h3.203v11.047h-3.203v-4.128h-4.805v4.128h-3.182v-11.047zm24.071 0v11.047h-2.854v-3.163h-2.361l-2.095 3.163h-3.408l2.525-3.614c-.766-.301-1.355-.733-1.765-1.294-.397-.575-.596-1.266-.596-2.074 0-1.3.466-2.299 1.396-2.997.945-.712 2.238-1.068 3.881-1.068h5.277zm-5.215 2.608c-.685 0-1.205.123-1.561.369-.342.247-.513.644-.513 1.191 0 .548.164.951.493 1.211.342.247.855.37 1.54.37h2.402v-3.141h-2.361zM151.871 380.599v14.373h-3.326v-11.704h-2.875v-2.669h6.201zm8.657 14.619c-1.191 0-2.252-.294-3.183-.883-.931-.588-1.663-1.437-2.197-2.546-.52-1.122-.78-2.457-.78-4.004 0-1.547.26-2.874.78-3.983.534-1.123 1.266-1.978 2.197-2.567.931-.588 1.992-.883 3.183-.883 1.191 0 2.251.295 3.182.883.931.589 1.657 1.444 2.177 2.567.534 1.109.801 2.436.801 3.983 0 1.547-.267 2.882-.801 4.004-.52 1.109-1.246 1.958-2.177 2.546-.931.589-1.991.883-3.182.883zm0-2.813c.876 0 1.56-.376 2.053-1.129.506-.753.76-1.917.76-3.491s-.254-2.738-.76-3.49c-.493-.753-1.177-1.13-2.053-1.13-.863 0-1.547.377-2.054 1.13-.492.752-.739 1.916-.739 3.49 0 1.574.247 2.738.739 3.491.507.753 1.191 1.129 2.054 1.129zm9.404 2.731a1.928 1.928 0 0 1-1.417-.575c-.383-.383-.575-.862-.575-1.437 0-.589.192-1.061.575-1.417.384-.37.856-.554 1.417-.554s1.033.184 1.417.554c.383.356.575.828.575 1.417 0 .575-.192 1.054-.575 1.437a1.928 1.928 0 0 1-1.417.575zm14.416-14.537v2.156l-5.339 12.217h-3.613l5.153-11.663h-4.763v2.341h-2.957v-5.051h11.519zm7.999 5.359c.917 0 1.752.185 2.505.554.753.37 1.349.897 1.787 1.581.438.671.657 1.451.657 2.341 0 .958-.24 1.8-.719 2.525-.479.726-1.136 1.287-1.971 1.684-.821.383-1.739.575-2.752.575-2.012 0-3.586-.616-4.722-1.848-1.136-1.232-1.704-2.991-1.704-5.277 0-1.629.308-3.025.924-4.189.616-1.163 1.471-2.046 2.566-2.648 1.109-.603 2.389-.904 3.84-.904.766 0 1.499.089 2.197.267.712.165 1.314.404 1.807.719l-1.232 2.443c-.712-.479-1.609-.718-2.69-.718-1.218 0-2.183.356-2.895 1.067-.712.712-1.095 1.746-1.15 3.101.849-.849 2.033-1.273 3.552-1.273zm-.677 6.776c.711 0 1.286-.192 1.724-.575.452-.384.678-.904.678-1.561 0-.657-.226-1.177-.678-1.56-.438-.397-1.026-.596-1.765-.596-.726 0-1.321.206-1.787.616-.465.397-.698.911-.698 1.54 0 .63.226 1.143.678 1.54.451.397 1.067.596 1.848.596z" fill="#000"/><path d="m551.624 400-3.006-3.96-3.024 3.96h-1.44l3.744-4.86-3.564-4.608h1.44l2.844 3.708 2.844-3.708h1.404l-3.564 4.608 3.78 4.86h-1.458zm7.124.09c-.912 0-1.734-.204-2.466-.612a4.594 4.594 0 0 1-1.728-1.728c-.42-.732-.63-1.56-.63-2.484 0-.924.21-1.752.63-2.484a4.465 4.465 0 0 1 1.728-1.71c.732-.408 1.554-.612 2.466-.612.912 0 1.734.204 2.466.612a4.34 4.34 0 0 1 1.71 1.71c.42.732.63 1.56.63 2.484 0 .924-.21 1.752-.63 2.484a4.465 4.465 0 0 1-1.71 1.728c-.732.408-1.554.612-2.466.612zm0-1.134c.672 0 1.272-.15 1.8-.45.54-.312.96-.75 1.26-1.314.3-.564.45-1.206.45-1.926s-.15-1.362-.45-1.926c-.3-.564-.72-.996-1.26-1.296-.528-.312-1.128-.468-1.8-.468-.672 0-1.278.156-1.818.468-.528.3-.948.732-1.26 1.296-.3.564-.45 1.206-.45 1.926s.15 1.362.45 1.926a3.406 3.406 0 0 0 1.26 1.314c.54.3 1.146.45 1.818.45zm15.225-8.424V400h-1.278v-8.334h-4.536l-.126 2.34c-.096 1.968-.324 3.48-.684 4.536-.36 1.056-1.002 1.584-1.926 1.584-.252 0-.558-.048-.918-.144l.09-1.098c.216.048.366.072.45.072.492 0 .864-.228 1.116-.684.252-.456.42-1.02.504-1.692.084-.672.156-1.56.216-2.664l.162-3.384h6.93zm11.373 0V400h-1.278v-8.334h-4.536l-.126 2.34c-.096 1.968-.324 3.48-.684 4.536-.36 1.056-1.002 1.584-1.926 1.584-.252 0-.558-.048-.918-.144l.09-1.098c.216.048.366.072.45.072.492 0 .864-.228 1.116-.684.252-.456.42-1.02.504-1.692.084-.672.156-1.56.216-2.664l.162-3.384h6.93zM552.759 416.685v12.6h-1.296v-11.448h-2.97v-1.152h4.266zm6.503 0v12.6h-1.296v-11.448h-2.97v-1.152h4.266zm3.984 12.69a.934.934 0 0 1-.684-.288.989.989 0 0 1-.27-.702c0-.276.09-.504.27-.684a.934.934 0 0 1 .684-.288c.264 0 .492.096.684.288.192.18.288.408.288.684 0 .276-.096.51-.288.702a.934.934 0 0 1-.684.288zm13.324-3.402h-2.52v3.312h-1.296v-3.312h-7.11v-.936l6.678-8.352h1.44l-6.444 8.136h5.472v-2.916h1.26v2.916h2.52v1.152zm4.226-9.288v12.6H579.5v-11.448h-2.97v-1.152h4.266zM127.545 123.409v9.468h-1.278v-8.334h-4.536l-.126 2.34c-.096 1.968-.324 3.48-.684 4.536-.36 1.056-1.002 1.584-1.926 1.584-.252 0-.558-.048-.918-.144l.09-1.098c.216.048.366.072.45.072.492 0 .864-.228 1.116-.684.252-.456.42-1.02.504-1.692.084-.672.156-1.56.216-2.664l.162-3.384h6.93zm7.54 9.558c-.912 0-1.734-.204-2.466-.612a4.594 4.594 0 0 1-1.728-1.728c-.42-.732-.63-1.56-.63-2.484 0-.924.21-1.752.63-2.484a4.465 4.465 0 0 1 1.728-1.71c.732-.408 1.554-.612 2.466-.612.912 0 1.734.204 2.466.612a4.34 4.34 0 0 1 1.71 1.71c.42.732.63 1.56.63 2.484 0 .924-.21 1.752-.63 2.484a4.465 4.465 0 0 1-1.71 1.728c-.732.408-1.554.612-2.466.612zm0-1.134c.672 0 1.272-.15 1.8-.45.54-.312.96-.75 1.26-1.314.3-.564.45-1.206.45-1.926s-.15-1.362-.45-1.926c-.3-.564-.72-.996-1.26-1.296-.528-.312-1.128-.468-1.8-.468-.672 0-1.278.156-1.818.468-.528.3-.948.732-1.26 1.296-.3.564-.45 1.206-.45 1.926s.15 1.362.45 1.926a3.406 3.406 0 0 0 1.26 1.314c.54.3 1.146.45 1.818.45zm16.719-.072v3.402h-1.206v-2.286h-8.479v2.286h-1.206v-3.402h.54c.636-.036 1.068-.504 1.296-1.404.228-.9.384-2.16.468-3.78l.126-3.168h6.985v8.352h1.476zm-7.417-5.112c-.06 1.344-.174 2.454-.342 3.33-.168.864-.468 1.458-.9 1.782h5.904v-7.218h-4.554l-.108 2.106zm18.205 2.016h-2.052v4.212h-1.278v-4.212h-2.052l-2.898 4.212h-1.53l3.402-4.878-3.132-4.59h1.386l2.772 4.158h2.052v-4.158h1.278v4.158h2.052l2.79-4.158h1.386l-3.132 4.608 3.402 4.86h-1.53l-2.916-4.212zm6.574-5.256h1.278v7.524l6.318-7.524h1.134v9.468h-1.278v-7.524l-6.3 7.524h-1.152v-9.468zm19.664 0v9.468h-1.17v-3.132h-3.33l-2.196 3.132h-1.386l2.358-3.312c-.732-.204-1.296-.552-1.692-1.044-.396-.492-.594-1.116-.594-1.872 0-1.056.36-1.86 1.08-2.412.72-.552 1.704-.828 2.952-.828h3.978zm-6.714 3.276c0 1.404.894 2.106 2.682 2.106h2.862v-4.248h-2.772c-1.848 0-2.772.714-2.772 2.142zM147.013 158.85h-2.52v3.312h-1.296v-3.312h-7.11v-.936l6.678-8.352h1.44l-6.444 8.136h5.472v-2.916h1.26v2.916h2.52v1.152zm2.514 3.402a.934.934 0 0 1-.684-.288.989.989 0 0 1-.27-.702c0-.276.09-.504.27-.684a.934.934 0 0 1 .684-.288c.264 0 .492.096.684.288.192.18.288.408.288.684 0 .276-.096.51-.288.702a.934.934 0 0 1-.684.288zm7.302-7.29c1.32.072 2.322.432 3.006 1.08.696.636 1.044 1.47 1.044 2.502 0 .72-.174 1.362-.522 1.926-.348.552-.864.99-1.548 1.314-.684.324-1.518.486-2.502.486a7.73 7.73 0 0 1-2.592-.432c-.804-.3-1.452-.696-1.944-1.188l.63-1.026c.42.432.978.786 1.674 1.062a6.24 6.24 0 0 0 2.232.396c1.032 0 1.83-.222 2.394-.666.564-.456.846-1.08.846-1.872 0-.78-.282-1.392-.846-1.836-.564-.444-1.416-.666-2.556-.666h-.9v-.954l3.492-4.374h-6.444v-1.152h8.1v.918l-3.564 4.482zm13.095.594c.792.264 1.398.66 1.818 1.188.432.528.648 1.164.648 1.908 0 .732-.198 1.374-.594 1.926-.396.54-.966.96-1.71 1.26-.732.288-1.596.432-2.592.432-1.512 0-2.7-.324-3.564-.972-.864-.648-1.297-1.53-1.297-2.646 0-.756.204-1.392.613-1.908.42-.528 1.026-.924 1.818-1.188-.648-.252-1.14-.612-1.476-1.08-.336-.48-.504-1.044-.504-1.692 0-1.02.396-1.83 1.188-2.43.804-.6 1.878-.9 3.222-.9.888 0 1.662.138 2.322.414.672.264 1.194.648 1.566 1.152.372.504.558 1.092.558 1.764 0 .648-.174 1.212-.522 1.692-.348.468-.846.828-1.494 1.08zm-5.544-2.736c0 .696.276 1.248.828 1.656.552.408 1.314.612 2.286.612s1.734-.204 2.286-.612c.564-.408.846-.954.846-1.638 0-.708-.288-1.266-.864-1.674-.564-.408-1.32-.612-2.268-.612-.96 0-1.722.204-2.286.612-.552.408-.828.96-.828 1.656zm3.114 8.352c1.116 0 1.986-.228 2.61-.684.636-.456.954-1.074.954-1.854s-.318-1.392-.954-1.836c-.624-.456-1.494-.684-2.61-.684-1.104 0-1.974.228-2.61.684-.624.444-.936 1.056-.936 1.836 0 .792.312 1.416.936 1.872.624.444 1.494.666 2.61.666zM302.57 421.8c1.32.072 2.322.432 3.006 1.08.696.636 1.044 1.47 1.044 2.502 0 .72-.174 1.362-.522 1.926-.348.552-.864.99-1.548 1.314-.684.324-1.518.486-2.502.486a7.73 7.73 0 0 1-2.592-.432c-.804-.3-1.452-.696-1.944-1.188l.63-1.026c.42.432.978.786 1.674 1.062a6.24 6.24 0 0 0 2.232.396c1.032 0 1.83-.222 2.394-.666.564-.456.846-1.08.846-1.872 0-.78-.282-1.392-.846-1.836-.564-.444-1.416-.666-2.556-.666h-.9v-.954l3.492-4.374h-6.444V416.4h8.1v.918l-3.564 4.482zm6.848 7.29a.934.934 0 0 1-.684-.288.989.989 0 0 1-.27-.702c0-.276.09-.504.27-.684a.934.934 0 0 1 .684-.288c.264 0 .492.096.684.288.192.18.288.408.288.684 0 .276-.096.51-.288.702a.934.934 0 0 1-.684.288zm13.324-3.402h-2.52V429h-1.296v-3.312h-7.11v-.936l6.678-8.352h1.44l-6.444 8.136h5.472v-2.916h1.26v2.916h2.52v1.152zm4.225-9.288V429h-1.296v-11.448h-2.97V416.4h4.266zM428.538 416.4V429h-1.296v-11.448h-2.97V416.4h4.266zm3.984 12.69a.934.934 0 0 1-.684-.288.989.989 0 0 1-.27-.702c0-.276.09-.504.27-.684a.934.934 0 0 1 .684-.288c.264 0 .492.096.684.288.192.18.288.408.288.684 0 .276-.096.51-.288.702a.934.934 0 0 1-.684.288zm7.869-7.632c.828 0 1.56.156 2.196.468a3.556 3.556 0 0 1 1.512 1.332c.36.564.54 1.224.54 1.98 0 .768-.186 1.446-.558 2.034a3.733 3.733 0 0 1-1.548 1.368c-.648.312-1.38.468-2.196.468-1.668 0-2.946-.546-3.834-1.638-.888-1.104-1.332-2.658-1.332-4.662 0-1.404.24-2.592.72-3.564s1.152-1.704 2.016-2.196c.864-.504 1.872-.756 3.024-.756 1.248 0 2.244.228 2.988.684l-.522 1.044c-.6-.396-1.416-.594-2.448-.594-1.392 0-2.484.444-3.276 1.332-.792.876-1.188 2.154-1.188 3.834 0 .3.018.642.054 1.026a3.351 3.351 0 0 1 1.494-1.584c.684-.384 1.47-.576 2.358-.576zm-.108 6.552c.912 0 1.65-.246 2.214-.738.576-.504.864-1.17.864-1.998 0-.828-.288-1.488-.864-1.98-.564-.492-1.332-.738-2.304-.738-.636 0-1.2.12-1.692.36-.48.24-.858.57-1.134.99-.276.42-.414.888-.414 1.404 0 .48.126.924.378 1.332.264.408.648.738 1.152.99.504.252 1.104.378 1.8.378zm9.781-11.718c1.668 0 2.946.552 3.834 1.656.888 1.092 1.332 2.64 1.332 4.644 0 1.404-.24 2.592-.72 3.564s-1.152 1.71-2.016 2.214c-.864.492-1.872.738-3.024.738-1.248 0-2.244-.228-2.988-.684l.522-1.044c.6.396 1.416.594 2.448.594 1.392 0 2.484-.438 3.276-1.314.792-.888 1.188-2.172 1.188-3.852 0-.312-.018-.654-.054-1.026a3.445 3.445 0 0 1-1.494 1.602c-.684.372-1.47.558-2.358.558-.828 0-1.566-.156-2.214-.468a3.62 3.62 0 0 1-1.494-1.314c-.36-.576-.54-1.242-.54-1.998 0-.768.186-1.446.558-2.034a3.635 3.635 0 0 1 1.53-1.35c.66-.324 1.398-.486 2.214-.486zm.144 6.552c.636 0 1.194-.12 1.674-.36.492-.24.876-.57 1.152-.99.276-.42.414-.888.414-1.404 0-.48-.132-.924-.396-1.332-.252-.408-.63-.738-1.134-.99-.504-.252-1.104-.378-1.8-.378-.912 0-1.656.252-2.232.756-.564.492-.846 1.152-.846 1.98 0 .828.282 1.488.846 1.98.576.492 1.35.738 2.322.738z" fill="#20201F"/></g><defs><clipPath id="a"><path fill="#fff" transform="translate(48 40)" d="M0 0h854.585v470.115H0z"/></clipPath></defs></svg>