<svg width="900" height="600" fill="none" xmlns="http://www.w3.org/2000/svg"><path fill="#fff" d="M0 0h900v600H0z"/><g clip-path="url(#a)"><path d="M67.132 99.401H50v452.724h17.132V99.401z" fill="#C6C0E1"/><path fill-rule="evenodd" clip-rule="evenodd" d="M50 99.401h284.488V47H850v397.355h-3.427v73.386l-253.638 22.628v11.783H50V99.402z" fill="#ED9FA6"/><path d="M850 47H334.488v14.975H850V47z" fill="#ED9FA6"/><path d="M67.132 99.401H50v452.724h17.132V99.401zM850 47H334.488v14.975H850V47z" fill="#FFF9D0"/><path fill-rule="evenodd" clip-rule="evenodd" d="M50 99.401h284.488V47H850v397.355h-3.427v73.386l-253.638 22.628v11.783H50V99.402z" fill="#E4CDA1"/><path d="M832.176 362.904h-23.995v65.88h23.995v-65.88zM575.111 500.048h-23.995v36.533h23.995v-36.533zM344.777 500.643H303.64v35.938h41.137v-35.938zM67.132 521.606H50v14.975h17.132v-14.975zM832.176 47h-23.995v315.904h23.995V47zM575.111 371.884h-23.995v128.164h23.995V371.884zM233.717 99.401h-17.133v98.816h17.133V99.401zM575.111 47h-23.995v80.226h23.995V47zM67.132 99.401H50v422.205h17.132V99.401z" fill="#20201F"/><path d="M67.132 99.401H50v14.976h17.132V99.401zM126.094 521.606H50v22.756h76.094v-22.756zM372.88 521.606H270.055v22.756H372.88v-22.756zM551.116 521.606h-34.274v22.756h34.274v-22.756zM601.842 413.809h-26.731v22.756h26.731v-22.756zM808.181 413.809h-55.525v23.352h55.525v-23.352zM808.181 47h-233.07v14.975h233.07V47zM551.116 47H351.63v14.975h199.486V47zM351.63 47h-17.142v80.226h17.142V47zM850 47h-8.226v397.355H850V47z" fill="#20201F"/><path d="M841.775 437.161h-89.119v7.194h89.119v-7.194zM601.842 436.565h-26.731v7.79h26.731v-7.79zM592.935 444.355H584.7v107.797h8.235V444.355zM584.7 544.362h-71.976v7.79H584.7v-7.79zM376.988 544.362h-111.05v7.79h111.05v-7.79zM130.201 544.362H50v7.79h80.201v-7.79zM844.168 47h-16.097v7.368h16.097V47z" fill="#20201F"/><path d="M846.099 52.961h-18.672v384.2h18.672v-384.2z" fill="#20201F"/><path d="M834.832 425.961H803.85v14.001h30.982v-14.001zM584.7 439.68h-16.439v108.577H584.7V439.68z" fill="#20201F"/><path d="M576.481 530.688H544.01v17.569h32.471v-17.569z" fill="#20201F"/><path fill-rule="evenodd" clip-rule="evenodd" d="M592.935 533.144v7.225l253.638-22.628v-73.386h-8.225v66.616l-245.413 22.173z" fill="#20201F"/><path d="M216.584 99.401H67.132v7.186h149.452v-7.186zM130.201 106.587h-8.225v30.546h8.225v-30.546zM216.584 137.133H67.132v7.186h149.452v-7.186zM233.717 198.217h-5.481v15.732h5.481v-15.732zM233.717 255.874h-5.481v68.108h5.481v-68.108z" fill="#20201F"/><path d="M236.637 319.186h-8.401v4.796h8.401v-4.796zM228.236 319.186h-58.961v4.796h58.961v-4.796z" fill="#20201F"/><path d="M169.275 319.186H67.132v4.796h102.143v-4.796zM309.13 209.212h-5.491v41.546h5.491v-41.546z" fill="#20201F"/><path d="M324.208 209.213h-20.569V214h20.569v-4.787zM309.13 255.389h-5.491v6.276h5.491v-6.276z" fill="#20201F"/><path d="M454.133 250.737H303.708v4.787h150.425v-4.787zM569.855 250.491h-12.898v4.779h12.898v-4.779zM579.784 209.213H427.032V214h152.752v-4.787zM445.013 214h-5.504v36.737h5.504V214z" fill="#20201F"/><path d="M575.111 197.673h-5.49v57.588h5.49v-57.588zM575.111 255.261h-5.49v116.623h5.49V255.261zM303.64 319.186h-12.159v4.796h12.159v-4.796z" fill="#20201F"/><path d="M309.13 315.563h-5.491v13.504h5.491v-13.504zM309.13 329.067h-5.491v171.576h5.491V329.067zM249.71 99.401h-15.993v14.976h15.993V99.401zM334.488 99.401H318.26v14.976h16.228V99.401zM354.754 127.226h-20.266v4.788h20.266v-4.788zM413.706 127.226h-58.952v4.788h58.952v-4.788zM428.19 127.226h-14.484v4.788h14.484v-4.788zM575.111 127.226h-98.93v4.788h98.93v-4.788zM575.111 132.014h-5.49v11.761h5.49v-11.761zM512.733 548.273H376.988v3.852h135.745v-3.852zM516.841 540.509H372.879v3.851h143.962v-3.851zM516.841 521.604H372.879v3.851h143.962v-3.851zM752.656 440.476h-95.971v3.853h95.971v-3.853zM752.656 432.712h-95.971v3.851h95.971v-3.851zM752.656 413.807h-95.971v3.851h95.971v-3.851zM265.946 548.273H130.2v3.852h135.746v-3.852zM270.054 540.509H126.092v3.851h143.962v-3.851zM270.054 521.604H126.092v3.851h143.962v-3.851z" fill="#20201F"/><path d="M659.921 413.807h-3.236v30.543h3.236v-30.543z" fill="#20201F"/><path fill-rule="evenodd" clip-rule="evenodd" d="M608.226 425.463c0 .939-.872 1.7-1.947 1.7-1.075 0-1.947-.761-1.947-1.7v-35.997c0-.938.872-1.7 1.947-1.7 1.075 0 1.947.762 1.947 1.7v35.997zM654.121 425.805c0 .469-.436.85-.973.85-.538 0-.974-.381-.974-.85 0-9.803-4.508-18.676-11.792-25.096-7.284-6.42-17.351-10.392-28.465-10.392-.537 0-.974-.381-.974-.851 0-.469.437-.85.974-.85 11.649 0 22.203 4.165 29.842 10.898 7.636 6.73 12.362 16.026 12.362 26.291zM230.936 254.242c-1.074 0-1.946-.762-1.946-1.701 0-.939.872-1.701 1.946-1.701h41.205c1.075 0 1.947.762 1.947 1.701 0 .939-.872 1.701-1.947 1.701h-41.205zM230.545 217.838c-.537 0-.973-.381-.973-.85 0-.47.436-.851.973-.851 11.726 0 22.35 3.582 30.045 9.368 7.737 5.817 12.524 13.865 12.524 22.759 0 .47-.436.851-.973.851-.537 0-.974-.381-.974-.851 0-8.374-4.528-15.967-11.846-21.47-7.356-5.532-17.532-8.956-28.776-8.956zM306.365 266.371c-1.075 0-1.947-.762-1.947-1.701 0-.939.872-1.701 1.947-1.701h41.205c1.074 0 1.947.762 1.947 1.701 0 .939-.873 1.701-1.947 1.701h-41.205zM305.974 313.145c-.538 0-.974-.381-.974-.85 0-.47.436-.851.974-.851 11.191 0 21.332-4.578 28.676-11.976 7.381-7.433 11.946-17.713 11.946-29.07 0-.469.436-.85.974-.85.537 0 .973.381.973.85a42.712 42.712 0 0 1-12.425 30.179c-7.708 7.764-18.365 12.568-30.144 12.568zM241.951 321.495c0 .939-.872 1.701-1.947 1.701-1.075 0-1.947-.762-1.947-1.701v-35.996c0-.939.872-1.701 1.947-1.701 1.075 0 1.947.762 1.947 1.701v35.996zM289.286 321.837c0 .47-.436.851-.973.851-.538 0-.974-.381-.974-.851 0-9.796-4.647-18.669-12.155-25.089-7.513-6.424-17.899-10.399-29.369-10.399-.537 0-.973-.381-.973-.85s.436-.85.973-.85c11.994 0 22.862 4.162 30.73 10.89 7.87 6.73 12.741 16.029 12.741 26.298zM311.992 107.487c0-.939.873-1.701 1.947-1.701 1.075 0 1.947.762 1.947 1.701v35.996c0 .939-.872 1.701-1.947 1.701-1.074 0-1.947-.762-1.947-1.701v-35.996zM251.688 107.145c0-.469.436-.85.973-.85.538 0 .974.381.974.85 0 9.757 5.891 18.606 15.409 25.023 9.593 6.465 22.86 10.465 37.524 10.465.538 0 .974.381.974.85 0 .47-.436.851-.974.851-15.1 0-28.788-4.138-38.709-10.824-9.99-6.734-16.171-16.056-16.171-26.365zM469.919 129.157c0-.939.872-1.701 1.947-1.701 1.074 0 1.947.762 1.947 1.701v35.996c0 .939-.873 1.701-1.947 1.701-1.075 0-1.947-.762-1.947-1.701v-35.996zM430.156 128.815c0-.47.436-.851.973-.851.538 0 .974.381.974.851 0 9.825 3.922 18.714 10.258 25.138 6.305 6.394 15.006 10.35 24.605 10.35.537 0 .973.381.973.85s-.436.85-.973.85c-10.188 0-19.407-4.182-26.073-10.941a37.274 37.274 0 0 1-10.737-26.247zM572.718 192.936c1.074 0 1.946.762 1.946 1.701 0 .939-.872 1.701-1.946 1.701h-41.205c-1.075 0-1.947-.762-1.947-1.701 0-.939.872-1.701 1.947-1.701h41.205zM573.109 146.341c.537 0 .973.381.973.85s-.436.85-.973.85c-11.191 0-21.331 4.563-28.678 11.934a40.896 40.896 0 0 0-11.945 28.955c0 .469-.436.85-.973.85-.537 0-.973-.381-.973-.85 0-11.734 4.748-22.369 12.424-30.071 7.706-7.733 18.364-12.518 30.145-12.518zM111.27 470.226v-90.355H69.899v91.418h41.371v-1.063zm-4.892-62.076c0 .994-.465 1.901-1.218 2.555-.75.653-1.784 1.06-2.919 1.06H78.879c-1.135 0-2.169-.407-2.923-1.06-.749-.654-1.214-1.561-1.214-2.555v-20.409c0-.992.466-1.896 1.214-2.553.748-.654 1.784-1.06 2.923-1.06h23.362c1.139 0 2.175.406 2.921 1.063.75.654 1.216 1.558 1.216 2.55v20.409zm-1.933 51.566c0 1.376-.641 2.626-1.676 3.531-1.035.904-2.466 1.465-4.043 1.465-1.574 0-3.004-.561-4.043-1.467-1.034-.905-1.676-2.154-1.676-3.529 0-1.378.642-2.628 1.678-3.53 1.035-.906 2.466-1.466 4.041-1.466 1.577 0 3.008.56 4.043 1.464 1.035.904 1.676 2.154 1.676 3.532zm-15.068 0c0 1.671-.777 3.187-2.032 4.283-1.255 1.096-2.99 1.776-4.903 1.776-1.914 0-3.649-.68-4.903-1.776-1.255-1.096-2.033-2.612-2.033-4.283 0-1.671.778-3.188 2.032-4.284 1.255-1.096 2.99-1.775 4.904-1.775 1.912 0 3.648.679 4.903 1.775 1.255 1.096 2.032 2.613 2.032 4.284zm-3.235-3.233c.945.826 1.532 1.971 1.532 3.233s-.587 2.406-1.532 3.232c-.946.826-2.256 1.338-3.7 1.338-1.446 0-2.755-.512-3.7-1.338-.946-.826-1.533-1.97-1.533-3.232 0-1.262.587-2.407 1.532-3.233.946-.825 2.255-1.338 3.7-1.338 1.445 0 2.755.513 3.7 1.338zm19.52-9.762c0 1.672-.778 3.187-2.033 4.283-1.254 1.096-2.989 1.776-4.903 1.776-1.913 0-3.65-.679-4.904-1.775-1.255-1.096-2.032-2.612-2.032-4.284 0-1.672.778-3.188 2.033-4.284 1.255-1.096 2.99-1.775 4.903-1.775 1.913 0 3.649.679 4.903 1.775 1.255 1.096 2.033 2.613 2.033 4.284zm-3.236-3.233c.945.826 1.532 1.971 1.532 3.233 0 1.263-.587 2.406-1.532 3.232-.945.826-2.254 1.339-3.7 1.339-1.445 0-2.755-.512-3.7-1.338-.946-.826-1.532-1.97-1.532-3.233 0-1.263.587-2.407 1.532-3.233.945-.825 2.255-1.338 3.7-1.338 1.445 0 2.755.513 3.7 1.338zm-14.265 3.233c0 1.376-.642 2.626-1.677 3.531-1.034.904-2.465 1.465-4.042 1.465-1.574 0-3.004-.561-4.043-1.467-1.035-.905-1.676-2.154-1.676-3.529 0-1.378.641-2.628 1.678-3.53 1.035-.906 2.466-1.466 4.04-1.466 1.578 0 3.008.56 4.043 1.464 1.035.904 1.677 2.154 1.677 3.532zm-2.88-2.481c.725.634 1.176 1.512 1.176 2.481 0 .971-.449 1.849-1.173 2.48-.728.634-1.734 1.028-2.842 1.028-1.112 0-2.117-.392-2.84-1.025-.727-.634-1.176-1.512-1.176-2.483 0-.969.45-1.847 1.176-2.481.723-.635 1.728-1.027 2.84-1.027 1.108 0 2.114.394 2.84 1.027zm16.285 12.995c.725.634 1.176 1.512 1.176 2.481 0 .971-.449 1.848-1.173 2.48-.728.634-1.734 1.027-2.843 1.027-1.111 0-2.116-.392-2.84-1.024-.726-.635-1.175-1.512-1.175-2.483 0-.969.45-1.847 1.176-2.481.723-.635 1.728-1.027 2.84-1.027 1.108 0 2.114.393 2.839 1.027zm2.379-69.494v20.409c0 .408-.193.782-.502 1.051a1.81 1.81 0 0 1-1.202.438H78.879c-.47 0-.897-.167-1.204-.436a1.411 1.411 0 0 1-.5-1.053v-20.409c0-.41.191-.783.497-1.05a1.859 1.859 0 0 1 1.207-.437h23.362c.466 0 .894.168 1.202.437.311.267.502.64.502 1.05zm-31.612 49.567h36.503v31.855H72.332v-31.855zm36.503-2.126H72.332v-53.185h36.504v53.185zM392.071 89.406c-3.201 1.798-7.309 2.909-10.921 2.909-3.555 0-6.329-1.066-8.26-2.81V89.5c-.73-.66-1.296-1.445-1.775-2.275v3.587c0 2.142-1.024 3.397-2.668 4.126-1.496.665-3.475.829-5.645.829h-.895v-.02c-1.809-.044-3.46-.241-4.746-.81-1.643-.728-2.662-1.983-2.662-4.114V73.228c0-2.14 1.019-3.394 2.662-4.119 1.286-.563 2.937-.767 4.746-.81v-.019h.895c2.17 0 4.149.164 5.645.83 1.644.724 2.668 1.977 2.668 4.118v3.595c.479-.831 1.039-1.613 1.775-2.275 1.931-1.748 4.705-2.814 8.26-2.814 3.817 0 8.186 1.243 11.463 3.225 3.023 1.83 5.145 4.303 5.145 7.064 0 2.925-2.38 5.529-5.687 7.383zm-31.94-7.89h-.006v.003c0 .631.302 1.212.78 1.63v.005a2.838 2.838 0 0 0 1.868.676c.732 0 1.385-.259 1.863-.675h.009l-.001-.006c.478-.42.773-.999.773-1.63 0-.641-.295-1.22-.772-1.635a2.849 2.849 0 0 0-1.872-.678c-.731 0-1.384.261-1.868.678-.478.415-.774.994-.774 1.633zm1.354-.002v.005c0 .311.142.593.367.793h.009c.23.201.558.33.912.33.361 0 .692-.125.916-.32l.006-.008a1.07 1.07 0 0 0 .37-.795c0-.322-.145-.602-.37-.803a1.43 1.43 0 0 0-.922-.32c-.36 0-.688.124-.912.33a1.02 1.02 0 0 0-.385.788h.009zm7.842-8.286c0-1.444-.649-2.269-1.678-2.729-1.067-.464-2.547-.62-4.219-.648h-.628c-1.926 0-3.653.128-4.842.648-1.03.46-1.671 1.287-1.671 2.729v17.595c0 1.44.641 2.262 1.671 2.723 1.189.523 2.916.65 4.842.65h.697c1.637-.032 3.106-.186 4.15-.648 1.038-.463 1.678-1.292 1.678-2.736V73.228zm22.273 3.011c-2.99-1.811-6.974-2.944-10.45-2.944-3.037 0-5.373.886-6.976 2.333-1.755 1.582-2.663 3.861-2.663 6.395 0 2.539.908 4.815 2.663 6.402 1.603 1.443 3.939 2.328 6.976 2.328 3.283 0 7.032-1.015 9.962-2.659 2.824-1.583 4.857-3.74 4.857-6.07 0-2.192-1.809-4.229-4.369-5.785zM535.125 124.225l-22.311.006c-7.461 0-6.582-13.492-6.505-14.393 0-3.123 1.458-5.957 3.808-8.007 2.344-2.047 5.593-3.316 9.168-3.316h9.468c3.581 0 6.826 1.266 9.177 3.316 2.342 2.05 3.796 4.889 3.811 8.012.048.916.816 14.388-6.616 14.382zm-11.11-13.143v-.002c.784-.007 1.509-.277 2.026-.727.508-.459.821-1.084.821-1.766 0-.689-.315-1.314-.832-1.764-.516-.452-1.231-.728-2.018-.728-.783 0-1.498.276-2.014.728h-.01v.005c-.516.45-.838 1.07-.838 1.759 0 .682.322 1.316.838 1.766h.003a3.09 3.09 0 0 0 2.021.734l.003-.005zm.005-1.271c.373 0 .724-.134.975-.36.245-.214.403-.522.403-.864 0-.34-.151-.649-.396-.869a1.517 1.517 0 0 0-.99-.348c-.393 0-.733.134-.985.348l-.006.005c-.25.215-.403.524-.403.864 0 .336.163.644.405.864l.006.003c.246.216.597.346.977.346l.014-.003v.014zm-.005 9.665c3.597 0 6.862-.937 9.236-2.439 2.467-1.572 4-3.767 4.002-6.2 0-2.443-1.535-4.638-4.002-6.213-2.383-1.511-5.65-2.438-9.248-2.438h-.015c-3.588.007-6.847.942-9.228 2.448-2.456 1.571-3.986 3.76-3.988 6.189l.002.014c0 2.439 1.53 4.621 4.006 6.2 2.368 1.505 5.632 2.439 9.226 2.436l.009.003zm0-1.758c3.152-.005 6-.813 8.06-2.112 1.944-1.241 3.154-2.933 3.154-4.769 0-1.849-1.21-3.541-3.17-4.787-2.049-1.294-4.892-2.099-8.056-2.099h-.006l-.009-.005c-3.155.005-5.992.81-8.041 2.111-1.939 1.237-3.148 2.931-3.154 4.766l.006.014c-.004 1.84 1.207 3.533 3.155 4.769 2.05 1.294 4.894 2.107 8.049 2.104h.012v.008zm11.103 4.748c5.539 0 4.595-12.526 4.595-12.558l-.008-.065c0-2.639-1.22-5.027-3.195-6.764-1.993-1.73-4.731-2.798-7.757-2.798h-9.458c-3.038 0-5.781 1.063-7.765 2.798-1.98 1.728-3.2 4.125-3.206 6.764l-.003.062c0 .032-1.016 12.561 4.499 12.561h22.298zM120.288 212.752V314.34H72.716V212.752h47.572zm-28.41 19.795c0 1.116.518 2.126 1.354 2.857.84.73 1.996 1.182 3.27 1.182s2.43-.452 3.266-1.182c.84-.735 1.358-1.744 1.358-2.857 0-1.113-.518-2.122-1.354-2.854-.836-.733-1.993-1.185-3.27-1.185s-2.434.452-3.27 1.182c-.836.731-1.354 1.741-1.354 2.857zm2.66 1.715c.501.437 1.197.709 1.964.709.767 0 1.463-.272 1.964-.709.5-.437.81-1.044.81-1.715s-.31-1.278-.811-1.714a2.986 2.986 0 0 0-1.963-.71c-.766 0-1.46.272-1.962.71-.501.439-.812 1.045-.812 1.714s.31 1.276.81 1.715zm-20.46-13.843 1.849 71.713c0 10.77 8.246 19.59 20.575 19.59 12.329 0 20.575-8.82 20.575-19.59l1.85-71.713c0-1.389-.651-2.653-1.697-3.566-1.051-.914-2.496-1.483-4.083-1.483h-33.29c-1.585 0-3.03.568-4.078 1.483-1.051.92-1.702 2.182-1.702 3.566zm4.16 71.713c0 9.667 7.198 17.57 18.264 17.57 11.066 0 18.263-7.903 18.263-17.57l1.85-71.713c0-.831-.391-1.589-1.02-2.142-.625-.547-1.493-.887-2.448-.887h-33.29c-.955 0-1.822.34-2.452.891-.626.547-1.016 1.304-1.016 2.138l1.85 71.713zm44.315 22.421V212.538c0-.507-.23-.97-.596-1.305a2.116 2.116 0 0 0-1.436-.546H72.483c-.56 0-1.07.208-1.436.542-.367.335-.595.8-.595 1.309v102.015c0 .51.228.975.595 1.31.371.332.88.542 1.436.542h48.038a2.14 2.14 0 0 0 1.433-.542c.369-.34.599-.802.599-1.31zM454.65 257.147h3.342c.399 0 .724-.286.724-.633v-.611h48.006c.58 0 1.051-.411 1.051-.918 0-.507-.471-.918-1.051-.918h-48.006v-5.008c0-.346-.328-.632-.724-.632h-3.342c-.4 0-.724.284-.724.632v7.455c0 .349.324.633.724.633zM556.817 248.216h-3.343c-.399 0-.723.286-.723.633v.61h-48.006c-.58 0-1.052.412-1.052.919 0 .506.472.918 1.052.918h48.006v5.007c0 .346.327.633.723.633h3.343c.399 0 .723-.284.723-.633v-7.454c0-.349-.324-.633-.723-.633zM324.893 216.179h3.343c.399 0 .723-.286.723-.633v-.61h48.007c.58 0 1.051-.412 1.051-.919 0-.507-.471-.918-1.051-.918h-48.007v-5.007c0-.346-.327-.633-.723-.633h-3.343c-.399 0-.723.284-.723.633v7.454c0 .349.324.633.723.633zM427.06 207.248h-3.342c-.4 0-.724.286-.724.633v.61h-48.006c-.58 0-1.051.412-1.051.919 0 .507.471.918 1.051.918h48.006v5.007c0 .347.327.633.724.633h3.342c.399 0 .724-.284.724-.633v-7.454c0-.349-.325-.633-.724-.633z" fill="#20201F"/><path d="M690.092 104h-2.434v101.095h2.434V104zM714.464 119.918c1.506.082 2.649.493 3.429 1.232.794.725 1.191 1.677 1.191 2.854 0 .821-.199 1.553-.596 2.197-.397.629-.985 1.129-1.766 1.499-.78.369-1.731.554-2.854.554a8.8 8.8 0 0 1-2.956-.493c-.918-.342-1.657-.794-2.218-1.355l.719-1.17c.479.493 1.115.896 1.909 1.211a7.124 7.124 0 0 0 2.546.452c1.178 0 2.088-.253 2.731-.76.644-.52.965-1.232.965-2.135 0-.89-.321-1.588-.965-2.095-.643-.506-1.615-.759-2.915-.759h-1.027v-1.089l3.983-4.989h-7.35v-1.314h9.239v1.047l-4.065 5.113zm16.585-6.16v1.047l-6.016 13.326h-1.601l5.913-13.059h-7.392v2.69h-1.458v-4.004h10.554zm1.974 14.476c-.301 0-.561-.11-.78-.329a1.13 1.13 0 0 1-.308-.801c0-.315.103-.575.308-.78.219-.219.479-.329.78-.329.301 0 .561.11.78.329.219.205.329.465.329.78s-.11.582-.329.801a1.066 1.066 0 0 1-.78.329zm8.33-8.316c1.506.082 2.649.493 3.429 1.232.794.725 1.191 1.677 1.191 2.854 0 .821-.199 1.553-.596 2.197-.397.629-.985 1.129-1.765 1.499-.781.369-1.732.554-2.855.554a8.805 8.805 0 0 1-2.956-.493c-.917-.342-1.657-.794-2.218-1.355l.719-1.17c.479.493 1.115.896 1.909 1.211a7.124 7.124 0 0 0 2.546.452c1.178 0 2.088-.253 2.731-.76.644-.52.965-1.232.965-2.135 0-.89-.321-1.588-.965-2.095-.643-.506-1.615-.759-2.915-.759h-1.027v-1.089l3.983-4.989h-7.35v-1.314h9.239v1.047l-4.065 5.113zm12.432 8.336c-1.109 0-2.102-.294-2.978-.883-.862-.588-1.54-1.43-2.032-2.525-.48-1.109-.719-2.41-.719-3.902s.239-2.785.719-3.88c.492-1.109 1.17-1.958 2.032-2.546.876-.589 1.869-.883 2.978-.883 1.108 0 2.094.294 2.956.883.876.588 1.561 1.437 2.054 2.546.492 1.095.739 2.388.739 3.88s-.247 2.793-.739 3.902c-.493 1.095-1.178 1.937-2.054 2.525-.862.589-1.848.883-2.956.883zm0-1.355c.835 0 1.567-.233 2.197-.698.643-.466 1.143-1.143 1.498-2.033.356-.89.534-1.964.534-3.224 0-1.259-.178-2.334-.534-3.223-.355-.89-.855-1.568-1.498-2.033-.63-.465-1.362-.698-2.197-.698s-1.575.233-2.218.698c-.63.465-1.122 1.143-1.478 2.033-.356.889-.534 1.964-.534 3.223 0 1.26.178 2.334.534 3.224.356.89.848 1.567 1.478 2.033.643.465 1.383.698 2.218.698zM715.614 148.814c.945 0 1.78.178 2.505.534.739.356 1.314.862 1.725 1.519.411.643.616 1.396.616 2.259 0 .876-.212 1.649-.637 2.32a4.247 4.247 0 0 1-1.765 1.56c-.74.356-1.575.534-2.505.534-1.903 0-3.361-.623-4.374-1.868-1.013-1.26-1.519-3.032-1.519-5.318 0-1.602.274-2.957.821-4.066.548-1.109 1.314-1.944 2.3-2.505.985-.575 2.135-.862 3.449-.862 1.424 0 2.56.26 3.409.78l-.596 1.191c-.684-.452-1.615-.678-2.792-.678-1.588 0-2.834.507-3.737 1.52-.904.999-1.355 2.457-1.355 4.373 0 .343.02.733.061 1.171.356-.781.924-1.383 1.704-1.807.781-.438 1.677-.657 2.69-.657zm-.123 7.474c1.04 0 1.882-.281 2.526-.842.657-.575.985-1.335.985-2.279 0-.945-.328-1.698-.985-2.259-.644-.561-1.52-.842-2.629-.842-.725 0-1.368.137-1.93.411-.547.274-.978.65-1.293 1.129a2.853 2.853 0 0 0-.473 1.602c0 .547.144 1.054.432 1.519.301.466.739.842 1.314 1.129.575.288 1.259.432 2.053.432zm16.664-13.244v1.047l-6.016 13.326h-1.602l5.913-13.059h-7.391v2.69h-1.458v-4.004h10.554zm1.974 14.476c-.302 0-.562-.11-.781-.329a1.13 1.13 0 0 1-.308-.801c0-.314.103-.575.308-.78.219-.219.479-.328.781-.328.301 0 .561.109.78.328.219.205.328.466.328.78 0 .315-.109.582-.328.801a1.066 1.066 0 0 1-.78.329zm8.976-8.706c.944 0 1.779.178 2.505.534.739.356 1.314.862 1.725 1.519.41.643.616 1.396.616 2.259 0 .876-.212 1.649-.637 2.32a4.25 4.25 0 0 1-1.766 1.56c-.739.356-1.574.534-2.505.534-1.902 0-3.36-.623-4.373-1.868-1.013-1.26-1.52-3.032-1.52-5.318 0-1.602.274-2.957.822-4.066.547-1.109 1.314-1.944 2.299-2.505.986-.575 2.136-.862 3.45-.862 1.424 0 2.56.26 3.408.78l-.595 1.191c-.684-.452-1.615-.678-2.793-.678-1.587 0-2.833.507-3.737 1.52-.903.999-1.355 2.457-1.355 4.373 0 .343.021.733.062 1.171.356-.781.924-1.383 1.704-1.807.78-.438 1.677-.657 2.69-.657zm-.123 7.474c1.04 0 1.882-.281 2.525-.842.657-.575.986-1.335.986-2.279 0-.945-.329-1.698-.986-2.259-.643-.561-1.519-.842-2.628-.842-.725 0-1.369.137-1.93.411-.548.274-.979.65-1.294 1.129a2.86 2.86 0 0 0-.472 1.602c0 .547.144 1.054.431 1.519.302.466.74.842 1.314 1.129.575.288 1.26.432 2.054.432zm16.663-13.244v1.047l-6.016 13.326h-1.601l5.913-13.059h-7.392v2.69h-1.457v-4.004h10.553zM717.875 172.33v1.047l-6.016 13.326h-1.602l5.914-13.059h-7.392v2.69h-1.458v-4.004h10.554zm7.275 14.496c-1.109 0-2.101-.294-2.977-.883-.862-.589-1.54-1.431-2.033-2.526-.479-1.108-.718-2.409-.718-3.901s.239-2.785.718-3.881c.493-1.108 1.171-1.957 2.033-2.546.876-.588 1.868-.883 2.977-.883 1.109 0 2.095.295 2.957.883.876.589 1.56 1.438 2.053 2.546.493 1.096.739 2.389.739 3.881s-.246 2.793-.739 3.901c-.493 1.095-1.177 1.937-2.053 2.526-.862.589-1.848.883-2.957.883zm0-1.355c.835 0 1.568-.233 2.197-.698.644-.466 1.143-1.143 1.499-2.033.356-.89.534-1.964.534-3.224 0-1.259-.178-2.334-.534-3.223-.356-.89-.855-1.568-1.499-2.033-.629-.466-1.362-.698-2.197-.698s-1.574.232-2.217.698c-.63.465-1.123 1.143-1.479 2.033-.356.889-.534 1.964-.534 3.223 0 1.26.178 2.334.534 3.224.356.89.849 1.567 1.479 2.033.643.465 1.382.698 2.217.698zm8.755 1.334c-.301 0-.561-.109-.78-.328a1.125 1.125 0 0 1-.308-.801c0-.315.102-.575.308-.78.219-.219.479-.329.78-.329.301 0 .561.11.78.329.219.205.329.465.329.78s-.11.582-.329.801a1.065 1.065 0 0 1-.78.328zm8.75.021c-1.109 0-2.101-.294-2.977-.883-.862-.589-1.54-1.431-2.033-2.526-.479-1.108-.718-2.409-.718-3.901s.239-2.785.718-3.881c.493-1.108 1.171-1.957 2.033-2.546.876-.588 1.868-.883 2.977-.883 1.109 0 2.095.295 2.957.883.876.589 1.56 1.438 2.053 2.546.493 1.096.739 2.389.739 3.881s-.246 2.793-.739 3.901c-.493 1.095-1.177 1.937-2.053 2.526-.862.589-1.848.883-2.957.883zm0-1.355c.835 0 1.568-.233 2.197-.698.644-.466 1.143-1.143 1.499-2.033.356-.89.534-1.964.534-3.224 0-1.259-.178-2.334-.534-3.223-.356-.89-.855-1.568-1.499-2.033-.629-.466-1.362-.698-2.197-.698s-1.574.232-2.217.698c-.63.465-1.123 1.143-1.479 2.033-.356.889-.534 1.964-.534 3.223 0 1.26.178 2.334.534 3.224.356.89.849 1.567 1.479 2.033.643.465 1.382.698 2.217.698zm13.821-7.372c.945 0 1.78.178 2.505.534a4.062 4.062 0 0 1 1.725 1.52c.41.643.616 1.396.616 2.258 0 .876-.212 1.65-.637 2.32-.424.671-1.013 1.191-1.766 1.561-.739.356-1.574.534-2.505.534-1.902 0-3.36-.623-4.373-1.869-1.013-1.259-1.519-3.032-1.519-5.318 0-1.601.273-2.956.821-4.065.547-1.109 1.314-1.944 2.3-2.505.985-.575 2.135-.863 3.449-.863 1.424 0 2.56.261 3.409.781l-.596 1.191c-.684-.452-1.615-.678-2.792-.678-1.588 0-2.834.507-3.737 1.519-.904 1-1.356 2.458-1.356 4.374 0 .342.021.732.062 1.17.356-.78.924-1.382 1.704-1.807.781-.438 1.677-.657 2.69-.657zm-.123 7.474c1.04 0 1.882-.28 2.525-.842.657-.574.986-1.334.986-2.279 0-.944-.329-1.697-.986-2.258-.643-.561-1.519-.842-2.628-.842-.725 0-1.369.137-1.93.411-.547.273-.979.65-1.293 1.129a2.852 2.852 0 0 0-.473 1.601c0 .548.144 1.054.431 1.52.302.465.74.842 1.315 1.129.575.288 1.259.431 2.053.431zM668.965 168.411V176h-30.413v-6.037l15.523-14.66c1.648-1.571 2.759-2.913 3.334-4.024.575-1.15.862-2.281.862-3.392 0-1.61-.555-2.837-1.667-3.68-1.073-.881-2.664-1.322-4.772-1.322-1.763 0-3.353.345-4.771 1.035-1.419.651-2.607 1.648-3.565 2.989l-6.784-4.369c1.571-2.338 3.737-4.159 6.497-5.462 2.759-1.341 5.921-2.012 9.486-2.012 2.989 0 5.596.498 7.819 1.495 2.261.958 4.005 2.338 5.231 4.139 1.265 1.763 1.898 3.852 1.898 6.267 0 2.184-.46 4.235-1.38 6.151-.92 1.917-2.702 4.101-5.347 6.554l-9.256 8.739h17.305z" fill="#20201F"/><path d="M644.672 311.727h-5.667v8.419h-3.183v-11.047h8.85v2.628zm6.41 8.583c-1.163 0-2.21-.24-3.141-.719a5.506 5.506 0 0 1-2.156-2.033c-.52-.862-.78-1.841-.78-2.936s.26-2.074.78-2.936a5.365 5.365 0 0 1 2.156-2.012c.931-.493 1.978-.739 3.141-.739 1.164 0 2.204.246 3.121.739a5.359 5.359 0 0 1 2.156 2.012c.52.862.781 1.841.781 2.936s-.261 2.074-.781 2.936a5.5 5.5 0 0 1-2.156 2.033c-.917.479-1.957.719-3.121.719zm0-2.628c.822 0 1.492-.274 2.013-.822.533-.561.8-1.307.8-2.238s-.267-1.67-.8-2.217c-.521-.562-1.191-.842-2.013-.842-.821 0-1.499.28-2.032.842-.534.547-.801 1.286-.801 2.217s.267 1.677.801 2.238c.533.548 1.211.822 2.032.822zm13.517 2.628c-1.177 0-2.238-.24-3.183-.719a5.626 5.626 0 0 1-2.197-2.033c-.52-.862-.78-1.841-.78-2.936s.26-2.074.78-2.936a5.482 5.482 0 0 1 2.197-2.012c.945-.493 2.006-.739 3.183-.739 1.164 0 2.177.246 3.039.739a4.252 4.252 0 0 1 1.909 2.074l-2.484 1.334c-.575-1.013-1.403-1.519-2.484-1.519-.835 0-1.527.274-2.074.821-.548.548-.822 1.294-.822 2.238 0 .945.274 1.691.822 2.238.547.548 1.239.822 2.074.822 1.095 0 1.923-.507 2.484-1.52l2.484 1.355c-.396.876-1.033 1.561-1.909 2.054-.862.492-1.875.739-3.039.739zm16.136-8.583h-3.737v8.419h-3.183v-8.419h-3.737v-2.628h10.657v2.628zm1.707-2.628h3.183v6.57l5.379-6.57h2.936v11.047h-3.182v-6.571l-5.359 6.571h-2.957v-11.047zm14.578 0h3.182v4.312h4.805v-4.312h3.203v11.047h-3.203v-4.128h-4.805v4.128h-3.182v-11.047zm18.548-.164c1.711 0 3.025.41 3.942 1.232.917.807 1.376 2.032 1.376 3.675v6.304h-2.998v-1.376c-.603 1.026-1.725 1.54-3.368 1.54-.848 0-1.587-.144-2.217-.431-.616-.288-1.088-.685-1.417-1.191a3.107 3.107 0 0 1-.493-1.725c0-1.027.384-1.834 1.15-2.423.78-.589 1.978-.883 3.593-.883h2.546c0-.698-.212-1.232-.636-1.601-.424-.384-1.061-.575-1.91-.575-.588 0-1.17.095-1.745.287a4.452 4.452 0 0 0-1.437.739l-1.15-2.238c.602-.424 1.321-.753 2.156-.985a9.807 9.807 0 0 1 2.608-.349zm-.247 9.219c.548 0 1.034-.123 1.458-.37.424-.26.726-.636.903-1.129v-1.129h-2.197c-1.314 0-1.971.431-1.971 1.293 0 .411.158.739.473.986.328.232.773.349 1.334.349zm18.162-9.055v11.047h-2.854v-3.163h-2.362l-2.094 3.163h-3.408l2.525-3.614c-.766-.301-1.355-.733-1.766-1.294-.397-.575-.595-1.266-.595-2.074 0-1.3.465-2.299 1.396-2.997.945-.712 2.238-1.068 3.881-1.068h5.277zm-5.216 2.608c-.684 0-1.204.123-1.56.369-.342.247-.513.643-.513 1.191s.164.951.492 1.211c.343.247.856.37 1.54.37h2.403v-3.141h-2.362zM667.735 335.059v14.373h-3.326v-11.704h-2.875v-2.669h6.201zm7.548-.247c2.012 0 3.586.616 4.722 1.848 1.137 1.219 1.705 2.977 1.705 5.277 0 1.629-.308 3.025-.924 4.189-.603 1.163-1.458 2.046-2.567 2.649-1.109.602-2.389.903-3.84.903a9.588 9.588 0 0 1-2.197-.246c-.698-.178-1.293-.425-1.786-.74l1.232-2.443c.698.479 1.595.719 2.69.719 1.218 0 2.183-.356 2.895-1.068.712-.725 1.095-1.766 1.15-3.121-.863.862-2.053 1.294-3.573 1.294-.917 0-1.752-.185-2.505-.555a4.4 4.4 0 0 1-1.786-1.56c-.438-.685-.657-1.472-.657-2.362 0-.958.239-1.8.718-2.525a4.627 4.627 0 0 1 1.951-1.663c.835-.397 1.759-.596 2.772-.596zm.246 6.776c.726 0 1.314-.198 1.766-.595a1.99 1.99 0 0 0 .698-1.561c0-.63-.226-1.143-.677-1.54-.438-.397-1.048-.595-1.828-.595-.712 0-1.293.191-1.745.575-.438.383-.657.903-.657 1.56s.219 1.184.657 1.581c.452.383 1.047.575 1.786.575zm9.405 8.008a1.927 1.927 0 0 1-1.417-.575c-.383-.383-.575-.862-.575-1.437 0-.589.192-1.061.575-1.417.383-.37.856-.554 1.417-.554s1.033.184 1.417.554c.383.356.574.828.574 1.417 0 .575-.191 1.054-.574 1.437a1.928 1.928 0 0 1-1.417.575zm8.536-14.784c2.012 0 3.586.616 4.722 1.848 1.136 1.219 1.704 2.977 1.704 5.277 0 1.629-.308 3.025-.924 4.189-.602 1.163-1.457 2.046-2.566 2.649-1.109.602-2.389.903-3.84.903a9.582 9.582 0 0 1-2.197-.246c-.698-.178-1.293-.425-1.786-.74l1.232-2.443c.698.479 1.595.719 2.69.719 1.218 0 2.183-.356 2.895-1.068.712-.725 1.095-1.766 1.15-3.121-.863.862-2.054 1.294-3.573 1.294-.917 0-1.752-.185-2.505-.555a4.4 4.4 0 0 1-1.786-1.56c-.439-.685-.658-1.472-.658-2.362 0-.958.24-1.8.719-2.525a4.62 4.62 0 0 1 1.951-1.663c.835-.397 1.759-.596 2.772-.596zm.246 6.776c.726 0 1.314-.198 1.766-.595.465-.411.698-.931.698-1.561 0-.63-.226-1.143-.678-1.54-.438-.397-1.047-.595-1.827-.595-.712 0-1.294.191-1.745.575-.438.383-.657.903-.657 1.56s.219 1.184.657 1.581c.451.383 1.047.575 1.786.575zm17.611.288c.712.355 1.253.821 1.623 1.396.383.575.574 1.239.574 1.991 0 .89-.253 1.67-.759 2.341-.507.657-1.219 1.171-2.136 1.54-.917.356-1.978.534-3.182.534-1.205 0-2.266-.178-3.183-.534-.903-.369-1.608-.883-2.115-1.54-.493-.671-.739-1.451-.739-2.341 0-.752.185-1.416.554-1.991.384-.575.924-1.041 1.623-1.396a3.542 3.542 0 0 1-1.232-1.232c-.288-.507-.432-1.082-.432-1.725 0-.835.233-1.561.699-2.177.465-.616 1.115-1.088 1.95-1.416.835-.343 1.793-.514 2.875-.514 1.095 0 2.06.171 2.895.514.849.328 1.506.8 1.971 1.416.465.616.698 1.342.698 2.177 0 .643-.144 1.218-.431 1.725-.288.492-.705.903-1.253 1.232zm-3.88-4.62c-.671 0-1.212.164-1.622.492-.397.315-.596.753-.596 1.315 0 .547.199.978.596 1.293.397.315.937.472 1.622.472.684 0 1.232-.157 1.642-.472.411-.315.616-.746.616-1.293 0-.562-.205-1-.616-1.315-.41-.328-.958-.492-1.642-.492zm0 9.979c.835 0 1.492-.185 1.971-.555.493-.383.739-.89.739-1.519 0-.63-.246-1.129-.739-1.499-.479-.37-1.136-.554-1.971-.554-.822 0-1.472.184-1.951.554-.479.37-.719.869-.719 1.499 0 .643.24 1.15.719 1.519.479.37 1.129.555 1.951.555z" fill="#000"/><path d="M384.784 380.611c-1.178 0-2.238-.24-3.183-.719a5.62 5.62 0 0 1-2.197-2.033c-.52-.862-.78-1.841-.78-2.936s.26-2.074.78-2.936a5.469 5.469 0 0 1 2.197-2.012c.945-.493 2.005-.74 3.183-.74 1.163 0 2.176.247 3.039.74a4.259 4.259 0 0 1 1.909 2.073l-2.484 1.335c-.575-1.013-1.403-1.519-2.485-1.519-.835 0-1.526.273-2.074.821-.547.547-.821 1.293-.821 2.238 0 .944.274 1.69.821 2.238.548.548 1.239.821 2.074.821 1.095 0 1.923-.506 2.485-1.519l2.484 1.355c-.397.876-1.033 1.561-1.909 2.053-.863.493-1.876.74-3.039.74zm17.88-11.211v11.046h-3.204v-8.418h-4.599v8.418h-3.182V369.4h10.985zm7.362-.165c1.711 0 3.025.411 3.942 1.232.917.808 1.376 2.033 1.376 3.676v6.303h-2.998v-1.375c-.602 1.026-1.725 1.54-3.367 1.54-.849 0-1.588-.144-2.218-.432-.616-.287-1.088-.684-1.416-1.191a3.093 3.093 0 0 1-.493-1.724c0-1.027.383-1.835 1.15-2.423.78-.589 1.978-.883 3.593-.883h2.546c0-.698-.212-1.232-.637-1.602-.424-.383-1.06-.575-1.909-.575a5.47 5.47 0 0 0-1.745.288 4.447 4.447 0 0 0-1.438.739l-1.15-2.238c.603-.424 1.321-.753 2.156-.986a9.848 9.848 0 0 1 2.608-.349zm-.246 9.22c.547 0 1.033-.124 1.457-.37.425-.26.726-.636.904-1.129v-1.13h-2.197c-1.314 0-1.971.432-1.971 1.294 0 .411.157.739.472.986.329.232.773.349 1.335.349zm18.941-9.055v11.046h-3.203v-8.418h-3.49l-.103 1.95c-.055 1.451-.192 2.656-.411 3.614-.219.958-.574 1.711-1.067 2.259-.493.547-1.177.821-2.054.821-.465 0-1.019-.082-1.663-.246l.165-2.628c.219.027.376.041.472.041.479 0 .835-.171 1.068-.514.246-.356.41-.8.492-1.334.082-.548.144-1.267.185-2.156l.164-4.435h9.445zm9.056 3.531c1.437.014 2.539.342 3.306.986.766.63 1.149 1.526 1.149 2.69 0 1.218-.431 2.169-1.293 2.854-.849.67-2.047 1.006-3.593 1.006l-5.544-.021V369.4h3.182v3.531h2.793zm-.719 5.257c.616.013 1.088-.117 1.417-.39.328-.274.493-.685.493-1.232 0-.534-.165-.924-.493-1.171-.315-.246-.787-.376-1.417-.39l-2.074-.02v3.203h2.074zm7.176-8.788h3.182v4.312h4.805V369.4h3.203v11.046h-3.203v-4.127h-4.805v4.127h-3.182V369.4zm24.071 0v11.046h-2.854v-3.162h-2.361l-2.095 3.162h-3.408l2.525-3.613c-.766-.302-1.355-.733-1.765-1.294-.397-.575-.596-1.266-.596-2.074 0-1.3.466-2.3 1.396-2.998.945-.711 2.238-1.067 3.881-1.067h5.277zm-5.215 2.607c-.685 0-1.205.124-1.561.37-.342.246-.513.643-.513 1.191 0 .547.164.951.493 1.211.342.247.855.37 1.54.37h2.402v-3.142h-2.361zM407.131 395.359v14.373h-3.327v-11.704h-2.874v-2.669h6.201zm13.749 0v2.156l-5.339 12.217h-3.614l5.154-11.663h-4.764v2.341h-2.956v-5.051h11.519zm2.367 14.537a1.923 1.923 0 0 1-1.417-.575c-.383-.383-.575-.862-.575-1.437 0-.589.192-1.061.575-1.417.383-.369.856-.554 1.417-.554s1.033.185 1.417.554c.383.356.574.828.574 1.417 0 .575-.191 1.054-.574 1.437a1.925 1.925 0 0 1-1.417.575zm14.424-2.874v2.71h-10.862v-2.156l5.544-5.236c.588-.561.985-1.04 1.191-1.437.205-.411.308-.815.308-1.212 0-.575-.199-1.013-.596-1.314-.383-.315-.951-.472-1.704-.472-.63 0-1.198.123-1.704.37a3.17 3.17 0 0 0-1.273 1.067l-2.423-1.56c.561-.835 1.334-1.485 2.32-1.951.986-.479 2.115-.718 3.388-.718 1.068 0 1.998.178 2.792.533.808.343 1.431.835 1.869 1.479.452.629.677 1.375.677 2.238 0 .78-.164 1.512-.492 2.197-.329.684-.965 1.465-1.91 2.341l-3.306 3.121h6.181zm11.207-4.846c.712.356 1.253.821 1.623 1.396.383.575.574 1.239.574 1.992 0 .89-.253 1.67-.759 2.341-.507.657-1.219 1.17-2.136 1.539-.917.356-1.978.534-3.182.534-1.205 0-2.266-.178-3.183-.534-.903-.369-1.608-.882-2.115-1.539-.493-.671-.739-1.451-.739-2.341 0-.753.185-1.417.554-1.992.384-.575.924-1.04 1.623-1.396a3.534 3.534 0 0 1-1.232-1.232c-.288-.507-.432-1.081-.432-1.725 0-.835.233-1.56.699-2.176.465-.616 1.115-1.089 1.95-1.417.835-.342 1.793-.513 2.875-.513 1.095 0 2.06.171 2.895.513.849.328 1.506.801 1.971 1.417.465.616.698 1.341.698 2.176 0 .644-.144 1.218-.431 1.725-.288.493-.705.903-1.253 1.232zm-3.88-4.62c-.671 0-1.212.164-1.622.493-.397.315-.596.753-.596 1.314 0 .547.199.979.596 1.293.397.315.937.473 1.622.473.684 0 1.232-.158 1.642-.473.411-.314.616-.746.616-1.293 0-.561-.205-.999-.616-1.314-.41-.329-.958-.493-1.642-.493zm0 9.979c.835 0 1.492-.185 1.971-.554.493-.384.739-.89.739-1.52s-.246-1.129-.739-1.499c-.479-.369-1.136-.554-1.971-.554-.822 0-1.472.185-1.951.554-.479.37-.719.869-.719 1.499 0 .643.24 1.15.719 1.52.479.369 1.129.554 1.951.554zM172.05 393.032h-1.663v4.189h-3.203v-11.046h3.203v4.291h1.725l2.998-4.291h3.408l-3.86 5.297 4.127 5.749h-3.778l-2.957-4.189zm18.753-6.857-4.989 11.724c-.506 1.273-1.136 2.169-1.889 2.69-.739.52-1.636.78-2.69.78a5.603 5.603 0 0 1-1.704-.267c-.561-.178-1.02-.424-1.376-.739l1.171-2.279a2.778 2.778 0 0 0 1.807.698c.438 0 .793-.11 1.067-.329.274-.205.52-.554.739-1.047l.041-.103-4.784-11.128h3.306l3.101 7.494 3.121-7.494h3.079zm7.864 11.046-2.423-3.388-2.505 3.388h-3.49l4.25-5.564-4.107-5.482h3.594l2.34 3.223 2.403-3.223h3.408l-4.106 5.4 4.271 5.646h-3.635zm5.211-11.046h3.183v4.311h4.805v-4.311h3.203v11.046h-3.203v-4.127h-4.805v4.127h-3.183v-11.046zm24.072 0v11.046h-2.854v-3.162h-2.362l-2.094 3.162h-3.408l2.525-3.614c-.766-.301-1.355-.732-1.766-1.293-.397-.575-.595-1.266-.595-2.074 0-1.3.465-2.3 1.396-2.998.945-.712 2.238-1.067 3.881-1.067h5.277zm-5.216 2.607c-.684 0-1.204.123-1.56.37-.342.246-.513.643-.513 1.191 0 .547.164.951.492 1.211.343.247.856.37 1.54.37h2.403v-3.142h-2.362zM178.088 412.134v14.373h-3.327v-11.704h-2.874v-2.669h6.201zm8.04 0v14.373h-3.326v-11.704h-2.874v-2.669h6.2zm4.386 14.537a1.925 1.925 0 0 1-1.416-.575c-.384-.383-.575-.862-.575-1.437 0-.589.191-1.061.575-1.417.383-.369.855-.554 1.416-.554.562 0 1.034.185 1.417.554.383.356.575.828.575 1.417 0 .575-.192 1.054-.575 1.437a1.925 1.925 0 0 1-1.417.575zm10.4-8.685c1.259.205 2.224.677 2.895 1.416.671.726 1.006 1.629 1.006 2.711 0 .835-.219 1.608-.657 2.32-.438.698-1.109 1.259-2.012 1.684-.89.424-1.985.636-3.285.636-1.013 0-2.013-.13-2.998-.39-.972-.274-1.8-.657-2.485-1.15l1.294-2.546a6.437 6.437 0 0 0 1.889.965 7.632 7.632 0 0 0 2.217.329c.835 0 1.492-.158 1.972-.472.479-.329.718-.788.718-1.376 0-1.177-.896-1.766-2.69-1.766h-1.519v-2.197l2.957-3.347h-6.119v-2.669h10.061v2.156l-3.244 3.696zm15.272.965c.712.356 1.253.821 1.622 1.396.383.575.575 1.239.575 1.992 0 .889-.253 1.67-.76 2.34-.506.657-1.218 1.171-2.135 1.54-.917.356-1.978.534-3.183.534-1.204 0-2.265-.178-3.182-.534-.904-.369-1.609-.883-2.115-1.54-.493-.67-.739-1.451-.739-2.34 0-.753.185-1.417.554-1.992.383-.575.924-1.04 1.622-1.396a3.543 3.543 0 0 1-1.232-1.232c-.287-.507-.431-1.082-.431-1.725 0-.835.233-1.56.698-2.176.466-.616 1.116-1.089 1.951-1.417.835-.342 1.793-.514 2.874-.514 1.095 0 2.061.172 2.896.514.848.328 1.505.801 1.971 1.417.465.616.698 1.341.698 2.176 0 .643-.144 1.218-.431 1.725-.288.493-.705.903-1.253 1.232zm-3.881-4.62c-.67 0-1.211.164-1.622.493-.397.315-.595.753-.595 1.314 0 .547.198.979.595 1.293.397.315.938.473 1.622.473.685 0 1.232-.158 1.643-.473.411-.314.616-.746.616-1.293 0-.561-.205-.999-.616-1.314-.411-.329-.958-.493-1.643-.493zm0 9.979c.835 0 1.492-.185 1.972-.555.492-.383.739-.889.739-1.519 0-.63-.247-1.129-.739-1.499-.48-.369-1.137-.554-1.972-.554-.821 0-1.471.185-1.95.554-.479.37-.719.869-.719 1.499 0 .643.24 1.15.719 1.519.479.37 1.129.555 1.95.555zM184.069 441.42v14.373h-3.326v-11.704h-2.874v-2.669h6.2zm8.041 0v14.373h-3.326v-11.704h-2.875v-2.669h6.201zm4.386 14.537a1.925 1.925 0 0 1-1.417-.575c-.383-.383-.575-.862-.575-1.437 0-.589.192-1.061.575-1.417.384-.369.856-.554 1.417-.554s1.033.185 1.417.554c.383.356.575.828.575 1.417 0 .575-.192 1.054-.575 1.437a1.925 1.925 0 0 1-1.417.575zm8.708-14.537v14.373h-3.326v-11.704h-2.875v-2.669h6.201zm12.332 6.817c.712.356 1.252.821 1.622 1.396.383.575.575 1.239.575 1.992 0 .89-.253 1.67-.76 2.341-.506.657-1.218 1.17-2.135 1.54-.917.355-1.978.533-3.183.533-1.204 0-2.265-.178-3.182-.533-.904-.37-1.609-.883-2.115-1.54-.493-.671-.739-1.451-.739-2.341 0-.753.184-1.417.554-1.992.383-.575.924-1.04 1.622-1.396a3.534 3.534 0 0 1-1.232-1.232c-.287-.507-.431-1.081-.431-1.725 0-.835.233-1.56.698-2.176.465-.616 1.116-1.089 1.951-1.417.835-.342 1.793-.513 2.874-.513 1.095 0 2.06.171 2.895.513.849.328 1.506.801 1.971 1.417.466.616.699 1.341.699 2.176 0 .644-.144 1.218-.432 1.725-.287.493-.705.903-1.252 1.232zm-3.881-4.62c-.671 0-1.211.164-1.622.493-.397.315-.595.753-.595 1.314 0 .547.198.979.595 1.293.397.315.938.473 1.622.473.685 0 1.232-.158 1.643-.473.41-.314.616-.746.616-1.293 0-.561-.206-.999-.616-1.314-.411-.329-.958-.493-1.643-.493zm0 9.979c.835 0 1.492-.185 1.971-.554.493-.384.74-.89.74-1.52s-.247-1.129-.74-1.499c-.479-.369-1.136-.554-1.971-.554-.821 0-1.471.185-1.95.554-.48.37-.719.869-.719 1.499 0 .644.239 1.15.719 1.52.479.369 1.129.554 1.95.554z" fill="#20201F"/><path d="m374.727 158.179-3.006-3.96-3.024 3.96h-1.44l3.744-4.86-3.564-4.608h1.44l2.844 3.708 2.844-3.708h1.404l-3.564 4.608 3.78 4.86h-1.458zm7.125.09c-.912 0-1.734-.204-2.466-.612a4.594 4.594 0 0 1-1.728-1.728c-.42-.732-.63-1.56-.63-2.484 0-.924.21-1.752.63-2.484a4.465 4.465 0 0 1 1.728-1.71c.732-.408 1.554-.612 2.466-.612.912 0 1.734.204 2.466.612a4.34 4.34 0 0 1 1.71 1.71c.42.732.63 1.56.63 2.484 0 .924-.21 1.752-.63 2.484a4.465 4.465 0 0 1-1.71 1.728c-.732.408-1.554.612-2.466.612zm0-1.134c.672 0 1.272-.15 1.8-.45.54-.312.96-.75 1.26-1.314.3-.564.45-1.206.45-1.926s-.15-1.362-.45-1.926c-.3-.564-.72-.996-1.26-1.296-.528-.312-1.128-.468-1.8-.468-.672 0-1.278.156-1.818.468-.528.3-.948.732-1.26 1.296-.3.564-.45 1.206-.45 1.926s.15 1.362.45 1.926a3.406 3.406 0 0 0 1.26 1.314c.54.3 1.146.45 1.818.45zm15.225-8.424v9.468h-1.278v-8.334h-4.536l-.126 2.34c-.096 1.968-.324 3.48-.684 4.536-.36 1.056-1.002 1.584-1.926 1.584-.252 0-.558-.048-.918-.144l.09-1.098c.216.048.366.072.45.072.492 0 .864-.228 1.116-.684.252-.456.42-1.02.504-1.692.084-.672.156-1.56.216-2.664l.162-3.384h6.93zm11.373 0v9.468h-1.278v-8.334h-4.536l-.126 2.34c-.096 1.968-.324 3.48-.684 4.536-.36 1.056-1.002 1.584-1.926 1.584-.252 0-.558-.048-.918-.144l.09-1.098c.216.048.366.072.45.072.492 0 .864-.228 1.116-.684.252-.456.42-1.02.504-1.692.084-.672.156-1.56.216-2.664l.162-3.384h6.93zM375.127 171.068c1.668 0 2.946.552 3.834 1.656.888 1.092 1.332 2.64 1.332 4.644 0 1.404-.24 2.592-.72 3.564s-1.152 1.71-2.016 2.214c-.864.492-1.872.738-3.024.738-1.248 0-2.244-.228-2.988-.684l.522-1.044c.6.396 1.416.594 2.448.594 1.392 0 2.484-.438 3.276-1.314.792-.888 1.188-2.172 1.188-3.852 0-.312-.018-.654-.054-1.026a3.445 3.445 0 0 1-1.494 1.602c-.684.372-1.47.558-2.358.558-.828 0-1.566-.156-2.214-.468a3.62 3.62 0 0 1-1.494-1.314c-.36-.576-.54-1.242-.54-1.998 0-.768.186-1.446.558-2.034a3.635 3.635 0 0 1 1.53-1.35c.66-.324 1.398-.486 2.214-.486zm.144 6.552c.636 0 1.194-.12 1.674-.36.492-.24.876-.57 1.152-.99.276-.42.414-.888.414-1.404 0-.48-.132-.924-.396-1.332-.252-.408-.63-.738-1.134-.99-.504-.252-1.104-.378-1.8-.378-.912 0-1.656.252-2.232.756-.564.492-.846 1.152-.846 1.98 0 .828.282 1.488.846 1.98.576.492 1.35.738 2.322.738zm7.679 6.246a.934.934 0 0 1-.684-.288.989.989 0 0 1-.27-.702c0-.276.09-.504.27-.684a.934.934 0 0 1 .684-.288c.264 0 .492.096.684.288.192.18.288.408.288.684 0 .276-.096.51-.288.702a.934.934 0 0 1-.684.288zm6.767-12.798c1.668 0 2.946.552 3.834 1.656.888 1.092 1.332 2.64 1.332 4.644 0 1.404-.24 2.592-.72 3.564s-1.152 1.71-2.016 2.214c-.864.492-1.872.738-3.024.738-1.248 0-2.244-.228-2.988-.684l.522-1.044c.6.396 1.416.594 2.448.594 1.392 0 2.484-.438 3.276-1.314.792-.888 1.188-2.172 1.188-3.852 0-.312-.018-.654-.054-1.026a3.445 3.445 0 0 1-1.494 1.602c-.684.372-1.47.558-2.358.558-.828 0-1.566-.156-2.214-.468a3.62 3.62 0 0 1-1.494-1.314c-.36-.576-.54-1.242-.54-1.998 0-.768.186-1.446.558-2.034a3.635 3.635 0 0 1 1.53-1.35c.66-.324 1.398-.486 2.214-.486zm.144 6.552c.636 0 1.194-.12 1.674-.36.492-.24.876-.57 1.152-.99.276-.42.414-.888.414-1.404 0-.48-.132-.924-.396-1.332-.252-.408-.63-.738-1.134-.99-.504-.252-1.104-.378-1.8-.378-.912 0-1.656.252-2.232.756-.564.492-.846 1.152-.846 1.98 0 .828.282 1.488.846 1.98.576.492 1.35.738 2.322.738zm15.47 5.004v1.152h-8.838v-.918l5.238-5.13c.66-.648 1.104-1.206 1.332-1.674.24-.48.36-.96.36-1.44 0-.744-.258-1.32-.774-1.728-.504-.42-1.23-.63-2.178-.63-1.476 0-2.622.468-3.438 1.404l-.918-.792a4.846 4.846 0 0 1 1.872-1.332c.768-.312 1.632-.468 2.592-.468 1.284 0 2.298.306 3.042.918.756.6 1.134 1.428 1.134 2.484 0 .648-.144 1.272-.432 1.872-.288.6-.834 1.29-1.638 2.07l-4.284 4.212h6.93zM665.558 465.151v9.468h-1.278v-8.334h-4.536l-.126 2.34c-.096 1.968-.324 3.48-.684 4.536-.36 1.056-1.002 1.584-1.926 1.584-.252 0-.558-.048-.918-.144l.09-1.098c.216.048.366.072.45.072.492 0 .864-.228 1.116-.684.252-.456.42-1.02.504-1.692.084-.672.156-1.56.216-2.664l.162-3.384h6.93zm7.539 9.558c-.912 0-1.734-.204-2.466-.612a4.594 4.594 0 0 1-1.728-1.728c-.42-.732-.63-1.56-.63-2.484 0-.924.21-1.752.63-2.484a4.465 4.465 0 0 1 1.728-1.71c.732-.408 1.554-.612 2.466-.612.912 0 1.734.204 2.466.612a4.34 4.34 0 0 1 1.71 1.71c.42.732.63 1.56.63 2.484 0 .924-.21 1.752-.63 2.484a4.465 4.465 0 0 1-1.71 1.728c-.732.408-1.554.612-2.466.612zm0-1.134c.672 0 1.272-.15 1.8-.45.54-.312.96-.75 1.26-1.314.3-.564.45-1.206.45-1.926s-.15-1.362-.45-1.926c-.3-.564-.72-.996-1.26-1.296-.528-.312-1.128-.468-1.8-.468-.672 0-1.278.156-1.818.468-.528.3-.948.732-1.26 1.296-.3.564-.45 1.206-.45 1.926s.15 1.362.45 1.926a3.406 3.406 0 0 0 1.26 1.314c.54.3 1.146.45 1.818.45zm16.719-.072v3.402h-1.206v-2.286h-8.478v2.286h-1.206v-3.402h.54c.636-.036 1.068-.504 1.296-1.404.228-.9.384-2.16.468-3.78l.126-3.168h6.984v8.352h1.476zm-7.416-5.112c-.06 1.344-.174 2.454-.342 3.33-.168.864-.468 1.458-.9 1.782h5.904v-7.218h-4.554l-.108 2.106zm18.205 2.016h-2.052v4.212h-1.278v-4.212h-2.052l-2.898 4.212h-1.53l3.402-4.878-3.132-4.59h1.386l2.772 4.158h2.052v-4.158h1.278v4.158h2.052l2.79-4.158h1.386l-3.132 4.608 3.402 4.86h-1.53l-2.916-4.212zm6.573-5.256h1.278v7.524l6.318-7.524h1.134v9.468h-1.278v-7.524l-6.3 7.524h-1.152v-9.468zm19.665 0v9.468h-1.17v-3.132h-3.33l-2.196 3.132h-1.386l2.358-3.312c-.732-.204-1.296-.552-1.692-1.044-.396-.492-.594-1.116-.594-1.872 0-1.056.36-1.86 1.08-2.412.72-.552 1.704-.828 2.952-.828h3.978zm-6.714 3.276c0 1.404.894 2.106 2.682 2.106h2.862v-4.248h-2.772c-1.848 0-2.772.714-2.772 2.142zM690.646 500.593h-2.52v3.312h-1.296v-3.312h-7.11v-.936l6.678-8.352h1.44l-6.444 8.136h5.472v-2.916h1.26v2.916h2.52v1.152zm2.514 3.402a.934.934 0 0 1-.684-.288.989.989 0 0 1-.27-.702c0-.276.09-.504.27-.684a.934.934 0 0 1 .684-.288c.264 0 .492.096.684.288.192.18.288.408.288.684 0 .276-.096.51-.288.702a.934.934 0 0 1-.684.288zm7.869-7.632c.828 0 1.56.156 2.196.468a3.556 3.556 0 0 1 1.512 1.332c.36.564.54 1.224.54 1.98 0 .768-.186 1.446-.558 2.034a3.733 3.733 0 0 1-1.548 1.368c-.648.312-1.38.468-2.196.468-1.668 0-2.946-.546-3.834-1.638-.888-1.104-1.332-2.658-1.332-4.662 0-1.404.24-2.592.72-3.564s1.152-1.704 2.016-2.196c.864-.504 1.872-.756 3.024-.756 1.248 0 2.244.228 2.988.684l-.522 1.044c-.6-.396-1.416-.594-2.448-.594-1.392 0-2.484.444-3.276 1.332-.792.876-1.188 2.154-1.188 3.834 0 .3.018.642.054 1.026a3.351 3.351 0 0 1 1.494-1.584c.684-.384 1.47-.576 2.358-.576zm-.108 6.552c.912 0 1.65-.246 2.214-.738.576-.504.864-1.17.864-1.998 0-.828-.288-1.488-.864-1.98-.564-.492-1.332-.738-2.304-.738-.636 0-1.2.12-1.692.36-.48.24-.858.57-1.134.99-.276.42-.414.888-.414 1.404 0 .48.126.924.378 1.332.264.408.648.738 1.152.99.504.252 1.104.378 1.8.378zm16.567-2.322h-2.52v3.312h-1.296v-3.312h-7.11v-.936l6.678-8.352h1.44l-6.444 8.136h5.472v-2.916h1.26v2.916h2.52v1.152zM436.113 98.887v1.152h-8.838v-.918l5.238-5.13c.66-.648 1.104-1.206 1.332-1.674.24-.48.36-.96.36-1.44 0-.744-.258-1.32-.774-1.728-.504-.42-1.23-.63-2.178-.63-1.476 0-2.622.468-3.438 1.404l-.918-.792a4.846 4.846 0 0 1 1.872-1.332c.768-.312 1.632-.468 2.592-.468 1.284 0 2.298.306 3.042.918.756.6 1.134 1.428 1.134 2.484 0 .648-.144 1.272-.432 1.872-.288.6-.834 1.29-1.638 2.07l-4.284 4.212h6.93zm2.774 1.242a.935.935 0 0 1-.684-.288.989.989 0 0 1-.27-.702c0-.276.09-.504.27-.684a.934.934 0 0 1 .684-.288c.264 0 .492.096.684.288.192.18.288.408.288.684 0 .276-.096.51-.288.702a.935.935 0 0 1-.684.288zm6.766-12.798c1.668 0 2.946.552 3.834 1.656.888 1.092 1.332 2.64 1.332 4.644 0 1.404-.24 2.592-.72 3.564s-1.152 1.71-2.016 2.214c-.864.492-1.872.738-3.024.738-1.248 0-2.244-.228-2.988-.684l.522-1.044c.6.396 1.416.594 2.448.594 1.392 0 2.484-.438 3.276-1.314.792-.888 1.188-2.172 1.188-3.852 0-.312-.018-.654-.054-1.026a3.445 3.445 0 0 1-1.494 1.602c-.684.372-1.47.558-2.358.558-.828 0-1.566-.156-2.214-.468a3.62 3.62 0 0 1-1.494-1.314c-.36-.576-.54-1.242-.54-1.998 0-.768.186-1.446.558-2.034a3.635 3.635 0 0 1 1.53-1.35c.66-.324 1.398-.486 2.214-.486zm.144 6.552c.636 0 1.194-.12 1.674-.36.492-.24.876-.57 1.152-.99.276-.42.414-.888.414-1.404 0-.48-.132-.924-.396-1.332-.252-.408-.63-.738-1.134-.99-.504-.252-1.104-.378-1.8-.378-.912 0-1.656.252-2.232.756-.564.492-.846 1.152-.846 1.98 0 .828.282 1.488.846 1.98.576.492 1.35.738 2.322.738zm10.358-6.444v12.6h-1.296V88.591h-2.97V87.44h4.266z" fill="#000"/><path d="M131.552 193.822c.828 0 1.56.156 2.196.468a3.556 3.556 0 0 1 1.512 1.332c.36.564.54 1.224.54 1.98 0 .768-.186 1.446-.558 2.034a3.733 3.733 0 0 1-1.548 1.368c-.648.312-1.38.468-2.196.468-1.668 0-2.946-.546-3.834-1.638-.888-1.104-1.332-2.658-1.332-4.662 0-1.404.24-2.592.72-3.564s1.152-1.704 2.016-2.196c.864-.504 1.872-.756 3.024-.756 1.248 0 2.244.228 2.988.684l-.522 1.044c-.6-.396-1.416-.594-2.448-.594-1.392 0-2.484.444-3.276 1.332-.792.876-1.188 2.154-1.188 3.834 0 .3.018.642.054 1.026a3.351 3.351 0 0 1 1.494-1.584c.684-.384 1.47-.576 2.358-.576zm-.108 6.552c.912 0 1.65-.246 2.214-.738.576-.504.864-1.17.864-1.998 0-.828-.288-1.488-.864-1.98-.564-.492-1.332-.738-2.304-.738-.636 0-1.2.12-1.692.36-.48.24-.858.57-1.134.99-.276.42-.414.888-.414 1.404 0 .48.126.924.378 1.332.264.408.648.738 1.152.99.504.252 1.104.378 1.8.378zm7.004 1.08a.934.934 0 0 1-.684-.288.989.989 0 0 1-.27-.702c0-.276.09-.504.27-.684a.934.934 0 0 1 .684-.288c.264 0 .492.096.684.288.192.18.288.408.288.684 0 .276-.096.51-.288.702a.934.934 0 0 1-.684.288zm6.124-12.69v12.6h-1.296v-11.448h-2.97v-1.152h4.266zm8.231 5.058c.828 0 1.56.156 2.196.468a3.556 3.556 0 0 1 1.512 1.332c.36.564.54 1.224.54 1.98 0 .768-.186 1.446-.558 2.034a3.733 3.733 0 0 1-1.548 1.368c-.648.312-1.38.468-2.196.468-1.668 0-2.946-.546-3.834-1.638-.888-1.104-1.332-2.658-1.332-4.662 0-1.404.24-2.592.72-3.564s1.152-1.704 2.016-2.196c.864-.504 1.872-.756 3.024-.756 1.248 0 2.244.228 2.988.684l-.522 1.044c-.6-.396-1.416-.594-2.448-.594-1.392 0-2.484.444-3.276 1.332-.792.876-1.188 2.154-1.188 3.834 0 .3.018.642.054 1.026a3.351 3.351 0 0 1 1.494-1.584c.684-.384 1.47-.576 2.358-.576zm-.108 6.552c.912 0 1.65-.246 2.214-.738.576-.504.864-1.17.864-1.998 0-.828-.288-1.488-.864-1.98-.564-.492-1.332-.738-2.304-.738-.636 0-1.2.12-1.692.36-.48.24-.858.57-1.134.99-.276.42-.414.888-.414 1.404 0 .48.126.924.378 1.332.264.408.648.738 1.152.99.504.252 1.104.378 1.8.378z" fill="#20201F"/></g><defs><clipPath id="a"><path fill="#fff" transform="translate(50 47)" d="M0 0h800v505.152H0z"/></clipPath></defs></svg>