<svg width="950" height="550" viewBox="0 0 950 550" fill="none" xmlns="http://www.w3.org/2000/svg">
<rect width="950" height="550" fill="white"/>
<g clip-path="url(#clip0_2384_28742)">
<path fill-rule="evenodd" clip-rule="evenodd" d="M921.492 273.544H622.375V28H135.878H123.912H48.5421L28 272.344H123.912V314.26H188.496V521.476H921.492V273.544Z" fill="#FFE900"/>
<path d="M629.263 28H28V42.9755H629.263V28Z" fill="#CFD0D0"/>
<path fill-rule="evenodd" clip-rule="evenodd" d="M921.492 273.544H622.375V28H135.878H123.912H48.5421L28 272.344H123.912V314.26H188.496V521.476H921.492V273.544Z" fill="#E4CDA1"/>
<path d="M219.04 283.723H139.389V298.69H219.04V283.723Z" fill="#20201F"/>
<path d="M446.607 283.723H392.709V298.69H446.607V283.723Z" fill="#20201F"/>
<path d="M905.939 486.142H852.042V507.096H905.939V486.142Z" fill="#20201F"/>
<path d="M473.556 486.142H419.658V507.096H473.556V486.142Z" fill="#20201F"/>
<path d="M257.964 486.307H203.915V506.947H257.964V486.307Z" fill="#20201F"/>
<path d="M482.842 28H28V42.9755H482.842V28Z" fill="#20201F"/>
<path d="M644.239 28H629.263V42.9755H644.239V28Z" fill="#20201F"/>
<path d="M644.239 28H542.727V42.9755H644.239V28Z" fill="#20201F"/>
<path d="M622.375 28H607.408V288.51H622.375V28Z" fill="#20201F"/>
<path d="M921.493 273.544H607.408V288.511H921.493V273.544Z" fill="#20201F"/>
<path d="M219.04 468.769H195.683V486.307H219.04V468.769Z" fill="#20201F"/>
<path d="M419.658 487.341H257.964V513.686H419.658V487.341Z" fill="#20201F"/>
<path d="M636.449 487.341H473.556V513.686H636.449V487.341Z" fill="#20201F"/>
<path d="M852.041 487.341H690.347V513.686H852.041V487.341Z" fill="#20201F"/>
<path d="M913.729 468.769H890.973V486.142H913.729V468.769Z" fill="#20201F"/>
<path d="M913.729 273.544H890.973V343.012H913.729V273.544Z" fill="#20201F"/>
<path d="M154.361 42.9756H131.604V133.406H154.361V42.9756Z" fill="#20201F"/>
<path d="M154.361 241.203H131.604V304.685H154.361V241.203Z" fill="#20201F"/>
<path d="M219.04 298.69H196.282V343.012H219.04V298.69Z" fill="#20201F"/>
<path d="M921.492 288.51H913.729V346.601H921.492V288.51Z" fill="#20201F"/>
<path d="M921.492 465.18H913.729V521.476H921.492V465.18Z" fill="#20201F"/>
<path d="M921.492 514.29H852.042V521.476H921.492V514.29Z" fill="#20201F"/>
<path d="M852.042 513.686H690.288V521.476H852.042V513.686Z" fill="#20201F"/>
<path d="M636.449 513.686H473.556V521.476H636.449V513.686Z" fill="#20201F"/>
<path d="M473.556 513.686H419.658V521.476H473.556V513.686Z" fill="#20201F"/>
<path d="M419.658 513.686H257.964V521.476H419.658V513.686Z" fill="#20201F"/>
<path d="M257.964 514.29H188.497V521.476H257.964V514.29Z" fill="#20201F"/>
<path d="M195.683 465.18H188.497V521.476H195.683V465.18Z" fill="#20201F"/>
<path d="M196.282 298.69H188.497V346.601H196.282V298.69Z" fill="#20201F"/>
<path d="M188.497 307.075H123.818V314.261H188.497V307.075Z" fill="#20201F"/>
<path d="M131.604 241.203H123.818V304.685H131.604V241.203Z" fill="#20201F"/>
<path d="M131.604 42.9756H123.818V133.406H131.604V42.9756Z" fill="#20201F"/>
<path d="M124.28 51.3604H28V58.5463H124.28V51.3604Z" fill="#20201F"/>
<path d="M135.878 35.4878H28V54.9534H135.878V35.4878Z" fill="#20201F"/>
<path d="M194.294 293.26H123.819V310.668H194.294V293.26Z" fill="#20201F"/>
<path d="M211.312 481.836H192.608V516.501H211.312V481.836Z" fill="#20201F"/>
<path d="M261.937 503.423H206.671V516.501H261.937V503.423Z" fill="#20201F"/>
<path d="M473.556 500.55H412.755V517.581H473.556V500.55Z" fill="#20201F"/>
<path d="M918.676 501.942H847.5V518.859H918.676V501.942Z" fill="#20201F"/>
<path d="M914.324 481.986H904.547V504.758H914.324V481.986Z" fill="#20201F"/>
<path d="M921.493 285.382H916.973V298.882H921.493V285.382Z" fill="#20201F"/>
<path fill-rule="evenodd" clip-rule="evenodd" d="M123.819 272.344H28L45.9603 58.5461H53.1776L35.8159 265.159H123.819V272.344Z" fill="#20201F"/>
<path d="M392.709 283.723H219.04V288.51H392.709V283.723Z" fill="#20201F"/>
<path d="M373.252 221.771H342.706V226.227H373.252V221.771Z" fill="#20201F"/>
<path d="M470.699 221.771H415.168V226.558H470.699V221.771Z" fill="#20201F"/>
<path d="M342.706 168.74H337.918V230.606H342.706V168.74Z" fill="#20201F"/>
<path d="M470.69 103.413H465.902V226.558H470.69V103.413Z" fill="#20201F"/>
<path d="M470.699 104.161H342.706V108.949H470.699V104.161Z" fill="#20201F"/>
<path d="M470.699 42.9753H465.902V61.4968H470.699V42.9753Z" fill="#20201F"/>
<path d="M572.593 42.9753H567.805V57.9082H572.593V42.9753Z" fill="#20201F"/>
<path d="M572.593 135.107H567.805V180.424H572.593V135.107Z" fill="#20201F"/>
<path d="M607.408 150.04H572.593V154.828H607.408V150.04Z" fill="#20201F"/>
<path d="M572.593 257.624H567.805V288.51H572.593V257.624Z" fill="#20201F"/>
<path d="M607.408 283.723H564.659V288.51H607.408V283.723Z" fill="#20201F"/>
<path d="M510.669 283.723H501.007V288.51H510.669V283.723Z" fill="#20201F"/>
<path d="M507.954 288.51H503.158V487.341H507.954V288.51Z" fill="#20201F"/>
<path d="M342.706 39.3989H337.918V172.9H342.706V39.3989Z" fill="#20201F"/>
<path d="M921.493 346.593H917.641V465.18H921.493V346.593Z" fill="#20201F"/>
<path d="M913.728 343.004H909.876V468.77H913.728V343.004Z" fill="#20201F"/>
<path d="M894.823 343.004H890.971V468.77H894.823V343.004Z" fill="#20201F"/>
<path d="M192.348 346.593H188.496V465.18H192.348V346.593Z" fill="#20201F"/>
<path d="M200.112 343.004H196.261V468.77H200.112V343.004Z" fill="#20201F"/>
<path d="M219.017 343.004H215.166V468.77H219.017V343.004Z" fill="#20201F"/>
<path d="M127.67 181.317H123.817V241.201H127.67V181.317Z" fill="#20201F"/>
<path d="M135.434 181.317H131.583V241.203H135.434V181.317Z" fill="#20201F"/>
<path d="M154.339 181.317H150.487V241.203H154.339V181.317Z" fill="#20201F"/>
<path d="M154.36 181.317H123.817V184.144H154.36V181.317Z" fill="#20201F"/>
<path fill-rule="evenodd" clip-rule="evenodd" d="M484.743 34.4408C484.743 33.502 485.505 32.74 486.444 32.74C487.383 32.74 488.145 33.502 488.145 34.4408V70.4371C488.145 71.376 487.383 72.1379 486.444 72.1379C485.505 72.1379 484.743 71.376 484.743 70.4371V34.4408Z" fill="#20201F"/>
<path fill-rule="evenodd" clip-rule="evenodd" d="M537.985 34.0989C537.985 33.6294 538.366 33.2485 538.835 33.2485C539.305 33.2485 539.686 33.6294 539.686 34.0989C539.686 44.4065 534.401 53.7259 525.859 60.4594C517.376 67.1486 505.664 71.2874 492.746 71.2874C492.276 71.2874 491.896 70.9064 491.896 70.437C491.896 69.9676 492.276 69.5866 492.746 69.5866C505.275 69.5866 516.613 65.5872 524.81 59.1242C532.948 52.7089 537.985 43.858 537.985 34.0989Z" fill="#20201F"/>
<path fill-rule="evenodd" clip-rule="evenodd" d="M466.435 62.7334C467.374 62.7334 468.136 63.4954 468.136 64.4342C468.136 65.373 467.374 66.135 466.435 66.135H430.439C429.5 66.135 428.738 65.373 428.738 64.4342C428.738 63.4954 429.5 62.7334 430.439 62.7334H466.435Z" fill="#20201F"/>
<path fill-rule="evenodd" clip-rule="evenodd" d="M466.776 99.4117C467.246 99.4117 467.627 99.7927 467.627 100.262C467.627 100.732 467.246 101.112 466.776 101.112C456.533 101.112 447.252 97.5034 440.529 91.6714C433.77 85.8088 429.588 77.7012 429.588 68.744C429.588 68.2746 429.969 67.8936 430.438 67.8936C430.908 67.8936 431.289 68.2746 431.289 68.744C431.289 77.1884 435.245 84.8436 441.638 90.3891C448.063 95.9624 456.952 99.4117 466.776 99.4117Z" fill="#20201F"/>
<path fill-rule="evenodd" clip-rule="evenodd" d="M409.976 223.775C409.976 222.836 410.738 222.074 411.677 222.074C412.616 222.074 413.378 222.836 413.378 223.775V259.771C413.378 260.71 412.616 261.472 411.677 261.472C410.738 261.472 409.976 260.71 409.976 259.771V223.775Z" fill="#20201F"/>
<path fill-rule="evenodd" clip-rule="evenodd" d="M374.999 223.433C374.999 222.964 375.379 222.583 375.849 222.583C376.318 222.583 376.699 222.964 376.699 223.433C376.699 233.258 380.149 242.146 385.722 248.572C391.267 254.965 398.923 258.921 407.367 258.921C407.836 258.921 408.217 259.302 408.217 259.771C408.217 260.241 407.836 260.622 407.367 260.622C398.41 260.622 390.302 256.439 384.44 249.681C378.608 242.957 374.999 233.676 374.999 223.433Z" fill="#20201F"/>
<path fill-rule="evenodd" clip-rule="evenodd" d="M339.742 277.153C340.68 277.153 341.442 277.915 341.442 278.854C341.442 279.793 340.68 280.555 339.742 280.555H303.745C302.806 280.555 302.044 279.793 302.044 278.854C302.044 277.915 302.806 277.153 303.745 277.153H339.742Z" fill="#20201F"/>
<path fill-rule="evenodd" clip-rule="evenodd" d="M340.083 233.006C340.553 233.006 340.934 233.387 340.934 233.856C340.934 234.326 340.553 234.707 340.083 234.707C330.298 234.707 321.432 239.033 315.014 246.026C308.578 253.038 304.595 262.732 304.595 273.441C304.595 273.911 304.214 274.292 303.745 274.292C303.276 274.292 302.895 273.911 302.895 273.441C302.895 262.294 307.05 252.192 313.766 244.877C320.497 237.543 329.803 233.006 340.083 233.006Z" fill="#20201F"/>
<path fill-rule="evenodd" clip-rule="evenodd" d="M512.683 284.857C512.683 283.918 513.445 283.156 514.383 283.156C515.322 283.156 516.084 283.918 516.084 284.857V320.853C516.084 321.792 515.322 322.554 514.383 322.554C513.445 322.554 512.683 321.792 512.683 320.853V284.857Z" fill="#20201F"/>
<path fill-rule="evenodd" clip-rule="evenodd" d="M560.904 284.515C560.904 284.046 561.285 283.665 561.755 283.665C562.224 283.665 562.605 284.046 562.605 284.515C562.605 294.804 557.827 304.113 550.106 310.847C542.414 317.553 531.795 321.704 520.082 321.704C519.612 321.704 519.231 321.323 519.231 320.853C519.231 320.384 519.612 320.003 520.082 320.003C531.377 320.003 541.599 316.015 548.99 309.571C556.35 303.153 560.904 294.293 560.904 284.515Z" fill="#20201F"/>
<path fill-rule="evenodd" clip-rule="evenodd" d="M495.671 284.857C495.671 283.918 496.433 283.156 497.372 283.156C498.311 283.156 499.073 283.918 499.073 284.857V320.853C499.073 321.792 498.311 322.554 497.372 322.554C496.433 322.554 495.671 321.792 495.671 320.853V284.857Z" fill="#20201F"/>
<path fill-rule="evenodd" clip-rule="evenodd" d="M449.15 284.515C449.15 284.046 449.531 283.665 450.001 283.665C450.47 283.665 450.851 284.046 450.851 284.515C450.851 294.293 455.405 303.153 462.765 309.571C470.156 316.015 480.379 320.003 491.673 320.003C492.143 320.003 492.524 320.384 492.524 320.853C492.524 321.323 492.143 321.704 491.673 321.704C479.96 321.704 469.341 317.553 461.65 310.847C453.928 304.113 449.15 294.804 449.15 284.515Z" fill="#20201F"/>
<path fill-rule="evenodd" clip-rule="evenodd" d="M133.839 139.558C132.9 139.558 132.138 138.796 132.138 137.857C132.138 136.918 132.9 136.156 133.839 136.156H169.835C170.774 136.156 171.536 136.918 171.536 137.857C171.536 138.796 170.774 139.558 169.835 139.558H133.839Z" fill="#20201F"/>
<path fill-rule="evenodd" clip-rule="evenodd" d="M133.497 178.738C133.028 178.738 132.647 178.357 132.647 177.888C132.647 177.418 133.028 177.037 133.497 177.037C143.303 177.037 152.18 173.187 158.6 166.965C165.015 160.747 168.985 152.156 168.985 142.672C168.985 142.203 169.366 141.822 169.835 141.822C170.305 141.822 170.686 142.203 170.686 142.672C170.686 152.632 166.518 161.652 159.782 168.181C153.052 174.702 143.757 178.738 133.497 178.738Z" fill="#20201F"/>
<path fill-rule="evenodd" clip-rule="evenodd" d="M213.335 45.3003H303.69V81.4421H212.272V45.3003H213.335ZM275.411 49.5736C274.417 49.5736 273.51 49.9801 272.856 50.6383C272.203 51.2931 271.796 52.1962 271.796 53.1877V73.5972C271.796 74.5888 272.203 75.4919 272.856 76.1509C273.51 76.8049 274.417 77.2114 275.411 77.2114H295.82C296.812 77.2114 297.716 76.804 298.373 76.1509C299.027 75.497 299.434 74.5922 299.434 73.5972V53.1877C299.434 52.1928 299.027 51.288 298.371 50.6366C297.716 49.9809 296.812 49.5736 295.82 49.5736H275.411ZM223.845 51.2625C222.47 51.2625 221.219 51.8229 220.314 52.7268C219.41 53.6308 218.849 54.8809 218.849 56.2585C218.849 57.6336 219.41 58.8828 220.316 59.7902C221.221 60.6942 222.47 61.2546 223.845 61.2546C225.223 61.2546 226.473 60.6942 227.375 59.7885C228.281 58.8845 228.842 57.6345 228.842 56.2585C228.842 54.8809 228.281 53.6308 227.377 52.7268C226.473 51.8229 225.223 51.2625 223.845 51.2625ZM223.845 64.4257C222.174 64.4257 220.658 65.1052 219.562 66.2013C218.466 67.2975 217.786 68.8137 217.786 70.4848C217.786 72.1566 218.466 73.672 219.562 74.7682C220.658 75.8643 222.174 76.5438 223.845 76.5438C225.517 76.5438 227.033 75.8643 228.129 74.7682C229.225 73.672 229.905 72.1566 229.905 70.4848C229.905 68.8137 229.225 67.2975 228.129 66.2013C227.033 65.1052 225.517 64.4257 223.845 64.4257ZM227.078 67.2524C226.252 66.4267 225.107 65.9139 223.845 65.9139C222.583 65.9139 221.439 66.4267 220.613 67.2524C219.787 68.0781 219.275 69.2228 219.275 70.4848C219.275 71.7476 219.787 72.8914 220.613 73.7171C221.439 74.5428 222.583 75.0556 223.845 75.0556C225.107 75.0556 226.252 74.5428 227.078 73.7171C227.904 72.8914 228.416 71.7476 228.416 70.4848C228.416 69.2228 227.904 68.0781 227.078 67.2524ZM236.84 50.1995C235.168 50.1995 233.653 50.8789 232.557 51.9751C231.461 53.0712 230.781 54.5866 230.781 56.2585C230.781 57.9304 231.46 59.4466 232.556 60.5428C233.652 61.639 235.168 62.3176 236.84 62.3176C238.512 62.3176 240.028 61.6381 241.124 60.5419C242.22 59.4458 242.899 57.9304 242.899 56.2585C242.899 54.5875 242.22 53.0712 241.124 51.9751C240.028 50.8789 238.511 50.1995 236.84 50.1995ZM240.073 53.0262C239.247 52.2004 238.102 51.6876 236.84 51.6876C235.578 51.6876 234.434 52.2004 233.608 53.0262C232.782 53.8519 232.269 54.9957 232.269 56.2585C232.269 57.5214 232.781 58.666 233.607 59.4917C234.433 60.3174 235.578 60.8294 236.84 60.8294C238.103 60.8294 239.247 60.3166 240.073 59.4909C240.898 58.6651 241.411 57.5214 241.411 56.2585C241.411 54.9965 240.898 53.8519 240.073 53.0262ZM236.84 65.4887C235.464 65.4887 234.214 66.0491 233.309 66.9531C232.405 67.857 231.844 69.1071 231.844 70.4848C231.844 71.8598 232.405 73.1091 233.311 74.0164C234.216 74.9204 235.465 75.4808 236.84 75.4808C238.218 75.4808 239.468 74.9204 240.37 74.0147C241.276 73.1108 241.836 71.8607 241.836 70.4848C241.836 69.1071 241.276 67.857 240.372 66.9531C239.468 66.0491 238.218 65.4887 236.84 65.4887ZM239.321 68.0042C238.687 67.3706 237.809 66.9769 236.84 66.9769C235.869 66.9769 234.992 67.3689 234.36 68.0016C233.726 68.6377 233.332 69.5162 233.332 70.4848C233.332 71.4559 233.725 72.3335 234.357 72.9654C234.992 73.6006 235.869 73.9926 236.84 73.9926C237.809 73.9926 238.687 73.5989 239.321 72.9654C239.956 72.3335 240.348 71.4559 240.348 70.4848C240.348 69.5162 239.954 68.6377 239.321 68.0042ZM226.326 53.7779C225.693 53.1444 224.814 52.7506 223.845 52.7506C222.874 52.7506 221.997 53.1427 221.365 53.7754C220.731 54.4115 220.338 55.2899 220.338 56.2585C220.338 57.2297 220.73 58.1073 221.362 58.7391C221.997 59.3744 222.874 59.7664 223.845 59.7664C224.814 59.7664 225.693 59.3727 226.326 58.7391C226.961 58.1073 227.353 57.2297 227.353 56.2585C227.353 55.2899 226.96 54.4115 226.326 53.7779ZM295.82 51.6996H275.411C275.003 51.6996 274.629 51.8679 274.36 52.1375C274.089 52.4045 273.922 52.7779 273.922 53.1877V73.5972C273.922 74.0071 274.089 74.3804 274.358 74.6491C274.629 74.917 275.003 75.0854 275.411 75.0854H295.82C296.23 75.0854 296.603 74.9187 296.87 74.6517C297.139 74.3779 297.308 74.0037 297.308 73.5972V53.1877C297.308 52.7813 297.139 52.4071 296.87 52.1375C296.603 51.8662 296.23 51.6996 295.82 51.6996ZM246.253 79.3161V47.4263H214.398V79.3161H246.253ZM248.379 47.4263V79.3161H301.564V47.4263H248.379Z" fill="#20201F"/>
<path fill-rule="evenodd" clip-rule="evenodd" d="M378.568 82.9133C375.771 84.7118 372.183 85.8225 369.028 85.8225C365.922 85.8225 363.498 84.7569 361.811 83.0128V83.0076C361.173 82.3469 360.679 81.5628 360.261 80.732V84.3198C360.261 86.4611 359.366 87.7163 357.93 88.4451C356.623 89.1101 354.894 89.2742 352.998 89.2742H352.216V89.2546C350.636 89.2104 349.194 89.0131 348.07 88.4451C346.635 87.7163 345.745 86.4611 345.745 84.33V66.7354C345.745 64.5949 346.635 63.3414 348.07 62.6169C349.194 62.0531 350.636 61.8499 352.216 61.8073V61.7878H352.998C354.894 61.7878 356.623 61.9519 357.93 62.6169C359.366 63.3414 360.261 64.5949 360.261 66.7354V70.33C360.679 69.4991 361.168 68.7176 361.811 68.0552C363.498 66.3076 365.922 65.2412 369.028 65.2412C372.362 65.2412 376.179 66.4845 379.041 68.4668C381.682 70.296 383.536 72.7698 383.536 75.531C383.536 78.4555 381.457 81.0594 378.568 82.9133ZM350.665 75.0242H350.66V75.0267C350.66 75.6577 350.924 76.2385 351.341 76.6569V76.662C351.759 77.0787 352.334 77.3372 352.973 77.3372C353.612 77.3372 354.183 77.0787 354.601 76.662H354.608L354.607 76.6569C355.025 76.236 355.283 75.6577 355.283 75.0267C355.283 74.3855 355.025 73.8064 354.608 73.3914C354.191 72.9747 353.612 72.7136 352.973 72.7136C352.334 72.7136 351.764 72.9747 351.341 73.3914C350.924 73.8064 350.665 74.3855 350.665 75.0242ZM351.848 75.0216V75.0267C351.848 75.3379 351.972 75.6194 352.168 75.8193H352.176C352.378 76.0208 352.663 76.1492 352.973 76.1492C353.288 76.1492 353.578 76.0242 353.773 75.8295L353.778 75.821C353.975 75.6194 354.101 75.3379 354.101 75.0267C354.101 74.7044 353.975 74.4246 353.778 74.2239C353.578 74.0275 353.288 73.9033 352.973 73.9033C352.658 73.9033 352.372 74.0275 352.176 74.2333C351.967 74.4297 351.84 74.7138 351.84 75.0216H351.848ZM358.699 66.7354C358.699 65.2914 358.131 64.4665 357.233 64.0065C356.301 63.5421 355.008 63.3857 353.547 63.3585H352.998C351.316 63.3585 349.807 63.4869 348.769 64.0065C347.869 64.4665 347.308 65.2931 347.308 66.7354V84.33C347.308 85.7706 347.869 86.5929 348.769 87.053C349.807 87.5768 351.316 87.7035 352.998 87.7035H353.607C355.038 87.6712 356.321 87.5173 357.233 87.0555C358.139 86.5929 358.699 85.7638 358.699 84.3198V66.7354ZM378.157 69.7466C375.544 67.9353 372.063 66.8025 369.028 66.8025C366.374 66.8025 364.333 67.6887 362.933 69.1352C361.4 70.7178 360.607 72.9968 360.607 75.531C360.607 78.0694 361.4 80.3459 362.933 81.9328C364.333 83.3759 366.374 84.2603 369.028 84.2603C371.895 84.2603 375.17 83.2458 377.73 81.6019C380.197 80.0185 381.973 77.8619 381.973 75.531C381.973 73.3395 380.393 71.3028 378.157 69.7466Z" fill="#20201F"/>
<path fill-rule="evenodd" clip-rule="evenodd" d="M388.075 110.383L407.566 110.377C414.084 110.377 413.316 123.869 413.249 124.77C413.249 127.893 411.975 130.727 409.922 132.777C407.874 134.824 405.036 136.093 401.913 136.093H393.642C390.513 136.093 387.678 134.826 385.625 132.777C383.579 130.727 382.309 127.888 382.295 124.765C382.254 123.849 381.583 110.377 388.075 110.383ZM397.781 123.525V123.528C397.096 123.535 396.463 123.804 396.011 124.255C395.567 124.714 395.294 125.339 395.294 126.021C395.294 126.709 395.569 127.335 396.021 127.785C396.471 128.237 397.096 128.513 397.784 128.513C398.467 128.513 399.092 128.237 399.543 127.785H399.551V127.78C400.002 127.33 400.284 126.709 400.284 126.021C400.284 125.339 400.002 124.705 399.551 124.255H399.549C399.098 123.804 398.467 123.521 397.784 123.521L397.781 123.525ZM397.777 124.797C397.451 124.797 397.144 124.931 396.925 125.157C396.71 125.371 396.573 125.679 396.573 126.021C396.573 126.361 396.704 126.669 396.919 126.89C397.14 127.101 397.44 127.241 397.784 127.238C398.127 127.238 398.424 127.104 398.644 126.89L398.649 126.885C398.868 126.669 399.001 126.361 399.001 126.021C399.001 125.685 398.859 125.377 398.648 125.157L398.642 125.154C398.427 124.938 398.12 124.808 397.789 124.808L397.777 124.811V124.797ZM397.781 115.132C394.639 115.132 391.787 116.068 389.712 117.571C387.558 119.143 386.218 121.338 386.216 123.771C386.216 126.214 387.558 128.409 389.712 129.983C391.794 131.494 394.648 132.422 397.791 132.422H397.805C400.939 132.415 403.786 131.48 405.866 129.974C408.011 128.403 409.348 126.214 409.35 123.785L409.348 123.771C409.348 121.332 408.011 119.149 405.849 117.571C403.78 116.066 400.928 115.132 397.789 115.135L397.781 115.132ZM397.781 116.89C395.027 116.895 392.539 117.703 390.74 119.001C389.041 120.243 387.984 121.934 387.984 123.771C387.984 125.62 389.041 127.312 390.753 128.558C392.543 129.852 395.027 130.657 397.791 130.657H397.796L397.805 130.662C400.561 130.657 403.039 129.852 404.829 128.55C406.523 127.314 407.579 125.62 407.584 123.785L407.579 123.771C407.583 121.931 406.525 120.238 404.823 119.001C403.032 117.708 400.547 116.895 397.791 116.897H397.781V116.89ZM388.081 112.142C383.243 112.142 384.067 124.668 384.067 124.7L384.074 124.765C384.074 127.404 385.14 129.792 386.865 131.529C388.606 133.259 390.998 134.327 393.642 134.327H401.905C404.558 134.327 406.954 133.264 408.687 131.529C410.418 129.801 411.483 127.404 411.488 124.765L411.491 124.702C411.491 124.671 412.379 112.142 407.56 112.142H388.081Z" fill="#20201F"/>
<path fill-rule="evenodd" clip-rule="evenodd" d="M460.981 113.832V216.894H418.864V113.832H460.981ZM435.829 133.914C435.829 135.046 436.287 136.071 437.027 136.812C437.772 137.553 438.794 138.012 439.922 138.012C441.051 138.012 442.073 137.553 442.814 136.812C443.558 136.067 444.016 135.044 444.016 133.914C444.016 132.785 443.558 131.761 442.818 131.02C442.077 130.275 441.053 129.816 439.922 129.816C438.792 129.816 437.768 130.275 437.027 131.016C436.287 131.757 435.829 132.782 435.829 133.914ZM438.184 135.654C438.627 136.098 439.243 136.373 439.922 136.373C440.602 136.373 441.218 136.098 441.661 135.654C442.103 135.211 442.379 134.595 442.379 133.914C442.379 133.234 442.103 132.618 441.66 132.175C441.215 131.731 440.6 131.455 439.922 131.455C439.245 131.455 438.63 131.731 438.185 132.175C437.741 132.62 437.466 133.236 437.466 133.914C437.466 134.593 437.741 135.208 438.184 135.654ZM420.069 121.61L421.706 194.363C421.706 205.29 429.007 214.237 439.922 214.237C450.838 214.237 458.138 205.29 458.138 194.363L459.776 121.61C459.776 120.201 459.2 118.919 458.274 117.992C457.344 117.065 456.064 116.488 454.659 116.488H425.186C423.783 116.488 422.504 117.064 421.575 117.992C420.644 118.925 420.069 120.206 420.069 121.61ZM423.753 194.363C423.753 204.17 430.125 212.188 439.922 212.188C449.719 212.188 456.092 204.17 456.092 194.363L457.729 121.61C457.729 120.767 457.383 119.998 456.826 119.437C456.273 118.882 455.505 118.537 454.659 118.537H425.186C424.34 118.537 423.573 118.882 423.015 119.441C422.46 119.996 422.116 120.764 422.116 121.61L423.753 194.363ZM462.986 217.11V113.615C462.986 113.101 462.783 112.631 462.459 112.291C462.135 111.948 461.683 111.737 461.188 111.737H418.657C418.162 111.737 417.71 111.948 417.386 112.287C417.061 112.627 416.858 113.098 416.858 113.615V217.11C416.858 217.627 417.061 218.098 417.386 218.439C417.714 218.776 418.164 218.988 418.657 218.988H461.188C461.68 218.988 462.13 218.776 462.456 218.439C462.783 218.094 462.986 217.625 462.986 217.11Z" fill="#20201F"/>
<path fill-rule="evenodd" clip-rule="evenodd" d="M564.701 134.464V131.079C564.701 130.675 565.032 130.347 565.434 130.347H566.142V95.5359C566.142 94.9483 566.619 94.4712 567.207 94.4712C567.794 94.4712 568.271 94.9483 568.271 95.5359V130.347H574.075C574.476 130.347 574.808 130.678 574.808 131.079V134.464C574.808 134.868 574.479 135.196 574.075 135.196H565.434C565.03 135.196 564.701 134.868 564.701 134.464Z" fill="#20201F"/>
<path fill-rule="evenodd" clip-rule="evenodd" d="M575.053 58.6096V61.9944C575.053 62.3986 574.722 62.7269 574.32 62.7269H573.612V97.5378C573.612 98.1254 573.135 98.6025 572.547 98.6025C571.96 98.6025 571.483 98.1254 571.483 97.5378V62.7269H565.679C565.278 62.7269 564.945 62.3958 564.945 61.9944V58.6096C564.945 58.2056 565.275 57.8774 565.679 57.8774H574.32C574.723 57.8774 575.053 58.2056 575.053 58.6096Z" fill="#20201F"/>
<path fill-rule="evenodd" clip-rule="evenodd" d="M564.701 256.921V253.536C564.701 253.132 565.032 252.804 565.434 252.804H566.142V217.993C566.142 217.405 566.619 216.928 567.207 216.928C567.794 216.928 568.271 217.405 568.271 217.993V252.804H574.075C574.476 252.804 574.808 253.135 574.808 253.536V256.921C574.808 257.325 574.479 257.653 574.075 257.653H565.434C565.03 257.653 564.701 257.325 564.701 256.921Z" fill="#20201F"/>
<path fill-rule="evenodd" clip-rule="evenodd" d="M575.053 181.066V184.451C575.053 184.855 574.722 185.184 574.32 185.184H573.612V219.995C573.612 220.582 573.135 221.059 572.547 221.059C571.96 221.059 571.483 220.582 571.483 219.995V185.184H565.679C565.278 185.184 564.945 184.853 564.945 184.451V181.066C564.945 180.662 565.275 180.334 565.679 180.334H574.32C574.723 180.334 575.053 180.662 575.053 181.066Z" fill="#20201F"/>
<path d="M602.229 338H600.103V439.095H602.229V338Z" fill="#20201F"/>
<path d="M586.97 401.411V409H556.556V402.963L572.079 388.303C573.727 386.731 574.839 385.39 575.414 384.278C575.989 383.128 576.276 381.998 576.276 380.886C576.276 379.277 575.72 378.05 574.609 377.207C573.536 376.325 571.945 375.885 569.837 375.885C568.074 375.885 566.483 376.229 565.065 376.919C563.647 377.571 562.459 378.567 561.501 379.909L554.717 375.54C556.288 373.202 558.454 371.381 561.213 370.078C563.973 368.736 567.135 368.066 570.699 368.066C573.689 368.066 576.295 368.564 578.518 369.56C580.78 370.519 582.523 371.898 583.75 373.7C585.015 375.463 585.647 377.552 585.647 379.966C585.647 382.151 585.187 384.202 584.267 386.118C583.348 388.034 581.565 390.219 578.921 392.672L569.665 401.411H586.97Z" fill="#20201F"/>
<path d="M690.347 486.142H636.449V507.096H690.347V486.142Z" fill="#20201F"/>
<path d="M690.288 513.686H636.449V521.476H690.288V513.686Z" fill="#20201F"/>
<path d="M695.628 500.907H628.602V516.571H695.628V500.907Z" fill="#20201F"/>
<path d="M624.868 356.209C626.373 356.292 627.516 356.702 628.297 357.441C629.091 358.167 629.487 359.118 629.487 360.296C629.487 361.117 629.289 361.849 628.892 362.493C628.495 363.122 627.906 363.622 627.126 363.991C626.346 364.361 625.395 364.546 624.272 364.546C623.232 364.546 622.246 364.382 621.315 364.053C620.398 363.711 619.659 363.259 619.098 362.698L619.817 361.527C620.296 362.02 620.932 362.424 621.726 362.739C622.52 363.04 623.369 363.191 624.272 363.191C625.449 363.191 626.36 362.937 627.003 362.431C627.646 361.911 627.968 361.199 627.968 360.296C627.968 359.406 627.646 358.708 627.003 358.201C626.36 357.695 625.388 357.441 624.087 357.441H623.061V356.353L627.044 351.364H619.693V350.05H628.933V351.097L624.868 356.209ZM637.525 355.819C638.47 355.819 639.305 355.997 640.03 356.353C640.769 356.709 641.344 357.216 641.755 357.873C642.166 358.516 642.371 359.269 642.371 360.131C642.371 361.007 642.159 361.781 641.734 362.451C641.31 363.122 640.721 363.642 639.969 364.012C639.229 364.368 638.394 364.546 637.464 364.546C635.561 364.546 634.103 363.923 633.09 362.677C632.077 361.418 631.571 359.645 631.571 357.359C631.571 355.758 631.844 354.403 632.392 353.294C632.939 352.185 633.706 351.35 634.692 350.789C635.677 350.214 636.827 349.926 638.141 349.926C639.565 349.926 640.701 350.187 641.55 350.707L640.954 351.898C640.27 351.446 639.339 351.22 638.162 351.22C636.574 351.22 635.328 351.726 634.425 352.739C633.521 353.739 633.069 355.197 633.069 357.113C633.069 357.455 633.09 357.845 633.131 358.283C633.487 357.503 634.055 356.901 634.835 356.476C635.616 356.038 636.512 355.819 637.525 355.819ZM637.402 363.293C638.442 363.293 639.284 363.013 639.927 362.451C640.584 361.877 640.913 361.117 640.913 360.172C640.913 359.228 640.584 358.475 639.927 357.914C639.284 357.352 638.408 357.072 637.299 357.072C636.574 357.072 635.93 357.209 635.369 357.483C634.822 357.756 634.39 358.133 634.076 358.612C633.761 359.091 633.603 359.625 633.603 360.213C633.603 360.761 633.747 361.267 634.035 361.733C634.336 362.198 634.774 362.575 635.349 362.862C635.924 363.15 636.608 363.293 637.402 363.293ZM645.392 364.525C645.091 364.525 644.831 364.416 644.612 364.197C644.406 363.978 644.304 363.711 644.304 363.396C644.304 363.081 644.406 362.821 644.612 362.616C644.831 362.397 645.091 362.287 645.392 362.287C645.693 362.287 645.953 362.397 646.172 362.616C646.391 362.821 646.501 363.081 646.501 363.396C646.501 363.711 646.391 363.978 646.172 364.197C645.953 364.416 645.693 364.525 645.392 364.525ZM654.368 355.819C655.313 355.819 656.148 355.997 656.873 356.353C657.613 356.709 658.188 357.216 658.598 357.873C659.009 358.516 659.214 359.269 659.214 360.131C659.214 361.007 659.002 361.781 658.578 362.451C658.153 363.122 657.565 363.642 656.812 364.012C656.073 364.368 655.238 364.546 654.307 364.546C652.404 364.546 650.946 363.923 649.933 362.677C648.92 361.418 648.414 359.645 648.414 357.359C648.414 355.758 648.688 354.403 649.235 353.294C649.783 352.185 650.549 351.35 651.535 350.789C652.52 350.214 653.67 349.926 654.984 349.926C656.408 349.926 657.544 350.187 658.393 350.707L657.797 351.898C657.113 351.446 656.182 351.22 655.005 351.22C653.417 351.22 652.171 351.726 651.268 352.739C650.365 353.739 649.913 355.197 649.913 357.113C649.913 357.455 649.933 357.845 649.974 358.283C650.33 357.503 650.898 356.901 651.679 356.476C652.459 356.038 653.355 355.819 654.368 355.819ZM654.245 363.293C655.286 363.293 656.127 363.013 656.771 362.451C657.428 361.877 657.756 361.117 657.756 360.172C657.756 359.228 657.428 358.475 656.771 357.914C656.127 357.352 655.251 357.072 654.143 357.072C653.417 357.072 652.774 357.209 652.212 357.483C651.665 357.756 651.234 358.133 650.919 358.612C650.604 359.091 650.447 359.625 650.447 360.213C650.447 360.761 650.59 361.267 650.878 361.733C651.179 362.198 651.617 362.575 652.192 362.862C652.767 363.15 653.451 363.293 654.245 363.293ZM666.881 355.819C667.825 355.819 668.66 355.997 669.386 356.353C670.125 356.709 670.7 357.216 671.11 357.873C671.521 358.516 671.726 359.269 671.726 360.131C671.726 361.007 671.514 361.781 671.09 362.451C670.665 363.122 670.077 363.642 669.324 364.012C668.585 364.368 667.75 364.546 666.819 364.546C664.916 364.546 663.458 363.923 662.446 362.677C661.433 361.418 660.926 359.645 660.926 357.359C660.926 355.758 661.2 354.403 661.747 353.294C662.295 352.185 663.061 351.35 664.047 350.789C665.033 350.214 666.182 349.926 667.497 349.926C668.92 349.926 670.056 350.187 670.905 350.707L670.31 351.898C669.625 351.446 668.694 351.22 667.517 351.22C665.929 351.22 664.684 351.726 663.78 352.739C662.877 353.739 662.425 355.197 662.425 357.113C662.425 357.455 662.446 357.845 662.487 358.283C662.842 357.503 663.411 356.901 664.191 356.476C664.971 356.038 665.868 355.819 666.881 355.819ZM666.757 363.293C667.798 363.293 668.64 363.013 669.283 362.451C669.94 361.877 670.269 361.117 670.269 360.172C670.269 359.228 669.94 358.475 669.283 357.914C668.64 357.352 667.764 357.072 666.655 357.072C665.929 357.072 665.286 357.209 664.725 357.483C664.177 357.756 663.746 358.133 663.431 358.612C663.116 359.091 662.959 359.625 662.959 360.213C662.959 360.761 663.103 361.267 663.39 361.733C663.691 362.198 664.129 362.575 664.704 362.862C665.279 363.15 665.963 363.293 666.757 363.293Z" fill="#20201F"/>
<path d="M625.37 385.105C626.315 385.105 627.15 385.283 627.875 385.639C628.615 385.995 629.189 386.502 629.6 387.159C630.011 387.802 630.216 388.555 630.216 389.417C630.216 390.293 630.004 391.067 629.58 391.738C629.155 392.408 628.567 392.928 627.814 393.298C627.075 393.654 626.24 393.832 625.309 393.832C623.406 393.832 621.948 393.209 620.935 391.963C619.922 390.704 619.416 388.931 619.416 386.645C619.416 385.044 619.69 383.689 620.237 382.58C620.785 381.471 621.551 380.636 622.537 380.075C623.522 379.5 624.672 379.213 625.986 379.213C627.41 379.213 628.546 379.473 629.395 379.993L628.799 381.184C628.115 380.732 627.184 380.506 626.007 380.506C624.419 380.506 623.173 381.013 622.27 382.026C621.366 383.025 620.915 384.483 620.915 386.399C620.915 386.741 620.935 387.131 620.976 387.569C621.332 386.789 621.9 386.187 622.681 385.763C623.461 385.325 624.357 385.105 625.37 385.105ZM625.247 392.579C626.287 392.579 627.129 392.299 627.773 391.738C628.43 391.163 628.758 390.403 628.758 389.458C628.758 388.514 628.43 387.761 627.773 387.2C627.129 386.639 626.253 386.358 625.145 386.358C624.419 386.358 623.776 386.495 623.214 386.769C622.667 387.042 622.236 387.419 621.921 387.898C621.606 388.377 621.449 388.911 621.449 389.5C621.449 390.047 621.592 390.554 621.88 391.019C622.181 391.484 622.619 391.861 623.194 392.148C623.769 392.436 624.453 392.579 625.247 392.579ZM635.706 385.229C637.787 385.229 639.299 385.605 640.244 386.358C641.202 387.097 641.681 388.138 641.681 389.479C641.681 390.314 641.483 391.06 641.086 391.717C640.702 392.374 640.121 392.894 639.34 393.278C638.56 393.647 637.602 393.832 636.466 393.832C635.439 393.832 634.46 393.668 633.53 393.339C632.612 392.997 631.873 392.545 631.312 391.984L632.031 390.814C632.51 391.306 633.139 391.71 633.92 392.025C634.7 392.326 635.542 392.477 636.445 392.477C637.636 392.477 638.553 392.21 639.197 391.676C639.854 391.142 640.182 390.43 640.182 389.541C640.182 388.555 639.813 387.809 639.073 387.303C638.348 386.796 637.116 386.543 635.378 386.543H632.318L633.057 379.336H640.921V380.65H634.351L633.858 385.229H635.706ZM644.667 393.811C644.366 393.811 644.105 393.702 643.886 393.483C643.681 393.264 643.578 392.997 643.578 392.682C643.578 392.367 643.681 392.107 643.886 391.902C644.105 391.683 644.366 391.573 644.667 391.573C644.968 391.573 645.228 391.683 645.447 391.902C645.666 392.107 645.775 392.367 645.775 392.682C645.775 392.997 645.666 393.264 645.447 393.483C645.228 393.702 644.968 393.811 644.667 393.811ZM653.417 393.832C652.308 393.832 651.316 393.538 650.44 392.949C649.578 392.36 648.9 391.519 648.407 390.423C647.928 389.315 647.689 388.014 647.689 386.522C647.689 385.03 647.928 383.737 648.407 382.642C648.9 381.533 649.578 380.684 650.44 380.095C651.316 379.507 652.308 379.213 653.417 379.213C654.526 379.213 655.512 379.507 656.374 380.095C657.25 380.684 657.934 381.533 658.427 382.642C658.92 383.737 659.166 385.03 659.166 386.522C659.166 388.014 658.92 389.315 658.427 390.423C657.934 391.519 657.25 392.36 656.374 392.949C655.512 393.538 654.526 393.832 653.417 393.832ZM653.417 392.477C654.252 392.477 654.985 392.244 655.614 391.779C656.258 391.313 656.757 390.636 657.113 389.746C657.469 388.856 657.647 387.782 657.647 386.522C657.647 385.263 657.469 384.188 657.113 383.299C656.757 382.409 656.258 381.731 655.614 381.266C654.985 380.8 654.252 380.568 653.417 380.568C652.582 380.568 651.843 380.8 651.2 381.266C650.57 381.731 650.077 382.409 649.721 383.299C649.365 384.188 649.187 385.263 649.187 386.522C649.187 387.782 649.365 388.856 649.721 389.746C650.077 390.636 650.57 391.313 651.2 391.779C651.843 392.244 652.582 392.477 653.417 392.477ZM667.238 385.105C668.183 385.105 669.018 385.283 669.743 385.639C670.482 385.995 671.057 386.502 671.468 387.159C671.878 387.802 672.084 388.555 672.084 389.417C672.084 390.293 671.872 391.067 671.447 391.738C671.023 392.408 670.434 392.928 669.681 393.298C668.942 393.654 668.107 393.832 667.176 393.832C665.274 393.832 663.816 393.209 662.803 391.963C661.79 390.704 661.284 388.931 661.284 386.645C661.284 385.044 661.557 383.689 662.105 382.58C662.652 381.471 663.419 380.636 664.405 380.075C665.39 379.5 666.54 379.213 667.854 379.213C669.278 379.213 670.414 379.473 671.262 379.993L670.667 381.184C669.983 380.732 669.052 380.506 667.875 380.506C666.287 380.506 665.041 381.013 664.138 382.026C663.234 383.025 662.782 384.483 662.782 386.399C662.782 386.741 662.803 387.131 662.844 387.569C663.2 386.789 663.768 386.187 664.548 385.763C665.328 385.325 666.225 385.105 667.238 385.105ZM667.115 392.579C668.155 392.579 668.997 392.299 669.64 391.738C670.297 391.163 670.626 390.403 670.626 389.458C670.626 388.514 670.297 387.761 669.64 387.2C668.997 386.639 668.121 386.358 667.012 386.358C666.287 386.358 665.643 386.495 665.082 386.769C664.535 387.042 664.103 387.419 663.789 387.898C663.474 388.377 663.316 388.911 663.316 389.5C663.316 390.047 663.46 390.554 663.747 391.019C664.049 391.484 664.487 391.861 665.062 392.148C665.636 392.436 666.321 392.579 667.115 392.579Z" fill="#20201F"/>
<path d="M626.551 414.392C627.496 414.392 628.331 414.57 629.056 414.925C629.795 415.281 630.37 415.788 630.781 416.445C631.191 417.088 631.397 417.841 631.397 418.704C631.397 419.58 631.185 420.353 630.76 421.024C630.336 421.694 629.747 422.215 628.994 422.584C628.255 422.94 627.42 423.118 626.489 423.118C624.587 423.118 623.129 422.495 622.116 421.25C621.103 419.99 620.597 418.218 620.597 415.932C620.597 414.33 620.87 412.975 621.418 411.866C621.965 410.757 622.732 409.922 623.718 409.361C624.703 408.786 625.853 408.499 627.167 408.499C628.591 408.499 629.727 408.759 630.575 409.279L629.98 410.47C629.296 410.018 628.365 409.792 627.188 409.792C625.6 409.792 624.354 410.299 623.451 411.312C622.547 412.311 622.095 413.769 622.095 415.685C622.095 416.027 622.116 416.418 622.157 416.856C622.513 416.075 623.081 415.473 623.861 415.049C624.641 414.611 625.538 414.392 626.551 414.392ZM626.428 421.866C627.468 421.866 628.31 421.585 628.953 421.024C629.61 420.449 629.939 419.689 629.939 418.745C629.939 417.8 629.61 417.047 628.953 416.486C628.31 415.925 627.434 415.644 626.325 415.644C625.6 415.644 624.956 415.781 624.395 416.055C623.848 416.329 623.416 416.705 623.102 417.184C622.787 417.663 622.629 418.197 622.629 418.786C622.629 419.333 622.773 419.84 623.06 420.305C623.362 420.77 623.8 421.147 624.375 421.434C624.949 421.722 625.634 421.866 626.428 421.866ZM643.091 408.622V409.669L637.075 422.995H635.474L641.387 409.936H633.995V412.626H632.538V408.622H643.091ZM645.065 423.098C644.764 423.098 644.504 422.988 644.285 422.769C644.08 422.55 643.977 422.283 643.977 421.968C643.977 421.653 644.08 421.393 644.285 421.188C644.504 420.969 644.764 420.859 645.065 420.859C645.367 420.859 645.627 420.969 645.846 421.188C646.065 421.393 646.174 421.653 646.174 421.968C646.174 422.283 646.065 422.55 645.846 422.769C645.627 422.988 645.367 423.098 645.065 423.098ZM653.395 414.782C654.901 414.864 656.044 415.275 656.824 416.014C657.618 416.739 658.015 417.691 658.015 418.868C658.015 419.689 657.816 420.421 657.42 421.065C657.023 421.694 656.434 422.194 655.654 422.564C654.873 422.933 653.922 423.118 652.8 423.118C651.759 423.118 650.774 422.954 649.843 422.625C648.926 422.283 648.187 421.831 647.625 421.27L648.344 420.1C648.823 420.593 649.46 420.996 650.254 421.311C651.048 421.612 651.896 421.763 652.8 421.763C653.977 421.763 654.887 421.51 655.531 421.003C656.174 420.483 656.496 419.771 656.496 418.868C656.496 417.978 656.174 417.28 655.531 416.773C654.887 416.267 653.915 416.014 652.615 416.014H651.588V414.925L655.572 409.936H648.221V408.622H657.461V409.669L653.395 414.782ZM663.676 414.515C665.756 414.515 667.269 414.891 668.213 415.644C669.172 416.383 669.651 417.424 669.651 418.765C669.651 419.6 669.452 420.346 669.055 421.003C668.672 421.66 668.09 422.18 667.31 422.564C666.53 422.933 665.571 423.118 664.435 423.118C663.409 423.118 662.43 422.954 661.499 422.625C660.582 422.283 659.843 421.831 659.282 421.27L660 420.1C660.479 420.593 661.109 420.996 661.889 421.311C662.67 421.612 663.511 421.763 664.415 421.763C665.606 421.763 666.523 421.496 667.166 420.962C667.823 420.428 668.152 419.716 668.152 418.827C668.152 417.841 667.782 417.095 667.043 416.589C666.318 416.082 665.086 415.829 663.347 415.829H660.288L661.027 408.622H668.891V409.936H662.32L661.828 414.515H663.676Z" fill="#20201F"/>
<path d="M736.065 373.648H730.398V382.066H727.215V371.02H736.065V373.648ZM742.475 382.23C741.312 382.23 740.265 381.991 739.334 381.512C738.417 381.019 737.698 380.341 737.178 379.479C736.658 378.617 736.398 377.638 736.398 376.543C736.398 375.448 736.658 374.469 737.178 373.607C737.698 372.744 738.417 372.074 739.334 371.594C740.265 371.102 741.312 370.855 742.475 370.855C743.639 370.855 744.679 371.102 745.596 371.594C746.514 372.074 747.232 372.744 747.752 373.607C748.273 374.469 748.533 375.448 748.533 376.543C748.533 377.638 748.273 378.617 747.752 379.479C747.232 380.341 746.514 381.019 745.596 381.512C744.679 381.991 743.639 382.23 742.475 382.23ZM742.475 379.602C743.297 379.602 743.968 379.328 744.488 378.781C745.022 378.22 745.288 377.474 745.288 376.543C745.288 375.612 745.022 374.873 744.488 374.325C743.968 373.764 743.297 373.483 742.475 373.483C741.654 373.483 740.977 373.764 740.443 374.325C739.909 374.873 739.642 375.612 739.642 376.543C739.642 377.474 739.909 378.22 740.443 378.781C740.977 379.328 741.654 379.602 742.475 379.602ZM755.992 382.23C754.815 382.23 753.754 381.991 752.81 381.512C751.879 381.019 751.146 380.341 750.613 379.479C750.092 378.617 749.832 377.638 749.832 376.543C749.832 375.448 750.092 374.469 750.613 373.607C751.146 372.744 751.879 372.074 752.81 371.594C753.754 371.102 754.815 370.855 755.992 370.855C757.156 370.855 758.169 371.102 759.031 371.594C759.907 372.074 760.544 372.765 760.941 373.668L758.456 375.003C757.881 373.99 757.053 373.483 755.972 373.483C755.137 373.483 754.445 373.757 753.898 374.305C753.35 374.852 753.076 375.598 753.076 376.543C753.076 377.487 753.35 378.233 753.898 378.781C754.445 379.328 755.137 379.602 755.972 379.602C757.067 379.602 757.895 379.096 758.456 378.083L760.941 379.438C760.544 380.314 759.907 380.998 759.031 381.491C758.169 381.984 757.156 382.23 755.992 382.23ZM772.128 373.648H768.391V382.066H765.208V373.648H761.471V371.02H772.128V373.648ZM773.835 371.02H777.018V377.59L782.397 371.02H785.334V382.066H782.151V375.496L776.792 382.066H773.835V371.02ZM788.413 371.02H791.595V375.331H796.4V371.02H799.603V382.066H796.4V377.939H791.595V382.066H788.413V371.02ZM806.961 370.855C808.672 370.855 809.986 371.266 810.903 372.087C811.82 372.895 812.279 374.12 812.279 375.763V382.066H809.281V380.69C808.679 381.717 807.556 382.23 805.913 382.23C805.065 382.23 804.326 382.087 803.696 381.799C803.08 381.512 802.608 381.115 802.279 380.608C801.951 380.102 801.786 379.527 801.786 378.884C801.786 377.857 802.17 377.049 802.936 376.461C803.716 375.872 804.914 375.578 806.529 375.578H809.076C809.076 374.88 808.863 374.346 808.439 373.976C808.015 373.593 807.378 373.401 806.529 373.401C805.941 373.401 805.359 373.497 804.784 373.689C804.223 373.867 803.744 374.113 803.347 374.428L802.197 372.19C802.799 371.766 803.518 371.437 804.353 371.204C805.202 370.972 806.071 370.855 806.961 370.855ZM806.714 380.074C807.262 380.074 807.748 379.951 808.172 379.705C808.596 379.445 808.898 379.068 809.076 378.576V377.446H806.879C805.564 377.446 804.907 377.877 804.907 378.74C804.907 379.151 805.065 379.479 805.38 379.725C805.708 379.958 806.153 380.074 806.714 380.074ZM824.876 371.02V382.066H822.022V378.904H819.661L817.566 382.066H814.158L816.683 378.452C815.917 378.151 815.328 377.72 814.917 377.159C814.52 376.584 814.322 375.893 814.322 375.085C814.322 373.785 814.787 372.785 815.718 372.087C816.663 371.375 817.956 371.02 819.599 371.02H824.876ZM819.661 373.627C818.976 373.627 818.456 373.75 818.1 373.997C817.758 374.243 817.587 374.64 817.587 375.188C817.587 375.735 817.751 376.139 818.079 376.399C818.422 376.646 818.935 376.769 819.619 376.769H822.022V373.627H819.661Z" fill="#20201F"/>
<path d="M761.626 408.642V411.352H750.764V409.196L756.308 403.96C756.897 403.399 757.294 402.92 757.499 402.523C757.705 402.113 757.807 401.709 757.807 401.312C757.807 400.737 757.609 400.299 757.212 399.998C756.829 399.683 756.26 399.525 755.508 399.525C754.878 399.525 754.31 399.649 753.803 399.895C753.297 400.128 752.873 400.484 752.53 400.963L750.107 399.402C750.669 398.567 751.442 397.917 752.428 397.452C753.413 396.972 754.543 396.733 755.816 396.733C756.883 396.733 757.814 396.911 758.608 397.267C759.416 397.609 760.038 398.102 760.477 398.745C760.928 399.375 761.154 400.121 761.154 400.983C761.154 401.763 760.99 402.496 760.661 403.18C760.333 403.865 759.696 404.645 758.752 405.521L755.446 408.642H761.626ZM768.543 396.979V411.352H765.216V399.649H762.342V396.979H768.543ZM772.929 411.517C772.367 411.517 771.895 411.325 771.512 410.942C771.128 410.558 770.937 410.079 770.937 409.504C770.937 408.916 771.128 408.443 771.512 408.088C771.895 407.718 772.367 407.533 772.929 407.533C773.49 407.533 773.962 407.718 774.345 408.088C774.729 408.443 774.92 408.916 774.92 409.504C774.92 410.079 774.729 410.558 774.345 410.942C773.962 411.325 773.49 411.517 772.929 411.517ZM787.353 408.642V411.352H776.491V409.196L782.035 403.96C782.623 403.399 783.02 402.92 783.225 402.523C783.431 402.113 783.533 401.709 783.533 401.312C783.533 400.737 783.335 400.299 782.938 399.998C782.555 399.683 781.987 399.525 781.234 399.525C780.604 399.525 780.036 399.649 779.53 399.895C779.023 400.128 778.599 400.484 778.256 400.963L775.834 399.402C776.395 398.567 777.168 397.917 778.154 397.452C779.139 396.972 780.269 396.733 781.542 396.733C782.609 396.733 783.54 396.911 784.334 397.267C785.142 397.609 785.765 398.102 786.203 398.745C786.654 399.375 786.88 400.121 786.88 400.983C786.88 401.763 786.716 402.496 786.387 403.18C786.059 403.865 785.422 404.645 784.478 405.521L781.172 408.642H787.353ZM794.845 411.599C793.654 411.599 792.593 411.304 791.662 410.716C790.731 410.127 789.999 409.278 789.465 408.17C788.945 407.047 788.685 405.713 788.685 404.166C788.685 402.619 788.945 401.291 789.465 400.182C789.999 399.06 790.731 398.204 791.662 397.616C792.593 397.027 793.654 396.733 794.845 396.733C796.036 396.733 797.096 397.027 798.027 397.616C798.958 398.204 799.684 399.06 800.204 400.182C800.738 401.291 801.005 402.619 801.005 404.166C801.005 405.713 800.738 407.047 800.204 408.17C799.684 409.278 798.958 410.127 798.027 410.716C797.096 411.304 796.036 411.599 794.845 411.599ZM794.845 408.786C795.721 408.786 796.405 408.409 796.898 407.656C797.404 406.904 797.658 405.74 797.658 404.166C797.658 402.592 797.404 401.428 796.898 400.675C796.405 399.922 795.721 399.546 794.845 399.546C793.982 399.546 793.298 399.922 792.791 400.675C792.299 401.428 792.052 402.592 792.052 404.166C792.052 405.74 792.299 406.904 792.791 407.656C793.298 408.409 793.982 408.786 794.845 408.786Z" fill="#20201F"/>
<path d="M326.172 382.23C324.995 382.23 323.934 381.991 322.99 381.512C322.059 381.019 321.327 380.341 320.793 379.479C320.273 378.617 320.012 377.638 320.012 376.543C320.012 375.448 320.273 374.469 320.793 373.607C321.327 372.744 322.059 372.074 322.99 371.594C323.934 371.102 324.995 370.855 326.172 370.855C327.336 370.855 328.349 371.102 329.211 371.594C330.087 372.074 330.724 372.765 331.121 373.668L328.636 375.003C328.061 373.99 327.233 373.483 326.152 373.483C325.317 373.483 324.626 373.757 324.078 374.305C323.53 374.852 323.257 375.598 323.257 376.543C323.257 377.487 323.53 378.233 324.078 378.781C324.626 379.328 325.317 379.602 326.152 379.602C327.247 379.602 328.075 379.096 328.636 378.083L331.121 379.438C330.724 380.314 330.087 380.998 329.211 381.491C328.349 381.984 327.336 382.23 326.172 382.23ZM344.052 371.02V382.066H340.849V373.648H336.25V382.066H333.067V371.02H344.052ZM351.415 370.855C353.126 370.855 354.44 371.266 355.357 372.087C356.274 372.895 356.733 374.12 356.733 375.763V382.066H353.735V380.69C353.133 381.717 352.01 382.23 350.368 382.23C349.519 382.23 348.78 382.087 348.15 381.799C347.534 381.512 347.062 381.115 346.733 380.608C346.405 380.102 346.24 379.527 346.24 378.884C346.24 377.857 346.624 377.049 347.39 376.461C348.171 375.872 349.368 375.578 350.983 375.578H353.53C353.53 374.88 353.317 374.346 352.893 373.976C352.469 373.593 351.832 373.401 350.983 373.401C350.395 373.401 349.813 373.497 349.238 373.689C348.677 373.867 348.198 374.113 347.801 374.428L346.651 372.19C347.253 371.766 347.972 371.437 348.807 371.204C349.656 370.972 350.525 370.855 351.415 370.855ZM351.168 380.074C351.716 380.074 352.202 379.951 352.626 379.705C353.05 379.445 353.352 379.068 353.53 378.576V377.446H351.333C350.018 377.446 349.361 377.877 349.361 378.74C349.361 379.151 349.519 379.479 349.834 379.725C350.162 379.958 350.607 380.074 351.168 380.074ZM370.11 371.02V382.066H366.907V373.648H363.416L363.314 375.598C363.259 377.049 363.122 378.254 362.903 379.212C362.684 380.17 362.328 380.923 361.835 381.471C361.343 382.018 360.658 382.292 359.782 382.292C359.317 382.292 358.762 382.21 358.119 382.046L358.283 379.417C358.502 379.445 358.66 379.458 358.755 379.458C359.235 379.458 359.59 379.287 359.823 378.945C360.07 378.589 360.234 378.144 360.316 377.611C360.398 377.063 360.46 376.344 360.501 375.455L360.665 371.02H370.11ZM379.165 374.551C380.603 374.565 381.705 374.893 382.471 375.537C383.238 376.166 383.621 377.063 383.621 378.227C383.621 379.445 383.19 380.396 382.327 381.081C381.479 381.751 380.281 382.087 378.734 382.087L373.19 382.066V371.02H376.373V374.551H379.165ZM378.447 379.808C379.063 379.821 379.535 379.691 379.864 379.417C380.192 379.144 380.356 378.733 380.356 378.185C380.356 377.652 380.192 377.261 379.864 377.015C379.549 376.769 379.076 376.639 378.447 376.625L376.373 376.604V379.808H378.447ZM385.622 371.02H388.805V375.331H393.61V371.02H396.813V382.066H393.61V377.939H388.805V382.066H385.622V371.02ZM409.694 371.02V382.066H406.84V378.904H404.478L402.384 382.066H398.976L401.501 378.452C400.735 378.151 400.146 377.72 399.735 377.159C399.338 376.584 399.14 375.893 399.14 375.085C399.14 373.785 399.605 372.785 400.536 372.087C401.481 371.375 402.774 371.02 404.417 371.02H409.694ZM404.478 373.627C403.794 373.627 403.274 373.75 402.918 373.997C402.576 374.243 402.405 374.64 402.405 375.188C402.405 375.735 402.569 376.139 402.897 376.399C403.24 376.646 403.753 376.769 404.437 376.769H406.84V373.627H404.478Z" fill="black"/>
<path d="M345.216 396.979V411.352H341.89V399.649H339.015V396.979H345.216ZM352.641 402.379C354.667 402.379 356.159 402.783 357.117 403.591C358.089 404.399 358.575 405.48 358.575 406.835C358.575 407.711 358.356 408.512 357.918 409.237C357.48 409.949 356.809 410.524 355.906 410.962C355.016 411.387 353.914 411.599 352.6 411.599C351.587 411.599 350.588 411.469 349.602 411.209C348.63 410.935 347.802 410.552 347.118 410.059L348.432 407.513C348.979 407.923 349.609 408.245 350.321 408.478C351.033 408.697 351.765 408.806 352.518 408.806C353.353 408.806 354.01 408.642 354.489 408.313C354.968 407.985 355.208 407.526 355.208 406.938C355.208 406.322 354.954 405.856 354.448 405.542C353.955 405.227 353.093 405.069 351.861 405.069H348.185L348.924 396.979H357.692V399.649H351.696L351.471 402.379H352.641ZM361.813 411.517C361.252 411.517 360.78 411.325 360.397 410.942C360.013 410.558 359.822 410.079 359.822 409.504C359.822 408.916 360.013 408.443 360.397 408.088C360.78 407.718 361.252 407.533 361.813 407.533C362.375 407.533 362.847 407.718 363.23 408.088C363.614 408.443 363.805 408.916 363.805 409.504C363.805 410.079 363.614 410.558 363.23 410.942C362.847 411.325 362.375 411.517 361.813 411.517ZM378.46 408.334H376.119V411.352H372.875V408.334H365.134V406.096L371.91 396.979H375.4L369.117 405.624H372.978V402.934H376.119V405.624H378.46V408.334ZM386.374 402.338C387.291 402.338 388.126 402.523 388.879 402.893C389.632 403.262 390.228 403.789 390.666 404.474C391.104 405.145 391.323 405.925 391.323 406.815C391.323 407.773 391.083 408.615 390.604 409.34C390.125 410.066 389.468 410.627 388.633 411.024C387.812 411.407 386.894 411.599 385.881 411.599C383.869 411.599 382.295 410.983 381.159 409.751C380.023 408.519 379.455 406.76 379.455 404.474C379.455 402.845 379.763 401.449 380.379 400.285C380.995 399.122 381.85 398.239 382.945 397.636C384.054 397.034 385.334 396.733 386.785 396.733C387.551 396.733 388.284 396.822 388.982 397C389.694 397.164 390.296 397.404 390.789 397.719L389.557 400.162C388.845 399.683 387.948 399.443 386.867 399.443C385.649 399.443 384.684 399.799 383.972 400.511C383.26 401.223 382.877 402.256 382.822 403.611C383.671 402.763 384.855 402.338 386.374 402.338ZM385.697 409.114C386.408 409.114 386.983 408.923 387.421 408.539C387.873 408.156 388.099 407.636 388.099 406.979C388.099 406.322 387.873 405.802 387.421 405.418C386.983 405.021 386.395 404.823 385.656 404.823C384.93 404.823 384.335 405.028 383.869 405.439C383.404 405.836 383.171 406.349 383.171 406.979C383.171 407.608 383.397 408.122 383.849 408.519C384.3 408.916 384.916 409.114 385.697 409.114Z" fill="black"/>
<path d="M220.083 159.005H218.42V163.194H215.217V152.147H218.42V156.439H220.145L223.143 152.147H226.551L222.691 157.445L226.818 163.194H223.04L220.083 159.005ZM238.837 152.147L233.847 163.872C233.341 165.145 232.711 166.041 231.958 166.561C231.219 167.082 230.322 167.342 229.268 167.342C228.693 167.342 228.125 167.253 227.564 167.075C227.003 166.897 226.544 166.65 226.188 166.336L227.359 164.056C227.605 164.275 227.886 164.447 228.201 164.57C228.529 164.693 228.851 164.755 229.166 164.755C229.604 164.755 229.96 164.645 230.233 164.426C230.507 164.221 230.754 163.872 230.973 163.379L231.014 163.276L226.23 152.147H229.535L232.636 159.642L235.757 152.147H238.837ZM246.7 163.194L244.278 159.806L241.773 163.194H238.282L242.532 157.63L238.426 152.147H242.019L244.36 155.371L246.762 152.147H250.17L246.064 157.548L250.335 163.194H246.7ZM251.912 152.147H255.094V156.459H259.899V152.147H263.102V163.194H259.899V159.067H255.094V163.194H251.912V152.147ZM275.983 152.147V163.194H273.129V160.032H270.768L268.673 163.194H265.265L267.79 159.58C267.024 159.279 266.435 158.848 266.024 158.287C265.628 157.712 265.429 157.021 265.429 156.213C265.429 154.913 265.894 153.913 266.825 153.215C267.77 152.503 269.063 152.147 270.706 152.147H275.983ZM270.768 154.755C270.083 154.755 269.563 154.878 269.207 155.125C268.865 155.371 268.694 155.768 268.694 156.316C268.694 156.863 268.858 157.267 269.187 157.527C269.529 157.773 270.042 157.897 270.727 157.897H273.129V154.755H270.768Z" fill="black"/>
<path d="M226.5 178.107V192.48H223.174V180.777H220.299V178.107H226.5ZM239.735 189.77V192.48H228.874V190.324L234.417 185.088C235.006 184.527 235.403 184.048 235.608 183.651C235.814 183.24 235.916 182.837 235.916 182.44C235.916 181.865 235.718 181.427 235.321 181.126C234.938 180.811 234.369 180.653 233.617 180.653C232.987 180.653 232.419 180.777 231.912 181.023C231.406 181.256 230.982 181.612 230.639 182.091L228.216 180.53C228.778 179.695 229.551 179.045 230.537 178.58C231.522 178.1 232.652 177.861 233.925 177.861C234.992 177.861 235.923 178.039 236.717 178.395C237.525 178.737 238.148 179.23 238.586 179.873C239.037 180.503 239.263 181.249 239.263 182.111C239.263 182.891 239.099 183.624 238.77 184.308C238.442 184.993 237.805 185.773 236.861 186.649L233.555 189.77H239.735ZM243.197 192.644C242.636 192.644 242.164 192.453 241.781 192.07C241.397 191.686 241.206 191.207 241.206 190.632C241.206 190.044 241.397 189.571 241.781 189.216C242.164 188.846 242.636 188.661 243.197 188.661C243.759 188.661 244.231 188.846 244.614 189.216C244.997 189.571 245.189 190.044 245.189 190.632C245.189 191.207 244.997 191.686 244.614 192.07C244.231 192.453 243.759 192.644 243.197 192.644ZM257.621 189.77V192.48H246.76V190.324L252.303 185.088C252.892 184.527 253.289 184.048 253.494 183.651C253.7 183.24 253.802 182.837 253.802 182.44C253.802 181.865 253.604 181.427 253.207 181.126C252.824 180.811 252.255 180.653 251.503 180.653C250.873 180.653 250.305 180.777 249.798 181.023C249.292 181.256 248.868 181.612 248.525 182.091L246.102 180.53C246.664 179.695 247.437 179.045 248.423 178.58C249.408 178.1 250.538 177.861 251.811 177.861C252.878 177.861 253.809 178.039 254.603 178.395C255.411 178.737 256.034 179.23 256.472 179.873C256.923 180.503 257.149 181.249 257.149 182.111C257.149 182.891 256.985 183.624 256.656 184.308C256.328 184.993 255.691 185.773 254.747 186.649L251.441 189.77H257.621ZM265.873 183.466C266.79 183.466 267.625 183.651 268.378 184.021C269.131 184.39 269.727 184.917 270.165 185.602C270.603 186.272 270.822 187.053 270.822 187.942C270.822 188.901 270.582 189.743 270.103 190.468C269.624 191.194 268.967 191.755 268.132 192.152C267.311 192.535 266.393 192.727 265.381 192.727C263.368 192.727 261.794 192.111 260.658 190.879C259.522 189.647 258.954 187.888 258.954 185.602C258.954 183.973 259.262 182.577 259.878 181.413C260.494 180.25 261.349 179.367 262.444 178.764C263.553 178.162 264.833 177.861 266.284 177.861C267.051 177.861 267.783 177.95 268.481 178.128C269.193 178.292 269.795 178.532 270.288 178.846L269.056 181.29C268.344 180.811 267.447 180.571 266.366 180.571C265.148 180.571 264.183 180.927 263.471 181.639C262.759 182.351 262.376 183.384 262.321 184.739C263.17 183.891 264.354 183.466 265.873 183.466ZM265.196 190.242C265.908 190.242 266.482 190.051 266.92 189.667C267.372 189.284 267.598 188.764 267.598 188.107C267.598 187.45 267.372 186.93 266.92 186.546C266.482 186.149 265.894 185.951 265.155 185.951C264.429 185.951 263.834 186.156 263.368 186.567C262.903 186.964 262.67 187.477 262.67 188.107C262.67 188.736 262.896 189.25 263.348 189.647C263.8 190.044 264.415 190.242 265.196 190.242Z" fill="black"/>
<path d="M503.244 162.809L500.238 158.849L497.214 162.809H495.774L499.518 157.949L495.954 153.341H497.394L500.238 157.049L503.082 153.341H504.486L500.922 157.949L504.702 162.809H503.244ZM510.369 162.899C509.457 162.899 508.635 162.695 507.903 162.287C507.171 161.867 506.595 161.291 506.175 160.559C505.755 159.827 505.545 158.999 505.545 158.075C505.545 157.151 505.755 156.323 506.175 155.591C506.595 154.859 507.171 154.289 507.903 153.881C508.635 153.473 509.457 153.269 510.369 153.269C511.281 153.269 512.103 153.473 512.835 153.881C513.567 154.289 514.137 154.859 514.545 155.591C514.965 156.323 515.175 157.151 515.175 158.075C515.175 158.999 514.965 159.827 514.545 160.559C514.137 161.291 513.567 161.867 512.835 162.287C512.103 162.695 511.281 162.899 510.369 162.899ZM510.369 161.765C511.041 161.765 511.641 161.615 512.169 161.315C512.709 161.003 513.129 160.565 513.429 160.001C513.729 159.437 513.879 158.795 513.879 158.075C513.879 157.355 513.729 156.713 513.429 156.149C513.129 155.585 512.709 155.153 512.169 154.853C511.641 154.541 511.041 154.385 510.369 154.385C509.697 154.385 509.091 154.541 508.551 154.853C508.023 155.153 507.603 155.585 507.291 156.149C506.991 156.713 506.841 157.355 506.841 158.075C506.841 158.795 506.991 159.437 507.291 160.001C507.603 160.565 508.023 161.003 508.551 161.315C509.091 161.615 509.697 161.765 510.369 161.765ZM525.594 153.341V162.809H524.316V154.475H519.78L519.654 156.815C519.558 158.783 519.33 160.295 518.97 161.351C518.61 162.407 517.968 162.935 517.044 162.935C516.792 162.935 516.486 162.887 516.126 162.791L516.216 161.693C516.432 161.741 516.582 161.765 516.666 161.765C517.158 161.765 517.53 161.537 517.782 161.081C518.034 160.625 518.202 160.061 518.286 159.389C518.37 158.717 518.442 157.829 518.502 156.725L518.664 153.341H525.594ZM536.967 153.341V162.809H535.689V154.475H531.153L531.027 156.815C530.931 158.783 530.703 160.295 530.343 161.351C529.983 162.407 529.341 162.935 528.417 162.935C528.165 162.935 527.859 162.887 527.499 162.791L527.589 161.693C527.805 161.741 527.955 161.765 528.039 161.765C528.531 161.765 528.903 161.537 529.155 161.081C529.407 160.625 529.575 160.061 529.659 159.389C529.743 158.717 529.815 157.829 529.875 156.725L530.037 153.341H536.967Z" fill="black"/>
<path d="M502.147 179.495V192.095H500.851V180.647H497.881V179.495H502.147ZM508.651 179.495V192.095H507.355V180.647H504.385V179.495H508.651ZM512.635 192.185C512.371 192.185 512.143 192.089 511.951 191.897C511.771 191.705 511.681 191.471 511.681 191.195C511.681 190.919 511.771 190.691 511.951 190.511C512.143 190.319 512.371 190.223 512.635 190.223C512.899 190.223 513.127 190.319 513.319 190.511C513.511 190.691 513.607 190.919 513.607 191.195C513.607 191.471 513.511 191.705 513.319 191.897C513.127 192.089 512.899 192.185 512.635 192.185ZM520.306 192.203C519.334 192.203 518.464 191.945 517.696 191.429C516.94 190.913 516.346 190.175 515.914 189.215C515.494 188.243 515.284 187.103 515.284 185.795C515.284 184.487 515.494 183.353 515.914 182.393C516.346 181.421 516.94 180.677 517.696 180.161C518.464 179.645 519.334 179.387 520.306 179.387C521.278 179.387 522.142 179.645 522.898 180.161C523.666 180.677 524.266 181.421 524.698 182.393C525.13 183.353 525.346 184.487 525.346 185.795C525.346 187.103 525.13 188.243 524.698 189.215C524.266 190.175 523.666 190.913 522.898 191.429C522.142 191.945 521.278 192.203 520.306 192.203ZM520.306 191.015C521.038 191.015 521.68 190.811 522.232 190.403C522.796 189.995 523.234 189.401 523.546 188.621C523.858 187.841 524.014 186.899 524.014 185.795C524.014 184.691 523.858 183.749 523.546 182.969C523.234 182.189 522.796 181.595 522.232 181.187C521.68 180.779 521.038 180.575 520.306 180.575C519.574 180.575 518.926 180.779 518.362 181.187C517.81 181.595 517.378 182.189 517.066 182.969C516.754 183.749 516.598 184.691 516.598 185.795C516.598 186.899 516.754 187.841 517.066 188.621C517.378 189.401 517.81 189.995 518.362 190.403C518.926 190.811 519.574 191.015 520.306 191.015ZM535.953 179.495V180.413L530.679 192.095H529.275L534.459 180.647H527.979V183.005H526.701V179.495H535.953Z" fill="black"/>
<path d="M62.7696 156.628V166.096H61.4916V157.762H56.9555L56.8295 160.102C56.7335 162.07 56.5055 163.582 56.1455 164.638C55.7855 165.694 55.1435 166.222 54.2194 166.222C53.9674 166.222 53.6614 166.174 53.3014 166.078L53.3914 164.98C53.6074 165.028 53.7574 165.052 53.8414 165.052C54.3334 165.052 54.7055 164.824 54.9575 164.368C55.2095 163.912 55.3775 163.348 55.4615 162.676C55.5455 162.004 55.6175 161.116 55.6775 160.012L55.8395 156.628H62.7696ZM70.3088 166.186C69.3967 166.186 68.5747 165.982 67.8427 165.574C67.1107 165.154 66.5347 164.578 66.1147 163.846C65.6947 163.114 65.4847 162.286 65.4847 161.362C65.4847 160.438 65.6947 159.61 66.1147 158.878C66.5347 158.146 67.1107 157.576 67.8427 157.168C68.5747 156.76 69.3967 156.556 70.3088 156.556C71.2208 156.556 72.0428 156.76 72.7748 157.168C73.5068 157.576 74.0768 158.146 74.4848 158.878C74.9048 159.61 75.1148 160.438 75.1148 161.362C75.1148 162.286 74.9048 163.114 74.4848 163.846C74.0768 164.578 73.5068 165.154 72.7748 165.574C72.0428 165.982 71.2208 166.186 70.3088 166.186ZM70.3088 165.052C70.9808 165.052 71.5808 164.902 72.1088 164.602C72.6488 164.29 73.0688 163.852 73.3688 163.288C73.6688 162.724 73.8188 162.082 73.8188 161.362C73.8188 160.642 73.6688 160 73.3688 159.436C73.0688 158.872 72.6488 158.44 72.1088 158.14C71.5808 157.828 70.9808 157.672 70.3088 157.672C69.6367 157.672 69.0307 157.828 68.4907 158.14C67.9627 158.44 67.5427 158.872 67.2307 159.436C66.9307 160 66.7807 160.642 66.7807 161.362C66.7807 162.082 66.9307 162.724 67.2307 163.288C67.5427 163.852 67.9627 164.29 68.4907 164.602C69.0307 164.902 69.6367 165.052 70.3088 165.052ZM87.0277 164.98V168.382H85.8216V166.096H77.3435V168.382H76.1375V164.98H76.6775C77.3135 164.944 77.7455 164.476 77.9735 163.576C78.2015 162.676 78.3575 161.416 78.4415 159.796L78.5675 156.628H85.5516V164.98H87.0277ZM79.6115 159.868C79.5515 161.212 79.4375 162.322 79.2695 163.198C79.1015 164.062 78.8015 164.656 78.3695 164.98H84.2736V157.762H79.7195L79.6115 159.868ZM97.8164 161.884H95.7644V166.096H94.4864V161.884H92.4344L89.5363 166.096H88.0063L91.4083 161.218L88.2763 156.628H89.6623L92.4344 160.786H94.4864V156.628H95.7644V160.786H97.8164L100.606 156.628H101.993L98.8605 161.236L102.263 166.096H100.732L97.8164 161.884ZM104.39 156.628H105.668V164.152L111.986 156.628H113.12V166.096H111.842V158.572L105.542 166.096H104.39V156.628ZM124.055 156.628V166.096H122.885V162.964H119.914H119.554L117.358 166.096H115.972L118.33 162.784C117.598 162.58 117.034 162.232 116.638 161.74C116.242 161.248 116.044 160.624 116.044 159.868C116.044 158.812 116.404 158.008 117.124 157.456C117.844 156.904 118.828 156.628 120.076 156.628H124.055ZM117.34 159.904C117.34 161.308 118.234 162.01 120.022 162.01H122.885V157.762H120.112C118.264 157.762 117.34 158.476 117.34 159.904Z" fill="#20201F"/>
<path d="M82.8303 192.07H80.3102V195.382H79.0142V192.07H71.9041V191.134L78.5822 182.782H80.0222L73.5781 190.918H79.0502V188.002H80.3102V190.918H82.8303V192.07ZM85.3443 195.472C85.0803 195.472 84.8523 195.376 84.6603 195.184C84.4803 194.992 84.3903 194.758 84.3903 194.482C84.3903 194.206 84.4803 193.978 84.6603 193.798C84.8523 193.606 85.0803 193.51 85.3443 193.51C85.6083 193.51 85.8363 193.606 86.0283 193.798C86.2203 193.978 86.3163 194.206 86.3163 194.482C86.3163 194.758 86.2203 194.992 86.0283 195.184C85.8363 195.376 85.6083 195.472 85.3443 195.472ZM91.4988 187.948C93.3229 187.948 94.6489 188.278 95.4769 188.938C96.3169 189.586 96.7369 190.498 96.7369 191.674C96.7369 192.406 96.5629 193.06 96.2149 193.636C95.8789 194.212 95.3689 194.668 94.6849 195.004C94.0009 195.328 93.1609 195.49 92.1648 195.49C91.2648 195.49 90.4068 195.346 89.5908 195.058C88.7868 194.758 88.1388 194.362 87.6468 193.87L88.2768 192.844C88.6968 193.276 89.2488 193.63 89.9328 193.906C90.6168 194.17 91.3548 194.302 92.1468 194.302C93.1909 194.302 93.9949 194.068 94.5589 193.6C95.1349 193.132 95.4229 192.508 95.4229 191.728C95.4229 190.864 95.0989 190.21 94.4509 189.766C93.8149 189.322 92.7348 189.1 91.2108 189.1H88.5288L89.1768 182.782H96.0709V183.934H90.3108L89.8788 187.948H91.4988ZM107.028 182.782V183.7L101.754 195.382H100.35L105.534 183.934H99.0542V186.292H97.7761V182.782H107.028Z" fill="#20201F"/>
<path d="M368.57 184.895C369.89 184.967 370.892 185.327 371.576 185.975C372.272 186.611 372.62 187.445 372.62 188.477C372.62 189.197 372.446 189.839 372.098 190.403C371.75 190.955 371.234 191.393 370.55 191.717C369.866 192.041 369.032 192.203 368.048 192.203C367.136 192.203 366.272 192.059 365.456 191.771C364.652 191.471 364.004 191.075 363.512 190.583L364.142 189.557C364.562 189.989 365.12 190.343 365.816 190.619C366.512 190.883 367.256 191.015 368.048 191.015C369.08 191.015 369.878 190.793 370.442 190.349C371.006 189.893 371.288 189.269 371.288 188.477C371.288 187.697 371.006 187.085 370.442 186.641C369.878 186.197 369.026 185.975 367.886 185.975H366.986V185.021L370.478 180.647H364.034V179.495H372.134V180.413L368.57 184.895ZM375.418 192.185C375.154 192.185 374.926 192.089 374.734 191.897C374.554 191.705 374.464 191.471 374.464 191.195C374.464 190.919 374.554 190.691 374.734 190.511C374.926 190.319 375.154 190.223 375.418 190.223C375.682 190.223 375.91 190.319 376.102 190.511C376.294 190.691 376.39 190.919 376.39 191.195C376.39 191.471 376.294 191.705 376.102 191.897C375.91 192.089 375.682 192.185 375.418 192.185ZM387.04 190.943V192.095H378.202V191.177L383.44 186.047C384.1 185.399 384.544 184.841 384.772 184.373C385.012 183.893 385.132 183.413 385.132 182.933C385.132 182.189 384.874 181.613 384.358 181.205C383.854 180.785 383.128 180.575 382.18 180.575C380.704 180.575 379.558 181.043 378.742 181.979L377.824 181.187C378.316 180.611 378.94 180.167 379.696 179.855C380.464 179.543 381.328 179.387 382.288 179.387C383.572 179.387 384.586 179.693 385.33 180.305C386.086 180.905 386.464 181.733 386.464 182.789C386.464 183.437 386.32 184.061 386.032 184.661C385.744 185.261 385.198 185.951 384.394 186.731L380.11 190.943H387.04ZM398.955 188.783H396.435V192.095H395.139V188.783H388.029V187.847L394.707 179.495H396.147L389.703 187.631H395.175V184.715H396.435V187.631H398.955V188.783Z" fill="black"/>
<path d="M393.726 81.0675V93.6675H392.43V82.2195H389.46V81.0675H393.726ZM397.71 93.7575C397.446 93.7575 397.218 93.6615 397.026 93.4695C396.846 93.2775 396.756 93.0435 396.756 92.7675C396.756 92.4915 396.846 92.2635 397.026 92.0835C397.218 91.8915 397.446 91.7955 397.71 91.7955C397.974 91.7955 398.202 91.8915 398.394 92.0835C398.586 92.2635 398.682 92.4915 398.682 92.7675C398.682 93.0435 398.586 93.2775 398.394 93.4695C398.202 93.6615 397.974 93.7575 397.71 93.7575ZM407.946 87.0615C408.738 87.3255 409.344 87.7215 409.764 88.2495C410.196 88.7775 410.412 89.4135 410.412 90.1575C410.412 90.8895 410.214 91.5315 409.818 92.0835C409.422 92.6235 408.852 93.0435 408.108 93.3435C407.376 93.6315 406.512 93.7755 405.516 93.7755C404.004 93.7755 402.816 93.4515 401.952 92.8035C401.088 92.1555 400.656 91.2735 400.656 90.1575C400.656 89.4015 400.86 88.7655 401.268 88.2495C401.688 87.7215 402.294 87.3255 403.086 87.0615C402.438 86.8095 401.946 86.4495 401.61 85.9815C401.274 85.5015 401.106 84.9375 401.106 84.2895C401.106 83.2695 401.502 82.4595 402.294 81.8595C403.098 81.2595 404.172 80.9595 405.516 80.9595C406.404 80.9595 407.178 81.0975 407.838 81.3735C408.51 81.6375 409.032 82.0215 409.404 82.5255C409.776 83.0295 409.962 83.6175 409.962 84.2895C409.962 84.9375 409.788 85.5015 409.44 85.9815C409.092 86.4495 408.594 86.8095 407.946 87.0615ZM402.402 84.3255C402.402 85.0215 402.678 85.5735 403.23 85.9815C403.782 86.3895 404.544 86.5935 405.516 86.5935C406.488 86.5935 407.25 86.3895 407.802 85.9815C408.366 85.5735 408.648 85.0275 408.648 84.3435C408.648 83.6355 408.36 83.0775 407.784 82.6695C407.22 82.2615 406.464 82.0575 405.516 82.0575C404.556 82.0575 403.794 82.2615 403.23 82.6695C402.678 83.0775 402.402 83.6295 402.402 84.3255ZM405.516 92.6775C406.632 92.6775 407.502 92.4495 408.126 91.9935C408.762 91.5375 409.08 90.9195 409.08 90.1395C409.08 89.3595 408.762 88.7475 408.126 88.3035C407.502 87.8475 406.632 87.6195 405.516 87.6195C404.412 87.6195 403.542 87.8475 402.906 88.3035C402.282 88.7475 401.97 89.3595 401.97 90.1395C401.97 90.9315 402.282 91.5555 402.906 92.0115C403.53 92.4555 404.4 92.6775 405.516 92.6775ZM416.491 86.4675C417.811 86.5395 418.813 86.8995 419.497 87.5475C420.193 88.1835 420.541 89.0175 420.541 90.0495C420.541 90.7695 420.367 91.4115 420.019 91.9755C419.671 92.5275 419.155 92.9655 418.471 93.2895C417.787 93.6135 416.953 93.7755 415.969 93.7755C415.057 93.7755 414.193 93.6315 413.377 93.3435C412.573 93.0435 411.925 92.6475 411.433 92.1555L412.063 91.1295C412.483 91.5615 413.041 91.9155 413.737 92.1915C414.433 92.4555 415.177 92.5875 415.969 92.5875C417.001 92.5875 417.799 92.3655 418.363 91.9215C418.927 91.4655 419.209 90.8415 419.209 90.0495C419.209 89.2695 418.927 88.6575 418.363 88.2135C417.799 87.7695 416.947 87.5475 415.807 87.5475H414.907V86.5935L418.399 82.2195H411.955V81.0675H420.055V81.9855L416.491 86.4675Z" fill="black"/>
</g>
<defs>
<clipPath id="clip0_2384_28742">
<rect width="893.492" height="493.476" fill="white" transform="translate(28 28)"/>
</clipPath>
</defs>
</svg>
