<svg width="500" height="950" viewBox="0 0 500 950" fill="none" xmlns="http://www.w3.org/2000/svg">
<rect width="500" height="950" fill="white"/>
<g clip-path="url(#clip0_2384_28733)">
<path fill-rule="evenodd" clip-rule="evenodd" d="M431.05 202.468H273.547V28H240.223L34 45.4977V202.468V217.439V921.708H341.631H431.05H465.185V504.896H431.05V202.468Z" fill="#FFE900"/>
<path fill-rule="evenodd" clip-rule="evenodd" d="M450.209 504.896H465.184V921.709H457.999V842.655H450.209V504.896Z" fill="#ED9FA6"/>
<path fill-rule="evenodd" clip-rule="evenodd" d="M431.05 202.468H273.547V28H240.223L34 45.4977V202.468V217.439V921.708H341.631H431.05H465.185V504.896H431.05V202.468Z" fill="#E4CDA1"/>
<path fill-rule="evenodd" clip-rule="evenodd" d="M450.209 504.896H465.184V921.709H457.999V842.655H450.209V504.896Z" fill="#FFF9D0"/>
<path d="M465.184 812.117H450.209V827.084H465.184V812.117Z" fill="#20201F"/>
<path d="M279.534 812.117H264.559V906.138H279.534V812.117Z" fill="#20201F"/>
<path d="M48.9669 154.558H34V891.171H48.9669V154.558Z" fill="#20201F"/>
<path d="M273.547 28H258.572V415.069H273.547V28Z" fill="#20201F"/>
<path d="M465.184 504.896H450.209V812.117H465.184V504.896Z" fill="#20201F"/>
<path d="M465.184 504.896H450.209V519.871H465.184V504.896Z" fill="#20201F"/>
<path d="M108.852 891.171H34V913.927H108.852V891.171Z" fill="#20201F"/>
<path d="M264.559 891.171H234.616V913.927H264.559V891.171Z" fill="#20201F"/>
<path d="M312.47 812.117H279.534V834.874H312.47V812.117Z" fill="#20201F"/>
<path d="M465.184 812.117H420.267V834.874H465.184V812.117Z" fill="#20201F"/>
<path d="M431.05 217.439H416.074V429.024H431.05V217.439Z" fill="#20201F"/>
<path d="M431.032 202.468H273.547V217.439H431.032V202.468Z" fill="#20201F"/>
<path d="M258.572 131.801H235.212V154.558H258.572V131.801Z" fill="#20201F"/>
<path d="M133.411 131.801H34V154.558H133.411V131.801Z" fill="#20201F"/>
<path d="M431.05 488.908H416.074V527.652H431.05V488.908Z" fill="#20201F"/>
<path d="M450.209 504.896H416.074V527.652H450.209V504.896Z" fill="#20201F"/>
<path d="M41.1858 45.4978H34V124.016H41.1858V45.4978Z" fill="#20201F"/>
<path d="M133.411 124.015H34V132.034H133.411V124.015Z" fill="#20201F"/>
<path d="M258.572 124.015H235.212V131.801H258.572V124.015Z" fill="#20201F"/>
<path d="M250.187 28H243.001V124.015H250.187V28Z" fill="#20201F"/>
<path d="M465.184 834.874H420.267V842.655H465.184V834.874Z" fill="#20201F"/>
<path d="M465.184 842.655H457.999V914.577H465.184V842.655Z" fill="#20201F"/>
<path d="M461.592 914.523H295.105V921.708H461.592V914.523Z" fill="#20201F"/>
<path d="M465.185 914.523H461.592V921.708H465.185V914.523Z" fill="#20201F"/>
<path d="M312.47 834.874H279.534V842.655H312.47V834.874Z" fill="#20201F"/>
<path d="M295.105 842.655H287.919V914.522H295.105V842.655Z" fill="#20201F"/>
<path d="M295.105 914.523H264.559V921.708H295.105V914.523Z" fill="#20201F"/>
<path d="M264.559 913.927H231.028V921.709H264.559V913.927Z" fill="#20201F"/>
<path d="M112.449 913.927H34V921.709H112.449V913.927Z" fill="#20201F"/>
<path d="M258.572 28H246.594V124.015H258.572V28Z" fill="#20201F"/>
<path d="M290.708 838.567H274.387V917.32H290.708V838.567Z" fill="#20201F"/>
<path d="M282.548 902.478H259.779V917.32H282.548V902.478Z" fill="#20201F"/>
<path fill-rule="evenodd" clip-rule="evenodd" d="M34 45.4977H41.74L243.001 28V35.4138L41.74 52.6972V124.015H34V45.4977Z" fill="#20201F"/>
<path d="M134.602 410.276H48.9668V415.068H134.602V410.276Z" fill="#20201F"/>
<path d="M186.11 410.276H134.602V415.068H186.11V410.276Z" fill="#20201F"/>
<path d="M194.529 410.276H186.11V415.068H194.529V410.276Z" fill="#20201F"/>
<path d="M190.898 410.276H186.11V465.352H190.898V410.276Z" fill="#20201F"/>
<path d="M258.572 410.276H248.427V415.068H258.572V410.276Z" fill="#20201F"/>
<path d="M192.692 522.865H48.9668V527.652H192.692V522.865Z" fill="#20201F"/>
<path d="M190.898 507.277H186.11V527.652H190.898V507.277Z" fill="#20201F"/>
<path d="M269.355 522.865H264.559V812.117H269.355V522.865Z" fill="#20201F"/>
<path d="M284.458 522.865H264.559V527.652H284.458V522.865Z" fill="#20201F"/>
<path d="M326.901 347.273H322.113V409.677H326.901V347.273Z" fill="#20201F"/>
<path d="M416.074 347.321H319.4V352.12H416.074V347.321Z" fill="#20201F"/>
<path d="M277.476 347.198H273.547V351.994H277.476V347.198Z" fill="#20201F"/>
<path d="M337.131 409.677H322.113V414.465H337.131V409.677Z" fill="#20201F"/>
<path d="M416.074 409.677H403.794V414.465H416.074V409.677Z" fill="#20201F"/>
<path d="M416.074 522.865H338.364V527.652H416.074V522.865Z" fill="#20201F"/>
<path d="M231.028 917.856H112.441V921.708H231.028V917.856Z" fill="#20201F"/>
<path d="M234.617 910.092H108.851V913.943H234.617V910.092Z" fill="#20201F"/>
<path d="M234.617 891.187H108.851V895.038H234.617V891.187Z" fill="#20201F"/>
<path d="M187.311 124.038H133.413V127.891H187.311V124.038Z" fill="#20201F"/>
<path d="M187.311 131.803H133.411V135.655H187.311V131.803Z" fill="#20201F"/>
<path d="M187.311 150.708H133.411V154.56H187.311V150.708Z" fill="#20201F"/>
<path d="M187.311 124.017H184.484V154.56H187.311V124.017Z" fill="#20201F"/>
<path d="M372.353 838.785H312.47V842.637H372.353V838.785Z" fill="#20201F"/>
<path d="M372.354 831.021H312.47V834.872H372.354V831.021Z" fill="#20201F"/>
<path d="M372.354 812.115H312.47V815.967H372.354V812.115Z" fill="#20201F"/>
<path d="M372.355 812.116H369.528V842.659H372.355V812.116Z" fill="#20201F"/>
<path fill-rule="evenodd" clip-rule="evenodd" d="M230.516 133.024C230.516 132.085 231.278 131.323 232.216 131.323C233.155 131.323 233.917 132.085 233.917 133.024V169.02C233.917 169.959 233.155 170.721 232.216 170.721C231.278 170.721 230.516 169.959 230.516 169.02V133.024Z" fill="#20201F"/>
<path fill-rule="evenodd" clip-rule="evenodd" d="M189.238 132.682C189.238 132.213 189.619 131.832 190.088 131.832C190.558 131.832 190.939 132.213 190.939 132.682C190.939 142.479 194.991 151.351 201.538 157.77C208.09 164.194 217.147 168.17 227.148 168.17C227.618 168.17 227.999 168.551 227.999 169.02C227.999 169.49 227.618 169.87 227.148 169.87C216.688 169.87 207.212 165.708 200.349 158.98C193.485 152.25 189.238 142.951 189.238 132.682Z" fill="#20201F"/>
<path fill-rule="evenodd" clip-rule="evenodd" d="M247.133 412.422C247.133 413.361 246.372 414.123 245.433 414.123C244.494 414.123 243.732 413.361 243.732 412.422V376.426C243.732 375.487 244.494 374.725 245.433 374.725C246.372 374.725 247.133 375.487 247.133 376.426V412.422Z" fill="#20201F"/>
<path fill-rule="evenodd" clip-rule="evenodd" d="M198.423 412.764C198.423 413.234 198.042 413.615 197.573 413.615C197.104 413.615 196.723 413.234 196.723 412.764C196.723 402.474 201.55 393.163 209.351 386.43C217.121 379.724 227.845 375.576 239.675 375.576C240.145 375.576 240.526 375.957 240.526 376.426C240.526 376.895 240.145 377.276 239.675 377.276C228.26 377.276 217.93 381.266 210.46 387.712C203.025 394.13 198.423 402.988 198.423 412.764Z" fill="#20201F"/>
<path fill-rule="evenodd" clip-rule="evenodd" d="M279.317 349.206C279.317 348.267 280.079 347.505 281.018 347.505C281.957 347.505 282.719 348.267 282.719 349.206V385.202C282.719 386.141 281.957 386.903 281.018 386.903C280.079 386.903 279.317 386.141 279.317 385.202V349.206Z" fill="#20201F"/>
<path fill-rule="evenodd" clip-rule="evenodd" d="M316.263 348.864C316.263 348.394 316.644 348.013 317.113 348.013C317.582 348.013 317.963 348.394 317.963 348.864C317.963 359.107 314.327 368.39 308.45 375.115C302.546 381.871 294.379 386.052 285.36 386.052C284.891 386.052 284.51 385.671 284.51 385.202C284.51 384.733 284.891 384.352 285.36 384.352C293.871 384.352 301.586 380.395 307.174 373.999C312.789 367.575 316.263 358.688 316.263 348.864Z" fill="#20201F"/>
<path fill-rule="evenodd" clip-rule="evenodd" d="M187.808 466.735C188.747 466.735 189.509 467.497 189.509 468.436C189.509 469.375 188.747 470.137 187.808 470.137H151.812C150.873 470.137 150.111 469.375 150.111 468.436C150.111 467.497 150.873 466.735 151.812 466.735H187.808Z" fill="#20201F"/>
<path fill-rule="evenodd" clip-rule="evenodd" d="M188.15 503.681C188.619 503.681 189 504.062 189 504.531C189 505 188.619 505.381 188.15 505.381C177.907 505.381 168.624 501.745 161.899 495.868C155.143 489.964 150.961 481.797 150.961 472.778C150.961 472.309 151.342 471.928 151.812 471.928C152.281 471.928 152.662 472.309 152.662 472.778C152.662 481.289 156.619 489.004 163.015 494.592C169.439 500.207 178.326 503.681 188.15 503.681Z" fill="#20201F"/>
<path fill-rule="evenodd" clip-rule="evenodd" d="M193.961 524.728C193.961 523.789 194.723 523.027 195.661 523.027C196.6 523.027 197.362 523.789 197.362 524.728V560.724C197.362 561.663 196.6 562.425 195.661 562.425C194.723 562.425 193.961 561.663 193.961 560.724V524.728Z" fill="#20201F"/>
<path fill-rule="evenodd" clip-rule="evenodd" d="M227.877 524.386C227.877 523.917 228.258 523.536 228.727 523.536C229.197 523.536 229.578 523.917 229.578 524.386C229.578 534.614 226.248 543.886 220.867 550.608C215.444 557.382 207.938 561.575 199.639 561.575C199.169 561.575 198.788 561.194 198.788 560.724C198.788 560.255 199.169 559.874 199.639 559.874C207.401 559.874 214.442 555.928 219.546 549.552C224.692 543.123 227.877 534.225 227.877 524.386Z" fill="#20201F"/>
<path fill-rule="evenodd" clip-rule="evenodd" d="M260.092 524.728C260.092 523.789 260.854 523.027 261.793 523.027C262.732 523.027 263.494 523.789 263.494 524.728V560.724C263.494 561.663 262.732 562.425 261.793 562.425C260.854 562.425 260.092 561.663 260.092 560.724V524.728Z" fill="#20201F"/>
<path fill-rule="evenodd" clip-rule="evenodd" d="M227.877 524.386C227.877 523.917 228.258 523.536 228.727 523.536C229.197 523.536 229.578 523.917 229.578 524.386C229.578 534.225 232.762 543.123 237.909 549.552C243.013 555.928 250.054 559.874 257.816 559.874C258.285 559.874 258.666 560.255 258.666 560.724C258.666 561.194 258.285 561.575 257.816 561.575C249.516 561.575 242.011 557.382 236.588 550.608C231.207 543.886 227.877 534.614 227.877 524.386Z" fill="#20201F"/>
<path fill-rule="evenodd" clip-rule="evenodd" d="M285.694 524.728C285.694 523.789 286.456 523.027 287.395 523.027C288.334 523.027 289.096 523.789 289.096 524.728V560.724C289.096 561.663 288.334 562.425 287.395 562.425C286.456 562.425 285.694 561.663 285.694 560.724V524.728Z" fill="#20201F"/>
<path fill-rule="evenodd" clip-rule="evenodd" d="M333.789 524.386C333.789 523.917 334.17 523.536 334.64 523.536C335.109 523.536 335.49 523.917 335.49 524.386C335.49 534.674 330.725 543.984 323.023 550.717C315.352 557.425 304.762 561.575 293.078 561.575C292.609 561.575 292.228 561.194 292.228 560.724C292.228 560.255 292.609 559.874 293.078 559.874C304.343 559.874 314.537 555.886 321.908 549.441C329.247 543.024 333.789 534.164 333.789 524.386Z" fill="#20201F"/>
<path fill-rule="evenodd" clip-rule="evenodd" d="M425.07 483.882C426.008 483.882 426.77 484.644 426.77 485.582C426.77 486.521 426.008 487.283 425.07 487.283H389.073C388.135 487.283 387.373 486.521 387.373 485.582C387.373 484.644 388.135 483.882 389.073 483.882H425.07Z" fill="#20201F"/>
<path fill-rule="evenodd" clip-rule="evenodd" d="M425.412 431.184C425.881 431.184 426.262 431.565 426.262 432.034C426.262 432.503 425.881 432.884 425.412 432.884C415.655 432.884 406.806 438.032 400.39 446.35C393.924 454.733 389.924 466.327 389.924 479.142C389.924 479.611 389.543 479.992 389.074 479.992C388.604 479.992 388.223 479.611 388.223 479.142C388.223 465.948 392.36 453.984 399.048 445.315C405.78 436.585 415.103 431.184 425.412 431.184Z" fill="#20201F"/>
<path fill-rule="evenodd" clip-rule="evenodd" d="M418.431 834.204C418.431 835.143 417.669 835.905 416.73 835.905C415.792 835.905 415.03 835.143 415.03 834.204V798.208C415.03 797.269 415.792 796.507 416.73 796.507C417.669 796.507 418.431 797.269 418.431 798.208V834.204Z" fill="#20201F"/>
<path fill-rule="evenodd" clip-rule="evenodd" d="M375.819 834.546C375.819 835.015 375.438 835.396 374.969 835.396C374.499 835.396 374.118 835.015 374.118 834.546C374.118 824.276 378.329 814.977 385.132 808.248C391.935 801.52 401.332 797.357 411.707 797.357C412.177 797.357 412.558 797.738 412.558 798.208C412.558 798.677 412.177 799.058 411.707 799.058C401.798 799.058 392.823 803.034 386.328 809.458C379.836 815.878 375.819 824.749 375.819 834.546Z" fill="#20201F"/>
<path fill-rule="evenodd" clip-rule="evenodd" d="M87.2482 269.227V359.581H51.1064V268.164H87.2482V269.227ZM82.9749 331.302C82.9749 330.308 82.5684 329.402 81.9102 328.748C81.2554 328.095 80.3523 327.687 79.3608 327.687H58.9513C57.9597 327.687 57.0566 328.095 56.3976 328.748C55.7436 329.402 55.3371 330.308 55.3371 331.302V351.712C55.3371 352.703 55.7445 353.607 56.3976 354.265C57.0515 354.919 57.9563 355.325 58.9513 355.325H79.3608C80.3557 355.325 81.2605 354.919 81.9119 354.262C82.5676 353.607 82.9749 352.703 82.9749 351.712V331.302ZM81.286 279.737C81.286 278.361 80.7256 277.111 79.8217 276.205C78.9177 275.301 77.6676 274.741 76.29 274.741C74.9149 274.741 73.6657 275.301 72.7583 276.208C71.8543 277.113 71.2939 278.362 71.2939 279.737C71.2939 281.115 71.8543 282.365 72.76 283.267C73.664 284.173 74.914 284.733 76.29 284.733C77.6676 284.733 78.9177 284.173 79.8217 283.269C80.7256 282.365 81.286 281.115 81.286 279.737ZM68.1228 279.737C68.1228 278.065 67.4433 276.55 66.3472 275.454C65.251 274.357 63.7348 273.678 62.0637 273.678C60.3919 273.678 58.8765 274.357 57.7803 275.454C56.6842 276.55 56.0047 278.065 56.0047 279.737C56.0047 281.408 56.6842 282.924 57.7803 284.02C58.8765 285.117 60.3919 285.796 62.0637 285.796C63.7348 285.796 65.251 285.117 66.3472 284.02C67.4433 282.924 68.1228 281.408 68.1228 279.737ZM65.2961 282.969C66.1218 282.144 66.6346 280.999 66.6346 279.737C66.6346 278.474 66.1218 277.33 65.2961 276.505C64.4704 275.679 63.3257 275.166 62.0637 275.166C60.8009 275.166 59.6571 275.679 58.8314 276.505C58.0057 277.33 57.4929 278.474 57.4929 279.737C57.4929 280.999 58.0057 282.144 58.8314 282.969C59.6571 283.795 60.8009 284.308 62.0637 284.308C63.3257 284.308 64.4704 283.795 65.2961 282.969ZM82.349 292.732C82.349 291.06 81.6696 289.545 80.5734 288.448C79.4773 287.352 77.9619 286.673 76.29 286.673C74.6181 286.673 73.1019 287.351 72.0057 288.448C70.9095 289.544 70.2309 291.06 70.2309 292.732C70.2309 294.404 70.9104 295.919 72.0065 297.015C73.1027 298.111 74.6181 298.791 76.29 298.791C77.961 298.791 79.4773 298.111 80.5734 297.015C81.6696 295.919 82.349 294.403 82.349 292.732ZM79.5223 295.964C80.3481 295.138 80.8608 293.994 80.8608 292.732C80.8608 291.469 80.3481 290.325 79.5223 289.5C78.6966 288.674 77.5528 288.161 76.29 288.161C75.0271 288.161 73.8825 288.673 73.0568 289.499C72.2311 290.324 71.7191 291.469 71.7191 292.732C71.7191 293.995 72.2319 295.138 73.0576 295.964C73.8834 296.79 75.0271 297.303 76.29 297.303C77.552 297.303 78.6966 296.79 79.5223 295.964ZM67.0598 292.732C67.0598 291.356 66.4994 290.106 65.5954 289.2C64.6915 288.296 63.4414 287.736 62.0637 287.736C60.6887 287.736 59.4394 288.296 58.5321 289.203C57.6281 290.108 57.0677 291.357 57.0677 292.732C57.0677 294.11 57.6281 295.36 58.5338 296.262C59.4377 297.168 60.6878 297.728 62.0637 297.728C63.4414 297.728 64.6915 297.168 65.5954 296.264C66.4994 295.36 67.0598 294.11 67.0598 292.732ZM64.5443 295.212C65.1779 294.579 65.5716 293.7 65.5716 292.732C65.5716 291.761 65.1796 290.883 64.5469 290.251C63.9108 289.618 63.0323 289.224 62.0637 289.224C61.0926 289.224 60.215 289.616 59.5831 290.249C58.9479 290.883 58.5559 291.761 58.5559 292.732C58.5559 293.7 58.9496 294.579 59.5831 295.212C60.215 295.848 61.0926 296.24 62.0637 296.24C63.0323 296.24 63.9108 295.846 64.5443 295.212ZM78.7706 282.218C79.4041 281.584 79.7979 280.706 79.7979 279.737C79.7979 278.766 79.4058 277.888 78.7731 277.256C78.137 276.623 77.2586 276.229 76.29 276.229C75.3188 276.229 74.4412 276.621 73.8094 277.254C73.1741 277.888 72.7821 278.766 72.7821 279.737C72.7821 280.706 73.1758 281.584 73.8094 282.218C74.4412 282.853 75.3188 283.245 76.29 283.245C77.2586 283.245 78.137 282.851 78.7706 282.218ZM80.8489 351.712V331.302C80.8489 330.894 80.6806 330.521 80.411 330.251C80.144 329.981 79.7706 329.813 79.3608 329.813H58.9513C58.5414 329.813 58.1681 329.981 57.8994 330.25C57.6315 330.521 57.4631 330.894 57.4631 331.302V351.712C57.4631 352.122 57.6298 352.494 57.8968 352.761C58.1706 353.031 58.5448 353.199 58.9513 353.199H79.3608C79.7672 353.199 80.1414 353.031 80.411 352.761C80.6823 352.494 80.8489 352.122 80.8489 351.712ZM53.2324 302.145H85.1222V270.29H53.2324V302.145ZM85.1222 304.271H53.2324V357.455H85.1222V304.271Z" fill="#20201F"/>
<path fill-rule="evenodd" clip-rule="evenodd" d="M84.1299 499.264C81.3329 501.062 77.7443 502.173 74.5893 502.173C71.4837 502.173 69.06 501.107 67.3729 499.363V499.358C66.7351 498.697 66.241 497.913 65.8226 497.082V500.67C65.8226 502.811 64.928 504.067 63.4917 504.796C62.1846 505.46 60.4558 505.625 58.5602 505.625H57.7779V505.605C56.1978 505.561 54.7556 505.363 53.6322 504.796C52.1967 504.067 51.3064 502.811 51.3064 500.68V483.086C51.3064 480.945 52.1967 479.692 53.6322 478.967C54.7556 478.404 56.1978 478.2 57.7779 478.158V478.138H58.5602C60.4558 478.138 62.1846 478.302 63.4917 478.967C64.928 479.692 65.8226 480.945 65.8226 483.086V486.68C66.241 485.849 66.73 485.068 67.3729 484.406C69.06 482.658 71.4837 481.592 74.5893 481.592C77.9237 481.592 81.7403 482.835 84.6027 484.817C87.244 486.646 89.0979 489.12 89.0979 491.881C89.0979 494.806 87.0186 497.41 84.1299 499.264ZM56.2267 491.374H56.2216V491.377C56.2216 492.008 56.4853 492.589 56.9028 493.007V493.012C57.3203 493.429 57.8961 493.688 58.5347 493.688C59.1742 493.688 59.7448 493.429 60.1624 493.012H60.17L60.1692 493.007C60.5867 492.586 60.8444 492.008 60.8444 491.377C60.8444 490.736 60.5867 490.157 60.17 489.742C59.7525 489.325 59.1742 489.064 58.5347 489.064C57.8961 489.064 57.3255 489.325 56.9028 489.742C56.4853 490.157 56.2267 490.736 56.2267 491.374ZM57.4096 491.372V491.377C57.4096 491.688 57.5338 491.97 57.7302 492.17H57.7379C57.9394 492.371 58.2252 492.5 58.5347 492.5C58.8502 492.5 59.1393 492.375 59.3349 492.18L59.34 492.171C59.5365 491.97 59.6632 491.688 59.6632 491.377C59.6632 491.055 59.5365 490.775 59.34 490.574C59.1393 490.378 58.8502 490.254 58.5347 490.254C58.2201 490.254 57.9335 490.378 57.7379 490.584C57.5287 490.78 57.402 491.064 57.402 491.372H57.4096ZM64.2604 483.086C64.2604 481.642 63.6932 480.817 62.7943 480.357C61.8623 479.892 60.5697 479.736 59.1087 479.709H58.5602C56.8773 479.709 55.3687 479.837 54.3304 480.357C53.4306 480.817 52.8702 481.643 52.8702 483.086V500.68C52.8702 502.121 53.4306 502.943 54.3304 503.403C55.3687 503.927 56.8773 504.054 58.5602 504.054H59.1691C60.5995 504.022 61.8827 503.868 62.7943 503.406C63.7009 502.943 64.2604 502.114 64.2604 500.67V483.086ZM83.7183 486.097C81.1059 484.286 77.6252 483.153 74.5893 483.153C71.9361 483.153 69.8951 484.039 68.4945 485.486C66.9613 487.068 66.1687 489.347 66.1687 491.881C66.1687 494.42 66.9613 496.696 68.4945 498.283C69.8951 499.726 71.9361 500.611 74.5893 500.611C77.4568 500.611 80.7317 499.596 83.2914 497.952C85.7584 496.369 87.5348 494.212 87.5348 491.881C87.5348 489.69 85.9548 487.653 83.7183 486.097Z" fill="#20201F"/>
<path fill-rule="evenodd" clip-rule="evenodd" d="M334.042 219.105L314.551 219.099C308.033 219.099 308.801 232.591 308.868 233.492C308.868 236.615 310.142 239.449 312.195 241.499C314.243 243.546 317.081 244.815 320.204 244.815H328.475C331.604 244.815 334.439 243.549 336.492 241.499C338.538 239.449 339.808 236.61 339.822 233.487C339.863 232.571 340.534 219.099 334.042 219.105ZM324.336 232.248V232.25C325.021 232.257 325.654 232.527 326.106 232.977C326.55 233.436 326.823 234.061 326.823 234.743C326.823 235.432 326.548 236.057 326.096 236.507C325.646 236.959 325.021 237.235 324.334 237.235C323.65 237.235 323.025 236.959 322.574 236.507H322.566V236.502C322.115 236.052 321.833 235.432 321.833 234.743C321.833 234.061 322.115 233.427 322.566 232.977H322.568C323.019 232.527 323.65 232.243 324.334 232.243L324.336 232.248ZM324.34 233.519C324.666 233.519 324.973 233.653 325.192 233.879C325.407 234.093 325.544 234.401 325.544 234.743C325.544 235.083 325.413 235.392 325.198 235.612C324.977 235.824 324.677 235.963 324.334 235.96C323.99 235.96 323.693 235.826 323.473 235.612L323.468 235.607C323.249 235.392 323.116 235.083 323.116 234.743C323.116 234.407 323.258 234.099 323.47 233.879L323.475 233.876C323.69 233.66 323.997 233.53 324.328 233.53L324.34 233.533V233.519ZM324.336 223.854C327.478 223.854 330.33 224.791 332.405 226.293C334.56 227.865 335.899 230.06 335.901 232.493C335.901 234.936 334.56 237.131 332.405 238.706C330.323 240.217 327.469 241.144 324.326 241.144H324.312C321.178 241.137 318.331 240.202 316.251 238.696C314.106 237.125 312.769 234.936 312.767 232.507L312.769 232.493C312.769 230.054 314.106 227.872 316.268 226.293C318.337 224.788 321.189 223.854 324.328 223.857L324.336 223.854ZM324.336 225.612C327.09 225.617 329.578 226.425 331.377 227.724C333.076 228.965 334.133 230.657 334.133 232.493C334.133 234.342 333.076 236.034 331.364 237.28C329.574 238.574 327.09 239.379 324.326 239.379H324.321L324.312 239.384C321.556 239.379 319.078 238.574 317.288 237.273C315.594 236.036 314.538 234.342 314.533 232.507L314.538 232.493C314.534 230.653 315.592 228.96 317.294 227.724C319.085 226.43 321.57 225.617 324.326 225.62H324.336V225.612ZM334.036 220.864C338.874 220.864 338.05 233.39 338.05 233.422L338.043 233.487C338.043 236.126 336.977 238.514 335.252 240.251C333.511 241.981 331.119 243.049 328.475 243.049H320.213C317.559 243.049 315.163 241.986 313.43 240.251C311.699 238.523 310.634 236.126 310.629 233.487L310.626 233.425C310.626 233.393 309.738 220.864 314.557 220.864H334.036Z" fill="#20201F"/>
<path fill-rule="evenodd" clip-rule="evenodd" d="M102.128 417.19L82.6374 417.185C76.1192 417.185 76.8871 430.677 76.9542 431.577C76.9542 434.701 78.2281 437.534 80.281 439.585C82.3287 441.632 85.1673 442.9 88.29 442.9H96.5609C99.6895 442.9 102.525 441.634 104.578 439.585C106.624 437.534 107.894 434.696 107.908 431.572C107.949 430.656 108.62 417.185 102.128 417.19ZM92.422 430.333V430.336C93.1075 430.343 93.7402 430.612 94.1917 431.063C94.6356 431.521 94.9095 432.146 94.9095 432.828C94.9095 433.517 94.6339 434.143 94.1824 434.593C93.7317 435.045 93.1075 435.321 92.4195 435.321C91.7358 435.321 91.1107 435.045 90.66 434.593H90.6515V434.588C90.2008 434.138 89.9193 433.517 89.9193 432.828C89.9193 432.146 90.2008 431.513 90.6515 431.063H90.6541C91.1048 430.612 91.7358 430.329 92.4195 430.329L92.422 430.333ZM92.4263 431.605C92.752 431.605 93.059 431.739 93.2784 431.964C93.4927 432.179 93.6305 432.487 93.6305 432.828C93.6305 433.169 93.4986 433.477 93.2843 433.697C93.0632 433.909 92.7631 434.049 92.4195 434.045C92.0759 434.045 91.7792 433.912 91.5589 433.697L91.5538 433.692C91.3352 433.477 91.2017 433.169 91.2017 432.828C91.2017 432.492 91.3438 432.185 91.5555 431.964L91.5606 431.962C91.7758 431.746 92.0827 431.616 92.4144 431.616L92.4263 431.618V431.605ZM92.422 421.94C95.5643 421.94 98.4164 422.876 100.491 424.379C102.645 425.95 103.985 428.146 103.987 430.579C103.987 433.021 102.645 435.216 100.491 436.791C98.4088 438.302 95.5549 439.23 92.4118 439.23H92.3982C89.2637 439.222 86.4174 438.288 84.3374 436.782C82.1918 435.211 80.855 433.021 80.8533 430.593L80.855 430.579C80.855 428.14 82.1918 425.957 84.3544 424.379C86.4234 422.874 89.2747 421.94 92.4144 421.942L92.422 421.94ZM92.422 423.698C95.1756 423.703 97.6639 424.511 99.4633 425.809C101.161 427.051 102.219 428.742 102.219 430.579C102.219 432.428 101.161 434.119 99.4497 435.366C97.6596 436.659 95.1756 437.465 92.4118 437.465H92.4067L92.3982 437.47C89.6421 437.465 87.1641 436.659 85.374 435.358C83.68 434.122 82.6238 432.428 82.6187 430.593L82.6238 430.579C82.6204 428.739 83.6783 427.046 85.3799 425.809C87.1709 424.516 89.6557 423.703 92.4118 423.705H92.422V423.698ZM102.122 418.95C106.96 418.95 106.136 431.475 106.136 431.508L106.129 431.572C106.129 434.212 105.063 436.6 103.338 438.336C101.597 440.067 99.2048 441.135 96.5609 441.135H88.2985C85.6453 441.135 83.2489 440.072 81.5158 438.336C79.7852 436.608 78.7197 434.212 78.7146 431.572L78.712 431.51C78.712 431.479 77.8242 418.95 82.6425 418.95H102.122Z" fill="#20201F"/>
<path fill-rule="evenodd" clip-rule="evenodd" d="M411.171 240.915V342.503H369.612V240.915H411.171ZM386.352 260.71C386.352 261.826 386.805 262.836 387.535 263.566C388.269 264.297 389.278 264.749 390.392 264.749C391.505 264.749 392.514 264.297 393.245 263.566C393.978 262.832 394.431 261.823 394.431 260.71C394.431 259.597 393.978 258.588 393.248 257.856C392.518 257.123 391.507 256.671 390.392 256.671C389.276 256.671 388.265 257.123 387.535 257.853C386.805 258.583 386.352 259.594 386.352 260.71ZM388.676 262.425C389.113 262.862 389.721 263.134 390.392 263.134C391.062 263.134 391.67 262.862 392.107 262.425C392.544 261.988 392.815 261.38 392.815 260.71C392.815 260.039 392.544 259.432 392.106 258.996C391.667 258.558 391.06 258.286 390.392 258.286C389.723 258.286 389.116 258.558 388.677 258.996C388.239 259.434 387.968 260.041 387.968 260.71C387.968 261.379 388.239 261.986 388.676 262.425ZM370.801 248.582L372.417 320.295C372.417 331.065 379.621 339.885 390.392 339.885C401.162 339.885 408.366 331.065 408.366 320.295L409.982 248.582C409.982 247.192 409.413 245.929 408.499 245.015C407.581 244.102 406.319 243.533 404.932 243.533H375.851C374.466 243.533 373.204 244.101 372.288 245.015C371.369 245.936 370.801 247.198 370.801 248.582ZM374.437 320.295C374.437 329.962 380.724 337.865 390.392 337.865C400.059 337.865 406.346 329.962 406.346 320.295L407.962 248.582C407.962 247.751 407.62 246.993 407.071 246.44C406.525 245.893 405.767 245.553 404.932 245.553H375.851C375.016 245.553 374.259 245.893 373.708 246.444C373.161 246.991 372.821 247.747 372.821 248.582L374.437 320.295ZM413.149 342.716V240.701C413.149 240.194 412.948 239.731 412.629 239.396C412.309 239.058 411.863 238.85 411.374 238.85H369.409C368.92 238.85 368.474 239.058 368.154 239.392C367.833 239.727 367.634 240.191 367.634 240.701V342.716C367.634 343.226 367.833 343.691 368.154 344.026C368.478 344.358 368.922 344.568 369.409 344.568H411.374C411.861 344.568 412.304 344.359 412.626 344.026C412.949 343.686 413.149 343.224 413.149 342.716Z" fill="#20201F"/>
<path fill-rule="evenodd" clip-rule="evenodd" d="M337.711 407.342H340.632C340.98 407.342 341.263 407.628 341.263 407.975V408.585H371.296C371.803 408.585 372.214 408.997 372.214 409.504C372.214 410.01 371.803 410.422 371.296 410.422H341.263V415.429C341.263 415.775 340.978 416.062 340.632 416.062H337.711C337.363 416.062 337.08 415.778 337.08 415.429V407.975C337.08 407.626 337.363 407.342 337.711 407.342Z" fill="#20201F"/>
<path fill-rule="evenodd" clip-rule="evenodd" d="M403.154 416.273H400.233C399.884 416.273 399.601 415.987 399.601 415.64V415.029H369.569C369.062 415.029 368.65 414.618 368.65 414.111C368.65 413.604 369.062 413.193 369.569 413.193H399.601V408.185C399.601 407.839 399.887 407.553 400.233 407.553H403.154C403.502 407.553 403.785 407.837 403.785 408.185V415.64C403.785 415.989 403.502 416.273 403.154 416.273Z" fill="#20201F"/>
<path d="M149.499 589H147.373V690.095H149.499V589Z" fill="#20201F"/>
<path d="M169.659 609.38C171.165 609.462 172.308 609.873 173.088 610.612C173.882 611.338 174.279 612.289 174.279 613.466C174.279 614.287 174.081 615.02 173.684 615.663C173.287 616.293 172.698 616.792 171.918 617.162C171.138 617.532 170.186 617.716 169.064 617.716C168.024 617.716 167.038 617.552 166.107 617.224C165.19 616.881 164.451 616.43 163.89 615.869L164.608 614.698C165.087 615.191 165.724 615.595 166.518 615.91C167.312 616.211 168.16 616.361 169.064 616.361C170.241 616.361 171.151 616.108 171.795 615.602C172.438 615.081 172.76 614.37 172.76 613.466C172.76 612.576 172.438 611.878 171.795 611.372C171.151 610.865 170.18 610.612 168.879 610.612H167.852V609.524L171.836 604.534H164.485V603.22H173.725V604.267L169.659 609.38ZM188.579 613.815H185.705V617.593H184.226V613.815H176.116V612.748L183.734 603.22H185.376L178.026 612.501H184.267V609.175H185.705V612.501H188.579V613.815ZM191.447 617.696C191.146 617.696 190.886 617.586 190.667 617.367C190.461 617.148 190.359 616.881 190.359 616.567C190.359 616.252 190.461 615.992 190.667 615.786C190.886 615.567 191.146 615.458 191.447 615.458C191.748 615.458 192.008 615.567 192.227 615.786C192.446 615.992 192.556 616.252 192.556 616.567C192.556 616.881 192.446 617.148 192.227 617.367C192.008 617.586 191.748 617.696 191.447 617.696ZM198.432 603.22V617.593H196.954V604.534H193.566V603.22H198.432ZM205.646 609.113C207.727 609.113 209.239 609.49 210.184 610.243C211.142 610.982 211.621 612.022 211.621 613.364C211.621 614.199 211.423 614.945 211.026 615.602C210.642 616.259 210.061 616.779 209.28 617.162C208.5 617.532 207.542 617.716 206.406 617.716C205.379 617.716 204.4 617.552 203.469 617.224C202.552 616.881 201.813 616.43 201.252 615.869L201.971 614.698C202.45 615.191 203.079 615.595 203.86 615.91C204.64 616.211 205.482 616.361 206.385 616.361C207.576 616.361 208.493 616.094 209.137 615.561C209.794 615.027 210.122 614.315 210.122 613.425C210.122 612.44 209.753 611.694 209.013 611.187C208.288 610.681 207.056 610.427 205.317 610.427H202.258L202.997 603.22H210.861V604.534H204.291L203.798 609.113H205.646Z" fill="#20201F"/>
<path d="M167.708 638.276C168.653 638.276 169.488 638.454 170.213 638.81C170.953 639.166 171.528 639.672 171.938 640.329C172.349 640.973 172.554 641.726 172.554 642.588C172.554 643.464 172.342 644.238 171.918 644.908C171.493 645.579 170.905 646.099 170.152 646.469C169.413 646.825 168.578 647.003 167.647 647.003C165.744 647.003 164.286 646.38 163.273 645.134C162.26 643.875 161.754 642.102 161.754 639.816C161.754 638.215 162.028 636.859 162.575 635.751C163.123 634.642 163.889 633.807 164.875 633.246C165.861 632.671 167.01 632.383 168.324 632.383C169.748 632.383 170.884 632.643 171.733 633.163L171.137 634.354C170.453 633.903 169.522 633.677 168.345 633.677C166.757 633.677 165.511 634.183 164.608 635.196C163.705 636.195 163.253 637.653 163.253 639.57C163.253 639.912 163.273 640.302 163.314 640.74C163.67 639.96 164.238 639.358 165.019 638.933C165.799 638.495 166.696 638.276 167.708 638.276ZM167.585 645.75C168.626 645.75 169.467 645.469 170.111 644.908C170.768 644.333 171.096 643.574 171.096 642.629C171.096 641.685 170.768 640.932 170.111 640.37C169.467 639.809 168.591 639.529 167.483 639.529C166.757 639.529 166.114 639.666 165.553 639.939C165.005 640.213 164.574 640.59 164.259 641.069C163.944 641.548 163.787 642.082 163.787 642.67C163.787 643.218 163.93 643.724 164.218 644.19C164.519 644.655 164.957 645.031 165.532 645.319C166.107 645.606 166.791 645.75 167.585 645.75ZM178.044 638.399C180.125 638.399 181.637 638.776 182.582 639.529C183.54 640.268 184.019 641.308 184.019 642.65C184.019 643.485 183.821 644.231 183.424 644.888C183.041 645.545 182.459 646.065 181.679 646.448C180.898 646.818 179.94 647.003 178.804 647.003C177.777 647.003 176.799 646.838 175.868 646.51C174.951 646.168 174.211 645.716 173.65 645.155L174.369 643.984C174.848 644.477 175.478 644.881 176.258 645.196C177.038 645.497 177.88 645.647 178.783 645.647C179.974 645.647 180.891 645.381 181.535 644.847C182.192 644.313 182.52 643.601 182.52 642.711C182.52 641.726 182.151 640.98 181.412 640.473C180.686 639.967 179.454 639.713 177.716 639.713H174.656L175.395 632.506H183.26V633.821H176.689L176.196 638.399H178.044ZM187.005 646.982C186.704 646.982 186.444 646.873 186.225 646.654C186.019 646.435 185.917 646.168 185.917 645.853C185.917 645.538 186.019 645.278 186.225 645.073C186.444 644.853 186.704 644.744 187.005 644.744C187.306 644.744 187.566 644.853 187.785 645.073C188.004 645.278 188.114 645.538 188.114 645.853C188.114 646.168 188.004 646.435 187.785 646.654C187.566 646.873 187.306 646.982 187.005 646.982ZM195.981 638.276C196.926 638.276 197.761 638.454 198.486 638.81C199.225 639.166 199.8 639.672 200.211 640.329C200.622 640.973 200.827 641.726 200.827 642.588C200.827 643.464 200.615 644.238 200.19 644.908C199.766 645.579 199.177 646.099 198.425 646.469C197.685 646.825 196.85 647.003 195.92 647.003C194.017 647.003 192.559 646.38 191.546 645.134C190.533 643.875 190.027 642.102 190.027 639.816C190.027 638.215 190.3 636.859 190.848 635.751C191.396 634.642 192.162 633.807 193.148 633.246C194.133 632.671 195.283 632.383 196.597 632.383C198.021 632.383 199.157 632.643 200.006 633.163L199.41 634.354C198.726 633.903 197.795 633.677 196.618 633.677C195.03 633.677 193.784 634.183 192.881 635.196C191.977 636.195 191.526 637.653 191.526 639.57C191.526 639.912 191.546 640.302 191.587 640.74C191.943 639.96 192.511 639.358 193.291 638.933C194.072 638.495 194.968 638.276 195.981 638.276ZM195.858 645.75C196.898 645.75 197.74 645.469 198.384 644.908C199.041 644.333 199.369 643.574 199.369 642.629C199.369 641.685 199.041 640.932 198.384 640.37C197.74 639.809 196.864 639.529 195.755 639.529C195.03 639.529 194.386 639.666 193.825 639.939C193.278 640.213 192.847 640.59 192.532 641.069C192.217 641.548 192.059 642.082 192.059 642.67C192.059 643.218 192.203 643.724 192.491 644.19C192.792 644.655 193.23 645.031 193.805 645.319C194.38 645.606 195.064 645.75 195.858 645.75ZM214.756 643.101H211.881V646.879H210.403V643.101H202.292V642.034L209.91 632.506H211.553L204.202 641.787H210.444V638.461H211.881V641.787H214.756V643.101Z" fill="#20201F"/>
<path d="M168.048 667.562C168.992 667.562 169.827 667.74 170.553 668.096C171.292 668.452 171.867 668.958 172.278 669.615C172.688 670.258 172.894 671.011 172.894 671.874C172.894 672.75 172.681 673.523 172.257 674.194C171.833 674.865 171.244 675.385 170.491 675.754C169.752 676.11 168.917 676.288 167.986 676.288C166.084 676.288 164.626 675.665 163.613 674.42C162.6 673.16 162.093 671.388 162.093 669.102C162.093 667.5 162.367 666.145 162.915 665.036C163.462 663.927 164.229 663.092 165.214 662.531C166.2 661.956 167.35 661.669 168.664 661.669C170.087 661.669 171.224 661.929 172.072 662.449L171.477 663.64C170.792 663.188 169.862 662.962 168.684 662.962C167.096 662.962 165.851 663.469 164.947 664.482C164.044 665.481 163.592 666.939 163.592 668.855C163.592 669.198 163.613 669.588 163.654 670.026C164.01 669.245 164.578 668.643 165.358 668.219C166.138 667.781 167.035 667.562 168.048 667.562ZM167.925 675.036C168.965 675.036 169.807 674.755 170.45 674.194C171.107 673.619 171.436 672.859 171.436 671.915C171.436 670.97 171.107 670.217 170.45 669.656C169.807 669.095 168.931 668.814 167.822 668.814C167.097 668.814 166.453 668.951 165.892 669.225C165.344 669.499 164.913 669.875 164.598 670.354C164.284 670.833 164.126 671.367 164.126 671.956C164.126 672.503 164.27 673.01 164.557 673.475C164.858 673.941 165.296 674.317 165.871 674.605C166.446 674.892 167.131 675.036 167.925 675.036ZM179.082 661.669C180.984 661.669 182.442 662.299 183.455 663.558C184.468 664.804 184.975 666.569 184.975 668.855C184.975 670.457 184.701 671.812 184.153 672.921C183.606 674.03 182.839 674.871 181.854 675.446C180.868 676.008 179.718 676.288 178.404 676.288C176.98 676.288 175.844 676.028 174.996 675.508L175.591 674.317C176.276 674.769 177.206 674.995 178.384 674.995C179.971 674.995 181.217 674.495 182.121 673.496C183.024 672.483 183.476 671.018 183.476 669.102C183.476 668.746 183.455 668.356 183.414 667.931C183.058 668.712 182.49 669.321 181.71 669.759C180.93 670.183 180.033 670.395 179.02 670.395C178.076 670.395 177.234 670.217 176.495 669.861C175.769 669.506 175.201 669.006 174.79 668.363C174.38 667.706 174.174 666.946 174.174 666.083C174.174 665.207 174.386 664.434 174.811 663.763C175.235 663.092 175.817 662.579 176.556 662.223C177.309 661.854 178.151 661.669 179.082 661.669ZM179.246 669.143C179.971 669.143 180.608 669.006 181.155 668.732C181.717 668.458 182.155 668.082 182.47 667.603C182.784 667.124 182.942 666.59 182.942 666.001C182.942 665.454 182.791 664.947 182.49 664.482C182.203 664.016 181.771 663.64 181.197 663.353C180.622 663.065 179.937 662.921 179.143 662.921C178.103 662.921 177.254 663.209 176.597 663.784C175.954 664.345 175.632 665.098 175.632 666.042C175.632 666.987 175.954 667.74 176.597 668.301C177.254 668.862 178.137 669.143 179.246 669.143ZM188.006 676.268C187.705 676.268 187.445 676.158 187.226 675.939C187.02 675.72 186.918 675.453 186.918 675.138C186.918 674.824 187.02 674.563 187.226 674.358C187.445 674.139 187.705 674.03 188.006 674.03C188.307 674.03 188.567 674.139 188.786 674.358C189.005 674.563 189.115 674.824 189.115 675.138C189.115 675.453 189.005 675.72 188.786 675.939C188.567 676.158 188.307 676.268 188.006 676.268ZM196.336 667.952C197.841 668.034 198.984 668.445 199.765 669.184C200.559 669.909 200.956 670.861 200.956 672.038C200.956 672.859 200.757 673.592 200.36 674.235C199.963 674.865 199.374 675.364 198.594 675.734C197.814 676.103 196.863 676.288 195.74 676.288C194.7 676.288 193.714 676.124 192.783 675.795C191.866 675.453 191.127 675.002 190.566 674.44L191.285 673.27C191.764 673.763 192.4 674.167 193.194 674.481C193.988 674.782 194.837 674.933 195.74 674.933C196.917 674.933 197.828 674.68 198.471 674.173C199.114 673.653 199.436 672.941 199.436 672.038C199.436 671.148 199.114 670.45 198.471 669.944C197.828 669.437 196.856 669.184 195.555 669.184H194.529V668.096L198.512 663.106H191.161V661.792H200.401V662.839L196.336 667.952ZM208.993 667.562C209.938 667.562 210.773 667.74 211.498 668.096C212.237 668.452 212.812 668.958 213.223 669.615C213.634 670.258 213.839 671.011 213.839 671.874C213.839 672.75 213.627 673.523 213.202 674.194C212.778 674.865 212.189 675.385 211.437 675.754C210.697 676.11 209.862 676.288 208.932 676.288C207.029 676.288 205.571 675.665 204.558 674.42C203.545 673.16 203.039 671.388 203.039 669.102C203.039 667.5 203.312 666.145 203.86 665.036C204.407 663.927 205.174 663.092 206.16 662.531C207.145 661.956 208.295 661.669 209.609 661.669C211.033 661.669 212.169 661.929 213.018 662.449L212.422 663.64C211.738 663.188 210.807 662.962 209.63 662.962C208.042 662.962 206.796 663.469 205.893 664.482C204.989 665.481 204.538 666.939 204.538 668.855C204.538 669.198 204.558 669.588 204.599 670.026C204.955 669.245 205.523 668.643 206.303 668.219C207.084 667.781 207.98 667.562 208.993 667.562ZM208.87 675.036C209.91 675.036 210.752 674.755 211.395 674.194C212.053 673.619 212.381 672.859 212.381 671.915C212.381 670.97 212.053 670.217 211.395 669.656C210.752 669.095 209.876 668.814 208.767 668.814C208.042 668.814 207.398 668.951 206.837 669.225C206.29 669.499 205.858 669.875 205.544 670.354C205.229 670.833 205.071 671.367 205.071 671.956C205.071 672.503 205.215 673.01 205.503 673.475C205.804 673.941 206.242 674.317 206.817 674.605C207.392 674.892 208.076 675.036 208.87 675.036Z" fill="#20201F"/>
<path d="M134.344 652.411V660H103.931V653.963L119.453 639.303C121.102 637.732 122.213 636.39 122.788 635.279C123.363 634.129 123.65 632.998 123.65 631.887C123.65 630.277 123.095 629.05 121.983 628.207C120.91 627.326 119.319 626.885 117.211 626.885C115.448 626.885 113.858 627.23 112.439 627.92C111.021 628.571 109.833 629.568 108.875 630.909L102.091 626.54C103.662 624.202 105.828 622.381 108.588 621.078C111.347 619.737 114.509 619.066 118.074 619.066C121.063 619.066 123.669 619.564 125.893 620.561C128.154 621.519 129.898 622.899 131.124 624.7C132.389 626.463 133.021 628.552 133.021 630.967C133.021 633.151 132.562 635.202 131.642 637.118C130.722 639.035 128.94 641.219 126.295 643.672L117.039 652.411H134.344Z" fill="#20201F"/>
<path d="M117.88 781.122H112.213V789.541H109.03V778.494H117.88V781.122ZM124.291 789.705C123.127 789.705 122.08 789.465 121.149 788.986C120.232 788.493 119.513 787.816 118.993 786.953C118.473 786.091 118.213 785.112 118.213 784.017C118.213 782.922 118.473 781.943 118.993 781.081C119.513 780.219 120.232 779.548 121.149 779.069C122.08 778.576 123.127 778.33 124.291 778.33C125.454 778.33 126.494 778.576 127.412 779.069C128.329 779.548 129.047 780.219 129.568 781.081C130.088 781.943 130.348 782.922 130.348 784.017C130.348 785.112 130.088 786.091 129.568 786.953C129.047 787.816 128.329 788.493 127.412 788.986C126.494 789.465 125.454 789.705 124.291 789.705ZM124.291 787.077C125.112 787.077 125.783 786.803 126.303 786.255C126.837 785.694 127.104 784.948 127.104 784.017C127.104 783.086 126.837 782.347 126.303 781.8C125.783 781.238 125.112 780.958 124.291 780.958C123.469 780.958 122.792 781.238 122.258 781.8C121.724 782.347 121.457 783.086 121.457 784.017C121.457 784.948 121.724 785.694 122.258 786.255C122.792 786.803 123.469 787.077 124.291 787.077ZM137.807 789.705C136.63 789.705 135.569 789.465 134.625 788.986C133.694 788.493 132.962 787.816 132.428 786.953C131.908 786.091 131.647 785.112 131.647 784.017C131.647 782.922 131.908 781.943 132.428 781.081C132.962 780.219 133.694 779.548 134.625 779.069C135.569 778.576 136.63 778.33 137.807 778.33C138.971 778.33 139.984 778.576 140.846 779.069C141.722 779.548 142.359 780.239 142.756 781.143L140.271 782.477C139.696 781.464 138.868 780.958 137.787 780.958C136.952 780.958 136.261 781.232 135.713 781.779C135.165 782.327 134.892 783.073 134.892 784.017C134.892 784.962 135.165 785.708 135.713 786.255C136.261 786.803 136.952 787.077 137.787 787.077C138.882 787.077 139.71 786.57 140.271 785.557L142.756 786.912C142.359 787.788 141.722 788.473 140.846 788.966C139.984 789.458 138.971 789.705 137.807 789.705ZM153.943 781.122H150.206V789.541H147.023V781.122H143.286V778.494H153.943V781.122ZM155.65 778.494H158.833V785.064L164.213 778.494H167.149V789.541H163.966V782.97L158.607 789.541H155.65V778.494ZM170.228 778.494H173.41V782.806H178.215V778.494H181.418V789.541H178.215V785.413H173.41V789.541H170.228V778.494ZM188.776 778.33C190.487 778.33 191.801 778.74 192.718 779.562C193.635 780.369 194.094 781.594 194.094 783.237V789.541H191.096V788.165C190.494 789.191 189.371 789.705 187.729 789.705C186.88 789.705 186.141 789.561 185.511 789.274C184.895 788.986 184.423 788.589 184.094 788.083C183.766 787.576 183.602 787.001 183.602 786.358C183.602 785.331 183.985 784.524 184.751 783.935C185.532 783.346 186.729 783.052 188.345 783.052H190.891C190.891 782.354 190.679 781.82 190.254 781.451C189.83 781.067 189.193 780.876 188.345 780.876C187.756 780.876 187.174 780.972 186.599 781.163C186.038 781.341 185.559 781.587 185.162 781.902L184.012 779.664C184.615 779.24 185.333 778.911 186.168 778.679C187.017 778.446 187.886 778.33 188.776 778.33ZM188.529 787.549C189.077 787.549 189.563 787.426 189.987 787.179C190.412 786.919 190.713 786.543 190.891 786.05V784.921H188.694C187.38 784.921 186.723 785.352 186.723 786.214C186.723 786.625 186.88 786.953 187.195 787.2C187.523 787.432 187.968 787.549 188.529 787.549ZM206.691 778.494V789.541H203.837V786.378H201.476L199.381 789.541H195.973L198.498 785.927C197.732 785.626 197.143 785.194 196.733 784.633C196.336 784.058 196.137 783.367 196.137 782.559C196.137 781.259 196.603 780.26 197.533 779.562C198.478 778.85 199.771 778.494 201.414 778.494H206.691ZM201.476 781.102C200.791 781.102 200.271 781.225 199.915 781.471C199.573 781.718 199.402 782.114 199.402 782.662C199.402 783.21 199.566 783.613 199.895 783.873C200.237 784.12 200.75 784.243 201.435 784.243H203.837V781.102H201.476Z" fill="#20201F"/>
<path d="M140.813 816.116V818.826H129.951V816.67L135.495 811.434C136.084 810.873 136.481 810.394 136.686 809.997C136.891 809.586 136.994 809.183 136.994 808.786C136.994 808.211 136.796 807.773 136.399 807.472C136.015 807.157 135.447 806.999 134.694 806.999C134.065 806.999 133.497 807.122 132.99 807.369C132.484 807.602 132.059 807.957 131.717 808.437L129.294 806.876C129.855 806.041 130.629 805.391 131.614 804.925C132.6 804.446 133.729 804.207 135.002 804.207C136.07 804.207 137.001 804.385 137.795 804.741C138.602 805.083 139.225 805.576 139.663 806.219C140.115 806.849 140.341 807.595 140.341 808.457C140.341 809.237 140.177 809.97 139.848 810.654C139.52 811.339 138.883 812.119 137.939 812.995L134.633 816.116H140.813ZM148.305 819.073C147.114 819.073 146.054 818.778 145.123 818.19C144.192 817.601 143.46 816.752 142.926 815.644C142.406 814.521 142.146 813.186 142.146 811.64C142.146 810.093 142.406 808.765 142.926 807.656C143.46 806.534 144.192 805.678 145.123 805.09C146.054 804.501 147.114 804.207 148.305 804.207C149.496 804.207 150.557 804.501 151.488 805.09C152.419 805.678 153.144 806.534 153.664 807.656C154.198 808.765 154.465 810.093 154.465 811.64C154.465 813.186 154.198 814.521 153.664 815.644C153.144 816.752 152.419 817.601 151.488 818.19C150.557 818.778 149.496 819.073 148.305 819.073ZM148.305 816.26C149.181 816.26 149.866 815.883 150.359 815.13C150.865 814.377 151.118 813.214 151.118 811.64C151.118 810.066 150.865 808.902 150.359 808.149C149.866 807.396 149.181 807.02 148.305 807.02C147.443 807.02 146.759 807.396 146.252 808.149C145.759 808.902 145.513 810.066 145.513 811.64C145.513 813.214 145.759 814.377 146.252 815.13C146.759 815.883 147.443 816.26 148.305 816.26ZM157.71 818.99C157.148 818.99 156.676 818.799 156.293 818.416C155.91 818.032 155.718 817.553 155.718 816.978C155.718 816.39 155.91 815.917 156.293 815.561C156.676 815.192 157.148 815.007 157.71 815.007C158.271 815.007 158.743 815.192 159.126 815.561C159.51 815.917 159.701 816.39 159.701 816.978C159.701 817.553 159.51 818.032 159.126 818.416C158.743 818.799 158.271 818.99 157.71 818.99ZM167.094 819.073C165.903 819.073 164.842 818.778 163.911 818.19C162.98 817.601 162.248 816.752 161.714 815.644C161.194 814.521 160.934 813.186 160.934 811.64C160.934 810.093 161.194 808.765 161.714 807.656C162.248 806.534 162.98 805.678 163.911 805.09C164.842 804.501 165.903 804.207 167.094 804.207C168.285 804.207 169.345 804.501 170.276 805.09C171.207 805.678 171.933 806.534 172.453 807.656C172.987 808.765 173.253 810.093 173.253 811.64C173.253 813.186 172.987 814.521 172.453 815.644C171.933 816.752 171.207 817.601 170.276 818.19C169.345 818.778 168.285 819.073 167.094 819.073ZM167.094 816.26C167.97 816.26 168.654 815.883 169.147 815.13C169.653 814.377 169.907 813.214 169.907 811.64C169.907 810.066 169.653 808.902 169.147 808.149C168.654 807.396 167.97 807.02 167.094 807.02C166.231 807.02 165.547 807.396 165.04 808.149C164.548 808.902 164.301 810.066 164.301 811.64C164.301 813.214 164.548 814.377 165.04 815.13C165.547 815.883 166.231 816.26 167.094 816.26ZM179.798 809.853C181.823 809.853 183.315 810.257 184.274 811.065C185.246 811.872 185.732 812.954 185.732 814.309C185.732 815.185 185.512 815.986 185.074 816.711C184.636 817.423 183.966 817.998 183.062 818.436C182.172 818.86 181.071 819.073 179.756 819.073C178.744 819.073 177.744 818.943 176.759 818.682C175.787 818.409 174.959 818.025 174.274 817.533L175.588 814.987C176.136 815.397 176.766 815.719 177.477 815.952C178.189 816.171 178.921 816.28 179.674 816.28C180.509 816.28 181.166 816.116 181.645 815.787C182.125 815.459 182.364 815 182.364 814.412C182.364 813.796 182.111 813.33 181.604 813.015C181.112 812.701 180.249 812.543 179.017 812.543H175.342L176.081 804.453H184.849V807.122H178.853L178.627 809.853H179.798Z" fill="#20201F"/>
<path d="M325.089 658.304C323.912 658.304 322.851 658.065 321.907 657.586C320.976 657.093 320.244 656.415 319.71 655.553C319.19 654.691 318.929 653.712 318.929 652.617C318.929 651.522 319.19 650.543 319.71 649.681C320.244 648.818 320.976 648.148 321.907 647.668C322.851 647.176 323.912 646.929 325.089 646.929C326.253 646.929 327.266 647.176 328.128 647.668C329.004 648.148 329.641 648.839 330.038 649.742L327.553 651.077C326.978 650.064 326.15 649.557 325.069 649.557C324.234 649.557 323.543 649.831 322.995 650.379C322.447 650.926 322.174 651.672 322.174 652.617C322.174 653.561 322.447 654.307 322.995 654.855C323.543 655.402 324.234 655.676 325.069 655.676C326.164 655.676 326.992 655.17 327.553 654.157L330.038 655.512C329.641 656.388 329.004 657.072 328.128 657.565C327.266 658.058 326.253 658.304 325.089 658.304ZM342.969 647.093V658.14H339.766V649.722H335.167V658.14H331.984V647.093H342.969ZM350.332 646.929C352.043 646.929 353.357 647.34 354.274 648.161C355.191 648.969 355.65 650.194 355.65 651.837V658.14H352.652V656.764C352.05 657.791 350.927 658.304 349.285 658.304C348.436 658.304 347.697 658.161 347.067 657.873C346.451 657.586 345.979 657.189 345.65 656.682C345.322 656.176 345.157 655.601 345.157 654.958C345.157 653.931 345.541 653.123 346.307 652.535C347.087 651.946 348.285 651.652 349.9 651.652H352.447C352.447 650.954 352.234 650.42 351.81 650.05C351.386 649.667 350.749 649.475 349.9 649.475C349.312 649.475 348.73 649.571 348.155 649.763C347.594 649.941 347.115 650.187 346.718 650.502L345.568 648.264C346.17 647.84 346.889 647.511 347.724 647.278C348.573 647.046 349.442 646.929 350.332 646.929ZM350.085 656.148C350.633 656.148 351.119 656.025 351.543 655.779C351.967 655.519 352.269 655.142 352.447 654.65V653.52H350.25C348.935 653.52 348.278 653.951 348.278 654.814C348.278 655.224 348.436 655.553 348.751 655.799C349.079 656.032 349.524 656.148 350.085 656.148ZM369.027 647.093V658.14H365.824V649.722H362.333L362.231 651.672C362.176 653.123 362.039 654.328 361.82 655.286C361.601 656.244 361.245 656.997 360.752 657.545C360.26 658.092 359.575 658.366 358.699 658.366C358.234 658.366 357.679 658.284 357.036 658.12L357.2 655.491C357.419 655.519 357.577 655.532 357.672 655.532C358.152 655.532 358.507 655.361 358.74 655.019C358.987 654.663 359.151 654.218 359.233 653.685C359.315 653.137 359.377 652.418 359.418 651.529L359.582 647.093H369.027ZM378.082 650.625C379.52 650.639 380.622 650.967 381.388 651.611C382.155 652.24 382.538 653.137 382.538 654.301C382.538 655.519 382.107 656.47 381.244 657.155C380.396 657.825 379.198 658.161 377.651 658.161L372.107 658.14V647.093H375.29V650.625H378.082ZM377.364 655.882C377.98 655.895 378.452 655.765 378.781 655.491C379.109 655.218 379.273 654.807 379.273 654.259C379.273 653.726 379.109 653.335 378.781 653.089C378.466 652.843 377.993 652.713 377.364 652.699L375.29 652.678V655.882H377.364ZM384.539 647.093H387.722V651.405H392.527V647.093H395.73V658.14H392.527V654.013H387.722V658.14H384.539V647.093ZM408.611 647.093V658.14H405.757V654.978H403.395L401.301 658.14H397.893L400.418 654.526C399.652 654.225 399.063 653.794 398.652 653.233C398.255 652.658 398.057 651.967 398.057 651.159C398.057 649.859 398.522 648.859 399.453 648.161C400.398 647.449 401.691 647.093 403.334 647.093H408.611ZM403.395 649.701C402.711 649.701 402.191 649.824 401.835 650.071C401.493 650.317 401.322 650.714 401.322 651.262C401.322 651.809 401.486 652.213 401.814 652.473C402.157 652.719 402.67 652.843 403.354 652.843H405.757V649.701H403.395Z" fill="#20201F"/>
<path d="M345.745 673.053V687.426H342.419V675.723H339.544V673.053H345.745ZM361.403 684.408H359.063V687.426H355.818V684.408H348.078V682.17L354.853 673.053H358.344L352.061 681.698H355.921V679.008H359.063V681.698H361.403V684.408ZM364.688 687.591C364.127 687.591 363.655 687.399 363.272 687.016C362.888 686.632 362.697 686.153 362.697 685.578C362.697 684.99 362.888 684.517 363.272 684.162C363.655 683.792 364.127 683.607 364.688 683.607C365.25 683.607 365.722 683.792 366.105 684.162C366.488 684.517 366.68 684.99 366.68 685.578C366.68 686.153 366.488 686.632 366.105 687.016C365.722 687.399 365.25 687.591 364.688 687.591ZM373.396 673.053V687.426H370.07V675.723H367.195V673.053H373.396ZM382.053 687.673C380.862 687.673 379.801 687.378 378.87 686.79C377.939 686.201 377.207 685.352 376.673 684.244C376.153 683.121 375.893 681.787 375.893 680.24C375.893 678.693 376.153 677.365 376.673 676.256C377.207 675.134 377.939 674.278 378.87 673.69C379.801 673.101 380.862 672.807 382.053 672.807C383.244 672.807 384.305 673.101 385.235 673.69C386.166 674.278 386.892 675.134 387.412 676.256C387.946 677.365 388.213 678.693 388.213 680.24C388.213 681.787 387.946 683.121 387.412 684.244C386.892 685.352 386.166 686.201 385.235 686.79C384.305 687.378 383.244 687.673 382.053 687.673ZM382.053 684.86C382.929 684.86 383.613 684.483 384.106 683.73C384.613 682.977 384.866 681.814 384.866 680.24C384.866 678.666 384.613 677.502 384.106 676.749C383.613 675.996 382.929 675.62 382.053 675.62C381.19 675.62 380.506 675.996 380 676.749C379.507 677.502 379.26 678.666 379.26 680.24C379.26 681.814 379.507 682.977 380 683.73C380.506 684.483 381.19 684.86 382.053 684.86Z" fill="#20201F"/>
<path d="M137.55 214.669H135.887V218.858H132.684V207.812H135.887V212.103H137.612L140.609 207.812H144.018L140.158 213.109L144.285 218.858H140.507L137.55 214.669ZM156.303 207.812L151.314 219.536C150.807 220.809 150.178 221.705 149.425 222.226C148.686 222.746 147.789 223.006 146.735 223.006C146.16 223.006 145.592 222.917 145.031 222.739C144.469 222.561 144.011 222.315 143.655 222L144.825 219.721C145.072 219.94 145.352 220.111 145.667 220.234C145.996 220.357 146.317 220.419 146.632 220.419C147.07 220.419 147.426 220.309 147.7 220.09C147.974 219.885 148.22 219.536 148.439 219.043L148.48 218.94L143.696 207.812H147.002L150.102 215.306L153.223 207.812H156.303ZM164.167 218.858L161.744 215.47L159.239 218.858H155.749L159.999 213.294L155.892 207.812H159.485L161.826 211.035L164.229 207.812H167.637L163.53 213.212L167.801 218.858H164.167ZM169.378 207.812H172.561V212.123H177.365V207.812H180.568V218.858H177.365V214.731H172.561V218.858H169.378V207.812ZM193.449 207.812V218.858H190.595V215.696H188.234L186.14 218.858H182.731L185.257 215.244C184.49 214.943 183.902 214.512 183.491 213.951C183.094 213.376 182.896 212.685 182.896 211.877C182.896 210.577 183.361 209.577 184.292 208.879C185.236 208.167 186.53 207.812 188.173 207.812H193.449ZM188.234 210.419C187.55 210.419 187.03 210.542 186.674 210.789C186.331 211.035 186.16 211.432 186.16 211.98C186.16 212.527 186.325 212.931 186.653 213.191C186.995 213.437 187.509 213.561 188.193 213.561H190.595V210.419H188.234Z" fill="#20201F"/>
<path d="M144.49 233.771V248.144H141.164V236.44H138.289V233.771H144.49ZM153.701 239.623C154.96 239.828 155.925 240.3 156.596 241.039C157.267 241.765 157.602 242.668 157.602 243.75C157.602 244.585 157.383 245.358 156.945 246.07C156.507 246.768 155.836 247.329 154.933 247.754C154.043 248.178 152.948 248.39 151.648 248.39C150.635 248.39 149.635 248.26 148.65 248C147.678 247.726 146.85 247.343 146.165 246.85L147.459 244.304C148.007 244.715 148.636 245.037 149.348 245.269C150.073 245.488 150.813 245.598 151.566 245.598C152.401 245.598 153.058 245.44 153.537 245.125C154.016 244.797 154.255 244.338 154.255 243.75C154.255 242.573 153.359 241.984 151.566 241.984H150.046V239.787L153.003 236.44H146.884V233.771H156.945V235.927L153.701 239.623ZM161.027 248.308C160.466 248.308 159.994 248.116 159.61 247.733C159.227 247.35 159.035 246.871 159.035 246.296C159.035 245.707 159.227 245.235 159.61 244.879C159.994 244.509 160.466 244.325 161.027 244.325C161.588 244.325 162.06 244.509 162.444 244.879C162.827 245.235 163.019 245.707 163.019 246.296C163.019 246.871 162.827 247.35 162.444 247.733C162.06 248.116 161.588 248.308 161.027 248.308ZM169.44 239.171C171.466 239.171 172.958 239.575 173.916 240.382C174.888 241.19 175.374 242.271 175.374 243.627C175.374 244.503 175.155 245.303 174.717 246.029C174.279 246.741 173.608 247.316 172.704 247.754C171.815 248.178 170.713 248.39 169.399 248.39C168.386 248.39 167.386 248.26 166.401 248C165.429 247.726 164.601 247.343 163.916 246.85L165.23 244.304C165.778 244.715 166.408 245.037 167.119 245.269C167.831 245.488 168.564 245.598 169.316 245.598C170.151 245.598 170.809 245.433 171.288 245.105C171.767 244.776 172.006 244.318 172.006 243.729C172.006 243.113 171.753 242.648 171.247 242.333C170.754 242.018 169.891 241.861 168.659 241.861H164.984L165.723 233.771H174.491V236.44H168.495L168.269 239.171H169.44ZM183.337 239.623C184.597 239.828 185.562 240.3 186.232 241.039C186.903 241.765 187.238 242.668 187.238 243.75C187.238 244.585 187.019 245.358 186.581 246.07C186.143 246.768 185.473 247.329 184.569 247.754C183.679 248.178 182.584 248.39 181.284 248.39C180.271 248.39 179.272 248.26 178.286 248C177.314 247.726 176.486 247.343 175.802 246.85L177.095 244.304C177.643 244.715 178.272 245.037 178.984 245.269C179.71 245.488 180.449 245.598 181.202 245.598C182.037 245.598 182.694 245.44 183.173 245.125C183.652 244.797 183.892 244.338 183.892 243.75C183.892 242.573 182.995 241.984 181.202 241.984H179.682V239.787L182.639 236.44H176.52V233.771H186.581V235.927L183.337 239.623Z" fill="#20201F"/>
<path d="M276.296 456.234L273.29 452.274L270.266 456.234H268.826L272.57 451.374L269.006 446.766H270.446L273.29 450.474L276.134 446.766H277.538L273.974 451.374L277.754 456.234H276.296ZM283.421 456.324C282.509 456.324 281.687 456.12 280.955 455.712C280.223 455.292 279.647 454.716 279.227 453.984C278.807 453.252 278.597 452.424 278.597 451.5C278.597 450.576 278.807 449.748 279.227 449.016C279.647 448.284 280.223 447.714 280.955 447.306C281.687 446.898 282.509 446.694 283.421 446.694C284.333 446.694 285.155 446.898 285.887 447.306C286.619 447.714 287.189 448.284 287.597 449.016C288.017 449.748 288.227 450.576 288.227 451.5C288.227 452.424 288.017 453.252 287.597 453.984C287.189 454.716 286.619 455.292 285.887 455.712C285.155 456.12 284.333 456.324 283.421 456.324ZM283.421 455.19C284.093 455.19 284.693 455.04 285.221 454.74C285.761 454.428 286.181 453.99 286.481 453.426C286.781 452.862 286.931 452.22 286.931 451.5C286.931 450.78 286.781 450.138 286.481 449.574C286.181 449.01 285.761 448.578 285.221 448.278C284.693 447.966 284.093 447.81 283.421 447.81C282.749 447.81 282.143 447.966 281.603 448.278C281.075 448.578 280.655 449.01 280.343 449.574C280.043 450.138 279.893 450.78 279.893 451.5C279.893 452.22 280.043 452.862 280.343 453.426C280.655 453.99 281.075 454.428 281.603 454.74C282.143 455.04 282.749 455.19 283.421 455.19ZM298.645 446.766V456.234H297.367V447.9H292.831L292.705 450.24C292.609 452.208 292.381 453.72 292.021 454.776C291.661 455.832 291.019 456.36 290.095 456.36C289.843 456.36 289.537 456.312 289.177 456.216L289.267 455.118C289.483 455.166 289.633 455.19 289.717 455.19C290.209 455.19 290.581 454.962 290.833 454.506C291.085 454.05 291.253 453.486 291.337 452.814C291.421 452.142 291.493 451.254 291.553 450.15L291.715 446.766H298.645ZM310.018 446.766V456.234H308.74V447.9H304.204L304.078 450.24C303.982 452.208 303.754 453.72 303.394 454.776C303.034 455.832 302.392 456.36 301.468 456.36C301.216 456.36 300.91 456.312 300.55 456.216L300.64 455.118C300.856 455.166 301.006 455.19 301.09 455.19C301.582 455.19 301.954 454.962 302.206 454.506C302.458 454.05 302.626 453.486 302.71 452.814C302.794 452.142 302.866 451.254 302.926 450.15L303.088 446.766H310.018Z" fill="#20201F"/>
<path d="M280.337 477.978C281.165 477.978 281.897 478.134 282.533 478.446C283.181 478.758 283.685 479.202 284.045 479.778C284.405 480.342 284.585 481.002 284.585 481.758C284.585 482.526 284.399 483.204 284.027 483.792C283.655 484.38 283.139 484.836 282.479 485.16C281.831 485.472 281.099 485.628 280.283 485.628C278.615 485.628 277.337 485.082 276.449 483.99C275.561 482.886 275.117 481.332 275.117 479.328C275.117 477.924 275.357 476.736 275.837 475.764C276.317 474.792 276.989 474.06 277.853 473.568C278.717 473.064 279.725 472.812 280.877 472.812C282.125 472.812 283.121 473.04 283.865 473.496L283.343 474.54C282.743 474.144 281.927 473.946 280.895 473.946C279.503 473.946 278.411 474.39 277.619 475.278C276.827 476.154 276.431 477.432 276.431 479.112C276.431 479.412 276.449 479.754 276.485 480.138C276.797 479.454 277.295 478.926 277.979 478.554C278.663 478.17 279.449 477.978 280.337 477.978ZM280.229 484.53C281.141 484.53 281.879 484.284 282.443 483.792C283.019 483.288 283.307 482.622 283.307 481.794C283.307 480.966 283.019 480.306 282.443 479.814C281.879 479.322 281.111 479.076 280.139 479.076C279.503 479.076 278.939 479.196 278.447 479.436C277.967 479.676 277.589 480.006 277.313 480.426C277.037 480.846 276.899 481.314 276.899 481.83C276.899 482.31 277.025 482.754 277.277 483.162C277.541 483.57 277.925 483.9 278.429 484.152C278.933 484.404 279.533 484.53 280.229 484.53ZM287.234 485.61C286.97 485.61 286.742 485.514 286.55 485.322C286.37 485.13 286.28 484.896 286.28 484.62C286.28 484.344 286.37 484.116 286.55 483.936C286.742 483.744 286.97 483.648 287.234 483.648C287.498 483.648 287.726 483.744 287.918 483.936C288.11 484.116 288.206 484.344 288.206 484.62C288.206 484.896 288.11 485.13 287.918 485.322C287.726 485.514 287.498 485.61 287.234 485.61ZM298.757 472.92V473.838L293.483 485.52H292.079L297.263 474.072H290.783V476.43H289.505V472.92H298.757ZM304.133 472.92V485.52H302.837V474.072H299.867V472.92H304.133Z" fill="#20201F"/>
<path d="M138.558 67.8441V77.3123H137.28V68.9781H132.744L132.618 71.3182C132.522 73.2862 132.294 74.7982 131.934 75.8542C131.574 76.9102 130.932 77.4383 130.008 77.4383C129.756 77.4383 129.45 77.3903 129.09 77.2943L129.18 76.1962C129.396 76.2442 129.546 76.2682 129.63 76.2682C130.122 76.2682 130.494 76.0402 130.746 75.5842C130.998 75.1282 131.166 74.5642 131.25 73.8922C131.334 73.2202 131.406 72.3322 131.466 71.2282L131.628 67.8441H138.558ZM146.097 77.4023C145.185 77.4023 144.363 77.1983 143.631 76.7902C142.899 76.3702 142.323 75.7942 141.903 75.0622C141.483 74.3302 141.273 73.5022 141.273 72.5782C141.273 71.6542 141.483 70.8261 141.903 70.0941C142.323 69.3621 142.899 68.7921 143.631 68.3841C144.363 67.9761 145.185 67.7721 146.097 67.7721C147.009 67.7721 147.831 67.9761 148.563 68.3841C149.295 68.7921 149.865 69.3621 150.273 70.0941C150.693 70.8261 150.903 71.6542 150.903 72.5782C150.903 73.5022 150.693 74.3302 150.273 75.0622C149.865 75.7942 149.295 76.3702 148.563 76.7902C147.831 77.1983 147.009 77.4023 146.097 77.4023ZM146.097 76.2682C146.769 76.2682 147.369 76.1182 147.897 75.8182C148.437 75.5062 148.857 75.0682 149.157 74.5042C149.457 73.9402 149.607 73.2982 149.607 72.5782C149.607 71.8582 149.457 71.2162 149.157 70.6521C148.857 70.0881 148.437 69.6561 147.897 69.3561C147.369 69.0441 146.769 68.8881 146.097 68.8881C145.425 68.8881 144.819 69.0441 144.279 69.3561C143.751 69.6561 143.331 70.0881 143.019 70.6521C142.719 71.2162 142.569 71.8582 142.569 72.5782C142.569 73.2982 142.719 73.9402 143.019 74.5042C143.331 75.0682 143.751 75.5062 144.279 75.8182C144.819 76.1182 145.425 76.2682 146.097 76.2682ZM162.816 76.1962V79.5983H161.61V77.3123H153.132V79.5983H151.926V76.1962H152.466C153.102 76.1602 153.534 75.6922 153.762 74.7922C153.99 73.8922 154.146 72.6322 154.23 71.0122L154.356 67.8441H161.34V76.1962H162.816ZM155.4 71.0842C155.34 72.4282 155.226 73.5382 155.058 74.4142C154.89 75.2782 154.59 75.8722 154.158 76.1962H160.062V68.9781H155.508L155.4 71.0842ZM173.605 73.1002H171.553V77.3123H170.275V73.1002H168.223L165.325 77.3123H163.795L167.197 72.4342L164.065 67.8441H165.451L168.223 72.0022H170.275V67.8441H171.553V72.0022H173.605L176.395 67.8441H177.781L174.649 72.4522L178.051 77.3123H176.521L173.605 73.1002ZM180.178 67.8441H181.456V75.3682L187.774 67.8441H188.908V77.3123H187.63V69.7881L181.33 77.3123H180.178V67.8441ZM199.843 67.8441V77.3123H198.673V74.1802H195.703H195.343L193.147 77.3123H191.761L194.119 74.0002C193.387 73.7962 192.823 73.4482 192.427 72.9562C192.031 72.4642 191.833 71.8402 191.833 71.0842C191.833 70.0281 192.193 69.2241 192.913 68.6721C193.633 68.1201 194.617 67.8441 195.865 67.8441H199.843ZM193.129 71.1202C193.129 72.5242 194.023 73.2262 195.811 73.2262H198.673V68.9781H195.901C194.053 68.9781 193.129 69.6921 193.129 71.1202Z" fill="#20201F"/>
<path d="M160.646 103.286H158.126V106.598H156.83V103.286H149.72V102.35L156.398 93.9977H157.838L151.394 102.134H156.866V99.2178H158.126V102.134H160.646V103.286ZM163.16 106.688C162.896 106.688 162.668 106.592 162.476 106.4C162.296 106.208 162.206 105.974 162.206 105.698C162.206 105.422 162.296 105.194 162.476 105.014C162.668 104.822 162.896 104.726 163.16 104.726C163.424 104.726 163.652 104.822 163.844 105.014C164.036 105.194 164.132 105.422 164.132 105.698C164.132 105.974 164.036 106.208 163.844 106.4C163.652 106.592 163.424 106.688 163.16 106.688ZM169.284 93.9977V106.598H167.988V95.1497H165.018V93.9977H169.284ZM181.188 93.9977V94.9157L175.914 106.598H174.51L179.694 95.1497H173.214V97.5077H171.936V93.9977H181.188Z" fill="#20201F"/>
<path d="M347.558 861.645V871.113H346.28V862.779H341.744L341.618 865.119C341.522 867.087 341.294 868.599 340.934 869.655C340.574 870.711 339.932 871.239 339.008 871.239C338.756 871.239 338.45 871.191 338.09 871.095L338.18 869.997C338.396 870.045 338.546 870.069 338.63 870.069C339.122 870.069 339.494 869.841 339.746 869.385C339.998 868.929 340.166 868.365 340.25 867.693C340.334 867.021 340.406 866.133 340.466 865.029L340.628 861.645H347.558ZM355.097 871.203C354.185 871.203 353.363 870.999 352.631 870.591C351.899 870.171 351.323 869.595 350.903 868.863C350.483 868.131 350.273 867.303 350.273 866.379C350.273 865.455 350.483 864.627 350.903 863.895C351.323 863.163 351.899 862.593 352.631 862.185C353.363 861.777 354.185 861.573 355.097 861.573C356.009 861.573 356.831 861.777 357.563 862.185C358.295 862.593 358.865 863.163 359.273 863.895C359.693 864.627 359.903 865.455 359.903 866.379C359.903 867.303 359.693 868.131 359.273 868.863C358.865 869.595 358.295 870.171 357.563 870.591C356.831 870.999 356.009 871.203 355.097 871.203ZM355.097 870.069C355.769 870.069 356.369 869.919 356.897 869.619C357.437 869.307 357.857 868.869 358.157 868.305C358.457 867.741 358.607 867.099 358.607 866.379C358.607 865.659 358.457 865.017 358.157 864.453C357.857 863.889 357.437 863.457 356.897 863.157C356.369 862.845 355.769 862.689 355.097 862.689C354.425 862.689 353.819 862.845 353.279 863.157C352.751 863.457 352.331 863.889 352.019 864.453C351.719 865.017 351.569 865.659 351.569 866.379C351.569 867.099 351.719 867.741 352.019 868.305C352.331 868.869 352.751 869.307 353.279 869.619C353.819 869.919 354.425 870.069 355.097 870.069ZM371.816 869.997V873.399H370.61V871.113H362.132V873.399H360.926V869.997H361.466C362.102 869.961 362.534 869.493 362.762 868.593C362.99 867.693 363.146 866.433 363.23 864.813L363.356 861.645H370.34V869.997H371.816ZM364.4 864.885C364.34 866.229 364.226 867.339 364.058 868.215C363.89 869.079 363.59 869.673 363.158 869.997H369.062V862.779H364.508L364.4 864.885ZM382.605 866.901H380.553V871.113H379.275V866.901H377.223L374.325 871.113H372.795L376.197 866.235L373.065 861.645H374.451L377.223 865.803H379.275V861.645H380.553V865.803H382.605L385.395 861.645H386.781L383.649 866.253L387.051 871.113H385.521L382.605 866.901ZM389.178 861.645H390.456V869.169L396.774 861.645H397.908V871.113H396.63V863.589L390.33 871.113H389.178V861.645ZM408.843 861.645V871.113H407.673V867.981H404.703H404.343L402.147 871.113H400.761L403.119 867.801C402.387 867.597 401.823 867.249 401.427 866.757C401.031 866.265 400.833 865.641 400.833 864.885C400.833 863.829 401.193 863.025 401.913 862.473C402.633 861.921 403.617 861.645 404.865 861.645H408.843ZM402.129 864.921C402.129 866.325 403.023 867.027 404.811 867.027H407.673V862.779H404.901C403.053 862.779 402.129 863.493 402.129 864.921Z" fill="#20201F"/>
<path d="M362.22 893.199C363.54 893.271 364.542 893.631 365.226 894.279C365.922 894.915 366.27 895.749 366.27 896.781C366.27 897.501 366.096 898.143 365.748 898.707C365.4 899.259 364.884 899.697 364.2 900.021C363.516 900.345 362.682 900.507 361.698 900.507C360.786 900.507 359.922 900.363 359.106 900.075C358.302 899.775 357.654 899.379 357.162 898.887L357.792 897.861C358.212 898.293 358.77 898.647 359.466 898.923C360.162 899.187 360.906 899.319 361.698 899.319C362.73 899.319 363.528 899.097 364.092 898.653C364.656 898.197 364.938 897.573 364.938 896.781C364.938 896.001 364.656 895.389 364.092 894.945C363.528 894.501 362.676 894.279 361.536 894.279H360.636V893.325L364.128 888.951H357.684V887.799H365.784V888.717L362.22 893.199ZM369.068 900.489C368.804 900.489 368.576 900.393 368.384 900.201C368.204 900.009 368.114 899.775 368.114 899.499C368.114 899.223 368.204 898.995 368.384 898.815C368.576 898.623 368.804 898.527 369.068 898.527C369.332 898.527 369.56 898.623 369.752 898.815C369.944 898.995 370.04 899.223 370.04 899.499C370.04 899.775 369.944 900.009 369.752 900.201C369.56 900.393 369.332 900.489 369.068 900.489ZM380.691 899.247V900.399H371.853V899.481L377.091 894.351C377.751 893.703 378.195 893.145 378.423 892.677C378.663 892.197 378.783 891.717 378.783 891.237C378.783 890.493 378.525 889.917 378.009 889.509C377.505 889.089 376.779 888.879 375.831 888.879C374.355 888.879 373.209 889.347 372.393 890.283L371.475 889.491C371.967 888.915 372.591 888.471 373.347 888.159C374.115 887.847 374.979 887.691 375.939 887.691C377.223 887.691 378.237 887.997 378.981 888.609C379.737 889.209 380.115 890.037 380.115 891.093C380.115 891.741 379.971 892.365 379.683 892.965C379.395 893.565 378.849 894.255 378.045 895.035L373.761 899.247H380.691ZM387.467 892.857C388.295 892.857 389.027 893.013 389.663 893.325C390.311 893.637 390.815 894.081 391.175 894.657C391.535 895.221 391.715 895.881 391.715 896.637C391.715 897.405 391.529 898.083 391.157 898.671C390.785 899.259 390.269 899.715 389.609 900.039C388.961 900.351 388.229 900.507 387.413 900.507C385.745 900.507 384.467 899.961 383.579 898.869C382.691 897.765 382.247 896.211 382.247 894.207C382.247 892.803 382.487 891.615 382.967 890.643C383.447 889.671 384.119 888.939 384.983 888.447C385.847 887.943 386.855 887.691 388.007 887.691C389.255 887.691 390.251 887.919 390.995 888.375L390.473 889.419C389.873 889.023 389.057 888.825 388.025 888.825C386.633 888.825 385.541 889.269 384.749 890.157C383.957 891.033 383.561 892.311 383.561 893.991C383.561 894.291 383.579 894.633 383.615 895.017C383.927 894.333 384.425 893.805 385.109 893.433C385.793 893.049 386.579 892.857 387.467 892.857ZM387.359 899.409C388.271 899.409 389.009 899.163 389.573 898.671C390.149 898.167 390.437 897.501 390.437 896.673C390.437 895.845 390.149 895.185 389.573 894.693C389.009 894.201 388.241 893.955 387.269 893.955C386.633 893.955 386.069 894.075 385.577 894.315C385.097 894.555 384.719 894.885 384.443 895.305C384.167 895.725 384.029 896.193 384.029 896.709C384.029 897.189 384.155 897.633 384.407 898.041C384.671 898.449 385.055 898.779 385.559 899.031C386.063 899.283 386.663 899.409 387.359 899.409Z" fill="#20201F"/>
<path d="M107.522 469.298C108.842 469.37 109.844 469.73 110.528 470.378C111.224 471.014 111.572 471.848 111.572 472.88C111.572 473.6 111.398 474.242 111.05 474.806C110.702 475.358 110.186 475.796 109.502 476.12C108.818 476.444 107.984 476.606 107 476.606C106.088 476.606 105.224 476.462 104.408 476.174C103.604 475.874 102.956 475.478 102.464 474.986L103.094 473.96C103.514 474.392 104.072 474.746 104.768 475.022C105.464 475.286 106.208 475.418 107 475.418C108.032 475.418 108.83 475.196 109.394 474.752C109.958 474.296 110.24 473.672 110.24 472.88C110.24 472.1 109.958 471.488 109.394 471.044C108.83 470.6 107.978 470.378 106.838 470.378H105.938V469.424L109.43 465.05H102.986V463.898H111.086V464.816L107.522 469.298ZM114.37 476.588C114.106 476.588 113.878 476.492 113.686 476.3C113.506 476.108 113.416 475.874 113.416 475.598C113.416 475.322 113.506 475.094 113.686 474.914C113.878 474.722 114.106 474.626 114.37 474.626C114.634 474.626 114.862 474.722 115.054 474.914C115.246 475.094 115.342 475.322 115.342 475.598C115.342 475.874 115.246 476.108 115.054 476.3C114.862 476.492 114.634 476.588 114.37 476.588ZM120.493 463.898V476.498H119.197V465.05H116.227V463.898H120.493ZM132.109 475.346V476.498H123.271V475.58L128.509 470.45C129.169 469.802 129.613 469.244 129.841 468.776C130.081 468.296 130.201 467.816 130.201 467.336C130.201 466.592 129.943 466.016 129.427 465.608C128.923 465.188 128.197 464.978 127.249 464.978C125.773 464.978 124.627 465.446 123.811 466.382L122.893 465.59C123.385 465.014 124.009 464.57 124.765 464.258C125.533 463.946 126.397 463.79 127.357 463.79C128.641 463.79 129.655 464.096 130.399 464.708C131.155 465.308 131.533 466.136 131.533 467.192C131.533 467.84 131.389 468.464 131.101 469.064C130.813 469.664 130.267 470.354 129.463 471.134L125.179 475.346H132.109Z" fill="#20201F"/>
<path d="M309.687 305.017C310.515 305.017 311.247 305.173 311.883 305.485C312.531 305.797 313.035 306.241 313.395 306.817C313.755 307.381 313.935 308.041 313.935 308.797C313.935 309.565 313.749 310.243 313.377 310.831C313.005 311.419 312.489 311.875 311.829 312.199C311.181 312.511 310.449 312.667 309.633 312.667C307.965 312.667 306.687 312.121 305.799 311.029C304.911 309.925 304.467 308.371 304.467 306.367C304.467 304.963 304.707 303.775 305.187 302.803C305.667 301.831 306.339 301.099 307.203 300.607C308.067 300.103 309.075 299.851 310.227 299.851C311.475 299.851 312.471 300.079 313.215 300.535L312.693 301.579C312.093 301.183 311.277 300.985 310.245 300.985C308.853 300.985 307.761 301.429 306.969 302.317C306.177 303.193 305.781 304.471 305.781 306.151C305.781 306.451 305.799 306.793 305.835 307.177C306.147 306.493 306.645 305.965 307.329 305.593C308.013 305.209 308.799 305.017 309.687 305.017ZM309.579 311.569C310.491 311.569 311.229 311.323 311.793 310.831C312.369 310.327 312.657 309.661 312.657 308.833C312.657 308.005 312.369 307.345 311.793 306.853C311.229 306.361 310.461 306.115 309.489 306.115C308.853 306.115 308.289 306.235 307.797 306.475C307.317 306.715 306.939 307.045 306.663 307.465C306.387 307.885 306.249 308.353 306.249 308.869C306.249 309.349 306.375 309.793 306.627 310.201C306.891 310.609 307.275 310.939 307.779 311.191C308.283 311.443 308.883 311.569 309.579 311.569ZM316.583 312.649C316.319 312.649 316.091 312.553 315.899 312.361C315.719 312.169 315.629 311.935 315.629 311.659C315.629 311.383 315.719 311.155 315.899 310.975C316.091 310.783 316.319 310.687 316.583 310.687C316.847 310.687 317.075 310.783 317.267 310.975C317.459 311.155 317.555 311.383 317.555 311.659C317.555 311.935 317.459 312.169 317.267 312.361C317.075 312.553 316.847 312.649 316.583 312.649ZM323.35 299.851C325.018 299.851 326.296 300.403 327.184 301.507C328.072 302.599 328.516 304.147 328.516 306.151C328.516 307.555 328.276 308.743 327.796 309.715C327.316 310.687 326.644 311.425 325.78 311.929C324.916 312.421 323.908 312.667 322.756 312.667C321.508 312.667 320.512 312.439 319.768 311.983L320.29 310.939C320.89 311.335 321.706 311.533 322.738 311.533C324.13 311.533 325.222 311.095 326.014 310.219C326.806 309.331 327.202 308.047 327.202 306.367C327.202 306.055 327.184 305.713 327.148 305.341C326.836 306.025 326.338 306.559 325.654 306.943C324.97 307.315 324.184 307.501 323.296 307.501C322.468 307.501 321.73 307.345 321.082 307.033C320.446 306.721 319.948 306.283 319.588 305.719C319.228 305.143 319.048 304.477 319.048 303.721C319.048 302.953 319.234 302.275 319.606 301.687C319.978 301.099 320.488 300.649 321.136 300.337C321.796 300.013 322.534 299.851 323.35 299.851ZM323.494 306.403C324.13 306.403 324.688 306.283 325.168 306.043C325.66 305.803 326.044 305.473 326.32 305.053C326.596 304.633 326.734 304.165 326.734 303.649C326.734 303.169 326.602 302.725 326.338 302.317C326.086 301.909 325.708 301.579 325.204 301.327C324.7 301.075 324.1 300.949 323.404 300.949C322.492 300.949 321.748 301.201 321.172 301.705C320.608 302.197 320.326 302.857 320.326 303.685C320.326 304.513 320.608 305.173 321.172 305.665C321.748 306.157 322.522 306.403 323.494 306.403ZM341.104 309.247H338.584V312.559H337.288V309.247H330.178V308.311L336.856 299.959H338.296L331.852 308.095H337.324V305.179H338.584V308.095H341.104V309.247Z" fill="#20201F"/>
<path d="M359.318 376.12V388.72H358.022V377.272H355.052V376.12H359.318ZM363.302 388.81C363.038 388.81 362.81 388.714 362.618 388.522C362.438 388.33 362.348 388.096 362.348 387.82C362.348 387.544 362.438 387.316 362.618 387.136C362.81 386.944 363.038 386.848 363.302 386.848C363.566 386.848 363.794 386.944 363.986 387.136C364.178 387.316 364.274 387.544 364.274 387.82C364.274 388.096 364.178 388.33 363.986 388.522C363.794 388.714 363.566 388.81 363.302 388.81ZM369.426 376.12V388.72H368.13V377.272H365.16V376.12H369.426ZM376.361 376.012C378.029 376.012 379.307 376.564 380.195 377.668C381.083 378.76 381.527 380.308 381.527 382.312C381.527 383.716 381.287 384.904 380.807 385.876C380.327 386.848 379.655 387.586 378.791 388.09C377.927 388.582 376.919 388.828 375.767 388.828C374.519 388.828 373.523 388.6 372.779 388.144L373.301 387.1C373.901 387.496 374.717 387.694 375.749 387.694C377.141 387.694 378.233 387.256 379.025 386.38C379.817 385.492 380.213 384.208 380.213 382.528C380.213 382.216 380.195 381.874 380.159 381.502C379.847 382.186 379.349 382.72 378.665 383.104C377.981 383.476 377.195 383.662 376.307 383.662C375.479 383.662 374.741 383.506 374.093 383.194C373.457 382.882 372.959 382.444 372.599 381.88C372.239 381.304 372.059 380.638 372.059 379.882C372.059 379.114 372.245 378.436 372.617 377.848C372.989 377.26 373.499 376.81 374.147 376.498C374.807 376.174 375.545 376.012 376.361 376.012ZM376.505 382.564C377.141 382.564 377.699 382.444 378.179 382.204C378.671 381.964 379.055 381.634 379.331 381.214C379.607 380.794 379.745 380.326 379.745 379.81C379.745 379.33 379.613 378.886 379.349 378.478C379.097 378.07 378.719 377.74 378.215 377.488C377.711 377.236 377.111 377.11 376.415 377.11C375.503 377.11 374.759 377.362 374.183 377.866C373.619 378.358 373.337 379.018 373.337 379.846C373.337 380.674 373.619 381.334 374.183 381.826C374.759 382.318 375.533 382.564 376.505 382.564Z" fill="#20201F"/>
</g>
<defs>
<clipPath id="clip0_2384_28733">
<rect width="431.184" height="893.708" fill="white" transform="translate(34 28)"/>
</clipPath>
</defs>
</svg>
