<svg width="950" height="550" viewBox="0 0 950 550" fill="none" xmlns="http://www.w3.org/2000/svg">
<rect width="950" height="550" fill="white"/>
<g clip-path="url(#clip0_2384_28739)">
<path fill-rule="evenodd" clip-rule="evenodd" d="M104.894 40H902.568V288.536H625.314V510.115H48V257.99H104.894V40Z" fill="#FFE900"/>
<path d="M610.338 495.139H48V510.115H610.338V495.139Z" fill="#CFD0D0"/>
<path fill-rule="evenodd" clip-rule="evenodd" d="M104.894 40H902.568V288.536H625.314V510.115H48V257.99H104.894V40Z" fill="#E4CDA1"/>
<path d="M887.015 40H872.048V54.9755H887.015V40Z" fill="#20201F"/>
<path d="M135.437 40H120.465V54.9755H135.437V40Z" fill="#20201F"/>
<path d="M270.181 273.561H63.5725V288.536H270.181V273.561Z" fill="#20201F"/>
<path d="M902.585 273.691H872.048V288.536H902.585V273.691Z" fill="#20201F"/>
<path d="M872.048 40H135.437V54.9755H872.048V40Z" fill="#20201F"/>
<path d="M625.314 273.561H610.338V510.115H625.314V273.561Z" fill="#20201F"/>
<path d="M625.313 495.139H585.804V510.115H625.313V495.139Z" fill="#20201F"/>
<path d="M525.911 495.139H48V510.115H525.911V495.139Z" fill="#20201F"/>
<path d="M472.6 495.166H457.625V510.115H472.6V495.166Z" fill="#20201F"/>
<path d="M872.048 273.561H625.313V288.536H872.048V273.561Z" fill="#20201F"/>
<path d="M894.804 218.753H872.048V273.691H894.804V218.753Z" fill="#20201F"/>
<path d="M894.804 54.9756H872.048V92.9882H894.804V54.9756Z" fill="#20201F"/>
<path d="M226.462 54.9756H203.706V145.406H226.462V54.9756Z" fill="#20201F"/>
<path d="M226.462 250.209H203.706V273.561H226.462V250.209Z" fill="#20201F"/>
<path d="M78.5436 288.536H55.7871V329.347H78.5436V288.536Z" fill="#20201F"/>
<path d="M78.5436 425.169H55.7871V495.139H78.5436V425.169Z" fill="#20201F"/>
<path d="M902.585 40H894.804V96.5767H902.585V40Z" fill="#20201F"/>
<path d="M902.585 215.156H894.804V273.691H902.585V215.156Z" fill="#20201F"/>
<path d="M55.7868 421.572H48.0015V495.139H55.7868V421.572Z" fill="#20201F"/>
<path d="M55.7868 257.99H48.0015V332.944H55.7868V257.99Z" fill="#20201F"/>
<path d="M195.923 257.99H48.0015V265.176H195.923V257.99Z" fill="#20201F"/>
<path d="M203.705 250.209H195.923V273.561H203.705V250.209Z" fill="#20201F"/>
<path d="M203.705 54.9756H195.923V145.406H203.705V54.9756Z" fill="#20201F"/>
<path d="M195.924 63.3604H104.894V70.5463H195.924V63.3604Z" fill="#20201F"/>
<path d="M112.081 40H104.894V70.5462H112.081V40Z" fill="#20201F"/>
<path d="M897.193 40H883.13V56.5495H897.193V40Z" fill="#20201F"/>
<path d="M129.808 40H111.027V66.9533H129.808V40Z" fill="#20201F"/>
<path d="M200.075 54.9756H124.746V64.9915H200.075V54.9756Z" fill="#20201F"/>
<path d="M63.762 263.839H53.0249V291.039H63.762V263.839Z" fill="#20201F"/>
<path d="M203.705 261.885H59.5076V279.012H203.705V261.885Z" fill="#20201F"/>
<path d="M51.7239 483.162H48V501.52H51.7239V483.162Z" fill="#20201F"/>
<path d="M902.585 259.18H898.695V279.3H902.585V259.18Z" fill="#20201F"/>
<path d="M112.08 70.5461H104.894V257.99H112.08V70.5461Z" fill="#20201F"/>
<path d="M482.562 314.779H413.914V319.567H482.562V314.779Z" fill="#20201F"/>
<path d="M270.181 288.536H265.393V326.94H270.181V288.536Z" fill="#20201F"/>
<path d="M366.003 314.779H270.181V319.567H366.003V314.779Z" fill="#20201F"/>
<path d="M270.181 368.856H265.393V436.275H270.181V368.856Z" fill="#20201F"/>
<path d="M311 380.761H270.181V385.481H311V380.761Z" fill="#20201F"/>
<path d="M270.181 487.775H265.393V495.139H270.181V487.775Z" fill="#20201F"/>
<path d="M270.181 436.275H265.393V487.775H270.181V436.275Z" fill="#20201F"/>
<path d="M433.175 380.761H352.917V385.481H433.175V380.761Z" fill="#20201F"/>
<path d="M520.622 380.761H475.1V385.481H520.622V380.761Z" fill="#20201F"/>
<path d="M408.106 382.756H403.318V495.403H408.106V382.756Z" fill="#20201F"/>
<path d="M479.888 382.756H475.1V495.403H479.888V382.756Z" fill="#20201F"/>
<path d="M520.621 471.481H515.825V495.139H520.621V471.481Z" fill="#20201F"/>
<path d="M520.621 380.761H515.825V394.283H520.621V380.761Z" fill="#20201F"/>
<path d="M479.888 54.9756H475.1V319.567H479.888V54.9756Z" fill="#20201F"/>
<path d="M531.592 273.561H477.417V278.264H531.592V273.561Z" fill="#20201F"/>
<path d="M610.338 273.561H585.49V278.348H610.338V273.561Z" fill="#20201F"/>
<path d="M902.567 96.5781H898.715V215.165H902.567V96.5781Z" fill="#20201F"/>
<path d="M894.803 92.989H890.951V218.755H894.803V92.989Z" fill="#20201F"/>
<path d="M875.897 92.989H872.046V218.755H875.897V92.989Z" fill="#20201F"/>
<path d="M51.8523 332.942H48V421.579H51.8523V332.942Z" fill="#20201F"/>
<path d="M59.6163 329.345H55.7649V425.168H59.6163V329.345Z" fill="#20201F"/>
<path d="M78.5216 329.345H74.6702V425.168H78.5216V329.345Z" fill="#20201F"/>
<path d="M199.793 145.408H195.94V202.296H199.793V145.408Z" fill="#20201F"/>
<path d="M207.557 145.406H203.705V202.296H207.557V145.406Z" fill="#20201F"/>
<path d="M226.462 145.406H222.61V202.296H226.462V145.406Z" fill="#20201F"/>
<path d="M226.462 199.469H195.919V202.296H226.462V199.469Z" fill="#20201F"/>
<path fill-rule="evenodd" clip-rule="evenodd" d="M412.354 317.417C412.354 318.356 411.592 319.118 410.653 319.118C409.715 319.118 408.953 318.356 408.953 317.417V281.421C408.953 280.482 409.715 279.72 410.653 279.72C411.592 279.72 412.354 280.482 412.354 281.421V317.417Z" fill="#20201F"/>
<path fill-rule="evenodd" clip-rule="evenodd" d="M369.627 317.758C369.627 318.228 369.247 318.609 368.777 318.609C368.308 318.609 367.927 318.228 367.927 317.758C367.927 307.49 372.15 298.192 378.973 291.461C385.794 284.732 395.216 280.571 405.615 280.571C406.085 280.571 406.466 280.951 406.466 281.421C406.466 281.89 406.085 282.271 405.615 282.271C395.676 282.271 386.674 286.245 380.162 292.67C373.655 299.09 369.627 307.96 369.627 317.758Z" fill="#20201F"/>
<path fill-rule="evenodd" clip-rule="evenodd" d="M205.95 249.08C205.011 249.08 204.249 248.318 204.249 247.38C204.249 246.441 205.011 245.679 205.95 245.679H241.946C242.885 245.679 243.647 246.441 243.647 247.38C243.647 248.318 242.885 249.08 241.946 249.08H205.95Z" fill="#20201F"/>
<path fill-rule="evenodd" clip-rule="evenodd" d="M205.609 206.354C205.139 206.354 204.758 205.973 204.758 205.504C204.758 205.034 205.139 204.653 205.609 204.653C215.877 204.653 225.175 208.876 231.906 215.7C238.635 222.521 242.796 231.942 242.796 242.342C242.796 242.811 242.415 243.192 241.946 243.192C241.477 243.192 241.096 242.811 241.096 242.342C241.096 232.403 237.122 223.401 230.697 216.889C224.277 210.382 215.407 206.354 205.609 206.354Z" fill="#20201F"/>
<path fill-rule="evenodd" clip-rule="evenodd" d="M580.484 276.744C580.484 275.806 581.246 275.044 582.185 275.044C583.124 275.044 583.886 275.806 583.886 276.744V312.741C583.886 313.68 583.124 314.441 582.185 314.441C581.246 314.441 580.484 313.68 580.484 312.741V276.744Z" fill="#20201F"/>
<path fill-rule="evenodd" clip-rule="evenodd" d="M533.57 276.404C533.57 275.934 533.951 275.553 534.42 275.553C534.89 275.553 535.271 275.934 535.271 276.404C535.271 286.18 539.863 295.038 547.283 301.455C554.739 307.903 565.048 311.891 576.44 311.891C576.909 311.891 577.29 312.272 577.29 312.741C577.29 313.21 576.909 313.591 576.44 313.591C564.632 313.591 553.928 309.443 546.174 302.738C538.388 296.004 533.57 286.694 533.57 276.404Z" fill="#20201F"/>
<path fill-rule="evenodd" clip-rule="evenodd" d="M437.514 384.267C437.514 385.206 436.752 385.968 435.813 385.968C434.874 385.968 434.112 385.206 434.112 384.267V348.271C434.112 347.332 434.874 346.57 435.813 346.57C436.752 346.57 437.514 347.332 437.514 348.271V384.267Z" fill="#20201F"/>
<path fill-rule="evenodd" clip-rule="evenodd" d="M473.115 384.609C473.115 385.078 472.734 385.459 472.265 385.459C471.796 385.459 471.415 385.078 471.415 384.609C471.415 374.786 467.906 365.901 462.237 359.477C456.593 353.079 448.798 349.122 440.198 349.122C439.728 349.122 439.347 348.741 439.347 348.271C439.347 347.802 439.728 347.421 440.198 347.421C449.304 347.421 457.546 351.6 463.506 358.354C469.442 365.081 473.115 374.364 473.115 384.609Z" fill="#20201F"/>
<path fill-rule="evenodd" clip-rule="evenodd" d="M315.907 384.267C315.907 385.206 315.146 385.968 314.207 385.968C313.268 385.968 312.506 385.206 312.506 384.267V348.271C312.506 347.332 313.268 346.57 314.207 346.57C315.146 346.57 315.907 347.332 315.907 348.271V384.267Z" fill="#20201F"/>
<path fill-rule="evenodd" clip-rule="evenodd" d="M351.509 384.609C351.509 385.078 351.128 385.459 350.659 385.459C350.189 385.459 349.808 385.078 349.808 384.609C349.808 374.786 346.299 365.901 340.631 359.477C334.987 353.079 327.191 349.122 318.591 349.122C318.122 349.122 317.741 348.741 317.741 348.271C317.741 347.802 318.122 347.421 318.591 347.421C327.697 347.421 335.939 351.6 341.9 358.354C347.835 365.081 351.509 374.364 351.509 384.609Z" fill="#20201F"/>
<path fill-rule="evenodd" clip-rule="evenodd" d="M267.676 331.499C266.738 331.499 265.976 330.737 265.976 329.798C265.976 328.859 266.738 328.097 267.676 328.097H303.673C304.611 328.097 305.373 328.859 305.373 329.798C305.373 330.737 304.611 331.499 303.673 331.499H267.676Z" fill="#20201F"/>
<path fill-rule="evenodd" clip-rule="evenodd" d="M267.336 367.101C266.866 367.101 266.485 366.72 266.485 366.25C266.485 365.781 266.866 365.4 267.336 365.4C277.158 365.4 286.044 361.891 292.467 356.222C298.865 350.578 302.823 342.783 302.823 334.183C302.823 333.713 303.204 333.332 303.673 333.332C304.142 333.332 304.523 333.713 304.523 334.183C304.523 343.289 300.345 351.531 293.59 357.491C286.863 363.427 277.58 367.101 267.336 367.101Z" fill="#20201F"/>
<path fill-rule="evenodd" clip-rule="evenodd" d="M531.955 498.496C531.955 499.435 531.193 500.196 530.255 500.196C529.316 500.196 528.554 499.435 528.554 498.496V462.499C528.554 461.561 529.316 460.799 530.255 460.799C531.193 460.799 531.955 461.561 531.955 462.499V498.496Z" fill="#20201F"/>
<path fill-rule="evenodd" clip-rule="evenodd" d="M582.455 498.838C582.455 499.307 582.074 499.688 581.604 499.688C581.135 499.688 580.754 499.307 580.754 498.838C580.754 489.073 575.818 480.222 567.841 473.805C559.811 467.347 548.705 463.35 536.431 463.35C535.962 463.35 535.581 462.969 535.581 462.499C535.581 462.03 535.962 461.649 536.431 461.649C549.099 461.649 560.583 465.79 568.904 472.484C577.274 479.216 582.455 488.534 582.455 498.838Z" fill="#20201F"/>
<path fill-rule="evenodd" clip-rule="evenodd" d="M135.553 456.437H225.908V492.579H134.49V456.437H135.553ZM197.629 460.71C196.634 460.71 195.728 461.117 195.074 461.775C194.421 462.43 194.014 463.333 194.014 464.324V484.734C194.014 485.725 194.421 486.629 195.074 487.288C195.728 487.941 196.634 488.348 197.629 488.348H218.038C219.03 488.348 219.934 487.941 220.591 487.288C221.245 486.634 221.651 485.729 221.651 484.734V464.324C221.651 463.329 221.245 462.425 220.588 461.773C219.934 461.117 219.03 460.71 218.038 460.71H197.629ZM146.063 462.399C144.687 462.399 143.437 462.96 142.532 463.863C141.628 464.767 141.067 466.017 141.067 467.395C141.067 468.77 141.628 470.02 142.534 470.927C143.439 471.831 144.688 472.391 146.063 472.391C147.441 472.391 148.691 471.831 149.593 470.925C150.499 470.021 151.059 468.771 151.059 467.395C151.059 466.017 150.499 464.767 149.595 463.863C148.691 462.96 147.441 462.399 146.063 462.399ZM146.063 475.562C144.391 475.562 142.876 476.242 141.78 477.338C140.684 478.434 140.004 479.95 140.004 481.621C140.004 483.293 140.684 484.809 141.78 485.905C142.876 487.001 144.391 487.68 146.063 487.68C147.734 487.68 149.251 487.001 150.347 485.905C151.443 484.809 152.122 483.293 152.122 481.621C152.122 479.95 151.443 478.434 150.347 477.338C149.251 476.242 147.734 475.562 146.063 475.562ZM149.296 478.389C148.47 477.563 147.325 477.051 146.063 477.051C144.8 477.051 143.657 477.563 142.831 478.389C142.005 479.215 141.492 480.359 141.492 481.621C141.492 482.884 142.005 484.028 142.831 484.854C143.657 485.68 144.8 486.192 146.063 486.192C147.325 486.192 148.47 485.68 149.296 484.854C150.121 484.028 150.634 482.884 150.634 481.621C150.634 480.359 150.121 479.215 149.296 478.389ZM159.058 461.336C157.386 461.336 155.871 462.016 154.775 463.112C153.679 464.208 152.999 465.723 152.999 467.395C152.999 469.067 153.678 470.583 154.774 471.679C155.87 472.776 157.386 473.454 159.058 473.454C160.73 473.454 162.245 472.775 163.342 471.679C164.438 470.582 165.117 469.067 165.117 467.395C165.117 465.724 164.438 464.208 163.342 463.112C162.245 462.016 160.729 461.336 159.058 461.336ZM162.29 464.163C161.465 463.337 160.32 462.824 159.058 462.824C157.795 462.824 156.651 463.337 155.826 464.163C155 464.988 154.487 466.132 154.487 467.395C154.487 468.658 154.999 469.803 155.825 470.628C156.651 471.454 157.795 471.966 159.058 471.966C160.321 471.966 161.465 471.453 162.29 470.628C163.116 469.802 163.629 468.658 163.629 467.395C163.629 466.133 163.116 464.988 162.29 464.163ZM159.058 476.625C157.682 476.625 156.432 477.186 155.526 478.09C154.622 478.994 154.062 480.244 154.062 481.621C154.062 482.996 154.622 484.246 155.529 485.153C156.434 486.057 157.683 486.617 159.058 486.617C160.436 486.617 161.686 486.057 162.588 485.151C163.494 484.247 164.054 482.997 164.054 481.621C164.054 480.244 163.494 478.994 162.59 478.09C161.686 477.186 160.436 476.625 159.058 476.625ZM161.539 479.141C160.905 478.507 160.027 478.113 159.058 478.113C158.087 478.113 157.209 478.505 156.578 479.138C155.944 479.774 155.55 480.653 155.55 481.621C155.55 482.592 155.942 483.47 156.575 484.102C157.209 484.737 158.087 485.129 159.058 485.129C160.027 485.129 160.905 484.736 161.539 484.102C162.174 483.47 162.566 482.592 162.566 481.621C162.566 480.653 162.172 479.774 161.539 479.141ZM148.544 464.915C147.91 464.281 147.032 463.887 146.063 463.887C145.092 463.887 144.214 464.279 143.583 464.912C142.949 465.548 142.555 466.427 142.555 467.395C142.555 468.366 142.947 469.244 143.58 469.876C144.214 470.511 145.092 470.903 146.063 470.903C147.032 470.903 147.91 470.509 148.544 469.876C149.179 469.244 149.571 468.366 149.571 467.395C149.571 466.427 149.177 465.548 148.544 464.915ZM218.038 462.836H197.629C197.22 462.836 196.847 463.005 196.577 463.274C196.307 463.541 196.14 463.914 196.14 464.324V484.734C196.14 485.144 196.307 485.517 196.576 485.786C196.847 486.054 197.22 486.222 197.629 486.222H218.038C218.448 486.222 218.82 486.055 219.087 485.788C219.357 485.514 219.525 485.14 219.525 484.734V464.324C219.525 463.918 219.357 463.544 219.087 463.274C218.82 463.003 218.448 462.836 218.038 462.836ZM168.471 490.453V458.563H136.616V490.453H168.471ZM170.597 458.563V490.453H223.782V458.563H170.597Z" fill="#20201F"/>
<path fill-rule="evenodd" clip-rule="evenodd" d="M444.663 459.884C442.864 462.681 441.754 466.27 441.754 469.425C441.754 472.531 442.819 474.954 444.563 476.642H444.568C445.229 477.279 446.013 477.773 446.844 478.192H443.256C441.115 478.192 439.86 479.086 439.131 480.523C438.466 481.83 438.302 483.559 438.302 485.454V486.237H438.321C438.366 487.816 438.563 489.259 439.131 490.382C439.86 491.818 441.115 492.708 443.246 492.708H460.841C462.981 492.708 464.235 491.818 464.959 490.382C465.523 489.259 465.726 487.816 465.769 486.237H465.788V485.454C465.788 483.559 465.624 481.83 464.959 480.523C464.235 479.086 462.981 478.192 460.841 478.192H457.246C458.077 477.773 458.858 477.284 459.521 476.642C461.268 474.954 462.335 472.531 462.335 469.425C462.335 466.091 461.091 462.274 459.109 459.412C457.28 456.77 454.806 454.917 452.045 454.917C449.12 454.917 446.517 456.996 444.663 459.884ZM452.552 487.788V487.793H452.549C451.918 487.793 451.337 487.529 450.919 487.112H450.914C450.497 486.694 450.239 486.118 450.239 485.48C450.239 484.84 450.497 484.27 450.914 483.852V483.844L450.919 483.845C451.34 483.428 451.918 483.17 452.549 483.17C453.19 483.17 453.77 483.428 454.185 483.844C454.601 484.262 454.862 484.84 454.862 485.48C454.862 486.118 454.601 486.689 454.185 487.112C453.77 487.529 453.19 487.788 452.552 487.788ZM452.554 486.605H452.549C452.238 486.605 451.957 486.48 451.757 486.284V486.276C451.555 486.075 451.427 485.789 451.427 485.48C451.427 485.164 451.552 484.875 451.747 484.679L451.755 484.674C451.957 484.478 452.238 484.351 452.549 484.351C452.872 484.351 453.151 484.478 453.352 484.674C453.548 484.875 453.673 485.164 453.673 485.48C453.673 485.794 453.548 486.081 453.343 486.276C453.146 486.486 452.862 486.612 452.554 486.612V486.605ZM460.841 479.754C462.285 479.754 463.109 480.321 463.57 481.22C464.034 482.152 464.19 483.445 464.218 484.906V485.454C464.218 487.137 464.089 488.646 463.57 489.684C463.109 490.584 462.283 491.144 460.841 491.144H443.246C441.805 491.144 440.983 490.584 440.523 489.684C439.999 488.646 439.872 487.137 439.872 485.454V484.845C439.905 483.415 440.059 482.132 440.52 481.22C440.983 480.314 441.812 479.754 443.256 479.754H460.841ZM457.829 460.296C459.641 462.909 460.773 466.389 460.773 469.425C460.773 472.078 459.887 474.119 458.441 475.52C456.858 477.053 454.579 477.846 452.045 477.846C449.507 477.846 447.23 477.053 445.643 475.52C444.2 474.119 443.316 472.078 443.316 469.425C443.316 466.557 444.33 463.283 445.974 460.723C447.557 458.256 449.714 456.479 452.045 456.479C454.236 456.479 456.273 458.06 457.829 460.296Z" fill="#20201F"/>
<path fill-rule="evenodd" clip-rule="evenodd" d="M341.239 492.96L321.749 492.966C315.231 492.966 315.999 479.474 316.066 478.573C316.066 475.45 317.34 472.616 319.393 470.566C321.44 468.519 324.279 467.25 327.402 467.25H335.673C338.801 467.25 341.636 468.517 343.69 470.566C345.736 472.616 347.006 475.455 347.019 478.579C347.061 479.494 347.732 492.966 341.239 492.96ZM331.534 479.818V479.815C332.219 479.808 332.852 479.539 333.303 479.088C333.747 478.63 334.021 478.005 334.021 477.322C334.021 476.634 333.746 476.008 333.294 475.558C332.843 475.106 332.219 474.83 331.531 474.83C330.848 474.83 330.222 475.106 329.772 475.558H329.763V475.563C329.313 476.013 329.031 476.634 329.031 477.322C329.031 478.005 329.313 478.638 329.763 479.088H329.766C330.217 479.539 330.848 479.822 331.531 479.822L331.534 479.818ZM331.538 478.546C331.864 478.546 332.171 478.412 332.39 478.186C332.604 477.972 332.742 477.664 332.742 477.322C332.742 476.982 332.61 476.674 332.396 476.453C332.175 476.242 331.875 476.102 331.531 476.106C331.188 476.106 330.891 476.239 330.671 476.453L330.666 476.458C330.447 476.674 330.313 476.982 330.313 477.322C330.313 477.658 330.456 477.966 330.667 478.186L330.672 478.189C330.888 478.405 331.194 478.535 331.526 478.535L331.538 478.533V478.546ZM331.534 488.211C334.676 488.211 337.528 487.275 339.602 485.772C341.757 484.2 343.097 482.005 343.098 479.572C343.098 477.129 341.757 474.935 339.602 473.36C337.521 471.849 334.667 470.921 331.524 470.921H331.51C328.375 470.928 325.529 471.863 323.449 473.369C321.304 474.94 319.967 477.129 319.965 479.558L319.967 479.572C319.967 482.011 321.304 484.194 323.466 485.772C325.535 487.277 328.386 488.211 331.526 488.208L331.534 488.211ZM331.534 486.453C334.287 486.448 336.776 485.64 338.575 484.342C340.273 483.1 341.33 481.409 341.33 479.572C341.33 477.723 340.273 476.032 338.561 474.785C336.771 473.491 334.287 472.686 331.524 472.686H331.518L331.51 472.681C328.754 472.686 326.276 473.491 324.486 474.793C322.792 476.029 321.736 477.723 321.73 479.558L321.736 479.572C321.732 481.412 322.79 483.105 324.492 484.342C326.283 485.635 328.767 486.448 331.524 486.446H331.534V486.453ZM341.233 491.201C346.072 491.201 345.248 478.675 345.248 478.643L345.24 478.579C345.24 475.939 344.175 473.551 342.449 471.814C340.709 470.084 338.317 469.016 335.673 469.016H327.41C324.757 469.016 322.361 470.079 320.628 471.814C318.897 473.542 317.831 475.939 317.826 478.579L317.824 478.641C317.824 478.672 316.936 491.201 321.754 491.201H341.233Z" fill="#20201F"/>
<path fill-rule="evenodd" clip-rule="evenodd" d="M398.378 490.324V390.296H356.232V490.324H398.378ZM373.208 470.833C373.208 469.734 373.667 468.739 374.408 468.02C375.152 467.301 376.176 466.855 377.305 466.855C378.434 466.855 379.457 467.301 380.198 468.02C380.942 468.743 381.401 469.737 381.401 470.833C381.401 471.929 380.942 472.922 380.202 473.642C379.461 474.365 378.436 474.81 377.305 474.81C376.173 474.81 375.148 474.365 374.408 473.646C373.667 472.926 373.208 471.931 373.208 470.833ZM375.565 469.144C376.009 468.714 376.625 468.447 377.305 468.447C377.985 468.447 378.601 468.714 379.044 469.144C379.487 469.574 379.763 470.173 379.763 470.833C379.763 471.493 379.487 472.091 379.043 472.521C378.598 472.952 377.983 473.219 377.305 473.219C376.626 473.219 376.011 472.952 375.566 472.521C375.122 472.089 374.847 471.492 374.847 470.833C374.847 470.174 375.122 469.577 375.565 469.144ZM357.438 482.774L359.076 412.164C359.076 401.559 366.382 392.874 377.305 392.874C388.227 392.874 395.533 401.559 395.533 412.164L397.172 482.774C397.172 484.143 396.595 485.387 395.668 486.286C394.737 487.186 393.457 487.746 392.051 487.746H362.558C361.154 487.746 359.874 487.187 358.945 486.286C358.014 485.38 357.438 484.138 357.438 482.774ZM361.124 412.164C361.124 402.645 367.501 394.863 377.305 394.863C387.108 394.863 393.485 402.645 393.485 412.164L395.123 482.774C395.123 483.593 394.777 484.339 394.22 484.884C393.666 485.422 392.897 485.757 392.051 485.757H362.558C361.712 485.757 360.944 485.422 360.385 484.88C359.831 484.341 359.486 483.596 359.486 482.774L361.124 412.164ZM400.384 390.086V490.534C400.384 491.034 400.18 491.489 399.856 491.82C399.532 492.152 399.08 492.357 398.584 492.357H356.025C355.53 492.357 355.077 492.152 354.753 491.824C354.428 491.493 354.226 491.036 354.226 490.534V390.086C354.226 389.584 354.428 389.127 354.753 388.797C355.082 388.47 355.532 388.263 356.025 388.263H398.584C399.077 388.263 399.527 388.469 399.853 388.797C400.181 389.132 400.384 389.587 400.384 390.086Z" fill="#20201F"/>
<path fill-rule="evenodd" clip-rule="evenodd" d="M513.012 470.749V467.368C513.012 466.964 513.343 466.636 513.745 466.636H514.452V431.865C514.452 431.279 514.928 430.802 515.515 430.802C516.102 430.802 516.579 431.279 516.579 431.865V466.636H522.376C522.776 466.636 523.108 466.967 523.108 467.368V470.749C523.108 471.153 522.779 471.48 522.376 471.48H513.745C513.341 471.48 513.012 471.153 513.012 470.749Z" fill="#20201F"/>
<path fill-rule="evenodd" clip-rule="evenodd" d="M523.352 394.981V398.362C523.352 398.766 523.022 399.094 522.62 399.094H521.913V433.865C521.913 434.452 521.436 434.928 520.85 434.928C520.263 434.928 519.786 434.452 519.786 433.865V399.094H513.989C513.588 399.094 513.257 398.763 513.257 398.362V394.981C513.257 394.578 513.586 394.25 513.989 394.25H522.62C523.024 394.25 523.352 394.578 523.352 394.981Z" fill="#20201F"/>
<path d="M553.925 97.083H551.799V198.178H553.925V97.083Z" fill="#20201F"/>
<path d="M538.124 159.627V167.216H507.711V161.179L523.233 146.519C524.882 144.947 525.993 143.606 526.568 142.494C527.143 141.345 527.43 140.214 527.43 139.102C527.43 137.493 526.875 136.266 525.763 135.423C524.69 134.541 523.099 134.101 520.991 134.101C519.228 134.101 517.638 134.446 516.219 135.135C514.801 135.787 513.613 136.784 512.655 138.125L505.871 133.756C507.442 131.418 509.608 129.597 512.368 128.294C515.127 126.952 518.289 126.282 521.854 126.282C524.843 126.282 527.45 126.78 529.673 127.777C531.934 128.735 533.678 130.115 534.904 131.916C536.169 133.679 536.802 135.768 536.802 138.183C536.802 140.367 536.342 142.418 535.422 144.334C534.502 146.251 532.72 148.435 530.075 150.888L520.819 159.627H538.124Z" fill="#20201F"/>
<path d="M586.163 119.064H583.288V122.842H581.81V119.064H573.699V117.996L581.317 108.469H582.96L575.609 117.75H581.851V114.423H583.288V117.75H586.163V119.064ZM590.983 108.469V122.842H589.504V109.783H586.116V108.469H590.983ZM595.527 122.944C595.226 122.944 594.966 122.835 594.747 122.616C594.541 122.397 594.439 122.13 594.439 121.815C594.439 121.5 594.541 121.24 594.747 121.035C594.966 120.816 595.226 120.706 595.527 120.706C595.828 120.706 596.088 120.816 596.307 121.035C596.526 121.24 596.636 121.5 596.636 121.815C596.636 122.13 596.526 122.397 596.307 122.616C596.088 122.835 595.828 122.944 595.527 122.944ZM610.726 119.064H607.851V122.842H606.373V119.064H598.262V117.996L605.88 108.469H607.523L600.172 117.75H606.414V114.423H607.851V117.75H610.726V119.064ZM621.204 108.469V109.516L615.188 122.842H613.587L619.5 109.783H612.108V112.473H610.65V108.469H621.204Z" fill="#20201F"/>
<path d="M576.615 143.525C577.56 143.525 578.395 143.703 579.12 144.059C579.86 144.414 580.435 144.921 580.845 145.578C581.256 146.221 581.461 146.974 581.461 147.837C581.461 148.713 581.249 149.486 580.825 150.157C580.4 150.828 579.812 151.348 579.059 151.717C578.32 152.073 577.485 152.251 576.554 152.251C574.651 152.251 573.193 151.628 572.18 150.383C571.167 149.123 570.661 147.351 570.661 145.065C570.661 143.463 570.935 142.108 571.482 140.999C572.03 139.89 572.796 139.055 573.782 138.494C574.768 137.919 575.917 137.632 577.231 137.632C578.655 137.632 579.791 137.892 580.64 138.412L580.044 139.603C579.36 139.151 578.429 138.925 577.252 138.925C575.664 138.925 574.418 139.432 573.515 140.445C572.612 141.444 572.16 142.902 572.16 144.818C572.16 145.16 572.18 145.551 572.221 145.989C572.577 145.208 573.145 144.606 573.926 144.182C574.706 143.744 575.603 143.525 576.615 143.525ZM576.492 150.999C577.533 150.999 578.374 150.718 579.018 150.157C579.675 149.582 580.003 148.822 580.003 147.878C580.003 146.933 579.675 146.18 579.018 145.619C578.374 145.058 577.498 144.777 576.39 144.777C575.664 144.777 575.021 144.914 574.46 145.188C573.912 145.462 573.481 145.838 573.166 146.317C572.851 146.796 572.694 147.33 572.694 147.919C572.694 148.466 572.837 148.973 573.125 149.438C573.426 149.904 573.864 150.28 574.439 150.567C575.014 150.855 575.698 150.999 576.492 150.999ZM591.407 144.592C592.31 144.894 593.002 145.345 593.481 145.948C593.973 146.55 594.22 147.275 594.22 148.124C594.22 148.959 593.994 149.691 593.542 150.321C593.09 150.937 592.44 151.416 591.592 151.758C590.757 152.087 589.771 152.251 588.635 152.251C586.91 152.251 585.555 151.882 584.569 151.142C583.584 150.403 583.091 149.397 583.091 148.124C583.091 147.262 583.324 146.536 583.789 145.948C584.268 145.345 584.959 144.894 585.863 144.592C585.124 144.305 584.563 143.894 584.179 143.36C583.796 142.813 583.604 142.17 583.604 141.43C583.604 140.267 584.056 139.343 584.959 138.658C585.877 137.974 587.102 137.632 588.635 137.632C589.648 137.632 590.531 137.789 591.284 138.104C592.05 138.405 592.646 138.843 593.07 139.418C593.494 139.993 593.706 140.664 593.706 141.43C593.706 142.17 593.508 142.813 593.111 143.36C592.714 143.894 592.146 144.305 591.407 144.592ZM585.083 141.471C585.083 142.265 585.398 142.895 586.027 143.36C586.657 143.826 587.526 144.059 588.635 144.059C589.744 144.059 590.613 143.826 591.243 143.36C591.886 142.895 592.208 142.272 592.208 141.492C592.208 140.684 591.879 140.048 591.222 139.582C590.579 139.117 589.716 138.884 588.635 138.884C587.54 138.884 586.671 139.117 586.027 139.582C585.398 140.048 585.083 140.677 585.083 141.471ZM588.635 150.999C589.908 150.999 590.9 150.739 591.612 150.218C592.338 149.698 592.7 148.993 592.7 148.104C592.7 147.214 592.338 146.516 591.612 146.009C590.9 145.489 589.908 145.229 588.635 145.229C587.376 145.229 586.383 145.489 585.658 146.009C584.946 146.516 584.59 147.214 584.59 148.104C584.59 149.007 584.946 149.719 585.658 150.239C586.369 150.745 587.362 150.999 588.635 150.999ZM597.576 152.231C597.275 152.231 597.015 152.121 596.796 151.902C596.591 151.683 596.488 151.416 596.488 151.101C596.488 150.786 596.591 150.526 596.796 150.321C597.015 150.102 597.275 149.993 597.576 149.993C597.877 149.993 598.137 150.102 598.356 150.321C598.575 150.526 598.685 150.786 598.685 151.101C598.685 151.416 598.575 151.683 598.356 151.902C598.137 152.121 597.877 152.231 597.576 152.231ZM609.253 144.592C610.156 144.894 610.847 145.345 611.327 145.948C611.819 146.55 612.066 147.275 612.066 148.124C612.066 148.959 611.84 149.691 611.388 150.321C610.936 150.937 610.286 151.416 609.437 151.758C608.602 152.087 607.617 152.251 606.481 152.251C604.756 152.251 603.401 151.882 602.415 151.142C601.43 150.403 600.937 149.397 600.937 148.124C600.937 147.262 601.17 146.536 601.635 145.948C602.114 145.345 602.805 144.894 603.709 144.592C602.97 144.305 602.408 143.894 602.025 143.36C601.642 142.813 601.45 142.17 601.45 141.43C601.45 140.267 601.902 139.343 602.805 138.658C603.723 137.974 604.948 137.632 606.481 137.632C607.494 137.632 608.377 137.789 609.129 138.104C609.896 138.405 610.491 138.843 610.916 139.418C611.34 139.993 611.552 140.664 611.552 141.43C611.552 142.17 611.354 142.813 610.957 143.36C610.56 143.894 609.992 144.305 609.253 144.592ZM602.929 141.471C602.929 142.265 603.243 142.895 603.873 143.36C604.503 143.826 605.372 144.059 606.481 144.059C607.59 144.059 608.459 143.826 609.088 143.36C609.732 142.895 610.053 142.272 610.053 141.492C610.053 140.684 609.725 140.048 609.068 139.582C608.425 139.117 607.562 138.884 606.481 138.884C605.386 138.884 604.516 139.117 603.873 139.582C603.243 140.048 602.929 140.677 602.929 141.471ZM606.481 150.999C607.754 150.999 608.746 150.739 609.458 150.218C610.184 149.698 610.546 148.993 610.546 148.104C610.546 147.214 610.184 146.516 609.458 146.009C608.746 145.489 607.754 145.229 606.481 145.229C605.221 145.229 604.229 145.489 603.504 146.009C602.792 146.516 602.436 147.214 602.436 148.104C602.436 149.007 602.792 149.719 603.504 150.239C604.215 150.745 605.208 150.999 606.481 150.999ZM620.067 143.525C621.012 143.525 621.847 143.703 622.572 144.059C623.311 144.414 623.886 144.921 624.297 145.578C624.708 146.221 624.913 146.974 624.913 147.837C624.913 148.713 624.701 149.486 624.276 150.157C623.852 150.828 623.263 151.348 622.511 151.717C621.771 152.073 620.936 152.251 620.006 152.251C618.103 152.251 616.645 151.628 615.632 150.383C614.619 149.123 614.113 147.351 614.113 145.065C614.113 143.463 614.386 142.108 614.934 140.999C615.482 139.89 616.248 139.055 617.234 138.494C618.219 137.919 619.369 137.632 620.683 137.632C622.107 137.632 623.243 137.892 624.092 138.412L623.496 139.603C622.812 139.151 621.881 138.925 620.704 138.925C619.116 138.925 617.87 139.432 616.967 140.445C616.063 141.444 615.612 142.902 615.612 144.818C615.612 145.16 615.632 145.551 615.673 145.989C616.029 145.208 616.597 144.606 617.377 144.182C618.158 143.744 619.054 143.525 620.067 143.525ZM619.944 150.999C620.984 150.999 621.826 150.718 622.47 150.157C623.127 149.582 623.455 148.822 623.455 147.878C623.455 146.933 623.127 146.18 622.47 145.619C621.826 145.058 620.95 144.777 619.841 144.777C619.116 144.777 618.473 144.914 617.911 145.188C617.364 145.462 616.933 145.838 616.618 146.317C616.303 146.796 616.145 147.33 616.145 147.919C616.145 148.466 616.289 148.973 616.577 149.438C616.878 149.904 617.316 150.28 617.891 150.567C618.466 150.855 619.15 150.999 619.944 150.999Z" fill="#20201F"/>
<path d="M584.161 167.041V168.088L578.145 181.414H576.543L582.457 168.355H575.065V171.045H573.607V167.041H584.161ZM590.293 167.041V181.414H588.815V168.355H585.427V167.041H590.293ZM594.837 181.517C594.536 181.517 594.276 181.407 594.057 181.188C593.852 180.969 593.749 180.702 593.749 180.387C593.749 180.073 593.852 179.813 594.057 179.607C594.276 179.388 594.536 179.279 594.837 179.279C595.139 179.279 595.399 179.388 595.618 179.607C595.837 179.813 595.946 180.073 595.946 180.387C595.946 180.702 595.837 180.969 595.618 181.188C595.399 181.407 595.139 181.517 594.837 181.517ZM603.588 181.537C602.479 181.537 601.487 181.243 600.611 180.654C599.748 180.066 599.071 179.224 598.578 178.129C598.099 177.02 597.859 175.72 597.859 174.228C597.859 172.736 598.099 171.442 598.578 170.347C599.071 169.238 599.748 168.389 600.611 167.801C601.487 167.212 602.479 166.918 603.588 166.918C604.697 166.918 605.682 167.212 606.545 167.801C607.421 168.389 608.105 169.238 608.598 170.347C609.091 171.442 609.337 172.736 609.337 174.228C609.337 175.72 609.091 177.02 608.598 178.129C608.105 179.224 607.421 180.066 606.545 180.654C605.682 181.243 604.697 181.537 603.588 181.537ZM603.588 180.182C604.423 180.182 605.155 179.949 605.785 179.484C606.428 179.019 606.928 178.341 607.284 177.451C607.64 176.561 607.818 175.487 607.818 174.228C607.818 172.968 607.64 171.894 607.284 171.004C606.928 170.114 606.428 169.437 605.785 168.971C605.155 168.506 604.423 168.273 603.588 168.273C602.753 168.273 602.014 168.506 601.37 168.971C600.741 169.437 600.248 170.114 599.892 171.004C599.536 171.894 599.358 172.968 599.358 174.228C599.358 175.487 599.536 176.561 599.892 177.451C600.248 178.341 600.741 179.019 601.37 179.484C602.014 179.949 602.753 180.182 603.588 180.182ZM615.232 172.934C617.313 172.934 618.825 173.31 619.77 174.063C620.728 174.803 621.207 175.843 621.207 177.184C621.207 178.019 621.009 178.765 620.612 179.422C620.229 180.079 619.647 180.6 618.867 180.983C618.086 181.352 617.128 181.537 615.992 181.537C614.965 181.537 613.987 181.373 613.056 181.044C612.139 180.702 611.399 180.251 610.838 179.689L611.557 178.519C612.036 179.012 612.666 179.416 613.446 179.73C614.226 180.032 615.068 180.182 615.971 180.182C617.162 180.182 618.079 179.915 618.723 179.381C619.38 178.847 619.708 178.136 619.708 177.246C619.708 176.26 619.339 175.514 618.6 175.008C617.874 174.501 616.642 174.248 614.904 174.248H611.844L612.583 167.041H620.448V168.355H613.877L613.384 172.934H615.232Z" fill="#20201F"/>
<path d="M703.419 143.627H697.752V152.046H694.569V140.999H703.419V143.627ZM709.829 152.21C708.666 152.21 707.619 151.971 706.688 151.492C705.771 150.999 705.052 150.321 704.532 149.459C704.012 148.596 703.752 147.618 703.752 146.523C703.752 145.427 704.012 144.449 704.532 143.586C705.052 142.724 705.771 142.053 706.688 141.574C707.619 141.081 708.666 140.835 709.829 140.835C710.993 140.835 712.033 141.081 712.95 141.574C713.868 142.053 714.586 142.724 715.106 143.586C715.627 144.449 715.887 145.427 715.887 146.523C715.887 147.618 715.627 148.596 715.106 149.459C714.586 150.321 713.868 150.999 712.95 151.492C712.033 151.971 710.993 152.21 709.829 152.21ZM709.829 149.582C710.651 149.582 711.322 149.308 711.842 148.761C712.376 148.199 712.642 147.453 712.642 146.523C712.642 145.592 712.376 144.853 711.842 144.305C711.322 143.744 710.651 143.463 709.829 143.463C709.008 143.463 708.331 143.744 707.797 144.305C707.263 144.853 706.996 145.592 706.996 146.523C706.996 147.453 707.263 148.199 707.797 148.761C708.331 149.308 709.008 149.582 709.829 149.582ZM723.346 152.21C722.169 152.21 721.108 151.971 720.164 151.492C719.233 150.999 718.5 150.321 717.967 149.459C717.446 148.596 717.186 147.618 717.186 146.523C717.186 145.427 717.446 144.449 717.967 143.586C718.5 142.724 719.233 142.053 720.164 141.574C721.108 141.081 722.169 140.835 723.346 140.835C724.51 140.835 725.523 141.081 726.385 141.574C727.261 142.053 727.898 142.745 728.295 143.648L725.81 144.983C725.235 143.97 724.407 143.463 723.326 143.463C722.491 143.463 721.799 143.737 721.252 144.284C720.704 144.832 720.43 145.578 720.43 146.523C720.43 147.467 720.704 148.213 721.252 148.761C721.799 149.308 722.491 149.582 723.326 149.582C724.421 149.582 725.249 149.075 725.81 148.063L728.295 149.418C727.898 150.294 727.261 150.978 726.385 151.471C725.523 151.964 724.51 152.21 723.346 152.21ZM739.482 143.627H735.745V152.046H732.562V143.627H728.825V140.999H739.482V143.627ZM741.189 140.999H744.372V147.57L749.751 140.999H752.688V152.046H749.505V145.475L744.146 152.046H741.189V140.999ZM755.767 140.999H758.949V145.311H763.754V140.999H766.957V152.046H763.754V147.919H758.949V152.046H755.767V140.999ZM774.315 140.835C776.026 140.835 777.34 141.246 778.257 142.067C779.174 142.875 779.633 144.1 779.633 145.742V152.046H776.635V150.67C776.033 151.697 774.91 152.21 773.267 152.21C772.419 152.21 771.68 152.066 771.05 151.779C770.434 151.492 769.962 151.095 769.633 150.588C769.305 150.082 769.14 149.507 769.14 148.863C769.14 147.837 769.524 147.029 770.29 146.44C771.07 145.852 772.268 145.558 773.883 145.558H776.43C776.43 144.859 776.217 144.326 775.793 143.956C775.369 143.573 774.732 143.381 773.883 143.381C773.295 143.381 772.713 143.477 772.138 143.669C771.577 143.846 771.098 144.093 770.701 144.408L769.551 142.17C770.153 141.745 770.872 141.417 771.707 141.184C772.556 140.951 773.425 140.835 774.315 140.835ZM774.068 150.054C774.616 150.054 775.102 149.931 775.526 149.685C775.95 149.425 776.252 149.048 776.43 148.555V147.426H774.233C772.918 147.426 772.261 147.857 772.261 148.72C772.261 149.13 772.419 149.459 772.734 149.705C773.062 149.938 773.507 150.054 774.068 150.054ZM792.23 140.999V152.046H789.376V148.884H787.015L784.92 152.046H781.512L784.037 148.432C783.271 148.131 782.682 147.7 782.271 147.139C781.874 146.564 781.676 145.872 781.676 145.065C781.676 143.764 782.141 142.765 783.072 142.067C784.017 141.355 785.31 140.999 786.953 140.999H792.23ZM787.015 143.607C786.33 143.607 785.81 143.73 785.454 143.977C785.112 144.223 784.941 144.62 784.941 145.167C784.941 145.715 785.105 146.119 785.433 146.379C785.776 146.625 786.289 146.748 786.973 146.748H789.376V143.607H787.015Z" fill="black"/>
<path d="M727.501 178.622V181.332H716.639V179.176L722.183 173.94C722.772 173.379 723.169 172.9 723.374 172.503C723.58 172.092 723.682 171.688 723.682 171.291C723.682 170.717 723.484 170.279 723.087 169.977C722.704 169.663 722.135 169.505 721.383 169.505C720.753 169.505 720.185 169.628 719.678 169.875C719.172 170.107 718.748 170.463 718.405 170.942L715.982 169.382C716.544 168.547 717.317 167.897 718.303 167.431C719.288 166.952 720.418 166.713 721.691 166.713C722.758 166.713 723.689 166.891 724.483 167.247C725.291 167.589 725.913 168.082 726.352 168.725C726.803 169.355 727.029 170.101 727.029 170.963C727.029 171.743 726.865 172.476 726.536 173.16C726.208 173.844 725.571 174.625 724.627 175.501L721.321 178.622H727.501ZM735.588 172.811C736.847 173.016 737.812 173.489 738.483 174.228C739.154 174.953 739.489 175.857 739.489 176.938C739.489 177.773 739.27 178.546 738.832 179.258C738.394 179.956 737.723 180.518 736.82 180.942C735.93 181.366 734.835 181.578 733.535 181.578C732.522 181.578 731.523 181.448 730.537 181.188C729.565 180.915 728.737 180.531 728.053 180.038L729.346 177.492C729.894 177.903 730.523 178.225 731.235 178.457C731.961 178.676 732.7 178.786 733.453 178.786C734.288 178.786 734.945 178.629 735.424 178.314C735.903 177.985 736.142 177.527 736.142 176.938C736.142 175.761 735.246 175.172 733.453 175.172H731.933V172.975L734.89 169.628H728.771V166.959H738.832V169.115L735.588 172.811ZM742.914 181.496C742.353 181.496 741.881 181.305 741.497 180.921C741.114 180.538 740.922 180.059 740.922 179.484C740.922 178.895 741.114 178.423 741.497 178.067C741.881 177.698 742.353 177.513 742.914 177.513C743.475 177.513 743.948 177.698 744.331 178.067C744.714 178.423 744.906 178.895 744.906 179.484C744.906 180.059 744.714 180.538 744.331 180.921C743.948 181.305 743.475 181.496 742.914 181.496ZM757.33 166.959V169.115L751.992 181.332H748.378L753.531 169.669H748.768V172.01H745.811V166.959H757.33ZM765.329 172.318C766.246 172.318 767.081 172.503 767.834 172.873C768.587 173.242 769.183 173.769 769.621 174.454C770.059 175.124 770.278 175.905 770.278 176.794C770.278 177.752 770.038 178.594 769.559 179.32C769.08 180.045 768.423 180.607 767.588 181.004C766.767 181.387 765.85 181.578 764.837 181.578C762.824 181.578 761.25 180.962 760.114 179.73C758.978 178.499 758.41 176.74 758.41 174.454C758.41 172.825 758.718 171.428 759.334 170.265C759.95 169.101 760.805 168.218 761.9 167.616C763.009 167.014 764.289 166.713 765.74 166.713C766.507 166.713 767.239 166.802 767.937 166.98C768.649 167.144 769.251 167.383 769.744 167.698L768.512 170.142C767.8 169.663 766.904 169.423 765.822 169.423C764.604 169.423 763.639 169.779 762.927 170.491C762.215 171.203 761.832 172.236 761.777 173.591C762.626 172.742 763.81 172.318 765.329 172.318ZM764.652 179.094C765.364 179.094 765.938 178.902 766.377 178.519C766.828 178.136 767.054 177.616 767.054 176.959C767.054 176.301 766.828 175.781 766.377 175.398C765.938 175.001 765.35 174.803 764.611 174.803C763.885 174.803 763.29 175.008 762.824 175.419C762.359 175.816 762.126 176.329 762.126 176.959C762.126 177.588 762.352 178.102 762.804 178.499C763.256 178.895 763.872 179.094 764.652 179.094Z" fill="black"/>
<path d="M309.879 150.752C308.702 150.752 307.641 150.513 306.697 150.034C305.766 149.541 305.034 148.863 304.5 148.001C303.98 147.138 303.72 146.16 303.72 145.065C303.72 143.969 303.98 142.991 304.5 142.128C305.034 141.266 305.766 140.595 306.697 140.116C307.641 139.623 308.702 139.377 309.879 139.377C311.043 139.377 312.056 139.623 312.918 140.116C313.794 140.595 314.431 141.287 314.828 142.19L312.343 143.525C311.768 142.512 310.94 142.005 309.859 142.005C309.024 142.005 308.333 142.279 307.785 142.826C307.237 143.374 306.964 144.12 306.964 145.065C306.964 146.009 307.237 146.755 307.785 147.303C308.333 147.85 309.024 148.124 309.859 148.124C310.954 148.124 311.782 147.617 312.343 146.605L314.828 147.96C314.431 148.836 313.794 149.52 312.918 150.013C312.056 150.506 311.043 150.752 309.879 150.752ZM327.759 139.541V150.588H324.556V142.169H319.957V150.588H316.774V139.541H327.759ZM335.122 139.377C336.833 139.377 338.147 139.788 339.064 140.609C339.981 141.417 340.44 142.642 340.44 144.284V150.588H337.442V149.212C336.84 150.239 335.717 150.752 334.075 150.752C333.226 150.752 332.487 150.608 331.857 150.321C331.241 150.034 330.769 149.637 330.44 149.13C330.112 148.624 329.947 148.049 329.947 147.405C329.947 146.379 330.331 145.571 331.097 144.982C331.878 144.394 333.075 144.1 334.691 144.1H337.237C337.237 143.401 337.024 142.868 336.6 142.498C336.176 142.115 335.539 141.923 334.691 141.923C334.102 141.923 333.52 142.019 332.945 142.211C332.384 142.388 331.905 142.635 331.508 142.95L330.358 140.712C330.96 140.287 331.679 139.959 332.514 139.726C333.363 139.493 334.232 139.377 335.122 139.377ZM334.875 148.596C335.423 148.596 335.909 148.473 336.333 148.227C336.757 147.967 337.059 147.59 337.237 147.097V145.968H335.04C333.725 145.968 333.068 146.399 333.068 147.262C333.068 147.672 333.226 148.001 333.541 148.247C333.869 148.48 334.314 148.596 334.875 148.596ZM353.817 139.541V150.588H350.614V142.169H347.123L347.021 144.12C346.966 145.571 346.829 146.776 346.61 147.734C346.391 148.692 346.035 149.445 345.542 149.992C345.05 150.54 344.365 150.814 343.489 150.814C343.024 150.814 342.469 150.732 341.826 150.567L341.99 147.939C342.209 147.967 342.367 147.98 342.463 147.98C342.942 147.98 343.298 147.809 343.53 147.467C343.777 147.111 343.941 146.666 344.023 146.132C344.105 145.585 344.167 144.866 344.208 143.976L344.372 139.541H353.817ZM362.872 143.073C364.31 143.087 365.412 143.415 366.178 144.058C366.945 144.688 367.328 145.585 367.328 146.748C367.328 147.967 366.897 148.918 366.034 149.602C365.186 150.273 363.988 150.608 362.441 150.608L356.897 150.588V139.541H360.08V143.073H362.872ZM362.154 148.329C362.77 148.343 363.242 148.213 363.571 147.939C363.899 147.665 364.063 147.255 364.063 146.707C364.063 146.173 363.899 145.783 363.571 145.537C363.256 145.29 362.783 145.16 362.154 145.147L360.08 145.126V148.329H362.154ZM369.329 139.541H372.512V143.853H377.317V139.541H380.52V150.588H377.317V146.461H372.512V150.588H369.329V139.541ZM393.401 139.541V150.588H390.547V147.426H388.185L386.091 150.588H382.683L385.208 146.974C384.442 146.673 383.853 146.242 383.442 145.681C383.045 145.106 382.847 144.414 382.847 143.607C382.847 142.306 383.312 141.307 384.243 140.609C385.188 139.897 386.481 139.541 388.124 139.541H393.401ZM388.185 142.149C387.501 142.149 386.981 142.272 386.625 142.518C386.283 142.765 386.112 143.162 386.112 143.709C386.112 144.257 386.276 144.661 386.604 144.921C386.947 145.167 387.46 145.29 388.144 145.29H390.547V142.149H388.185Z" fill="#20201F"/>
<path d="M331.952 165.501V179.874H328.625V168.17H325.751V165.501H331.952ZM345.7 165.501V167.657L340.362 179.874H336.748L341.902 168.211H337.138V170.552H334.181V165.501H345.7ZM348.068 180.038C347.506 180.038 347.034 179.847 346.651 179.463C346.268 179.08 346.076 178.601 346.076 178.026C346.076 177.437 346.268 176.965 346.651 176.609C347.034 176.24 347.506 176.055 348.068 176.055C348.629 176.055 349.101 176.24 349.484 176.609C349.868 176.965 350.059 177.437 350.059 178.026C350.059 178.601 349.868 179.08 349.484 179.463C349.101 179.847 348.629 180.038 348.068 180.038ZM362.484 165.501V167.657L357.145 179.874H353.531L358.685 168.211H353.921V170.552H350.965V165.501H362.484ZM369.709 165.501V179.874H366.382V168.17H363.508V165.501H369.709Z" fill="#20201F"/>
<path d="M146.225 361.497H144.561V365.686H141.358V354.639H144.561V358.93H146.286L149.284 354.639H152.692L148.832 359.936L152.959 365.686H149.181L146.225 361.497ZM164.978 354.639L159.988 366.363C159.482 367.636 158.852 368.533 158.099 369.053C157.36 369.573 156.464 369.833 155.409 369.833C154.835 369.833 154.266 369.744 153.705 369.566C153.144 369.388 152.685 369.142 152.33 368.827L153.5 366.548C153.746 366.767 154.027 366.938 154.342 367.061C154.67 367.184 154.992 367.246 155.307 367.246C155.745 367.246 156.101 367.137 156.375 366.918C156.648 366.712 156.895 366.363 157.114 365.87L157.155 365.768L152.371 354.639H155.676L158.777 362.133L161.898 354.639H164.978ZM172.842 365.686L170.419 362.298L167.914 365.686H164.423L168.673 360.121L164.567 354.639H168.16L170.501 357.863L172.903 354.639H176.312L172.205 360.039L176.476 365.686H172.842ZM178.053 354.639H181.235V358.951H186.04V354.639H189.243V365.686H186.04V361.558H181.235V365.686H178.053V354.639ZM202.124 354.639V365.686H199.27V362.523H196.909L194.814 365.686H191.406L193.931 362.072C193.165 361.771 192.576 361.339 192.166 360.778C191.769 360.203 191.57 359.512 191.57 358.704C191.57 357.404 192.036 356.405 192.966 355.707C193.911 354.995 195.204 354.639 196.847 354.639H202.124ZM196.909 357.247C196.224 357.247 195.704 357.37 195.348 357.616C195.006 357.863 194.835 358.26 194.835 358.807C194.835 359.355 194.999 359.758 195.328 360.018C195.67 360.265 196.183 360.388 196.868 360.388H199.27V357.247H196.909Z" fill="black"/>
<path d="M151.871 380.599V394.972H148.545V383.268H145.67V380.599H151.871ZM160.528 395.218C159.337 395.218 158.276 394.924 157.345 394.335C156.414 393.747 155.682 392.898 155.148 391.789C154.628 390.667 154.368 389.332 154.368 387.785C154.368 386.238 154.628 384.911 155.148 383.802C155.682 382.679 156.414 381.824 157.345 381.235C158.276 380.647 159.337 380.352 160.528 380.352C161.719 380.352 162.779 380.647 163.71 381.235C164.641 381.824 165.367 382.679 165.887 383.802C166.421 384.911 166.688 386.238 166.688 387.785C166.688 389.332 166.421 390.667 165.887 391.789C165.367 392.898 164.641 393.747 163.71 394.335C162.779 394.924 161.719 395.218 160.528 395.218ZM160.528 392.405C161.404 392.405 162.088 392.029 162.581 391.276C163.087 390.523 163.341 389.359 163.341 387.785C163.341 386.211 163.087 385.047 162.581 384.295C162.088 383.542 161.404 383.165 160.528 383.165C159.665 383.165 158.981 383.542 158.474 384.295C157.982 385.047 157.735 386.211 157.735 387.785C157.735 389.359 157.982 390.523 158.474 391.276C158.981 392.029 159.665 392.405 160.528 392.405ZM169.932 395.136C169.371 395.136 168.899 394.944 168.515 394.561C168.132 394.178 167.94 393.699 167.94 393.124C167.94 392.535 168.132 392.063 168.515 391.707C168.899 391.337 169.371 391.153 169.932 391.153C170.493 391.153 170.965 391.337 171.349 391.707C171.732 392.063 171.924 392.535 171.924 393.124C171.924 393.699 171.732 394.178 171.349 394.561C170.965 394.944 170.493 395.136 169.932 395.136ZM184.348 380.599V382.755L179.009 394.972H175.396L180.549 383.309H175.786V385.65H172.829V380.599H184.348ZM192.347 385.958C193.264 385.958 194.099 386.143 194.852 386.512C195.605 386.882 196.201 387.409 196.639 388.093C197.077 388.764 197.296 389.544 197.296 390.434C197.296 391.392 197.056 392.234 196.577 392.959C196.098 393.685 195.441 394.246 194.606 394.643C193.785 395.026 192.867 395.218 191.854 395.218C189.842 395.218 188.268 394.602 187.132 393.37C185.996 392.138 185.428 390.379 185.428 388.093C185.428 386.464 185.736 385.068 186.352 383.904C186.968 382.741 187.823 381.858 188.918 381.256C190.027 380.653 191.307 380.352 192.758 380.352C193.524 380.352 194.257 380.441 194.955 380.619C195.667 380.784 196.269 381.023 196.762 381.338L195.53 383.781C194.818 383.302 193.921 383.063 192.84 383.063C191.622 383.063 190.657 383.419 189.945 384.13C189.233 384.842 188.85 385.876 188.795 387.231C189.644 386.382 190.828 385.958 192.347 385.958ZM191.67 392.734C192.381 392.734 192.956 392.542 193.394 392.159C193.846 391.775 194.072 391.255 194.072 390.598C194.072 389.941 193.846 389.421 193.394 389.038C192.956 388.641 192.368 388.442 191.629 388.442C190.903 388.442 190.308 388.648 189.842 389.058C189.377 389.455 189.144 389.969 189.144 390.598C189.144 391.228 189.37 391.741 189.822 392.138C190.273 392.535 190.889 392.734 191.67 392.734Z" fill="black"/>
<path d="M551.624 400L548.618 396.04L545.594 400H544.154L547.898 395.14L544.334 390.532H545.774L548.618 394.24L551.462 390.532H552.866L549.302 395.14L553.082 400H551.624ZM558.748 400.09C557.836 400.09 557.014 399.886 556.282 399.478C555.55 399.058 554.974 398.482 554.554 397.75C554.134 397.018 553.924 396.19 553.924 395.266C553.924 394.342 554.134 393.514 554.554 392.782C554.974 392.05 555.55 391.48 556.282 391.072C557.014 390.664 557.836 390.46 558.748 390.46C559.66 390.46 560.482 390.664 561.214 391.072C561.946 391.48 562.516 392.05 562.924 392.782C563.344 393.514 563.554 394.342 563.554 395.266C563.554 396.19 563.344 397.018 562.924 397.75C562.516 398.482 561.946 399.058 561.214 399.478C560.482 399.886 559.66 400.09 558.748 400.09ZM558.748 398.956C559.42 398.956 560.02 398.806 560.548 398.506C561.088 398.194 561.508 397.756 561.808 397.192C562.108 396.628 562.258 395.986 562.258 395.266C562.258 394.546 562.108 393.904 561.808 393.34C561.508 392.776 561.088 392.344 560.548 392.044C560.02 391.732 559.42 391.576 558.748 391.576C558.076 391.576 557.47 391.732 556.93 392.044C556.402 392.344 555.982 392.776 555.67 393.34C555.37 393.904 555.22 394.546 555.22 395.266C555.22 395.986 555.37 396.628 555.67 397.192C555.982 397.756 556.402 398.194 556.93 398.506C557.47 398.806 558.076 398.956 558.748 398.956ZM573.973 390.532V400H572.695V391.666H568.159L568.033 394.006C567.937 395.974 567.709 397.486 567.349 398.542C566.989 399.598 566.347 400.126 565.423 400.126C565.171 400.126 564.865 400.078 564.505 399.982L564.595 398.884C564.811 398.932 564.961 398.956 565.045 398.956C565.537 398.956 565.909 398.728 566.161 398.272C566.413 397.816 566.581 397.252 566.665 396.58C566.749 395.908 566.821 395.02 566.881 393.916L567.043 390.532H573.973ZM585.346 390.532V400H584.068V391.666H579.532L579.406 394.006C579.31 395.974 579.082 397.486 578.722 398.542C578.362 399.598 577.72 400.126 576.796 400.126C576.544 400.126 576.238 400.078 575.878 399.982L575.968 398.884C576.184 398.932 576.334 398.956 576.418 398.956C576.91 398.956 577.282 398.728 577.534 398.272C577.786 397.816 577.954 397.252 578.038 396.58C578.122 395.908 578.194 395.02 578.254 393.916L578.416 390.532H585.346Z" fill="#20201F"/>
<path d="M552.759 416.685V429.285H551.463V417.837H548.493V416.685H552.759ZM559.262 416.685V429.285H557.966V417.837H554.996V416.685H559.262ZM563.246 429.375C562.982 429.375 562.754 429.279 562.562 429.087C562.382 428.895 562.292 428.661 562.292 428.385C562.292 428.109 562.382 427.881 562.562 427.701C562.754 427.509 562.982 427.413 563.246 427.413C563.51 427.413 563.738 427.509 563.93 427.701C564.122 427.881 564.218 428.109 564.218 428.385C564.218 428.661 564.122 428.895 563.93 429.087C563.738 429.279 563.51 429.375 563.246 429.375ZM576.57 425.973H574.05V429.285H572.754V425.973H565.644V425.037L572.322 416.685H573.762L567.318 424.821H572.79V421.905H574.05V424.821H576.57V425.973ZM580.796 416.685V429.285H579.5V417.837H576.53V416.685H580.796Z" fill="#20201F"/>
<path d="M127.545 123.409V132.877H126.267V124.543H121.731L121.605 126.883C121.509 128.851 121.281 130.363 120.921 131.419C120.561 132.475 119.919 133.003 118.995 133.003C118.743 133.003 118.437 132.955 118.077 132.859L118.167 131.761C118.383 131.809 118.533 131.833 118.617 131.833C119.109 131.833 119.481 131.605 119.733 131.149C119.985 130.693 120.153 130.129 120.237 129.457C120.321 128.785 120.393 127.897 120.453 126.793L120.615 123.409H127.545ZM135.085 132.967C134.173 132.967 133.351 132.763 132.619 132.355C131.887 131.935 131.311 131.359 130.891 130.627C130.471 129.895 130.261 129.067 130.261 128.143C130.261 127.219 130.471 126.391 130.891 125.659C131.311 124.927 131.887 124.357 132.619 123.949C133.351 123.541 134.173 123.337 135.085 123.337C135.997 123.337 136.819 123.541 137.551 123.949C138.283 124.357 138.853 124.927 139.261 125.659C139.681 126.391 139.891 127.219 139.891 128.143C139.891 129.067 139.681 129.895 139.261 130.627C138.853 131.359 138.283 131.935 137.551 132.355C136.819 132.763 135.997 132.967 135.085 132.967ZM135.085 131.833C135.757 131.833 136.357 131.683 136.885 131.383C137.425 131.071 137.845 130.633 138.145 130.069C138.445 129.505 138.595 128.863 138.595 128.143C138.595 127.423 138.445 126.781 138.145 126.217C137.845 125.653 137.425 125.221 136.885 124.921C136.357 124.609 135.757 124.453 135.085 124.453C134.413 124.453 133.807 124.609 133.267 124.921C132.739 125.221 132.319 125.653 132.007 126.217C131.707 126.781 131.557 127.423 131.557 128.143C131.557 128.863 131.707 129.505 132.007 130.069C132.319 130.633 132.739 131.071 133.267 131.383C133.807 131.683 134.413 131.833 135.085 131.833ZM151.804 131.761V135.163H150.598V132.877H142.119V135.163H140.913V131.761H141.453C142.089 131.725 142.521 131.257 142.749 130.357C142.977 129.457 143.133 128.197 143.217 126.577L143.343 123.409H150.328V131.761H151.804ZM144.387 126.649C144.327 127.993 144.213 129.103 144.045 129.979C143.877 130.843 143.577 131.437 143.145 131.761H149.049V124.543H144.495L144.387 126.649ZM162.592 128.665H160.54V132.877H159.262V128.665H157.21L154.312 132.877H152.782L156.184 127.999L153.052 123.409H154.438L157.21 127.567H159.262V123.409H160.54V127.567H162.592L165.382 123.409H166.768L163.636 128.017L167.038 132.877H165.508L162.592 128.665ZM169.166 123.409H170.444V130.933L176.762 123.409H177.896V132.877H176.618V125.353L170.318 132.877H169.166V123.409ZM188.83 123.409V132.877H187.66V129.745H184.69H184.33L182.134 132.877H180.748L183.106 129.565C182.374 129.361 181.81 129.013 181.414 128.521C181.018 128.029 180.82 127.405 180.82 126.649C180.82 125.593 181.18 124.789 181.9 124.237C182.62 123.685 183.604 123.409 184.852 123.409H188.83ZM182.116 126.685C182.116 128.089 183.01 128.791 184.798 128.791H187.66V124.543H184.888C183.04 124.543 182.116 125.257 182.116 126.685Z" fill="#20201F"/>
<path d="M147.013 158.85H144.493V162.162H143.197V158.85H136.087V157.914L142.765 149.562H144.205L137.761 157.698H143.233V154.782H144.493V157.698H147.013V158.85ZM149.527 162.252C149.263 162.252 149.035 162.156 148.843 161.964C148.663 161.772 148.573 161.538 148.573 161.262C148.573 160.986 148.663 160.758 148.843 160.578C149.035 160.386 149.263 160.29 149.527 160.29C149.791 160.29 150.019 160.386 150.211 160.578C150.403 160.758 150.499 160.986 150.499 161.262C150.499 161.538 150.403 161.772 150.211 161.964C150.019 162.156 149.791 162.252 149.527 162.252ZM156.829 154.962C158.149 155.034 159.151 155.394 159.835 156.042C160.531 156.678 160.879 157.512 160.879 158.544C160.879 159.264 160.705 159.906 160.357 160.47C160.009 161.022 159.493 161.46 158.809 161.784C158.125 162.108 157.291 162.27 156.307 162.27C155.395 162.27 154.531 162.126 153.715 161.838C152.911 161.538 152.263 161.142 151.771 160.65L152.401 159.624C152.821 160.056 153.379 160.41 154.075 160.686C154.771 160.95 155.515 161.082 156.307 161.082C157.339 161.082 158.137 160.86 158.701 160.416C159.265 159.96 159.547 159.336 159.547 158.544C159.547 157.764 159.265 157.152 158.701 156.708C158.137 156.264 157.285 156.042 156.145 156.042H155.245V155.088L158.737 150.714H152.293V149.562H160.393V150.48L156.829 154.962ZM169.924 155.556C170.716 155.82 171.322 156.216 171.742 156.744C172.174 157.272 172.39 157.908 172.39 158.652C172.39 159.384 172.192 160.026 171.796 160.578C171.4 161.118 170.83 161.538 170.086 161.838C169.354 162.126 168.49 162.27 167.494 162.27C165.982 162.27 164.794 161.946 163.93 161.298C163.066 160.65 162.633 159.768 162.633 158.652C162.633 157.896 162.837 157.26 163.246 156.744C163.666 156.216 164.272 155.82 165.064 155.556C164.416 155.304 163.924 154.944 163.588 154.476C163.252 153.996 163.084 153.432 163.084 152.784C163.084 151.764 163.48 150.954 164.272 150.354C165.076 149.754 166.15 149.454 167.494 149.454C168.382 149.454 169.156 149.592 169.816 149.868C170.488 150.132 171.01 150.516 171.382 151.02C171.754 151.524 171.94 152.112 171.94 152.784C171.94 153.432 171.766 153.996 171.418 154.476C171.07 154.944 170.572 155.304 169.924 155.556ZM164.38 152.82C164.38 153.516 164.656 154.068 165.208 154.476C165.76 154.884 166.522 155.088 167.494 155.088C168.466 155.088 169.228 154.884 169.78 154.476C170.344 154.068 170.626 153.522 170.626 152.838C170.626 152.13 170.338 151.572 169.762 151.164C169.198 150.756 168.442 150.552 167.494 150.552C166.534 150.552 165.772 150.756 165.208 151.164C164.656 151.572 164.38 152.124 164.38 152.82ZM167.494 161.172C168.61 161.172 169.48 160.944 170.104 160.488C170.74 160.032 171.058 159.414 171.058 158.634C171.058 157.854 170.74 157.242 170.104 156.798C169.48 156.342 168.61 156.114 167.494 156.114C166.39 156.114 165.52 156.342 164.884 156.798C164.26 157.242 163.948 157.854 163.948 158.634C163.948 159.426 164.26 160.05 164.884 160.506C165.508 160.95 166.378 161.172 167.494 161.172Z" fill="#20201F"/>
<path d="M302.57 421.8C303.89 421.872 304.892 422.232 305.576 422.88C306.272 423.516 306.62 424.35 306.62 425.382C306.62 426.102 306.446 426.744 306.098 427.308C305.75 427.86 305.234 428.298 304.55 428.622C303.866 428.946 303.032 429.108 302.048 429.108C301.136 429.108 300.272 428.964 299.456 428.676C298.652 428.376 298.004 427.98 297.512 427.488L298.142 426.462C298.562 426.894 299.12 427.248 299.816 427.524C300.512 427.788 301.256 427.92 302.048 427.92C303.08 427.92 303.878 427.698 304.442 427.254C305.006 426.798 305.288 426.174 305.288 425.382C305.288 424.602 305.006 423.99 304.442 423.546C303.878 423.102 303.026 422.88 301.886 422.88H300.986V421.926L304.478 417.552H298.034V416.4H306.134V417.318L302.57 421.8ZM309.418 429.09C309.154 429.09 308.926 428.994 308.734 428.802C308.554 428.61 308.464 428.376 308.464 428.1C308.464 427.824 308.554 427.596 308.734 427.416C308.926 427.224 309.154 427.128 309.418 427.128C309.682 427.128 309.91 427.224 310.102 427.416C310.294 427.596 310.39 427.824 310.39 428.1C310.39 428.376 310.294 428.61 310.102 428.802C309.91 428.994 309.682 429.09 309.418 429.09ZM322.742 425.688H320.222V429H318.926V425.688H311.816V424.752L318.494 416.4H319.934L313.49 424.536H318.962V421.62H320.222V424.536H322.742V425.688ZM326.967 416.4V429H325.671V417.552H322.701V416.4H326.967Z" fill="#20201F"/>
<path d="M428.538 416.4V429H427.242V417.552H424.272V416.4H428.538ZM432.522 429.09C432.258 429.09 432.03 428.994 431.838 428.802C431.658 428.61 431.568 428.376 431.568 428.1C431.568 427.824 431.658 427.596 431.838 427.416C432.03 427.224 432.258 427.128 432.522 427.128C432.786 427.128 433.014 427.224 433.206 427.416C433.398 427.596 433.494 427.824 433.494 428.1C433.494 428.376 433.398 428.61 433.206 428.802C433.014 428.994 432.786 429.09 432.522 429.09ZM440.391 421.458C441.219 421.458 441.951 421.614 442.587 421.926C443.235 422.238 443.739 422.682 444.099 423.258C444.459 423.822 444.639 424.482 444.639 425.238C444.639 426.006 444.453 426.684 444.081 427.272C443.709 427.86 443.193 428.316 442.533 428.64C441.885 428.952 441.153 429.108 440.337 429.108C438.669 429.108 437.391 428.562 436.503 427.47C435.615 426.366 435.171 424.812 435.171 422.808C435.171 421.404 435.411 420.216 435.891 419.244C436.371 418.272 437.043 417.54 437.907 417.048C438.771 416.544 439.779 416.292 440.931 416.292C442.179 416.292 443.175 416.52 443.919 416.976L443.397 418.02C442.797 417.624 441.981 417.426 440.949 417.426C439.557 417.426 438.465 417.87 437.673 418.758C436.881 419.634 436.485 420.912 436.485 422.592C436.485 422.892 436.503 423.234 436.539 423.618C436.851 422.934 437.349 422.406 438.033 422.034C438.717 421.65 439.503 421.458 440.391 421.458ZM440.283 428.01C441.195 428.01 441.933 427.764 442.497 427.272C443.073 426.768 443.361 426.102 443.361 425.274C443.361 424.446 443.073 423.786 442.497 423.294C441.933 422.802 441.165 422.556 440.193 422.556C439.557 422.556 438.993 422.676 438.501 422.916C438.021 423.156 437.643 423.486 437.367 423.906C437.091 424.326 436.953 424.794 436.953 425.31C436.953 425.79 437.079 426.234 437.331 426.642C437.595 427.05 437.979 427.38 438.483 427.632C438.987 427.884 439.587 428.01 440.283 428.01ZM450.064 416.292C451.732 416.292 453.01 416.844 453.898 417.948C454.786 419.04 455.23 420.588 455.23 422.592C455.23 423.996 454.99 425.184 454.51 426.156C454.03 427.128 453.358 427.866 452.494 428.37C451.63 428.862 450.622 429.108 449.47 429.108C448.222 429.108 447.226 428.88 446.482 428.424L447.004 427.38C447.604 427.776 448.42 427.974 449.452 427.974C450.844 427.974 451.936 427.536 452.728 426.66C453.52 425.772 453.916 424.488 453.916 422.808C453.916 422.496 453.898 422.154 453.862 421.782C453.55 422.466 453.052 423 452.368 423.384C451.684 423.756 450.898 423.942 450.01 423.942C449.182 423.942 448.444 423.786 447.796 423.474C447.16 423.162 446.662 422.724 446.302 422.16C445.942 421.584 445.762 420.918 445.762 420.162C445.762 419.394 445.948 418.716 446.32 418.128C446.692 417.54 447.202 417.09 447.85 416.778C448.51 416.454 449.248 416.292 450.064 416.292ZM450.208 422.844C450.844 422.844 451.402 422.724 451.882 422.484C452.374 422.244 452.758 421.914 453.034 421.494C453.31 421.074 453.448 420.606 453.448 420.09C453.448 419.61 453.316 419.166 453.052 418.758C452.8 418.35 452.422 418.02 451.918 417.768C451.414 417.516 450.814 417.39 450.118 417.39C449.206 417.39 448.462 417.642 447.886 418.146C447.322 418.638 447.04 419.298 447.04 420.126C447.04 420.954 447.322 421.614 447.886 422.106C448.462 422.598 449.236 422.844 450.208 422.844Z" fill="#20201F"/>
</g>
<defs>
<clipPath id="clip0_2384_28739">
<rect width="854.585" height="470.115" fill="white" transform="translate(48 40)"/>
</clipPath>
</defs>
</svg>
