<svg width="700" height="500" fill="none" xmlns="http://www.w3.org/2000/svg"><path fill="#fff" d="M0 0h700v500H0z"/><g clip-path="url(#a)"><path fill-rule="evenodd" clip-rule="evenodd" d="M34 42h631.687v416.813H41.79v-79.054H34V42z" fill="#ED9FA6"/><path fill-rule="evenodd" clip-rule="evenodd" d="M635.263 458.813v-30.538h15.571v-371.3H34V42h631.687v416.813h-30.424z" fill="#CFD0D0"/><path fill-rule="evenodd" clip-rule="evenodd" d="M34 42h631.687v416.813H41.79v-79.054H34V42z" fill="#E4CDA1"/><path d="M477.166 407.313h-35.938v35.929h35.938v-35.929zM272.348 349.221h-14.966v94.021h14.966v-94.021zM48.975 349.222H34v14.967h14.975v-14.967zM665.687 42h-14.976v416.813h14.976V42zM48.975 42H34v307.222h14.975V42z" fill="#20201F"/><path d="M422.273 42H34v14.975h388.273V42zM665.687 42H482.37v14.975h183.317V42zM456.799 164.771h-15.571v85.635h15.571v-85.635zM665.687 89.911h-14.853v14.976h14.853V89.911zM126.225 349.222H34v22.756h92.225v-22.756zM257.381 349.222h-23.36v22.756h23.36v-22.756zM302.291 428.275h-29.943v22.757h29.943v-22.757zM499.922 428.275H398.113v22.757h101.809v-22.757zM650.712 428.275h-54.966v22.757h54.966v-22.757zM650.712 451.032h-58.564v7.781h58.564v-7.781zM503.511 451.032H394.524v7.781h108.987v-7.781zM305.888 451.032h-33.54v7.781h33.54v-7.781z" fill="#20201F"/><path d="M272.348 451.627h-30.537v7.186h30.537v-7.186z" fill="#20201F"/><path d="M248.997 379.759h-7.186v79.054h7.186v-79.054zM257.381 371.978h-23.36v7.781h23.36v-7.781zM126.225 371.978H34v7.781h92.225v-7.781zM49 380h-7v79h7v-79z" fill="#20201F"/><path d="M241.811 451.627H45.383v7.186H241.81v-7.186zM654.827 454.279h-16.314v4.534h16.314v-4.534zM262.055 375.869h-16.354v78.974h16.354v-78.974z" fill="#20201F"/><path d="M277.715 440.232h-22.27v14.611h22.27v-14.611zM272.348 56.975h-4.787v50.582h4.787V56.975zM272.348 161.455h-4.787v187.767h4.787V161.455z" fill="#20201F"/><path d="M333.066 164.771h-60.718v4.788h60.718v-4.788zM467.123 245.618h-10.324v4.788h10.324v-4.788zM446.024 250.406h-4.796v156.907h4.796V250.406zM650.712 283.946h-67.544v4.787h67.544v-4.787zM531.66 245.618h-16.635v4.788h16.635v-4.788z" fill="#20201F"/><path d="M531.66 237.854h-4.789v12.552h4.789v-12.552zM531.66 105.882h-4.789v90.048h4.789v-90.048zM650.834 127.04h-67.666v4.796h67.666v-4.796z" fill="#20201F"/><path d="M583.168 127.04H531.66v4.796h51.508v-4.796zM583.168 283.946H531.66v4.787h51.508v-4.787zM531.66 250.406h-4.789v38.327h4.789v-38.327zM441.832 164.771h-54.867v4.788h54.867v-4.788zM531.66 56.73h-4.789v7.227h4.789V56.73zM592.148 454.96h-88.637v3.853h88.637v-3.853zM595.745 447.196h-95.823v3.851h95.823v-3.851zM595.745 428.291h-95.823v3.851h95.823v-3.851zM394.516 454.96h-88.637v3.853h88.637v-3.853zM398.114 447.196h-95.823v3.851h95.823v-3.851zM398.114 428.291h-95.823v3.851h95.823v-3.851z" fill="#20201F"/><path d="M394.516 454.96h-88.637v3.853h88.637v-3.853zM398.114 447.196h-95.823v3.851h95.823v-3.851zM398.114 428.291h-95.823v3.851h95.823v-3.851zM186.108 375.889h-59.883v3.852h59.883v-3.852zM186.11 368.125h-59.885v3.851h59.885v-3.851zM186.11 349.22h-59.885v3.851h59.885v-3.851z" fill="#20201F"/><path d="M186.11 349.22h-2.827v30.543h2.827V349.22z" fill="#20201F"/><path fill-rule="evenodd" clip-rule="evenodd" d="M232.319 371.308a1.702 1.702 0 0 1-3.402 0v-35.996a1.702 1.702 0 0 1 3.402 0v35.996zM189.706 371.65a.85.85 0 0 1-1.701 0c0-10.27 4.211-19.569 11.015-26.298 6.802-6.728 16.2-10.891 26.574-10.891a.851.851 0 1 1 0 1.701c-9.909 0-18.884 3.976-25.379 10.4-6.492 6.42-10.509 15.291-10.509 25.088zM271.71 109.385a1.701 1.701 0 0 1 0 3.402h-35.997a1.702 1.702 0 0 1 0-3.402h35.997zM272.051 155.98a.85.85 0 1 1 0 1.701c-10.283 0-19.592-4.614-26.324-12.07-6.711-7.432-10.864-17.697-10.864-29.022a.85.85 0 0 1 1.701 0c0 10.893 3.985 20.753 10.425 27.886 6.417 7.107 15.28 11.505 25.062 11.505zM381.291 167.087a1.701 1.701 0 0 1 3.401 0v35.996a1.702 1.702 0 0 1-3.401 0v-35.996zM336.396 166.745a.85.85 0 0 1 1.701 0c0 9.782 4.399 18.645 11.505 25.062 7.133 6.441 16.994 10.426 27.886 10.426a.85.85 0 1 1 0 1.701c-11.325 0-21.589-4.154-29.022-10.865-7.455-6.732-12.07-16.04-12.07-26.324zM530.854 68.549a1.7 1.7 0 0 1 0-3.402h35.997a1.701 1.701 0 0 1 0 3.401h-35.997zM530.513 103.75a.85.85 0 1 1 0-1.7c9.823 0 18.711-3.47 25.135-9.078C562.043 87.39 566 79.685 566 71.184a.85.85 0 0 1 1.701 0c0 9.01-4.18 17.166-10.937 23.063-6.726 5.871-16.008 9.503-26.251 9.503zM528.545 236.224a1.701 1.701 0 0 1 0-3.402h35.997a1.702 1.702 0 0 1 0 3.402h-35.997zM528.204 199.763a.851.851 0 1 1 0-1.701c10.241 0 19.522 3.588 26.247 9.386 6.759 5.826 10.941 13.886 10.941 22.792a.85.85 0 0 1-1.701 0c0-8.391-3.956-15.999-10.349-21.51-6.425-5.54-15.313-8.967-25.138-8.967zM469.279 248.088a1.702 1.702 0 0 1 3.402 0v35.996a1.702 1.702 0 0 1-3.402 0v-35.996zM511.319 247.746a.85.85 0 1 1 1.701 0c0 10.265-4.152 19.562-10.863 26.292-6.713 6.731-15.986 10.896-26.223 10.896a.85.85 0 0 1 0-1.7c9.771 0 18.619-3.973 25.02-10.392a35.43 35.43 0 0 0 10.365-25.096zM424.44 45.448a1.701 1.701 0 0 1 3.402 0v35.997a1.702 1.702 0 0 1-3.402 0V45.448zM477.517 45.106a.85.85 0 0 1 1.701 0c0 10.305-5.27 19.624-13.784 26.358-8.46 6.691-20.135 10.831-33.01 10.831a.85.85 0 1 1 0-1.7c12.49 0 23.792-3.998 31.961-10.46 8.112-6.415 13.132-15.266 13.132-25.029zM648.381 403.948v-90.354h-36.142v91.417h36.142v-1.063zm-4.274-62.076c0 .995-.406 1.901-1.064 2.555a3.608 3.608 0 0 1-2.55 1.061h-20.409a3.625 3.625 0 0 1-3.614-3.616v-20.409a3.62 3.62 0 0 1 3.614-3.613h20.409c.995 0 1.9.406 2.551 1.063a3.598 3.598 0 0 1 1.063 2.55v20.409zm-1.688 51.566a4.99 4.99 0 0 1-1.465 3.532 4.982 4.982 0 0 1-3.532 1.464 4.98 4.98 0 0 1-3.531-1.467 4.983 4.983 0 0 1 .001-7.059 4.976 4.976 0 0 1 3.53-1.466c1.378 0 2.628.56 3.532 1.464a4.983 4.983 0 0 1 1.465 3.532zm-13.164 0a6.04 6.04 0 0 1-1.775 4.283 6.047 6.047 0 0 1-4.284 1.776 6.041 6.041 0 0 1-4.283-1.776 6.041 6.041 0 0 1-1.776-4.283c0-1.671.68-3.187 1.776-4.284a6.04 6.04 0 0 1 4.283-1.775c1.671 0 3.187.679 4.284 1.775a6.046 6.046 0 0 1 1.775 4.284zm-2.826-3.232a4.561 4.561 0 0 1 1.338 3.232 4.56 4.56 0 0 1-1.338 3.232 4.562 4.562 0 0 1-3.233 1.339 4.558 4.558 0 0 1-3.232-1.339 4.556 4.556 0 0 1-1.339-3.232c0-1.262.513-2.407 1.339-3.232a4.558 4.558 0 0 1 3.232-1.339c1.262 0 2.407.513 3.233 1.339zm17.053-9.763c0 1.672-.68 3.187-1.776 4.283a6.04 6.04 0 0 1-4.284 1.776 6.043 6.043 0 0 1-4.284-1.775 6.043 6.043 0 0 1-1.775-4.284c0-1.672.68-3.187 1.776-4.283a6.037 6.037 0 0 1 4.283-1.776c1.671 0 3.188.679 4.284 1.776a6.043 6.043 0 0 1 1.776 4.283zm-2.827-3.232a4.557 4.557 0 0 1 1.338 3.232 4.555 4.555 0 0 1-1.338 3.232 4.56 4.56 0 0 1-3.233 1.339 4.563 4.563 0 0 1-4.57-4.571c0-1.263.512-2.407 1.338-3.232a4.56 4.56 0 0 1 3.232-1.339c1.262 0 2.407.513 3.233 1.339zm-12.463 3.232a4.99 4.99 0 0 1-1.464 3.532 4.985 4.985 0 0 1-7.064-.003 4.982 4.982 0 0 1 .002-7.059 4.975 4.975 0 0 1 3.53-1.466c1.378 0 2.628.56 3.532 1.464a4.982 4.982 0 0 1 1.464 3.532zm-2.515-2.481a3.503 3.503 0 0 1 1.027 2.481c0 .971-.392 1.849-1.025 2.481a3.512 3.512 0 0 1-5.991-2.481 3.5 3.5 0 0 1 1.028-2.481 3.484 3.484 0 0 1 2.48-1.027c.969 0 1.847.394 2.481 1.027zm14.226 12.995a3.503 3.503 0 0 1 1.027 2.481 3.498 3.498 0 0 1-3.508 3.508 3.492 3.492 0 0 1-2.48-1.025 3.497 3.497 0 0 1-1.028-2.483 3.5 3.5 0 0 1 1.028-2.481 3.486 3.486 0 0 1 2.48-1.027c.969 0 1.847.394 2.481 1.027zm2.078-69.494v20.409c0 .409-.168.782-.438 1.052-.267.27-.64.438-1.05.438h-20.409c-.41 0-.784-.168-1.052-.437a1.497 1.497 0 0 1-.436-1.053v-20.409c0-.41.166-.782.433-1.049.274-.27.648-.438 1.055-.438h20.409c.407 0 .781.168 1.05.438.272.267.438.639.438 1.049zm-27.616 49.567h31.89v31.855h-31.89V371.03zm31.89-2.126h-31.89V315.72h31.89v53.184zM616.04 100.653c2.797 1.798 6.386 2.909 9.541 2.909 3.105 0 5.529-1.066 7.216-2.81v-.005c.638-.661 1.132-1.445 1.55-2.276v3.588c0 2.141.895 3.397 2.331 4.125 1.307.665 3.036.83 4.932.83h.782v-.02c1.58-.044 3.022-.241 4.146-.81 1.435-.728 2.326-1.984 2.326-4.115V84.475c0-2.14-.891-3.394-2.326-4.119-1.124-.564-2.566-.767-4.146-.81v-.019h-.782c-1.896 0-3.625.164-4.932.83-1.436.724-2.331 1.977-2.331 4.118v3.594c-.418-.83-.907-1.612-1.55-2.275-1.687-1.747-4.111-2.813-7.216-2.813-3.335 0-7.151 1.243-10.014 3.225-2.641 1.83-4.495 4.303-4.495 7.064 0 2.925 2.079 5.529 4.968 7.383zm27.903-7.89h.005v.003c0 .631-.263 1.212-.681 1.63v.005a2.3 2.3 0 0 1-3.259 0H640l.001-.005a2.312 2.312 0 0 1 1.634-3.943 2.313 2.313 0 0 1 2.308 2.31zm-1.183-.002v.005c0 .311-.124.593-.32.793h-.008a1.14 1.14 0 0 1-1.597.01l-.005-.009a1.136 1.136 0 0 1-.323-.794c0-.322.126-.602.323-.803.201-.196.49-.32.805-.32.315 0 .601.124.797.33.209.196.336.48.336.788h-.008zm-6.85-8.286c0-1.444.567-2.27 1.466-2.73.932-.464 2.224-.62 3.685-.647h.549c1.683 0 3.191.128 4.23.648.899.46 1.46 1.286 1.46 2.729v17.594c0 1.441-.561 2.263-1.46 2.723-1.039.524-2.547.651-4.23.651h-.609c-1.431-.032-2.714-.186-3.625-.648-.907-.463-1.466-1.292-1.466-2.736V84.475zm-19.458 3.011c2.612-1.811 6.093-2.944 9.129-2.944 2.653 0 4.694.886 6.094 2.332 1.534 1.583 2.326 3.862 2.326 6.396 0 2.539-.792 4.815-2.326 6.402-1.4 1.443-3.441 2.328-6.094 2.328-2.868 0-6.143-1.015-8.702-2.659-2.467-1.583-4.244-3.74-4.244-6.07 0-2.192 1.58-4.229 3.817-5.785zM648.011 210.753l.006-19.49c0-6.518-13.492-5.751-14.393-5.683a11.293 11.293 0 0 0-8.007 3.326 11.307 11.307 0 0 0-3.315 8.009v8.271c0 3.129 1.266 5.964 3.315 8.018a11.388 11.388 0 0 0 8.013 3.329c.915.042 14.387.713 14.381-5.78zm-13.142-9.706h-.003a2.534 2.534 0 0 1-.727 1.77 2.534 2.534 0 0 1-1.765.718 2.485 2.485 0 0 1-2.493-2.49c0-.684.276-1.309.728-1.76v-.008h.005a2.478 2.478 0 0 1 1.76-.732c.682 0 1.315.281 1.765.732v.003a2.5 2.5 0 0 1 .734 1.765l-.004.002zm-1.272.005c0 .325-.134.632-.359.852a1.226 1.226 0 0 1-.864.352c-.341 0-.649-.132-.87-.346a1.227 1.227 0 0 1-.347-.865c0-.344.133-.64.347-.861l.006-.005a1.21 1.21 0 0 1 .864-.352c.335 0 .643.142.864.354l.002.005c.216.215.346.522.346.854l-.002.012h.013zm9.665-.005c0 3.143-.936 5.995-2.439 8.069-1.571 2.155-3.767 3.494-6.2 3.496-2.442 0-4.637-1.341-6.212-3.496-1.511-2.082-2.439-4.936-2.439-8.079v-.013c.007-3.135.942-5.981 2.448-8.061 1.571-2.146 3.761-3.483 6.189-3.484l.014.001c2.439 0 4.622 1.337 6.2 3.5 1.505 2.069 2.439 4.92 2.436 8.06l.003.007zm-1.758 0c-.005 2.754-.813 5.242-2.111 7.042-1.242 1.698-2.933 2.755-4.77 2.755-1.849 0-3.54-1.057-4.787-2.769-1.293-1.79-2.099-4.274-2.099-7.038v-.005l-.005-.008c.005-2.756.811-5.234 2.112-7.025 1.236-1.694 2.93-2.75 4.765-2.755l.014.005c1.84-.003 3.533 1.055 4.77 2.756 1.293 1.791 2.106 4.276 2.104 7.032v.01h.007zm4.748 9.7c0 4.839-12.525 4.015-12.558 4.015l-.064-.008a9.559 9.559 0 0 1-6.764-2.791 9.577 9.577 0 0 1-2.799-6.777v-8.262a9.558 9.558 0 0 1 9.563-9.584l.062-.003c.031 0 12.56-.887 12.56 3.931v19.479zM645.867 136.712H544.279v41.558h101.588v-41.558zm-19.795 24.818a4.039 4.039 0 1 1 0-8.076 4.039 4.039 0 0 1 0 8.076zm-1.715-2.324a2.42 2.42 0 0 1-.709-1.715 2.419 2.419 0 0 1 2.424-2.424 2.423 2.423 0 0 1 1.714 4.138 2.426 2.426 0 0 1-3.429.001zm13.843 17.875-71.713-1.616c-10.77 0-19.59-7.204-19.59-17.974 0-10.771 8.82-17.975 19.59-17.975l71.713-1.615c1.389 0 2.653.569 3.567 1.482a5.054 5.054 0 0 1 1.482 3.567v29.082a5.038 5.038 0 0 1-1.482 3.562 5.038 5.038 0 0 1-3.567 1.487zm-71.713-3.636c-9.667 0-17.57-6.287-17.57-15.954 0-9.667 7.903-15.955 17.57-15.955l71.713-1.616a3.035 3.035 0 0 1 3.029 3.03v29.082a3.02 3.02 0 0 1-.891 2.142 3.017 3.017 0 0 1-2.138.887l-71.713-1.616zm-22.422-38.712h102.016c.507 0 .97.201 1.305.52.338.32.546.766.546 1.255v41.966c0 .488-.208.934-.542 1.254-.335.321-.8.521-1.309.521H544.065c-.509 0-.974-.2-1.309-.521a1.755 1.755 0 0 1-.542-1.254v-41.966c0-.486.209-.93.542-1.252.34-.323.802-.523 1.309-.523z" fill="#20201F"/><path d="M121.846 90h-2.126v101.095h2.126V90zM145.73 115.447v1.314h-10.082v-1.047l5.975-5.852c.753-.739 1.26-1.375 1.52-1.909.273-.548.41-1.095.41-1.643 0-.848-.294-1.505-.883-1.971-.575-.479-1.403-.719-2.484-.719-1.684 0-2.991.534-3.922 1.602l-1.047-.903c.561-.657 1.273-1.164 2.135-1.52.876-.356 1.862-.534 2.957-.534 1.465 0 2.621.349 3.47 1.047.863.685 1.294 1.629 1.294 2.834 0 .739-.165 1.451-.493 2.135-.329.685-.951 1.472-1.869 2.362l-4.886 4.804h7.905zm6.331-13.182c1.903 0 3.361.63 4.374 1.889 1.013 1.246 1.519 3.012 1.519 5.298 0 1.601-.274 2.957-.821 4.065-.548 1.109-1.314 1.951-2.3 2.526-.985.561-2.135.842-3.449.842-1.424 0-2.56-.26-3.409-.781l.596-1.19c.684.451 1.615.677 2.792.677 1.588 0 2.834-.5 3.737-1.499.904-1.013 1.355-2.477 1.355-4.394 0-.356-.02-.746-.061-1.17-.356.78-.924 1.389-1.705 1.827-.78.425-1.676.637-2.689.637-.945 0-1.787-.178-2.526-.534a4.138 4.138 0 0 1-1.704-1.499c-.411-.657-.616-1.417-.616-2.279 0-.876.212-1.65.636-2.32a4.153 4.153 0 0 1 1.746-1.54c.753-.37 1.594-.555 2.525-.555zm.165 7.474c.725 0 1.362-.137 1.909-.41a3.228 3.228 0 0 0 1.314-1.13 2.851 2.851 0 0 0 .472-1.601c0-.548-.15-1.054-.451-1.52-.288-.465-.719-.842-1.294-1.129-.575-.287-1.259-.431-2.053-.431-1.04 0-1.889.287-2.546.862-.644.561-.965 1.314-.965 2.259 0 .944.321 1.697.965 2.258.657.562 1.54.842 2.649.842zm8.76 7.125c-.302 0-.562-.109-.781-.328a1.13 1.13 0 0 1-.308-.801c0-.315.103-.575.308-.78.219-.219.479-.329.781-.329.301 0 .561.11.78.329.219.205.328.465.328.78s-.109.582-.328.801a1.065 1.065 0 0 1-.78.328zm7.02-8.583c2.081 0 3.593.377 4.538 1.13.958.739 1.437 1.779 1.437 3.121 0 .835-.198 1.581-.595 2.238-.384.657-.965 1.177-1.746 1.56-.78.37-1.738.555-2.874.555a8.774 8.774 0 0 1-2.937-.493c-.917-.342-1.656-.794-2.217-1.355l.719-1.171c.479.493 1.108.897 1.889 1.212.78.301 1.622.452 2.525.452 1.191 0 2.108-.267 2.752-.801.657-.534.985-1.246.985-2.136 0-.985-.369-1.731-1.109-2.238-.725-.506-1.957-.759-3.696-.759h-3.059l.739-7.207h7.864v1.314h-6.57l-.493 4.578h1.848zm17.714-5.892v1.047l-6.016 13.325h-1.601l5.913-13.058h-7.392v2.689h-1.458v-4.003h10.554zM139.386 137.568c2.08 0 3.593.376 4.537 1.129.958.739 1.438 1.779 1.438 3.121 0 .835-.199 1.581-.596 2.238-.383.657-.965 1.177-1.745 1.56-.78.37-1.739.555-2.875.555a8.747 8.747 0 0 1-2.936-.493c-.917-.342-1.656-.794-2.217-1.355l.718-1.171c.479.493 1.109.897 1.889 1.212.78.301 1.622.452 2.526.452 1.191 0 2.108-.267 2.751-.801.657-.534.986-1.246.986-2.136 0-.985-.37-1.731-1.109-2.238-.726-.506-1.958-.759-3.696-.759h-3.059l.739-7.207h7.864v1.314h-6.571l-.492 4.579h1.848zm12.638.266c1.506.083 2.649.493 3.429 1.232.794.726 1.191 1.677 1.191 2.855 0 .821-.199 1.553-.596 2.197-.397.629-.985 1.129-1.765 1.498-.781.37-1.732.555-2.854.555a8.806 8.806 0 0 1-2.957-.493c-.917-.342-1.657-.794-2.218-1.355l.719-1.171c.479.493 1.116.897 1.909 1.212a7.125 7.125 0 0 0 2.547.452c1.177 0 2.087-.254 2.73-.76.644-.52.965-1.232.965-2.135 0-.89-.321-1.588-.965-2.095-.643-.506-1.615-.76-2.915-.76h-1.027v-1.088l3.983-4.989h-7.35v-1.314h9.239v1.047l-4.065 5.112zm7.812 8.316c-.301 0-.562-.109-.781-.328a1.13 1.13 0 0 1-.308-.801c0-.315.103-.575.308-.78.219-.219.48-.329.781-.329.301 0 .561.11.78.329.219.205.328.465.328.78s-.109.582-.328.801a1.065 1.065 0 0 1-.78.328zm7.02-8.582c2.081 0 3.593.376 4.538 1.129.958.739 1.437 1.779 1.437 3.121 0 .835-.198 1.581-.595 2.238-.384.657-.965 1.177-1.746 1.56-.78.37-1.738.555-2.874.555a8.743 8.743 0 0 1-2.936-.493c-.917-.342-1.657-.794-2.218-1.355l.719-1.171c.479.493 1.109.897 1.889 1.212.78.301 1.622.452 2.525.452 1.191 0 2.108-.267 2.752-.801.657-.534.985-1.246.985-2.136 0-.985-.369-1.731-1.108-2.238-.726-.506-1.958-.759-3.696-.759h-3.06l.739-7.207h7.865v1.314h-6.571l-.493 4.579h1.848zm16.086.944c.903.301 1.594.753 2.074 1.355.492.603.739 1.328.739 2.177 0 .835-.226 1.567-.678 2.197-.452.616-1.102 1.095-1.951 1.437-.835.329-1.82.493-2.956.493-1.725 0-3.08-.37-4.066-1.109-.985-.739-1.478-1.745-1.478-3.018 0-.863.233-1.588.698-2.177.479-.602 1.17-1.054 2.074-1.355-.739-.287-1.301-.698-1.684-1.232-.383-.547-.575-1.191-.575-1.93 0-1.164.452-2.087 1.355-2.772.918-.684 2.143-1.027 3.676-1.027 1.013 0 1.896.158 2.649.473.766.301 1.362.739 1.786 1.314.424.575.636 1.245.636 2.012 0 .739-.198 1.383-.595 1.93-.397.534-.965.945-1.704 1.232zm-6.324-3.121c0 .794.314 1.424.944 1.889.63.466 1.499.698 2.608.698s1.978-.232 2.607-.698c.644-.465.965-1.088.965-1.868 0-.808-.328-1.445-.985-1.91-.643-.465-1.506-.698-2.587-.698-1.095 0-1.965.233-2.608.698-.63.465-.944 1.095-.944 1.889zm3.552 9.527c1.273 0 2.265-.26 2.977-.78.726-.52 1.088-1.225 1.088-2.115 0-.89-.362-1.588-1.088-2.094-.712-.52-1.704-.78-2.977-.78-1.26 0-2.252.26-2.977.78-.712.506-1.068 1.204-1.068 2.094 0 .904.356 1.615 1.068 2.136.711.506 1.704.759 2.977.759zM142.209 166.853c2.08 0 3.593.377 4.538 1.13.958.739 1.437 1.779 1.437 3.12 0 .835-.199 1.582-.596 2.239-.383.657-.965 1.177-1.745 1.56-.78.37-1.738.554-2.875.554a8.772 8.772 0 0 1-2.936-.492c-.917-.343-1.656-.794-2.217-1.356l.718-1.17c.48.493 1.109.897 1.889 1.212a6.964 6.964 0 0 0 2.526.451c1.191 0 2.108-.267 2.751-.8.657-.534.986-1.246.986-2.136 0-.985-.37-1.732-1.109-2.238-.725-.506-1.957-.76-3.696-.76h-3.059l.739-7.207h7.864v1.314h-6.57l-.493 4.579h1.848zm11.529 0c2.081 0 3.594.377 4.538 1.13.958.739 1.437 1.779 1.437 3.12 0 .835-.198 1.582-.595 2.239-.383.657-.965 1.177-1.745 1.56-.781.37-1.739.554-2.875.554a8.772 8.772 0 0 1-2.936-.492c-.917-.343-1.656-.794-2.218-1.356l.719-1.17c.479.493 1.109.897 1.889 1.212.78.301 1.622.451 2.526.451 1.191 0 2.108-.267 2.751-.8.657-.534.986-1.246.986-2.136 0-.985-.37-1.732-1.109-2.238-.726-.506-1.958-.76-3.696-.76h-3.059l.739-7.207h7.864v1.314h-6.571l-.493 4.579h1.848zm8.961 8.583c-.301 0-.561-.11-.78-.329a1.124 1.124 0 0 1-.308-.8c0-.315.102-.575.308-.781.219-.219.479-.328.78-.328.301 0 .561.109.78.328.219.206.329.466.329.781 0 .314-.11.581-.329.8a1.066 1.066 0 0 1-.78.329zm7.021-8.583c2.08 0 3.593.377 4.537 1.13.958.739 1.438 1.779 1.438 3.12 0 .835-.199 1.582-.596 2.239-.383.657-.965 1.177-1.745 1.56-.78.37-1.739.554-2.875.554a8.772 8.772 0 0 1-2.936-.492c-.917-.343-1.656-.794-2.217-1.356l.718-1.17c.479.493 1.109.897 1.889 1.212.78.301 1.622.451 2.526.451 1.191 0 2.108-.267 2.751-.8.657-.534.986-1.246.986-2.136 0-.985-.37-1.732-1.109-2.238-.726-.506-1.958-.76-3.696-.76h-3.059l.739-7.207h7.864v1.314h-6.571l-.492 4.579h1.848zm11.835-5.893v14.373h-1.479v-13.059h-3.388v-1.314h4.867zM105.956 153.411V161H75.543v-6.036l15.522-14.661c1.648-1.571 2.76-2.913 3.335-4.024.575-1.15.862-2.281.862-3.392 0-1.61-.556-2.836-1.667-3.68-1.073-.881-2.664-1.322-4.772-1.322-1.763 0-3.354.345-4.772 1.035-1.418.651-2.606 1.648-3.564 2.989l-6.784-4.369c1.571-2.338 3.737-4.158 6.496-5.462 2.76-1.341 5.922-2.012 9.486-2.012 2.99 0 5.596.498 7.82 1.495 2.26.958 4.005 2.338 5.231 4.139 1.265 1.763 1.897 3.852 1.897 6.267 0 2.185-.46 4.235-1.38 6.152-.919 1.916-2.702 4.101-5.346 6.554l-9.256 8.738h17.305zM109.373 262.426h-5.667v8.418h-3.183v-11.046h8.85v2.628zm6.41 8.583c-1.163 0-2.21-.24-3.141-.719a5.506 5.506 0 0 1-2.156-2.033c-.52-.862-.78-1.841-.78-2.936s.26-2.074.78-2.936a5.365 5.365 0 0 1 2.156-2.012c.931-.493 1.978-.739 3.141-.739 1.164 0 2.204.246 3.121.739a5.365 5.365 0 0 1 2.156 2.012c.52.862.78 1.841.78 2.936s-.26 2.074-.78 2.936a5.506 5.506 0 0 1-2.156 2.033c-.917.479-1.957.719-3.121.719zm0-2.628c.822 0 1.492-.274 2.013-.822.533-.561.8-1.307.8-2.238s-.267-1.67-.8-2.217c-.521-.562-1.191-.842-2.013-.842-.821 0-1.499.28-2.032.842-.534.547-.801 1.286-.801 2.217s.267 1.677.801 2.238c.533.548 1.211.822 2.032.822zm13.517 2.628c-1.177 0-2.238-.24-3.183-.719a5.626 5.626 0 0 1-2.197-2.033c-.52-.862-.78-1.841-.78-2.936s.26-2.074.78-2.936a5.482 5.482 0 0 1 2.197-2.012c.945-.493 2.006-.739 3.183-.739 1.164 0 2.176.246 3.039.739a4.257 4.257 0 0 1 1.909 2.074l-2.484 1.334c-.575-1.013-1.403-1.519-2.485-1.519-.835 0-1.526.274-2.073.821-.548.548-.822 1.294-.822 2.238 0 .945.274 1.691.822 2.238.547.548 1.238.822 2.073.822 1.096 0 1.924-.507 2.485-1.52l2.484 1.355c-.397.876-1.033 1.561-1.909 2.054-.863.492-1.875.739-3.039.739zm16.136-8.583h-3.737v8.418h-3.183v-8.418h-3.737v-2.628h10.657v2.628zm1.707-2.628h3.183v6.57l5.379-6.57h2.936v11.046h-3.182v-6.57l-5.359 6.57h-2.957v-11.046zm14.577 0h3.183v4.312h4.805v-4.312h3.203v11.046h-3.203v-4.127h-4.805v4.127h-3.183v-11.046zm18.549-.164c1.711 0 3.025.41 3.942 1.232.917.807 1.375 2.032 1.375 3.675v6.303h-2.997v-1.375c-.603 1.026-1.725 1.54-3.368 1.54-.848 0-1.588-.144-2.217-.431-.616-.288-1.088-.685-1.417-1.191a3.099 3.099 0 0 1-.493-1.725c0-1.027.384-1.834 1.15-2.423.78-.589 1.978-.883 3.593-.883h2.546c0-.698-.212-1.232-.636-1.601-.424-.384-1.061-.575-1.91-.575-.588 0-1.17.095-1.745.287a4.452 4.452 0 0 0-1.437.739l-1.15-2.238c.602-.424 1.321-.753 2.156-.985a9.807 9.807 0 0 1 2.608-.349zm-.247 9.219c.548 0 1.034-.123 1.458-.37.424-.26.725-.636.903-1.129v-1.129h-2.197c-1.314 0-1.971.431-1.971 1.293 0 .411.158.739.472.986.329.232.774.349 1.335.349zm18.162-9.055v11.046h-2.854v-3.162h-2.362l-2.094 3.162h-3.408l2.525-3.613c-.766-.301-1.355-.733-1.766-1.294-.397-.575-.595-1.266-.595-2.074 0-1.3.465-2.299 1.396-2.997.945-.712 2.238-1.068 3.881-1.068h5.277zm-5.216 2.608c-.684 0-1.204.123-1.56.369-.342.246-.513.643-.513 1.191s.164.951.492 1.211c.343.247.856.37 1.54.37h2.403v-3.141h-2.362zM130.355 285.758v14.373h-3.326v-11.704h-2.875v-2.669h6.201zm13.749 0v2.156l-5.339 12.217h-3.613l5.153-11.663h-4.763v2.341h-2.957v-5.051h11.519zm2.367 14.537a1.928 1.928 0 0 1-1.417-.575c-.383-.383-.575-.862-.575-1.437 0-.589.192-1.061.575-1.417.384-.37.856-.554 1.417-.554s1.034.184 1.417.554c.383.356.575.828.575 1.417 0 .575-.192 1.054-.575 1.437a1.927 1.927 0 0 1-1.417.575zm8.413-9.137c2.026 0 3.518.404 4.476 1.211.972.808 1.458 1.889 1.458 3.244 0 .876-.219 1.677-.657 2.403-.438.712-1.109 1.286-2.012 1.724-.89.425-1.992.637-3.306.637-1.013 0-2.012-.13-2.998-.39-.972-.274-1.8-.657-2.485-1.15l1.315-2.546a6.462 6.462 0 0 0 1.889.965 7.425 7.425 0 0 0 2.197.329c.835 0 1.492-.165 1.971-.493.479-.329.718-.787.718-1.376 0-.616-.253-1.081-.759-1.396-.493-.315-1.355-.472-2.587-.472h-3.676l.739-8.09h8.768v2.669h-5.996l-.226 2.731h1.171zm14.203-.041c.917 0 1.752.185 2.505.554.753.37 1.348.897 1.786 1.581.438.671.657 1.451.657 2.341 0 .958-.239 1.8-.718 2.525-.479.726-1.136 1.287-1.971 1.684-.822.383-1.739.575-2.752.575-2.012 0-3.586-.616-4.722-1.848-1.137-1.232-1.705-2.991-1.705-5.277 0-1.629.308-3.025.924-4.189.616-1.163 1.472-2.046 2.567-2.648 1.109-.603 2.389-.904 3.84-.904.766 0 1.498.089 2.197.267.711.164 1.314.404 1.806.719l-1.232 2.443c-.711-.479-1.608-.718-2.689-.718-1.219 0-2.184.355-2.895 1.067-.712.712-1.096 1.746-1.15 3.101.848-.849 2.032-1.273 3.552-1.273zm-.678 6.776c.712 0 1.287-.192 1.725-.575.452-.384.678-.904.678-1.561 0-.657-.226-1.177-.678-1.56-.438-.397-1.027-.596-1.766-.596-.725 0-1.321.206-1.786.616-.466.397-.698.91-.698 1.54s.226 1.143.677 1.54c.452.397 1.068.596 1.848.596zM323.049 296.209c-1.177 0-2.238-.239-3.183-.718a5.634 5.634 0 0 1-2.197-2.033c-.52-.862-.78-1.841-.78-2.936s.26-2.074.78-2.936a5.485 5.485 0 0 1 2.197-2.013c.945-.492 2.006-.739 3.183-.739 1.164 0 2.177.247 3.039.739a4.265 4.265 0 0 1 1.909 2.074l-2.484 1.335c-.575-1.013-1.403-1.52-2.484-1.52-.835 0-1.527.274-2.074.822-.548.547-.822 1.293-.822 2.238 0 .944.274 1.69.822 2.238.547.547 1.239.821 2.074.821 1.095 0 1.923-.506 2.484-1.519l2.484 1.355c-.397.876-1.033 1.56-1.909 2.053-.862.493-1.875.739-3.039.739zm17.88-11.21v11.046h-3.203v-8.418h-4.6v8.418h-3.182v-11.046h10.985zm7.362-.165c1.711 0 3.026.411 3.943 1.232.917.808 1.375 2.033 1.375 3.676v6.303h-2.997v-1.376c-.603 1.027-1.725 1.54-3.368 1.54-.848 0-1.588-.143-2.217-.431-.616-.287-1.089-.684-1.417-1.191a3.093 3.093 0 0 1-.493-1.724c0-1.027.383-1.835 1.15-2.423.78-.589 1.978-.883 3.593-.883h2.546c0-.698-.212-1.232-.636-1.602-.425-.383-1.061-.575-1.91-.575-.588 0-1.17.096-1.745.288a4.452 4.452 0 0 0-1.437.739l-1.15-2.238c.602-.424 1.321-.753 2.156-.986a9.841 9.841 0 0 1 2.607-.349zm-.246 9.219c.548 0 1.033-.123 1.458-.369a2.13 2.13 0 0 0 .903-1.129v-1.13h-2.197c-1.314 0-1.971.431-1.971 1.294 0 .411.158.739.472.985.329.233.774.349 1.335.349zm18.942-9.054v11.046h-3.203v-8.418h-3.491l-.103 1.95c-.054 1.451-.191 2.656-.41 3.614-.219.958-.575 1.711-1.068 2.259-.493.547-1.177.821-2.053.821-.466 0-1.02-.082-1.663-.246l.164-2.629c.219.028.376.042.472.042.479 0 .835-.172 1.068-.514.246-.356.411-.801.493-1.334.082-.548.143-1.267.184-2.156l.165-4.435h9.445zm9.055 3.531c1.437.014 2.539.342 3.306.986.766.629 1.15 1.526 1.15 2.69 0 1.218-.431 2.169-1.294 2.854-.849.67-2.046 1.006-3.593 1.006l-5.544-.021v-11.046h3.183v3.531h2.792zm-.719 5.257c.616.013 1.089-.117 1.417-.391.329-.273.493-.684.493-1.232 0-.533-.164-.924-.493-1.17-.315-.246-.787-.376-1.417-.39l-2.073-.021v3.204h2.073zm7.176-8.788h3.183v4.311h4.804v-4.311h3.203v11.046h-3.203v-4.127h-4.804v4.127h-3.183v-11.046zm24.071 0v11.046h-2.854v-3.162h-2.361l-2.094 3.162h-3.409l2.526-3.614c-.767-.301-1.355-.732-1.766-1.293-.397-.575-.595-1.266-.595-2.074 0-1.3.465-2.3 1.396-2.998.944-.712 2.238-1.067 3.88-1.067h5.277zm-5.215 2.607c-.684 0-1.205.123-1.56.37-.343.246-.514.643-.514 1.191 0 .547.165.951.493 1.211.342.247.856.37 1.54.37h2.402v-3.142h-2.361zM344.798 310.958v14.373h-3.326v-11.704h-2.874v-2.669h6.2zm13.236 11.662v2.711h-10.862v-2.156l5.544-5.236c.589-.561.986-1.04 1.191-1.437.205-.411.308-.815.308-1.212 0-.575-.199-1.013-.596-1.314-.383-.315-.951-.472-1.704-.472-.629 0-1.198.123-1.704.37a3.17 3.17 0 0 0-1.273 1.067l-2.423-1.56c.561-.835 1.335-1.485 2.32-1.951.986-.479 2.115-.719 3.388-.719 1.068 0 1.999.178 2.793.534.807.343 1.43.835 1.868 1.479.452.629.678 1.375.678 2.238 0 .78-.165 1.512-.493 2.197-.329.684-.965 1.464-1.91 2.34l-3.305 3.121h6.18zm3.462 2.875a1.928 1.928 0 0 1-1.417-.575c-.383-.383-.575-.862-.575-1.437 0-.589.192-1.061.575-1.417.384-.369.856-.554 1.417-.554s1.033.185 1.417.554c.383.356.575.828.575 1.417 0 .575-.192 1.054-.575 1.437a1.928 1.928 0 0 1-1.417.575zm9.384.082c-1.191 0-2.252-.294-3.183-.883-.93-.588-1.663-1.437-2.197-2.546-.52-1.122-.78-2.457-.78-4.004 0-1.546.26-2.874.78-3.983.534-1.122 1.267-1.978 2.197-2.567.931-.588 1.992-.883 3.183-.883 1.191 0 2.252.295 3.183.883.93.589 1.656 1.445 2.176 2.567.534 1.109.801 2.437.801 3.983 0 1.547-.267 2.882-.801 4.004-.52 1.109-1.246 1.958-2.176 2.546-.931.589-1.992.883-3.183.883zm0-2.813c.876 0 1.56-.376 2.053-1.129.507-.753.76-1.916.76-3.491 0-1.574-.253-2.737-.76-3.49-.493-.753-1.177-1.13-2.053-1.13-.862 0-1.547.377-2.053 1.13-.493.753-.739 1.916-.739 3.49 0 1.575.246 2.738.739 3.491.506.753 1.191 1.129 2.053 1.129zm13.2-11.806v14.373h-3.327v-11.704h-2.874v-2.669h6.201zM515.254 337.675h-1.663v4.188h-3.204v-11.046h3.204v4.291h1.724l2.998-4.291h3.409l-3.861 5.297 4.128 5.749h-3.779l-2.956-4.188zm18.753-6.858-4.989 11.724c-.507 1.273-1.137 2.17-1.889 2.69-.74.52-1.636.78-2.69.78a5.615 5.615 0 0 1-1.705-.267c-.561-.178-1.019-.424-1.375-.739l1.17-2.279a2.783 2.783 0 0 0 1.807.698c.438 0 .794-.11 1.068-.329.274-.205.52-.554.739-1.047l.041-.103-4.784-11.128h3.306l3.1 7.494 3.121-7.494h3.08zm7.864 11.046-2.423-3.388-2.505 3.388h-3.491l4.251-5.564-4.107-5.482h3.593l2.341 3.223 2.402-3.223h3.409l-4.107 5.4 4.271 5.646h-3.634zm5.211-11.046h3.183v4.311h4.804v-4.311h3.204v11.046h-3.204v-4.127h-4.804v4.127h-3.183v-11.046zm24.072 0v11.046H568.3v-3.162h-2.362l-2.094 3.162h-3.409l2.526-3.614c-.767-.301-1.355-.732-1.766-1.293-.397-.575-.595-1.266-.595-2.074 0-1.3.465-2.3 1.396-2.998.944-.712 2.238-1.067 3.881-1.067h5.277zm-5.216 2.607c-.684 0-1.204.123-1.56.37-.342.246-.514.643-.514 1.191 0 .547.165.951.493 1.211.342.247.856.37 1.54.37h2.403v-3.142h-2.362zM529.702 363.593c.712.356 1.253.821 1.622 1.396.384.575.575 1.239.575 1.992 0 .889-.253 1.67-.759 2.34-.507.658-1.219 1.171-2.136 1.54-.917.356-1.978.534-3.182.534-1.205 0-2.266-.178-3.183-.534-.904-.369-1.609-.882-2.115-1.54-.493-.67-.739-1.451-.739-2.34 0-.753.185-1.417.554-1.992.383-.575.924-1.04 1.622-1.396a3.543 3.543 0 0 1-1.232-1.232c-.287-.507-.431-1.082-.431-1.725 0-.835.233-1.56.698-2.176.466-.616 1.116-1.089 1.951-1.417.835-.342 1.793-.514 2.875-.514 1.095 0 2.06.172 2.895.514.848.328 1.505.801 1.971 1.417.465.616.698 1.341.698 2.176 0 .643-.144 1.218-.431 1.725-.288.493-.705.903-1.253 1.232zm-3.88-4.62c-.671 0-1.212.164-1.623.493-.397.314-.595.753-.595 1.314 0 .547.198.978.595 1.293.397.315.938.473 1.623.473.684 0 1.231-.158 1.642-.473.411-.315.616-.746.616-1.293 0-.561-.205-1-.616-1.314-.411-.329-.958-.493-1.642-.493zm0 9.979c.835 0 1.492-.185 1.971-.554.492-.384.739-.89.739-1.52s-.247-1.129-.739-1.499c-.479-.369-1.136-.554-1.971-.554-.822 0-1.472.185-1.951.554-.479.37-.719.869-.719 1.499 0 .643.24 1.15.719 1.52.479.369 1.129.554 1.951.554zm9.689 2.361a1.92 1.92 0 0 1-1.416-.575c-.384-.383-.575-.862-.575-1.437 0-.589.191-1.061.575-1.417.383-.369.855-.554 1.416-.554.562 0 1.034.185 1.417.554.384.356.575.828.575 1.417 0 .575-.191 1.054-.575 1.437-.383.384-.855.575-1.417.575zm8.413-9.137c2.026 0 3.518.404 4.476 1.211.972.808 1.458 1.889 1.458 3.245 0 .876-.219 1.677-.657 2.402-.438.712-1.109 1.287-2.012 1.725-.89.424-1.992.636-3.306.636-1.013 0-2.012-.13-2.998-.39-.972-.274-1.8-.657-2.484-1.15l1.314-2.546a6.45 6.45 0 0 0 1.889.965 7.43 7.43 0 0 0 2.197.329c.835 0 1.492-.164 1.971-.493.479-.328.719-.787.719-1.376 0-.616-.253-1.081-.76-1.396-.493-.315-1.355-.472-2.587-.472h-3.675l.739-8.09h8.767v2.669h-5.995l-.226 2.731h1.17zm17.922 6.263v2.71h-10.862v-2.156l5.544-5.236c.589-.561.986-1.04 1.191-1.437a2.69 2.69 0 0 0 .308-1.212c0-.575-.198-1.013-.595-1.314-.384-.315-.952-.472-1.704-.472a3.84 3.84 0 0 0-1.705.37 3.176 3.176 0 0 0-1.273 1.067l-2.423-1.56c.562-.835 1.335-1.486 2.321-1.951.985-.479 2.114-.719 3.388-.719 1.067 0 1.998.178 2.792.534.808.343 1.43.835 1.869 1.479.451.629.677 1.375.677 2.238 0 .78-.164 1.512-.493 2.197-.328.684-.965 1.464-1.909 2.341l-3.306 3.121h6.18zM404.426 111.077l-3.006-3.96-3.024 3.96h-1.44l3.744-4.86-3.564-4.608h1.44l2.844 3.708 2.844-3.708h1.404l-3.564 4.608 3.78 4.86h-1.458zm7.125.09c-.912 0-1.734-.204-2.466-.612a4.594 4.594 0 0 1-1.728-1.728c-.42-.732-.63-1.56-.63-2.484 0-.924.21-1.752.63-2.484a4.465 4.465 0 0 1 1.728-1.71c.732-.408 1.554-.612 2.466-.612.912 0 1.734.204 2.466.612a4.34 4.34 0 0 1 1.71 1.71c.42.732.63 1.56.63 2.484 0 .924-.21 1.752-.63 2.484a4.465 4.465 0 0 1-1.71 1.728c-.732.408-1.554.612-2.466.612zm0-1.134c.672 0 1.272-.15 1.8-.45.54-.312.96-.75 1.26-1.314.3-.564.45-1.206.45-1.926s-.15-1.362-.45-1.926c-.3-.564-.72-.996-1.26-1.296-.528-.312-1.128-.468-1.8-.468-.672 0-1.278.156-1.818.468-.528.3-.948.732-1.26 1.296-.3.564-.45 1.206-.45 1.926s.15 1.362.45 1.926a3.406 3.406 0 0 0 1.26 1.314c.54.3 1.146.45 1.818.45zm15.225-8.424v9.468h-1.278v-8.334h-4.536l-.126 2.34c-.096 1.968-.324 3.48-.684 4.536-.36 1.056-1.002 1.584-1.926 1.584-.252 0-.558-.048-.918-.144l.09-1.098c.216.048.366.072.45.072.492 0 .864-.228 1.116-.684.252-.456.42-1.02.504-1.692.084-.672.156-1.56.216-2.664l.162-3.384h6.93zm11.373 0v9.468h-1.278v-8.334h-4.536l-.126 2.34c-.096 1.968-.324 3.48-.684 4.536-.36 1.056-1.002 1.584-1.926 1.584-.252 0-.558-.048-.918-.144l.09-1.098c.216.048.366.072.45.072.492 0 .864-.228 1.116-.684.252-.456.42-1.02.504-1.692.084-.672.156-1.56.216-2.664l.162-3.384h6.93zM404.552 127.655c1.668 0 2.946.552 3.834 1.656.888 1.092 1.332 2.64 1.332 4.644 0 1.404-.24 2.592-.72 3.564s-1.152 1.71-2.016 2.214c-.864.492-1.872.738-3.024.738-1.248 0-2.244-.228-2.988-.684l.522-1.044c.6.396 1.416.594 2.448.594 1.392 0 2.484-.438 3.276-1.314.792-.888 1.188-2.172 1.188-3.852 0-.312-.018-.654-.054-1.026a3.445 3.445 0 0 1-1.494 1.602c-.684.372-1.47.558-2.358.558-.828 0-1.566-.156-2.214-.468a3.62 3.62 0 0 1-1.494-1.314c-.36-.576-.54-1.242-.54-1.998 0-.768.186-1.446.558-2.034a3.635 3.635 0 0 1 1.53-1.35c.66-.324 1.398-.486 2.214-.486zm.144 6.552c.636 0 1.194-.12 1.674-.36.492-.24.876-.57 1.152-.99.276-.42.414-.888.414-1.404 0-.48-.132-.924-.396-1.332-.252-.408-.63-.738-1.134-.99-.504-.252-1.104-.378-1.8-.378-.912 0-1.656.252-2.232.756-.564.492-.846 1.152-.846 1.98 0 .828.282 1.488.846 1.98.576.492 1.35.738 2.322.738zm7.68 6.246a.934.934 0 0 1-.684-.288.989.989 0 0 1-.27-.702c0-.276.09-.504.27-.684a.934.934 0 0 1 .684-.288c.264 0 .492.096.684.288.192.18.288.408.288.684 0 .276-.096.51-.288.702a.934.934 0 0 1-.684.288zm7.671.018c-.972 0-1.842-.258-2.61-.774-.756-.516-1.35-1.254-1.782-2.214-.42-.972-.63-2.112-.63-3.42 0-1.308.21-2.442.63-3.402.432-.972 1.026-1.716 1.782-2.232.768-.516 1.638-.774 2.61-.774s1.836.258 2.592.774c.768.516 1.368 1.26 1.8 2.232.432.96.648 2.094.648 3.402 0 1.308-.216 2.448-.648 3.42-.432.96-1.032 1.698-1.8 2.214-.756.516-1.62.774-2.592.774zm0-1.188c.732 0 1.374-.204 1.926-.612.564-.408 1.002-1.002 1.314-1.782.312-.78.468-1.722.468-2.826s-.156-2.046-.468-2.826c-.312-.78-.75-1.374-1.314-1.782-.552-.408-1.194-.612-1.926-.612s-1.38.204-1.944.612c-.552.408-.984 1.002-1.296 1.782-.312.78-.468 1.722-.468 2.826s.156 2.046.468 2.826c.312.78.744 1.374 1.296 1.782a3.231 3.231 0 0 0 1.944.612zm12.116-6.462c.828 0 1.56.156 2.196.468a3.556 3.556 0 0 1 1.512 1.332c.36.564.54 1.224.54 1.98 0 .768-.186 1.446-.558 2.034a3.733 3.733 0 0 1-1.548 1.368c-.648.312-1.38.468-2.196.468-1.668 0-2.946-.546-3.834-1.638-.888-1.104-1.332-2.658-1.332-4.662 0-1.404.24-2.592.72-3.564s1.152-1.704 2.016-2.196c.864-.504 1.872-.756 3.024-.756 1.248 0 2.244.228 2.988.684l-.522 1.044c-.6-.396-1.416-.594-2.448-.594-1.392 0-2.484.444-3.276 1.332-.792.876-1.188 2.154-1.188 3.834 0 .3.018.642.054 1.026a3.351 3.351 0 0 1 1.494-1.584c.684-.384 1.47-.576 2.358-.576zm-.108 6.552c.912 0 1.65-.246 2.214-.738.576-.504.864-1.17.864-1.998 0-.828-.288-1.488-.864-1.98-.564-.492-1.332-.738-2.304-.738-.636 0-1.2.12-1.692.36-.48.24-.858.57-1.134.99-.276.42-.414.888-.414 1.404 0 .48.126.924.378 1.332.264.408.648.738 1.152.99.504.252 1.104.378 1.8.378zM112.558 398.749v9.468h-1.278v-8.334h-4.536l-.126 2.34c-.096 1.968-.324 3.48-.684 4.536-.36 1.056-1.002 1.584-1.926 1.584-.252 0-.558-.048-.918-.144l.09-1.098c.216.048.366.072.45.072.492 0 .864-.228 1.116-.684.252-.456.42-1.02.504-1.692.084-.672.156-1.56.216-2.664l.162-3.384h6.93zm7.539 9.558c-.912 0-1.734-.204-2.466-.612a4.594 4.594 0 0 1-1.728-1.728c-.42-.732-.63-1.56-.63-2.484 0-.924.21-1.752.63-2.484a4.465 4.465 0 0 1 1.728-1.71c.732-.408 1.554-.612 2.466-.612.912 0 1.734.204 2.466.612a4.34 4.34 0 0 1 1.71 1.71c.42.732.63 1.56.63 2.484 0 .924-.21 1.752-.63 2.484a4.465 4.465 0 0 1-1.71 1.728c-.732.408-1.554.612-2.466.612zm0-1.134c.672 0 1.272-.15 1.8-.45.54-.312.96-.75 1.26-1.314.3-.564.45-1.206.45-1.926s-.15-1.362-.45-1.926c-.3-.564-.72-.996-1.26-1.296-.528-.312-1.128-.468-1.8-.468-.672 0-1.278.156-1.818.468-.528.3-.948.732-1.26 1.296-.3.564-.45 1.206-.45 1.926s.15 1.362.45 1.926a3.406 3.406 0 0 0 1.26 1.314c.54.3 1.146.45 1.818.45zm16.719-.072v3.402h-1.206v-2.286h-8.478v2.286h-1.206v-3.402h.54c.636-.036 1.068-.504 1.296-1.404.228-.9.384-2.16.468-3.78l.126-3.168h6.984v8.352h1.476zm-7.416-5.112c-.06 1.344-.174 2.454-.342 3.33-.168.864-.468 1.458-.9 1.782h5.904v-7.218h-4.554l-.108 2.106zm18.205 2.016h-2.052v4.212h-1.278v-4.212h-2.052l-2.898 4.212h-1.53l3.402-4.878-3.132-4.59h1.386l2.772 4.158h2.052v-4.158h1.278v4.158h2.052l2.79-4.158h1.386l-3.132 4.608 3.402 4.86h-1.53l-2.916-4.212zm6.573-5.256h1.278v7.524l6.318-7.524h1.134v9.468h-1.278v-7.524l-6.3 7.524h-1.152v-9.468zm19.665 0v9.468h-1.17v-3.132h-3.33l-2.196 3.132h-1.386l2.358-3.312c-.732-.204-1.296-.552-1.692-1.044-.396-.492-.594-1.116-.594-1.872 0-1.056.36-1.86 1.08-2.412.72-.552 1.704-.828 2.952-.828h3.978zm-6.714 3.276c0 1.404.894 2.106 2.682 2.106h2.862v-4.248h-2.772c-1.848 0-2.772.714-2.772 2.142zM126.22 430.303c1.32.072 2.322.432 3.006 1.08.696.636 1.044 1.47 1.044 2.502 0 .72-.174 1.362-.522 1.926-.348.552-.864.99-1.548 1.314-.684.324-1.518.486-2.502.486a7.73 7.73 0 0 1-2.592-.432c-.804-.3-1.452-.696-1.944-1.188l.63-1.026c.42.432.978.786 1.674 1.062a6.24 6.24 0 0 0 2.232.396c1.032 0 1.83-.222 2.394-.666.564-.456.846-1.08.846-1.872 0-.78-.282-1.392-.846-1.836-.564-.444-1.416-.666-2.556-.666h-.9v-.954l3.492-4.374h-6.444v-1.152h8.1v.918l-3.564 4.482zm6.848 7.29a.934.934 0 0 1-.684-.288.989.989 0 0 1-.27-.702c0-.276.09-.504.27-.684a.934.934 0 0 1 .684-.288c.264 0 .492.096.684.288.192.18.288.408.288.684 0 .276-.096.51-.288.702a.934.934 0 0 1-.684.288zm10.237-6.696c.792.264 1.398.66 1.818 1.188.432.528.648 1.164.648 1.908 0 .732-.198 1.374-.594 1.926-.396.54-.966.96-1.71 1.26-.732.288-1.596.432-2.592.432-1.512 0-2.7-.324-3.564-.972-.864-.648-1.296-1.53-1.296-2.646 0-.756.204-1.392.612-1.908.42-.528 1.026-.924 1.818-1.188-.648-.252-1.14-.612-1.476-1.08-.336-.48-.504-1.044-.504-1.692 0-1.02.396-1.83 1.188-2.43.804-.6 1.878-.9 3.222-.9.888 0 1.662.138 2.322.414.672.264 1.194.648 1.566 1.152.372.504.558 1.092.558 1.764 0 .648-.174 1.212-.522 1.692-.348.468-.846.828-1.494 1.08zm-5.544-2.736c0 .696.276 1.248.828 1.656.552.408 1.314.612 2.286.612s1.734-.204 2.286-.612c.564-.408.846-.954.846-1.638 0-.708-.288-1.266-.864-1.674-.564-.408-1.32-.612-2.268-.612-.96 0-1.722.204-2.286.612-.552.408-.828.96-.828 1.656zm3.114 8.352c1.116 0 1.986-.228 2.61-.684.636-.456.954-1.074.954-1.854s-.318-1.392-.954-1.836c-.624-.456-1.494-.684-2.61-.684-1.104 0-1.974.228-2.61.684-.624.444-.936 1.056-.936 1.836 0 .792.312 1.416.936 1.872.624.444 1.494.666 2.61.666zm11.91-6.552c.828 0 1.56.156 2.196.468a3.556 3.556 0 0 1 1.512 1.332c.361.564.541 1.224.541 1.98 0 .768-.186 1.446-.559 2.034a3.733 3.733 0 0 1-1.548 1.368c-.648.312-1.38.468-2.196.468-1.668 0-2.946-.546-3.834-1.638-.888-1.104-1.332-2.658-1.332-4.662 0-1.404.24-2.592.72-3.564s1.152-1.704 2.016-2.196c.864-.504 1.872-.756 3.024-.756 1.248 0 2.244.228 2.988.684l-.522 1.044c-.6-.396-1.416-.594-2.448-.594-1.392 0-2.484.444-3.276 1.332-.792.876-1.188 2.154-1.188 3.834 0 .3.018.642.054 1.026a3.351 3.351 0 0 1 1.494-1.584c.684-.384 1.47-.576 2.358-.576zm-.108 6.552c.912 0 1.65-.246 2.214-.738.576-.504.864-1.17.864-1.998 0-.828-.288-1.488-.864-1.98-.564-.492-1.332-.738-2.304-.738-.636 0-1.2.12-1.692.36-.48.24-.858.57-1.134.99-.276.42-.414.888-.414 1.404 0 .48.126.924.378 1.332.264.408.648.738 1.152.99.504.252 1.104.378 1.8.378zM593.868 273.644h-2.52v3.312h-1.296v-3.312h-7.11v-.936l6.678-8.352h1.44l-6.444 8.136h5.472v-2.916h1.26v2.916h2.52v1.152zm2.514 3.402a.934.934 0 0 1-.684-.288.989.989 0 0 1-.27-.702c0-.276.09-.504.27-.684a.934.934 0 0 1 .684-.288c.264 0 .492.096.684.288.192.18.288.408.288.684 0 .276-.096.51-.288.702a.934.934 0 0 1-.684.288zm13.324-3.402h-2.52v3.312h-1.296v-3.312h-7.11v-.936l6.678-8.352h1.44l-6.444 8.136h5.472v-2.916h1.26v2.916h2.52v1.152zm5.21-3.888c1.32.072 2.322.432 3.006 1.08.696.636 1.044 1.47 1.044 2.502 0 .72-.174 1.362-.522 1.926-.348.552-.864.99-1.548 1.314-.684.324-1.518.486-2.502.486a7.73 7.73 0 0 1-2.592-.432c-.804-.3-1.452-.696-1.944-1.188l.63-1.026c.42.432.978.786 1.674 1.062a6.24 6.24 0 0 0 2.232.396c1.032 0 1.83-.222 2.394-.666.564-.456.846-1.08.846-1.872 0-.78-.282-1.392-.846-1.836-.564-.444-1.416-.666-2.556-.666h-.9v-.954l3.492-4.374h-6.444v-1.152h8.1v.918l-3.564 4.482zM575.179 114.251v1.152h-8.838v-.918l5.238-5.13c.66-.648 1.104-1.206 1.332-1.674.24-.48.36-.96.36-1.44 0-.744-.258-1.32-.774-1.728-.504-.42-1.23-.63-2.178-.63-1.476 0-2.622.468-3.438 1.404l-.918-.792a4.846 4.846 0 0 1 1.872-1.332c.768-.312 1.632-.468 2.592-.468 1.284 0 2.298.306 3.042.918.756.6 1.134 1.428 1.134 2.484 0 .648-.144 1.272-.432 1.872-.288.6-.834 1.29-1.638 2.07l-4.284 4.212h6.93zm2.774 1.242a.934.934 0 0 1-.684-.288.989.989 0 0 1-.27-.702c0-.276.09-.504.27-.684a.934.934 0 0 1 .684-.288c.264 0 .492.096.684.288.192.18.288.408.288.684 0 .276-.096.51-.288.702a.934.934 0 0 1-.684.288zm7.671.018c-.972 0-1.842-.258-2.61-.774-.756-.516-1.35-1.254-1.782-2.214-.42-.972-.63-2.112-.63-3.42 0-1.308.21-2.442.63-3.402.432-.972 1.026-1.716 1.782-2.232.768-.516 1.638-.774 2.61-.774s1.836.258 2.592.774c.768.516 1.368 1.26 1.8 2.232.432.96.648 2.094.648 3.402 0 1.308-.216 2.448-.648 3.42-.432.96-1.032 1.698-1.8 2.214-.756.516-1.62.774-2.592.774zm0-1.188c.732 0 1.374-.204 1.926-.612.564-.408 1.002-1.002 1.314-1.782.312-.78.468-1.722.468-2.826s-.156-2.046-.468-2.826c-.312-.78-.75-1.374-1.314-1.782-.552-.408-1.194-.612-1.926-.612s-1.38.204-1.944.612c-.552.408-.984 1.002-1.296 1.782-.312.78-.468 1.722-.468 2.826s.156 2.046.468 2.826c.312.78.744 1.374 1.296 1.782a3.231 3.231 0 0 0 1.944.612zm11.918 1.188c-.972 0-1.842-.258-2.61-.774-.756-.516-1.35-1.254-1.782-2.214-.42-.972-.63-2.112-.63-3.42 0-1.308.21-2.442.63-3.402.432-.972 1.026-1.716 1.782-2.232.768-.516 1.638-.774 2.61-.774s1.836.258 2.592.774c.768.516 1.368 1.26 1.8 2.232.432.96.648 2.094.648 3.402 0 1.308-.216 2.448-.648 3.42-.432.96-1.032 1.698-1.8 2.214-.756.516-1.62.774-2.592.774zm0-1.188c.732 0 1.374-.204 1.926-.612.564-.408 1.002-1.002 1.314-1.782.312-.78.468-1.722.468-2.826s-.156-2.046-.468-2.826c-.312-.78-.75-1.374-1.314-1.782-.552-.408-1.194-.612-1.926-.612s-1.38.204-1.944.612c-.552.408-.984 1.002-1.296 1.782-.312.78-.468 1.722-.468 2.826s.156 2.046.468 2.826c.312.78.744 1.374 1.296 1.782a3.231 3.231 0 0 0 1.944.612z" fill="#20201F"/></g><defs><clipPath id="a"><path fill="#fff" transform="translate(34 42)" d="M0 0h631.687v416.813H0z"/></clipPath></defs></svg>