<svg width="800" height="600" viewBox="0 0 800 600" fill="none" xmlns="http://www.w3.org/2000/svg">
<rect width="800" height="600" fill="white"/>
<g clip-path="url(#clip0_2384_28727)">
<path d="M749.88 537.174H299.528V552.149H749.88V537.174Z" fill="#ED9FA6"/>
<path fill-rule="evenodd" clip-rule="evenodd" d="M51 499.748H299.528V552.149H749.88V154.794H746.886V81.4086L525.308 58.7805V47H51V499.748Z" fill="#ED9FA6"/>
<path d="M65.9669 47.0228H51V499.748H65.9669V47.0228Z" fill="#C6C0E1"/>
<path fill-rule="evenodd" clip-rule="evenodd" d="M51 499.748H299.528V552.149H749.88V154.794H746.886V81.4086L525.308 58.7805V47H51V499.748Z" fill="#E4CDA1"/>
<path d="M65.9669 47.0228H51V499.748H65.9669V47.0228Z" fill="#E4CDA1"/>
<path d="M749.88 537.174H299.528V552.149H749.88V537.174Z" fill="#E4CDA1"/>
<path d="M65.9669 62.5707H51V77.5428H65.9669V62.5707Z" fill="#20201F"/>
<path d="M308.517 62.5707H272.58V98.5033H308.517V62.5707Z" fill="#20201F"/>
<path d="M65.9669 77.5428H51V499.748H65.9669V77.5428Z" fill="#20201F"/>
<path d="M211.495 400.933H196.528V499.748H211.495V400.933Z" fill="#20201F"/>
<path d="M509.737 62.5112H488.775V227.26H509.737V62.5112Z" fill="#20201F"/>
<path d="M734.309 170.368H713.347V552.149H734.309V170.368Z" fill="#20201F"/>
<path d="M509.737 472.016H488.775V552.149H509.737V472.016Z" fill="#20201F"/>
<path d="M713.347 537.174H509.737V552.149H713.347V537.174Z" fill="#20201F"/>
<path d="M488.775 537.174H314.504V552.149H488.775V537.174Z" fill="#20201F"/>
<path d="M314.504 472.016H299.528V552.149H314.504V472.016Z" fill="#20201F"/>
<path d="M196.528 484.774H65.9668V499.748H196.528V484.774Z" fill="#20201F"/>
<path d="M117.662 54.7854H51V77.5428H117.662V54.7854Z" fill="#20201F"/>
<path d="M333.068 54.7852H243.427V77.5426H333.068V54.7852Z" fill="#20201F"/>
<path d="M488.775 54.7852H458.833V77.5426H488.775V54.7852Z" fill="#20201F"/>
<path d="M533.089 162.582H509.737V185.339H533.089V162.582Z" fill="#20201F"/>
<path d="M713.347 162.582H664.841V185.339H713.347V162.582Z" fill="#20201F"/>
<path d="M121.259 47H51V54.7854H121.259V47Z" fill="#20201F"/>
<path d="M336.657 47H239.83V54.7854H336.657V47Z" fill="#20201F"/>
<path d="M488.775 47H455.235V54.7854H488.775V47Z" fill="#20201F"/>
<path d="M525.308 47H488.775V54.1272H525.308V47Z" fill="#20201F"/>
<path d="M525.308 54.1272H518.114V154.797H525.308V54.1272Z" fill="#20201F"/>
<path d="M533.089 154.797H509.737V162.582H533.089V154.797Z" fill="#20201F"/>
<path d="M749.88 154.797H664.841V162.582H749.88V154.797Z" fill="#20201F"/>
<path d="M749.88 162.582H742.694V552.149H749.88V162.582Z" fill="#20201F"/>
<path d="M521.333 52.0565H486.045V64.729H521.333V52.0565Z" fill="#20201F"/>
<path d="M519.504 61.6354H507.27V155.854H519.504V61.6354Z" fill="#20201F"/>
<path d="M744.785 158.818H709.584V174.134H744.785V158.818Z" fill="#20201F"/>
<path d="M744.786 164.379H730.723V544.541H744.786V164.379Z" fill="#20201F"/>
<path d="M746.472 543.135H730.16V552.149H746.472V543.135Z" fill="#20201F"/>
<path fill-rule="evenodd" clip-rule="evenodd" d="M525.308 66.2028V58.9778L746.887 81.6059V154.991H739.701V88.3759L525.308 66.2028Z" fill="#20201F"/>
<path d="M155.199 305.113H65.5918V309.903H155.199V305.113Z" fill="#20201F"/>
<path d="M206.707 305.113H155.199V309.903H206.707V305.113Z" fill="#20201F"/>
<path d="M219.854 305.113H206.707V309.903H219.854V305.113Z" fill="#20201F"/>
<path d="M211.495 309.904H206.707V353.023H211.495V309.904Z" fill="#20201F"/>
<path d="M272.579 305.113H267.766V309.903H272.579V305.113Z" fill="#20201F"/>
<path d="M290.548 385.147H272.58V389.938H290.548V385.147Z" fill="#20201F"/>
<path d="M277.376 337.483H272.58V389.938H277.376V337.483Z" fill="#20201F"/>
<path d="M277.376 270.079H272.58V283.585H277.376V270.079Z" fill="#20201F"/>
<path d="M277.376 98.5033H272.58V270.079H277.376V98.5033Z" fill="#20201F"/>
<path d="M404.048 343.602H277.375V348.448H404.048V343.602Z" fill="#20201F"/>
<path d="M396.048 348.533H391.298V385.147H396.048V348.533Z" fill="#20201F"/>
<path d="M513.819 385.147H380.375V389.938H513.819V385.147Z" fill="#20201F"/>
<path d="M509.737 343.881H504.941V401.478H509.737V343.881Z" fill="#20201F"/>
<path d="M509.737 343.867H493.886V348.678H509.737V343.867Z" fill="#20201F"/>
<path d="M509.737 227.26H504.941V343.884H509.737V227.26Z" fill="#20201F"/>
<path d="M224.395 484.774H211.495V499.748H224.395V484.774Z" fill="#20201F"/>
<path d="M299.528 484.774H284.281V499.748H299.528V484.774Z" fill="#20201F"/>
<path d="M316.672 467.225H299.617V472.016H316.672V467.225Z" fill="#20201F"/>
<path d="M368.172 467.225H316.672V472.016H368.172V467.225Z" fill="#20201F"/>
<path d="M381.387 467.225H368.172V472.016H381.387V467.225Z" fill="#20201F"/>
<path d="M509.737 467.225H423.312V472.016H509.737V467.225Z" fill="#20201F"/>
<path d="M509.737 455.376H504.941V467.224H509.737V455.376Z" fill="#20201F"/>
<path d="M51.0017 54.765H51V58.6164H51.0017V54.765Z" fill="#20201F"/>
<path d="M51.0017 73.6702H51V77.5216H51.0017V73.6702Z" fill="#20201F"/>
<path d="M239.838 47H121.251V50.8523H239.838V47Z" fill="#20201F"/>
<path d="M243.427 54.765H117.662V58.6164H243.427V54.765Z" fill="#20201F"/>
<path d="M243.427 73.67H117.662V77.5214H243.427V73.67Z" fill="#20201F"/>
<path d="M455.243 47H336.656V50.8523H455.243V47Z" fill="#20201F"/>
<path d="M458.832 54.765H333.067V58.6164H458.832V54.765Z" fill="#20201F"/>
<path d="M458.832 73.67H333.067V77.5214H458.832V73.67Z" fill="#20201F"/>
<path d="M664.84 154.82H581V158.672H664.84V154.82Z" fill="#20201F"/>
<path d="M664.84 162.585H581V166.436H664.84V162.585Z" fill="#20201F"/>
<path d="M664.84 181.49H581V185.341H664.84V181.49Z" fill="#20201F"/>
<path fill-rule="evenodd" clip-rule="evenodd" d="M282.622 495.263C282.622 496.202 281.86 496.964 280.921 496.964C279.982 496.964 279.22 496.202 279.22 495.263V459.267C279.22 458.328 279.982 457.566 280.921 457.566C281.86 457.566 282.622 458.328 282.622 459.267V495.263Z" fill="#20201F"/>
<path fill-rule="evenodd" clip-rule="evenodd" d="M228.239 495.605C228.239 496.074 227.858 496.455 227.388 496.455C226.919 496.455 226.538 496.074 226.538 495.605C226.538 485.296 231.938 475.974 240.665 469.24C249.332 462.553 261.29 458.416 274.482 458.416C274.951 458.416 275.332 458.797 275.332 459.267C275.332 459.736 274.951 460.117 274.482 460.117C261.67 460.117 250.08 464.117 241.701 470.582C233.385 476.999 228.239 485.847 228.239 495.605Z" fill="#20201F"/>
<path fill-rule="evenodd" clip-rule="evenodd" d="M422.874 469.013C422.874 469.952 422.112 470.714 421.173 470.714C420.234 470.714 419.472 469.952 419.472 469.013V433.017C419.472 432.078 420.234 431.316 421.173 431.316C422.112 431.316 422.874 432.078 422.874 433.017V469.013Z" fill="#20201F"/>
<path fill-rule="evenodd" clip-rule="evenodd" d="M385.647 469.355C385.647 469.824 385.266 470.205 384.797 470.205C384.327 470.205 383.946 469.824 383.946 469.355C383.946 459.109 387.611 449.825 393.533 443.101C399.48 436.346 407.707 432.166 416.797 432.166C417.266 432.166 417.647 432.547 417.647 433.017C417.647 433.486 417.266 433.867 416.797 433.867C408.218 433.867 400.442 437.826 394.808 444.223C389.149 450.649 385.647 459.534 385.647 469.355Z" fill="#20201F"/>
<path fill-rule="evenodd" clip-rule="evenodd" d="M507.624 402.986C508.563 402.986 509.325 403.748 509.325 404.687C509.325 405.626 508.563 406.387 507.624 406.387H471.628C470.689 406.387 469.927 405.626 469.927 404.687C469.927 403.748 470.689 402.986 471.628 402.986H507.624Z" fill="#20201F"/>
<path fill-rule="evenodd" clip-rule="evenodd" d="M507.966 451.461C508.435 451.461 508.816 451.842 508.816 452.311C508.816 452.781 508.435 453.162 507.966 453.162C497.675 453.162 488.365 448.357 481.632 440.594C474.926 432.863 470.777 422.19 470.777 410.416C470.777 409.946 471.158 409.565 471.628 409.565C472.097 409.565 472.478 409.946 472.478 410.416C472.478 421.773 476.466 432.052 482.914 439.485C489.33 446.882 498.189 451.461 507.966 451.461Z" fill="#20201F"/>
<path fill-rule="evenodd" clip-rule="evenodd" d="M274.846 336.823C273.908 336.823 273.146 336.062 273.146 335.123C273.146 334.184 273.908 333.422 274.846 333.422H310.843C311.782 333.422 312.543 334.184 312.543 335.123C312.543 336.062 311.782 336.823 310.843 336.823H274.846Z" fill="#20201F"/>
<path fill-rule="evenodd" clip-rule="evenodd" d="M274.505 285.348C274.035 285.348 273.654 284.967 273.654 284.498C273.654 284.028 274.035 283.648 274.505 283.648C284.805 283.648 294.122 288.755 300.855 297.008C307.55 305.214 311.693 316.539 311.693 329.033C311.693 329.502 311.312 329.883 310.843 329.883C310.374 329.883 309.992 329.502 309.992 329.033C309.992 316.937 305.997 305.992 299.54 298.078C293.125 290.214 284.271 285.348 274.505 285.348Z" fill="#20201F"/>
<path fill-rule="evenodd" clip-rule="evenodd" d="M267.06 307.37C267.06 308.309 266.298 309.071 265.359 309.071C264.421 309.071 263.659 308.309 263.659 307.37V271.374C263.659 270.435 264.421 269.673 265.359 269.673C266.298 269.673 267.06 270.435 267.06 271.374V307.37Z" fill="#20201F"/>
<path fill-rule="evenodd" clip-rule="evenodd" d="M223.647 307.712C223.647 308.181 223.266 308.562 222.797 308.562C222.327 308.562 221.946 308.181 221.946 307.712C221.946 297.441 226.239 288.141 233.173 281.411C240.103 274.685 249.676 270.523 260.239 270.523C260.709 270.523 261.09 270.904 261.09 271.374C261.09 271.843 260.709 272.224 260.239 272.224C250.131 272.224 240.976 276.201 234.355 282.627C227.741 289.046 223.647 297.916 223.647 307.712Z" fill="#20201F"/>
<path fill-rule="evenodd" clip-rule="evenodd" d="M534.655 172.674C534.655 171.735 535.417 170.973 536.356 170.973C537.295 170.973 538.057 171.735 538.057 172.674V208.67C538.057 209.609 537.295 210.371 536.356 210.371C535.417 210.371 534.655 209.609 534.655 208.67V172.674Z" fill="#20201F"/>
<path fill-rule="evenodd" clip-rule="evenodd" d="M577.259 172.332C577.259 171.863 577.64 171.482 578.109 171.482C578.578 171.482 578.959 171.863 578.959 172.332C578.959 182.6 574.75 191.897 567.948 198.627C561.145 205.356 551.748 209.521 541.379 209.521C540.909 209.521 540.528 209.14 540.528 208.67C540.528 208.201 540.909 207.82 541.379 207.82C551.288 207.82 560.261 203.846 566.752 197.425C573.241 191.004 577.259 182.131 577.259 172.332Z" fill="#20201F"/>
<path fill-rule="evenodd" clip-rule="evenodd" d="M209.035 352.905C209.973 352.905 210.735 353.667 210.735 354.606C210.735 355.545 209.973 356.307 209.035 356.307H173.038C172.099 356.307 171.337 355.545 171.337 354.606C171.337 353.667 172.099 352.905 173.038 352.905H209.035Z" fill="#20201F"/>
<path fill-rule="evenodd" clip-rule="evenodd" d="M209.376 396.319C209.846 396.319 210.227 396.7 210.227 397.169C210.227 397.639 209.846 398.02 209.376 398.02C199.105 398.02 189.805 393.727 183.075 386.793C176.35 379.863 172.188 370.29 172.188 359.726C172.188 359.257 172.569 358.876 173.038 358.876C173.508 358.876 173.889 359.257 173.889 359.726C173.889 369.835 177.865 378.99 184.291 385.611C190.71 392.225 199.581 396.319 209.376 396.319Z" fill="#20201F"/>
<path fill-rule="evenodd" clip-rule="evenodd" d="M104.527 165.377V255.732H68.3855V164.314H104.527V165.377ZM100.254 227.453C100.254 226.459 99.8475 225.552 99.1893 224.898C98.5345 224.245 97.6314 223.838 96.6398 223.838H76.2303C75.2388 223.838 74.3357 224.245 73.6766 224.898C73.0227 225.552 72.6162 226.459 72.6162 227.453V247.862C72.6162 248.854 73.0235 249.758 73.6766 250.415C74.3306 251.069 75.2354 251.476 76.2303 251.476H96.6398C97.6348 251.476 98.5396 251.069 99.191 250.413C99.8466 249.758 100.254 248.854 100.254 247.862V227.453ZM98.5651 175.887C98.5651 174.511 98.0047 173.261 97.1007 172.356C96.1967 171.452 94.9467 170.891 93.569 170.891C92.1939 170.891 90.9447 171.452 90.0373 172.358C89.1334 173.263 88.573 174.512 88.573 175.887C88.573 177.265 89.1334 178.515 90.039 179.417C90.943 180.323 92.1931 180.883 93.569 180.883C94.9467 180.883 96.1967 180.323 97.1007 179.419C98.0047 178.515 98.5651 177.265 98.5651 175.887ZM85.4018 175.887C85.4018 174.216 84.7224 172.7 83.6262 171.604C82.5301 170.508 81.0138 169.828 79.3428 169.828C77.6709 169.828 76.1555 170.508 75.0594 171.604C73.9632 172.7 73.2837 174.216 73.2837 175.887C73.2837 177.558 73.9632 179.075 75.0594 180.171C76.1555 181.267 77.6709 181.946 79.3428 181.946C81.0138 181.946 82.5301 181.267 83.6262 180.171C84.7224 179.075 85.4018 177.558 85.4018 175.887ZM82.5751 179.12C83.4009 178.294 83.9137 177.149 83.9137 175.887C83.9137 174.625 83.4009 173.481 82.5751 172.655C81.7494 171.829 80.6048 171.317 79.3428 171.317C78.08 171.317 76.9362 171.829 76.1104 172.655C75.2847 173.481 74.7719 174.625 74.7719 175.887C74.7719 177.149 75.2847 178.294 76.1104 179.12C76.9362 179.946 78.08 180.458 79.3428 180.458C80.6048 180.458 81.7494 179.946 82.5751 179.12ZM99.6281 188.882C99.6281 187.21 98.9486 185.695 97.8525 184.599C96.7563 183.503 95.2409 182.823 93.569 182.823C91.8972 182.823 90.3809 183.502 89.2847 184.598C88.1886 185.694 87.51 187.21 87.51 188.882C87.51 190.554 88.1894 192.07 89.2856 193.166C90.3818 194.262 91.8972 194.941 93.569 194.941C95.24 194.941 96.7563 194.262 97.8525 193.166C98.9486 192.07 99.6281 190.553 99.6281 188.882ZM96.8014 192.115C97.6271 191.289 98.1399 190.144 98.1399 188.882C98.1399 187.619 97.6271 186.476 96.8014 185.65C95.9756 184.824 94.8319 184.311 93.569 184.311C92.3062 184.311 91.1616 184.823 90.3358 185.649C89.5101 186.475 88.9982 187.619 88.9982 188.882C88.9982 190.145 89.5109 191.289 90.3367 192.115C91.1624 192.94 92.3062 193.453 93.569 193.453C94.831 193.453 95.9756 192.94 96.8014 192.115ZM84.3389 188.882C84.3389 187.506 83.7784 186.256 82.8745 185.351C81.9705 184.447 80.7204 183.886 79.3428 183.886C77.9677 183.886 76.7185 184.447 75.8111 185.353C74.9071 186.258 74.3467 187.507 74.3467 188.882C74.3467 190.26 74.9071 191.51 75.8128 192.412C76.7168 193.318 77.9669 193.878 79.3428 193.878C80.7204 193.878 81.9705 193.318 82.8745 192.414C83.7784 191.51 84.3389 190.26 84.3389 188.882ZM81.8234 191.363C82.4569 190.729 82.8507 189.851 82.8507 188.882C82.8507 187.911 82.4586 187.034 81.8259 186.402C81.1898 185.768 80.3114 185.374 79.3428 185.374C78.3716 185.374 77.494 185.766 76.8622 186.399C76.2269 187.034 75.8349 187.911 75.8349 188.882C75.8349 189.851 76.2286 190.729 76.8622 191.363C77.494 191.998 78.3716 192.39 79.3428 192.39C80.3114 192.39 81.1898 191.996 81.8234 191.363ZM96.0496 178.368C96.6832 177.734 97.0769 176.856 97.0769 175.887C97.0769 174.916 96.6849 174.039 96.0522 173.407C95.4161 172.773 94.5376 172.38 93.569 172.38C92.5979 172.38 91.7203 172.772 91.0884 173.404C90.4532 174.039 90.0612 174.916 90.0612 175.887C90.0612 176.856 90.4549 177.734 91.0884 178.368C91.7203 179.003 92.5979 179.395 93.569 179.395C94.5376 179.395 95.4161 179.002 96.0496 178.368ZM98.128 247.862V227.453C98.128 227.045 97.9596 226.671 97.69 226.402C97.423 226.131 97.0497 225.964 96.6398 225.964H76.2303C75.8205 225.964 75.4471 226.131 75.1784 226.4C74.9105 226.671 74.7422 227.045 74.7422 227.453V247.862C74.7422 248.272 74.9088 248.645 75.1759 248.912C75.4497 249.181 75.8239 249.35 76.2303 249.35H96.6398C97.0463 249.35 97.4205 249.181 97.69 248.912C97.9613 248.645 98.128 248.272 98.128 247.862ZM70.5115 198.295H102.401V166.44H70.5115V198.295ZM102.401 200.421H70.5115V253.606H102.401V200.421Z" fill="#20201F"/>
<path fill-rule="evenodd" clip-rule="evenodd" d="M350.225 523.118C347.428 524.916 343.839 526.027 340.684 526.027C337.579 526.027 335.155 524.961 333.468 523.217V523.212C332.83 522.551 332.336 521.767 331.918 520.936V524.524C331.918 526.665 331.023 527.921 329.587 528.649C328.28 529.314 326.551 529.478 324.655 529.478H323.873V529.459C322.293 529.415 320.85 529.217 319.727 528.649C318.292 527.921 317.401 526.665 317.401 524.534V506.94C317.401 504.799 318.292 503.546 319.727 502.821C320.85 502.257 322.293 502.054 323.873 502.012V501.992H324.655C326.551 501.992 328.28 502.156 329.587 502.821C331.023 503.546 331.918 504.799 331.918 506.94V510.534C332.336 509.703 332.825 508.922 333.468 508.259C335.155 506.512 337.579 505.446 340.684 505.446C344.019 505.446 347.835 506.689 350.698 508.671C353.339 510.5 355.193 512.974 355.193 515.735C355.193 518.66 353.114 521.264 350.225 523.118ZM322.322 515.228H322.317V515.231C322.317 515.862 322.58 516.443 322.998 516.861V516.866C323.415 517.283 323.991 517.542 324.63 517.542C325.269 517.542 325.84 517.283 326.257 516.866H326.265L326.264 516.861C326.682 516.44 326.939 515.862 326.939 515.231C326.939 514.59 326.682 514.011 326.265 513.596C325.847 513.179 325.269 512.918 324.63 512.918C323.991 512.918 323.42 513.179 322.998 513.596C322.58 514.011 322.322 514.59 322.322 515.228ZM323.505 515.226V515.231C323.505 515.542 323.629 515.824 323.825 516.024H323.833C324.034 516.225 324.32 516.354 324.63 516.354C324.945 516.354 325.234 516.228 325.43 516.034L325.435 516.025C325.631 515.824 325.758 515.542 325.758 515.231C325.758 514.909 325.631 514.629 325.435 514.428C325.234 514.232 324.945 514.108 324.63 514.108C324.315 514.108 324.028 514.232 323.833 514.438C323.624 514.634 323.497 514.918 323.497 515.226H323.505ZM330.355 506.94C330.355 505.496 329.788 504.671 328.889 504.211C327.957 503.746 326.665 503.59 325.204 503.563H324.655C322.972 503.563 321.464 503.691 320.425 504.211C319.526 504.671 318.965 505.497 318.965 506.94V524.534C318.965 525.975 319.526 526.797 320.425 527.257C321.464 527.781 322.972 527.908 324.655 527.908H325.264C326.694 527.875 327.978 527.722 328.889 527.26C329.796 526.797 330.355 525.968 330.355 524.524V506.94ZM349.813 509.951C347.201 508.14 343.72 507.007 340.684 507.007C338.031 507.007 335.99 507.893 334.589 509.339C333.056 510.922 332.264 513.201 332.264 515.735C332.264 518.274 333.056 520.55 334.589 522.137C335.99 523.58 338.031 524.465 340.684 524.465C343.552 524.465 346.827 523.45 349.386 521.806C351.853 520.223 353.63 518.066 353.63 515.735C353.63 513.544 352.05 511.507 349.813 509.951Z" fill="#20201F"/>
<path fill-rule="evenodd" clip-rule="evenodd" d="M468.054 534.612L448.564 534.617C442.046 534.617 442.814 521.125 442.881 520.224C442.881 517.101 444.155 514.267 446.208 512.217C448.255 510.17 451.094 508.902 454.217 508.902H462.488C465.616 508.902 468.451 510.168 470.505 512.217C472.551 514.267 473.821 517.106 473.834 520.23C473.876 521.146 474.547 534.617 468.054 534.612ZM458.349 521.469V521.466C459.034 521.459 459.667 521.19 460.118 520.739C460.562 520.281 460.836 519.656 460.836 518.974C460.836 518.285 460.561 517.659 460.109 517.209C459.658 516.758 459.034 516.481 458.346 516.481C457.662 516.481 457.037 516.758 456.587 517.209H456.578V517.214C456.128 517.664 455.846 518.285 455.846 518.974C455.846 519.656 456.128 520.289 456.578 520.739H456.581C457.031 521.19 457.662 521.473 458.346 521.473L458.349 521.469ZM458.353 520.197C458.679 520.197 458.986 520.063 459.205 519.838C459.419 519.623 459.557 519.315 459.557 518.974C459.557 518.634 459.425 518.325 459.211 518.104C458.99 517.893 458.69 517.753 458.346 517.757C458.003 517.757 457.706 517.89 457.486 518.104L457.481 518.11C457.262 518.325 457.128 518.634 457.128 518.974C457.128 519.31 457.27 519.617 457.482 519.838L457.487 519.84C457.702 520.056 458.009 520.186 458.341 520.186L458.353 520.184V520.197ZM458.349 529.862C461.491 529.862 464.343 528.926 466.417 527.423C468.572 525.852 469.912 523.656 469.913 521.223C469.913 518.781 468.572 516.586 466.417 515.011C464.336 513.5 461.482 512.572 458.339 512.572H458.325C455.19 512.579 452.344 513.514 450.264 515.02C448.119 516.591 446.782 518.781 446.78 521.209L446.782 521.223C446.782 523.662 448.119 525.845 450.281 527.423C452.35 528.928 455.201 529.862 458.341 529.859L458.349 529.862ZM458.349 528.104C461.102 528.099 463.591 527.291 465.39 525.993C467.088 524.751 468.145 523.06 468.145 521.223C468.145 519.374 467.088 517.683 465.376 516.436C463.586 515.143 461.102 514.337 458.339 514.337H458.333L458.325 514.332C455.569 514.337 453.091 515.143 451.301 516.444C449.607 517.68 448.551 519.374 448.545 521.209L448.551 521.223C448.547 523.063 449.605 524.756 451.307 525.993C453.098 527.286 455.582 528.099 458.339 528.097H458.349V528.104ZM468.048 532.852C472.887 532.852 472.063 520.327 472.063 520.294L472.055 520.23C472.055 517.59 470.99 515.202 469.264 513.466C467.524 511.735 465.131 510.667 462.488 510.667H454.225C451.572 510.667 449.176 511.73 447.442 513.466C445.712 515.194 444.646 517.59 444.641 520.23L444.639 520.292C444.639 520.323 443.751 532.852 448.569 532.852H468.048Z" fill="#20201F"/>
<path fill-rule="evenodd" clip-rule="evenodd" d="M112.414 416.34V314.751H70.855V416.34H112.414ZM87.595 396.544C87.595 395.429 88.0474 394.418 88.7776 393.688C89.5121 392.958 90.5212 392.505 91.6344 392.505C92.7475 392.505 93.7567 392.958 94.4877 393.688C95.2213 394.422 95.6738 395.431 95.6738 396.544C95.6738 397.658 95.2213 398.667 94.4911 399.398C93.7606 400.131 92.7501 400.584 91.6344 400.584C90.5187 400.584 89.5081 400.131 88.7776 399.401C88.0474 398.671 87.595 397.66 87.595 396.544ZM89.9191 394.83C90.3562 394.392 90.964 394.121 91.6344 394.121C92.3048 394.121 92.9125 394.392 93.3496 394.83C93.7864 395.267 94.058 395.874 94.058 396.544C94.058 397.215 93.7864 397.823 93.3488 398.259C92.91 398.697 92.3034 398.968 91.6344 398.968C90.9654 398.968 90.3588 398.697 89.92 398.259C89.4823 397.82 89.2108 397.213 89.2108 396.544C89.2108 395.876 89.4823 395.269 89.9191 394.83ZM72.0441 408.673L73.6599 336.96C73.6599 326.189 80.8639 317.37 91.6344 317.37C102.405 317.37 109.609 326.189 109.609 336.96L111.225 408.673C111.225 410.062 110.656 411.325 109.742 412.239C108.824 413.153 107.562 413.722 106.175 413.722H77.0935C75.7088 413.722 74.4468 413.154 73.5306 412.239C72.6122 411.319 72.0441 410.057 72.0441 408.673ZM75.6796 336.96C75.6796 327.293 81.9674 319.389 91.6344 319.389C101.301 319.389 107.589 327.293 107.589 336.96L109.205 408.673C109.205 409.504 108.863 410.261 108.314 410.815C107.768 411.362 107.01 411.702 106.175 411.702H77.0935C76.259 411.702 75.5018 411.362 74.9511 410.811C74.404 410.264 74.0638 409.507 74.0638 408.673L75.6796 336.96ZM114.392 314.538V416.553C114.392 417.061 114.191 417.523 113.872 417.859C113.552 418.196 113.106 418.405 112.617 418.405H70.6515C70.1628 418.405 69.7169 418.196 69.3969 417.863C69.076 417.527 68.8767 417.063 68.8767 416.553V314.538C68.8767 314.028 69.076 313.564 69.3969 313.229C69.7209 312.897 70.1651 312.687 70.6515 312.687H112.617C113.104 312.687 113.547 312.896 113.869 313.229C114.192 313.569 114.392 314.031 114.392 314.538Z" fill="#20201F"/>
<path fill-rule="evenodd" clip-rule="evenodd" d="M404.44 341.558H407.36C407.709 341.558 407.992 341.844 407.992 342.191V342.802H449.93C450.437 342.802 450.848 343.213 450.848 343.72C450.848 344.227 450.437 344.639 449.93 344.639H407.992V349.646C407.992 349.992 407.706 350.278 407.36 350.278H404.44C404.091 350.278 403.808 349.994 403.808 349.646V342.191C403.808 341.843 404.091 341.558 404.44 341.558Z" fill="#20201F"/>
<path fill-rule="evenodd" clip-rule="evenodd" d="M493.693 350.489H490.772C490.424 350.489 490.141 350.204 490.141 349.857V349.246H448.203C447.696 349.246 447.284 348.835 447.284 348.328C447.284 347.821 447.696 347.409 448.203 347.409H490.141V342.402C490.141 342.056 490.426 341.769 490.772 341.769H493.693C494.041 341.769 494.325 342.053 494.325 342.402V349.857C494.325 350.205 494.041 350.489 493.693 350.489Z" fill="#20201F"/>
<path fill-rule="evenodd" clip-rule="evenodd" d="M291.19 382.815H294.11C294.458 382.815 294.742 383.101 294.742 383.448V384.059H336.68C337.186 384.059 337.598 384.47 337.598 384.977C337.598 385.484 337.186 385.896 336.68 385.896H294.742V390.903C294.742 391.249 294.456 391.535 294.11 391.535H291.19C290.841 391.535 290.558 391.251 290.558 390.903V383.448C290.558 383.099 290.841 382.815 291.19 382.815Z" fill="#20201F"/>
<path fill-rule="evenodd" clip-rule="evenodd" d="M380.443 391.746H377.522C377.174 391.746 376.891 391.461 376.891 391.114V390.503H334.953C334.446 390.503 334.034 390.091 334.034 389.585C334.034 389.078 334.446 388.666 334.953 388.666H376.891V383.659C376.891 383.313 377.176 383.026 377.522 383.026H380.443C380.791 383.026 381.075 383.31 381.075 383.659V391.114C381.075 391.462 380.791 391.746 380.443 391.746Z" fill="#20201F"/>
<path d="M623.575 256.374C625.08 256.456 626.223 256.866 627.004 257.606C627.798 258.331 628.195 259.282 628.195 260.46C628.195 261.281 627.996 262.013 627.599 262.657C627.202 263.286 626.613 263.786 625.833 264.156C625.053 264.525 624.102 264.71 622.979 264.71C621.939 264.71 620.953 264.546 620.022 264.217C619.105 263.875 618.366 263.423 617.805 262.862L618.524 261.692C619.003 262.184 619.639 262.588 620.433 262.903C621.227 263.204 622.076 263.355 622.979 263.355C624.156 263.355 625.067 263.102 625.71 262.595C626.353 262.075 626.675 261.363 626.675 260.46C626.675 259.57 626.353 258.872 625.71 258.365C625.067 257.859 624.095 257.606 622.794 257.606H621.768V256.517L625.751 251.528H618.4V250.214H627.64V251.261L623.575 256.374ZM640.16 250.214V251.261L634.144 264.587H632.542L638.456 251.528H631.064V254.218H629.606V250.214H640.16ZM642.134 264.689C641.833 264.689 641.573 264.58 641.354 264.361C641.148 264.142 641.046 263.875 641.046 263.56C641.046 263.245 641.148 262.985 641.354 262.78C641.573 262.561 641.833 262.451 642.134 262.451C642.435 262.451 642.695 262.561 642.914 262.78C643.133 262.985 643.243 263.245 643.243 263.56C643.243 263.875 643.133 264.142 642.914 264.361C642.695 264.58 642.435 264.689 642.134 264.689ZM650.464 256.374C651.97 256.456 653.113 256.866 653.893 257.606C654.687 258.331 655.084 259.282 655.084 260.46C655.084 261.281 654.885 262.013 654.488 262.657C654.091 263.286 653.503 263.786 652.722 264.156C651.942 264.525 650.991 264.71 649.868 264.71C648.828 264.71 647.842 264.546 646.912 264.217C645.994 263.875 645.255 263.423 644.694 262.862L645.413 261.692C645.892 262.184 646.528 262.588 647.322 262.903C648.116 263.204 648.965 263.355 649.868 263.355C651.046 263.355 651.956 263.102 652.599 262.595C653.243 262.075 653.564 261.363 653.564 260.46C653.564 259.57 653.243 258.872 652.599 258.365C651.956 257.859 650.984 257.606 649.684 257.606H648.657V256.517L652.64 251.528H645.29V250.214H654.529V251.261L650.464 256.374ZM662.895 264.71C661.787 264.71 660.794 264.416 659.918 263.827C659.056 263.238 658.378 262.397 657.885 261.302C657.406 260.193 657.167 258.892 657.167 257.4C657.167 255.908 657.406 254.615 657.885 253.52C658.378 252.411 659.056 251.562 659.918 250.974C660.794 250.385 661.787 250.091 662.895 250.091C664.004 250.091 664.99 250.385 665.852 250.974C666.728 251.562 667.413 252.411 667.905 253.52C668.398 254.615 668.645 255.908 668.645 257.4C668.645 258.892 668.398 260.193 667.905 261.302C667.413 262.397 666.728 263.238 665.852 263.827C664.99 264.416 664.004 264.71 662.895 264.71ZM662.895 263.355C663.73 263.355 664.463 263.122 665.092 262.657C665.736 262.191 666.235 261.514 666.591 260.624C666.947 259.734 667.125 258.66 667.125 257.4C667.125 256.141 666.947 255.066 666.591 254.177C666.235 253.287 665.736 252.609 665.092 252.144C664.463 251.679 663.73 251.446 662.895 251.446C662.06 251.446 661.321 251.679 660.678 252.144C660.048 252.609 659.555 253.287 659.2 254.177C658.844 255.066 658.666 256.141 658.666 257.4C658.666 258.66 658.844 259.734 659.2 260.624C659.555 261.514 660.048 262.191 660.678 262.657C661.321 263.122 662.06 263.355 662.895 263.355Z" fill="#20201F"/>
<path d="M623.955 285.27C624.899 285.27 625.734 285.448 626.46 285.804C627.199 286.159 627.774 286.666 628.185 287.323C628.595 287.966 628.801 288.719 628.801 289.582C628.801 290.458 628.588 291.231 628.164 291.902C627.74 292.573 627.151 293.093 626.398 293.462C625.659 293.818 624.824 293.996 623.893 293.996C621.991 293.996 620.533 293.373 619.52 292.128C618.507 290.868 618 289.096 618 286.81C618 285.208 618.274 283.853 618.822 282.744C619.369 281.635 620.136 280.8 621.121 280.239C622.107 279.664 623.257 279.377 624.571 279.377C625.994 279.377 627.131 279.637 627.979 280.157L627.384 281.348C626.699 280.896 625.769 280.67 624.591 280.67C623.003 280.67 621.758 281.177 620.854 282.19C619.951 283.189 619.499 284.647 619.499 286.563C619.499 286.905 619.52 287.296 619.561 287.734C619.917 286.953 620.485 286.351 621.265 285.927C622.045 285.489 622.942 285.27 623.955 285.27ZM623.832 292.744C624.872 292.744 625.714 292.463 626.357 291.902C627.014 291.327 627.343 290.567 627.343 289.623C627.343 288.678 627.014 287.925 626.357 287.364C625.714 286.803 624.838 286.522 623.729 286.522C623.003 286.522 622.36 286.659 621.799 286.933C621.251 287.207 620.82 287.583 620.505 288.062C620.19 288.541 620.033 289.075 620.033 289.664C620.033 290.211 620.177 290.718 620.464 291.183C620.765 291.649 621.203 292.025 621.778 292.312C622.353 292.6 623.038 292.744 623.832 292.744ZM638.746 286.337C639.65 286.639 640.341 287.09 640.82 287.693C641.313 288.295 641.559 289.02 641.559 289.869C641.559 290.704 641.333 291.436 640.882 292.066C640.43 292.682 639.78 293.161 638.931 293.503C638.096 293.832 637.11 293.996 635.974 293.996C634.249 293.996 632.894 293.627 631.909 292.887C630.923 292.148 630.43 291.142 630.43 289.869C630.43 289.007 630.663 288.281 631.128 287.693C631.608 287.09 632.299 286.639 633.202 286.337C632.463 286.05 631.902 285.639 631.519 285.105C631.135 284.558 630.944 283.915 630.944 283.175C630.944 282.012 631.395 281.088 632.299 280.403C633.216 279.719 634.441 279.377 635.974 279.377C636.987 279.377 637.87 279.534 638.623 279.849C639.39 280.15 639.985 280.588 640.409 281.163C640.834 281.738 641.046 282.409 641.046 283.175C641.046 283.915 640.847 284.558 640.45 285.105C640.053 285.639 639.485 286.05 638.746 286.337ZM632.422 283.216C632.422 284.01 632.737 284.64 633.367 285.105C633.996 285.571 634.865 285.804 635.974 285.804C637.083 285.804 637.952 285.571 638.582 285.105C639.225 284.64 639.547 284.017 639.547 283.237C639.547 282.429 639.218 281.793 638.561 281.327C637.918 280.862 637.056 280.629 635.974 280.629C634.879 280.629 634.01 280.862 633.367 281.327C632.737 281.793 632.422 282.422 632.422 283.216ZM635.974 292.744C637.247 292.744 638.24 292.484 638.951 291.963C639.677 291.443 640.04 290.738 640.04 289.848C640.04 288.959 639.677 288.261 638.951 287.754C638.24 287.234 637.247 286.974 635.974 286.974C634.715 286.974 633.722 287.234 632.997 287.754C632.285 288.261 631.929 288.959 631.929 289.848C631.929 290.752 632.285 291.464 632.997 291.984C633.709 292.49 634.701 292.744 635.974 292.744ZM644.915 293.976C644.614 293.976 644.354 293.866 644.135 293.647C643.93 293.428 643.827 293.161 643.827 292.846C643.827 292.531 643.93 292.271 644.135 292.066C644.354 291.847 644.614 291.738 644.915 291.738C645.217 291.738 645.477 291.847 645.696 292.066C645.915 292.271 646.024 292.531 646.024 292.846C646.024 293.161 645.915 293.428 645.696 293.647C645.477 293.866 645.217 293.976 644.915 293.976ZM658.06 279.5V280.547L652.044 293.873H650.443L656.356 280.814H648.964V283.504H647.507V279.5H658.06ZM664.484 279.377C666.387 279.377 667.845 280.006 668.858 281.266C669.871 282.511 670.377 284.277 670.377 286.563C670.377 288.165 670.104 289.52 669.556 290.629C669.009 291.738 668.242 292.579 667.256 293.154C666.271 293.716 665.121 293.996 663.807 293.996C662.383 293.996 661.247 293.736 660.398 293.216L660.994 292.025C661.678 292.477 662.609 292.703 663.786 292.703C665.374 292.703 666.62 292.203 667.523 291.204C668.427 290.191 668.879 288.726 668.879 286.81C668.879 286.454 668.858 286.064 668.817 285.639C668.461 286.42 667.893 287.029 667.113 287.467C666.332 287.891 665.436 288.103 664.423 288.103C663.478 288.103 662.637 287.925 661.897 287.569C661.172 287.213 660.604 286.714 660.193 286.07C659.782 285.413 659.577 284.654 659.577 283.791C659.577 282.915 659.789 282.142 660.214 281.471C660.638 280.8 661.22 280.287 661.959 279.931C662.712 279.562 663.554 279.377 664.484 279.377ZM664.649 286.851C665.374 286.851 666.011 286.714 666.558 286.44C667.12 286.166 667.558 285.79 667.872 285.311C668.187 284.832 668.345 284.298 668.345 283.709C668.345 283.162 668.194 282.655 667.893 282.19C667.605 281.724 667.174 281.348 666.599 281.06C666.024 280.773 665.34 280.629 664.546 280.629C663.506 280.629 662.657 280.917 662 281.492C661.357 282.053 661.035 282.806 661.035 283.75C661.035 284.695 661.357 285.448 662 286.009C662.657 286.57 663.54 286.851 664.649 286.851Z" fill="#20201F"/>
<path d="M633.235 308.786V309.833L627.219 323.159H625.618L631.531 310.1H624.139V312.79H622.681V308.786H633.235ZM639.367 308.786V323.159H637.889V310.1H634.501V308.786H639.367ZM643.912 323.261C643.61 323.261 643.35 323.152 643.131 322.933C642.926 322.714 642.823 322.447 642.823 322.132C642.823 321.817 642.926 321.557 643.131 321.352C643.35 321.133 643.61 321.023 643.912 321.023C644.213 321.023 644.473 321.133 644.692 321.352C644.911 321.557 645.02 321.817 645.02 322.132C645.02 322.447 644.911 322.714 644.692 322.933C644.473 323.152 644.213 323.261 643.912 323.261ZM650.897 308.786V323.159H649.418V310.1H646.03V308.786H650.897ZM662.566 315.623C663.47 315.924 664.161 316.376 664.64 316.978C665.133 317.58 665.379 318.306 665.379 319.155C665.379 319.99 665.153 320.722 664.702 321.352C664.25 321.968 663.6 322.447 662.751 322.789C661.916 323.118 660.93 323.282 659.794 323.282C658.069 323.282 656.714 322.912 655.729 322.173C654.743 321.434 654.25 320.428 654.25 319.155C654.25 318.292 654.483 317.567 654.948 316.978C655.428 316.376 656.119 315.924 657.022 315.623C656.283 315.336 655.722 314.925 655.339 314.391C654.955 313.844 654.764 313.2 654.764 312.461C654.764 311.297 655.215 310.373 656.119 309.689C657.036 309.005 658.261 308.662 659.794 308.662C660.807 308.662 661.69 308.82 662.443 309.135C663.209 309.436 663.805 309.874 664.229 310.449C664.654 311.024 664.866 311.694 664.866 312.461C664.866 313.2 664.667 313.844 664.27 314.391C663.873 314.925 663.305 315.336 662.566 315.623ZM656.242 312.502C656.242 313.296 656.557 313.926 657.187 314.391C657.816 314.856 658.685 315.089 659.794 315.089C660.903 315.089 661.772 314.856 662.402 314.391C663.045 313.926 663.367 313.303 663.367 312.523C663.367 311.715 663.038 311.078 662.381 310.613C661.738 310.148 660.876 309.915 659.794 309.915C658.699 309.915 657.83 310.148 657.187 310.613C656.557 311.078 656.242 311.708 656.242 312.502ZM659.794 322.029C661.067 322.029 662.06 321.769 662.771 321.249C663.497 320.729 663.86 320.024 663.86 319.134C663.86 318.244 663.497 317.546 662.771 317.04C662.06 316.52 661.067 316.26 659.794 316.26C658.535 316.26 657.542 316.52 656.817 317.04C656.105 317.546 655.749 318.244 655.749 319.134C655.749 320.038 656.105 320.749 656.817 321.27C657.529 321.776 658.521 322.029 659.794 322.029Z" fill="#20201F"/>
<path d="M589.614 302.411V310H559.201V303.963L574.724 289.303C576.372 287.731 577.483 286.39 578.058 285.278C578.633 284.129 578.921 282.998 578.921 281.886C578.921 280.277 578.365 279.05 577.253 278.207C576.18 277.325 574.59 276.885 572.482 276.885C570.718 276.885 569.128 277.23 567.71 277.92C566.292 278.571 565.103 279.568 564.145 280.909L557.361 276.54C558.933 274.202 561.098 272.381 563.858 271.078C566.617 269.737 569.779 269.066 573.344 269.066C576.333 269.066 578.94 269.564 581.163 270.561C583.424 271.519 585.168 272.899 586.395 274.7C587.659 276.463 588.292 278.552 588.292 280.967C588.292 283.151 587.832 285.202 586.912 287.118C585.992 289.035 584.21 291.219 581.565 293.672L572.309 302.411H589.614Z" fill="#20201F"/>
<path d="M606.047 239H603.921V340.095H606.047V239Z" fill="#20201F"/>
<path d="M575.418 438.301H569.751V446.719H566.568V435.672H575.418V438.301ZM581.828 446.883C580.665 446.883 579.618 446.644 578.687 446.165C577.77 445.672 577.051 444.994 576.531 444.132C576.011 443.27 575.751 442.291 575.751 441.196C575.751 440.101 576.011 439.122 576.531 438.26C577.051 437.397 577.77 436.726 578.687 436.247C579.618 435.755 580.665 435.508 581.828 435.508C582.992 435.508 584.032 435.755 584.949 436.247C585.867 436.726 586.585 437.397 587.105 438.26C587.626 439.122 587.886 440.101 587.886 441.196C587.886 442.291 587.626 443.27 587.105 444.132C586.585 444.994 585.867 445.672 584.949 446.165C584.032 446.644 582.992 446.883 581.828 446.883ZM581.828 444.255C582.65 444.255 583.321 443.981 583.841 443.434C584.375 442.873 584.641 442.127 584.641 441.196C584.641 440.265 584.375 439.526 583.841 438.978C583.321 438.417 582.65 438.136 581.828 438.136C581.007 438.136 580.33 438.417 579.796 438.978C579.262 439.526 578.995 440.265 578.995 441.196C578.995 442.127 579.262 442.873 579.796 443.434C580.33 443.981 581.007 444.255 581.828 444.255ZM595.345 446.883C594.168 446.883 593.107 446.644 592.163 446.165C591.232 445.672 590.499 444.994 589.966 444.132C589.445 443.27 589.185 442.291 589.185 441.196C589.185 440.101 589.445 439.122 589.966 438.26C590.499 437.397 591.232 436.726 592.163 436.247C593.107 435.755 594.168 435.508 595.345 435.508C596.509 435.508 597.522 435.755 598.384 436.247C599.26 436.726 599.897 437.418 600.294 438.321L597.809 439.656C597.234 438.643 596.406 438.136 595.325 438.136C594.49 438.136 593.798 438.41 593.251 438.958C592.703 439.505 592.43 440.251 592.43 441.196C592.43 442.14 592.703 442.886 593.251 443.434C593.798 443.981 594.49 444.255 595.325 444.255C596.42 444.255 597.248 443.749 597.809 442.736L600.294 444.091C599.897 444.967 599.26 445.651 598.384 446.144C597.522 446.637 596.509 446.883 595.345 446.883ZM611.481 438.301H607.744V446.719H604.561V438.301H600.824V435.672H611.481V438.301ZM613.188 435.672H616.371V442.243L621.75 435.672H624.687V446.719H621.504V440.149L616.145 446.719H613.188V435.672ZM627.766 435.672H630.948V439.984H635.753V435.672H638.956V446.719H635.753V442.592H630.948V446.719H627.766V435.672ZM646.314 435.508C648.025 435.508 649.339 435.919 650.256 436.74C651.173 437.548 651.632 438.773 651.632 440.416V446.719H648.634V445.343C648.032 446.37 646.909 446.883 645.266 446.883C644.418 446.883 643.679 446.74 643.049 446.452C642.433 446.165 641.961 445.768 641.632 445.261C641.304 444.755 641.139 444.18 641.139 443.537C641.139 442.51 641.523 441.702 642.289 441.114C643.069 440.525 644.267 440.231 645.882 440.231H648.429C648.429 439.533 648.216 438.999 647.792 438.629C647.368 438.246 646.731 438.054 645.882 438.054C645.294 438.054 644.712 438.15 644.137 438.342C643.576 438.52 643.097 438.766 642.7 439.081L641.55 436.843C642.152 436.418 642.871 436.09 643.706 435.857C644.555 435.625 645.424 435.508 646.314 435.508ZM646.067 444.727C646.615 444.727 647.101 444.604 647.525 444.358C647.949 444.098 648.251 443.721 648.429 443.229V442.099H646.232C644.917 442.099 644.26 442.53 644.26 443.393C644.26 443.803 644.418 444.132 644.733 444.378C645.061 444.611 645.506 444.727 646.067 444.727ZM664.229 435.672V446.719H661.375V443.557H659.014L656.919 446.719H653.511L656.036 443.105C655.27 442.804 654.681 442.373 654.27 441.812C653.873 441.237 653.675 440.546 653.675 439.738C653.675 438.438 654.14 437.438 655.071 436.74C656.016 436.028 657.309 435.672 658.952 435.672H664.229ZM659.014 438.28C658.329 438.28 657.809 438.403 657.453 438.65C657.111 438.896 656.94 439.293 656.94 439.841C656.94 440.388 657.104 440.792 657.433 441.052C657.775 441.298 658.288 441.422 658.972 441.422H661.375V438.28H659.014Z" fill="black"/>
<path d="M595.056 461.632V476.005H591.729V464.301H588.855V461.632H595.056ZM602.603 461.385C604.616 461.385 606.19 462.001 607.326 463.233C608.462 464.452 609.03 466.211 609.03 468.51C609.03 470.139 608.722 471.535 608.106 472.699C607.504 473.863 606.648 474.745 605.54 475.348C604.431 475.95 603.151 476.251 601.7 476.251C600.933 476.251 600.201 476.169 599.503 476.005C598.805 475.827 598.209 475.58 597.717 475.266L598.949 472.822C599.647 473.301 600.543 473.541 601.638 473.541C602.857 473.541 603.822 473.185 604.534 472.473C605.245 471.748 605.629 470.707 605.683 469.352C604.821 470.215 603.63 470.646 602.111 470.646C601.194 470.646 600.359 470.461 599.606 470.091C598.853 469.722 598.257 469.202 597.819 468.531C597.381 467.846 597.162 467.059 597.162 466.17C597.162 465.211 597.402 464.37 597.881 463.644C598.36 462.919 599.01 462.364 599.832 461.981C600.667 461.584 601.591 461.385 602.603 461.385ZM602.85 468.161C603.575 468.161 604.164 467.963 604.616 467.566C605.081 467.155 605.314 466.635 605.314 466.005C605.314 465.376 605.088 464.862 604.636 464.465C604.198 464.068 603.589 463.87 602.809 463.87C602.097 463.87 601.515 464.062 601.064 464.445C600.625 464.828 600.406 465.348 600.406 466.005C600.406 466.662 600.625 467.189 601.064 467.586C601.515 467.97 602.111 468.161 602.85 468.161ZM612.254 476.169C611.693 476.169 611.221 475.977 610.838 475.594C610.454 475.211 610.263 474.732 610.263 474.157C610.263 473.568 610.454 473.096 610.838 472.74C611.221 472.37 611.693 472.186 612.254 472.186C612.816 472.186 613.288 472.37 613.671 472.74C614.054 473.096 614.246 473.568 614.246 474.157C614.246 474.732 614.054 475.211 613.671 475.594C613.288 475.977 612.816 476.169 612.254 476.169ZM620.79 461.385C622.802 461.385 624.377 462.001 625.513 463.233C626.649 464.452 627.217 466.211 627.217 468.51C627.217 470.139 626.909 471.535 626.293 472.699C625.691 473.863 624.835 474.745 623.726 475.348C622.618 475.95 621.338 476.251 619.887 476.251C619.12 476.251 618.388 476.169 617.69 476.005C616.992 475.827 616.396 475.58 615.903 475.266L617.135 472.822C617.834 473.301 618.73 473.541 619.825 473.541C621.043 473.541 622.009 473.185 622.72 472.473C623.432 471.748 623.815 470.707 623.87 469.352C623.008 470.215 621.817 470.646 620.297 470.646C619.38 470.646 618.545 470.461 617.792 470.091C617.04 469.722 616.444 469.202 616.006 468.531C615.568 467.846 615.349 467.059 615.349 466.17C615.349 465.211 615.589 464.37 616.068 463.644C616.547 462.919 617.197 462.364 618.018 461.981C618.853 461.584 619.777 461.385 620.79 461.385ZM621.037 468.161C621.762 468.161 622.351 467.963 622.802 467.566C623.268 467.155 623.501 466.635 623.501 466.005C623.501 465.376 623.275 464.862 622.823 464.465C622.385 464.068 621.776 463.87 620.996 463.87C620.284 463.87 619.702 464.062 619.25 464.445C618.812 464.828 618.593 465.348 618.593 466.005C618.593 466.662 618.812 467.189 619.25 467.586C619.702 467.97 620.297 468.161 621.037 468.161ZM638.648 468.449C639.36 468.805 639.9 469.27 640.27 469.845C640.653 470.42 640.845 471.084 640.845 471.837C640.845 472.726 640.592 473.507 640.085 474.177C639.579 474.834 638.867 475.348 637.95 475.717C637.033 476.073 635.972 476.251 634.767 476.251C633.563 476.251 632.502 476.073 631.585 475.717C630.681 475.348 629.976 474.834 629.47 474.177C628.977 473.507 628.731 472.726 628.731 471.837C628.731 471.084 628.915 470.42 629.285 469.845C629.668 469.27 630.209 468.805 630.907 468.449C630.373 468.12 629.963 467.71 629.675 467.217C629.388 466.71 629.244 466.135 629.244 465.492C629.244 464.657 629.477 463.931 629.942 463.315C630.407 462.7 631.058 462.227 631.893 461.899C632.728 461.557 633.686 461.385 634.767 461.385C635.862 461.385 636.827 461.557 637.662 461.899C638.511 462.227 639.168 462.7 639.634 463.315C640.099 463.931 640.332 464.657 640.332 465.492C640.332 466.135 640.188 466.71 639.9 467.217C639.613 467.71 639.196 468.12 638.648 468.449ZM634.767 463.829C634.097 463.829 633.556 463.993 633.145 464.322C632.748 464.636 632.55 465.074 632.55 465.636C632.55 466.183 632.748 466.614 633.145 466.929C633.542 467.244 634.083 467.402 634.767 467.402C635.452 467.402 635.999 467.244 636.41 466.929C636.821 466.614 637.026 466.183 637.026 465.636C637.026 465.074 636.821 464.636 636.41 464.322C635.999 463.993 635.452 463.829 634.767 463.829ZM634.767 473.808C635.602 473.808 636.259 473.623 636.738 473.253C637.231 472.87 637.478 472.364 637.478 471.734C637.478 471.104 637.231 470.605 636.738 470.235C636.259 469.865 635.602 469.681 634.767 469.681C633.946 469.681 633.296 469.865 632.817 470.235C632.338 470.605 632.098 471.104 632.098 471.734C632.098 472.377 632.338 472.884 632.817 473.253C633.296 473.623 633.946 473.808 634.767 473.808Z" fill="black"/>
<path d="M338.246 185.065C337.068 185.065 336.008 184.825 335.063 184.346C334.132 183.854 333.4 183.176 332.866 182.314C332.346 181.451 332.086 180.473 332.086 179.377C332.086 178.282 332.346 177.304 332.866 176.441C333.4 175.579 334.132 174.908 335.063 174.429C336.008 173.936 337.068 173.69 338.246 173.69C339.409 173.69 340.422 173.936 341.284 174.429C342.16 174.908 342.797 175.599 343.194 176.503L340.71 177.837C340.135 176.825 339.306 176.318 338.225 176.318C337.39 176.318 336.699 176.592 336.151 177.139C335.604 177.687 335.33 178.433 335.33 179.377C335.33 180.322 335.604 181.068 336.151 181.616C336.699 182.163 337.39 182.437 338.225 182.437C339.32 182.437 340.148 181.93 340.71 180.917L343.194 182.273C342.797 183.149 342.16 183.833 341.284 184.326C340.422 184.819 339.409 185.065 338.246 185.065ZM356.125 173.854V184.901H352.922V176.482H348.323V184.901H345.14V173.854H356.125ZM363.488 173.69C365.199 173.69 366.513 174.101 367.43 174.922C368.347 175.729 368.806 176.955 368.806 178.597V184.901H365.808V183.525C365.206 184.552 364.083 185.065 362.441 185.065C361.592 185.065 360.853 184.921 360.223 184.634C359.607 184.346 359.135 183.949 358.806 183.443C358.478 182.936 358.314 182.362 358.314 181.718C358.314 180.692 358.697 179.884 359.463 179.295C360.244 178.707 361.441 178.412 363.057 178.412H365.603C365.603 177.714 365.391 177.18 364.966 176.811C364.542 176.428 363.905 176.236 363.057 176.236C362.468 176.236 361.886 176.332 361.311 176.523C360.75 176.701 360.271 176.948 359.874 177.263L358.724 175.024C359.327 174.6 360.045 174.272 360.88 174.039C361.729 173.806 362.598 173.69 363.488 173.69ZM363.242 182.909C363.789 182.909 364.275 182.786 364.699 182.539C365.124 182.279 365.425 181.903 365.603 181.41V180.281H363.406C362.092 180.281 361.435 180.712 361.435 181.574C361.435 181.985 361.592 182.314 361.907 182.56C362.235 182.793 362.68 182.909 363.242 182.909ZM382.183 173.854V184.901H378.98V176.482H375.49L375.387 178.433C375.332 179.884 375.195 181.088 374.976 182.047C374.757 183.005 374.401 183.758 373.909 184.305C373.416 184.853 372.731 185.127 371.855 185.127C371.39 185.127 370.836 185.044 370.192 184.88L370.356 182.252C370.575 182.279 370.733 182.293 370.829 182.293C371.308 182.293 371.664 182.122 371.896 181.78C372.143 181.424 372.307 180.979 372.389 180.445C372.471 179.898 372.533 179.179 372.574 178.289L372.738 173.854H382.183ZM391.239 177.386C392.676 177.399 393.778 177.728 394.544 178.371C395.311 179.001 395.694 179.898 395.694 181.061C395.694 182.279 395.263 183.231 394.401 183.915C393.552 184.586 392.354 184.921 390.807 184.921L385.264 184.901V173.854H388.446V177.386H391.239ZM390.52 182.642C391.136 182.656 391.608 182.526 391.937 182.252C392.265 181.978 392.43 181.568 392.43 181.02C392.43 180.486 392.265 180.096 391.937 179.85C391.622 179.603 391.15 179.473 390.52 179.46L388.446 179.439V182.642H390.52ZM397.696 173.854H400.878V178.166H405.683V173.854H408.886V184.901H405.683V180.774H400.878V184.901H397.696V173.854ZM421.767 173.854V184.901H418.913V181.739H416.552L414.457 184.901H411.049L413.574 181.287C412.808 180.986 412.219 180.555 411.809 179.993C411.412 179.418 411.213 178.727 411.213 177.92C411.213 176.619 411.678 175.62 412.609 174.922C413.554 174.21 414.847 173.854 416.49 173.854H421.767ZM416.552 176.462C415.867 176.462 415.347 176.585 414.991 176.831C414.649 177.078 414.478 177.475 414.478 178.022C414.478 178.57 414.642 178.974 414.971 179.234C415.313 179.48 415.826 179.603 416.511 179.603H418.913V176.462H416.552Z" fill="#20201F"/>
<path d="M357.654 199.813V214.186H354.328V202.483H351.453V199.813H357.654ZM371.403 199.813V201.969L366.064 214.186H362.451L367.604 202.524H362.841V204.865H359.884V199.813H371.403ZM373.77 214.351C373.209 214.351 372.737 214.159 372.353 213.776C371.97 213.392 371.779 212.913 371.779 212.338C371.779 211.75 371.97 211.278 372.353 210.922C372.737 210.552 373.209 210.367 373.77 210.367C374.331 210.367 374.804 210.552 375.187 210.922C375.57 211.278 375.762 211.75 375.762 212.338C375.762 212.913 375.57 213.392 375.187 213.776C374.804 214.159 374.331 214.351 373.77 214.351ZM388.194 211.476V214.186H377.332V212.03L382.876 206.795C383.465 206.233 383.862 205.754 384.067 205.357C384.272 204.947 384.375 204.543 384.375 204.146C384.375 203.571 384.177 203.133 383.78 202.832C383.396 202.517 382.828 202.36 382.075 202.36C381.446 202.36 380.878 202.483 380.371 202.729C379.865 202.962 379.44 203.318 379.098 203.797L376.675 202.236C377.237 201.401 378.01 200.751 378.995 200.286C379.981 199.807 381.11 199.567 382.383 199.567C383.451 199.567 384.382 199.745 385.176 200.101C385.983 200.443 386.606 200.936 387.044 201.579C387.496 202.209 387.722 202.955 387.722 203.817C387.722 204.598 387.558 205.33 387.229 206.014C386.901 206.699 386.264 207.479 385.32 208.355L382.014 211.476H388.194ZM399.402 206.63C400.114 206.986 400.654 207.452 401.024 208.027C401.407 208.601 401.599 209.265 401.599 210.018C401.599 210.908 401.346 211.688 400.839 212.359C400.333 213.016 399.621 213.529 398.704 213.899C397.787 214.255 396.726 214.433 395.521 214.433C394.317 214.433 393.256 214.255 392.339 213.899C391.435 213.529 390.73 213.016 390.224 212.359C389.731 211.688 389.485 210.908 389.485 210.018C389.485 209.265 389.669 208.601 390.039 208.027C390.422 207.452 390.963 206.986 391.661 206.63C391.127 206.302 390.717 205.891 390.429 205.398C390.142 204.892 389.998 204.317 389.998 203.674C389.998 202.839 390.231 202.113 390.696 201.497C391.161 200.881 391.812 200.409 392.647 200.08C393.482 199.738 394.44 199.567 395.521 199.567C396.616 199.567 397.581 199.738 398.416 200.08C399.265 200.409 399.922 200.881 400.387 201.497C400.853 202.113 401.086 202.839 401.086 203.674C401.086 204.317 400.942 204.892 400.654 205.398C400.367 205.891 399.949 206.302 399.402 206.63ZM395.521 202.01C394.85 202.01 394.31 202.175 393.899 202.503C393.502 202.818 393.304 203.256 393.304 203.817C393.304 204.365 393.502 204.796 393.899 205.111C394.296 205.426 394.837 205.583 395.521 205.583C396.206 205.583 396.753 205.426 397.164 205.111C397.574 204.796 397.78 204.365 397.78 203.817C397.78 203.256 397.574 202.818 397.164 202.503C396.753 202.175 396.206 202.01 395.521 202.01ZM395.521 211.989C396.356 211.989 397.013 211.805 397.492 211.435C397.985 211.052 398.232 210.545 398.232 209.916C398.232 209.286 397.985 208.786 397.492 208.417C397.013 208.047 396.356 207.862 395.521 207.862C394.7 207.862 394.05 208.047 393.571 208.417C393.091 208.786 392.852 209.286 392.852 209.916C392.852 210.559 393.091 211.065 393.571 211.435C394.05 211.805 394.7 211.989 395.521 211.989Z" fill="#20201F"/>
<path d="M153.298 180.548H151.635V184.737H148.432V173.69H151.635V177.981H153.36L156.357 173.69H159.766L155.906 178.988L160.033 184.737H156.255L153.298 180.548ZM172.051 173.69L167.062 185.414C166.555 186.687 165.926 187.584 165.173 188.104C164.434 188.624 163.537 188.884 162.483 188.884C161.908 188.884 161.34 188.795 160.779 188.617C160.218 188.439 159.759 188.193 159.403 187.878L160.573 185.599C160.82 185.818 161.1 185.989 161.415 186.112C161.744 186.236 162.065 186.297 162.38 186.297C162.818 186.297 163.174 186.188 163.448 185.969C163.722 185.763 163.968 185.414 164.187 184.921L164.228 184.819L159.444 173.69H162.75L165.85 181.185L168.971 173.69H172.051ZM179.915 184.737L177.492 181.349L174.987 184.737H171.497L175.747 179.172L171.64 173.69H175.234L177.574 176.914L179.977 173.69H183.385L179.278 179.09L183.549 184.737H179.915ZM185.126 173.69H188.309V178.002H193.113V173.69H196.317V184.737H193.113V180.61H188.309V184.737H185.126V173.69ZM209.198 173.69V184.737H206.343V181.575H203.982L201.888 184.737H198.479L201.005 181.123C200.238 180.822 199.65 180.391 199.239 179.829C198.842 179.254 198.644 178.563 198.644 177.756C198.644 176.455 199.109 175.456 200.04 174.758C200.984 174.046 202.278 173.69 203.921 173.69H209.198ZM203.982 176.298C203.298 176.298 202.778 176.421 202.422 176.667C202.079 176.914 201.908 177.311 201.908 177.858C201.908 178.406 202.073 178.81 202.401 179.07C202.743 179.316 203.257 179.439 203.941 179.439H206.343V176.298H203.982Z" fill="#20201F"/>
<path d="M164.488 199.649V214.022H161.162V202.319H158.288V199.649H164.488ZM173.699 205.501C174.959 205.707 175.924 206.179 176.595 206.918C177.265 207.643 177.601 208.547 177.601 209.628C177.601 210.463 177.382 211.237 176.944 211.949C176.506 212.647 175.835 213.208 174.931 213.632C174.042 214.057 172.947 214.269 171.646 214.269C170.633 214.269 169.634 214.139 168.648 213.879C167.677 213.605 166.848 213.222 166.164 212.729L167.458 210.183C168.005 210.593 168.635 210.915 169.347 211.148C170.072 211.367 170.811 211.476 171.564 211.476C172.399 211.476 173.056 211.319 173.535 211.004C174.014 210.675 174.254 210.217 174.254 209.628C174.254 208.451 173.357 207.862 171.564 207.862H170.045V205.665L173.001 202.319H166.883V199.649H176.944V201.805L173.699 205.501ZM181.026 214.187C180.464 214.187 179.992 213.995 179.609 213.612C179.225 213.228 179.034 212.749 179.034 212.174C179.034 211.586 179.225 211.114 179.609 210.758C179.992 210.388 180.464 210.203 181.026 210.203C181.587 210.203 182.059 210.388 182.442 210.758C182.826 211.114 183.017 211.586 183.017 212.174C183.017 212.749 182.826 213.228 182.442 213.612C182.059 213.995 181.587 214.187 181.026 214.187ZM189.733 199.649V214.022H186.407V202.319H183.532V199.649H189.733ZM197.774 199.649V214.022H194.448V202.319H191.573V199.649H197.774Z" fill="#20201F"/>
<path d="M334.072 418.351L331.066 414.391L328.042 418.351H326.602L330.346 413.491L326.782 408.883H328.222L331.066 412.591L333.91 408.883H335.314L331.75 413.491L335.53 418.351H334.072ZM341.197 418.441C340.285 418.441 339.463 418.237 338.731 417.829C337.999 417.409 337.423 416.833 337.003 416.101C336.583 415.369 336.373 414.541 336.373 413.617C336.373 412.693 336.583 411.865 337.003 411.133C337.423 410.401 337.999 409.831 338.731 409.423C339.463 409.015 340.285 408.811 341.197 408.811C342.109 408.811 342.931 409.015 343.663 409.423C344.395 409.831 344.965 410.401 345.373 411.133C345.793 411.865 346.003 412.693 346.003 413.617C346.003 414.541 345.793 415.369 345.373 416.101C344.965 416.833 344.395 417.409 343.663 417.829C342.931 418.237 342.109 418.441 341.197 418.441ZM341.197 417.307C341.869 417.307 342.469 417.157 342.997 416.857C343.537 416.545 343.957 416.107 344.257 415.543C344.557 414.979 344.707 414.337 344.707 413.617C344.707 412.897 344.557 412.255 344.257 411.691C343.957 411.127 343.537 410.695 342.997 410.395C342.469 410.083 341.869 409.927 341.197 409.927C340.525 409.927 339.919 410.083 339.379 410.395C338.851 410.695 338.431 411.127 338.119 411.691C337.819 412.255 337.669 412.897 337.669 413.617C337.669 414.337 337.819 414.979 338.119 415.543C338.431 416.107 338.851 416.545 339.379 416.857C339.919 417.157 340.525 417.307 341.197 417.307ZM356.421 408.883V418.351H355.143V410.017H350.607L350.481 412.357C350.385 414.325 350.157 415.837 349.797 416.893C349.437 417.949 348.795 418.477 347.871 418.477C347.619 418.477 347.313 418.429 346.953 418.333L347.043 417.235C347.259 417.283 347.409 417.307 347.493 417.307C347.985 417.307 348.357 417.079 348.609 416.623C348.861 416.167 349.029 415.603 349.113 414.931C349.197 414.259 349.269 413.371 349.329 412.267L349.491 408.883H356.421ZM367.794 408.883V418.351H366.516V410.017H361.98L361.854 412.357C361.758 414.325 361.53 415.837 361.17 416.893C360.81 417.949 360.168 418.477 359.244 418.477C358.992 418.477 358.686 418.429 358.326 418.333L358.416 417.235C358.632 417.283 358.782 417.307 358.866 417.307C359.358 417.307 359.73 417.079 359.982 416.623C360.234 416.167 360.402 415.603 360.486 414.931C360.57 414.259 360.642 413.371 360.702 412.267L360.864 408.883H367.794Z" fill="#20201F"/>
<path d="M336.583 434.929C338.251 434.929 339.529 435.481 340.417 436.585C341.305 437.677 341.749 439.225 341.749 441.229C341.749 442.633 341.509 443.821 341.029 444.793C340.549 445.765 339.877 446.503 339.013 447.007C338.149 447.499 337.141 447.745 335.989 447.745C334.741 447.745 333.745 447.517 333.001 447.061L333.523 446.017C334.123 446.413 334.939 446.611 335.971 446.611C337.363 446.611 338.455 446.173 339.247 445.297C340.039 444.409 340.435 443.125 340.435 441.445C340.435 441.133 340.417 440.791 340.381 440.419C340.069 441.103 339.571 441.637 338.887 442.021C338.203 442.393 337.417 442.579 336.529 442.579C335.701 442.579 334.963 442.423 334.315 442.111C333.679 441.799 333.181 441.361 332.821 440.797C332.461 440.221 332.281 439.555 332.281 438.799C332.281 438.031 332.467 437.353 332.839 436.765C333.211 436.177 333.721 435.727 334.369 435.415C335.029 435.091 335.767 434.929 336.583 434.929ZM336.727 441.481C337.363 441.481 337.921 441.361 338.401 441.121C338.893 440.881 339.277 440.551 339.553 440.131C339.829 439.711 339.967 439.243 339.967 438.727C339.967 438.247 339.835 437.803 339.571 437.395C339.319 436.987 338.941 436.657 338.437 436.405C337.933 436.153 337.333 436.027 336.637 436.027C335.725 436.027 334.981 436.279 334.405 436.783C333.841 437.275 333.559 437.935 333.559 438.763C333.559 439.591 333.841 440.251 334.405 440.743C334.981 441.235 335.755 441.481 336.727 441.481ZM344.406 447.727C344.142 447.727 343.914 447.631 343.722 447.439C343.542 447.247 343.452 447.013 343.452 446.737C343.452 446.461 343.542 446.233 343.722 446.053C343.914 445.861 344.142 445.765 344.406 445.765C344.67 445.765 344.898 445.861 345.09 446.053C345.282 446.233 345.378 446.461 345.378 446.737C345.378 447.013 345.282 447.247 345.09 447.439C344.898 447.631 344.67 447.727 344.406 447.727ZM357.73 444.325H355.21V447.637H353.914V444.325H346.804V443.389L353.482 435.037H354.922L348.478 443.173H353.95V440.257H355.21V443.173H357.73V444.325ZM361.955 435.037V447.637H360.659V436.189H357.689V435.037H361.955Z" fill="#20201F"/>
<path d="M577.558 95.8231V105.291H576.28V96.9571H571.744L571.618 99.2972C571.522 101.265 571.294 102.777 570.934 103.833C570.574 104.889 569.932 105.417 569.008 105.417C568.756 105.417 568.45 105.369 568.09 105.273L568.18 104.175C568.396 104.223 568.546 104.247 568.63 104.247C569.122 104.247 569.494 104.019 569.746 103.563C569.998 103.107 570.166 102.543 570.25 101.871C570.334 101.199 570.406 100.311 570.466 99.2072L570.628 95.8231H577.558ZM585.097 105.381C584.185 105.381 583.363 105.177 582.631 104.769C581.899 104.349 581.323 103.773 580.903 103.041C580.483 102.309 580.273 101.481 580.273 100.557C580.273 99.6332 580.483 98.8052 580.903 98.0731C581.323 97.3411 581.899 96.7711 582.631 96.3631C583.363 95.9551 584.185 95.7511 585.097 95.7511C586.009 95.7511 586.831 95.9551 587.563 96.3631C588.295 96.7711 588.865 97.3411 589.273 98.0731C589.693 98.8052 589.903 99.6332 589.903 100.557C589.903 101.481 589.693 102.309 589.273 103.041C588.865 103.773 588.295 104.349 587.563 104.769C586.831 105.177 586.009 105.381 585.097 105.381ZM585.097 104.247C585.769 104.247 586.369 104.097 586.897 103.797C587.437 103.485 587.857 103.047 588.157 102.483C588.457 101.919 588.607 101.277 588.607 100.557C588.607 99.8372 588.457 99.1952 588.157 98.6311C587.857 98.0671 587.437 97.6351 586.897 97.3351C586.369 97.0231 585.769 96.8671 585.097 96.8671C584.425 96.8671 583.819 97.0231 583.279 97.3351C582.751 97.6351 582.331 98.0671 582.019 98.6311C581.719 99.1952 581.569 99.8372 581.569 100.557C581.569 101.277 581.719 101.919 582.019 102.483C582.331 103.047 582.751 103.485 583.279 103.797C583.819 104.097 584.425 104.247 585.097 104.247ZM601.816 104.175V107.577H600.61V105.291H592.132V107.577H590.926V104.175H591.466C592.102 104.139 592.534 103.671 592.762 102.771C592.99 101.871 593.146 100.611 593.23 98.9912L593.356 95.8231H600.34V104.175H601.816ZM594.4 99.0632C594.34 100.407 594.226 101.517 594.058 102.393C593.89 103.257 593.59 103.851 593.158 104.175H599.062V96.9571H594.508L594.4 99.0632ZM612.605 101.079H610.553V105.291H609.275V101.079H607.223L604.325 105.291H602.795L606.197 100.413L603.065 95.8231H604.451L607.223 99.9812H609.275V95.8231H610.553V99.9812H612.605L615.395 95.8231H616.781L613.649 100.431L617.051 105.291H615.521L612.605 101.079ZM619.178 95.8231H620.456V103.347L626.774 95.8231H627.908V105.291H626.63V97.7671L620.33 105.291H619.178V95.8231ZM638.843 95.8231V105.291H637.673V102.159H634.703H634.343L632.147 105.291H630.761L633.119 101.979C632.387 101.775 631.823 101.427 631.427 100.935C631.031 100.443 630.833 99.8192 630.833 99.0632C630.833 98.0071 631.193 97.2031 631.913 96.6511C632.633 96.0991 633.617 95.8231 634.865 95.8231H638.843ZM632.129 99.0992C632.129 100.503 633.023 101.205 634.811 101.205H637.673V96.9571H634.901C633.053 96.9571 632.129 97.6711 632.129 99.0992Z" fill="#20201F"/>
<path d="M596.646 131.265H594.126V134.577H592.83V131.265H585.72V130.329L592.398 121.977H593.838L587.394 130.113H592.866V127.197H594.126V130.113H596.646V131.265ZM599.16 134.667C598.896 134.667 598.668 134.571 598.476 134.379C598.296 134.187 598.206 133.953 598.206 133.677C598.206 133.401 598.296 133.173 598.476 132.993C598.668 132.801 598.896 132.705 599.16 132.705C599.424 132.705 599.652 132.801 599.844 132.993C600.036 133.173 600.132 133.401 600.132 133.677C600.132 133.953 600.036 134.187 599.844 134.379C599.652 134.571 599.424 134.667 599.16 134.667ZM607.029 127.035C607.857 127.035 608.589 127.191 609.225 127.503C609.873 127.815 610.377 128.259 610.737 128.835C611.097 129.399 611.277 130.059 611.277 130.815C611.277 131.583 611.091 132.261 610.719 132.849C610.347 133.437 609.831 133.893 609.171 134.217C608.523 134.529 607.791 134.685 606.975 134.685C605.307 134.685 604.029 134.139 603.141 133.047C602.253 131.943 601.809 130.389 601.809 128.385C601.809 126.981 602.049 125.793 602.529 124.821C603.009 123.849 603.681 123.117 604.545 122.625C605.409 122.121 606.417 121.869 607.569 121.869C608.817 121.869 609.813 122.097 610.557 122.553L610.035 123.597C609.435 123.201 608.619 123.003 607.587 123.003C606.195 123.003 605.103 123.447 604.311 124.335C603.519 125.211 603.123 126.489 603.123 128.169C603.123 128.469 603.141 128.811 603.177 129.195C603.489 128.511 603.987 127.983 604.671 127.611C605.355 127.227 606.141 127.035 607.029 127.035ZM606.921 133.587C607.833 133.587 608.571 133.341 609.135 132.849C609.711 132.345 609.999 131.679 609.999 130.851C609.999 130.023 609.711 129.363 609.135 128.871C608.571 128.379 607.803 128.133 606.831 128.133C606.195 128.133 605.631 128.253 605.139 128.493C604.659 128.733 604.281 129.063 604.005 129.483C603.729 129.903 603.591 130.371 603.591 130.887C603.591 131.367 603.717 131.811 603.969 132.219C604.233 132.627 604.617 132.957 605.121 133.209C605.625 133.461 606.225 133.587 606.921 133.587ZM623.488 131.265H620.968V134.577H619.672V131.265H612.562V130.329L619.24 121.977H620.68L614.236 130.113H619.708V127.197H620.968V130.113H623.488V131.265Z" fill="#20201F"/>
<path d="M121.204 467.996C122.032 467.996 122.764 468.152 123.4 468.464C124.048 468.776 124.552 469.22 124.912 469.796C125.272 470.36 125.452 471.02 125.452 471.776C125.452 472.544 125.266 473.222 124.894 473.81C124.522 474.398 124.006 474.854 123.346 475.178C122.698 475.49 121.966 475.646 121.15 475.646C119.482 475.646 118.204 475.1 117.316 474.008C116.428 472.904 115.984 471.35 115.984 469.346C115.984 467.942 116.224 466.754 116.704 465.782C117.184 464.81 117.856 464.078 118.72 463.586C119.584 463.082 120.592 462.83 121.744 462.83C122.992 462.83 123.988 463.058 124.732 463.514L124.21 464.558C123.61 464.162 122.794 463.964 121.762 463.964C120.37 463.964 119.278 464.408 118.486 465.296C117.694 466.172 117.298 467.45 117.298 469.13C117.298 469.43 117.316 469.772 117.352 470.156C117.664 469.472 118.162 468.944 118.846 468.572C119.53 468.188 120.316 467.996 121.204 467.996ZM121.096 474.548C122.008 474.548 122.746 474.302 123.31 473.81C123.886 473.306 124.174 472.64 124.174 471.812C124.174 470.984 123.886 470.324 123.31 469.832C122.746 469.34 121.978 469.094 121.006 469.094C120.37 469.094 119.806 469.214 119.314 469.454C118.834 469.694 118.456 470.024 118.18 470.444C117.904 470.864 117.766 471.332 117.766 471.848C117.766 472.328 117.892 472.772 118.144 473.18C118.408 473.588 118.792 473.918 119.296 474.17C119.8 474.422 120.4 474.548 121.096 474.548ZM128.101 475.628C127.837 475.628 127.609 475.532 127.417 475.34C127.237 475.148 127.147 474.914 127.147 474.638C127.147 474.362 127.237 474.134 127.417 473.954C127.609 473.762 127.837 473.666 128.101 473.666C128.365 473.666 128.593 473.762 128.785 473.954C128.977 474.134 129.073 474.362 129.073 474.638C129.073 474.914 128.977 475.148 128.785 475.34C128.593 475.532 128.365 475.628 128.101 475.628ZM135.772 475.646C134.8 475.646 133.93 475.388 133.162 474.872C132.406 474.356 131.812 473.618 131.38 472.658C130.96 471.686 130.75 470.546 130.75 469.238C130.75 467.93 130.96 466.796 131.38 465.836C131.812 464.864 132.406 464.12 133.162 463.604C133.93 463.088 134.8 462.83 135.772 462.83C136.744 462.83 137.608 463.088 138.364 463.604C139.132 464.12 139.732 464.864 140.164 465.836C140.596 466.796 140.812 467.93 140.812 469.238C140.812 470.546 140.596 471.686 140.164 472.658C139.732 473.618 139.132 474.356 138.364 474.872C137.608 475.388 136.744 475.646 135.772 475.646ZM135.772 474.458C136.504 474.458 137.146 474.254 137.698 473.846C138.262 473.438 138.7 472.844 139.012 472.064C139.324 471.284 139.48 470.342 139.48 469.238C139.48 468.134 139.324 467.192 139.012 466.412C138.7 465.632 138.262 465.038 137.698 464.63C137.146 464.222 136.504 464.018 135.772 464.018C135.04 464.018 134.392 464.222 133.828 464.63C133.276 465.038 132.844 465.632 132.532 466.412C132.22 467.192 132.064 468.134 132.064 469.238C132.064 470.342 132.22 471.284 132.532 472.064C132.844 472.844 133.276 473.438 133.828 473.846C134.392 474.254 135.04 474.458 135.772 474.458ZM147.888 467.996C148.716 467.996 149.448 468.152 150.084 468.464C150.732 468.776 151.236 469.22 151.596 469.796C151.956 470.36 152.136 471.02 152.136 471.776C152.136 472.544 151.95 473.222 151.578 473.81C151.206 474.398 150.69 474.854 150.03 475.178C149.382 475.49 148.65 475.646 147.834 475.646C146.166 475.646 144.888 475.1 144 474.008C143.112 472.904 142.668 471.35 142.668 469.346C142.668 467.942 142.908 466.754 143.388 465.782C143.868 464.81 144.54 464.078 145.404 463.586C146.268 463.082 147.276 462.83 148.428 462.83C149.676 462.83 150.672 463.058 151.416 463.514L150.894 464.558C150.294 464.162 149.478 463.964 148.446 463.964C147.054 463.964 145.962 464.408 145.17 465.296C144.378 466.172 143.982 467.45 143.982 469.13C143.982 469.43 144 469.772 144.036 470.156C144.348 469.472 144.846 468.944 145.53 468.572C146.214 468.188 147 467.996 147.888 467.996ZM147.78 474.548C148.692 474.548 149.43 474.302 149.994 473.81C150.57 473.306 150.858 472.64 150.858 471.812C150.858 470.984 150.57 470.324 149.994 469.832C149.43 469.34 148.662 469.094 147.69 469.094C147.054 469.094 146.49 469.214 145.998 469.454C145.518 469.694 145.14 470.024 144.864 470.444C144.588 470.864 144.45 471.332 144.45 471.848C144.45 472.328 144.576 472.772 144.828 473.18C145.092 473.588 145.476 473.918 145.98 474.17C146.484 474.422 147.084 474.548 147.78 474.548Z" fill="#20201F"/>
<path d="M389.514 506.286V507.438H380.676V506.52L385.914 501.39C386.574 500.742 387.018 500.184 387.246 499.716C387.486 499.236 387.606 498.756 387.606 498.276C387.606 497.532 387.348 496.956 386.832 496.548C386.328 496.128 385.602 495.918 384.654 495.918C383.178 495.918 382.032 496.386 381.216 497.322L380.298 496.53C380.79 495.954 381.414 495.51 382.17 495.198C382.938 494.886 383.802 494.73 384.762 494.73C386.046 494.73 387.06 495.036 387.804 495.648C388.56 496.248 388.938 497.076 388.938 498.132C388.938 498.78 388.794 499.404 388.506 500.004C388.218 500.604 387.672 501.294 386.868 502.074L382.584 506.286H389.514ZM392.288 507.528C392.024 507.528 391.796 507.432 391.604 507.24C391.424 507.048 391.334 506.814 391.334 506.538C391.334 506.262 391.424 506.034 391.604 505.854C391.796 505.662 392.024 505.566 392.288 505.566C392.552 505.566 392.78 505.662 392.972 505.854C393.164 506.034 393.26 506.262 393.26 506.538C393.26 506.814 393.164 507.048 392.972 507.24C392.78 507.432 392.552 507.528 392.288 507.528ZM399.054 494.73C400.722 494.73 402 495.282 402.888 496.386C403.776 497.478 404.22 499.026 404.22 501.03C404.22 502.434 403.98 503.622 403.5 504.594C403.02 505.566 402.348 506.304 401.484 506.808C400.62 507.3 399.612 507.546 398.46 507.546C397.212 507.546 396.216 507.318 395.472 506.862L395.994 505.818C396.594 506.214 397.41 506.412 398.442 506.412C399.834 506.412 400.926 505.974 401.718 505.098C402.51 504.21 402.906 502.926 402.906 501.246C402.906 500.934 402.888 500.592 402.852 500.22C402.54 500.904 402.042 501.438 401.358 501.822C400.674 502.194 399.888 502.38 399 502.38C398.172 502.38 397.434 502.224 396.786 501.912C396.15 501.6 395.652 501.162 395.292 500.598C394.932 500.022 394.752 499.356 394.752 498.6C394.752 497.832 394.938 497.154 395.31 496.566C395.682 495.978 396.192 495.528 396.84 495.216C397.5 494.892 398.238 494.73 399.054 494.73ZM399.198 501.282C399.834 501.282 400.392 501.162 400.872 500.922C401.364 500.682 401.748 500.352 402.024 499.932C402.3 499.512 402.438 499.044 402.438 498.528C402.438 498.048 402.306 497.604 402.042 497.196C401.79 496.788 401.412 496.458 400.908 496.206C400.404 495.954 399.804 495.828 399.108 495.828C398.196 495.828 397.452 496.08 396.876 496.584C396.312 497.076 396.03 497.736 396.03 498.564C396.03 499.392 396.312 500.052 396.876 500.544C397.452 501.036 398.226 501.282 399.198 501.282ZM409.556 494.838V507.438H408.26V495.99H405.29V494.838H409.556Z" fill="black"/>
</g>
<defs>
<clipPath id="clip0_2384_28727">
<rect width="698.88" height="505.149" fill="white" transform="translate(51 47)"/>
</clipPath>
</defs>
</svg>
