<svg width="700" height="500" viewBox="0 0 700 500" fill="none" xmlns="http://www.w3.org/2000/svg">
<rect width="700" height="500" fill="white"/>
<g clip-path="url(#clip0_2384_28732)">
<path fill-rule="evenodd" clip-rule="evenodd" d="M34 42H665.687V458.813H41.7896V379.759H34V42Z" fill="#ED9FA6"/>
<path fill-rule="evenodd" clip-rule="evenodd" d="M635.263 458.813V428.275H650.834V56.9754H261.574H122.637H34V42H665.687V458.813H635.263Z" fill="#CFD0D0"/>
<path fill-rule="evenodd" clip-rule="evenodd" d="M34 42H665.687V458.813H41.7896V379.759H34V42Z" fill="#E4CDA1"/>
<path d="M477.166 407.313H441.228V443.242H477.166V407.313Z" fill="#20201F"/>
<path d="M272.348 349.221H257.382V443.242H272.348V349.221Z" fill="#20201F"/>
<path d="M48.9755 349.222H34V364.189H48.9755V349.222Z" fill="#20201F"/>
<path d="M665.687 42H650.711V458.813H665.687V42Z" fill="#20201F"/>
<path d="M48.9755 42H34V349.222H48.9755V42Z" fill="#20201F"/>
<path d="M422.273 42H34V56.9754H422.273V42Z" fill="#20201F"/>
<path d="M665.687 42H482.37V56.9754H665.687V42Z" fill="#20201F"/>
<path d="M456.799 164.771H441.228V250.406H456.799V164.771Z" fill="#20201F"/>
<path d="M665.687 89.9111H650.834V104.887H665.687V89.9111Z" fill="#20201F"/>
<path d="M126.225 349.222H34V371.978H126.225V349.222Z" fill="#20201F"/>
<path d="M257.381 349.222H234.021V371.978H257.381V349.222Z" fill="#20201F"/>
<path d="M302.291 428.275H272.348V451.032H302.291V428.275Z" fill="#20201F"/>
<path d="M499.922 428.275H398.113V451.032H499.922V428.275Z" fill="#20201F"/>
<path d="M650.712 428.275H595.746V451.032H650.712V428.275Z" fill="#20201F"/>
<path d="M650.712 451.032H592.148V458.813H650.712V451.032Z" fill="#20201F"/>
<path d="M503.511 451.032H394.524V458.813H503.511V451.032Z" fill="#20201F"/>
<path d="M305.888 451.032H272.348V458.813H305.888V451.032Z" fill="#20201F"/>
<path d="M272.348 451.627H241.811V458.813H272.348V451.627Z" fill="#20201F"/>
<path d="M248.997 379.759H241.811V458.813H248.997V379.759Z" fill="#20201F"/>
<path d="M257.381 371.978H234.021V379.759H257.381V371.978Z" fill="#20201F"/>
<path d="M126.225 371.978H34V379.759H126.225V371.978Z" fill="#20201F"/>
<path d="M49 380H42V459H49V380Z" fill="#20201F"/>
<path d="M241.811 451.627H45.3826V458.813H241.811V451.627Z" fill="#20201F"/>
<path d="M654.827 454.279H638.513V458.813H654.827V454.279Z" fill="#20201F"/>
<path d="M262.055 375.869H245.701V454.843H262.055V375.869Z" fill="#20201F"/>
<path d="M277.715 440.232H255.445V454.843H277.715V440.232Z" fill="#20201F"/>
<path d="M272.348 56.9753H267.561V107.557H272.348V56.9753Z" fill="#20201F"/>
<path d="M272.348 161.455H267.561V349.222H272.348V161.455Z" fill="#20201F"/>
<path d="M333.066 164.771H272.348V169.559H333.066V164.771Z" fill="#20201F"/>
<path d="M467.123 245.618H456.799V250.406H467.123V245.618Z" fill="#20201F"/>
<path d="M446.024 250.406H441.228V407.313H446.024V250.406Z" fill="#20201F"/>
<path d="M650.712 283.946H583.168V288.733H650.712V283.946Z" fill="#20201F"/>
<path d="M531.66 245.618H515.025V250.406H531.66V245.618Z" fill="#20201F"/>
<path d="M531.66 237.854H526.871V250.406H531.66V237.854Z" fill="#20201F"/>
<path d="M531.66 105.882H526.871V195.93H531.66V105.882Z" fill="#20201F"/>
<path d="M650.834 127.04H583.168V131.836H650.834V127.04Z" fill="#20201F"/>
<path d="M583.168 127.04H531.66V131.836H583.168V127.04Z" fill="#20201F"/>
<path d="M583.168 283.946H531.66V288.733H583.168V283.946Z" fill="#20201F"/>
<path d="M531.66 250.406H526.871V288.733H531.66V250.406Z" fill="#20201F"/>
<path d="M441.832 164.771H386.965V169.559H441.832V164.771Z" fill="#20201F"/>
<path d="M531.66 56.7297H526.871V63.9572H531.66V56.7297Z" fill="#20201F"/>
<path d="M592.148 454.96H503.511V458.813H592.148V454.96Z" fill="#20201F"/>
<path d="M595.745 447.196H499.922V451.047H595.745V447.196Z" fill="#20201F"/>
<path d="M595.745 428.291H499.922V432.142H595.745V428.291Z" fill="#20201F"/>
<path d="M394.516 454.96H305.879V458.813H394.516V454.96Z" fill="#20201F"/>
<path d="M398.114 447.196H302.291V451.047H398.114V447.196Z" fill="#20201F"/>
<path d="M398.114 428.291H302.291V432.142H398.114V428.291Z" fill="#20201F"/>
<path d="M394.516 454.96H305.879V458.813H394.516V454.96Z" fill="#20201F"/>
<path d="M398.114 447.196H302.291V451.047H398.114V447.196Z" fill="#20201F"/>
<path d="M398.114 428.291H302.291V432.142H398.114V428.291Z" fill="#20201F"/>
<path d="M186.108 375.889H126.225V379.741H186.108V375.889Z" fill="#20201F"/>
<path d="M186.11 368.125H126.225V371.976H186.11V368.125Z" fill="#20201F"/>
<path d="M186.11 349.22H126.225V353.071H186.11V349.22Z" fill="#20201F"/>
<path d="M186.11 349.22H183.283V379.763H186.11V349.22Z" fill="#20201F"/>
<path fill-rule="evenodd" clip-rule="evenodd" d="M232.319 371.308C232.319 372.247 231.557 373.009 230.618 373.009C229.679 373.009 228.917 372.247 228.917 371.308V335.312C228.917 334.373 229.679 333.611 230.618 333.611C231.557 333.611 232.319 334.373 232.319 335.312V371.308Z" fill="#20201F"/>
<path fill-rule="evenodd" clip-rule="evenodd" d="M189.706 371.65C189.706 372.119 189.325 372.5 188.856 372.5C188.386 372.5 188.005 372.119 188.005 371.65C188.005 361.38 192.216 352.081 199.02 345.352C205.822 338.624 215.22 334.461 225.594 334.461C226.064 334.461 226.445 334.842 226.445 335.312C226.445 335.781 226.064 336.162 225.594 336.162C215.685 336.162 206.71 340.138 200.215 346.562C193.723 352.982 189.706 361.853 189.706 371.65Z" fill="#20201F"/>
<path fill-rule="evenodd" clip-rule="evenodd" d="M271.71 109.385C272.648 109.385 273.41 110.147 273.41 111.086C273.41 112.025 272.648 112.787 271.71 112.787H235.713C234.774 112.787 234.012 112.025 234.012 111.086C234.012 110.147 234.774 109.385 235.713 109.385H271.71Z" fill="#20201F"/>
<path fill-rule="evenodd" clip-rule="evenodd" d="M272.051 155.98C272.521 155.98 272.902 156.361 272.902 156.83C272.902 157.3 272.521 157.681 272.051 157.681C261.768 157.681 252.459 153.067 245.727 145.611C239.016 138.179 234.863 127.914 234.863 116.589C234.863 116.12 235.244 115.739 235.713 115.739C236.183 115.739 236.564 116.12 236.564 116.589C236.564 127.482 240.549 137.342 246.989 144.475C253.406 151.582 262.269 155.98 272.051 155.98Z" fill="#20201F"/>
<path fill-rule="evenodd" clip-rule="evenodd" d="M381.291 167.087C381.291 166.148 382.053 165.386 382.991 165.386C383.93 165.386 384.692 166.148 384.692 167.087V203.083C384.692 204.022 383.93 204.784 382.991 204.784C382.053 204.784 381.291 204.022 381.291 203.083V167.087Z" fill="#20201F"/>
<path fill-rule="evenodd" clip-rule="evenodd" d="M336.396 166.745C336.396 166.276 336.777 165.895 337.247 165.895C337.716 165.895 338.097 166.276 338.097 166.745C338.097 176.527 342.496 185.39 349.602 191.807C356.735 198.248 366.596 202.233 377.488 202.233C377.958 202.233 378.339 202.614 378.339 203.083C378.339 203.553 377.958 203.934 377.488 203.934C366.163 203.934 355.899 199.78 348.466 193.069C341.011 186.337 336.396 177.029 336.396 166.745Z" fill="#20201F"/>
<path fill-rule="evenodd" clip-rule="evenodd" d="M530.854 68.5485C529.915 68.5485 529.154 67.7866 529.154 66.8478C529.154 65.9089 529.915 65.147 530.854 65.147H566.851C567.789 65.147 568.551 65.9089 568.551 66.8478C568.551 67.7866 567.789 68.5485 566.851 68.5485H530.854Z" fill="#20201F"/>
<path fill-rule="evenodd" clip-rule="evenodd" d="M530.513 103.75C530.043 103.75 529.662 103.369 529.662 102.9C529.662 102.431 530.043 102.05 530.513 102.05C540.336 102.05 549.224 98.58 555.648 92.9717C562.043 87.3897 566 79.6851 566 71.1837C566 70.7143 566.381 70.3333 566.851 70.3333C567.32 70.3333 567.701 70.7143 567.701 71.1837C567.701 80.1945 563.521 88.3498 556.764 94.2472C550.038 100.118 540.756 103.75 530.513 103.75Z" fill="#20201F"/>
<path fill-rule="evenodd" clip-rule="evenodd" d="M528.545 236.224C527.607 236.224 526.845 235.462 526.845 234.523C526.845 233.584 527.607 232.822 528.545 232.822H564.542C565.481 232.822 566.243 233.584 566.243 234.523C566.243 235.462 565.481 236.224 564.542 236.224H528.545Z" fill="#20201F"/>
<path fill-rule="evenodd" clip-rule="evenodd" d="M528.204 199.763C527.734 199.763 527.353 199.382 527.353 198.912C527.353 198.443 527.734 198.062 528.204 198.062C538.445 198.062 547.726 201.65 554.451 207.448C561.21 213.274 565.392 221.334 565.392 230.24C565.392 230.709 565.011 231.09 564.542 231.09C564.072 231.09 563.691 230.709 563.691 230.24C563.691 221.849 559.735 214.241 553.342 208.73C546.917 203.19 538.029 199.763 528.204 199.763Z" fill="#20201F"/>
<path fill-rule="evenodd" clip-rule="evenodd" d="M469.279 248.088C469.279 247.149 470.041 246.387 470.98 246.387C471.919 246.387 472.681 247.149 472.681 248.088V284.084C472.681 285.023 471.919 285.785 470.98 285.785C470.041 285.785 469.279 285.023 469.279 284.084V248.088Z" fill="#20201F"/>
<path fill-rule="evenodd" clip-rule="evenodd" d="M511.319 247.746C511.319 247.276 511.7 246.896 512.169 246.896C512.639 246.896 513.02 247.276 513.02 247.746C513.02 258.011 508.868 267.308 502.157 274.038C495.444 280.769 486.171 284.934 475.934 284.934C475.465 284.934 475.084 284.553 475.084 284.084C475.084 283.615 475.465 283.234 475.934 283.234C485.705 283.234 494.553 279.261 500.954 272.842C507.357 266.421 511.319 257.548 511.319 247.746Z" fill="#20201F"/>
<path fill-rule="evenodd" clip-rule="evenodd" d="M424.44 45.4483C424.44 44.5095 425.202 43.7476 426.141 43.7476C427.08 43.7476 427.842 44.5095 427.842 45.4483V81.4447C427.842 82.3835 427.08 83.1455 426.141 83.1455C425.202 83.1455 424.44 82.3835 424.44 81.4447V45.4483Z" fill="#20201F"/>
<path fill-rule="evenodd" clip-rule="evenodd" d="M477.517 45.1065C477.517 44.6371 477.898 44.2561 478.367 44.2561C478.837 44.2561 479.218 44.6371 479.218 45.1065C479.218 55.4107 473.948 64.7302 465.434 71.4636C456.974 78.1553 445.299 82.2951 432.424 82.2951C431.954 82.2951 431.573 81.9141 431.573 81.4447C431.573 80.9752 431.954 80.5943 432.424 80.5943C444.914 80.5943 456.216 76.5966 464.385 70.1353C472.497 63.7199 477.517 54.869 477.517 45.1065Z" fill="#20201F"/>
<path fill-rule="evenodd" clip-rule="evenodd" d="M648.381 403.948V313.594H612.239V405.011H648.381V403.948ZM644.107 341.872C644.107 342.867 643.701 343.773 643.043 344.427C642.388 345.08 641.485 345.488 640.493 345.488H620.084C619.092 345.488 618.189 345.08 617.53 344.427C616.876 343.773 616.47 342.867 616.47 341.872V321.463C616.47 320.471 616.877 319.568 617.53 318.91C618.184 318.256 619.089 317.85 620.084 317.85H640.493C641.488 317.85 642.393 318.256 643.044 318.913C643.7 319.568 644.107 320.471 644.107 321.463V341.872ZM642.419 393.438C642.419 394.814 641.858 396.064 640.954 396.97C640.05 397.874 638.8 398.434 637.422 398.434C636.047 398.434 634.798 397.874 633.891 396.967C632.987 396.062 632.426 394.813 632.426 393.438C632.426 392.06 632.987 390.81 633.892 389.908C634.796 389.002 636.047 388.442 637.422 388.442C638.8 388.442 640.05 389.002 640.954 389.906C641.858 390.81 642.419 392.06 642.419 393.438ZM629.255 393.438C629.255 395.11 628.576 396.625 627.48 397.721C626.383 398.817 624.867 399.497 623.196 399.497C621.524 399.497 620.009 398.817 618.913 397.721C617.817 396.625 617.137 395.11 617.137 393.438C617.137 391.767 617.817 390.251 618.913 389.154C620.009 388.058 621.524 387.379 623.196 387.379C624.867 387.379 626.383 388.058 627.48 389.154C628.576 390.251 629.255 391.767 629.255 393.438ZM626.429 390.206C627.254 391.031 627.767 392.176 627.767 393.438C627.767 394.701 627.254 395.845 626.429 396.67C625.603 397.496 624.458 398.009 623.196 398.009C621.933 398.009 620.79 397.496 619.964 396.67C619.138 395.845 618.625 394.701 618.625 393.438C618.625 392.176 619.138 391.031 619.964 390.206C620.79 389.38 621.933 388.867 623.196 388.867C624.458 388.867 625.603 389.38 626.429 390.206ZM643.482 380.443C643.482 382.115 642.802 383.63 641.706 384.726C640.61 385.823 639.094 386.502 637.422 386.502C635.75 386.502 634.234 385.823 633.138 384.727C632.042 383.631 631.363 382.115 631.363 380.443C631.363 378.771 632.043 377.256 633.139 376.16C634.235 375.063 635.75 374.384 637.422 374.384C639.093 374.384 640.61 375.063 641.706 376.16C642.802 377.256 643.482 378.772 643.482 380.443ZM640.655 377.211C641.481 378.036 641.993 379.181 641.993 380.443C641.993 381.706 641.481 382.85 640.655 383.675C639.829 384.501 638.685 385.014 637.422 385.014C636.16 385.014 635.015 384.502 634.189 383.676C633.364 382.85 632.852 381.706 632.852 380.443C632.852 379.18 633.364 378.036 634.19 377.211C635.016 376.385 636.16 375.872 637.422 375.872C638.684 375.872 639.829 376.385 640.655 377.211ZM628.192 380.443C628.192 381.819 627.632 383.069 626.728 383.975C625.824 384.879 624.574 385.439 623.196 385.439C621.821 385.439 620.572 384.879 619.664 383.972C618.76 383.067 618.2 381.818 618.2 380.443C618.2 379.065 618.76 377.815 619.666 376.913C620.57 376.007 621.82 375.447 623.196 375.447C624.574 375.447 625.824 376.007 626.728 376.911C627.632 377.815 628.192 379.065 628.192 380.443ZM625.677 377.962C626.31 378.596 626.704 379.474 626.704 380.443C626.704 381.414 626.312 382.292 625.679 382.924C625.043 383.557 624.165 383.951 623.196 383.951C622.225 383.951 621.347 383.559 620.716 382.926C620.08 382.292 619.688 381.414 619.688 380.443C619.688 379.474 620.082 378.596 620.716 377.962C621.347 377.327 622.225 376.935 623.196 376.935C624.165 376.935 625.043 377.329 625.677 377.962ZM639.903 390.957C640.536 391.591 640.93 392.469 640.93 393.438C640.93 394.409 640.538 395.287 639.906 395.919C639.269 396.552 638.391 396.946 637.422 396.946C636.451 396.946 635.574 396.554 634.942 395.921C634.307 395.287 633.914 394.409 633.914 393.438C633.914 392.469 634.308 391.591 634.942 390.957C635.574 390.322 636.451 389.93 637.422 389.93C638.391 389.93 639.269 390.324 639.903 390.957ZM641.981 321.463V341.872C641.981 342.281 641.813 342.654 641.543 342.924C641.276 343.194 640.903 343.362 640.493 343.362H620.084C619.674 343.362 619.3 343.194 619.032 342.925C618.764 342.654 618.596 342.281 618.596 341.872V321.463C618.596 321.053 618.762 320.681 619.029 320.414C619.303 320.144 619.677 319.976 620.084 319.976H640.493C640.9 319.976 641.274 320.144 641.543 320.414C641.815 320.681 641.981 321.053 641.981 321.463ZM614.365 371.03H646.255V402.885H614.365V371.03ZM646.255 368.904H614.365V315.72H646.255V368.904Z" fill="#20201F"/>
<path fill-rule="evenodd" clip-rule="evenodd" d="M616.04 100.653C618.837 102.451 622.426 103.562 625.581 103.562C628.686 103.562 631.11 102.496 632.797 100.752V100.747C633.435 100.086 633.929 99.3022 634.347 98.4713V102.059C634.347 104.2 635.242 105.456 636.678 106.184C637.985 106.849 639.714 107.014 641.61 107.014H642.392V106.994C643.972 106.95 645.414 106.753 646.538 106.184C647.973 105.456 648.864 104.2 648.864 102.069V84.4747C648.864 82.3343 647.973 81.0808 646.538 80.3563C645.414 79.7924 643.972 79.5892 642.392 79.5467V79.5271H641.61C639.714 79.5271 637.985 79.6913 636.678 80.3563C635.242 81.0808 634.347 82.3343 634.347 84.4747V88.0693C633.929 87.2385 633.44 86.457 632.797 85.7945C631.11 84.047 628.686 82.9806 625.581 82.9806C622.246 82.9806 618.43 84.2239 615.567 86.2061C612.926 88.0353 611.072 90.5091 611.072 93.2703C611.072 96.1948 613.151 98.7987 616.04 100.653ZM643.943 92.7635H643.948V92.7661C643.948 93.397 643.685 93.9779 643.267 94.3963V94.4014C642.85 94.8181 642.274 95.0766 641.635 95.0766C640.996 95.0766 640.425 94.8181 640.008 94.4014H640L640.001 94.3963C639.583 93.9753 639.326 93.397 639.326 92.7661C639.326 92.1249 639.583 91.5457 640 91.1307C640.417 90.7141 640.996 90.453 641.635 90.453C642.274 90.453 642.844 90.7141 643.267 91.1307C643.685 91.5457 643.943 92.1249 643.943 92.7635ZM642.76 92.761V92.7661C642.76 93.0773 642.636 93.3588 642.44 93.5586H642.432C642.23 93.7602 641.945 93.8886 641.635 93.8886C641.32 93.8886 641.031 93.7636 640.835 93.5688L640.83 93.5603C640.633 93.3588 640.507 93.0773 640.507 92.7661C640.507 92.4438 640.633 92.164 640.83 91.9633C641.031 91.7668 641.32 91.6427 641.635 91.6427C641.95 91.6427 642.236 91.7668 642.432 91.9726C642.641 92.1691 642.768 92.4531 642.768 92.761H642.76ZM635.91 84.4747C635.91 83.0307 636.477 82.2059 637.376 81.7458C638.308 81.2815 639.6 81.125 641.061 81.0978H641.61C643.293 81.0978 644.801 81.2262 645.84 81.7458C646.739 82.2059 647.3 83.0324 647.3 84.4747V102.069C647.3 103.51 646.739 104.332 645.84 104.792C644.801 105.316 643.293 105.443 641.61 105.443H641.001C639.57 105.411 638.287 105.257 637.376 104.795C636.469 104.332 635.91 103.503 635.91 102.059V84.4747ZM616.452 87.486C619.064 85.6746 622.545 84.5419 625.581 84.5419C628.234 84.5419 630.275 85.428 631.675 86.8745C633.209 88.4571 634.001 90.7362 634.001 93.2703C634.001 95.8088 633.209 98.0853 631.675 99.6721C630.275 101.115 628.234 102 625.581 102C622.713 102 619.438 100.985 616.879 99.3413C614.412 97.7579 612.635 95.6013 612.635 93.2703C612.635 91.0789 614.215 89.0422 616.452 87.486Z" fill="#20201F"/>
<path fill-rule="evenodd" clip-rule="evenodd" d="M648.011 210.753L648.017 191.263C648.017 184.745 634.525 185.512 633.624 185.58C630.501 185.58 627.667 186.854 625.617 188.906C623.57 190.954 622.302 193.793 622.302 196.915V205.186C622.302 208.315 623.568 211.15 625.617 213.204C627.667 215.25 630.506 216.52 633.63 216.533C634.545 216.575 648.017 217.246 648.011 210.753ZM634.869 201.047H634.866C634.859 201.733 634.59 202.366 634.139 202.817C633.681 203.261 633.056 203.535 632.374 203.535C631.685 203.535 631.059 203.259 630.609 202.808C630.157 202.357 629.881 201.733 629.881 201.045C629.881 200.361 630.157 199.736 630.609 199.285V199.277H630.614C631.064 198.826 631.685 198.545 632.374 198.545C633.056 198.545 633.689 198.826 634.139 199.277V199.28C634.59 199.73 634.873 200.361 634.873 201.045L634.869 201.047ZM633.597 201.052C633.597 201.377 633.463 201.684 633.238 201.904C633.023 202.118 632.715 202.256 632.374 202.256C632.033 202.256 631.725 202.124 631.504 201.91C631.293 201.689 631.153 201.388 631.157 201.045C631.157 200.701 631.29 200.405 631.504 200.184L631.51 200.179C631.725 199.961 632.033 199.827 632.374 199.827C632.709 199.827 633.017 199.969 633.238 200.181L633.24 200.186C633.456 200.401 633.586 200.708 633.586 201.04L633.584 201.052H633.597ZM643.262 201.047C643.262 204.19 642.326 207.042 640.823 209.116C639.252 211.271 637.056 212.61 634.623 212.612C632.181 212.612 629.986 211.271 628.411 209.116C626.9 207.034 625.972 204.18 625.972 201.037V201.024C625.979 197.889 626.914 195.043 628.42 192.963C629.991 190.817 632.181 189.48 634.609 189.479L634.623 189.48C637.062 189.48 639.245 190.817 640.823 192.98C642.328 195.049 643.262 197.9 643.259 201.04L643.262 201.047ZM641.504 201.047C641.499 203.801 640.691 206.289 639.393 208.089C638.151 209.787 636.46 210.844 634.623 210.844C632.774 210.844 631.083 209.787 629.836 208.075C628.543 206.285 627.737 203.801 627.737 201.037V201.032L627.732 201.024C627.737 198.268 628.543 195.79 629.844 193.999C631.08 192.305 632.774 191.249 634.609 191.244L634.623 191.249C636.463 191.246 638.156 192.304 639.393 194.005C640.686 195.796 641.499 198.281 641.497 201.037V201.047H641.504ZM646.252 210.747C646.252 215.586 633.727 214.762 633.694 214.762L633.63 214.754C630.99 214.754 628.602 213.689 626.866 211.963C625.135 210.222 624.067 207.83 624.067 205.186V196.924C624.067 194.271 625.13 191.874 626.866 190.141C628.594 188.411 630.99 187.345 633.63 187.34L633.692 187.337C633.723 187.337 646.252 186.45 646.252 191.268V210.747Z" fill="#20201F"/>
<path fill-rule="evenodd" clip-rule="evenodd" d="M645.867 136.712H544.279V178.27H645.867V136.712ZM626.072 161.53C624.956 161.53 623.946 161.078 623.215 160.347C622.485 159.613 622.033 158.604 622.033 157.491C622.033 156.378 622.485 155.369 623.215 154.638C623.95 153.904 624.959 153.452 626.072 153.452C627.185 153.452 628.194 153.904 628.925 154.634C629.659 155.365 630.111 156.375 630.111 157.491C630.111 158.607 629.659 159.617 628.929 160.347C628.198 161.078 627.188 161.53 626.072 161.53ZM624.357 159.206C623.92 158.769 623.648 158.161 623.648 157.491C623.648 156.82 623.92 156.213 624.357 155.776C624.794 155.339 625.401 155.067 626.072 155.067C626.742 155.067 627.35 155.339 627.786 155.776C628.224 156.215 628.496 156.822 628.496 157.491C628.496 158.16 628.224 158.766 627.786 159.205C627.348 159.643 626.741 159.915 626.072 159.915C625.403 159.915 624.796 159.643 624.357 159.206ZM638.2 177.081L566.487 175.465C555.717 175.465 546.897 168.261 546.897 157.491C546.897 146.72 555.717 139.516 566.487 139.516L638.2 137.901C639.589 137.901 640.853 138.47 641.767 139.383C642.68 140.301 643.249 141.564 643.249 142.95V172.032C643.249 173.416 642.681 174.678 641.767 175.594C640.847 176.513 639.585 177.081 638.2 177.081ZM566.487 173.445C556.82 173.445 548.917 167.158 548.917 157.491C548.917 147.824 556.82 141.536 566.487 141.536L638.2 139.92C639.031 139.92 639.789 140.262 640.342 140.812C640.889 141.358 641.229 142.115 641.229 142.95V172.032C641.229 172.866 640.889 173.623 640.338 174.174C639.791 174.721 639.034 175.061 638.2 175.061L566.487 173.445ZM544.065 134.733H646.081C646.588 134.733 647.051 134.934 647.386 135.253C647.724 135.573 647.932 136.019 647.932 136.508V178.474C647.932 178.962 647.724 179.408 647.39 179.728C647.055 180.049 646.59 180.249 646.081 180.249H544.065C543.556 180.249 543.091 180.049 542.756 179.728C542.424 179.404 542.214 178.96 542.214 178.474V136.508C542.214 136.022 542.423 135.578 542.756 135.256C543.096 134.933 543.558 134.733 544.065 134.733Z" fill="#20201F"/>
<path d="M121.846 90.0002H119.72V191.095H121.846V90.0002Z" fill="#20201F"/>
<path d="M145.73 115.447V116.761H135.648V115.714L141.623 109.862C142.376 109.123 142.883 108.487 143.143 107.953C143.416 107.405 143.553 106.858 143.553 106.31C143.553 105.462 143.259 104.805 142.67 104.339C142.095 103.86 141.267 103.62 140.186 103.62C138.502 103.62 137.195 104.154 136.264 105.222L135.217 104.319C135.778 103.662 136.49 103.155 137.352 102.799C138.228 102.443 139.214 102.265 140.309 102.265C141.774 102.265 142.93 102.614 143.779 103.312C144.642 103.997 145.073 104.941 145.073 106.146C145.073 106.885 144.908 107.597 144.58 108.281C144.251 108.966 143.629 109.753 142.711 110.643L137.825 115.447H145.73ZM152.061 102.265C153.964 102.265 155.422 102.895 156.435 104.154C157.448 105.4 157.954 107.166 157.954 109.452C157.954 111.053 157.68 112.409 157.133 113.517C156.585 114.626 155.819 115.468 154.833 116.043C153.848 116.604 152.698 116.885 151.384 116.885C149.96 116.885 148.824 116.625 147.975 116.104L148.571 114.914C149.255 115.365 150.186 115.591 151.363 115.591C152.951 115.591 154.197 115.091 155.1 114.092C156.004 113.079 156.455 111.615 156.455 109.698C156.455 109.342 156.435 108.952 156.394 108.528C156.038 109.308 155.47 109.917 154.689 110.355C153.909 110.78 153.013 110.992 152 110.992C151.055 110.992 150.213 110.814 149.474 110.458C148.749 110.102 148.181 109.602 147.77 108.959C147.359 108.302 147.154 107.542 147.154 106.68C147.154 105.804 147.366 105.03 147.79 104.36C148.215 103.689 148.797 103.176 149.536 102.82C150.289 102.45 151.13 102.265 152.061 102.265ZM152.226 109.739C152.951 109.739 153.588 109.602 154.135 109.329C154.696 109.055 155.134 108.678 155.449 108.199C155.764 107.72 155.921 107.186 155.921 106.598C155.921 106.05 155.771 105.544 155.47 105.078C155.182 104.613 154.751 104.236 154.176 103.949C153.601 103.662 152.917 103.518 152.123 103.518C151.083 103.518 150.234 103.805 149.577 104.38C148.933 104.941 148.612 105.694 148.612 106.639C148.612 107.583 148.933 108.336 149.577 108.897C150.234 109.459 151.117 109.739 152.226 109.739ZM160.986 116.864C160.684 116.864 160.424 116.755 160.205 116.536C160 116.317 159.897 116.05 159.897 115.735C159.897 115.42 160 115.16 160.205 114.955C160.424 114.736 160.684 114.626 160.986 114.626C161.287 114.626 161.547 114.736 161.766 114.955C161.985 115.16 162.094 115.42 162.094 115.735C162.094 116.05 161.985 116.317 161.766 116.536C161.547 116.755 161.287 116.864 160.986 116.864ZM168.006 108.281C170.087 108.281 171.599 108.658 172.544 109.411C173.502 110.15 173.981 111.19 173.981 112.532C173.981 113.367 173.783 114.113 173.386 114.77C173.002 115.427 172.421 115.947 171.64 116.33C170.86 116.7 169.902 116.885 168.766 116.885C167.739 116.885 166.76 116.72 165.829 116.392C164.912 116.05 164.173 115.598 163.612 115.037L164.331 113.866C164.81 114.359 165.439 114.763 166.22 115.078C167 115.379 167.842 115.53 168.745 115.53C169.936 115.53 170.853 115.263 171.497 114.729C172.154 114.195 172.482 113.483 172.482 112.593C172.482 111.608 172.113 110.862 171.373 110.355C170.648 109.849 169.416 109.596 167.677 109.596H164.618L165.357 102.389H173.221V103.703H166.651L166.158 108.281H168.006ZM185.72 102.389V103.436L179.704 116.761H178.103L184.016 103.703H176.624V106.392H175.166V102.389H185.72Z" fill="#20201F"/>
<path d="M139.386 137.568C141.466 137.568 142.979 137.944 143.923 138.697C144.881 139.436 145.361 140.476 145.361 141.818C145.361 142.653 145.162 143.399 144.765 144.056C144.382 144.713 143.8 145.233 143.02 145.616C142.24 145.986 141.281 146.171 140.145 146.171C139.119 146.171 138.14 146.007 137.209 145.678C136.292 145.336 135.553 144.884 134.992 144.323L135.71 143.152C136.189 143.645 136.819 144.049 137.599 144.364C138.379 144.665 139.221 144.816 140.125 144.816C141.316 144.816 142.233 144.549 142.876 144.015C143.533 143.481 143.862 142.769 143.862 141.879C143.862 140.894 143.492 140.148 142.753 139.641C142.027 139.135 140.795 138.882 139.057 138.882H135.998L136.737 131.675H144.601V132.989H138.03L137.538 137.568H139.386ZM152.024 137.834C153.53 137.917 154.673 138.327 155.453 139.066C156.247 139.792 156.644 140.743 156.644 141.921C156.644 142.742 156.445 143.474 156.048 144.118C155.651 144.747 155.063 145.247 154.283 145.616C153.502 145.986 152.551 146.171 151.429 146.171C150.388 146.171 149.403 146.007 148.472 145.678C147.555 145.336 146.815 144.884 146.254 144.323L146.973 143.152C147.452 143.645 148.089 144.049 148.882 144.364C149.676 144.665 150.525 144.816 151.429 144.816C152.606 144.816 153.516 144.562 154.159 144.056C154.803 143.536 155.124 142.824 155.124 141.921C155.124 141.031 154.803 140.333 154.159 139.826C153.516 139.32 152.544 139.066 151.244 139.066H150.217V137.978L154.2 132.989H146.85V131.675H156.089V132.722L152.024 137.834ZM159.836 146.15C159.535 146.15 159.274 146.041 159.055 145.822C158.85 145.603 158.747 145.336 158.747 145.021C158.747 144.706 158.85 144.446 159.055 144.241C159.274 144.022 159.535 143.912 159.836 143.912C160.137 143.912 160.397 144.022 160.616 144.241C160.835 144.446 160.944 144.706 160.944 145.021C160.944 145.336 160.835 145.603 160.616 145.822C160.397 146.041 160.137 146.15 159.836 146.15ZM166.856 137.568C168.937 137.568 170.449 137.944 171.394 138.697C172.352 139.436 172.831 140.476 172.831 141.818C172.831 142.653 172.633 143.399 172.236 144.056C171.852 144.713 171.271 145.233 170.49 145.616C169.71 145.986 168.752 146.171 167.616 146.171C166.589 146.171 165.611 146.007 164.68 145.678C163.763 145.336 163.023 144.884 162.462 144.323L163.181 143.152C163.66 143.645 164.29 144.049 165.07 144.364C165.85 144.665 166.692 144.816 167.595 144.816C168.786 144.816 169.703 144.549 170.347 144.015C171.004 143.481 171.332 142.769 171.332 141.879C171.332 140.894 170.963 140.148 170.224 139.641C169.498 139.135 168.266 138.882 166.528 138.882H163.468L164.207 131.675H172.072V132.989H165.501L165.008 137.568H166.856ZM182.942 138.512C183.845 138.813 184.536 139.265 185.016 139.867C185.508 140.47 185.755 141.195 185.755 142.044C185.755 142.879 185.529 143.611 185.077 144.241C184.625 144.857 183.975 145.336 183.126 145.678C182.291 146.007 181.306 146.171 180.17 146.171C178.445 146.171 177.09 145.801 176.104 145.062C175.119 144.323 174.626 143.317 174.626 142.044C174.626 141.181 174.859 140.456 175.324 139.867C175.803 139.265 176.494 138.813 177.398 138.512C176.659 138.225 176.097 137.814 175.714 137.28C175.331 136.733 175.139 136.089 175.139 135.35C175.139 134.186 175.591 133.263 176.494 132.578C177.412 131.894 178.637 131.551 180.17 131.551C181.183 131.551 182.066 131.709 182.819 132.024C183.585 132.325 184.181 132.763 184.605 133.338C185.029 133.913 185.241 134.583 185.241 135.35C185.241 136.089 185.043 136.733 184.646 137.28C184.249 137.814 183.681 138.225 182.942 138.512ZM176.618 135.391C176.618 136.185 176.932 136.815 177.562 137.28C178.192 137.746 179.061 137.978 180.17 137.978C181.279 137.978 182.148 137.746 182.777 137.28C183.421 136.815 183.742 136.192 183.742 135.412C183.742 134.604 183.414 133.967 182.757 133.502C182.114 133.037 181.251 132.804 180.17 132.804C179.075 132.804 178.205 133.037 177.562 133.502C176.932 133.967 176.618 134.597 176.618 135.391ZM180.17 144.918C181.443 144.918 182.435 144.658 183.147 144.138C183.873 143.618 184.235 142.913 184.235 142.023C184.235 141.133 183.873 140.435 183.147 139.929C182.435 139.409 181.443 139.149 180.17 139.149C178.91 139.149 177.918 139.409 177.193 139.929C176.481 140.435 176.125 141.133 176.125 142.023C176.125 142.927 176.481 143.638 177.193 144.159C177.904 144.665 178.897 144.918 180.17 144.918Z" fill="#20201F"/>
<path d="M142.209 166.853C144.289 166.853 145.802 167.23 146.747 167.983C147.705 168.722 148.184 169.762 148.184 171.103C148.184 171.938 147.985 172.685 147.588 173.342C147.205 173.999 146.623 174.519 145.843 174.902C145.063 175.272 144.105 175.456 142.968 175.456C141.942 175.456 140.963 175.292 140.032 174.964C139.115 174.621 138.376 174.17 137.815 173.608L138.533 172.438C139.013 172.931 139.642 173.335 140.422 173.65C141.203 173.951 142.045 174.101 142.948 174.101C144.139 174.101 145.056 173.834 145.699 173.301C146.356 172.767 146.685 172.055 146.685 171.165C146.685 170.18 146.315 169.433 145.576 168.927C144.851 168.421 143.619 168.167 141.88 168.167H138.821L139.56 160.96H147.424V162.274H140.854L140.361 166.853H142.209ZM153.738 166.853C155.819 166.853 157.332 167.23 158.276 167.983C159.234 168.722 159.713 169.762 159.713 171.103C159.713 171.938 159.515 172.685 159.118 173.342C158.735 173.999 158.153 174.519 157.373 174.902C156.592 175.272 155.634 175.456 154.498 175.456C153.472 175.456 152.493 175.292 151.562 174.964C150.645 174.621 149.906 174.17 149.344 173.608L150.063 172.438C150.542 172.931 151.172 173.335 151.952 173.65C152.732 173.951 153.574 174.101 154.478 174.101C155.669 174.101 156.586 173.834 157.229 173.301C157.886 172.767 158.215 172.055 158.215 171.165C158.215 170.18 157.845 169.433 157.106 168.927C156.38 168.421 155.148 168.167 153.41 168.167H150.351L151.09 160.96H158.954V162.274H152.383L151.89 166.853H153.738ZM162.699 175.436C162.398 175.436 162.138 175.326 161.919 175.107C161.713 174.888 161.611 174.621 161.611 174.307C161.611 173.992 161.713 173.732 161.919 173.526C162.138 173.307 162.398 173.198 162.699 173.198C163 173.198 163.26 173.307 163.479 173.526C163.698 173.732 163.808 173.992 163.808 174.307C163.808 174.621 163.698 174.888 163.479 175.107C163.26 175.326 163 175.436 162.699 175.436ZM169.72 166.853C171.8 166.853 173.313 167.23 174.257 167.983C175.215 168.722 175.695 169.762 175.695 171.103C175.695 171.938 175.496 172.685 175.099 173.342C174.716 173.999 174.134 174.519 173.354 174.902C172.574 175.272 171.615 175.456 170.479 175.456C169.453 175.456 168.474 175.292 167.543 174.964C166.626 174.621 165.887 174.17 165.326 173.608L166.044 172.438C166.523 172.931 167.153 173.335 167.933 173.65C168.713 173.951 169.555 174.101 170.459 174.101C171.65 174.101 172.567 173.834 173.21 173.301C173.867 172.767 174.196 172.055 174.196 171.165C174.196 170.18 173.826 169.433 173.087 168.927C172.361 168.421 171.129 168.167 169.391 168.167H166.332L167.071 160.96H174.935V162.274H168.364L167.872 166.853H169.72ZM181.555 160.96V175.333H180.076V162.274H176.688V160.96H181.555Z" fill="#20201F"/>
<path d="M105.956 153.411V161H75.5425V154.964L91.0652 140.303C92.7133 138.732 93.8249 137.39 94.3998 136.279C94.9747 135.129 95.2621 133.998 95.2621 132.887C95.2621 131.277 94.7064 130.051 93.5949 129.207C92.5217 128.326 90.9311 127.885 88.8231 127.885C87.06 127.885 85.4694 128.23 84.0513 128.92C82.6331 129.571 81.445 130.568 80.4868 131.909L73.7028 127.54C75.2742 125.202 77.4397 123.382 80.1993 122.078C82.9589 120.737 86.121 120.066 89.6854 120.066C92.675 120.066 95.2813 120.564 97.5043 121.561C99.7657 122.519 101.51 123.899 102.736 125.7C104.001 127.463 104.633 129.552 104.633 131.967C104.633 134.152 104.173 136.202 103.253 138.119C102.334 140.035 100.551 142.22 97.9068 144.673L88.6506 153.411H105.956Z" fill="#20201F"/>
<path d="M109.373 262.426H103.706V270.844H100.523V259.798H109.373V262.426ZM115.783 271.009C114.62 271.009 113.573 270.769 112.642 270.29C111.725 269.797 111.006 269.12 110.486 268.257C109.966 267.395 109.706 266.416 109.706 265.321C109.706 264.226 109.966 263.247 110.486 262.385C111.006 261.523 111.725 260.852 112.642 260.373C113.573 259.88 114.62 259.634 115.783 259.634C116.947 259.634 117.987 259.88 118.904 260.373C119.821 260.852 120.54 261.523 121.06 262.385C121.58 263.247 121.84 264.226 121.84 265.321C121.84 266.416 121.58 267.395 121.06 268.257C120.54 269.12 119.821 269.797 118.904 270.29C117.987 270.769 116.947 271.009 115.783 271.009ZM115.783 268.381C116.605 268.381 117.275 268.107 117.796 267.559C118.329 266.998 118.596 266.252 118.596 265.321C118.596 264.39 118.329 263.651 117.796 263.104C117.275 262.542 116.605 262.262 115.783 262.262C114.962 262.262 114.284 262.542 113.751 263.104C113.217 263.651 112.95 264.39 112.95 265.321C112.95 266.252 113.217 266.998 113.751 267.559C114.284 268.107 114.962 268.381 115.783 268.381ZM129.3 271.009C128.123 271.009 127.062 270.769 126.117 270.29C125.187 269.797 124.454 269.12 123.92 268.257C123.4 267.395 123.14 266.416 123.14 265.321C123.14 264.226 123.4 263.247 123.92 262.385C124.454 261.523 125.187 260.852 126.117 260.373C127.062 259.88 128.123 259.634 129.3 259.634C130.464 259.634 131.476 259.88 132.339 260.373C133.215 260.852 133.851 261.543 134.248 262.447L131.764 263.781C131.189 262.768 130.361 262.262 129.279 262.262C128.444 262.262 127.753 262.536 127.206 263.083C126.658 263.631 126.384 264.377 126.384 265.321C126.384 266.266 126.658 267.012 127.206 267.559C127.753 268.107 128.444 268.381 129.279 268.381C130.375 268.381 131.203 267.874 131.764 266.861L134.248 268.216C133.851 269.092 133.215 269.777 132.339 270.27C131.476 270.762 130.464 271.009 129.3 271.009ZM145.436 262.426H141.699V270.844H138.516V262.426H134.779V259.798H145.436V262.426ZM147.143 259.798H150.326V266.368L155.705 259.798H158.641V270.844H155.459V264.274L150.1 270.844H147.143V259.798ZM161.72 259.798H164.903V264.11H169.708V259.798H172.911V270.844H169.708V266.717H164.903V270.844H161.72V259.798ZM180.269 259.634C181.98 259.634 183.294 260.044 184.211 260.866C185.128 261.673 185.586 262.898 185.586 264.541V270.844H182.589V269.469C181.986 270.495 180.864 271.009 179.221 271.009C178.373 271.009 177.633 270.865 177.004 270.578C176.388 270.29 175.916 269.893 175.587 269.387C175.258 268.88 175.094 268.305 175.094 267.662C175.094 266.635 175.478 265.828 176.244 265.239C177.024 264.65 178.222 264.356 179.837 264.356H182.383C182.383 263.658 182.171 263.124 181.747 262.755C181.323 262.371 180.686 262.18 179.837 262.18C179.249 262.18 178.667 262.275 178.092 262.467C177.531 262.645 177.052 262.891 176.655 263.206L175.505 260.968C176.107 260.544 176.826 260.215 177.661 259.983C178.51 259.75 179.379 259.634 180.269 259.634ZM180.022 268.853C180.57 268.853 181.056 268.73 181.48 268.483C181.904 268.223 182.205 267.847 182.383 267.354V266.225H180.186C178.872 266.225 178.215 266.656 178.215 267.518C178.215 267.929 178.373 268.257 178.687 268.504C179.016 268.736 179.461 268.853 180.022 268.853ZM198.184 259.798V270.844H195.33V267.682H192.968L190.874 270.844H187.466L189.991 267.231C189.225 266.93 188.636 266.498 188.225 265.937C187.828 265.362 187.63 264.671 187.63 263.863C187.63 262.563 188.095 261.564 189.026 260.866C189.971 260.154 191.264 259.798 192.907 259.798H198.184ZM192.968 262.406C192.284 262.406 191.764 262.529 191.408 262.775C191.066 263.021 190.895 263.418 190.895 263.966C190.895 264.514 191.059 264.917 191.387 265.177C191.73 265.424 192.243 265.547 192.927 265.547H195.33V262.406H192.968Z" fill="#20201F"/>
<path d="M130.355 285.758V300.131H127.029V288.427H124.154V285.758H130.355ZM144.104 285.758V287.914L138.765 300.131H135.152L140.305 288.468H135.542V290.809H132.585V285.758H144.104ZM146.471 300.295C145.91 300.295 145.438 300.103 145.054 299.72C144.671 299.337 144.479 298.858 144.479 298.283C144.479 297.694 144.671 297.222 145.054 296.866C145.438 296.496 145.91 296.312 146.471 296.312C147.032 296.312 147.505 296.496 147.888 296.866C148.271 297.222 148.463 297.694 148.463 298.283C148.463 298.858 148.271 299.337 147.888 299.72C147.505 300.103 147.032 300.295 146.471 300.295ZM154.884 291.158C156.91 291.158 158.402 291.562 159.36 292.369C160.332 293.177 160.818 294.258 160.818 295.613C160.818 296.489 160.599 297.29 160.161 298.016C159.723 298.728 159.052 299.302 158.149 299.74C157.259 300.165 156.157 300.377 154.843 300.377C153.83 300.377 152.831 300.247 151.845 299.987C150.873 299.713 150.045 299.33 149.36 298.837L150.675 296.291C151.222 296.702 151.852 297.023 152.564 297.256C153.275 297.475 154.008 297.585 154.761 297.585C155.596 297.585 156.253 297.42 156.732 297.092C157.211 296.763 157.45 296.305 157.45 295.716C157.45 295.1 157.197 294.635 156.691 294.32C156.198 294.005 155.336 293.848 154.104 293.848H150.428L151.167 285.758H159.935V288.427H153.939L153.713 291.158H154.884ZM169.087 291.117C170.004 291.117 170.839 291.302 171.592 291.671C172.345 292.041 172.94 292.568 173.378 293.252C173.816 293.923 174.035 294.703 174.035 295.593C174.035 296.551 173.796 297.393 173.317 298.118C172.838 298.844 172.181 299.405 171.346 299.802C170.524 300.185 169.607 300.377 168.594 300.377C166.582 300.377 165.008 299.761 163.872 298.529C162.735 297.297 162.167 295.538 162.167 293.252C162.167 291.623 162.475 290.227 163.091 289.063C163.707 287.9 164.563 287.017 165.658 286.415C166.767 285.812 168.047 285.511 169.498 285.511C170.264 285.511 170.996 285.6 171.695 285.778C172.406 285.942 173.009 286.182 173.501 286.497L172.269 288.94C171.558 288.461 170.661 288.222 169.58 288.222C168.361 288.222 167.396 288.577 166.685 289.289C165.973 290.001 165.589 291.035 165.535 292.39C166.383 291.541 167.567 291.117 169.087 291.117ZM168.409 297.893C169.121 297.893 169.696 297.701 170.134 297.318C170.586 296.934 170.812 296.414 170.812 295.757C170.812 295.1 170.586 294.58 170.134 294.197C169.696 293.8 169.107 293.601 168.368 293.601C167.643 293.601 167.047 293.807 166.582 294.217C166.116 294.614 165.884 295.127 165.884 295.757C165.884 296.387 166.11 296.9 166.561 297.297C167.013 297.694 167.629 297.893 168.409 297.893Z" fill="#20201F"/>
<path d="M323.049 296.209C321.872 296.209 320.811 295.97 319.866 295.491C318.936 294.998 318.203 294.32 317.669 293.458C317.149 292.596 316.889 291.617 316.889 290.522C316.889 289.427 317.149 288.448 317.669 287.586C318.203 286.723 318.936 286.053 319.866 285.573C320.811 285.081 321.872 284.834 323.049 284.834C324.213 284.834 325.226 285.081 326.088 285.573C326.964 286.053 327.6 286.744 327.997 287.647L325.513 288.982C324.938 287.969 324.11 287.462 323.029 287.462C322.194 287.462 321.502 287.736 320.955 288.284C320.407 288.831 320.133 289.577 320.133 290.522C320.133 291.466 320.407 292.212 320.955 292.76C321.502 293.307 322.194 293.581 323.029 293.581C324.124 293.581 324.952 293.075 325.513 292.062L327.997 293.417C327.6 294.293 326.964 294.977 326.088 295.47C325.226 295.963 324.213 296.209 323.049 296.209ZM340.929 284.999V296.045H337.726V287.627H333.126V296.045H329.944V284.999H340.929ZM348.291 284.834C350.002 284.834 351.317 285.245 352.234 286.066C353.151 286.874 353.609 288.099 353.609 289.742V296.045H350.612V294.669C350.009 295.696 348.887 296.209 347.244 296.209C346.396 296.209 345.656 296.066 345.027 295.778C344.411 295.491 343.938 295.094 343.61 294.587C343.281 294.081 343.117 293.506 343.117 292.863C343.117 291.836 343.5 291.028 344.267 290.44C345.047 289.851 346.245 289.557 347.86 289.557H350.406C350.406 288.859 350.194 288.325 349.77 287.955C349.345 287.572 348.709 287.38 347.86 287.38C347.272 287.38 346.69 287.476 346.115 287.668C345.554 287.846 345.075 288.092 344.678 288.407L343.528 286.169C344.13 285.745 344.849 285.416 345.684 285.183C346.532 284.951 347.402 284.834 348.291 284.834ZM348.045 294.053C348.593 294.053 349.078 293.93 349.503 293.684C349.927 293.424 350.228 293.047 350.406 292.555V291.425H348.209C346.895 291.425 346.238 291.856 346.238 292.719C346.238 293.13 346.396 293.458 346.71 293.704C347.039 293.937 347.484 294.053 348.045 294.053ZM366.987 284.999V296.045H363.784V287.627H360.293L360.19 289.577C360.136 291.028 359.999 292.233 359.78 293.191C359.561 294.149 359.205 294.902 358.712 295.45C358.219 295.997 357.535 296.271 356.659 296.271C356.193 296.271 355.639 296.189 354.996 296.025L355.16 293.396C355.379 293.424 355.536 293.438 355.632 293.438C356.111 293.438 356.467 293.266 356.7 292.924C356.946 292.568 357.111 292.123 357.193 291.59C357.275 291.042 357.336 290.323 357.377 289.434L357.542 284.999H366.987ZM376.042 288.53C377.479 288.544 378.581 288.872 379.348 289.516C380.114 290.145 380.498 291.042 380.498 292.206C380.498 293.424 380.067 294.375 379.204 295.06C378.355 295.73 377.158 296.066 375.611 296.066L370.067 296.045V284.999H373.25V288.53H376.042ZM375.323 293.787C375.939 293.8 376.412 293.67 376.74 293.396C377.069 293.123 377.233 292.712 377.233 292.164C377.233 291.631 377.069 291.24 376.74 290.994C376.425 290.748 375.953 290.618 375.323 290.604L373.25 290.583V293.787H375.323ZM382.499 284.999H385.682V289.31H390.486V284.999H393.689V296.045H390.486V291.918H385.682V296.045H382.499V284.999ZM406.57 284.999V296.045H403.716V292.883H401.355L399.261 296.045H395.852L398.378 292.431C397.611 292.13 397.023 291.699 396.612 291.138C396.215 290.563 396.017 289.872 396.017 289.064C396.017 287.764 396.482 286.764 397.413 286.066C398.357 285.354 399.651 284.999 401.293 284.999H406.57ZM401.355 287.606C400.671 287.606 400.15 287.729 399.795 287.976C399.452 288.222 399.281 288.619 399.281 289.167C399.281 289.714 399.446 290.118 399.774 290.378C400.116 290.625 400.63 290.748 401.314 290.748H403.716V287.606H401.355Z" fill="#20201F"/>
<path d="M344.798 310.958V325.331H341.472V313.627H338.598V310.958H344.798ZM358.034 322.62V325.331H347.172V323.175L352.716 317.939C353.305 317.378 353.702 316.899 353.907 316.502C354.112 316.091 354.215 315.687 354.215 315.29C354.215 314.715 354.016 314.277 353.619 313.976C353.236 313.661 352.668 313.504 351.915 313.504C351.286 313.504 350.717 313.627 350.211 313.874C349.704 314.106 349.28 314.462 348.938 314.941L346.515 313.381C347.076 312.546 347.85 311.896 348.835 311.43C349.821 310.951 350.95 310.711 352.223 310.711C353.291 310.711 354.222 310.889 355.016 311.245C355.823 311.588 356.446 312.08 356.884 312.724C357.336 313.353 357.562 314.099 357.562 314.962C357.562 315.742 357.397 316.474 357.069 317.159C356.74 317.843 356.104 318.623 355.159 319.499L351.854 322.62H358.034ZM361.496 325.495C360.935 325.495 360.463 325.303 360.079 324.92C359.696 324.537 359.504 324.058 359.504 323.483C359.504 322.894 359.696 322.422 360.079 322.066C360.463 321.697 360.935 321.512 361.496 321.512C362.057 321.512 362.529 321.697 362.913 322.066C363.296 322.422 363.488 322.894 363.488 323.483C363.488 324.058 363.296 324.537 362.913 324.92C362.529 325.303 362.057 325.495 361.496 325.495ZM370.88 325.577C369.689 325.577 368.628 325.283 367.697 324.694C366.767 324.106 366.034 323.257 365.5 322.148C364.98 321.026 364.72 319.691 364.72 318.144C364.72 316.598 364.98 315.27 365.5 314.161C366.034 313.039 366.767 312.183 367.697 311.594C368.628 311.006 369.689 310.711 370.88 310.711C372.071 310.711 373.132 311.006 374.063 311.594C374.993 312.183 375.719 313.039 376.239 314.161C376.773 315.27 377.04 316.598 377.04 318.144C377.04 319.691 376.773 321.026 376.239 322.148C375.719 323.257 374.993 324.106 374.063 324.694C373.132 325.283 372.071 325.577 370.88 325.577ZM370.88 322.764C371.756 322.764 372.44 322.388 372.933 321.635C373.44 320.882 373.693 319.719 373.693 318.144C373.693 316.57 373.44 315.407 372.933 314.654C372.44 313.901 371.756 313.524 370.88 313.524C370.018 313.524 369.333 313.901 368.827 314.654C368.334 315.407 368.088 316.57 368.088 318.144C368.088 319.719 368.334 320.882 368.827 321.635C369.333 322.388 370.018 322.764 370.88 322.764ZM384.08 310.958V325.331H380.753V313.627H377.879V310.958H384.08Z" fill="#20201F"/>
<path d="M515.254 337.675H513.591V341.863H510.387V330.817H513.591V335.108H515.315L518.313 330.817H521.722L517.861 336.114L521.989 341.863H518.21L515.254 337.675ZM534.007 330.817L529.018 342.541C528.511 343.814 527.881 344.711 527.129 345.231C526.389 345.751 525.493 346.011 524.439 346.011C523.864 346.011 523.296 345.922 522.734 345.744C522.173 345.566 521.715 345.32 521.359 345.005L522.529 342.726C522.776 342.945 523.056 343.116 523.371 343.239C523.7 343.362 524.021 343.424 524.336 343.424C524.774 343.424 525.13 343.314 525.404 343.095C525.678 342.89 525.924 342.541 526.143 342.048L526.184 341.945L521.4 330.817H524.706L527.806 338.311L530.927 330.817H534.007ZM541.871 341.863L539.448 338.475L536.943 341.863H533.452L537.703 336.299L533.596 330.817H537.189L539.53 334.04L541.932 330.817H545.341L541.234 336.217L545.505 341.863H541.871ZM547.082 330.817H550.265V335.128H555.069V330.817H558.273V341.863H555.069V337.736H550.265V341.863H547.082V330.817ZM571.154 330.817V341.863H568.3V338.701H565.938L563.844 341.863H560.435L562.961 338.249C562.194 337.948 561.606 337.517 561.195 336.956C560.798 336.381 560.6 335.69 560.6 334.882C560.6 333.582 561.065 332.582 561.996 331.884C562.94 331.172 564.234 330.817 565.877 330.817H571.154ZM565.938 333.424C565.254 333.424 564.734 333.547 564.378 333.794C564.036 334.04 563.864 334.437 563.864 334.985C563.864 335.532 564.029 335.936 564.357 336.196C564.699 336.443 565.213 336.566 565.897 336.566H568.3V333.424H565.938Z" fill="#20201F"/>
<path d="M529.702 363.593C530.414 363.949 530.955 364.414 531.324 364.989C531.708 365.564 531.899 366.228 531.899 366.981C531.899 367.87 531.646 368.651 531.14 369.321C530.633 369.979 529.921 370.492 529.004 370.861C528.087 371.217 527.026 371.395 525.822 371.395C524.617 371.395 523.556 371.217 522.639 370.861C521.735 370.492 521.03 369.979 520.524 369.321C520.031 368.651 519.785 367.87 519.785 366.981C519.785 366.228 519.97 365.564 520.339 364.989C520.722 364.414 521.263 363.949 521.961 363.593C521.427 363.264 521.017 362.854 520.729 362.361C520.442 361.854 520.298 361.279 520.298 360.636C520.298 359.801 520.531 359.076 520.996 358.46C521.462 357.844 522.112 357.371 522.947 357.043C523.782 356.701 524.74 356.529 525.822 356.529C526.917 356.529 527.882 356.701 528.717 357.043C529.565 357.371 530.222 357.844 530.688 358.46C531.153 359.076 531.386 359.801 531.386 360.636C531.386 361.279 531.242 361.854 530.955 362.361C530.667 362.854 530.25 363.264 529.702 363.593ZM525.822 358.973C525.151 358.973 524.61 359.137 524.199 359.466C523.802 359.78 523.604 360.219 523.604 360.78C523.604 361.327 523.802 361.758 524.199 362.073C524.596 362.388 525.137 362.546 525.822 362.546C526.506 362.546 527.053 362.388 527.464 362.073C527.875 361.758 528.08 361.327 528.08 360.78C528.08 360.219 527.875 359.78 527.464 359.466C527.053 359.137 526.506 358.973 525.822 358.973ZM525.822 368.952C526.657 368.952 527.314 368.767 527.793 368.398C528.285 368.014 528.532 367.508 528.532 366.878C528.532 366.248 528.285 365.749 527.793 365.379C527.314 365.01 526.657 364.825 525.822 364.825C525 364.825 524.35 365.01 523.871 365.379C523.392 365.749 523.152 366.248 523.152 366.878C523.152 367.521 523.392 368.028 523.871 368.398C524.35 368.767 525 368.952 525.822 368.952ZM535.511 371.313C534.95 371.313 534.478 371.122 534.095 370.738C533.711 370.355 533.52 369.876 533.52 369.301C533.52 368.712 533.711 368.24 534.095 367.884C534.478 367.515 534.95 367.33 535.511 367.33C536.073 367.33 536.545 367.515 536.928 367.884C537.312 368.24 537.503 368.712 537.503 369.301C537.503 369.876 537.312 370.355 536.928 370.738C536.545 371.122 536.073 371.313 535.511 371.313ZM543.924 362.176C545.95 362.176 547.442 362.58 548.4 363.387C549.372 364.195 549.858 365.276 549.858 366.632C549.858 367.508 549.639 368.309 549.201 369.034C548.763 369.746 548.092 370.321 547.189 370.759C546.299 371.183 545.197 371.395 543.883 371.395C542.87 371.395 541.871 371.265 540.885 371.005C539.913 370.731 539.085 370.348 538.401 369.855L539.715 367.309C540.263 367.72 540.892 368.042 541.604 368.274C542.316 368.493 543.048 368.603 543.801 368.603C544.636 368.603 545.293 368.439 545.772 368.11C546.251 367.782 546.491 367.323 546.491 366.734C546.491 366.118 546.238 365.653 545.731 365.338C545.238 365.023 544.376 364.866 543.144 364.866H539.469L540.208 356.776H548.975V359.445H542.98L542.754 362.176H543.924ZM561.846 368.439V371.149H550.984V368.993L556.528 363.757C557.117 363.196 557.514 362.717 557.719 362.32C557.925 361.909 558.027 361.505 558.027 361.108C558.027 360.533 557.829 360.095 557.432 359.794C557.048 359.479 556.48 359.322 555.728 359.322C555.098 359.322 554.53 359.445 554.023 359.692C553.517 359.924 553.092 360.28 552.75 360.759L550.327 359.199C550.889 358.364 551.662 357.713 552.648 357.248C553.633 356.769 554.762 356.529 556.036 356.529C557.103 356.529 558.034 356.707 558.828 357.063C559.636 357.406 560.258 357.898 560.697 358.542C561.148 359.171 561.374 359.917 561.374 360.78C561.374 361.56 561.21 362.292 560.881 362.977C560.553 363.661 559.916 364.441 558.972 365.318L555.666 368.439H561.846Z" fill="#20201F"/>
<path d="M404.426 111.077L401.42 107.117L398.396 111.077H396.956L400.7 106.217L397.136 101.609H398.576L401.42 105.317L404.264 101.609H405.668L402.104 106.217L405.884 111.077H404.426ZM411.551 111.167C410.639 111.167 409.817 110.963 409.085 110.555C408.353 110.135 407.777 109.559 407.357 108.827C406.937 108.095 406.727 107.267 406.727 106.343C406.727 105.419 406.937 104.591 407.357 103.859C407.777 103.127 408.353 102.557 409.085 102.149C409.817 101.741 410.639 101.537 411.551 101.537C412.463 101.537 413.285 101.741 414.017 102.149C414.749 102.557 415.319 103.127 415.727 103.859C416.147 104.591 416.357 105.419 416.357 106.343C416.357 107.267 416.147 108.095 415.727 108.827C415.319 109.559 414.749 110.135 414.017 110.555C413.285 110.963 412.463 111.167 411.551 111.167ZM411.551 110.033C412.223 110.033 412.823 109.883 413.351 109.583C413.891 109.271 414.311 108.833 414.611 108.269C414.911 107.705 415.061 107.063 415.061 106.343C415.061 105.623 414.911 104.981 414.611 104.417C414.311 103.853 413.891 103.421 413.351 103.121C412.823 102.809 412.223 102.653 411.551 102.653C410.879 102.653 410.273 102.809 409.733 103.121C409.205 103.421 408.785 103.853 408.473 104.417C408.173 104.981 408.023 105.623 408.023 106.343C408.023 107.063 408.173 107.705 408.473 108.269C408.785 108.833 409.205 109.271 409.733 109.583C410.273 109.883 410.879 110.033 411.551 110.033ZM426.776 101.609V111.077H425.498V102.743H420.962L420.836 105.083C420.74 107.051 420.512 108.563 420.152 109.619C419.792 110.675 419.15 111.203 418.226 111.203C417.974 111.203 417.668 111.155 417.308 111.059L417.398 109.961C417.614 110.009 417.764 110.033 417.848 110.033C418.34 110.033 418.712 109.805 418.964 109.349C419.216 108.893 419.384 108.329 419.468 107.657C419.552 106.985 419.624 106.097 419.684 104.993L419.846 101.609H426.776ZM438.149 101.609V111.077H436.871V102.743H432.335L432.209 105.083C432.113 107.051 431.885 108.563 431.525 109.619C431.165 110.675 430.523 111.203 429.599 111.203C429.347 111.203 429.041 111.155 428.681 111.059L428.771 109.961C428.987 110.009 429.137 110.033 429.221 110.033C429.713 110.033 430.085 109.805 430.337 109.349C430.589 108.893 430.757 108.329 430.841 107.657C430.925 106.985 430.997 106.097 431.057 104.993L431.219 101.609H438.149Z" fill="#20201F"/>
<path d="M404.552 127.655C406.22 127.655 407.498 128.207 408.386 129.311C409.274 130.403 409.718 131.951 409.718 133.955C409.718 135.359 409.478 136.547 408.998 137.519C408.518 138.491 407.846 139.229 406.982 139.733C406.118 140.225 405.11 140.471 403.958 140.471C402.71 140.471 401.714 140.243 400.97 139.787L401.492 138.743C402.092 139.139 402.908 139.337 403.94 139.337C405.332 139.337 406.424 138.899 407.216 138.023C408.008 137.135 408.404 135.851 408.404 134.171C408.404 133.859 408.386 133.517 408.35 133.145C408.038 133.829 407.54 134.363 406.856 134.747C406.172 135.119 405.386 135.305 404.498 135.305C403.67 135.305 402.932 135.149 402.284 134.837C401.648 134.525 401.15 134.087 400.79 133.523C400.43 132.947 400.25 132.281 400.25 131.525C400.25 130.757 400.436 130.079 400.808 129.491C401.18 128.903 401.69 128.453 402.338 128.141C402.998 127.817 403.736 127.655 404.552 127.655ZM404.696 134.207C405.332 134.207 405.89 134.087 406.37 133.847C406.862 133.607 407.246 133.277 407.522 132.857C407.798 132.437 407.936 131.969 407.936 131.453C407.936 130.973 407.804 130.529 407.54 130.121C407.288 129.713 406.91 129.383 406.406 129.131C405.902 128.879 405.302 128.753 404.606 128.753C403.694 128.753 402.95 129.005 402.374 129.509C401.81 130.001 401.528 130.661 401.528 131.489C401.528 132.317 401.81 132.977 402.374 133.469C402.95 133.961 403.724 134.207 404.696 134.207ZM412.376 140.453C412.112 140.453 411.884 140.357 411.692 140.165C411.512 139.973 411.422 139.739 411.422 139.463C411.422 139.187 411.512 138.959 411.692 138.779C411.884 138.587 412.112 138.491 412.376 138.491C412.64 138.491 412.868 138.587 413.06 138.779C413.252 138.959 413.348 139.187 413.348 139.463C413.348 139.739 413.252 139.973 413.06 140.165C412.868 140.357 412.64 140.453 412.376 140.453ZM420.047 140.471C419.075 140.471 418.205 140.213 417.437 139.697C416.681 139.181 416.087 138.443 415.655 137.483C415.235 136.511 415.025 135.371 415.025 134.063C415.025 132.755 415.235 131.621 415.655 130.661C416.087 129.689 416.681 128.945 417.437 128.429C418.205 127.913 419.075 127.655 420.047 127.655C421.019 127.655 421.883 127.913 422.639 128.429C423.407 128.945 424.007 129.689 424.439 130.661C424.871 131.621 425.087 132.755 425.087 134.063C425.087 135.371 424.871 136.511 424.439 137.483C424.007 138.443 423.407 139.181 422.639 139.697C421.883 140.213 421.019 140.471 420.047 140.471ZM420.047 139.283C420.779 139.283 421.421 139.079 421.973 138.671C422.537 138.263 422.975 137.669 423.287 136.889C423.599 136.109 423.755 135.167 423.755 134.063C423.755 132.959 423.599 132.017 423.287 131.237C422.975 130.457 422.537 129.863 421.973 129.455C421.421 129.047 420.779 128.843 420.047 128.843C419.315 128.843 418.667 129.047 418.103 129.455C417.551 129.863 417.119 130.457 416.807 131.237C416.495 132.017 416.339 132.959 416.339 134.063C416.339 135.167 416.495 136.109 416.807 136.889C417.119 137.669 417.551 138.263 418.103 138.671C418.667 139.079 419.315 139.283 420.047 139.283ZM432.163 132.821C432.991 132.821 433.723 132.977 434.359 133.289C435.007 133.601 435.511 134.045 435.871 134.621C436.231 135.185 436.411 135.845 436.411 136.601C436.411 137.369 436.225 138.047 435.853 138.635C435.481 139.223 434.965 139.679 434.305 140.003C433.657 140.315 432.925 140.471 432.109 140.471C430.441 140.471 429.163 139.925 428.275 138.833C427.387 137.729 426.943 136.175 426.943 134.171C426.943 132.767 427.183 131.579 427.663 130.607C428.143 129.635 428.815 128.903 429.679 128.411C430.543 127.907 431.551 127.655 432.703 127.655C433.951 127.655 434.947 127.883 435.691 128.339L435.169 129.383C434.569 128.987 433.753 128.789 432.721 128.789C431.329 128.789 430.237 129.233 429.445 130.121C428.653 130.997 428.257 132.275 428.257 133.955C428.257 134.255 428.275 134.597 428.311 134.981C428.623 134.297 429.121 133.769 429.805 133.397C430.489 133.013 431.275 132.821 432.163 132.821ZM432.055 139.373C432.967 139.373 433.705 139.127 434.269 138.635C434.845 138.131 435.133 137.465 435.133 136.637C435.133 135.809 434.845 135.149 434.269 134.657C433.705 134.165 432.937 133.919 431.965 133.919C431.329 133.919 430.765 134.039 430.273 134.279C429.793 134.519 429.415 134.849 429.139 135.269C428.863 135.689 428.725 136.157 428.725 136.673C428.725 137.153 428.851 137.597 429.103 138.005C429.367 138.413 429.751 138.743 430.255 138.995C430.759 139.247 431.359 139.373 432.055 139.373Z" fill="#20201F"/>
<path d="M112.558 398.749V408.217H111.28V399.883H106.744L106.618 402.223C106.522 404.191 106.294 405.703 105.934 406.759C105.574 407.815 104.932 408.343 104.008 408.343C103.756 408.343 103.45 408.295 103.09 408.199L103.18 407.101C103.396 407.149 103.546 407.173 103.63 407.173C104.122 407.173 104.494 406.945 104.746 406.489C104.998 406.033 105.166 405.469 105.25 404.797C105.334 404.125 105.406 403.237 105.466 402.133L105.628 398.749H112.558ZM120.097 408.307C119.185 408.307 118.363 408.103 117.631 407.695C116.899 407.275 116.323 406.699 115.903 405.967C115.483 405.235 115.273 404.407 115.273 403.483C115.273 402.559 115.483 401.731 115.903 400.999C116.323 400.267 116.899 399.697 117.631 399.289C118.363 398.881 119.185 398.677 120.097 398.677C121.009 398.677 121.831 398.881 122.563 399.289C123.295 399.697 123.865 400.267 124.273 400.999C124.693 401.731 124.903 402.559 124.903 403.483C124.903 404.407 124.693 405.235 124.273 405.967C123.865 406.699 123.295 407.275 122.563 407.695C121.831 408.103 121.009 408.307 120.097 408.307ZM120.097 407.173C120.769 407.173 121.369 407.023 121.897 406.723C122.437 406.411 122.857 405.973 123.157 405.409C123.457 404.845 123.607 404.203 123.607 403.483C123.607 402.763 123.457 402.121 123.157 401.557C122.857 400.993 122.437 400.561 121.897 400.261C121.369 399.949 120.769 399.793 120.097 399.793C119.425 399.793 118.819 399.949 118.279 400.261C117.751 400.561 117.331 400.993 117.019 401.557C116.719 402.121 116.569 402.763 116.569 403.483C116.569 404.203 116.719 404.845 117.019 405.409C117.331 405.973 117.751 406.411 118.279 406.723C118.819 407.023 119.425 407.173 120.097 407.173ZM136.816 407.101V410.503H135.61V408.217H127.132V410.503H125.926V407.101H126.466C127.102 407.065 127.534 406.597 127.762 405.697C127.99 404.797 128.146 403.537 128.23 401.917L128.356 398.749H135.34V407.101H136.816ZM129.4 401.989C129.34 403.333 129.226 404.443 129.058 405.319C128.89 406.183 128.59 406.777 128.158 407.101H134.062V399.883H129.508L129.4 401.989ZM147.605 404.005H145.553V408.217H144.275V404.005H142.223L139.325 408.217H137.795L141.197 403.339L138.065 398.749H139.451L142.223 402.907H144.275V398.749H145.553V402.907H147.605L150.395 398.749H151.781L148.649 403.357L152.051 408.217H150.521L147.605 404.005ZM154.178 398.749H155.456V406.273L161.774 398.749H162.908V408.217H161.63V400.693L155.33 408.217H154.178V398.749ZM173.843 398.749V408.217H172.673V405.085H169.703H169.343L167.147 408.217H165.761L168.119 404.905C167.387 404.701 166.823 404.353 166.427 403.861C166.031 403.369 165.833 402.745 165.833 401.989C165.833 400.933 166.193 400.129 166.913 399.577C167.633 399.025 168.617 398.749 169.865 398.749H173.843ZM167.129 402.025C167.129 403.429 168.023 404.131 169.811 404.131H172.673V399.883H169.901C168.053 399.883 167.129 400.597 167.129 402.025Z" fill="#20201F"/>
<path d="M126.22 430.303C127.54 430.375 128.542 430.735 129.226 431.383C129.922 432.019 130.27 432.853 130.27 433.885C130.27 434.605 130.096 435.247 129.748 435.811C129.4 436.363 128.884 436.801 128.2 437.125C127.516 437.449 126.682 437.611 125.698 437.611C124.786 437.611 123.922 437.467 123.106 437.179C122.302 436.879 121.654 436.483 121.162 435.991L121.792 434.965C122.212 435.397 122.77 435.751 123.466 436.027C124.162 436.291 124.906 436.423 125.698 436.423C126.73 436.423 127.528 436.201 128.092 435.757C128.656 435.301 128.938 434.677 128.938 433.885C128.938 433.105 128.656 432.493 128.092 432.049C127.528 431.605 126.676 431.383 125.536 431.383H124.636V430.429L128.128 426.055H121.684V424.903H129.784V425.821L126.22 430.303ZM133.068 437.593C132.804 437.593 132.576 437.497 132.384 437.305C132.204 437.113 132.114 436.879 132.114 436.603C132.114 436.327 132.204 436.099 132.384 435.919C132.576 435.727 132.804 435.631 133.068 435.631C133.332 435.631 133.56 435.727 133.752 435.919C133.944 436.099 134.04 436.327 134.04 436.603C134.04 436.879 133.944 437.113 133.752 437.305C133.56 437.497 133.332 437.593 133.068 437.593ZM143.305 430.897C144.097 431.161 144.703 431.557 145.123 432.085C145.555 432.613 145.771 433.249 145.771 433.993C145.771 434.725 145.573 435.367 145.177 435.919C144.781 436.459 144.211 436.879 143.467 437.179C142.735 437.467 141.871 437.611 140.875 437.611C139.363 437.611 138.175 437.287 137.311 436.639C136.447 435.991 136.015 435.109 136.015 433.993C136.015 433.237 136.219 432.601 136.627 432.085C137.047 431.557 137.653 431.161 138.445 430.897C137.797 430.645 137.305 430.285 136.969 429.817C136.633 429.337 136.465 428.773 136.465 428.125C136.465 427.105 136.861 426.295 137.653 425.695C138.457 425.095 139.531 424.795 140.875 424.795C141.763 424.795 142.537 424.933 143.197 425.209C143.869 425.473 144.391 425.857 144.763 426.361C145.135 426.865 145.321 427.453 145.321 428.125C145.321 428.773 145.147 429.337 144.799 429.817C144.451 430.285 143.953 430.645 143.305 430.897ZM137.761 428.161C137.761 428.857 138.037 429.409 138.589 429.817C139.141 430.225 139.903 430.429 140.875 430.429C141.847 430.429 142.609 430.225 143.161 429.817C143.725 429.409 144.007 428.863 144.007 428.179C144.007 427.471 143.719 426.913 143.143 426.505C142.579 426.097 141.823 425.893 140.875 425.893C139.915 425.893 139.153 426.097 138.589 426.505C138.037 426.913 137.761 427.465 137.761 428.161ZM140.875 436.513C141.991 436.513 142.861 436.285 143.485 435.829C144.121 435.373 144.439 434.755 144.439 433.975C144.439 433.195 144.121 432.583 143.485 432.139C142.861 431.683 141.991 431.455 140.875 431.455C139.771 431.455 138.901 431.683 138.265 432.139C137.641 432.583 137.329 433.195 137.329 433.975C137.329 434.767 137.641 435.391 138.265 435.847C138.889 436.291 139.759 436.513 140.875 436.513ZM152.785 429.961C153.613 429.961 154.345 430.117 154.981 430.429C155.629 430.741 156.133 431.185 156.493 431.761C156.854 432.325 157.034 432.985 157.034 433.741C157.034 434.509 156.848 435.187 156.475 435.775C156.103 436.363 155.587 436.819 154.927 437.143C154.279 437.455 153.547 437.611 152.731 437.611C151.063 437.611 149.785 437.065 148.897 435.973C148.009 434.869 147.565 433.315 147.565 431.311C147.565 429.907 147.805 428.719 148.285 427.747C148.765 426.775 149.437 426.043 150.301 425.551C151.165 425.047 152.173 424.795 153.325 424.795C154.573 424.795 155.569 425.023 156.313 425.479L155.791 426.523C155.191 426.127 154.375 425.929 153.343 425.929C151.951 425.929 150.859 426.373 150.067 427.261C149.275 428.137 148.879 429.415 148.879 431.095C148.879 431.395 148.897 431.737 148.933 432.121C149.245 431.437 149.743 430.909 150.427 430.537C151.111 430.153 151.897 429.961 152.785 429.961ZM152.677 436.513C153.589 436.513 154.327 436.267 154.891 435.775C155.467 435.271 155.755 434.605 155.755 433.777C155.755 432.949 155.467 432.289 154.891 431.797C154.327 431.305 153.559 431.059 152.587 431.059C151.951 431.059 151.387 431.179 150.895 431.419C150.415 431.659 150.037 431.989 149.761 432.409C149.485 432.829 149.347 433.297 149.347 433.813C149.347 434.293 149.473 434.737 149.725 435.145C149.989 435.553 150.373 435.883 150.877 436.135C151.381 436.387 151.981 436.513 152.677 436.513Z" fill="#20201F"/>
<path d="M593.868 273.644H591.348V276.956H590.052V273.644H582.942V272.708L589.62 264.356H591.06L584.616 272.492H590.088V269.576H591.348V272.492H593.868V273.644ZM596.382 277.046C596.118 277.046 595.89 276.95 595.698 276.758C595.518 276.566 595.428 276.332 595.428 276.056C595.428 275.78 595.518 275.552 595.698 275.372C595.89 275.18 596.118 275.084 596.382 275.084C596.646 275.084 596.874 275.18 597.066 275.372C597.258 275.552 597.354 275.78 597.354 276.056C597.354 276.332 597.258 276.566 597.066 276.758C596.874 276.95 596.646 277.046 596.382 277.046ZM609.706 273.644H607.186V276.956H605.89V273.644H598.78V272.708L605.458 264.356H606.898L600.454 272.492H605.926V269.576H607.186V272.492H609.706V273.644ZM614.916 269.756C616.236 269.828 617.238 270.188 617.922 270.836C618.618 271.472 618.966 272.306 618.966 273.338C618.966 274.058 618.792 274.7 618.444 275.264C618.096 275.816 617.58 276.254 616.896 276.578C616.212 276.902 615.378 277.064 614.394 277.064C613.482 277.064 612.618 276.92 611.802 276.632C610.998 276.332 610.35 275.936 609.858 275.444L610.488 274.418C610.908 274.85 611.466 275.204 612.162 275.48C612.858 275.744 613.602 275.876 614.394 275.876C615.426 275.876 616.224 275.654 616.788 275.21C617.352 274.754 617.634 274.13 617.634 273.338C617.634 272.558 617.352 271.946 616.788 271.502C616.224 271.058 615.372 270.836 614.232 270.836H613.332V269.882L616.824 265.508H610.38V264.356H618.48V265.274L614.916 269.756Z" fill="#20201F"/>
<path d="M575.179 114.251V115.403H566.341V114.485L571.579 109.355C572.239 108.707 572.683 108.149 572.911 107.681C573.151 107.201 573.271 106.721 573.271 106.241C573.271 105.497 573.013 104.921 572.497 104.513C571.993 104.093 571.267 103.883 570.319 103.883C568.843 103.883 567.697 104.351 566.881 105.287L565.963 104.495C566.455 103.919 567.079 103.475 567.835 103.163C568.603 102.851 569.467 102.695 570.427 102.695C571.711 102.695 572.725 103.001 573.469 103.613C574.225 104.213 574.603 105.041 574.603 106.097C574.603 106.745 574.459 107.369 574.171 107.969C573.883 108.569 573.337 109.259 572.533 110.039L568.249 114.251H575.179ZM577.953 115.493C577.689 115.493 577.461 115.397 577.269 115.205C577.089 115.013 576.999 114.779 576.999 114.503C576.999 114.227 577.089 113.999 577.269 113.819C577.461 113.627 577.689 113.531 577.953 113.531C578.217 113.531 578.445 113.627 578.637 113.819C578.829 113.999 578.925 114.227 578.925 114.503C578.925 114.779 578.829 115.013 578.637 115.205C578.445 115.397 578.217 115.493 577.953 115.493ZM585.624 115.511C584.652 115.511 583.782 115.253 583.014 114.737C582.258 114.221 581.664 113.483 581.232 112.523C580.812 111.551 580.602 110.411 580.602 109.103C580.602 107.795 580.812 106.661 581.232 105.701C581.664 104.729 582.258 103.985 583.014 103.469C583.782 102.953 584.652 102.695 585.624 102.695C586.596 102.695 587.46 102.953 588.216 103.469C588.984 103.985 589.584 104.729 590.016 105.701C590.448 106.661 590.664 107.795 590.664 109.103C590.664 110.411 590.448 111.551 590.016 112.523C589.584 113.483 588.984 114.221 588.216 114.737C587.46 115.253 586.596 115.511 585.624 115.511ZM585.624 114.323C586.356 114.323 586.998 114.119 587.55 113.711C588.114 113.303 588.552 112.709 588.864 111.929C589.176 111.149 589.332 110.207 589.332 109.103C589.332 107.999 589.176 107.057 588.864 106.277C588.552 105.497 588.114 104.903 587.55 104.495C586.998 104.087 586.356 103.883 585.624 103.883C584.892 103.883 584.244 104.087 583.68 104.495C583.128 104.903 582.696 105.497 582.384 106.277C582.072 107.057 581.916 107.999 581.916 109.103C581.916 110.207 582.072 111.149 582.384 111.929C582.696 112.709 583.128 113.303 583.68 113.711C584.244 114.119 584.892 114.323 585.624 114.323ZM597.542 115.511C596.57 115.511 595.7 115.253 594.932 114.737C594.176 114.221 593.582 113.483 593.15 112.523C592.73 111.551 592.52 110.411 592.52 109.103C592.52 107.795 592.73 106.661 593.15 105.701C593.582 104.729 594.176 103.985 594.932 103.469C595.7 102.953 596.57 102.695 597.542 102.695C598.514 102.695 599.378 102.953 600.134 103.469C600.902 103.985 601.502 104.729 601.934 105.701C602.366 106.661 602.582 107.795 602.582 109.103C602.582 110.411 602.366 111.551 601.934 112.523C601.502 113.483 600.902 114.221 600.134 114.737C599.378 115.253 598.514 115.511 597.542 115.511ZM597.542 114.323C598.274 114.323 598.916 114.119 599.468 113.711C600.032 113.303 600.47 112.709 600.782 111.929C601.094 111.149 601.25 110.207 601.25 109.103C601.25 107.999 601.094 107.057 600.782 106.277C600.47 105.497 600.032 104.903 599.468 104.495C598.916 104.087 598.274 103.883 597.542 103.883C596.81 103.883 596.162 104.087 595.598 104.495C595.046 104.903 594.614 105.497 594.302 106.277C593.99 107.057 593.834 107.999 593.834 109.103C593.834 110.207 593.99 111.149 594.302 111.929C594.614 112.709 595.046 113.303 595.598 113.711C596.162 114.119 596.81 114.323 597.542 114.323Z" fill="#20201F"/>
</g>
<defs>
<clipPath id="clip0_2384_28732">
<rect width="631.687" height="416.813" fill="white" transform="translate(34 42)"/>
</clipPath>
</defs>
</svg>
