<svg width="900" height="600" viewBox="0 0 900 600" fill="none" xmlns="http://www.w3.org/2000/svg">
<rect width="900" height="600" fill="white"/>
<g clip-path="url(#clip0_2384_28726)">
<path d="M67.1324 99.4012H50V552.125H67.1324V99.4012Z" fill="#C6C0E1"/>
<path fill-rule="evenodd" clip-rule="evenodd" d="M50 99.4013H334.488V47H850V444.355H846.573V517.741L592.935 540.369V552.152H50V99.4013Z" fill="#ED9FA6"/>
<path d="M850 47H334.488V61.9755H850V47Z" fill="#ED9FA6"/>
<path d="M67.1324 99.4012H50V552.125H67.1324V99.4012Z" fill="#FFF9D0"/>
<path d="M850 47H334.488V61.9755H850V47Z" fill="#FFF9D0"/>
<path fill-rule="evenodd" clip-rule="evenodd" d="M50 99.4013H334.488V47H850V444.355H846.573V517.741L592.935 540.369V552.152H50V99.4013Z" fill="#E4CDA1"/>
<path d="M832.176 362.904H808.181V428.784H832.176V362.904Z" fill="#20201F"/>
<path d="M575.111 500.048H551.116V536.581H575.111V500.048Z" fill="#20201F"/>
<path d="M344.777 500.643H303.64V536.581H344.777V500.643Z" fill="#20201F"/>
<path d="M67.1324 521.606H50V536.581H67.1324V521.606Z" fill="#20201F"/>
<path d="M832.176 47H808.181V362.904H832.176V47Z" fill="#20201F"/>
<path d="M575.111 371.884H551.116V500.048H575.111V371.884Z" fill="#20201F"/>
<path d="M233.717 99.4012H216.584V198.217H233.717V99.4012Z" fill="#20201F"/>
<path d="M575.111 47H551.116V127.226H575.111V47Z" fill="#20201F"/>
<path d="M67.1324 99.4012H50V521.606H67.1324V99.4012Z" fill="#20201F"/>
<path d="M67.1324 99.4012H50V114.377H67.1324V99.4012Z" fill="#20201F"/>
<path d="M126.094 521.606H50V544.362H126.094V521.606Z" fill="#20201F"/>
<path d="M372.88 521.606H270.055V544.362H372.88V521.606Z" fill="#20201F"/>
<path d="M551.116 521.606H516.842V544.362H551.116V521.606Z" fill="#20201F"/>
<path d="M601.842 413.809H575.111V436.565H601.842V413.809Z" fill="#20201F"/>
<path d="M808.181 413.809H752.656V437.161H808.181V413.809Z" fill="#20201F"/>
<path d="M808.181 47H575.111V61.9755H808.181V47Z" fill="#20201F"/>
<path d="M551.116 47H351.63V61.9755H551.116V47Z" fill="#20201F"/>
<path d="M351.63 47H334.488V127.226H351.63V47Z" fill="#20201F"/>
<path d="M850 47H841.774V444.355H850V47Z" fill="#20201F"/>
<path d="M841.775 437.161H752.656V444.355H841.775V437.161Z" fill="#20201F"/>
<path d="M601.842 436.565H575.111V444.355H601.842V436.565Z" fill="#20201F"/>
<path d="M592.935 444.355H584.7V552.152H592.935V444.355Z" fill="#20201F"/>
<path d="M584.7 544.362H512.724V552.152H584.7V544.362Z" fill="#20201F"/>
<path d="M376.988 544.362H265.938V552.152H376.988V544.362Z" fill="#20201F"/>
<path d="M130.201 544.362H50V552.152H130.201V544.362Z" fill="#20201F"/>
<path d="M844.168 47H828.071V54.3679H844.168V47Z" fill="#20201F"/>
<path d="M846.099 52.9613H827.427V437.161H846.099V52.9613Z" fill="#20201F"/>
<path d="M834.832 425.961H803.85V439.962H834.832V425.961Z" fill="#20201F"/>
<path d="M584.7 439.68H568.261V548.257H584.7V439.68Z" fill="#20201F"/>
<path d="M576.481 530.688H544.01V548.257H576.481V530.688Z" fill="#20201F"/>
<path fill-rule="evenodd" clip-rule="evenodd" d="M592.935 533.144V540.369L846.573 517.741V444.355H838.348V510.971L592.935 533.144Z" fill="#20201F"/>
<path d="M216.584 99.4012H67.1323V106.587H216.584V99.4012Z" fill="#20201F"/>
<path d="M130.201 106.587H121.976V137.133H130.201V106.587Z" fill="#20201F"/>
<path d="M216.584 137.133H67.1323V144.319H216.584V137.133Z" fill="#20201F"/>
<path d="M233.717 198.217H228.236V213.949H233.717V198.217Z" fill="#20201F"/>
<path d="M233.717 255.874H228.236V323.982H233.717V255.874Z" fill="#20201F"/>
<path d="M236.637 319.186H228.236V323.982H236.637V319.186Z" fill="#20201F"/>
<path d="M228.236 319.186H169.275V323.982H228.236V319.186Z" fill="#20201F"/>
<path d="M169.275 319.186H67.1323V323.982H169.275V319.186Z" fill="#20201F"/>
<path d="M309.13 209.212H303.639V250.758H309.13V209.212Z" fill="#20201F"/>
<path d="M324.208 209.213H303.639V214H324.208V209.213Z" fill="#20201F"/>
<path d="M309.13 255.389H303.639V261.665H309.13V255.389Z" fill="#20201F"/>
<path d="M454.133 250.737H303.708V255.524H454.133V250.737Z" fill="#20201F"/>
<path d="M569.855 250.491H556.957V255.27H569.855V250.491Z" fill="#20201F"/>
<path d="M579.784 209.213H427.032V214H579.784V209.213Z" fill="#20201F"/>
<path d="M445.013 214H439.509V250.737H445.013V214Z" fill="#20201F"/>
<path d="M575.111 197.673H569.621V255.261H575.111V197.673Z" fill="#20201F"/>
<path d="M575.111 255.261H569.621V371.884H575.111V255.261Z" fill="#20201F"/>
<path d="M303.64 319.186H291.481V323.982H303.64V319.186Z" fill="#20201F"/>
<path d="M309.13 315.563H303.639V329.067H309.13V315.563Z" fill="#20201F"/>
<path d="M309.13 329.067H303.639V500.643H309.13V329.067Z" fill="#20201F"/>
<path d="M249.71 99.4012H233.717V114.377H249.71V99.4012Z" fill="#20201F"/>
<path d="M334.488 99.4012H318.26V114.377H334.488V99.4012Z" fill="#20201F"/>
<path d="M354.754 127.226H334.488V132.014H354.754V127.226Z" fill="#20201F"/>
<path d="M413.706 127.226H354.754V132.014H413.706V127.226Z" fill="#20201F"/>
<path d="M428.19 127.226H413.706V132.014H428.19V127.226Z" fill="#20201F"/>
<path d="M575.111 127.226H476.181V132.014H575.111V127.226Z" fill="#20201F"/>
<path d="M575.111 132.014H569.621V143.775H575.111V132.014Z" fill="#20201F"/>
<path d="M512.733 548.273H376.988V552.125H512.733V548.273Z" fill="#20201F"/>
<path d="M516.841 540.509H372.879V544.36H516.841V540.509Z" fill="#20201F"/>
<path d="M516.841 521.604H372.879V525.455H516.841V521.604Z" fill="#20201F"/>
<path d="M752.656 440.476H656.685V444.329H752.656V440.476Z" fill="#20201F"/>
<path d="M752.656 432.712H656.685V436.563H752.656V432.712Z" fill="#20201F"/>
<path d="M752.656 413.807H656.685V417.658H752.656V413.807Z" fill="#20201F"/>
<path d="M265.946 548.273H130.2V552.125H265.946V548.273Z" fill="#20201F"/>
<path d="M270.054 540.509H126.092V544.36H270.054V540.509Z" fill="#20201F"/>
<path d="M270.054 521.604H126.092V525.455H270.054V521.604Z" fill="#20201F"/>
<path d="M659.921 413.807H656.685V444.35H659.921V413.807Z" fill="#20201F"/>
<path fill-rule="evenodd" clip-rule="evenodd" d="M608.226 425.463C608.226 426.402 607.354 427.163 606.279 427.163C605.204 427.163 604.332 426.402 604.332 425.463V389.466C604.332 388.528 605.204 387.766 606.279 387.766C607.354 387.766 608.226 388.528 608.226 389.466V425.463Z" fill="#20201F"/>
<path fill-rule="evenodd" clip-rule="evenodd" d="M654.121 425.805C654.121 426.274 653.685 426.655 653.148 426.655C652.61 426.655 652.174 426.274 652.174 425.805C652.174 416.002 647.666 407.129 640.382 400.709C633.098 394.289 623.031 390.317 611.917 390.317C611.38 390.317 610.943 389.936 610.943 389.466C610.943 388.997 611.38 388.616 611.917 388.616C623.566 388.616 634.12 392.781 641.759 399.514C649.395 406.244 654.121 415.54 654.121 425.805Z" fill="#20201F"/>
<path fill-rule="evenodd" clip-rule="evenodd" d="M230.936 254.242C229.862 254.242 228.99 253.48 228.99 252.541C228.99 251.602 229.862 250.84 230.936 250.84H272.141C273.216 250.84 274.088 251.602 274.088 252.541C274.088 253.48 273.216 254.242 272.141 254.242H230.936Z" fill="#20201F"/>
<path fill-rule="evenodd" clip-rule="evenodd" d="M230.545 217.838C230.008 217.838 229.572 217.457 229.572 216.988C229.572 216.518 230.008 216.137 230.545 216.137C242.271 216.137 252.895 219.719 260.59 225.505C268.327 231.322 273.114 239.37 273.114 248.264C273.114 248.734 272.678 249.115 272.141 249.115C271.604 249.115 271.167 248.734 271.167 248.264C271.167 239.89 266.639 232.297 259.321 226.794C251.965 221.262 241.789 217.838 230.545 217.838Z" fill="#20201F"/>
<path fill-rule="evenodd" clip-rule="evenodd" d="M306.365 266.371C305.29 266.371 304.418 265.609 304.418 264.67C304.418 263.731 305.29 262.969 306.365 262.969H347.57C348.644 262.969 349.517 263.731 349.517 264.67C349.517 265.609 348.644 266.371 347.57 266.371H306.365Z" fill="#20201F"/>
<path fill-rule="evenodd" clip-rule="evenodd" d="M305.974 313.145C305.436 313.145 305 312.764 305 312.295C305 311.825 305.436 311.444 305.974 311.444C317.165 311.444 327.306 306.866 334.65 299.468C342.031 292.035 346.596 281.755 346.596 270.398C346.596 269.929 347.032 269.548 347.57 269.548C348.107 269.548 348.543 269.929 348.543 270.398C348.543 282.173 343.794 292.846 336.118 300.577C328.41 308.341 317.753 313.145 305.974 313.145Z" fill="#20201F"/>
<path fill-rule="evenodd" clip-rule="evenodd" d="M241.951 321.495C241.951 322.434 241.079 323.196 240.004 323.196C238.929 323.196 238.057 322.434 238.057 321.495V285.499C238.057 284.56 238.929 283.798 240.004 283.798C241.079 283.798 241.951 284.56 241.951 285.499V321.495Z" fill="#20201F"/>
<path fill-rule="evenodd" clip-rule="evenodd" d="M289.286 321.837C289.286 322.307 288.85 322.688 288.313 322.688C287.775 322.688 287.339 322.307 287.339 321.837C287.339 312.041 282.692 303.168 275.184 296.748C267.671 290.324 257.285 286.349 245.815 286.349C245.278 286.349 244.842 285.968 244.842 285.499C244.842 285.03 245.278 284.649 245.815 284.649C257.809 284.649 268.677 288.811 276.545 295.539C284.415 302.269 289.286 311.568 289.286 321.837Z" fill="#20201F"/>
<path fill-rule="evenodd" clip-rule="evenodd" d="M311.992 107.487C311.992 106.548 312.865 105.786 313.939 105.786C315.014 105.786 315.886 106.548 315.886 107.487V143.483C315.886 144.422 315.014 145.184 313.939 145.184C312.865 145.184 311.992 144.422 311.992 143.483V107.487Z" fill="#20201F"/>
<path fill-rule="evenodd" clip-rule="evenodd" d="M251.688 107.145C251.688 106.676 252.124 106.295 252.661 106.295C253.199 106.295 253.635 106.676 253.635 107.145C253.635 116.902 259.526 125.751 269.044 132.168C278.637 138.633 291.904 142.633 306.568 142.633C307.106 142.633 307.542 143.014 307.542 143.483C307.542 143.953 307.106 144.334 306.568 144.334C291.468 144.334 277.78 140.196 267.859 133.51C257.869 126.776 251.688 117.454 251.688 107.145Z" fill="#20201F"/>
<path fill-rule="evenodd" clip-rule="evenodd" d="M469.919 129.157C469.919 128.218 470.791 127.456 471.866 127.456C472.94 127.456 473.813 128.218 473.813 129.157V165.153C473.813 166.092 472.94 166.854 471.866 166.854C470.791 166.854 469.919 166.092 469.919 165.153V129.157Z" fill="#20201F"/>
<path fill-rule="evenodd" clip-rule="evenodd" d="M430.156 128.815C430.156 128.345 430.592 127.964 431.129 127.964C431.667 127.964 432.103 128.345 432.103 128.815C432.103 138.64 436.025 147.529 442.361 153.953C448.666 160.347 457.367 164.303 466.966 164.303C467.503 164.303 467.939 164.684 467.939 165.153C467.939 165.622 467.503 166.003 466.966 166.003C456.778 166.003 447.559 161.821 440.893 155.062C434.261 148.338 430.156 139.056 430.156 128.815Z" fill="#20201F"/>
<path fill-rule="evenodd" clip-rule="evenodd" d="M572.718 192.936C573.792 192.936 574.664 193.698 574.664 194.637C574.664 195.576 573.792 196.338 572.718 196.338H531.513C530.438 196.338 529.566 195.576 529.566 194.637C529.566 193.698 530.438 192.936 531.513 192.936H572.718Z" fill="#20201F"/>
<path fill-rule="evenodd" clip-rule="evenodd" d="M573.109 146.341C573.646 146.341 574.082 146.722 574.082 147.191C574.082 147.66 573.646 148.041 573.109 148.041C561.918 148.041 551.778 152.604 544.431 159.975C537.053 167.379 532.486 177.619 532.486 188.93C532.486 189.399 532.05 189.78 531.513 189.78C530.976 189.78 530.54 189.399 530.54 188.93C530.54 177.196 535.288 166.561 542.964 158.859C550.67 151.126 561.328 146.341 573.109 146.341Z" fill="#20201F"/>
<path fill-rule="evenodd" clip-rule="evenodd" d="M111.27 470.226V379.871H69.8989V471.289H111.27V470.226ZM106.378 408.15C106.378 409.144 105.913 410.051 105.16 410.705C104.41 411.358 103.376 411.765 102.241 411.765H78.8788C77.7438 411.765 76.7101 411.358 75.9556 410.705C75.2071 410.051 74.7418 409.144 74.7418 408.15V387.741C74.7418 386.749 75.208 385.845 75.9556 385.188C76.7042 384.534 77.7399 384.128 78.8788 384.128H102.241C103.38 384.128 104.416 384.534 105.162 385.191C105.912 385.845 106.378 386.749 106.378 387.741V408.15ZM104.445 459.716C104.445 461.092 103.804 462.342 102.769 463.247C101.734 464.151 100.303 464.712 98.7262 464.712C97.1521 464.712 95.7222 464.151 94.6835 463.245C93.6488 462.34 93.0073 461.091 93.0073 459.716C93.0073 458.338 93.6488 457.088 94.6854 456.186C95.7202 455.28 97.1512 454.72 98.7262 454.72C100.303 454.72 101.734 455.28 102.769 456.184C103.804 457.088 104.445 458.338 104.445 459.716ZM89.3773 459.716C89.3773 461.387 88.5996 462.903 87.3448 463.999C86.0901 465.095 84.3544 465.775 82.4416 465.775C80.5278 465.775 78.7932 465.095 77.5385 463.999C76.2837 462.903 75.5058 461.387 75.5058 459.716C75.5058 458.045 76.2837 456.528 77.5385 455.432C78.7932 454.336 80.5278 453.657 82.4416 453.657C84.3544 453.657 86.0901 454.336 87.3448 455.432C88.5996 456.528 89.3773 458.045 89.3773 459.716ZM86.1416 456.483C87.0869 457.309 87.6739 458.454 87.6739 459.716C87.6739 460.978 87.0869 462.122 86.1416 462.948C85.1964 463.774 83.8862 464.286 82.4416 464.286C80.9961 464.286 79.6868 463.774 78.7415 462.948C77.7964 462.122 77.2094 460.978 77.2094 459.716C77.2094 458.454 77.7964 457.309 78.7415 456.483C79.6868 455.658 80.9961 455.145 82.4416 455.145C83.8862 455.145 85.1964 455.658 86.1416 456.483ZM105.662 446.721C105.662 448.393 104.884 449.908 103.629 451.004C102.375 452.1 100.64 452.78 98.7262 452.78C96.8125 452.78 95.0768 452.101 93.822 451.005C92.5673 449.909 91.7905 448.393 91.7905 446.721C91.7905 445.049 92.5682 443.533 93.823 442.437C95.0777 441.341 96.8125 440.662 98.7262 440.662C100.639 440.662 102.375 441.341 103.629 442.437C104.884 443.533 105.662 445.05 105.662 446.721ZM102.426 443.488C103.371 444.314 103.958 445.459 103.958 446.721C103.958 447.984 103.371 449.127 102.426 449.953C101.481 450.779 100.172 451.292 98.7262 451.292C97.2807 451.292 95.9705 450.78 95.0252 449.954C94.08 449.128 93.4941 447.984 93.4941 446.721C93.4941 445.458 94.0809 444.314 95.0262 443.488C95.9714 442.663 97.2807 442.15 98.7262 442.15C100.171 442.15 101.481 442.663 102.426 443.488ZM88.1606 446.721C88.1606 448.097 87.519 449.347 86.4843 450.252C85.4495 451.156 84.0185 451.717 82.4416 451.717C80.8676 451.717 79.4376 451.156 78.3989 450.25C77.3641 449.345 76.7226 448.096 76.7226 446.721C76.7226 445.343 77.3641 444.093 78.4009 443.191C79.4357 442.285 80.8666 441.725 82.4416 441.725C84.0185 441.725 85.4495 442.285 86.4843 443.189C87.519 444.093 88.1606 445.343 88.1606 446.721ZM85.2811 444.24C86.0063 444.874 86.4571 445.752 86.4571 446.721C86.4571 447.692 86.0082 448.57 85.284 449.201C84.5559 449.835 83.5504 450.229 82.4416 450.229C81.3299 450.229 80.3253 449.837 79.6021 449.204C78.8749 448.57 78.4262 447.692 78.4262 446.721C78.4262 445.752 78.8768 444.874 79.6021 444.24C80.3253 443.605 81.3299 443.213 82.4416 443.213C83.5504 443.213 84.5559 443.607 85.2811 444.24ZM101.566 457.235C102.291 457.869 102.742 458.747 102.742 459.716C102.742 460.687 102.293 461.564 101.569 462.196C100.841 462.83 99.8349 463.223 98.7262 463.223C97.6146 463.223 96.61 462.831 95.8867 462.199C95.1596 461.564 94.7109 460.687 94.7109 459.716C94.7109 458.747 95.1615 457.869 95.8867 457.235C96.61 456.6 97.6146 456.208 98.7262 456.208C99.8349 456.208 100.841 456.601 101.566 457.235ZM103.945 387.741V408.15C103.945 408.558 103.752 408.932 103.443 409.201C103.138 409.472 102.711 409.639 102.241 409.639H78.8788C78.4097 409.639 77.9823 409.472 77.6747 409.203C77.368 408.932 77.1754 408.558 77.1754 408.15V387.741C77.1754 387.331 77.3661 386.958 77.6718 386.691C77.9852 386.422 78.4136 386.254 78.8788 386.254H102.241C102.707 386.254 103.135 386.422 103.443 386.691C103.754 386.958 103.945 387.331 103.945 387.741ZM72.3325 437.308H108.836V469.163H72.3325V437.308ZM108.836 435.182H72.3325V381.997H108.836V435.182Z" fill="#20201F"/>
<path fill-rule="evenodd" clip-rule="evenodd" d="M392.071 89.4058C388.87 91.2044 384.762 92.315 381.15 92.315C377.595 92.315 374.821 91.2494 372.89 89.5053V89.5002C372.16 88.8394 371.594 88.0554 371.115 87.2245V90.8123C371.115 92.9536 370.091 94.2088 368.447 94.9376C366.951 95.6026 364.972 95.7667 362.802 95.7667H361.907V95.7472C360.098 95.7029 358.447 95.5056 357.161 94.9376C355.518 94.2088 354.499 92.9536 354.499 90.8225V73.2279C354.499 71.0874 355.518 69.834 357.161 69.1094C358.447 68.5456 360.098 68.3424 361.907 68.2999V68.2803H362.802C364.972 68.2803 366.951 68.4444 368.447 69.1094C370.091 69.834 371.115 71.0874 371.115 73.2279V76.8225C371.594 75.9917 372.154 75.2102 372.89 74.5477C374.821 72.8001 377.595 71.7337 381.15 71.7337C384.967 71.7337 389.336 72.977 392.613 74.9593C395.636 76.7885 397.758 79.2623 397.758 82.0235C397.758 84.948 395.378 87.5519 392.071 89.4058ZM360.131 81.5167H360.125V81.5192C360.125 82.1502 360.427 82.731 360.905 83.1494V83.1545C361.383 83.5712 362.042 83.8297 362.773 83.8297C363.505 83.8297 364.158 83.5712 364.636 83.1545H364.645L364.644 83.1494C365.122 82.7285 365.417 82.1502 365.417 81.5192C365.417 80.878 365.122 80.2989 364.645 79.8839C364.167 79.4672 363.505 79.2062 362.773 79.2062C362.042 79.2062 361.389 79.4672 360.905 79.8839C360.427 80.2989 360.131 80.878 360.131 81.5167ZM361.485 81.5141V81.5192C361.485 81.8305 361.627 82.1119 361.852 82.3118H361.861C362.091 82.5133 362.419 82.6417 362.773 82.6417C363.134 82.6417 363.465 82.5167 363.689 82.322L363.695 82.3135C363.92 82.1119 364.065 81.8305 364.065 81.5192C364.065 81.1969 363.92 80.9171 363.695 80.7165C363.465 80.52 363.134 80.3959 362.773 80.3959C362.413 80.3959 362.085 80.52 361.861 80.7258C361.621 80.9222 361.476 81.2063 361.476 81.5141H361.485ZM369.327 73.2279C369.327 71.7839 368.678 70.959 367.649 70.499C366.582 70.0347 365.102 69.8782 363.43 69.851H362.802C360.876 69.851 359.149 69.9794 357.96 70.499C356.93 70.959 356.289 71.7856 356.289 73.2279V90.8225C356.289 92.2631 356.93 93.0854 357.96 93.5455C359.149 94.0693 360.876 94.196 362.802 94.196H363.499C365.136 94.1637 366.605 94.0098 367.649 93.548C368.687 93.0854 369.327 92.2563 369.327 90.8123V73.2279ZM391.6 76.2391C388.61 74.4278 384.626 73.2951 381.15 73.2951C378.113 73.2951 375.777 74.1812 374.174 75.6277C372.419 77.2103 371.511 79.4893 371.511 82.0235C371.511 84.5619 372.419 86.8384 374.174 88.4253C375.777 89.8684 378.113 90.7528 381.15 90.7528C384.433 90.7528 388.182 89.7383 391.112 88.0945C393.936 86.511 395.969 84.3544 395.969 82.0235C395.969 79.832 394.16 77.7954 391.6 76.2391Z" fill="#20201F"/>
<path fill-rule="evenodd" clip-rule="evenodd" d="M535.125 124.225L512.814 124.231C505.353 124.231 506.232 110.739 506.309 109.838C506.309 106.715 507.767 103.881 510.117 101.831C512.461 99.7841 515.71 98.5153 519.285 98.5153H528.753C532.334 98.5153 535.579 99.7815 537.93 101.831C540.272 103.881 541.726 106.72 541.741 109.843C541.789 110.759 542.557 124.231 535.125 124.225ZM524.015 111.082V111.08C524.799 111.073 525.524 110.803 526.041 110.353C526.549 109.894 526.862 109.269 526.862 108.587C526.862 107.898 526.547 107.273 526.03 106.823C525.514 106.371 524.799 106.095 524.012 106.095C523.229 106.095 522.514 106.371 521.998 106.823H521.988V106.828C521.472 107.278 521.15 107.898 521.15 108.587C521.15 109.269 521.472 109.903 521.988 110.353H521.991C522.507 110.803 523.229 111.087 524.012 111.087L524.015 111.082ZM524.02 109.811C524.393 109.811 524.744 109.677 524.995 109.451C525.24 109.237 525.398 108.929 525.398 108.587C525.398 108.247 525.247 107.938 525.002 107.718C524.749 107.506 524.405 107.367 524.012 107.37C523.619 107.37 523.279 107.504 523.027 107.718L523.021 107.723C522.771 107.938 522.618 108.247 522.618 108.587C522.618 108.923 522.781 109.231 523.023 109.451L523.029 109.454C523.275 109.67 523.626 109.8 524.006 109.8L524.02 109.797V109.811ZM524.015 119.476C527.612 119.476 530.877 118.539 533.251 117.037C535.718 115.465 537.251 113.27 537.253 110.837C537.253 108.394 535.718 106.199 533.251 104.624C530.868 103.113 527.601 102.186 524.003 102.186H523.988C520.4 102.193 517.141 103.128 514.76 104.634C512.304 106.205 510.774 108.394 510.772 110.823L510.774 110.837C510.774 113.276 512.304 115.458 514.78 117.037C517.148 118.542 520.412 119.476 524.006 119.473L524.015 119.476ZM524.015 117.718C527.167 117.713 530.015 116.905 532.075 115.606C534.019 114.365 535.229 112.673 535.229 110.837C535.229 108.988 534.019 107.296 532.059 106.05C530.01 104.756 527.167 103.951 524.003 103.951H523.997L523.988 103.946C520.833 103.951 517.996 104.756 515.947 106.057C514.008 107.294 512.799 108.988 512.793 110.823L512.799 110.837C512.795 112.677 514.006 114.37 515.954 115.606C518.004 116.9 520.848 117.713 524.003 117.71H524.015V117.718ZM535.118 122.466C540.657 122.466 539.713 109.94 539.713 109.908L539.705 109.843C539.705 107.204 538.485 104.816 536.51 103.079C534.517 101.349 531.779 100.281 528.753 100.281H519.295C516.257 100.281 513.514 101.344 511.53 103.079C509.55 104.807 508.33 107.204 508.324 109.843L508.321 109.905C508.321 109.937 507.305 122.466 512.82 122.466H535.118Z" fill="#20201F"/>
<path fill-rule="evenodd" clip-rule="evenodd" d="M120.288 212.752V314.34H72.7162V212.752H120.288ZM91.8783 232.547C91.8783 233.663 92.3961 234.673 93.232 235.404C94.0728 236.134 95.2279 236.586 96.5021 236.586C97.7763 236.586 98.9315 236.134 99.7683 235.404C100.608 234.669 101.126 233.66 101.126 232.547C101.126 231.434 100.608 230.425 99.7722 229.693C98.936 228.96 97.7793 228.508 96.5021 228.508C95.225 228.508 94.0682 228.96 93.232 229.69C92.3961 230.421 91.8783 231.431 91.8783 232.547ZM94.5387 234.262C95.039 234.699 95.7347 234.971 96.5021 234.971C97.2695 234.971 97.9652 234.699 98.4655 234.262C98.9655 233.825 99.2764 233.218 99.2764 232.547C99.2764 231.876 98.9655 231.269 98.4646 230.833C97.9623 230.395 97.2679 230.123 96.5021 230.123C95.7364 230.123 95.042 230.395 94.5397 230.833C94.0387 231.272 93.7279 231.878 93.7279 232.547C93.7279 233.216 94.0387 233.823 94.5387 234.262ZM74.0773 220.419L75.9269 292.132C75.9269 302.902 84.1733 311.722 96.5021 311.722C108.831 311.722 117.077 302.902 117.077 292.132L118.927 220.419C118.927 219.03 118.276 217.766 117.23 216.853C116.179 215.939 114.734 215.37 113.147 215.37H79.8573C78.2723 215.37 76.8277 215.938 75.7789 216.853C74.7276 217.773 74.0773 219.035 74.0773 220.419ZM78.2389 292.132C78.2389 301.799 85.4364 309.702 96.5021 309.702C107.568 309.702 114.765 301.799 114.765 292.132L116.615 220.419C116.615 219.588 116.224 218.83 115.595 218.277C114.97 217.73 114.102 217.39 113.147 217.39H79.8573C78.9021 217.39 78.0353 217.73 77.405 218.281C76.7787 218.828 76.3893 219.585 76.3893 220.419L78.2389 292.132ZM122.553 314.553V212.538C122.553 212.031 122.323 211.568 121.957 211.233C121.591 210.895 121.08 210.687 120.521 210.687H72.4833C71.9238 210.687 71.4134 210.895 71.0471 211.229C70.6798 211.564 70.4517 212.029 70.4517 212.538V314.553C70.4517 315.063 70.6798 315.528 71.0471 315.863C71.418 316.195 71.9265 316.405 72.4833 316.405H120.521C121.078 316.405 121.585 316.196 121.954 315.863C122.323 315.523 122.553 315.061 122.553 314.553Z" fill="#20201F"/>
<path fill-rule="evenodd" clip-rule="evenodd" d="M454.65 257.147H457.992C458.391 257.147 458.716 256.861 458.716 256.514V255.903H506.722C507.302 255.903 507.773 255.492 507.773 254.985C507.773 254.478 507.302 254.067 506.722 254.067H458.716V249.059C458.716 248.713 458.388 248.427 457.992 248.427H454.65C454.25 248.427 453.926 248.711 453.926 249.059V256.514C453.926 256.863 454.25 257.147 454.65 257.147Z" fill="#20201F"/>
<path fill-rule="evenodd" clip-rule="evenodd" d="M556.817 248.216H553.474C553.075 248.216 552.751 248.502 552.751 248.849V249.459H504.745C504.165 249.459 503.693 249.871 503.693 250.378C503.693 250.884 504.165 251.296 504.745 251.296H552.751V256.303C552.751 256.649 553.078 256.936 553.474 256.936H556.817C557.216 256.936 557.54 256.652 557.54 256.303V248.849C557.54 248.5 557.216 248.216 556.817 248.216Z" fill="#20201F"/>
<path fill-rule="evenodd" clip-rule="evenodd" d="M324.893 216.179H328.236C328.635 216.179 328.959 215.893 328.959 215.546V214.936H376.966C377.546 214.936 378.017 214.524 378.017 214.017C378.017 213.51 377.546 213.099 376.966 213.099H328.959V208.092C328.959 207.746 328.632 207.459 328.236 207.459H324.893C324.494 207.459 324.17 207.743 324.17 208.092V215.546C324.17 215.895 324.494 216.179 324.893 216.179Z" fill="#20201F"/>
<path fill-rule="evenodd" clip-rule="evenodd" d="M427.06 207.248H423.718C423.318 207.248 422.994 207.534 422.994 207.881V208.491H374.988C374.408 208.491 373.937 208.903 373.937 209.41C373.937 209.917 374.408 210.328 374.988 210.328H422.994V215.335C422.994 215.682 423.321 215.968 423.718 215.968H427.06C427.459 215.968 427.784 215.684 427.784 215.335V207.881C427.784 207.532 427.459 207.248 427.06 207.248Z" fill="#20201F"/>
<path d="M690.092 104H687.658V205.095H690.092V104Z" fill="#20201F"/>
<path d="M714.464 119.918C715.97 120 717.113 120.411 717.893 121.15C718.687 121.875 719.084 122.827 719.084 124.004C719.084 124.825 718.885 125.557 718.488 126.201C718.091 126.83 717.503 127.33 716.722 127.7C715.942 128.069 714.991 128.254 713.868 128.254C712.828 128.254 711.842 128.09 710.912 127.761C709.994 127.419 709.255 126.967 708.694 126.406L709.413 125.236C709.892 125.729 710.528 126.132 711.322 126.447C712.116 126.748 712.965 126.899 713.868 126.899C715.046 126.899 715.956 126.646 716.599 126.139C717.243 125.619 717.564 124.907 717.564 124.004C717.564 123.114 717.243 122.416 716.599 121.909C715.956 121.403 714.984 121.15 713.684 121.15H712.657V120.061L716.64 115.072H709.29V113.758H718.529V114.805L714.464 119.918ZM731.049 113.758V114.805L725.033 128.131H723.432L729.345 115.072H721.953V117.762H720.495V113.758H731.049ZM733.023 128.234C732.722 128.234 732.462 128.124 732.243 127.905C732.038 127.686 731.935 127.419 731.935 127.104C731.935 126.789 732.038 126.529 732.243 126.324C732.462 126.105 732.722 125.995 733.023 125.995C733.324 125.995 733.584 126.105 733.803 126.324C734.022 126.529 734.132 126.789 734.132 127.104C734.132 127.419 734.022 127.686 733.803 127.905C733.584 128.124 733.324 128.234 733.023 128.234ZM741.353 119.918C742.859 120 744.002 120.411 744.782 121.15C745.576 121.875 745.973 122.827 745.973 124.004C745.973 124.825 745.774 125.557 745.377 126.201C744.98 126.83 744.392 127.33 743.612 127.7C742.831 128.069 741.88 128.254 740.757 128.254C739.717 128.254 738.732 128.09 737.801 127.761C736.884 127.419 736.144 126.967 735.583 126.406L736.302 125.236C736.781 125.729 737.417 126.132 738.211 126.447C739.005 126.748 739.854 126.899 740.757 126.899C741.935 126.899 742.845 126.646 743.488 126.139C744.132 125.619 744.453 124.907 744.453 124.004C744.453 123.114 744.132 122.416 743.488 121.909C742.845 121.403 741.873 121.15 740.573 121.15H739.546V120.061L743.529 115.072H736.179V113.758H745.418V114.805L741.353 119.918ZM753.785 128.254C752.676 128.254 751.683 127.96 750.807 127.371C749.945 126.783 749.267 125.941 748.775 124.846C748.295 123.737 748.056 122.436 748.056 120.944C748.056 119.452 748.295 118.159 748.775 117.064C749.267 115.955 749.945 115.106 750.807 114.518C751.683 113.929 752.676 113.635 753.785 113.635C754.893 113.635 755.879 113.929 756.741 114.518C757.617 115.106 758.302 115.955 758.795 117.064C759.287 118.159 759.534 119.452 759.534 120.944C759.534 122.436 759.287 123.737 758.795 124.846C758.302 125.941 757.617 126.783 756.741 127.371C755.879 127.96 754.893 128.254 753.785 128.254ZM753.785 126.899C754.62 126.899 755.352 126.666 755.982 126.201C756.625 125.735 757.125 125.058 757.48 124.168C757.836 123.278 758.014 122.204 758.014 120.944C758.014 119.685 757.836 118.61 757.48 117.721C757.125 116.831 756.625 116.153 755.982 115.688C755.352 115.223 754.62 114.99 753.785 114.99C752.95 114.99 752.21 115.223 751.567 115.688C750.937 116.153 750.445 116.831 750.089 117.721C749.733 118.61 749.555 119.685 749.555 120.944C749.555 122.204 749.733 123.278 750.089 124.168C750.445 125.058 750.937 125.735 751.567 126.201C752.21 126.666 752.95 126.899 753.785 126.899Z" fill="#20201F"/>
<path d="M715.614 148.814C716.559 148.814 717.394 148.992 718.119 149.348C718.858 149.704 719.433 150.21 719.844 150.867C720.255 151.51 720.46 152.263 720.46 153.126C720.46 154.002 720.248 154.775 719.823 155.446C719.399 156.117 718.811 156.637 718.058 157.006C717.318 157.362 716.483 157.54 715.553 157.54C713.65 157.54 712.192 156.917 711.179 155.672C710.166 154.412 709.66 152.64 709.66 150.354C709.66 148.752 709.934 147.397 710.481 146.288C711.029 145.179 711.795 144.344 712.781 143.783C713.766 143.208 714.916 142.921 716.23 142.921C717.654 142.921 718.79 143.181 719.639 143.701L719.043 144.892C718.359 144.44 717.428 144.214 716.251 144.214C714.663 144.214 713.417 144.721 712.514 145.734C711.61 146.733 711.159 148.191 711.159 150.107C711.159 150.45 711.179 150.84 711.22 151.278C711.576 150.497 712.144 149.895 712.924 149.471C713.705 149.033 714.601 148.814 715.614 148.814ZM715.491 156.288C716.531 156.288 717.373 156.007 718.017 155.446C718.674 154.871 719.002 154.111 719.002 153.167C719.002 152.222 718.674 151.469 718.017 150.908C717.373 150.347 716.497 150.066 715.388 150.066C714.663 150.066 714.02 150.203 713.458 150.477C712.911 150.751 712.48 151.127 712.165 151.606C711.85 152.085 711.692 152.619 711.692 153.208C711.692 153.755 711.836 154.262 712.124 154.727C712.425 155.193 712.863 155.569 713.438 155.856C714.013 156.144 714.697 156.288 715.491 156.288ZM732.155 143.044V144.091L726.139 157.417H724.537L730.45 144.358H723.059V147.048H721.601V143.044H732.155ZM734.129 157.52C733.827 157.52 733.567 157.41 733.348 157.191C733.143 156.972 733.04 156.705 733.04 156.39C733.04 156.076 733.143 155.815 733.348 155.61C733.567 155.391 733.827 155.282 734.129 155.282C734.43 155.282 734.69 155.391 734.909 155.61C735.128 155.815 735.237 156.076 735.237 156.39C735.237 156.705 735.128 156.972 734.909 157.191C734.69 157.41 734.43 157.52 734.129 157.52ZM743.105 148.814C744.049 148.814 744.884 148.992 745.61 149.348C746.349 149.704 746.924 150.21 747.335 150.867C747.745 151.51 747.951 152.263 747.951 153.126C747.951 154.002 747.739 154.775 747.314 155.446C746.89 156.117 746.301 156.637 745.548 157.006C744.809 157.362 743.974 157.54 743.043 157.54C741.141 157.54 739.683 156.917 738.67 155.672C737.657 154.412 737.15 152.64 737.15 150.354C737.15 148.752 737.424 147.397 737.972 146.288C738.519 145.179 739.286 144.344 740.271 143.783C741.257 143.208 742.407 142.921 743.721 142.921C745.145 142.921 746.281 143.181 747.129 143.701L746.534 144.892C745.85 144.44 744.919 144.214 743.741 144.214C742.154 144.214 740.908 144.721 740.004 145.734C739.101 146.733 738.649 148.191 738.649 150.107C738.649 150.45 738.67 150.84 738.711 151.278C739.067 150.497 739.635 149.895 740.415 149.471C741.195 149.033 742.092 148.814 743.105 148.814ZM742.982 156.288C744.022 156.288 744.864 156.007 745.507 155.446C746.164 154.871 746.493 154.111 746.493 153.167C746.493 152.222 746.164 151.469 745.507 150.908C744.864 150.347 743.988 150.066 742.879 150.066C742.154 150.066 741.51 150.203 740.949 150.477C740.401 150.751 739.97 151.127 739.655 151.606C739.341 152.085 739.183 152.619 739.183 153.208C739.183 153.755 739.327 154.262 739.614 154.727C739.916 155.193 740.354 155.569 740.928 155.856C741.503 156.144 742.188 156.288 742.982 156.288ZM759.645 143.044V144.091L753.629 157.417H752.028L757.941 144.358H750.549V147.048H749.092V143.044H759.645Z" fill="#20201F"/>
<path d="M717.875 172.33V173.377L711.859 186.703H710.257L716.171 173.644H708.779V176.334H707.321V172.33H717.875ZM725.15 186.826C724.041 186.826 723.049 186.532 722.173 185.943C721.311 185.354 720.633 184.512 720.14 183.417C719.661 182.309 719.422 181.008 719.422 179.516C719.422 178.024 719.661 176.731 720.14 175.635C720.633 174.527 721.311 173.678 722.173 173.089C723.049 172.501 724.041 172.206 725.15 172.206C726.259 172.206 727.245 172.501 728.107 173.089C728.983 173.678 729.667 174.527 730.16 175.635C730.653 176.731 730.899 178.024 730.899 179.516C730.899 181.008 730.653 182.309 730.16 183.417C729.667 184.512 728.983 185.354 728.107 185.943C727.245 186.532 726.259 186.826 725.15 186.826ZM725.15 185.471C725.985 185.471 726.718 185.238 727.347 184.773C727.991 184.307 728.49 183.63 728.846 182.74C729.202 181.85 729.38 180.776 729.38 179.516C729.38 178.257 729.202 177.182 728.846 176.293C728.49 175.403 727.991 174.725 727.347 174.26C726.718 173.794 725.985 173.562 725.15 173.562C724.315 173.562 723.576 173.794 722.933 174.26C722.303 174.725 721.81 175.403 721.454 176.293C721.098 177.182 720.92 178.257 720.92 179.516C720.92 180.776 721.098 181.85 721.454 182.74C721.81 183.63 722.303 184.307 722.933 184.773C723.576 185.238 724.315 185.471 725.15 185.471ZM733.905 186.805C733.604 186.805 733.344 186.696 733.125 186.477C732.919 186.258 732.817 185.991 732.817 185.676C732.817 185.361 732.919 185.101 733.125 184.896C733.344 184.677 733.604 184.567 733.905 184.567C734.206 184.567 734.466 184.677 734.685 184.896C734.904 185.101 735.014 185.361 735.014 185.676C735.014 185.991 734.904 186.258 734.685 186.477C734.466 186.696 734.206 186.805 733.905 186.805ZM742.655 186.826C741.546 186.826 740.554 186.532 739.678 185.943C738.816 185.354 738.138 184.512 737.645 183.417C737.166 182.309 736.927 181.008 736.927 179.516C736.927 178.024 737.166 176.731 737.645 175.635C738.138 174.527 738.816 173.678 739.678 173.089C740.554 172.501 741.546 172.206 742.655 172.206C743.764 172.206 744.75 172.501 745.612 173.089C746.488 173.678 747.172 174.527 747.665 175.635C748.158 176.731 748.404 178.024 748.404 179.516C748.404 181.008 748.158 182.309 747.665 183.417C747.172 184.512 746.488 185.354 745.612 185.943C744.75 186.532 743.764 186.826 742.655 186.826ZM742.655 185.471C743.49 185.471 744.223 185.238 744.852 184.773C745.496 184.307 745.995 183.63 746.351 182.74C746.707 181.85 746.885 180.776 746.885 179.516C746.885 178.257 746.707 177.182 746.351 176.293C745.995 175.403 745.496 174.725 744.852 174.26C744.223 173.794 743.49 173.562 742.655 173.562C741.82 173.562 741.081 173.794 740.438 174.26C739.808 174.725 739.315 175.403 738.959 176.293C738.603 177.182 738.425 178.257 738.425 179.516C738.425 180.776 738.603 181.85 738.959 182.74C739.315 183.63 739.808 184.307 740.438 184.773C741.081 185.238 741.82 185.471 742.655 185.471ZM756.476 178.099C757.421 178.099 758.256 178.277 758.981 178.633C759.72 178.989 760.295 179.496 760.706 180.153C761.116 180.796 761.322 181.549 761.322 182.411C761.322 183.287 761.11 184.061 760.685 184.731C760.261 185.402 759.672 185.922 758.919 186.292C758.18 186.648 757.345 186.826 756.414 186.826C754.512 186.826 753.054 186.203 752.041 184.957C751.028 183.698 750.522 181.925 750.522 179.639C750.522 178.038 750.795 176.683 751.343 175.574C751.89 174.465 752.657 173.63 753.643 173.069C754.628 172.494 755.778 172.206 757.092 172.206C758.516 172.206 759.652 172.467 760.501 172.987L759.905 174.178C759.221 173.726 758.29 173.5 757.113 173.5C755.525 173.5 754.279 174.007 753.376 175.019C752.472 176.019 752.02 177.477 752.02 179.393C752.02 179.735 752.041 180.125 752.082 180.563C752.438 179.783 753.006 179.181 753.786 178.756C754.567 178.318 755.463 178.099 756.476 178.099ZM756.353 185.573C757.393 185.573 758.235 185.293 758.878 184.731C759.535 184.157 759.864 183.397 759.864 182.452C759.864 181.508 759.535 180.755 758.878 180.194C758.235 179.633 757.359 179.352 756.25 179.352C755.525 179.352 754.881 179.489 754.32 179.763C753.773 180.036 753.341 180.413 753.027 180.892C752.712 181.371 752.554 181.905 752.554 182.493C752.554 183.041 752.698 183.547 752.985 184.013C753.287 184.478 753.725 184.855 754.3 185.142C754.875 185.43 755.559 185.573 756.353 185.573Z" fill="#20201F"/>
<path d="M668.965 168.411V176H638.552V169.963L654.075 155.303C655.723 153.732 656.834 152.39 657.409 151.279C657.984 150.129 658.271 148.998 658.271 147.887C658.271 146.277 657.716 145.05 656.604 144.207C655.531 143.326 653.94 142.885 651.832 142.885C650.069 142.885 648.479 143.23 647.061 143.92C645.642 144.571 644.454 145.568 643.496 146.909L636.712 142.54C638.283 140.202 640.449 138.381 643.209 137.078C645.968 135.737 649.13 135.066 652.695 135.066C655.684 135.066 658.291 135.564 660.514 136.561C662.775 137.519 664.519 138.899 665.745 140.7C667.01 142.463 667.643 144.552 667.643 146.967C667.643 149.151 667.183 151.202 666.263 153.118C665.343 155.035 663.561 157.219 660.916 159.672L651.66 168.411H668.965Z" fill="#20201F"/>
<path d="M644.672 311.727H639.005V320.146H635.822V309.099H644.672V311.727ZM651.082 320.31C649.919 320.31 648.872 320.07 647.941 319.591C647.024 319.098 646.305 318.421 645.785 317.558C645.265 316.696 645.005 315.717 645.005 314.622C645.005 313.527 645.265 312.548 645.785 311.686C646.305 310.824 647.024 310.153 647.941 309.674C648.872 309.181 649.919 308.935 651.082 308.935C652.246 308.935 653.286 309.181 654.203 309.674C655.121 310.153 655.839 310.824 656.359 311.686C656.879 312.548 657.14 313.527 657.14 314.622C657.14 315.717 656.879 316.696 656.359 317.558C655.839 318.421 655.121 319.098 654.203 319.591C653.286 320.07 652.246 320.31 651.082 320.31ZM651.082 317.682C651.904 317.682 652.574 317.408 653.095 316.86C653.628 316.299 653.895 315.553 653.895 314.622C653.895 313.691 653.628 312.952 653.095 312.405C652.574 311.843 651.904 311.563 651.082 311.563C650.261 311.563 649.583 311.843 649.05 312.405C648.516 312.952 648.249 313.691 648.249 314.622C648.249 315.553 648.516 316.299 649.05 316.86C649.583 317.408 650.261 317.682 651.082 317.682ZM664.599 320.31C663.422 320.31 662.361 320.07 661.416 319.591C660.486 319.098 659.753 318.421 659.219 317.558C658.699 316.696 658.439 315.717 658.439 314.622C658.439 313.527 658.699 312.548 659.219 311.686C659.753 310.824 660.486 310.153 661.416 309.674C662.361 309.181 663.422 308.935 664.599 308.935C665.763 308.935 666.776 309.181 667.638 309.674C668.514 310.153 669.151 310.844 669.547 311.748L667.063 313.082C666.488 312.069 665.66 311.563 664.579 311.563C663.744 311.563 663.052 311.837 662.505 312.384C661.957 312.932 661.683 313.678 661.683 314.622C661.683 315.567 661.957 316.313 662.505 316.86C663.052 317.408 663.744 317.682 664.579 317.682C665.674 317.682 666.502 317.175 667.063 316.162L669.547 317.517C669.151 318.393 668.514 319.078 667.638 319.571C666.776 320.063 665.763 320.31 664.599 320.31ZM680.735 311.727H676.998V320.146H673.815V311.727H670.078V309.099H680.735V311.727ZM682.442 309.099H685.625V315.669L691.004 309.099H693.94V320.146H690.758V313.575L685.399 320.146H682.442V309.099ZM697.02 309.099H700.202V313.411H705.007V309.099H708.21V320.146H705.007V316.018H700.202V320.146H697.02V309.099ZM715.568 308.935C717.279 308.935 718.593 309.345 719.51 310.167C720.427 310.974 720.886 312.199 720.886 313.842V320.146H717.888V318.77C717.285 319.796 716.163 320.31 714.52 320.31C713.672 320.31 712.933 320.166 712.303 319.879C711.687 319.591 711.215 319.194 710.886 318.688C710.558 318.181 710.393 317.606 710.393 316.963C710.393 315.936 710.777 315.129 711.543 314.54C712.323 313.951 713.521 313.657 715.136 313.657H717.682C717.682 312.959 717.47 312.425 717.046 312.056C716.622 311.672 715.985 311.481 715.136 311.481C714.548 311.481 713.966 311.576 713.391 311.768C712.83 311.946 712.351 312.192 711.954 312.507L710.804 310.269C711.406 309.845 712.125 309.516 712.96 309.284C713.809 309.051 714.678 308.935 715.568 308.935ZM715.321 318.154C715.869 318.154 716.355 318.031 716.779 317.784C717.203 317.524 717.505 317.148 717.682 316.655V315.526H715.485C714.171 315.526 713.514 315.957 713.514 316.819C713.514 317.23 713.672 317.558 713.987 317.805C714.315 318.037 714.76 318.154 715.321 318.154ZM733.483 309.099V320.146H730.629V316.983H728.267L726.173 320.146H722.765L725.29 316.532C724.524 316.231 723.935 315.799 723.524 315.238C723.127 314.663 722.929 313.972 722.929 313.164C722.929 311.864 723.394 310.865 724.325 310.167C725.27 309.455 726.563 309.099 728.206 309.099H733.483ZM728.267 311.707C727.583 311.707 727.063 311.83 726.707 312.076C726.365 312.323 726.194 312.719 726.194 313.267C726.194 313.815 726.358 314.218 726.686 314.478C727.029 314.725 727.542 314.848 728.226 314.848H730.629V311.707H728.267Z" fill="black"/>
<path d="M667.735 335.059V349.432H664.409V337.728H661.534V335.059H667.735ZM675.283 334.812C677.295 334.812 678.869 335.428 680.005 336.66C681.142 337.879 681.71 339.637 681.71 341.937C681.71 343.566 681.402 344.962 680.786 346.126C680.183 347.289 679.328 348.172 678.219 348.775C677.11 349.377 675.83 349.678 674.379 349.678C673.613 349.678 672.881 349.596 672.182 349.432C671.484 349.254 670.889 349.007 670.396 348.692L671.628 346.249C672.326 346.728 673.223 346.968 674.318 346.968C675.536 346.968 676.501 346.612 677.213 345.9C677.925 345.175 678.308 344.134 678.363 342.779C677.5 343.641 676.31 344.073 674.79 344.073C673.873 344.073 673.038 343.888 672.285 343.518C671.532 343.149 670.937 342.628 670.499 341.958C670.061 341.273 669.842 340.486 669.842 339.596C669.842 338.638 670.081 337.796 670.56 337.071C671.039 336.345 671.69 335.791 672.511 335.408C673.346 335.011 674.27 334.812 675.283 334.812ZM675.529 341.588C676.255 341.588 676.843 341.39 677.295 340.993C677.761 340.582 677.993 340.062 677.993 339.432C677.993 338.802 677.767 338.289 677.316 337.892C676.878 337.495 676.268 337.297 675.488 337.297C674.776 337.297 674.195 337.488 673.743 337.872C673.305 338.255 673.086 338.775 673.086 339.432C673.086 340.089 673.305 340.616 673.743 341.013C674.195 341.396 674.79 341.588 675.529 341.588ZM684.934 349.596C684.373 349.596 683.9 349.404 683.517 349.021C683.134 348.638 682.942 348.159 682.942 347.584C682.942 346.995 683.134 346.523 683.517 346.167C683.9 345.797 684.373 345.613 684.934 345.613C685.495 345.613 685.967 345.797 686.351 346.167C686.734 346.523 686.925 346.995 686.925 347.584C686.925 348.159 686.734 348.638 686.351 349.021C685.967 349.404 685.495 349.596 684.934 349.596ZM693.47 334.812C695.482 334.812 697.056 335.428 698.192 336.66C699.328 337.879 699.896 339.637 699.896 341.937C699.896 343.566 699.588 344.962 698.972 346.126C698.37 347.289 697.515 348.172 696.406 348.775C695.297 349.377 694.017 349.678 692.566 349.678C691.8 349.678 691.067 349.596 690.369 349.432C689.671 349.254 689.076 349.007 688.583 348.692L689.815 346.249C690.513 346.728 691.41 346.968 692.505 346.968C693.723 346.968 694.688 346.612 695.4 345.9C696.112 345.175 696.495 344.134 696.55 342.779C695.687 343.641 694.496 344.073 692.977 344.073C692.06 344.073 691.225 343.888 690.472 343.518C689.719 343.149 689.124 342.628 688.686 341.958C688.247 341.273 688.028 340.486 688.028 339.596C688.028 338.638 688.268 337.796 688.747 337.071C689.226 336.345 689.876 335.791 690.698 335.408C691.533 335.011 692.457 334.812 693.47 334.812ZM693.716 341.588C694.442 341.588 695.03 341.39 695.482 340.993C695.947 340.582 696.18 340.062 696.18 339.432C696.18 338.802 695.954 338.289 695.502 337.892C695.064 337.495 694.455 337.297 693.675 337.297C692.963 337.297 692.381 337.488 691.93 337.872C691.492 338.255 691.273 338.775 691.273 339.432C691.273 340.089 691.492 340.616 691.93 341.013C692.381 341.396 692.977 341.588 693.716 341.588ZM711.327 341.876C712.039 342.231 712.58 342.697 712.95 343.272C713.333 343.847 713.524 344.511 713.524 345.263C713.524 346.153 713.271 346.933 712.765 347.604C712.258 348.261 711.546 348.775 710.629 349.144C709.712 349.5 708.651 349.678 707.447 349.678C706.242 349.678 705.181 349.5 704.264 349.144C703.361 348.775 702.656 348.261 702.149 347.604C701.656 346.933 701.41 346.153 701.41 345.263C701.41 344.511 701.595 343.847 701.964 343.272C702.348 342.697 702.888 342.231 703.587 341.876C703.053 341.547 702.642 341.136 702.355 340.644C702.067 340.137 701.923 339.562 701.923 338.919C701.923 338.084 702.156 337.358 702.622 336.742C703.087 336.126 703.737 335.654 704.572 335.326C705.407 334.983 706.365 334.812 707.447 334.812C708.542 334.812 709.507 334.983 710.342 335.326C711.191 335.654 711.848 336.126 712.313 336.742C712.778 337.358 713.011 338.084 713.011 338.919C713.011 339.562 712.867 340.137 712.58 340.644C712.292 341.136 711.875 341.547 711.327 341.876ZM707.447 337.256C706.776 337.256 706.235 337.42 705.825 337.748C705.428 338.063 705.229 338.501 705.229 339.063C705.229 339.61 705.428 340.041 705.825 340.356C706.222 340.671 706.762 340.828 707.447 340.828C708.131 340.828 708.679 340.671 709.089 340.356C709.5 340.041 709.705 339.61 709.705 339.063C709.705 338.501 709.5 338.063 709.089 337.748C708.679 337.42 708.131 337.256 707.447 337.256ZM707.447 347.235C708.282 347.235 708.939 347.05 709.418 346.68C709.911 346.297 710.157 345.79 710.157 345.161C710.157 344.531 709.911 344.032 709.418 343.662C708.939 343.292 708.282 343.108 707.447 343.108C706.625 343.108 705.975 343.292 705.496 343.662C705.017 344.032 704.777 344.531 704.777 345.161C704.777 345.804 705.017 346.311 705.496 346.68C705.975 347.05 706.625 347.235 707.447 347.235Z" fill="black"/>
<path d="M384.784 380.611C383.606 380.611 382.546 380.371 381.601 379.892C380.67 379.399 379.938 378.722 379.404 377.859C378.884 376.997 378.624 376.018 378.624 374.923C378.624 373.828 378.884 372.849 379.404 371.987C379.938 371.124 380.67 370.454 381.601 369.975C382.546 369.482 383.606 369.235 384.784 369.235C385.947 369.235 386.96 369.482 387.823 369.975C388.699 370.454 389.335 371.145 389.732 372.048L387.248 373.383C386.673 372.37 385.845 371.864 384.763 371.864C383.928 371.864 383.237 372.137 382.689 372.685C382.142 373.232 381.868 373.978 381.868 374.923C381.868 375.867 382.142 376.613 382.689 377.161C383.237 377.709 383.928 377.982 384.763 377.982C385.858 377.982 386.686 377.476 387.248 376.463L389.732 377.818C389.335 378.694 388.699 379.379 387.823 379.871C386.96 380.364 385.947 380.611 384.784 380.611ZM402.664 369.4V380.446H399.46V372.028H394.861V380.446H391.679V369.4H402.664ZM410.026 369.235C411.737 369.235 413.051 369.646 413.968 370.467C414.885 371.275 415.344 372.5 415.344 374.143V380.446H412.346V379.071C411.744 380.097 410.621 380.611 408.979 380.611C408.13 380.611 407.391 380.467 406.761 380.179C406.145 379.892 405.673 379.495 405.345 378.988C405.016 378.482 404.852 377.907 404.852 377.264C404.852 376.237 405.235 375.429 406.002 374.841C406.782 374.252 407.98 373.958 409.595 373.958H412.141C412.141 373.26 411.929 372.726 411.504 372.356C411.08 371.973 410.444 371.781 409.595 371.781C409.006 371.781 408.424 371.877 407.85 372.069C407.288 372.247 406.809 372.493 406.412 372.808L405.262 370.57C405.865 370.146 406.583 369.817 407.418 369.584C408.267 369.352 409.136 369.235 410.026 369.235ZM409.78 378.455C410.327 378.455 410.813 378.331 411.237 378.085C411.662 377.825 411.963 377.449 412.141 376.956V375.826H409.944C408.63 375.826 407.973 376.258 407.973 377.12C407.973 377.531 408.13 377.859 408.445 378.106C408.774 378.338 409.218 378.455 409.78 378.455ZM428.721 369.4V380.446H425.518V372.028H422.028L421.925 373.978C421.87 375.429 421.733 376.634 421.514 377.592C421.295 378.55 420.94 379.303 420.447 379.851C419.954 380.398 419.27 380.672 418.393 380.672C417.928 380.672 417.374 380.59 416.73 380.426L416.895 377.798C417.114 377.825 417.271 377.839 417.367 377.839C417.846 377.839 418.202 377.668 418.435 377.325C418.681 376.969 418.845 376.525 418.927 375.991C419.009 375.443 419.071 374.724 419.112 373.835L419.276 369.4H428.721ZM437.777 372.931C439.214 372.945 440.316 373.273 441.083 373.917C441.849 374.547 442.232 375.443 442.232 376.607C442.232 377.825 441.801 378.776 440.939 379.461C440.09 380.131 438.892 380.467 437.346 380.467L431.802 380.446V369.4H434.984V372.931H437.777ZM437.058 378.188C437.674 378.201 438.146 378.071 438.475 377.798C438.803 377.524 438.968 377.113 438.968 376.566C438.968 376.032 438.803 375.642 438.475 375.395C438.16 375.149 437.688 375.019 437.058 375.005L434.984 374.985V378.188H437.058ZM444.234 369.4H447.416V373.712H452.221V369.4H455.424V380.446H452.221V376.319H447.416V380.446H444.234V369.4ZM468.305 369.4V380.446H465.451V377.284H463.09L460.995 380.446H457.587L460.112 376.833C459.346 376.531 458.757 376.1 458.347 375.539C457.95 374.964 457.751 374.273 457.751 373.465C457.751 372.165 458.217 371.165 459.147 370.467C460.092 369.756 461.385 369.4 463.028 369.4H468.305ZM463.09 372.007C462.405 372.007 461.885 372.131 461.529 372.377C461.187 372.623 461.016 373.02 461.016 373.568C461.016 374.115 461.18 374.519 461.509 374.779C461.851 375.026 462.364 375.149 463.049 375.149H465.451V372.007H463.09Z" fill="#20201F"/>
<path d="M407.131 395.359V409.732H403.804V398.028H400.93V395.359H407.131ZM420.88 395.359V397.515L415.541 409.732H411.927L417.081 398.069H412.317V400.41H409.361V395.359H420.88ZM423.247 409.896C422.686 409.896 422.213 409.705 421.83 409.321C421.447 408.938 421.255 408.459 421.255 407.884C421.255 407.295 421.447 406.823 421.83 406.467C422.213 406.098 422.686 405.913 423.247 405.913C423.808 405.913 424.28 406.098 424.664 406.467C425.047 406.823 425.238 407.295 425.238 407.884C425.238 408.459 425.047 408.938 424.664 409.321C424.28 409.705 423.808 409.896 423.247 409.896ZM437.671 407.022V409.732H426.809V407.576L432.353 402.34C432.941 401.779 433.338 401.3 433.544 400.903C433.749 400.492 433.852 400.088 433.852 399.691C433.852 399.116 433.653 398.678 433.256 398.377C432.873 398.062 432.305 397.905 431.552 397.905C430.922 397.905 430.354 398.028 429.848 398.275C429.341 398.507 428.917 398.863 428.575 399.342L426.152 397.782C426.713 396.947 427.486 396.297 428.472 395.831C429.458 395.352 430.587 395.113 431.86 395.113C432.928 395.113 433.858 395.291 434.652 395.646C435.46 395.989 436.083 396.481 436.521 397.125C436.973 397.754 437.198 398.5 437.198 399.363C437.198 400.143 437.034 400.875 436.706 401.56C436.377 402.244 435.741 403.025 434.796 403.901L431.49 407.022H437.671ZM448.878 402.176C449.59 402.532 450.131 402.997 450.501 403.572C450.884 404.147 451.075 404.811 451.075 405.564C451.075 406.454 450.822 407.234 450.316 407.905C449.809 408.562 449.097 409.075 448.18 409.444C447.263 409.8 446.202 409.978 444.998 409.978C443.793 409.978 442.732 409.8 441.815 409.444C440.912 409.075 440.207 408.562 439.7 407.905C439.207 407.234 438.961 406.454 438.961 405.564C438.961 404.811 439.146 404.147 439.515 403.572C439.899 402.997 440.439 402.532 441.138 402.176C440.604 401.847 440.193 401.437 439.906 400.944C439.618 400.437 439.474 399.863 439.474 399.219C439.474 398.384 439.707 397.659 440.173 397.043C440.638 396.427 441.288 395.954 442.123 395.626C442.958 395.284 443.916 395.113 444.998 395.113C446.093 395.113 447.058 395.284 447.893 395.626C448.742 395.954 449.399 396.427 449.864 397.043C450.329 397.659 450.562 398.384 450.562 399.219C450.562 399.863 450.418 400.437 450.131 400.944C449.843 401.437 449.426 401.847 448.878 402.176ZM444.998 397.556C444.327 397.556 443.786 397.72 443.376 398.049C442.979 398.364 442.78 398.802 442.78 399.363C442.78 399.91 442.979 400.342 443.376 400.656C443.773 400.971 444.313 401.129 444.998 401.129C445.682 401.129 446.23 400.971 446.64 400.656C447.051 400.342 447.256 399.91 447.256 399.363C447.256 398.802 447.051 398.364 446.64 398.049C446.23 397.72 445.682 397.556 444.998 397.556ZM444.998 407.535C445.833 407.535 446.49 407.35 446.969 406.981C447.462 406.597 447.708 406.091 447.708 405.461C447.708 404.831 447.462 404.332 446.969 403.962C446.49 403.593 445.833 403.408 444.998 403.408C444.176 403.408 443.526 403.593 443.047 403.962C442.568 404.332 442.328 404.831 442.328 405.461C442.328 406.104 442.568 406.611 443.047 406.981C443.526 407.35 444.176 407.535 444.998 407.535Z" fill="#20201F"/>
<path d="M172.05 393.032H170.387V397.221H167.184V386.175H170.387V390.466H172.112L175.11 386.175H178.518L174.658 391.472L178.785 397.221H175.007L172.05 393.032ZM190.803 386.175L185.814 397.899C185.308 399.172 184.678 400.068 183.925 400.589C183.186 401.109 182.289 401.369 181.235 401.369C180.66 401.369 180.092 401.28 179.531 401.102C178.97 400.924 178.511 400.678 178.155 400.363L179.326 398.084C179.572 398.303 179.853 398.474 180.167 398.597C180.496 398.72 180.818 398.782 181.133 398.782C181.571 398.782 181.926 398.672 182.2 398.453C182.474 398.248 182.72 397.899 182.939 397.406L182.98 397.303L178.196 386.175H181.502L184.603 393.669L187.724 386.175H190.803ZM198.667 397.221L196.244 393.833L193.739 397.221H190.249L194.499 391.657L190.392 386.175H193.986L196.326 389.398L198.729 386.175H202.137L198.031 391.575L202.302 397.221H198.667ZM203.878 386.175H207.061V390.486H211.866V386.175H215.069V397.221H211.866V393.094H207.061V397.221H203.878V386.175ZM227.95 386.175V397.221H225.096V394.059H222.734L220.64 397.221H217.232L219.757 393.607C218.991 393.306 218.402 392.875 217.991 392.314C217.594 391.739 217.396 391.048 217.396 390.24C217.396 388.94 217.861 387.94 218.792 387.242C219.737 386.53 221.03 386.175 222.673 386.175H227.95ZM222.734 388.782C222.05 388.782 221.53 388.905 221.174 389.152C220.832 389.398 220.661 389.795 220.661 390.343C220.661 390.89 220.825 391.294 221.153 391.554C221.496 391.801 222.009 391.924 222.693 391.924H225.096V388.782H222.734Z" fill="#20201F"/>
<path d="M178.088 412.134V426.507H174.761V414.803H171.887V412.134H178.088ZM186.128 412.134V426.507H182.802V414.803H179.928V412.134H186.128ZM190.514 426.671C189.953 426.671 189.481 426.479 189.098 426.096C188.714 425.713 188.523 425.234 188.523 424.659C188.523 424.07 188.714 423.598 189.098 423.242C189.481 422.873 189.953 422.688 190.514 422.688C191.076 422.688 191.548 422.873 191.931 423.242C192.314 423.598 192.506 424.07 192.506 424.659C192.506 425.234 192.314 425.713 191.931 426.096C191.548 426.479 191.076 426.671 190.514 426.671ZM200.914 417.986C202.173 418.191 203.138 418.663 203.809 419.402C204.48 420.128 204.815 421.031 204.815 422.113C204.815 422.948 204.596 423.721 204.158 424.433C203.72 425.131 203.049 425.692 202.146 426.117C201.256 426.541 200.161 426.753 198.861 426.753C197.848 426.753 196.848 426.623 195.863 426.363C194.891 426.089 194.063 425.706 193.378 425.213L194.672 422.667C195.219 423.078 195.849 423.4 196.561 423.632C197.286 423.851 198.026 423.961 198.778 423.961C199.613 423.961 200.27 423.803 200.75 423.489C201.229 423.16 201.468 422.701 201.468 422.113C201.468 420.936 200.572 420.347 198.778 420.347H197.259V418.15L200.216 414.803H194.097V412.134H204.158V414.29L200.914 417.986ZM216.186 418.951C216.898 419.307 217.439 419.772 217.808 420.347C218.191 420.922 218.383 421.586 218.383 422.339C218.383 423.228 218.13 424.009 217.623 424.679C217.117 425.336 216.405 425.85 215.488 426.219C214.571 426.575 213.51 426.753 212.305 426.753C211.101 426.753 210.04 426.575 209.123 426.219C208.219 425.85 207.514 425.336 207.008 424.679C206.515 424.009 206.269 423.228 206.269 422.339C206.269 421.586 206.454 420.922 206.823 420.347C207.206 419.772 207.747 419.307 208.445 418.951C207.911 418.622 207.501 418.212 207.213 417.719C206.926 417.212 206.782 416.637 206.782 415.994C206.782 415.159 207.015 414.434 207.48 413.818C207.946 413.202 208.596 412.729 209.431 412.401C210.266 412.059 211.224 411.887 212.305 411.887C213.4 411.887 214.366 412.059 215.201 412.401C216.049 412.729 216.706 413.202 217.172 413.818C217.637 414.434 217.87 415.159 217.87 415.994C217.87 416.637 217.726 417.212 217.439 417.719C217.151 418.212 216.734 418.622 216.186 418.951ZM212.305 414.331C211.635 414.331 211.094 414.495 210.683 414.824C210.286 415.139 210.088 415.577 210.088 416.138C210.088 416.685 210.286 417.117 210.683 417.431C211.08 417.746 211.621 417.904 212.305 417.904C212.99 417.904 213.537 417.746 213.948 417.431C214.359 417.117 214.564 416.685 214.564 416.138C214.564 415.577 214.359 415.139 213.948 414.824C213.537 414.495 212.99 414.331 212.305 414.331ZM212.305 424.31C213.14 424.31 213.797 424.125 214.277 423.755C214.769 423.372 215.016 422.866 215.016 422.236C215.016 421.606 214.769 421.107 214.277 420.737C213.797 420.368 213.14 420.183 212.305 420.183C211.484 420.183 210.834 420.368 210.355 420.737C209.876 421.107 209.636 421.606 209.636 422.236C209.636 422.879 209.876 423.386 210.355 423.755C210.834 424.125 211.484 424.31 212.305 424.31Z" fill="#20201F"/>
<path d="M184.069 441.42V455.793H180.743V444.089H177.869V441.42H184.069ZM192.11 441.42V455.793H188.784V444.089H185.909V441.42H192.11ZM196.496 455.957C195.935 455.957 195.463 455.766 195.079 455.382C194.696 454.999 194.504 454.52 194.504 453.945C194.504 453.356 194.696 452.884 195.079 452.528C195.463 452.159 195.935 451.974 196.496 451.974C197.057 451.974 197.529 452.159 197.913 452.528C198.296 452.884 198.488 453.356 198.488 453.945C198.488 454.52 198.296 454.999 197.913 455.382C197.529 455.766 197.057 455.957 196.496 455.957ZM205.204 441.42V455.793H201.878V444.089H199.003V441.42H205.204ZM217.536 448.237C218.248 448.593 218.788 449.058 219.158 449.633C219.541 450.208 219.733 450.872 219.733 451.625C219.733 452.515 219.48 453.295 218.973 453.966C218.467 454.623 217.755 455.136 216.838 455.506C215.921 455.861 214.86 456.039 213.655 456.039C212.451 456.039 211.39 455.861 210.473 455.506C209.569 455.136 208.864 454.623 208.358 453.966C207.865 453.295 207.619 452.515 207.619 451.625C207.619 450.872 207.803 450.208 208.173 449.633C208.556 449.058 209.097 448.593 209.795 448.237C209.261 447.908 208.85 447.498 208.563 447.005C208.276 446.498 208.132 445.924 208.132 445.28C208.132 444.445 208.365 443.72 208.83 443.104C209.295 442.488 209.946 442.015 210.781 441.687C211.616 441.345 212.574 441.174 213.655 441.174C214.75 441.174 215.715 441.345 216.55 441.687C217.399 442.015 218.056 442.488 218.521 443.104C218.987 443.72 219.22 444.445 219.22 445.28C219.22 445.924 219.076 446.498 218.788 447.005C218.501 447.498 218.083 447.908 217.536 448.237ZM213.655 443.617C212.984 443.617 212.444 443.781 212.033 444.11C211.636 444.425 211.438 444.863 211.438 445.424C211.438 445.971 211.636 446.403 212.033 446.717C212.43 447.032 212.971 447.19 213.655 447.19C214.34 447.19 214.887 447.032 215.298 446.717C215.708 446.403 215.914 445.971 215.914 445.424C215.914 444.863 215.708 444.425 215.298 444.11C214.887 443.781 214.34 443.617 213.655 443.617ZM213.655 453.596C214.49 453.596 215.147 453.411 215.626 453.042C216.119 452.658 216.366 452.152 216.366 451.522C216.366 450.892 216.119 450.393 215.626 450.023C215.147 449.654 214.49 449.469 213.655 449.469C212.834 449.469 212.184 449.654 211.705 450.023C211.225 450.393 210.986 450.892 210.986 451.522C210.986 452.166 211.225 452.672 211.705 453.042C212.184 453.411 212.834 453.596 213.655 453.596Z" fill="#20201F"/>
<path d="M374.727 158.179L371.721 154.219L368.697 158.179H367.257L371.001 153.319L367.437 148.711H368.877L371.721 152.419L374.565 148.711H375.969L372.405 153.319L376.185 158.179H374.727ZM381.852 158.269C380.94 158.269 380.118 158.065 379.386 157.657C378.654 157.237 378.078 156.661 377.658 155.929C377.238 155.197 377.028 154.369 377.028 153.445C377.028 152.521 377.238 151.693 377.658 150.961C378.078 150.229 378.654 149.659 379.386 149.251C380.118 148.843 380.94 148.639 381.852 148.639C382.764 148.639 383.586 148.843 384.318 149.251C385.05 149.659 385.62 150.229 386.028 150.961C386.448 151.693 386.658 152.521 386.658 153.445C386.658 154.369 386.448 155.197 386.028 155.929C385.62 156.661 385.05 157.237 384.318 157.657C383.586 158.065 382.764 158.269 381.852 158.269ZM381.852 157.135C382.524 157.135 383.124 156.985 383.652 156.685C384.192 156.373 384.612 155.935 384.912 155.371C385.212 154.807 385.362 154.165 385.362 153.445C385.362 152.725 385.212 152.083 384.912 151.519C384.612 150.955 384.192 150.523 383.652 150.223C383.124 149.911 382.524 149.755 381.852 149.755C381.18 149.755 380.574 149.911 380.034 150.223C379.506 150.523 379.086 150.955 378.774 151.519C378.474 152.083 378.324 152.725 378.324 153.445C378.324 154.165 378.474 154.807 378.774 155.371C379.086 155.935 379.506 156.373 380.034 156.685C380.574 156.985 381.18 157.135 381.852 157.135ZM397.077 148.711V158.179H395.799V149.845H391.263L391.137 152.185C391.041 154.153 390.813 155.665 390.453 156.721C390.093 157.777 389.451 158.305 388.527 158.305C388.275 158.305 387.969 158.257 387.609 158.161L387.699 157.063C387.915 157.111 388.065 157.135 388.149 157.135C388.641 157.135 389.013 156.907 389.265 156.451C389.517 155.995 389.685 155.431 389.769 154.759C389.853 154.087 389.925 153.199 389.985 152.095L390.147 148.711H397.077ZM408.45 148.711V158.179H407.172V149.845H402.636L402.51 152.185C402.414 154.153 402.186 155.665 401.826 156.721C401.466 157.777 400.824 158.305 399.9 158.305C399.648 158.305 399.342 158.257 398.982 158.161L399.072 157.063C399.288 157.111 399.438 157.135 399.522 157.135C400.014 157.135 400.386 156.907 400.638 156.451C400.89 155.995 401.058 155.431 401.142 154.759C401.226 154.087 401.298 153.199 401.358 152.095L401.52 148.711H408.45Z" fill="black"/>
<path d="M375.127 171.068C376.795 171.068 378.073 171.62 378.961 172.724C379.849 173.816 380.293 175.364 380.293 177.368C380.293 178.772 380.053 179.96 379.573 180.932C379.093 181.904 378.421 182.642 377.557 183.146C376.693 183.638 375.685 183.884 374.533 183.884C373.285 183.884 372.289 183.656 371.545 183.2L372.067 182.156C372.667 182.552 373.483 182.75 374.515 182.75C375.907 182.75 376.999 182.312 377.791 181.436C378.583 180.548 378.979 179.264 378.979 177.584C378.979 177.272 378.961 176.93 378.925 176.558C378.613 177.242 378.115 177.776 377.431 178.16C376.747 178.532 375.961 178.718 375.073 178.718C374.245 178.718 373.507 178.562 372.859 178.25C372.223 177.938 371.725 177.5 371.365 176.936C371.005 176.36 370.825 175.694 370.825 174.938C370.825 174.17 371.011 173.492 371.383 172.904C371.755 172.316 372.265 171.866 372.913 171.554C373.573 171.23 374.311 171.068 375.127 171.068ZM375.271 177.62C375.907 177.62 376.465 177.5 376.945 177.26C377.437 177.02 377.821 176.69 378.097 176.27C378.373 175.85 378.511 175.382 378.511 174.866C378.511 174.386 378.379 173.942 378.115 173.534C377.863 173.126 377.485 172.796 376.981 172.544C376.477 172.292 375.877 172.166 375.181 172.166C374.269 172.166 373.525 172.418 372.949 172.922C372.385 173.414 372.103 174.074 372.103 174.902C372.103 175.73 372.385 176.39 372.949 176.882C373.525 177.374 374.299 177.62 375.271 177.62ZM382.95 183.866C382.686 183.866 382.458 183.77 382.266 183.578C382.086 183.386 381.996 183.152 381.996 182.876C381.996 182.6 382.086 182.372 382.266 182.192C382.458 182 382.686 181.904 382.95 181.904C383.214 181.904 383.442 182 383.634 182.192C383.826 182.372 383.922 182.6 383.922 182.876C383.922 183.152 383.826 183.386 383.634 183.578C383.442 183.77 383.214 183.866 382.95 183.866ZM389.717 171.068C391.385 171.068 392.663 171.62 393.551 172.724C394.439 173.816 394.883 175.364 394.883 177.368C394.883 178.772 394.643 179.96 394.163 180.932C393.683 181.904 393.011 182.642 392.147 183.146C391.283 183.638 390.275 183.884 389.123 183.884C387.875 183.884 386.879 183.656 386.135 183.2L386.657 182.156C387.257 182.552 388.073 182.75 389.105 182.75C390.497 182.75 391.589 182.312 392.381 181.436C393.173 180.548 393.569 179.264 393.569 177.584C393.569 177.272 393.551 176.93 393.515 176.558C393.203 177.242 392.705 177.776 392.021 178.16C391.337 178.532 390.551 178.718 389.663 178.718C388.835 178.718 388.097 178.562 387.449 178.25C386.813 177.938 386.315 177.5 385.955 176.936C385.595 176.36 385.415 175.694 385.415 174.938C385.415 174.17 385.601 173.492 385.973 172.904C386.345 172.316 386.855 171.866 387.503 171.554C388.163 171.23 388.901 171.068 389.717 171.068ZM389.861 177.62C390.497 177.62 391.055 177.5 391.535 177.26C392.027 177.02 392.411 176.69 392.687 176.27C392.963 175.85 393.101 175.382 393.101 174.866C393.101 174.386 392.969 173.942 392.705 173.534C392.453 173.126 392.075 172.796 391.571 172.544C391.067 172.292 390.467 172.166 389.771 172.166C388.859 172.166 388.115 172.418 387.539 172.922C386.975 173.414 386.693 174.074 386.693 174.902C386.693 175.73 386.975 176.39 387.539 176.882C388.115 177.374 388.889 177.62 389.861 177.62ZM405.331 182.624V183.776H396.493V182.858L401.731 177.728C402.391 177.08 402.835 176.522 403.063 176.054C403.303 175.574 403.423 175.094 403.423 174.614C403.423 173.87 403.165 173.294 402.649 172.886C402.145 172.466 401.419 172.256 400.471 172.256C398.995 172.256 397.849 172.724 397.033 173.66L396.115 172.868C396.607 172.292 397.231 171.848 397.987 171.536C398.755 171.224 399.619 171.068 400.579 171.068C401.863 171.068 402.877 171.374 403.621 171.986C404.377 172.586 404.755 173.414 404.755 174.47C404.755 175.118 404.611 175.742 404.323 176.342C404.035 176.942 403.489 177.632 402.685 178.412L398.401 182.624H405.331Z" fill="black"/>
<path d="M665.558 465.151V474.619H664.28V466.285H659.744L659.618 468.625C659.522 470.593 659.294 472.105 658.934 473.161C658.574 474.217 657.932 474.745 657.008 474.745C656.756 474.745 656.45 474.697 656.09 474.601L656.18 473.503C656.396 473.551 656.546 473.575 656.63 473.575C657.122 473.575 657.494 473.347 657.746 472.891C657.998 472.435 658.166 471.871 658.25 471.199C658.334 470.527 658.406 469.639 658.466 468.535L658.628 465.151H665.558ZM673.097 474.709C672.185 474.709 671.363 474.505 670.631 474.097C669.899 473.677 669.323 473.101 668.903 472.369C668.483 471.637 668.273 470.809 668.273 469.885C668.273 468.961 668.483 468.133 668.903 467.401C669.323 466.669 669.899 466.099 670.631 465.691C671.363 465.283 672.185 465.079 673.097 465.079C674.009 465.079 674.831 465.283 675.563 465.691C676.295 466.099 676.865 466.669 677.273 467.401C677.693 468.133 677.903 468.961 677.903 469.885C677.903 470.809 677.693 471.637 677.273 472.369C676.865 473.101 676.295 473.677 675.563 474.097C674.831 474.505 674.009 474.709 673.097 474.709ZM673.097 473.575C673.769 473.575 674.369 473.425 674.897 473.125C675.437 472.813 675.857 472.375 676.157 471.811C676.457 471.247 676.607 470.605 676.607 469.885C676.607 469.165 676.457 468.523 676.157 467.959C675.857 467.395 675.437 466.963 674.897 466.663C674.369 466.351 673.769 466.195 673.097 466.195C672.425 466.195 671.819 466.351 671.279 466.663C670.751 466.963 670.331 467.395 670.019 467.959C669.719 468.523 669.569 469.165 669.569 469.885C669.569 470.605 669.719 471.247 670.019 471.811C670.331 472.375 670.751 472.813 671.279 473.125C671.819 473.425 672.425 473.575 673.097 473.575ZM689.816 473.503V476.905H688.61V474.619H680.132V476.905H678.926V473.503H679.466C680.102 473.467 680.534 472.999 680.762 472.099C680.99 471.199 681.146 469.939 681.23 468.319L681.356 465.151H688.34V473.503H689.816ZM682.4 468.391C682.34 469.735 682.226 470.845 682.058 471.721C681.89 472.585 681.59 473.179 681.158 473.503H687.062V466.285H682.508L682.4 468.391ZM700.605 470.407H698.553V474.619H697.275V470.407H695.223L692.325 474.619H690.795L694.197 469.741L691.065 465.151H692.451L695.223 469.309H697.275V465.151H698.553V469.309H700.605L703.395 465.151H704.781L701.649 469.759L705.051 474.619H703.521L700.605 470.407ZM707.178 465.151H708.456V472.675L714.774 465.151H715.908V474.619H714.63V467.095L708.33 474.619H707.178V465.151ZM726.843 465.151V474.619H725.673V471.487H722.703H722.343L720.147 474.619H718.761L721.119 471.307C720.387 471.103 719.823 470.755 719.427 470.263C719.031 469.771 718.833 469.147 718.833 468.391C718.833 467.335 719.193 466.531 719.913 465.979C720.633 465.427 721.617 465.151 722.865 465.151H726.843ZM720.129 468.427C720.129 469.831 721.023 470.533 722.811 470.533H725.673V466.285H722.901C721.053 466.285 720.129 466.999 720.129 468.427Z" fill="black"/>
<path d="M690.646 500.593H688.126V503.905H686.83V500.593H679.72V499.657L686.398 491.305H687.838L681.394 499.441H686.866V496.525H688.126V499.441H690.646V500.593ZM693.16 503.995C692.896 503.995 692.668 503.899 692.476 503.707C692.296 503.515 692.206 503.281 692.206 503.005C692.206 502.729 692.296 502.501 692.476 502.321C692.668 502.129 692.896 502.033 693.16 502.033C693.424 502.033 693.652 502.129 693.844 502.321C694.036 502.501 694.132 502.729 694.132 503.005C694.132 503.281 694.036 503.515 693.844 503.707C693.652 503.899 693.424 503.995 693.16 503.995ZM701.029 496.363C701.857 496.363 702.589 496.519 703.225 496.831C703.873 497.143 704.377 497.587 704.737 498.163C705.097 498.727 705.277 499.387 705.277 500.143C705.277 500.911 705.091 501.589 704.719 502.177C704.347 502.765 703.831 503.221 703.171 503.545C702.523 503.857 701.791 504.013 700.975 504.013C699.307 504.013 698.029 503.467 697.141 502.375C696.253 501.271 695.809 499.717 695.809 497.713C695.809 496.309 696.049 495.121 696.529 494.149C697.009 493.177 697.681 492.445 698.545 491.953C699.409 491.449 700.417 491.197 701.569 491.197C702.817 491.197 703.813 491.425 704.557 491.881L704.035 492.925C703.435 492.529 702.619 492.331 701.587 492.331C700.195 492.331 699.103 492.775 698.311 493.663C697.519 494.539 697.123 495.817 697.123 497.497C697.123 497.797 697.141 498.139 697.177 498.523C697.489 497.839 697.987 497.311 698.671 496.939C699.355 496.555 700.141 496.363 701.029 496.363ZM700.921 502.915C701.833 502.915 702.571 502.669 703.135 502.177C703.711 501.673 703.999 501.007 703.999 500.179C703.999 499.351 703.711 498.691 703.135 498.199C702.571 497.707 701.803 497.461 700.831 497.461C700.195 497.461 699.631 497.581 699.139 497.821C698.659 498.061 698.281 498.391 698.005 498.811C697.729 499.231 697.591 499.699 697.591 500.215C697.591 500.695 697.717 501.139 697.969 501.547C698.233 501.955 698.617 502.285 699.121 502.537C699.625 502.789 700.225 502.915 700.921 502.915ZM717.488 500.593H714.968V503.905H713.672V500.593H706.562V499.657L713.24 491.305H714.68L708.236 499.441H713.708V496.525H714.968V499.441H717.488V500.593Z" fill="black"/>
<path d="M436.113 98.8872V100.039H427.275V99.1212L432.513 93.9912C433.173 93.3432 433.617 92.7852 433.845 92.3172C434.085 91.8372 434.205 91.3572 434.205 90.8772C434.205 90.1332 433.947 89.5572 433.431 89.1492C432.927 88.7292 432.201 88.5192 431.253 88.5192C429.777 88.5192 428.631 88.9872 427.815 89.9232L426.897 89.1312C427.389 88.5552 428.013 88.1112 428.769 87.7992C429.537 87.4872 430.401 87.3312 431.361 87.3312C432.645 87.3312 433.659 87.6372 434.403 88.2492C435.159 88.8492 435.537 89.6772 435.537 90.7332C435.537 91.3812 435.393 92.0052 435.105 92.6052C434.817 93.2052 434.271 93.8952 433.467 94.6752L429.183 98.8872H436.113ZM438.887 100.129C438.623 100.129 438.395 100.033 438.203 99.8412C438.023 99.6492 437.933 99.4152 437.933 99.1392C437.933 98.8632 438.023 98.6352 438.203 98.4552C438.395 98.2632 438.623 98.1672 438.887 98.1672C439.151 98.1672 439.379 98.2632 439.571 98.4552C439.763 98.6352 439.859 98.8632 439.859 99.1392C439.859 99.4152 439.763 99.6492 439.571 99.8412C439.379 100.033 439.151 100.129 438.887 100.129ZM445.653 87.3312C447.321 87.3312 448.599 87.8832 449.487 88.9872C450.375 90.0792 450.819 91.6272 450.819 93.6312C450.819 95.0352 450.579 96.2232 450.099 97.1952C449.619 98.1672 448.947 98.9052 448.083 99.4092C447.219 99.9012 446.211 100.147 445.059 100.147C443.811 100.147 442.815 99.9192 442.071 99.4632L442.593 98.4192C443.193 98.8152 444.009 99.0132 445.041 99.0132C446.433 99.0132 447.525 98.5752 448.317 97.6992C449.109 96.8112 449.505 95.5272 449.505 93.8472C449.505 93.5352 449.487 93.1932 449.451 92.8212C449.139 93.5052 448.641 94.0392 447.957 94.4232C447.273 94.7952 446.487 94.9812 445.599 94.9812C444.771 94.9812 444.033 94.8252 443.385 94.5132C442.749 94.2012 442.251 93.7632 441.891 93.1992C441.531 92.6232 441.351 91.9572 441.351 91.2012C441.351 90.4332 441.537 89.7552 441.909 89.1672C442.281 88.5792 442.791 88.1292 443.439 87.8172C444.099 87.4932 444.837 87.3312 445.653 87.3312ZM445.797 93.8832C446.433 93.8832 446.991 93.7632 447.471 93.5232C447.963 93.2832 448.347 92.9532 448.623 92.5332C448.899 92.1132 449.037 91.6452 449.037 91.1292C449.037 90.6492 448.905 90.2052 448.641 89.7972C448.389 89.3892 448.011 89.0592 447.507 88.8072C447.003 88.5552 446.403 88.4292 445.707 88.4292C444.795 88.4292 444.051 88.6812 443.475 89.1852C442.911 89.6772 442.629 90.3372 442.629 91.1652C442.629 91.9932 442.911 92.6532 443.475 93.1452C444.051 93.6372 444.825 93.8832 445.797 93.8832ZM456.155 87.4392V100.039H454.859V88.5912H451.889V87.4392H456.155Z" fill="black"/>
<path d="M131.552 193.822C132.38 193.822 133.112 193.978 133.748 194.29C134.396 194.602 134.9 195.046 135.26 195.622C135.62 196.186 135.8 196.846 135.8 197.602C135.8 198.37 135.614 199.048 135.242 199.636C134.87 200.224 134.354 200.68 133.694 201.004C133.046 201.316 132.314 201.472 131.498 201.472C129.83 201.472 128.552 200.926 127.664 199.834C126.776 198.73 126.332 197.176 126.332 195.172C126.332 193.768 126.572 192.58 127.052 191.608C127.532 190.636 128.204 189.904 129.068 189.412C129.932 188.908 130.94 188.656 132.092 188.656C133.34 188.656 134.336 188.884 135.08 189.34L134.558 190.384C133.958 189.988 133.142 189.79 132.11 189.79C130.718 189.79 129.626 190.234 128.834 191.122C128.042 191.998 127.646 193.276 127.646 194.956C127.646 195.256 127.664 195.598 127.7 195.982C128.012 195.298 128.51 194.77 129.194 194.398C129.878 194.014 130.664 193.822 131.552 193.822ZM131.444 200.374C132.356 200.374 133.094 200.128 133.658 199.636C134.234 199.132 134.522 198.466 134.522 197.638C134.522 196.81 134.234 196.15 133.658 195.658C133.094 195.166 132.326 194.92 131.354 194.92C130.718 194.92 130.154 195.04 129.662 195.28C129.182 195.52 128.804 195.85 128.528 196.27C128.252 196.69 128.114 197.158 128.114 197.674C128.114 198.154 128.24 198.598 128.492 199.006C128.756 199.414 129.14 199.744 129.644 199.996C130.148 200.248 130.748 200.374 131.444 200.374ZM138.448 201.454C138.184 201.454 137.956 201.358 137.764 201.166C137.584 200.974 137.494 200.74 137.494 200.464C137.494 200.188 137.584 199.96 137.764 199.78C137.956 199.588 138.184 199.492 138.448 199.492C138.712 199.492 138.94 199.588 139.132 199.78C139.324 199.96 139.42 200.188 139.42 200.464C139.42 200.74 139.324 200.974 139.132 201.166C138.94 201.358 138.712 201.454 138.448 201.454ZM144.572 188.764V201.364H143.276V189.916H140.306V188.764H144.572ZM152.803 193.822C153.631 193.822 154.363 193.978 154.999 194.29C155.647 194.602 156.151 195.046 156.511 195.622C156.871 196.186 157.051 196.846 157.051 197.602C157.051 198.37 156.865 199.048 156.493 199.636C156.121 200.224 155.605 200.68 154.945 201.004C154.297 201.316 153.565 201.472 152.749 201.472C151.081 201.472 149.803 200.926 148.915 199.834C148.027 198.73 147.583 197.176 147.583 195.172C147.583 193.768 147.823 192.58 148.303 191.608C148.783 190.636 149.455 189.904 150.319 189.412C151.183 188.908 152.191 188.656 153.343 188.656C154.591 188.656 155.587 188.884 156.331 189.34L155.809 190.384C155.209 189.988 154.393 189.79 153.361 189.79C151.969 189.79 150.877 190.234 150.085 191.122C149.293 191.998 148.897 193.276 148.897 194.956C148.897 195.256 148.915 195.598 148.951 195.982C149.263 195.298 149.761 194.77 150.445 194.398C151.129 194.014 151.915 193.822 152.803 193.822ZM152.695 200.374C153.607 200.374 154.345 200.128 154.909 199.636C155.485 199.132 155.773 198.466 155.773 197.638C155.773 196.81 155.485 196.15 154.909 195.658C154.345 195.166 153.577 194.92 152.605 194.92C151.969 194.92 151.405 195.04 150.913 195.28C150.433 195.52 150.055 195.85 149.779 196.27C149.503 196.69 149.365 197.158 149.365 197.674C149.365 198.154 149.491 198.598 149.743 199.006C150.007 199.414 150.391 199.744 150.895 199.996C151.399 200.248 151.999 200.374 152.695 200.374Z" fill="#20201F"/>
</g>
<defs>
<clipPath id="clip0_2384_28726">
<rect width="800" height="505.152" fill="white" transform="translate(50 47)"/>
</clipPath>
</defs>
</svg>
