<svg width="25" height="25" viewBox="0 0 25 25" fill="none" xmlns="http://www.w3.org/2000/svg">
<g clip-path="url(#clip0_5225_2837)">
<path d="M25 12.5C24.9983 15.8141 23.6805 18.9918 21.3365 21.3346C18.9925 23.6774 15.8141 24.9934 12.5 24.9934C9.18594 24.9934 6.00754 23.6774 3.66352 21.3346C1.31951 18.9918 0.00175151 15.8141 1.74436e-06 12.5C-0.000865768 10.8583 0.321852 9.2324 0.949728 7.71544C1.5776 6.19848 2.49835 4.82012 3.65925 3.65921C4.82016 2.49831 6.19848 1.57765 7.71544 0.949769C9.2324 0.321892 10.8582 -0.000865769 12.5 1.74414e-06C14.1418 -0.000865769 15.7676 0.321892 17.2846 0.949769C18.8015 1.57765 20.1799 2.49831 21.3408 3.65921C22.5017 4.82012 23.4224 6.19848 24.0503 7.71544C24.6782 9.2324 25.0009 10.8583 25 12.5Z" fill="#A5BCCF"/>
<path fill-rule="evenodd" clip-rule="evenodd" d="M19.6923 17.0866H17.7123C17.0524 17.0866 16.9995 16.6247 15.838 15.5159C14.8546 14.5457 14.4322 14.4665 14.1946 14.4665C13.957 14.4665 13.8383 14.6315 13.8383 14.9945V16.4794C13.8383 16.915 13.5875 17.0866 12.5579 17.0866C10.8618 17.0866 8.9874 16.0439 7.56185 14.1101C5.43012 11.2458 4.92194 9.10087 4.92194 8.63888C4.92097 8.58202 4.93168 8.52556 4.9534 8.473C4.97512 8.42044 5.00739 8.37289 5.04822 8.3333C5.08905 8.29371 5.13753 8.26292 5.19074 8.24283C5.24394 8.22274 5.3007 8.21377 5.3575 8.21648H7.08664C7.54203 8.21648 7.71363 8.34851 7.87202 8.82369C8.664 11.1534 10.0763 13.1994 10.6703 13.1994C10.8947 13.1994 10.9211 13.0146 10.9211 12.5394V10.1701C10.9211 9.02831 10.2611 8.9293 10.2611 8.50692C10.2626 8.46461 10.273 8.42303 10.2914 8.38494C10.3099 8.34685 10.3361 8.31312 10.3685 8.28577C10.4008 8.25842 10.4384 8.23807 10.4791 8.22615C10.5197 8.21423 10.5624 8.21094 10.6043 8.21648H13.3829C13.7525 8.21648 13.8052 8.34848 13.8052 8.79727V12.0114C13.8052 12.3744 13.8845 12.513 14.0428 12.513C14.2012 12.513 14.4322 12.3876 14.7952 11.985C15.6191 10.9899 16.3173 9.89706 16.8741 8.73129C16.9246 8.59961 17.0159 8.48762 17.1346 8.41161C17.2534 8.3356 17.3934 8.29956 17.5341 8.30889H19.2633C19.6131 8.30889 19.7583 8.4937 19.6923 8.82369C19.4877 9.74766 17.4945 12.5658 17.4945 12.5658C17.3097 12.8562 17.2305 13.0146 17.4945 13.2918C17.7585 13.569 18.2601 14.0441 18.6165 14.5259C19.4877 15.4499 20.0619 16.2287 20.0619 16.6642C20.0751 16.9942 19.8903 17.0866 19.6923 17.0866Z" fill="white"/>
</g>
<defs>
<clipPath id="clip0_5225_2837">
<rect width="25" height="25" fill="white"/>
</clipPath>
</defs>
</svg>
