<svg width="938" height="727" viewBox="0 0 938 727" fill="none" xmlns="http://www.w3.org/2000/svg">
<rect width="938" height="727" fill="white"/>
<g clip-path="url(#clip0_2561_22863)">
<path d="M33.4882 135.647H14V650.97H33.4882V135.647Z" fill="#C6C0E1"/>
<path fill-rule="evenodd" clip-rule="evenodd" d="M14 135.647H337.605V76H924V528.298H920.102V611.831L631.589 637.588V651H14V135.647Z" fill="#ED9FA6"/>
<path d="M924 76H337.605V93.0462H924V76Z" fill="#ED9FA6"/>
<path d="M33.4882 135.647H14V650.97H33.4882V135.647Z" fill="#FFF9D0"/>
<path d="M924 76H337.605V93.0462H924V76Z" fill="#FFF9D0"/>
<path fill-rule="evenodd" clip-rule="evenodd" d="M14 135.647H337.605V76H924V528.298H920.102V611.831L631.589 637.588V651H14V135.647Z" fill="#E4CDA1"/>
<path d="M903.726 435.585H876.431V510.574H903.726V435.585Z" fill="#20201F"/>
<path d="M611.314 591.692H584.02V633.276H611.314V591.692Z" fill="#20201F"/>
<path d="M349.309 592.369H302.515V633.276H349.309V592.369Z" fill="#20201F"/>
<path d="M33.4882 616.23H14V633.276H33.4882V616.23Z" fill="#20201F"/>
<path d="M903.726 76H876.431V435.585H903.726V76Z" fill="#20201F"/>
<path d="M611.314 445.807H584.02V591.692H611.314V445.807Z" fill="#20201F"/>
<path d="M222.978 135.647H203.489V248.126H222.978V135.647Z" fill="#20201F"/>
<path d="M611.314 76H584.02V167.319H611.314V76Z" fill="#20201F"/>
<path d="M33.4882 135.647H14V616.23H33.4882V135.647Z" fill="#20201F"/>
<path d="M33.4882 135.647H14V152.693H33.4882V135.647Z" fill="#20201F"/>
<path d="M100.556 616.23H14V642.133H100.556V616.23Z" fill="#20201F"/>
<path d="M381.276 616.23H264.312V642.133H381.276V616.23Z" fill="#20201F"/>
<path d="M584.02 616.23H545.032V642.133H584.02V616.23Z" fill="#20201F"/>
<path d="M641.72 493.528H611.314V519.431H641.72V493.528Z" fill="#20201F"/>
<path d="M876.431 493.528H813.272V520.109H876.431V493.528Z" fill="#20201F"/>
<path d="M876.431 76H611.314V93.0462H876.431V76Z" fill="#20201F"/>
<path d="M584.02 76H357.104V93.0462H584.02V76Z" fill="#20201F"/>
<path d="M357.104 76H337.605V167.319H357.104V76Z" fill="#20201F"/>
<path d="M924 76H914.644V528.298H924V76Z" fill="#20201F"/>
<path d="M914.644 520.109H813.272V528.298H914.644V520.109Z" fill="#20201F"/>
<path d="M641.72 519.431H611.314V528.298H641.72V519.431Z" fill="#20201F"/>
<path d="M631.589 528.298H622.221V651H631.589V528.298Z" fill="#20201F"/>
<path d="M622.221 642.133H540.348V651H622.221V642.133Z" fill="#20201F"/>
<path d="M385.949 642.133H259.629V651H385.949V642.133Z" fill="#20201F"/>
<path d="M105.229 642.133H14V651H105.229V642.133Z" fill="#20201F"/>
<path d="M917.366 76H899.055V84.3867H917.366V76Z" fill="#20201F"/>
<path d="M919.563 82.7856H898.323V520.109H919.563V82.7856Z" fill="#20201F"/>
<path d="M906.746 507.361H871.504V523.297H906.746V507.361Z" fill="#20201F"/>
<path d="M622.221 522.977H603.522V646.567H622.221V522.977Z" fill="#20201F"/>
<path d="M612.872 626.568H575.937V646.566H612.872V626.568Z" fill="#20201F"/>
<path fill-rule="evenodd" clip-rule="evenodd" d="M631.589 629.364V637.587L920.102 611.831V528.298H910.746V604.124L631.589 629.364Z" fill="#20201F"/>
<path d="M203.49 135.647H33.4882V143.826H203.49V135.647Z" fill="#20201F"/>
<path d="M105.229 143.826H95.8725V178.596H105.229V143.826Z" fill="#20201F"/>
<path d="M203.49 178.596H33.4882V186.775H203.49V178.596Z" fill="#20201F"/>
<path d="M222.978 248.126H216.744V266.033H222.978V248.126Z" fill="#20201F"/>
<path d="M222.978 313.755H216.744V391.28H222.978V313.755Z" fill="#20201F"/>
<path d="M226.3 385.821H216.744V391.28H226.3V385.821Z" fill="#20201F"/>
<path d="M216.744 385.821H149.676V391.28H216.744V385.821Z" fill="#20201F"/>
<path d="M149.676 385.821H33.4882V391.28H149.676V385.821Z" fill="#20201F"/>
<path d="M308.76 260.642H302.515V307.932H308.76V260.642Z" fill="#20201F"/>
<path d="M325.912 260.642H302.515V266.092H325.912V260.642Z" fill="#20201F"/>
<path d="M308.76 313.203H302.515V320.347H308.76V313.203Z" fill="#20201F"/>
<path d="M473.701 307.908H302.593V313.357H473.701V307.908Z" fill="#20201F"/>
<path d="M605.335 307.628H590.663V313.068H605.335V307.628Z" fill="#20201F"/>
<path d="M616.629 260.642H442.874V266.092H616.629V260.642Z" fill="#20201F"/>
<path d="M463.328 266.092H457.066V307.908H463.328V266.092Z" fill="#20201F"/>
<path d="M611.314 247.506H605.069V313.058H611.314V247.506Z" fill="#20201F"/>
<path d="M611.314 313.058H605.069V445.807H611.314V313.058Z" fill="#20201F"/>
<path d="M302.515 385.821H288.685V391.28H302.515V385.821Z" fill="#20201F"/>
<path d="M308.76 381.698H302.515V397.069H308.76V381.698Z" fill="#20201F"/>
<path d="M308.76 397.069H302.515V592.369H308.76V397.069Z" fill="#20201F"/>
<path d="M241.17 135.647H222.978V152.693H241.17V135.647Z" fill="#20201F"/>
<path d="M337.605 135.647H319.146V152.693H337.605V135.647Z" fill="#20201F"/>
<path d="M360.658 167.319H337.605V172.769H360.658V167.319Z" fill="#20201F"/>
<path d="M427.716 167.319H360.658V172.769H427.716V167.319Z" fill="#20201F"/>
<path d="M444.192 167.319H427.716V172.769H444.192V167.319Z" fill="#20201F"/>
<path d="M611.314 167.319H498.781V172.769H611.314V167.319Z" fill="#20201F"/>
<path d="M611.314 172.769H605.069V186.156H611.314V172.769Z" fill="#20201F"/>
<path d="M540.359 646.585H385.949V650.97H540.359V646.585Z" fill="#20201F"/>
<path d="M545.032 637.747H381.275V642.131H545.032V637.747Z" fill="#20201F"/>
<path d="M545.032 616.228H381.275V620.612H545.032V616.228Z" fill="#20201F"/>
<path d="M813.272 523.883H704.105V528.268H813.272V523.883Z" fill="#20201F"/>
<path d="M813.272 515.045H704.105V519.429H813.272V515.045Z" fill="#20201F"/>
<path d="M813.272 493.526H704.104V497.91H813.272V493.526Z" fill="#20201F"/>
<path d="M259.638 646.585H105.228V650.97H259.638V646.585Z" fill="#20201F"/>
<path d="M264.312 637.747H100.554V642.131H264.312V637.747Z" fill="#20201F"/>
<path d="M264.312 616.228H100.554V620.612H264.312V616.228Z" fill="#20201F"/>
<path d="M707.785 493.526H704.104V528.292H707.785V493.526Z" fill="#20201F"/>
<path fill-rule="evenodd" clip-rule="evenodd" d="M648.982 506.793C648.982 507.862 647.99 508.729 646.767 508.729C645.545 508.729 644.553 507.862 644.553 506.793V465.82C644.553 464.751 645.545 463.884 646.767 463.884C647.99 463.884 648.982 464.751 648.982 465.82V506.793Z" fill="#20201F"/>
<path fill-rule="evenodd" clip-rule="evenodd" d="M701.188 507.183C701.188 507.717 700.692 508.151 700.081 508.151C699.469 508.151 698.973 507.717 698.973 507.183C698.973 496.025 693.845 485.925 685.56 478.618C677.274 471.309 665.822 466.788 653.18 466.788C652.569 466.788 652.073 466.354 652.073 465.82C652.073 465.286 652.569 464.852 653.18 464.852C666.431 464.852 678.437 469.593 687.125 477.257C695.812 484.917 701.188 495.499 701.188 507.183Z" fill="#20201F"/>
<path fill-rule="evenodd" clip-rule="evenodd" d="M219.815 311.897C218.593 311.897 217.601 311.03 217.601 309.962C217.601 308.893 218.593 308.026 219.815 308.026H266.685C267.908 308.026 268.9 308.893 268.9 309.962C268.9 311.03 267.908 311.897 266.685 311.897H219.815Z" fill="#20201F"/>
<path fill-rule="evenodd" clip-rule="evenodd" d="M219.37 270.46C218.759 270.46 218.263 270.027 218.263 269.492C218.263 268.958 218.759 268.524 219.37 268.524C232.709 268.524 244.793 272.602 253.546 279.187C262.347 285.809 267.793 294.97 267.793 305.094C267.793 305.628 267.297 306.062 266.685 306.062C266.074 306.062 265.578 305.628 265.578 305.094C265.578 295.561 260.427 286.918 252.103 280.654C243.735 274.357 232.16 270.46 219.37 270.46Z" fill="#20201F"/>
<path fill-rule="evenodd" clip-rule="evenodd" d="M305.615 325.704C304.393 325.704 303.401 324.837 303.401 323.768C303.401 322.699 304.393 321.832 305.615 321.832H352.486C353.708 321.832 354.7 322.699 354.7 323.768C354.7 324.837 353.708 325.704 352.486 325.704H305.615Z" fill="#20201F"/>
<path fill-rule="evenodd" clip-rule="evenodd" d="M305.17 378.946C304.559 378.946 304.063 378.512 304.063 377.978C304.063 377.443 304.559 377.01 305.17 377.01C317.901 377.01 329.435 371.798 337.79 363.378C346.185 354.917 351.378 343.216 351.378 330.288C351.378 329.754 351.874 329.32 352.486 329.32C353.097 329.32 353.593 329.754 353.593 330.288C353.593 343.691 348.19 355.84 339.459 364.64C330.692 373.477 318.569 378.946 305.17 378.946Z" fill="#20201F"/>
<path fill-rule="evenodd" clip-rule="evenodd" d="M232.344 388.45C232.344 389.519 231.352 390.386 230.13 390.386C228.907 390.386 227.915 389.519 227.915 388.45V347.477C227.915 346.408 228.907 345.541 230.13 345.541C231.352 345.541 232.344 346.408 232.344 347.477V388.45Z" fill="#20201F"/>
<path fill-rule="evenodd" clip-rule="evenodd" d="M286.188 388.839C286.188 389.374 285.692 389.807 285.081 389.807C284.47 389.807 283.973 389.374 283.973 388.839C283.973 377.688 278.687 367.589 270.147 360.281C261.601 352.969 249.787 348.445 236.74 348.445C236.129 348.445 235.633 348.011 235.633 347.477C235.633 346.942 236.129 346.509 236.74 346.509C250.383 346.509 262.745 351.247 271.695 358.905C280.647 366.565 286.188 377.15 286.188 388.839Z" fill="#20201F"/>
<path fill-rule="evenodd" clip-rule="evenodd" d="M312.017 144.85C312.017 143.782 313.009 142.915 314.231 142.915C315.454 142.915 316.446 143.782 316.446 144.85V185.824C316.446 186.893 315.454 187.76 314.231 187.76C313.009 187.76 312.017 186.893 312.017 185.824V144.85Z" fill="#20201F"/>
<path fill-rule="evenodd" clip-rule="evenodd" d="M243.42 144.462C243.42 143.927 243.916 143.494 244.528 143.494C245.139 143.494 245.635 143.927 245.635 144.462C245.635 155.568 252.336 165.64 263.163 172.944C274.074 180.303 289.166 184.856 305.847 184.856C306.458 184.856 306.954 185.29 306.954 185.824C306.954 186.359 306.458 186.792 305.847 186.792C288.671 186.792 273.1 182.083 261.815 174.472C250.452 166.806 243.42 156.196 243.42 144.462Z" fill="#20201F"/>
<path fill-rule="evenodd" clip-rule="evenodd" d="M491.658 169.517C491.658 168.448 492.65 167.581 493.872 167.581C495.095 167.581 496.087 168.448 496.087 169.517V210.49C496.087 211.559 495.095 212.426 493.872 212.426C492.65 212.426 491.658 211.559 491.658 210.49V169.517Z" fill="#20201F"/>
<path fill-rule="evenodd" clip-rule="evenodd" d="M446.428 169.127C446.428 168.593 446.924 168.159 447.535 168.159C448.146 168.159 448.642 168.593 448.642 169.127C448.642 180.311 453.103 190.429 460.311 197.742C467.483 205.019 477.381 209.522 488.298 209.522C488.91 209.522 489.406 209.956 489.406 210.49C489.406 211.024 488.91 211.458 488.298 211.458C476.711 211.458 466.224 206.698 458.641 199.004C451.097 191.35 446.428 180.785 446.428 169.127Z" fill="#20201F"/>
<path fill-rule="evenodd" clip-rule="evenodd" d="M608.591 242.115C609.814 242.115 610.806 242.982 610.806 244.051C610.806 245.12 609.814 245.987 608.591 245.987H561.721C560.499 245.987 559.507 245.12 559.507 244.051C559.507 242.982 560.499 242.115 561.721 242.115H608.591Z" fill="#20201F"/>
<path fill-rule="evenodd" clip-rule="evenodd" d="M609.037 189.077C609.648 189.077 610.144 189.51 610.144 190.045C610.144 190.579 609.648 191.013 609.037 191.013C596.307 191.013 584.773 196.206 576.416 204.596C568.023 213.024 562.829 224.68 562.829 237.555C562.829 238.089 562.332 238.523 561.721 238.523C561.11 238.523 560.614 238.089 560.614 237.555C560.614 224.199 566.015 212.093 574.746 203.326C583.513 194.523 595.636 189.077 609.037 189.077Z" fill="#20201F"/>
<path fill-rule="evenodd" clip-rule="evenodd" d="M83.6946 557.746V454.898H36.6351V558.956H83.6946V557.746ZM78.1306 487.087C78.1306 488.219 77.6013 489.251 76.7443 489.995C75.8916 490.738 74.7157 491.202 73.4246 491.202H46.8497C45.5587 491.202 44.3828 490.738 43.5246 489.995C42.6732 489.251 42.1439 488.219 42.1439 487.087V463.856C42.1439 462.727 42.6742 461.698 43.5246 460.95C44.3761 460.205 45.5543 459.743 46.8497 459.743H73.4246C74.7202 459.743 75.8983 460.205 76.7465 460.953C77.6001 461.698 78.1306 462.727 78.1306 463.856V487.087ZM75.9315 545.782C75.9315 547.349 75.2018 548.772 74.0247 549.802C72.8476 550.831 71.22 551.469 69.4262 551.469C67.6357 551.469 66.0091 550.831 64.8276 549.8C63.6506 548.77 62.9209 547.348 62.9209 545.782C62.9209 544.214 63.6506 542.791 64.8298 541.764C66.0069 540.733 67.6346 540.096 69.4262 540.096C71.22 540.096 72.8476 540.733 74.0247 541.762C75.2018 542.791 75.9315 544.214 75.9315 545.782ZM58.7918 545.782C58.7918 547.685 57.9071 549.41 56.4798 550.658C55.0526 551.906 53.0782 552.679 50.9025 552.679C48.7255 552.679 46.7523 551.906 45.3251 550.658C43.8978 549.41 43.013 547.685 43.013 545.782C43.013 543.88 43.8978 542.154 45.3251 540.907C46.7523 539.659 48.7255 538.886 50.9025 538.886C53.0782 538.886 55.0526 539.659 56.4798 540.907C57.9071 542.154 58.7918 543.88 58.7918 545.782ZM55.1112 542.103C56.1864 543.043 56.8541 544.346 56.8541 545.782C56.8541 547.22 56.1864 548.522 55.1112 549.462C54.036 550.402 52.5457 550.985 50.9025 550.985C49.2582 550.985 47.7689 550.402 46.6936 549.462C45.6185 548.522 44.9508 547.22 44.9508 545.782C44.9508 544.346 45.6185 543.043 46.6936 542.103C47.7689 541.163 49.2582 540.58 50.9025 540.58C52.5457 540.58 54.036 541.163 55.1112 542.103ZM77.3156 530.991C77.3156 532.894 76.4308 534.619 75.0036 535.866C73.5763 537.114 71.6031 537.888 69.4262 537.888C67.2493 537.888 65.275 537.115 63.8476 535.867C62.4204 534.62 61.5368 532.894 61.5368 530.991C61.5368 529.088 62.4215 527.363 63.8488 526.115C65.276 524.867 67.2493 524.094 69.4262 524.094C71.6019 524.094 73.5763 524.867 75.0036 526.115C76.4308 527.363 77.3156 529.089 77.3156 530.991ZM73.635 527.311C74.7101 528.251 75.3778 529.554 75.3778 530.991C75.3778 532.428 74.7101 533.73 73.635 534.67C72.5597 535.61 71.0706 536.194 69.4262 536.194C67.7819 536.194 66.2915 535.611 65.2163 534.671C64.1411 533.731 63.4746 532.428 63.4746 530.991C63.4746 529.553 64.1422 528.251 65.2174 527.311C66.2926 526.371 67.7819 525.788 69.4262 525.788C71.0694 525.788 72.5597 526.371 73.635 527.311ZM57.4078 530.991C57.4078 532.557 56.678 533.98 55.501 535.011C54.3239 536.04 52.6962 536.678 50.9025 536.678C49.112 536.678 47.4854 536.04 46.3039 535.008C45.1268 533.978 44.3971 532.556 44.3971 530.991C44.3971 529.423 45.1268 528 46.3061 526.973C47.4832 525.942 49.1109 525.304 50.9025 525.304C52.6962 525.304 54.3239 525.942 55.501 526.971C56.678 528 57.4078 529.423 57.4078 530.991ZM54.1324 528.167C54.9573 528.888 55.47 529.888 55.47 530.991C55.47 532.096 54.9595 533.095 54.1357 533.814C53.3074 534.535 52.1637 534.984 50.9025 534.984C49.6379 534.984 48.4952 534.537 47.6725 533.817C46.8453 533.095 46.3349 532.096 46.3349 530.991C46.3349 529.888 46.8475 528.888 47.6725 528.167C48.4952 527.444 49.6379 526.998 50.9025 526.998C52.1637 526.998 53.3074 527.446 54.1324 528.167ZM72.6561 542.959C73.4811 543.68 73.9937 544.68 73.9937 545.782C73.9937 546.888 73.4833 547.887 72.6595 548.606C71.8312 549.327 70.6874 549.775 69.4262 549.775C68.1617 549.775 67.019 549.329 66.1962 548.609C65.3691 547.887 64.8587 546.888 64.8587 545.782C64.8587 544.68 65.3713 543.68 66.1962 542.959C67.019 542.236 68.1617 541.789 69.4262 541.789C70.6874 541.789 71.8312 542.238 72.6561 542.959ZM75.3624 463.856V487.087C75.3624 487.552 75.1431 487.977 74.792 488.283C74.4444 488.591 73.9583 488.782 73.4246 488.782H46.8497C46.3161 488.782 45.8299 488.591 45.4801 488.285C45.1312 487.977 44.9121 487.552 44.9121 487.087V463.856C44.9121 463.389 45.129 462.965 45.4768 462.661C45.8333 462.354 46.3206 462.163 46.8497 462.163H73.4246C73.9539 462.163 74.4411 462.354 74.792 462.661C75.1453 462.965 75.3624 463.389 75.3624 463.856ZM39.4034 520.276H80.9264V556.536H39.4034V520.276ZM80.9264 517.856H39.4034V457.318H80.9264V517.856Z" fill="#20201F"/>
<path fill-rule="evenodd" clip-rule="evenodd" d="M403.106 124.269C399.464 126.317 394.792 127.581 390.683 127.581C386.64 127.581 383.484 126.368 381.287 124.383V124.377C380.457 123.625 379.813 122.732 379.268 121.787V125.87C379.268 128.308 378.104 129.737 376.233 130.566C374.532 131.323 372.28 131.51 369.812 131.51H368.794V131.488C366.736 131.437 364.858 131.213 363.396 130.566C361.526 129.737 360.367 128.308 360.367 125.882V105.855C360.367 103.418 361.526 101.991 363.396 101.167C364.858 100.525 366.736 100.294 368.794 100.245V100.223H369.812C372.28 100.223 374.532 100.41 376.233 101.167C378.104 101.991 379.268 103.418 379.268 105.855V109.946C379.813 109.001 380.45 108.111 381.287 107.357C383.484 105.368 386.64 104.154 390.683 104.154C395.025 104.154 399.995 105.569 403.722 107.825C407.161 109.908 409.575 112.723 409.575 115.866C409.575 119.195 406.868 122.159 403.106 124.269ZM366.774 115.29H366.767V115.292C366.767 116.011 367.111 116.672 367.654 117.148V117.154C368.198 117.628 368.948 117.922 369.779 117.922C370.612 117.922 371.355 117.628 371.898 117.154H371.908L371.907 117.148C372.451 116.669 372.786 116.011 372.786 115.292C372.786 114.563 372.451 113.903 371.908 113.431C371.365 112.957 370.612 112.66 369.779 112.66C368.948 112.66 368.205 112.957 367.654 113.431C367.111 113.903 366.774 114.563 366.774 115.29ZM368.314 115.287V115.292C368.314 115.647 368.476 115.967 368.732 116.195H368.742C369.004 116.424 369.376 116.57 369.779 116.57C370.19 116.57 370.566 116.428 370.821 116.206L370.828 116.196C371.083 115.967 371.248 115.647 371.248 115.292C371.248 114.926 371.083 114.607 370.828 114.379C370.566 114.155 370.19 114.014 369.779 114.014C369.369 114.014 368.996 114.155 368.742 114.389C368.469 114.613 368.304 114.936 368.304 115.287H368.314ZM377.234 105.855C377.234 104.211 376.496 103.272 375.325 102.748C374.112 102.22 372.429 102.042 370.526 102.011H369.812C367.621 102.011 365.657 102.157 364.305 102.748C363.133 103.272 362.403 104.213 362.403 105.855V125.882C362.403 127.522 363.133 128.458 364.305 128.982C365.657 129.578 367.621 129.722 369.812 129.722H370.605C372.468 129.685 374.138 129.51 375.325 128.984C376.506 128.458 377.234 127.514 377.234 125.87V105.855ZM402.57 109.282C399.169 107.22 394.636 105.931 390.683 105.931C387.229 105.931 384.571 106.94 382.747 108.586C380.751 110.388 379.719 112.982 379.719 115.866C379.719 118.756 380.751 121.347 382.747 123.153C384.571 124.796 387.229 125.803 390.683 125.803C394.417 125.803 398.681 124.648 402.014 122.777C405.227 120.974 407.54 118.52 407.54 115.866C407.54 113.372 405.482 111.054 402.57 109.282Z" fill="#20201F"/>
<path fill-rule="evenodd" clip-rule="evenodd" d="M565.829 163.903L540.452 163.91C531.964 163.91 532.964 148.552 533.052 147.527C533.052 143.971 534.71 140.746 537.383 138.412C540.05 136.082 543.746 134.638 547.812 134.638H558.581C562.655 134.638 566.346 136.079 569.021 138.412C571.685 140.746 573.338 143.977 573.356 147.533C573.41 148.575 574.283 163.91 565.829 163.903ZM553.192 148.943V148.94C554.084 148.932 554.908 148.625 555.496 148.112C556.074 147.591 556.431 146.879 556.431 146.103C556.431 145.319 556.072 144.606 555.484 144.094C554.897 143.58 554.084 143.266 553.189 143.266C552.298 143.266 551.484 143.58 550.898 144.094H550.887V144.1C550.3 144.612 549.933 145.319 549.933 146.103C549.933 146.879 550.3 147.6 550.887 148.112H550.89C551.477 148.625 552.298 148.948 553.189 148.948L553.192 148.943ZM553.197 147.496C553.622 147.496 554.021 147.343 554.307 147.086C554.586 146.843 554.765 146.492 554.765 146.103C554.765 145.716 554.594 145.364 554.315 145.114C554.027 144.873 553.636 144.714 553.189 144.718C552.741 144.718 552.355 144.87 552.068 145.114L552.061 145.12C551.777 145.364 551.603 145.716 551.603 146.103C551.603 146.485 551.788 146.836 552.064 147.086L552.07 147.089C552.35 147.335 552.75 147.483 553.182 147.483L553.197 147.48V147.496ZM553.192 158.497C557.283 158.497 560.997 157.431 563.698 155.721C566.504 153.932 568.248 151.433 568.25 148.663C568.25 145.883 566.504 143.385 563.698 141.592C560.987 139.872 557.271 138.816 553.179 138.816H553.161C549.08 138.825 545.373 139.888 542.665 141.603C539.871 143.391 538.131 145.883 538.128 148.648L538.131 148.663C538.131 151.439 539.871 153.924 542.687 155.721C545.381 157.434 549.094 158.497 553.182 158.494L553.192 158.497ZM553.192 156.496C556.777 156.49 560.017 155.571 562.36 154.093C564.571 152.679 565.948 150.754 565.948 148.663C565.948 146.559 564.571 144.634 562.343 143.214C560.012 141.742 556.777 140.825 553.179 140.825H553.172L553.161 140.82C549.572 140.825 546.346 141.742 544.015 143.223C541.809 144.631 540.434 146.559 540.427 148.648L540.434 148.663C540.429 150.758 541.807 152.685 544.022 154.093C546.354 155.565 549.59 156.49 553.179 156.487H553.192V156.496ZM565.822 161.9C572.122 161.9 571.049 147.643 571.049 147.606L571.039 147.533C571.039 144.528 569.652 141.81 567.405 139.833C565.138 137.863 562.024 136.648 558.581 136.648H547.823C544.368 136.648 541.248 137.858 538.991 139.833C536.738 141.8 535.35 144.528 535.344 147.533L535.34 147.603C535.34 147.639 534.184 161.9 540.458 161.9H565.822Z" fill="#20201F"/>
<path fill-rule="evenodd" clip-rule="evenodd" d="M93.9524 264.67V380.306H39.8395V264.67H93.9524ZM61.6364 287.203C61.6364 288.473 62.2255 289.623 63.1762 290.454C64.1326 291.286 65.4466 291.801 66.896 291.801C68.3454 291.801 69.6594 291.286 70.6113 290.454C71.5665 289.619 72.1555 288.47 72.1555 287.203C72.1555 285.936 71.5665 284.787 70.6157 283.955C69.6645 283.12 68.3488 282.605 66.896 282.605C65.4433 282.605 64.1274 283.12 63.1762 283.951C62.2255 284.782 61.6364 285.933 61.6364 287.203ZM64.6626 289.155C65.2317 289.653 66.0231 289.962 66.896 289.962C67.769 289.962 68.5602 289.653 69.1294 289.155C69.6981 288.658 70.0518 287.966 70.0518 287.203C70.0518 286.44 69.6981 285.748 69.1283 285.252C68.557 284.753 67.7671 284.444 66.896 284.444C66.0249 284.444 65.2351 284.753 64.6637 285.252C64.0938 285.751 63.7403 286.442 63.7403 287.203C63.7403 287.964 64.0938 288.655 64.6626 289.155ZM41.3878 273.398L43.4917 355.026C43.4917 367.286 52.8719 377.325 66.896 377.325C80.9201 377.325 90.3003 367.286 90.3003 355.026L92.4041 273.398C92.4041 271.816 91.6634 270.378 90.4738 269.338C89.2786 268.298 87.6347 267.651 85.8295 267.651H47.9626C46.1596 267.651 44.5163 268.297 43.3234 269.338C42.1275 270.386 41.3878 271.822 41.3878 273.398ZM46.1216 355.026C46.1216 366.03 54.3088 375.026 66.896 375.026C79.4833 375.026 87.6705 366.03 87.6705 355.026L89.7743 273.398C89.7743 272.452 89.3292 271.589 88.6139 270.959C87.9027 270.337 86.9161 269.95 85.8295 269.95H47.9626C46.876 269.95 45.89 270.337 45.173 270.964C44.4606 271.587 44.0176 272.448 44.0176 273.398L46.1216 355.026ZM96.5283 380.548V264.428C96.5283 263.85 96.2667 263.323 95.8511 262.942C95.4344 262.557 94.8538 262.32 94.2175 262.32H39.5745C38.9382 262.32 38.3576 262.557 37.941 262.937C37.5231 263.319 37.2636 263.847 37.2636 264.428V380.548C37.2636 381.129 37.5231 381.657 37.941 382.039C38.3628 382.417 38.9412 382.656 39.5745 382.656H94.2175C94.8509 382.656 95.4281 382.418 95.8471 382.039C96.2678 381.652 96.5283 381.126 96.5283 380.548Z" fill="#20201F"/>
<path fill-rule="evenodd" clip-rule="evenodd" d="M474.289 315.204H478.091C478.545 315.204 478.914 314.879 478.914 314.484V313.789H533.521C534.181 313.789 534.717 313.321 534.717 312.744C534.717 312.167 534.181 311.698 533.521 311.698H478.914V305.999C478.914 305.605 478.542 305.279 478.091 305.279H474.289C473.835 305.279 473.466 305.602 473.466 305.999V314.484C473.466 314.881 473.835 315.204 474.289 315.204Z" fill="#20201F"/>
<path fill-rule="evenodd" clip-rule="evenodd" d="M590.504 305.039H586.701C586.247 305.039 585.879 305.364 585.879 305.759V306.454H531.272C530.612 306.454 530.076 306.922 530.076 307.499C530.076 308.076 530.612 308.545 531.272 308.545H585.879V314.244C585.879 314.638 586.251 314.964 586.701 314.964H590.504C590.958 314.964 591.327 314.641 591.327 314.244V305.759C591.327 305.362 590.958 305.039 590.504 305.039Z" fill="#20201F"/>
<path fill-rule="evenodd" clip-rule="evenodd" d="M326.691 268.572H330.494C330.948 268.572 331.316 268.246 331.316 267.852V267.157H385.923C386.583 267.157 387.119 266.688 387.119 266.111C387.119 265.534 386.583 265.066 385.923 265.066H331.316V259.366C331.316 258.972 330.944 258.646 330.494 258.646H326.691C326.237 258.646 325.869 258.969 325.869 259.366V267.852C325.869 268.248 326.237 268.572 326.691 268.572Z" fill="#20201F"/>
<path fill-rule="evenodd" clip-rule="evenodd" d="M442.906 258.406H439.104C438.65 258.406 438.281 258.731 438.281 259.126V259.821H383.674C383.014 259.821 382.479 260.29 382.479 260.867C382.479 261.444 383.014 261.912 383.674 261.912H438.281V267.612C438.281 268.006 438.653 268.332 439.104 268.332H442.906C443.36 268.332 443.729 268.008 443.729 267.612V259.126C443.729 258.729 443.36 258.406 442.906 258.406Z" fill="#20201F"/>
<path d="M742.104 140.881H739.336V255.955H742.104V140.881Z" fill="#20201F"/>
<path d="M769.26 158.023C770.83 158.109 772.021 158.537 772.834 159.307C773.662 160.063 774.075 161.055 774.075 162.282C774.075 163.138 773.868 163.901 773.455 164.572C773.041 165.228 772.428 165.749 771.614 166.134C770.801 166.519 769.81 166.712 768.64 166.712C767.556 166.712 766.528 166.54 765.558 166.198C764.602 165.841 763.832 165.371 763.247 164.786L763.996 163.566C764.495 164.079 765.159 164.5 765.986 164.828C766.814 165.142 767.698 165.299 768.64 165.299C769.867 165.299 770.815 165.035 771.486 164.507C772.156 163.965 772.492 163.223 772.492 162.282C772.492 161.355 772.156 160.627 771.486 160.099C770.815 159.571 769.802 159.307 768.447 159.307H767.377V158.173L771.529 152.973H763.868V151.603H773.498V152.695L769.26 158.023ZM786.546 151.603V152.695L780.276 166.583H778.607L784.77 152.973H777.066V155.776H775.547V151.603H786.546ZM788.603 166.69C788.29 166.69 788.018 166.576 787.79 166.348C787.576 166.12 787.469 165.841 787.469 165.513C787.469 165.185 787.576 164.914 787.79 164.7C788.018 164.472 788.29 164.358 788.603 164.358C788.917 164.358 789.188 164.472 789.417 164.7C789.645 164.914 789.759 165.185 789.759 165.513C789.759 165.841 789.645 166.12 789.417 166.348C789.188 166.576 788.917 166.69 788.603 166.69ZM797.285 158.023C798.854 158.109 800.045 158.537 800.859 159.307C801.686 160.063 802.1 161.055 802.1 162.282C802.1 163.138 801.893 163.901 801.479 164.572C801.065 165.228 800.452 165.749 799.639 166.134C798.826 166.519 797.834 166.712 796.664 166.712C795.58 166.712 794.553 166.54 793.583 166.198C792.627 165.841 791.856 165.371 791.272 164.786L792.02 163.566C792.52 164.079 793.183 164.5 794.011 164.828C794.838 165.142 795.723 165.299 796.664 165.299C797.891 165.299 798.84 165.035 799.51 164.507C800.181 163.965 800.516 163.223 800.516 162.282C800.516 161.355 800.181 160.627 799.51 160.099C798.84 159.571 797.827 159.307 796.472 159.307H795.402V158.173L799.553 152.973H791.892V151.603H801.522V152.695L797.285 158.023ZM810.241 166.712C809.086 166.712 808.051 166.405 807.138 165.791C806.24 165.178 805.533 164.301 805.02 163.159C804.521 162.004 804.271 160.648 804.271 159.093C804.271 157.538 804.521 156.19 805.02 155.049C805.533 153.893 806.24 153.009 807.138 152.395C808.051 151.782 809.086 151.475 810.241 151.475C811.397 151.475 812.424 151.782 813.323 152.395C814.236 153.009 814.949 153.893 815.463 155.049C815.977 156.19 816.233 157.538 816.233 159.093C816.233 160.648 815.977 162.004 815.463 163.159C814.949 164.301 814.236 165.178 813.323 165.791C812.424 166.405 811.397 166.712 810.241 166.712ZM810.241 165.299C811.112 165.299 811.875 165.057 812.531 164.572C813.202 164.087 813.722 163.38 814.093 162.453C814.464 161.526 814.65 160.406 814.65 159.093C814.65 157.781 814.464 156.661 814.093 155.734C813.722 154.806 813.202 154.1 812.531 153.615C811.875 153.13 811.112 152.887 810.241 152.887C809.371 152.887 808.601 153.13 807.93 153.615C807.274 154.1 806.76 154.806 806.389 155.734C806.018 156.661 805.833 157.781 805.833 159.093C805.833 160.406 806.018 161.526 806.389 162.453C806.76 163.38 807.274 164.087 807.93 164.572C808.601 165.057 809.371 165.299 810.241 165.299Z" fill="#20201F"/>
<path d="M770.467 190.953C771.452 190.953 772.322 191.138 773.078 191.509C773.848 191.88 774.448 192.408 774.875 193.093C775.303 193.763 775.517 194.548 775.517 195.447C775.517 196.36 775.296 197.166 774.854 197.865C774.412 198.564 773.798 199.106 773.014 199.491C772.243 199.862 771.373 200.048 770.403 200.048C768.42 200.048 766.901 199.398 765.845 198.1C764.789 196.788 764.261 194.94 764.261 192.558C764.261 190.888 764.547 189.476 765.117 188.321C765.688 187.165 766.487 186.295 767.514 185.71C768.541 185.111 769.74 184.811 771.109 184.811C772.593 184.811 773.777 185.082 774.661 185.624L774.041 186.865C773.328 186.395 772.357 186.159 771.131 186.159C769.476 186.159 768.177 186.687 767.236 187.743C766.294 188.784 765.823 190.304 765.823 192.301C765.823 192.658 765.845 193.064 765.888 193.521C766.259 192.707 766.851 192.08 767.664 191.637C768.477 191.181 769.411 190.953 770.467 190.953ZM770.339 198.742C771.423 198.742 772.3 198.45 772.971 197.865C773.656 197.266 773.998 196.474 773.998 195.489C773.998 194.505 773.656 193.72 772.971 193.135C772.3 192.551 771.387 192.258 770.232 192.258C769.476 192.258 768.805 192.401 768.22 192.686C767.65 192.971 767.2 193.364 766.872 193.863C766.544 194.362 766.38 194.919 766.38 195.532C766.38 196.103 766.53 196.631 766.829 197.116C767.143 197.601 767.6 197.993 768.199 198.293C768.798 198.592 769.511 198.742 770.339 198.742ZM787.706 184.939V186.031L781.436 199.919H779.767L785.93 186.309H778.226V189.112H776.707V184.939H787.706ZM789.763 200.026C789.449 200.026 789.178 199.912 788.95 199.684C788.736 199.456 788.629 199.177 788.629 198.849C788.629 198.521 788.736 198.25 788.95 198.036C789.178 197.808 789.449 197.694 789.763 197.694C790.077 197.694 790.348 197.808 790.576 198.036C790.805 198.25 790.919 198.521 790.919 198.849C790.919 199.177 790.805 199.456 790.576 199.684C790.348 199.912 790.077 200.026 789.763 200.026ZM799.119 190.953C800.103 190.953 800.973 191.138 801.729 191.509C802.5 191.88 803.099 192.408 803.527 193.093C803.955 193.763 804.169 194.548 804.169 195.447C804.169 196.36 803.948 197.166 803.506 197.865C803.063 198.564 802.45 199.106 801.665 199.491C800.895 199.862 800.024 200.048 799.054 200.048C797.071 200.048 795.552 199.398 794.496 198.1C793.44 196.788 792.913 194.94 792.913 192.558C792.913 190.888 793.198 189.476 793.769 188.321C794.339 187.165 795.138 186.295 796.165 185.71C797.193 185.111 798.391 184.811 799.761 184.811C801.244 184.811 802.428 185.082 803.313 185.624L802.692 186.865C801.979 186.395 801.009 186.159 799.782 186.159C798.127 186.159 796.829 186.687 795.887 187.743C794.946 188.784 794.475 190.304 794.475 192.301C794.475 192.658 794.496 193.064 794.539 193.521C794.91 192.707 795.502 192.08 796.315 191.637C797.128 191.181 798.063 190.953 799.119 190.953ZM798.99 198.742C800.074 198.742 800.952 198.45 801.622 197.865C802.307 197.266 802.65 196.474 802.65 195.489C802.65 194.505 802.307 193.72 801.622 193.135C800.952 192.551 800.039 192.258 798.883 192.258C798.127 192.258 797.457 192.401 796.872 192.686C796.301 192.971 795.852 193.364 795.523 193.863C795.195 194.362 795.031 194.919 795.031 195.532C795.031 196.103 795.181 196.631 795.481 197.116C795.794 197.601 796.251 197.993 796.85 198.293C797.449 198.592 798.163 198.742 798.99 198.742ZM816.357 184.939V186.031L810.087 199.919H808.418L814.581 186.309H806.877V189.112H805.358V184.939H816.357Z" fill="#20201F"/>
<path d="M772.64 218.274V219.365L766.369 233.254H764.7L770.863 219.644H763.159V222.447H761.64V218.274H772.64ZM780.222 233.382C779.067 233.382 778.032 233.076 777.119 232.462C776.221 231.849 775.514 230.971 775.001 229.83C774.501 228.674 774.252 227.319 774.252 225.764C774.252 224.209 774.501 222.861 775.001 221.719C775.514 220.564 776.221 219.679 777.119 219.066C778.032 218.452 779.067 218.146 780.222 218.146C781.378 218.146 782.405 218.452 783.304 219.066C784.217 219.679 784.93 220.564 785.444 221.719C785.957 222.861 786.214 224.209 786.214 225.764C786.214 227.319 785.957 228.674 785.444 229.83C784.93 230.971 784.217 231.849 783.304 232.462C782.405 233.076 781.378 233.382 780.222 233.382ZM780.222 231.97C781.093 231.97 781.856 231.727 782.512 231.242C783.183 230.757 783.703 230.051 784.074 229.124C784.445 228.196 784.631 227.077 784.631 225.764C784.631 224.451 784.445 223.332 784.074 222.404C783.703 221.477 783.183 220.771 782.512 220.286C781.856 219.801 781.093 219.558 780.222 219.558C779.352 219.558 778.582 219.801 777.911 220.286C777.255 220.771 776.741 221.477 776.37 222.404C775.999 223.332 775.814 224.451 775.814 225.764C775.814 227.077 775.999 228.196 776.37 229.124C776.741 230.051 777.255 230.757 777.911 231.242C778.582 231.727 779.352 231.97 780.222 231.97ZM789.346 233.361C789.033 233.361 788.762 233.247 788.533 233.019C788.319 232.79 788.212 232.512 788.212 232.184C788.212 231.856 788.319 231.585 788.533 231.371C788.762 231.142 789.033 231.028 789.346 231.028C789.66 231.028 789.931 231.142 790.16 231.371C790.388 231.585 790.502 231.856 790.502 232.184C790.502 232.512 790.388 232.79 790.16 233.019C789.931 233.247 789.66 233.361 789.346 233.361ZM798.466 233.382C797.311 233.382 796.276 233.076 795.363 232.462C794.465 231.849 793.758 230.971 793.245 229.83C792.746 228.674 792.496 227.319 792.496 225.764C792.496 224.209 792.746 222.861 793.245 221.719C793.758 220.564 794.465 219.679 795.363 219.066C796.276 218.452 797.311 218.146 798.466 218.146C799.622 218.146 800.649 218.452 801.548 219.066C802.461 219.679 803.174 220.564 803.688 221.719C804.202 222.861 804.458 224.209 804.458 225.764C804.458 227.319 804.202 228.674 803.688 229.83C803.174 230.971 802.461 231.849 801.548 232.462C800.649 233.076 799.622 233.382 798.466 233.382ZM798.466 231.97C799.337 231.97 800.1 231.727 800.756 231.242C801.427 230.757 801.947 230.051 802.318 229.124C802.689 228.196 802.875 227.077 802.875 225.764C802.875 224.451 802.689 223.332 802.318 222.404C801.947 221.477 801.427 220.771 800.756 220.286C800.1 219.801 799.337 219.558 798.466 219.558C797.596 219.558 796.826 219.801 796.155 220.286C795.499 220.771 794.985 221.477 794.614 222.404C794.244 223.332 794.058 224.451 794.058 225.764C794.058 227.077 794.244 228.196 794.614 229.124C794.985 230.051 795.499 230.757 796.155 231.242C796.826 231.727 797.596 231.97 798.466 231.97ZM812.871 224.287C813.855 224.287 814.725 224.473 815.482 224.844C816.252 225.215 816.851 225.743 817.279 226.427C817.707 227.098 817.921 227.883 817.921 228.781C817.921 229.694 817.7 230.5 817.258 231.2C816.815 231.899 816.202 232.441 815.417 232.826C814.647 233.197 813.777 233.382 812.807 233.382C810.824 233.382 809.304 232.733 808.248 231.435C807.193 230.122 806.665 228.275 806.665 225.892C806.665 224.223 806.95 222.811 807.521 221.655C808.091 220.5 808.89 219.629 809.918 219.044C810.945 218.445 812.143 218.146 813.513 218.146C814.996 218.146 816.181 218.417 817.065 218.959L816.445 220.2C815.731 219.729 814.761 219.494 813.534 219.494C811.879 219.494 810.581 220.022 809.639 221.077C808.698 222.119 808.227 223.638 808.227 225.636C808.227 225.992 808.248 226.399 808.291 226.855C808.662 226.042 809.254 225.414 810.067 224.972C810.881 224.516 811.815 224.287 812.871 224.287ZM812.742 232.077C813.827 232.077 814.704 231.784 815.375 231.2C816.059 230.6 816.402 229.809 816.402 228.824C816.402 227.84 816.059 227.055 815.375 226.47C814.704 225.885 813.791 225.593 812.635 225.593C811.879 225.593 811.209 225.735 810.624 226.021C810.053 226.306 809.604 226.698 809.276 227.198C808.947 227.697 808.783 228.253 808.783 228.867C808.783 229.438 808.933 229.965 809.233 230.451C809.547 230.936 810.003 231.328 810.602 231.628C811.202 231.927 811.915 232.077 812.742 232.077Z" fill="#20201F"/>
<path d="M714.994 209.184V217.094H683.297V210.802L699.475 195.523C701.193 193.885 702.351 192.487 702.95 191.329C703.55 190.13 703.849 188.952 703.849 187.793C703.849 186.116 703.27 184.837 702.112 183.958C700.993 183.04 699.335 182.58 697.138 182.58C695.301 182.58 693.643 182.94 692.165 183.659C690.687 184.338 689.449 185.377 688.45 186.775L681.379 182.221C683.017 179.784 685.274 177.887 688.15 176.528C691.026 175.13 694.322 174.431 698.037 174.431C701.153 174.431 703.869 174.951 706.186 175.989C708.543 176.988 710.36 178.426 711.639 180.303C712.957 182.141 713.616 184.318 713.616 186.835C713.616 189.112 713.137 191.249 712.178 193.246C711.219 195.243 709.362 197.52 706.605 200.077L696.958 209.184H714.994Z" fill="#20201F"/>
<path d="M689.449 376.374H683.543V385.148H680.226V373.635H689.449V376.374ZM696.131 385.319C694.918 385.319 693.827 385.07 692.856 384.57C691.901 384.057 691.152 383.351 690.609 382.452C690.067 381.553 689.796 380.533 689.796 379.392C689.796 378.25 690.067 377.23 690.609 376.331C691.152 375.433 691.901 374.734 692.856 374.234C693.827 373.721 694.918 373.464 696.131 373.464C697.343 373.464 698.428 373.721 699.383 374.234C700.339 374.734 701.088 375.433 701.63 376.331C702.172 377.23 702.444 378.25 702.444 379.392C702.444 380.533 702.172 381.553 701.63 382.452C701.088 383.351 700.339 384.057 699.383 384.57C698.428 385.07 697.343 385.319 696.131 385.319ZM696.131 382.58C696.987 382.58 697.686 382.295 698.228 381.724C698.784 381.139 699.062 380.362 699.062 379.392C699.062 378.422 698.784 377.651 698.228 377.08C697.686 376.496 696.987 376.203 696.131 376.203C695.275 376.203 694.568 376.496 694.012 377.08C693.456 377.651 693.177 378.422 693.177 379.392C693.177 380.362 693.456 381.139 694.012 381.724C694.568 382.295 695.275 382.58 696.131 382.58ZM710.218 385.319C708.991 385.319 707.885 385.07 706.901 384.57C705.931 384.057 705.168 383.351 704.611 382.452C704.069 381.553 703.798 380.533 703.798 379.392C703.798 378.25 704.069 377.23 704.611 376.331C705.168 375.433 705.931 374.734 706.901 374.234C707.885 373.721 708.991 373.464 710.218 373.464C711.431 373.464 712.486 373.721 713.385 374.234C714.298 374.734 714.962 375.454 715.375 376.396L712.786 377.787C712.187 376.731 711.324 376.203 710.197 376.203C709.326 376.203 708.606 376.488 708.035 377.059C707.465 377.63 707.179 378.407 707.179 379.392C707.179 380.376 707.465 381.154 708.035 381.724C708.606 382.295 709.326 382.58 710.197 382.58C711.338 382.58 712.201 382.052 712.786 380.997L715.375 382.409C714.962 383.322 714.298 384.035 713.385 384.549C712.486 385.063 711.431 385.319 710.218 385.319ZM727.035 376.374H723.14V385.148H719.823V376.374H715.928V373.635H727.035V376.374ZM728.814 373.635H732.131V380.483L737.738 373.635H740.798V385.148H737.481V378.3L731.896 385.148H728.814V373.635ZM744.007 373.635H747.324V378.129H752.332V373.635H755.67V385.148H752.332V380.847H747.324V385.148H744.007V373.635ZM763.338 373.464C765.122 373.464 766.491 373.892 767.447 374.748C768.403 375.59 768.881 376.866 768.881 378.578V385.148H765.757V383.714C765.129 384.784 763.959 385.319 762.247 385.319C761.363 385.319 760.592 385.17 759.936 384.87C759.294 384.57 758.802 384.157 758.459 383.629C758.117 383.101 757.946 382.502 757.946 381.831C757.946 380.761 758.345 379.92 759.144 379.306C759.957 378.693 761.206 378.386 762.889 378.386H765.543C765.543 377.658 765.322 377.102 764.879 376.717C764.437 376.317 763.774 376.118 762.889 376.118C762.276 376.118 761.669 376.217 761.07 376.417C760.485 376.603 759.986 376.859 759.572 377.187L758.374 374.855C759.001 374.413 759.75 374.07 760.621 373.828C761.505 373.585 762.411 373.464 763.338 373.464ZM763.082 383.072C763.652 383.072 764.159 382.944 764.601 382.687C765.043 382.416 765.357 382.024 765.543 381.51V380.333H763.253C761.883 380.333 761.199 380.783 761.199 381.681C761.199 382.109 761.363 382.452 761.691 382.709C762.033 382.951 762.497 383.072 763.082 383.072ZM782.01 373.635V385.148H779.036V381.853H776.575L774.392 385.148H770.839L773.472 381.382C772.673 381.068 772.059 380.619 771.631 380.034C771.218 379.434 771.011 378.714 771.011 377.872C771.011 376.517 771.496 375.476 772.466 374.748C773.45 374.006 774.798 373.635 776.51 373.635H782.01ZM776.575 376.353C775.861 376.353 775.319 376.481 774.948 376.738C774.592 376.995 774.413 377.409 774.413 377.979C774.413 378.55 774.584 378.971 774.927 379.242C775.283 379.499 775.818 379.627 776.532 379.627H779.036V376.353H776.575Z" fill="black"/>
<path d="M716.069 403.504V418.484H712.602V406.286H709.606V403.504H716.069ZM723.935 403.247C726.033 403.247 727.673 403.889 728.857 405.173C730.041 406.443 730.634 408.276 730.634 410.673C730.634 412.371 730.313 413.826 729.671 415.039C729.043 416.251 728.151 417.171 726.996 417.799C725.84 418.427 724.506 418.741 722.994 418.741C722.195 418.741 721.432 418.655 720.704 418.484C719.976 418.298 719.356 418.042 718.842 417.713L720.126 415.167C720.854 415.666 721.788 415.916 722.93 415.916C724.199 415.916 725.205 415.545 725.947 414.803C726.689 414.047 727.088 412.963 727.145 411.55C726.247 412.449 725.005 412.899 723.422 412.899C722.466 412.899 721.596 412.706 720.811 412.321C720.026 411.936 719.406 411.393 718.949 410.694C718.493 409.981 718.264 409.161 718.264 408.233C718.264 407.235 718.514 406.357 719.013 405.601C719.513 404.845 720.19 404.267 721.046 403.868C721.917 403.454 722.88 403.247 723.935 403.247ZM724.192 410.309C724.948 410.309 725.562 410.102 726.033 409.689C726.518 409.261 726.76 408.718 726.76 408.062C726.76 407.406 726.525 406.871 726.054 406.457C725.597 406.044 724.963 405.837 724.149 405.837C723.408 405.837 722.801 406.036 722.33 406.436C721.874 406.835 721.646 407.377 721.646 408.062C721.646 408.747 721.874 409.296 722.33 409.71C722.801 410.109 723.422 410.309 724.192 410.309ZM733.994 418.655C733.409 418.655 732.917 418.455 732.517 418.056C732.118 417.656 731.918 417.157 731.918 416.558C731.918 415.944 732.118 415.452 732.517 415.081C732.917 414.696 733.409 414.504 733.994 414.504C734.579 414.504 735.071 414.696 735.47 415.081C735.87 415.452 736.07 415.944 736.07 416.558C736.07 417.157 735.87 417.656 735.47 418.056C735.071 418.455 734.579 418.655 733.994 418.655ZM742.89 403.247C744.987 403.247 746.628 403.889 747.812 405.173C748.996 406.443 749.588 408.276 749.588 410.673C749.588 412.371 749.267 413.826 748.625 415.039C747.997 416.251 747.106 417.171 745.95 417.799C744.795 418.427 743.461 418.741 741.948 418.741C741.15 418.741 740.386 418.655 739.659 418.484C738.931 418.298 738.311 418.042 737.797 417.713L739.081 415.167C739.808 415.666 740.743 415.916 741.884 415.916C743.154 415.916 744.16 415.545 744.902 414.803C745.643 414.047 746.043 412.963 746.1 411.55C745.201 412.449 743.96 412.899 742.376 412.899C741.421 412.899 740.55 412.706 739.766 412.321C738.981 411.936 738.36 411.393 737.904 410.694C737.447 409.981 737.219 409.161 737.219 408.233C737.219 407.235 737.469 406.357 737.968 405.601C738.467 404.845 739.145 404.267 740.001 403.868C740.871 403.454 741.834 403.247 742.89 403.247ZM743.147 410.309C743.903 410.309 744.516 410.102 744.987 409.689C745.472 409.261 745.715 408.718 745.715 408.062C745.715 407.406 745.479 406.871 745.009 406.457C744.552 406.044 743.917 405.837 743.104 405.837C742.362 405.837 741.756 406.036 741.285 406.436C740.829 406.835 740.6 407.377 740.6 408.062C740.6 408.747 740.829 409.296 741.285 409.71C741.756 410.109 742.376 410.309 743.147 410.309ZM761.502 410.609C762.244 410.98 762.807 411.465 763.192 412.064C763.592 412.663 763.792 413.355 763.792 414.14C763.792 415.067 763.528 415.88 763 416.579C762.472 417.264 761.73 417.799 760.774 418.184C759.818 418.555 758.713 418.741 757.457 418.741C756.202 418.741 755.096 418.555 754.14 418.184C753.199 417.799 752.464 417.264 751.936 416.579C751.423 415.88 751.166 415.067 751.166 414.14C751.166 413.355 751.358 412.663 751.744 412.064C752.143 411.465 752.707 410.98 753.434 410.609C752.878 410.266 752.45 409.838 752.15 409.325C751.851 408.797 751.701 408.198 751.701 407.527C751.701 406.657 751.943 405.901 752.428 405.259C752.913 404.617 753.591 404.125 754.461 403.782C755.332 403.426 756.33 403.247 757.457 403.247C758.599 403.247 759.604 403.426 760.475 403.782C761.359 404.125 762.044 404.617 762.529 405.259C763.014 405.901 763.257 406.657 763.257 407.527C763.257 408.198 763.107 408.797 762.807 409.325C762.508 409.838 762.072 410.266 761.502 410.609ZM757.457 405.794C756.758 405.794 756.195 405.965 755.767 406.307C755.353 406.636 755.146 407.092 755.146 407.677C755.146 408.248 755.353 408.697 755.767 409.025C756.18 409.353 756.744 409.517 757.457 409.517C758.171 409.517 758.741 409.353 759.169 409.025C759.597 408.697 759.811 408.248 759.811 407.677C759.811 407.092 759.597 406.636 759.169 406.307C758.741 405.965 758.171 405.794 757.457 405.794ZM757.457 416.194C758.328 416.194 759.012 416.002 759.512 415.616C760.025 415.217 760.282 414.689 760.282 414.033C760.282 413.376 760.025 412.856 759.512 412.471C759.012 412.085 758.328 411.893 757.457 411.893C756.601 411.893 755.924 412.085 755.424 412.471C754.925 412.856 754.675 413.376 754.675 414.033C754.675 414.703 754.925 415.231 755.424 415.616C755.924 416.002 756.601 416.194 757.457 416.194Z" fill="black"/>
<path d="M394.169 453.958C392.942 453.958 391.836 453.709 390.852 453.209C389.882 452.696 389.118 451.99 388.562 451.091C388.02 450.192 387.749 449.172 387.749 448.031C387.749 446.889 388.02 445.869 388.562 444.97C389.118 444.072 389.882 443.373 390.852 442.873C391.836 442.36 392.942 442.103 394.169 442.103C395.381 442.103 396.437 442.36 397.336 442.873C398.249 443.373 398.912 444.093 399.326 445.035L396.737 446.426C396.137 445.37 395.274 444.842 394.147 444.842C393.277 444.842 392.557 445.127 391.986 445.698C391.415 446.269 391.13 447.046 391.13 448.031C391.13 449.015 391.415 449.792 391.986 450.363C392.557 450.934 393.277 451.219 394.147 451.219C395.289 451.219 396.152 450.691 396.737 449.636L399.326 451.048C398.912 451.961 398.249 452.674 397.336 453.188C396.437 453.702 395.381 453.958 394.169 453.958ZM412.803 442.274V453.787H409.465V445.013H404.672V453.787H401.355V442.274H412.803ZM420.477 442.103C422.26 442.103 423.63 442.531 424.586 443.387C425.541 444.229 426.019 445.505 426.019 447.217V453.787H422.895V452.353C422.267 453.423 421.097 453.958 419.385 453.958C418.501 453.958 417.73 453.809 417.074 453.509C416.432 453.209 415.94 452.796 415.598 452.268C415.255 451.74 415.084 451.141 415.084 450.47C415.084 449.4 415.484 448.558 416.282 447.945C417.096 447.332 418.344 447.025 420.027 447.025H422.681C422.681 446.297 422.46 445.741 422.018 445.356C421.575 444.956 420.912 444.756 420.027 444.756C419.414 444.756 418.808 444.856 418.208 445.056C417.623 445.241 417.124 445.498 416.71 445.826L415.512 443.494C416.14 443.052 416.889 442.709 417.759 442.467C418.644 442.224 419.549 442.103 420.477 442.103ZM420.22 451.711C420.791 451.711 421.297 451.583 421.739 451.326C422.182 451.055 422.495 450.663 422.681 450.149V448.972H420.391C419.022 448.972 418.337 449.422 418.337 450.32C418.337 450.748 418.501 451.091 418.829 451.348C419.171 451.59 419.635 451.711 420.22 451.711ZM439.962 442.274V453.787H436.623V445.013H432.985L432.878 447.046C432.821 448.558 432.679 449.814 432.45 450.813C432.222 451.811 431.851 452.596 431.337 453.167C430.824 453.737 430.111 454.023 429.198 454.023C428.712 454.023 428.135 453.937 427.464 453.766L427.635 451.027C427.864 451.055 428.028 451.069 428.128 451.069C428.627 451.069 428.998 450.891 429.24 450.534C429.497 450.163 429.668 449.7 429.754 449.143C429.84 448.573 429.904 447.824 429.947 446.896L430.118 442.274H439.962ZM449.399 445.955C450.897 445.969 452.046 446.311 452.845 446.982C453.643 447.638 454.043 448.573 454.043 449.785C454.043 451.055 453.594 452.047 452.695 452.76C451.81 453.459 450.562 453.809 448.95 453.809L443.172 453.787V442.274H446.489V445.955H449.399ZM448.65 451.433C449.292 451.447 449.784 451.312 450.127 451.027C450.469 450.741 450.64 450.313 450.64 449.743C450.64 449.186 450.469 448.78 450.127 448.523C449.799 448.266 449.306 448.13 448.65 448.116L446.489 448.095V451.433H448.65ZM456.129 442.274H459.446V446.768H464.453V442.274H467.792V453.787H464.453V449.486H459.446V453.787H456.129V442.274ZM481.216 442.274V453.787H478.242V450.492H475.781L473.598 453.787H470.046L472.678 450.021C471.879 449.707 471.266 449.257 470.838 448.673C470.424 448.073 470.217 447.353 470.217 446.511C470.217 445.156 470.702 444.114 471.672 443.387C472.657 442.645 474.005 442.274 475.717 442.274H481.216ZM475.781 444.992C475.068 444.992 474.525 445.12 474.155 445.377C473.798 445.634 473.62 446.048 473.62 446.618C473.62 447.189 473.791 447.61 474.133 447.881C474.49 448.138 475.025 448.266 475.738 448.266H478.242V444.992H475.781Z" fill="#20201F"/>
<path d="M419.631 472.142V487.122H416.165V474.924H413.169V472.142H419.631ZM433.961 472.142V474.389L428.397 487.122H424.63L430.002 474.967H425.037V477.407H421.955V472.142H433.961ZM436.428 487.293C435.843 487.293 435.351 487.094 434.951 486.694C434.552 486.295 434.352 485.795 434.352 485.196C434.352 484.583 434.552 484.09 434.951 483.72C435.351 483.334 435.843 483.142 436.428 483.142C437.013 483.142 437.505 483.334 437.904 483.72C438.304 484.09 438.504 484.583 438.504 485.196C438.504 485.795 438.304 486.295 437.904 486.694C437.505 487.094 437.013 487.293 436.428 487.293ZM451.461 484.297V487.122H440.14V484.875L445.918 479.418C446.532 478.833 446.946 478.334 447.16 477.92C447.374 477.492 447.481 477.071 447.481 476.658C447.481 476.058 447.274 475.602 446.86 475.288C446.46 474.96 445.868 474.796 445.084 474.796C444.428 474.796 443.835 474.924 443.308 475.181C442.78 475.424 442.337 475.794 441.981 476.294L439.456 474.667C440.041 473.797 440.847 473.12 441.874 472.634C442.901 472.135 444.078 471.885 445.405 471.885C446.518 471.885 447.488 472.071 448.315 472.442C449.157 472.799 449.806 473.312 450.262 473.983C450.733 474.639 450.969 475.416 450.969 476.315C450.969 477.128 450.797 477.892 450.455 478.605C450.113 479.318 449.449 480.131 448.465 481.045L445.02 484.297H451.461ZM463.142 479.247C463.884 479.618 464.447 480.103 464.832 480.702C465.232 481.301 465.432 481.993 465.432 482.778C465.432 483.705 465.168 484.518 464.64 485.217C464.112 485.902 463.37 486.437 462.414 486.822C461.458 487.193 460.353 487.379 459.097 487.379C457.842 487.379 456.736 487.193 455.78 486.822C454.839 486.437 454.104 485.902 453.576 485.217C453.063 484.518 452.806 483.705 452.806 482.778C452.806 481.993 452.998 481.301 453.384 480.702C453.783 480.103 454.347 479.618 455.074 479.247C454.518 478.905 454.09 478.477 453.79 477.963C453.491 477.435 453.341 476.836 453.341 476.165C453.341 475.295 453.583 474.539 454.068 473.897C454.553 473.255 455.231 472.763 456.101 472.42C456.972 472.064 457.97 471.885 459.097 471.885C460.239 471.885 461.244 472.064 462.115 472.42C462.999 472.763 463.684 473.255 464.169 473.897C464.654 474.539 464.897 475.295 464.897 476.165C464.897 476.836 464.747 477.435 464.447 477.963C464.148 478.477 463.712 478.905 463.142 479.247ZM459.097 474.432C458.398 474.432 457.835 474.603 457.407 474.946C456.993 475.274 456.786 475.73 456.786 476.315C456.786 476.886 456.993 477.335 457.407 477.663C457.82 477.992 458.384 478.156 459.097 478.156C459.811 478.156 460.381 477.992 460.809 477.663C461.237 477.335 461.451 476.886 461.451 476.315C461.451 475.73 461.237 475.274 460.809 474.946C460.381 474.603 459.811 474.432 459.097 474.432ZM459.097 484.832C459.968 484.832 460.652 484.64 461.152 484.255C461.665 483.855 461.922 483.327 461.922 482.671C461.922 482.015 461.665 481.494 461.152 481.109C460.652 480.724 459.968 480.531 459.097 480.531C458.241 480.531 457.564 480.724 457.064 481.109C456.565 481.494 456.315 482.015 456.315 482.671C456.315 483.341 456.565 483.869 457.064 484.255C457.564 484.64 458.241 484.832 459.097 484.832Z" fill="#20201F"/>
<path d="M152.222 468.516H150.488V472.882H147.15V461.369H150.488V465.841H152.286L155.41 461.369H158.963L154.94 466.89L159.241 472.882H155.303L152.222 468.516ZM171.767 461.369L166.567 473.588C166.039 474.915 165.382 475.849 164.598 476.391C163.827 476.933 162.893 477.204 161.794 477.204C161.195 477.204 160.603 477.112 160.018 476.926C159.433 476.741 158.955 476.484 158.585 476.156L159.804 473.78C160.061 474.009 160.354 474.187 160.682 474.315C161.024 474.444 161.359 474.508 161.687 474.508C162.144 474.508 162.515 474.394 162.8 474.166C163.086 473.952 163.342 473.588 163.571 473.074L163.613 472.967L158.627 461.369H162.073L165.304 469.179L168.557 461.369H171.767ZM179.963 472.882L177.437 469.351L174.827 472.882H171.189L175.618 467.082L171.338 461.369H175.083L177.523 464.728L180.027 461.369H183.579L179.299 466.997L183.75 472.882H179.963ZM185.394 461.369H188.711V465.862H193.718V461.369H197.057V472.882H193.718V468.58H188.711V472.882H185.394V461.369ZM210.481 461.369V472.882H207.507V469.586H205.046L202.863 472.882H199.311L201.943 469.115C201.144 468.801 200.531 468.352 200.103 467.767C199.689 467.168 199.482 466.447 199.482 465.606C199.482 464.25 199.967 463.209 200.937 462.481C201.921 461.739 203.27 461.369 204.982 461.369H210.481ZM205.046 464.086C204.333 464.086 203.79 464.215 203.419 464.471C203.063 464.728 202.884 465.142 202.884 465.713C202.884 466.283 203.056 466.704 203.398 466.975C203.755 467.232 204.29 467.36 205.003 467.36H207.507V464.086H205.046Z" fill="#20201F"/>
<path d="M159.095 491.237V506.217H155.628V494.019H152.633V491.237H159.095ZM167.475 491.237V506.217H164.009V494.019H161.013V491.237H167.475ZM172.046 506.388C171.462 506.388 170.969 506.188 170.57 505.789C170.17 505.389 169.971 504.89 169.971 504.291C169.971 503.677 170.17 503.185 170.57 502.814C170.969 502.429 171.462 502.236 172.046 502.236C172.631 502.236 173.124 502.429 173.523 502.814C173.922 503.185 174.122 503.677 174.122 504.291C174.122 504.89 173.922 505.389 173.523 505.789C173.124 506.188 172.631 506.388 172.046 506.388ZM182.885 497.336C184.198 497.55 185.203 498.042 185.902 498.812C186.601 499.568 186.951 500.51 186.951 501.637C186.951 502.507 186.723 503.313 186.266 504.055C185.81 504.783 185.111 505.368 184.169 505.81C183.242 506.252 182.1 506.473 180.745 506.473C179.689 506.473 178.648 506.338 177.621 506.067C176.608 505.781 175.745 505.382 175.031 504.868L176.38 502.215C176.95 502.643 177.606 502.978 178.348 503.221C179.104 503.449 179.875 503.563 180.66 503.563C181.53 503.563 182.215 503.399 182.714 503.071C183.213 502.728 183.463 502.25 183.463 501.637C183.463 500.41 182.528 499.797 180.66 499.797H179.076V497.507L182.157 494.019H175.78V491.237H186.266V493.484L182.885 497.336ZM198.802 498.341C199.544 498.712 200.108 499.197 200.493 499.797C200.892 500.396 201.092 501.088 201.092 501.872C201.092 502.8 200.828 503.613 200.3 504.312C199.772 504.997 199.03 505.532 198.075 505.917C197.119 506.288 196.013 506.473 194.758 506.473C193.502 506.473 192.396 506.288 191.441 505.917C190.499 505.532 189.764 504.997 189.236 504.312C188.723 503.613 188.466 502.8 188.466 501.872C188.466 501.088 188.659 500.396 189.044 499.797C189.443 499.197 190.007 498.712 190.734 498.341C190.178 497.999 189.75 497.571 189.45 497.057C189.151 496.53 189.001 495.93 189.001 495.26C189.001 494.39 189.244 493.634 189.729 492.992C190.214 492.35 190.891 491.857 191.762 491.515C192.632 491.158 193.631 490.98 194.758 490.98C195.899 490.98 196.905 491.158 197.775 491.515C198.659 491.857 199.344 492.35 199.829 492.992C200.314 493.634 200.557 494.39 200.557 495.26C200.557 495.93 200.407 496.53 200.108 497.057C199.808 497.571 199.373 497.999 198.802 498.341ZM194.758 493.527C194.059 493.527 193.495 493.698 193.067 494.04C192.653 494.368 192.446 494.825 192.446 495.41C192.446 495.98 192.653 496.43 193.067 496.758C193.481 497.086 194.044 497.25 194.758 497.25C195.471 497.25 196.042 497.086 196.47 496.758C196.898 496.43 197.112 495.98 197.112 495.41C197.112 494.825 196.898 494.368 196.47 494.04C196.042 493.698 195.471 493.527 194.758 493.527ZM194.758 503.927C195.628 503.927 196.313 503.734 196.812 503.349C197.326 502.95 197.582 502.422 197.582 501.765C197.582 501.109 197.326 500.588 196.812 500.203C196.313 499.818 195.628 499.625 194.758 499.625C193.902 499.625 193.224 499.818 192.725 500.203C192.225 500.588 191.976 501.109 191.976 501.765C191.976 502.436 192.225 502.964 192.725 503.349C193.224 503.734 193.902 503.927 194.758 503.927Z" fill="#20201F"/>
<path d="M165.899 524.572V539.552H162.433V527.354H159.437V524.572H165.899ZM174.28 524.572V539.552H170.813V527.354H167.817V524.572H174.28ZM178.851 539.723C178.266 539.723 177.773 539.524 177.374 539.124C176.975 538.725 176.775 538.225 176.775 537.626C176.775 537.013 176.975 536.521 177.374 536.15C177.773 535.764 178.266 535.572 178.851 535.572C179.436 535.572 179.928 535.764 180.327 536.15C180.727 536.521 180.926 537.013 180.926 537.626C180.926 538.225 180.727 538.725 180.327 539.124C179.928 539.524 179.436 539.723 178.851 539.723ZM187.926 524.572V539.552H184.459V527.354H181.463V524.572H187.926ZM200.779 531.677C201.521 532.048 202.084 532.533 202.469 533.132C202.869 533.732 203.069 534.423 203.069 535.208C203.069 536.135 202.805 536.949 202.277 537.648C201.749 538.332 201.007 538.867 200.051 539.253C199.095 539.624 197.99 539.809 196.734 539.809C195.479 539.809 194.373 539.624 193.417 539.253C192.476 538.867 191.741 538.332 191.213 537.648C190.7 536.949 190.443 536.135 190.443 535.208C190.443 534.423 190.635 533.732 191.021 533.132C191.42 532.533 191.983 532.048 192.711 531.677C192.155 531.335 191.727 530.907 191.427 530.393C191.128 529.865 190.978 529.266 190.978 528.596C190.978 527.725 191.22 526.969 191.705 526.327C192.19 525.685 192.868 525.193 193.738 524.851C194.609 524.494 195.607 524.316 196.734 524.316C197.876 524.316 198.881 524.494 199.752 524.851C200.636 525.193 201.321 525.685 201.806 526.327C202.291 526.969 202.534 527.725 202.534 528.596C202.534 529.266 202.384 529.865 202.084 530.393C201.785 530.907 201.349 531.335 200.779 531.677ZM196.734 526.862C196.035 526.862 195.472 527.033 195.044 527.376C194.63 527.704 194.423 528.16 194.423 528.745C194.423 529.316 194.63 529.765 195.044 530.094C195.457 530.422 196.021 530.586 196.734 530.586C197.448 530.586 198.018 530.422 198.446 530.094C198.874 529.765 199.088 529.316 199.088 528.745C199.088 528.16 198.874 527.704 198.446 527.376C198.018 527.033 197.448 526.862 196.734 526.862ZM196.734 537.262C197.604 537.262 198.289 537.07 198.789 536.685C199.302 536.285 199.559 535.757 199.559 535.101C199.559 534.445 199.302 533.924 198.789 533.539C198.289 533.154 197.604 532.961 196.734 532.961C195.878 532.961 195.201 533.154 194.701 533.539C194.202 533.924 193.952 534.445 193.952 535.101C193.952 535.772 194.202 536.299 194.701 536.685C195.201 537.07 195.878 537.262 196.734 537.262Z" fill="#20201F"/>
<path d="M382.64 201.202L379.507 197.074L376.355 201.202H374.855L378.757 196.136L375.042 191.334H376.543L379.507 195.198L382.471 191.334H383.934L380.22 196.136L384.16 201.202H382.64ZM390.065 201.295C389.115 201.295 388.258 201.083 387.495 200.658C386.732 200.22 386.132 199.62 385.694 198.857C385.257 198.094 385.038 197.231 385.038 196.268C385.038 195.305 385.257 194.442 385.694 193.679C386.132 192.916 386.732 192.322 387.495 191.897C388.258 191.471 389.115 191.259 390.065 191.259C391.016 191.259 391.873 191.471 392.636 191.897C393.399 192.322 393.993 192.916 394.418 193.679C394.856 194.442 395.074 195.305 395.074 196.268C395.074 197.231 394.856 198.094 394.418 198.857C393.993 199.62 393.399 200.22 392.636 200.658C391.873 201.083 391.016 201.295 390.065 201.295ZM390.065 200.114C390.766 200.114 391.391 199.957 391.941 199.645C392.504 199.319 392.942 198.863 393.255 198.275C393.567 197.687 393.724 197.018 393.724 196.268C393.724 195.517 393.567 194.848 393.255 194.26C392.942 193.673 392.504 193.222 391.941 192.91C391.391 192.585 390.766 192.422 390.065 192.422C389.365 192.422 388.734 192.585 388.171 192.91C387.62 193.222 387.183 193.673 386.858 194.26C386.545 194.848 386.389 195.517 386.389 196.268C386.389 197.018 386.545 197.687 386.858 198.275C387.183 198.863 387.62 199.319 388.171 199.645C388.734 199.957 389.365 200.114 390.065 200.114ZM405.933 191.334V201.202H404.601V192.516H399.873L399.742 194.955C399.642 197.006 399.404 198.582 399.029 199.682C398.654 200.783 397.985 201.333 397.022 201.333C396.759 201.333 396.44 201.283 396.065 201.183L396.159 200.039C396.384 200.089 396.54 200.114 396.628 200.114C397.141 200.114 397.528 199.876 397.791 199.401C398.054 198.925 398.229 198.338 398.316 197.637C398.404 196.937 398.479 196.011 398.541 194.861L398.71 191.334H405.933ZM417.786 191.334V201.202H416.454V192.516H411.727L411.595 194.955C411.495 197.006 411.258 198.582 410.882 199.682C410.507 200.783 409.838 201.333 408.875 201.333C408.613 201.333 408.294 201.283 407.918 201.183L408.012 200.039C408.237 200.089 408.394 200.114 408.481 200.114C408.994 200.114 409.382 199.876 409.644 199.401C409.907 198.925 410.082 198.338 410.17 197.637C410.257 196.937 410.332 196.011 410.395 194.861L410.564 191.334H417.786Z" fill="black"/>
<path d="M383.369 217.092C385.108 217.092 386.44 217.668 387.365 218.818C388.291 219.956 388.753 221.57 388.753 223.658C388.753 225.122 388.503 226.36 388.003 227.373C387.503 228.386 386.802 229.155 385.902 229.68C385.001 230.193 383.951 230.449 382.75 230.449C381.449 230.449 380.411 230.212 379.636 229.737L380.18 228.649C380.805 229.061 381.656 229.268 382.731 229.268C384.182 229.268 385.32 228.811 386.146 227.898C386.971 226.973 387.384 225.634 387.384 223.883C387.384 223.558 387.365 223.202 387.328 222.814C387.002 223.527 386.483 224.084 385.77 224.484C385.058 224.872 384.238 225.065 383.313 225.065C382.45 225.065 381.681 224.903 381.005 224.578C380.343 224.252 379.824 223.796 379.448 223.208C379.073 222.608 378.886 221.914 378.886 221.126C378.886 220.325 379.079 219.619 379.467 219.006C379.855 218.393 380.386 217.924 381.062 217.599C381.75 217.261 382.519 217.092 383.369 217.092ZM383.519 223.921C384.182 223.921 384.764 223.796 385.264 223.546C385.777 223.296 386.177 222.952 386.465 222.514C386.752 222.076 386.896 221.589 386.896 221.051C386.896 220.55 386.758 220.088 386.483 219.662C386.221 219.237 385.827 218.893 385.301 218.631C384.776 218.368 384.151 218.237 383.425 218.237C382.475 218.237 381.7 218.499 381.099 219.025C380.511 219.537 380.217 220.225 380.217 221.088C380.217 221.951 380.511 222.639 381.099 223.152C381.7 223.665 382.506 223.921 383.519 223.921ZM391.523 230.431C391.248 230.431 391.01 230.331 390.81 230.131C390.622 229.93 390.529 229.687 390.529 229.399C390.529 229.111 390.622 228.874 390.81 228.686C391.01 228.486 391.248 228.386 391.523 228.386C391.798 228.386 392.036 228.486 392.236 228.686C392.436 228.874 392.536 229.111 392.536 229.399C392.536 229.687 392.436 229.93 392.236 230.131C392.036 230.331 391.798 230.431 391.523 230.431ZM398.575 217.092C400.313 217.092 401.645 217.668 402.571 218.818C403.496 219.956 403.959 221.57 403.959 223.658C403.959 225.122 403.709 226.36 403.209 227.373C402.708 228.386 402.008 229.155 401.108 229.68C400.207 230.193 399.157 230.449 397.956 230.449C396.655 230.449 395.617 230.212 394.842 229.737L395.386 228.649C396.011 229.061 396.862 229.268 397.937 229.268C399.388 229.268 400.526 228.811 401.351 227.898C402.177 226.973 402.59 225.634 402.59 223.883C402.59 223.558 402.571 223.202 402.533 222.814C402.208 223.527 401.689 224.084 400.976 224.484C400.263 224.872 399.444 225.065 398.519 225.065C397.656 225.065 396.887 224.903 396.211 224.578C395.548 224.252 395.029 223.796 394.654 223.208C394.279 222.608 394.091 221.914 394.091 221.126C394.091 220.325 394.285 219.619 394.673 219.006C395.061 218.393 395.592 217.924 396.268 217.599C396.955 217.261 397.725 217.092 398.575 217.092ZM398.725 223.921C399.388 223.921 399.97 223.796 400.47 223.546C400.983 223.296 401.383 222.952 401.67 222.514C401.958 222.076 402.102 221.589 402.102 221.051C402.102 220.55 401.964 220.088 401.689 219.662C401.427 219.237 401.033 218.893 400.507 218.631C399.982 218.368 399.357 218.237 398.631 218.237C397.681 218.237 396.905 218.499 396.305 219.025C395.717 219.537 395.423 220.225 395.423 221.088C395.423 221.951 395.717 222.639 396.305 223.152C396.905 223.665 397.712 223.921 398.725 223.921ZM414.848 229.136V230.337H405.637V229.38L411.096 224.034C411.784 223.358 412.246 222.777 412.484 222.289C412.734 221.789 412.859 221.288 412.859 220.788C412.859 220.013 412.59 219.412 412.053 218.987C411.527 218.549 410.771 218.331 409.783 218.331C408.244 218.331 407.05 218.818 406.199 219.794L405.243 218.968C405.756 218.368 406.406 217.905 407.194 217.58C407.994 217.255 408.895 217.092 409.895 217.092C411.233 217.092 412.29 217.411 413.066 218.049C413.854 218.674 414.248 219.537 414.248 220.638C414.248 221.313 414.097 221.964 413.797 222.589C413.497 223.214 412.928 223.934 412.09 224.746L407.625 229.136H414.848Z" fill="black"/>
<path d="M713.286 551.528V561.396H711.954V552.71H707.227L707.095 555.149C706.995 557.2 706.758 558.776 706.383 559.876C706.007 560.977 705.338 561.527 704.375 561.527C704.113 561.527 703.794 561.477 703.418 561.377L703.512 560.233C703.737 560.283 703.894 560.308 703.981 560.308C704.494 560.308 704.882 560.07 705.144 559.595C705.407 559.12 705.582 558.532 705.67 557.831C705.757 557.131 705.832 556.205 705.895 555.055L706.064 551.528H713.286ZM721.144 561.49C720.193 561.49 719.337 561.277 718.574 560.852C717.811 560.414 717.21 559.814 716.773 559.051C716.335 558.288 716.116 557.425 716.116 556.462C716.116 555.499 716.335 554.636 716.773 553.873C717.21 553.11 717.811 552.516 718.574 552.091C719.337 551.665 720.193 551.453 721.144 551.453C722.094 551.453 722.951 551.665 723.714 552.091C724.477 552.516 725.071 553.11 725.496 553.873C725.934 554.636 726.153 555.499 726.153 556.462C726.153 557.425 725.934 558.288 725.496 559.051C725.071 559.814 724.477 560.414 723.714 560.852C722.951 561.277 722.094 561.49 721.144 561.49ZM721.144 560.308C721.844 560.308 722.47 560.151 723.02 559.839C723.583 559.513 724.02 559.057 724.333 558.469C724.646 557.881 724.802 557.212 724.802 556.462C724.802 555.711 724.646 555.042 724.333 554.454C724.02 553.867 723.583 553.416 723.02 553.104C722.47 552.779 721.844 552.616 721.144 552.616C720.443 552.616 719.812 552.779 719.249 553.104C718.699 553.416 718.261 553.867 717.936 554.454C717.623 555.042 717.467 555.711 717.467 556.462C717.467 557.212 717.623 557.881 717.936 558.469C718.261 559.057 718.699 559.513 719.249 559.839C719.812 560.151 720.443 560.308 721.144 560.308ZM738.569 560.233V563.778H737.312V561.396H728.476V563.778H727.219V560.233H727.781C728.444 560.195 728.895 559.707 729.132 558.769C729.37 557.831 729.532 556.518 729.62 554.83L729.751 551.528H737.03V560.233H738.569ZM730.839 554.905C730.777 556.305 730.658 557.462 730.483 558.375C730.308 559.276 729.995 559.895 729.545 560.233H735.698V552.71H730.952L730.839 554.905ZM749.813 557.006H747.674V561.396H746.342V557.006H744.204L741.183 561.396H739.589L743.134 556.312L739.87 551.528H741.315L744.204 555.861H746.342V551.528H747.674V555.861H749.813L752.721 551.528H754.165L750.901 556.33L754.447 561.396H752.852L749.813 557.006ZM756.664 551.528H757.996V559.37L764.581 551.528H765.762V561.396H764.43V553.554L757.864 561.396H756.664V551.528ZM777.159 551.528V561.396H775.939V558.131H772.844H772.469L770.18 561.396H768.735L771.193 557.944C770.43 557.731 769.842 557.369 769.43 556.856C769.017 556.343 768.811 555.693 768.811 554.905C768.811 553.804 769.186 552.966 769.936 552.391C770.687 551.815 771.712 551.528 773.013 551.528H777.159ZM770.161 554.942C770.161 556.406 771.093 557.137 772.957 557.137H775.939V552.71H773.05C771.124 552.71 770.161 553.454 770.161 554.942Z" fill="black"/>
<path d="M741.625 591.28H738.999V594.731H737.648V591.28H730.238V590.304L737.198 581.599H738.699L731.982 590.079H737.686V587.04H738.999V590.079H741.625V591.28ZM744.245 594.825C743.97 594.825 743.733 594.725 743.532 594.525C743.345 594.325 743.251 594.081 743.251 593.793C743.251 593.506 743.345 593.268 743.532 593.081C743.733 592.88 743.97 592.78 744.245 592.78C744.521 592.78 744.758 592.88 744.958 593.081C745.158 593.268 745.258 593.506 745.258 593.793C745.258 594.081 745.158 594.325 744.958 594.525C744.758 594.725 744.521 594.825 744.245 594.825ZM752.447 586.871C753.31 586.871 754.073 587.033 754.736 587.359C755.411 587.684 755.936 588.147 756.311 588.747C756.687 589.335 756.874 590.023 756.874 590.811C756.874 591.611 756.68 592.318 756.293 592.93C755.905 593.543 755.367 594.019 754.679 594.356C754.004 594.681 753.241 594.844 752.391 594.844C750.652 594.844 749.32 594.275 748.395 593.137C747.469 591.986 747.006 590.367 747.006 588.278C747.006 586.815 747.256 585.576 747.757 584.563C748.257 583.55 748.957 582.787 749.858 582.275C750.758 581.749 751.809 581.487 753.01 581.487C754.31 581.487 755.348 581.724 756.124 582.2L755.58 583.288C754.954 582.875 754.104 582.669 753.028 582.669C751.578 582.669 750.439 583.131 749.614 584.057C748.789 584.97 748.376 586.302 748.376 588.053C748.376 588.365 748.395 588.722 748.432 589.122C748.757 588.409 749.276 587.859 749.989 587.471C750.702 587.071 751.521 586.871 752.447 586.871ZM752.334 593.7C753.285 593.7 754.054 593.443 754.642 592.93C755.242 592.405 755.542 591.711 755.542 590.848C755.542 589.985 755.242 589.297 754.642 588.784C754.054 588.272 753.254 588.015 752.24 588.015C751.578 588.015 750.99 588.14 750.477 588.39C749.977 588.641 749.583 588.985 749.295 589.422C749.007 589.86 748.864 590.348 748.864 590.886C748.864 591.386 748.995 591.849 749.258 592.274C749.533 592.699 749.933 593.043 750.458 593.306C750.984 593.568 751.609 593.7 752.334 593.7ZM769.601 591.28H766.974V594.731H765.624V591.28H758.213V590.304L765.173 581.599H766.674L759.958 590.079H765.661V587.04H766.974V590.079H769.601V591.28Z" fill="black"/>
<path d="M452.294 133.822V135.022H443.083V134.065L448.542 128.719C449.23 128.043 449.693 127.462 449.931 126.974C450.181 126.474 450.306 125.974 450.306 125.473C450.306 124.698 450.037 124.098 449.499 123.672C448.974 123.235 448.217 123.016 447.229 123.016C445.691 123.016 444.496 123.504 443.646 124.479L442.689 123.654C443.202 123.053 443.852 122.591 444.64 122.265C445.441 121.94 446.341 121.778 447.342 121.778C448.68 121.778 449.737 122.097 450.512 122.734C451.3 123.36 451.694 124.223 451.694 125.323C451.694 125.999 451.544 126.649 451.244 127.274C450.944 127.9 450.375 128.619 449.537 129.432L445.072 133.822H452.294ZM455.186 135.116C454.911 135.116 454.673 135.016 454.473 134.816C454.285 134.616 454.191 134.372 454.191 134.084C454.191 133.797 454.285 133.559 454.473 133.371C454.673 133.171 454.911 133.071 455.186 133.071C455.461 133.071 455.699 133.171 455.899 133.371C456.099 133.559 456.199 133.797 456.199 134.084C456.199 134.372 456.099 134.616 455.899 134.816C455.699 135.016 455.461 135.116 455.186 135.116ZM462.238 121.778C463.976 121.778 465.308 122.353 466.234 123.504C467.159 124.642 467.622 126.255 467.622 128.344C467.622 129.807 467.372 131.045 466.872 132.058C466.371 133.071 465.671 133.84 464.77 134.366C463.87 134.878 462.819 135.135 461.619 135.135C460.318 135.135 459.28 134.897 458.505 134.422L459.049 133.334C459.674 133.747 460.524 133.953 461.6 133.953C463.051 133.953 464.189 133.496 465.014 132.583C465.84 131.658 466.253 130.32 466.253 128.569C466.253 128.244 466.234 127.887 466.196 127.499C465.871 128.212 465.352 128.769 464.639 129.169C463.926 129.557 463.107 129.751 462.182 129.751C461.319 129.751 460.549 129.588 459.874 129.263C459.211 128.938 458.692 128.481 458.317 127.893C457.942 127.293 457.754 126.599 457.754 125.811C457.754 125.011 457.948 124.304 458.336 123.691C458.724 123.078 459.255 122.609 459.93 122.284C460.618 121.946 461.387 121.778 462.238 121.778ZM462.388 128.606C463.051 128.606 463.632 128.481 464.133 128.231C464.645 127.981 465.046 127.637 465.333 127.199C465.621 126.762 465.765 126.274 465.765 125.736C465.765 125.236 465.627 124.773 465.352 124.348C465.089 123.923 464.695 123.579 464.17 123.316C463.645 123.053 463.02 122.922 462.294 122.922C461.344 122.922 460.568 123.185 459.968 123.71C459.38 124.223 459.086 124.911 459.086 125.774C459.086 126.636 459.38 127.324 459.968 127.837C460.568 128.35 461.375 128.606 462.388 128.606ZM473.183 121.89V135.022H471.832V123.091H468.737V121.89H473.183Z" fill="black"/>
<path d="M106.178 242.497C107.041 242.497 107.804 242.659 108.467 242.984C109.142 243.31 109.668 243.772 110.043 244.373C110.418 244.961 110.606 245.648 110.606 246.436C110.606 247.237 110.412 247.943 110.024 248.556C109.636 249.169 109.099 249.644 108.411 249.982C107.735 250.307 106.972 250.47 106.122 250.47C104.384 250.47 103.052 249.901 102.126 248.763C101.201 247.612 100.738 245.992 100.738 243.904C100.738 242.44 100.988 241.202 101.488 240.189C101.989 239.176 102.689 238.413 103.589 237.901C104.49 237.375 105.54 237.113 106.741 237.113C108.042 237.113 109.08 237.35 109.855 237.825L109.311 238.914C108.686 238.501 107.835 238.294 106.76 238.294C105.309 238.294 104.171 238.757 103.346 239.683C102.52 240.596 102.107 241.928 102.107 243.679C102.107 243.991 102.126 244.348 102.164 244.748C102.489 244.035 103.008 243.485 103.721 243.097C104.434 242.697 105.253 242.497 106.178 242.497ZM106.066 249.325C107.016 249.325 107.785 249.069 108.373 248.556C108.974 248.031 109.274 247.337 109.274 246.474C109.274 245.611 108.974 244.923 108.373 244.41C107.785 243.897 106.985 243.641 105.972 243.641C105.309 243.641 104.721 243.766 104.209 244.016C103.708 244.266 103.314 244.61 103.027 245.048C102.739 245.486 102.595 245.974 102.595 246.511C102.595 247.012 102.726 247.474 102.989 247.9C103.264 248.325 103.664 248.669 104.19 248.931C104.715 249.194 105.34 249.325 106.066 249.325ZM113.366 250.451C113.091 250.451 112.853 250.351 112.653 250.151C112.466 249.951 112.372 249.707 112.372 249.419C112.372 249.132 112.466 248.894 112.653 248.706C112.853 248.506 113.091 248.406 113.366 248.406C113.641 248.406 113.879 248.506 114.079 248.706C114.279 248.894 114.379 249.132 114.379 249.419C114.379 249.707 114.279 249.951 114.079 250.151C113.879 250.351 113.641 250.451 113.366 250.451ZM119.748 237.225V250.357H118.397V238.426H115.302V237.225H119.748ZM128.328 242.497C129.191 242.497 129.953 242.659 130.616 242.984C131.292 243.31 131.817 243.772 132.192 244.373C132.567 244.961 132.755 245.648 132.755 246.436C132.755 247.237 132.561 247.943 132.173 248.556C131.786 249.169 131.248 249.644 130.56 249.982C129.885 250.307 129.122 250.47 128.271 250.47C126.533 250.47 125.201 249.901 124.275 248.763C123.35 247.612 122.887 245.992 122.887 243.904C122.887 242.44 123.137 241.202 123.638 240.189C124.138 239.176 124.838 238.413 125.739 237.901C126.639 237.375 127.69 237.113 128.89 237.113C130.191 237.113 131.229 237.35 132.005 237.825L131.46 238.914C130.835 238.501 129.985 238.294 128.909 238.294C127.458 238.294 126.32 238.757 125.495 239.683C124.669 240.596 124.257 241.928 124.257 243.679C124.257 243.991 124.275 244.348 124.313 244.748C124.638 244.035 125.157 243.485 125.87 243.097C126.583 242.697 127.402 242.497 128.328 242.497ZM128.215 249.325C129.166 249.325 129.935 249.069 130.522 248.556C131.123 248.031 131.423 247.337 131.423 246.474C131.423 245.611 131.123 244.923 130.522 244.41C129.935 243.897 129.134 243.641 128.121 243.641C127.458 243.641 126.871 243.766 126.358 244.016C125.858 244.266 125.464 244.61 125.176 245.048C124.888 245.486 124.744 245.974 124.744 246.511C124.744 247.012 124.876 247.474 125.138 247.9C125.414 248.325 125.814 248.669 126.339 248.931C126.864 249.194 127.49 249.325 128.215 249.325Z" fill="#20201F"/>
</g>
<defs>
<clipPath id="clip0_2561_22863">
<rect width="910" height="575" fill="white" transform="translate(14 76)"/>
</clipPath>
</defs>
</svg>
