<svg width="76" height="100" viewBox="0 0 76 100" fill="none" xmlns="http://www.w3.org/2000/svg">
<rect width="74.9999" height="99.9999" transform="translate(0.0369873)" fill="white"/>
<g clip-path="url(#clip0_2561_22016)">
<path d="M68.4203 19.8044H65.9258V95.2628H68.4203V19.8044Z" fill="#ED9FA6"/>
<path fill-rule="evenodd" clip-rule="evenodd" d="M6.53699 95.2628H68.4202V19.8088L39.7889 19.8048V4.83325L7.2703 6.86257L7.25145 19.8048L6.53699 19.8088V95.2628Z" fill="#C6C0E1"/>
<path d="M68.4202 92.7671H6.53699V95.2627H68.4202V92.7671Z" fill="#CFD0D0"/>
<path d="M68.4203 19.8044H65.9258V95.2628H68.4203V19.8044Z" fill="#FFF9D0"/>
<path fill-rule="evenodd" clip-rule="evenodd" d="M6.53699 95.2628H68.4202V19.8088L39.7889 19.8048V4.83325L7.2703 6.86257L7.25145 19.8048L6.53699 19.8088V95.2628Z" fill="#FFF9D0"/>
<path d="M39.7747 22.4009H33.7865V28.3896H39.7747V22.4009Z" fill="#20201F"/>
<path d="M68.4203 22.4001H65.9258V24.8955H68.4203V22.4001Z" fill="#20201F"/>
<path d="M9.04798 24.9045H6.55206V95.2642H9.04798V24.9045Z" fill="#20201F"/>
<path d="M68.4203 24.8955H65.9258V95.263H68.4203V24.8955Z" fill="#20201F"/>
<path d="M9.04622 92.7671H6.53699V95.2627H9.04622V92.7671Z" fill="#20201F"/>
<path d="M65.9256 92.7671H41.5718V95.2627H65.9256V92.7671Z" fill="#20201F"/>
<path d="M31.5911 92.7671H9.0462V95.2627H31.5911V92.7671Z" fill="#20201F"/>
<path d="M20.811 21.1028H6.53699V24.8957H20.811V21.1028Z" fill="#20201F"/>
<path d="M44.9649 21.1025H33.7865V24.8954H44.9649V21.1025Z" fill="#20201F"/>
<path d="M68.4203 21.1025H65.9258V24.8954H68.4203V21.1025Z" fill="#20201F"/>
<path d="M20.811 19.8057H6.53699V21.1032H20.811V19.8057Z" fill="#20201F"/>
<path d="M45.5645 19.8052H33.7865V21.1027H45.5645V19.8052Z" fill="#20201F"/>
<path d="M68.4202 19.8052H65.3262V21.1027H68.4202V19.8052Z" fill="#20201F"/>
<path fill-rule="evenodd" clip-rule="evenodd" d="M6.53699 6.9083L39.7889 4.83325V19.8048H38.5913V6.10798L8.4491 7.98892V19.8048H7.25145V8.0636L6.53699 8.1082V6.9083Z" fill="#20201F"/>
<path d="M6.5503 62.6238H6.53699V63.4223H6.5503V62.6238Z" fill="#20201F"/>
<path d="M20.3121 62.6238H9.03308V63.4223H20.3121V62.6238Z" fill="#20201F"/>
<path d="M28.8954 62.6238H20.3121V63.4223H28.8954V62.6238Z" fill="#20201F"/>
<path d="M33.6647 62.6238H28.8954V63.4223H33.6647V62.6238Z" fill="#20201F"/>
<path d="M33.6647 55.3374H32.8668V63.431H33.6647V55.3374Z" fill="#20201F"/>
<path d="M29.6948 63.4121H28.8954V78.3324H29.6948V63.4121Z" fill="#20201F"/>
<path d="M45.6863 62.564H42.9084V63.362H45.6863V62.564Z" fill="#20201F"/>
<path d="M45.6863 62.5635H44.887V80.5654H45.6863V62.5635Z" fill="#20201F"/>
<path d="M65.9257 78.8525H45.6863V79.6511H65.9257V78.8525Z" fill="#20201F"/>
<path d="M45.6863 91.676H44.887V92.7672H45.6863V91.676Z" fill="#20201F"/>
<path d="M29.6948 84.9265H28.8954V92.7667H29.6948V84.9265Z" fill="#20201F"/>
<path d="M68.4202 62.8235H68.3577V63.6219H68.4202V62.8235Z" fill="#20201F"/>
<path d="M65.3279 19.8052H45.5634V20.4472H65.3279V19.8052Z" fill="#20201F"/>
<path d="M65.926 21.0994H44.9651V21.7413H65.926V21.0994Z" fill="#20201F"/>
<path d="M65.926 24.25H44.9651V24.8919H65.926V24.25Z" fill="#20201F"/>
<path d="M33.7869 19.8052H28.7964V20.4472H33.7869V19.8052Z" fill="#20201F"/>
<path d="M33.787 21.0986H28.7964V21.7405H33.787V21.0986Z" fill="#20201F"/>
<path d="M33.787 24.2498H28.7964V24.8917H33.787V24.2498Z" fill="#20201F"/>
<path d="M29.2675 19.803H28.7964V24.8934H29.2675V19.803Z" fill="#20201F"/>
<path fill-rule="evenodd" clip-rule="evenodd" d="M29.3586 83.9885C29.5151 83.9885 29.6421 84.1155 29.6421 84.272C29.6421 84.4285 29.5151 84.5555 29.3586 84.5555H23.3593C23.2028 84.5555 23.0758 84.4285 23.0758 84.272C23.0758 84.1155 23.2028 83.9885 23.3593 83.9885H29.3586Z" fill="#20201F"/>
<path fill-rule="evenodd" clip-rule="evenodd" d="M29.4157 78.5745C29.4939 78.5745 29.5574 78.6379 29.5574 78.7162C29.5574 78.7944 29.4939 78.8579 29.4157 78.8579C27.7764 78.8579 26.2936 79.3932 25.2221 80.2579C24.159 81.116 23.5011 82.2993 23.5011 83.6038C23.5011 83.6821 23.4376 83.7456 23.3593 83.7456C23.2811 83.7456 23.2176 83.6821 23.2176 83.6038C23.2176 82.2097 23.916 80.9488 25.0449 80.0377C26.1649 79.1339 27.7106 78.5745 29.4157 78.5745Z" fill="#20201F"/>
<path fill-rule="evenodd" clip-rule="evenodd" d="M32.4946 94.7907C32.4946 94.9471 32.3676 95.0741 32.2111 95.0741C32.0547 95.0741 31.9277 94.9471 31.9277 94.7907V88.7913C31.9277 88.6348 32.0547 88.5078 32.2111 88.5078C32.3676 88.5078 32.4946 88.6348 32.4946 88.7913V94.7907Z" fill="#20201F"/>
<path fill-rule="evenodd" clip-rule="evenodd" d="M41.1697 94.8478C41.1697 94.926 41.1062 94.9895 41.028 94.9895C40.9498 94.9895 40.8863 94.926 40.8863 94.8478C40.8863 93.2212 40.0387 91.7462 38.6692 90.6767C37.2897 89.5997 35.3813 88.9331 33.2719 88.9331C33.1936 88.9331 33.1301 88.8696 33.1301 88.7914C33.1301 88.7132 33.1936 88.6497 33.2719 88.6497C35.445 88.6497 37.4153 89.3395 38.8429 90.4542C40.2802 91.5766 41.1697 93.1298 41.1697 94.8478Z" fill="#20201F"/>
<path fill-rule="evenodd" clip-rule="evenodd" d="M21.0266 21.2991C21.0266 21.1426 21.1536 21.0156 21.31 21.0156C21.4665 21.0156 21.5935 21.1426 21.5935 21.2991V27.2985C21.5935 27.455 21.4665 27.5819 21.31 27.5819C21.1536 27.5819 21.0266 27.455 21.0266 27.2985V21.2991Z" fill="#20201F"/>
<path fill-rule="evenodd" clip-rule="evenodd" d="M28.127 21.2421C28.127 21.1638 28.1905 21.1003 28.2687 21.1003C28.347 21.1003 28.4105 21.1638 28.4105 21.2421C28.4105 22.9533 27.7089 24.5029 26.5752 25.6246C25.4415 26.7461 23.8753 27.4402 22.147 27.4402C22.0688 27.4402 22.0053 27.3767 22.0053 27.2984C22.0053 27.2202 22.0688 27.1567 22.147 27.1567C23.7985 27.1567 25.2941 26.4944 26.3759 25.4242C27.4575 24.3541 28.127 22.8752 28.127 21.2421Z" fill="#20201F"/>
<path fill-rule="evenodd" clip-rule="evenodd" d="M27.6017 62.0964H12.5426V56.0728H27.7788V62.0964H27.6017ZM17.2558 61.3842C17.4214 61.3842 17.5725 61.3164 17.6815 61.2067C17.7904 61.0976 17.8583 60.9471 17.8583 60.7818V57.3802C17.8583 57.215 17.7904 57.0645 17.6815 56.9546C17.5725 56.8456 17.4214 56.7779 17.2558 56.7779H13.8542C13.6889 56.7779 13.5383 56.8458 13.4287 56.9546C13.3197 57.0636 13.252 57.2144 13.252 57.3802V60.7818C13.252 60.9476 13.3197 61.0984 13.4291 61.207C13.5383 61.3163 13.6889 61.3842 13.8542 61.3842H17.2558ZM25.85 61.1027C26.0793 61.1027 26.2877 61.0093 26.4386 60.8586C26.5893 60.708 26.6827 60.4996 26.6827 60.27C26.6827 60.0408 26.5893 59.8326 26.4382 59.6814C26.2874 59.5307 26.0792 59.4373 25.85 59.4373C25.6204 59.4373 25.412 59.5307 25.2617 59.6817C25.1107 59.8323 25.0173 60.0407 25.0173 60.27C25.0173 60.4996 25.1107 60.708 25.2614 60.8586C25.412 61.0093 25.6204 61.1027 25.85 61.1027ZM25.85 58.9088C26.1286 58.9088 26.3812 58.7956 26.5639 58.6129C26.7466 58.4302 26.8598 58.1775 26.8598 57.899C26.8598 57.6203 26.7466 57.3678 26.5639 57.1851C26.3812 57.0024 26.1286 56.8891 25.85 56.8891C25.5715 56.8891 25.3188 57.0024 25.1361 57.1851C24.9534 57.3678 24.8401 57.6203 24.8401 57.899C24.8401 58.1775 24.9534 58.4302 25.1361 58.6129C25.3188 58.7956 25.5715 58.9088 25.85 58.9088ZM25.3113 58.4377C25.4489 58.5753 25.6397 58.6608 25.85 58.6608C26.0605 58.6608 26.2511 58.5753 26.3887 58.4377C26.5263 58.3001 26.6118 58.1093 26.6118 57.899C26.6118 57.6885 26.5263 57.4979 26.3887 57.3602C26.2511 57.2226 26.0605 57.1372 25.85 57.1372C25.6397 57.1372 25.4489 57.2226 25.3113 57.3602C25.1736 57.4979 25.0882 57.6885 25.0882 57.899C25.0882 58.1093 25.1736 58.3001 25.3113 58.4377ZM23.6842 61.2799C23.9628 61.2799 24.2154 61.1666 24.3981 60.9839C24.5808 60.8012 24.694 60.5487 24.694 60.27C24.694 59.9914 24.5809 59.7387 24.3982 59.556C24.2155 59.3733 23.9628 59.2602 23.6842 59.2602C23.4055 59.2602 23.153 59.3734 22.9703 59.5561C22.7876 59.7388 22.6743 59.9914 22.6743 60.27C22.6743 60.5485 22.7876 60.8012 22.9703 60.9839C23.153 61.1666 23.4057 61.2799 23.6842 61.2799ZM23.1454 60.8087C23.2831 60.9464 23.4738 61.0318 23.6842 61.0318C23.8946 61.0318 24.0853 60.9464 24.2229 60.8087C24.3605 60.6711 24.446 60.4805 24.446 60.27C24.446 60.0595 24.3607 59.8688 24.223 59.7311C24.0854 59.5935 23.8946 59.5082 23.6842 59.5082C23.4737 59.5082 23.2831 59.5937 23.1454 59.7313C23.0078 59.8689 22.9224 60.0595 22.9224 60.27C22.9224 60.4803 23.0078 60.6711 23.1454 60.8087ZM23.6842 58.7316C23.9135 58.7316 24.1218 58.6382 24.2728 58.4876C24.4234 58.3369 24.5168 58.1286 24.5168 57.899C24.5168 57.6698 24.4234 57.4616 24.2724 57.3104C24.1216 57.1597 23.9134 57.0663 23.6842 57.0663C23.4546 57.0663 23.2462 57.1597 23.0958 57.3106C22.9449 57.4613 22.8515 57.6696 22.8515 57.899C22.8515 58.1286 22.9449 58.3369 23.0956 58.4876C23.2462 58.6382 23.4546 58.7316 23.6842 58.7316ZM23.2707 58.3124C23.3763 58.418 23.5227 58.4836 23.6842 58.4836C23.846 58.4836 23.9923 58.4183 24.0976 58.3128C24.2032 58.2068 24.2688 58.0604 24.2688 57.899C24.2688 57.7371 24.2035 57.5908 24.098 57.4855C23.9923 57.3797 23.846 57.3143 23.6842 57.3143C23.5227 57.3143 23.3763 57.3799 23.2707 57.4855C23.1649 57.5908 23.0995 57.7371 23.0995 57.899C23.0995 58.0604 23.1651 58.2068 23.2707 58.3124ZM25.4365 60.6834C25.5421 60.789 25.6885 60.8547 25.85 60.8547C26.0118 60.8547 26.1581 60.7893 26.2634 60.6839C26.369 60.5779 26.4346 60.4314 26.4346 60.27C26.4346 60.1082 26.3693 59.9619 26.2638 59.8566C26.1581 59.7507 26.0118 59.6854 25.85 59.6854C25.6885 59.6854 25.5421 59.751 25.4365 59.8566C25.3307 59.9619 25.2653 60.1082 25.2653 60.27C25.2653 60.4314 25.331 60.5779 25.4365 60.6834ZM13.8542 61.0298H17.2558C17.3238 61.0298 17.386 61.0018 17.4309 60.9568C17.476 60.9123 17.5039 60.8501 17.5039 60.7818V57.3802C17.5039 57.3119 17.476 57.2497 17.4312 57.2049C17.386 57.1603 17.3238 57.1322 17.2558 57.1322H13.8542C13.7859 57.1322 13.7238 57.16 13.6793 57.2045C13.6344 57.2501 13.6063 57.3125 13.6063 57.3802V60.7818C13.6063 60.8496 13.6344 60.9119 13.6793 60.9568C13.7238 61.0021 13.7859 61.0298 13.8542 61.0298ZM22.1153 56.4271V61.742H27.4245V56.4271H22.1153ZM21.761 61.742V56.4271H12.8969V61.742H21.761Z" fill="#20201F"/>
<path fill-rule="evenodd" clip-rule="evenodd" d="M14.8428 88.8507C14.3767 89.1505 13.7786 89.3356 13.2527 89.3356C12.7351 89.3356 12.3312 89.158 12.05 88.8673V88.8665C11.9437 88.7563 11.8614 88.6257 11.7916 88.4872V89.0852C11.7916 89.442 11.6425 89.6512 11.4031 89.7727C11.1853 89.8835 10.8972 89.9109 10.5812 89.9109H10.4508V89.9076C10.1875 89.9003 9.94712 89.8674 9.7599 89.7727C9.52065 89.6512 9.37225 89.442 9.37225 89.0869V86.1544C9.37225 85.7977 9.52065 85.5888 9.7599 85.468C9.94712 85.374 10.1875 85.3402 10.4508 85.3331V85.3298H10.5812C10.8972 85.3298 11.1853 85.3572 11.4031 85.468C11.6425 85.5888 11.7916 85.7977 11.7916 86.1544V86.7535C11.8614 86.6151 11.9429 86.4848 12.05 86.3744C12.3312 86.0831 12.7351 85.9054 13.2527 85.9054C13.8085 85.9054 14.4446 86.1126 14.9216 86.443C15.3619 86.7479 15.6708 87.1602 15.6708 87.6204C15.6708 88.1078 15.3243 88.5418 14.8428 88.8507ZM10.1923 87.5359H10.1915V87.5363C10.1915 87.6415 10.2354 87.7383 10.305 87.808V87.8089C10.3746 87.8783 10.4705 87.9214 10.577 87.9214C10.6836 87.9214 10.7787 87.8783 10.8483 87.8089H10.8495L10.8494 87.808C10.919 87.7379 10.9619 87.6415 10.9619 87.5363C10.9619 87.4294 10.919 87.3329 10.8495 87.2638C10.7799 87.1943 10.6836 87.1508 10.577 87.1508C10.4705 87.1508 10.3754 87.1943 10.305 87.2638C10.2354 87.3329 10.1923 87.4294 10.1923 87.5359ZM10.3895 87.5355V87.5363C10.3895 87.5882 10.4102 87.6351 10.4429 87.6684H10.4442C10.4778 87.702 10.5254 87.7234 10.577 87.7234C10.6296 87.7234 10.6778 87.7026 10.7104 87.6701L10.7112 87.6687C10.7439 87.6351 10.7651 87.5882 10.7651 87.5363C10.7651 87.4826 10.7439 87.436 10.7112 87.4025C10.6778 87.3698 10.6296 87.3491 10.577 87.3491C10.5245 87.3491 10.4768 87.3698 10.4442 87.4041C10.4093 87.4368 10.3882 87.4842 10.3882 87.5355H10.3895ZM11.5313 86.1544C11.5313 85.9138 11.4367 85.7763 11.2869 85.6996C11.1316 85.6222 10.9162 85.5962 10.6727 85.5916H10.5812C10.3008 85.5916 10.0493 85.613 9.87625 85.6996C9.7263 85.7763 9.6329 85.914 9.6329 86.1544V89.0869C9.6329 89.327 9.7263 89.464 9.87625 89.5407C10.0493 89.628 10.3008 89.6491 10.5812 89.6491H10.6827C10.9211 89.6437 11.135 89.6181 11.2869 89.5411C11.438 89.464 11.5313 89.3258 11.5313 89.0852V86.1544ZM14.7742 86.6563C14.3388 86.3544 13.7587 86.1656 13.2527 86.1656C12.8105 86.1656 12.4704 86.3133 12.237 86.5544C11.9814 86.8182 11.8493 87.198 11.8493 87.6204C11.8493 88.0434 11.9814 88.4228 12.237 88.6873C12.4704 88.9278 12.8105 89.0752 13.2527 89.0752C13.7307 89.0752 14.2765 88.9062 14.7031 88.6322C15.1142 88.3683 15.4103 88.0088 15.4103 87.6204C15.4103 87.2551 15.147 86.9157 14.7742 86.6563Z" fill="#20201F"/>
<path fill-rule="evenodd" clip-rule="evenodd" d="M26.1696 92.378L22.9212 92.379C21.8348 92.379 21.9628 90.1303 21.974 89.9802C21.974 89.4596 22.1863 88.9873 22.5285 88.6456C22.8697 88.3045 23.3428 88.093 23.8633 88.093H25.2418C25.7632 88.093 26.2357 88.3041 26.578 88.6456C26.919 88.9873 27.1306 89.4604 27.1329 89.981C27.1399 90.1337 27.2517 92.379 26.1696 92.378ZM24.552 90.1875V90.1871C24.6662 90.186 24.7717 90.141 24.8469 90.0659C24.9209 89.9895 24.9665 89.8853 24.9665 89.7717C24.9665 89.6569 24.9206 89.5526 24.8454 89.4776C24.7702 89.4023 24.6662 89.3563 24.5515 89.3563C24.4376 89.3563 24.3334 89.4023 24.2583 89.4776H24.2569V89.4784C24.1818 89.5534 24.1348 89.6569 24.1348 89.7717C24.1348 89.8853 24.1818 89.9909 24.2569 90.0659H24.2573C24.3324 90.141 24.4376 90.1882 24.5515 90.1882L24.552 90.1875ZM24.5527 89.9756C24.607 89.9756 24.6581 89.9533 24.6947 89.9157C24.7304 89.88 24.7534 89.8287 24.7534 89.7717C24.7534 89.715 24.7314 89.6635 24.6957 89.6268C24.6588 89.5916 24.6088 89.5683 24.5515 89.5689C24.4943 89.5689 24.4448 89.5911 24.4081 89.6268L24.4073 89.6277C24.3708 89.6635 24.3486 89.715 24.3486 89.7717C24.3486 89.8277 24.3722 89.879 24.4075 89.9157L24.4084 89.9161C24.4442 89.9521 24.4954 89.9738 24.5507 89.9738L24.5527 89.9734V89.9756ZM24.552 91.5864C25.0757 91.5864 25.551 91.4304 25.8967 91.1799C26.2559 90.918 26.4791 90.5521 26.4794 90.1466C26.4794 89.7395 26.2559 89.3737 25.8967 89.1112C25.5498 88.8593 25.0741 88.7047 24.5503 88.7047H24.548C24.0256 88.706 23.5512 88.8618 23.2045 89.1128C22.8469 89.3746 22.6241 89.7395 22.6238 90.1443L22.6241 90.1466C22.6241 90.5531 22.8469 90.9169 23.2074 91.1799C23.5522 91.4308 24.0274 91.5864 24.5507 91.586L24.552 91.5864ZM24.552 91.2935C25.0109 91.2926 25.4256 91.158 25.7255 90.9416C26.0085 90.7346 26.1847 90.4527 26.1847 90.1466C26.1847 89.8384 26.0085 89.5565 25.7232 89.3488C25.4249 89.1332 25.0109 88.999 24.5503 88.999H24.5494L24.548 88.9981C24.0886 88.999 23.6756 89.1332 23.3773 89.35C23.095 89.5561 22.9189 89.8384 22.9181 90.1443L22.9189 90.1466C22.9184 90.4533 23.0947 90.7355 23.3783 90.9416C23.6768 91.1571 24.0909 91.2926 24.5503 91.2922H24.552V91.2935ZM26.1686 92.0848C26.975 92.0848 26.8377 89.9972 26.8377 89.9918L26.8364 89.981C26.8364 89.5411 26.6588 89.1431 26.3712 88.8537C26.0811 88.5653 25.6824 88.3873 25.2418 88.3873H23.8647C23.4225 88.3873 23.0231 88.5644 22.7342 88.8537C22.4458 89.1417 22.2682 89.5411 22.2674 89.981L22.267 89.9914C22.267 89.9966 22.119 92.0848 22.922 92.0848H26.1686Z" fill="#20201F"/>
<path fill-rule="evenodd" clip-rule="evenodd" d="M9.85596 81.1635V64.2321H16.7824V81.1635H9.85596ZM13.9924 77.8642C13.9924 77.6783 13.917 77.5099 13.7953 77.3882C13.6729 77.2664 13.5047 77.191 13.3192 77.191C13.1337 77.191 12.9655 77.2664 12.8436 77.3882C12.7214 77.5105 12.646 77.6787 12.646 77.8642C12.646 78.0498 12.7214 78.218 12.8431 78.3399C12.9648 78.4621 13.1332 78.5375 13.3192 78.5375C13.5051 78.5375 13.6736 78.4621 13.7953 78.3404C13.917 78.2187 13.9924 78.0502 13.9924 77.8642ZM13.6051 77.5784C13.5322 77.5056 13.4309 77.4603 13.3192 77.4603C13.2074 77.4603 13.1062 77.5056 13.0333 77.5784C12.9605 77.6513 12.9152 77.7525 12.9152 77.8642C12.9152 77.976 12.9605 78.0773 13.0334 78.15C13.1066 78.223 13.2077 78.2682 13.3192 78.2682C13.4307 78.2682 13.5318 78.223 13.6049 78.15C13.6779 78.0768 13.7231 77.9757 13.7231 77.8642C13.7231 77.7528 13.6779 77.6516 13.6051 77.5784ZM16.5842 79.8856L16.3149 67.9335C16.3149 66.1384 15.1143 64.6685 13.3192 64.6685C11.5241 64.6685 10.3234 66.1384 10.3234 67.9335L10.0541 79.8856C10.0541 80.1172 10.149 80.3277 10.3012 80.48C10.4542 80.6323 10.6646 80.7271 10.8957 80.7271H15.7427C15.9734 80.7271 16.1838 80.6324 16.3365 80.48C16.4895 80.3267 16.5842 80.1163 16.5842 79.8856ZM15.9783 67.9335C15.9783 66.3223 14.9303 65.0051 13.3192 65.0051C11.708 65.0051 10.66 66.3223 10.66 67.9335L10.3908 79.8856C10.3908 80.0241 10.4477 80.1504 10.5393 80.2427C10.6303 80.3338 10.7566 80.3905 10.8957 80.3905H15.7427C15.8817 80.3905 16.0079 80.3338 16.0997 80.2419C16.1909 80.1508 16.2476 80.0247 16.2476 79.8856L15.9783 67.9335ZM9.52625 64.1965V81.199C9.52625 81.2836 9.55973 81.3607 9.61293 81.4166C9.66628 81.4729 9.74058 81.5076 9.82203 81.5076H16.8163C16.8978 81.5076 16.9721 81.4729 17.0254 81.4173C17.0789 81.3614 17.1121 81.284 17.1121 81.199V64.1965C17.1121 64.1116 17.0789 64.0342 17.0254 63.9783C16.9714 63.923 16.8974 63.8879 16.8163 63.8879H9.82203C9.74096 63.8879 9.66708 63.9228 9.61344 63.9783C9.5596 64.035 9.52625 64.112 9.52625 64.1965Z" fill="#20201F"/>
<path fill-rule="evenodd" clip-rule="evenodd" d="M46.0239 80.6553V81.1421C46.0239 81.2002 45.9763 81.2474 45.9185 81.2474H45.8167V86.2528C45.8167 86.3373 45.7481 86.4059 45.6637 86.4059C45.5792 86.4059 45.5106 86.3373 45.5106 86.2528V81.2474H44.6761C44.6184 81.2474 44.5706 81.1997 44.5706 81.1421V80.6553C44.5706 80.5972 44.618 80.55 44.6761 80.55H45.9185C45.9766 80.55 46.0239 80.5972 46.0239 80.6553Z" fill="#20201F"/>
<path fill-rule="evenodd" clip-rule="evenodd" d="M44.5332 91.562V91.0753C44.5332 91.0172 44.5808 90.97 44.6387 90.97H44.7404V85.9646C44.7404 85.8801 44.809 85.8115 44.8935 85.8115C44.978 85.8115 45.0466 85.8801 45.0466 85.9646V90.97H45.8811C45.9388 90.97 45.9865 91.0176 45.9865 91.0753V91.562C45.9865 91.6201 45.9392 91.6673 45.8811 91.6673H44.6387C44.5805 91.6673 44.5332 91.6201 44.5332 91.562Z" fill="#20201F"/>
<path d="M49.6862 31H49.3319V47.8491H49.6862V31Z" fill="#20201F"/>
<path d="M53.2538 32.5906V34.9861H53.0074V32.8096H52.4427V32.5906H53.2538ZM54.4561 33.5727C54.8028 33.5727 55.0549 33.6355 55.2124 33.761C55.3721 33.8842 55.4519 34.0575 55.4519 34.2811C55.4519 34.4203 55.4188 34.5446 55.3527 34.6541C55.2888 34.7636 55.1918 34.8503 55.0618 34.9142C54.9317 34.9758 54.772 35.0066 54.5827 35.0066C54.4116 35.0066 54.2485 34.9792 54.0933 34.9245C53.9405 34.8675 53.8173 34.7922 53.7237 34.6986L53.8435 34.5036C53.9233 34.5857 54.0283 34.653 54.1583 34.7055C54.2884 34.7557 54.4287 34.7808 54.5793 34.7808C54.7777 34.7808 54.9306 34.7363 55.0378 34.6473C55.1473 34.5583 55.2021 34.4397 55.2021 34.2914C55.2021 34.1271 55.1405 34.0028 55.0173 33.9184C54.8964 33.834 54.691 33.7918 54.4013 33.7918H53.8914L54.0146 32.5906H55.3253V32.8096H54.2302L54.1481 33.5727H54.4561ZM55.9495 35.0032C55.8993 35.0032 55.856 34.9849 55.8195 34.9484C55.7852 34.9119 55.7681 34.8675 55.7681 34.815C55.7681 34.7625 55.7852 34.7192 55.8195 34.6849C55.856 34.6484 55.8993 34.6302 55.9495 34.6302C55.9997 34.6302 56.043 34.6484 56.0795 34.6849C56.116 34.7192 56.1343 34.7625 56.1343 34.815C56.1343 34.8675 56.116 34.9119 56.0795 34.9484C56.043 34.9849 55.9997 35.0032 55.9495 35.0032ZM57.3378 33.6172C57.5887 33.6309 57.7792 33.6994 57.9093 33.8226C58.0416 33.9435 58.1078 34.102 58.1078 34.2982C58.1078 34.4351 58.0747 34.5572 58.0085 34.6644C57.9424 34.7693 57.8443 34.8526 57.7142 34.9142C57.5842 34.9758 57.4256 35.0066 57.2385 35.0066C57.0652 35.0066 56.9009 34.9792 56.7458 34.9245C56.5929 34.8675 56.4697 34.7922 56.3762 34.6986L56.4959 34.5036C56.5758 34.5857 56.6819 34.653 56.8142 34.7055C56.9465 34.7557 57.088 34.7808 57.2385 34.7808C57.4347 34.7808 57.5865 34.7385 57.6937 34.6541C57.8009 34.5674 57.8545 34.4488 57.8545 34.2982C57.8545 34.1499 57.8009 34.0336 57.6937 33.9492C57.5865 33.8648 57.4245 33.8226 57.2077 33.8226H57.0366V33.6412L57.7005 32.8096H56.4754V32.5906H58.0154V32.7651L57.3378 33.6172ZM60.102 32.5906V32.7651L59.0994 34.9861H58.8324L59.818 32.8096H58.586V33.2579H58.3431V32.5906H60.102Z" fill="#20201F"/>
<path d="M52.9903 38.4981C53.2412 38.5118 53.4317 38.5802 53.5618 38.7034C53.6941 38.8243 53.7603 38.9829 53.7603 39.1791C53.7603 39.316 53.7272 39.438 53.661 39.5453C53.5949 39.6502 53.4968 39.7335 53.3667 39.7951C53.2367 39.8567 53.0781 39.8875 52.891 39.8875C52.7177 39.8875 52.5534 39.8601 52.3983 39.8053C52.2454 39.7483 52.1222 39.673 52.0287 39.5795L52.1484 39.3844C52.2283 39.4666 52.3344 39.5339 52.4667 39.5863C52.599 39.6365 52.7405 39.6616 52.891 39.6616C53.0872 39.6616 53.239 39.6194 53.3462 39.535C53.4534 39.4483 53.507 39.3297 53.507 39.1791C53.507 39.0308 53.4534 38.9145 53.3462 38.83C53.239 38.7456 53.077 38.7034 52.8602 38.7034H52.6891V38.522L53.353 37.6905H52.1279V37.4715H53.6679V37.646L52.9903 38.4981ZM55.7545 37.4715V37.646L54.7519 39.8669H54.4849L55.4705 37.6905H54.2385V38.1388H53.9956V37.4715H55.7545ZM56.0835 39.8841C56.0333 39.8841 55.99 39.8658 55.9535 39.8293C55.9193 39.7928 55.9021 39.7483 55.9021 39.6958C55.9021 39.6434 55.9193 39.6 55.9535 39.5658C55.99 39.5293 56.0333 39.511 56.0835 39.511C56.1337 39.511 56.1771 39.5293 56.2136 39.5658C56.2501 39.6 56.2683 39.6434 56.2683 39.6958C56.2683 39.7483 56.2501 39.7928 56.2136 39.8293C56.1771 39.8658 56.1337 39.8841 56.0835 39.8841ZM57.5419 39.8875C57.3571 39.8875 57.1917 39.8384 57.0457 39.7403C56.902 39.6422 56.7891 39.5019 56.7069 39.3194C56.6271 39.1346 56.5872 38.9179 56.5872 38.6692C56.5872 38.4205 56.6271 38.2049 56.7069 38.0224C56.7891 37.8376 56.902 37.6962 57.0457 37.5981C57.1917 37.5 57.3571 37.4509 57.5419 37.4509C57.7267 37.4509 57.891 37.5 58.0347 37.5981C58.1807 37.6962 58.2948 37.8376 58.3769 38.0224C58.4591 38.2049 58.5001 38.4205 58.5001 38.6692C58.5001 38.9179 58.4591 39.1346 58.3769 39.3194C58.2948 39.5019 58.1807 39.6422 58.0347 39.7403C57.891 39.8384 57.7267 39.8875 57.5419 39.8875ZM57.5419 39.6616C57.6811 39.6616 57.8032 39.6228 57.9081 39.5453C58.0153 39.4677 58.0986 39.3548 58.1579 39.2065C58.2172 39.0582 58.2469 38.8791 58.2469 38.6692C58.2469 38.4593 58.2172 38.2802 58.1579 38.1319C58.0986 37.9836 58.0153 37.8707 57.9081 37.7931C57.8032 37.7156 57.6811 37.6768 57.5419 37.6768C57.4028 37.6768 57.2796 37.7156 57.1723 37.7931C57.0674 37.8707 56.9853 37.9836 56.9259 38.1319C56.8666 38.2802 56.837 38.4593 56.837 38.6692C56.837 38.8791 56.8666 39.0582 56.9259 39.2065C56.9853 39.3548 57.0674 39.4677 57.1723 39.5453C57.2796 39.6228 57.4028 39.6616 57.5419 39.6616ZM60.5168 37.4715V37.646L59.5141 39.8669H59.2472L60.2327 37.6905H59.0008V38.1388H58.7578V37.4715H60.5168Z" fill="#20201F"/>
<path d="M52.9305 43.3792C53.1815 43.3929 53.372 43.4613 53.502 43.5845C53.6343 43.7054 53.7005 43.864 53.7005 44.0602C53.7005 44.1971 53.6674 44.3191 53.6013 44.4264C53.5351 44.5313 53.437 44.6146 53.307 44.6762C53.1769 44.7378 53.0184 44.7686 52.8313 44.7686C52.6579 44.7686 52.4936 44.7412 52.3385 44.6864C52.1856 44.6294 52.0624 44.5541 51.9689 44.4606L52.0887 44.2655C52.1685 44.3477 52.2746 44.415 52.4069 44.4674C52.5393 44.5176 52.6807 44.5427 52.8313 44.5427C53.0275 44.5427 53.1792 44.5005 53.2864 44.4161C53.3937 44.3294 53.4473 44.2108 53.4473 44.0602C53.4473 43.9119 53.3937 43.7956 53.2864 43.7111C53.1792 43.6267 53.0172 43.5845 52.8005 43.5845H52.6294V43.4031L53.2933 42.5716H52.0682V42.3526H53.6081V42.5271L52.9305 43.3792ZM55.42 43.4921C55.5705 43.5423 55.6858 43.6176 55.7656 43.718C55.8477 43.8184 55.8888 43.9393 55.8888 44.0807C55.8888 44.2199 55.8512 44.342 55.7759 44.4469C55.7006 44.5496 55.5922 44.6294 55.4508 44.6864C55.3116 44.7412 55.1473 44.7686 54.958 44.7686C54.6705 44.7686 54.4447 44.707 54.2804 44.5838C54.1161 44.4606 54.034 44.2929 54.034 44.0807C54.034 43.937 54.0728 43.8161 54.1504 43.718C54.2302 43.6176 54.3454 43.5423 54.496 43.4921C54.3728 43.4442 54.2793 43.3758 54.2154 43.2868C54.1515 43.1955 54.1196 43.0883 54.1196 42.9651C54.1196 42.7712 54.1948 42.6172 54.3454 42.5031C54.4983 42.3891 54.7025 42.332 54.958 42.332C55.1268 42.332 55.274 42.3583 55.3994 42.4107C55.5272 42.4609 55.6264 42.5339 55.6972 42.6297C55.7679 42.7256 55.8032 42.8374 55.8032 42.9651C55.8032 43.0883 55.7702 43.1955 55.704 43.2868C55.6378 43.3758 55.5432 43.4442 55.42 43.4921ZM54.366 42.972C54.366 43.1043 54.4184 43.2092 54.5234 43.2868C54.6283 43.3644 54.7732 43.4031 54.958 43.4031C55.1428 43.4031 55.2876 43.3644 55.3926 43.2868C55.4998 43.2092 55.5534 43.1054 55.5534 42.9754C55.5534 42.8408 55.4987 42.7347 55.3892 42.6571C55.2819 42.5796 55.1382 42.5408 54.958 42.5408C54.7755 42.5408 54.6306 42.5796 54.5234 42.6571C54.4184 42.7347 54.366 42.8396 54.366 42.972ZM54.958 44.5598C55.1702 44.5598 55.3356 44.5165 55.4542 44.4298C55.5751 44.3431 55.6356 44.2256 55.6356 44.0773C55.6356 43.929 55.5751 43.8127 55.4542 43.7283C55.3356 43.6416 55.1702 43.5982 54.958 43.5982C54.7481 43.5982 54.5827 43.6416 54.4618 43.7283C54.3431 43.8127 54.2838 43.929 54.2838 44.0773C54.2838 44.2279 54.3431 44.3465 54.4618 44.4332C54.5804 44.5176 54.7458 44.5598 54.958 44.5598ZM56.4482 44.7652C56.398 44.7652 56.3546 44.7469 56.3181 44.7104C56.2839 44.6739 56.2668 44.6294 56.2668 44.5769C56.2668 44.5245 56.2839 44.4811 56.3181 44.4469C56.3546 44.4104 56.398 44.3921 56.4482 44.3921C56.4984 44.3921 56.5417 44.4104 56.5782 44.4469C56.6147 44.4811 56.633 44.5245 56.633 44.5769C56.633 44.6294 56.6147 44.6739 56.5782 44.7104C56.5417 44.7469 56.4984 44.7652 56.4482 44.7652ZM58.6578 44.529V44.748H56.9775V44.5735L57.9734 43.5982C58.0988 43.475 58.1832 43.3689 58.2266 43.28C58.2722 43.1887 58.295 43.0974 58.295 43.0062C58.295 42.8647 58.246 42.7552 58.1479 42.6777C58.0521 42.5978 57.914 42.5579 57.7338 42.5579C57.4532 42.5579 57.2353 42.6469 57.0802 42.8248L56.9057 42.6742C56.9992 42.5647 57.1178 42.4803 57.2616 42.421C57.4076 42.3617 57.5718 42.332 57.7543 42.332C57.9985 42.332 58.1912 42.3902 58.3327 42.5066C58.4764 42.6206 58.5483 42.778 58.5483 42.9788C58.5483 43.102 58.5209 43.2206 58.4661 43.3347C58.4114 43.4488 58.3076 43.58 58.1547 43.7283L57.3403 44.529H58.6578ZM59.7815 43.3792C60.0324 43.3929 60.2229 43.4613 60.353 43.5845C60.4853 43.7054 60.5515 43.864 60.5515 44.0602C60.5515 44.1971 60.5184 44.3191 60.4522 44.4264C60.3861 44.5313 60.2879 44.6146 60.1579 44.6762C60.0279 44.7378 59.8693 44.7686 59.6822 44.7686C59.5088 44.7686 59.3446 44.7412 59.1894 44.6864C59.0366 44.6294 58.9134 44.5541 58.8199 44.4606L58.9396 44.2655C59.0195 44.3477 59.1256 44.415 59.2579 44.4674C59.3902 44.5176 59.5317 44.5427 59.6822 44.5427C59.8784 44.5427 60.0301 44.5005 60.1374 44.4161C60.2446 44.3294 60.2982 44.2108 60.2982 44.0602C60.2982 43.9119 60.2446 43.7956 60.1374 43.7111C60.0301 43.6267 59.8682 43.5845 59.6514 43.5845H59.4803V43.4031L60.1442 42.5716H58.9191V42.3526H60.4591V42.5271L59.7815 43.3792Z" fill="#20201F"/>
<path d="M46.5081 35.9594V42.6667H44.9558V37.205H43.6144V35.9594H46.5081Z" fill="#20201F"/>
<path d="M49.3494 69.1108H48.4049V70.5139H47.8745V68.6728H49.3494V69.1108ZM50.4178 70.5413C50.2239 70.5413 50.0494 70.5014 49.8942 70.4215C49.7414 70.3394 49.6216 70.2265 49.5349 70.0827C49.4482 69.939 49.4049 69.7759 49.4049 69.5934C49.4049 69.4108 49.4482 69.2477 49.5349 69.104C49.6216 68.9603 49.7414 68.8485 49.8942 68.7686C50.0494 68.6865 50.2239 68.6454 50.4178 68.6454C50.6117 68.6454 50.7851 68.6865 50.938 68.7686C51.0908 68.8485 51.2106 68.9603 51.2973 69.104C51.384 69.2477 51.4274 69.4108 51.4274 69.5934C51.4274 69.7759 51.384 69.939 51.2973 70.0827C51.2106 70.2265 51.0908 70.3394 50.938 70.4215C50.7851 70.5014 50.6117 70.5413 50.4178 70.5413ZM50.4178 70.1033C50.5547 70.1033 50.6665 70.0576 50.7532 69.9664C50.8422 69.8728 50.8867 69.7485 50.8867 69.5934C50.8867 69.4382 50.8422 69.315 50.7532 69.2238C50.6665 69.1302 50.5547 69.0835 50.4178 69.0835C50.2809 69.0835 50.168 69.1302 50.079 69.2238C49.9901 69.315 49.9456 69.4382 49.9456 69.5934C49.9456 69.7485 49.9901 69.8728 50.079 69.9664C50.168 70.0576 50.2809 70.1033 50.4178 70.1033ZM52.6706 70.5413C52.4744 70.5413 52.2976 70.5014 52.1402 70.4215C51.985 70.3394 51.863 70.2265 51.774 70.0827C51.6873 69.939 51.644 69.7759 51.644 69.5934C51.644 69.4108 51.6873 69.2477 51.774 69.104C51.863 68.9603 51.985 68.8485 52.1402 68.7686C52.2976 68.6865 52.4744 68.6454 52.6706 68.6454C52.8645 68.6454 53.0333 68.6865 53.1771 68.7686C53.3231 68.8485 53.4292 68.9637 53.4953 69.1143L53.0813 69.3367C52.9854 69.1679 52.8474 69.0835 52.6672 69.0835C52.528 69.0835 52.4128 69.1291 52.3215 69.2204C52.2303 69.3116 52.1847 69.4359 52.1847 69.5934C52.1847 69.7508 52.2303 69.8751 52.3215 69.9664C52.4128 70.0576 52.528 70.1033 52.6672 70.1033C52.8497 70.1033 52.9877 70.0188 53.0813 69.85L53.4953 70.0759C53.4292 70.2219 53.3231 70.336 53.1771 70.4181C53.0333 70.5002 52.8645 70.5413 52.6706 70.5413ZM55.3599 69.1108H54.737V70.5139H54.2066V69.1108H53.5838V68.6728H55.3599V69.1108ZM55.6444 68.6728H56.1749V69.7679L57.0715 68.6728H57.5608V70.5139H57.0304V69.4188L56.1372 70.5139H55.6444V68.6728ZM58.074 68.6728H58.6044V69.3915H59.4052V68.6728H59.9391V70.5139H59.4052V69.8261H58.6044V70.5139H58.074V68.6728ZM61.1653 68.6454C61.4505 68.6454 61.6695 68.7139 61.8224 68.8508C61.9753 68.9854 62.0517 69.1896 62.0517 69.4633V70.5139H61.552V70.2846C61.4517 70.4557 61.2646 70.5413 60.9908 70.5413C60.8494 70.5413 60.7262 70.5173 60.6212 70.4694C60.5186 70.4215 60.4399 70.3554 60.3851 70.2709C60.3303 70.1865 60.303 70.0907 60.303 69.9835C60.303 69.8124 60.3668 69.6778 60.4946 69.5797C60.6246 69.4816 60.8243 69.4325 61.0935 69.4325H61.5178C61.5178 69.3162 61.4825 69.2272 61.4117 69.1656C61.341 69.1017 61.2349 69.0698 61.0935 69.0698C60.9954 69.0698 60.8984 69.0857 60.8026 69.1177C60.7091 69.1473 60.6292 69.1884 60.5631 69.2409L60.3714 68.8679C60.4718 68.7971 60.5916 68.7424 60.7307 68.7036C60.8722 68.6648 61.0171 68.6454 61.1653 68.6454ZM61.1243 70.182C61.2155 70.182 61.2965 70.1614 61.3673 70.1204C61.438 70.077 61.4882 70.0143 61.5178 69.9322V69.7439H61.1517C60.9326 69.7439 60.8231 69.8158 60.8231 69.9595C60.8231 70.028 60.8494 70.0827 60.9018 70.1238C60.9566 70.1626 61.0307 70.182 61.1243 70.182ZM64.1512 68.6728V70.5139H63.6755V69.9869H63.282L62.9329 70.5139H62.3649L62.7858 69.9116C62.658 69.8614 62.5599 69.7896 62.4915 69.696C62.4253 69.6002 62.3922 69.485 62.3922 69.3504C62.3922 69.1337 62.4698 68.9671 62.6249 68.8508C62.7824 68.7321 62.998 68.6728 63.2717 68.6728H64.1512ZM63.282 69.1074C63.1679 69.1074 63.0812 69.128 63.0219 69.169C62.9649 69.2101 62.9364 69.2762 62.9364 69.3675C62.9364 69.4588 62.9637 69.5261 63.0185 69.5694C63.0755 69.6105 63.1611 69.631 63.2751 69.631H63.6755V69.1074H63.282Z" fill="#20201F"/>
<path d="M52.8893 72.5313V74.9268H52.3349V72.9761H51.8558V72.5313H52.8893ZM54.1267 73.4313C54.4644 73.4313 54.7131 73.4986 54.8728 73.6332C55.0347 73.7678 55.1157 73.948 55.1157 74.1739C55.1157 74.3199 55.0792 74.4534 55.0062 74.5743C54.9332 74.6929 54.8214 74.7887 54.6709 74.8617C54.5226 74.9325 54.3389 74.9678 54.1199 74.9678C53.9511 74.9678 53.7845 74.9461 53.6203 74.9028C53.4583 74.8572 53.3203 74.7933 53.2062 74.7112L53.4252 74.2868C53.5165 74.3553 53.6214 74.4089 53.74 74.4477C53.8587 74.4842 53.9807 74.5024 54.1062 74.5024C54.2454 74.5024 54.3549 74.475 54.4347 74.4203C54.5146 74.3655 54.5545 74.2891 54.5545 74.191C54.5545 74.0883 54.5123 74.0108 54.4279 73.9583C54.3458 73.9058 54.202 73.8796 53.9967 73.8796H53.3841L53.5073 72.5313H54.9686V72.9761H53.9693L53.9317 73.4313H54.1267ZM55.6555 74.9541C55.562 74.9541 55.4832 74.9222 55.4194 74.8583C55.3555 74.7944 55.3235 74.7146 55.3235 74.6188C55.3235 74.5207 55.3555 74.442 55.4194 74.3826C55.4832 74.321 55.562 74.2902 55.6555 74.2902C55.749 74.2902 55.8277 74.321 55.8916 74.3826C55.9555 74.442 55.9874 74.5207 55.9874 74.6188C55.9874 74.7146 55.9555 74.7944 55.8916 74.8583C55.8277 74.9222 55.749 74.9541 55.6555 74.9541ZM57.3887 73.5066C57.5986 73.5408 57.7595 73.6195 57.8713 73.7427C57.9831 73.8636 58.039 74.0142 58.039 74.1944C58.039 74.3336 58.0024 74.4625 57.9294 74.5811C57.8564 74.6975 57.7446 74.791 57.5941 74.8617C57.4458 74.9325 57.2633 74.9678 57.0465 74.9678C56.8777 74.9678 56.7112 74.9461 56.5469 74.9028C56.3849 74.8572 56.2469 74.7933 56.1328 74.7112L56.3484 74.2868C56.4397 74.3553 56.5446 74.4089 56.6633 74.4477C56.7842 74.4842 56.9074 74.5024 57.0328 74.5024C57.172 74.5024 57.2815 74.4762 57.3614 74.4237C57.4412 74.369 57.4811 74.2925 57.4811 74.1944C57.4811 73.9982 57.3317 73.9001 57.0328 73.9001H56.7796V73.534L57.2724 72.9761H56.2526V72.5313H57.9294V72.8906L57.3887 73.5066ZM60.1402 72.5313V72.8906L59.2504 74.9268H58.6481L59.5071 72.983H58.7131V73.3731H58.2204V72.5313H60.1402Z" fill="#20201F"/>
<path d="M18.0069 37.6796H17.7297V38.3777H17.1959V36.5366H17.7297V37.2518H18.0172L18.5168 36.5366H19.0849L18.4415 37.4195L19.1294 38.3777H18.4997L18.0069 37.6796ZM21.1324 36.5366L20.3009 38.4906C20.2165 38.7028 20.1115 38.8522 19.986 38.9389C19.8628 39.0256 19.7134 39.069 19.5377 39.069C19.4419 39.069 19.3472 39.0541 19.2537 39.0245C19.1602 38.9948 19.0837 38.9537 19.0244 38.9013L19.2195 38.5214C19.2605 38.5579 19.3073 38.5864 19.3598 38.607C19.4145 38.6275 19.4681 38.6378 19.5206 38.6378C19.5936 38.6378 19.6529 38.6195 19.6986 38.583C19.7442 38.5488 19.7853 38.4906 19.8218 38.4085L19.8286 38.3914L19.0313 36.5366H19.5822L20.099 37.7857L20.6191 36.5366H21.1324ZM22.4431 38.3777L22.0393 37.813L21.6218 38.3777H21.04L21.7484 37.4503L21.0639 36.5366H21.6628L22.0529 37.0739L22.4533 36.5366H23.0214L22.337 37.4366L23.0488 38.3777H22.4431ZM23.3116 36.5366H23.842V37.2552H24.6428V36.5366H25.1767V38.3777H24.6428V37.6898H23.842V38.3777H23.3116V36.5366ZM27.3235 36.5366V38.3777H26.8478V37.8507H26.4543L26.1052 38.3777H25.5371L25.958 37.7754C25.8303 37.7252 25.7322 37.6533 25.6637 37.5598C25.5976 37.464 25.5645 37.3488 25.5645 37.2142C25.5645 36.9974 25.6421 36.8309 25.7972 36.7145C25.9546 36.5959 26.1702 36.5366 26.444 36.5366H27.3235ZM26.4543 36.9712C26.3402 36.9712 26.2535 36.9917 26.1942 37.0328C26.1371 37.0739 26.1086 37.14 26.1086 37.2313C26.1086 37.3225 26.136 37.3898 26.1908 37.4332C26.2478 37.4742 26.3333 37.4948 26.4474 37.4948H26.8478V36.9712H26.4543Z" fill="#20201F"/>
<path d="M19.5844 40.8225C19.9197 40.8225 20.1821 40.9251 20.3715 41.1305C20.5608 41.3335 20.6555 41.6267 20.6555 42.01C20.6555 42.2814 20.6042 42.5141 20.5015 42.7081C20.4011 42.902 20.2585 43.0491 20.0737 43.1495C19.8889 43.2499 19.6756 43.3001 19.4338 43.3001C19.306 43.3001 19.184 43.2864 19.0676 43.259C18.9513 43.2294 18.852 43.1883 18.7699 43.1358L18.9752 42.7286C19.0916 42.8085 19.241 42.8484 19.4235 42.8484C19.6266 42.8484 19.7874 42.7891 19.9061 42.6704C20.0247 42.5495 20.0886 42.3761 20.0977 42.1503C19.954 42.294 19.7555 42.3659 19.5022 42.3659C19.3494 42.3659 19.2102 42.3351 19.0847 42.2735C18.9593 42.2119 18.86 42.1252 18.787 42.0134C18.714 41.8993 18.6775 41.7681 18.6775 41.6198C18.6775 41.4601 18.7174 41.3198 18.7973 41.1989C18.8771 41.078 18.9855 40.9856 19.1224 40.9217C19.2616 40.8556 19.4156 40.8225 19.5844 40.8225ZM19.6254 41.9518C19.7464 41.9518 19.8445 41.9187 19.9197 41.8525C19.9973 41.7841 20.0361 41.6974 20.0361 41.5925C20.0361 41.4875 19.9985 41.402 19.9232 41.3358C19.8502 41.2696 19.7486 41.2366 19.6186 41.2366C19.5 41.2366 19.403 41.2685 19.3277 41.3324C19.2547 41.3963 19.2182 41.4829 19.2182 41.5925C19.2182 41.702 19.2547 41.7898 19.3277 41.856C19.403 41.9198 19.5022 41.9518 19.6254 41.9518ZM21.1929 43.2864C21.0993 43.2864 21.0206 43.2545 20.9567 43.1906C20.8929 43.1267 20.8609 43.0469 20.8609 42.951C20.8609 42.8529 20.8929 42.7742 20.9567 42.7149C21.0206 42.6533 21.0993 42.6225 21.1929 42.6225C21.2864 42.6225 21.3651 42.6533 21.429 42.7149C21.4929 42.7742 21.5248 42.8529 21.5248 42.951C21.5248 43.0469 21.4929 43.1267 21.429 43.1906C21.3651 43.2545 21.2864 43.2864 21.1929 43.2864ZM23.5969 42.8073V43.259H21.7865V42.8997L22.7105 42.0271C22.8086 41.9335 22.8748 41.8537 22.909 41.7875C22.9432 41.7191 22.9603 41.6518 22.9603 41.5856C22.9603 41.4898 22.9273 41.4168 22.8611 41.3666C22.7972 41.3141 22.7025 41.2879 22.5771 41.2879C22.4721 41.2879 22.3774 41.3084 22.293 41.3495C22.2086 41.3883 22.1379 41.4476 22.0808 41.5274L21.677 41.2674C21.7706 41.1282 21.8995 41.0198 22.0637 40.9423C22.228 40.8624 22.4162 40.8225 22.6284 40.8225C22.8063 40.8225 22.9615 40.8521 23.0938 40.9115C23.2284 40.9685 23.3322 41.0506 23.4052 41.1578C23.4805 41.2628 23.5181 41.3871 23.5181 41.5309C23.5181 41.6609 23.4908 41.783 23.436 41.897C23.3813 42.0111 23.2752 42.1411 23.1178 42.2871L22.5668 42.8073H23.5969ZM24.9722 41.7567C25.125 41.7567 25.2642 41.7875 25.3897 41.8491C25.5152 41.9107 25.6144 41.9985 25.6874 42.1126C25.7604 42.2244 25.7969 42.3544 25.7969 42.5027C25.7969 42.6624 25.757 42.8027 25.6771 42.9237C25.5973 43.0446 25.4878 43.1381 25.3486 43.2043C25.2117 43.2682 25.0589 43.3001 24.89 43.3001C24.5547 43.3001 24.2923 43.1974 24.103 42.9921C23.9136 42.7868 23.8189 42.4936 23.8189 42.1126C23.8189 41.8411 23.8702 41.6084 23.9729 41.4145C24.0756 41.2206 24.2182 41.0734 24.4007 40.973C24.5855 40.8727 24.7988 40.8225 25.0406 40.8225C25.1684 40.8225 25.2904 40.8373 25.4068 40.867C25.5254 40.8943 25.6258 40.9343 25.7079 40.9867L25.5026 41.394C25.384 41.3141 25.2345 41.2742 25.0543 41.2742C24.8513 41.2742 24.6904 41.3335 24.5718 41.4521C24.4532 41.5708 24.3893 41.743 24.3801 41.9689C24.5216 41.8274 24.7189 41.7567 24.9722 41.7567ZM24.8592 42.886C24.9779 42.886 25.0737 42.8541 25.1467 42.7902C25.222 42.7263 25.2596 42.6396 25.2596 42.5301C25.2596 42.4206 25.222 42.3339 25.1467 42.27C25.0737 42.2039 24.9756 42.1708 24.8524 42.1708C24.7315 42.1708 24.6322 42.205 24.5547 42.2735C24.4771 42.3396 24.4383 42.4252 24.4383 42.5301C24.4383 42.6351 24.476 42.7206 24.5513 42.7868C24.6265 42.8529 24.7292 42.886 24.8592 42.886Z" fill="#20201F"/>
<path d="M35.0792 70.0132L34.5782 69.3532L34.0742 70.0132H33.8342L34.4582 69.2032L33.8642 68.4352H34.1042L34.5782 69.0532L35.0522 68.4352H35.2862L34.6922 69.2032L35.3222 70.0132H35.0792ZM36.2667 70.0282C36.1147 70.0282 35.9777 69.9942 35.8557 69.9262C35.7337 69.8562 35.6377 69.7602 35.5677 69.6382C35.4977 69.5162 35.4627 69.3782 35.4627 69.2242C35.4627 69.0702 35.4977 68.9322 35.5677 68.8102C35.6377 68.6882 35.7337 68.5932 35.8557 68.5252C35.9777 68.4572 36.1147 68.4232 36.2667 68.4232C36.4187 68.4232 36.5557 68.4572 36.6777 68.5252C36.7997 68.5932 36.8947 68.6882 36.9627 68.8102C37.0327 68.9322 37.0677 69.0702 37.0677 69.2242C37.0677 69.3782 37.0327 69.5162 36.9627 69.6382C36.8947 69.7602 36.7997 69.8562 36.6777 69.9262C36.5557 69.9942 36.4187 70.0282 36.2667 70.0282ZM36.2667 69.8392C36.3787 69.8392 36.4787 69.8142 36.5667 69.7642C36.6567 69.7122 36.7267 69.6392 36.7767 69.5452C36.8267 69.4512 36.8517 69.3442 36.8517 69.2242C36.8517 69.1042 36.8267 68.9972 36.7767 68.9032C36.7267 68.8092 36.6567 68.7372 36.5667 68.6872C36.4787 68.6352 36.3787 68.6092 36.2667 68.6092C36.1547 68.6092 36.0537 68.6352 35.9637 68.6872C35.8757 68.7372 35.8057 68.8092 35.7537 68.9032C35.7037 68.9972 35.6787 69.1042 35.6787 69.2242C35.6787 69.3442 35.7037 69.4512 35.7537 69.5452C35.8057 69.6392 35.8757 69.7122 35.9637 69.7642C36.0537 69.8142 36.1547 69.8392 36.2667 69.8392ZM38.8041 68.4352V70.0132H38.5911V68.6242H37.8351L37.8141 69.0142C37.7981 69.3422 37.7601 69.5942 37.7001 69.7702C37.6401 69.9462 37.5331 70.0342 37.3791 70.0342C37.3371 70.0342 37.2861 70.0262 37.2261 70.0102L37.2411 69.8272C37.2771 69.8352 37.3021 69.8392 37.3161 69.8392C37.3981 69.8392 37.4601 69.8012 37.5021 69.7252C37.5441 69.6492 37.5721 69.5552 37.5861 69.4432C37.6001 69.3312 37.6121 69.1832 37.6221 68.9992L37.6491 68.4352H38.8041ZM40.6996 68.4352V70.0132H40.4866V68.6242H39.7306L39.7096 69.0142C39.6936 69.3422 39.6556 69.5942 39.5956 69.7702C39.5356 69.9462 39.4286 70.0342 39.2746 70.0342C39.2326 70.0342 39.1816 70.0262 39.1216 70.0102L39.1366 69.8272C39.1726 69.8352 39.1976 69.8392 39.2116 69.8392C39.2936 69.8392 39.3556 69.8012 39.3976 69.7252C39.4396 69.6492 39.4676 69.5552 39.4816 69.4432C39.4956 69.3312 39.5076 69.1832 39.5176 68.9992L39.5446 68.4352H40.6996Z" fill="#20201F"/>
<path d="M36.0826 74.3425H35.6626V74.8945H35.4466V74.3425H34.2616V74.1865L35.3746 72.7945H35.6146L34.5406 74.1505H35.4526V73.6645H35.6626V74.1505H36.0826V74.3425ZM36.5016 74.9095C36.4576 74.9095 36.4196 74.8935 36.3876 74.8615C36.3576 74.8295 36.3426 74.7905 36.3426 74.7445C36.3426 74.6985 36.3576 74.6605 36.3876 74.6305C36.4196 74.5985 36.4576 74.5825 36.5016 74.5825C36.5456 74.5825 36.5836 74.5985 36.6156 74.6305C36.6476 74.6605 36.6636 74.6985 36.6636 74.7445C36.6636 74.7905 36.6476 74.8295 36.6156 74.8615C36.5836 74.8935 36.5456 74.9095 36.5016 74.9095ZM38.7222 74.3425H38.3022V74.8945H38.0862V74.3425H36.9012V74.1865L38.0142 72.7945H38.2542L37.1802 74.1505H38.0922V73.6645H38.3022V74.1505H38.7222V74.3425ZM40.1529 73.7935C40.2849 73.8375 40.3859 73.9035 40.4559 73.9915C40.5279 74.0795 40.5639 74.1855 40.5639 74.3095C40.5639 74.4315 40.5309 74.5385 40.4649 74.6305C40.3989 74.7205 40.3039 74.7905 40.1799 74.8405C40.0579 74.8885 39.9139 74.9125 39.7479 74.9125C39.4959 74.9125 39.2979 74.8585 39.1539 74.7505C39.0099 74.6425 38.9379 74.4955 38.9379 74.3095C38.9379 74.1835 38.9719 74.0775 39.0399 73.9915C39.1099 73.9035 39.2109 73.8375 39.3429 73.7935C39.2349 73.7515 39.1529 73.6915 39.0969 73.6135C39.0409 73.5335 39.0129 73.4395 39.0129 73.3315C39.0129 73.1615 39.0789 73.0265 39.2109 72.9265C39.3449 72.8265 39.5239 72.7765 39.7479 72.7765C39.8959 72.7765 40.0249 72.7995 40.1349 72.8455C40.2469 72.8895 40.3339 72.9535 40.3959 73.0375C40.4579 73.1215 40.4889 73.2195 40.4889 73.3315C40.4889 73.4395 40.4599 73.5335 40.4019 73.6135C40.3439 73.6915 40.2609 73.7515 40.1529 73.7935ZM39.2289 73.3375C39.2289 73.4535 39.2749 73.5455 39.3669 73.6135C39.4589 73.6815 39.5859 73.7155 39.7479 73.7155C39.9099 73.7155 40.0369 73.6815 40.1289 73.6135C40.2229 73.5455 40.2699 73.4545 40.2699 73.3405C40.2699 73.2225 40.2219 73.1295 40.1259 73.0615C40.0319 72.9935 39.9059 72.9595 39.7479 72.9595C39.5879 72.9595 39.4609 72.9935 39.3669 73.0615C39.2749 73.1295 39.2289 73.2215 39.2289 73.3375ZM39.7479 74.7295C39.9339 74.7295 40.0789 74.6915 40.1829 74.6155C40.2889 74.5395 40.3419 74.4365 40.3419 74.3065C40.3419 74.1765 40.2889 74.0745 40.1829 74.0005C40.0789 73.9245 39.9339 73.8865 39.7479 73.8865C39.5639 73.8865 39.4189 73.9245 39.3129 74.0005C39.2089 74.0745 39.1569 74.1765 39.1569 74.3065C39.1569 74.4385 39.2089 74.5425 39.3129 74.6185C39.4169 74.6925 39.5619 74.7295 39.7479 74.7295Z" fill="#20201F"/>
<path d="M19.508 11.6675C19.654 11.6675 19.784 11.7005 19.898 11.7665C20.014 11.8305 20.104 11.9215 20.168 12.0395C20.232 12.1555 20.264 12.2885 20.264 12.4385C20.264 12.5925 20.23 12.7295 20.162 12.8495C20.096 12.9675 20.003 13.0595 19.883 13.1255C19.763 13.1915 19.625 13.2245 19.469 13.2245C19.207 13.2245 19.004 13.1325 18.86 12.9485C18.716 12.7645 18.644 12.5105 18.644 12.1865C18.644 11.8485 18.708 11.5895 18.836 11.4095C18.966 11.2295 19.168 11.1075 19.442 11.0435L20.15 10.8815L20.186 11.0765L19.52 11.2295C19.294 11.2795 19.128 11.3685 19.022 11.4965C18.916 11.6225 18.858 11.8095 18.848 12.0575C18.912 11.9355 19.001 11.8405 19.115 11.7725C19.229 11.7025 19.36 11.6675 19.508 11.6675ZM19.475 13.0475C19.585 13.0475 19.683 13.0225 19.769 12.9725C19.857 12.9205 19.925 12.8485 19.973 12.7565C20.023 12.6645 20.048 12.5605 20.048 12.4445C20.048 12.3285 20.024 12.2265 19.976 12.1385C19.928 12.0505 19.86 11.9825 19.772 11.9345C19.686 11.8845 19.587 11.8595 19.475 11.8595C19.363 11.8595 19.263 11.8845 19.175 11.9345C19.089 11.9825 19.021 12.0505 18.971 12.1385C18.923 12.2265 18.899 12.3285 18.899 12.4445C18.899 12.5605 18.923 12.6645 18.971 12.7565C19.021 12.8485 19.09 12.9205 19.178 12.9725C19.266 13.0225 19.365 13.0475 19.475 13.0475ZM21.2548 11.6165C21.4608 11.6165 21.6188 11.6685 21.7288 11.7725C21.8388 11.8745 21.8938 12.0265 21.8938 12.2285V13.2065H21.6898V12.9605C21.6418 13.0425 21.5708 13.1065 21.4768 13.1525C21.3848 13.1985 21.2748 13.2215 21.1468 13.2215C20.9708 13.2215 20.8308 13.1795 20.7268 13.0955C20.6228 13.0115 20.5708 12.9005 20.5708 12.7625C20.5708 12.6285 20.6188 12.5205 20.7148 12.4385C20.8128 12.3565 20.9678 12.3155 21.1798 12.3155H21.6808V12.2195C21.6808 12.0835 21.6428 11.9805 21.5668 11.9105C21.4908 11.8385 21.3798 11.8025 21.2338 11.8025C21.1338 11.8025 21.0378 11.8195 20.9458 11.8535C20.8538 11.8855 20.7748 11.9305 20.7088 11.9885L20.6128 11.8295C20.6928 11.7615 20.7888 11.7095 20.9008 11.6735C21.0128 11.6355 21.1308 11.6165 21.2548 11.6165ZM21.1798 13.0535C21.2998 13.0535 21.4028 13.0265 21.4888 12.9725C21.5748 12.9165 21.6388 12.8365 21.6808 12.7325V12.4745H21.1858C20.9158 12.4745 20.7808 12.5685 20.7808 12.7565C20.7808 12.8485 20.8158 12.9215 20.8858 12.9755C20.9558 13.0275 21.0538 13.0535 21.1798 13.0535ZM23.7509 11.6285V13.2065H23.5379V11.8175H22.7818L22.7608 12.2075C22.7448 12.5355 22.7068 12.7875 22.6468 12.9635C22.5868 13.1395 22.4798 13.2275 22.3258 13.2275C22.2838 13.2275 22.2328 13.2195 22.1728 13.2035L22.1878 13.0205C22.2238 13.0285 22.2488 13.0325 22.2628 13.0325C22.3448 13.0325 22.4068 12.9945 22.4488 12.9185C22.4908 12.8425 22.5188 12.7485 22.5328 12.6365C22.5468 12.5245 22.5588 12.3765 22.5688 12.1925L22.5958 11.6285H23.7509ZM24.9294 12.5045H24.5694V13.2065H24.3564V11.6285H24.5694V12.3215H24.9324L25.4874 11.6285H25.7184L25.0974 12.3935L25.7634 13.2065H25.5114L24.9294 12.5045ZM26.6949 13.2215C26.5429 13.2215 26.4059 13.1875 26.2839 13.1195C26.1619 13.0495 26.0659 12.9535 25.9959 12.8315C25.9259 12.7095 25.8909 12.5715 25.8909 12.4175C25.8909 12.2635 25.9259 12.1255 25.9959 12.0035C26.0659 11.8815 26.1619 11.7865 26.2839 11.7185C26.4059 11.6505 26.5429 11.6165 26.6949 11.6165C26.8469 11.6165 26.9839 11.6505 27.1059 11.7185C27.2279 11.7865 27.3229 11.8815 27.3909 12.0035C27.4609 12.1255 27.4959 12.2635 27.4959 12.4175C27.4959 12.5715 27.4609 12.7095 27.3909 12.8315C27.3229 12.9535 27.2279 13.0495 27.1059 13.1195C26.9839 13.1875 26.8469 13.2215 26.6949 13.2215ZM26.6949 13.0325C26.8069 13.0325 26.9069 13.0075 26.9949 12.9575C27.0849 12.9055 27.1549 12.8325 27.2049 12.7385C27.2549 12.6445 27.2799 12.5375 27.2799 12.4175C27.2799 12.2975 27.2549 12.1905 27.2049 12.0965C27.1549 12.0025 27.0849 11.9305 26.9949 11.8805C26.9069 11.8285 26.8069 11.8025 26.6949 11.8025C26.5829 11.8025 26.4819 11.8285 26.3919 11.8805C26.3039 11.9305 26.2339 12.0025 26.1819 12.0965C26.1319 12.1905 26.1069 12.2975 26.1069 12.4175C26.1069 12.5375 26.1319 12.6445 26.1819 12.7385C26.2339 12.8325 26.3039 12.9055 26.3919 12.9575C26.4819 13.0075 26.5829 13.0325 26.6949 13.0325ZM27.9512 11.6285H28.1642V12.3275H29.1572V11.6285H29.3702V13.2065H29.1572V12.5105H28.1642V13.2065H27.9512V11.6285Z" fill="#20201F"/>
<path d="M16.9223 16.8876C17.1423 16.8996 17.3093 16.9596 17.4233 17.0676C17.5393 17.1736 17.5973 17.3126 17.5973 17.4846C17.5973 17.6046 17.5683 17.7116 17.5103 17.8056C17.4523 17.8976 17.3663 17.9706 17.2523 18.0246C17.1383 18.0786 16.9993 18.1056 16.8353 18.1056C16.6833 18.1056 16.5393 18.0816 16.4033 18.0336C16.2692 17.9836 16.1612 17.9176 16.0792 17.8356L16.1842 17.6646C16.2542 17.7366 16.3473 17.7956 16.4633 17.8416C16.5793 17.8856 16.7033 17.9076 16.8353 17.9076C17.0073 17.9076 17.1403 17.8706 17.2343 17.7966C17.3283 17.7206 17.3753 17.6166 17.3753 17.4846C17.3753 17.3546 17.3283 17.2526 17.2343 17.1786C17.1403 17.1046 16.9983 17.0676 16.8083 17.0676H16.6583V16.9086L17.2403 16.1796H16.1662V15.9876H17.5163V16.1406L16.9223 16.8876ZM18.0636 18.1026C18.0196 18.1026 17.9816 18.0866 17.9496 18.0546C17.9196 18.0226 17.9046 17.9836 17.9046 17.9376C17.9046 17.8916 17.9196 17.8536 17.9496 17.8236C17.9816 17.7916 18.0196 17.7756 18.0636 17.7756C18.1076 17.7756 18.1456 17.7916 18.1776 17.8236C18.2096 17.8536 18.2256 17.8916 18.2256 17.9376C18.2256 17.9836 18.2096 18.0226 18.1776 18.0546C18.1456 18.0866 18.1076 18.1026 18.0636 18.1026ZM19.7697 16.9866C19.9017 17.0306 20.0027 17.0966 20.0727 17.1846C20.1447 17.2726 20.1807 17.3786 20.1807 17.5026C20.1807 17.6246 20.1477 17.7316 20.0817 17.8236C20.0157 17.9136 19.9207 17.9836 19.7967 18.0336C19.6747 18.0816 19.5307 18.1056 19.3647 18.1056C19.1127 18.1056 18.9147 18.0516 18.7707 17.9436C18.6267 17.8356 18.5547 17.6886 18.5547 17.5026C18.5547 17.3766 18.5887 17.2706 18.6567 17.1846C18.7267 17.0966 18.8277 17.0306 18.9597 16.9866C18.8517 16.9446 18.7697 16.8846 18.7137 16.8066C18.6577 16.7266 18.6297 16.6326 18.6297 16.5246C18.6297 16.3546 18.6957 16.2196 18.8277 16.1196C18.9617 16.0196 19.1407 15.9696 19.3647 15.9696C19.5127 15.9696 19.6417 15.9926 19.7517 16.0386C19.8637 16.0826 19.9507 16.1466 20.0127 16.2306C20.0747 16.3146 20.1057 16.4126 20.1057 16.5246C20.1057 16.6326 20.0767 16.7266 20.0187 16.8066C19.9607 16.8846 19.8777 16.9446 19.7697 16.9866ZM18.8457 16.5306C18.8457 16.6466 18.8917 16.7386 18.9837 16.8066C19.0757 16.8746 19.2027 16.9086 19.3647 16.9086C19.5267 16.9086 19.6537 16.8746 19.7457 16.8066C19.8397 16.7386 19.8867 16.6476 19.8867 16.5336C19.8867 16.4156 19.8387 16.3226 19.7427 16.2546C19.6487 16.1866 19.5227 16.1526 19.3647 16.1526C19.2047 16.1526 19.0777 16.1866 18.9837 16.2546C18.8917 16.3226 18.8457 16.4146 18.8457 16.5306ZM19.3647 17.9226C19.5507 17.9226 19.6957 17.8846 19.7997 17.8086C19.9057 17.7326 19.9587 17.6296 19.9587 17.4996C19.9587 17.3696 19.9057 17.2676 19.7997 17.1936C19.6957 17.1176 19.5507 17.0796 19.3647 17.0796C19.1807 17.0796 19.0357 17.1176 18.9297 17.1936C18.8257 17.2676 18.7737 17.3696 18.7737 17.4996C18.7737 17.6316 18.8257 17.7356 18.9297 17.8116C19.0337 17.8856 19.1787 17.9226 19.3647 17.9226ZM21.3498 16.8306C21.4878 16.8306 21.6098 16.8566 21.7158 16.9086C21.8238 16.9606 21.9078 17.0346 21.9678 17.1306C22.0278 17.2246 22.0578 17.3346 22.0578 17.4606C22.0578 17.5886 22.0268 17.7016 21.9648 17.7996C21.9028 17.8976 21.8168 17.9736 21.7068 18.0276C21.5988 18.0796 21.4768 18.1056 21.3408 18.1056C21.0628 18.1056 20.8498 18.0146 20.7018 17.8326C20.5538 17.6486 20.4798 17.3896 20.4798 17.0556C20.4798 16.8216 20.5198 16.6236 20.5998 16.4616C20.6798 16.2996 20.7918 16.1776 20.9358 16.0956C21.0798 16.0116 21.2478 15.9696 21.4398 15.9696C21.6478 15.9696 21.8138 16.0076 21.9378 16.0836L21.8508 16.2576C21.7508 16.1916 21.6148 16.1586 21.4428 16.1586C21.2108 16.1586 21.0288 16.2326 20.8968 16.3806C20.7648 16.5266 20.6988 16.7396 20.6988 17.0196C20.6988 17.0696 20.7018 17.1266 20.7078 17.1906C20.7598 17.0766 20.8428 16.9886 20.9568 16.9266C21.0708 16.8626 21.2018 16.8306 21.3498 16.8306ZM21.3318 17.9226C21.4838 17.9226 21.6068 17.8816 21.7008 17.7996C21.7968 17.7156 21.8448 17.6046 21.8448 17.4666C21.8448 17.3286 21.7968 17.2186 21.7008 17.1366C21.6068 17.0546 21.4788 17.0136 21.3168 17.0136C21.2108 17.0136 21.1168 17.0336 21.0348 17.0736C20.9548 17.1136 20.8918 17.1686 20.8458 17.2386C20.7998 17.3086 20.7768 17.3866 20.7768 17.4726C20.7768 17.5526 20.7978 17.6266 20.8398 17.6946C20.8838 17.7626 20.9478 17.8176 21.0318 17.8596C21.1158 17.9016 21.2158 17.9226 21.3318 17.9226Z" fill="#20201F"/>
<path d="M25.5854 18.6697C25.4734 18.4857 25.3874 18.2746 25.3274 18.0366C25.2674 17.7966 25.2374 17.5396 25.2374 17.2656C25.2374 16.9916 25.2674 16.7346 25.3274 16.4946C25.3874 16.2526 25.4734 16.0416 25.5854 15.8616H25.7894C25.6714 16.0636 25.5844 16.2806 25.5284 16.5126C25.4744 16.7446 25.4474 16.9956 25.4474 17.2656C25.4474 17.5356 25.4744 17.7866 25.5284 18.0186C25.5844 18.2506 25.6714 18.4677 25.7894 18.6697H25.5854ZM26.68 15.9876V18.0876H26.464V16.1796H25.969V15.9876H26.68ZM27.344 18.1026C27.3 18.1026 27.262 18.0866 27.23 18.0546C27.2 18.0226 27.185 17.9836 27.185 17.9376C27.185 17.8916 27.2 17.8536 27.23 17.8236C27.262 17.7916 27.3 17.7756 27.344 17.7756C27.388 17.7756 27.426 17.7916 27.458 17.8236C27.49 17.8536 27.506 17.8916 27.506 17.9376C27.506 17.9836 27.49 18.0226 27.458 18.0546C27.426 18.0866 27.388 18.1026 27.344 18.1026ZM28.3646 15.9876V18.0876H28.1486V16.1796H27.6536V15.9876H28.3646ZM29.7366 16.8306C29.8746 16.8306 29.9966 16.8566 30.1026 16.9086C30.2106 16.9606 30.2946 17.0346 30.3546 17.1306C30.4146 17.2246 30.4446 17.3346 30.4446 17.4606C30.4446 17.5886 30.4136 17.7016 30.3516 17.7996C30.2896 17.8976 30.2036 17.9736 30.0936 18.0276C29.9856 18.0796 29.8636 18.1056 29.7276 18.1056C29.4496 18.1056 29.2366 18.0146 29.0886 17.8326C28.9406 17.6486 28.8666 17.3896 28.8666 17.0556C28.8666 16.8216 28.9066 16.6236 28.9866 16.4616C29.0666 16.2996 29.1786 16.1776 29.3226 16.0956C29.4666 16.0116 29.6346 15.9696 29.8266 15.9696C30.0346 15.9696 30.2006 16.0076 30.3246 16.0836L30.2376 16.2576C30.1376 16.1916 30.0016 16.1586 29.8296 16.1586C29.5976 16.1586 29.4156 16.2326 29.2836 16.3806C29.1516 16.5266 29.0856 16.7396 29.0856 17.0196C29.0856 17.0696 29.0886 17.1266 29.0946 17.1906C29.1466 17.0766 29.2296 16.9886 29.3436 16.9266C29.4576 16.8626 29.5886 16.8306 29.7366 16.8306ZM29.7186 17.9226C29.8706 17.9226 29.9936 17.8816 30.0876 17.7996C30.1836 17.7156 30.2316 17.6046 30.2316 17.4666C30.2316 17.3286 30.1836 17.2186 30.0876 17.1366C29.9936 17.0546 29.8656 17.0136 29.7036 17.0136C29.5976 17.0136 29.5036 17.0336 29.4216 17.0736C29.3416 17.1136 29.2786 17.1686 29.2326 17.2386C29.1866 17.3086 29.1636 17.3866 29.1636 17.4726C29.1636 17.5526 29.1846 17.6266 29.2266 17.6946C29.2706 17.7626 29.3346 17.8176 29.4186 17.8596C29.5026 17.9016 29.6026 17.9226 29.7186 17.9226ZM30.6587 18.6697C30.7767 18.4677 30.8637 18.2516 30.9197 18.0216C30.9757 17.7896 31.0037 17.5376 31.0037 17.2656C31.0037 16.9936 30.9757 16.7426 30.9197 16.5126C30.8637 16.2806 30.7767 16.0636 30.6587 15.8616H30.8627C30.9747 16.0416 31.0607 16.2526 31.1207 16.4946C31.1827 16.7346 31.2137 16.9916 31.2137 17.2656C31.2137 17.5396 31.1837 17.7966 31.1237 18.0366C31.0637 18.2766 30.9767 18.4877 30.8627 18.6697H30.6587Z" fill="#20201F"/>
<path d="M20.3205 74.0122C20.6245 74.0122 20.8455 74.0672 20.9835 74.1772C21.1235 74.2852 21.1935 74.4372 21.1935 74.6332C21.1935 74.7552 21.1645 74.8642 21.1065 74.9602C21.0505 75.0562 20.9655 75.1322 20.8515 75.1882C20.7375 75.2422 20.5975 75.2692 20.4315 75.2692C20.2815 75.2692 20.1385 75.2452 20.0025 75.1972C19.8685 75.1472 19.7605 75.0812 19.6785 74.9992L19.7835 74.8282C19.8535 74.9002 19.9455 74.9592 20.0595 75.0052C20.1735 75.0492 20.2965 75.0712 20.4285 75.0712C20.6025 75.0712 20.7365 75.0322 20.8305 74.9542C20.9265 74.8762 20.9745 74.7722 20.9745 74.6422C20.9745 74.4982 20.9205 74.3892 20.8125 74.3152C20.7065 74.2412 20.5265 74.2042 20.2725 74.2042H19.8255L19.9335 73.1512H21.0825V73.3432H20.1225L20.0505 74.0122H20.3205ZM21.6297 75.2662C21.5857 75.2662 21.5477 75.2502 21.5157 75.2182C21.4857 75.1862 21.4707 75.1472 21.4707 75.1012C21.4707 75.0552 21.4857 75.0172 21.5157 74.9872C21.5477 74.9552 21.5857 74.9392 21.6297 74.9392C21.6737 74.9392 21.7117 74.9552 21.7437 74.9872C21.7757 75.0172 21.7917 75.0552 21.7917 75.1012C21.7917 75.1472 21.7757 75.1862 21.7437 75.2182C21.7117 75.2502 21.6737 75.2662 21.6297 75.2662ZM23.5667 75.0592V75.2512H22.0937V75.0982L22.9667 74.2432C23.0767 74.1352 23.1507 74.0422 23.1887 73.9642C23.2287 73.8842 23.2487 73.8042 23.2487 73.7242C23.2487 73.6002 23.2057 73.5042 23.1197 73.4362C23.0357 73.3662 22.9147 73.3312 22.7567 73.3312C22.5107 73.3312 22.3197 73.4092 22.1837 73.5652L22.0307 73.4332C22.1127 73.3372 22.2167 73.2632 22.3427 73.2112C22.4707 73.1592 22.6147 73.1332 22.7747 73.1332C22.9887 73.1332 23.1577 73.1842 23.2817 73.2862C23.4077 73.3862 23.4707 73.5242 23.4707 73.7002C23.4707 73.8082 23.4467 73.9122 23.3987 74.0122C23.3507 74.1122 23.2597 74.2272 23.1257 74.3572L22.4117 75.0592H23.5667ZM25.0408 74.1502C25.1728 74.1942 25.2738 74.2602 25.3438 74.3482C25.4158 74.4362 25.4518 74.5422 25.4518 74.6662C25.4518 74.7882 25.4188 74.8952 25.3528 74.9872C25.2868 75.0772 25.1918 75.1472 25.0678 75.1972C24.9458 75.2452 24.8018 75.2692 24.6358 75.2692C24.3838 75.2692 24.1858 75.2152 24.0418 75.1072C23.8978 74.9992 23.8258 74.8522 23.8258 74.6662C23.8258 74.5402 23.8598 74.4342 23.9278 74.3482C23.9978 74.2602 24.0988 74.1942 24.2308 74.1502C24.1228 74.1082 24.0408 74.0482 23.9848 73.9702C23.9288 73.8902 23.9008 73.7962 23.9008 73.6882C23.9008 73.5182 23.9668 73.3832 24.0988 73.2832C24.2328 73.1832 24.4118 73.1332 24.6358 73.1332C24.7838 73.1332 24.9128 73.1562 25.0228 73.2022C25.1348 73.2462 25.2218 73.3102 25.2838 73.3942C25.3458 73.4782 25.3768 73.5762 25.3768 73.6882C25.3768 73.7962 25.3478 73.8902 25.2898 73.9702C25.2318 74.0482 25.1488 74.1082 25.0408 74.1502ZM24.1168 73.6942C24.1168 73.8102 24.1628 73.9022 24.2548 73.9702C24.3468 74.0382 24.4738 74.0722 24.6358 74.0722C24.7978 74.0722 24.9248 74.0382 25.0168 73.9702C25.1108 73.9022 25.1578 73.8112 25.1578 73.6972C25.1578 73.5792 25.1098 73.4862 25.0138 73.4182C24.9198 73.3502 24.7938 73.3162 24.6358 73.3162C24.4758 73.3162 24.3488 73.3502 24.2548 73.4182C24.1628 73.4862 24.1168 73.5782 24.1168 73.6942ZM24.6358 75.0862C24.8218 75.0862 24.9668 75.0482 25.0708 74.9722C25.1768 74.8962 25.2298 74.7932 25.2298 74.6632C25.2298 74.5332 25.1768 74.4312 25.0708 74.3572C24.9668 74.2812 24.8218 74.2432 24.6358 74.2432C24.4518 74.2432 24.3068 74.2812 24.2008 74.3572C24.0968 74.4312 24.0448 74.5332 24.0448 74.6632C24.0448 74.7952 24.0968 74.8992 24.2008 74.9752C24.3048 75.0492 24.4498 75.0862 24.6358 75.0862Z" fill="#20201F"/>
<path d="M53.851 87.9591V88.1511H52.378V87.9981L53.251 87.1431C53.361 87.0351 53.435 86.9421 53.473 86.8641C53.513 86.7841 53.533 86.7041 53.533 86.6241C53.533 86.5001 53.49 86.4041 53.404 86.3361C53.32 86.2661 53.199 86.2311 53.041 86.2311C52.795 86.2311 52.604 86.3091 52.468 86.4651L52.315 86.3331C52.397 86.2371 52.501 86.1631 52.627 86.1111C52.755 86.0591 52.899 86.0331 53.059 86.0331C53.273 86.0331 53.442 86.0841 53.566 86.1861C53.692 86.2861 53.755 86.4241 53.755 86.6001C53.755 86.7081 53.731 86.8121 53.683 86.9121C53.635 87.0121 53.544 87.1271 53.41 87.2571L52.696 87.9591H53.851ZM54.3134 88.1661C54.2694 88.1661 54.2314 88.1501 54.1994 88.1181C54.1694 88.0861 54.1544 88.0471 54.1544 88.0011C54.1544 87.9551 54.1694 87.9171 54.1994 87.8871C54.2314 87.8551 54.2694 87.8391 54.3134 87.8391C54.3574 87.8391 54.3954 87.8551 54.4274 87.8871C54.4594 87.9171 54.4754 87.9551 54.4754 88.0011C54.4754 88.0471 54.4594 88.0861 54.4274 88.1181C54.3954 88.1501 54.3574 88.1661 54.3134 88.1661ZM55.6249 86.8941C55.7629 86.8941 55.8849 86.9201 55.9909 86.9721C56.0989 87.0241 56.1829 87.0981 56.2429 87.1941C56.3029 87.2881 56.3329 87.3981 56.3329 87.5241C56.3329 87.6521 56.3019 87.7651 56.2399 87.8631C56.1779 87.9611 56.0919 88.0371 55.9819 88.0911C55.8739 88.1431 55.7519 88.1691 55.6159 88.1691C55.3379 88.1691 55.1249 88.0781 54.9769 87.8961C54.8289 87.7121 54.7549 87.4531 54.7549 87.1191C54.7549 86.8851 54.7949 86.6871 54.8749 86.5251C54.9549 86.3631 55.0669 86.2411 55.2109 86.1591C55.3549 86.0751 55.5229 86.0331 55.7149 86.0331C55.9229 86.0331 56.0889 86.0711 56.2129 86.1471L56.1259 86.3211C56.0259 86.2551 55.8899 86.2221 55.7179 86.2221C55.4859 86.2221 55.3039 86.2961 55.1719 86.4441C55.0399 86.5901 54.9739 86.8031 54.9739 87.0831C54.9739 87.1331 54.9769 87.1901 54.9829 87.2541C55.0349 87.1401 55.1179 87.0521 55.2319 86.9901C55.3459 86.9261 55.4769 86.8941 55.6249 86.8941ZM55.6069 87.9861C55.7589 87.9861 55.8819 87.9451 55.9759 87.8631C56.0719 87.7791 56.1199 87.6681 56.1199 87.5301C56.1199 87.3921 56.0719 87.2821 55.9759 87.2001C55.8819 87.1181 55.7539 87.0771 55.5919 87.0771C55.4859 87.0771 55.3919 87.0971 55.3099 87.1371C55.2299 87.1771 55.1669 87.2321 55.1209 87.3021C55.0749 87.3721 55.0519 87.4501 55.0519 87.5361C55.0519 87.6161 55.0729 87.6901 55.1149 87.7581C55.1589 87.8261 55.2229 87.8811 55.3069 87.9231C55.3909 87.9651 55.4909 87.9861 55.6069 87.9861ZM57.786 87.0501C57.918 87.0941 58.019 87.1601 58.089 87.2481C58.161 87.3361 58.197 87.4421 58.197 87.5661C58.197 87.6881 58.164 87.7951 58.098 87.8871C58.032 87.9771 57.937 88.0471 57.813 88.0971C57.691 88.1451 57.547 88.1691 57.381 88.1691C57.129 88.1691 56.931 88.1151 56.787 88.0071C56.643 87.8991 56.571 87.7521 56.571 87.5661C56.571 87.4401 56.605 87.3341 56.673 87.2481C56.743 87.1601 56.844 87.0941 56.976 87.0501C56.868 87.0081 56.786 86.9481 56.73 86.8701C56.674 86.7901 56.646 86.6961 56.646 86.5881C56.646 86.4181 56.712 86.2831 56.844 86.1831C56.978 86.0831 57.157 86.0331 57.381 86.0331C57.529 86.0331 57.658 86.0561 57.768 86.1021C57.88 86.1461 57.967 86.2101 58.029 86.2941C58.091 86.3781 58.122 86.4761 58.122 86.5881C58.122 86.6961 58.093 86.7901 58.035 86.8701C57.977 86.9481 57.894 87.0081 57.786 87.0501ZM56.862 86.5941C56.862 86.7101 56.908 86.8021 57 86.8701C57.092 86.9381 57.219 86.9721 57.381 86.9721C57.543 86.9721 57.67 86.9381 57.762 86.8701C57.856 86.8021 57.903 86.7111 57.903 86.5971C57.903 86.4791 57.855 86.3861 57.759 86.3181C57.665 86.2501 57.539 86.2161 57.381 86.2161C57.221 86.2161 57.094 86.2501 57 86.3181C56.908 86.3861 56.862 86.4781 56.862 86.5941ZM57.381 87.9861C57.567 87.9861 57.712 87.9481 57.816 87.8721C57.922 87.7961 57.975 87.6931 57.975 87.5631C57.975 87.4331 57.922 87.3311 57.816 87.2571C57.712 87.1811 57.567 87.1431 57.381 87.1431C57.197 87.1431 57.052 87.1811 56.946 87.2571C56.842 87.3311 56.79 87.4331 56.79 87.5631C56.79 87.6951 56.842 87.7991 56.946 87.8751C57.05 87.9491 57.195 87.9861 57.381 87.9861Z" fill="black"/>
</g>
<defs>
<clipPath id="clip0_2561_22016">
<rect width="61.8832" height="90.4295" fill="white" transform="translate(6.53699 4.83325)"/>
</clipPath>
</defs>
</svg>
