<svg width="78" height="100" viewBox="0 0 78 100" fill="none" xmlns="http://www.w3.org/2000/svg">
<rect width="77.3333" height="99.9999" transform="translate(0.406982)" fill="white"/>
<g clip-path="url(#clip0_2561_22467)">
<path fill-rule="evenodd" clip-rule="evenodd" d="M4.74011 87.6786H26.2189V97H73.5734V87.6786V70.1654V18.7019H43.4837L43.4524 3.16675L8.7777 5.23803V18.7019H4.74011V87.6786Z" fill="#C6C0E1"/>
<path fill-rule="evenodd" clip-rule="evenodd" d="M70.9867 97V37.2201V33.0865V18.7019H73.5736V97H70.9867Z" fill="#ED9FA6"/>
<path fill-rule="evenodd" clip-rule="evenodd" d="M4.74011 87.6786H26.2189V97H73.5734V87.6786V70.1654V18.7019H43.4837L43.4524 3.16675L8.7777 5.23803V18.7019H4.74011V87.6786Z" fill="#FFF9D0"/>
<path fill-rule="evenodd" clip-rule="evenodd" d="M70.9867 97V37.2201V33.0865V18.7019H73.5736V97H70.9867Z" fill="#FFF9D0"/>
<path d="M12.6069 20.0481H7.32874V23.9838H12.6069V20.0481Z" fill="#20201F"/>
<path d="M7.32846 15.1702H4.74011V87.6786H7.32846V15.1702Z" fill="#20201F"/>
<path d="M28.7543 85.0894H26.219V97H28.7543V85.0894Z" fill="#20201F"/>
<path d="M28.7542 85.0894H4.74011V87.6786H28.7542V85.0894Z" fill="#20201F"/>
<path d="M8.7777 13.7205H4.74011V18.7021H8.7777V13.7205Z" fill="#20201F"/>
<path d="M44.5916 21.3948H38.3801V27.609H44.5916V21.3948Z" fill="#20201F"/>
<path d="M73.5736 21.3948H70.9867V23.984H73.5736V21.3948Z" fill="#20201F"/>
<path d="M49.9741 94.4102H39.1047V96.9997H49.9741V94.4102Z" fill="#20201F"/>
<path d="M49.9742 90.208H47.386V96.9999H49.9742V90.208Z" fill="#20201F"/>
<path d="M73.5736 90.208H47.386V92.8346H73.5736V90.208Z" fill="#20201F"/>
<path d="M73.5737 23.9836H70.9868V96.9997H73.5737V23.9836Z" fill="#20201F"/>
<path d="M47.1785 20.0483H29.1688V23.984H47.1785V20.0483Z" fill="#20201F"/>
<path d="M73.5736 20.0483H68.9158V23.984H73.5736V20.0483Z" fill="#20201F"/>
<path d="M10.0197 12.4875H4.74011V13.834H10.0197V12.4875Z" fill="#20201F"/>
<path d="M10.0198 12.4875H8.77783V18.7016H10.0198V12.4875Z" fill="#20201F"/>
<path d="M12.6069 18.7017H7.32874V20.0481H12.6069V18.7017Z" fill="#20201F"/>
<path d="M47.8003 18.7017H29.1688V20.0481H47.8003V18.7017Z" fill="#20201F"/>
<path d="M73.5734 18.7017H68.2953V20.0481H73.5734V18.7017Z" fill="#20201F"/>
<path fill-rule="evenodd" clip-rule="evenodd" d="M42.2105 4.48593V18.7019H43.4525V3.16675L8.77783 5.23803V12.4878H10.0198V6.40883L42.2105 4.48593Z" fill="#20201F"/>
<path d="M34.6601 56.8408H7.32861V57.6694H34.6601V56.8408Z" fill="#20201F"/>
<path d="M34.6602 48.5161H33.8312V57.6696H34.6602V48.5161Z" fill="#20201F"/>
<path d="M28.7539 57.3054H27.9269V74.0178H28.7539V57.3054Z" fill="#20201F"/>
<path d="M28.7544 83.3391H27.9269V85.0892H28.7544V83.3391Z" fill="#20201F"/>
<path d="M70.9867 95.7566H49.9741V96.9998H70.9867V95.7566Z" fill="#20201F"/>
<path d="M42.118 73.3723H41.29V79.5113H42.118V73.3723Z" fill="#20201F"/>
<path d="M48.2177 73.3733H41.2904V74.202H48.2177V73.3733Z" fill="#20201F"/>
<path d="M48.2171 73.3733H47.3885V90.2674H48.2171V73.3733Z" fill="#20201F"/>
<path d="M42.118 91.0403H41.29V94.7246H42.118V91.0403Z" fill="#20201F"/>
<path d="M68.2953 18.7019H47.7988V19.3681H68.2953V18.7019Z" fill="#20201F"/>
<path d="M68.9156 20.0447H47.1785V20.7107H68.9156V20.0447Z" fill="#20201F"/>
<path d="M68.9156 23.3142H47.1785V23.9803H68.9156V23.3142Z" fill="#20201F"/>
<path d="M20.8881 18.7053H12.6069V19.3715H20.8881V18.7053Z" fill="#20201F"/>
<path d="M20.8881 20.0481H12.6067V20.7142H20.8881V20.0481Z" fill="#20201F"/>
<path d="M20.8881 23.3176H12.6067V23.9837H20.8881V23.3176Z" fill="#20201F"/>
<path d="M20.8881 18.7053H20.3995V23.9874H20.8881V18.7053Z" fill="#20201F"/>
<path fill-rule="evenodd" clip-rule="evenodd" d="M38.8462 96.3533C38.8462 96.5157 38.7145 96.6475 38.5523 96.6475C38.39 96.6475 38.2583 96.5157 38.2583 96.3533V90.1281C38.2583 89.9657 38.39 89.834 38.5523 89.834C38.7145 89.834 38.8462 89.9657 38.8462 90.1281V96.3533Z" fill="#20201F"/>
<path fill-rule="evenodd" clip-rule="evenodd" d="M29.6546 96.4123C29.6546 96.4935 29.5887 96.5594 29.5076 96.5594C29.4264 96.5594 29.3606 96.4935 29.3606 96.4123C29.3606 94.6302 30.2732 93.0186 31.7476 91.854C33.2128 90.6969 35.2344 89.981 37.4644 89.981C37.5456 89.981 37.6114 90.0468 37.6114 90.128C37.6114 90.2092 37.5456 90.2751 37.4644 90.2751C35.301 90.2751 33.3438 90.9665 31.929 92.0837C30.524 93.1935 29.6546 94.7242 29.6546 96.4123Z" fill="#20201F"/>
<path fill-rule="evenodd" clip-rule="evenodd" d="M28.3131 20.3896C28.3131 20.2272 28.4448 20.0955 28.6071 20.0955C28.7693 20.0955 28.901 20.2272 28.901 20.3896V26.6148C28.901 26.7771 28.7693 26.9089 28.6071 26.9089C28.4448 26.9089 28.3131 26.7771 28.3131 26.6148V20.3896Z" fill="#20201F"/>
<path fill-rule="evenodd" clip-rule="evenodd" d="M21.1857 20.3316C21.1857 20.2505 21.2515 20.1846 21.3327 20.1846C21.4138 20.1846 21.4796 20.2505 21.4796 20.3316C21.4796 22.026 22.1793 23.5602 23.3099 24.6704C24.4415 25.7815 26.0051 26.4689 27.7321 26.4689C27.8132 26.4689 27.8791 26.5348 27.8791 26.616C27.8791 26.6971 27.8132 26.763 27.7321 26.763C25.926 26.763 24.2895 26.0431 23.1044 24.8795C21.9193 23.7157 21.1857 22.1075 21.1857 20.3316Z" fill="#20201F"/>
<path fill-rule="evenodd" clip-rule="evenodd" d="M28.1544 83.0802C27.9922 83.0802 27.8605 82.9485 27.8605 82.7861C27.8605 82.6237 27.9922 82.4919 28.1544 82.4919H34.376C34.5383 82.4919 34.67 82.6237 34.67 82.7861C34.67 82.9485 34.5383 83.0802 34.376 83.0802H28.1544Z" fill="#20201F"/>
<path fill-rule="evenodd" clip-rule="evenodd" d="M28.0955 74.5715C28.0143 74.5715 27.9485 74.5056 27.9485 74.4244C27.9485 74.3432 28.0143 74.2773 28.0955 74.2773C29.8742 74.2773 31.484 75.1208 32.6476 76.4838C33.8063 77.8406 34.5231 79.7138 34.5231 81.7803C34.5231 81.8614 34.4573 81.9273 34.3761 81.9273C34.295 81.9273 34.2292 81.8614 34.2292 81.7803C34.2292 79.7854 33.5394 77.9797 32.4248 76.6744C31.3157 75.3753 29.7847 74.5715 28.0955 74.5715Z" fill="#20201F"/>
<path fill-rule="evenodd" clip-rule="evenodd" d="M23.7229 56.326H8.10608V50.0757H23.9066V56.326H23.7229ZM12.9938 55.587C13.1656 55.587 13.3223 55.5167 13.4353 55.4029C13.5482 55.2897 13.6186 55.1335 13.6186 54.962V51.4324C13.6186 51.2609 13.5482 51.1047 13.4353 50.9907C13.3223 50.8776 13.1656 50.8074 12.9938 50.8074H9.46624C9.29485 50.8074 9.13862 50.8778 9.025 50.9907C8.91198 51.1038 8.84172 51.2603 8.84172 51.4324V54.962C8.84172 55.134 8.91198 55.2905 9.02545 55.4032C9.13862 55.5166 9.29485 55.587 9.46624 55.587H12.9938ZM21.9064 55.295C22.1442 55.295 22.3602 55.198 22.5168 55.0417C22.673 54.8854 22.7699 54.6692 22.7699 54.4309C22.7699 54.1931 22.673 53.9771 22.5163 53.8202C22.3599 53.6638 22.144 53.5669 21.9064 53.5669C21.6682 53.5669 21.4522 53.6638 21.2962 53.8205C21.1397 53.9768 21.0428 54.193 21.0428 54.4309C21.0428 54.6692 21.1397 54.8854 21.2959 55.0417C21.4522 55.198 21.6682 55.295 21.9064 55.295ZM21.9064 53.0185C22.1953 53.0185 22.4573 52.901 22.6467 52.7114C22.8362 52.5218 22.9536 52.2596 22.9536 51.9707C22.9536 51.6815 22.8362 51.4194 22.6467 51.2299C22.4573 51.0403 22.1953 50.9228 21.9064 50.9228C21.6175 50.9228 21.3555 51.0403 21.166 51.2299C20.9766 51.4194 20.8591 51.6815 20.8591 51.9707C20.8591 52.2596 20.9766 52.5218 21.166 52.7114C21.3555 52.901 21.6175 53.0185 21.9064 53.0185ZM21.3477 52.5296C21.4904 52.6725 21.6882 52.7611 21.9064 52.7611C22.1246 52.7611 22.3223 52.6725 22.465 52.5296C22.6078 52.3868 22.6964 52.1889 22.6964 51.9707C22.6964 51.7522 22.6078 51.5545 22.465 51.4116C22.3223 51.2688 22.1246 51.1802 21.9064 51.1802C21.6882 51.1802 21.4904 51.2688 21.3477 51.4116C21.205 51.5545 21.1163 51.7522 21.1163 51.9707C21.1163 52.1889 21.205 52.3868 21.3477 52.5296ZM19.6603 55.4788C19.9493 55.4788 20.2112 55.3613 20.4007 55.1717C20.5901 54.9821 20.7076 54.7201 20.7076 54.4309C20.7076 54.1418 20.5903 53.8796 20.4008 53.69C20.2114 53.5004 19.9493 53.3831 19.6603 53.3831C19.3714 53.3831 19.1094 53.5006 18.92 53.6902C18.7305 53.8797 18.6131 54.1418 18.6131 54.4309C18.6131 54.7199 18.7305 54.9821 18.92 55.1717C19.1094 55.3613 19.3715 55.4788 19.6603 55.4788ZM19.1017 54.9899C19.2444 55.1327 19.4422 55.2214 19.6603 55.2214C19.8786 55.2214 20.0763 55.1327 20.219 54.9899C20.3617 54.8471 20.4504 54.6493 20.4504 54.4309C20.4504 54.2125 20.3619 54.0146 20.2191 53.8718C20.0764 53.729 19.8786 53.6404 19.6603 53.6404C19.4421 53.6404 19.2444 53.7291 19.1017 53.8719C18.9589 54.0147 18.8703 54.2125 18.8703 54.4309C18.8703 54.6492 18.9589 54.8471 19.1017 54.9899ZM19.6603 52.8347C19.8981 52.8347 20.1142 52.7377 20.2707 52.5814C20.427 52.4251 20.5238 52.2089 20.5238 51.9707C20.5238 51.7328 20.427 51.5168 20.2703 51.3599C20.1139 51.2035 19.898 51.1066 19.6603 51.1066C19.4222 51.1066 19.2062 51.2035 19.0502 51.3602C18.8937 51.5165 18.7968 51.7327 18.7968 51.9707C18.7968 52.2089 18.8937 52.4251 19.0499 52.5814C19.2062 52.7377 19.4222 52.8347 19.6603 52.8347ZM19.2316 52.3996C19.3411 52.5092 19.4929 52.5773 19.6603 52.5773C19.8282 52.5773 19.9799 52.5095 20.0891 52.4001C20.1986 52.2901 20.2666 52.1382 20.2666 51.9707C20.2666 51.8027 20.1989 51.6509 20.0895 51.5417C19.9799 51.4318 19.8282 51.364 19.6603 51.364C19.4929 51.364 19.3411 51.4321 19.2316 51.5417C19.1218 51.6509 19.054 51.8027 19.054 51.9707C19.054 52.1382 19.1221 52.2901 19.2316 52.3996ZM21.4776 54.8599C21.5871 54.9695 21.7389 55.0376 21.9064 55.0376C22.0742 55.0376 22.2259 54.9698 22.3351 54.8604C22.4446 54.7504 22.5127 54.5984 22.5127 54.4309C22.5127 54.263 22.4449 54.1112 22.3355 54.0019C22.2259 53.8921 22.0742 53.8243 21.9064 53.8243C21.7389 53.8243 21.5871 53.8924 21.4776 54.0019C21.3678 54.1112 21.3001 54.263 21.3001 54.4309C21.3001 54.5984 21.3681 54.7504 21.4776 54.8599ZM9.46624 55.2194H12.9938C13.0644 55.2194 13.1289 55.1902 13.1755 55.1436C13.2222 55.0974 13.2512 55.0329 13.2512 54.962V51.4324C13.2512 51.3615 13.2222 51.2969 13.1758 51.2505C13.1289 51.2041 13.0644 51.175 12.9938 51.175H9.46624C9.3954 51.175 9.33101 51.2038 9.28486 51.25C9.23827 51.2974 9.20918 51.3621 9.20918 51.4324V54.962C9.20918 55.0323 9.23827 55.097 9.28486 55.1436C9.33101 55.1905 9.3954 55.2194 9.46624 55.2194ZM18.0334 50.4434V55.9584H23.5392V50.4434H18.0334ZM17.6659 55.9584V50.4434H8.47352V55.9584H17.6659Z" fill="#20201F"/>
<path fill-rule="evenodd" clip-rule="evenodd" d="M13.413 81.4073C12.9295 81.7184 12.3093 81.9105 11.764 81.9105C11.2272 81.9105 10.8083 81.7262 10.5167 81.4246V81.4237C10.4064 81.3094 10.3211 81.1738 10.2487 81.0301V81.6506C10.2487 82.0209 10.0941 82.238 9.84585 82.364C9.61995 82.479 9.32113 82.5074 8.99351 82.5074H8.85828V82.504C8.58519 82.4964 8.33591 82.4623 8.14175 82.364C7.89364 82.238 7.73975 82.0209 7.73975 81.6524V78.6095C7.73975 78.2394 7.89364 78.0226 8.14175 77.8973C8.33591 77.7998 8.58519 77.7646 8.85828 77.7573V77.7539H8.99351C9.32113 77.7539 9.61995 77.7823 9.84585 77.8973C10.0941 78.0226 10.2487 78.2394 10.2487 78.6095V79.2312C10.3211 79.0875 10.4056 78.9524 10.5167 78.8378C10.8083 78.5356 11.2272 78.3512 11.764 78.3512C12.3403 78.3512 12.9999 78.5662 13.4947 78.909C13.9512 79.2253 14.2716 79.6531 14.2716 80.1307C14.2716 80.6364 13.9123 81.0868 13.413 81.4073ZM8.59019 80.043H8.58931V80.0435C8.58931 80.1526 8.63487 80.253 8.70704 80.3254V80.3263C8.77921 80.3983 8.87871 80.443 8.9891 80.443C9.09963 80.443 9.19826 80.3983 9.27042 80.3263H9.27175L9.27161 80.3254C9.34377 80.2526 9.38831 80.1526 9.38831 80.0435C9.38831 79.9326 9.34377 79.8324 9.27175 79.7606C9.19959 79.6886 9.09963 79.6434 8.9891 79.6434C8.87871 79.6434 8.78009 79.6886 8.70704 79.7606C8.63487 79.8324 8.59019 79.9326 8.59019 80.043ZM8.79464 80.0426V80.0435C8.79464 80.0973 8.81611 80.146 8.85005 80.1805H8.85138C8.88621 80.2154 8.93561 80.2376 8.9891 80.2376C9.04363 80.2376 9.0936 80.216 9.12741 80.1823L9.12829 80.1808C9.16225 80.146 9.18415 80.0973 9.18415 80.0435C9.18415 79.9877 9.16225 79.9393 9.12829 79.9046C9.0936 79.8707 9.04363 79.8492 8.9891 79.8492C8.93471 79.8492 8.88519 79.8707 8.85138 79.9062C8.81523 79.9402 8.79333 79.9893 8.79333 80.0426H8.79464ZM9.97873 78.6095C9.97873 78.3598 9.8807 78.2172 9.72533 78.1376C9.56424 78.0573 9.34083 78.0302 9.08831 78.0255H8.99351C8.70264 78.0255 8.44189 78.0477 8.26241 78.1376C8.10691 78.2172 8.01005 78.3601 8.01005 78.6095V81.6524C8.01005 81.9015 8.10691 82.0437 8.26241 82.1233C8.44189 82.2139 8.70264 82.2358 8.99351 82.2358H9.09875C9.34598 82.2302 9.56777 82.2036 9.72533 82.1237C9.88201 82.0437 9.97873 81.9003 9.97873 81.6506V78.6095ZM13.3418 79.1303C12.8903 78.8171 12.2887 78.6212 11.764 78.6212C11.3054 78.6212 10.9526 78.7744 10.7106 79.0246C10.4455 79.2983 10.3086 79.6924 10.3086 80.1307C10.3086 80.5697 10.4455 80.9634 10.7106 81.2378C10.9526 81.4874 11.3054 81.6403 11.764 81.6403C12.2596 81.6403 12.8256 81.4648 13.268 81.1806C13.6944 80.9067 14.0015 80.5338 14.0015 80.1307C14.0015 79.7517 13.7284 79.3994 13.3418 79.1303Z" fill="#20201F"/>
<path fill-rule="evenodd" clip-rule="evenodd" d="M7.72443 70.9662L7.72339 74.3369C7.72339 75.4641 10.0554 75.3313 10.2111 75.3197C10.7509 75.3197 11.2407 75.0994 11.595 74.7444C11.9488 74.3902 12.1681 73.8993 12.1681 73.3593V71.9289C12.1681 71.3879 11.9493 70.8975 11.595 70.5424C11.2407 70.1885 10.75 69.969 10.2102 69.9666C10.0519 69.9594 7.72339 69.8434 7.72443 70.9662ZM9.99603 72.6447H9.99646C9.99763 72.5262 10.0442 72.4168 10.1221 72.3387C10.2014 72.2619 10.3094 72.2145 10.4273 72.2145C10.5463 72.2145 10.6545 72.2622 10.7323 72.3403C10.8103 72.4182 10.8581 72.5262 10.8581 72.6451C10.8581 72.7634 10.8103 72.8715 10.7323 72.9494V72.9509H10.7314C10.6536 73.0288 10.5463 73.0775 10.4273 73.0775C10.3094 73.0775 10.1999 73.0288 10.1221 72.9509V72.9504C10.0442 72.8725 9.99528 72.7634 9.99528 72.6451L9.99603 72.6447ZM10.2158 72.644C10.2158 72.5876 10.239 72.5345 10.2779 72.4966C10.315 72.4595 10.3682 72.4357 10.4273 72.4357C10.4861 72.4357 10.5394 72.4585 10.5775 72.4956C10.6141 72.5338 10.6382 72.5857 10.6376 72.6451C10.6376 72.7046 10.6145 72.7559 10.5775 72.794L10.5766 72.7949C10.5394 72.8327 10.4861 72.8557 10.4273 72.8557C10.3692 72.8557 10.316 72.8312 10.2779 72.7946L10.2775 72.7937C10.2402 72.7565 10.2177 72.7034 10.2177 72.646L10.2181 72.644H10.2158ZM8.54531 72.6447C8.54531 72.1013 8.70714 71.608 8.96685 71.2493C9.23849 70.8767 9.61799 70.645 10.0385 70.6447C10.4606 70.6447 10.84 70.8767 11.1122 71.2493C11.3734 71.6093 11.5337 72.1029 11.5337 72.6465V72.6488C11.5324 73.1909 11.3709 73.6831 11.1106 74.0429C10.8391 74.4139 10.4606 74.6451 10.0409 74.6454L10.0385 74.6451C9.61695 74.6451 9.23966 74.4139 8.96685 74.0399C8.70669 73.6821 8.54531 73.189 8.54576 72.646L8.54531 72.6447ZM8.84913 72.6447C8.85001 72.1685 8.98963 71.7382 9.21408 71.427C9.42868 71.1333 9.72102 70.9505 10.0385 70.9505C10.358 70.9505 10.6504 71.1333 10.8659 71.4293C11.0894 71.7389 11.2286 72.1685 11.2286 72.6465V72.6474L11.2295 72.6488C11.2286 73.1255 11.0894 73.554 10.8645 73.8636C10.6508 74.1566 10.358 74.3392 10.0409 74.3401L10.0385 74.3392C9.72043 74.3398 9.4278 74.1568 9.21408 73.8626C8.99051 73.5528 8.85001 73.1231 8.85044 72.6465V72.6447H8.84913ZM8.02852 70.9673C8.02852 70.1304 10.1934 70.273 10.199 70.273L10.2102 70.2743C10.6664 70.2743 11.0791 70.4586 11.3793 70.7569C11.6784 71.058 11.863 71.4717 11.863 71.9289V73.3578C11.863 73.8167 11.6793 74.2311 11.3793 74.5308C11.0806 74.8301 10.6664 75.0144 10.2102 75.0153L10.1994 75.0157C10.194 75.0157 8.02852 75.1692 8.02852 74.336V70.9673Z" fill="#20201F"/>
<path fill-rule="evenodd" clip-rule="evenodd" d="M8.16401 68.7278H25.7226V61.5406H8.16401V68.7278ZM11.5854 64.4356C11.7783 64.4356 11.953 64.5139 12.0792 64.6402C12.2054 64.7672 12.2836 64.9417 12.2836 65.1342C12.2836 65.3267 12.2054 65.5012 12.0792 65.6277C11.9523 65.7545 11.7778 65.8328 11.5854 65.8328C11.393 65.8328 11.2186 65.7545 11.0922 65.6282C10.9655 65.5019 10.8873 65.3271 10.8873 65.1342C10.8873 64.9412 10.9655 64.7665 11.0917 64.6402C11.2179 64.5139 11.3926 64.4356 11.5854 64.4356ZM11.8819 64.8376C11.9574 64.9132 12.0044 65.0183 12.0044 65.1342C12.0044 65.2501 11.9574 65.3552 11.8819 65.4308C11.8063 65.5064 11.7013 65.5533 11.5854 65.5533C11.4695 65.5533 11.3645 65.5064 11.2891 65.4307C11.2134 65.3548 11.1665 65.2499 11.1665 65.1342C11.1665 65.0185 11.2134 64.9136 11.2891 64.8377C11.365 64.762 11.4698 64.7151 11.5854 64.7151C11.701 64.7151 11.8059 64.762 11.8819 64.8376ZM9.48924 61.7463L21.884 62.0257C23.7457 62.0257 25.27 63.2715 25.27 65.1342C25.27 66.9968 23.7457 68.2427 21.884 68.2427L9.48924 68.5221C9.24908 68.5221 9.03071 68.4237 8.87281 68.2657C8.71485 68.107 8.61656 67.8887 8.61656 67.6489V62.6195C8.61656 62.38 8.71475 62.1618 8.87281 62.0033C9.03184 61.8445 9.24996 61.7463 9.48924 61.7463ZM21.884 62.375C23.5549 62.375 24.9209 63.4624 24.9209 65.1342C24.9209 66.806 23.5549 67.8934 21.884 67.8934L9.48924 68.1728C9.34559 68.1728 9.21463 68.1137 9.11895 68.0187C9.02444 67.9242 8.96564 67.7932 8.96564 67.6489V62.6195C8.96564 62.4752 9.02444 62.3442 9.11967 62.249C9.21418 62.1544 9.34501 62.0956 9.48924 62.0956L21.884 62.375ZM25.7594 69.0699H8.12716C8.03946 69.0699 7.95945 69.0351 7.9015 68.9799C7.84315 68.9246 7.80713 68.8475 7.80713 68.763V61.5054C7.80713 61.4209 7.84315 61.3438 7.90081 61.2884C7.95878 61.2329 8.03903 61.1985 8.12716 61.1985H25.7594C25.8476 61.1985 25.9278 61.2329 25.9858 61.2884C26.0431 61.3445 26.0794 61.4213 26.0794 61.5054V68.763C26.0794 68.8471 26.0433 68.9238 25.9858 68.9794C25.927 69.0353 25.8471 69.0699 25.7594 69.0699Z" fill="#20201F"/>
<path fill-rule="evenodd" clip-rule="evenodd" d="M42.4759 90.9743V90.4692C42.4759 90.4089 42.4265 90.36 42.3666 90.36H42.261V85.1662C42.261 85.0785 42.1899 85.0073 42.1023 85.0073C42.0147 85.0073 41.9435 85.0785 41.9435 85.1662V90.36H41.0781C41.0183 90.36 40.9688 90.4094 40.9688 90.4692V90.9743C40.9688 91.0346 41.0179 91.0835 41.0781 91.0835H42.3666C42.4268 91.0835 42.4759 91.0346 42.4759 90.9743Z" fill="#20201F"/>
<path fill-rule="evenodd" clip-rule="evenodd" d="M40.9323 79.6566V80.1617C40.9323 80.222 40.9816 80.2709 41.0416 80.2709H41.1471V85.4648C41.1471 85.5524 41.2183 85.6236 41.3059 85.6236C41.3935 85.6236 41.4646 85.5524 41.4646 85.4648V80.2709H42.3301C42.3899 80.2709 42.4394 80.2215 42.4394 80.1617V79.6566C42.4394 79.5963 42.3903 79.5474 42.3301 79.5474H41.0416C40.9814 79.5474 40.9323 79.5963 40.9323 79.6566Z" fill="#20201F"/>
<path d="M48.1132 35.7238V42.4312H46.5609V36.9694H45.2194V35.7238H48.1132Z" fill="#20201F"/>
<path d="M51.5005 30.8372H51.1331V48.3205H51.5005V30.8372Z" fill="#20201F"/>
<path d="M55.8546 34.584V34.803H54.1744V34.6284L55.1702 33.6531C55.2957 33.5299 55.3801 33.4239 55.4234 33.3349C55.4691 33.2436 55.4919 33.1524 55.4919 33.0611C55.4919 32.9197 55.4428 32.8102 55.3447 32.7326C55.2489 32.6527 55.1109 32.6128 54.9306 32.6128C54.65 32.6128 54.4322 32.7018 54.277 32.8797L54.1025 32.7292C54.196 32.6197 54.3147 32.5352 54.4584 32.4759C54.6044 32.4166 54.7687 32.387 54.9512 32.387C55.1953 32.387 55.3881 32.4451 55.5295 32.5615C55.6733 32.6756 55.7451 32.833 55.7451 33.0337C55.7451 33.1569 55.7177 33.2756 55.663 33.3896C55.6082 33.5037 55.5044 33.6349 55.3516 33.7832L54.5371 34.584H55.8546ZM56.8277 32.4075V34.803H56.5813V32.6265H56.0167V32.4075H56.8277ZM57.5852 34.8201C57.535 34.8201 57.4916 34.8018 57.4551 34.7653C57.4209 34.7288 57.4038 34.6843 57.4038 34.6319C57.4038 34.5794 57.4209 34.5361 57.4551 34.5018C57.4916 34.4653 57.535 34.4471 57.5852 34.4471C57.6353 34.4471 57.6787 34.4653 57.7152 34.5018C57.7517 34.5361 57.7699 34.5794 57.7699 34.6319C57.7699 34.6843 57.7517 34.7288 57.7152 34.7653C57.6787 34.8018 57.6353 34.8201 57.5852 34.8201ZM58.7493 32.4075V34.803H58.503V32.6265H57.9383V32.4075H58.7493ZM60.6942 33.5471C60.8448 33.5972 60.96 33.6725 61.0399 33.7729C61.122 33.8733 61.1631 33.9942 61.1631 34.1357C61.1631 34.2748 61.1254 34.3969 61.0501 34.5018C60.9749 34.6045 60.8665 34.6843 60.725 34.7414C60.5859 34.7961 60.4216 34.8235 60.2323 34.8235C59.9448 34.8235 59.7189 34.7619 59.5547 34.6387C59.3904 34.5155 59.3083 34.3478 59.3083 34.1357C59.3083 33.9919 59.3471 33.871 59.4246 33.7729C59.5045 33.6725 59.6197 33.5972 59.7703 33.5471C59.6471 33.4991 59.5535 33.4307 59.4896 33.3417C59.4258 33.2505 59.3938 33.1432 59.3938 33.02C59.3938 32.8261 59.4691 32.6721 59.6197 32.5581C59.7725 32.444 59.9767 32.387 60.2323 32.387C60.4011 32.387 60.5482 32.4132 60.6737 32.4657C60.8015 32.5159 60.9007 32.5889 60.9714 32.6847C61.0422 32.7805 61.0775 32.8923 61.0775 33.02C61.0775 33.1432 61.0444 33.2505 60.9783 33.3417C60.9121 33.4307 60.8174 33.4991 60.6942 33.5471ZM59.6402 33.0269C59.6402 33.1592 59.6927 33.2642 59.7976 33.3417C59.9026 33.4193 60.0475 33.4581 60.2323 33.4581C60.417 33.4581 60.5619 33.4193 60.6669 33.3417C60.7741 33.2642 60.8277 33.1604 60.8277 33.0303C60.8277 32.8957 60.7729 32.7896 60.6634 32.7121C60.5562 32.6345 60.4125 32.5957 60.2323 32.5957C60.0497 32.5957 59.9049 32.6345 59.7976 32.7121C59.6927 32.7896 59.6402 32.8946 59.6402 33.0269ZM60.2323 34.6148C60.4444 34.6148 60.6098 34.5714 60.7285 34.4847C60.8494 34.398 60.9098 34.2805 60.9098 34.1322C60.9098 33.9839 60.8494 33.8676 60.7285 33.7832C60.6098 33.6965 60.4444 33.6531 60.2323 33.6531C60.0224 33.6531 59.857 33.6965 59.736 33.7832C59.6174 33.8676 59.5581 33.9839 59.5581 34.1322C59.5581 34.2828 59.6174 34.4014 59.736 34.4881C59.8547 34.5726 60.0201 34.6148 60.2323 34.6148Z" fill="#20201F"/>
<path d="M54.2684 38.4986C54.5194 38.5123 54.7099 38.5807 54.8399 38.7039C54.9722 38.8248 55.0384 38.9834 55.0384 39.1796C55.0384 39.3165 55.0053 39.4385 54.9392 39.5458C54.873 39.6507 54.7749 39.734 54.6449 39.7956C54.5148 39.8572 54.3563 39.888 54.1692 39.888C53.9958 39.888 53.8315 39.8606 53.6764 39.8058C53.5235 39.7488 53.4003 39.6735 53.3068 39.58L53.4266 39.3849C53.5064 39.467 53.6125 39.5343 53.7448 39.5868C53.8772 39.637 54.0186 39.6621 54.1692 39.6621C54.3654 39.6621 54.5171 39.6199 54.6243 39.5355C54.7315 39.4488 54.7852 39.3302 54.7852 39.1796C54.7852 39.0313 54.7315 38.9149 54.6243 38.8305C54.5171 38.7461 54.3551 38.7039 54.1384 38.7039H53.9673V38.5225L54.6312 37.691H53.406V37.4719H54.946V37.6465L54.2684 38.4986ZM57.0327 37.4719V37.6465L56.03 39.8674H55.7631L56.7486 37.691H55.5167V38.1393H55.2737V37.4719H57.0327ZM57.3617 39.8845C57.3115 39.8845 57.2681 39.8663 57.2316 39.8298C57.1974 39.7933 57.1803 39.7488 57.1803 39.6963C57.1803 39.6439 57.1974 39.6005 57.2316 39.5663C57.2681 39.5298 57.3115 39.5115 57.3617 39.5115C57.4118 39.5115 57.4552 39.5298 57.4917 39.5663C57.5282 39.6005 57.5464 39.6439 57.5464 39.6963C57.5464 39.7488 57.5282 39.7933 57.4917 39.8298C57.4552 39.8663 57.4118 39.8845 57.3617 39.8845ZM58.8577 38.4336C59.0151 38.4336 59.1543 38.4632 59.2752 38.5225C59.3984 38.5819 59.4942 38.6663 59.5627 38.7758C59.6311 38.883 59.6653 39.0085 59.6653 39.1522C59.6653 39.2982 59.63 39.4271 59.5592 39.5389C59.4885 39.6507 59.3904 39.7374 59.2649 39.799C59.1417 39.8583 59.0026 39.888 58.8474 39.888C58.5303 39.888 58.2874 39.7842 58.1185 39.5766C57.9497 39.3667 57.8653 39.0712 57.8653 38.6902C57.8653 38.4233 57.9109 38.1974 58.0022 38.0126C58.0934 37.8278 58.2212 37.6887 58.3855 37.5951C58.5497 37.4993 58.7414 37.4514 58.9604 37.4514C59.1976 37.4514 59.387 37.4948 59.5284 37.5814L59.4292 37.7799C59.3151 37.7046 59.16 37.667 58.9638 37.667C58.6992 37.667 58.4915 37.7514 58.341 37.9202C58.1904 38.0868 58.1151 38.3298 58.1151 38.6492C58.1151 38.7062 58.1185 38.7712 58.1254 38.8442C58.1847 38.7142 58.2794 38.6138 58.4094 38.5431C58.5395 38.4701 58.6889 38.4336 58.8577 38.4336ZM58.8372 39.6792C59.0106 39.6792 59.1509 39.6324 59.2581 39.5389C59.3676 39.4431 59.4224 39.3165 59.4224 39.1591C59.4224 39.0016 59.3676 38.8762 59.2581 38.7826C59.1509 38.6891 59.0049 38.6423 58.8201 38.6423C58.6992 38.6423 58.5919 38.6651 58.4984 38.7108C58.4071 38.7564 58.3353 38.8191 58.2828 38.899C58.2303 38.9788 58.2041 39.0678 58.2041 39.1659C58.2041 39.2572 58.228 39.3416 58.2759 39.4191C58.3261 39.4967 58.3991 39.5594 58.495 39.6073C58.5908 39.6553 58.7049 39.6792 58.8372 39.6792ZM60.9054 39.888C60.7206 39.888 60.5552 39.8389 60.4092 39.7408C60.2655 39.6427 60.1526 39.5024 60.0704 39.3199C59.9906 39.1351 59.9507 38.9184 59.9507 38.6697C59.9507 38.421 59.9906 38.2054 60.0704 38.0229C60.1526 37.8381 60.2655 37.6967 60.4092 37.5986C60.5552 37.5005 60.7206 37.4514 60.9054 37.4514C61.0902 37.4514 61.2545 37.5005 61.3982 37.5986C61.5442 37.6967 61.6583 37.8381 61.7404 38.0229C61.8226 38.2054 61.8636 38.421 61.8636 38.6697C61.8636 38.9184 61.8226 39.1351 61.7404 39.3199C61.6583 39.5024 61.5442 39.6427 61.3982 39.7408C61.2545 39.8389 61.0902 39.888 60.9054 39.888ZM60.9054 39.6621C61.0446 39.6621 61.1667 39.6233 61.2716 39.5458C61.3788 39.4682 61.4621 39.3553 61.5214 39.207C61.5807 39.0587 61.6104 38.8796 61.6104 38.6697C61.6104 38.4598 61.5807 38.2807 61.5214 38.1324C61.4621 37.9841 61.3788 37.8712 61.2716 37.7936C61.1667 37.7161 61.0446 37.6773 60.9054 37.6773C60.7663 37.6773 60.6431 37.7161 60.5358 37.7936C60.4309 37.8712 60.3488 37.9841 60.2894 38.1324C60.2301 38.2807 60.2005 38.4598 60.2005 38.6697C60.2005 38.8796 60.2301 39.0587 60.2894 39.207C60.3488 39.3553 60.4309 39.4682 60.5358 39.5458C60.6431 39.6233 60.7663 39.6621 60.9054 39.6621Z" fill="#20201F"/>
<path d="M54.1781 43.5635C54.429 43.5772 54.6195 43.6457 54.7496 43.7688C54.8819 43.8898 54.9481 44.0483 54.9481 44.2445C54.9481 44.3814 54.915 44.5035 54.8488 44.6107C54.7827 44.7156 54.6846 44.7989 54.5545 44.8605C54.4245 44.9221 54.2659 44.9529 54.0788 44.9529C53.9055 44.9529 53.7412 44.9255 53.5861 44.8708C53.4332 44.8137 53.31 44.7385 53.2165 44.6449L53.3362 44.4499C53.4161 44.532 53.5222 44.5993 53.6545 44.6518C53.7868 44.7019 53.9283 44.727 54.0788 44.727C54.275 44.727 54.4268 44.6848 54.534 44.6004C54.6412 44.5137 54.6948 44.3951 54.6948 44.2445C54.6948 44.0962 54.6412 43.9799 54.534 43.8955C54.4268 43.8111 54.2648 43.7688 54.048 43.7688H53.8769V43.5875L54.5408 42.7559H53.3157V42.5369H54.8557V42.7114L54.1781 43.5635ZM56.6675 43.6765C56.8181 43.7266 56.9333 43.8019 57.0132 43.9023C57.0953 44.0027 57.1364 44.1236 57.1364 44.2651C57.1364 44.4042 57.0987 44.5263 57.0234 44.6312C56.9481 44.7339 56.8398 44.8137 56.6983 44.8708C56.5592 44.9255 56.3949 44.9529 56.2055 44.9529C55.9181 44.9529 55.6922 44.8913 55.528 44.7681C55.3637 44.6449 55.2816 44.4772 55.2816 44.2651C55.2816 44.1213 55.3203 44.0004 55.3979 43.9023C55.4778 43.8019 55.593 43.7266 55.7436 43.6765C55.6204 43.6285 55.5268 43.5601 55.4629 43.4711C55.3991 43.3799 55.3671 43.2726 55.3671 43.1494C55.3671 42.9555 55.4424 42.8015 55.593 42.6875C55.7458 42.5734 55.95 42.5163 56.2055 42.5163C56.3744 42.5163 56.5215 42.5426 56.647 42.5951C56.7748 42.6452 56.874 42.7183 56.9447 42.8141C57.0154 42.9099 57.0508 43.0217 57.0508 43.1494C57.0508 43.2726 57.0177 43.3799 56.9516 43.4711C56.8854 43.5601 56.7907 43.6285 56.6675 43.6765ZM55.6135 43.1563C55.6135 43.2886 55.666 43.3936 55.7709 43.4711C55.8759 43.5487 56.0207 43.5875 56.2055 43.5875C56.3903 43.5875 56.5352 43.5487 56.6401 43.4711C56.7474 43.3936 56.801 43.2898 56.801 43.1597C56.801 43.0251 56.7462 42.919 56.6367 42.8415C56.5295 42.7639 56.3858 42.7251 56.2055 42.7251C56.023 42.7251 55.8782 42.7639 55.7709 42.8415C55.666 42.919 55.6135 43.024 55.6135 43.1563ZM56.2055 44.7442C56.4177 44.7442 56.5831 44.7008 56.7017 44.6141C56.8227 44.5274 56.8831 44.4099 56.8831 44.2616C56.8831 44.1133 56.8227 43.997 56.7017 43.9126C56.5831 43.8259 56.4177 43.7825 56.2055 43.7825C55.9956 43.7825 55.8302 43.8259 55.7093 43.9126C55.5907 43.997 55.5314 44.1133 55.5314 44.2616C55.5314 44.4122 55.5907 44.5308 55.7093 44.6175C55.828 44.7019 55.9934 44.7442 56.2055 44.7442ZM57.6957 44.9495C57.6456 44.9495 57.6022 44.9312 57.5657 44.8947C57.5315 44.8582 57.5144 44.8137 57.5144 44.7613C57.5144 44.7088 57.5315 44.6654 57.5657 44.6312C57.6022 44.5947 57.6456 44.5765 57.6957 44.5765C57.7459 44.5765 57.7893 44.5947 57.8258 44.6312C57.8623 44.6654 57.8805 44.7088 57.8805 44.7613C57.8805 44.8137 57.8623 44.8582 57.8258 44.8947C57.7893 44.9312 57.7459 44.9495 57.6957 44.9495ZM59.8866 42.5369V42.7114L58.8839 44.9324H58.617L59.6025 42.7559H58.3706V43.2042H58.1276V42.5369H59.8866ZM60.9572 42.5163C61.2744 42.5163 61.5173 42.6213 61.6862 42.8312C61.855 43.0388 61.9394 43.3331 61.9394 43.7141C61.9394 43.981 61.8938 44.2069 61.8025 44.3917C61.7113 44.5765 61.5835 44.7168 61.4192 44.8126C61.255 44.9061 61.0633 44.9529 60.8443 44.9529C60.6071 44.9529 60.4177 44.9096 60.2762 44.8229L60.3755 44.6244C60.4896 44.6997 60.6447 44.7373 60.8409 44.7373C61.1055 44.7373 61.3131 44.654 61.4637 44.4875C61.6143 44.3187 61.6896 44.0746 61.6896 43.7552C61.6896 43.6958 61.6862 43.6308 61.6793 43.5601C61.62 43.6901 61.5253 43.7917 61.3953 43.8647C61.2652 43.9354 61.1158 43.9708 60.947 43.9708C60.7896 43.9708 60.6493 43.9411 60.5261 43.8818C60.4051 43.8225 60.3105 43.7392 60.242 43.632C60.1736 43.5225 60.1394 43.3958 60.1394 43.2521C60.1394 43.1061 60.1747 42.9772 60.2454 42.8654C60.3162 42.7536 60.4131 42.6681 60.5363 42.6087C60.6618 42.5471 60.8021 42.5163 60.9572 42.5163ZM60.9846 43.762C61.1055 43.762 61.2116 43.7392 61.3029 43.6936C61.3964 43.6479 61.4694 43.5852 61.5219 43.5053C61.5744 43.4255 61.6006 43.3365 61.6006 43.2384C61.6006 43.1472 61.5755 43.0627 61.5253 42.9852C61.4774 42.9076 61.4055 42.8449 61.3097 42.797C61.2139 42.7491 61.0998 42.7251 60.9675 42.7251C60.7941 42.7251 60.6527 42.773 60.5432 42.8688C60.4359 42.9624 60.3823 43.0878 60.3823 43.2453C60.3823 43.4027 60.4359 43.5282 60.5432 43.6217C60.6527 43.7152 60.7998 43.762 60.9846 43.762Z" fill="#20201F"/>
<path d="M45.0912 59.8186H44.1467V61.2217H43.6163V59.3806H45.0912V59.8186ZM46.1596 61.2491C45.9657 61.2491 45.7912 61.2091 45.6361 61.1293C45.4832 61.0472 45.3634 60.9342 45.2767 60.7905C45.19 60.6468 45.1467 60.4836 45.1467 60.3011C45.1467 60.1186 45.19 59.9555 45.2767 59.8118C45.3634 59.668 45.4832 59.5562 45.6361 59.4764C45.7912 59.3943 45.9657 59.3532 46.1596 59.3532C46.3536 59.3532 46.527 59.3943 46.6798 59.4764C46.8327 59.5562 46.9524 59.668 47.0391 59.8118C47.1258 59.9555 47.1692 60.1186 47.1692 60.3011C47.1692 60.4836 47.1258 60.6468 47.0391 60.7905C46.9524 60.9342 46.8327 61.0472 46.6798 61.1293C46.527 61.2091 46.3536 61.2491 46.1596 61.2491ZM46.1596 60.811C46.2965 60.811 46.4083 60.7654 46.495 60.6741C46.584 60.5806 46.6285 60.4563 46.6285 60.3011C46.6285 60.146 46.584 60.0228 46.495 59.9315C46.4083 59.838 46.2965 59.7912 46.1596 59.7912C46.0228 59.7912 45.9098 59.838 45.8209 59.9315C45.7319 60.0228 45.6874 60.146 45.6874 60.3011C45.6874 60.4563 45.7319 60.5806 45.8209 60.6741C45.9098 60.7654 46.0228 60.811 46.1596 60.811ZM48.4124 61.2491C48.2162 61.2491 48.0394 61.2091 47.882 61.1293C47.7269 61.0472 47.6048 60.9342 47.5158 60.7905C47.4291 60.6468 47.3858 60.4836 47.3858 60.3011C47.3858 60.1186 47.4291 59.9555 47.5158 59.8118C47.6048 59.668 47.7269 59.5562 47.882 59.4764C48.0394 59.3943 48.2162 59.3532 48.4124 59.3532C48.6063 59.3532 48.7752 59.3943 48.9189 59.4764C49.0649 59.5562 49.171 59.6715 49.2372 59.822L48.8231 60.0445C48.7273 59.8756 48.5892 59.7912 48.409 59.7912C48.2698 59.7912 48.1546 59.8369 48.0634 59.9281C47.9721 60.0194 47.9265 60.1437 47.9265 60.3011C47.9265 60.4585 47.9721 60.5829 48.0634 60.6741C48.1546 60.7654 48.2698 60.811 48.409 60.811C48.5915 60.811 48.7295 60.7266 48.8231 60.5578L49.2372 60.7836C49.171 60.9297 49.0649 61.0437 48.9189 61.1259C48.7752 61.208 48.6063 61.2491 48.4124 61.2491ZM51.1017 59.8186H50.4789V61.2217H49.9484V59.8186H49.3256V59.3806H51.1017V59.8186ZM51.3863 59.3806H51.9167V60.4757L52.8133 59.3806H53.3026V61.2217H52.7722V60.1266L51.879 61.2217H51.3863V59.3806ZM53.8158 59.3806H54.3463V60.0992H55.147V59.3806H55.6809V61.2217H55.147V60.5338H54.3463V61.2217H53.8158V59.3806ZM56.9072 59.3532C57.1923 59.3532 57.4114 59.4216 57.5642 59.5585C57.7171 59.6931 57.7935 59.8973 57.7935 60.1711V61.2217H57.2939V60.9924C57.1935 61.1635 57.0064 61.2491 56.7326 61.2491C56.5912 61.2491 56.468 61.2251 56.363 61.1772C56.2604 61.1293 56.1817 61.0631 56.1269 60.9787C56.0722 60.8943 56.0448 60.7985 56.0448 60.6912C56.0448 60.5201 56.1087 60.3855 56.2364 60.2874C56.3665 60.1893 56.5661 60.1403 56.8353 60.1403H57.2596C57.2596 60.0239 57.2243 59.935 57.1536 59.8734C57.0828 59.8095 56.9768 59.7775 56.8353 59.7775C56.7372 59.7775 56.6402 59.7935 56.5444 59.8255C56.4509 59.8551 56.371 59.8962 56.3049 59.9486L56.1132 59.5756C56.2136 59.5049 56.3334 59.4502 56.4726 59.4114C56.614 59.3726 56.7589 59.3532 56.9072 59.3532ZM56.8661 60.8897C56.9574 60.8897 57.0383 60.8692 57.1091 60.8281C57.1798 60.7848 57.23 60.722 57.2596 60.6399V60.4517H56.8935C56.6745 60.4517 56.565 60.5236 56.565 60.6673C56.565 60.7357 56.5912 60.7905 56.6437 60.8316C56.6984 60.8703 56.7726 60.8897 56.8661 60.8897ZM59.893 59.3806V61.2217H59.4174V60.6947H59.0238L58.6748 61.2217H58.1067L58.5276 60.6194C58.3998 60.5692 58.3017 60.4973 58.2333 60.4038C58.1671 60.308 58.1341 60.1928 58.1341 60.0582C58.1341 59.8414 58.2116 59.6749 58.3668 59.5585C58.5242 59.4399 58.7398 59.3806 59.0135 59.3806H59.893ZM59.0238 59.8152C58.9097 59.8152 58.823 59.8357 58.7637 59.8768C58.7067 59.9178 58.6782 59.984 58.6782 60.0753C58.6782 60.1665 58.7056 60.2338 58.7603 60.2772C58.8173 60.3182 58.9029 60.3388 59.017 60.3388H59.4174V59.8152H59.0238Z" fill="#20201F"/>
<path d="M49.9296 65.8349V66.2866H48.1193V65.9273L49.0433 65.0547C49.1414 64.9611 49.2075 64.8813 49.2417 64.8151C49.276 64.7467 49.2931 64.6794 49.2931 64.6132C49.2931 64.5174 49.26 64.4444 49.1938 64.3942C49.1299 64.3417 49.0353 64.3155 48.9098 64.3155C48.8048 64.3155 48.7102 64.336 48.6258 64.3771C48.5413 64.4159 48.4706 64.4752 48.4136 64.555L48.0098 64.2949C48.1033 64.1558 48.2322 64.0474 48.3965 63.9698C48.5607 63.89 48.749 63.8501 48.9611 63.8501C49.1391 63.8501 49.2942 63.8797 49.4265 63.939C49.5611 63.9961 49.6649 64.0782 49.7379 64.1854C49.8132 64.2904 49.8509 64.4147 49.8509 64.5584C49.8509 64.6885 49.8235 64.8105 49.7687 64.9246C49.714 65.0387 49.6079 65.1687 49.4505 65.3147L48.8995 65.8349H49.9296ZM51.0823 63.8911V66.2866H50.5279V64.336H50.0488V63.8911H51.0823ZM51.8133 66.314C51.7197 66.314 51.641 66.2821 51.5772 66.2182C51.5133 66.1543 51.4813 66.0744 51.4813 65.9786C51.4813 65.8805 51.5133 65.8018 51.5772 65.7425C51.641 65.6809 51.7197 65.6501 51.8133 65.6501C51.9068 65.6501 51.9855 65.6809 52.0494 65.7425C52.1133 65.8018 52.1452 65.8805 52.1452 65.9786C52.1452 66.0744 52.1133 66.1543 52.0494 66.2182C51.9855 66.2821 51.9068 66.314 51.8133 66.314ZM53.2646 63.8911V66.2866H52.7102V64.336H52.2311V63.8911H53.2646ZM55.3199 65.0273C55.4386 65.0866 55.5287 65.1642 55.5903 65.26C55.6542 65.3558 55.6861 65.4665 55.6861 65.5919C55.6861 65.7402 55.6439 65.8703 55.5595 65.9821C55.4751 66.0916 55.3564 66.1771 55.2036 66.2387C55.0507 66.298 54.8739 66.3277 54.6731 66.3277C54.4724 66.3277 54.2956 66.298 54.1427 66.2387C53.9921 66.1771 53.8746 66.0916 53.7902 65.9821C53.7081 65.8703 53.667 65.7402 53.667 65.5919C53.667 65.4665 53.6978 65.3558 53.7594 65.26C53.8233 65.1642 53.9134 65.0866 54.0298 65.0273C53.9408 64.9725 53.8724 64.9041 53.8245 64.8219C53.7765 64.7375 53.7526 64.6417 53.7526 64.5345C53.7526 64.3953 53.7914 64.2744 53.8689 64.1717C53.9465 64.0691 54.0549 63.9904 54.194 63.9356C54.3332 63.8786 54.4929 63.8501 54.6731 63.8501C54.8557 63.8501 55.0165 63.8786 55.1557 63.9356C55.2971 63.9904 55.4066 64.0691 55.4842 64.1717C55.5618 64.2744 55.6005 64.3953 55.6005 64.5345C55.6005 64.6417 55.5766 64.7375 55.5287 64.8219C55.4808 64.9041 55.4112 64.9725 55.3199 65.0273ZM54.6731 64.2573C54.5613 64.2573 54.4712 64.2847 54.4028 64.3394C54.3366 64.3919 54.3035 64.4649 54.3035 64.5584C54.3035 64.6497 54.3366 64.7216 54.4028 64.774C54.469 64.8265 54.5591 64.8527 54.6731 64.8527C54.7872 64.8527 54.8785 64.8265 54.9469 64.774C55.0154 64.7216 55.0496 64.6497 55.0496 64.5584C55.0496 64.4649 55.0154 64.3919 54.9469 64.3394C54.8785 64.2847 54.7872 64.2573 54.6731 64.2573ZM54.6731 65.9205C54.8123 65.9205 54.9218 65.8897 55.0017 65.8281C55.0838 65.7642 55.1249 65.6798 55.1249 65.5748C55.1249 65.4699 55.0838 65.3866 55.0017 65.325C54.9218 65.2634 54.8123 65.2326 54.6731 65.2326C54.5363 65.2326 54.4279 65.2634 54.348 65.325C54.2682 65.3866 54.2283 65.4699 54.2283 65.5748C54.2283 65.682 54.2682 65.7665 54.348 65.8281C54.4279 65.8897 54.5363 65.9205 54.6731 65.9205Z" fill="#20201F"/>
<path d="M16.8015 34.9838H16.5243V35.6819H15.9904V33.8408H16.5243V34.556H16.8117L17.3114 33.8408H17.8794L17.2361 34.7237L17.9239 35.6819H17.2943L16.8015 34.9838ZM19.927 33.8408L19.0954 35.7948C19.011 36.007 18.9061 36.1564 18.7806 36.2431C18.6574 36.3298 18.508 36.3732 18.3323 36.3732C18.2365 36.3732 18.1418 36.3583 18.0482 36.3287C17.9547 36.299 17.8783 36.2579 17.819 36.2055L18.014 35.8256C18.0551 35.8621 18.1019 35.8906 18.1543 35.9112C18.2091 35.9317 18.2627 35.942 18.3152 35.942C18.3882 35.942 18.4475 35.9237 18.4931 35.8872C18.5388 35.853 18.5798 35.7948 18.6163 35.7127L18.6232 35.6956L17.8258 33.8408H18.3768L18.8935 35.0899L19.4137 33.8408H19.927ZM21.2376 35.6819L20.8338 35.1172L20.4163 35.6819H19.8345L20.5429 34.7545L19.8585 33.8408H20.4574L20.8475 34.3781L21.2479 33.8408H21.816L21.1315 34.7408L21.8433 35.6819H21.2376ZM22.1061 33.8408H22.6366V34.5594H23.4374V33.8408H23.9712V35.6819H23.4374V34.994H22.6366V35.6819H22.1061V33.8408ZM26.118 33.8408V35.6819H25.6424V35.1549H25.2488L24.8998 35.6819H24.3317L24.7526 35.0796C24.6248 35.0294 24.5267 34.9575 24.4583 34.864C24.3921 34.7682 24.3591 34.653 24.3591 34.5184C24.3591 34.3016 24.4366 34.1351 24.5918 34.0187C24.7492 33.9001 24.9648 33.8408 25.2385 33.8408H26.118ZM25.2488 34.2754C25.1347 34.2754 25.048 34.2959 24.9887 34.337C24.9317 34.3781 24.9032 34.4442 24.9032 34.5355C24.9032 34.6267 24.9306 34.694 24.9853 34.7374C25.0423 34.7784 25.1279 34.799 25.242 34.799H25.6424V34.2754H25.2488Z" fill="#20201F"/>
<path d="M19.6523 39.487C19.7709 39.5463 19.8611 39.6239 19.9227 39.7197C19.9865 39.8155 20.0185 39.9262 20.0185 40.0516C20.0185 40.1999 19.9763 40.33 19.8919 40.4418C19.8074 40.5513 19.6888 40.6368 19.536 40.6984C19.3831 40.7577 19.2063 40.7874 19.0055 40.7874C18.8048 40.7874 18.6279 40.7577 18.4751 40.6984C18.3245 40.6368 18.207 40.5513 18.1226 40.4418C18.0405 40.33 17.9994 40.1999 17.9994 40.0516C17.9994 39.9262 18.0302 39.8155 18.0918 39.7197C18.1557 39.6239 18.2458 39.5463 18.3622 39.487C18.2732 39.4322 18.2047 39.3638 18.1568 39.2817C18.1089 39.1973 18.085 39.1014 18.085 38.9942C18.085 38.855 18.1238 38.7341 18.2013 38.6315C18.2789 38.5288 18.3873 38.4501 18.5264 38.3953C18.6656 38.3383 18.8253 38.3098 19.0055 38.3098C19.188 38.3098 19.3489 38.3383 19.488 38.3953C19.6295 38.4501 19.739 38.5288 19.8166 38.6315C19.8941 38.7341 19.9329 38.855 19.9329 38.9942C19.9329 39.1014 19.909 39.1973 19.8611 39.2817C19.8131 39.3638 19.7436 39.4322 19.6523 39.487ZM19.0055 38.717C18.8937 38.717 18.8036 38.7444 18.7352 38.7991C18.669 38.8516 18.6359 38.9246 18.6359 39.0182C18.6359 39.1094 18.669 39.1813 18.7352 39.2338C18.8013 39.2862 18.8914 39.3125 19.0055 39.3125C19.1196 39.3125 19.2108 39.2862 19.2793 39.2338C19.3477 39.1813 19.382 39.1094 19.382 39.0182C19.382 38.9246 19.3477 38.8516 19.2793 38.7991C19.2108 38.7444 19.1196 38.717 19.0055 38.717ZM19.0055 40.3802C19.1447 40.3802 19.2542 40.3494 19.334 40.2878C19.4162 40.2239 19.4572 40.1395 19.4572 40.0345C19.4572 39.9296 19.4162 39.8463 19.334 39.7847C19.2542 39.7231 19.1447 39.6923 19.0055 39.6923C18.8686 39.6923 18.7603 39.7231 18.6804 39.7847C18.6006 39.8463 18.5606 39.9296 18.5606 40.0345C18.5606 40.1418 18.6006 40.2262 18.6804 40.2878C18.7603 40.3494 18.8686 40.3802 19.0055 40.3802ZM20.6205 40.7737C20.527 40.7737 20.4483 40.7418 20.3844 40.6779C20.3205 40.614 20.2886 40.5342 20.2886 40.4383C20.2886 40.3402 20.3205 40.2615 20.3844 40.2022C20.4483 40.1406 20.527 40.1098 20.6205 40.1098C20.714 40.1098 20.7927 40.1406 20.8566 40.2022C20.9205 40.2615 20.9524 40.3402 20.9524 40.4383C20.9524 40.5342 20.9205 40.614 20.8566 40.6779C20.7927 40.7418 20.714 40.7737 20.6205 40.7737ZM22.0718 38.3508V40.7463H21.5174V38.7957H21.0383V38.3508H22.0718ZM24.2777 40.2946V40.7463H22.4674V40.387L23.3914 39.5144C23.4895 39.4208 23.5556 39.341 23.5899 39.2748C23.6241 39.2064 23.6412 39.1391 23.6412 39.0729C23.6412 38.9771 23.6081 38.9041 23.542 38.8539C23.4781 38.8014 23.3834 38.7752 23.2579 38.7752C23.153 38.7752 23.0583 38.7957 22.9739 38.8368C22.8895 38.8756 22.8187 38.9349 22.7617 39.0147L22.3579 38.7547C22.4514 38.6155 22.5803 38.5071 22.7446 38.4296C22.9089 38.3497 23.0971 38.3098 23.3093 38.3098C23.4872 38.3098 23.6423 38.3394 23.7747 38.3988C23.9093 38.4558 24.0131 38.5379 24.0861 38.6451C24.1614 38.7501 24.199 38.8744 24.199 39.0182C24.199 39.1482 24.1716 39.2703 24.1169 39.3843C24.0621 39.4984 23.956 39.6284 23.7986 39.7745L23.2477 40.2946H24.2777Z" fill="#20201F"/>
<path d="M33.0891 67.8623L32.5881 67.2023L32.0841 67.8623H31.8441L32.4681 67.0523L31.8741 66.2843H32.1141L32.5881 66.9023L33.0621 66.2843H33.2961L32.7021 67.0523L33.3321 67.8623H33.0891ZM34.2765 67.8773C34.1245 67.8773 33.9875 67.8433 33.8655 67.7753C33.7435 67.7053 33.6475 67.6093 33.5775 67.4873C33.5075 67.3653 33.4725 67.2273 33.4725 67.0733C33.4725 66.9193 33.5075 66.7813 33.5775 66.6593C33.6475 66.5373 33.7435 66.4423 33.8655 66.3743C33.9875 66.3063 34.1245 66.2723 34.2765 66.2723C34.4285 66.2723 34.5655 66.3063 34.6875 66.3743C34.8095 66.4423 34.9045 66.5373 34.9725 66.6593C35.0425 66.7813 35.0775 66.9193 35.0775 67.0733C35.0775 67.2273 35.0425 67.3653 34.9725 67.4873C34.9045 67.6093 34.8095 67.7053 34.6875 67.7753C34.5655 67.8433 34.4285 67.8773 34.2765 67.8773ZM34.2765 67.6883C34.3885 67.6883 34.4885 67.6633 34.5765 67.6133C34.6665 67.5613 34.7365 67.4883 34.7865 67.3943C34.8365 67.3003 34.8615 67.1933 34.8615 67.0733C34.8615 66.9533 34.8365 66.8463 34.7865 66.7523C34.7365 66.6583 34.6665 66.5863 34.5765 66.5363C34.4885 66.4843 34.3885 66.4583 34.2765 66.4583C34.1645 66.4583 34.0635 66.4843 33.9735 66.5363C33.8855 66.5863 33.8155 66.6583 33.7635 66.7523C33.7135 66.8463 33.6885 66.9533 33.6885 67.0733C33.6885 67.1933 33.7135 67.3003 33.7635 67.3943C33.8155 67.4883 33.8855 67.5613 33.9735 67.6133C34.0635 67.6633 34.1645 67.6883 34.2765 67.6883ZM36.8139 66.2843V67.8623H36.6009V66.4733H35.8449L35.8239 66.8633C35.8079 67.1913 35.7699 67.4433 35.7099 67.6193C35.6499 67.7953 35.5429 67.8833 35.3889 67.8833C35.3469 67.8833 35.2959 67.8753 35.2359 67.8593L35.2509 67.6763C35.2869 67.6843 35.3119 67.6883 35.3259 67.6883C35.4079 67.6883 35.4699 67.6503 35.5119 67.5743C35.5539 67.4983 35.5819 67.4043 35.5959 67.2923C35.6099 67.1803 35.6219 67.0323 35.6319 66.8483L35.6589 66.2843H36.8139ZM38.7095 66.2843V67.8623H38.4965V66.4733H37.7405L37.7195 66.8633C37.7035 67.1913 37.6655 67.4433 37.6055 67.6193C37.5455 67.7953 37.4385 67.8833 37.2845 67.8833C37.2425 67.8833 37.1915 67.8753 37.1315 67.8593L37.1465 67.6763C37.1825 67.6843 37.2075 67.6883 37.2215 67.6883C37.3035 67.6883 37.3655 67.6503 37.4075 67.5743C37.4495 67.4983 37.4775 67.4043 37.4915 67.2923C37.5055 67.1803 37.5175 67.0323 37.5275 66.8483L37.5545 66.2843H38.7095Z" fill="black"/>
<path d="M33.4204 71.7268C33.6404 71.7388 33.8074 71.7988 33.9214 71.9068C34.0374 72.0128 34.0954 72.1518 34.0954 72.3238C34.0954 72.4438 34.0664 72.5508 34.0084 72.6448C33.9504 72.7368 33.8644 72.8098 33.7504 72.8638C33.6364 72.9178 33.4974 72.9448 33.3334 72.9448C33.1814 72.9448 33.0374 72.9208 32.9014 72.8728C32.7674 72.8228 32.6594 72.7568 32.5774 72.6748L32.6824 72.5038C32.7524 72.5758 32.8454 72.6348 32.9614 72.6808C33.0774 72.7248 33.2014 72.7468 33.3334 72.7468C33.5054 72.7468 33.6384 72.7098 33.7324 72.6358C33.8264 72.5598 33.8734 72.4558 33.8734 72.3238C33.8734 72.1938 33.8264 72.0918 33.7324 72.0178C33.6384 71.9438 33.4964 71.9068 33.3064 71.9068H33.1564V71.7478L33.7384 71.0188H32.6644V70.8268H34.0144V70.9798L33.4204 71.7268ZM34.5618 72.9418C34.5178 72.9418 34.4798 72.9258 34.4478 72.8938C34.4178 72.8618 34.4028 72.8228 34.4028 72.7768C34.4028 72.7308 34.4178 72.6928 34.4478 72.6628C34.4798 72.6308 34.5178 72.6148 34.5618 72.6148C34.6058 72.6148 34.6438 72.6308 34.6758 72.6628C34.7078 72.6928 34.7238 72.7308 34.7238 72.7768C34.7238 72.8228 34.7078 72.8618 34.6758 72.8938C34.6438 72.9258 34.6058 72.9418 34.5618 72.9418ZM36.4824 70.8268V70.9798L35.6034 72.9268H35.3694L36.2334 71.0188H35.1534V71.4118H34.9404V70.8268H36.4824ZM38.201 72.7348V72.9268H36.728V72.7738L37.601 71.9188C37.711 71.8108 37.785 71.7178 37.823 71.6398C37.863 71.5598 37.883 71.4798 37.883 71.3998C37.883 71.2758 37.84 71.1798 37.754 71.1118C37.67 71.0418 37.549 71.0068 37.391 71.0068C37.145 71.0068 36.954 71.0848 36.818 71.2408L36.665 71.1088C36.747 71.0128 36.851 70.9388 36.977 70.8868C37.105 70.8348 37.249 70.8088 37.409 70.8088C37.623 70.8088 37.792 70.8598 37.916 70.9618C38.042 71.0618 38.105 71.1998 38.105 71.3758C38.105 71.4838 38.081 71.5878 38.033 71.6878C37.985 71.7878 37.894 71.9028 37.76 72.0328L37.046 72.7348H38.201Z" fill="black"/>
<path d="M20.4997 9.03568C20.6457 9.03568 20.7757 9.06868 20.8897 9.13468C21.0057 9.19869 21.0957 9.28969 21.1597 9.40769C21.2237 9.52369 21.2557 9.65669 21.2557 9.80669C21.2557 9.9607 21.2217 10.0977 21.1537 10.2177C21.0877 10.3357 20.9947 10.4277 20.8747 10.4937C20.7547 10.5597 20.6167 10.5927 20.4607 10.5927C20.1987 10.5927 19.9956 10.5007 19.8516 10.3167C19.7076 10.1327 19.6356 9.8787 19.6356 9.55469C19.6356 9.21669 19.6996 8.95768 19.8276 8.77768C19.9576 8.59768 20.1597 8.47567 20.4337 8.41167L21.1417 8.24967L21.1777 8.44467L20.5117 8.59768C20.2857 8.64768 20.1197 8.73668 20.0136 8.86468C19.9076 8.99068 19.8496 9.17768 19.8396 9.42569C19.9036 9.30369 19.9926 9.20869 20.1067 9.14068C20.2207 9.07068 20.3517 9.03568 20.4997 9.03568ZM20.4667 10.4157C20.5767 10.4157 20.6747 10.3907 20.7607 10.3407C20.8487 10.2887 20.9167 10.2167 20.9647 10.1247C21.0147 10.0327 21.0397 9.9287 21.0397 9.81269C21.0397 9.69669 21.0157 9.59469 20.9677 9.50669C20.9197 9.41869 20.8517 9.35069 20.7637 9.30269C20.6777 9.25269 20.5787 9.22769 20.4667 9.22769C20.3547 9.22769 20.2547 9.25269 20.1667 9.30269C20.0807 9.35069 20.0126 9.41869 19.9626 9.50669C19.9146 9.59469 19.8906 9.69669 19.8906 9.81269C19.8906 9.9287 19.9146 10.0327 19.9626 10.1247C20.0126 10.2167 20.0817 10.2887 20.1697 10.3407C20.2577 10.3907 20.3567 10.4157 20.4667 10.4157ZM22.2464 8.98468C22.4524 8.98468 22.6104 9.03668 22.7204 9.14068C22.8304 9.24269 22.8854 9.39469 22.8854 9.59669V10.5747H22.6814V10.3287C22.6334 10.4107 22.5624 10.4747 22.4684 10.5207C22.3764 10.5667 22.2664 10.5897 22.1384 10.5897C21.9624 10.5897 21.8224 10.5477 21.7184 10.4637C21.6144 10.3797 21.5624 10.2687 21.5624 10.1307C21.5624 9.9967 21.6104 9.8887 21.7064 9.80669C21.8044 9.72469 21.9594 9.68369 22.1714 9.68369H22.6724V9.58769C22.6724 9.45169 22.6344 9.34869 22.5584 9.27869C22.4824 9.20669 22.3714 9.17068 22.2254 9.17068C22.1254 9.17068 22.0294 9.18769 21.9374 9.22169C21.8454 9.25369 21.7664 9.29869 21.7004 9.35669L21.6044 9.19769C21.6844 9.12968 21.7804 9.07768 21.8924 9.04168C22.0044 9.00368 22.1224 8.98468 22.2464 8.98468ZM22.1714 10.4217C22.2914 10.4217 22.3944 10.3947 22.4804 10.3407C22.5664 10.2847 22.6304 10.2047 22.6724 10.1007V9.8427H22.1774C21.9074 9.8427 21.7724 9.9367 21.7724 10.1247C21.7724 10.2167 21.8074 10.2897 21.8774 10.3437C21.9474 10.3957 22.0454 10.4217 22.1714 10.4217ZM24.7425 8.99668V10.5747H24.5295V9.18568H23.7735L23.7525 9.57569C23.7365 9.9037 23.6985 10.1557 23.6385 10.3317C23.5785 10.5077 23.4715 10.5957 23.3175 10.5957C23.2755 10.5957 23.2245 10.5877 23.1645 10.5717L23.1795 10.3887C23.2155 10.3967 23.2405 10.4007 23.2545 10.4007C23.3365 10.4007 23.3985 10.3627 23.4405 10.2867C23.4825 10.2107 23.5105 10.1167 23.5245 10.0047C23.5385 9.8927 23.5505 9.74469 23.5605 9.56069L23.5875 8.99668H24.7425ZM25.921 9.8727H25.561V10.5747H25.348V8.99668H25.561V9.68969H25.924L26.479 8.99668H26.71L26.089 9.76169L26.755 10.5747H26.503L25.921 9.8727ZM27.6866 10.5897C27.5345 10.5897 27.3975 10.5557 27.2755 10.4877C27.1535 10.4177 27.0575 10.3217 26.9875 10.1997C26.9175 10.0777 26.8825 9.9397 26.8825 9.78569C26.8825 9.63169 26.9175 9.49369 26.9875 9.37169C27.0575 9.24969 27.1535 9.15468 27.2755 9.08668C27.3975 9.01868 27.5345 8.98468 27.6866 8.98468C27.8386 8.98468 27.9756 9.01868 28.0976 9.08668C28.2196 9.15468 28.3146 9.24969 28.3826 9.37169C28.4526 9.49369 28.4876 9.63169 28.4876 9.78569C28.4876 9.9397 28.4526 10.0777 28.3826 10.1997C28.3146 10.3217 28.2196 10.4177 28.0976 10.4877C27.9756 10.5557 27.8386 10.5897 27.6866 10.5897ZM27.6866 10.4007C27.7986 10.4007 27.8986 10.3757 27.9866 10.3257C28.0766 10.2737 28.1466 10.2007 28.1966 10.1067C28.2466 10.0127 28.2716 9.9057 28.2716 9.78569C28.2716 9.66569 28.2466 9.55869 28.1966 9.46469C28.1466 9.37069 28.0766 9.29869 27.9866 9.24869C27.8986 9.19669 27.7986 9.17068 27.6866 9.17068C27.5746 9.17068 27.4735 9.19669 27.3835 9.24869C27.2955 9.29869 27.2255 9.37069 27.1735 9.46469C27.1235 9.55869 27.0985 9.66569 27.0985 9.78569C27.0985 9.9057 27.1235 10.0127 27.1735 10.1067C27.2255 10.2007 27.2955 10.2737 27.3835 10.3257C27.4735 10.3757 27.5746 10.4007 27.6866 10.4007ZM28.9428 8.99668H29.1558V9.69569H30.1488V8.99668H30.3618V10.5747H30.1488V9.8787H29.1558V10.5747H28.9428V8.99668Z" fill="#20201F"/>
<path d="M22.8942 14.4391C23.1142 14.4511 23.2812 14.5111 23.3952 14.6191C23.5112 14.7251 23.5692 14.8641 23.5692 15.0362C23.5692 15.1562 23.5402 15.2632 23.4822 15.3572C23.4242 15.4492 23.3382 15.5222 23.2242 15.5762C23.1102 15.6302 22.9712 15.6572 22.8072 15.6572C22.6552 15.6572 22.5112 15.6332 22.3752 15.5852C22.2412 15.5352 22.1332 15.4692 22.0512 15.3872L22.1562 15.2162C22.2262 15.2882 22.3192 15.3472 22.4352 15.3932C22.5512 15.4372 22.6752 15.4592 22.8072 15.4592C22.9792 15.4592 23.1122 15.4222 23.2062 15.3482C23.3002 15.2722 23.3472 15.1682 23.3472 15.0362C23.3472 14.9061 23.3002 14.8041 23.2062 14.7301C23.1122 14.6561 22.9702 14.6191 22.7802 14.6191H22.6302V14.4601L23.2122 13.7311H22.1382V13.5391H23.4882V13.6921L22.8942 14.4391ZM24.0356 15.6542C23.9916 15.6542 23.9536 15.6382 23.9216 15.6062C23.8916 15.5742 23.8766 15.5352 23.8766 15.4892C23.8766 15.4432 23.8916 15.4052 23.9216 15.3752C23.9536 15.3432 23.9916 15.3272 24.0356 15.3272C24.0796 15.3272 24.1176 15.3432 24.1496 15.3752C24.1816 15.4052 24.1976 15.4432 24.1976 15.4892C24.1976 15.5352 24.1816 15.5742 24.1496 15.6062C24.1176 15.6382 24.0796 15.6542 24.0356 15.6542ZM25.1633 13.5211C25.4413 13.5211 25.6543 13.6131 25.8023 13.7971C25.9503 13.9791 26.0243 14.2371 26.0243 14.5711C26.0243 14.8051 25.9843 15.0032 25.9043 15.1652C25.8243 15.3272 25.7123 15.4502 25.5683 15.5342C25.4243 15.6162 25.2563 15.6572 25.0643 15.6572C24.8563 15.6572 24.6903 15.6192 24.5663 15.5432L24.6533 15.3692C24.7533 15.4352 24.8893 15.4682 25.0613 15.4682C25.2933 15.4682 25.4753 15.3952 25.6073 15.2492C25.7393 15.1012 25.8053 14.8871 25.8053 14.6071C25.8053 14.5551 25.8023 14.4981 25.7963 14.4361C25.7443 14.5501 25.6613 14.6391 25.5473 14.7031C25.4333 14.7651 25.3023 14.7961 25.1543 14.7961C25.0163 14.7961 24.8933 14.7701 24.7853 14.7181C24.6793 14.6661 24.5963 14.5931 24.5363 14.4991C24.4763 14.4031 24.4463 14.2921 24.4463 14.1661C24.4463 14.0381 24.4773 13.9251 24.5393 13.8271C24.6013 13.7291 24.6863 13.6541 24.7943 13.6021C24.9043 13.5481 25.0273 13.5211 25.1633 13.5211ZM25.1873 14.6131C25.2933 14.6131 25.3863 14.5931 25.4663 14.5531C25.5483 14.5131 25.6123 14.4581 25.6583 14.3881C25.7043 14.3181 25.7273 14.2401 25.7273 14.1541C25.7273 14.0741 25.7053 14.0001 25.6613 13.9321C25.6193 13.8641 25.5563 13.8091 25.4723 13.7671C25.3883 13.7251 25.2883 13.7041 25.1723 13.7041C25.0203 13.7041 24.8963 13.7461 24.8003 13.8301C24.7063 13.9121 24.6593 14.0221 24.6593 14.1601C24.6593 14.2981 24.7063 14.4081 24.8003 14.4901C24.8963 14.5721 25.0253 14.6131 25.1873 14.6131ZM27.5405 14.5381C27.6725 14.5821 27.7735 14.6481 27.8435 14.7361C27.9155 14.8241 27.9515 14.9301 27.9515 15.0542C27.9515 15.1762 27.9185 15.2832 27.8525 15.3752C27.7865 15.4652 27.6915 15.5352 27.5675 15.5852C27.4455 15.6332 27.3015 15.6572 27.1355 15.6572C26.8835 15.6572 26.6855 15.6032 26.5415 15.4952C26.3975 15.3872 26.3255 15.2402 26.3255 15.0542C26.3255 14.9281 26.3595 14.8221 26.4275 14.7361C26.4975 14.6481 26.5985 14.5821 26.7305 14.5381C26.6225 14.4961 26.5405 14.4361 26.4845 14.3581C26.4285 14.2781 26.4005 14.1841 26.4005 14.0761C26.4005 13.9061 26.4665 13.7711 26.5985 13.6711C26.7325 13.5711 26.9115 13.5211 27.1355 13.5211C27.2835 13.5211 27.4125 13.5441 27.5225 13.5901C27.6345 13.6341 27.7215 13.6981 27.7835 13.7821C27.8455 13.8661 27.8765 13.9641 27.8765 14.0761C27.8765 14.1841 27.8475 14.2781 27.7895 14.3581C27.7315 14.4361 27.6485 14.4961 27.5405 14.5381ZM26.6165 14.0821C26.6165 14.1981 26.6625 14.2901 26.7545 14.3581C26.8465 14.4261 26.9735 14.4601 27.1355 14.4601C27.2975 14.4601 27.4245 14.4261 27.5165 14.3581C27.6105 14.2901 27.6575 14.1991 27.6575 14.0851C27.6575 13.9671 27.6095 13.8741 27.5135 13.8061C27.4195 13.7381 27.2935 13.7041 27.1355 13.7041C26.9755 13.7041 26.8485 13.7381 26.7545 13.8061C26.6625 13.8741 26.6165 13.9661 26.6165 14.0821ZM27.1355 15.4742C27.3215 15.4742 27.4665 15.4362 27.5705 15.3602C27.6765 15.2842 27.7295 15.1812 27.7295 15.0512C27.7295 14.9211 27.6765 14.8191 27.5705 14.7451C27.4665 14.6691 27.3215 14.6311 27.1355 14.6311C26.9515 14.6311 26.8065 14.6691 26.7005 14.7451C26.5965 14.8191 26.5445 14.9211 26.5445 15.0512C26.5445 15.1832 26.5965 15.2872 26.7005 15.3632C26.8045 15.4372 26.9495 15.4742 27.1355 15.4742Z" fill="#20201F"/>
<path d="M19.1722 77.8528H18.7522V78.4048H18.5362V77.8528H17.3512V77.6968L18.4642 76.3048H18.7042L17.6302 77.6608H18.5422V77.1748H18.7522V77.6608H19.1722V77.8528ZM19.5912 78.4198C19.5472 78.4198 19.5092 78.4038 19.4772 78.3718C19.4472 78.3398 19.4322 78.3008 19.4322 78.2548C19.4322 78.2088 19.4472 78.1708 19.4772 78.1408C19.5092 78.1088 19.5472 78.0928 19.5912 78.0928C19.6352 78.0928 19.6732 78.1088 19.7052 78.1408C19.7372 78.1708 19.7532 78.2088 19.7532 78.2548C19.7532 78.3008 19.7372 78.3398 19.7052 78.3718C19.6732 78.4038 19.6352 78.4198 19.5912 78.4198ZM20.6169 77.1658C20.9209 77.1658 21.1419 77.2208 21.2799 77.3308C21.4199 77.4388 21.4899 77.5908 21.4899 77.7868C21.4899 77.9088 21.4609 78.0178 21.4029 78.1138C21.3469 78.2098 21.2619 78.2858 21.1479 78.3418C21.0339 78.3958 20.8939 78.4228 20.7279 78.4228C20.5779 78.4228 20.4349 78.3988 20.2989 78.3508C20.1649 78.3008 20.0569 78.2348 19.9749 78.1528L20.0799 77.9818C20.1499 78.0538 20.2419 78.1128 20.3559 78.1588C20.4699 78.2028 20.5929 78.2248 20.7249 78.2248C20.8989 78.2248 21.0329 78.1858 21.1269 78.1078C21.2229 78.0298 21.2709 77.9258 21.2709 77.7958C21.2709 77.6518 21.2169 77.5428 21.1089 77.4688C21.0029 77.3948 20.8229 77.3578 20.5689 77.3578H20.1219L20.2299 76.3048H21.3789V76.4968H20.4189L20.3469 77.1658H20.6169ZM22.9672 77.3038C23.0992 77.3478 23.2002 77.4138 23.2702 77.5018C23.3422 77.5898 23.3782 77.6958 23.3782 77.8198C23.3782 77.9418 23.3452 78.0488 23.2792 78.1408C23.2132 78.2308 23.1182 78.3008 22.9942 78.3508C22.8722 78.3988 22.7282 78.4228 22.5622 78.4228C22.3102 78.4228 22.1122 78.3688 21.9682 78.2608C21.8242 78.1528 21.7522 78.0058 21.7522 77.8198C21.7522 77.6938 21.7862 77.5878 21.8542 77.5018C21.9242 77.4138 22.0252 77.3478 22.1572 77.3038C22.0492 77.2618 21.9672 77.2018 21.9112 77.1238C21.8552 77.0438 21.8272 76.9498 21.8272 76.8418C21.8272 76.6718 21.8932 76.5368 22.0252 76.4368C22.1592 76.3368 22.3382 76.2868 22.5622 76.2868C22.7102 76.2868 22.8392 76.3098 22.9492 76.3558C23.0612 76.3998 23.1482 76.4638 23.2102 76.5478C23.2722 76.6318 23.3032 76.7298 23.3032 76.8418C23.3032 76.9498 23.2742 77.0438 23.2162 77.1238C23.1582 77.2018 23.0752 77.2618 22.9672 77.3038ZM22.0432 76.8478C22.0432 76.9638 22.0892 77.0558 22.1812 77.1238C22.2732 77.1918 22.4002 77.2258 22.5622 77.2258C22.7242 77.2258 22.8512 77.1918 22.9432 77.1238C23.0372 77.0558 23.0842 76.9648 23.0842 76.8508C23.0842 76.7328 23.0362 76.6398 22.9402 76.5718C22.8462 76.5038 22.7202 76.4698 22.5622 76.4698C22.4022 76.4698 22.2752 76.5038 22.1812 76.5718C22.0892 76.6398 22.0432 76.7318 22.0432 76.8478ZM22.5622 78.2398C22.7482 78.2398 22.8932 78.2018 22.9972 78.1258C23.1032 78.0498 23.1562 77.9468 23.1562 77.8168C23.1562 77.6868 23.1032 77.5848 22.9972 77.5108C22.8932 77.4348 22.7482 77.3968 22.5622 77.3968C22.3782 77.3968 22.2332 77.4348 22.1272 77.5108C22.0232 77.5848 21.9712 77.6868 21.9712 77.8168C21.9712 77.9488 22.0232 78.0528 22.1272 78.1288C22.2312 78.2028 22.3762 78.2398 22.5622 78.2398Z" fill="black"/>
</g>
<defs>
<clipPath id="clip0_2561_22467">
<rect width="68.8333" height="93.8333" fill="white" transform="translate(4.74011 3.16675)"/>
</clipPath>
</defs>
</svg>
