<svg width="85" height="100" viewBox="0 0 85 100" fill="none" xmlns="http://www.w3.org/2000/svg">
<rect width="83.3333" height="99.9999" transform="translate(0.888672)" fill="white"/>
<g clip-path="url(#clip0_2561_22199)">
<path fill-rule="evenodd" clip-rule="evenodd" d="M5.5553 18.7755H46.2147V7.79638L77.5932 5.83325H78.8528V18.7755H79.4499V71.9685V88.3443V94.2334H35.8185V88.3443H5.5553V18.7755Z" fill="#94D0F5"/>
<path fill-rule="evenodd" clip-rule="evenodd" d="M5.5553 18.7755H46.2147V7.79638L77.5932 5.83325H78.8528V18.7755H79.4499V71.9685V88.3443V94.2334H35.8185V88.3443H5.5553V18.7755Z" fill="#FFF9D0"/>
<path d="M52.1886 21.3706H46.199V27.3594H52.1886V21.3706Z" fill="#20201F"/>
<path d="M8.05113 23.866H5.55524V88.3443H8.05113V23.866Z" fill="#20201F"/>
<path d="M79.4498 23.8735H76.9539V94.2332H79.4498V23.8735Z" fill="#20201F"/>
<path d="M79.4499 91.7378H56.2803V94.2334H79.4499V91.7378Z" fill="#20201F"/>
<path d="M46.2994 91.7378H35.8184V94.2334H46.2994V91.7378Z" fill="#20201F"/>
<path d="M38.3143 85.8489H35.8184V94.2333H38.3143V85.8489Z" fill="#20201F"/>
<path d="M38.3144 85.8489H5.57568V88.3442H38.3144V85.8489Z" fill="#20201F"/>
<path d="M14.8591 20.0735H5.55524V23.8664H14.8591V20.0735Z" fill="#20201F"/>
<path d="M52.1884 20.0732H35.8184V23.8661H52.1884V20.0732Z" fill="#20201F"/>
<path d="M79.4498 20.0732H65.164V23.8661H79.4498V20.0732Z" fill="#20201F"/>
<path d="M15.4572 18.7759H5.55524V20.0734H15.4572V18.7759Z" fill="#20201F"/>
<path d="M52.1884 18.7754H35.2203V20.073H52.1884V18.7754Z" fill="#20201F"/>
<path d="M79.4498 18.7754H65.164V20.073H79.4498V18.7754Z" fill="#20201F"/>
<path fill-rule="evenodd" clip-rule="evenodd" d="M46.2147 7.79638L77.6733 5.83325H79.4499V6.92232L78.8527 6.9596V18.7755H77.6551V7.03428L47.4123 8.9216V18.7755H46.2147V7.79638Z" fill="#20201F"/>
<path d="M46.9982 27.3596H46.1989V62.3934H46.9982V27.3596Z" fill="#20201F"/>
<path d="M47.4759 61.5947H37.5164V62.3932H47.4759V61.5947Z" fill="#20201F"/>
<path d="M38.3091 61.5947H37.5164V63.0408H38.3091V61.5947Z" fill="#20201F"/>
<path d="M76.954 61.5947H65.6899V62.3932H76.954V61.5947Z" fill="#20201F"/>
<path d="M65.6899 61.5947H57.0782V62.3932H65.6899V61.5947Z" fill="#20201F"/>
<path d="M57.0782 61.5947H55.4611V62.3932H57.0782V61.5947Z" fill="#20201F"/>
<path d="M57.0783 62.3933H56.2803V76.9109H57.0783V62.3933Z" fill="#20201F"/>
<path d="M79.4497 61.5947H79.4365V62.3932H79.4497V61.5947Z" fill="#20201F"/>
<path d="M38.3143 72.0239H37.5164V85.8492H38.3143V72.0239Z" fill="#20201F"/>
<path d="M57.0783 83.8977H56.2803V91.7379H57.0783V83.8977Z" fill="#20201F"/>
<path d="M35.2203 18.7754H15.4558V19.4174H35.2203V18.7754Z" fill="#20201F"/>
<path d="M35.8184 20.0696H14.8575V20.7115H35.8184V20.0696Z" fill="#20201F"/>
<path d="M35.8184 23.2205H14.8575V23.8624H35.8184V23.2205Z" fill="#20201F"/>
<path d="M57.1802 18.7751H52.1897V19.4172H57.1802V18.7751Z" fill="#20201F"/>
<path d="M57.1792 20.0691H52.1885V20.711H57.1792V20.0691Z" fill="#20201F"/>
<path d="M57.1792 23.2205H52.1885V23.8624H57.1792V23.2205Z" fill="#20201F"/>
<path d="M57.1793 18.7751H56.7082V23.8656H57.1793V18.7751Z" fill="#20201F"/>
<path fill-rule="evenodd" clip-rule="evenodd" d="M64.3018 20.3277C64.3018 20.1712 64.4288 20.0442 64.5852 20.0442C64.7417 20.0442 64.8687 20.1712 64.8687 20.3277V26.327C64.8687 26.4835 64.7417 26.6105 64.5852 26.6105C64.4288 26.6105 64.3018 26.4835 64.3018 26.327V20.3277Z" fill="#20201F"/>
<path fill-rule="evenodd" clip-rule="evenodd" d="M57.4219 20.2704C57.4219 20.1922 57.4854 20.1287 57.5636 20.1287C57.6418 20.1287 57.7053 20.1922 57.7053 20.2704C57.7053 21.9033 58.3807 23.3818 59.4719 24.4518C60.5639 25.5224 62.0734 26.185 63.7403 26.185C63.8185 26.185 63.882 26.2485 63.882 26.3268C63.882 26.405 63.8185 26.4685 63.7403 26.4685C61.997 26.4685 60.4175 25.7747 59.2738 24.6533C58.1298 23.5318 57.4219 21.982 57.4219 20.2704Z" fill="#20201F"/>
<path fill-rule="evenodd" clip-rule="evenodd" d="M37.9081 71.1931C38.0646 71.1931 38.1916 71.3201 38.1916 71.4766C38.1916 71.633 38.0646 71.76 37.9081 71.76H31.9087C31.7522 71.76 31.6252 71.633 31.6252 71.4766C31.6252 71.3201 31.7522 71.1931 31.9087 71.1931H37.9081Z" fill="#20201F"/>
<path fill-rule="evenodd" clip-rule="evenodd" d="M37.9651 63.4453C38.0433 63.4453 38.1068 63.5088 38.1068 63.587C38.1068 63.6653 38.0433 63.7288 37.9651 63.7288C36.3353 63.7288 34.8587 64.4873 33.7892 65.713C32.7152 66.944 32.0504 68.6463 32.0504 70.5275C32.0504 70.6058 31.9869 70.6693 31.9087 70.6693C31.8305 70.6693 31.767 70.6058 31.767 70.5275C31.767 68.5766 32.4588 66.8082 33.5766 65.5271C34.6987 64.241 36.2504 63.4453 37.9651 63.4453Z" fill="#20201F"/>
<path fill-rule="evenodd" clip-rule="evenodd" d="M48.3955 61.9359C48.3955 62.0924 48.2685 62.2194 48.112 62.2194C47.9555 62.2194 47.8286 62.0924 47.8286 61.9359V55.9365C47.8286 55.7801 47.9555 55.6531 48.112 55.6531C48.2685 55.6531 48.3955 55.7801 48.3955 55.9365V61.9359Z" fill="#20201F"/>
<path fill-rule="evenodd" clip-rule="evenodd" d="M55.0631 61.9928C55.0631 62.071 54.9996 62.1345 54.9214 62.1345C54.8431 62.1345 54.7796 62.071 54.7796 61.9928C54.7796 60.3595 54.1245 58.8805 53.0659 57.8103C52.0075 56.7402 50.5454 56.0781 48.931 56.0781C48.8528 56.0781 48.7893 56.0147 48.7893 55.9364C48.7893 55.8582 48.8528 55.7947 48.931 55.7947C50.6242 55.7947 52.1576 56.4889 53.2675 57.611C54.3767 58.7324 55.0631 60.2818 55.0631 61.9928Z" fill="#20201F"/>
<path fill-rule="evenodd" clip-rule="evenodd" d="M56.6977 77.7476C56.5412 77.7476 56.4142 77.6206 56.4142 77.4641C56.4142 77.3077 56.5412 77.1807 56.6977 77.1807H62.697C62.8535 77.1807 62.9805 77.3077 62.9805 77.4641C62.9805 77.6206 62.8535 77.7476 62.697 77.7476H56.6977Z" fill="#20201F"/>
<path fill-rule="evenodd" clip-rule="evenodd" d="M56.6406 83.538C56.5624 83.538 56.4989 83.4745 56.4989 83.3963C56.4989 83.3181 56.5624 83.2546 56.6406 83.2546C58.2782 83.2546 59.7597 82.6835 60.8304 81.7609C61.8959 80.8427 62.5553 79.5756 62.5553 78.1779C62.5553 78.0996 62.6188 78.0361 62.697 78.0361C62.7752 78.0361 62.8387 78.0996 62.8387 78.1779C62.8387 79.6615 62.1417 81.004 61.0152 81.9746C59.8945 82.9403 58.3475 83.538 56.6406 83.538Z" fill="#20201F"/>
<path fill-rule="evenodd" clip-rule="evenodd" d="M56.0869 93.8212C56.0869 93.9777 55.9599 94.1046 55.8034 94.1046C55.647 94.1046 55.52 93.9777 55.52 93.8212V87.8218C55.52 87.6653 55.647 87.5383 55.8034 87.5383C55.9599 87.5383 56.0869 87.6653 56.0869 87.8218V93.8212Z" fill="#20201F"/>
<path fill-rule="evenodd" clip-rule="evenodd" d="M46.9076 93.878C46.9076 93.9563 46.8441 94.0198 46.7659 94.0198C46.6876 94.0198 46.6241 93.9563 46.6241 93.878C46.6241 92.1592 47.5358 90.6056 49.0089 89.4833C50.4716 88.3693 52.4899 87.6799 54.7163 87.6799C54.7946 87.6799 54.8581 87.7434 54.8581 87.8217C54.8581 87.8999 54.7946 87.9634 54.7163 87.9634C52.5529 87.9634 50.5955 88.6304 49.1804 89.7081C47.7764 90.7776 46.9076 92.2524 46.9076 93.878Z" fill="#20201F"/>
<path fill-rule="evenodd" clip-rule="evenodd" d="M76.5349 38.5138V53.5729H70.5113V38.3367H76.5349V38.5138ZM75.8227 48.8597C75.8227 48.694 75.755 48.5429 75.6453 48.434C75.5361 48.3251 75.3856 48.2572 75.2204 48.2572H71.8188C71.6535 48.2572 71.503 48.3251 71.3932 48.434C71.2842 48.5429 71.2164 48.694 71.2164 48.8597V52.2613C71.2164 52.4266 71.2843 52.5772 71.3932 52.6868C71.5021 52.7958 71.653 52.8635 71.8188 52.8635H75.2204C75.3862 52.8635 75.537 52.7958 75.6456 52.6864C75.7548 52.5772 75.8227 52.4266 75.8227 52.2613V48.8597ZM75.5412 40.2655C75.5412 40.0362 75.4478 39.8278 75.2972 39.6769C75.1465 39.5262 74.9382 39.4328 74.7086 39.4328C74.4794 39.4328 74.2712 39.5262 74.1199 39.6773C73.9693 39.8281 73.8759 40.0363 73.8759 40.2655C73.8759 40.4951 73.9693 40.7035 74.1202 40.8538C74.2709 41.0048 74.4792 41.0982 74.7086 41.0982C74.9382 41.0982 75.1465 41.0048 75.2972 40.8541C75.4478 40.7035 75.5412 40.4951 75.5412 40.2655ZM73.3474 40.2655C73.3474 39.9869 73.2341 39.7343 73.0514 39.5516C72.8687 39.3689 72.616 39.2557 72.3375 39.2557C72.0589 39.2557 71.8063 39.3689 71.6236 39.5516C71.4409 39.7343 71.3277 39.9869 71.3277 40.2655C71.3277 40.544 71.4409 40.7967 71.6236 40.9794C71.8063 41.1621 72.0589 41.2753 72.3375 41.2753C72.616 41.2753 72.8687 41.1621 73.0514 40.9794C73.2341 40.7967 73.3474 40.544 73.3474 40.2655ZM72.8762 40.8042C73.0139 40.6666 73.0993 40.4758 73.0993 40.2655C73.0993 40.055 73.0139 39.8644 72.8762 39.7268C72.7386 39.5892 72.5478 39.5037 72.3375 39.5037C72.127 39.5037 71.9364 39.5892 71.7988 39.7268C71.6612 39.8644 71.5757 40.055 71.5757 40.2655C71.5757 40.4758 71.6612 40.6666 71.7988 40.8042C71.9364 40.9419 72.127 41.0273 72.3375 41.0273C72.5478 41.0273 72.7386 40.9419 72.8762 40.8042ZM75.7184 42.4313C75.7184 42.1527 75.6052 41.9001 75.4225 41.7174C75.2398 41.5347 74.9872 41.4215 74.7086 41.4215C74.4299 41.4215 74.1772 41.5346 73.9945 41.7173C73.8118 41.9 73.6987 42.1527 73.6987 42.4313C73.6987 42.71 73.812 42.9625 73.9947 43.1452C74.1773 43.3279 74.4299 43.4412 74.7086 43.4412C74.9871 43.4412 75.2398 43.3279 75.4225 43.1452C75.6052 42.9625 75.7184 42.7098 75.7184 42.4313ZM75.2473 42.9701C75.3849 42.8324 75.4704 42.6416 75.4704 42.4313C75.4704 42.2208 75.3849 42.0302 75.2473 41.8926C75.1097 41.755 74.919 41.6695 74.7086 41.6695C74.4981 41.6695 74.3073 41.7548 74.1697 41.8925C74.0321 42.0301 73.9467 42.2208 73.9467 42.4313C73.9467 42.6418 74.0322 42.8324 74.1698 42.9701C74.3075 43.1077 74.4981 43.1931 74.7086 43.1931C74.9189 43.1931 75.1097 43.1077 75.2473 42.9701ZM73.1702 42.4313C73.1702 42.202 73.0768 41.9937 72.9261 41.8427C72.7755 41.6921 72.5671 41.5987 72.3375 41.5987C72.1083 41.5987 71.9001 41.6921 71.7489 41.8431C71.5982 41.9939 71.5048 42.2021 71.5048 42.4313C71.5048 42.6609 71.5982 42.8693 71.7492 43.0196C71.8998 43.1706 72.1082 43.264 72.3375 43.264C72.5671 43.264 72.7755 43.1706 72.9261 43.0199C73.0768 42.8693 73.1702 42.6609 73.1702 42.4313ZM72.751 42.8448C72.8565 42.7392 72.9222 42.5927 72.9222 42.4313C72.9222 42.2695 72.8568 42.1232 72.7514 42.0179C72.6454 41.9123 72.499 41.8467 72.3375 41.8467C72.1757 41.8467 72.0294 41.912 71.9241 42.0175C71.8182 42.1232 71.7529 42.2695 71.7529 42.4313C71.7529 42.5927 71.8185 42.7392 71.9241 42.8448C72.0294 42.9506 72.1757 43.016 72.3375 43.016C72.499 43.016 72.6454 42.9503 72.751 42.8448ZM75.122 40.679C75.2276 40.5734 75.2932 40.427 75.2932 40.2655C75.2932 40.1037 75.2279 39.9574 75.1224 39.8521C75.0164 39.7465 74.87 39.6809 74.7086 39.6809C74.5467 39.6809 74.4004 39.7462 74.2951 39.8517C74.1893 39.9574 74.1239 40.1037 74.1239 40.2655C74.1239 40.427 74.1895 40.5734 74.2951 40.679C74.4004 40.7848 74.5467 40.8502 74.7086 40.8502C74.87 40.8502 75.0164 40.7845 75.122 40.679ZM75.4684 52.2613V48.8597C75.4684 48.7917 75.4403 48.7295 75.3954 48.6845C75.3509 48.6395 75.2887 48.6115 75.2204 48.6115H71.8188C71.7505 48.6115 71.6882 48.6395 71.6435 48.6843C71.5988 48.7295 71.5707 48.7917 71.5707 48.8597V52.2613C71.5707 52.3296 71.5985 52.3917 71.643 52.4362C71.6887 52.4811 71.751 52.5092 71.8188 52.5092H75.2204C75.2881 52.5092 75.3505 52.4811 75.3954 52.4362C75.4406 52.3917 75.4684 52.3296 75.4684 52.2613ZM70.8656 44.0001H76.1806V38.691H70.8656V44.0001ZM76.1806 44.3545H70.8656V53.2186H76.1806V44.3545Z" fill="#20201F"/>
<path fill-rule="evenodd" clip-rule="evenodd" d="M71.0704 87.8634C71.5365 88.1632 72.1346 88.3483 72.6605 88.3483C73.1781 88.3483 73.582 88.1707 73.8632 87.88V87.8792C73.9695 87.7691 74.0519 87.6384 74.1216 87.4999V88.0979C74.1216 88.4548 74.2707 88.6639 74.5101 88.7854C74.7279 88.8962 75.0161 88.9236 75.332 88.9236H75.4624V88.9203C75.7257 88.913 75.9661 88.8801 76.1533 88.7854C76.3926 88.6639 76.5409 88.4548 76.5409 88.0996V85.1671C76.5409 84.8104 76.3926 84.6015 76.1533 84.4807C75.9661 84.3868 75.7257 84.3529 75.4624 84.3458V84.3425H75.332C75.0161 84.3425 74.7279 84.3699 74.5101 84.4807C74.2707 84.6015 74.1216 84.8104 74.1216 85.1671V85.7662C74.0519 85.6278 73.9704 85.4975 73.8632 85.3871C73.582 85.0958 73.1781 84.9181 72.6605 84.9181C72.1047 84.9181 71.4686 85.1253 70.9916 85.4557C70.5514 85.7606 70.2424 86.1729 70.2424 86.6331C70.2424 87.1205 70.5889 87.5545 71.0704 87.8634ZM75.7209 86.5486H75.7218V86.549C75.7218 86.6542 75.6778 86.751 75.6082 86.8207V86.8216C75.5386 86.891 75.4427 86.9341 75.3362 86.9341C75.2297 86.9341 75.1346 86.891 75.065 86.8216H75.0637L75.0638 86.8207C74.9942 86.7506 74.9513 86.6542 74.9513 86.549C74.9513 86.4422 74.9942 86.3456 75.0637 86.2765C75.1333 86.207 75.2297 86.1635 75.3362 86.1635C75.4427 86.1635 75.5378 86.207 75.6082 86.2765C75.6778 86.3456 75.7209 86.4422 75.7209 86.5486ZM75.5237 86.5482V86.549C75.5237 86.6009 75.5031 86.6478 75.4703 86.6811H75.469C75.4355 86.7147 75.3878 86.7361 75.3362 86.7361C75.2837 86.7361 75.2355 86.7153 75.2029 86.6828L75.202 86.6814C75.1693 86.6478 75.1481 86.6009 75.1481 86.549C75.1481 86.4953 75.1693 86.4487 75.202 86.4152C75.2355 86.3825 75.2837 86.3618 75.3362 86.3618C75.3887 86.3618 75.4364 86.3825 75.469 86.4168C75.5039 86.4495 75.525 86.4969 75.525 86.5482H75.5237ZM74.3819 85.1671C74.3819 84.9265 74.4765 84.789 74.6263 84.7123C74.7816 84.6349 74.9971 84.6088 75.2406 84.6043H75.332C75.6125 84.6043 75.8639 84.6257 76.037 84.7123C76.1869 84.789 76.2803 84.9268 76.2803 85.1671V88.0996C76.2803 88.3397 76.1869 88.4767 76.037 88.5534C75.8639 88.6407 75.6125 88.6618 75.332 88.6618H75.2305C74.9921 88.6564 74.7782 88.6308 74.6263 88.5538C74.4752 88.4767 74.3819 88.3385 74.3819 88.0979V85.1671ZM71.139 85.669C71.5744 85.3671 72.1545 85.1783 72.6605 85.1783C73.1027 85.1783 73.4428 85.326 73.6763 85.5671C73.9318 85.8309 74.0639 86.2107 74.0639 86.6331C74.0639 87.0561 73.9318 87.4356 73.6763 87.7C73.4428 87.9405 73.1027 88.0879 72.6605 88.0879C72.1826 88.0879 71.6367 87.9189 71.2101 87.6449C70.799 87.381 70.5029 87.0216 70.5029 86.6331C70.5029 86.2678 70.7662 85.9284 71.139 85.669Z" fill="#20201F"/>
<path fill-rule="evenodd" clip-rule="evenodd" d="M62.9601 91.4793L59.7118 91.4803C58.6254 91.4803 58.7534 89.2316 58.7646 89.0815C58.7646 88.5609 58.9769 88.0887 59.319 87.7469C59.6603 87.4058 60.1334 87.1943 60.6539 87.1943H62.0323C62.5538 87.1943 63.0263 87.4054 63.3686 87.7469C63.7096 88.0887 63.9212 88.5618 63.9235 89.0824C63.9304 89.235 64.0423 91.4803 62.9601 91.4793ZM61.3425 89.2889V89.2884C61.4568 89.2873 61.5622 89.2424 61.6375 89.1672C61.7115 89.0909 61.7571 88.9867 61.7571 88.873C61.7571 88.7582 61.7112 88.6539 61.6359 88.5789C61.5608 88.5037 61.4568 88.4576 61.3421 88.4576C61.2282 88.4576 61.124 88.5037 61.0489 88.5789H61.0475V88.5798C60.9723 88.6547 60.9254 88.7582 60.9254 88.873C60.9254 88.9867 60.9723 89.0923 61.0475 89.1672H61.0479C61.123 89.2424 61.2282 89.2896 61.3421 89.2896L61.3425 89.2889ZM61.3432 89.077C61.3975 89.077 61.4487 89.0546 61.4853 89.017C61.521 88.9813 61.5439 88.93 61.5439 88.873C61.5439 88.8163 61.522 88.7649 61.4863 88.7282C61.4494 88.6929 61.3994 88.6696 61.3421 88.6702C61.2849 88.6702 61.2354 88.6924 61.1987 88.7282L61.1978 88.729C61.1614 88.7649 61.1392 88.8163 61.1392 88.873C61.1392 88.929 61.1628 88.9803 61.1981 89.017L61.199 89.0174C61.2348 89.0534 61.286 89.0751 61.3413 89.0751L61.3432 89.0747V89.077ZM61.3425 90.6878C61.8662 90.6878 62.3416 90.5317 62.6873 90.2813C63.0464 90.0193 63.2697 89.6534 63.27 89.2479C63.27 88.8408 63.0464 88.475 62.6873 88.2125C62.3403 87.9607 61.8647 87.8061 61.3408 87.8061H61.3386C60.8161 87.8073 60.3418 87.9631 59.9951 88.2141C59.6375 88.4759 59.4147 88.8408 59.4144 89.2456L59.4147 89.2479C59.4147 89.6544 59.6375 90.0182 59.9979 90.2813C60.3428 90.5321 60.818 90.6878 61.3413 90.6873L61.3425 90.6878ZM61.3425 90.3948C61.8015 90.3939 62.2162 90.2593 62.5161 90.0429C62.7991 89.8359 62.9753 89.554 62.9753 89.2479C62.9753 88.9398 62.7991 88.6579 62.5138 88.4501C62.2155 88.2345 61.8015 88.1003 61.3408 88.1003H61.34L61.3386 88.0994C60.8792 88.1003 60.4662 88.2345 60.1679 88.4514C59.8855 88.6574 59.7095 88.9398 59.7086 89.2456L59.7095 89.2479C59.7089 89.5546 59.8852 89.8368 60.1689 90.0429C60.4673 90.2584 60.8815 90.3939 61.3408 90.3935H61.3425V90.3948ZM62.9591 91.1861C63.7656 91.1861 63.6283 89.0985 63.6283 89.0931L63.627 89.0824C63.627 88.6424 63.4494 88.2444 63.1618 87.955C62.8717 87.6666 62.473 87.4886 62.0323 87.4886H60.6553C60.2131 87.4886 59.8137 87.6657 59.5248 87.955C59.2364 88.243 59.0588 88.6424 59.058 89.0824L59.0575 89.0927C59.0575 89.0979 58.9096 91.1861 59.7126 91.1861H62.9591Z" fill="#20201F"/>
<path fill-rule="evenodd" clip-rule="evenodd" d="M76.14 80.1315V63.2001H69.2136V80.1315H76.14ZM72.0036 76.8323C72.0036 76.6463 72.079 76.4779 72.2007 76.3562C72.3231 76.2344 72.4913 76.159 72.6768 76.159C72.8623 76.159 73.0305 76.2344 73.1523 76.3562C73.2746 76.4785 73.35 76.6467 73.35 76.8323C73.35 77.0178 73.2746 77.186 73.1529 77.3079C73.0312 77.4301 72.8627 77.5055 72.6768 77.5055C72.4908 77.5055 72.3224 77.4301 72.2007 77.3084C72.079 77.1867 72.0036 77.0182 72.0036 76.8323ZM72.3909 76.5464C72.4638 76.4736 72.5651 76.4283 72.6768 76.4283C72.7885 76.4283 72.8898 76.4736 72.9627 76.5464C73.0355 76.6193 73.0807 76.7205 73.0807 76.8323C73.0807 76.944 73.0355 77.0453 72.9625 77.118C72.8894 77.191 72.7883 77.2362 72.6768 77.2362C72.5653 77.2362 72.4642 77.191 72.3911 77.118C72.3181 77.0449 72.2728 76.9438 72.2728 76.8323C72.2728 76.7208 72.3181 76.6197 72.3909 76.5464ZM69.4117 78.8536L69.681 66.9015C69.681 65.1064 70.8817 63.6365 72.6768 63.6365C74.4719 63.6365 75.6725 65.1064 75.6725 66.9015L75.9418 78.8536C75.9418 79.0852 75.847 79.2958 75.6947 79.448C75.5418 79.6003 75.3313 79.6951 75.1003 79.6951H70.2533C70.0225 79.6951 69.8122 79.6004 69.6595 79.448C69.5064 79.2947 69.4117 79.0843 69.4117 78.8536ZM70.0177 66.9015C70.0177 65.2904 71.0656 63.9731 72.6768 63.9731C74.2879 63.9731 75.3359 65.2904 75.3359 66.9015L75.6052 78.8536C75.6052 78.9921 75.5482 79.1184 75.4567 79.2107C75.3656 79.3018 75.2394 79.3585 75.1003 79.3585H70.2533C70.1142 79.3585 69.988 79.3018 69.8962 79.21C69.8051 79.1188 69.7484 78.9927 69.7484 78.8536L70.0177 66.9015ZM76.4697 63.1646V80.167C76.4697 80.2516 76.4362 80.3287 76.383 80.3846C76.3297 80.4409 76.2554 80.4756 76.1739 80.4756H69.1797C69.0982 80.4756 69.0239 80.4409 68.9705 80.3853C68.9171 80.3294 68.8839 80.252 68.8839 80.167V63.1646C68.8839 63.0796 68.9171 63.0022 68.9705 62.9463C69.0245 62.891 69.0986 62.856 69.1797 62.856H76.1739C76.255 62.856 76.3289 62.8908 76.3825 62.9463C76.4364 63.003 76.4697 63.08 76.4697 63.1646Z" fill="#20201F"/>
<path d="M24.9278 30H24.5734V46.8491H24.9278V30Z" fill="#20201F"/>
<path d="M29.4704 33.7939V34.0129H27.7901V33.8384L28.786 32.8631C28.9115 32.7399 28.9959 32.6338 29.0392 32.5448C29.0848 32.4536 29.1077 32.3623 29.1077 32.2711C29.1077 32.1296 29.0586 32.0201 28.9605 31.9426C28.8647 31.8627 28.7267 31.8228 28.5464 31.8228C28.2658 31.8228 28.0479 31.9118 27.8928 32.0897L27.7183 31.9391C27.8118 31.8296 27.9304 31.7452 28.0742 31.6859C28.2202 31.6266 28.3845 31.5969 28.567 31.5969C28.8111 31.5969 29.0039 31.6551 29.1453 31.7714C29.289 31.8855 29.3609 32.0429 29.3609 32.2437C29.3609 32.3669 29.3335 32.4855 29.2788 32.5996C29.224 32.7137 29.1202 32.8449 28.9674 32.9931L28.1529 33.7939H29.4704ZM30.4435 31.6174V34.0129H30.1971V31.8365H29.6325V31.6174H30.4435ZM31.2009 34.0301C31.1507 34.0301 31.1074 34.0118 31.0709 33.9753C31.0367 33.9388 31.0196 33.8943 31.0196 33.8418C31.0196 33.7894 31.0367 33.746 31.0709 33.7118C31.1074 33.6753 31.1507 33.657 31.2009 33.657C31.2511 33.657 31.2945 33.6753 31.331 33.7118C31.3675 33.746 31.3857 33.7894 31.3857 33.8418C31.3857 33.8943 31.3675 33.9388 31.331 33.9753C31.2945 34.0118 31.2511 34.0301 31.2009 34.0301ZM33.4105 33.7939V34.0129H31.7303V33.8384L32.7261 32.8631C32.8516 32.7399 32.936 32.6338 32.9793 32.5448C33.025 32.4536 33.0478 32.3623 33.0478 32.2711C33.0478 32.1296 32.9987 32.0201 32.9006 31.9426C32.8048 31.8627 32.6668 31.8228 32.4866 31.8228C32.2059 31.8228 31.9881 31.9118 31.8329 32.0897L31.6584 31.9391C31.7519 31.8296 31.8706 31.7452 32.0143 31.6859C32.1603 31.6266 32.3246 31.5969 32.5071 31.5969C32.7512 31.5969 32.944 31.6551 33.0854 31.7714C33.2292 31.8855 33.301 32.0429 33.301 32.2437C33.301 32.3669 33.2737 32.4855 33.2189 32.5996C33.1641 32.7137 33.0603 32.8449 32.9075 32.9931L32.093 33.7939H33.4105ZM35.3555 33.7939V34.0129H33.6753V33.8384L34.6711 32.8631C34.7966 32.7399 34.881 32.6338 34.9243 32.5448C34.97 32.4536 34.9928 32.3623 34.9928 32.2711C34.9928 32.1296 34.9437 32.0201 34.8456 31.9426C34.7498 31.8627 34.6118 31.8228 34.4316 31.8228C34.1509 31.8228 33.9331 31.9118 33.7779 32.0897L33.6034 31.9391C33.6969 31.8296 33.8156 31.7452 33.9593 31.6859C34.1053 31.6266 34.2696 31.5969 34.4521 31.5969C34.6962 31.5969 34.889 31.6551 35.0304 31.7714C35.1742 31.8855 35.246 32.0429 35.246 32.2437C35.246 32.3669 35.2187 32.4855 35.1639 32.5996C35.1091 32.7137 35.0053 32.8449 34.8525 32.9931L34.038 33.7939H35.3555Z" fill="#20201F"/>
<path d="M29.2087 38.2644H28.7296V38.894H28.4832V38.2644H27.1315V38.0864L28.4011 36.4986H28.6748L27.4497 38.0454H28.49V37.491H28.7296V38.0454H29.2087V38.2644ZM31.0574 38.675V38.894H29.3771V38.7195L30.373 37.7442C30.4985 37.621 30.5829 37.5149 30.6262 37.4259C30.6719 37.3347 30.6947 37.2434 30.6947 37.1522C30.6947 37.0107 30.6456 36.9012 30.5475 36.8237C30.4517 36.7438 30.3137 36.7039 30.1334 36.7039C29.8528 36.7039 29.6349 36.7929 29.4798 36.9708L29.3053 36.8202C29.3988 36.7107 29.5175 36.6263 29.6612 36.567C29.8072 36.5077 29.9715 36.478 30.154 36.478C30.3981 36.478 30.5909 36.5362 30.7323 36.6525C30.876 36.7666 30.9479 36.924 30.9479 37.1248C30.9479 37.248 30.9205 37.3666 30.8658 37.4807C30.811 37.5948 30.7072 37.726 30.5544 37.8742L29.7399 38.675H31.0574ZM31.5848 38.9112C31.5347 38.9112 31.4913 38.8929 31.4548 38.8564C31.4206 38.8199 31.4035 38.7754 31.4035 38.7229C31.4035 38.6705 31.4206 38.6271 31.4548 38.5929C31.4913 38.5564 31.5347 38.5381 31.5848 38.5381C31.635 38.5381 31.6784 38.5564 31.7149 38.5929C31.7514 38.6271 31.7696 38.6705 31.7696 38.7229C31.7696 38.7754 31.7514 38.8199 31.7149 38.8564C31.6784 38.8929 31.635 38.9112 31.5848 38.9112ZM32.7549 37.4807C33.1017 37.4807 33.3538 37.5434 33.5112 37.6689C33.6709 37.7921 33.7508 37.9655 33.7508 38.1891C33.7508 38.3283 33.7177 38.4526 33.6515 38.5621C33.5876 38.6716 33.4907 38.7583 33.3606 38.8222C33.2306 38.8838 33.0709 38.9146 32.8815 38.9146C32.7104 38.9146 32.5473 38.8872 32.3922 38.8324C32.2393 38.7754 32.1161 38.7001 32.0226 38.6066L32.1424 38.4115C32.2222 38.4937 32.3272 38.561 32.4572 38.6134C32.5872 38.6636 32.7275 38.6887 32.8781 38.6887C33.0766 38.6887 33.2295 38.6442 33.3367 38.5553C33.4462 38.4663 33.5009 38.3476 33.5009 38.1994C33.5009 38.0351 33.4393 37.9108 33.3162 37.8263C33.1952 37.7419 32.9899 37.6997 32.7002 37.6997H32.1903L32.3135 36.4986H33.6241V36.7176H32.5291L32.4469 37.4807H32.7549ZM36.0997 38.2644H35.6206V38.894H35.3742V38.2644H34.0225V38.0864L35.2921 36.4986H35.5659L34.3408 38.0454H35.3811V37.491H35.6206V38.0454H36.0997V38.2644Z" fill="#20201F"/>
<path d="M29.4191 43.1452H28.94V43.7749H28.6936V43.1452H27.3418V42.9673L28.6115 41.3794H28.8852L27.6601 42.9262H28.7004V42.3718H28.94V42.9262H29.4191V43.1452ZM30.4097 42.406C30.6607 42.4197 30.8512 42.4882 30.9812 42.6114C31.1135 42.7323 31.1797 42.8909 31.1797 43.0871C31.1797 43.2239 31.1466 43.346 31.0805 43.4532C31.0143 43.5582 30.9162 43.6414 30.7862 43.703C30.6561 43.7646 30.4976 43.7954 30.3105 43.7954C30.1371 43.7954 29.9728 43.7681 29.8177 43.7133C29.6648 43.6563 29.5416 43.581 29.4481 43.4874L29.5679 43.2924C29.6477 43.3745 29.7538 43.4418 29.8861 43.4943C30.0185 43.5445 30.1599 43.5696 30.3105 43.5696C30.5067 43.5696 30.6584 43.5274 30.7656 43.443C30.8729 43.3563 30.9265 43.2376 30.9265 43.0871C30.9265 42.9388 30.8729 42.8224 30.7656 42.738C30.6584 42.6536 30.4964 42.6114 30.2797 42.6114H30.1086V42.43L30.7725 41.5984H29.5474V41.3794H31.0873V41.5539L30.4097 42.406ZM31.7117 43.792C31.6615 43.792 31.6182 43.7738 31.5816 43.7373C31.5474 43.7008 31.5303 43.6563 31.5303 43.6038C31.5303 43.5513 31.5474 43.508 31.5816 43.4738C31.6182 43.4373 31.6615 43.419 31.7117 43.419C31.7619 43.419 31.8052 43.4373 31.8417 43.4738C31.8782 43.508 31.8965 43.5513 31.8965 43.6038C31.8965 43.6563 31.8782 43.7008 31.8417 43.7373C31.8052 43.7738 31.7619 43.792 31.7117 43.792ZM32.8818 42.3616C33.2285 42.3616 33.4806 42.4243 33.6381 42.5498C33.7978 42.673 33.8776 42.8464 33.8776 43.0699C33.8776 43.2091 33.8445 43.3334 33.7784 43.443C33.7145 43.5525 33.6175 43.6392 33.4875 43.703C33.3574 43.7646 33.1977 43.7954 33.0084 43.7954C32.8373 43.7954 32.6742 43.7681 32.519 43.7133C32.3662 43.6563 32.243 43.581 32.1494 43.4874L32.2692 43.2924C32.3491 43.3745 32.454 43.4418 32.584 43.4943C32.7141 43.5445 32.8544 43.5696 33.005 43.5696C33.2034 43.5696 33.3563 43.5251 33.4635 43.4361C33.573 43.3471 33.6278 43.2285 33.6278 43.0802C33.6278 42.9159 33.5662 42.7916 33.443 42.7072C33.3221 42.6228 33.1167 42.5806 32.827 42.5806H32.3171L32.4403 41.3794H33.751V41.5984H32.6559L32.5738 42.3616H32.8818ZM35.8095 43.5559V43.7749H34.1292V43.6004L35.1251 42.6251C35.2505 42.5019 35.3349 42.3958 35.3783 42.3068C35.4239 42.2156 35.4467 42.1243 35.4467 42.033C35.4467 41.8916 35.3977 41.7821 35.2996 41.7045C35.2038 41.6247 35.0657 41.5847 34.8855 41.5847C34.6049 41.5847 34.387 41.6737 34.2319 41.8517L34.0573 41.7011C34.1509 41.5916 34.2695 41.5072 34.4132 41.4479C34.5593 41.3885 34.7235 41.3589 34.906 41.3589C35.1501 41.3589 35.3429 41.4171 35.4844 41.5334C35.6281 41.6475 35.7 41.8049 35.7 42.0057C35.7 42.1289 35.6726 42.2475 35.6178 42.3616C35.5631 42.4756 35.4593 42.6068 35.3064 42.7551L34.492 43.5559H35.8095Z" fill="#20201F"/>
<path d="M21.8331 34.9594V41.6667H20.2809V36.205H18.9394V34.9594H21.8331Z" fill="#20201F"/>
<path d="M14.7821 76.0159H13.8376V77.4189H13.3072V75.5778H14.7821V76.0159ZM15.8506 77.4463C15.6566 77.4463 15.4821 77.4064 15.327 77.3265C15.1741 77.2444 15.0543 77.1315 14.9677 76.9878C14.881 76.844 14.8376 76.6809 14.8376 76.4984C14.8376 76.3159 14.881 76.1528 14.9677 76.009C15.0543 75.8653 15.1741 75.7535 15.327 75.6737C15.4821 75.5915 15.6566 75.5505 15.8506 75.5505C16.0445 75.5505 16.2179 75.5915 16.3707 75.6737C16.5236 75.7535 16.6434 75.8653 16.73 76.009C16.8167 76.1528 16.8601 76.3159 16.8601 76.4984C16.8601 76.6809 16.8167 76.844 16.73 76.9878C16.6434 77.1315 16.5236 77.2444 16.3707 77.3265C16.2179 77.4064 16.0445 77.4463 15.8506 77.4463ZM15.8506 77.0083C15.9874 77.0083 16.0992 76.9627 16.1859 76.8714C16.2749 76.7779 16.3194 76.6535 16.3194 76.4984C16.3194 76.3433 16.2749 76.2201 16.1859 76.1288C16.0992 76.0353 15.9874 75.9885 15.8506 75.9885C15.7137 75.9885 15.6007 76.0353 15.5118 76.1288C15.4228 76.2201 15.3783 76.3433 15.3783 76.4984C15.3783 76.6535 15.4228 76.7779 15.5118 76.8714C15.6007 76.9627 15.7137 77.0083 15.8506 77.0083ZM18.1033 77.4463C17.9071 77.4463 17.7303 77.4064 17.5729 77.3265C17.4178 77.2444 17.2957 77.1315 17.2067 76.9878C17.12 76.844 17.0767 76.6809 17.0767 76.4984C17.0767 76.3159 17.12 76.1528 17.2067 76.009C17.2957 75.8653 17.4178 75.7535 17.5729 75.6737C17.7303 75.5915 17.9071 75.5505 18.1033 75.5505C18.2973 75.5505 18.4661 75.5915 18.6098 75.6737C18.7558 75.7535 18.8619 75.8687 18.9281 76.0193L18.514 76.2417C18.4182 76.0729 18.2802 75.9885 18.0999 75.9885C17.9608 75.9885 17.8455 76.0341 17.7543 76.1254C17.663 76.2166 17.6174 76.341 17.6174 76.4984C17.6174 76.6558 17.663 76.7801 17.7543 76.8714C17.8455 76.9627 17.9608 77.0083 18.0999 77.0083C18.2824 77.0083 18.4205 76.9239 18.514 76.7551L18.9281 76.9809C18.8619 77.1269 18.7558 77.241 18.6098 77.3231C18.4661 77.4053 18.2973 77.4463 18.1033 77.4463ZM20.7926 76.0159H20.1698V77.4189H19.6393V76.0159H19.0165V75.5778H20.7926V76.0159ZM21.0772 75.5778H21.6076V76.6729L22.5042 75.5778H22.9936V77.4189H22.4631V76.3239L21.57 77.4189H21.0772V75.5778ZM23.5068 75.5778H24.0372V76.2965H24.838V75.5778H25.3718V77.4189H24.838V76.7311H24.0372V77.4189H23.5068V75.5778ZM26.5981 75.5505C26.8833 75.5505 27.1023 75.6189 27.2551 75.7558C27.408 75.8904 27.4844 76.0946 27.4844 76.3684V77.4189H26.9848V77.1897C26.8844 77.3608 26.6973 77.4463 26.4236 77.4463C26.2821 77.4463 26.1589 77.4224 26.054 77.3745C25.9513 77.3265 25.8726 77.2604 25.8178 77.176C25.7631 77.0916 25.7357 76.9957 25.7357 76.8885C25.7357 76.7174 25.7996 76.5828 25.9273 76.4847C26.0574 76.3866 26.257 76.3376 26.5262 76.3376H26.9506C26.9506 76.2212 26.9152 76.1322 26.8445 76.0706C26.7738 76.0067 26.6677 75.9748 26.5262 75.9748C26.4281 75.9748 26.3312 75.9908 26.2353 76.0227C26.1418 76.0524 26.062 76.0934 25.9958 76.1459L25.8042 75.7729C25.9045 75.7022 26.0243 75.6474 26.1635 75.6086C26.3049 75.5699 26.4498 75.5505 26.5981 75.5505ZM26.557 77.087C26.6483 77.087 26.7293 77.0665 26.8 77.0254C26.8707 76.9821 26.9209 76.9193 26.9506 76.8372V76.649H26.5844C26.3654 76.649 26.2559 76.7208 26.2559 76.8646C26.2559 76.933 26.2821 76.9878 26.3346 77.0288C26.3893 77.0676 26.4635 77.087 26.557 77.087ZM29.5839 75.5778V77.4189H29.1083V76.8919H28.7147L28.3657 77.4189H27.7976L28.2185 76.8167C28.0908 76.7665 27.9927 76.6946 27.9242 76.6011C27.8581 76.5052 27.825 76.39 27.825 76.2554C27.825 76.0387 27.9025 75.8721 28.0577 75.7558C28.2151 75.6372 28.4307 75.5778 28.7045 75.5778H29.5839ZM28.7147 76.0124C28.6007 76.0124 28.514 76.033 28.4546 76.074C28.3976 76.1151 28.3691 76.1813 28.3691 76.2725C28.3691 76.3638 28.3965 76.4311 28.4512 76.4744C28.5083 76.5155 28.5938 76.536 28.7079 76.536H29.1083V76.0124H28.7147Z" fill="#20201F"/>
<path d="M19.1914 81.8481V82.2998H17.3811V81.9405L18.305 81.0678C18.4031 80.9743 18.4693 80.8944 18.5035 80.8283C18.5377 80.7598 18.5548 80.6925 18.5548 80.6264C18.5548 80.5306 18.5218 80.4576 18.4556 80.4074C18.3917 80.3549 18.297 80.3287 18.1716 80.3287C18.0666 80.3287 17.9719 80.3492 17.8875 80.3903C17.8031 80.429 17.7324 80.4884 17.6754 80.5682L17.2715 80.3081C17.3651 80.169 17.494 80.0606 17.6583 79.983C17.8225 79.9032 18.0107 79.8632 18.2229 79.8632C18.4009 79.8632 18.556 79.8929 18.6883 79.9522C18.8229 80.0093 18.9267 80.0914 18.9997 80.1986C19.075 80.3036 19.1127 80.4279 19.1127 80.5716C19.1127 80.7017 19.0853 80.8237 19.0305 80.9378C18.9758 81.0519 18.8697 81.1819 18.7123 81.3279L18.1613 81.8481H19.1914ZM20.3441 79.9043V82.2998H19.7897V80.3492H19.3106V79.9043H20.3441ZM21.0751 82.3272C20.9815 82.3272 20.9028 82.2952 20.8389 82.2314C20.7751 82.1675 20.7431 82.0876 20.7431 81.9918C20.7431 81.8937 20.7751 81.815 20.8389 81.7557C20.9028 81.6941 20.9815 81.6633 21.0751 81.6633C21.1686 81.6633 21.2473 81.6941 21.3112 81.7557C21.3751 81.815 21.407 81.8937 21.407 81.9918C21.407 82.0876 21.3751 82.1675 21.3112 82.2314C21.2473 82.2952 21.1686 82.3272 21.0751 82.3272ZM23.4791 81.8481V82.2998H21.6687V81.9405L22.5927 81.0678C22.6908 80.9743 22.757 80.8944 22.7912 80.8283C22.8254 80.7598 22.8425 80.6925 22.8425 80.6264C22.8425 80.5306 22.8095 80.4576 22.7433 80.4074C22.6794 80.3549 22.5847 80.3287 22.4593 80.3287C22.3543 80.3287 22.2596 80.3492 22.1752 80.3903C22.0908 80.429 22.0201 80.4884 21.9631 80.5682L21.5592 80.3081C21.6528 80.169 21.7817 80.0606 21.9459 79.983C22.1102 79.9032 22.2984 79.8632 22.5106 79.8632C22.6885 79.8632 22.8437 79.8929 22.976 79.9522C23.1106 80.0093 23.2144 80.0914 23.2874 80.1986C23.3627 80.3036 23.4003 80.4279 23.4003 80.5716C23.4003 80.7017 23.373 80.8237 23.3182 80.9378C23.2635 81.0519 23.1574 81.1819 23 81.3279L22.449 81.8481H23.4791ZM25.4976 81.8481V82.2998H23.6873V81.9405L24.6112 81.0678C24.7093 80.9743 24.7755 80.8944 24.8097 80.8283C24.8439 80.7598 24.8611 80.6925 24.8611 80.6264C24.8611 80.5306 24.828 80.4576 24.7618 80.4074C24.6979 80.3549 24.6033 80.3287 24.4778 80.3287C24.3728 80.3287 24.2782 80.3492 24.1937 80.3903C24.1093 80.429 24.0386 80.4884 23.9816 80.5682L23.5778 80.3081C23.6713 80.169 23.8002 80.0606 23.9645 79.983C24.1287 79.9032 24.3169 79.8632 24.5291 79.8632C24.7071 79.8632 24.8622 79.8929 24.9945 79.9522C25.1291 80.0093 25.2329 80.0914 25.3059 80.1986C25.3812 80.3036 25.4189 80.4279 25.4189 80.5716C25.4189 80.7017 25.3915 80.8237 25.3367 80.9378C25.282 81.0519 25.1759 81.1819 25.0185 81.3279L24.4675 81.8481H25.4976Z" fill="#20201F"/>
<path d="M55.5607 39.6505H55.2835V40.3486H54.7496V38.5075H55.2835V39.2228H55.571L56.0706 38.5075H56.6387L55.9953 39.3904L56.6831 40.3486H56.0535L55.5607 39.6505ZM58.6862 38.5075L57.8546 40.4616C57.7702 40.6737 57.6653 40.8232 57.5398 40.9099C57.4166 40.9966 57.2672 41.0399 57.0915 41.0399C56.9957 41.0399 56.901 41.0251 56.8075 40.9954C56.7139 40.9658 56.6375 40.9247 56.5782 40.8722L56.7732 40.4924C56.8143 40.5289 56.8611 40.5574 56.9136 40.5779C56.9683 40.5984 57.0219 40.6087 57.0744 40.6087C57.1474 40.6087 57.2067 40.5905 57.2523 40.554C57.298 40.5197 57.339 40.4616 57.3755 40.3794L57.3824 40.3623L56.585 38.5075H57.136L57.6527 39.7566L58.1729 38.5075H58.6862ZM59.9968 40.3486L59.593 39.784L59.1755 40.3486H58.5938L59.3021 39.4212L58.6177 38.5075H59.2166L59.6067 39.0448L60.0071 38.5075H60.5752L59.8908 39.4075L60.6026 40.3486H59.9968ZM60.8654 38.5075H61.3958V39.2262H62.1966V38.5075H62.7304V40.3486H62.1966V39.6608H61.3958V40.3486H60.8654V38.5075ZM64.8773 38.5075V40.3486H64.4016V39.8216H64.008L63.659 40.3486H63.0909L63.5118 39.7463C63.3841 39.6961 63.286 39.6243 63.2175 39.5307C63.1514 39.4349 63.1183 39.3197 63.1183 39.1851C63.1183 38.9684 63.1958 38.8018 63.351 38.6855C63.5084 38.5668 63.724 38.5075 63.9978 38.5075H64.8773ZM64.008 38.9421C63.894 38.9421 63.8073 38.9627 63.7479 39.0037C63.6909 39.0448 63.6624 39.111 63.6624 39.2022C63.6624 39.2935 63.6898 39.3608 63.7445 39.4041C63.8016 39.4452 63.8871 39.4657 64.0012 39.4657H64.4016V38.9421H64.008Z" fill="#20201F"/>
<path d="M56.5052 42.8338V45.2292H55.9508V43.2786H55.4717V42.8338H56.5052ZM57.948 45.2703C57.7495 45.2703 57.5727 45.2213 57.4175 45.1232C57.2624 45.0251 57.1403 44.8836 57.0514 44.6988C56.9647 44.5117 56.9213 44.2893 56.9213 44.0315C56.9213 43.7737 56.9647 43.5524 57.0514 43.3676C57.1403 43.1805 57.2624 43.0379 57.4175 42.9398C57.5727 42.8417 57.7495 42.7927 57.948 42.7927C58.1465 42.7927 58.3233 42.8417 58.4784 42.9398C58.6335 43.0379 58.7545 43.1805 58.8411 43.3676C58.9301 43.5524 58.9746 43.7737 58.9746 44.0315C58.9746 44.2893 58.9301 44.5117 58.8411 44.6988C58.7545 44.8836 58.6335 45.0251 58.4784 45.1232C58.3233 45.2213 58.1465 45.2703 57.948 45.2703ZM57.948 44.8015C58.094 44.8015 58.2081 44.7387 58.2902 44.6133C58.3746 44.4878 58.4168 44.2939 58.4168 44.0315C58.4168 43.7691 58.3746 43.5752 58.2902 43.4497C58.2081 43.3243 58.094 43.2615 57.948 43.2615C57.8042 43.2615 57.6902 43.3243 57.6058 43.4497C57.5236 43.5752 57.4826 43.7691 57.4826 44.0315C57.4826 44.2939 57.5236 44.4878 57.6058 44.6133C57.6902 44.7387 57.8042 44.8015 57.948 44.8015ZM59.5154 45.2566C59.4218 45.2566 59.3431 45.2247 59.2792 45.1608C59.2154 45.0969 59.1834 45.0171 59.1834 44.9213C59.1834 44.8232 59.2154 44.7444 59.2792 44.6851C59.3431 44.6235 59.4218 44.5927 59.5154 44.5927C59.6089 44.5927 59.6876 44.6235 59.7515 44.6851C59.8154 44.7444 59.8473 44.8232 59.8473 44.9213C59.8473 45.0171 59.8154 45.0969 59.7515 45.1608C59.6876 45.2247 59.6089 45.2566 59.5154 45.2566ZM60.938 42.7927C61.2734 42.7927 61.5357 42.8954 61.7251 43.1007C61.9144 43.3037 62.0091 43.5969 62.0091 43.9802C62.0091 44.2517 61.9578 44.4844 61.8551 44.6783C61.7548 44.8722 61.6122 45.0194 61.4274 45.1197C61.2426 45.2201 61.0293 45.2703 60.7874 45.2703C60.6597 45.2703 60.5376 45.2566 60.4213 45.2292C60.3049 45.1996 60.2057 45.1585 60.1235 45.1061L60.3289 44.6988C60.4452 44.7787 60.5946 44.8186 60.7772 44.8186C60.9802 44.8186 61.141 44.7593 61.2597 44.6406C61.3783 44.5197 61.4422 44.3463 61.4513 44.1205C61.3076 44.2642 61.1091 44.3361 60.8559 44.3361C60.703 44.3361 60.5638 44.3053 60.4384 44.2437C60.3129 44.1821 60.2137 44.0954 60.1406 43.9836C60.0676 43.8695 60.0311 43.7383 60.0311 43.59C60.0311 43.4303 60.0711 43.29 60.1509 43.1691C60.2308 43.0482 60.3391 42.9558 60.476 42.8919C60.6152 42.8258 60.7692 42.7927 60.938 42.7927ZM60.9791 43.922C61.1 43.922 61.1981 43.8889 61.2734 43.8228C61.3509 43.7543 61.3897 43.6676 61.3897 43.5627C61.3897 43.4577 61.3521 43.3722 61.2768 43.306C61.2038 43.2398 61.1023 43.2068 60.9722 43.2068C60.8536 43.2068 60.7566 43.2387 60.6813 43.3026C60.6083 43.3665 60.5718 43.4532 60.5718 43.5627C60.5718 43.6722 60.6083 43.76 60.6813 43.8262C60.7566 43.8901 60.8559 43.922 60.9791 43.922ZM63.0964 43.7338C63.4341 43.7338 63.6827 43.8011 63.8424 43.9357C64.0044 44.0703 64.0854 44.2505 64.0854 44.4764C64.0854 44.6224 64.0489 44.7559 63.9759 44.8768C63.9029 44.9954 63.7911 45.0912 63.6405 45.1642C63.4922 45.235 63.3086 45.2703 63.0896 45.2703C62.9207 45.2703 62.7542 45.2486 62.5899 45.2053C62.4279 45.1597 62.2899 45.0958 62.1759 45.0137L62.3949 44.5893C62.4861 44.6578 62.5911 44.7114 62.7097 44.7501C62.8283 44.7867 62.9504 44.8049 63.0759 44.8049C63.215 44.8049 63.3245 44.7775 63.4044 44.7228C63.4842 44.668 63.5242 44.5916 63.5242 44.4935C63.5242 44.3908 63.482 44.3133 63.3976 44.2608C63.3154 44.2083 63.1717 44.1821 62.9664 44.1821H62.3538L62.477 42.8338H63.9382V43.2786H62.939L62.9013 43.7338H63.0964Z" fill="#20201F"/>
<path d="M45.1829 77.2339L44.6819 76.5739L44.1779 77.2339H43.9379L44.5619 76.4239L43.9679 75.6559H44.2079L44.6819 76.2739L45.1559 75.6559H45.3899L44.7959 76.4239L45.4259 77.2339H45.1829ZM46.3703 77.2489C46.2183 77.2489 46.0813 77.2149 45.9593 77.1469C45.8373 77.0769 45.7413 76.9809 45.6713 76.8589C45.6013 76.7369 45.5663 76.5989 45.5663 76.4449C45.5663 76.2909 45.6013 76.1529 45.6713 76.0309C45.7413 75.9089 45.8373 75.8139 45.9593 75.7459C46.0813 75.6779 46.2183 75.6439 46.3703 75.6439C46.5223 75.6439 46.6593 75.6779 46.7813 75.7459C46.9033 75.8139 46.9983 75.9089 47.0663 76.0309C47.1363 76.1529 47.1713 76.2909 47.1713 76.4449C47.1713 76.5989 47.1363 76.7369 47.0663 76.8589C46.9983 76.9809 46.9033 77.0769 46.7813 77.1469C46.6593 77.2149 46.5223 77.2489 46.3703 77.2489ZM46.3703 77.0599C46.4823 77.0599 46.5823 77.0349 46.6703 76.9849C46.7603 76.9329 46.8303 76.8599 46.8803 76.7659C46.9303 76.6719 46.9553 76.5649 46.9553 76.4449C46.9553 76.3249 46.9303 76.2179 46.8803 76.1239C46.8303 76.0299 46.7603 75.9579 46.6703 75.9079C46.5823 75.8559 46.4823 75.8299 46.3703 75.8299C46.2583 75.8299 46.1573 75.8559 46.0673 75.9079C45.9793 75.9579 45.9093 76.0299 45.8573 76.1239C45.8073 76.2179 45.7823 76.3249 45.7823 76.4449C45.7823 76.5649 45.8073 76.6719 45.8573 76.7659C45.9093 76.8599 45.9793 76.9329 46.0673 76.9849C46.1573 77.0349 46.2583 77.0599 46.3703 77.0599ZM48.9078 75.6559V77.2339H48.6948V75.8449H47.9388L47.9178 76.2349C47.9018 76.5629 47.8638 76.8149 47.8038 76.9909C47.7438 77.1669 47.6368 77.2549 47.4828 77.2549C47.4408 77.2549 47.3898 77.2469 47.3298 77.2309L47.3448 77.0479C47.3808 77.0559 47.4058 77.0599 47.4198 77.0599C47.5018 77.0599 47.5638 77.0219 47.6058 76.9459C47.6478 76.8699 47.6758 76.7759 47.6898 76.6639C47.7038 76.5519 47.7158 76.4039 47.7258 76.2199L47.7528 75.6559H48.9078ZM50.8033 75.6559V77.2339H50.5903V75.8449H49.8343L49.8133 76.2349C49.7973 76.5629 49.7593 76.8149 49.6993 76.9909C49.6393 77.1669 49.5323 77.2549 49.3783 77.2549C49.3363 77.2549 49.2853 77.2469 49.2253 77.2309L49.2403 77.0479C49.2763 77.0559 49.3013 77.0599 49.3153 77.0599C49.3973 77.0599 49.4593 77.0219 49.5013 76.9459C49.5433 76.8699 49.5713 76.7759 49.5853 76.6639C49.5993 76.5519 49.6113 76.4039 49.6213 76.2199L49.6483 75.6559H50.8033Z" fill="#20201F"/>
<path d="M45.3208 80.876C45.6248 80.876 45.8458 80.931 45.9838 81.041C46.1238 81.149 46.1938 81.301 46.1938 81.497C46.1938 81.619 46.1648 81.728 46.1068 81.824C46.0508 81.92 45.9658 81.996 45.8518 82.052C45.7378 82.106 45.5978 82.133 45.4318 82.133C45.2818 82.133 45.1388 82.109 45.0028 82.061C44.8688 82.011 44.7608 81.945 44.6788 81.863L44.7838 81.692C44.8538 81.764 44.9458 81.823 45.0598 81.869C45.1738 81.913 45.2968 81.935 45.4288 81.935C45.6028 81.935 45.7368 81.896 45.8308 81.818C45.9268 81.74 45.9748 81.636 45.9748 81.506C45.9748 81.362 45.9208 81.253 45.8128 81.179C45.7068 81.105 45.5268 81.068 45.2728 81.068H44.8258L44.9338 80.015H46.0828V80.207H45.1228L45.0508 80.876H45.3208ZM46.63 82.13C46.586 82.13 46.548 82.114 46.516 82.082C46.486 82.05 46.471 82.011 46.471 81.965C46.471 81.919 46.486 81.881 46.516 81.851C46.548 81.819 46.586 81.803 46.63 81.803C46.674 81.803 46.712 81.819 46.744 81.851C46.776 81.881 46.792 81.919 46.792 81.965C46.792 82.011 46.776 82.05 46.744 82.082C46.712 82.114 46.674 82.13 46.63 82.13ZM48.567 81.923V82.115H47.094V81.962L47.967 81.107C48.077 80.999 48.151 80.906 48.189 80.828C48.229 80.748 48.249 80.668 48.249 80.588C48.249 80.464 48.206 80.368 48.12 80.3C48.036 80.23 47.915 80.195 47.757 80.195C47.511 80.195 47.32 80.273 47.184 80.429L47.031 80.297C47.113 80.201 47.217 80.127 47.343 80.075C47.471 80.023 47.615 79.997 47.775 79.997C47.989 79.997 48.158 80.048 48.282 80.15C48.408 80.25 48.471 80.388 48.471 80.564C48.471 80.672 48.447 80.776 48.399 80.876C48.351 80.976 48.26 81.091 48.126 81.221L47.412 81.923H48.567ZM50.2721 81.923V82.115H48.7991V81.962L49.6721 81.107C49.7821 80.999 49.8561 80.906 49.8941 80.828C49.9341 80.748 49.9541 80.668 49.9541 80.588C49.9541 80.464 49.9111 80.368 49.8251 80.3C49.7411 80.23 49.6201 80.195 49.4621 80.195C49.2161 80.195 49.0251 80.273 48.8891 80.429L48.7361 80.297C48.8181 80.201 48.9221 80.127 49.0481 80.075C49.1761 80.023 49.3201 79.997 49.4801 79.997C49.6941 79.997 49.8631 80.048 49.9871 80.15C50.1131 80.25 50.1761 80.388 50.1761 80.564C50.1761 80.672 50.1521 80.776 50.1041 80.876C50.0561 80.976 49.9651 81.091 49.8311 81.221L49.1171 81.923H50.2721Z" fill="#20201F"/>
<path d="M58.7899 10.6385C58.9359 10.6385 59.0659 10.6715 59.1799 10.7375C59.2959 10.8015 59.386 10.8925 59.45 11.0105C59.514 11.1265 59.546 11.2595 59.546 11.4095C59.546 11.5635 59.512 11.7005 59.444 11.8205C59.378 11.9385 59.2849 12.0305 59.1649 12.0965C59.0449 12.1625 58.9069 12.1955 58.7509 12.1955C58.4889 12.1955 58.2859 12.1035 58.1419 11.9195C57.9979 11.7355 57.9259 11.4815 57.9259 11.1575C57.9259 10.8195 57.9899 10.5605 58.1179 10.3805C58.2479 10.2005 58.4499 10.0785 58.7239 10.0145L59.432 9.85245L59.468 10.0475L58.8019 10.2005C58.5759 10.2505 58.4099 10.3395 58.3039 10.4675C58.1979 10.5935 58.1399 10.7805 58.1299 11.0285C58.1939 10.9065 58.2829 10.8115 58.3969 10.7435C58.5109 10.6735 58.6419 10.6385 58.7899 10.6385ZM58.7569 12.0185C58.8669 12.0185 58.9649 11.9935 59.0509 11.9435C59.1389 11.8915 59.2069 11.8195 59.2549 11.7275C59.3049 11.6355 59.3299 11.5315 59.3299 11.4155C59.3299 11.2995 59.3059 11.1975 59.2579 11.1095C59.2099 11.0215 59.1419 10.9535 59.0539 10.9055C58.9679 10.8555 58.8689 10.8305 58.7569 10.8305C58.6449 10.8305 58.5449 10.8555 58.4569 10.9055C58.3709 10.9535 58.3029 11.0215 58.2529 11.1095C58.2049 11.1975 58.1809 11.2995 58.1809 11.4155C58.1809 11.5315 58.2049 11.6355 58.2529 11.7275C58.3029 11.8195 58.3719 11.8915 58.4599 11.9435C58.5479 11.9935 58.6469 12.0185 58.7569 12.0185ZM60.5367 10.5875C60.7427 10.5875 60.9007 10.6395 61.0107 10.7435C61.1207 10.8455 61.1757 10.9975 61.1757 11.1995V12.1775H60.9717V11.9315C60.9237 12.0135 60.8527 12.0775 60.7587 12.1235C60.6667 12.1695 60.5567 12.1925 60.4287 12.1925C60.2527 12.1925 60.1127 12.1505 60.0087 12.0665C59.9047 11.9825 59.8527 11.8715 59.8527 11.7335C59.8527 11.5995 59.9007 11.4915 59.9967 11.4095C60.0947 11.3275 60.2497 11.2865 60.4617 11.2865H60.9627V11.1905C60.9627 11.0545 60.9247 10.9515 60.8487 10.8815C60.7727 10.8095 60.6617 10.7735 60.5157 10.7735C60.4157 10.7735 60.3197 10.7905 60.2277 10.8245C60.1357 10.8565 60.0567 10.9015 59.9907 10.9595L59.8947 10.8005C59.9747 10.7325 60.0707 10.6805 60.1827 10.6445C60.2947 10.6065 60.4127 10.5875 60.5367 10.5875ZM60.4617 12.0245C60.5817 12.0245 60.6847 11.9975 60.7707 11.9435C60.8567 11.8875 60.9207 11.8075 60.9627 11.7035V11.4455H60.4677C60.1977 11.4455 60.0627 11.5395 60.0627 11.7275C60.0627 11.8195 60.0977 11.8925 60.1677 11.9465C60.2377 11.9985 60.3357 12.0245 60.4617 12.0245ZM63.0328 10.5995V12.1775H62.8198V10.7885H62.0638L62.0428 11.1785C62.0268 11.5065 61.9888 11.7585 61.9288 11.9345C61.8688 12.1105 61.7618 12.1985 61.6078 12.1985C61.5658 12.1985 61.5148 12.1905 61.4548 12.1745L61.4698 11.9915C61.5058 11.9995 61.5308 12.0035 61.5448 12.0035C61.6268 12.0035 61.6888 11.9655 61.7308 11.8895C61.7728 11.8135 61.8008 11.7195 61.8148 11.6075C61.8288 11.4955 61.8408 11.3475 61.8508 11.1635L61.8778 10.5995H63.0328ZM64.2113 11.4755H63.8513V12.1775H63.6383V10.5995H63.8513V11.2925H64.2143L64.7693 10.5995H65.0003L64.3793 11.3645L65.0453 12.1775H64.7933L64.2113 11.4755ZM65.9768 12.1925C65.8248 12.1925 65.6878 12.1585 65.5658 12.0905C65.4438 12.0205 65.3478 11.9245 65.2778 11.8025C65.2078 11.6805 65.1728 11.5425 65.1728 11.3885C65.1728 11.2345 65.2078 11.0965 65.2778 10.9745C65.3478 10.8525 65.4438 10.7575 65.5658 10.6895C65.6878 10.6215 65.8248 10.5875 65.9768 10.5875C66.1288 10.5875 66.2658 10.6215 66.3878 10.6895C66.5098 10.7575 66.6048 10.8525 66.6728 10.9745C66.7428 11.0965 66.7778 11.2345 66.7778 11.3885C66.7778 11.5425 66.7428 11.6805 66.6728 11.8025C66.6048 11.9245 66.5098 12.0205 66.3878 12.0905C66.2658 12.1585 66.1288 12.1925 65.9768 12.1925ZM65.9768 12.0035C66.0888 12.0035 66.1888 11.9785 66.2768 11.9285C66.3668 11.8765 66.4368 11.8035 66.4868 11.7095C66.5368 11.6155 66.5618 11.5085 66.5618 11.3885C66.5618 11.2685 66.5368 11.1615 66.4868 11.0675C66.4368 10.9735 66.3668 10.9015 66.2768 10.8515C66.1888 10.7995 66.0888 10.7735 65.9768 10.7735C65.8648 10.7735 65.7638 10.7995 65.6738 10.8515C65.5858 10.9015 65.5158 10.9735 65.4638 11.0675C65.4138 11.1615 65.3888 11.2685 65.3888 11.3885C65.3888 11.5085 65.4138 11.6155 65.4638 11.7095C65.5158 11.8035 65.5858 11.8765 65.6738 11.9285C65.7638 11.9785 65.8648 12.0035 65.9768 12.0035ZM67.2331 10.5995H67.4461V11.2985H68.4391V10.5995H68.6521V12.1775H68.4391V11.4815H67.4461V12.1775H67.2331V10.5995Z" fill="#20201F"/>
<path d="M61.2587 15.8583C61.4788 15.8703 61.6458 15.9303 61.7598 16.0383C61.8758 16.1443 61.9338 16.2833 61.9338 16.4553C61.9338 16.5753 61.9048 16.6823 61.8468 16.7763C61.7888 16.8683 61.7028 16.9413 61.5888 16.9953C61.4748 17.0493 61.3357 17.0763 61.1717 17.0763C61.0197 17.0763 60.8757 17.0523 60.7397 17.0043C60.6057 16.9543 60.4977 16.8883 60.4157 16.8063L60.5207 16.6353C60.5907 16.7073 60.6837 16.7663 60.7997 16.8123C60.9157 16.8563 61.0397 16.8783 61.1717 16.8783C61.3437 16.8783 61.4768 16.8413 61.5708 16.7673C61.6648 16.6913 61.7118 16.5873 61.7118 16.4553C61.7118 16.3253 61.6648 16.2233 61.5708 16.1493C61.4768 16.0753 61.3347 16.0383 61.1447 16.0383H60.9947V15.8793L61.5768 15.1503H60.5027V14.9583H61.8528V15.1113L61.2587 15.8583ZM62.4001 17.0733C62.3561 17.0733 62.3181 17.0573 62.2861 17.0253C62.2561 16.9933 62.2411 16.9543 62.2411 16.9083C62.2411 16.8623 62.2561 16.8243 62.2861 16.7943C62.3181 16.7623 62.3561 16.7463 62.4001 16.7463C62.4441 16.7463 62.4821 16.7623 62.5141 16.7943C62.5461 16.8243 62.5621 16.8623 62.5621 16.9083C62.5621 16.9543 62.5461 16.9933 62.5141 17.0253C62.4821 17.0573 62.4441 17.0733 62.4001 17.0733ZM64.3372 16.8663V17.0583H62.8642V16.9053L63.7372 16.0503C63.8472 15.9423 63.9212 15.8493 63.9592 15.7713C63.9992 15.6913 64.0192 15.6113 64.0192 15.5313C64.0192 15.4073 63.9762 15.3113 63.8902 15.2433C63.8062 15.1733 63.6852 15.1383 63.5272 15.1383C63.2812 15.1383 63.0902 15.2163 62.9542 15.3723L62.8012 15.2403C62.8832 15.1443 62.9872 15.0703 63.1132 15.0183C63.2412 14.9663 63.3852 14.9403 63.5452 14.9403C63.7592 14.9403 63.9282 14.9913 64.0522 15.0933C64.1782 15.1933 64.2412 15.3313 64.2412 15.5073C64.2412 15.6153 64.2172 15.7193 64.1692 15.8193C64.1212 15.9193 64.0302 16.0343 63.8962 16.1643L63.1822 16.8663H64.3372ZM65.8113 15.9573C65.9433 16.0013 66.0443 16.0673 66.1143 16.1553C66.1863 16.2433 66.2223 16.3493 66.2223 16.4733C66.2223 16.5953 66.1893 16.7023 66.1233 16.7943C66.0573 16.8843 65.9623 16.9543 65.8383 17.0043C65.7163 17.0523 65.5723 17.0763 65.4063 17.0763C65.1543 17.0763 64.9563 17.0223 64.8123 16.9143C64.6683 16.8063 64.5963 16.6593 64.5963 16.4733C64.5963 16.3473 64.6303 16.2413 64.6983 16.1553C64.7683 16.0673 64.8693 16.0013 65.0013 15.9573C64.8933 15.9153 64.8113 15.8553 64.7553 15.7773C64.6993 15.6973 64.6713 15.6033 64.6713 15.4953C64.6713 15.3253 64.7373 15.1903 64.8693 15.0903C65.0033 14.9903 65.1823 14.9403 65.4063 14.9403C65.5543 14.9403 65.6833 14.9633 65.7933 15.0093C65.9053 15.0533 65.9923 15.1173 66.0543 15.2013C66.1163 15.2853 66.1473 15.3833 66.1473 15.4953C66.1473 15.6033 66.1183 15.6973 66.0603 15.7773C66.0023 15.8553 65.9193 15.9153 65.8113 15.9573ZM64.8873 15.5013C64.8873 15.6173 64.9333 15.7093 65.0253 15.7773C65.1173 15.8453 65.2443 15.8793 65.4063 15.8793C65.5683 15.8793 65.6953 15.8453 65.7873 15.7773C65.8813 15.7093 65.9283 15.6183 65.9283 15.5043C65.9283 15.3863 65.8803 15.2933 65.7843 15.2253C65.6903 15.1573 65.5643 15.1233 65.4063 15.1233C65.2463 15.1233 65.1193 15.1573 65.0253 15.2253C64.9333 15.2933 64.8873 15.3853 64.8873 15.5013ZM65.4063 16.8933C65.5923 16.8933 65.7373 16.8553 65.8413 16.7793C65.9473 16.7033 66.0003 16.6003 66.0003 16.4703C66.0003 16.3403 65.9473 16.2383 65.8413 16.1643C65.7373 16.0883 65.5923 16.0503 65.4063 16.0503C65.2223 16.0503 65.0773 16.0883 64.9713 16.1643C64.8673 16.2383 64.8153 16.3403 64.8153 16.4703C64.8153 16.6023 64.8673 16.7063 64.9713 16.7823C65.0753 16.8563 65.2203 16.8933 65.4063 16.8933Z" fill="#20201F"/>
<path d="M60.8732 69.8826C61.1772 69.8826 61.3982 69.9376 61.5362 70.0476C61.6762 70.1556 61.7462 70.3076 61.7462 70.5036C61.7462 70.6256 61.7172 70.7346 61.6592 70.8306C61.6032 70.9266 61.5182 71.0026 61.4042 71.0586C61.2902 71.1126 61.1502 71.1396 60.9842 71.1396C60.8342 71.1396 60.6912 71.1156 60.5552 71.0676C60.4212 71.0176 60.3132 70.9516 60.2312 70.8696L60.3362 70.6986C60.4062 70.7706 60.4982 70.8296 60.6122 70.8756C60.7262 70.9196 60.8492 70.9416 60.9812 70.9416C61.1552 70.9416 61.2892 70.9026 61.3832 70.8246C61.4792 70.7466 61.5272 70.6426 61.5272 70.5126C61.5272 70.3686 61.4732 70.2596 61.3652 70.1856C61.2592 70.1116 61.0792 70.0746 60.8252 70.0746H60.3782L60.4862 69.0216H61.6352V69.2136H60.6752L60.6032 69.8826H60.8732ZM62.1824 71.1366C62.1384 71.1366 62.1004 71.1206 62.0684 71.0886C62.0384 71.0566 62.0234 71.0176 62.0234 70.9716C62.0234 70.9256 62.0384 70.8876 62.0684 70.8576C62.1004 70.8256 62.1384 70.8096 62.1824 70.8096C62.2264 70.8096 62.2644 70.8256 62.2964 70.8576C62.3284 70.8876 62.3444 70.9256 62.3444 70.9716C62.3444 71.0176 62.3284 71.0566 62.2964 71.0886C62.2644 71.1206 62.2264 71.1366 62.1824 71.1366ZM63.203 69.0216V71.1216H62.987V69.2136H62.492V69.0216H63.203ZM64.257 69.8826C64.561 69.8826 64.782 69.9376 64.92 70.0476C65.06 70.1556 65.13 70.3076 65.13 70.5036C65.13 70.6256 65.101 70.7346 65.043 70.8306C64.987 70.9266 64.902 71.0026 64.788 71.0586C64.674 71.1126 64.534 71.1396 64.368 71.1396C64.218 71.1396 64.075 71.1156 63.939 71.0676C63.805 71.0176 63.697 70.9516 63.615 70.8696L63.72 70.6986C63.79 70.7706 63.882 70.8296 63.996 70.8756C64.11 70.9196 64.233 70.9416 64.365 70.9416C64.539 70.9416 64.673 70.9026 64.767 70.8246C64.863 70.7466 64.911 70.6426 64.911 70.5126C64.911 70.3686 64.857 70.2596 64.749 70.1856C64.643 70.1116 64.463 70.0746 64.209 70.0746H63.762L63.87 69.0216H65.019V69.2136H64.059L63.987 69.8826H64.257Z" fill="#20201F"/>
</g>
<defs>
<clipPath id="clip0_2561_22199">
<rect width="73.8946" height="88.4002" fill="white" transform="translate(5.5553 5.83325)"/>
</clipPath>
</defs>
</svg>
