<svg width="84" height="100" viewBox="0 0 84 100" fill="none" xmlns="http://www.w3.org/2000/svg">
<rect width="83.3333" height="99.9999" transform="translate(0.296143)" fill="white"/>
<g clip-path="url(#clip0_2561_22111)">
<path fill-rule="evenodd" clip-rule="evenodd" d="M4.96277 18.7755H45.6222V7.79638L77.0007 5.83325H78.2603V18.7755H78.8574V71.9685V88.3443V94.2334H35.226V88.3443H4.96277V18.7755Z" fill="#94D0F5"/>
<path fill-rule="evenodd" clip-rule="evenodd" d="M4.96277 18.7755H45.6222V7.79638L77.0007 5.83325H78.2603V18.7755H78.8574V71.9685V88.3443V94.2334H35.226V88.3443H4.96277V18.7755Z" fill="#FFF9D0"/>
<path d="M51.596 21.3706H45.6064V27.3594H51.596V21.3706Z" fill="#20201F"/>
<path d="M7.45861 23.866H4.96271V88.3443H7.45861V23.866Z" fill="#20201F"/>
<path d="M78.8573 23.8735H76.3614V94.2332H78.8573V23.8735Z" fill="#20201F"/>
<path d="M78.8573 91.7378H55.6878V94.2334H78.8573V91.7378Z" fill="#20201F"/>
<path d="M45.707 91.7378H35.226V94.2334H45.707V91.7378Z" fill="#20201F"/>
<path d="M37.7219 85.8489H35.226V94.2333H37.7219V85.8489Z" fill="#20201F"/>
<path d="M37.7219 85.8489H4.98315V88.3442H37.7219V85.8489Z" fill="#20201F"/>
<path d="M14.2666 20.0735H4.96271V23.8664H14.2666V20.0735Z" fill="#20201F"/>
<path d="M51.596 20.0732H35.226V23.8661H51.596V20.0732Z" fill="#20201F"/>
<path d="M78.8573 20.0732H64.5716V23.8661H78.8573V20.0732Z" fill="#20201F"/>
<path d="M14.8647 18.7759H4.96271V20.0734H14.8647V18.7759Z" fill="#20201F"/>
<path d="M51.596 18.7754H34.6279V20.073H51.596V18.7754Z" fill="#20201F"/>
<path d="M78.8573 18.7754H64.5716V20.073H78.8573V18.7754Z" fill="#20201F"/>
<path fill-rule="evenodd" clip-rule="evenodd" d="M45.6221 7.79638L77.0808 5.83325H78.8573V6.92232L78.2602 6.9596V18.7755H77.0626V7.03428L46.8198 8.9216V18.7755H45.6221V7.79638Z" fill="#20201F"/>
<path d="M46.4058 27.3596H45.6064V62.3934H46.4058V27.3596Z" fill="#20201F"/>
<path d="M46.8835 61.5947H36.924V62.3932H46.8835V61.5947Z" fill="#20201F"/>
<path d="M37.7166 61.5947H36.924V63.0408H37.7166V61.5947Z" fill="#20201F"/>
<path d="M76.3615 61.5947H65.0975V62.3932H76.3615V61.5947Z" fill="#20201F"/>
<path d="M65.0975 61.5947H56.4858V62.3932H65.0975V61.5947Z" fill="#20201F"/>
<path d="M56.4859 61.5947H54.8687V62.3932H56.4859V61.5947Z" fill="#20201F"/>
<path d="M56.4859 62.3933H55.6879V76.9109H56.4859V62.3933Z" fill="#20201F"/>
<path d="M78.8573 61.5947H78.8441V62.3932H78.8573V61.5947Z" fill="#20201F"/>
<path d="M37.7219 72.0239H36.924V85.8492H37.7219V72.0239Z" fill="#20201F"/>
<path d="M56.4859 83.8977H55.6879V91.7379H56.4859V83.8977Z" fill="#20201F"/>
<path d="M34.6278 18.7754H14.8633V19.4174H34.6278V18.7754Z" fill="#20201F"/>
<path d="M35.2259 20.0696H14.265V20.7115H35.2259V20.0696Z" fill="#20201F"/>
<path d="M35.2259 23.2205H14.265V23.8624H35.2259V23.2205Z" fill="#20201F"/>
<path d="M56.5877 18.7751H51.5972V19.4172H56.5877V18.7751Z" fill="#20201F"/>
<path d="M56.5867 20.0691H51.596V20.711H56.5867V20.0691Z" fill="#20201F"/>
<path d="M56.5867 23.2205H51.596V23.8624H56.5867V23.2205Z" fill="#20201F"/>
<path d="M56.5867 18.7751H56.1155V23.8656H56.5867V18.7751Z" fill="#20201F"/>
<path fill-rule="evenodd" clip-rule="evenodd" d="M63.7091 20.3277C63.7091 20.1712 63.8361 20.0442 63.9926 20.0442C64.1491 20.0442 64.276 20.1712 64.276 20.3277V26.327C64.276 26.4835 64.1491 26.6105 63.9926 26.6105C63.8361 26.6105 63.7091 26.4835 63.7091 26.327V20.3277Z" fill="#20201F"/>
<path fill-rule="evenodd" clip-rule="evenodd" d="M56.8295 20.2704C56.8295 20.1922 56.893 20.1287 56.9713 20.1287C57.0495 20.1287 57.113 20.1922 57.113 20.2704C57.113 21.9033 57.7883 23.3818 58.8795 24.4518C59.9716 25.5224 61.481 26.185 63.148 26.185C63.2262 26.185 63.2897 26.2485 63.2897 26.3268C63.2897 26.405 63.2262 26.4685 63.148 26.4685C61.4046 26.4685 59.8252 25.7747 58.6814 24.6533C57.5375 23.5318 56.8295 21.982 56.8295 20.2704Z" fill="#20201F"/>
<path fill-rule="evenodd" clip-rule="evenodd" d="M37.3155 71.1931C37.472 71.1931 37.599 71.3201 37.599 71.4766C37.599 71.633 37.472 71.76 37.3155 71.76H31.3161C31.1597 71.76 31.0327 71.633 31.0327 71.4766C31.0327 71.3201 31.1597 71.1931 31.3161 71.1931H37.3155Z" fill="#20201F"/>
<path fill-rule="evenodd" clip-rule="evenodd" d="M37.3726 63.4453C37.4508 63.4453 37.5143 63.5088 37.5143 63.587C37.5143 63.6653 37.4508 63.7288 37.3726 63.7288C35.7428 63.7288 34.2662 64.4873 33.1967 65.713C32.1227 66.944 31.458 68.6463 31.458 70.5275C31.458 70.6058 31.3945 70.6693 31.3162 70.6693C31.238 70.6693 31.1745 70.6058 31.1745 70.5275C31.1745 68.5766 31.8663 66.8082 32.9841 65.5271C34.1062 64.241 35.6579 63.4453 37.3726 63.4453Z" fill="#20201F"/>
<path fill-rule="evenodd" clip-rule="evenodd" d="M47.8028 61.9359C47.8028 62.0924 47.6758 62.2194 47.5194 62.2194C47.3629 62.2194 47.2359 62.0924 47.2359 61.9359V55.9365C47.2359 55.7801 47.3629 55.6531 47.5194 55.6531C47.6758 55.6531 47.8028 55.7801 47.8028 55.9365V61.9359Z" fill="#20201F"/>
<path fill-rule="evenodd" clip-rule="evenodd" d="M54.4705 61.9928C54.4705 62.071 54.407 62.1345 54.3288 62.1345C54.2505 62.1345 54.187 62.071 54.187 61.9928C54.187 60.3595 53.5319 58.8805 52.4733 57.8103C51.4149 56.7402 49.9528 56.0781 48.3384 56.0781C48.2602 56.0781 48.1967 56.0147 48.1967 55.9364C48.1967 55.8582 48.2602 55.7947 48.3384 55.7947C50.0316 55.7947 51.565 56.4889 52.6749 57.611C53.7841 58.7324 54.4705 60.2818 54.4705 61.9928Z" fill="#20201F"/>
<path fill-rule="evenodd" clip-rule="evenodd" d="M56.1051 77.7476C55.9486 77.7476 55.8217 77.6206 55.8217 77.4641C55.8217 77.3077 55.9486 77.1807 56.1051 77.1807H62.1045C62.261 77.1807 62.388 77.3077 62.388 77.4641C62.388 77.6206 62.261 77.7476 62.1045 77.7476H56.1051Z" fill="#20201F"/>
<path fill-rule="evenodd" clip-rule="evenodd" d="M56.0482 83.538C55.9699 83.538 55.9064 83.4745 55.9064 83.3963C55.9064 83.3181 55.9699 83.2546 56.0482 83.2546C57.6857 83.2546 59.1673 82.6835 60.2379 81.7609C61.3035 80.8427 61.9628 79.5756 61.9628 78.1779C61.9628 78.0996 62.0263 78.0361 62.1045 78.0361C62.1828 78.0361 62.2463 78.0996 62.2463 78.1779C62.2463 79.6615 61.5492 81.004 60.4227 81.9746C59.302 82.9403 57.755 83.538 56.0482 83.538Z" fill="#20201F"/>
<path fill-rule="evenodd" clip-rule="evenodd" d="M55.4943 93.8212C55.4943 93.9777 55.3673 94.1046 55.2108 94.1046C55.0544 94.1046 54.9274 93.9777 54.9274 93.8212V87.8218C54.9274 87.6653 55.0544 87.5383 55.2108 87.5383C55.3673 87.5383 55.4943 87.6653 55.4943 87.8218V93.8212Z" fill="#20201F"/>
<path fill-rule="evenodd" clip-rule="evenodd" d="M46.315 93.878C46.315 93.9563 46.2515 94.0198 46.1733 94.0198C46.0951 94.0198 46.0316 93.9563 46.0316 93.878C46.0316 92.1592 46.9432 90.6056 48.4163 89.4833C49.879 88.3693 51.8973 87.6799 54.1237 87.6799C54.202 87.6799 54.2655 87.7434 54.2655 87.8217C54.2655 87.8999 54.202 87.9634 54.1237 87.9634C51.9604 87.9634 50.0029 88.6304 48.5878 89.7081C47.1838 90.7776 46.315 92.2524 46.315 93.878Z" fill="#20201F"/>
<path fill-rule="evenodd" clip-rule="evenodd" d="M75.9425 38.5138V53.5729H69.9189V38.3367H75.9425V38.5138ZM75.2303 48.8597C75.2303 48.694 75.1626 48.5429 75.0529 48.434C74.9437 48.3251 74.7932 48.2572 74.6279 48.2572H71.2264C71.0611 48.2572 70.9106 48.3251 70.8007 48.434C70.6918 48.5429 70.624 48.694 70.624 48.8597V52.2613C70.624 52.4266 70.6919 52.5772 70.8007 52.6868C70.9097 52.7958 71.0606 52.8635 71.2264 52.8635H74.6279C74.7938 52.8635 74.9446 52.7958 75.0531 52.6864C75.1624 52.5772 75.2303 52.4266 75.2303 52.2613V48.8597ZM74.9488 40.2655C74.9488 40.0362 74.8554 39.8278 74.7048 39.6769C74.5541 39.5262 74.3458 39.4328 74.1161 39.4328C73.887 39.4328 73.6788 39.5262 73.5275 39.6773C73.3769 39.8281 73.2835 40.0363 73.2835 40.2655C73.2835 40.4951 73.3769 40.7035 73.5278 40.8538C73.6785 41.0048 73.8868 41.0982 74.1161 41.0982C74.3458 41.0982 74.5541 41.0048 74.7048 40.8541C74.8554 40.7035 74.9488 40.4951 74.9488 40.2655ZM72.755 40.2655C72.755 39.9869 72.6417 39.7343 72.459 39.5516C72.2763 39.3689 72.0236 39.2557 71.7451 39.2557C71.4665 39.2557 71.2139 39.3689 71.0312 39.5516C70.8485 39.7343 70.7353 39.9869 70.7353 40.2655C70.7353 40.544 70.8485 40.7967 71.0312 40.9794C71.2139 41.1621 71.4665 41.2753 71.7451 41.2753C72.0236 41.2753 72.2763 41.1621 72.459 40.9794C72.6417 40.7967 72.755 40.544 72.755 40.2655ZM72.2838 40.8042C72.4215 40.6666 72.5069 40.4758 72.5069 40.2655C72.5069 40.055 72.4215 39.8644 72.2838 39.7268C72.1462 39.5892 71.9554 39.5037 71.7451 39.5037C71.5346 39.5037 71.344 39.5892 71.2064 39.7268C71.0688 39.8644 70.9833 40.055 70.9833 40.2655C70.9833 40.4758 71.0688 40.6666 71.2064 40.8042C71.344 40.9419 71.5346 41.0273 71.7451 41.0273C71.9554 41.0273 72.1462 40.9419 72.2838 40.8042ZM75.126 42.4313C75.126 42.1527 75.0127 41.9001 74.83 41.7174C74.6474 41.5347 74.3948 41.4215 74.1161 41.4215C73.8375 41.4215 73.5848 41.5346 73.4021 41.7173C73.2194 41.9 73.1063 42.1527 73.1063 42.4313C73.1063 42.71 73.2196 42.9625 73.4022 43.1452C73.5849 43.3279 73.8375 43.4412 74.1161 43.4412C74.3946 43.4412 74.6474 43.3279 74.83 43.1452C75.0127 42.9625 75.126 42.7098 75.126 42.4313ZM74.6549 42.9701C74.7925 42.8324 74.878 42.6416 74.878 42.4313C74.878 42.2208 74.7925 42.0302 74.6549 41.8926C74.5172 41.755 74.3266 41.6695 74.1161 41.6695C73.9057 41.6695 73.7149 41.7548 73.5773 41.8925C73.4397 42.0301 73.3543 42.2208 73.3543 42.4313C73.3543 42.6418 73.4398 42.8324 73.5774 42.9701C73.715 43.1077 73.9057 43.1931 74.1161 43.1931C74.3265 43.1931 74.5172 43.1077 74.6549 42.9701ZM72.5778 42.4313C72.5778 42.202 72.4844 41.9937 72.3337 41.8427C72.1831 41.6921 71.9747 41.5987 71.7451 41.5987C71.5159 41.5987 71.3077 41.6921 71.1565 41.8431C71.0058 41.9939 70.9124 42.2021 70.9124 42.4313C70.9124 42.6609 71.0058 42.8693 71.1568 43.0196C71.3074 43.1706 71.5158 43.264 71.7451 43.264C71.9747 43.264 72.1831 43.1706 72.3337 43.0199C72.4844 42.8693 72.5778 42.6609 72.5778 42.4313ZM72.1586 42.8448C72.2641 42.7392 72.3298 42.5927 72.3298 42.4313C72.3298 42.2695 72.2644 42.1232 72.159 42.0179C72.053 41.9123 71.9065 41.8467 71.7451 41.8467C71.5833 41.8467 71.437 41.912 71.3317 42.0175C71.2258 42.1232 71.1605 42.2695 71.1605 42.4313C71.1605 42.5927 71.2261 42.7392 71.3317 42.8448C71.437 42.9506 71.5833 43.016 71.7451 43.016C71.9065 43.016 72.053 42.9503 72.1586 42.8448ZM74.5296 40.679C74.6352 40.5734 74.7008 40.427 74.7008 40.2655C74.7008 40.1037 74.6354 39.9574 74.53 39.8521C74.424 39.7465 74.2776 39.6809 74.1161 39.6809C73.9543 39.6809 73.808 39.7462 73.7027 39.8517C73.5968 39.9574 73.5315 40.1037 73.5315 40.2655C73.5315 40.427 73.5971 40.5734 73.7027 40.679C73.808 40.7848 73.9543 40.8502 74.1161 40.8502C74.2776 40.8502 74.424 40.7845 74.5296 40.679ZM74.876 52.2613V48.8597C74.876 48.7917 74.8479 48.7295 74.803 48.6845C74.7585 48.6395 74.6963 48.6115 74.6279 48.6115H71.2264C71.158 48.6115 71.0958 48.6395 71.051 48.6843C71.0064 48.7295 70.9783 48.7917 70.9783 48.8597V52.2613C70.9783 52.3296 71.0061 52.3917 71.0506 52.4362C71.0963 52.4811 71.1586 52.5092 71.2264 52.5092H74.6279C74.6957 52.5092 74.758 52.4811 74.803 52.4362C74.8482 52.3917 74.876 52.3296 74.876 52.2613ZM70.2732 44.0001H75.5882V38.691H70.2732V44.0001ZM75.5882 44.3545H70.2732V53.2186H75.5882V44.3545Z" fill="#20201F"/>
<path fill-rule="evenodd" clip-rule="evenodd" d="M70.4777 87.8634C70.9439 88.1632 71.542 88.3483 72.0678 88.3483C72.5854 88.3483 72.9894 88.1707 73.2706 87.88V87.8792C73.3768 87.7691 73.4592 87.6384 73.5289 87.4999V88.0979C73.5289 88.4548 73.678 88.6639 73.9174 88.7854C74.1353 88.8962 74.4234 88.9236 74.7393 88.9236H74.8697V88.9203C75.1331 88.913 75.3734 88.8801 75.5607 88.7854C75.7999 88.6639 75.9483 88.4548 75.9483 88.0996V85.1671C75.9483 84.8104 75.7999 84.6015 75.5607 84.4807C75.3734 84.3868 75.1331 84.3529 74.8697 84.3458V84.3425H74.7393C74.4234 84.3425 74.1353 84.3699 73.9174 84.4807C73.678 84.6015 73.5289 84.8104 73.5289 85.1671V85.7662C73.4592 85.6278 73.3777 85.4975 73.2706 85.3871C72.9894 85.0958 72.5854 84.9181 72.0678 84.9181C71.5121 84.9181 70.876 85.1253 70.3989 85.4557C69.9587 85.7606 69.6497 86.1729 69.6497 86.6331C69.6497 87.1205 69.9963 87.5545 70.4777 87.8634ZM75.1283 86.5486H75.1291V86.549C75.1291 86.6542 75.0851 86.751 75.0156 86.8207V86.8216C74.946 86.891 74.85 86.9341 74.7436 86.9341C74.637 86.9341 74.5419 86.891 74.4723 86.8216H74.471L74.4712 86.8207C74.4016 86.7506 74.3586 86.6542 74.3586 86.549C74.3586 86.4422 74.4016 86.3456 74.471 86.2765C74.5406 86.207 74.637 86.1635 74.7436 86.1635C74.85 86.1635 74.9451 86.207 75.0156 86.2765C75.0851 86.3456 75.1283 86.4422 75.1283 86.5486ZM74.9311 86.5482V86.549C74.9311 86.6009 74.9104 86.6478 74.8777 86.6811H74.8764C74.8428 86.7147 74.7952 86.7361 74.7436 86.7361C74.691 86.7361 74.6428 86.7153 74.6102 86.6828L74.6094 86.6814C74.5766 86.6478 74.5555 86.6009 74.5555 86.549C74.5555 86.4953 74.5766 86.4487 74.6094 86.4152C74.6428 86.3825 74.691 86.3618 74.7436 86.3618C74.796 86.3618 74.8438 86.3825 74.8764 86.4168C74.9113 86.4495 74.9324 86.4969 74.9324 86.5482H74.9311ZM73.7893 85.1671C73.7893 84.9265 73.8838 84.789 74.0337 84.7123C74.189 84.6349 74.4044 84.6088 74.6479 84.6043H74.7393C75.0198 84.6043 75.2713 84.6257 75.4443 84.7123C75.5943 84.789 75.6877 84.9268 75.6877 85.1671V88.0996C75.6877 88.3397 75.5943 88.4767 75.4443 88.5534C75.2713 88.6407 75.0198 88.6618 74.7393 88.6618H74.6378C74.3995 88.6564 74.1856 88.6308 74.0337 88.5538C73.8826 88.4767 73.7893 88.3385 73.7893 88.0979V85.1671ZM70.5463 85.669C70.9817 85.3671 71.5618 85.1783 72.0678 85.1783C72.51 85.1783 72.8502 85.326 73.0836 85.5671C73.3391 85.8309 73.4712 86.2107 73.4712 86.6331C73.4712 87.0561 73.3391 87.4356 73.0836 87.7C72.8502 87.9405 72.51 88.0879 72.0678 88.0879C71.5899 88.0879 71.0441 87.9189 70.6175 87.6449C70.2063 87.381 69.9102 87.0216 69.9102 86.6331C69.9102 86.2678 70.1736 85.9284 70.5463 85.669Z" fill="#20201F"/>
<path fill-rule="evenodd" clip-rule="evenodd" d="M62.3676 91.4793L59.1192 91.4803C58.0329 91.4803 58.1609 89.2316 58.1721 89.0815C58.1721 88.5609 58.3844 88.0887 58.7265 87.7469C59.0678 87.4058 59.5409 87.1943 60.0613 87.1943H61.4398C61.9613 87.1943 62.4338 87.4054 62.7761 87.7469C63.1171 88.0887 63.3287 88.5618 63.331 89.0824C63.3379 89.235 63.4497 91.4803 62.3676 91.4793ZM60.75 89.2889V89.2884C60.8643 89.2873 60.9697 89.2424 61.045 89.1672C61.1189 89.0909 61.1646 88.9867 61.1646 88.873C61.1646 88.7582 61.1187 88.6539 61.0434 88.5789C60.9683 88.5037 60.8643 88.4576 60.7496 88.4576C60.6356 88.4576 60.5315 88.5037 60.4563 88.5789H60.4549V88.5798C60.3798 88.6547 60.3329 88.7582 60.3329 88.873C60.3329 88.9867 60.3798 89.0923 60.4549 89.1672H60.4554C60.5305 89.2424 60.6356 89.2896 60.7496 89.2896L60.75 89.2889ZM60.7507 89.077C60.805 89.077 60.8562 89.0546 60.8927 89.017C60.9285 88.9813 60.9514 88.93 60.9514 88.873C60.9514 88.8163 60.9295 88.7649 60.8937 88.7282C60.8569 88.6929 60.8069 88.6696 60.7496 88.6702C60.6923 88.6702 60.6429 88.6924 60.6062 88.7282L60.6053 88.729C60.5689 88.7649 60.5466 88.8163 60.5466 88.873C60.5466 88.929 60.5703 88.9803 60.6056 89.017L60.6064 89.0174C60.6423 89.0534 60.6935 89.0751 60.7487 89.0751L60.7507 89.0747V89.077ZM60.75 90.6878C61.2737 90.6878 61.7491 90.5317 62.0948 90.2813C62.4539 90.0193 62.6771 89.6534 62.6774 89.2479C62.6774 88.8408 62.4539 88.475 62.0948 88.2125C61.7478 87.9607 61.2722 87.8061 60.7483 87.8061H60.7461C60.2236 87.8073 59.7492 87.9631 59.4026 88.2141C59.045 88.4759 58.8222 88.8408 58.8219 89.2456L58.8222 89.2479C58.8222 89.6544 59.045 90.0182 59.4054 90.2813C59.7502 90.5321 60.2255 90.6878 60.7487 90.6873L60.75 90.6878ZM60.75 90.3948C61.2089 90.3939 61.6237 90.2593 61.9236 90.0429C62.2066 89.8359 62.3828 89.554 62.3828 89.2479C62.3828 88.9398 62.2066 88.6579 61.9213 88.4501C61.6229 88.2345 61.2089 88.1003 60.7483 88.1003H60.7475L60.7461 88.0994C60.2867 88.1003 59.8737 88.2345 59.5753 88.4514C59.293 88.6574 59.117 88.9398 59.1161 89.2456L59.117 89.2479C59.1164 89.5546 59.2927 89.8368 59.5763 90.0429C59.8748 90.2584 60.289 90.3939 60.7483 90.3935H60.75V90.3948ZM62.3666 91.1861C63.1731 91.1861 63.0357 89.0985 63.0357 89.0931L63.0345 89.0824C63.0345 88.6424 62.8569 88.2444 62.5693 87.955C62.2792 87.6666 61.8805 87.4886 61.4398 87.4886H60.0628C59.6206 87.4886 59.2212 87.6657 58.9323 87.955C58.6439 88.243 58.4663 88.6424 58.4654 89.0824L58.465 89.0927C58.465 89.0979 58.317 91.1861 59.1201 91.1861H62.3666Z" fill="#20201F"/>
<path fill-rule="evenodd" clip-rule="evenodd" d="M75.5475 80.1315V63.2001H68.621V80.1315H75.5475ZM71.411 76.8323C71.411 76.6463 71.4864 76.4779 71.6081 76.3562C71.7306 76.2344 71.8987 76.159 72.0843 76.159C72.2698 76.159 72.438 76.2344 72.5598 76.3562C72.6821 76.4785 72.7575 76.6467 72.7575 76.8323C72.7575 77.0178 72.6821 77.186 72.5604 77.3079C72.4386 77.4301 72.2702 77.5055 72.0843 77.5055C71.8983 77.5055 71.7299 77.4301 71.6081 77.3084C71.4864 77.1867 71.411 77.0182 71.411 76.8323ZM71.7984 76.5464C71.8712 76.4736 71.9725 76.4283 72.0843 76.4283C72.196 76.4283 72.2973 76.4736 72.3701 76.5464C72.4429 76.6193 72.4882 76.7205 72.4882 76.8323C72.4882 76.944 72.4429 77.0453 72.37 77.118C72.2969 77.191 72.1958 77.2362 72.0843 77.2362C71.9728 77.2362 71.8717 77.191 71.7985 77.118C71.7256 77.0449 71.6803 76.9438 71.6803 76.8323C71.6803 76.7208 71.7256 76.6197 71.7984 76.5464ZM68.8192 78.8536L69.0885 66.9015C69.0885 65.1064 70.2892 63.6365 72.0843 63.6365C73.8793 63.6365 75.08 65.1064 75.08 66.9015L75.3493 78.8536C75.3493 79.0852 75.2545 79.2958 75.1022 79.448C74.9492 79.6003 74.7388 79.6951 74.5077 79.6951H69.6608C69.43 79.6951 69.2197 79.6004 69.067 79.448C68.9139 79.2947 68.8192 79.0843 68.8192 78.8536ZM69.4251 66.9015C69.4251 65.2904 70.4731 63.9731 72.0843 63.9731C73.6954 63.9731 74.7434 65.2904 74.7434 66.9015L75.0127 78.8536C75.0127 78.9921 74.9557 79.1184 74.8642 79.2107C74.7731 79.3018 74.6468 79.3585 74.5077 79.3585H69.6608C69.5217 79.3585 69.3955 79.3018 69.3037 79.21C69.2125 79.1188 69.1558 78.9927 69.1558 78.8536L69.4251 66.9015ZM75.8772 63.1646V80.167C75.8772 80.2516 75.8437 80.3287 75.7905 80.3846C75.7372 80.4409 75.6628 80.4756 75.5814 80.4756H68.5871C68.5057 80.4756 68.4314 80.4409 68.378 80.3853C68.3245 80.3294 68.2913 80.252 68.2913 80.167V63.1646C68.2913 63.0796 68.3245 63.0022 68.378 62.9463C68.432 62.891 68.506 62.856 68.5871 62.856H75.5814C75.6625 62.856 75.7364 62.8908 75.79 62.9463C75.8438 63.003 75.8772 63.08 75.8772 63.1646Z" fill="#20201F"/>
<path d="M24.3353 30H23.981V46.8491H24.3353V30Z" fill="#20201F"/>
<path d="M28.8779 33.7939V34.0129H27.1976V33.8384L28.1935 32.8631C28.3189 32.7399 28.4033 32.6338 28.4467 32.5448C28.4923 32.4536 28.5151 32.3623 28.5151 32.2711C28.5151 32.1296 28.4661 32.0201 28.368 31.9426C28.2722 31.8627 28.1341 31.8228 27.9539 31.8228C27.6733 31.8228 27.4554 31.9118 27.3003 32.0897L27.1257 31.9391C27.2193 31.8296 27.3379 31.7452 27.4816 31.6859C27.6277 31.6266 27.7919 31.5969 27.9744 31.5969C28.2185 31.5969 28.4113 31.6551 28.5528 31.7714C28.6965 31.8855 28.7684 32.0429 28.7684 32.2437C28.7684 32.3669 28.741 32.4855 28.6862 32.5996C28.6315 32.7137 28.5277 32.8449 28.3748 32.9931L27.5604 33.7939H28.8779ZM29.851 31.6174V34.0129H29.6046V31.8365H29.0399V31.6174H29.851ZM30.6084 34.0301C30.5582 34.0301 30.5149 34.0118 30.4784 33.9753C30.4441 33.9388 30.427 33.8943 30.427 33.8418C30.427 33.7894 30.4441 33.746 30.4784 33.7118C30.5149 33.6753 30.5582 33.657 30.6084 33.657C30.6586 33.657 30.7019 33.6753 30.7384 33.7118C30.7749 33.746 30.7932 33.7894 30.7932 33.8418C30.7932 33.8943 30.7749 33.9388 30.7384 33.9753C30.7019 34.0118 30.6586 34.0301 30.6084 34.0301ZM32.818 33.7939V34.0129H31.1377V33.8384L32.1336 32.8631C32.2591 32.7399 32.3435 32.6338 32.3868 32.5448C32.4324 32.4536 32.4553 32.3623 32.4553 32.2711C32.4553 32.1296 32.4062 32.0201 32.3081 31.9426C32.2123 31.8627 32.0743 31.8228 31.894 31.8228C31.6134 31.8228 31.3955 31.9118 31.2404 32.0897L31.0659 31.9391C31.1594 31.8296 31.278 31.7452 31.4218 31.6859C31.5678 31.6266 31.7321 31.5969 31.9146 31.5969C32.1587 31.5969 32.3515 31.6551 32.4929 31.7714C32.6366 31.8855 32.7085 32.0429 32.7085 32.2437C32.7085 32.3669 32.6811 32.4855 32.6264 32.5996C32.5716 32.7137 32.4678 32.8449 32.315 32.9931L31.5005 33.7939H32.818ZM34.763 33.7939V34.0129H33.0827V33.8384L34.0786 32.8631C34.2041 32.7399 34.2885 32.6338 34.3318 32.5448C34.3774 32.4536 34.4003 32.3623 34.4003 32.2711C34.4003 32.1296 34.3512 32.0201 34.2531 31.9426C34.1573 31.8627 34.0193 31.8228 33.839 31.8228C33.5584 31.8228 33.3405 31.9118 33.1854 32.0897L33.0109 31.9391C33.1044 31.8296 33.223 31.7452 33.3668 31.6859C33.5128 31.6266 33.6771 31.5969 33.8596 31.5969C34.1037 31.5969 34.2965 31.6551 34.4379 31.7714C34.5816 31.8855 34.6535 32.0429 34.6535 32.2437C34.6535 32.3669 34.6261 32.4855 34.5714 32.5996C34.5166 32.7137 34.4128 32.8449 34.26 32.9931L33.4455 33.7939H34.763Z" fill="#20201F"/>
<path d="M28.6161 38.2644H28.137V38.894H27.8906V38.2644H26.5389V38.0864L27.8085 36.4986H28.0822L26.8571 38.0454H27.8974V37.491H28.137V38.0454H28.6161V38.2644ZM30.4648 38.675V38.894H28.7846V38.7195L29.7804 37.7442C29.9059 37.621 29.9903 37.5149 30.0336 37.4259C30.0793 37.3347 30.1021 37.2434 30.1021 37.1522C30.1021 37.0107 30.053 36.9012 29.9549 36.8237C29.8591 36.7438 29.7211 36.7039 29.5408 36.7039C29.2602 36.7039 29.0424 36.7929 28.8872 36.9708L28.7127 36.8202C28.8062 36.7107 28.9249 36.6263 29.0686 36.567C29.2146 36.5077 29.3789 36.478 29.5614 36.478C29.8055 36.478 29.9983 36.5362 30.1397 36.6525C30.2834 36.7666 30.3553 36.924 30.3553 37.1248C30.3553 37.248 30.3279 37.3666 30.2732 37.4807C30.2184 37.5948 30.1146 37.726 29.9618 37.8742L29.1473 38.675H30.4648ZM30.9923 38.9112C30.9421 38.9112 30.8987 38.8929 30.8622 38.8564C30.828 38.8199 30.8109 38.7754 30.8109 38.7229C30.8109 38.6705 30.828 38.6271 30.8622 38.5929C30.8987 38.5564 30.9421 38.5381 30.9923 38.5381C31.0424 38.5381 31.0858 38.5564 31.1223 38.5929C31.1588 38.6271 31.1771 38.6705 31.1771 38.7229C31.1771 38.7754 31.1588 38.8199 31.1223 38.8564C31.0858 38.8929 31.0424 38.9112 30.9923 38.9112ZM32.1623 37.4807C32.5091 37.4807 32.7612 37.5434 32.9186 37.6689C33.0783 37.7921 33.1582 37.9655 33.1582 38.1891C33.1582 38.3283 33.1251 38.4526 33.0589 38.5621C32.9951 38.6716 32.8981 38.7583 32.768 38.8222C32.638 38.8838 32.4783 38.9146 32.289 38.9146C32.1178 38.9146 31.9547 38.8872 31.7996 38.8324C31.6467 38.7754 31.5235 38.7001 31.43 38.6066L31.5498 38.4115C31.6296 38.4937 31.7346 38.561 31.8646 38.6134C31.9946 38.6636 32.135 38.6887 32.2855 38.6887C32.484 38.6887 32.6369 38.6442 32.7441 38.5553C32.8536 38.4663 32.9084 38.3476 32.9084 38.1994C32.9084 38.0351 32.8468 37.9108 32.7236 37.8263C32.6026 37.7419 32.3973 37.6997 32.1076 37.6997H31.5977L31.7209 36.4986H33.0316V36.7176H31.9365L31.8543 37.4807H32.1623ZM35.5071 38.2644H35.028V38.894H34.7817V38.2644H33.4299V38.0864L34.6995 36.4986H34.9733L33.7482 38.0454H34.7885V37.491H35.028V38.0454H35.5071V38.2644Z" fill="#20201F"/>
<path d="M28.8267 43.1452H28.3476V43.7749H28.1012V43.1452H26.7494V42.9673L28.019 41.3794H28.2928L27.0677 42.9262H28.108V42.3718H28.3476V42.9262H28.8267V43.1452ZM29.8173 42.406C30.0683 42.4197 30.2588 42.4882 30.3888 42.6114C30.5211 42.7323 30.5873 42.8909 30.5873 43.0871C30.5873 43.2239 30.5542 43.346 30.4881 43.4532C30.4219 43.5582 30.3238 43.6414 30.1938 43.703C30.0637 43.7646 29.9052 43.7954 29.7181 43.7954C29.5447 43.7954 29.3804 43.7681 29.2253 43.7133C29.0724 43.6563 28.9492 43.581 28.8557 43.4874L28.9755 43.2924C29.0553 43.3745 29.1614 43.4418 29.2937 43.4943C29.4261 43.5445 29.5675 43.5696 29.7181 43.5696C29.9143 43.5696 30.066 43.5274 30.1732 43.443C30.2804 43.3563 30.3341 43.2376 30.3341 43.0871C30.3341 42.9388 30.2804 42.8224 30.1732 42.738C30.066 42.6536 29.904 42.6114 29.6873 42.6114H29.5162V42.43L30.1801 41.5984H28.9549V41.3794H30.4949V41.5539L29.8173 42.406ZM31.1193 43.792C31.0691 43.792 31.0257 43.7738 30.9892 43.7373C30.955 43.7008 30.9379 43.6563 30.9379 43.6038C30.9379 43.5513 30.955 43.508 30.9892 43.4738C31.0257 43.4373 31.0691 43.419 31.1193 43.419C31.1695 43.419 31.2128 43.4373 31.2493 43.4738C31.2858 43.508 31.3041 43.5513 31.3041 43.6038C31.3041 43.6563 31.2858 43.7008 31.2493 43.7373C31.2128 43.7738 31.1695 43.792 31.1193 43.792ZM32.2894 42.3616C32.6361 42.3616 32.8882 42.4243 33.0456 42.5498C33.2053 42.673 33.2852 42.8464 33.2852 43.0699C33.2852 43.2091 33.2521 43.3334 33.186 43.443C33.1221 43.5525 33.0251 43.6392 32.8951 43.703C32.765 43.7646 32.6053 43.7954 32.416 43.7954C32.2449 43.7954 32.0817 43.7681 31.9266 43.7133C31.7738 43.6563 31.6506 43.581 31.557 43.4874L31.6768 43.2924C31.7566 43.3745 31.8616 43.4418 31.9916 43.4943C32.1217 43.5445 32.262 43.5696 32.4126 43.5696C32.611 43.5696 32.7639 43.5251 32.8711 43.4361C32.9806 43.3471 33.0354 43.2285 33.0354 43.0802C33.0354 42.9159 32.9738 42.7916 32.8506 42.7072C32.7297 42.6228 32.5243 42.5806 32.2346 42.5806H31.7247L31.8479 41.3794H33.1586V41.5984H32.0635L31.9814 42.3616H32.2894ZM35.2171 43.5559V43.7749H33.5368V43.6004L34.5326 42.6251C34.6581 42.5019 34.7425 42.3958 34.7859 42.3068C34.8315 42.2156 34.8543 42.1243 34.8543 42.033C34.8543 41.8916 34.8053 41.7821 34.7072 41.7045C34.6114 41.6247 34.4733 41.5847 34.2931 41.5847C34.0125 41.5847 33.7946 41.6737 33.6395 41.8517L33.4649 41.7011C33.5585 41.5916 33.6771 41.5072 33.8208 41.4479C33.9669 41.3885 34.1311 41.3589 34.3136 41.3589C34.5577 41.3589 34.7505 41.4171 34.892 41.5334C35.0357 41.6475 35.1076 41.8049 35.1076 42.0057C35.1076 42.1289 35.0802 42.2475 35.0254 42.3616C34.9707 42.4756 34.8669 42.6068 34.714 42.7551L33.8995 43.5559H35.2171Z" fill="#20201F"/>
<path d="M21.2407 34.9594V41.6667H19.6884V36.205H18.3469V34.9594H21.2407Z" fill="#20201F"/>
<path d="M14.1897 76.0159H13.2452V77.4189H12.7147V75.5778H14.1897V76.0159ZM15.2581 77.4463C15.0642 77.4463 14.8896 77.4064 14.7345 77.3265C14.5817 77.2444 14.4619 77.1315 14.3752 76.9878C14.2885 76.844 14.2451 76.6809 14.2451 76.4984C14.2451 76.3159 14.2885 76.1528 14.3752 76.009C14.4619 75.8653 14.5817 75.7535 14.7345 75.6737C14.8896 75.5915 15.0642 75.5505 15.2581 75.5505C15.452 75.5505 15.6254 75.5915 15.7783 75.6737C15.9311 75.7535 16.0509 75.8653 16.1376 76.009C16.2243 76.1528 16.2676 76.3159 16.2676 76.4984C16.2676 76.6809 16.2243 76.844 16.1376 76.9878C16.0509 77.1315 15.9311 77.2444 15.7783 77.3265C15.6254 77.4064 15.452 77.4463 15.2581 77.4463ZM15.2581 77.0083C15.395 77.0083 15.5068 76.9627 15.5935 76.8714C15.6824 76.7779 15.7269 76.6535 15.7269 76.4984C15.7269 76.3433 15.6824 76.2201 15.5935 76.1288C15.5068 76.0353 15.395 75.9885 15.2581 75.9885C15.1212 75.9885 15.0083 76.0353 14.9193 76.1288C14.8303 76.2201 14.7858 76.3433 14.7858 76.4984C14.7858 76.6535 14.8303 76.7779 14.9193 76.8714C15.0083 76.9627 15.1212 77.0083 15.2581 77.0083ZM17.5109 77.4463C17.3147 77.4463 17.1379 77.4064 16.9804 77.3265C16.8253 77.2444 16.7032 77.1315 16.6143 76.9878C16.5276 76.844 16.4842 76.6809 16.4842 76.4984C16.4842 76.3159 16.5276 76.1528 16.6143 76.009C16.7032 75.8653 16.8253 75.7535 16.9804 75.6737C17.1379 75.5915 17.3147 75.5505 17.5109 75.5505C17.7048 75.5505 17.8736 75.5915 18.0173 75.6737C18.1634 75.7535 18.2694 75.8687 18.3356 76.0193L17.9215 76.2417C17.8257 76.0729 17.6877 75.9885 17.5074 75.9885C17.3683 75.9885 17.2531 76.0341 17.1618 76.1254C17.0706 76.2166 17.0249 76.341 17.0249 76.4984C17.0249 76.6558 17.0706 76.7801 17.1618 76.8714C17.2531 76.9627 17.3683 77.0083 17.5074 77.0083C17.69 77.0083 17.828 76.9239 17.9215 76.7551L18.3356 76.9809C18.2694 77.1269 18.1634 77.241 18.0173 77.3231C17.8736 77.4053 17.7048 77.4463 17.5109 77.4463ZM20.2001 76.0159H19.5773V77.4189H19.0469V76.0159H18.424V75.5778H20.2001V76.0159ZM20.4847 75.5778H21.0151V76.6729L21.9117 75.5778H22.4011V77.4189H21.8707V76.3239L20.9775 77.4189H20.4847V75.5778ZM22.9143 75.5778H23.4447V76.2965H24.2455V75.5778H24.7793V77.4189H24.2455V76.7311H23.4447V77.4189H22.9143V75.5778ZM26.0056 75.5505C26.2908 75.5505 26.5098 75.6189 26.6627 75.7558C26.8155 75.8904 26.8919 76.0946 26.8919 76.3684V77.4189H26.3923V77.1897C26.2919 77.3608 26.1049 77.4463 25.8311 77.4463C25.6896 77.4463 25.5664 77.4224 25.4615 77.3745C25.3588 77.3265 25.2801 77.2604 25.2254 77.176C25.1706 77.0916 25.1432 76.9957 25.1432 76.8885C25.1432 76.7174 25.2071 76.5828 25.3349 76.4847C25.4649 76.3866 25.6645 76.3376 25.9338 76.3376H26.3581C26.3581 76.2212 26.3227 76.1322 26.252 76.0706C26.1813 76.0067 26.0752 75.9748 25.9338 75.9748C25.8357 75.9748 25.7387 75.9908 25.6429 76.0227C25.5493 76.0524 25.4695 76.0934 25.4033 76.1459L25.2117 75.7729C25.3121 75.7022 25.4318 75.6474 25.571 75.6086C25.7125 75.5699 25.8573 75.5505 26.0056 75.5505ZM25.9646 77.087C26.0558 77.087 26.1368 77.0665 26.2075 77.0254C26.2782 76.9821 26.3284 76.9193 26.3581 76.8372V76.649H25.9919C25.7729 76.649 25.6634 76.7208 25.6634 76.8646C25.6634 76.933 25.6896 76.9878 25.7421 77.0288C25.7969 77.0676 25.871 77.087 25.9646 77.087ZM28.9915 75.5778V77.4189H28.5158V76.8919H28.1223L27.7732 77.4189H27.2051L27.626 76.8167C27.4983 76.7665 27.4002 76.6946 27.3317 76.6011C27.2656 76.5052 27.2325 76.39 27.2325 76.2554C27.2325 76.0387 27.3101 75.8721 27.4652 75.7558C27.6226 75.6372 27.8382 75.5778 28.112 75.5778H28.9915ZM28.1223 76.0124C28.0082 76.0124 27.9215 76.033 27.8622 76.074C27.8051 76.1151 27.7766 76.1813 27.7766 76.2725C27.7766 76.3638 27.804 76.4311 27.8588 76.4744C27.9158 76.5155 28.0013 76.536 28.1154 76.536H28.5158V76.0124H28.1223Z" fill="#20201F"/>
<path d="M18.5988 81.8481V82.2998H16.7885V81.9405L17.7125 81.0678C17.8106 80.9743 17.8768 80.8944 17.911 80.8283C17.9452 80.7598 17.9623 80.6925 17.9623 80.6264C17.9623 80.5306 17.9292 80.4576 17.8631 80.4074C17.7992 80.3549 17.7045 80.3287 17.579 80.3287C17.4741 80.3287 17.3794 80.3492 17.295 80.3903C17.2106 80.429 17.1399 80.4884 17.0828 80.5682L16.679 80.3081C16.7726 80.169 16.9015 80.0606 17.0657 79.983C17.23 79.9032 17.4182 79.8632 17.6304 79.8632C17.8083 79.8632 17.9635 79.8929 18.0958 79.9522C18.2304 80.0093 18.3342 80.0914 18.4072 80.1986C18.4825 80.3036 18.5201 80.4279 18.5201 80.5716C18.5201 80.7017 18.4927 80.8237 18.438 80.9378C18.3832 81.0519 18.2772 81.1819 18.1197 81.3279L17.5688 81.8481H18.5988ZM19.7516 79.9043V82.2998H19.1972V80.3492H18.7181V79.9043H19.7516ZM20.4825 82.3272C20.389 82.3272 20.3103 82.2952 20.2464 82.2314C20.1825 82.1675 20.1506 82.0876 20.1506 81.9918C20.1506 81.8937 20.1825 81.815 20.2464 81.7557C20.3103 81.6941 20.389 81.6633 20.4825 81.6633C20.5761 81.6633 20.6548 81.6941 20.7187 81.7557C20.7825 81.815 20.8145 81.8937 20.8145 81.9918C20.8145 82.0876 20.7825 82.1675 20.7187 82.2314C20.6548 82.2952 20.5761 82.3272 20.4825 82.3272ZM22.8865 81.8481V82.2998H21.0762V81.9405L22.0002 81.0678C22.0983 80.9743 22.1645 80.8944 22.1987 80.8283C22.2329 80.7598 22.25 80.6925 22.25 80.6264C22.25 80.5306 22.2169 80.4576 22.1508 80.4074C22.0869 80.3549 21.9922 80.3287 21.8667 80.3287C21.7618 80.3287 21.6671 80.3492 21.5827 80.3903C21.4983 80.429 21.4276 80.4884 21.3705 80.5682L20.9667 80.3081C21.0602 80.169 21.1891 80.0606 21.3534 79.983C21.5177 79.9032 21.7059 79.8632 21.9181 79.8632C22.096 79.8632 22.2511 79.8929 22.3835 79.9522C22.5181 80.0093 22.6219 80.0914 22.6949 80.1986C22.7702 80.3036 22.8078 80.4279 22.8078 80.5716C22.8078 80.7017 22.7804 80.8237 22.7257 80.9378C22.6709 81.0519 22.5648 81.1819 22.4074 81.3279L21.8565 81.8481H22.8865ZM24.905 81.8481V82.2998H23.0947V81.9405L24.0187 81.0678C24.1168 80.9743 24.183 80.8944 24.2172 80.8283C24.2514 80.7598 24.2685 80.6925 24.2685 80.6264C24.2685 80.5306 24.2355 80.4576 24.1693 80.4074C24.1054 80.3549 24.0107 80.3287 23.8853 80.3287C23.7803 80.3287 23.6856 80.3492 23.6012 80.3903C23.5168 80.429 23.4461 80.4884 23.389 80.5682L22.9852 80.3081C23.0788 80.169 23.2077 80.0606 23.3719 79.983C23.5362 79.9032 23.7244 79.8632 23.9366 79.8632C24.1145 79.8632 24.2697 79.8929 24.402 79.9522C24.5366 80.0093 24.6404 80.0914 24.7134 80.1986C24.7887 80.3036 24.8263 80.4279 24.8263 80.5716C24.8263 80.7017 24.799 80.8237 24.7442 80.9378C24.6895 81.0519 24.5834 81.1819 24.4259 81.3279L23.875 81.8481H24.905Z" fill="#20201F"/>
<path d="M54.9681 39.6505H54.6909V40.3486H54.1571V38.5075H54.6909V39.2228H54.9784L55.478 38.5075H56.0461L55.4027 39.3904L56.0906 40.3486H55.4609L54.9681 39.6505ZM58.0936 38.5075L57.262 40.4616C57.1776 40.6737 57.0727 40.8232 56.9472 40.9099C56.824 40.9966 56.6746 41.0399 56.4989 41.0399C56.4031 41.0399 56.3084 41.0251 56.2149 40.9954C56.1213 40.9658 56.0449 40.9247 55.9856 40.8722L56.1807 40.4924C56.2217 40.5289 56.2685 40.5574 56.321 40.5779C56.3757 40.5984 56.4293 40.6087 56.4818 40.6087C56.5548 40.6087 56.6141 40.5905 56.6598 40.554C56.7054 40.5197 56.7464 40.4616 56.7829 40.3794L56.7898 40.3623L55.9924 38.5075H56.5434L57.0601 39.7566L57.5803 38.5075H58.0936ZM59.4042 40.3486L59.0004 39.784L58.5829 40.3486H58.0012L58.7096 39.4212L58.0251 38.5075H58.624L59.0141 39.0448L59.4145 38.5075H59.9826L59.2982 39.4075L60.01 40.3486H59.4042ZM60.2728 38.5075H60.8032V39.2262H61.604V38.5075H62.1378V40.3486H61.604V39.6608H60.8032V40.3486H60.2728V38.5075ZM64.2847 38.5075V40.3486H63.809V39.8216H63.4154L63.0664 40.3486H62.4983L62.9192 39.7463C62.7915 39.6961 62.6934 39.6243 62.6249 39.5307C62.5588 39.4349 62.5257 39.3197 62.5257 39.1851C62.5257 38.9684 62.6033 38.8018 62.7584 38.6855C62.9158 38.5668 63.1314 38.5075 63.4052 38.5075H64.2847ZM63.4154 38.9421C63.3014 38.9421 63.2147 38.9627 63.1554 39.0037C63.0983 39.0448 63.0698 39.111 63.0698 39.2022C63.0698 39.2935 63.0972 39.3608 63.1519 39.4041C63.209 39.4452 63.2945 39.4657 63.4086 39.4657H63.809V38.9421H63.4154Z" fill="#20201F"/>
<path d="M55.9125 42.8338V45.2292H55.3582V43.2786H54.8791V42.8338H55.9125ZM57.3553 45.2703C57.1568 45.2703 56.98 45.2213 56.8249 45.1232C56.6697 45.0251 56.5477 44.8836 56.4587 44.6988C56.372 44.5117 56.3287 44.2893 56.3287 44.0315C56.3287 43.7737 56.372 43.5524 56.4587 43.3676C56.5477 43.1805 56.6697 43.0379 56.8249 42.9398C56.98 42.8417 57.1568 42.7927 57.3553 42.7927C57.5538 42.7927 57.7306 42.8417 57.8857 42.9398C58.0409 43.0379 58.1618 43.1805 58.2485 43.3676C58.3375 43.5524 58.382 43.7737 58.382 44.0315C58.382 44.2893 58.3375 44.5117 58.2485 44.6988C58.1618 44.8836 58.0409 45.0251 57.8857 45.1232C57.7306 45.2213 57.5538 45.2703 57.3553 45.2703ZM57.3553 44.8015C57.5013 44.8015 57.6154 44.7387 57.6975 44.6133C57.7819 44.4878 57.8241 44.2939 57.8241 44.0315C57.8241 43.7691 57.7819 43.5752 57.6975 43.4497C57.6154 43.3243 57.5013 43.2615 57.3553 43.2615C57.2116 43.2615 57.0975 43.3243 57.0131 43.4497C56.931 43.5752 56.8899 43.7691 56.8899 44.0315C56.8899 44.2939 56.931 44.4878 57.0131 44.6133C57.0975 44.7387 57.2116 44.8015 57.3553 44.8015ZM58.9227 45.2566C58.8292 45.2566 58.7505 45.2247 58.6866 45.1608C58.6227 45.0969 58.5908 45.0171 58.5908 44.9213C58.5908 44.8232 58.6227 44.7444 58.6866 44.6851C58.7505 44.6235 58.8292 44.5927 58.9227 44.5927C59.0162 44.5927 59.095 44.6235 59.1588 44.6851C59.2227 44.7444 59.2547 44.8232 59.2547 44.9213C59.2547 45.0171 59.2227 45.0969 59.1588 45.1608C59.095 45.2247 59.0162 45.2566 58.9227 45.2566ZM60.3454 42.7927C60.6807 42.7927 60.9431 42.8954 61.1324 43.1007C61.3218 43.3037 61.4165 43.5969 61.4165 43.9802C61.4165 44.2517 61.3651 44.4844 61.2625 44.6783C61.1621 44.8722 61.0195 45.0194 60.8347 45.1197C60.6499 45.2201 60.4366 45.2703 60.1948 45.2703C60.067 45.2703 59.945 45.2566 59.8286 45.2292C59.7123 45.1996 59.613 45.1585 59.5309 45.1061L59.7362 44.6988C59.8526 44.7787 60.002 44.8186 60.1845 44.8186C60.3876 44.8186 60.5484 44.7593 60.667 44.6406C60.7857 44.5197 60.8495 44.3463 60.8587 44.1205C60.7149 44.2642 60.5165 44.3361 60.2632 44.3361C60.1104 44.3361 59.9712 44.3053 59.8457 44.2437C59.7202 44.1821 59.621 44.0954 59.548 43.9836C59.475 43.8695 59.4385 43.7383 59.4385 43.59C59.4385 43.4303 59.4784 43.29 59.5583 43.1691C59.6381 43.0482 59.7465 42.9558 59.8834 42.8919C60.0225 42.8258 60.1765 42.7927 60.3454 42.7927ZM60.3864 43.922C60.5073 43.922 60.6054 43.8889 60.6807 43.8228C60.7583 43.7543 60.7971 43.6676 60.7971 43.5627C60.7971 43.4577 60.7594 43.3722 60.6841 43.306C60.6111 43.2398 60.5096 43.2068 60.3796 43.2068C60.2609 43.2068 60.164 43.2387 60.0887 43.3026C60.0157 43.3665 59.9792 43.4532 59.9792 43.5627C59.9792 43.6722 60.0157 43.76 60.0887 43.8262C60.164 43.8901 60.2632 43.922 60.3864 43.922ZM62.5038 43.7338C62.8414 43.7338 63.0901 43.8011 63.2498 43.9357C63.4118 44.0703 63.4927 44.2505 63.4927 44.4764C63.4927 44.6224 63.4562 44.7559 63.3832 44.8768C63.3102 44.9954 63.1984 45.0912 63.0479 45.1642C62.8996 45.235 62.7159 45.2703 62.4969 45.2703C62.3281 45.2703 62.1615 45.2486 61.9973 45.2053C61.8353 45.1597 61.6973 45.0958 61.5832 45.0137L61.8022 44.5893C61.8935 44.6578 61.9984 44.7114 62.1171 44.7501C62.2357 44.7867 62.3577 44.8049 62.4832 44.8049C62.6224 44.8049 62.7319 44.7775 62.8117 44.7228C62.8916 44.668 62.9315 44.5916 62.9315 44.4935C62.9315 44.3908 62.8893 44.3133 62.8049 44.2608C62.7228 44.2083 62.579 44.1821 62.3737 44.1821H61.7611L61.8843 42.8338H63.3456V43.2786H62.3463L62.3087 43.7338H62.5038Z" fill="#20201F"/>
<path d="M44.5903 77.2339L44.0893 76.5739L43.5853 77.2339H43.3453L43.9693 76.4239L43.3753 75.6559H43.6153L44.0893 76.2739L44.5633 75.6559H44.7973L44.2033 76.4239L44.8333 77.2339H44.5903ZM45.7777 77.2489C45.6257 77.2489 45.4887 77.2149 45.3667 77.1469C45.2447 77.0769 45.1487 76.9809 45.0787 76.8589C45.0087 76.7369 44.9737 76.5989 44.9737 76.4449C44.9737 76.2909 45.0087 76.1529 45.0787 76.0309C45.1487 75.9089 45.2447 75.8139 45.3667 75.7459C45.4887 75.6779 45.6257 75.6439 45.7777 75.6439C45.9297 75.6439 46.0667 75.6779 46.1887 75.7459C46.3107 75.8139 46.4057 75.9089 46.4737 76.0309C46.5437 76.1529 46.5787 76.2909 46.5787 76.4449C46.5787 76.5989 46.5437 76.7369 46.4737 76.8589C46.4057 76.9809 46.3107 77.0769 46.1887 77.1469C46.0667 77.2149 45.9297 77.2489 45.7777 77.2489ZM45.7777 77.0599C45.8897 77.0599 45.9897 77.0349 46.0777 76.9849C46.1677 76.9329 46.2377 76.8599 46.2877 76.7659C46.3377 76.6719 46.3627 76.5649 46.3627 76.4449C46.3627 76.3249 46.3377 76.2179 46.2877 76.1239C46.2377 76.0299 46.1677 75.9579 46.0777 75.9079C45.9897 75.8559 45.8897 75.8299 45.7777 75.8299C45.6657 75.8299 45.5647 75.8559 45.4747 75.9079C45.3867 75.9579 45.3167 76.0299 45.2647 76.1239C45.2147 76.2179 45.1897 76.3249 45.1897 76.4449C45.1897 76.5649 45.2147 76.6719 45.2647 76.7659C45.3167 76.8599 45.3867 76.9329 45.4747 76.9849C45.5647 77.0349 45.6657 77.0599 45.7777 77.0599ZM48.3152 75.6559V77.2339H48.1022V75.8449H47.3462L47.3252 76.2349C47.3092 76.5629 47.2712 76.8149 47.2112 76.9909C47.1512 77.1669 47.0442 77.2549 46.8902 77.2549C46.8482 77.2549 46.7972 77.2469 46.7372 77.2309L46.7522 77.0479C46.7882 77.0559 46.8132 77.0599 46.8272 77.0599C46.9092 77.0599 46.9712 77.0219 47.0132 76.9459C47.0552 76.8699 47.0832 76.7759 47.0972 76.6639C47.1112 76.5519 47.1232 76.4039 47.1332 76.2199L47.1602 75.6559H48.3152ZM50.2107 75.6559V77.2339H49.9977V75.8449H49.2417L49.2207 76.2349C49.2047 76.5629 49.1667 76.8149 49.1067 76.9909C49.0467 77.1669 48.9397 77.2549 48.7857 77.2549C48.7437 77.2549 48.6927 77.2469 48.6327 77.2309L48.6477 77.0479C48.6837 77.0559 48.7087 77.0599 48.7227 77.0599C48.8047 77.0599 48.8667 77.0219 48.9087 76.9459C48.9507 76.8699 48.9787 76.7759 48.9927 76.6639C49.0067 76.5519 49.0187 76.4039 49.0287 76.2199L49.0557 75.6559H50.2107Z" fill="#20201F"/>
<path d="M44.7283 80.876C45.0323 80.876 45.2533 80.931 45.3913 81.041C45.5313 81.149 45.6013 81.301 45.6013 81.497C45.6013 81.619 45.5723 81.728 45.5143 81.824C45.4583 81.92 45.3733 81.996 45.2593 82.052C45.1453 82.106 45.0053 82.133 44.8393 82.133C44.6893 82.133 44.5463 82.109 44.4103 82.061C44.2763 82.011 44.1683 81.945 44.0863 81.863L44.1913 81.692C44.2613 81.764 44.3533 81.823 44.4673 81.869C44.5813 81.913 44.7043 81.935 44.8363 81.935C45.0103 81.935 45.1443 81.896 45.2383 81.818C45.3343 81.74 45.3823 81.636 45.3823 81.506C45.3823 81.362 45.3283 81.253 45.2203 81.179C45.1143 81.105 44.9343 81.068 44.6803 81.068H44.2333L44.3413 80.015H45.4903V80.207H44.5303L44.4583 80.876H44.7283ZM46.0375 82.13C45.9935 82.13 45.9555 82.114 45.9235 82.082C45.8935 82.05 45.8785 82.011 45.8785 81.965C45.8785 81.919 45.8935 81.881 45.9235 81.851C45.9555 81.819 45.9935 81.803 46.0375 81.803C46.0815 81.803 46.1195 81.819 46.1515 81.851C46.1835 81.881 46.1995 81.919 46.1995 81.965C46.1995 82.011 46.1835 82.05 46.1515 82.082C46.1195 82.114 46.0815 82.13 46.0375 82.13ZM47.9746 81.923V82.115H46.5016V81.962L47.3746 81.107C47.4846 80.999 47.5586 80.906 47.5966 80.828C47.6366 80.748 47.6566 80.668 47.6566 80.588C47.6566 80.464 47.6136 80.368 47.5276 80.3C47.4436 80.23 47.3226 80.195 47.1646 80.195C46.9186 80.195 46.7276 80.273 46.5916 80.429L46.4386 80.297C46.5206 80.201 46.6246 80.127 46.7506 80.075C46.8786 80.023 47.0226 79.997 47.1826 79.997C47.3966 79.997 47.5656 80.048 47.6896 80.15C47.8156 80.25 47.8786 80.388 47.8786 80.564C47.8786 80.672 47.8546 80.776 47.8066 80.876C47.7586 80.976 47.6676 81.091 47.5336 81.221L46.8196 81.923H47.9746ZM49.6797 81.923V82.115H48.2067V81.962L49.0797 81.107C49.1897 80.999 49.2637 80.906 49.3017 80.828C49.3417 80.748 49.3617 80.668 49.3617 80.588C49.3617 80.464 49.3187 80.368 49.2327 80.3C49.1487 80.23 49.0277 80.195 48.8697 80.195C48.6237 80.195 48.4327 80.273 48.2967 80.429L48.1437 80.297C48.2257 80.201 48.3297 80.127 48.4557 80.075C48.5837 80.023 48.7277 79.997 48.8877 79.997C49.1017 79.997 49.2707 80.048 49.3947 80.15C49.5207 80.25 49.5837 80.388 49.5837 80.564C49.5837 80.672 49.5597 80.776 49.5117 80.876C49.4637 80.976 49.3727 81.091 49.2387 81.221L48.5247 81.923H49.6797Z" fill="#20201F"/>
<path d="M58.1974 10.6385C58.3434 10.6385 58.4734 10.6715 58.5874 10.7375C58.7034 10.8015 58.7934 10.8925 58.8574 11.0105C58.9214 11.1265 58.9534 11.2595 58.9534 11.4095C58.9534 11.5635 58.9194 11.7005 58.8514 11.8205C58.7854 11.9385 58.6924 12.0305 58.5724 12.0965C58.4524 12.1625 58.3144 12.1955 58.1584 12.1955C57.8964 12.1955 57.6934 12.1035 57.5494 11.9195C57.4054 11.7355 57.3334 11.4815 57.3334 11.1575C57.3334 10.8195 57.3974 10.5605 57.5254 10.3805C57.6554 10.2005 57.8574 10.0785 58.1314 10.0145L58.8394 9.85245L58.8754 10.0475L58.2094 10.2005C57.9834 10.2505 57.8174 10.3395 57.7114 10.4675C57.6054 10.5935 57.5474 10.7805 57.5374 11.0285C57.6014 10.9065 57.6904 10.8115 57.8044 10.7435C57.9184 10.6735 58.0494 10.6385 58.1974 10.6385ZM58.1644 12.0185C58.2744 12.0185 58.3724 11.9935 58.4584 11.9435C58.5464 11.8915 58.6144 11.8195 58.6624 11.7275C58.7124 11.6355 58.7374 11.5315 58.7374 11.4155C58.7374 11.2995 58.7134 11.1975 58.6654 11.1095C58.6174 11.0215 58.5494 10.9535 58.4614 10.9055C58.3754 10.8555 58.2764 10.8305 58.1644 10.8305C58.0524 10.8305 57.9524 10.8555 57.8644 10.9055C57.7784 10.9535 57.7104 11.0215 57.6604 11.1095C57.6124 11.1975 57.5884 11.2995 57.5884 11.4155C57.5884 11.5315 57.6124 11.6355 57.6604 11.7275C57.7104 11.8195 57.7794 11.8915 57.8674 11.9435C57.9554 11.9935 58.0544 12.0185 58.1644 12.0185ZM59.9442 10.5875C60.1502 10.5875 60.3082 10.6395 60.4182 10.7435C60.5282 10.8455 60.5832 10.9975 60.5832 11.1995V12.1775H60.3792V11.9315C60.3312 12.0135 60.2602 12.0775 60.1662 12.1235C60.0742 12.1695 59.9642 12.1925 59.8362 12.1925C59.6602 12.1925 59.5202 12.1505 59.4162 12.0665C59.3122 11.9825 59.2602 11.8715 59.2602 11.7335C59.2602 11.5995 59.3082 11.4915 59.4042 11.4095C59.5022 11.3275 59.6572 11.2865 59.8692 11.2865H60.3702V11.1905C60.3702 11.0545 60.3322 10.9515 60.2562 10.8815C60.1802 10.8095 60.0692 10.7735 59.9232 10.7735C59.8232 10.7735 59.7272 10.7905 59.6352 10.8245C59.5432 10.8565 59.4642 10.9015 59.3982 10.9595L59.3022 10.8005C59.3822 10.7325 59.4782 10.6805 59.5902 10.6445C59.7022 10.6065 59.8202 10.5875 59.9442 10.5875ZM59.8692 12.0245C59.9892 12.0245 60.0922 11.9975 60.1782 11.9435C60.2642 11.8875 60.3282 11.8075 60.3702 11.7035V11.4455H59.8752C59.6052 11.4455 59.4702 11.5395 59.4702 11.7275C59.4702 11.8195 59.5052 11.8925 59.5752 11.9465C59.6452 11.9985 59.7432 12.0245 59.8692 12.0245ZM62.4403 10.5995V12.1775H62.2272V10.7885H61.4712L61.4502 11.1785C61.4342 11.5065 61.3962 11.7585 61.3362 11.9345C61.2762 12.1105 61.1692 12.1985 61.0152 12.1985C60.9732 12.1985 60.9222 12.1905 60.8622 12.1745L60.8772 11.9915C60.9132 11.9995 60.9382 12.0035 60.9522 12.0035C61.0342 12.0035 61.0962 11.9655 61.1382 11.8895C61.1802 11.8135 61.2082 11.7195 61.2222 11.6075C61.2362 11.4955 61.2482 11.3475 61.2582 11.1635L61.2852 10.5995H62.4403ZM63.6188 11.4755H63.2588V12.1775H63.0458V10.5995H63.2588V11.2925H63.6218L64.1768 10.5995H64.4078L63.7868 11.3645L64.4528 12.1775H64.2008L63.6188 11.4755ZM65.3843 12.1925C65.2323 12.1925 65.0953 12.1585 64.9733 12.0905C64.8513 12.0205 64.7553 11.9245 64.6853 11.8025C64.6153 11.6805 64.5803 11.5425 64.5803 11.3885C64.5803 11.2345 64.6153 11.0965 64.6853 10.9745C64.7553 10.8525 64.8513 10.7575 64.9733 10.6895C65.0953 10.6215 65.2323 10.5875 65.3843 10.5875C65.5363 10.5875 65.6733 10.6215 65.7953 10.6895C65.9173 10.7575 66.0123 10.8525 66.0803 10.9745C66.1503 11.0965 66.1853 11.2345 66.1853 11.3885C66.1853 11.5425 66.1503 11.6805 66.0803 11.8025C66.0123 11.9245 65.9173 12.0205 65.7953 12.0905C65.6733 12.1585 65.5363 12.1925 65.3843 12.1925ZM65.3843 12.0035C65.4963 12.0035 65.5963 11.9785 65.6843 11.9285C65.7743 11.8765 65.8443 11.8035 65.8943 11.7095C65.9443 11.6155 65.9693 11.5085 65.9693 11.3885C65.9693 11.2685 65.9443 11.1615 65.8943 11.0675C65.8443 10.9735 65.7743 10.9015 65.6843 10.8515C65.5963 10.7995 65.4963 10.7735 65.3843 10.7735C65.2723 10.7735 65.1713 10.7995 65.0813 10.8515C64.9933 10.9015 64.9233 10.9735 64.8713 11.0675C64.8213 11.1615 64.7963 11.2685 64.7963 11.3885C64.7963 11.5085 64.8213 11.6155 64.8713 11.7095C64.9233 11.8035 64.9933 11.8765 65.0813 11.9285C65.1713 11.9785 65.2723 12.0035 65.3843 12.0035ZM66.6406 10.5995H66.8536V11.2985H67.8466V10.5995H68.0596V12.1775H67.8466V11.4815H66.8536V12.1775H66.6406V10.5995Z" fill="#20201F"/>
<path d="M60.6662 15.8583C60.8862 15.8703 61.0532 15.9303 61.1672 16.0383C61.2832 16.1443 61.3412 16.2833 61.3412 16.4553C61.3412 16.5753 61.3122 16.6823 61.2542 16.7763C61.1962 16.8683 61.1102 16.9413 60.9962 16.9953C60.8822 17.0493 60.7432 17.0763 60.5792 17.0763C60.4272 17.0763 60.2832 17.0523 60.1472 17.0043C60.0132 16.9543 59.9052 16.8883 59.8232 16.8063L59.9282 16.6353C59.9982 16.7073 60.0912 16.7663 60.2072 16.8123C60.3232 16.8563 60.4472 16.8783 60.5792 16.8783C60.7512 16.8783 60.8842 16.8413 60.9782 16.7673C61.0722 16.6913 61.1192 16.5873 61.1192 16.4553C61.1192 16.3253 61.0722 16.2233 60.9782 16.1493C60.8842 16.0753 60.7422 16.0383 60.5522 16.0383H60.4022V15.8793L60.9842 15.1503H59.9102V14.9583H61.2602V15.1113L60.6662 15.8583ZM61.8076 17.0733C61.7636 17.0733 61.7256 17.0573 61.6936 17.0253C61.6636 16.9933 61.6486 16.9543 61.6486 16.9083C61.6486 16.8623 61.6636 16.8243 61.6936 16.7943C61.7256 16.7623 61.7636 16.7463 61.8076 16.7463C61.8516 16.7463 61.8896 16.7623 61.9216 16.7943C61.9536 16.8243 61.9696 16.8623 61.9696 16.9083C61.9696 16.9543 61.9536 16.9933 61.9216 17.0253C61.8896 17.0573 61.8516 17.0733 61.8076 17.0733ZM63.7447 16.8663V17.0583H62.2716V16.9053L63.1447 16.0503C63.2547 15.9423 63.3287 15.8493 63.3667 15.7713C63.4067 15.6913 63.4267 15.6113 63.4267 15.5313C63.4267 15.4073 63.3837 15.3113 63.2977 15.2433C63.2137 15.1733 63.0927 15.1383 62.9347 15.1383C62.6886 15.1383 62.4976 15.2163 62.3616 15.3723L62.2086 15.2403C62.2906 15.1443 62.3946 15.0703 62.5206 15.0183C62.6486 14.9663 62.7926 14.9403 62.9527 14.9403C63.1667 14.9403 63.3357 14.9913 63.4597 15.0933C63.5857 15.1933 63.6487 15.3313 63.6487 15.5073C63.6487 15.6153 63.6247 15.7193 63.5767 15.8193C63.5287 15.9193 63.4377 16.0343 63.3037 16.1643L62.5896 16.8663H63.7447ZM65.2188 15.9573C65.3508 16.0013 65.4518 16.0673 65.5218 16.1553C65.5938 16.2433 65.6298 16.3493 65.6298 16.4733C65.6298 16.5953 65.5968 16.7023 65.5308 16.7943C65.4648 16.8843 65.3698 16.9543 65.2458 17.0043C65.1238 17.0523 64.9798 17.0763 64.8138 17.0763C64.5618 17.0763 64.3638 17.0223 64.2198 16.9143C64.0757 16.8063 64.0037 16.6593 64.0037 16.4733C64.0037 16.3473 64.0377 16.2413 64.1057 16.1553C64.1757 16.0673 64.2768 16.0013 64.4088 15.9573C64.3008 15.9153 64.2188 15.8553 64.1627 15.7773C64.1067 15.6973 64.0787 15.6033 64.0787 15.4953C64.0787 15.3253 64.1447 15.1903 64.2768 15.0903C64.4108 14.9903 64.5898 14.9403 64.8138 14.9403C64.9618 14.9403 65.0908 14.9633 65.2008 15.0093C65.3128 15.0533 65.3998 15.1173 65.4618 15.2013C65.5238 15.2853 65.5548 15.3833 65.5548 15.4953C65.5548 15.6033 65.5258 15.6973 65.4678 15.7773C65.4098 15.8553 65.3268 15.9153 65.2188 15.9573ZM64.2948 15.5013C64.2948 15.6173 64.3408 15.7093 64.4328 15.7773C64.5248 15.8453 64.6518 15.8793 64.8138 15.8793C64.9758 15.8793 65.1028 15.8453 65.1948 15.7773C65.2888 15.7093 65.3358 15.6183 65.3358 15.5043C65.3358 15.3863 65.2878 15.2933 65.1918 15.2253C65.0978 15.1573 64.9718 15.1233 64.8138 15.1233C64.6538 15.1233 64.5268 15.1573 64.4328 15.2253C64.3408 15.2933 64.2948 15.3853 64.2948 15.5013ZM64.8138 16.8933C64.9998 16.8933 65.1448 16.8553 65.2488 16.7793C65.3548 16.7033 65.4078 16.6003 65.4078 16.4703C65.4078 16.3403 65.3548 16.2383 65.2488 16.1643C65.1448 16.0883 64.9998 16.0503 64.8138 16.0503C64.6298 16.0503 64.4848 16.0883 64.3788 16.1643C64.2748 16.2383 64.2228 16.3403 64.2228 16.4703C64.2228 16.6023 64.2748 16.7063 64.3788 16.7823C64.4828 16.8563 64.6278 16.8933 64.8138 16.8933Z" fill="#20201F"/>
<path d="M60.2806 69.8826C60.5846 69.8826 60.8056 69.9376 60.9436 70.0476C61.0836 70.1556 61.1536 70.3076 61.1536 70.5036C61.1536 70.6256 61.1246 70.7346 61.0666 70.8306C61.0106 70.9266 60.9256 71.0026 60.8116 71.0586C60.6976 71.1126 60.5576 71.1396 60.3916 71.1396C60.2416 71.1396 60.0986 71.1156 59.9626 71.0676C59.8286 71.0176 59.7206 70.9516 59.6386 70.8696L59.7436 70.6986C59.8136 70.7706 59.9056 70.8296 60.0196 70.8756C60.1336 70.9196 60.2566 70.9416 60.3886 70.9416C60.5626 70.9416 60.6966 70.9026 60.7906 70.8246C60.8866 70.7466 60.9346 70.6426 60.9346 70.5126C60.9346 70.3686 60.8806 70.2596 60.7726 70.1856C60.6666 70.1116 60.4866 70.0746 60.2326 70.0746H59.7856L59.8936 69.0216H61.0426V69.2136H60.0826L60.0106 69.8826H60.2806ZM61.5898 71.1366C61.5458 71.1366 61.5078 71.1206 61.4758 71.0886C61.4458 71.0566 61.4308 71.0176 61.4308 70.9716C61.4308 70.9256 61.4458 70.8876 61.4758 70.8576C61.5078 70.8256 61.5458 70.8096 61.5898 70.8096C61.6338 70.8096 61.6718 70.8256 61.7038 70.8576C61.7358 70.8876 61.7518 70.9256 61.7518 70.9716C61.7518 71.0176 61.7358 71.0566 61.7038 71.0886C61.6718 71.1206 61.6338 71.1366 61.5898 71.1366ZM62.6104 69.0216V71.1216H62.3944V69.2136H61.8994V69.0216H62.6104ZM63.6644 69.8826C63.9684 69.8826 64.1894 69.9376 64.3274 70.0476C64.4674 70.1556 64.5374 70.3076 64.5374 70.5036C64.5374 70.6256 64.5084 70.7346 64.4504 70.8306C64.3944 70.9266 64.3094 71.0026 64.1954 71.0586C64.0814 71.1126 63.9414 71.1396 63.7754 71.1396C63.6254 71.1396 63.4824 71.1156 63.3464 71.0676C63.2124 71.0176 63.1044 70.9516 63.0224 70.8696L63.1274 70.6986C63.1974 70.7706 63.2894 70.8296 63.4034 70.8756C63.5174 70.9196 63.6404 70.9416 63.7724 70.9416C63.9464 70.9416 64.0804 70.9026 64.1744 70.8246C64.2704 70.7466 64.3184 70.6426 64.3184 70.5126C64.3184 70.3686 64.2644 70.2596 64.1564 70.1856C64.0504 70.1116 63.8704 70.0746 63.6164 70.0746H63.1694L63.2774 69.0216H64.4264V69.2136H63.4664L63.3944 69.8826H63.6644Z" fill="#20201F"/>
</g>
<defs>
<clipPath id="clip0_2561_22111">
<rect width="73.8946" height="88.4002" fill="white" transform="translate(4.96277 5.83325)"/>
</clipPath>
</defs>
</svg>
