<svg width="75" height="100" viewBox="0 0 75 100" fill="none" xmlns="http://www.w3.org/2000/svg">
<rect width="74.9999" height="99.9999" fill="white"/>
<g clip-path="url(#clip0_2561_21923)">
<path fill-rule="evenodd" clip-rule="evenodd" d="M67.5925 78.7626H65.166V78.7583H44.0963V94.2967L9.83536 91.1627V94.2967H7.40741V5.35913H67.5925V78.7626Z" fill="#2A2274"/>
<path fill-rule="evenodd" clip-rule="evenodd" d="M7.40741 5.35913H67.5925V78.7583H44.0963V94.2967L7.40741 90.9406V78.7583V5.35913Z" fill="#C6C0E1"/>
<path d="M67.5925 5.35913H65.166V78.7626H67.5925V5.35913Z" fill="#ED9FA6"/>
<path fill-rule="evenodd" clip-rule="evenodd" d="M67.5925 12.6416H65.166V7.78706H9.83536V94.2967H7.40741V5.35913H67.5925V12.6416Z" fill="#CFD0D0"/>
<path fill-rule="evenodd" clip-rule="evenodd" d="M7.40741 5.35913H67.5925V78.7583H44.0963V94.2967L7.40741 90.9406V78.7583V5.35913Z" fill="#FFF9D0"/>
<path d="M67.5925 5.35913H65.166V78.7626H67.5925V5.35913Z" fill="#E4CDA1"/>
<path d="M67.5925 73.8103H65.166V76.2382H67.5925V73.8103Z" fill="#20201F"/>
<path d="M39.7271 70.4119H33.902V76.2384H39.7271V70.4119Z" fill="#20201F"/>
<path d="M67.5925 5.35913H65.166V73.8102H67.5925V5.35913Z" fill="#20201F"/>
<path d="M9.83536 5.35913H7.40741V93.7149H9.83536V5.35913Z" fill="#20201F"/>
<path d="M31.7663 5.35913H7.40741V7.78706H31.7663V5.35913Z" fill="#20201F"/>
<path d="M67.5924 5.35913H41.4752V7.78706H67.5924V5.35913Z" fill="#20201F"/>
<path d="M9.82253 93.7151H7.40741V94.2969H9.82253V93.7151Z" fill="#20201F"/>
<path d="M14.4827 73.8103H9.83539V77.4998H14.4827V73.8103Z" fill="#20201F"/>
<path d="M44.776 73.8103H30.9888V77.497H44.776V73.8103Z" fill="#20201F"/>
<path d="M67.5925 73.8103H65.166V77.4998H67.5925V73.8103Z" fill="#20201F"/>
<path d="M67.5926 77.5H64.5829V78.7629H67.5926V77.5Z" fill="#20201F"/>
<path d="M45.3592 77.4968H30.9887V78.7625H45.3592V77.4968Z" fill="#20201F"/>
<path d="M14.4827 77.5002H9.83539V78.7632H14.4827V77.5002Z" fill="#20201F"/>
<path d="M12.3471 78.7625H11.1821V94.2965H12.3471V78.7625Z" fill="#20201F"/>
<path d="M11.4868 78.3113H8.8421V94.2968H11.4868V78.3113Z" fill="#20201F"/>
<path fill-rule="evenodd" clip-rule="evenodd" d="M42.9314 78.7625H44.0964V94.2965L12.3471 91.3847V90.2142L42.9314 93.0199V78.7625Z" fill="#20201F"/>
<path d="M33.7836 32.7437H29.1442V33.5171H33.7836V32.7437Z" fill="#20201F"/>
<path d="M33.7835 32.7437H33.0073V44.1967H33.7835V32.7437Z" fill="#20201F"/>
<path d="M29.9218 23.5957H29.1442V33.5211H29.9218V23.5957Z" fill="#20201F"/>
<path d="M46.0391 32.7437H42.8942V33.5213H46.0391V32.7437Z" fill="#20201F"/>
<path d="M29.144 32.7437H9.82257V33.5171H29.144V32.7437Z" fill="#20201F"/>
<path d="M29.9218 7.78735H29.1442V17.5694H29.9218V7.78735Z" fill="#20201F"/>
<path d="M46.039 19.657H45.2614V33.5215H46.039V19.657Z" fill="#20201F"/>
<path d="M65.1661 20.5459H46.039V21.3221H65.1661V20.5459Z" fill="#20201F"/>
<path d="M46.039 7.78735H45.2614V8.84898H46.039V7.78735Z" fill="#20201F"/>
<path d="M64.5839 78.1343H45.3577V78.7588H64.5839V78.1343Z" fill="#20201F"/>
<path d="M65.1659 76.875H44.7758V77.4994H65.1659V76.875Z" fill="#20201F"/>
<path d="M65.1659 73.8098H44.7758V74.4343H65.1659V73.8098Z" fill="#20201F"/>
<path d="M30.9885 78.134H22.2504V78.7586H30.9885V78.134Z" fill="#20201F"/>
<path d="M30.9888 76.875H22.2504V77.4994H30.9888V76.875Z" fill="#20201F"/>
<path d="M30.9888 73.8101H22.2504V74.4345H30.9888V73.8101Z" fill="#20201F"/>
<path d="M22.7087 73.8103H22.2504V78.7621H22.7087V73.8103Z" fill="#20201F"/>
<path fill-rule="evenodd" clip-rule="evenodd" d="M40.5936 5.90441C40.5936 5.7522 40.7172 5.62866 40.8694 5.62866C41.0216 5.62866 41.1451 5.7522 41.1451 5.90441V11.7404C41.1451 11.8926 41.0216 12.0162 40.8694 12.0162C40.7172 12.0162 40.5936 11.8926 40.5936 11.7404V5.90441Z" fill="#20201F"/>
<path fill-rule="evenodd" clip-rule="evenodd" d="M32.1548 5.84906C32.1548 5.77294 32.2166 5.71118 32.2927 5.71118C32.3688 5.71118 32.4305 5.77294 32.4305 5.84906C32.4305 7.43128 33.255 8.86611 34.5873 9.9065C35.9292 10.9542 37.7856 11.6026 39.8376 11.6026C39.9137 11.6026 39.9755 11.6644 39.9755 11.7405C39.9755 11.8166 39.9137 11.8783 39.8376 11.8783C37.7236 11.8783 35.807 11.2073 34.4182 10.123C33.0201 9.03114 32.1548 7.52021 32.1548 5.84906Z" fill="#20201F"/>
<path fill-rule="evenodd" clip-rule="evenodd" d="M29.5165 17.864C29.6688 17.864 29.7923 17.9876 29.7923 18.1398C29.7923 18.292 29.6688 18.4155 29.5165 18.4155H23.6805C23.5283 18.4155 23.4048 18.292 23.4048 18.1398C23.4048 17.9876 23.5283 17.864 23.6805 17.864H29.5165Z" fill="#20201F"/>
<path fill-rule="evenodd" clip-rule="evenodd" d="M29.572 23.1093C29.6481 23.1093 29.7098 23.1711 29.7098 23.2472C29.7098 23.3233 29.6481 23.385 29.572 23.385C27.9146 23.385 26.4121 22.8712 25.3229 22.0405C24.2232 21.2018 23.5427 20.0398 23.5427 18.7543C23.5427 18.6782 23.6044 18.6165 23.6805 18.6165C23.7566 18.6165 23.8184 18.6782 23.8184 18.7543C23.8184 19.9495 24.4573 21.0345 25.4897 21.8219C26.5327 22.6172 27.976 23.1093 29.572 23.1093Z" fill="#20201F"/>
<path fill-rule="evenodd" clip-rule="evenodd" d="M15.4018 77.1415C15.4018 77.2937 15.2783 77.4173 15.1261 77.4173C14.9739 77.4173 14.8503 77.2937 14.8503 77.1415V71.3055C14.8503 71.1533 14.9739 71.0298 15.1261 71.0298C15.2783 71.0298 15.4018 71.1533 15.4018 71.3055V77.1415Z" fill="#20201F"/>
<path fill-rule="evenodd" clip-rule="evenodd" d="M21.9023 77.1968C21.9023 77.2729 21.8405 77.3347 21.7644 77.3347C21.6883 77.3347 21.6265 77.2729 21.6265 77.1968C21.6265 75.6075 20.988 74.169 19.9563 73.1282C18.9246 72.0872 17.4988 71.4432 15.9247 71.4432C15.8486 71.4432 15.7868 71.3815 15.7868 71.3054C15.7868 71.2292 15.8486 71.1675 15.9247 71.1675C17.5746 71.1675 19.0694 71.8428 20.1513 72.9343C21.2329 74.0254 21.9023 75.5327 21.9023 77.1968Z" fill="#20201F"/>
<path fill-rule="evenodd" clip-rule="evenodd" d="M24.9212 33.9949H10.2723V39.8545H25.0936V33.9949H24.9212ZM14.8571 34.6877C15.0183 34.6877 15.1652 34.7536 15.2712 34.8603C15.3771 34.9665 15.4432 35.1129 15.4432 35.2736V38.5826C15.4432 38.7433 15.3771 38.8898 15.2712 38.9966C15.1652 39.1026 15.0183 39.1685 14.8571 39.1685H11.5481C11.3874 39.1685 11.2408 39.1025 11.1342 38.9966C11.0282 38.8906 10.9623 38.7439 10.9623 38.5826V35.2736C10.9623 35.1123 11.0282 34.9656 11.1347 34.86C11.2408 34.7537 11.3874 34.6877 11.5481 34.6877H14.8571ZM23.2173 34.9615C23.4403 34.9615 23.643 35.0524 23.7899 35.1989C23.9364 35.3455 24.0273 35.5481 24.0273 35.7715C24.0273 35.9944 23.9364 36.197 23.7894 36.3441C23.6427 36.4906 23.4402 36.5815 23.2173 36.5815C22.9939 36.5815 22.7912 36.4906 22.645 36.3438C22.4981 36.1973 22.4073 35.9946 22.4073 35.7715C22.4073 35.5481 22.4981 35.3455 22.6447 35.1989C22.7912 35.0524 22.9939 34.9615 23.2173 34.9615ZM23.2173 37.0956C23.4883 37.0956 23.734 37.2058 23.9117 37.3835C24.0895 37.5612 24.1996 37.8071 24.1996 38.078C24.1996 38.349 24.0895 38.5947 23.9117 38.7724C23.734 38.9502 23.4883 39.0603 23.2173 39.0603C22.9464 39.0603 22.7005 38.9502 22.5228 38.7724C22.3451 38.5947 22.2349 38.349 22.2349 38.078C22.2349 37.8071 22.3451 37.5612 22.5228 37.3835C22.7005 37.2058 22.9464 37.0956 23.2173 37.0956ZM22.6932 37.5539C22.8271 37.42 23.0127 37.3369 23.2173 37.3369C23.422 37.3369 23.6074 37.42 23.7413 37.5539C23.8752 37.6878 23.9583 37.8734 23.9583 38.078C23.9583 38.2827 23.8752 38.4681 23.7413 38.602C23.6074 38.7359 23.422 38.819 23.2173 38.819C23.0127 38.819 22.8271 38.7359 22.6932 38.602C22.5593 38.4681 22.4762 38.2827 22.4762 38.078C22.4762 37.8734 22.5593 37.6878 22.6932 37.5539ZM21.1104 34.7892C21.3815 34.7892 21.6272 34.8993 21.8049 35.077C21.9826 35.2548 22.0928 35.5004 22.0928 35.7715C22.0928 36.0425 21.9828 36.2884 21.805 36.4661C21.6273 36.6438 21.3815 36.7538 21.1104 36.7538C20.8394 36.7538 20.5937 36.6437 20.416 36.466C20.2382 36.2882 20.1281 36.0425 20.1281 35.7715C20.1281 35.5006 20.2382 35.2548 20.416 35.077C20.5937 34.8993 20.8395 34.7892 21.1104 34.7892ZM20.5864 35.2474C20.7203 35.1136 20.9058 35.0304 21.1104 35.0304C21.3152 35.0304 21.5006 35.1136 21.6345 35.2474C21.7684 35.3813 21.8515 35.5668 21.8515 35.7715C21.8515 35.9762 21.7685 36.1618 21.6346 36.2957C21.5008 36.4296 21.3152 36.5126 21.1104 36.5126C20.9057 36.5126 20.7203 36.4294 20.5864 36.2955C20.4525 36.1617 20.3694 35.9762 20.3694 35.7715C20.3694 35.5669 20.4525 35.3813 20.5864 35.2474ZM21.1104 37.268C21.3335 37.268 21.5362 37.3588 21.683 37.5054C21.8296 37.6519 21.9204 37.8546 21.9204 38.078C21.9204 38.3009 21.8296 38.5034 21.6826 38.6506C21.5359 38.7971 21.3334 38.888 21.1104 38.888C20.8871 38.888 20.6844 38.7971 20.5381 38.6503C20.3913 38.5037 20.3004 38.301 20.3004 38.078C20.3004 37.8546 20.3913 37.6519 20.5378 37.5054C20.6844 37.3588 20.8871 37.268 21.1104 37.268ZM20.7083 37.6758C20.811 37.5731 20.9534 37.5092 21.1104 37.5092C21.2679 37.5092 21.4102 37.5728 21.5126 37.6754C21.6153 37.7785 21.6792 37.9209 21.6792 38.078C21.6792 38.2354 21.6156 38.3777 21.513 38.4801C21.4102 38.5831 21.2679 38.6467 21.1104 38.6467C20.9534 38.6467 20.811 38.5828 20.7083 38.4801C20.6053 38.3777 20.5417 38.2354 20.5417 38.078C20.5417 37.9209 20.6055 37.7785 20.7083 37.6758ZM22.8151 35.3693C22.9178 35.2666 23.0602 35.2028 23.2173 35.2028C23.3747 35.2028 23.517 35.2663 23.6194 35.3689C23.7221 35.472 23.786 35.6145 23.786 35.7715C23.786 35.9289 23.7224 36.0712 23.6198 36.1737C23.517 36.2767 23.3747 36.3402 23.2173 36.3402C23.0602 36.3402 22.9178 36.2764 22.8151 36.1737C22.7121 36.0712 22.6485 35.9289 22.6485 35.7715C22.6485 35.6145 22.7124 35.472 22.8151 35.3693ZM11.5481 35.0324H14.8571C14.9233 35.0324 14.9838 35.0597 15.0275 35.1034C15.0713 35.1467 15.0985 35.2072 15.0985 35.2736V38.5826C15.0985 38.649 15.0713 38.7096 15.0278 38.7531C14.9838 38.7966 14.9233 38.8239 14.8571 38.8239H11.5481C11.4817 38.8239 11.4213 38.7968 11.378 38.7535C11.3343 38.7091 11.307 38.6485 11.307 38.5826V35.2736C11.307 35.2077 11.3343 35.1471 11.378 35.1034C11.4213 35.0594 11.4817 35.0324 11.5481 35.0324ZM19.5843 39.5098V34.3396H24.7489V39.5098H19.5843ZM19.2396 34.3396V39.5098H10.617V34.3396H19.2396Z" fill="#20201F"/>
<path fill-rule="evenodd" clip-rule="evenodd" d="M15.5664 26.7212C15.113 27.0128 14.5311 27.1928 14.0196 27.1928C13.5161 27.1928 13.1232 27.0201 12.8496 26.7373V26.7365C12.7462 26.6293 12.6661 26.5022 12.5983 26.3675V26.9492C12.5983 27.2964 12.4533 27.4999 12.2204 27.618C12.0085 27.7259 11.7282 27.7525 11.4209 27.7525H11.294V27.7493C11.0379 27.7421 10.804 27.7101 10.6219 27.618C10.3892 27.4999 10.2448 27.2964 10.2448 26.9509V24.0983C10.2448 23.7513 10.3892 23.548 10.6219 23.4306C10.804 23.3392 11.0379 23.3062 11.294 23.2993V23.2961H11.4209C11.7282 23.2961 12.0085 23.3227 12.2204 23.4306C12.4533 23.548 12.5983 23.7513 12.5983 24.0983V24.6811C12.6661 24.5464 12.7454 24.4197 12.8496 24.3123C13.1232 24.0289 13.5161 23.856 14.0196 23.856C14.5602 23.856 15.179 24.0576 15.6431 24.379C16.0713 24.6756 16.3719 25.0766 16.3719 25.5243C16.3719 25.9984 16.0348 26.4206 15.5664 26.7212ZM11.0425 25.4421H11.0417V25.4425C11.0417 25.5448 11.0845 25.639 11.1522 25.7068V25.7077C11.2198 25.7752 11.3132 25.8171 11.4167 25.8171C11.5204 25.8171 11.6129 25.7752 11.6806 25.7077H11.6819L11.6817 25.7068C11.7494 25.6386 11.7912 25.5448 11.7912 25.4425C11.7912 25.3386 11.7494 25.2447 11.6819 25.1774C11.6142 25.1099 11.5204 25.0675 11.4167 25.0675C11.3132 25.0675 11.2207 25.1099 11.1522 25.1774C11.0845 25.2447 11.0425 25.3386 11.0425 25.4421ZM11.2343 25.4417V25.4425C11.2343 25.493 11.2545 25.5386 11.2863 25.571H11.2876C11.3202 25.6037 11.3665 25.6245 11.4167 25.6245C11.4679 25.6245 11.5148 25.6043 11.5465 25.5727L11.5473 25.5713C11.5791 25.5386 11.5997 25.493 11.5997 25.4425C11.5997 25.3903 11.5791 25.3449 11.5473 25.3124C11.5148 25.2805 11.4679 25.2604 11.4167 25.2604C11.3657 25.2604 11.3193 25.2805 11.2876 25.3139C11.2536 25.3457 11.2331 25.3918 11.2331 25.4417H11.2343ZM12.345 24.0983C12.345 23.8642 12.2531 23.7304 12.1073 23.6558C11.9562 23.5806 11.7467 23.5552 11.5098 23.5508H11.4209C11.148 23.5508 10.9034 23.5716 10.7351 23.6558C10.5892 23.7304 10.4984 23.8644 10.4984 24.0983V26.9509C10.4984 27.1844 10.5892 27.3177 10.7351 27.3923C10.9034 27.4773 11.148 27.4978 11.4209 27.4978H11.5196C11.7515 27.4926 11.9595 27.4676 12.1073 27.3927C12.2543 27.3177 12.345 27.1833 12.345 26.9492V24.0983ZM15.4997 24.5865C15.0761 24.2928 14.5118 24.1092 14.0196 24.1092C13.5895 24.1092 13.2586 24.2528 13.0315 24.4874C12.7829 24.7439 12.6544 25.1134 12.6544 25.5243C12.6544 25.9358 12.7829 26.3049 13.0315 26.5622C13.2586 26.7962 13.5895 26.9396 14.0196 26.9396C14.4845 26.9396 15.0155 26.7751 15.4305 26.5086C15.8304 26.2518 16.1185 25.9022 16.1185 25.5243C16.1185 25.169 15.8623 24.8388 15.4997 24.5865Z" fill="#20201F"/>
<path fill-rule="evenodd" clip-rule="evenodd" d="M10.1698 20.8109L10.1689 17.651C10.1689 16.5942 12.3564 16.7187 12.5024 16.7296C13.0088 16.7296 13.4682 16.9362 13.8006 17.269C14.1324 17.601 14.3382 18.0612 14.3382 18.5675V19.9084C14.3382 20.4157 14.1328 20.8753 13.8006 21.2083C13.4682 21.54 13.008 21.7458 12.5015 21.7481C12.3531 21.7548 10.1689 21.8636 10.1698 20.8109ZM12.3007 19.2374H12.3011C12.3022 19.3485 12.3459 19.4511 12.419 19.5243C12.4933 19.5963 12.5946 19.6407 12.7052 19.6407C12.8169 19.6407 12.9183 19.596 12.9913 19.5228C13.0645 19.4497 13.1093 19.3485 13.1093 19.237C13.1093 19.1261 13.0645 19.0248 12.9913 18.9517V18.9504H12.9904C12.9175 18.8773 12.8169 18.8316 12.7052 18.8316C12.5946 18.8316 12.4919 18.8773 12.419 18.9504V18.9508C12.3459 19.0238 12.3 19.1261 12.3 19.237L12.3007 19.2374ZM12.5068 19.2381C12.5068 19.2909 12.5286 19.3407 12.5651 19.3762C12.5998 19.411 12.6498 19.4333 12.7052 19.4333C12.7603 19.4333 12.8104 19.4119 12.8461 19.3772C12.8804 19.3414 12.903 19.2927 12.9025 19.237C12.9025 19.1813 12.8808 19.1332 12.8461 19.0975L12.8453 19.0966C12.8104 19.0612 12.7603 19.0396 12.7052 19.0396C12.6507 19.0396 12.6008 19.0626 12.5651 19.0969L12.5647 19.0977C12.5297 19.1326 12.5086 19.1824 12.5086 19.2362L12.509 19.2381H12.5068ZM10.9399 19.2374C10.9399 19.7468 11.0917 20.2093 11.3353 20.5455C11.5901 20.8949 11.946 21.1121 12.3405 21.1123C12.7365 21.1123 13.0923 20.8949 13.3477 20.5455C13.5927 20.208 13.7431 19.7453 13.7431 19.2357V19.2335C13.7418 18.7253 13.5903 18.2639 13.3462 17.9266C13.0915 17.5788 12.7365 17.3621 12.3427 17.3618L12.3405 17.3621C11.9451 17.3621 11.5912 17.5788 11.3353 17.9294C11.0912 18.2648 10.9399 18.7271 10.9403 19.2362L10.9399 19.2374ZM11.2248 19.2374C11.2257 19.6838 11.3566 20.0872 11.5672 20.379C11.7685 20.6543 12.0427 20.8257 12.3405 20.8257C12.6402 20.8257 12.9145 20.6543 13.1166 20.3768C13.3263 20.0866 13.4569 19.6838 13.4569 19.2357V19.2349L13.4577 19.2335C13.4569 18.7867 13.3263 18.3849 13.1153 18.0947C12.9149 17.8201 12.6402 17.6488 12.3427 17.648L12.3405 17.6488C12.0422 17.6483 11.7676 17.8198 11.5672 18.0957C11.3575 18.386 11.2257 18.7889 11.2261 19.2357V19.2374H11.2248ZM10.4551 20.81C10.4551 21.5945 12.4858 21.4609 12.4911 21.4609L12.5015 21.4596C12.9295 21.4596 13.3166 21.2869 13.5982 21.0071C13.8788 20.7249 14.0519 20.3371 14.0519 19.9084V18.5689C14.0519 18.1387 13.8796 17.7502 13.5982 17.4692C13.318 17.1886 12.9295 17.0159 12.5015 17.015L12.4915 17.0146C12.4864 17.0146 10.4551 16.8707 10.4551 17.6519V20.81Z" fill="#20201F"/>
<path fill-rule="evenodd" clip-rule="evenodd" d="M10.6176 8.57665H27.0879V15.3145H10.6176V8.57665ZM13.8269 12.6005C14.0078 12.6005 14.1717 12.5271 14.2901 12.4087C14.4085 12.2896 14.4818 12.126 14.4818 11.9456C14.4818 11.7651 14.4085 11.6015 14.2901 11.483C14.171 11.364 14.0075 11.2907 13.8269 11.2907C13.6465 11.2907 13.4828 11.364 13.3643 11.4824C13.2454 11.6008 13.172 11.7647 13.172 11.9456C13.172 12.1264 13.2454 12.2903 13.3638 12.4087C13.4822 12.5271 13.646 12.6005 13.8269 12.6005ZM14.105 12.2236C14.1759 12.1528 14.2199 12.0542 14.2199 11.9456C14.2199 11.8368 14.1759 11.7383 14.105 11.6675C14.0342 11.5966 13.9357 11.5526 13.8269 11.5526C13.7182 11.5526 13.6198 11.5966 13.549 11.6676C13.478 11.7387 13.434 11.8371 13.434 11.9456C13.434 12.054 13.478 12.1524 13.549 12.2235C13.6201 12.2945 13.7185 12.3385 13.8269 12.3385C13.9354 12.3385 14.0337 12.2945 14.105 12.2236ZM11.8607 15.1216L23.4873 14.8597C25.2335 14.8597 26.6634 13.6917 26.6634 11.9456C26.6634 10.1994 25.2335 9.03138 23.4873 9.03138L11.8607 8.76943C11.6354 8.76943 11.4306 8.86167 11.2824 9.00979C11.1343 9.1586 11.0421 9.36329 11.0421 9.58806V14.303C11.0421 14.5275 11.1341 14.7321 11.2824 14.8806C11.4316 15.0296 11.6362 15.1216 11.8607 15.1216ZM23.4873 14.5322C25.0546 14.5322 26.336 13.5128 26.336 11.9456C26.336 10.3783 25.0546 9.35883 23.4873 9.35883L11.8607 9.09688C11.7259 9.09688 11.603 9.1523 11.5133 9.24137C11.4246 9.32988 11.3695 9.45277 11.3695 9.58806V14.303C11.3695 14.4383 11.4246 14.561 11.514 14.6504C11.6027 14.7391 11.7254 14.7942 11.8607 14.7942L23.4873 14.5322ZM27.1225 8.25586H10.583C10.5008 8.25586 10.4257 8.28848 10.3713 8.34023C10.3165 8.39208 10.2828 8.4644 10.2828 8.54364V15.3475C10.2828 15.4267 10.3165 15.499 10.3706 15.5509C10.425 15.6028 10.5003 15.6352 10.583 15.6352H27.1225C27.2051 15.6352 27.2804 15.6028 27.3348 15.5509C27.3886 15.4983 27.4227 15.4263 27.4227 15.3475V8.54364C27.4227 8.46478 27.3888 8.39286 27.3348 8.34073C27.2797 8.28835 27.2048 8.25586 27.1225 8.25586Z" fill="#20201F"/>
<path d="M48.5775 43.6213H48.2328V60.0116H48.5775V43.6213Z" fill="#20201F"/>
<path d="M52.2654 44.897V47.2273H52.0257V45.1101H51.4764V44.897H52.2654ZM53.4349 45.8524C53.7723 45.8524 54.0175 45.9135 54.1706 46.0355C54.326 46.1554 54.4037 46.324 54.4037 46.5415C54.4037 46.6769 54.3715 46.7979 54.3071 46.9044C54.245 47.0109 54.1507 47.0952 54.0242 47.1574C53.8977 47.2173 53.7423 47.2473 53.5581 47.2473C53.3917 47.2473 53.233 47.2206 53.0821 47.1674C52.9334 47.1119 52.8135 47.0387 52.7225 46.9477L52.8391 46.7579C52.9167 46.8378 53.0188 46.9033 53.1453 46.9543C53.2718 47.0031 53.4083 47.0276 53.5548 47.0276C53.7479 47.0276 53.8966 46.9843 54.0009 46.8977C54.1074 46.8112 54.1607 46.6958 54.1607 46.5515C54.1607 46.3917 54.1007 46.2708 53.9809 46.1887C53.8633 46.1066 53.6635 46.0655 53.3817 46.0655H52.8857L53.0055 44.897H54.2805V45.1101H53.2152L53.1353 45.8524H53.4349ZM54.8877 47.2439C54.8389 47.2439 54.7967 47.2262 54.7612 47.1907C54.7279 47.1552 54.7113 47.1119 54.7113 47.0608C54.7113 47.0098 54.7279 46.9676 54.7612 46.9343C54.7967 46.8988 54.8389 46.8811 54.8877 46.8811C54.9365 46.8811 54.9787 46.8988 55.0142 46.9343C55.0497 46.9676 55.0675 47.0098 55.0675 47.0608C55.0675 47.1119 55.0497 47.1552 55.0142 47.1907C54.9787 47.2262 54.9365 47.2439 54.8877 47.2439ZM56.343 45.8325C56.4962 45.8325 56.6315 45.8613 56.7492 45.919C56.869 45.9767 56.9622 46.0588 57.0288 46.1654C57.0954 46.2697 57.1287 46.3917 57.1287 46.5315C57.1287 46.6736 57.0943 46.799 57.0255 46.9077C56.9567 47.0165 56.8612 47.1008 56.7392 47.1607C56.6193 47.2184 56.484 47.2473 56.333 47.2473C56.0246 47.2473 55.7882 47.1463 55.624 46.9443C55.4598 46.7402 55.3776 46.4528 55.3776 46.0821C55.3776 45.8225 55.422 45.6028 55.5108 45.423C55.5996 45.2432 55.7238 45.1079 55.8836 45.0169C56.0434 44.9237 56.2298 44.8771 56.4429 44.8771C56.6737 44.8771 56.8579 44.9192 56.9955 45.0036L56.899 45.1966C56.788 45.1234 56.6371 45.0868 56.4462 45.0868C56.1888 45.0868 55.9868 45.1689 55.8404 45.3331C55.6939 45.4951 55.6207 45.7315 55.6207 46.0422C55.6207 46.0977 55.624 46.1609 55.6306 46.2319C55.6883 46.1054 55.7804 46.0078 55.9069 45.939C56.0334 45.868 56.1788 45.8325 56.343 45.8325ZM56.3231 47.0442C56.4917 47.0442 56.6282 46.9987 56.7325 46.9077C56.839 46.8145 56.8923 46.6913 56.8923 46.5382C56.8923 46.3851 56.839 46.263 56.7325 46.172C56.6282 46.081 56.4862 46.0355 56.3064 46.0355C56.1888 46.0355 56.0845 46.0577 55.9935 46.1021C55.9047 46.1465 55.8348 46.2075 55.7838 46.2852C55.7327 46.3629 55.7072 46.4494 55.7072 46.5449C55.7072 46.6336 55.7305 46.7157 55.7771 46.7912C55.8259 46.8667 55.897 46.9277 55.9902 46.9743C56.0834 47.0209 56.1943 47.0442 56.3231 47.0442ZM58.3716 45.8325C58.5247 45.8325 58.6601 45.8613 58.7777 45.919C58.8976 45.9767 58.9908 46.0588 59.0574 46.1654C59.1239 46.2697 59.1572 46.3917 59.1572 46.5315C59.1572 46.6736 59.1228 46.799 59.054 46.9077C58.9852 47.0165 58.8898 47.1008 58.7678 47.1607C58.6479 47.2184 58.5125 47.2473 58.3616 47.2473C58.0531 47.2473 57.8168 47.1463 57.6526 46.9443C57.4883 46.7402 57.4062 46.4528 57.4062 46.0821C57.4062 45.8225 57.4506 45.6028 57.5394 45.423C57.6281 45.2432 57.7524 45.1079 57.9122 45.0169C58.072 44.9237 58.2584 44.8771 58.4715 44.8771C58.7023 44.8771 58.8865 44.9192 59.0241 45.0036L58.9275 45.1966C58.8166 45.1234 58.6657 45.0868 58.4748 45.0868C58.2174 45.0868 58.0154 45.1689 57.8689 45.3331C57.7225 45.4951 57.6492 45.7315 57.6492 46.0422C57.6492 46.0977 57.6526 46.1609 57.6592 46.2319C57.7169 46.1054 57.809 46.0078 57.9355 45.939C58.062 45.868 58.2074 45.8325 58.3716 45.8325ZM58.3516 47.0442C58.5203 47.0442 58.6568 46.9987 58.7611 46.9077C58.8676 46.8145 58.9209 46.6913 58.9209 46.5382C58.9209 46.3851 58.8676 46.263 58.7611 46.172C58.6568 46.081 58.5148 46.0355 58.335 46.0355C58.2174 46.0355 58.1131 46.0577 58.0221 46.1021C57.9333 46.1465 57.8634 46.2075 57.8123 46.2852C57.7613 46.3629 57.7358 46.4494 57.7358 46.5449C57.7358 46.6336 57.7591 46.7157 57.8057 46.7912C57.8545 46.8667 57.9255 46.9277 58.0187 46.9743C58.1119 47.0209 58.2229 47.0442 58.3516 47.0442Z" fill="#20201F"/>
<path d="M52.4734 50.6433C52.7175 50.6566 52.9028 50.7232 53.0293 50.843C53.158 50.9606 53.2224 51.1149 53.2224 51.3057C53.2224 51.4389 53.1902 51.5576 53.1259 51.6619C53.0615 51.764 52.9661 51.845 52.8396 51.9049C52.7131 51.9649 52.5588 51.9948 52.3768 51.9948C52.2082 51.9948 52.0484 51.9682 51.8975 51.9149C51.7488 51.8595 51.6289 51.7862 51.538 51.6952L51.6545 51.5055C51.7321 51.5854 51.8353 51.6508 51.9641 51.7019C52.0928 51.7507 52.2304 51.7751 52.3768 51.7751C52.5677 51.7751 52.7153 51.7341 52.8196 51.6519C52.9239 51.5676 52.9761 51.4522 52.9761 51.3057C52.9761 51.1615 52.9239 51.0483 52.8196 50.9662C52.7153 50.8841 52.5577 50.843 52.3469 50.843H52.1804V50.6666L52.8263 49.8576H51.6345V49.6446H53.1325V49.8144L52.4734 50.6433ZM55.1624 49.6446V49.8144L54.187 51.9749H53.9273L54.8861 49.8576H53.6876V50.2937H53.4513V49.6446H55.1624ZM55.4824 51.9915C55.4336 51.9915 55.3914 51.9737 55.3559 51.9382C55.3226 51.9027 55.306 51.8595 55.306 51.8084C55.306 51.7574 55.3226 51.7152 55.3559 51.6819C55.3914 51.6464 55.4336 51.6286 55.4824 51.6286C55.5312 51.6286 55.5734 51.6464 55.6089 51.6819C55.6444 51.7152 55.6622 51.7574 55.6622 51.8084C55.6622 51.8595 55.6444 51.9027 55.6089 51.9382C55.5734 51.9737 55.5312 51.9915 55.4824 51.9915ZM56.9011 51.9948C56.7213 51.9948 56.5604 51.9471 56.4184 51.8517C56.2786 51.7563 56.1687 51.6198 56.0888 51.4422C56.0112 51.2625 55.9723 51.0516 55.9723 50.8097C55.9723 50.5678 56.0112 50.3581 56.0888 50.1806C56.1687 50.0008 56.2786 49.8632 56.4184 49.7678C56.5604 49.6723 56.7213 49.6246 56.9011 49.6246C57.0809 49.6246 57.2406 49.6723 57.3805 49.7678C57.5225 49.8632 57.6335 50.0008 57.7134 50.1806C57.7932 50.3581 57.8332 50.5678 57.8332 50.8097C57.8332 51.0516 57.7932 51.2625 57.7134 51.4422C57.6335 51.6198 57.5225 51.7563 57.3805 51.8517C57.2406 51.9471 57.0809 51.9948 56.9011 51.9948ZM56.9011 51.7751C57.0365 51.7751 57.1552 51.7374 57.2573 51.6619C57.3616 51.5865 57.4426 51.4766 57.5003 51.3324C57.558 51.1881 57.5869 51.0139 57.5869 50.8097C57.5869 50.6055 57.558 50.4313 57.5003 50.2871C57.4426 50.1428 57.3616 50.033 57.2573 49.9575C57.1552 49.8821 57.0365 49.8443 56.9011 49.8443C56.7657 49.8443 56.6459 49.8821 56.5416 49.9575C56.4395 50.033 56.3596 50.1428 56.3019 50.2871C56.2442 50.4313 56.2153 50.6055 56.2153 50.8097C56.2153 51.0139 56.2442 51.1881 56.3019 51.3324C56.3596 51.4766 56.4395 51.5865 56.5416 51.6619C56.6459 51.7374 56.7657 51.7751 56.9011 51.7751ZM58.8158 49.6446V51.9749H58.5761V49.8576H58.0268V49.6446H58.8158Z" fill="#20201F"/>
<path d="M52.3469 55.3916C52.591 55.4049 52.7764 55.4715 52.9029 55.5913C53.0316 55.7089 53.0959 55.8632 53.0959 56.054C53.0959 56.1872 53.0638 56.3059 52.9994 56.4102C52.935 56.5123 52.8396 56.5933 52.7131 56.6532C52.5866 56.7132 52.4324 56.7431 52.2504 56.7431C52.0817 56.7431 51.9219 56.7165 51.771 56.6632C51.6223 56.6077 51.5025 56.5345 51.4115 56.4435L51.528 56.2538C51.6057 56.3337 51.7089 56.3991 51.8376 56.4502C51.9663 56.499 52.1039 56.5234 52.2504 56.5234C52.4412 56.5234 52.5888 56.4824 52.6931 56.4002C52.7974 56.3159 52.8496 56.2005 52.8496 56.054C52.8496 55.9098 52.7974 55.7966 52.6931 55.7145C52.5888 55.6324 52.4313 55.5913 52.2204 55.5913H52.054V55.4149L52.6998 54.6059H51.508V54.3929H53.0061V54.5627L52.3469 55.3916ZM54.1594 54.3729C54.4679 54.3729 54.7042 54.475 54.8684 54.6792C55.0327 54.8811 55.1148 55.1674 55.1148 55.538C55.1148 55.7977 55.0704 56.0174 54.9816 56.1972C54.8929 56.3769 54.7686 56.5134 54.6088 56.6066C54.449 56.6976 54.2626 56.7431 54.0495 56.7431C53.8187 56.7431 53.6345 56.701 53.4969 56.6166L53.5935 56.4235C53.7044 56.4968 53.8553 56.5334 54.0462 56.5334C54.3036 56.5334 54.5056 56.4524 54.6521 56.2904C54.7985 56.1262 54.8718 55.8887 54.8718 55.578C54.8718 55.5203 54.8684 55.457 54.8618 55.3882C54.8041 55.5147 54.712 55.6135 54.5855 55.6845C54.459 55.7533 54.3136 55.7877 54.1494 55.7877C53.9963 55.7877 53.8598 55.7589 53.7399 55.7012C53.6223 55.6435 53.5302 55.5625 53.4636 55.4581C53.397 55.3516 53.3638 55.2284 53.3638 55.0886C53.3638 54.9466 53.3982 54.8212 53.467 54.7125C53.5358 54.6037 53.6301 54.5205 53.7499 54.4628C53.872 54.4029 54.0085 54.3729 54.1594 54.3729ZM54.186 55.5846C54.3036 55.5846 54.4068 55.5625 54.4956 55.5181C54.5866 55.4737 54.6576 55.4127 54.7087 55.335C54.7597 55.2573 54.7852 55.1707 54.7852 55.0753C54.7852 54.9865 54.7608 54.9044 54.712 54.829C54.6654 54.7535 54.5955 54.6925 54.5023 54.6459C54.409 54.5993 54.2981 54.576 54.1694 54.576C54.0007 54.576 53.8631 54.6226 53.7566 54.7158C53.6523 54.8068 53.6001 54.9288 53.6001 55.082C53.6001 55.2351 53.6523 55.3572 53.7566 55.4482C53.8631 55.5392 54.0062 55.5846 54.186 55.5846ZM55.6062 56.7398C55.5574 56.7398 55.5153 56.722 55.4797 56.6865C55.4465 56.651 55.4298 56.6077 55.4298 56.5567C55.4298 56.5057 55.4465 56.4635 55.4797 56.4302C55.5153 56.3947 55.5574 56.3769 55.6062 56.3769C55.6551 56.3769 55.6972 56.3947 55.7327 56.4302C55.7683 56.4635 55.786 56.5057 55.786 56.5567C55.786 56.6077 55.7683 56.651 55.7327 56.6865C55.6972 56.722 55.6551 56.7398 55.6062 56.7398ZM56.7387 54.3929V56.7231H56.499V54.6059H55.9498V54.3929H56.7387ZM58.2245 56.7431C58.0448 56.7431 57.8839 56.6954 57.7418 56.6C57.602 56.5045 57.4922 56.3681 57.4123 56.1905C57.3346 56.0108 57.2958 55.7999 57.2958 55.558C57.2958 55.3161 57.3346 55.1064 57.4123 54.9288C57.4922 54.7491 57.602 54.6115 57.7418 54.5161C57.8839 54.4206 58.0448 54.3729 58.2245 54.3729C58.4043 54.3729 58.5641 54.4206 58.7039 54.5161C58.8459 54.6115 58.9569 54.7491 59.0368 54.9288C59.1167 55.1064 59.1566 55.3161 59.1566 55.558C59.1566 55.7999 59.1167 56.0108 59.0368 56.1905C58.9569 56.3681 58.8459 56.5045 58.7039 56.6C58.5641 56.6954 58.4043 56.7431 58.2245 56.7431ZM58.2245 56.5234C58.3599 56.5234 58.4786 56.4857 58.5807 56.4102C58.685 56.3348 58.766 56.2249 58.8237 56.0807C58.8814 55.9364 58.9103 55.7622 58.9103 55.558C58.9103 55.3538 58.8814 55.1796 58.8237 55.0354C58.766 54.8911 58.685 54.7813 58.5807 54.7058C58.4786 54.6303 58.3599 54.5926 58.2245 54.5926C58.0892 54.5926 57.9693 54.6303 57.865 54.7058C57.7629 54.7813 57.683 54.8911 57.6253 55.0354C57.5676 55.1796 57.5388 55.3538 57.5388 55.558C57.5388 55.7622 57.5676 55.9364 57.6253 56.0807C57.683 56.2249 57.7629 56.3348 57.865 56.4102C57.9693 56.4857 58.0892 56.5234 58.2245 56.5234Z" fill="#20201F"/>
<path d="M45.3456 48.5285V55.0532H43.8356V49.7402H42.5306V48.5285H45.3456Z" fill="#20201F"/>
<path d="M49.2196 26.9218H48.3008V28.2866H47.7848V26.4957H49.2196V26.9218ZM50.2589 28.3133C50.0703 28.3133 49.9005 28.2744 49.7496 28.1967C49.6009 28.1168 49.4844 28.007 49.4001 27.8672C49.3157 27.7274 49.2736 27.5687 49.2736 27.3911C49.2736 27.2136 49.3157 27.0549 49.4001 26.9151C49.4844 26.7753 49.6009 26.6665 49.7496 26.5889C49.9005 26.509 50.0703 26.469 50.2589 26.469C50.4476 26.469 50.6162 26.509 50.7649 26.5889C50.9136 26.6665 51.0301 26.7753 51.1145 26.9151C51.1988 27.0549 51.241 27.2136 51.241 27.3911C51.241 27.5687 51.1988 27.7274 51.1145 27.8672C51.0301 28.007 50.9136 28.1168 50.7649 28.1967C50.6162 28.2744 50.4476 28.3133 50.2589 28.3133ZM50.2589 27.8871C50.3921 27.8871 50.5008 27.8428 50.5852 27.754C50.6717 27.663 50.715 27.542 50.715 27.3911C50.715 27.2402 50.6717 27.1204 50.5852 27.0316C50.5008 26.9406 50.3921 26.8951 50.2589 26.8951C50.1258 26.8951 50.0159 26.9406 49.9294 27.0316C49.8428 27.1204 49.7995 27.2402 49.7995 27.3911C49.7995 27.542 49.8428 27.663 49.9294 27.754C50.0159 27.8428 50.1258 27.8871 50.2589 27.8871ZM52.4504 28.3133C52.2595 28.3133 52.0875 28.2744 51.9344 28.1967C51.7835 28.1168 51.6647 28.007 51.5782 27.8672C51.4938 27.7274 51.4517 27.5687 51.4517 27.3911C51.4517 27.2136 51.4938 27.0549 51.5782 26.9151C51.6647 26.7753 51.7835 26.6665 51.9344 26.5889C52.0875 26.509 52.2595 26.469 52.4504 26.469C52.639 26.469 52.8032 26.509 52.943 26.5889C53.0851 26.6665 53.1883 26.7786 53.2526 26.9251L52.8498 27.1415C52.7566 26.9772 52.6224 26.8951 52.447 26.8951C52.3117 26.8951 52.1996 26.9395 52.1108 27.0283C52.022 27.1171 51.9777 27.238 51.9777 27.3911C51.9777 27.5443 52.022 27.6652 52.1108 27.754C52.1996 27.8428 52.3117 27.8871 52.447 27.8871C52.6246 27.8871 52.7588 27.805 52.8498 27.6408L53.2526 27.8605C53.1883 28.0026 53.0851 28.1135 52.943 28.1934C52.8032 28.2733 52.639 28.3133 52.4504 28.3133ZM55.0664 26.9218H54.4605V28.2866H53.9445V26.9218H53.3387V26.4957H55.0664V26.9218ZM55.3432 26.4957H55.8592V27.5609L56.7314 26.4957H57.2074V28.2866H56.6914V27.2214L55.8226 28.2866H55.3432V26.4957ZM57.7066 26.4957H58.2226V27.1947H59.0016V26.4957H59.5209V28.2866H59.0016V27.6175H58.2226V28.2866H57.7066V26.4957ZM60.7138 26.469C60.9912 26.469 61.2042 26.5356 61.3529 26.6688C61.5016 26.7997 61.576 26.9983 61.576 27.2646V28.2866H61.09V28.0636C60.9923 28.23 60.8103 28.3133 60.544 28.3133C60.4064 28.3133 60.2866 28.29 60.1845 28.2433C60.0846 28.1967 60.008 28.1324 59.9548 28.0503C59.9015 27.9682 59.8749 27.8749 59.8749 27.7706C59.8749 27.6042 59.937 27.4732 60.0613 27.3778C60.1878 27.2824 60.382 27.2347 60.6439 27.2347H61.0567C61.0567 27.1215 61.0223 27.0349 60.9535 26.975C60.8847 26.9129 60.7815 26.8818 60.6439 26.8818C60.5484 26.8818 60.4541 26.8973 60.3609 26.9284C60.2699 26.9573 60.1923 26.9972 60.1279 27.0483L59.9415 26.6854C60.0391 26.6166 60.1556 26.5633 60.291 26.5256C60.4286 26.4879 60.5695 26.469 60.7138 26.469ZM60.6738 27.9637C60.7626 27.9637 60.8414 27.9437 60.9102 27.9038C60.979 27.8616 61.0278 27.8006 61.0567 27.7207V27.5376H60.7005C60.4874 27.5376 60.3809 27.6075 60.3809 27.7473C60.3809 27.8139 60.4064 27.8672 60.4575 27.9071C60.5107 27.9448 60.5828 27.9637 60.6738 27.9637ZM63.6183 26.4957V28.2866H63.1556V27.774H62.7728L62.4332 28.2866H61.8806L62.2901 27.7007C62.1658 27.6519 62.0704 27.582 62.0038 27.491C61.9394 27.3978 61.9073 27.2857 61.9073 27.1548C61.9073 26.9439 61.9827 26.7819 62.1336 26.6688C62.2868 26.5534 62.4965 26.4957 62.7628 26.4957H63.6183ZM62.7728 26.9184C62.6618 26.9184 62.5775 26.9384 62.5198 26.9783C62.4643 27.0183 62.4366 27.0827 62.4366 27.1714C62.4366 27.2602 62.4632 27.3257 62.5165 27.3678C62.5719 27.4078 62.6552 27.4278 62.7661 27.4278H63.1556V26.9184H62.7728Z" fill="black"/>
<path d="M52.5615 30.6771V33.0073H52.0223V31.1098H51.5562V30.6771H52.5615ZM53.7653 31.5526C54.0937 31.5526 54.3356 31.618 54.491 31.749C54.6486 31.8799 54.7274 32.0552 54.7274 32.275C54.7274 32.417 54.6918 32.5468 54.6208 32.6644C54.5498 32.7798 54.4411 32.8731 54.2946 32.9441C54.1503 33.0129 53.9717 33.0473 53.7586 33.0473C53.5944 33.0473 53.4324 33.0262 53.2726 32.984C53.115 32.9396 52.9808 32.8775 52.8698 32.7976L53.0829 32.3848C53.1716 32.4514 53.2737 32.5035 53.3891 32.5413C53.5045 32.5768 53.6233 32.5945 53.7453 32.5945C53.8807 32.5945 53.9872 32.5679 54.0649 32.5146C54.1426 32.4614 54.1814 32.387 54.1814 32.2916C54.1814 32.1917 54.1404 32.1163 54.0582 32.0652C53.9783 32.0142 53.8385 31.9887 53.6388 31.9887H53.0429L53.1628 30.6771H54.5842V31.1098H53.6122L53.5755 31.5526H53.7653ZM55.2524 33.034C55.1614 33.034 55.0849 33.0029 55.0227 32.9407C54.9606 32.8786 54.9295 32.8009 54.9295 32.7077C54.9295 32.6123 54.9606 32.5357 55.0227 32.478C55.0849 32.4181 55.1614 32.3881 55.2524 32.3881C55.3434 32.3881 55.42 32.4181 55.4821 32.478C55.5443 32.5357 55.5753 32.6123 55.5753 32.7077C55.5753 32.8009 55.5443 32.8786 55.4821 32.9407C55.42 33.0029 55.3434 33.034 55.2524 33.034ZM56.897 31.5459C57.0457 31.5459 57.1811 31.5759 57.3031 31.6358C57.4252 31.6957 57.5217 31.7812 57.5927 31.8921C57.6638 32.0009 57.6993 32.1274 57.6993 32.2716C57.6993 32.427 57.6604 32.5635 57.5828 32.6811C57.5051 32.7987 57.3986 32.8897 57.2632 32.9541C57.13 33.0162 56.9813 33.0473 56.8171 33.0473C56.4909 33.0473 56.2356 32.9474 56.0514 32.7477C55.8672 32.5479 55.7751 32.2628 55.7751 31.8921C55.7751 31.628 55.8251 31.4017 55.9249 31.213C56.0248 31.0244 56.1635 30.8812 56.3411 30.7836C56.5208 30.6859 56.7283 30.6371 56.9636 30.6371C57.0879 30.6371 57.2066 30.6515 57.3198 30.6804C57.4352 30.707 57.5328 30.7459 57.6127 30.7969L57.413 31.1931C57.2976 31.1154 57.1522 31.0765 56.9769 31.0765C56.7794 31.0765 56.6229 31.1342 56.5075 31.2496C56.3921 31.365 56.33 31.5326 56.3211 31.7523C56.4587 31.6147 56.6507 31.5459 56.897 31.5459ZM56.7871 32.6445C56.9025 32.6445 56.9958 32.6134 57.0668 32.5513C57.14 32.4891 57.1766 32.4048 57.1766 32.2983C57.1766 32.1917 57.14 32.1074 57.0668 32.0453C56.9958 31.9809 56.9003 31.9487 56.7805 31.9487C56.6629 31.9487 56.5663 31.982 56.4909 32.0486C56.4154 32.1129 56.3777 32.1962 56.3777 32.2983C56.3777 32.4003 56.4143 32.4836 56.4875 32.5479C56.5608 32.6123 56.6606 32.6445 56.7871 32.6445ZM59.0166 31.5459C59.1653 31.5459 59.3007 31.5759 59.4227 31.6358C59.5448 31.6957 59.6413 31.7812 59.7123 31.8921C59.7834 32.0009 59.8189 32.1274 59.8189 32.2716C59.8189 32.427 59.78 32.5635 59.7024 32.6811C59.6247 32.7987 59.5182 32.8897 59.3828 32.9541C59.2496 33.0162 59.1009 33.0473 58.9367 33.0473C58.6105 33.0473 58.3552 32.9474 58.171 32.7477C57.9868 32.5479 57.8947 32.2628 57.8947 31.8921C57.8947 31.628 57.9447 31.4017 58.0445 31.213C58.1444 31.0244 58.2831 30.8812 58.4607 30.7836C58.6404 30.6859 58.8479 30.6371 59.0832 30.6371C59.2075 30.6371 59.3262 30.6515 59.4394 30.6804C59.5548 30.707 59.6524 30.7459 59.7323 30.7969L59.5326 31.1931C59.4172 31.1154 59.2718 31.0765 59.0965 31.0765C58.899 31.0765 58.7425 31.1342 58.6271 31.2496C58.5117 31.365 58.4496 31.5326 58.4407 31.7523C58.5783 31.6147 58.7703 31.5459 59.0166 31.5459ZM58.9067 32.6445C59.0221 32.6445 59.1154 32.6134 59.1864 32.5513C59.2596 32.4891 59.2962 32.4048 59.2962 32.2983C59.2962 32.1917 59.2596 32.1074 59.1864 32.0453C59.1154 31.9809 59.0199 31.9487 58.9001 31.9487C58.7825 31.9487 58.6859 31.982 58.6105 32.0486C58.535 32.1129 58.4973 32.1962 58.4973 32.2983C58.4973 32.4003 58.5339 32.4836 58.6071 32.5479C58.6804 32.6123 58.7802 32.6445 58.9067 32.6445Z" fill="black"/>
<path d="M18.5519 52.3243H18.2823V53.0034H17.763V51.2124H18.2823V51.9082H18.5619L19.0479 51.2124H19.6006L18.9747 52.0713L19.6438 53.0034H19.0313L18.5519 52.3243ZM21.5924 51.2124L20.7834 53.1133C20.7013 53.3197 20.5992 53.465 20.4772 53.5494C20.3573 53.6337 20.212 53.6759 20.0411 53.6759C19.9479 53.6759 19.8558 53.6614 19.7648 53.6326C19.6738 53.6037 19.5994 53.5638 19.5417 53.5127L19.7315 53.1432C19.7714 53.1787 19.8169 53.2065 19.868 53.2265C19.9212 53.2464 19.9734 53.2564 20.0244 53.2564C20.0954 53.2564 20.1531 53.2387 20.1975 53.2032C20.2419 53.1699 20.2819 53.1133 20.3174 53.0334L20.324 53.0167L19.5484 51.2124H20.0843L20.587 52.4275L21.093 51.2124H21.5924ZM22.8673 53.0034L22.4745 52.4541L22.0683 53.0034H21.5024L22.1915 52.1013L21.5257 51.2124H22.1083L22.4878 51.7351L22.8773 51.2124H23.4299L22.7641 52.088L23.4565 53.0034H22.8673ZM23.7122 51.2124H24.2281V51.9115H25.0071V51.2124H25.5264V53.0034H25.0071V52.3343H24.2281V53.0034H23.7122V51.2124ZM27.6148 51.2124V53.0034H27.1521V52.4908H26.7692L26.4297 53.0034H25.8771L26.2865 52.4175C26.1623 52.3687 26.0668 52.2988 26.0003 52.2078C25.9359 52.1146 25.9037 52.0025 25.9037 51.8716C25.9037 51.6607 25.9792 51.4987 26.1301 51.3856C26.2832 51.2701 26.4929 51.2124 26.7593 51.2124H27.6148ZM26.7692 51.6352C26.6583 51.6352 26.5739 51.6552 26.5162 51.6951C26.4608 51.7351 26.433 51.7995 26.433 51.8882C26.433 51.977 26.4597 52.0425 26.5129 52.0846C26.5684 52.1246 26.6516 52.1446 26.7626 52.1446H27.1521V51.6352H26.7692Z" fill="#20201F"/>
<path d="M19.8653 55.421V57.7512H19.326V55.8537H18.8599V55.421H19.8653ZM21.2687 57.7912C21.0757 57.7912 20.9037 57.7435 20.7528 57.648C20.6018 57.5526 20.4831 57.415 20.3966 57.2352C20.3122 57.0533 20.2701 56.8369 20.2701 56.5861C20.2701 56.3353 20.3122 56.12 20.3966 55.9403C20.4831 55.7583 20.6018 55.6196 20.7528 55.5242C20.9037 55.4287 21.0757 55.381 21.2687 55.381C21.4618 55.381 21.6338 55.4287 21.7847 55.5242C21.9356 55.6196 22.0533 55.7583 22.1376 55.9403C22.2241 56.12 22.2674 56.3353 22.2674 56.5861C22.2674 56.8369 22.2241 57.0533 22.1376 57.2352C22.0533 57.415 21.9356 57.5526 21.7847 57.648C21.6338 57.7435 21.4618 57.7912 21.2687 57.7912ZM21.2687 57.3351C21.4108 57.3351 21.5217 57.2741 21.6016 57.152C21.6837 57.03 21.7248 56.8413 21.7248 56.5861C21.7248 56.3309 21.6837 56.1422 21.6016 56.0202C21.5217 55.8981 21.4108 55.8371 21.2687 55.8371C21.1289 55.8371 21.018 55.8981 20.9358 56.0202C20.8559 56.1422 20.816 56.3309 20.816 56.5861C20.816 56.8413 20.8559 57.03 20.9358 57.152C21.018 57.2741 21.1289 57.3351 21.2687 57.3351ZM22.7934 57.7779C22.7025 57.7779 22.6259 57.7468 22.5637 57.6846C22.5016 57.6225 22.4705 57.5448 22.4705 57.4516C22.4705 57.3562 22.5016 57.2796 22.5637 57.2219C22.6259 57.162 22.7025 57.132 22.7934 57.132C22.8844 57.132 22.961 57.162 23.0231 57.2219C23.0853 57.2796 23.1164 57.3562 23.1164 57.4516C23.1164 57.5448 23.0853 57.6225 23.0231 57.6846C22.961 57.7468 22.8844 57.7779 22.7934 57.7779ZM24.2052 55.421V57.7512H23.6659V55.8537H23.1999V55.421H24.2052ZM26.3511 57.3118V57.7512H24.5901V57.4017L25.4889 56.5528C25.5843 56.4618 25.6487 56.3841 25.682 56.3198C25.7152 56.2532 25.7319 56.1877 25.7319 56.1234C25.7319 56.0302 25.6997 55.9591 25.6353 55.9103C25.5732 55.8593 25.4811 55.8338 25.359 55.8338C25.257 55.8338 25.1649 55.8537 25.0827 55.8937C25.0006 55.9314 24.9318 55.9891 24.8763 56.0668L24.4835 55.8138C24.5745 55.6784 24.6999 55.573 24.8597 55.4975C25.0195 55.4199 25.2026 55.381 25.409 55.381C25.5821 55.381 25.733 55.4099 25.8617 55.4676C25.9927 55.523 26.0936 55.6029 26.1646 55.7073C26.2379 55.8093 26.2745 55.9303 26.2745 56.0701C26.2745 56.1966 26.2479 56.3153 26.1946 56.4263C26.1413 56.5373 26.0381 56.6638 25.885 56.8058L25.3491 57.3118H26.3511Z" fill="#20201F"/>
<path d="M35.6216 18.8452L35.1343 18.2032L34.644 18.8452H34.4105L35.0175 18.0573L34.4397 17.3102H34.6732L35.1343 17.9114L35.5954 17.3102H35.823L35.2452 18.0573L35.858 18.8452H35.6216ZM36.7767 18.8598C36.6289 18.8598 36.4956 18.8267 36.3769 18.7606C36.2582 18.6925 36.1649 18.5991 36.0968 18.4804C36.0287 18.3617 35.9946 18.2275 35.9946 18.0777C35.9946 17.9279 36.0287 17.7937 36.0968 17.675C36.1649 17.5563 36.2582 17.4639 36.3769 17.3977C36.4956 17.3316 36.6289 17.2985 36.7767 17.2985C36.9246 17.2985 37.0579 17.3316 37.1765 17.3977C37.2952 17.4639 37.3876 17.5563 37.4538 17.675C37.5219 17.7937 37.5559 17.9279 37.5559 18.0777C37.5559 18.2275 37.5219 18.3617 37.4538 18.4804C37.3876 18.5991 37.2952 18.6925 37.1765 18.7606C37.0579 18.8267 36.9246 18.8598 36.7767 18.8598ZM36.7767 18.676C36.8857 18.676 36.983 18.6516 37.0686 18.603C37.1561 18.5524 37.2242 18.4814 37.2728 18.39C37.3215 18.2985 37.3458 18.1944 37.3458 18.0777C37.3458 17.961 37.3215 17.8569 37.2728 17.7654C37.2242 17.674 37.1561 17.604 37.0686 17.5553C36.983 17.5047 36.8857 17.4794 36.7767 17.4794C36.6678 17.4794 36.5695 17.5047 36.482 17.5553C36.3964 17.604 36.3283 17.674 36.2777 17.7654C36.2291 17.8569 36.2047 17.961 36.2047 18.0777C36.2047 18.1944 36.2291 18.2985 36.2777 18.39C36.3283 18.4814 36.3964 18.5524 36.482 18.603C36.5695 18.6516 36.6678 18.676 36.7767 18.676ZM39.2451 17.3102V18.8452H39.0379V17.494H38.3025L38.282 17.8734C38.2665 18.1925 38.2295 18.4376 38.1711 18.6088C38.1128 18.78 38.0087 18.8656 37.8589 18.8656C37.818 18.8656 37.7684 18.8579 37.71 18.8423L37.7246 18.6643C37.7597 18.6721 37.784 18.676 37.7976 18.676C37.8774 18.676 37.9377 18.639 37.9785 18.5651C38.0194 18.4911 38.0466 18.3997 38.0602 18.2907C38.0739 18.1818 38.0855 18.0378 38.0953 17.8588L38.1215 17.3102H39.2451ZM41.089 17.3102V18.8452H40.8818V17.494H40.1463L40.1259 17.8734C40.1104 18.1925 40.0734 18.4376 40.015 18.6088C39.9567 18.78 39.8526 18.8656 39.7028 18.8656C39.6619 18.8656 39.6123 18.8579 39.5539 18.8423L39.5685 18.6643C39.6035 18.6721 39.6279 18.676 39.6415 18.676C39.7212 18.676 39.7816 18.639 39.8224 18.5651C39.8633 18.4911 39.8905 18.3997 39.9041 18.2907C39.9177 18.1818 39.9294 18.0378 39.9391 17.8588L39.9654 17.3102H41.089Z" fill="#20201F"/>
<path d="M36.6502 23.0565H36.2417V23.5935H36.0315V23.0565H34.8788V22.9048L35.9615 21.5507H36.195L35.1502 22.8698H36.0374V22.397H36.2417V22.8698H36.6502V23.0565ZM37.0578 23.6081C37.015 23.6081 36.978 23.5925 36.9469 23.5614C36.9177 23.5303 36.9031 23.4923 36.9031 23.4476C36.9031 23.4028 36.9177 23.3659 36.9469 23.3367C36.978 23.3056 37.015 23.29 37.0578 23.29C37.1006 23.29 37.1376 23.3056 37.1687 23.3367C37.1998 23.3659 37.2154 23.4028 37.2154 23.4476C37.2154 23.4923 37.1998 23.5303 37.1687 23.5614C37.1376 23.5925 37.1006 23.6081 37.0578 23.6081ZM38.3015 23.611C38.1439 23.611 38.0029 23.5692 37.8784 23.4855C37.7558 23.4019 37.6595 23.2822 37.5894 23.1266C37.5213 22.969 37.4873 22.7842 37.4873 22.5721C37.4873 22.36 37.5213 22.1762 37.5894 22.0205C37.6595 21.863 37.7558 21.7423 37.8784 21.6587C38.0029 21.575 38.1439 21.5332 38.3015 21.5332C38.4591 21.5332 38.5992 21.575 38.7217 21.6587C38.8463 21.7423 38.9435 21.863 39.0136 22.0205C39.0836 22.1762 39.1186 22.36 39.1186 22.5721C39.1186 22.7842 39.0836 22.969 39.0136 23.1266C38.9435 23.2822 38.8463 23.4019 38.7217 23.4855C38.5992 23.5692 38.4591 23.611 38.3015 23.611ZM38.3015 23.4184C38.4202 23.4184 38.5243 23.3853 38.6138 23.3192C38.7052 23.253 38.7762 23.1567 38.8268 23.0303C38.8774 22.9038 38.9027 22.7511 38.9027 22.5721C38.9027 22.3931 38.8774 22.2404 38.8268 22.1139C38.7762 21.9875 38.7052 21.8912 38.6138 21.825C38.5243 21.7589 38.4202 21.7258 38.3015 21.7258C38.1828 21.7258 38.0778 21.7589 37.9863 21.825C37.8968 21.8912 37.8268 21.9875 37.7762 22.1139C37.7256 22.2404 37.7003 22.3931 37.7003 22.5721C37.7003 22.7511 37.7256 22.9038 37.7762 23.0303C37.8268 23.1567 37.8968 23.253 37.9863 23.3192C38.0778 23.3853 38.1828 23.4184 38.3015 23.4184ZM40.2658 22.3707C40.4001 22.3707 40.5188 22.396 40.6219 22.4466C40.7269 22.4972 40.8086 22.5692 40.867 22.6626C40.9254 22.754 40.9546 22.861 40.9546 22.9836C40.9546 23.1081 40.9244 23.218 40.8641 23.3133C40.8038 23.4087 40.7201 23.4826 40.6131 23.5351C40.5081 23.5857 40.3894 23.611 40.2571 23.611C39.9867 23.611 39.7795 23.5225 39.6355 23.3455C39.4915 23.1665 39.4195 22.9145 39.4195 22.5896C39.4195 22.362 39.4584 22.1694 39.5363 22.0118C39.6141 21.8542 39.723 21.7355 39.8631 21.6558C40.0032 21.574 40.1666 21.5332 40.3534 21.5332C40.5557 21.5332 40.7172 21.5701 40.8378 21.6441L40.7532 21.8133C40.6559 21.7491 40.5236 21.717 40.3563 21.717C40.1306 21.717 39.9536 21.789 39.8252 21.933C39.6968 22.075 39.6326 22.2822 39.6326 22.5546C39.6326 22.6032 39.6355 22.6587 39.6413 22.7209C39.6919 22.61 39.7727 22.5244 39.8835 22.4641C39.9944 22.4019 40.1219 22.3707 40.2658 22.3707ZM40.2483 23.433C40.3962 23.433 40.5158 23.3931 40.6073 23.3133C40.7007 23.2316 40.7474 23.1237 40.7474 22.9894C40.7474 22.8552 40.7007 22.7482 40.6073 22.6684C40.5158 22.5886 40.3913 22.5488 40.2337 22.5488C40.1306 22.5488 40.0392 22.5682 39.9594 22.6071C39.8816 22.646 39.8203 22.6995 39.7756 22.7676C39.7308 22.8357 39.7084 22.9116 39.7084 22.9953C39.7084 23.0731 39.7289 23.1451 39.7697 23.2112C39.8125 23.2774 39.8748 23.3309 39.9565 23.3717C40.0382 23.4126 40.1355 23.433 40.2483 23.433Z" fill="#20201F"/>
<path d="M28.5745 82.2684V83.8035H28.3673V82.4523H27.6319L27.6114 82.8317C27.5959 83.1507 27.5589 83.3959 27.5005 83.5671C27.4422 83.7383 27.3381 83.8239 27.1883 83.8239C27.1474 83.8239 27.0978 83.8161 27.0394 83.8005L27.054 83.6225C27.089 83.6303 27.1134 83.6342 27.127 83.6342C27.2068 83.6342 27.2671 83.5972 27.3079 83.5233C27.3488 83.4494 27.376 83.3579 27.3896 83.249C27.4033 83.14 27.4149 82.9961 27.4247 82.8171L27.4509 82.2684H28.5745ZM29.7968 83.8181C29.6489 83.8181 29.5157 83.785 29.397 83.7188C29.2783 83.6507 29.1849 83.5574 29.1168 83.4387C29.0487 83.32 29.0147 83.1857 29.0147 83.0359C29.0147 82.8861 29.0487 82.7519 29.1168 82.6332C29.1849 82.5145 29.2783 82.4221 29.397 82.356C29.5157 82.2898 29.6489 82.2567 29.7968 82.2567C29.9447 82.2567 30.0779 82.2898 30.1966 82.356C30.3153 82.4221 30.4077 82.5145 30.4739 82.6332C30.5419 82.7519 30.576 82.8861 30.576 83.0359C30.576 83.1857 30.5419 83.32 30.4739 83.4387C30.4077 83.5574 30.3153 83.6507 30.1966 83.7188C30.0779 83.785 29.9447 83.8181 29.7968 83.8181ZM29.7968 83.6342C29.9057 83.6342 30.003 83.6099 30.0886 83.5612C30.1762 83.5107 30.2443 83.4396 30.2929 83.3482C30.3416 83.2568 30.3659 83.1527 30.3659 83.0359C30.3659 82.9192 30.3416 82.8151 30.2929 82.7237C30.2443 82.6322 30.1762 82.5622 30.0886 82.5136C30.003 82.463 29.9057 82.4377 29.7968 82.4377C29.6878 82.4377 29.5896 82.463 29.502 82.5136C29.4164 82.5622 29.3483 82.6322 29.2978 82.7237C29.2491 82.8151 29.2248 82.9192 29.2248 83.0359C29.2248 83.1527 29.2491 83.2568 29.2978 83.3482C29.3483 83.4396 29.4164 83.5107 29.502 83.5612C29.5896 83.6099 29.6878 83.6342 29.7968 83.6342ZM32.5074 83.6225V84.1741H32.3119V83.8035H30.9373V84.1741H30.7418V83.6225H30.8293C30.9325 83.6167 31.0025 83.5408 31.0395 83.3949C31.0764 83.249 31.1017 83.0447 31.1153 82.782L31.1358 82.2684H32.2681V83.6225H32.5074ZM31.305 82.7937C31.2953 83.0116 31.2768 83.1916 31.2496 83.3336C31.2224 83.4737 31.1737 83.57 31.1037 83.6225H32.0609V82.4523H31.3225L31.305 82.7937ZM34.2566 83.1206H33.9239V83.8035H33.7167V83.1206H33.384L32.9141 83.8035H32.6661L33.2176 83.0126L32.7098 82.2684H32.9345L33.384 82.9426H33.7167V82.2684H33.9239V82.9426H34.2566L34.7089 82.2684H34.9336L34.4258 83.0155L34.9774 83.8035H34.7293L34.2566 83.1206ZM35.3223 82.2684H35.5295V83.4883L36.5538 82.2684H36.7377V83.8035H36.5305V82.5836L35.509 83.8035H35.3223V82.2684ZM38.5105 82.2684V83.8035H38.3208V83.2957H37.8393H37.7809L37.4249 83.8035H37.2002L37.5825 83.2665C37.4638 83.2334 37.3723 83.177 37.3081 83.0972C37.2439 83.0175 37.2118 82.9163 37.2118 82.7937C37.2118 82.6225 37.2702 82.4922 37.3869 82.4027C37.5037 82.3132 37.6632 82.2684 37.8655 82.2684H38.5105ZM37.4219 82.7996C37.4219 83.0272 37.5669 83.141 37.8568 83.141H38.3208V82.4523H37.8714C37.5718 82.4523 37.4219 82.568 37.4219 82.7996Z" fill="#20201F"/>
<path d="M32.1556 88.0148H31.747V88.5518H31.5369V88.0148H30.3841V87.863L31.4668 86.5089H31.7003L30.6555 87.828H31.5427V87.3552H31.747V87.828H32.1556V88.0148ZM32.5632 88.5663C32.5204 88.5663 32.4834 88.5508 32.4523 88.5197C32.4231 88.4885 32.4085 88.4506 32.4085 88.4058C32.4085 88.3611 32.4231 88.3241 32.4523 88.2949C32.4834 88.2638 32.5204 88.2482 32.5632 88.2482C32.606 88.2482 32.6429 88.2638 32.6741 88.2949C32.7052 88.3241 32.7207 88.3611 32.7207 88.4058C32.7207 88.4506 32.7052 88.4885 32.6741 88.5197C32.6429 88.5508 32.606 88.5663 32.5632 88.5663ZM33.556 86.5089V88.5518H33.3458V86.6957H32.8643V86.5089H33.556ZM35.2145 87.4807C35.343 87.5235 35.4412 87.5877 35.5093 87.6733C35.5793 87.7589 35.6144 87.8621 35.6144 87.9827C35.6144 88.1014 35.5823 88.2054 35.5181 88.2949C35.4539 88.3825 35.3614 88.4506 35.2408 88.4992C35.1221 88.5459 34.9821 88.5693 34.8206 88.5693C34.5754 88.5693 34.3828 88.5167 34.2427 88.4117C34.1027 88.3066 34.0326 88.1636 34.0326 87.9827C34.0326 87.8601 34.0657 87.757 34.1318 87.6733C34.1999 87.5877 34.2982 87.5235 34.4266 87.4807C34.3215 87.4399 34.2418 87.3815 34.1873 87.3056C34.1328 87.2278 34.1056 87.1364 34.1056 87.0313C34.1056 86.8659 34.1698 86.7346 34.2982 86.6373C34.4285 86.54 34.6027 86.4914 34.8206 86.4914C34.9645 86.4914 35.09 86.5138 35.197 86.5585C35.306 86.6013 35.3906 86.6636 35.4509 86.7453C35.5112 86.827 35.5414 86.9223 35.5414 87.0313C35.5414 87.1364 35.5132 87.2278 35.4568 87.3056C35.4004 87.3815 35.3196 87.4399 35.2145 87.4807ZM34.3157 87.0371C34.3157 87.15 34.3604 87.2395 34.4499 87.3056C34.5394 87.3718 34.663 87.4048 34.8206 87.4048C34.9782 87.4048 35.1017 87.3718 35.1912 87.3056C35.2826 87.2395 35.3284 87.1509 35.3284 87.0401C35.3284 86.9253 35.2817 86.8348 35.1883 86.7686C35.0968 86.7025 34.9743 86.6694 34.8206 86.6694C34.6649 86.6694 34.5414 86.7025 34.4499 86.7686C34.3604 86.8348 34.3157 86.9243 34.3157 87.0371ZM34.8206 88.3912C35.0015 88.3912 35.1426 88.3543 35.2437 88.2804C35.3468 88.2064 35.3984 88.1062 35.3984 87.9798C35.3984 87.8533 35.3468 87.7541 35.2437 87.6821C35.1426 87.6082 35.0015 87.5712 34.8206 87.5712C34.6416 87.5712 34.5005 87.6082 34.3974 87.6821C34.2962 87.7541 34.2457 87.8533 34.2457 87.9798C34.2457 88.1082 34.2962 88.2093 34.3974 88.2833C34.4986 88.3553 34.6396 88.3912 34.8206 88.3912Z" fill="#20201F"/>
<path d="M19.3654 28.8019H18.9568V29.3389H18.7467V28.8019H17.594V28.6501L18.6767 27.2961H18.9101L17.8654 28.6151H18.7525V28.1424H18.9568V28.6151H19.3654V28.8019ZM19.773 29.3535C19.7302 29.3535 19.6932 29.3379 19.6621 29.3068C19.6329 29.2756 19.6183 29.2377 19.6183 29.193C19.6183 29.1482 19.6329 29.1112 19.6621 29.0821C19.6932 29.0509 19.7302 29.0354 19.773 29.0354C19.8158 29.0354 19.8527 29.0509 19.8839 29.0821C19.915 29.1112 19.9305 29.1482 19.9305 29.193C19.9305 29.2377 19.915 29.2756 19.8839 29.3068C19.8527 29.3379 19.8158 29.3535 19.773 29.3535ZM20.7708 28.1336C21.0665 28.1336 21.2815 28.1871 21.4157 28.2941C21.5519 28.3992 21.62 28.547 21.62 28.7377C21.62 28.8564 21.5918 28.9624 21.5354 29.0558C21.4809 29.1492 21.3982 29.2231 21.2873 29.2776C21.1764 29.3301 21.0402 29.3564 20.8787 29.3564C20.7328 29.3564 20.5937 29.333 20.4614 29.2863C20.3311 29.2377 20.226 29.1735 20.1463 29.0937L20.2484 28.9274C20.3165 28.9974 20.406 29.0548 20.5169 29.0996C20.6278 29.1424 20.7474 29.1638 20.8758 29.1638C21.0451 29.1638 21.1754 29.1258 21.2669 29.05C21.3603 28.9741 21.407 28.8729 21.407 28.7465C21.407 28.6064 21.3544 28.5003 21.2494 28.4284C21.1463 28.3564 20.9712 28.3204 20.7241 28.3204H20.2892L20.3943 27.2961H21.512V27.4828H20.5782L20.5081 28.1336H20.7708ZM23.057 28.2678C23.1854 28.3107 23.2836 28.3749 23.3517 28.4605C23.4218 28.5461 23.4568 28.6492 23.4568 28.7698C23.4568 28.8885 23.4247 28.9926 23.3605 29.0821C23.2963 29.1696 23.2039 29.2377 23.0832 29.2863C22.9646 29.333 22.8245 29.3564 22.663 29.3564C22.4179 29.3564 22.2253 29.3038 22.0852 29.1988C21.9451 29.0937 21.8751 28.9507 21.8751 28.7698C21.8751 28.6472 21.9081 28.5441 21.9743 28.4605C22.0424 28.3749 22.1406 28.3107 22.269 28.2678C22.164 28.227 22.0842 28.1686 22.0297 28.0928C21.9753 28.0149 21.948 27.9235 21.948 27.8184C21.948 27.6531 22.0122 27.5217 22.1406 27.4245C22.271 27.3272 22.4451 27.2785 22.663 27.2785C22.807 27.2785 22.9325 27.3009 23.0395 27.3457C23.1484 27.3885 23.2331 27.4507 23.2934 27.5324C23.3537 27.6142 23.3838 27.7095 23.3838 27.8184C23.3838 27.9235 23.3556 28.0149 23.2992 28.0928C23.2428 28.1686 23.162 28.227 23.057 28.2678ZM22.1581 27.8243C22.1581 27.9371 22.2029 28.0266 22.2924 28.0928C22.3819 28.1589 22.5054 28.192 22.663 28.192C22.8206 28.192 22.9441 28.1589 23.0336 28.0928C23.1251 28.0266 23.1708 27.9381 23.1708 27.8272C23.1708 27.7124 23.1241 27.6219 23.0307 27.5558C22.9393 27.4896 22.8167 27.4566 22.663 27.4566C22.5074 27.4566 22.3838 27.4896 22.2924 27.5558C22.2029 27.6219 22.1581 27.7114 22.1581 27.8243ZM22.663 29.1784C22.8439 29.1784 22.985 29.1414 23.0862 29.0675C23.1893 28.9935 23.2408 28.8933 23.2408 28.7669C23.2408 28.6404 23.1893 28.5412 23.0862 28.4692C22.985 28.3953 22.8439 28.3583 22.663 28.3583C22.484 28.3583 22.343 28.3953 22.2399 28.4692C22.1387 28.5412 22.0881 28.6404 22.0881 28.7669C22.0881 28.8953 22.1387 28.9965 22.2399 29.0704C22.341 29.1424 22.4821 29.1784 22.663 29.1784Z" fill="#20201F"/>
<path d="M53.7056 15.7642V15.9509H52.2727V15.8021L53.1219 14.9704C53.2289 14.8653 53.3009 14.7749 53.3379 14.699C53.3768 14.6212 53.3962 14.5433 53.3962 14.4655C53.3962 14.3449 53.3544 14.2515 53.2707 14.1854C53.189 14.1173 53.0713 14.0832 52.9176 14.0832C52.6783 14.0832 52.4925 14.1591 52.3602 14.3108L52.2114 14.1824C52.2912 14.0891 52.3923 14.0171 52.5149 13.9665C52.6394 13.9159 52.7795 13.8906 52.9351 13.8906C53.1433 13.8906 53.3077 13.9402 53.4283 14.0394C53.5509 14.1367 53.6122 14.271 53.6122 14.4422C53.6122 14.5472 53.5888 14.6484 53.5422 14.7457C53.4955 14.8429 53.4069 14.9548 53.2766 15.0813L52.582 15.7642H53.7056ZM54.1554 15.9655C54.1126 15.9655 54.0756 15.95 54.0445 15.9188C54.0153 15.8877 54.0007 15.8498 54.0007 15.805C54.0007 15.7603 54.0153 15.7233 54.0445 15.6941C54.0756 15.663 54.1126 15.6474 54.1554 15.6474C54.1982 15.6474 54.2351 15.663 54.2663 15.6941C54.2974 15.7233 54.3129 15.7603 54.3129 15.805C54.3129 15.8498 54.2974 15.8877 54.2663 15.9188C54.2351 15.95 54.1982 15.9655 54.1554 15.9655ZM55.1532 14.7457C55.4489 14.7457 55.6639 14.7992 55.7981 14.9062C55.9343 15.0112 56.0024 15.1591 56.0024 15.3498C56.0024 15.4684 55.9742 15.5745 55.9178 15.6679C55.8633 15.7612 55.7806 15.8352 55.6697 15.8896C55.5588 15.9422 55.4226 15.9684 55.2611 15.9684C55.1152 15.9684 54.9761 15.9451 54.8438 15.8984C54.7135 15.8498 54.6084 15.7856 54.5287 15.7058L54.6308 15.5394C54.6989 15.6095 54.7884 15.6669 54.8993 15.7116C55.0102 15.7544 55.1298 15.7758 55.2582 15.7758C55.4275 15.7758 55.5578 15.7379 55.6493 15.662C55.7427 15.5861 55.7894 15.485 55.7894 15.3585C55.7894 15.2184 55.7368 15.1124 55.6318 15.0404C55.5287 14.9684 55.3536 14.9324 55.1065 14.9324H54.6716L54.7767 13.9081H55.8944V14.0949H54.9606L54.8905 14.7457H55.1532ZM56.9053 13.8906C57.1758 13.8906 57.383 13.9801 57.5269 14.1591C57.6709 14.3361 57.7429 14.5871 57.7429 14.912C57.7429 15.1396 57.704 15.3322 57.6262 15.4898C57.5483 15.6474 57.4394 15.7671 57.2993 15.8488C57.1592 15.9286 56.9958 15.9684 56.809 15.9684C56.6067 15.9684 56.4452 15.9315 56.3246 15.8575L56.4092 15.6883C56.5065 15.7525 56.6388 15.7846 56.8061 15.7846C57.0318 15.7846 57.2088 15.7136 57.3372 15.5715C57.4656 15.4276 57.5299 15.2194 57.5299 14.947C57.5299 14.8964 57.5269 14.841 57.5211 14.7807C57.4705 14.8916 57.3898 14.9782 57.2789 15.0404C57.168 15.1007 57.0405 15.1309 56.8966 15.1309C56.7623 15.1309 56.6427 15.1056 56.5376 15.055C56.4345 15.0044 56.3538 14.9334 56.2954 14.842C56.237 14.7486 56.2079 14.6406 56.2079 14.518C56.2079 14.3935 56.238 14.2836 56.2983 14.1883C56.3586 14.0929 56.4413 14.02 56.5464 13.9694C56.6534 13.9169 56.773 13.8906 56.9053 13.8906ZM56.9287 14.9529C57.0318 14.9529 57.1223 14.9334 57.2001 14.8945C57.2799 14.8556 57.3421 14.8021 57.3869 14.734C57.4316 14.6659 57.454 14.59 57.454 14.5064C57.454 14.4285 57.4326 14.3566 57.3898 14.2904C57.3489 14.2243 57.2876 14.1708 57.2059 14.1299C57.1242 14.0891 57.0269 14.0686 56.9141 14.0686C56.7662 14.0686 56.6456 14.1095 56.5522 14.1912C56.4608 14.271 56.4151 14.378 56.4151 14.5122C56.4151 14.6464 56.4608 14.7535 56.5522 14.8332C56.6456 14.913 56.7711 14.9529 56.9287 14.9529Z" fill="black"/>
</g>
<defs>
<clipPath id="clip0_2561_21923">
<rect width="60.1851" height="88.9376" fill="white" transform="translate(7.40741 5.35913)"/>
</clipPath>
</defs>
</svg>
