<svg width="77" height="100" viewBox="0 0 77 100" fill="none" xmlns="http://www.w3.org/2000/svg">
<rect width="75.9259" height="99.9999" transform="translate(0.221802)" fill="white"/>
<g clip-path="url(#clip0_2561_22372)">
<path fill-rule="evenodd" clip-rule="evenodd" d="M5.01819 86.2795H25.7298V95.2628H71.3929V86.2795V69.4016V19.8048H42.3779L42.3477 4.83325L8.91157 6.8294V19.8048H5.01819V86.2795Z" fill="#C6C0E1"/>
<path fill-rule="evenodd" clip-rule="evenodd" d="M68.8984 95.2626V37.6512V33.6675V19.8047H71.3929V95.2626H68.8984Z" fill="#ED9FA6"/>
<path fill-rule="evenodd" clip-rule="evenodd" d="M5.01819 86.2795H25.7298V95.2628H71.3929V86.2795V69.4016V19.8048H42.3779L42.3477 4.83325L8.91157 6.8294V19.8048H5.01819V86.2795Z" fill="#FFF9D0"/>
<path fill-rule="evenodd" clip-rule="evenodd" d="M68.8984 95.2626V37.6512V33.6675V19.8047H71.3929V95.2626H68.8984Z" fill="#FFF9D0"/>
<path d="M12.6037 21.1028H7.51404V24.8957H12.6037V21.1028Z" fill="#20201F"/>
<path d="M7.51409 16.4014H5.01819V86.2796H7.51409V16.4014Z" fill="#20201F"/>
<path d="M28.1746 83.7844H25.7299V95.263H28.1746V83.7844Z" fill="#20201F"/>
<path d="M28.1745 83.7844H5.01819V86.2798H28.1745V83.7844Z" fill="#20201F"/>
<path d="M8.91157 15.0042H5.01819V19.805H8.91157V15.0042Z" fill="#20201F"/>
<path d="M43.446 22.3999H37.4564V28.3887H43.446V22.3999Z" fill="#20201F"/>
<path d="M71.3929 22.3999H68.8984V24.8953H71.3929V22.3999Z" fill="#20201F"/>
<path d="M48.6364 92.7671H38.1553V95.2627H48.6364V92.7671Z" fill="#20201F"/>
<path d="M48.6364 88.7173H46.1406V95.2628H48.6364V88.7173Z" fill="#20201F"/>
<path d="M71.3929 88.7173H46.1406V91.2486H71.3929V88.7173Z" fill="#20201F"/>
<path d="M71.3929 24.8955H68.8984V95.263H71.3929V24.8955Z" fill="#20201F"/>
<path d="M45.9405 21.103H28.5741V24.8959H45.9405V21.103Z" fill="#20201F"/>
<path d="M71.393 21.1025H66.9015V24.8954H71.393V21.1025Z" fill="#20201F"/>
<path d="M10.1092 13.8167H5.01819V15.1142H10.1092V13.8167Z" fill="#20201F"/>
<path d="M10.1091 13.8164H8.9115V19.805H10.1091V13.8164Z" fill="#20201F"/>
<path d="M12.6037 19.8047H7.51404V21.1023H12.6037V19.8047Z" fill="#20201F"/>
<path d="M46.5401 19.8047H28.5741V21.1023H46.5401V19.8047Z" fill="#20201F"/>
<path d="M71.3929 19.8047H66.3033V21.1023H71.3929V19.8047Z" fill="#20201F"/>
<path fill-rule="evenodd" clip-rule="evenodd" d="M41.15 6.10458V19.8048H42.3477V4.83325L8.9115 6.8294V13.8162H10.1091V7.95773L41.15 6.10458Z" fill="#20201F"/>
<path d="M33.8692 56.5605H7.51392V57.3591H33.8692V56.5605Z" fill="#20201F"/>
<path d="M33.8692 48.5374H33.0698V57.3588H33.8692V48.5374Z" fill="#20201F"/>
<path d="M28.1741 57.0081H27.3766V73.1142H28.1741V57.0081Z" fill="#20201F"/>
<path d="M28.1745 82.0974H27.3766V83.784H28.1745V82.0974Z" fill="#20201F"/>
<path d="M68.8984 94.0647H48.6364V95.2628H68.8984V94.0647Z" fill="#20201F"/>
<path d="M41.0608 72.4927H40.2625V78.409H41.0608V72.4927Z" fill="#20201F"/>
<path d="M46.9425 72.4932H40.2627V73.2918H46.9425V72.4932Z" fill="#20201F"/>
<path d="M46.942 72.4934H46.1431V88.7747H46.942V72.4934Z" fill="#20201F"/>
<path d="M41.0608 89.5193H40.2625V93.07H41.0608V89.5193Z" fill="#20201F"/>
<path d="M66.3032 19.8049H46.5388V20.447H66.3032V19.8049Z" fill="#20201F"/>
<path d="M66.9013 21.0991H45.9406V21.741H66.9013V21.0991Z" fill="#20201F"/>
<path d="M66.9013 24.25H45.9406V24.8919H66.9013V24.25Z" fill="#20201F"/>
<path d="M20.589 19.8096H12.6036V20.4516H20.589V19.8096Z" fill="#20201F"/>
<path d="M20.5892 21.1028H12.6036V21.7447H20.5892V21.1028Z" fill="#20201F"/>
<path d="M20.5892 24.2534H12.6036V24.8953H20.5892V24.2534Z" fill="#20201F"/>
<path d="M20.5893 19.8083H20.1182V24.8988H20.5893V19.8083Z" fill="#20201F"/>
<path fill-rule="evenodd" clip-rule="evenodd" d="M37.9062 94.6393C37.9062 94.7958 37.7792 94.9228 37.6227 94.9228C37.4662 94.9228 37.3392 94.7958 37.3392 94.6393V88.6399C37.3392 88.4834 37.4662 88.3564 37.6227 88.3564C37.7792 88.3564 37.9062 88.4834 37.9062 88.6399V94.6393Z" fill="#20201F"/>
<path fill-rule="evenodd" clip-rule="evenodd" d="M29.0425 94.6969C29.0425 94.7751 28.979 94.8386 28.9008 94.8386C28.8225 94.8386 28.759 94.7751 28.759 94.6969C28.759 92.9794 29.639 91.4263 31.0608 90.3039C32.4737 89.1887 34.4231 88.4988 36.5734 88.4988C36.6517 88.4988 36.7152 88.5623 36.7152 88.6405C36.7152 88.7187 36.6517 88.7822 36.5734 88.7822C34.4873 88.7822 32.6 89.4485 31.2357 90.5253C29.8808 91.5948 29.0425 93.0699 29.0425 94.6969Z" fill="#20201F"/>
<path fill-rule="evenodd" clip-rule="evenodd" d="M27.749 21.4317C27.749 21.2752 27.876 21.1482 28.0325 21.1482C28.189 21.1482 28.316 21.2752 28.316 21.4317V27.431C28.316 27.5875 28.189 27.7145 28.0325 27.7145C27.876 27.7145 27.749 27.5875 27.749 27.431V21.4317Z" fill="#20201F"/>
<path fill-rule="evenodd" clip-rule="evenodd" d="M20.8761 21.3756C20.8761 21.2974 20.9396 21.2339 21.0178 21.2339C21.0961 21.2339 21.1596 21.2974 21.1596 21.3756C21.1596 23.0085 21.8342 24.4871 22.9244 25.557C24.0156 26.6278 25.5234 27.2902 27.1887 27.2902C27.2669 27.2902 27.3304 27.3537 27.3304 27.432C27.3304 27.5102 27.2669 27.5737 27.1887 27.5737C25.4471 27.5737 23.8691 26.8799 22.7263 25.7585C21.5835 24.6369 20.8761 23.087 20.8761 21.3756Z" fill="#20201F"/>
<path fill-rule="evenodd" clip-rule="evenodd" d="M27.5961 81.8482C27.4396 81.8482 27.3126 81.7212 27.3126 81.5647C27.3126 81.4083 27.4396 81.2812 27.5961 81.2812H33.5955C33.7519 81.2812 33.8789 81.4083 33.8789 81.5647C33.8789 81.7212 33.7519 81.8482 33.5955 81.8482H27.5961Z" fill="#20201F"/>
<path fill-rule="evenodd" clip-rule="evenodd" d="M27.5392 73.648C27.4609 73.648 27.3975 73.5845 27.3975 73.5062C27.3975 73.428 27.4609 73.3645 27.5392 73.3645C29.2544 73.3645 30.8067 74.1773 31.9288 75.4909C33.0461 76.7985 33.7373 78.6038 33.7373 80.5952C33.7373 80.6735 33.6738 80.737 33.5955 80.737C33.5173 80.737 33.4538 80.6735 33.4538 80.5952C33.4538 78.6728 32.7887 76.9326 31.7139 75.6746C30.6444 74.4227 29.1681 73.648 27.5392 73.648Z" fill="#20201F"/>
<path fill-rule="evenodd" clip-rule="evenodd" d="M23.3226 56.0644H8.26355V50.0408H23.4998V56.0644H23.3226ZM12.9767 55.3522C13.1424 55.3522 13.2935 55.2844 13.4025 55.1747C13.5113 55.0656 13.5792 54.9151 13.5792 54.7498V51.3483C13.5792 51.183 13.5113 51.0325 13.4025 50.9226C13.2935 50.8136 13.1424 50.7459 12.9767 50.7459H9.57513C9.40987 50.7459 9.25922 50.8138 9.14965 50.9226C9.04067 51.0316 8.97292 51.1824 8.97292 51.3483V54.7498C8.97292 54.9156 9.04067 55.0665 9.15008 55.175C9.25922 55.2843 9.40987 55.3522 9.57513 55.3522H12.9767ZM21.5709 55.0707C21.8002 55.0707 22.0086 54.9773 22.1595 54.8267C22.3102 54.676 22.4036 54.4676 22.4036 54.238C22.4036 54.0089 22.3102 53.8007 22.1591 53.6494C22.0083 53.4988 21.8001 53.4054 21.5709 53.4054C21.3413 53.4054 21.133 53.4988 20.9826 53.6497C20.8316 53.8004 20.7382 54.0087 20.7382 54.238C20.7382 54.4676 20.8316 54.676 20.9823 54.8267C21.133 54.9773 21.3413 55.0707 21.5709 55.0707ZM21.5709 52.8768C21.8496 52.8768 22.1021 52.7636 22.2848 52.5809C22.4675 52.3982 22.5808 52.1455 22.5808 51.867C22.5808 51.5884 22.4675 51.3358 22.2848 51.1531C22.1021 50.9704 21.8496 50.8572 21.5709 50.8572C21.2924 50.8572 21.0397 50.9704 20.857 51.1531C20.6743 51.3358 20.5611 51.5884 20.5611 51.867C20.5611 52.1455 20.6743 52.3982 20.857 52.5809C21.0397 52.7636 21.2924 52.8768 21.5709 52.8768ZM21.0322 52.4057C21.1698 52.5434 21.3606 52.6288 21.5709 52.6288C21.7814 52.6288 21.972 52.5434 22.1096 52.4057C22.2473 52.2681 22.3327 52.0773 22.3327 51.867C22.3327 51.6565 22.2473 51.4659 22.1096 51.3283C21.972 51.1907 21.7814 51.1052 21.5709 51.1052C21.3606 51.1052 21.1698 51.1907 21.0322 51.3283C20.8946 51.4659 20.8091 51.6565 20.8091 51.867C20.8091 52.0773 20.8946 52.2681 21.0322 52.4057ZM19.4051 55.2479C19.6838 55.2479 19.9363 55.1346 20.119 54.9519C20.3017 54.7693 20.415 54.5167 20.415 54.238C20.415 53.9594 20.3019 53.7067 20.1192 53.524C19.9365 53.3413 19.6838 53.2282 19.4051 53.2282C19.1265 53.2282 18.8739 53.3414 18.6912 53.5241C18.5085 53.7068 18.3953 53.9594 18.3953 54.238C18.3953 54.5165 18.5085 54.7693 18.6912 54.9519C18.8739 55.1346 19.1266 55.2479 19.4051 55.2479ZM18.8664 54.7768C19.004 54.9144 19.1948 54.9998 19.4051 54.9998C19.6156 54.9998 19.8062 54.9144 19.9438 54.7768C20.0815 54.6391 20.1669 54.4485 20.1669 54.238C20.1669 54.0276 20.0816 53.8368 19.944 53.6992C19.8064 53.5616 19.6156 53.4762 19.4051 53.4762C19.1946 53.4762 19.004 53.5617 18.8664 53.6993C18.7288 53.8369 18.6433 54.0276 18.6433 54.238C18.6433 54.4484 18.7288 54.6391 18.8664 54.7768ZM19.4051 52.6997C19.6344 52.6997 19.8428 52.6063 19.9937 52.4556C20.1444 52.3049 20.2378 52.0966 20.2378 51.867C20.2378 51.6378 20.1444 51.4296 19.9933 51.2784C19.8425 51.1277 19.6343 51.0343 19.4051 51.0343C19.1755 51.0343 18.9672 51.1277 18.8168 51.2787C18.6658 51.4293 18.5724 51.6377 18.5724 51.867C18.5724 52.0966 18.6658 52.3049 18.8165 52.4556C18.9672 52.6063 19.1755 52.6997 19.4051 52.6997ZM18.9917 52.2804C19.0973 52.386 19.2437 52.4516 19.4051 52.4516C19.567 52.4516 19.7132 52.3863 19.8185 52.2809C19.9241 52.1748 19.9898 52.0284 19.9898 51.867C19.9898 51.7051 19.9244 51.5589 19.819 51.4536C19.7132 51.3477 19.567 51.2824 19.4051 51.2824C19.2437 51.2824 19.0973 51.348 18.9917 51.4536C18.8858 51.5589 18.8205 51.7051 18.8205 51.867C18.8205 52.0284 18.8861 52.1748 18.9917 52.2804ZM21.1575 54.6515C21.2631 54.7571 21.4095 54.8227 21.5709 54.8227C21.7328 54.8227 21.879 54.7574 21.9844 54.6519C22.0899 54.5459 22.1556 54.3995 22.1556 54.238C22.1556 54.0762 22.0902 53.9299 21.9848 53.8246C21.879 53.7187 21.7328 53.6534 21.5709 53.6534C21.4095 53.6534 21.2631 53.719 21.1575 53.8246C21.0516 53.9299 20.9863 54.0762 20.9863 54.238C20.9863 54.3995 21.0519 54.5459 21.1575 54.6515ZM9.57513 54.9979H12.9767C13.0447 54.9979 13.107 54.9698 13.1519 54.9249C13.197 54.8804 13.2249 54.8182 13.2249 54.7498V51.3483C13.2249 51.2799 13.197 51.2177 13.1522 51.1729C13.107 51.1283 13.0447 51.1002 12.9767 51.1002H9.57513C9.50682 51.1002 9.44473 51.128 9.40023 51.1725C9.3553 51.2182 9.32725 51.2805 9.32725 51.3483V54.7498C9.32725 54.8176 9.3553 54.8799 9.40023 54.9249C9.44473 54.9701 9.50682 54.9979 9.57513 54.9979ZM17.8363 50.3951V55.7101H23.1454V50.3951H17.8363ZM17.4819 55.7101V50.3951H8.61787V55.7101H17.4819Z" fill="#20201F"/>
<path fill-rule="evenodd" clip-rule="evenodd" d="M13.3811 80.2358C12.915 80.5355 12.3168 80.7206 11.791 80.7206C11.2734 80.7206 10.8695 80.543 10.5883 80.2523V80.2515C10.482 80.1414 10.3996 80.0107 10.3299 79.8722V80.4702C10.3299 80.8271 10.1808 81.0363 9.9414 81.1577C9.72357 81.2686 9.43542 81.2959 9.1195 81.2959H8.9891V81.2927C8.72577 81.2853 8.48539 81.2524 8.29817 81.1577C8.05892 81.0363 7.91052 80.8271 7.91052 80.4719V77.5394C7.91052 77.1827 8.05892 76.9738 8.29817 76.853C8.48539 76.7591 8.72577 76.7252 8.9891 76.7181V76.7148H9.1195C9.43542 76.7148 9.72357 76.7422 9.9414 76.853C10.1808 76.9738 10.3299 77.1827 10.3299 77.5394V78.1385C10.3996 78.0001 10.4811 77.8698 10.5883 77.7594C10.8695 77.4682 11.2734 77.2904 11.791 77.2904C12.3468 77.2904 12.9828 77.4976 13.4599 77.828C13.9001 78.1329 14.2091 78.5452 14.2091 79.0054C14.2091 79.4928 13.8626 79.9268 13.3811 80.2358ZM8.73059 78.9209H8.72974V78.9213C8.72974 79.0265 8.77367 79.1233 8.84327 79.193V79.1939C8.91285 79.2633 9.0088 79.3064 9.11525 79.3064C9.22184 79.3064 9.31694 79.2633 9.38652 79.1939H9.3878L9.38767 79.193C9.45725 79.1229 9.5002 79.0265 9.5002 78.9213C9.5002 78.8145 9.45725 78.718 9.3878 78.6488C9.31822 78.5793 9.22184 78.5358 9.11525 78.5358C9.0088 78.5358 8.9137 78.5793 8.84327 78.6488C8.77367 78.718 8.73059 78.8145 8.73059 78.9209ZM8.92774 78.9205V78.9213C8.92774 78.9732 8.94844 79.0201 8.98117 79.0534H8.98246C9.01604 79.087 9.06367 79.1084 9.11525 79.1084C9.16784 79.1084 9.21602 79.0876 9.24862 79.0551L9.24947 79.0537C9.28222 79.0201 9.30334 78.9732 9.30334 78.9213C9.30334 78.8676 9.28222 78.821 9.24947 78.7875C9.21602 78.7548 9.16784 78.7341 9.11525 78.7341C9.0628 78.7341 9.01506 78.7548 8.98246 78.7891C8.94759 78.8218 8.92647 78.8692 8.92647 78.9205H8.92774ZM10.0695 77.5394C10.0695 77.2988 9.975 77.1613 9.82519 77.0846C9.66985 77.0072 9.45442 76.9812 9.21092 76.9766H9.1195C8.83902 76.9766 8.58759 76.998 8.41452 77.0846C8.26457 77.1613 8.17117 77.2991 8.17117 77.5394V80.4719C8.17117 80.712 8.26457 80.849 8.41452 80.9257C8.58759 81.013 8.83902 81.0341 9.1195 81.0341H9.22099C9.45939 81.0288 9.67325 81.0031 9.82519 80.9261C9.97627 80.849 10.0695 80.7108 10.0695 80.4702V77.5394ZM13.3125 78.0413C12.8771 77.7394 12.297 77.5506 11.791 77.5506C11.3488 77.5506 11.0087 77.6983 10.7752 77.9394C10.5197 78.2032 10.3876 78.583 10.3876 79.0054C10.3876 79.4285 10.5197 79.8079 10.7752 80.0723C11.0087 80.3129 11.3488 80.4603 11.791 80.4603C12.2689 80.4603 12.8148 80.2912 13.2414 80.0172C13.6525 79.7533 13.9486 79.3939 13.9486 79.0054C13.9486 78.6401 13.6853 78.3007 13.3125 78.0413Z" fill="#20201F"/>
<path fill-rule="evenodd" clip-rule="evenodd" d="M7.89565 70.1734L7.89465 73.4217C7.89465 74.5081 10.1434 74.3801 10.2935 74.3689C10.8141 74.3689 11.2863 74.1566 11.628 73.8145C11.9692 73.4732 12.1806 73.0001 12.1806 72.4796V71.1012C12.1806 70.5797 11.9696 70.1072 11.628 69.7649C11.2863 69.4239 10.8132 69.2123 10.2926 69.21C10.14 69.2031 7.89465 69.0913 7.89565 70.1734ZM10.0861 71.791H10.0865C10.0877 71.6767 10.1326 71.5713 10.2077 71.496C10.2841 71.422 10.3883 71.3764 10.502 71.3764C10.6168 71.3764 10.7211 71.4223 10.7961 71.4976C10.8713 71.5727 10.9174 71.6767 10.9174 71.7914C10.9174 71.9053 10.8713 72.0095 10.7961 72.0846V72.0861H10.7952C10.7202 72.1612 10.6168 72.2081 10.502 72.2081C10.3883 72.2081 10.2827 72.1612 10.2077 72.0861V72.0856C10.1326 72.0105 10.0854 71.9053 10.0854 71.7914L10.0861 71.791ZM10.298 71.7903C10.298 71.736 10.3204 71.6848 10.358 71.6482C10.3937 71.6125 10.445 71.5896 10.502 71.5896C10.5587 71.5896 10.6101 71.6115 10.6468 71.6473C10.6821 71.6841 10.7054 71.7341 10.7048 71.7914C10.7048 71.8487 10.6825 71.8981 10.6468 71.9348L10.646 71.9357C10.6101 71.9721 10.5587 71.9944 10.502 71.9944C10.446 71.9944 10.3947 71.9707 10.358 71.9354L10.3575 71.9345C10.3215 71.8987 10.2999 71.8475 10.2999 71.7922L10.3003 71.7903H10.298ZM8.68722 71.791C8.68722 71.2673 8.84327 70.7919 9.0937 70.4462C9.35564 70.0871 9.72158 69.8638 10.1271 69.8636C10.5341 69.8636 10.9 70.0871 11.1624 70.4462C11.4143 70.7932 11.5689 71.2688 11.5689 71.7927V71.7949C11.5676 72.3174 11.4119 72.7917 11.1609 73.1384C10.8991 73.496 10.5341 73.7188 10.1294 73.7191L10.1271 73.7188C9.72058 73.7188 9.35677 73.496 9.0937 73.1356C8.84284 72.7907 8.68722 72.3155 8.68765 71.7922L8.68722 71.791ZM8.98019 71.791C8.98104 71.332 9.11567 70.9173 9.3321 70.6174C9.53904 70.3344 9.82093 70.1582 10.1271 70.1582C10.4352 70.1582 10.7171 70.3344 10.9249 70.6197C11.1405 70.918 11.2747 71.332 11.2747 71.7927V71.7935L11.2755 71.7949C11.2747 72.2543 11.1405 72.6673 10.9236 72.9656C10.7175 73.248 10.4352 73.424 10.1294 73.4249L10.1271 73.424C9.82037 73.4246 9.53819 73.2483 9.3321 72.9647C9.11652 72.6662 8.98104 72.252 8.98145 71.7927V71.791H8.98019ZM8.18889 70.1744C8.18889 69.3679 10.2765 69.5053 10.2819 69.5053L10.2926 69.5065C10.7326 69.5065 11.1305 69.6841 11.42 69.9717C11.7084 70.2618 11.8864 70.6605 11.8864 71.1012V72.4782C11.8864 72.9204 11.7092 73.3198 11.42 73.6087C11.132 73.8971 10.7326 74.0747 10.2926 74.0756L10.2823 74.076C10.277 74.076 8.18889 74.2239 8.18889 73.4209V70.1744Z" fill="#20201F"/>
<path fill-rule="evenodd" clip-rule="evenodd" d="M8.3196 68.0164H25.251V61.09H8.3196V68.0164ZM11.6188 63.88C11.8048 63.88 11.9732 63.9554 12.0949 64.0771C12.2167 64.1995 12.2921 64.3677 12.2921 64.5532C12.2921 64.7387 12.2167 64.9069 12.0949 65.0288C11.9725 65.151 11.8044 65.2264 11.6188 65.2264C11.4333 65.2264 11.2651 65.151 11.1432 65.0293C11.021 64.9076 10.9456 64.7391 10.9456 64.5532C10.9456 64.3673 11.021 64.1988 11.1427 64.0771C11.2644 63.9554 11.4329 63.88 11.6188 63.88ZM11.9047 64.2673C11.9775 64.3402 12.0228 64.4415 12.0228 64.5532C12.0228 64.6649 11.9775 64.7662 11.9047 64.8391C11.8318 64.9119 11.7306 64.9571 11.6188 64.9571C11.5071 64.9571 11.4058 64.9119 11.3331 64.8389C11.2601 64.7658 11.2149 64.6647 11.2149 64.5532C11.2149 64.4417 11.2601 64.3406 11.3331 64.2675C11.4062 64.1945 11.5073 64.1493 11.6188 64.1493C11.7303 64.1493 11.8314 64.1945 11.9047 64.2673ZM9.5975 61.2882L21.5496 61.5574C23.3447 61.5574 24.8146 62.7581 24.8146 64.5532C24.8146 66.3483 23.3447 67.5489 21.5496 67.5489L9.5975 67.8182C9.36591 67.8182 9.15535 67.7234 9.00308 67.5711C8.85076 67.4182 8.75598 67.2077 8.75598 66.9767V62.1297C8.75598 61.8989 8.85066 61.6886 9.00308 61.5359C9.15643 61.3828 9.36676 61.2882 9.5975 61.2882ZM21.5496 61.8941C23.1607 61.8941 24.478 62.942 24.478 64.5532C24.478 66.1644 23.1607 67.2123 21.5496 67.2123L9.5975 67.4816C9.45898 67.4816 9.3327 67.4246 9.24043 67.3331C9.1493 67.242 9.0926 67.1158 9.0926 66.9767V62.1297C9.0926 61.9906 9.1493 61.8645 9.24113 61.7726C9.33226 61.6815 9.45841 61.6248 9.5975 61.6248L21.5496 61.8941ZM25.2865 68.3461H8.28406C8.1995 68.3461 8.12235 68.3126 8.06646 68.2594C8.0102 68.2061 7.97546 68.1318 7.97546 68.0503V61.0561C7.97546 60.9746 8.0102 60.9003 8.0658 60.8469C8.1217 60.7935 8.19908 60.7603 8.28406 60.7603H25.2865C25.3715 60.7603 25.4489 60.7935 25.5048 60.8469C25.5601 60.9009 25.5951 60.975 25.5951 61.0561V68.0503C25.5951 68.1314 25.5603 68.2053 25.5048 68.2589C25.4481 68.3128 25.3711 68.3461 25.2865 68.3461Z" fill="#20201F"/>
<path fill-rule="evenodd" clip-rule="evenodd" d="M41.4058 89.4558V88.9691C41.4058 88.911 41.3582 88.8638 41.3004 88.8638H41.1986V83.8584C41.1986 83.7739 41.13 83.7053 41.0456 83.7053C40.9611 83.7053 40.8925 83.7739 40.8925 83.8584V88.8638H40.058C40.0003 88.8638 39.9525 88.9114 39.9525 88.9691V89.4558C39.9525 89.5139 39.9999 89.5611 40.058 89.5611H41.3004C41.3585 89.5611 41.4058 89.5139 41.4058 89.4558Z" fill="#20201F"/>
<path fill-rule="evenodd" clip-rule="evenodd" d="M39.9175 78.5492V79.0359C39.9175 79.094 39.9651 79.1412 40.0229 79.1412H40.1247V84.1466C40.1247 84.2311 40.1933 84.2997 40.2778 84.2997C40.3622 84.2997 40.4308 84.2311 40.4308 84.1466V79.1412H41.2654C41.323 79.1412 41.3708 79.0936 41.3708 79.0359V78.5492C41.3708 78.491 41.3235 78.4438 41.2654 78.4438H40.0229C39.9648 78.4438 39.9175 78.491 39.9175 78.5492Z" fill="#20201F"/>
<path d="M46.9476 36.2924V42.9998H45.3954V37.538H44.0539V36.2924H46.9476Z" fill="#20201F"/>
<path d="M50.108 31.5H49.7537V48.3491H50.108V31.5Z" fill="#20201F"/>
<path d="M54.3715 35.2119V35.4309H52.6912V35.2564L53.687 34.2811C53.8125 34.1579 53.8969 34.0518 53.9403 33.9628C53.9859 33.8716 54.0087 33.7803 54.0087 33.689C54.0087 33.5476 53.9597 33.4381 53.8616 33.3605C53.7658 33.2807 53.6277 33.2407 53.4475 33.2407C53.1669 33.2407 52.949 33.3297 52.7939 33.5077L52.6193 33.3571C52.7129 33.2476 52.8315 33.1632 52.9752 33.1039C53.1213 33.0445 53.2855 33.0149 53.468 33.0149C53.7121 33.0149 53.9049 33.0731 54.0464 33.1894C54.1901 33.3035 54.262 33.4609 54.262 33.6617C54.262 33.7849 54.2346 33.9035 54.1798 34.0176C54.1251 34.1316 54.0213 34.2628 53.8684 34.4111L53.0539 35.2119H54.3715ZM55.3446 33.0354V35.4309H55.0982V33.2544H54.5335V33.0354H55.3446ZM56.102 35.448C56.0518 35.448 56.0085 35.4298 55.972 35.3933C55.9377 35.3568 55.9206 35.3123 55.9206 35.2598C55.9206 35.2073 55.9377 35.164 55.972 35.1298C56.0085 35.0933 56.0518 35.075 56.102 35.075C56.1522 35.075 56.1955 35.0933 56.232 35.1298C56.2685 35.164 56.2868 35.2073 56.2868 35.2598C56.2868 35.3123 56.2685 35.3568 56.232 35.3933C56.1955 35.4298 56.1522 35.448 56.102 35.448ZM57.2662 33.0354V35.4309H57.0198V33.2544H56.4551V33.0354H57.2662ZM59.2111 34.175C59.3617 34.2252 59.4769 34.3005 59.5567 34.4008C59.6388 34.5012 59.6799 34.6221 59.6799 34.7636C59.6799 34.9028 59.6423 35.0248 59.567 35.1298C59.4917 35.2324 59.3833 35.3123 59.2419 35.3693C59.1027 35.4241 58.9385 35.4514 58.7491 35.4514C58.4616 35.4514 58.2358 35.3898 58.0715 35.2666C57.9073 35.1434 57.8251 34.9758 57.8251 34.7636C57.8251 34.6199 57.8639 34.4989 57.9415 34.4008C58.0213 34.3005 58.1365 34.2252 58.2871 34.175C58.1639 34.1271 58.0704 34.0586 58.0065 33.9697C57.9426 33.8784 57.9107 33.7712 57.9107 33.648C57.9107 33.4541 57.986 33.3001 58.1365 33.186C58.2894 33.0719 58.4936 33.0149 58.7491 33.0149C58.9179 33.0149 59.0651 33.0411 59.1906 33.0936C59.3183 33.1438 59.4176 33.2168 59.4883 33.3126C59.559 33.4084 59.5944 33.5202 59.5944 33.648C59.5944 33.7712 59.5613 33.8784 59.4951 33.9697C59.429 34.0586 59.3343 34.1271 59.2111 34.175ZM58.1571 33.6548C58.1571 33.7871 58.2095 33.8921 58.3145 33.9697C58.4194 34.0472 58.5643 34.086 58.7491 34.086C58.9339 34.086 59.0788 34.0472 59.1837 33.9697C59.2909 33.8921 59.3445 33.7883 59.3445 33.6582C59.3445 33.5236 59.2898 33.4176 59.1803 33.34C59.0731 33.2624 58.9293 33.2236 58.7491 33.2236C58.5666 33.2236 58.4217 33.2624 58.3145 33.34C58.2095 33.4176 58.1571 33.5225 58.1571 33.6548ZM58.7491 35.2427C58.9613 35.2427 59.1267 35.1993 59.2453 35.1127C59.3662 35.026 59.4267 34.9085 59.4267 34.7602C59.4267 34.6119 59.3662 34.4955 59.2453 34.4111C59.1267 34.3244 58.9613 34.2811 58.7491 34.2811C58.5392 34.2811 58.3738 34.3244 58.2529 34.4111C58.1343 34.4955 58.0749 34.6119 58.0749 34.7602C58.0749 34.9107 58.1343 35.0294 58.2529 35.1161C58.3715 35.2005 58.5369 35.2427 58.7491 35.2427Z" fill="#20201F"/>
<path d="M52.8126 38.9432C53.0636 38.9568 53.2541 39.0253 53.3841 39.1485C53.5164 39.2694 53.5826 39.428 53.5826 39.6242C53.5826 39.761 53.5495 39.8831 53.4833 39.9903C53.4172 40.0953 53.3191 40.1785 53.189 40.2401C53.059 40.3017 52.9004 40.3325 52.7134 40.3325C52.54 40.3325 52.3757 40.3052 52.2206 40.2504C52.0677 40.1934 51.9445 40.1181 51.851 40.0246L51.9708 39.8295C52.0506 39.9116 52.1567 39.9789 52.289 40.0314C52.4213 40.0816 52.5628 40.1067 52.7134 40.1067C52.9096 40.1067 53.0613 40.0645 53.1685 39.9801C53.2757 39.8934 53.3294 39.7747 53.3294 39.6242C53.3294 39.4759 53.2757 39.3595 53.1685 39.2751C53.0613 39.1907 52.8993 39.1485 52.6826 39.1485H52.5115V38.9671L53.1754 38.1355H51.9502V37.9165H53.4902V38.091L52.8126 38.9432ZM55.5769 37.9165V38.091L54.5742 40.312H54.3073L55.2928 38.1355H54.0609V38.5838H53.8179V37.9165H55.5769ZM55.9058 40.3291C55.8556 40.3291 55.8123 40.3109 55.7758 40.2744C55.7416 40.2379 55.7245 40.1934 55.7245 40.1409C55.7245 40.0884 55.7416 40.0451 55.7758 40.0109C55.8123 39.9744 55.8556 39.9561 55.9058 39.9561C55.956 39.9561 55.9994 39.9744 56.0359 40.0109C56.0724 40.0451 56.0906 40.0884 56.0906 40.1409C56.0906 40.1934 56.0724 40.2379 56.0359 40.2744C55.9994 40.3109 55.956 40.3291 55.9058 40.3291ZM57.4019 38.8781C57.5593 38.8781 57.6985 38.9078 57.8194 38.9671C57.9426 39.0264 58.0384 39.1108 58.1069 39.2204C58.1753 39.3276 58.2095 39.4531 58.2095 39.5968C58.2095 39.7428 58.1742 39.8717 58.1034 39.9835C58.0327 40.0953 57.9346 40.182 57.8091 40.2436C57.6859 40.3029 57.5468 40.3325 57.3916 40.3325C57.0745 40.3325 56.8315 40.2287 56.6627 40.0211C56.4939 39.8112 56.4095 39.5158 56.4095 39.1348C56.4095 38.8679 56.4551 38.642 56.5464 38.4572C56.6376 38.2724 56.7654 38.1333 56.9296 38.0397C57.0939 37.9439 57.2855 37.896 57.5046 37.896C57.7418 37.896 57.9312 37.9393 58.0726 38.026L57.9734 38.2245C57.8593 38.1492 57.7042 38.1116 57.508 38.1116C57.2433 38.1116 57.0357 38.196 56.8852 38.3648C56.7346 38.5314 56.6593 38.7743 56.6593 39.0937C56.6593 39.1508 56.6627 39.2158 56.6696 39.2888C56.7289 39.1588 56.8236 39.0584 56.9536 38.9876C57.0836 38.9146 57.2331 38.8781 57.4019 38.8781ZM57.3814 40.1238C57.5548 40.1238 57.6951 40.077 57.8023 39.9835C57.9118 39.8877 57.9666 39.761 57.9666 39.6036C57.9666 39.4462 57.9118 39.3207 57.8023 39.2272C57.6951 39.1337 57.5491 39.0869 57.3643 39.0869C57.2433 39.0869 57.1361 39.1097 57.0426 39.1553C56.9513 39.201 56.8795 39.2637 56.827 39.3435C56.7745 39.4234 56.7483 39.5124 56.7483 39.6105C56.7483 39.7017 56.7722 39.7861 56.8201 39.8637C56.8703 39.9413 56.9433 40.004 57.0392 40.0519C57.135 40.0998 57.249 40.1238 57.3814 40.1238ZM59.4496 40.3325C59.2648 40.3325 59.0994 40.2835 58.9534 40.1854C58.8097 40.0873 58.6967 39.947 58.6146 39.7645C58.5348 39.5797 58.4948 39.3629 58.4948 39.1143C58.4948 38.8656 58.5348 38.65 58.6146 38.4675C58.6967 38.2827 58.8097 38.1412 58.9534 38.0431C59.0994 37.945 59.2648 37.896 59.4496 37.896C59.6344 37.896 59.7987 37.945 59.9424 38.0431C60.0884 38.1412 60.2025 38.2827 60.2846 38.4675C60.3667 38.65 60.4078 38.8656 60.4078 39.1143C60.4078 39.3629 60.3667 39.5797 60.2846 39.7645C60.2025 39.947 60.0884 40.0873 59.9424 40.1854C59.7987 40.2835 59.6344 40.3325 59.4496 40.3325ZM59.4496 40.1067C59.5888 40.1067 59.7108 40.0679 59.8158 39.9903C59.923 39.9128 60.0063 39.7998 60.0656 39.6515C60.1249 39.5032 60.1546 39.3242 60.1546 39.1143C60.1546 38.9044 60.1249 38.7253 60.0656 38.577C60.0063 38.4287 59.923 38.3158 59.8158 38.2382C59.7108 38.1606 59.5888 38.1218 59.4496 38.1218C59.3104 38.1218 59.1873 38.1606 59.08 38.2382C58.9751 38.3158 58.8929 38.4287 58.8336 38.577C58.7743 38.7253 58.7447 38.9044 58.7447 39.1143C58.7447 39.3242 58.7743 39.5032 58.8336 39.6515C58.8929 39.7998 58.9751 39.9128 59.08 39.9903C59.1873 40.0679 59.3104 40.1067 59.4496 40.1067Z" fill="#20201F"/>
<path d="M52.7255 43.8238C52.9764 43.8375 53.1669 43.9059 53.2969 44.0291C53.4293 44.15 53.4954 44.3086 53.4954 44.5048C53.4954 44.6417 53.4623 44.7637 53.3962 44.8709C53.33 44.9759 53.2319 45.0592 53.1019 45.1208C52.9718 45.1824 52.8133 45.2132 52.6262 45.2132C52.4528 45.2132 52.2886 45.1858 52.1334 45.131C51.9806 45.074 51.8574 44.9987 51.7638 44.9052L51.8836 44.7101C51.9635 44.7922 52.0695 44.8595 52.2019 44.912C52.3342 44.9622 52.4756 44.9873 52.6262 44.9873C52.8224 44.9873 52.9741 44.9451 53.0814 44.8607C53.1886 44.774 53.2422 44.6554 53.2422 44.5048C53.2422 44.3565 53.1886 44.2401 53.0814 44.1557C52.9741 44.0713 52.8121 44.0291 52.5954 44.0291H52.4243V43.8477L53.0882 43.0162H51.8631V42.7971H53.403V42.9717L52.7255 43.8238ZM55.2149 43.9367C55.3655 43.9869 55.4807 44.0622 55.5605 44.1626C55.6427 44.2629 55.6837 44.3839 55.6837 44.5253C55.6837 44.6645 55.6461 44.7865 55.5708 44.8915C55.4955 44.9941 55.3871 45.074 55.2457 45.131C55.1065 45.1858 54.9423 45.2132 54.7529 45.2132C54.4654 45.2132 54.2396 45.1516 54.0753 45.0284C53.9111 44.9052 53.8289 44.7375 53.8289 44.5253C53.8289 44.3816 53.8677 44.2607 53.9453 44.1626C54.0251 44.0622 54.1403 43.9869 54.2909 43.9367C54.1677 43.8888 54.0742 43.8204 54.0103 43.7314C53.9464 43.6401 53.9145 43.5329 53.9145 43.4097C53.9145 43.2158 53.9898 43.0618 54.1403 42.9477C54.2932 42.8336 54.4974 42.7766 54.7529 42.7766C54.9217 42.7766 55.0689 42.8028 55.1944 42.8553C55.3221 42.9055 55.4214 42.9785 55.4921 43.0743C55.5628 43.1701 55.5982 43.2819 55.5982 43.4097C55.5982 43.5329 55.5651 43.6401 55.4989 43.7314C55.4328 43.8204 55.3381 43.8888 55.2149 43.9367ZM54.1609 43.4165C54.1609 43.5489 54.2133 43.6538 54.3183 43.7314C54.4232 43.8089 54.5681 43.8477 54.7529 43.8477C54.9377 43.8477 55.0826 43.8089 55.1875 43.7314C55.2947 43.6538 55.3484 43.55 55.3484 43.42C55.3484 43.2854 55.2936 43.1793 55.1841 43.1017C55.0769 43.0241 54.9331 42.9854 54.7529 42.9854C54.5704 42.9854 54.4255 43.0241 54.3183 43.1017C54.2133 43.1793 54.1609 43.2842 54.1609 43.4165ZM54.7529 45.0044C54.9651 45.0044 55.1305 44.9611 55.2491 44.8744C55.37 44.7877 55.4305 44.6702 55.4305 44.5219C55.4305 44.3736 55.37 44.2572 55.2491 44.1728C55.1305 44.0861 54.9651 44.0428 54.7529 44.0428C54.543 44.0428 54.3776 44.0861 54.2567 44.1728C54.1381 44.2572 54.0787 44.3736 54.0787 44.5219C54.0787 44.6725 54.1381 44.7911 54.2567 44.8778C54.3753 44.9622 54.5407 45.0044 54.7529 45.0044ZM56.2431 45.2097C56.1929 45.2097 56.1496 45.1915 56.1131 45.155C56.0788 45.1185 56.0617 45.074 56.0617 45.0215C56.0617 44.969 56.0788 44.9257 56.1131 44.8915C56.1496 44.855 56.1929 44.8367 56.2431 44.8367C56.2933 44.8367 56.3366 44.855 56.3731 44.8915C56.4097 44.9257 56.4279 44.969 56.4279 45.0215C56.4279 45.074 56.4097 45.1185 56.3731 45.155C56.3366 45.1915 56.2933 45.2097 56.2431 45.2097ZM58.4339 42.7971V42.9717L57.4313 45.1926H57.1643L58.1499 43.0162H56.9179V43.4645H56.675V42.7971H58.4339ZM59.5046 42.7766C59.8217 42.7766 60.0647 42.8815 60.2335 43.0914C60.4023 43.299 60.4868 43.5934 60.4868 43.9743C60.4868 44.2413 60.4411 44.4671 60.3499 44.6519C60.2586 44.8367 60.1309 44.977 59.9666 45.0729C59.8023 45.1664 59.6107 45.2132 59.3917 45.2132C59.1544 45.2132 58.9651 45.1698 58.8236 45.0831L58.9228 44.8846C59.0369 44.9599 59.1921 44.9976 59.3883 44.9976C59.6529 44.9976 59.8605 44.9143 60.0111 44.7477C60.1617 44.5789 60.2369 44.3348 60.2369 44.0154C60.2369 43.9561 60.2335 43.8911 60.2267 43.8204C60.1674 43.9504 60.0727 44.0519 59.9426 44.1249C59.8126 44.1956 59.6632 44.231 59.4943 44.231C59.3369 44.231 59.1966 44.2013 59.0734 44.142C58.9525 44.0827 58.8578 43.9994 58.7894 43.8922C58.7209 43.7827 58.6867 43.6561 58.6867 43.5124C58.6867 43.3663 58.7221 43.2374 58.7928 43.1257C58.8635 43.0139 58.9605 42.9283 59.0837 42.869C59.2092 42.8074 59.3495 42.7766 59.5046 42.7766ZM59.532 44.0223C59.6529 44.0223 59.759 43.9994 59.8502 43.9538C59.9438 43.9082 60.0168 43.8454 60.0693 43.7656C60.1217 43.6857 60.148 43.5968 60.148 43.4987C60.148 43.4074 60.1229 43.323 60.0727 43.2454C60.0248 43.1679 59.9529 43.1051 59.8571 43.0572C59.7613 43.0093 59.6472 42.9854 59.5149 42.9854C59.3415 42.9854 59.2 43.0333 59.0905 43.1291C58.9833 43.2226 58.9297 43.3481 58.9297 43.5055C58.9297 43.6629 58.9833 43.7884 59.0905 43.882C59.2 43.9755 59.3472 44.0223 59.532 44.0223Z" fill="#20201F"/>
<path d="M43.9897 59.4883H43.0451V60.8914H42.5147V59.0503H43.9897V59.4883ZM45.0581 60.9187C44.8642 60.9187 44.6896 60.8788 44.5345 60.799C44.3816 60.7168 44.2619 60.6039 44.1752 60.4602C44.0885 60.3164 44.0451 60.1533 44.0451 59.9708C44.0451 59.7883 44.0885 59.6252 44.1752 59.4814C44.2619 59.3377 44.3816 59.2259 44.5345 59.1461C44.6896 59.0639 44.8642 59.0229 45.0581 59.0229C45.252 59.0229 45.4254 59.0639 45.5782 59.1461C45.7311 59.2259 45.8509 59.3377 45.9376 59.4814C46.0243 59.6252 46.0676 59.7883 46.0676 59.9708C46.0676 60.1533 46.0243 60.3164 45.9376 60.4602C45.8509 60.6039 45.7311 60.7168 45.5782 60.799C45.4254 60.8788 45.252 60.9187 45.0581 60.9187ZM45.0581 60.4807C45.195 60.4807 45.3068 60.4351 45.3935 60.3438C45.4824 60.2503 45.5269 60.1259 45.5269 59.9708C45.5269 59.8157 45.4824 59.6925 45.3935 59.6012C45.3068 59.5077 45.195 59.4609 45.0581 59.4609C44.9212 59.4609 44.8083 59.5077 44.7193 59.6012C44.6303 59.6925 44.5858 59.8157 44.5858 59.9708C44.5858 60.1259 44.6303 60.2503 44.7193 60.3438C44.8083 60.4351 44.9212 60.4807 45.0581 60.4807ZM47.3109 60.9187C47.1147 60.9187 46.9378 60.8788 46.7804 60.799C46.6253 60.7168 46.5032 60.6039 46.4143 60.4602C46.3276 60.3164 46.2842 60.1533 46.2842 59.9708C46.2842 59.7883 46.3276 59.6252 46.4143 59.4814C46.5032 59.3377 46.6253 59.2259 46.7804 59.1461C46.9378 59.0639 47.1147 59.0229 47.3109 59.0229C47.5048 59.0229 47.6736 59.0639 47.8173 59.1461C47.9633 59.2259 48.0694 59.3411 48.1356 59.4917L47.7215 59.7141C47.6257 59.5453 47.4877 59.4609 47.3074 59.4609C47.1683 59.4609 47.0531 59.5065 46.9618 59.5978C46.8705 59.689 46.8249 59.8134 46.8249 59.9708C46.8249 60.1282 46.8705 60.2526 46.9618 60.3438C47.0531 60.4351 47.1683 60.4807 47.3074 60.4807C47.49 60.4807 47.628 60.3963 47.7215 60.2275L48.1356 60.4533C48.0694 60.5993 47.9633 60.7134 47.8173 60.7955C47.6736 60.8777 47.5048 60.9187 47.3109 60.9187ZM50.0001 59.4883H49.3773V60.8914H48.8469V59.4883H48.224V59.0503H50.0001V59.4883ZM50.2847 59.0503H50.8151V60.1453L51.7117 59.0503H52.2011V60.8914H51.6707V59.7963L50.7775 60.8914H50.2847V59.0503ZM52.7143 59.0503H53.2447V59.7689H54.0455V59.0503H54.5793V60.8914H54.0455V60.2035H53.2447V60.8914H52.7143V59.0503ZM55.8056 59.0229C56.0908 59.0229 56.3098 59.0913 56.4627 59.2282C56.6155 59.3628 56.6919 59.567 56.6919 59.8408V60.8914H56.1923V60.6621C56.0919 60.8332 55.9048 60.9187 55.6311 60.9187C55.4896 60.9187 55.3664 60.8948 55.2615 60.8469C55.1588 60.799 55.0801 60.7328 55.0254 60.6484C54.9706 60.564 54.9432 60.4682 54.9432 60.3609C54.9432 60.1898 55.0071 60.0552 55.1349 59.9571C55.2649 59.859 55.4645 59.81 55.7337 59.81H56.1581C56.1581 59.6936 56.1227 59.6046 56.052 59.543C55.9813 59.4792 55.8752 59.4472 55.7337 59.4472C55.6356 59.4472 55.5387 59.4632 55.4429 59.4951C55.3493 59.5248 55.2695 59.5659 55.2033 59.6183L55.0117 59.2453C55.1121 59.1746 55.2318 59.1198 55.371 59.0811C55.5124 59.0423 55.6573 59.0229 55.8056 59.0229ZM55.7645 60.5594C55.8558 60.5594 55.9368 60.5389 56.0075 60.4978C56.0782 60.4545 56.1284 60.3917 56.1581 60.3096V60.1214H55.7919C55.5729 60.1214 55.4634 60.1932 55.4634 60.337C55.4634 60.4054 55.4896 60.4602 55.5421 60.5012C55.5969 60.54 55.671 60.5594 55.7645 60.5594ZM58.7915 59.0503V60.8914H58.3158V60.3643H57.9222L57.5732 60.8914H57.0051L57.426 60.2891C57.2983 60.2389 57.2002 60.167 57.1317 60.0735C57.0656 59.9776 57.0325 59.8624 57.0325 59.7278C57.0325 59.5111 57.1101 59.3446 57.2652 59.2282C57.4226 59.1096 57.6382 59.0503 57.912 59.0503H58.7915ZM57.9222 59.4849C57.8082 59.4849 57.7215 59.5054 57.6622 59.5465C57.6051 59.5875 57.5766 59.6537 57.5766 59.7449C57.5766 59.8362 57.604 59.9035 57.6587 59.9468C57.7158 59.9879 57.8013 60.0084 57.9154 60.0084H58.3158V59.4849H57.9222Z" fill="#20201F"/>
<path d="M48.6621 65.3207V65.7725H46.8518V65.4131L47.7758 64.5405C47.8739 64.447 47.9401 64.3671 47.9743 64.3009C48.0085 64.2325 48.0256 64.1652 48.0256 64.099C48.0256 64.0032 47.9925 63.9302 47.9264 63.88C47.8625 63.8275 47.7678 63.8013 47.6423 63.8013C47.5374 63.8013 47.4427 63.8218 47.3583 63.8629C47.2739 63.9017 47.2032 63.961 47.1461 64.0409L46.7423 63.7808C46.8359 63.6416 46.9648 63.5332 47.129 63.4557C47.2933 63.3758 47.4815 63.3359 47.6937 63.3359C47.8716 63.3359 48.0268 63.3656 48.1591 63.4249C48.2937 63.4819 48.3975 63.564 48.4705 63.6713C48.5458 63.7762 48.5834 63.9006 48.5834 64.0443C48.5834 64.1743 48.556 64.2964 48.5013 64.4105C48.4465 64.5245 48.3404 64.6546 48.183 64.8006L47.6321 65.3207H48.6621ZM49.8149 63.377V65.7725H49.2605V63.8218H48.7814V63.377H49.8149ZM50.5458 65.7998C50.4523 65.7998 50.3736 65.7679 50.3097 65.704C50.2458 65.6401 50.2139 65.5603 50.2139 65.4645C50.2139 65.3664 50.2458 65.2877 50.3097 65.2283C50.3736 65.1667 50.4523 65.1359 50.5458 65.1359C50.6394 65.1359 50.7181 65.1667 50.782 65.2283C50.8458 65.2877 50.8778 65.3664 50.8778 65.4645C50.8778 65.5603 50.8458 65.6401 50.782 65.704C50.7181 65.7679 50.6394 65.7998 50.5458 65.7998ZM51.9971 63.377V65.7725H51.4427V63.8218H50.9636V63.377H51.9971ZM54.0525 64.5131C54.1711 64.5724 54.2612 64.65 54.3228 64.7458C54.3867 64.8416 54.4186 64.9523 54.4186 65.0778C54.4186 65.2261 54.3764 65.3561 54.292 65.4679C54.2076 65.5774 54.089 65.663 53.9361 65.7246C53.7833 65.7839 53.6064 65.8135 53.4057 65.8135C53.2049 65.8135 53.0281 65.7839 52.8753 65.7246C52.7247 65.663 52.6072 65.5774 52.5228 65.4679C52.4406 65.3561 52.3996 65.2261 52.3996 65.0778C52.3996 64.9523 52.4304 64.8416 52.492 64.7458C52.5559 64.65 52.646 64.5724 52.7623 64.5131C52.6733 64.4584 52.6049 64.3899 52.557 64.3078C52.5091 64.2234 52.4851 64.1276 52.4851 64.0203C52.4851 63.8812 52.5239 63.7602 52.6015 63.6576C52.6791 63.5549 52.7874 63.4762 52.9266 63.4215C53.0658 63.3644 53.2255 63.3359 53.4057 63.3359C53.5882 63.3359 53.749 63.3644 53.8882 63.4215C54.0297 63.4762 54.1392 63.5549 54.2167 63.6576C54.2943 63.7602 54.3331 63.8812 54.3331 64.0203C54.3331 64.1276 54.3091 64.2234 54.2612 64.3078C54.2133 64.3899 54.1437 64.4584 54.0525 64.5131ZM53.4057 63.7431C53.2939 63.7431 53.2038 63.7705 53.1353 63.8253C53.0692 63.8777 53.0361 63.9507 53.0361 64.0443C53.0361 64.1355 53.0692 64.2074 53.1353 64.2599C53.2015 64.3124 53.2916 64.3386 53.4057 64.3386C53.5198 64.3386 53.611 64.3124 53.6795 64.2599C53.7479 64.2074 53.7821 64.1355 53.7821 64.0443C53.7821 63.9507 53.7479 63.8777 53.6795 63.8253C53.611 63.7705 53.5198 63.7431 53.4057 63.7431ZM53.4057 65.4063C53.5448 65.4063 53.6544 65.3755 53.7342 65.3139C53.8163 65.25 53.8574 65.1656 53.8574 65.0607C53.8574 64.9557 53.8163 64.8724 53.7342 64.8108C53.6544 64.7492 53.5448 64.7184 53.4057 64.7184C53.2688 64.7184 53.1604 64.7492 53.0806 64.8108C53.0007 64.8724 52.9608 64.9557 52.9608 65.0607C52.9608 65.1679 53.0007 65.2523 53.0806 65.3139C53.1604 65.3755 53.2688 65.4063 53.4057 65.4063Z" fill="#20201F"/>
<path d="M16.6865 35.5797H16.4093V36.2778H15.8754V34.4367H16.4093V35.152H16.6967L17.1964 34.4367H17.7645L17.1211 35.3196L17.8089 36.2778H17.1793L16.6865 35.5797ZM19.812 34.4367L18.9804 36.3908C18.896 36.6029 18.7911 36.7524 18.6656 36.8391C18.5424 36.9258 18.393 36.9691 18.2173 36.9691C18.1215 36.9691 18.0268 36.9543 17.9333 36.9246C17.8397 36.895 17.7633 36.8539 17.704 36.8014L17.899 36.4216C17.9401 36.4581 17.9869 36.4866 18.0393 36.5071C18.0941 36.5276 18.1477 36.5379 18.2002 36.5379C18.2732 36.5379 18.3325 36.5197 18.3781 36.4832C18.4238 36.4489 18.4648 36.3908 18.5013 36.3086L18.5082 36.2915L17.7108 34.4367H18.2618L18.7785 35.6858L19.2987 34.4367H19.812ZM21.1226 36.2778L20.7188 35.7132L20.3013 36.2778H19.7196L20.4279 35.3504L19.7435 34.4367H20.3424L20.7325 34.974L21.1329 34.4367H21.701L21.0165 35.3367L21.7283 36.2778H21.1226ZM21.9912 34.4367H22.5216V35.1554H23.3224V34.4367H23.8562V36.2778H23.3224V35.59H22.5216V36.2778H21.9912V34.4367ZM26.003 34.4367V36.2778H25.5274V35.7508H25.1338L24.7848 36.2778H24.2167L24.6376 35.6755C24.5099 35.6253 24.4118 35.5535 24.3433 35.4599C24.2771 35.3641 24.2441 35.2489 24.2441 35.1143C24.2441 34.8976 24.3216 34.731 24.4768 34.6147C24.6342 34.496 24.8498 34.4367 25.1236 34.4367H26.003ZM25.1338 34.8713C25.0198 34.8713 24.9331 34.8919 24.8737 34.9329C24.8167 34.974 24.7882 35.0402 24.7882 35.1314C24.7882 35.2227 24.8156 35.29 24.8703 35.3333C24.9274 35.3744 25.0129 35.3949 25.127 35.3949H25.5274V34.8713H25.1338Z" fill="#20201F"/>
<path d="M19.4605 39.8996C19.5792 39.9589 19.6693 40.0365 19.7309 40.1323C19.7948 40.2281 19.8267 40.3388 19.8267 40.4642C19.8267 40.6125 19.7845 40.7426 19.7001 40.8544C19.6157 40.9639 19.497 41.0494 19.3442 41.111C19.1913 41.1703 19.0145 41.2 18.8137 41.2C18.613 41.2 18.4362 41.1703 18.2833 41.111C18.1327 41.0494 18.0153 40.9639 17.9308 40.8544C17.8487 40.7426 17.8076 40.6125 17.8076 40.4642C17.8076 40.3388 17.8384 40.2281 17.9 40.1323C17.9639 40.0365 18.054 39.9589 18.1704 39.8996C18.0814 39.8448 18.013 39.7764 17.9651 39.6943C17.9171 39.6099 17.8932 39.514 17.8932 39.4068C17.8932 39.2676 17.932 39.1467 18.0095 39.0441C18.0871 38.9414 18.1955 38.8627 18.3346 38.8079C18.4738 38.7509 18.6335 38.7224 18.8137 38.7224C18.9963 38.7224 19.1571 38.7509 19.2963 38.8079C19.4377 38.8627 19.5472 38.9414 19.6248 39.0441C19.7024 39.1467 19.7411 39.2676 19.7411 39.4068C19.7411 39.514 19.7172 39.6099 19.6693 39.6943C19.6214 39.7764 19.5518 39.8448 19.4605 39.8996ZM18.8137 39.1296C18.702 39.1296 18.6118 39.157 18.5434 39.2117C18.4772 39.2642 18.4442 39.3372 18.4442 39.4308C18.4442 39.522 18.4772 39.5939 18.5434 39.6464C18.6096 39.6988 18.6997 39.7251 18.8137 39.7251C18.9278 39.7251 19.0191 39.6988 19.0875 39.6464C19.156 39.5939 19.1902 39.522 19.1902 39.4308C19.1902 39.3372 19.156 39.2642 19.0875 39.2117C19.0191 39.157 18.9278 39.1296 18.8137 39.1296ZM18.8137 40.7928C18.9529 40.7928 19.0624 40.762 19.1423 40.7004C19.2244 40.6365 19.2655 40.5521 19.2655 40.4471C19.2655 40.3422 19.2244 40.2589 19.1423 40.1973C19.0624 40.1357 18.9529 40.1049 18.8137 40.1049C18.6769 40.1049 18.5685 40.1357 18.4886 40.1973C18.4088 40.2589 18.3689 40.3422 18.3689 40.4471C18.3689 40.5544 18.4088 40.6388 18.4886 40.7004C18.5685 40.762 18.6769 40.7928 18.8137 40.7928ZM20.4287 41.1863C20.3352 41.1863 20.2565 41.1544 20.1926 41.0905C20.1287 41.0266 20.0968 40.9468 20.0968 40.8509C20.0968 40.7528 20.1287 40.6741 20.1926 40.6148C20.2565 40.5532 20.3352 40.5224 20.4287 40.5224C20.5223 40.5224 20.601 40.5532 20.6649 40.6148C20.7287 40.6741 20.7607 40.7528 20.7607 40.8509C20.7607 40.9468 20.7287 41.0266 20.6649 41.0905C20.601 41.1544 20.5223 41.1863 20.4287 41.1863ZM21.88 38.7634V41.1589H21.3256V39.2083H20.8465V38.7634H21.88ZM24.0859 40.7072V41.1589H22.2756V40.7996L23.1996 39.927C23.2977 39.8334 23.3639 39.7536 23.3981 39.6874C23.4323 39.619 23.4494 39.5517 23.4494 39.4855C23.4494 39.3897 23.4163 39.3167 23.3502 39.2665C23.2863 39.214 23.1916 39.1878 23.0661 39.1878C22.9612 39.1878 22.8665 39.2083 22.7821 39.2494C22.6977 39.2882 22.627 39.3475 22.5699 39.4273L22.1661 39.1673C22.2597 39.0281 22.3886 38.9197 22.5528 38.8422C22.7171 38.7623 22.9053 38.7224 23.1175 38.7224C23.2954 38.7224 23.4506 38.752 23.5829 38.8114C23.7175 38.8684 23.8213 38.9505 23.8943 39.0577C23.9696 39.1627 24.0072 39.287 24.0072 39.4308C24.0072 39.5608 23.9799 39.6829 23.9251 39.7969C23.8703 39.911 23.7643 40.041 23.6068 40.1871L23.0559 40.7072H24.0859Z" fill="#20201F"/>
<path d="M32.4005 67.2905L31.8995 66.6305L31.3955 67.2905H31.1555L31.7795 66.4805L31.1855 65.7125H31.4255L31.8995 66.3305L32.3735 65.7125H32.6075L32.0135 66.4805L32.6435 67.2905H32.4005ZM33.5879 67.3055C33.4359 67.3055 33.2989 67.2715 33.1769 67.2035C33.0549 67.1335 32.9589 67.0375 32.8889 66.9155C32.8189 66.7935 32.7839 66.6555 32.7839 66.5015C32.7839 66.3475 32.8189 66.2095 32.8889 66.0875C32.9589 65.9655 33.0549 65.8705 33.1769 65.8025C33.2989 65.7345 33.4359 65.7005 33.5879 65.7005C33.7399 65.7005 33.8769 65.7345 33.9989 65.8025C34.1209 65.8705 34.2159 65.9655 34.2839 66.0875C34.3539 66.2095 34.3889 66.3475 34.3889 66.5015C34.3889 66.6555 34.3539 66.7935 34.2839 66.9155C34.2159 67.0375 34.1209 67.1335 33.9989 67.2035C33.8769 67.2715 33.7399 67.3055 33.5879 67.3055ZM33.5879 67.1165C33.6999 67.1165 33.7999 67.0915 33.8879 67.0415C33.9779 66.9895 34.0479 66.9165 34.0979 66.8225C34.1479 66.7285 34.1729 66.6215 34.1729 66.5015C34.1729 66.3815 34.1479 66.2745 34.0979 66.1805C34.0479 66.0865 33.9779 66.0145 33.8879 65.9645C33.7999 65.9125 33.6999 65.8865 33.5879 65.8865C33.4759 65.8865 33.3749 65.9125 33.2849 65.9645C33.1969 66.0145 33.1269 66.0865 33.0749 66.1805C33.0249 66.2745 32.9999 66.3815 32.9999 66.5015C32.9999 66.6215 33.0249 66.7285 33.0749 66.8225C33.1269 66.9165 33.1969 66.9895 33.2849 67.0415C33.3749 67.0915 33.4759 67.1165 33.5879 67.1165ZM36.1253 65.7125V67.2905H35.9123V65.9015H35.1563L35.1353 66.2915C35.1193 66.6195 35.0813 66.8715 35.0213 67.0475C34.9613 67.2235 34.8543 67.3115 34.7003 67.3115C34.6583 67.3115 34.6073 67.3035 34.5473 67.2875L34.5623 67.1045C34.5983 67.1125 34.6233 67.1165 34.6373 67.1165C34.7193 67.1165 34.7813 67.0785 34.8233 67.0025C34.8653 66.9265 34.8933 66.8325 34.9073 66.7205C34.9213 66.6085 34.9333 66.4605 34.9433 66.2765L34.9703 65.7125H36.1253ZM38.0209 65.7125V67.2905H37.8079V65.9015H37.0519L37.0309 66.2915C37.0149 66.6195 36.9769 66.8715 36.9169 67.0475C36.8569 67.2235 36.7499 67.3115 36.5959 67.3115C36.5539 67.3115 36.5029 67.3035 36.4429 67.2875L36.4579 67.1045C36.4939 67.1125 36.5189 67.1165 36.5329 67.1165C36.6149 67.1165 36.6769 67.0785 36.7189 67.0025C36.7609 66.9265 36.7889 66.8325 36.8029 66.7205C36.8169 66.6085 36.8289 66.4605 36.8389 66.2765L36.8659 65.7125H38.0209Z" fill="black"/>
<path d="M32.7051 70.9716C32.9251 70.9836 33.0921 71.0436 33.2061 71.1516C33.3221 71.2576 33.3801 71.3966 33.3801 71.5686C33.3801 71.6886 33.3511 71.7956 33.2931 71.8896C33.2351 71.9816 33.1491 72.0546 33.0351 72.1086C32.9211 72.1626 32.7821 72.1896 32.6181 72.1896C32.4661 72.1896 32.3221 72.1656 32.1861 72.1176C32.0521 72.0676 31.9441 72.0016 31.8621 71.9196L31.9671 71.7486C32.0371 71.8206 32.1301 71.8796 32.2461 71.9256C32.3621 71.9696 32.4861 71.9916 32.6181 71.9916C32.7901 71.9916 32.9231 71.9546 33.0171 71.8806C33.1111 71.8046 33.1581 71.7006 33.1581 71.5686C33.1581 71.4386 33.1111 71.3366 33.0171 71.2626C32.9231 71.1886 32.7811 71.1516 32.5911 71.1516H32.4411V70.9926L33.0231 70.2636H31.9491V70.0716H33.2991V70.2246L32.7051 70.9716ZM33.8464 72.1866C33.8024 72.1866 33.7644 72.1706 33.7324 72.1386C33.7024 72.1066 33.6874 72.0676 33.6874 72.0216C33.6874 71.9756 33.7024 71.9376 33.7324 71.9076C33.7644 71.8756 33.8024 71.8596 33.8464 71.8596C33.8904 71.8596 33.9284 71.8756 33.9604 71.9076C33.9924 71.9376 34.0084 71.9756 34.0084 72.0216C34.0084 72.0676 33.9924 72.1066 33.9604 72.1386C33.9284 72.1706 33.8904 72.1866 33.8464 72.1866ZM35.767 70.0716V70.2246L34.888 72.1716H34.654L35.518 70.2636H34.438V70.6566H34.225V70.0716H35.767ZM37.4856 71.9796V72.1716H36.0126V72.0186L36.8856 71.1636C36.9956 71.0556 37.0696 70.9626 37.1076 70.8846C37.1476 70.8046 37.1676 70.7246 37.1676 70.6446C37.1676 70.5206 37.1246 70.4246 37.0386 70.3566C36.9546 70.2866 36.8336 70.2516 36.6756 70.2516C36.4296 70.2516 36.2386 70.3296 36.1026 70.4856L35.9496 70.3536C36.0316 70.2576 36.1356 70.1836 36.2616 70.1316C36.3896 70.0796 36.5336 70.0536 36.6936 70.0536C36.9076 70.0536 37.0766 70.1046 37.2006 70.2066C37.3266 70.3066 37.3896 70.4446 37.3896 70.6206C37.3896 70.7286 37.3656 70.8326 37.3176 70.9326C37.2696 71.0326 37.1786 71.1476 37.0446 71.2776L36.3306 71.9796H37.4856Z" fill="black"/>
<path d="M20.2527 10.5423C20.3987 10.5423 20.5287 10.5753 20.6427 10.6413C20.7587 10.7053 20.8487 10.7963 20.9127 10.9143C20.9767 11.0303 21.0087 11.1633 21.0087 11.3133C21.0087 11.4673 20.9747 11.6043 20.9067 11.7243C20.8407 11.8423 20.7477 11.9343 20.6277 12.0003C20.5077 12.0663 20.3697 12.0993 20.2137 12.0993C19.9517 12.0993 19.7487 12.0073 19.6047 11.8233C19.4607 11.6393 19.3887 11.3853 19.3887 11.0613C19.3887 10.7233 19.4527 10.4643 19.5807 10.2843C19.7107 10.1043 19.9127 9.98227 20.1867 9.91826L20.8947 9.75626L20.9307 9.95127L20.2647 10.1043C20.0387 10.1543 19.8727 10.2433 19.7667 10.3713C19.6607 10.4973 19.6027 10.6843 19.5927 10.9323C19.6567 10.8103 19.7457 10.7153 19.8597 10.6473C19.9737 10.5773 20.1047 10.5423 20.2527 10.5423ZM20.2197 11.9223C20.3297 11.9223 20.4277 11.8973 20.5137 11.8473C20.6017 11.7953 20.6697 11.7233 20.7177 11.6313C20.7677 11.5393 20.7927 11.4353 20.7927 11.3193C20.7927 11.2033 20.7687 11.1013 20.7207 11.0133C20.6727 10.9253 20.6047 10.8573 20.5167 10.8093C20.4307 10.7593 20.3317 10.7343 20.2197 10.7343C20.1077 10.7343 20.0077 10.7593 19.9197 10.8093C19.8337 10.8573 19.7657 10.9253 19.7157 11.0133C19.6677 11.1013 19.6437 11.2033 19.6437 11.3193C19.6437 11.4353 19.6677 11.5393 19.7157 11.6313C19.7657 11.7233 19.8347 11.7953 19.9227 11.8473C20.0107 11.8973 20.1097 11.9223 20.2197 11.9223ZM21.9995 10.4913C22.2055 10.4913 22.3635 10.5433 22.4735 10.6473C22.5835 10.7493 22.6385 10.9013 22.6385 11.1033V12.0813H22.4345V11.8353C22.3865 11.9173 22.3155 11.9813 22.2215 12.0273C22.1295 12.0733 22.0195 12.0963 21.8915 12.0963C21.7155 12.0963 21.5755 12.0543 21.4715 11.9703C21.3675 11.8863 21.3155 11.7753 21.3155 11.6373C21.3155 11.5033 21.3635 11.3953 21.4595 11.3133C21.5575 11.2313 21.7125 11.1903 21.9245 11.1903H22.4255V11.0943C22.4255 10.9583 22.3875 10.8553 22.3115 10.7853C22.2355 10.7133 22.1245 10.6773 21.9785 10.6773C21.8785 10.6773 21.7825 10.6943 21.6905 10.7283C21.5985 10.7603 21.5195 10.8053 21.4535 10.8633L21.3575 10.7043C21.4375 10.6363 21.5335 10.5843 21.6455 10.5483C21.7575 10.5103 21.8755 10.4913 21.9995 10.4913ZM21.9245 11.9283C22.0445 11.9283 22.1475 11.9013 22.2335 11.8473C22.3195 11.7913 22.3835 11.7113 22.4255 11.6073V11.3493H21.9305C21.6605 11.3493 21.5255 11.4433 21.5255 11.6313C21.5255 11.7233 21.5605 11.7963 21.6305 11.8503C21.7005 11.9023 21.7985 11.9283 21.9245 11.9283ZM24.4955 10.5033V12.0813H24.2825V10.6923H23.5265L23.5055 11.0823C23.4895 11.4103 23.4515 11.6623 23.3915 11.8383C23.3315 12.0143 23.2245 12.1023 23.0705 12.1023C23.0285 12.1023 22.9775 12.0943 22.9175 12.0783L22.9325 11.8953C22.9685 11.9033 22.9935 11.9073 23.0075 11.9073C23.0895 11.9073 23.1515 11.8693 23.1935 11.7933C23.2355 11.7173 23.2635 11.6233 23.2775 11.5113C23.2915 11.3993 23.3035 11.2513 23.3135 11.0673L23.3405 10.5033H24.4955ZM25.6741 11.3793H25.3141V12.0813H25.1011V10.5033H25.3141V11.1963H25.6771L26.2321 10.5033H26.4631L25.8421 11.2683L26.5081 12.0813H26.2561L25.6741 11.3793ZM27.4396 12.0963C27.2876 12.0963 27.1506 12.0623 27.0286 11.9943C26.9066 11.9243 26.8106 11.8283 26.7406 11.7063C26.6706 11.5843 26.6356 11.4463 26.6356 11.2923C26.6356 11.1383 26.6706 11.0003 26.7406 10.8783C26.8106 10.7563 26.9066 10.6613 27.0286 10.5933C27.1506 10.5253 27.2876 10.4913 27.4396 10.4913C27.5916 10.4913 27.7286 10.5253 27.8506 10.5933C27.9726 10.6613 28.0676 10.7563 28.1356 10.8783C28.2056 11.0003 28.2406 11.1383 28.2406 11.2923C28.2406 11.4463 28.2056 11.5843 28.1356 11.7063C28.0676 11.8283 27.9726 11.9243 27.8506 11.9943C27.7286 12.0623 27.5916 12.0963 27.4396 12.0963ZM27.4396 11.9073C27.5516 11.9073 27.6516 11.8823 27.7396 11.8323C27.8296 11.7803 27.8996 11.7073 27.9496 11.6133C27.9996 11.5193 28.0246 11.4123 28.0246 11.2923C28.0246 11.1723 27.9996 11.0653 27.9496 10.9713C27.8996 10.8773 27.8296 10.8053 27.7396 10.7553C27.6516 10.7033 27.5516 10.6773 27.4396 10.6773C27.3276 10.6773 27.2266 10.7033 27.1366 10.7553C27.0486 10.8053 26.9786 10.8773 26.9266 10.9713C26.8766 11.0653 26.8516 11.1723 26.8516 11.2923C26.8516 11.4123 26.8766 11.5193 26.9266 11.6133C26.9786 11.7073 27.0486 11.7803 27.1366 11.8323C27.2266 11.8823 27.3276 11.9073 27.4396 11.9073ZM28.6959 10.5033H28.9089V11.2023H29.9019V10.5033H30.1149V12.0813H29.9019V11.3853H28.9089V12.0813H28.6959V10.5033Z" fill="#20201F"/>
<path d="M22.5548 15.7624C22.7748 15.7744 22.9418 15.8344 23.0558 15.9424C23.1718 16.0484 23.2298 16.1874 23.2298 16.3594C23.2298 16.4794 23.2008 16.5864 23.1428 16.6804C23.0848 16.7724 22.9988 16.8454 22.8848 16.8994C22.7708 16.9534 22.6318 16.9804 22.4678 16.9804C22.3158 16.9804 22.1718 16.9564 22.0358 16.9084C21.9018 16.8584 21.7938 16.7924 21.7118 16.7104L21.8168 16.5394C21.8868 16.6114 21.9798 16.6704 22.0958 16.7164C22.2118 16.7604 22.3358 16.7824 22.4678 16.7824C22.6398 16.7824 22.7728 16.7454 22.8668 16.6714C22.9608 16.5954 23.0078 16.4914 23.0078 16.3594C23.0078 16.2294 22.9608 16.1274 22.8668 16.0534C22.7728 15.9794 22.6308 15.9424 22.4408 15.9424H22.2908V15.7834L22.8728 15.0544H21.7988V14.8624H23.1488V15.0154L22.5548 15.7624ZM23.6962 16.9774C23.6522 16.9774 23.6142 16.9614 23.5822 16.9294C23.5522 16.8974 23.5372 16.8584 23.5372 16.8124C23.5372 16.7664 23.5522 16.7284 23.5822 16.6984C23.6142 16.6664 23.6522 16.6504 23.6962 16.6504C23.7402 16.6504 23.7782 16.6664 23.8102 16.6984C23.8422 16.7284 23.8582 16.7664 23.8582 16.8124C23.8582 16.8584 23.8422 16.8974 23.8102 16.9294C23.7782 16.9614 23.7402 16.9774 23.6962 16.9774ZM24.824 14.8444C25.102 14.8444 25.315 14.9364 25.463 15.1204C25.611 15.3024 25.685 15.5604 25.685 15.8944C25.685 16.1284 25.645 16.3264 25.565 16.4884C25.485 16.6504 25.373 16.7734 25.229 16.8574C25.085 16.9394 24.917 16.9804 24.725 16.9804C24.517 16.9804 24.351 16.9424 24.227 16.8664L24.314 16.6924C24.414 16.7584 24.55 16.7914 24.722 16.7914C24.954 16.7914 25.136 16.7184 25.268 16.5724C25.4 16.4244 25.466 16.2104 25.466 15.9304C25.466 15.8784 25.463 15.8214 25.457 15.7594C25.405 15.8734 25.322 15.9624 25.208 16.0264C25.094 16.0884 24.963 16.1194 24.815 16.1194C24.677 16.1194 24.554 16.0934 24.446 16.0414C24.34 15.9894 24.257 15.9164 24.197 15.8224C24.137 15.7264 24.107 15.6154 24.107 15.4894C24.107 15.3614 24.138 15.2484 24.2 15.1504C24.262 15.0524 24.347 14.9774 24.455 14.9254C24.565 14.8714 24.688 14.8444 24.824 14.8444ZM24.848 15.9364C24.954 15.9364 25.047 15.9164 25.127 15.8764C25.209 15.8364 25.273 15.7814 25.319 15.7114C25.365 15.6414 25.388 15.5634 25.388 15.4774C25.388 15.3974 25.366 15.3234 25.322 15.2554C25.28 15.1874 25.217 15.1324 25.133 15.0904C25.049 15.0484 24.949 15.0274 24.833 15.0274C24.681 15.0274 24.557 15.0694 24.461 15.1534C24.367 15.2354 24.32 15.3454 24.32 15.4834C24.32 15.6214 24.367 15.7314 24.461 15.8134C24.557 15.8954 24.686 15.9364 24.848 15.9364ZM27.2011 15.8614C27.3331 15.9054 27.4341 15.9714 27.5041 16.0594C27.5761 16.1474 27.6121 16.2534 27.6121 16.3774C27.6121 16.4994 27.5791 16.6064 27.5131 16.6984C27.4471 16.7884 27.3521 16.8584 27.2281 16.9084C27.1061 16.9564 26.9621 16.9804 26.7961 16.9804C26.5441 16.9804 26.3461 16.9264 26.2021 16.8184C26.0581 16.7104 25.9861 16.5634 25.9861 16.3774C25.9861 16.2514 26.0201 16.1454 26.0881 16.0594C26.1581 15.9714 26.2591 15.9054 26.3911 15.8614C26.2831 15.8194 26.2011 15.7594 26.1451 15.6814C26.0891 15.6014 26.0611 15.5074 26.0611 15.3994C26.0611 15.2294 26.1271 15.0944 26.2591 14.9944C26.3931 14.8944 26.5721 14.8444 26.7961 14.8444C26.9441 14.8444 27.0731 14.8674 27.1831 14.9134C27.2951 14.9574 27.3821 15.0214 27.4441 15.1054C27.5061 15.1894 27.5371 15.2874 27.5371 15.3994C27.5371 15.5074 27.5081 15.6014 27.4501 15.6814C27.3921 15.7594 27.3091 15.8194 27.2011 15.8614ZM26.2771 15.4054C26.2771 15.5214 26.3231 15.6134 26.4151 15.6814C26.5071 15.7494 26.6341 15.7834 26.7961 15.7834C26.9581 15.7834 27.0851 15.7494 27.1771 15.6814C27.2711 15.6134 27.3181 15.5224 27.3181 15.4084C27.3181 15.2904 27.2701 15.1974 27.1741 15.1294C27.0801 15.0614 26.9541 15.0274 26.7961 15.0274C26.6361 15.0274 26.5091 15.0614 26.4151 15.1294C26.3231 15.1974 26.2771 15.2894 26.2771 15.4054ZM26.7961 16.7974C26.9821 16.7974 27.1271 16.7594 27.2311 16.6834C27.3371 16.6074 27.3901 16.5044 27.3901 16.3744C27.3901 16.2444 27.3371 16.1424 27.2311 16.0684C27.1271 15.9924 26.9821 15.9544 26.7961 15.9544C26.6121 15.9544 26.4671 15.9924 26.3611 16.0684C26.2571 16.1424 26.2051 16.2444 26.2051 16.3744C26.2051 16.5064 26.2571 16.6104 26.3611 16.6864C26.4651 16.7604 26.6101 16.7974 26.7961 16.7974Z" fill="#20201F"/>
<path d="M19.004 76.8992H18.584V77.4512H18.368V76.8992H17.183V76.7432L18.296 75.3512H18.536L17.462 76.7072H18.374V76.2212H18.584V76.7072H19.004V76.8992ZM19.423 77.4662C19.379 77.4662 19.341 77.4502 19.309 77.4182C19.279 77.3862 19.264 77.3472 19.264 77.3012C19.264 77.2552 19.279 77.2172 19.309 77.1872C19.341 77.1552 19.379 77.1392 19.423 77.1392C19.467 77.1392 19.505 77.1552 19.537 77.1872C19.569 77.2172 19.585 77.2552 19.585 77.3012C19.585 77.3472 19.569 77.3862 19.537 77.4182C19.505 77.4502 19.467 77.4662 19.423 77.4662ZM20.4487 76.2122C20.7527 76.2122 20.9737 76.2672 21.1117 76.3772C21.2517 76.4852 21.3217 76.6372 21.3217 76.8332C21.3217 76.9552 21.2927 77.0642 21.2347 77.1602C21.1787 77.2562 21.0937 77.3322 20.9797 77.3882C20.8657 77.4422 20.7257 77.4692 20.5597 77.4692C20.4097 77.4692 20.2667 77.4452 20.1307 77.3972C19.9967 77.3472 19.8887 77.2812 19.8067 77.1992L19.9117 77.0282C19.9817 77.1002 20.0737 77.1592 20.1877 77.2052C20.3017 77.2492 20.4247 77.2712 20.5567 77.2712C20.7307 77.2712 20.8647 77.2322 20.9587 77.1542C21.0547 77.0762 21.1027 76.9722 21.1027 76.8422C21.1027 76.6982 21.0487 76.5892 20.9407 76.5152C20.8347 76.4412 20.6547 76.4042 20.4007 76.4042H19.9537L20.0617 75.3512H21.2107V75.5432H20.2507L20.1787 76.2122H20.4487ZM22.7989 76.3502C22.9309 76.3942 23.0319 76.4602 23.1019 76.5482C23.1739 76.6362 23.2099 76.7422 23.2099 76.8662C23.2099 76.9882 23.1769 77.0952 23.1109 77.1872C23.0449 77.2772 22.9499 77.3472 22.8259 77.3972C22.7039 77.4452 22.5599 77.4692 22.3939 77.4692C22.1419 77.4692 21.9439 77.4152 21.7999 77.3072C21.6559 77.1992 21.5839 77.0522 21.5839 76.8662C21.5839 76.7402 21.6179 76.6342 21.6859 76.5482C21.7559 76.4602 21.8569 76.3942 21.9889 76.3502C21.8809 76.3082 21.7989 76.2482 21.7429 76.1702C21.6869 76.0902 21.6589 75.9962 21.6589 75.8882C21.6589 75.7182 21.7249 75.5832 21.8569 75.4832C21.9909 75.3832 22.1699 75.3332 22.3939 75.3332C22.5419 75.3332 22.6709 75.3562 22.7809 75.4022C22.8929 75.4462 22.9799 75.5102 23.0419 75.5942C23.1039 75.6782 23.1349 75.7762 23.1349 75.8882C23.1349 75.9962 23.1059 76.0902 23.0479 76.1702C22.9899 76.2482 22.9069 76.3082 22.7989 76.3502ZM21.8749 75.8942C21.8749 76.0102 21.9209 76.1022 22.0129 76.1702C22.1049 76.2382 22.2319 76.2722 22.3939 76.2722C22.5559 76.2722 22.6829 76.2382 22.7749 76.1702C22.8689 76.1022 22.9159 76.0112 22.9159 75.8972C22.9159 75.7792 22.8679 75.6862 22.7719 75.6182C22.6779 75.5502 22.5519 75.5162 22.3939 75.5162C22.2339 75.5162 22.1069 75.5502 22.0129 75.6182C21.9209 75.6862 21.8749 75.7782 21.8749 75.8942ZM22.3939 77.2862C22.5799 77.2862 22.7249 77.2482 22.8289 77.1722C22.9349 77.0962 22.9879 76.9932 22.9879 76.8632C22.9879 76.7332 22.9349 76.6312 22.8289 76.5572C22.7249 76.4812 22.5799 76.4432 22.3939 76.4432C22.2099 76.4432 22.0649 76.4812 21.9589 76.5572C21.8549 76.6312 21.8029 76.7332 21.8029 76.8632C21.8029 76.9952 21.8549 77.0992 21.9589 77.1752C22.0629 77.2492 22.2079 77.2862 22.3939 77.2862Z" fill="black"/>
</g>
<defs>
<clipPath id="clip0_2561_22372">
<rect width="66.3747" height="90.4295" fill="white" transform="translate(5.01819 4.83325)"/>
</clipPath>
</defs>
</svg>
