<svg width="82" height="100" viewBox="0 0 82 100" fill="none" xmlns="http://www.w3.org/2000/svg">
<rect width="81.4814" height="99.9999" transform="translate(0.481201)" fill="white"/>
<g clip-path="url(#clip0_2561_22287)">
<path fill-rule="evenodd" clip-rule="evenodd" d="M4.18481 17.1564H41.2248V5.7762L74.3448 3.70386H74.9662L74.964 17.1564H76.407V58.6427V61.2291V82.9553H55.0492V95.3704H31.3195V82.9553V66.9415V61.2291H4.18481V17.1564Z" fill="#C6C0E1"/>
<path fill-rule="evenodd" clip-rule="evenodd" d="M4.18481 17.1564H41.2248V5.7762L74.3448 3.70386H74.9662L74.964 17.1564H76.407V58.6427V61.2291V82.9553H55.0492V95.3704H31.3195V82.9553V66.9415V61.2291H4.18481V17.1564Z" fill="#FFF9D0"/>
<path d="M42.8745 19.8457H36.6846V26.0532H42.8745V19.8457Z" fill="#20201F"/>
<path d="M6.76479 19.8457H4.18481V22.4322H6.76479V19.8457Z" fill="#20201F"/>
<path d="M76.4069 19.8457H73.8269V22.4322H76.4069V19.8457Z" fill="#20201F"/>
<path d="M6.76479 22.4331H4.18481V61.2294H6.76479V22.4331Z" fill="#20201F"/>
<path d="M76.4069 22.4329H73.8269V82.9554H76.4069V22.4329Z" fill="#20201F"/>
<path d="M73.8271 80.3687H52.4708V82.9551H73.8271V80.3687Z" fill="#20201F"/>
<path d="M55.0493 80.3687H52.4708V95.3703H55.0493V80.3687Z" fill="#20201F"/>
<path d="M42.1521 92.7834H33.8965V95.3702H42.1521V92.7834Z" fill="#20201F"/>
<path d="M33.8993 61.2285H31.3193V95.3699H33.8993V61.2285Z" fill="#20201F"/>
<path d="M33.8965 58.6426H6.76477V61.2289H33.8965V58.6426Z" fill="#20201F"/>
<path d="M11.9233 18.5015H4.18481V22.4329H11.9233V18.5015Z" fill="#20201F"/>
<path d="M44.319 18.501H33.5889V22.4324H44.319V18.501Z" fill="#20201F"/>
<path d="M76.4069 18.501H60.8274V22.4324H76.4069V18.501Z" fill="#20201F"/>
<path d="M12.5416 17.1567H4.18481V18.5017H12.5416V17.1567Z" fill="#20201F"/>
<path d="M44.3191 17.1562H32.9707V18.5012H44.3191V17.1562Z" fill="#20201F"/>
<path d="M76.4069 17.1562H60.8274V18.5012H76.4069V17.1562Z" fill="#20201F"/>
<path fill-rule="evenodd" clip-rule="evenodd" d="M41.2249 5.7762L74.3427 3.70386H76.407V4.81845L74.9624 4.90885V17.1564H73.7245V4.98626L42.4628 6.94251V17.1564H41.2249V5.7762Z" fill="#20201F"/>
<path d="M43.4634 58.6428H33.8965V59.4705H43.4634V58.6428Z" fill="#20201F"/>
<path d="M53.2957 49.1248H52.4708V64.4475H53.2957V49.1248Z" fill="#20201F"/>
<path d="M52.4706 58.6946H51.7175V59.4706H52.4706V58.6946Z" fill="#20201F"/>
<path d="M73.8269 49.1248H62.1678V49.9524H73.8269V49.1248Z" fill="#20201F"/>
<path d="M62.168 49.1248H53.2955V49.9524H62.168V49.1248Z" fill="#20201F"/>
<path d="M53.2957 71.6899H52.4708V80.3693H53.2957V71.6899Z" fill="#20201F"/>
<path d="M32.9706 17.1558H12.5416V17.8213H32.9706V17.1558Z" fill="#20201F"/>
<path d="M33.5888 18.4971H11.9232V19.1624H33.5888V18.4971Z" fill="#20201F"/>
<path d="M33.5888 21.7629H11.9232V22.4283H33.5888V21.7629Z" fill="#20201F"/>
<path d="M52.573 17.1555H44.3186V17.821H52.573V17.1555Z" fill="#20201F"/>
<path d="M52.5733 18.4966H44.3186V19.1619H52.5733V18.4966Z" fill="#20201F"/>
<path d="M52.5733 21.7627H44.3186V22.428H52.5733V21.7627Z" fill="#20201F"/>
<path d="M52.5731 17.1555H52.0861V22.4319H52.5731V17.1555Z" fill="#20201F"/>
<path fill-rule="evenodd" clip-rule="evenodd" d="M43.1444 94.4596C43.1444 94.6218 43.0131 94.7534 42.8514 94.7534C42.6896 94.7534 42.5583 94.6218 42.5583 94.4596V88.2411C42.5583 88.0789 42.6896 87.9473 42.8514 87.9473C43.0131 87.9473 43.1444 88.0789 43.1444 88.2411V94.4596Z" fill="#20201F"/>
<path fill-rule="evenodd" clip-rule="evenodd" d="M51.7848 94.5187C51.7848 94.5998 51.7192 94.6656 51.6383 94.6656C51.5574 94.6656 51.4918 94.5998 51.4918 94.5187C51.4918 92.8318 50.647 91.3023 49.2819 90.1937C47.9084 89.0782 46.0084 88.3881 43.9085 88.3881C43.8276 88.3881 43.762 88.3222 43.762 88.2411C43.762 88.1601 43.8276 88.0942 43.9085 88.0942C46.0765 88.0942 48.042 88.81 49.4662 89.9666C50.8985 91.1295 51.7848 92.7391 51.7848 94.5187Z" fill="#20201F"/>
<path fill-rule="evenodd" clip-rule="evenodd" d="M50.7197 59.1412C50.7197 58.979 50.851 58.8474 51.0127 58.8474C51.1745 58.8474 51.3058 58.979 51.3058 59.1412V65.3597C51.3058 65.5219 51.1745 65.6536 51.0127 65.6536C50.851 65.6536 50.7197 65.5219 50.7197 65.3597V59.1412Z" fill="#20201F"/>
<path fill-rule="evenodd" clip-rule="evenodd" d="M43.7758 59.0825C43.7758 59.0014 43.8414 58.9355 43.9223 58.9355C44.0031 58.9355 44.0688 59.0014 44.0688 59.0825C44.0688 60.7757 44.7509 62.3086 45.8529 63.4177C46.9549 64.5268 48.478 65.2131 50.1599 65.2131C50.2408 65.2131 50.3064 65.2789 50.3064 65.36C50.3064 65.4411 50.2408 65.5069 50.1599 65.5069C48.3979 65.5069 46.8014 64.7872 45.6458 63.6243C44.4907 62.4618 43.7758 60.8558 43.7758 59.0825Z" fill="#20201F"/>
<path fill-rule="evenodd" clip-rule="evenodd" d="M52.9244 65.3242C52.7626 65.3242 52.6313 65.1926 52.6313 65.0304C52.6313 64.8682 52.7626 64.7366 52.9244 64.7366H59.1259C59.2876 64.7366 59.4189 64.8682 59.4189 65.0304C59.4189 65.1926 59.2876 65.3242 59.1259 65.3242H52.9244Z" fill="#20201F"/>
<path fill-rule="evenodd" clip-rule="evenodd" d="M52.8655 71.2787C52.7846 71.2787 52.719 71.2129 52.719 71.1318C52.719 71.0507 52.7846 70.9849 52.8655 70.9849C54.5584 70.9849 56.09 70.3974 57.197 69.448C58.2981 68.504 58.9794 67.2009 58.9794 65.7639C58.9794 65.6828 59.045 65.6169 59.1259 65.6169C59.2068 65.6169 59.2724 65.6828 59.2724 65.7639C59.2724 67.2904 58.5516 68.6721 57.3869 69.6708C56.2286 70.664 54.6297 71.2787 52.8655 71.2787Z" fill="#20201F"/>
<path fill-rule="evenodd" clip-rule="evenodd" d="M59.9409 18.8053C59.9409 18.6431 60.0722 18.5115 60.2339 18.5115C60.3957 18.5115 60.527 18.6431 60.527 18.8053V25.0238C60.527 25.186 60.3957 25.3176 60.2339 25.3176C60.0722 25.3176 59.9409 25.186 59.9409 25.0238V18.8053Z" fill="#20201F"/>
<path fill-rule="evenodd" clip-rule="evenodd" d="M52.8296 18.7465C52.8296 18.6654 52.8952 18.5996 52.9761 18.5996C53.057 18.5996 53.1226 18.6654 53.1226 18.7465C53.1226 20.4391 53.8207 21.9716 54.9487 23.0806C56.0775 24.1904 57.6378 24.8772 59.3609 24.8772C59.4417 24.8772 59.5074 24.943 59.5074 25.0241C59.5074 25.1052 59.4417 25.171 59.3609 25.171C57.5588 25.171 55.9262 24.4519 54.7438 23.2895C53.5614 22.127 52.8296 20.5206 52.8296 18.7465Z" fill="#20201F"/>
<path fill-rule="evenodd" clip-rule="evenodd" d="M73.7079 27.5394V43.1484H67.4813V27.3557H73.7079V27.5394ZM72.9717 38.2631C72.9717 38.0914 72.9016 37.9348 72.7882 37.8218C72.6754 37.709 72.5198 37.6386 72.349 37.6386H68.8329C68.662 37.6386 68.5064 37.709 68.3929 37.8218C68.2802 37.9348 68.2102 38.0914 68.2102 38.2631V41.7889C68.2102 41.9602 68.2804 42.1164 68.3929 42.23C68.5056 42.3429 68.6614 42.4132 68.8329 42.4132H72.349C72.5204 42.4132 72.6763 42.3429 72.7885 42.2295C72.9015 42.1164 72.9717 41.9602 72.9717 41.7889V38.2631ZM72.6807 29.355C72.6807 29.1173 72.5842 28.9013 72.4284 28.7449C72.2727 28.5887 72.0573 28.4919 71.82 28.4919C71.5831 28.4919 71.3679 28.5887 71.2115 28.7453C71.0558 28.9016 70.9593 29.1174 70.9593 29.355C70.9593 29.593 71.0558 29.8089 71.2118 29.9648C71.3676 30.1213 71.5829 30.2181 71.82 30.2181C72.0573 30.2181 72.2727 30.1213 72.4284 29.9651C72.5842 29.8089 72.6807 29.593 72.6807 29.355ZM70.4129 29.355C70.4129 29.0662 70.2959 28.8044 70.107 28.615C69.9182 28.4256 69.657 28.3083 69.3691 28.3083C69.081 28.3083 68.82 28.4256 68.6311 28.615C68.4423 28.8044 68.3252 29.0662 68.3252 29.355C68.3252 29.6437 68.4423 29.9056 68.6311 30.095C68.82 30.2843 69.081 30.4017 69.3691 30.4017C69.657 30.4017 69.9182 30.2843 70.107 30.095C70.2959 29.9056 70.4129 29.6437 70.4129 29.355ZM69.9259 29.9134C70.0682 29.7707 70.1565 29.573 70.1565 29.355C70.1565 29.1368 70.0682 28.9392 69.9259 28.7966C69.7837 28.6539 69.5865 28.5654 69.3691 28.5654C69.1515 28.5654 68.9545 28.6539 68.8122 28.7966C68.6699 28.9392 68.5816 29.1368 68.5816 29.355C68.5816 29.573 68.6699 29.7707 68.8122 29.9134C68.9545 30.0561 69.1515 30.1446 69.3691 30.1446C69.5865 30.1446 69.7837 30.0561 69.9259 29.9134ZM72.8638 31.5999C72.8638 31.3111 72.7468 31.0493 72.5579 30.8599C72.3691 30.6706 72.108 30.5532 71.82 30.5532C71.532 30.5532 71.2707 30.6704 71.0819 30.8598C70.893 31.0491 70.7761 31.3111 70.7761 31.5999C70.7761 31.8887 70.8932 32.1505 71.082 32.3399C71.2709 32.5293 71.532 32.6466 71.82 32.6466C72.1079 32.6466 72.3691 32.5293 72.5579 32.3399C72.7468 32.1505 72.8638 31.8886 72.8638 31.5999ZM72.3769 32.1583C72.5191 32.0157 72.6075 31.8179 72.6075 31.5999C72.6075 31.3817 72.5191 31.1842 72.3769 31.0415C72.2346 30.8989 72.0375 30.8103 71.82 30.8103C71.6024 30.8103 71.4052 30.8987 71.263 31.0414C71.1207 31.184 71.0325 31.3817 71.0325 31.5999C71.0325 31.8181 71.1209 32.0157 71.2631 32.1583C71.4054 32.301 71.6024 32.3895 71.82 32.3895C72.0374 32.3895 72.2346 32.301 72.3769 32.1583ZM70.2298 31.5999C70.2298 31.3622 70.1332 31.1463 69.9775 30.9898C69.8218 30.8336 69.6064 30.7368 69.3691 30.7368C69.1322 30.7368 68.9169 30.8336 68.7606 30.9902C68.6049 31.1466 68.5083 31.3624 68.5083 31.5999C68.5083 31.8379 68.6049 32.0539 68.7609 32.2097C68.9166 32.3662 69.132 32.463 69.3691 32.463C69.6064 32.463 69.8218 32.3662 69.9775 32.21C70.1332 32.0539 70.2298 31.8379 70.2298 31.5999ZM69.7964 32.0285C69.9056 31.919 69.9734 31.7673 69.9734 31.5999C69.9734 31.4321 69.9059 31.2805 69.7969 31.1714C69.6873 31.0619 69.5359 30.9939 69.3691 30.9939C69.2018 30.9939 69.0506 31.0616 68.9417 31.1709C68.8323 31.2805 68.7647 31.4321 68.7647 31.5999C68.7647 31.7673 68.8326 31.919 68.9417 32.0285C69.0506 32.1382 69.2018 32.2059 69.3691 32.2059C69.5359 32.2059 69.6873 32.1379 69.7964 32.0285ZM72.2473 29.7835C72.3565 29.6741 72.4243 29.5223 72.4243 29.355C72.4243 29.1872 72.3568 29.0356 72.2478 28.9265C72.1382 28.817 71.9869 28.749 71.82 28.749C71.6527 28.749 71.5015 28.8167 71.3926 28.926C71.2832 29.0356 71.2156 29.1872 71.2156 29.355C71.2156 29.5223 71.2835 29.6741 71.3926 29.7835C71.5015 29.8933 71.6527 29.961 71.82 29.961C71.9869 29.961 72.1382 29.893 72.2473 29.7835ZM72.6054 41.7889V38.2631C72.6054 38.1926 72.5764 38.1281 72.53 38.0815C72.484 38.0348 72.4196 38.0059 72.349 38.0059H68.8329C68.7622 38.0059 68.6979 38.0348 68.6516 38.0812C68.6055 38.1281 68.5765 38.1926 68.5765 38.2631V41.7889C68.5765 41.8598 68.6052 41.9241 68.6512 41.9702C68.6984 42.0168 68.7628 42.0459 68.8329 42.0459H72.349C72.419 42.0459 72.4835 42.0168 72.53 41.9702C72.5767 41.9241 72.6054 41.8598 72.6054 41.7889ZM67.8476 33.2261H73.3416V27.723H67.8476V33.2261ZM73.3416 33.5933H67.8476V42.7812H73.3416V33.5933Z" fill="#20201F"/>
<path fill-rule="evenodd" clip-rule="evenodd" d="M67.7377 76.0277C68.2196 76.3384 68.8379 76.5303 69.3814 76.5303C69.9164 76.5303 70.334 76.3462 70.6246 76.0449V76.044C70.7345 75.9298 70.8196 75.7944 70.8917 75.6509V76.2707C70.8917 76.6406 71.0458 76.8574 71.2933 76.9833C71.5185 77.0982 71.8163 77.1266 72.1429 77.1266H72.2777V77.1232C72.5499 77.1155 72.7984 77.0815 72.9919 76.9833C73.2392 76.8574 73.3926 76.6406 73.3926 76.2724V73.2329C73.3926 72.8631 73.2392 72.6466 72.9919 72.5214C72.7984 72.424 72.5499 72.3889 72.2777 72.3815V72.3782H72.1429C71.8163 72.3782 71.5185 72.4065 71.2933 72.5214C71.0458 72.6466 70.8917 72.8631 70.8917 73.2329V73.8539C70.8196 73.7103 70.7354 73.5753 70.6246 73.4609C70.334 73.159 69.9164 72.9748 69.3814 72.9748C68.8069 72.9748 68.1494 73.1896 67.6563 73.532C67.2012 73.848 66.8818 74.2753 66.8818 74.7524C66.8818 75.2576 67.24 75.7074 67.7377 76.0277ZM72.5449 74.6648H72.5458V74.6653C72.5458 74.7743 72.5004 74.8746 72.4284 74.9469V74.9478C72.3565 75.0197 72.2573 75.0644 72.1473 75.0644C72.0371 75.0644 71.9388 75.0197 71.8669 74.9478H71.8656L71.8657 74.9469C71.7938 74.8741 71.7494 74.7743 71.7494 74.6653C71.7494 74.5545 71.7938 74.4544 71.8656 74.3827C71.9375 74.3108 72.0371 74.2657 72.1473 74.2657C72.2573 74.2657 72.3556 74.3108 72.4284 74.3827C72.5004 74.4544 72.5449 74.5545 72.5449 74.6648ZM72.3411 74.6644V74.6653C72.3411 74.719 72.3197 74.7676 72.2859 74.8022H72.2846C72.2498 74.837 72.2006 74.8592 72.1473 74.8592C72.0929 74.8592 72.0431 74.8376 72.0094 74.8039L72.0085 74.8025C71.9747 74.7676 71.9529 74.719 71.9529 74.6653C71.9529 74.6096 71.9747 74.5612 72.0085 74.5266C72.0431 74.4926 72.0929 74.4712 72.1473 74.4712C72.2015 74.4712 72.2509 74.4926 72.2846 74.5282C72.3206 74.5621 72.3424 74.6112 72.3424 74.6644H72.3411ZM71.1609 73.2329C71.1609 72.9834 71.2586 72.8409 71.4134 72.7614C71.574 72.6812 71.7967 72.6542 72.0484 72.6495H72.1429C72.4328 72.6495 72.6927 72.6717 72.8716 72.7614C73.0266 72.8409 73.1232 72.9837 73.1232 73.2329V76.2724C73.1232 76.5213 73.0266 76.6634 72.8716 76.7428C72.6927 76.8333 72.4328 76.8552 72.1429 76.8552H72.038C71.7916 76.8496 71.5705 76.8231 71.4134 76.7433C71.2573 76.6634 71.1609 76.5201 71.1609 76.2707V73.2329ZM67.8086 73.7531C68.2587 73.4402 68.8584 73.2445 69.3814 73.2445C69.8385 73.2445 70.1901 73.3976 70.4314 73.6475C70.6956 73.9209 70.8321 74.3146 70.8321 74.7524C70.8321 75.1909 70.6956 75.5842 70.4314 75.8583C70.1901 76.1076 69.8385 76.2604 69.3814 76.2604C68.8874 76.2604 68.3232 76.0851 67.8822 75.8011C67.4571 75.5276 67.1511 75.155 67.1511 74.7524C67.1511 74.3738 67.4233 74.0219 67.8086 73.7531Z" fill="#20201F"/>
<path fill-rule="evenodd" clip-rule="evenodd" d="M60.0045 80.0384L56.6468 80.0395C55.5238 80.0395 55.6561 77.7086 55.6676 77.553C55.6676 77.0134 55.8871 76.5239 56.2408 76.1697C56.5936 75.8161 57.0826 75.5969 57.6206 75.5969H59.0455C59.5845 75.5969 60.073 75.8157 60.4268 76.1697C60.7793 76.5239 60.998 77.0143 61.0003 77.5539C61.0075 77.7121 61.1231 80.0395 60.0045 80.0384ZM58.3324 77.7679V77.7675C58.4505 77.7663 58.5595 77.7198 58.6373 77.6419C58.7138 77.5627 58.761 77.4547 58.761 77.3369C58.761 77.2179 58.7135 77.1098 58.6357 77.0321C58.5581 76.9541 58.4505 76.9063 58.332 76.9063C58.2142 76.9063 58.1065 76.9541 58.0289 77.0321H58.0274V77.033C57.9498 77.1107 57.9013 77.2179 57.9013 77.3369C57.9013 77.4547 57.9498 77.5642 58.0274 77.6419H58.0279C58.1055 77.7198 58.2142 77.7687 58.332 77.7687L58.3324 77.7679ZM58.3332 77.5483C58.3893 77.5483 58.4422 77.5251 58.48 77.4862C58.5169 77.4492 58.5406 77.396 58.5406 77.3369C58.5406 77.2782 58.5179 77.2248 58.481 77.1868C58.4429 77.1502 58.3912 77.1261 58.332 77.1267C58.2728 77.1267 58.2217 77.1498 58.1838 77.1868L58.1829 77.1877C58.1452 77.2248 58.1222 77.2782 58.1222 77.3369C58.1222 77.3949 58.1467 77.4481 58.1832 77.4862L58.184 77.4866C58.2211 77.5239 58.274 77.5464 58.3311 77.5464L58.3332 77.546V77.5483ZM58.3324 79.2179C58.8738 79.2179 59.3652 79.0562 59.7225 78.7966C60.0938 78.5251 60.3245 78.1458 60.3248 77.7255C60.3248 77.3036 60.0938 76.9244 59.7225 76.6523C59.3639 76.3913 58.8722 76.231 58.3307 76.231H58.3283C57.7883 76.2323 57.298 76.3938 56.9396 76.6539C56.57 76.9253 56.3397 77.3036 56.3394 77.7231L56.3397 77.7255C56.3397 78.1468 56.57 78.524 56.9425 78.7966C57.299 79.0566 57.7902 79.2179 58.3311 79.2175L58.3324 79.2179ZM58.3324 78.9143C58.8068 78.9134 59.2355 78.7738 59.5455 78.5495C59.8381 78.335 60.0202 78.0428 60.0202 77.7255C60.0202 77.4061 59.8381 77.1139 59.5432 76.8985C59.2348 76.6751 58.8068 76.536 58.3307 76.536H58.3298L58.3283 76.5351C57.8535 76.536 57.4266 76.6751 57.1182 76.8999C56.8264 77.1135 56.6444 77.4061 56.6435 77.7231L56.6444 77.7255C56.6438 78.0434 56.8261 78.3359 57.1192 78.5495C57.4278 78.773 57.8559 78.9134 58.3307 78.913H58.3324V78.9143ZM60.0035 79.7345C60.8371 79.7345 60.6952 77.5707 60.6952 77.5651L60.6939 77.5539C60.6939 77.0979 60.5103 76.6854 60.213 76.3854C59.9131 76.0864 59.501 75.9019 59.0455 75.9019H57.622C57.1649 75.9019 56.7521 76.0855 56.4535 76.3854C56.1554 76.6839 55.9718 77.0979 55.9709 77.5539L55.9705 77.5646C55.9705 77.5701 55.8175 79.7345 56.6476 79.7345H60.0035Z" fill="#20201F"/>
<path fill-rule="evenodd" clip-rule="evenodd" d="M72.9863 68.3411V50.7913H65.8265V68.3411H72.9863ZM68.7105 64.9214C68.7105 64.7286 68.7885 64.554 68.9143 64.4279C69.0408 64.3017 69.2147 64.2235 69.4064 64.2235C69.5982 64.2235 69.7721 64.3017 69.898 64.4279C70.0244 64.5547 70.1023 64.7291 70.1023 64.9214C70.1023 65.1137 70.0244 65.288 69.8986 65.4143C69.7727 65.541 69.5987 65.6192 69.4064 65.6192C69.2142 65.6192 69.0401 65.541 68.9143 65.4149C68.7885 65.2887 68.7105 65.1141 68.7105 64.9214ZM69.1109 64.6251C69.1862 64.5496 69.2909 64.5027 69.4064 64.5027C69.5219 64.5027 69.6266 64.5496 69.7019 64.6251C69.7772 64.7006 69.824 64.8056 69.824 64.9214C69.824 65.0372 69.7772 65.1422 69.7018 65.2175C69.6262 65.2932 69.5217 65.3401 69.4064 65.3401C69.2912 65.3401 69.1867 65.2932 69.1111 65.2175C69.0357 65.1417 68.9889 65.0369 68.9889 64.9214C68.9889 64.8058 69.0357 64.701 69.1109 64.6251ZM66.0314 67.0165L66.3098 54.6279C66.3098 52.7672 67.5509 51.2436 69.4064 51.2436C71.262 51.2436 72.5031 52.7672 72.5031 54.6279L72.7815 67.0165C72.7815 67.2566 72.6835 67.4748 72.5261 67.6327C72.3679 67.7906 72.1504 67.8888 71.9115 67.8888H66.9013C66.6627 67.8888 66.4453 67.7906 66.2875 67.6327C66.1293 67.4737 66.0314 67.2557 66.0314 67.0165ZM66.6577 54.6279C66.6577 52.9579 67.741 51.5925 69.4064 51.5925C71.0719 51.5925 72.1551 52.9579 72.1551 54.6279L72.4335 67.0165C72.4335 67.1601 72.3746 67.291 72.28 67.3867C72.1859 67.4811 72.0553 67.5399 71.9115 67.5399H66.9013C66.7575 67.5399 66.6271 67.4811 66.5322 67.3859C66.4379 67.2915 66.3794 67.1607 66.3794 67.0165L66.6577 54.6279ZM73.3271 50.7544V68.3779C73.3271 68.4656 73.2925 68.5456 73.2375 68.6035C73.1824 68.6618 73.1056 68.6978 73.0214 68.6978H65.7915C65.7073 68.6978 65.6305 68.6618 65.5753 68.6042C65.52 68.5462 65.4857 68.466 65.4857 68.3779V50.7544C65.4857 50.6663 65.52 50.5861 65.5753 50.5282C65.6311 50.4709 65.7077 50.4346 65.7915 50.4346H73.0214C73.1052 50.4346 73.1816 50.4707 73.237 50.5282C73.2927 50.587 73.3271 50.6668 73.3271 50.7544Z" fill="#20201F"/>
<path d="M17.5278 29.6635V36.3708H15.9756V30.9091H14.6341V29.6635H17.5278Z" fill="#20201F"/>
<path d="M20.872 24.7798H20.5057V42.2443H20.872V24.7798Z" fill="#20201F"/>
<path d="M25.0586 25.9619V28.3574H24.8122V26.1809H24.2476V25.9619H25.0586ZM26.2609 26.9441C26.6077 26.9441 26.8598 27.0068 27.0172 27.1323C27.1769 27.2555 27.2568 27.4289 27.2568 27.6525C27.2568 27.7916 27.2237 27.916 27.1575 28.0255C27.0937 28.135 26.9967 28.2217 26.8666 28.2856C26.7366 28.3472 26.5769 28.378 26.3876 28.378C26.2164 28.378 26.0533 28.3506 25.8982 28.2958C25.7453 28.2388 25.6221 28.1635 25.5286 28.07L25.6484 27.8749C25.7282 27.957 25.8332 28.0243 25.9632 28.0768C26.0932 28.127 26.2336 28.1521 26.3841 28.1521C26.5826 28.1521 26.7355 28.1076 26.8427 28.0186C26.9522 27.9297 27.007 27.811 27.007 27.6627C27.007 27.4985 26.9454 27.3741 26.8222 27.2897C26.7012 27.2053 26.4959 27.1631 26.2062 27.1631H25.6963L25.8195 25.9619H27.1302V26.1809H26.0351L25.9529 26.9441H26.2609ZM27.7544 28.3745C27.7042 28.3745 27.6608 28.3563 27.6243 28.3198C27.5901 28.2833 27.573 28.2388 27.573 28.1863C27.573 28.1338 27.5901 28.0905 27.6243 28.0563C27.6608 28.0198 27.7042 28.0015 27.7544 28.0015C27.8046 28.0015 27.8479 28.0198 27.8844 28.0563C27.9209 28.0905 27.9392 28.1338 27.9392 28.1863C27.9392 28.2388 27.9209 28.2833 27.8844 28.3198C27.8479 28.3563 27.8046 28.3745 27.7544 28.3745ZM28.9186 25.9619V28.3574H28.6722V26.1809H28.1075V25.9619H28.9186ZM30.4836 26.9235C30.641 26.9235 30.7802 26.9532 30.9011 27.0125C31.0243 27.0718 31.1201 27.1563 31.1886 27.2658C31.257 27.373 31.2912 27.4985 31.2912 27.6422C31.2912 27.7882 31.2559 27.9171 31.1851 28.0289C31.1144 28.1407 31.0163 28.2274 30.8908 28.289C30.7676 28.3483 30.6285 28.378 30.4733 28.378C30.1562 28.378 29.9132 28.2742 29.7444 28.0665C29.5756 27.8567 29.4912 27.5612 29.4912 27.1802C29.4912 26.9133 29.5368 26.6874 29.6281 26.5026C29.7193 26.3178 29.8471 26.1787 30.0113 26.0851C30.1756 25.9893 30.3672 25.9414 30.5863 25.9414C30.8235 25.9414 31.0129 25.9847 31.1543 26.0714L31.0551 26.2699C30.941 26.1946 30.7859 26.157 30.5897 26.157C30.325 26.157 30.1174 26.2414 29.9669 26.4102C29.8163 26.5768 29.741 26.8197 29.741 27.1391C29.741 27.1962 29.7444 27.2612 29.7513 27.3342C29.8106 27.2042 29.9053 27.1038 30.0353 27.0331C30.1653 26.9601 30.3148 26.9235 30.4836 26.9235ZM30.4631 28.1692C30.6365 28.1692 30.7768 28.1224 30.884 28.0289C30.9935 27.9331 31.0483 27.8065 31.0483 27.649C31.0483 27.4916 30.9935 27.3661 30.884 27.2726C30.7768 27.1791 30.6308 27.1323 30.446 27.1323C30.325 27.1323 30.2178 27.1551 30.1243 27.2007C30.033 27.2464 29.9612 27.3091 29.9087 27.389C29.8562 27.4688 29.83 27.5578 29.83 27.6559C29.83 27.7471 29.8539 27.8316 29.9018 27.9091C29.952 27.9867 30.025 28.0494 30.1209 28.0973C30.2167 28.1452 30.3307 28.1692 30.4631 28.1692Z" fill="#20201F"/>
<path d="M24.1885 32.0474C24.4394 32.0611 24.6299 32.1295 24.76 32.2527C24.8923 32.3737 24.9584 32.5322 24.9584 32.7284C24.9584 32.8653 24.9254 32.9874 24.8592 33.0946C24.793 33.1995 24.6949 33.2828 24.5649 33.3444C24.4349 33.406 24.2763 33.4368 24.0892 33.4368C23.9158 33.4368 23.7516 33.4094 23.5964 33.3547C23.4436 33.2976 23.3204 33.2223 23.2268 33.1288L23.3466 32.9337C23.4265 33.0159 23.5326 33.0832 23.6649 33.1356C23.7972 33.1858 23.9386 33.2109 24.0892 33.2109C24.2854 33.2109 24.4371 33.1687 24.5444 33.0843C24.6516 32.9976 24.7052 32.879 24.7052 32.7284C24.7052 32.5801 24.6516 32.4638 24.5444 32.3794C24.4371 32.2949 24.2752 32.2527 24.0584 32.2527H23.8873V32.0714L24.5512 31.2398H23.3261V31.0208H24.866V31.1953L24.1885 32.0474ZM26.2604 33.4368C26.0756 33.4368 25.9102 33.3877 25.7642 33.2896C25.6205 33.1915 25.5075 33.0512 25.4254 32.8687C25.3456 32.6839 25.3056 32.4672 25.3056 32.2185C25.3056 31.9698 25.3456 31.7542 25.4254 31.5717C25.5075 31.3869 25.6205 31.2455 25.7642 31.1474C25.9102 31.0493 26.0756 31.0002 26.2604 31.0002C26.4452 31.0002 26.6095 31.0493 26.7532 31.1474C26.8992 31.2455 27.0133 31.3869 27.0954 31.5717C27.1775 31.7542 27.2186 31.9698 27.2186 32.2185C27.2186 32.4672 27.1775 32.6839 27.0954 32.8687C27.0133 33.0512 26.8992 33.1915 26.7532 33.2896C26.6095 33.3877 26.4452 33.4368 26.2604 33.4368ZM26.2604 33.2109C26.3996 33.2109 26.5216 33.1721 26.6266 33.0946C26.7338 33.017 26.8171 32.9041 26.8764 32.7558C26.9357 32.6075 26.9654 32.4284 26.9654 32.2185C26.9654 32.0086 26.9357 31.8295 26.8764 31.6812C26.8171 31.5329 26.7338 31.42 26.6266 31.3424C26.5216 31.2649 26.3996 31.2261 26.2604 31.2261C26.1212 31.2261 25.998 31.2649 25.8908 31.3424C25.7859 31.42 25.7037 31.5329 25.6444 31.6812C25.5851 31.8295 25.5554 32.0086 25.5554 32.2185C25.5554 32.4284 25.5851 32.6075 25.6444 32.7558C25.7037 32.9041 25.7859 33.017 25.8908 33.0946C25.998 33.1721 26.1212 33.2109 26.2604 33.2109ZM27.7195 33.4334C27.6693 33.4334 27.6259 33.4151 27.5894 33.3786C27.5552 33.3421 27.5381 33.2976 27.5381 33.2452C27.5381 33.1927 27.5552 33.1493 27.5894 33.1151C27.6259 33.0786 27.6693 33.0604 27.7195 33.0604C27.7697 33.0604 27.813 33.0786 27.8495 33.1151C27.886 33.1493 27.9043 33.1927 27.9043 33.2452C27.9043 33.2976 27.886 33.3421 27.8495 33.3786C27.813 33.4151 27.7697 33.4334 27.7195 33.4334ZM29.0059 31.0002C29.323 31.0002 29.566 31.1052 29.7348 31.3151C29.9037 31.5227 29.9881 31.817 29.9881 32.198C29.9881 32.4649 29.9424 32.6908 29.8512 32.8756C29.7599 33.0604 29.6322 33.2007 29.4679 33.2965C29.3036 33.39 29.112 33.4368 28.893 33.4368C28.6557 33.4368 28.4664 33.3934 28.3249 33.3068L28.4242 33.1083C28.5382 33.1836 28.6934 33.2212 28.8896 33.2212C29.1542 33.2212 29.3618 33.1379 29.5124 32.9714C29.663 32.8026 29.7382 32.5584 29.7382 32.239C29.7382 32.1797 29.7348 32.1147 29.728 32.044C29.6687 32.174 29.574 32.2755 29.4439 32.3486C29.3139 32.4193 29.1645 32.4546 28.9956 32.4546C28.8382 32.4546 28.6979 32.425 28.5747 32.3657C28.4538 32.3063 28.3591 32.2231 28.2907 32.1159C28.2222 32.0063 28.188 31.8797 28.188 31.736C28.188 31.59 28.2234 31.4611 28.2941 31.3493C28.3648 31.2375 28.4618 31.1519 28.585 31.0926C28.7105 31.031 28.8508 31.0002 29.0059 31.0002ZM29.0333 32.2459C29.1542 32.2459 29.2603 32.2231 29.3515 32.1774C29.4451 32.1318 29.5181 32.0691 29.5706 31.9892C29.623 31.9094 29.6493 31.8204 29.6493 31.7223C29.6493 31.631 29.6242 31.5466 29.574 31.4691C29.5261 31.3915 29.4542 31.3288 29.3584 31.2809C29.2626 31.2329 29.1485 31.209 29.0162 31.209C28.8428 31.209 28.7013 31.2569 28.5918 31.3527C28.4846 31.4463 28.431 31.5717 28.431 31.7291C28.431 31.8866 28.4846 32.012 28.5918 32.1056C28.7013 32.1991 28.8485 32.2459 29.0333 32.2459ZM31.7175 32.1603C31.8681 32.2105 31.9833 32.2858 32.0632 32.3862C32.1453 32.4866 32.1864 32.6075 32.1864 32.7489C32.1864 32.8881 32.1487 33.0102 32.0734 33.1151C31.9981 33.2178 31.8898 33.2976 31.7483 33.3547C31.6092 33.4094 31.4449 33.4368 31.2555 33.4368C30.9681 33.4368 30.7422 33.3752 30.578 33.252C30.4137 33.1288 30.3316 32.9611 30.3316 32.7489C30.3316 32.6052 30.3703 32.4843 30.4479 32.3862C30.5278 32.2858 30.643 32.2105 30.7935 32.1603C30.6704 32.1124 30.5768 32.044 30.5129 31.955C30.4491 31.8638 30.4171 31.7565 30.4171 31.6333C30.4171 31.4394 30.4924 31.2854 30.643 31.1713C30.7958 31.0573 31 31.0002 31.2555 31.0002C31.4244 31.0002 31.5715 31.0265 31.697 31.0789C31.8248 31.1291 31.924 31.2021 31.9947 31.298C32.0654 31.3938 32.1008 31.5056 32.1008 31.6333C32.1008 31.7565 32.0677 31.8638 32.0016 31.955C31.9354 32.044 31.8407 32.1124 31.7175 32.1603ZM30.6635 31.6402C30.6635 31.7725 30.716 31.8774 30.8209 31.955C30.9259 32.0326 31.0707 32.0714 31.2555 32.0714C31.4403 32.0714 31.5852 32.0326 31.6901 31.955C31.7974 31.8774 31.851 31.7736 31.851 31.6436C31.851 31.509 31.7962 31.4029 31.6867 31.3253C31.5795 31.2478 31.4358 31.209 31.2555 31.209C31.073 31.209 30.9282 31.2478 30.8209 31.3253C30.716 31.4029 30.6635 31.5079 30.6635 31.6402ZM31.2555 33.228C31.4677 33.228 31.6331 33.1847 31.7517 33.098C31.8727 33.0113 31.9331 32.8938 31.9331 32.7455C31.9331 32.5972 31.8727 32.4809 31.7517 32.3965C31.6331 32.3098 31.4677 32.2664 31.2555 32.2664C31.0456 32.2664 30.8802 32.3098 30.7593 32.3965C30.6407 32.4809 30.5814 32.5972 30.5814 32.7455C30.5814 32.8961 30.6407 33.0147 30.7593 33.1014C30.878 33.1858 31.0434 33.228 31.2555 33.228Z" fill="#20201F"/>
<path d="M24.7529 37.1072C25.0039 37.1209 25.1944 37.1894 25.3244 37.3125C25.4567 37.4335 25.5229 37.592 25.5229 37.7882C25.5229 37.9251 25.4898 38.0472 25.4237 38.1544C25.3575 38.2593 25.2594 38.3426 25.1294 38.4042C24.9993 38.4658 24.8408 38.4966 24.6537 38.4966C24.4803 38.4966 24.316 38.4692 24.1609 38.4145C24.008 38.3574 23.8848 38.2822 23.7913 38.1886L23.9111 37.9936C23.9909 38.0757 24.097 38.143 24.2293 38.1955C24.3617 38.2457 24.5031 38.2707 24.6537 38.2707C24.8499 38.2707 25.0016 38.2285 25.1088 38.1441C25.216 38.0574 25.2697 37.9388 25.2697 37.7882C25.2697 37.6399 25.216 37.5236 25.1088 37.4392C25.0016 37.3548 24.8396 37.3125 24.6229 37.3125H24.4518V37.1312L25.1157 36.2996H23.8905V36.0806H25.4305V36.2551L24.7529 37.1072ZM26.534 36.0806V38.4761H26.2876V36.2996H25.7229V36.0806H26.534ZM27.2914 38.4932C27.2412 38.4932 27.1978 38.4749 27.1613 38.4384C27.1271 38.4019 27.11 38.3574 27.11 38.305C27.11 38.2525 27.1271 38.2091 27.1613 38.1749C27.1978 38.1384 27.2412 38.1202 27.2914 38.1202C27.3416 38.1202 27.3849 38.1384 27.4214 38.1749C27.4579 38.2091 27.4762 38.2525 27.4762 38.305C27.4762 38.3574 27.4579 38.4019 27.4214 38.4384C27.3849 38.4749 27.3416 38.4932 27.2914 38.4932ZM28.5778 36.06C28.8949 36.06 29.1379 36.165 29.3067 36.3749C29.4756 36.5825 29.56 36.8768 29.56 37.2578C29.56 37.5247 29.5143 37.7506 29.4231 37.9354C29.3318 38.1202 29.2041 38.2605 29.0398 38.3563C28.8755 38.4498 28.6839 38.4966 28.4649 38.4966C28.2276 38.4966 28.0383 38.4533 27.8968 38.3666L27.9961 38.1681C28.1101 38.2434 28.2653 38.281 28.4615 38.281C28.7261 38.281 28.9337 38.1977 29.0843 38.0312C29.2349 37.8624 29.3102 37.6183 29.3102 37.2989C29.3102 37.2395 29.3067 37.1745 29.2999 37.1038C29.2406 37.2338 29.1459 37.3354 29.0158 37.4084C28.8858 37.4791 28.7364 37.5145 28.5675 37.5145C28.4101 37.5145 28.2698 37.4848 28.1466 37.4255C28.0257 37.3662 27.931 37.2829 27.8626 37.1757C27.7941 37.0662 27.7599 36.9395 27.7599 36.7958C27.7599 36.6498 27.7953 36.5209 27.866 36.4091C27.9367 36.2973 28.0337 36.2118 28.1569 36.1524C28.2824 36.0908 28.4227 36.06 28.5778 36.06ZM28.6052 37.3057C28.7261 37.3057 28.8322 37.2829 28.9235 37.2373C29.017 37.1916 29.09 37.1289 29.1425 37.049C29.1949 36.9692 29.2212 36.8802 29.2212 36.7821C29.2212 36.6909 29.1961 36.6065 29.1459 36.5289C29.098 36.4513 29.0261 36.3886 28.9303 36.3407C28.8345 36.2928 28.7204 36.2688 28.5881 36.2688C28.4147 36.2688 28.2732 36.3167 28.1637 36.4125C28.0565 36.5061 28.0029 36.6315 28.0029 36.789C28.0029 36.9464 28.0565 37.0719 28.1637 37.1654C28.2732 37.2589 28.4204 37.3057 28.6052 37.3057ZM30.9096 37.0422C31.067 37.0422 31.2062 37.0719 31.3271 37.1312C31.4503 37.1905 31.5461 37.2749 31.6145 37.3844C31.683 37.4916 31.7172 37.6171 31.7172 37.7608C31.7172 37.9069 31.6818 38.0358 31.6111 38.1475C31.5404 38.2593 31.4423 38.346 31.3168 38.4076C31.1936 38.4669 31.0544 38.4966 30.8993 38.4966C30.5822 38.4966 30.3392 38.3928 30.1704 38.1852C30.0016 37.9753 29.9172 37.6799 29.9172 37.2989C29.9172 37.0319 29.9628 36.8061 30.054 36.6213C30.1453 36.4365 30.2731 36.2973 30.4373 36.2038C30.6016 36.108 30.7932 36.06 31.0122 36.06C31.2495 36.06 31.4389 36.1034 31.5803 36.1901L31.4811 36.3886C31.367 36.3133 31.2119 36.2756 31.0157 36.2756C30.751 36.2756 30.5434 36.3601 30.3928 36.5289C30.2423 36.6954 30.167 36.9384 30.167 37.2578C30.167 37.3148 30.1704 37.3799 30.1772 37.4529C30.2366 37.3228 30.3312 37.2224 30.4613 37.1517C30.5913 37.0787 30.7407 37.0422 30.9096 37.0422ZM30.889 38.2879C31.0624 38.2879 31.2027 38.2411 31.31 38.1475C31.4195 38.0517 31.4742 37.9251 31.4742 37.7677C31.4742 37.6103 31.4195 37.4848 31.31 37.3913C31.2027 37.2977 31.0567 37.251 30.8719 37.251C30.751 37.251 30.6438 37.2738 30.5502 37.3194C30.459 37.365 30.3871 37.4278 30.3347 37.5076C30.2822 37.5875 30.2559 37.6764 30.2559 37.7745C30.2559 37.8658 30.2799 37.9502 30.3278 38.0278C30.378 38.1053 30.451 38.1681 30.5468 38.216C30.6426 38.2639 30.7567 38.2879 30.889 38.2879Z" fill="#20201F"/>
<path d="M13.9997 48.7461H13.0552V50.1492H12.5247V48.3081H13.9997V48.7461ZM15.0681 50.1765C14.8742 50.1765 14.6996 50.1366 14.5445 50.0568C14.3916 49.9746 14.2719 49.8617 14.1852 49.718C14.0985 49.5743 14.0551 49.4111 14.0551 49.2286C14.0551 49.0461 14.0985 48.883 14.1852 48.7393C14.2719 48.5955 14.3916 48.4837 14.5445 48.4039C14.6996 48.3218 14.8742 48.2807 15.0681 48.2807C15.262 48.2807 15.4354 48.3218 15.5883 48.4039C15.7411 48.4837 15.8609 48.5955 15.9476 48.7393C16.0343 48.883 16.0776 49.0461 16.0776 49.2286C16.0776 49.4111 16.0343 49.5743 15.9476 49.718C15.8609 49.8617 15.7411 49.9746 15.5883 50.0568C15.4354 50.1366 15.262 50.1765 15.0681 50.1765ZM15.0681 49.7385C15.205 49.7385 15.3168 49.6929 15.4035 49.6016C15.4924 49.5081 15.5369 49.3838 15.5369 49.2286C15.5369 49.0735 15.4924 48.9503 15.4035 48.859C15.3168 48.7655 15.205 48.7187 15.0681 48.7187C14.9312 48.7187 14.8183 48.7655 14.7293 48.859C14.6403 48.9503 14.5958 49.0735 14.5958 49.2286C14.5958 49.3838 14.6403 49.5081 14.7293 49.6016C14.8183 49.6929 14.9312 49.7385 15.0681 49.7385ZM17.3209 50.1765C17.1247 50.1765 16.9479 50.1366 16.7904 50.0568C16.6353 49.9746 16.5132 49.8617 16.4243 49.718C16.3376 49.5743 16.2942 49.4111 16.2942 49.2286C16.2942 49.0461 16.3376 48.883 16.4243 48.7393C16.5132 48.5955 16.6353 48.4837 16.7904 48.4039C16.9479 48.3218 17.1247 48.2807 17.3209 48.2807C17.5148 48.2807 17.6836 48.3218 17.8273 48.4039C17.9734 48.4837 18.0794 48.5989 18.1456 48.7495L17.7315 48.972C17.6357 48.8031 17.4977 48.7187 17.3174 48.7187C17.1783 48.7187 17.0631 48.7643 16.9718 48.8556C16.8806 48.9469 16.8349 49.0712 16.8349 49.2286C16.8349 49.386 16.8806 49.5104 16.9718 49.6016C17.0631 49.6929 17.1783 49.7385 17.3174 49.7385C17.5 49.7385 17.638 49.6541 17.7315 49.4853L18.1456 49.7111C18.0794 49.8571 17.9734 49.9712 17.8273 50.0534C17.6836 50.1355 17.5148 50.1765 17.3209 50.1765ZM20.0101 48.7461H19.3873V50.1492H18.8569V48.7461H18.234V48.3081H20.0101V48.7461ZM20.2947 48.3081H20.8251V49.4031L21.7217 48.3081H22.2111V50.1492H21.6807V49.0541L20.7875 50.1492H20.2947V48.3081ZM22.7243 48.3081H23.2547V49.0267H24.0555V48.3081H24.5893V50.1492H24.0555V49.4613H23.2547V50.1492H22.7243V48.3081ZM25.8156 48.2807C26.1008 48.2807 26.3198 48.3491 26.4727 48.486C26.6255 48.6206 26.7019 48.8248 26.7019 49.0986V50.1492H26.2023V49.9199C26.1019 50.091 25.9149 50.1765 25.6411 50.1765C25.4996 50.1765 25.3764 50.1526 25.2715 50.1047C25.1688 50.0568 25.0901 49.9906 25.0354 49.9062C24.9806 49.8218 24.9532 49.726 24.9532 49.6187C24.9532 49.4476 25.0171 49.313 25.1449 49.2149C25.2749 49.1168 25.4745 49.0678 25.7437 49.0678H26.1681C26.1681 48.9514 26.1327 48.8624 26.062 48.8009C25.9913 48.737 25.8852 48.705 25.7437 48.705C25.6456 48.705 25.5487 48.721 25.4529 48.7529C25.3593 48.7826 25.2795 48.8237 25.2133 48.8761L25.0217 48.5031C25.1221 48.4324 25.2418 48.3776 25.381 48.3389C25.5224 48.3001 25.6673 48.2807 25.8156 48.2807ZM25.7745 49.8172C25.8658 49.8172 25.9468 49.7967 26.0175 49.7556C26.0882 49.7123 26.1384 49.6495 26.1681 49.5674V49.3792H25.8019C25.5829 49.3792 25.4734 49.4511 25.4734 49.5948C25.4734 49.6632 25.4996 49.718 25.5521 49.759C25.6069 49.7978 25.681 49.8172 25.7745 49.8172ZM28.8015 48.3081V50.1492H28.3258V49.6222H27.9323L27.5832 50.1492H27.0151L27.436 49.5469C27.3083 49.4967 27.2102 49.4248 27.1417 49.3313C27.0756 49.2355 27.0425 49.1202 27.0425 48.9856C27.0425 48.7689 27.1201 48.6024 27.2752 48.486C27.4326 48.3674 27.6482 48.3081 27.922 48.3081H28.8015ZM27.9323 48.7427C27.8182 48.7427 27.7315 48.7632 27.6722 48.8043C27.6151 48.8453 27.5866 48.9115 27.5866 49.0028C27.5866 49.094 27.614 49.1613 27.6687 49.2047C27.7258 49.2457 27.8113 49.2663 27.9254 49.2663H28.3258V48.7427H27.9323Z" fill="#20201F"/>
<path d="M18.3827 54.7568V55.2085H16.5724V54.8492L17.4964 53.9765C17.5945 53.883 17.6606 53.8031 17.6949 53.737C17.7291 53.6685 17.7462 53.6012 17.7462 53.5351C17.7462 53.4393 17.7131 53.3662 17.647 53.3161C17.5831 53.2636 17.4884 53.2373 17.3629 53.2373C17.258 53.2373 17.1633 53.2579 17.0789 53.2989C16.9945 53.3377 16.9237 53.397 16.8667 53.4769L16.4629 53.2168C16.5564 53.0776 16.6853 52.9693 16.8496 52.8917C17.0139 52.8119 17.2021 52.7719 17.4142 52.7719C17.5922 52.7719 17.7473 52.8016 17.8797 52.8609C18.0143 52.9179 18.1181 53.0001 18.1911 53.1073C18.2664 53.2123 18.304 53.3366 18.304 53.4803C18.304 53.6104 18.2766 53.7324 18.2219 53.8465C18.1671 53.9606 18.061 54.0906 17.9036 54.2366L17.3526 54.7568H18.3827ZM19.6314 55.2496C19.4329 55.2496 19.2561 55.2005 19.101 55.1024C18.9458 55.0043 18.8238 54.8629 18.7348 54.6781C18.6481 54.491 18.6048 54.2686 18.6048 54.0108C18.6048 53.7529 18.6481 53.5317 18.7348 53.3469C18.8238 53.1598 18.9458 53.0172 19.101 52.9191C19.2561 52.821 19.4329 52.7719 19.6314 52.7719C19.8299 52.7719 20.0067 52.821 20.1618 52.9191C20.317 53.0172 20.4379 53.1598 20.5246 53.3469C20.6136 53.5317 20.6581 53.7529 20.6581 54.0108C20.6581 54.2686 20.6136 54.491 20.5246 54.6781C20.4379 54.8629 20.317 55.0043 20.1618 55.1024C20.0067 55.2005 19.8299 55.2496 19.6314 55.2496ZM19.6314 54.7807C19.7774 54.7807 19.8915 54.718 19.9736 54.5925C20.058 54.467 20.1002 54.2731 20.1002 54.0108C20.1002 53.7484 20.058 53.5545 19.9736 53.429C19.8915 53.3035 19.7774 53.2408 19.6314 53.2408C19.4877 53.2408 19.3736 53.3035 19.2892 53.429C19.2071 53.5545 19.166 53.7484 19.166 54.0108C19.166 54.2731 19.2071 54.467 19.2892 54.5925C19.3736 54.718 19.4877 54.7807 19.6314 54.7807ZM21.1988 55.2359C21.1053 55.2359 21.0266 55.2039 20.9627 55.1401C20.8988 55.0762 20.8669 54.9963 20.8669 54.9005C20.8669 54.8024 20.8988 54.7237 20.9627 54.6644C21.0266 54.6028 21.1053 54.572 21.1988 54.572C21.2923 54.572 21.371 54.6028 21.4349 54.6644C21.4988 54.7237 21.5307 54.8024 21.5307 54.9005C21.5307 54.9963 21.4988 55.0762 21.4349 55.1401C21.371 55.2039 21.2923 55.2359 21.1988 55.2359ZM22.6501 52.813V55.2085H22.0957V53.2579H21.6166V52.813H22.6501ZM24.2195 53.7062C24.3724 53.7062 24.5115 53.737 24.637 53.7986C24.7625 53.8602 24.8617 53.948 24.9347 54.0621C25.0077 54.1739 25.0442 54.3039 25.0442 54.4522C25.0442 54.6119 25.0043 54.7522 24.9245 54.8731C24.8446 54.994 24.7351 55.0876 24.5959 55.1537C24.4591 55.2176 24.3062 55.2496 24.1374 55.2496C23.802 55.2496 23.5396 55.1469 23.3503 54.9416C23.1609 54.7362 23.0662 54.4431 23.0662 54.0621C23.0662 53.7906 23.1176 53.5579 23.2202 53.364C23.3229 53.17 23.4655 53.0229 23.648 52.9225C23.8328 52.8221 24.0461 52.7719 24.2879 52.7719C24.4157 52.7719 24.5378 52.7868 24.6541 52.8164C24.7727 52.8438 24.8731 52.8837 24.9553 52.9362L24.7499 53.3434C24.6313 53.2636 24.4819 53.2237 24.3016 53.2237C24.0986 53.2237 23.9377 53.283 23.8191 53.4016C23.7005 53.5202 23.6366 53.6925 23.6275 53.9184C23.7689 53.7769 23.9663 53.7062 24.2195 53.7062ZM24.1066 54.8355C24.2252 54.8355 24.321 54.8035 24.394 54.7397C24.4693 54.6758 24.507 54.5891 24.507 54.4796C24.507 54.3701 24.4693 54.2834 24.394 54.2195C24.321 54.1533 24.2229 54.1203 24.0997 54.1203C23.9788 54.1203 23.8796 54.1545 23.802 54.2229C23.7244 54.2891 23.6856 54.3746 23.6856 54.4796C23.6856 54.5845 23.7233 54.6701 23.7986 54.7362C23.8739 54.8024 23.9765 54.8355 24.1066 54.8355Z" fill="#20201F"/>
<path d="M54.7846 34.295H54.5074V34.9932H53.9736V33.1521H54.5074V33.8673H54.7949L55.2945 33.1521H55.8626L55.2192 34.035L55.9071 34.9932H55.2774L54.7846 34.295ZM57.9102 33.1521L57.0786 35.1061C56.9942 35.3183 56.8892 35.4677 56.7637 35.5544C56.6405 35.6411 56.4911 35.6844 56.3154 35.6844C56.2196 35.6844 56.1249 35.6696 56.0314 35.6399C55.9379 35.6103 55.8614 35.5692 55.8021 35.5168L55.9972 35.1369C56.0382 35.1734 56.085 35.2019 56.1375 35.2224C56.1922 35.243 56.2459 35.2532 56.2983 35.2532C56.3713 35.2532 56.4307 35.235 56.4763 35.1985C56.5219 35.1643 56.563 35.1061 56.5995 35.024L56.6063 35.0069L55.809 33.1521H56.3599L56.8767 34.4011L57.3968 33.1521H57.9102ZM59.2208 34.9932L58.817 34.4285L58.3995 34.9932H57.8177L58.5261 34.0658L57.8417 33.1521H58.4405L58.8307 33.6893L59.231 33.1521H59.7991L59.1147 34.0521L59.8265 34.9932H59.2208ZM60.0893 33.1521H60.6197V33.8707H61.4205V33.1521H61.9544V34.9932H61.4205V34.3053H60.6197V34.9932H60.0893V33.1521ZM64.1012 33.1521V34.9932H63.6255V34.4662H63.232L62.8829 34.9932H62.3148L62.7358 34.3909C62.608 34.3407 62.5099 34.2688 62.4415 34.1753C62.3753 34.0795 62.3422 33.9642 62.3422 33.8296C62.3422 33.6129 62.4198 33.4464 62.5749 33.33C62.7323 33.2114 62.9479 33.1521 63.2217 33.1521H64.1012ZM63.232 33.5867C63.1179 33.5867 63.0312 33.6072 62.9719 33.6483C62.9148 33.6893 62.8863 33.7555 62.8863 33.8468C62.8863 33.938 62.9137 34.0053 62.9685 34.0487C63.0255 34.0897 63.1111 34.1103 63.2251 34.1103H63.6255V33.5867H63.232ZM64.5356 33.816H65.504V34.2437H64.5356V33.816Z" fill="black"/>
<path d="M54.8879 36.4775H55.4183V37.1961H56.2191V36.4775H56.7529V38.3186H56.2191V37.6308H55.4183V38.3186H54.8879V36.4775ZM57.264 36.4775H57.7944V37.5726L58.691 36.4775H59.1804V38.3186H58.65V37.2235L57.7568 38.3186H57.264V36.4775ZM62.5031 36.4775V38.3186H59.6936V36.4775H60.224V37.8806H60.8366V36.4775H61.367V37.8806H61.9727V36.4775H62.5031ZM63.7307 36.4501C64.0158 36.4501 64.2349 36.5186 64.3877 36.6554C64.5406 36.7901 64.617 36.9942 64.617 37.268V38.3186H64.1174V38.0893C64.017 38.2604 63.8299 38.346 63.5561 38.346C63.4147 38.346 63.2915 38.322 63.1866 38.2741C63.0839 38.2262 63.0052 38.16 62.9504 38.0756C62.8957 37.9912 62.8683 37.8954 62.8683 37.7882C62.8683 37.6171 62.9322 37.4825 63.0599 37.3844C63.19 37.2863 63.3896 37.2372 63.6588 37.2372H64.0831C64.0831 37.1209 64.0478 37.0319 63.9771 36.9703C63.9063 36.9064 63.8003 36.8745 63.6588 36.8745C63.5607 36.8745 63.4637 36.8904 63.3679 36.9224C63.2744 36.952 63.1945 36.9931 63.1284 37.0456L62.9367 36.6726C63.0371 36.6018 63.1569 36.5471 63.2961 36.5083C63.4375 36.4695 63.5824 36.4501 63.7307 36.4501ZM63.6896 37.9867C63.7809 37.9867 63.8619 37.9661 63.9326 37.9251C64.0033 37.8817 64.0535 37.819 64.0831 37.7368V37.5486H63.717C63.498 37.5486 63.3885 37.6205 63.3885 37.7642C63.3885 37.8327 63.4147 37.8874 63.4672 37.9285C63.5219 37.9673 63.5961 37.9867 63.6896 37.9867Z" fill="black"/>
<path d="M40.4777 72.6648L39.9767 72.0048L39.4727 72.6648H39.2327L39.8567 71.8548L39.2627 71.0868H39.5027L39.9767 71.7048L40.4507 71.0868H40.6847L40.0907 71.8548L40.7207 72.6648H40.4777ZM41.6652 72.6798C41.5132 72.6798 41.3762 72.6458 41.2542 72.5778C41.1322 72.5078 41.0362 72.4118 40.9662 72.2898C40.8962 72.1678 40.8612 72.0298 40.8612 71.8758C40.8612 71.7218 40.8962 71.5838 40.9662 71.4618C41.0362 71.3398 41.1322 71.2448 41.2542 71.1768C41.3762 71.1088 41.5132 71.0748 41.6652 71.0748C41.8172 71.0748 41.9542 71.1088 42.0762 71.1768C42.1982 71.2448 42.2932 71.3398 42.3612 71.4618C42.4312 71.5838 42.4662 71.7218 42.4662 71.8758C42.4662 72.0298 42.4312 72.1678 42.3612 72.2898C42.2932 72.4118 42.1982 72.5078 42.0762 72.5778C41.9542 72.6458 41.8172 72.6798 41.6652 72.6798ZM41.6652 72.4908C41.7772 72.4908 41.8772 72.4658 41.9652 72.4158C42.0552 72.3638 42.1252 72.2908 42.1752 72.1968C42.2252 72.1028 42.2502 71.9958 42.2502 71.8758C42.2502 71.7558 42.2252 71.6488 42.1752 71.5548C42.1252 71.4608 42.0552 71.3888 41.9652 71.3388C41.8772 71.2868 41.7772 71.2608 41.6652 71.2608C41.5532 71.2608 41.4522 71.2868 41.3622 71.3388C41.2742 71.3888 41.2042 71.4608 41.1522 71.5548C41.1022 71.6488 41.0772 71.7558 41.0772 71.8758C41.0772 71.9958 41.1022 72.1028 41.1522 72.1968C41.2042 72.2908 41.2742 72.3638 41.3622 72.4158C41.4522 72.4658 41.5532 72.4908 41.6652 72.4908ZM44.2026 71.0868V72.6648H43.9896V71.2758H43.2336L43.2126 71.6658C43.1966 71.9938 43.1586 72.2458 43.0986 72.4218C43.0386 72.5978 42.9316 72.6858 42.7776 72.6858C42.7356 72.6858 42.6846 72.6778 42.6246 72.6618L42.6396 72.4788C42.6756 72.4868 42.7006 72.4908 42.7146 72.4908C42.7966 72.4908 42.8586 72.4528 42.9006 72.3768C42.9426 72.3008 42.9706 72.2068 42.9846 72.0948C42.9986 71.9828 43.0106 71.8348 43.0206 71.6508L43.0476 71.0868H44.2026ZM46.0981 71.0868V72.6648H45.8851V71.2758H45.1291L45.1081 71.6658C45.0921 71.9938 45.0541 72.2458 44.9941 72.4218C44.9341 72.5978 44.8271 72.6858 44.6731 72.6858C44.6311 72.6858 44.5801 72.6778 44.5201 72.6618L44.5351 72.4788C44.5711 72.4868 44.5961 72.4908 44.6101 72.4908C44.6921 72.4908 44.7541 72.4528 44.7961 72.3768C44.8381 72.3008 44.8661 72.2068 44.8801 72.0948C44.8941 71.9828 44.9061 71.8348 44.9161 71.6508L44.9431 71.0868H46.0981Z" fill="#20201F"/>
<path d="M40.5886 76.4859C40.8926 76.4859 41.1136 76.5409 41.2516 76.6509C41.3916 76.7589 41.4616 76.9109 41.4616 77.1069C41.4616 77.2289 41.4326 77.3379 41.3746 77.4339C41.3186 77.5299 41.2336 77.6059 41.1196 77.6619C41.0056 77.7159 40.8656 77.7429 40.6996 77.7429C40.5496 77.7429 40.4066 77.7189 40.2706 77.6709C40.1366 77.6209 40.0286 77.5549 39.9466 77.4729L40.0516 77.3019C40.1216 77.3739 40.2136 77.4329 40.3276 77.4789C40.4416 77.5229 40.5646 77.5449 40.6966 77.5449C40.8706 77.5449 41.0046 77.5059 41.0986 77.4279C41.1946 77.3499 41.2426 77.2459 41.2426 77.1159C41.2426 76.9719 41.1886 76.8629 41.0806 76.7889C40.9746 76.7149 40.7946 76.6779 40.5406 76.6779H40.0936L40.2016 75.6249H41.3506V75.8169H40.3906L40.3186 76.4859H40.5886ZM41.8978 77.7399C41.8538 77.7399 41.8158 77.7239 41.7838 77.6919C41.7538 77.6599 41.7388 77.6209 41.7388 77.5749C41.7388 77.5289 41.7538 77.4909 41.7838 77.4609C41.8158 77.4289 41.8538 77.4129 41.8978 77.4129C41.9418 77.4129 41.9798 77.4289 42.0118 77.4609C42.0438 77.4909 42.0598 77.5289 42.0598 77.5749C42.0598 77.6209 42.0438 77.6599 42.0118 77.6919C41.9798 77.7239 41.9418 77.7399 41.8978 77.7399ZM43.2093 76.4679C43.3473 76.4679 43.4693 76.4939 43.5753 76.5459C43.6833 76.5979 43.7673 76.6719 43.8273 76.7679C43.8873 76.8619 43.9173 76.9719 43.9173 77.0979C43.9173 77.2259 43.8863 77.3389 43.8243 77.4369C43.7623 77.5349 43.6763 77.6109 43.5663 77.6649C43.4583 77.7169 43.3363 77.7429 43.2003 77.7429C42.9223 77.7429 42.7093 77.6519 42.5613 77.4699C42.4133 77.2859 42.3393 77.0269 42.3393 76.6929C42.3393 76.4589 42.3793 76.2609 42.4593 76.0989C42.5393 75.9369 42.6513 75.8149 42.7953 75.7329C42.9393 75.6489 43.1073 75.6069 43.2993 75.6069C43.5073 75.6069 43.6733 75.6449 43.7973 75.7209L43.7103 75.8949C43.6103 75.8289 43.4743 75.7959 43.3023 75.7959C43.0703 75.7959 42.8883 75.8699 42.7563 76.0179C42.6243 76.1639 42.5583 76.3769 42.5583 76.6569C42.5583 76.7069 42.5613 76.7639 42.5673 76.8279C42.6193 76.7139 42.7023 76.6259 42.8163 76.5639C42.9303 76.4999 43.0613 76.4679 43.2093 76.4679ZM43.1913 77.5599C43.3433 77.5599 43.4663 77.5189 43.5603 77.4369C43.6563 77.3529 43.7043 77.2419 43.7043 77.1039C43.7043 76.9659 43.6563 76.8559 43.5603 76.7739C43.4663 76.6919 43.3383 76.6509 43.1763 76.6509C43.0703 76.6509 42.9763 76.6709 42.8943 76.7109C42.8143 76.7509 42.7513 76.8059 42.7053 76.8759C42.6593 76.9459 42.6363 77.0239 42.6363 77.1099C42.6363 77.1899 42.6573 77.2639 42.6993 77.3319C42.7433 77.3999 42.8073 77.4549 42.8913 77.4969C42.9753 77.5389 43.0753 77.5599 43.1913 77.5599ZM45.626 75.6249V75.7779L44.747 77.7249H44.513L45.377 75.8169H44.297V76.2099H44.084V75.6249H45.626Z" fill="#20201F"/>
<path d="M54.6974 8.65849C54.8434 8.65849 54.9734 8.69149 55.0874 8.75749C55.2034 8.82149 55.2934 8.91249 55.3574 9.03049C55.4214 9.14649 55.4534 9.2795 55.4534 9.4295C55.4534 9.5835 55.4194 9.7205 55.3514 9.8405C55.2854 9.95851 55.1924 10.0505 55.0724 10.1165C54.9524 10.1825 54.8144 10.2155 54.6584 10.2155C54.3964 10.2155 54.1934 10.1235 54.0494 9.93951C53.9054 9.7555 53.8334 9.5015 53.8334 9.17749C53.8334 8.83949 53.8974 8.58048 54.0254 8.40048C54.1554 8.22048 54.3574 8.09848 54.6314 8.03448L55.3394 7.87247L55.3754 8.06748L54.7094 8.22048C54.4834 8.27048 54.3174 8.35948 54.2114 8.48748C54.1054 8.61348 54.0474 8.80049 54.0374 9.04849C54.1014 8.92649 54.1904 8.83149 54.3044 8.76349C54.4184 8.69349 54.5494 8.65849 54.6974 8.65849ZM54.6644 10.0385C54.7744 10.0385 54.8724 10.0135 54.9584 9.96351C55.0464 9.91151 55.1144 9.8395 55.1624 9.7475C55.2124 9.6555 55.2374 9.5515 55.2374 9.4355C55.2374 9.3195 55.2134 9.21749 55.1654 9.12949C55.1174 9.04149 55.0494 8.97349 54.9614 8.92549C54.8754 8.87549 54.7764 8.85049 54.6644 8.85049C54.5524 8.85049 54.4524 8.87549 54.3644 8.92549C54.2784 8.97349 54.2104 9.04149 54.1604 9.12949C54.1124 9.21749 54.0884 9.3195 54.0884 9.4355C54.0884 9.5515 54.1124 9.6555 54.1604 9.7475C54.2104 9.8395 54.2794 9.91151 54.3674 9.96351C54.4554 10.0135 54.5544 10.0385 54.6644 10.0385ZM56.4442 8.60748C56.6502 8.60748 56.8082 8.65949 56.9182 8.76349C57.0282 8.86549 57.0832 9.01749 57.0832 9.21949V10.1975H56.8792V9.95151C56.8312 10.0335 56.7602 10.0975 56.6662 10.1435C56.5742 10.1895 56.4642 10.2125 56.3362 10.2125C56.1602 10.2125 56.0202 10.1705 55.9162 10.0865C55.8122 10.0025 55.7602 9.8915 55.7602 9.7535C55.7602 9.6195 55.8082 9.5115 55.9042 9.4295C56.0022 9.3475 56.1572 9.3065 56.3692 9.3065H56.8702V9.21049C56.8702 9.07449 56.8322 8.97149 56.7562 8.90149C56.6802 8.82949 56.5692 8.79349 56.4232 8.79349C56.3232 8.79349 56.2272 8.81049 56.1352 8.84449C56.0432 8.87649 55.9642 8.92149 55.8982 8.97949L55.8022 8.82049C55.8822 8.75249 55.9782 8.70049 56.0902 8.66449C56.2022 8.62648 56.3202 8.60748 56.4442 8.60748ZM56.3692 10.0445C56.4892 10.0445 56.5922 10.0175 56.6782 9.96351C56.7642 9.90751 56.8282 9.8275 56.8702 9.7235V9.4655H56.3752C56.1052 9.4655 55.9702 9.5595 55.9702 9.7475C55.9702 9.8395 56.0052 9.91251 56.0752 9.96651C56.1452 10.0185 56.2432 10.0445 56.3692 10.0445ZM58.9403 8.61948V10.1975H58.7272V8.80849H57.9712L57.9502 9.19849C57.9342 9.5265 57.8962 9.7785 57.8362 9.95451C57.7762 10.1305 57.6692 10.2185 57.5152 10.2185C57.4732 10.2185 57.4222 10.2105 57.3622 10.1945L57.3772 10.0115C57.4132 10.0195 57.4382 10.0235 57.4522 10.0235C57.5342 10.0235 57.5962 9.98551 57.6382 9.90951C57.6802 9.8335 57.7082 9.7395 57.7222 9.6275C57.7362 9.5155 57.7482 9.3675 57.7582 9.18349L57.7852 8.61948H58.9403ZM60.1188 9.4955H59.7588V10.1975H59.5458V8.61948H59.7588V9.3125H60.1218L60.6768 8.61948H60.9078L60.2868 9.3845L60.9528 10.1975H60.7008L60.1188 9.4955ZM61.8843 10.2125C61.7323 10.2125 61.5953 10.1785 61.4733 10.1105C61.3513 10.0405 61.2553 9.94451 61.1853 9.8225C61.1153 9.7005 61.0803 9.5625 61.0803 9.4085C61.0803 9.25449 61.1153 9.11649 61.1853 8.99449C61.2553 8.87249 61.3513 8.77749 61.4733 8.70949C61.5953 8.64149 61.7323 8.60748 61.8843 8.60748C62.0363 8.60748 62.1733 8.64149 62.2953 8.70949C62.4173 8.77749 62.5123 8.87249 62.5803 8.99449C62.6503 9.11649 62.6853 9.25449 62.6853 9.4085C62.6853 9.5625 62.6503 9.7005 62.5803 9.8225C62.5123 9.94451 62.4173 10.0405 62.2953 10.1105C62.1733 10.1785 62.0363 10.2125 61.8843 10.2125ZM61.8843 10.0235C61.9963 10.0235 62.0963 9.99851 62.1843 9.94851C62.2743 9.8965 62.3443 9.8235 62.3943 9.7295C62.4443 9.6355 62.4693 9.5285 62.4693 9.4085C62.4693 9.2885 62.4443 9.18149 62.3943 9.08749C62.3443 8.99349 62.2743 8.92149 62.1843 8.87149C62.0963 8.81949 61.9963 8.79349 61.8843 8.79349C61.7723 8.79349 61.6713 8.81949 61.5813 8.87149C61.4933 8.92149 61.4233 8.99349 61.3713 9.08749C61.3213 9.18149 61.2963 9.2885 61.2963 9.4085C61.2963 9.5285 61.3213 9.6355 61.3713 9.7295C61.4233 9.8235 61.4933 9.8965 61.5813 9.94851C61.6713 9.99851 61.7723 10.0235 61.8843 10.0235ZM63.1406 8.61948H63.3536V9.3185H64.3466V8.61948H64.5596V10.1975H64.3466V9.5015H63.3536V10.1975H63.1406V8.61948Z" fill="#20201F"/>
<path d="M57.256 14.0571C57.476 14.0691 57.643 14.1291 57.757 14.2371C57.873 14.3431 57.931 14.4821 57.931 14.6541C57.931 14.7741 57.902 14.8811 57.844 14.9751C57.786 15.0671 57.7 15.1401 57.586 15.1941C57.472 15.2481 57.333 15.2751 57.169 15.2751C57.017 15.2751 56.873 15.2511 56.737 15.2031C56.603 15.1531 56.495 15.0871 56.413 15.0051L56.518 14.8341C56.588 14.9061 56.681 14.9651 56.797 15.0111C56.913 15.0551 57.037 15.0771 57.169 15.0771C57.341 15.0771 57.474 15.0401 57.568 14.9661C57.662 14.8901 57.709 14.7861 57.709 14.6541C57.709 14.5241 57.662 14.4221 57.568 14.3481C57.474 14.2741 57.332 14.2371 57.142 14.2371H56.992V14.0781L57.574 13.349H56.5V13.157H57.85V13.31L57.256 14.0571ZM58.3974 15.2721C58.3534 15.2721 58.3154 15.2561 58.2834 15.2241C58.2534 15.1921 58.2384 15.1531 58.2384 15.1071C58.2384 15.0611 58.2534 15.0231 58.2834 14.9931C58.3154 14.9611 58.3534 14.9451 58.3974 14.9451C58.4414 14.9451 58.4794 14.9611 58.5114 14.9931C58.5434 15.0231 58.5594 15.0611 58.5594 15.1071C58.5594 15.1531 58.5434 15.1921 58.5114 15.2241C58.4794 15.2561 58.4414 15.2721 58.3974 15.2721ZM60.3344 15.0651V15.2571H58.8614V15.1041L59.7344 14.2491C59.8444 14.1411 59.9184 14.0481 59.9564 13.9701C59.9964 13.8901 60.0164 13.8101 60.0164 13.7301C60.0164 13.6061 59.9734 13.5101 59.8874 13.4421C59.8034 13.3721 59.6824 13.337 59.5244 13.337C59.2784 13.337 59.0874 13.4151 58.9514 13.5711L58.7984 13.4391C58.8804 13.343 58.9844 13.269 59.1104 13.217C59.2384 13.165 59.3824 13.139 59.5424 13.139C59.7564 13.139 59.9254 13.19 60.0494 13.292C60.1754 13.3921 60.2384 13.5301 60.2384 13.7061C60.2384 13.8141 60.2144 13.9181 60.1664 14.0181C60.1184 14.1181 60.0274 14.2331 59.8934 14.3631L59.1794 15.0651H60.3344ZM61.8085 14.1561C61.9406 14.2001 62.0416 14.2661 62.1116 14.3541C62.1836 14.4421 62.2196 14.5481 62.2196 14.6721C62.2196 14.7941 62.1866 14.9011 62.1206 14.9931C62.0546 15.0831 61.9596 15.1531 61.8355 15.2031C61.7135 15.2511 61.5695 15.2751 61.4035 15.2751C61.1515 15.2751 60.9535 15.2211 60.8095 15.1131C60.6655 15.0051 60.5935 14.8581 60.5935 14.6721C60.5935 14.5461 60.6275 14.4401 60.6955 14.3541C60.7655 14.2661 60.8665 14.2001 60.9985 14.1561C60.8905 14.1141 60.8085 14.0541 60.7525 13.9761C60.6965 13.8961 60.6685 13.8021 60.6685 13.6941C60.6685 13.5241 60.7345 13.3891 60.8665 13.289C61.0005 13.189 61.1795 13.139 61.4035 13.139C61.5515 13.139 61.6805 13.162 61.7905 13.208C61.9026 13.252 61.9896 13.316 62.0516 13.4001C62.1136 13.4841 62.1446 13.5821 62.1446 13.6941C62.1446 13.8021 62.1156 13.8961 62.0576 13.9761C61.9996 14.0541 61.9166 14.1141 61.8085 14.1561ZM60.8845 13.7001C60.8845 13.8161 60.9305 13.9081 61.0225 13.9761C61.1145 14.0441 61.2415 14.0781 61.4035 14.0781C61.5655 14.0781 61.6925 14.0441 61.7845 13.9761C61.8785 13.9081 61.9256 13.8171 61.9256 13.7031C61.9256 13.5851 61.8775 13.4921 61.7815 13.4241C61.6875 13.356 61.5615 13.322 61.4035 13.322C61.2435 13.322 61.1165 13.356 61.0225 13.4241C60.9305 13.4921 60.8845 13.5841 60.8845 13.7001ZM61.4035 15.0921C61.5895 15.0921 61.7345 15.0541 61.8385 14.9781C61.9446 14.9021 61.9976 14.7991 61.9976 14.6691C61.9976 14.5391 61.9446 14.4371 61.8385 14.3631C61.7345 14.2871 61.5895 14.2491 61.4035 14.2491C61.2195 14.2491 61.0745 14.2871 60.9685 14.3631C60.8645 14.4371 60.8125 14.5391 60.8125 14.6691C60.8125 14.8011 60.8645 14.9051 60.9685 14.9811C61.0725 15.0551 61.2175 15.0921 61.4035 15.0921Z" fill="#20201F"/>
<path d="M57.3248 57.3167C57.6288 57.3167 57.8498 57.3717 57.9878 57.4817C58.1278 57.5897 58.1978 57.7417 58.1978 57.9377C58.1978 58.0597 58.1688 58.1687 58.1108 58.2647C58.0548 58.3607 57.9698 58.4367 57.8558 58.4927C57.7418 58.5467 57.6018 58.5737 57.4358 58.5737C57.2858 58.5737 57.1428 58.5497 57.0068 58.5017C56.8728 58.4517 56.7648 58.3857 56.6828 58.3037L56.7878 58.1327C56.8578 58.2047 56.9498 58.2637 57.0638 58.3097C57.1778 58.3537 57.3008 58.3757 57.4328 58.3757C57.6068 58.3757 57.7408 58.3367 57.8348 58.2587C57.9308 58.1807 57.9788 58.0767 57.9788 57.9467C57.9788 57.8027 57.9248 57.6937 57.8168 57.6197C57.7108 57.5457 57.5308 57.5087 57.2768 57.5087H56.8298L56.9378 56.4557H58.0868V56.6477H57.1268L57.0548 57.3167H57.3248ZM58.634 58.5707C58.59 58.5707 58.552 58.5547 58.52 58.5227C58.49 58.4907 58.475 58.4517 58.475 58.4057C58.475 58.3597 58.49 58.3217 58.52 58.2917C58.552 58.2597 58.59 58.2437 58.634 58.2437C58.678 58.2437 58.716 58.2597 58.748 58.2917C58.78 58.3217 58.796 58.3597 58.796 58.4057C58.796 58.4517 58.78 58.4907 58.748 58.5227C58.716 58.5547 58.678 58.5707 58.634 58.5707ZM59.6546 56.4557V58.5557H59.4386V56.6477H58.9436V56.4557H59.6546ZM60.7086 57.3167C61.0126 57.3167 61.2336 57.3717 61.3716 57.4817C61.5116 57.5897 61.5816 57.7417 61.5816 57.9377C61.5816 58.0597 61.5526 58.1687 61.4946 58.2647C61.4386 58.3607 61.3536 58.4367 61.2396 58.4927C61.1256 58.5467 60.9856 58.5737 60.8196 58.5737C60.6696 58.5737 60.5266 58.5497 60.3906 58.5017C60.2566 58.4517 60.1486 58.3857 60.0666 58.3037L60.1716 58.1327C60.2416 58.2047 60.3336 58.2637 60.4476 58.3097C60.5616 58.3537 60.6846 58.3757 60.8166 58.3757C60.9906 58.3757 61.1246 58.3367 61.2186 58.2587C61.3146 58.1807 61.3626 58.0767 61.3626 57.9467C61.3626 57.8027 61.3086 57.6937 61.2006 57.6197C61.0946 57.5457 60.9146 57.5087 60.6606 57.5087H60.2136L60.3216 56.4557H61.4706V56.6477H60.5106L60.4386 57.3167H60.7086Z" fill="#20201F"/>
</g>
<defs>
<clipPath id="clip0_2561_22287">
<rect width="72.2222" height="91.6666" fill="white" transform="translate(4.18481 3.70386)"/>
</clipPath>
</defs>
</svg>
