<svg width="101" height="100" viewBox="0 0 101 100" fill="none" xmlns="http://www.w3.org/2000/svg">
<rect width="100.191" height="99.9999" transform="translate(-0.000610352)" fill="white"/>
<g clip-path="url(#clip0_2561_22668)">
<path d="M88.7691 93.0535H10.4106V95.8229H88.7691V93.0535Z" fill="#E4CDA1"/>
<path fill-rule="evenodd" clip-rule="evenodd" d="M4.78882 7.19782H54.9247V4.2146H95.5367L92.096 44.9993H88.7694V49.0147V55.6696V95.823H10.4109V73.0904H4.78882V57.003V55.6696V7.19782Z" fill="#FFF9D0"/>
<path d="M74.1985 7.32056H54.9246V10.1645H74.1985V7.32056Z" fill="#20201F"/>
<path d="M85.7863 46.7036H71.3296V49.5725H85.7863V46.7036Z" fill="#20201F"/>
<path d="M7.65767 7.29541H4.78882V56.0285H7.65767V7.29541Z" fill="#20201F"/>
<path d="M7.65767 49.7434H4.78882V52.6123H7.65767V49.7434Z" fill="#20201F"/>
<path d="M7.59983 67.501H4.78882V73.0904H7.59983V67.501Z" fill="#20201F"/>
<path d="M13.2795 70.2229H10.4106V95.8227H13.2795V70.2229Z" fill="#20201F"/>
<path d="M13.2797 70.2229H4.78882V73.0901H13.2797V70.2229Z" fill="#20201F"/>
<path d="M82.9174 93.0535H10.4106V95.8229H82.9174V93.0535Z" fill="#20201F"/>
<path d="M87.2769 83.6521H82.9174V95.8227H87.2769V83.6521Z" fill="#20201F"/>
<path d="M87.2769 45.5566H82.9174V65.29H87.2769V45.5566Z" fill="#20201F"/>
<path d="M75.6892 42.23H71.3297V46.7035H75.6892V42.23Z" fill="#20201F"/>
<path d="M75.6892 6.14868H71.3297V20.431H75.6892V6.14868Z" fill="#20201F"/>
<path d="M54.9245 7.29541H7.65747V10.1643H54.9245V7.29541Z" fill="#20201F"/>
<path d="M59.284 4.21436H54.9246V7.32025H59.284V4.21436Z" fill="#20201F"/>
<path d="M60.7747 4.2146H59.2841V7.3205H60.7747V4.2146Z" fill="#20201F"/>
<path d="M77.1814 4.3125H60.7747V5.68909H77.1814V4.3125Z" fill="#20201F"/>
<path d="M77.1813 6.14868H75.6891V20.431H77.1813V6.14868Z" fill="#20201F"/>
<path d="M77.1797 42.2302H75.6891V46.7037H77.1797V42.2302Z" fill="#20201F"/>
<path d="M88.7691 43.7205H77.1813V45.097H88.7691V43.7205Z" fill="#20201F"/>
<path d="M88.7691 45.5566H87.2769V65.9776H88.7691V45.5566Z" fill="#20201F"/>
<path d="M88.7691 82.958H87.2769V95.8231H88.7691V82.958Z" fill="#20201F"/>
<path d="M88.769 44.4089H76.3922V47.4035H88.769V44.4089Z" fill="#20201F"/>
<path d="M77.1813 4.54077H60.0293V8.39508H77.1813V4.54077Z" fill="#20201F"/>
<path fill-rule="evenodd" clip-rule="evenodd" d="M77.1814 4.3125H95.5365L92.0959 45.0971H88.7692V43.7206H90.83L94.0394 5.68909H77.1814V4.3125Z" fill="#20201F"/>
<path d="M26.5877 48.6545H7.65747V49.5717H26.5877V48.6545Z" fill="#20201F"/>
<path d="M48.4994 81.0063H47.5822V93.0536H48.4994V81.0063Z" fill="#20201F"/>
<path d="M48.4994 71.1401H47.5822V81.006H48.4994V71.1401Z" fill="#20201F"/>
<path d="M48.4994 61.6184H47.5822V71.1407H48.4994V61.6184Z" fill="#20201F"/>
<path d="M47.582 70.2231H28.9058V71.1403H47.582V70.2231Z" fill="#20201F"/>
<path d="M20.8762 70.2231H13.2797V71.1403H20.8762V70.2231Z" fill="#20201F"/>
<path d="M71.3294 48.6538H36.913V49.571H71.3294V48.6538Z" fill="#20201F"/>
<path d="M48.4994 49.5708H47.5822V52.4397H48.4994V49.5708Z" fill="#20201F"/>
<path d="M88.7691 65.9773H88.0311V82.9576H88.7691V65.9773Z" fill="#20201F"/>
<path d="M87.2816 65.2881H86.5438V83.645H87.2816V65.2881Z" fill="#20201F"/>
<path d="M83.6601 65.2886H82.9222V83.6455H83.6601V65.2886Z" fill="#20201F"/>
<path d="M77.1817 20.4316H76.4437V33.0519H77.1817V20.4316Z" fill="#20201F"/>
<path d="M75.6942 20.4312H74.9564V33.0518H75.6942V20.4312Z" fill="#20201F"/>
<path d="M72.0734 20.4316H71.3356V33.0523H72.0734V20.4316Z" fill="#20201F"/>
<path d="M77.1818 32.5105H71.3307V33.052H77.1818V32.5105Z" fill="#20201F"/>
<path fill-rule="evenodd" clip-rule="evenodd" d="M27.5887 49.1565C27.5887 49.3363 27.4427 49.4823 27.2628 49.4823C27.083 49.4823 26.937 49.3363 26.937 49.1565V42.2606C26.937 42.0808 27.083 41.9348 27.2628 41.9348C27.4427 41.9348 27.5887 42.0808 27.5887 42.2606V49.1565Z" fill="#20201F"/>
<path fill-rule="evenodd" clip-rule="evenodd" d="M36.5436 49.2221C36.5436 49.3121 36.4706 49.385 36.3807 49.385C36.2907 49.385 36.2178 49.3121 36.2178 49.2221C36.2178 47.3492 35.3413 45.6521 33.9248 44.423C32.5018 43.1879 30.5338 42.4237 28.3594 42.4237C28.2695 42.4237 28.1965 42.3507 28.1965 42.2608C28.1965 42.1709 28.2695 42.0979 28.3594 42.0979C30.6136 42.0979 32.6572 42.8927 34.1372 44.1773C35.6238 45.4672 36.5436 47.2509 36.5436 49.2221Z" fill="#20201F"/>
<path fill-rule="evenodd" clip-rule="evenodd" d="M75.4525 41.1755C75.6324 41.1755 75.7783 41.3215 75.7783 41.5014C75.7783 41.6812 75.6324 41.8272 75.4525 41.8272H68.5567C68.3768 41.8272 68.2308 41.6812 68.2308 41.5014C68.2308 41.3215 68.3768 41.1755 68.5567 41.1755H75.4525Z" fill="#20201F"/>
<path fill-rule="evenodd" clip-rule="evenodd" d="M75.5179 33.52C75.6078 33.52 75.6808 33.593 75.6808 33.6829C75.6808 33.7729 75.6078 33.8458 75.5179 33.8458C73.64 33.8458 71.9399 34.598 70.7098 35.8133C69.4803 37.028 68.7195 38.7069 68.7195 40.5607C68.7195 40.6506 68.6465 40.7236 68.5566 40.7236C68.4667 40.7236 68.3937 40.6506 68.3937 40.5607C68.3937 38.6172 69.192 36.8563 70.482 35.5816C71.771 34.3082 73.5518 33.52 75.5179 33.52Z" fill="#20201F"/>
<path fill-rule="evenodd" clip-rule="evenodd" d="M47.9871 53.2976C47.8072 53.2976 47.6613 53.1517 47.6613 52.9718C47.6613 52.792 47.8072 52.646 47.9871 52.646H54.8829C55.0628 52.646 55.2087 52.792 55.2087 52.9718C55.2087 53.1517 55.0628 53.2976 54.8829 53.2976H47.9871Z" fill="#20201F"/>
<path fill-rule="evenodd" clip-rule="evenodd" d="M47.9216 61.2438C47.8317 61.2438 47.7587 61.1708 47.7587 61.0809C47.7587 60.9909 47.8317 60.918 47.9216 60.918C49.7983 60.918 51.4976 60.1383 52.7273 58.8782C53.9582 57.6166 54.72 55.8729 54.72 53.9473C54.72 53.8574 54.793 53.7844 54.8829 53.7844C54.9728 53.7844 55.0458 53.8574 55.0458 53.9473C55.0458 55.9604 54.2485 57.7844 52.9602 59.1046C51.6706 60.4261 49.889 61.2438 47.9216 61.2438Z" fill="#20201F"/>
<path fill-rule="evenodd" clip-rule="evenodd" d="M6.82361 57.1827C6.64376 57.1827 6.4978 57.0367 6.4978 56.8568C6.4978 56.677 6.64376 56.531 6.82361 56.531H13.7195C13.8993 56.531 14.0453 56.677 14.0453 56.8568C14.0453 57.0367 13.8993 57.1827 13.7195 57.1827H6.82361Z" fill="#20201F"/>
<path fill-rule="evenodd" clip-rule="evenodd" d="M6.758 66.7382C6.66808 66.7382 6.59509 66.6652 6.59509 66.5752C6.59509 66.4853 6.66808 66.4123 6.758 66.4123C8.62887 66.4123 10.3249 65.4782 11.5543 63.9685C12.7911 62.4492 13.5564 60.348 13.5564 58.0257C13.5564 57.9358 13.6294 57.8628 13.7193 57.8628C13.8093 57.8628 13.8823 57.9358 13.8823 58.0257C13.8823 60.4241 13.0885 62.5981 11.8061 64.1735C10.516 65.7578 8.73134 66.7382 6.758 66.7382Z" fill="#20201F"/>
<path fill-rule="evenodd" clip-rule="evenodd" d="M28.0803 70.672C28.0803 70.4922 28.2263 70.3462 28.4061 70.3462C28.586 70.3462 28.732 70.4922 28.732 70.672V77.5679C28.732 77.7477 28.586 77.8937 28.4061 77.8937C28.2263 77.8937 28.0803 77.7477 28.0803 77.5679V70.672Z" fill="#20201F"/>
<path fill-rule="evenodd" clip-rule="evenodd" d="M21.3464 70.6065C21.3464 70.5166 21.4194 70.4436 21.5093 70.4436C21.5993 70.4436 21.6723 70.5166 21.6723 70.6065C21.6723 72.4884 22.336 74.191 23.4087 75.4217C24.4764 76.6467 25.9503 77.4049 27.5763 77.4049C27.6662 77.4049 27.7392 77.4779 27.7392 77.5678C27.7392 77.6578 27.6662 77.7307 27.5763 77.7307C25.8525 77.7307 24.2924 76.9299 23.1643 75.6354C22.0412 74.3471 21.3464 72.5688 21.3464 70.6065Z" fill="#20201F"/>
<path fill-rule="evenodd" clip-rule="evenodd" d="M75.0267 85.6677H57.7174V92.5914H75.2303V85.6677H75.0267ZM63.1348 86.4863C63.3253 86.4863 63.499 86.5642 63.6242 86.6903C63.7493 86.8158 63.8274 86.9888 63.8274 87.1787V91.0886C63.8274 91.2785 63.7493 91.4515 63.6242 91.5778C63.499 91.7031 63.3253 91.7809 63.1348 91.7809H59.225C59.035 91.7809 58.8619 91.7029 58.7359 91.5778C58.6107 91.4525 58.5328 91.2792 58.5328 91.0886V87.1787C58.5328 86.9881 58.6107 86.8148 58.7364 86.69C58.8619 86.5644 59.035 86.4863 59.225 86.4863H63.1348ZM73.0133 86.8099C73.2768 86.8099 73.5163 86.9172 73.6898 87.0904C73.863 87.2636 73.9703 87.5031 73.9703 87.767C73.9703 88.0304 73.863 88.2697 73.6893 88.4435C73.516 88.6167 73.2767 88.7241 73.0133 88.7241C72.7493 88.7241 72.5098 88.6167 72.337 88.4432C72.1635 88.2701 72.0561 88.0306 72.0561 87.767C72.0561 87.5031 72.1635 87.2636 72.3367 87.0904C72.5098 86.9172 72.7493 86.8099 73.0133 86.8099ZM73.0133 89.3316C73.3335 89.3316 73.6238 89.4617 73.8338 89.6717C74.0438 89.8817 74.174 90.1722 74.174 90.4923C74.174 90.8126 74.0438 91.1029 73.8338 91.3129C73.6238 91.5229 73.3335 91.653 73.0133 91.653C72.6931 91.653 72.4027 91.5229 72.1927 91.3129C71.9827 91.1029 71.8525 90.8126 71.8525 90.4923C71.8525 90.1722 71.9827 89.8817 72.1927 89.6717C72.4027 89.4617 72.6931 89.3316 73.0133 89.3316ZM72.394 89.8731C72.5522 89.7149 72.7715 89.6167 73.0133 89.6167C73.2552 89.6167 73.4743 89.7149 73.6325 89.8731C73.7906 90.0313 73.8889 90.2506 73.8889 90.4923C73.8889 90.7342 73.7906 90.9534 73.6325 91.1115C73.4743 91.2697 73.2552 91.3679 73.0133 91.3679C72.7715 91.3679 72.5522 91.2697 72.394 91.1115C72.2358 90.9534 72.1376 90.7342 72.1376 90.4923C72.1376 90.2506 72.2358 90.0313 72.394 89.8731ZM70.5238 86.6063C70.8441 86.6063 71.1344 86.7364 71.3444 86.9464C71.5544 87.1564 71.6845 87.4467 71.6845 87.767C71.6845 88.0873 71.5545 88.3777 71.3446 88.5877C71.1346 88.7977 70.8441 88.9277 70.5238 88.9277C70.2035 88.9277 69.9132 88.7976 69.7032 88.5876C69.4932 88.3776 69.3631 88.0873 69.3631 87.767C69.3631 87.4469 69.4932 87.1564 69.7032 86.9464C69.9132 86.7364 70.2037 86.6063 70.5238 86.6063ZM69.9046 87.1478C70.0628 86.9896 70.282 86.8913 70.5238 86.8913C70.7657 86.8913 70.9848 86.9896 71.143 87.1478C71.3012 87.3059 71.3995 87.5251 71.3995 87.767C71.3995 88.0089 71.3014 88.2282 71.1432 88.3864C70.985 88.5446 70.7657 88.6426 70.5238 88.6426C70.2819 88.6426 70.0628 88.5444 69.9046 88.3862C69.7464 88.228 69.6482 88.0089 69.6482 87.767C69.6482 87.5252 69.7464 87.3059 69.9046 87.1478ZM70.5238 89.5352C70.7874 89.5352 71.0269 89.6426 71.2004 89.8157C71.3735 89.9889 71.4809 90.2284 71.4809 90.4923C71.4809 90.7557 71.3735 90.9951 71.1999 91.1689C71.0265 91.3421 70.7872 91.4494 70.5238 91.4494C70.2599 91.4494 70.0204 91.3421 69.8476 91.1686C69.6741 90.9954 69.5667 90.7559 69.5667 90.4923C69.5667 90.2284 69.6741 89.9889 69.8472 89.8157C70.0204 89.6426 70.2599 89.5352 70.5238 89.5352ZM70.0486 90.0171C70.17 89.8957 70.3383 89.8203 70.5238 89.8203C70.7098 89.8203 70.878 89.8954 70.999 90.0166C71.1204 90.1385 71.1958 90.3068 71.1958 90.4923C71.1958 90.6784 71.1207 90.8465 70.9995 90.9675C70.878 91.0892 70.7098 91.1643 70.5238 91.1643C70.3383 91.1643 70.17 91.0889 70.0486 90.9675C69.9269 90.8465 69.8518 90.6784 69.8518 90.4923C69.8518 90.3068 69.9272 90.1385 70.0486 90.0171ZM72.538 87.2918C72.6594 87.1704 72.8277 87.095 73.0133 87.095C73.1993 87.095 73.3674 87.1701 73.4885 87.2913C73.6098 87.4131 73.6852 87.5814 73.6852 87.767C73.6852 87.953 73.6102 88.1212 73.4889 88.2422C73.3674 88.3639 73.1993 88.439 73.0133 88.439C72.8277 88.439 72.6594 88.3636 72.538 88.2422C72.4163 88.1212 72.3412 87.953 72.3412 87.767C72.3412 87.5814 72.4167 87.4131 72.538 87.2918ZM59.225 86.8936H63.1348C63.213 86.8936 63.2845 86.9259 63.3362 86.9775C63.388 87.0287 63.4201 87.1002 63.4201 87.1787V91.0886C63.4201 91.1671 63.388 91.2386 63.3365 91.2901C63.2845 91.3414 63.213 91.3737 63.1348 91.3737H59.225C59.1465 91.3737 59.0751 91.3417 59.024 91.2906C58.9723 91.2381 58.9401 91.1664 58.9401 91.0886V87.1787C58.9401 87.1009 58.9723 87.0292 59.024 86.9775C59.0751 86.9256 59.1465 86.8936 59.225 86.8936ZM68.7206 92.1841V86.075H74.823V92.1841H68.7206ZM68.3133 86.075V92.1841H58.1247V86.075H68.3133Z" fill="#20201F"/>
<path fill-rule="evenodd" clip-rule="evenodd" d="M18.8858 86.3113C18.5413 86.8472 18.3285 87.5346 18.3285 88.139C18.3285 88.734 18.5326 89.1983 18.8668 89.5215H18.8677C18.9943 89.6437 19.1445 89.7383 19.3037 89.8185H18.6164C18.2061 89.8185 17.9657 89.9899 17.8261 90.265C17.6987 90.5154 17.6672 90.8466 17.6672 91.2097V91.3596H17.671C17.6795 91.6623 17.7173 91.9386 17.8261 92.1538C17.9657 92.4288 18.2061 92.5994 18.6144 92.5994H21.985C22.3951 92.5994 22.6352 92.4288 22.774 92.1538C22.882 91.9386 22.9209 91.6623 22.9291 91.3596H22.9328V91.2097C22.9328 90.8466 22.9014 90.5154 22.774 90.265C22.6352 89.9899 22.3951 89.8185 21.985 89.8185H21.2964C21.4556 89.7383 21.6053 89.6447 21.7322 89.5215C22.067 89.1983 22.2713 88.734 22.2713 88.139C22.2713 87.5003 22.0331 86.7691 21.6533 86.2208C21.3029 85.7148 20.829 85.3596 20.3 85.3596C19.7398 85.3596 19.241 85.7579 18.8858 86.3113ZM20.3971 91.6568V91.6577H20.3966C20.2758 91.6577 20.1645 91.6072 20.0843 91.5273H20.0834C20.0035 91.4473 19.954 91.337 19.954 91.2146C19.954 91.0921 20.0035 90.9828 20.0834 90.9028V90.9014L20.0843 90.9015C20.165 90.8215 20.2758 90.7722 20.3966 90.7722C20.5195 90.7722 20.6304 90.8215 20.7099 90.9014C20.7897 90.9813 20.8398 91.0921 20.8398 91.2146C20.8398 91.337 20.7897 91.4463 20.7099 91.5273C20.6304 91.6072 20.5195 91.6568 20.3971 91.6568ZM20.3976 91.4302H20.3966C20.337 91.4302 20.2831 91.4064 20.2448 91.3687V91.3673C20.2062 91.3287 20.1816 91.2739 20.1816 91.2146C20.1816 91.1542 20.2055 91.0988 20.2428 91.0613L20.2445 91.0603C20.2831 91.0227 20.337 90.9984 20.3966 90.9984C20.4584 90.9984 20.512 91.0227 20.5504 91.0603C20.5881 91.0988 20.6119 91.1542 20.6119 91.2146C20.6119 91.2749 20.5881 91.3298 20.5486 91.3673C20.511 91.4074 20.4566 91.4316 20.3976 91.4316V91.4302ZM21.985 90.1178C22.2616 90.1178 22.4197 90.2264 22.5078 90.3986C22.5968 90.5772 22.6267 90.8248 22.6319 91.1047V91.2097C22.6319 91.5321 22.6073 91.8211 22.5078 92.0201C22.4197 92.1924 22.2613 92.2998 21.985 92.2998H18.6144C18.3384 92.2998 18.1809 92.1924 18.0928 92.0201C17.9924 91.8211 17.9681 91.5321 17.9681 91.2097V91.0931C17.9743 90.8191 18.0038 90.5733 18.0923 90.3986C18.1809 90.2249 18.3397 90.1178 18.6164 90.1178H21.985ZM21.4082 86.3902C21.7551 86.8907 21.9722 87.5575 21.9722 88.139C21.9722 88.6473 21.8024 89.0383 21.5253 89.3066C21.2221 89.6003 20.7855 89.7522 20.3 89.7522C19.8137 89.7522 19.3776 89.6003 19.0737 89.3066C18.7972 89.0383 18.6278 88.6473 18.6278 88.139C18.6278 87.5897 18.8221 86.9623 19.137 86.472C19.4404 85.9994 19.8535 85.659 20.3 85.659C20.7199 85.659 21.11 85.9617 21.4082 86.3902Z" fill="#20201F"/>
<path fill-rule="evenodd" clip-rule="evenodd" d="M13.5716 79.0761L13.5704 75.3424C13.5704 74.0937 16.1552 74.2408 16.3277 74.2537C16.9261 74.2537 17.4689 74.4977 17.8617 74.891C18.2538 75.2832 18.4968 75.827 18.4968 76.4252V78.0097C18.4968 78.6091 18.2543 79.1522 17.8617 79.5456C17.4689 79.9376 16.9251 80.1808 16.3267 80.1834C16.1513 80.1914 13.5704 80.3199 13.5716 79.0761ZM16.0893 77.2168H16.0898C16.0911 77.3481 16.1428 77.4693 16.2291 77.5559C16.3169 77.6409 16.4367 77.6933 16.5673 77.6933C16.6993 77.6933 16.8192 77.6406 16.9054 77.5541C16.9919 77.4677 17.0448 77.3481 17.0448 77.2163C17.0448 77.0854 16.9919 76.9656 16.9054 76.8793V76.8777H16.9044C16.8182 76.7913 16.6993 76.7374 16.5673 76.7374C16.4367 76.7374 16.3153 76.7913 16.2291 76.8777V76.8781C16.1428 76.9645 16.0885 77.0854 16.0885 77.2163L16.0893 77.2168ZM16.3329 77.2176C16.3329 77.28 16.3586 77.3388 16.4018 77.3809C16.4429 77.4219 16.5018 77.4483 16.5673 77.4483C16.6325 77.4483 16.6916 77.4231 16.7338 77.382C16.7744 77.3397 16.8011 77.2822 16.8005 77.2163C16.8005 77.1505 16.7749 77.0937 16.7338 77.0515L16.7328 77.0505C16.6916 77.0086 16.6325 76.9831 16.5673 76.9831C16.503 76.9831 16.444 77.0103 16.4018 77.0508L16.4013 77.0518C16.3599 77.093 16.335 77.1518 16.335 77.2154L16.3355 77.2176H16.3329ZM14.4814 77.2168C14.4814 77.8188 14.6608 78.3652 14.9487 78.7625C15.2497 79.1753 15.6703 79.4319 16.1364 79.4323C16.6043 79.4323 17.0248 79.1753 17.3265 78.7625C17.616 78.3637 17.7937 77.817 17.7937 77.2149V77.2123C17.7923 76.6118 17.6132 76.0665 17.3247 75.668C17.0238 75.257 16.6043 75.0009 16.139 75.0006L16.1364 75.0009C15.6692 75.0009 15.251 75.257 14.9487 75.6713C14.6603 76.0677 14.4814 76.6139 14.4819 77.2154L14.4814 77.2168ZM14.8182 77.2168C14.8191 77.7443 14.9739 78.221 15.2227 78.5657C15.4605 78.8911 15.7846 79.0936 16.1364 79.0936C16.4906 79.0936 16.8146 78.8911 17.0535 78.5631C17.3012 78.2202 17.4555 77.7443 17.4555 77.2149V77.2139L17.4565 77.2123C17.4555 76.6843 17.3012 76.2096 17.052 75.8666C16.8151 75.5421 16.4906 75.3398 16.139 75.3388L16.1364 75.3398C15.7839 75.3391 15.4595 75.5418 15.2227 75.8678C14.9749 76.2109 14.8191 76.6869 14.8196 77.2149V77.2168H14.8182ZM13.9086 79.075C13.9086 80.0019 16.3081 79.8441 16.3143 79.8441L16.3267 79.8426C16.8324 79.8426 17.2898 79.6385 17.6225 79.3079C17.954 78.9745 18.1586 78.5162 18.1586 78.0097V76.4269C18.1586 75.9186 17.955 75.4595 17.6225 75.1275C17.2915 74.796 16.8324 74.5919 16.3267 74.5909L16.3148 74.5904C16.3088 74.5904 13.9086 74.4203 13.9086 75.3434V79.075Z" fill="#20201F"/>
<path fill-rule="evenodd" clip-rule="evenodd" d="M46.6575 84.2947H27.4951V92.1257H46.6575V84.2947ZM42.9236 88.9714C42.7131 88.9714 42.5225 88.8861 42.3847 88.7484C42.247 88.6101 42.1616 88.42 42.1616 88.2102C42.1616 88.0004 42.247 87.8103 42.3847 87.6725C42.5232 87.5343 42.7136 87.449 42.9236 87.449C43.1335 87.449 43.3239 87.5343 43.4618 87.6719C43.6002 87.8095 43.6855 88 43.6855 88.2102C43.6855 88.4204 43.6002 88.6108 43.4624 88.7484C43.3246 88.8861 43.134 88.9714 42.9236 88.9714ZM42.6001 88.5333C42.5176 88.451 42.4664 88.3365 42.4664 88.2102C42.4664 88.0838 42.5176 87.9693 42.6001 87.887C42.6825 87.8046 42.7971 87.7535 42.9236 87.7535C43.05 87.7535 43.1647 87.8046 43.2469 87.8871C43.3295 87.9698 43.3808 88.0841 43.3808 88.2102C43.3808 88.3362 43.3295 88.4505 43.2469 88.5332C43.1642 88.6157 43.0498 88.6669 42.9236 88.6669C42.7974 88.6669 42.6829 88.6157 42.6001 88.5333ZM45.2112 91.9016L31.6842 91.5971C29.6527 91.5971 27.989 90.2397 27.989 88.2102C27.989 86.1806 29.6527 84.8232 31.6842 84.8232L45.2112 84.5188C45.4733 84.5188 45.7117 84.6259 45.884 84.7981C46.0563 84.971 46.1636 85.209 46.1636 85.4702V90.9502C46.1636 91.211 46.0565 91.4488 45.884 91.6215C45.7104 91.7946 45.4724 91.9016 45.2112 91.9016ZM31.6842 91.2165C29.8608 91.2165 28.37 90.0317 28.37 88.2102C28.37 86.3886 29.8608 85.2038 31.6842 85.2038L45.2112 84.8993C45.368 84.8993 45.511 84.9638 45.6153 85.0673C45.7185 85.1702 45.7826 85.313 45.7826 85.4702V90.9502C45.7826 91.1074 45.7185 91.25 45.6146 91.3539C45.5114 91.4569 45.3686 91.521 45.2112 91.521L31.6842 91.2165ZM27.4549 83.9219H46.6978C46.7934 83.9219 46.8808 83.9598 46.944 84.0199C47.0077 84.0802 47.047 84.1642 47.047 84.2563V92.164C47.047 92.2561 47.0077 92.3402 46.9448 92.4005C46.8815 92.4609 46.7939 92.4985 46.6978 92.4985H27.4549C27.3588 92.4985 27.2711 92.4609 27.2079 92.4005C27.1452 92.3394 27.1056 92.2557 27.1056 92.164V84.2563C27.1056 84.1647 27.1451 84.0811 27.2079 84.0206C27.272 83.9596 27.3592 83.9219 27.4549 83.9219Z" fill="#20201F"/>
<path d="M19.1489 15.6521H18.7416V35.0189H19.1489V15.6521Z" fill="#20201F"/>
<path d="M15.5437 19.723V27.4326H13.7595V21.1548H12.2176V19.723H15.5437Z" fill="#20201F"/>
<path d="M23.3808 18.5884V21.3418H23.0976V18.8401H22.4486V18.5884H23.3808ZM25.6164 19.8982C25.7894 19.9559 25.9219 20.0424 26.0136 20.1578C26.108 20.2732 26.1552 20.4122 26.1552 20.5748C26.1552 20.7347 26.112 20.875 26.0254 20.9957C25.9389 21.1137 25.8143 21.2054 25.6518 21.271C25.4918 21.3339 25.303 21.3654 25.0853 21.3654C24.7549 21.3654 24.4953 21.2946 24.3065 21.153C24.1177 21.0114 24.0233 20.8186 24.0233 20.5748C24.0233 20.4096 24.0679 20.2706 24.157 20.1578C24.2488 20.0424 24.3812 19.9559 24.5543 19.8982C24.4127 19.8431 24.3052 19.7645 24.2318 19.6622C24.1583 19.5573 24.1216 19.4341 24.1216 19.2925C24.1216 19.0696 24.2082 18.8925 24.3812 18.7614C24.5569 18.6303 24.7916 18.5648 25.0853 18.5648C25.2794 18.5648 25.4485 18.5949 25.5928 18.6552C25.7396 18.7129 25.8537 18.7968 25.935 18.907C26.0163 19.0171 26.0569 19.1456 26.0569 19.2925C26.0569 19.4341 26.0189 19.5573 25.9428 19.6622C25.8668 19.7645 25.758 19.8431 25.6164 19.8982ZM24.4048 19.3003C24.4048 19.4524 24.4652 19.573 24.5858 19.6622C24.7064 19.7514 24.8729 19.7959 25.0853 19.7959C25.2977 19.7959 25.4643 19.7514 25.5849 19.6622C25.7081 19.573 25.7698 19.4537 25.7698 19.3043C25.7698 19.1495 25.7068 19.0276 25.581 18.9384C25.4577 18.8493 25.2925 18.8047 25.0853 18.8047C24.8755 18.8047 24.709 18.8493 24.5858 18.9384C24.4652 19.0276 24.4048 19.1482 24.4048 19.3003ZM25.0853 21.1255C25.3292 21.1255 25.5193 21.0756 25.6557 20.976C25.7947 20.8763 25.8642 20.7413 25.8642 20.5708C25.8642 20.4004 25.7947 20.2666 25.6557 20.1696C25.5193 20.07 25.3292 20.0201 25.0853 20.0201C24.8441 20.0201 24.654 20.07 24.515 20.1696C24.3786 20.2666 24.3104 20.4004 24.3104 20.5708C24.3104 20.7439 24.3786 20.8803 24.515 20.9799C24.6513 21.0769 24.8415 21.1255 25.0853 21.1255ZM26.7982 21.3615C26.7405 21.3615 26.6907 21.3405 26.6487 21.2985C26.6094 21.2566 26.5897 21.2054 26.5897 21.1451C26.5897 21.0848 26.6094 21.035 26.6487 20.9957C26.6907 20.9537 26.7405 20.9327 26.7982 20.9327C26.8559 20.9327 26.9057 20.9537 26.9477 20.9957C26.9896 21.035 27.0106 21.0848 27.0106 21.1451C27.0106 21.2054 26.9896 21.2566 26.9477 21.2985C26.9057 21.3405 26.8559 21.3615 26.7982 21.3615ZM29.338 21.0901V21.3418H27.4066V21.1412L28.5513 20.0201C28.6955 19.8785 28.7925 19.7566 28.8424 19.6543C28.8948 19.5494 28.921 19.4445 28.921 19.3397C28.921 19.1771 28.8647 19.0512 28.7519 18.962C28.6418 18.8703 28.4831 18.8244 28.2759 18.8244C27.9534 18.8244 27.703 18.9266 27.5246 19.1312L27.324 18.9581C27.4316 18.8322 27.5679 18.7352 27.7331 18.667C27.9009 18.5988 28.0898 18.5648 28.2995 18.5648C28.5801 18.5648 28.8017 18.6316 28.9643 18.7654C29.1295 18.8965 29.2121 19.0774 29.2121 19.3082C29.2121 19.4498 29.1806 19.5862 29.1177 19.7173C29.0548 19.8484 28.9355 19.9992 28.7598 20.1696L27.8236 21.0901H29.338ZM30.4172 19.7173C30.8158 19.7173 31.1055 19.7894 31.2865 19.9336C31.47 20.0752 31.5618 20.2745 31.5618 20.5315C31.5618 20.6915 31.5238 20.8344 31.4477 20.9602C31.3743 21.0861 31.2629 21.1858 31.1134 21.2592C30.9639 21.33 30.7804 21.3654 30.5627 21.3654C30.366 21.3654 30.1785 21.3339 30.0002 21.271C29.8245 21.2054 29.6829 21.1189 29.5754 21.0114L29.7131 20.7872C29.8049 20.8816 29.9255 20.9589 30.075 21.0193C30.2244 21.0769 30.3857 21.1058 30.5588 21.1058C30.7869 21.1058 30.9626 21.0547 31.0859 20.9524C31.2117 20.8501 31.2747 20.7138 31.2747 20.5433C31.2747 20.3545 31.2039 20.2116 31.0623 20.1146C30.9233 20.0175 30.6873 19.969 30.3542 19.969H29.7681L29.9098 18.5884H31.4163V18.8401H30.1576L30.0632 19.7173H30.4172Z" fill="#20201F"/>
<path d="M24.1917 26.2281H23.641V26.9519H23.3578V26.2281H21.8041V26.0236L23.2634 24.1985H23.5781L22.1699 25.9764H23.3657V25.3392H23.641V25.9764H24.1917V26.2281ZM25.5493 26.9755C25.3369 26.9755 25.1467 26.9191 24.9789 26.8064C24.8137 26.6936 24.6839 26.5323 24.5895 26.3225C24.4977 26.1101 24.4518 25.861 24.4518 25.5752C24.4518 25.2894 24.4977 25.0415 24.5895 24.8318C24.6839 24.6193 24.8137 24.4568 24.9789 24.344C25.1467 24.2312 25.3369 24.1749 25.5493 24.1749C25.7617 24.1749 25.9505 24.2312 26.1157 24.344C26.2835 24.4568 26.4146 24.6193 26.509 24.8318C26.6034 25.0415 26.6506 25.2894 26.6506 25.5752C26.6506 25.861 26.6034 26.1101 26.509 26.3225C26.4146 26.5323 26.2835 26.6936 26.1157 26.8064C25.9505 26.9191 25.7617 26.9755 25.5493 26.9755ZM25.5493 26.7159C25.7092 26.7159 25.8495 26.6713 25.9701 26.5822C26.0934 26.493 26.1891 26.3632 26.2573 26.1927C26.3255 26.0223 26.3596 25.8164 26.3596 25.5752C26.3596 25.3339 26.3255 25.1281 26.2573 24.9576C26.1891 24.7872 26.0934 24.6574 25.9701 24.5682C25.8495 24.4791 25.7092 24.4345 25.5493 24.4345C25.3893 24.4345 25.2477 24.4791 25.1244 24.5682C25.0038 24.6574 24.9094 24.7872 24.8412 24.9576C24.7731 25.1281 24.739 25.3339 24.739 25.5752C24.739 25.8164 24.7731 26.0223 24.8412 26.1927C24.9094 26.3632 25.0038 26.493 25.1244 26.5822C25.2477 26.6713 25.3893 26.7159 25.5493 26.7159ZM27.2264 26.9716C27.1687 26.9716 27.1189 26.9506 27.0769 26.9086C27.0376 26.8667 27.0179 26.8155 27.0179 26.7552C27.0179 26.6949 27.0376 26.6451 27.0769 26.6058C27.1189 26.5638 27.1687 26.5428 27.2264 26.5428C27.2841 26.5428 27.3339 26.5638 27.3758 26.6058C27.4178 26.6451 27.4388 26.6949 27.4388 26.7552C27.4388 26.8155 27.4178 26.8667 27.3758 26.9086C27.3339 26.9506 27.2841 26.9716 27.2264 26.9716ZM28.946 25.3038C29.1269 25.3038 29.2869 25.3379 29.4259 25.406C29.5675 25.4742 29.6776 25.5713 29.7563 25.6971C29.8349 25.8204 29.8743 25.9646 29.8743 26.1298C29.8743 26.2976 29.8336 26.4458 29.7523 26.5743C29.6711 26.7028 29.5583 26.8024 29.4141 26.8732C29.2725 26.9414 29.1125 26.9755 28.9342 26.9755C28.5697 26.9755 28.2904 26.8562 28.0964 26.6176C27.9023 26.3763 27.8053 26.0367 27.8053 25.5988C27.8053 25.292 27.8577 25.0324 27.9626 24.82C28.0675 24.6075 28.2144 24.4476 28.4032 24.3401C28.592 24.2299 28.8122 24.1749 29.064 24.1749C29.3367 24.1749 29.5544 24.2247 29.7169 24.3243L29.6029 24.5525C29.4718 24.4659 29.2934 24.4227 29.0679 24.4227C28.7637 24.4227 28.5251 24.5197 28.352 24.7138C28.179 24.9052 28.0924 25.1845 28.0924 25.5516C28.0924 25.6171 28.0964 25.6919 28.1042 25.7758C28.1724 25.6263 28.2812 25.5109 28.4307 25.4296C28.5802 25.3457 28.7519 25.3038 28.946 25.3038ZM28.9224 26.7356C29.1217 26.7356 29.283 26.6818 29.4062 26.5743C29.5321 26.4642 29.595 26.3186 29.595 26.1377C29.595 25.9567 29.5321 25.8125 29.4062 25.705C29.283 25.5975 29.1151 25.5437 28.9027 25.5437C28.7637 25.5437 28.6405 25.5699 28.533 25.6224C28.4281 25.6748 28.3455 25.7469 28.2852 25.8387C28.2248 25.9305 28.1947 26.0328 28.1947 26.1455C28.1947 26.2504 28.2222 26.3475 28.2773 26.4366C28.335 26.5258 28.4189 26.5979 28.529 26.653C28.6392 26.708 28.7703 26.7356 28.9224 26.7356ZM31.1384 25.3785C31.4269 25.3942 31.6458 25.4729 31.7953 25.6145C31.9474 25.7535 32.0234 25.9358 32.0234 26.1613C32.0234 26.3186 31.9854 26.4589 31.9094 26.5822C31.8333 26.7028 31.7206 26.7985 31.5711 26.8693C31.4216 26.9401 31.2394 26.9755 31.0243 26.9755C30.825 26.9755 30.6362 26.944 30.4579 26.8811C30.2822 26.8155 30.1406 26.729 30.0331 26.6215L30.1708 26.3973C30.2626 26.4917 30.3845 26.569 30.5366 26.6294C30.6887 26.687 30.8513 26.7159 31.0243 26.7159C31.2499 26.7159 31.4242 26.6674 31.5475 26.5704C31.6707 26.4707 31.7324 26.3343 31.7324 26.1613C31.7324 25.9908 31.6707 25.8571 31.5475 25.7601C31.4242 25.663 31.2381 25.6145 30.9889 25.6145H30.7923V25.406L31.5554 24.4502H30.1472V24.1985H31.9172V24.3991L31.1384 25.3785Z" fill="#20201F"/>
<path d="M24.1139 31.8387H23.5632V32.5625H23.28V31.8387H21.7263V31.6342L23.1856 29.8091H23.5003L22.0921 31.587H23.2879V30.9498H23.5632V31.587H24.1139V31.8387ZM26.2389 32.3108V32.5625H24.3076V32.3619L25.4522 31.2408C25.5964 31.0992 25.6935 30.9773 25.7433 30.875C25.7957 30.7701 25.822 30.6652 25.822 30.5604C25.822 30.3978 25.7656 30.2719 25.6528 30.1827C25.5427 30.091 25.384 30.0451 25.1769 30.0451C24.8543 30.0451 24.6039 30.1473 24.4256 30.3519L24.225 30.1788C24.3325 30.0529 24.4688 29.9559 24.634 29.8877C24.8019 29.8196 24.9907 29.7855 25.2005 29.7855C25.4811 29.7855 25.7026 29.8523 25.8652 29.9861C26.0304 30.1172 26.113 30.2981 26.113 30.5289C26.113 30.6705 26.0816 30.8069 26.0186 30.938C25.9557 31.0691 25.8364 31.2199 25.6607 31.3903L24.7245 32.3108H26.2389ZM26.8452 32.5822C26.7875 32.5822 26.7376 32.5612 26.6957 32.5192C26.6563 32.4773 26.6367 32.4261 26.6367 32.3658C26.6367 32.3055 26.6563 32.2557 26.6957 32.2164C26.7376 32.1744 26.7875 32.1534 26.8452 32.1534C26.9028 32.1534 26.9527 32.1744 26.9946 32.2164C27.0366 32.2557 27.0576 32.3055 27.0576 32.3658C27.0576 32.4261 27.0366 32.4773 26.9946 32.5192C26.9527 32.5612 26.9028 32.5822 26.8452 32.5822ZM29.082 31.1189C29.2551 31.1766 29.3875 31.2631 29.4793 31.3785C29.5737 31.4939 29.6209 31.6329 29.6209 31.7955C29.6209 31.9554 29.5777 32.0957 29.4911 32.2164C29.4046 32.3344 29.28 32.4261 29.1174 32.4917C28.9575 32.5546 28.7687 32.5861 28.551 32.5861C28.2206 32.5861 27.961 32.5153 27.7722 32.3737C27.5834 32.2321 27.489 32.0393 27.489 31.7955C27.489 31.6303 27.5336 31.4913 27.6227 31.3785C27.7145 31.2631 27.8469 31.1766 28.02 31.1189C27.8784 31.0638 27.7709 30.9852 27.6975 30.8829C27.624 30.778 27.5873 30.6548 27.5873 30.5132C27.5873 30.2903 27.6739 30.1133 27.8469 29.9821C28.0226 29.851 28.2573 29.7855 28.551 29.7855C28.7451 29.7855 28.9142 29.8156 29.0584 29.8759C29.2053 29.9336 29.3194 30.0175 29.4007 30.1277C29.4819 30.2378 29.5226 30.3663 29.5226 30.5132C29.5226 30.6548 29.4846 30.778 29.4085 30.8829C29.3325 30.9852 29.2237 31.0638 29.082 31.1189ZM27.8705 30.521C27.8705 30.6731 27.9308 30.7937 28.0515 30.8829C28.1721 30.9721 28.3386 31.0166 28.551 31.0166C28.7634 31.0166 28.93 30.9721 29.0506 30.8829C29.1738 30.7937 29.2355 30.6744 29.2355 30.525C29.2355 30.3702 29.1725 30.2483 29.0466 30.1591C28.9234 30.07 28.7582 30.0254 28.551 30.0254C28.3412 30.0254 28.1747 30.07 28.0515 30.1591C27.9308 30.2483 27.8705 30.3689 27.8705 30.521ZM28.551 32.3462C28.7949 32.3462 28.985 32.2963 29.1214 32.1967C29.2604 32.097 29.3299 31.962 29.3299 31.7915C29.3299 31.6211 29.2604 31.4873 29.1214 31.3903C28.985 31.2907 28.7949 31.2408 28.551 31.2408C28.3098 31.2408 28.1197 31.2907 27.9807 31.3903C27.8443 31.4873 27.7761 31.6211 27.7761 31.7915C27.7761 31.9646 27.8443 32.101 27.9807 32.2006C28.117 32.2976 28.3071 32.3462 28.551 32.3462ZM32.3535 31.8387H31.8028V32.5625H31.5196V31.8387H29.9659V31.6342L31.4252 29.8091H31.7399L30.3317 31.587H31.5275V30.9498H31.8028V31.587H32.3535V31.8387Z" fill="#20201F"/>
<path d="M42.001 25.025H40.9153V26.6377H40.3056V24.5215H42.001V25.025ZM43.229 26.6692C43.0061 26.6692 42.8055 26.6233 42.6272 26.5315C42.4515 26.4371 42.3138 26.3073 42.2142 26.1421C42.1146 25.9769 42.0647 25.7894 42.0647 25.5796C42.0647 25.3698 42.1146 25.1823 42.2142 25.0171C42.3138 24.8519 42.4515 24.7234 42.6272 24.6316C42.8055 24.5372 43.0061 24.49 43.229 24.49C43.4519 24.49 43.6512 24.5372 43.8269 24.6316C44.0026 24.7234 44.1403 24.8519 44.2399 25.0171C44.3396 25.1823 44.3894 25.3698 44.3894 25.5796C44.3894 25.7894 44.3396 25.9769 44.2399 26.1421C44.1403 26.3073 44.0026 26.4371 43.8269 26.5315C43.6512 26.6233 43.4519 26.6692 43.229 26.6692ZM43.229 26.1657C43.3864 26.1657 43.5149 26.1132 43.6145 26.0083C43.7168 25.9008 43.7679 25.7579 43.7679 25.5796C43.7679 25.4013 43.7168 25.2597 43.6145 25.1548C43.5149 25.0473 43.3864 24.9935 43.229 24.9935C43.0717 24.9935 42.9419 25.0473 42.8396 25.1548C42.7374 25.2597 42.6862 25.4013 42.6862 25.5796C42.6862 25.7579 42.7374 25.9008 42.8396 26.0083C42.9419 26.1132 43.0717 26.1657 43.229 26.1657ZM45.8184 26.6692C45.5929 26.6692 45.3897 26.6233 45.2087 26.5315C45.0304 26.4371 44.8901 26.3073 44.7879 26.1421C44.6882 25.9769 44.6384 25.7894 44.6384 25.5796C44.6384 25.3698 44.6882 25.1823 44.7879 25.0171C44.8901 24.8519 45.0304 24.7234 45.2087 24.6316C45.3897 24.5372 45.5929 24.49 45.8184 24.49C46.0413 24.49 46.2354 24.5372 46.4006 24.6316C46.5684 24.7234 46.6904 24.8558 46.7664 25.0289L46.2905 25.2846C46.1803 25.0905 46.0217 24.9935 45.8145 24.9935C45.6545 24.9935 45.5221 25.0459 45.4172 25.1508C45.3123 25.2557 45.2599 25.3986 45.2599 25.5796C45.2599 25.7605 45.3123 25.9034 45.4172 26.0083C45.5221 26.1132 45.6545 26.1657 45.8145 26.1657C46.0243 26.1657 46.1829 26.0687 46.2905 25.8746L46.7664 26.1342C46.6904 26.302 46.5684 26.4332 46.4006 26.5276C46.2354 26.622 46.0413 26.6692 45.8184 26.6692ZM48.9095 25.025H48.1936V26.6377H47.584V25.025H46.8681V24.5215H48.9095V25.025ZM49.2366 24.5215H49.8463V25.7802L50.8769 24.5215H51.4394V26.6377H50.8297V25.379L49.8031 26.6377H49.2366V24.5215ZM52.0293 24.5215H52.6389V25.3475H53.5594V24.5215H54.173V26.6377H53.5594V25.8471H52.6389V26.6377H52.0293V24.5215ZM55.5825 24.49C55.9103 24.49 56.162 24.5687 56.3377 24.726C56.5134 24.8807 56.6013 25.1154 56.6013 25.4301V26.6377H56.027V26.3742C55.9116 26.5708 55.6966 26.6692 55.3819 26.6692C55.2193 26.6692 55.0777 26.6416 54.9571 26.5866C54.8391 26.5315 54.7486 26.4554 54.6857 26.3584C54.6227 26.2614 54.5913 26.1513 54.5913 26.028C54.5913 25.8313 54.6647 25.6766 54.8115 25.5639C54.961 25.4511 55.1905 25.3947 55.4999 25.3947H55.9877C55.9877 25.261 55.947 25.1587 55.8657 25.0879C55.7844 25.0145 55.6625 24.9778 55.4999 24.9778C55.3871 24.9778 55.2757 24.9961 55.1656 25.0328C55.058 25.0669 54.9663 25.1141 54.8902 25.1744L54.6699 24.7457C54.7853 24.6644 54.923 24.6015 55.083 24.5569C55.2455 24.5123 55.4121 24.49 55.5825 24.49ZM55.5353 26.2561C55.6402 26.2561 55.7333 26.2325 55.8146 26.1853C55.8959 26.1355 55.9536 26.0634 55.9877 25.969V25.7527H55.5668C55.315 25.7527 55.1892 25.8353 55.1892 26.0005C55.1892 26.0791 55.2193 26.1421 55.2796 26.1893C55.3426 26.2339 55.4278 26.2561 55.5353 26.2561ZM59.0145 24.5215V26.6377H58.4678V26.0319H58.0154L57.6142 26.6377H56.9613L57.4451 25.9454C57.2982 25.8877 57.1855 25.8051 57.1068 25.6976C57.0308 25.5875 56.9927 25.455 56.9927 25.3003C56.9927 25.0512 57.0819 24.8598 57.2602 24.726C57.4411 24.5897 57.689 24.5215 58.0036 24.5215H59.0145ZM58.0154 25.021C57.8843 25.021 57.7847 25.0446 57.7165 25.0918C57.6509 25.139 57.6182 25.2151 57.6182 25.32C57.6182 25.4249 57.6496 25.5022 57.7126 25.5521C57.7781 25.5993 57.8764 25.6229 58.0076 25.6229H58.4678V25.021H58.0154Z" fill="#20201F"/>
<path d="M45.9065 29.4946V32.248H45.2693V30.006H44.7186V29.4946H45.9065ZM48.2689 30.8005C48.4053 30.8687 48.5089 30.9579 48.5797 31.068C48.6531 31.1781 48.6898 31.3053 48.6898 31.4495C48.6898 31.62 48.6413 31.7695 48.5443 31.898C48.4473 32.0238 48.3109 32.1222 48.1352 32.193C47.9595 32.2612 47.7563 32.2952 47.5255 32.2952C47.2947 32.2952 47.0915 32.2612 46.9158 32.193C46.7428 32.1222 46.6077 32.0238 46.5107 31.898C46.4163 31.7695 46.3691 31.62 46.3691 31.4495C46.3691 31.3053 46.4045 31.1781 46.4753 31.068C46.5487 30.9579 46.6523 30.8687 46.786 30.8005C46.6837 30.7376 46.6051 30.6589 46.55 30.5645C46.4949 30.4675 46.4674 30.3574 46.4674 30.2341C46.4674 30.0741 46.512 29.9352 46.6011 29.8172C46.6903 29.6991 46.8149 29.6087 46.9748 29.5457C47.1348 29.4802 47.3184 29.4474 47.5255 29.4474C47.7353 29.4474 47.9202 29.4802 48.0801 29.5457C48.2427 29.6087 48.3686 29.6991 48.4577 29.8172C48.5469 29.9352 48.5915 30.0741 48.5915 30.2341C48.5915 30.3574 48.564 30.4675 48.5089 30.5645C48.4538 30.6589 48.3738 30.7376 48.2689 30.8005ZM47.5255 29.9155C47.397 29.9155 47.2934 29.947 47.2148 30.0099C47.1387 30.0702 47.1007 30.1541 47.1007 30.2616C47.1007 30.3665 47.1387 30.4491 47.2148 30.5094C47.2908 30.5698 47.3944 30.5999 47.5255 30.5999C47.6566 30.5999 47.7615 30.5698 47.8402 30.5094C47.9189 30.4491 47.9582 30.3665 47.9582 30.2616C47.9582 30.1541 47.9189 30.0702 47.8402 30.0099C47.7615 29.947 47.6566 29.9155 47.5255 29.9155ZM47.5255 31.8272C47.6855 31.8272 47.8113 31.7918 47.9031 31.721C47.9975 31.6475 48.0447 31.5505 48.0447 31.4299C48.0447 31.3093 47.9975 31.2135 47.9031 31.1427C47.8113 31.0719 47.6855 31.0365 47.5255 31.0365C47.3682 31.0365 47.2436 31.0719 47.1518 31.1427C47.0601 31.2135 47.0142 31.3093 47.0142 31.4299C47.0142 31.5531 47.0601 31.6502 47.1518 31.721C47.2436 31.7918 47.3682 31.8272 47.5255 31.8272ZM49.3818 32.2795C49.2743 32.2795 49.1838 32.2428 49.1104 32.1694C49.037 32.096 49.0003 32.0042 49.0003 31.894C49.0003 31.7813 49.037 31.6908 49.1104 31.6226C49.1838 31.5518 49.2743 31.5164 49.3818 31.5164C49.4893 31.5164 49.5798 31.5518 49.6532 31.6226C49.7266 31.6908 49.7634 31.7813 49.7634 31.894C49.7634 32.0042 49.7266 32.096 49.6532 32.1694C49.5798 32.2428 49.4893 32.2795 49.3818 32.2795ZM52.145 31.7288V32.248H50.0642V31.835L51.1262 30.832C51.239 30.7245 51.3151 30.6327 51.3544 30.5566C51.3937 30.478 51.4134 30.4006 51.4134 30.3246C51.4134 30.2144 51.3754 30.1305 51.2993 30.0728C51.2259 30.0125 51.1171 29.9824 50.9728 29.9824C50.8522 29.9824 50.7434 30.006 50.6464 30.0532C50.5493 30.0977 50.468 30.1659 50.4025 30.2577L49.9383 29.9588C50.0459 29.7988 50.194 29.6742 50.3828 29.5851C50.5716 29.4933 50.788 29.4474 51.0318 29.4474C51.2364 29.4474 51.4147 29.4815 51.5668 29.5497C51.7215 29.6152 51.8408 29.7096 51.9247 29.8329C52.0113 29.9535 52.0546 30.0964 52.0546 30.2616C52.0546 30.4111 52.0231 30.5514 51.9601 30.6825C51.8972 30.8136 51.7753 30.9631 51.5943 31.1309L50.961 31.7288H52.145ZM53.352 30.5291C53.7401 30.5291 54.0259 30.6065 54.2095 30.7612C54.3957 30.9159 54.4888 31.1231 54.4888 31.3827C54.4888 31.5505 54.4468 31.7039 54.3629 31.8429C54.279 31.9793 54.1505 32.0894 53.9774 32.1733C53.807 32.2546 53.5959 32.2952 53.3441 32.2952C53.1501 32.2952 52.9586 32.2703 52.7698 32.2205C52.5836 32.1681 52.425 32.0946 52.2939 32.0002L52.5456 31.5125C52.6505 31.5912 52.7711 31.6528 52.9075 31.6974C53.0439 31.7393 53.1842 31.7603 53.3284 31.7603C53.4883 31.7603 53.6142 31.7288 53.706 31.6659C53.7978 31.603 53.8437 31.5151 53.8437 31.4023C53.8437 31.2843 53.7952 31.1952 53.6981 31.1349C53.6037 31.0746 53.4385 31.0444 53.2025 31.0444H52.4984L52.64 29.4946H54.3196V30.006H53.171L53.1278 30.5291H53.352Z" fill="#20201F"/>
<path d="M61.1369 66.8467H60.8183V67.6492H60.2047V65.533H60.8183V66.3551H61.1487L61.723 65.533H62.376L61.6365 66.5478L62.4271 67.6492H61.7033L61.1369 66.8467ZM64.7295 65.533L63.7736 67.779C63.6766 68.0229 63.556 68.1946 63.4118 68.2943C63.2702 68.3939 63.0984 68.4437 62.8965 68.4437C62.7863 68.4437 62.6775 68.4267 62.57 68.3926C62.4625 68.3585 62.3746 68.3113 62.3064 68.251L62.5307 67.8144C62.5779 67.8563 62.6316 67.8891 62.6919 67.9127C62.7549 67.9363 62.8165 67.9481 62.8768 67.9481C62.9607 67.9481 63.0289 67.9271 63.0813 67.8852C63.1338 67.8458 63.181 67.779 63.223 67.6846L63.2308 67.6649L62.3143 65.533H62.9476L63.5416 66.9687L64.1395 65.533H64.7295ZM66.2359 67.6492L65.7718 67.0001L65.2919 67.6492H64.6232L65.4374 66.5832L64.6507 65.533H65.3391L65.7875 66.1505L66.2477 65.533H66.9007L66.114 66.5675L66.9322 67.6492H66.2359ZM67.2342 65.533H67.8439V66.359H68.7644V65.533H69.378V67.6492H68.7644V66.8585H67.8439V67.6492H67.2342V65.533ZM71.8456 65.533V67.6492H71.2989V67.0434H70.8465L70.4453 67.6492H69.7923L70.2761 66.9569C70.1293 66.8992 70.0165 66.8166 69.9379 66.7091C69.8618 66.5989 69.8238 66.4665 69.8238 66.3118C69.8238 66.0627 69.913 65.8712 70.0913 65.7375C70.2722 65.6011 70.52 65.533 70.8347 65.533H71.8456ZM70.8465 66.0325C70.7154 66.0325 70.6157 66.0561 70.5476 66.1033C70.482 66.1505 70.4492 66.2266 70.4492 66.3315C70.4492 66.4363 70.4807 66.5137 70.5436 66.5635C70.6092 66.6107 70.7075 66.6343 70.8386 66.6343H71.2989V66.0325H70.8465Z" fill="#20201F"/>
<path d="M63.2257 70.5063V73.2598H62.5885V71.0177H62.0378V70.5063H63.2257ZM64.7661 70.5063V73.2598H64.1288V71.0177H63.5781V70.5063H64.7661ZM65.6063 73.2912C65.4987 73.2912 65.4083 73.2545 65.3348 73.1811C65.2614 73.1077 65.2247 73.0159 65.2247 72.9058C65.2247 72.793 65.2614 72.7025 65.3348 72.6343C65.4083 72.5635 65.4987 72.5281 65.6063 72.5281C65.7138 72.5281 65.8042 72.5635 65.8777 72.6343C65.9511 72.7025 65.9878 72.793 65.9878 72.9058C65.9878 73.0159 65.9511 73.1077 65.8777 73.1811C65.8042 73.2545 65.7138 73.2912 65.6063 73.2912ZM67.2744 70.5063V73.2598H66.6372V71.0177H66.0865V70.5063H67.2744ZM69.9083 70.5063V70.9193L68.8856 73.2598H68.1933L69.1806 71.0255H68.268V71.474H67.7016V70.5063H69.9083Z" fill="#20201F"/>
<path d="M26.1513 58.1211L25.5755 57.3625L24.9962 58.1211H24.7203L25.4375 57.1901L24.7548 56.3073H25.0306L25.5755 57.0176L26.1203 56.3073H26.3893L25.7065 57.1901L26.4306 58.1211H26.1513ZM27.5162 58.1383C27.3415 58.1383 27.184 58.0993 27.0438 58.0211C26.9036 57.9406 26.7932 57.8303 26.7128 57.6901C26.6323 57.5498 26.5921 57.3912 26.5921 57.2142C26.5921 57.0372 26.6323 56.8786 26.7128 56.7383C26.7932 56.5981 26.9036 56.4889 27.0438 56.4108C27.184 56.3326 27.3415 56.2935 27.5162 56.2935C27.6909 56.2935 27.8484 56.3326 27.9886 56.4108C28.1288 56.4889 28.238 56.5981 28.3162 56.7383C28.3967 56.8786 28.4369 57.0372 28.4369 57.2142C28.4369 57.3912 28.3967 57.5498 28.3162 57.6901C28.238 57.8303 28.1288 57.9406 27.9886 58.0211C27.8484 58.0993 27.6909 58.1383 27.5162 58.1383ZM27.5162 57.9211C27.6449 57.9211 27.7599 57.8924 27.861 57.8349C27.9645 57.7751 28.0449 57.6912 28.1024 57.5832C28.1599 57.4751 28.1886 57.3521 28.1886 57.2142C28.1886 57.0763 28.1599 56.9533 28.1024 56.8452C28.0449 56.7372 27.9645 56.6544 27.861 56.597C27.7599 56.5372 27.6449 56.5073 27.5162 56.5073C27.3875 56.5073 27.2714 56.5372 27.1679 56.597C27.0668 56.6544 26.9863 56.7372 26.9266 56.8452C26.8691 56.9533 26.8403 57.0763 26.8403 57.2142C26.8403 57.3521 26.8691 57.4751 26.9266 57.5832C26.9863 57.6912 27.0668 57.7751 27.1679 57.8349C27.2714 57.8924 27.3875 57.9211 27.5162 57.9211ZM30.4328 56.3073V58.1211H30.188V56.5245H29.319L29.2949 56.9728C29.2765 57.3498 29.2328 57.6395 29.1638 57.8418C29.0949 58.0441 28.9719 58.1452 28.7949 58.1452C28.7466 58.1452 28.688 58.136 28.619 58.1176L28.6362 57.9073C28.6776 57.9165 28.7064 57.9211 28.7225 57.9211C28.8167 57.9211 28.888 57.8774 28.9362 57.7901C28.9845 57.7027 29.0167 57.5947 29.0328 57.4659C29.0489 57.3372 29.0627 57.1671 29.0742 56.9556L29.1052 56.3073H30.4328ZM32.6115 56.3073V58.1211H32.3667V56.5245H31.4977L31.4736 56.9728C31.4552 57.3498 31.4115 57.6395 31.3426 57.8418C31.2736 58.0441 31.1506 58.1452 30.9736 58.1452C30.9253 58.1452 30.8667 58.136 30.7977 58.1176L30.815 57.9073C30.8564 57.9165 30.8851 57.9211 30.9012 57.9211C30.9955 57.9211 31.0667 57.8774 31.115 57.7901C31.1633 57.7027 31.1955 57.5947 31.2115 57.4659C31.2276 57.3372 31.2414 57.1671 31.2529 56.9556L31.284 56.3073H32.6115Z" fill="#20201F"/>
<path d="M26.4289 62.2864C26.5876 62.2864 26.7278 62.3163 26.8496 62.376C26.9738 62.4358 27.0703 62.5209 27.1393 62.6312C27.2083 62.7392 27.2427 62.8657 27.2427 63.0105C27.2427 63.1576 27.2071 63.2875 27.1358 63.4002C27.0646 63.5128 26.9657 63.6002 26.8393 63.6622C26.7151 63.722 26.5749 63.7519 26.4186 63.7519C26.0991 63.7519 25.8542 63.6473 25.6841 63.4381C25.514 63.2266 25.4289 62.9289 25.4289 62.545C25.4289 62.276 25.4749 62.0484 25.5669 61.8622C25.6588 61.676 25.7876 61.5358 25.9531 61.4415C26.1186 61.345 26.3117 61.2967 26.5324 61.2967C26.7715 61.2967 26.9623 61.3404 27.1048 61.4278L27.0048 61.6278C26.8899 61.5519 26.7335 61.514 26.5358 61.514C26.2692 61.514 26.06 61.599 25.9083 61.7691C25.7565 61.9369 25.6807 62.1818 25.6807 62.5036C25.6807 62.5611 25.6841 62.6266 25.691 62.7002C25.7508 62.5691 25.8462 62.468 25.9772 62.3967C26.1083 62.3232 26.2588 62.2864 26.4289 62.2864ZM26.4083 63.5415C26.583 63.5415 26.7243 63.4944 26.8324 63.4002C26.9427 63.3036 26.9979 63.176 26.9979 63.0174C26.9979 62.8588 26.9427 62.7324 26.8324 62.6381C26.7243 62.5438 26.5772 62.4967 26.391 62.4967C26.2692 62.4967 26.1611 62.5197 26.0669 62.5657C25.9749 62.6117 25.9025 62.6749 25.8496 62.7553C25.7968 62.8358 25.7703 62.9255 25.7703 63.0243C25.7703 63.1163 25.7945 63.2013 25.8427 63.2795C25.8933 63.3576 25.9669 63.4209 26.0634 63.4691C26.16 63.5174 26.2749 63.5415 26.4083 63.5415ZM27.7501 63.7484C27.6995 63.7484 27.6559 63.7301 27.6191 63.6933C27.5846 63.6565 27.5674 63.6117 27.5674 63.5588C27.5674 63.5059 27.5846 63.4622 27.6191 63.4278C27.6559 63.391 27.6995 63.3726 27.7501 63.3726C27.8007 63.3726 27.8444 63.391 27.8812 63.4278C27.9179 63.4622 27.9363 63.5059 27.9363 63.5588C27.9363 63.6117 27.9179 63.6565 27.8812 63.6933C27.8444 63.7301 27.8007 63.7484 27.7501 63.7484ZM29.9766 63.5105V63.7312H28.2835V63.5553L29.2869 62.5726C29.4134 62.4484 29.4984 62.3415 29.5421 62.2519C29.5881 62.1599 29.6111 62.068 29.6111 61.976C29.6111 61.8335 29.5617 61.7232 29.4628 61.645C29.3663 61.5645 29.2272 61.5243 29.0456 61.5243C28.7628 61.5243 28.5433 61.614 28.3869 61.7933L28.2111 61.6415C28.3053 61.5312 28.4249 61.4461 28.5697 61.3864C28.7168 61.3266 28.8823 61.2967 29.0663 61.2967C29.3122 61.2967 29.5065 61.3553 29.649 61.4726C29.7938 61.5875 29.8663 61.7461 29.8663 61.9484C29.8663 62.0726 29.8387 62.1921 29.7835 62.3071C29.7283 62.422 29.6237 62.5542 29.4697 62.7036L28.649 63.5105H29.9766ZM31.2368 63.7519C31.0506 63.7519 30.8839 63.7025 30.7368 63.6036C30.592 63.5048 30.4782 63.3634 30.3954 63.1795C30.3149 62.9933 30.2747 62.7749 30.2747 62.5243C30.2747 62.2737 30.3149 62.0565 30.3954 61.8726C30.4782 61.6864 30.592 61.5438 30.7368 61.445C30.8839 61.3461 31.0506 61.2967 31.2368 61.2967C31.423 61.2967 31.5885 61.3461 31.7333 61.445C31.8805 61.5438 31.9954 61.6864 32.0782 61.8726C32.1609 62.0565 32.2023 62.2737 32.2023 62.5243C32.2023 62.7749 32.1609 62.9933 32.0782 63.1795C31.9954 63.3634 31.8805 63.5048 31.7333 63.6036C31.5885 63.7025 31.423 63.7519 31.2368 63.7519ZM31.2368 63.5243C31.377 63.5243 31.5 63.4852 31.6057 63.4071C31.7138 63.3289 31.7977 63.2151 31.8575 63.0657C31.9172 62.9163 31.9471 62.7358 31.9471 62.5243C31.9471 62.3128 31.9172 62.1324 31.8575 61.9829C31.7977 61.8335 31.7138 61.7197 31.6057 61.6415C31.5 61.5634 31.377 61.5243 31.2368 61.5243C31.0965 61.5243 30.9724 61.5634 30.8644 61.6415C30.7586 61.7197 30.6759 61.8335 30.6161 61.9829C30.5563 62.1324 30.5264 62.3128 30.5264 62.5243C30.5264 62.7358 30.5563 62.9163 30.6161 63.0657C30.6759 63.2151 30.7586 63.3289 30.8644 63.4071C30.9724 63.4852 31.0965 63.5243 31.2368 63.5243Z" fill="#20201F"/>
<path d="M80.6906 8.92885V10.7427H80.4457V9.1461H79.5767L79.5526 9.59438C79.5342 9.9714 79.4905 10.2611 79.4216 10.4634C79.3526 10.6657 79.2296 10.7668 79.0526 10.7668C79.0043 10.7668 78.9457 10.7576 78.8767 10.7392L78.894 10.5289C78.9354 10.5381 78.9641 10.5427 78.9802 10.5427C79.0744 10.5427 79.1457 10.499 79.194 10.4116C79.2423 10.3243 79.2744 10.2162 79.2905 10.0875C79.3066 9.95876 79.3204 9.78864 79.3319 9.57714L79.363 8.92885H80.6906ZM82.1348 10.7599C81.9601 10.7599 81.8027 10.7208 81.6624 10.6427C81.5222 10.5622 81.4118 10.4519 81.3314 10.3116C81.2509 10.1714 81.2107 10.0128 81.2107 9.83576C81.2107 9.65875 81.2509 9.50013 81.3314 9.3599C81.4118 9.21966 81.5222 9.11047 81.6624 9.0323C81.8027 8.95414 81.9601 8.91506 82.1348 8.91506C82.3096 8.91506 82.467 8.95414 82.6073 9.0323C82.7475 9.11047 82.8567 9.21966 82.9349 9.3599C83.0153 9.50013 83.0555 9.65875 83.0555 9.83576C83.0555 10.0128 83.0153 10.1714 82.9349 10.3116C82.8567 10.4519 82.7475 10.5622 82.6073 10.6427C82.467 10.7208 82.3096 10.7599 82.1348 10.7599ZM82.1348 10.5427C82.2636 10.5427 82.3785 10.5139 82.4797 10.4565C82.5831 10.3967 82.6636 10.3128 82.7211 10.2047C82.7785 10.0967 82.8073 9.9737 82.8073 9.83576C82.8073 9.69783 82.7785 9.57484 82.7211 9.46679C82.6636 9.35875 82.5831 9.27599 82.4797 9.21851C82.3785 9.15874 82.2636 9.12886 82.1348 9.12886C82.0061 9.12886 81.89 9.15874 81.7866 9.21851C81.6854 9.27599 81.605 9.35875 81.5452 9.46679C81.4877 9.57484 81.459 9.69783 81.459 9.83576C81.459 9.9737 81.4877 10.0967 81.5452 10.2047C81.605 10.3128 81.6854 10.3967 81.7866 10.4565C81.89 10.5139 82.0061 10.5427 82.1348 10.5427ZM85.3377 10.5289V11.1806H85.1067V10.7427H83.4825V11.1806H83.2515V10.5289H83.3549C83.4767 10.522 83.5595 10.4323 83.6032 10.2599C83.6469 10.0875 83.6768 9.84611 83.6928 9.53576L83.717 8.92885H85.0549V10.5289H85.3377ZM83.917 9.54955C83.9055 9.80703 83.8837 10.0197 83.8515 10.1875C83.8193 10.353 83.7618 10.4668 83.6791 10.5289H84.8101V9.1461H83.9377L83.917 9.54955ZM87.4045 9.93577H87.0114V10.7427H86.7666V9.93577H86.3735L85.8183 10.7427H85.5252L86.1769 9.80818L85.5769 8.92885H85.8424L86.3735 9.72542H86.7666V8.92885H87.0114V9.72542H87.4045L87.939 8.92885H88.2045L87.6045 9.81163L88.2563 10.7427H87.9631L87.4045 9.93577ZM88.6637 8.92885H88.9086V10.3703L90.1189 8.92885H90.3362V10.7427H90.0914V9.30127L88.8844 10.7427H88.6637V8.92885ZM92.431 8.92885V10.7427H92.2068V10.1427H91.6379H91.5689L91.1482 10.7427H90.8827L91.3344 10.1082C91.1942 10.0691 91.0861 10.0024 91.0103 9.90818C90.9344 9.81393 90.8965 9.69438 90.8965 9.54955C90.8965 9.34725 90.9654 9.19323 91.1034 9.08748C91.2413 8.98173 91.4298 8.92885 91.6689 8.92885H92.431ZM91.1447 9.55645C91.1447 9.82542 91.316 9.9599 91.6585 9.9599H92.2068V9.1461H91.6758C91.3218 9.1461 91.1447 9.28288 91.1447 9.55645Z" fill="#20201F"/>
<path d="M84.813 15.7185H84.3302V16.353H84.0819V15.7185H82.7198V15.5392L83.9992 13.9392H84.275L83.0405 15.4978H84.0888V14.9392H84.3302V15.4978H84.813V15.7185ZM85.2946 16.3703C85.244 16.3703 85.2003 16.3519 85.1636 16.3151C85.1291 16.2783 85.1118 16.2335 85.1118 16.1806C85.1118 16.1277 85.1291 16.0841 85.1636 16.0496C85.2003 16.0128 85.244 15.9944 85.2946 15.9944C85.3452 15.9944 85.3888 16.0128 85.4256 16.0496C85.4624 16.0841 85.4808 16.1277 85.4808 16.1806C85.4808 16.2335 85.4624 16.2783 85.4256 16.3151C85.3888 16.3519 85.3452 16.3703 85.2946 16.3703ZM87.8471 15.7185H87.3643V16.353H87.1161V15.7185H85.754V15.5392L87.0333 13.9392H87.3092L86.0747 15.4978H87.123V14.9392H87.3643V15.4978H87.8471V15.7185ZM88.6566 13.9392V16.353H88.4083V14.1599H87.8393V13.9392H88.6566Z" fill="#20201F"/>
<path d="M35.3699 77.466C35.7194 77.466 35.9734 77.5292 36.132 77.6557C36.2929 77.7798 36.3734 77.9545 36.3734 78.1798C36.3734 78.32 36.3401 78.4453 36.2734 78.5557C36.209 78.666 36.1113 78.7534 35.9803 78.8177C35.8493 78.8798 35.6883 78.9108 35.4975 78.9108C35.3251 78.9108 35.1607 78.8832 35.0044 78.8281C34.8504 78.7706 34.7263 78.6947 34.632 78.6005L34.7527 78.4039C34.8332 78.4867 34.9389 78.5545 35.0699 78.6074C35.201 78.658 35.3424 78.6832 35.4941 78.6832C35.6941 78.6832 35.8481 78.6384 35.9562 78.5488C36.0665 78.4591 36.1217 78.3396 36.1217 78.1901C36.1217 78.0246 36.0596 77.8993 35.9355 77.8143C35.8136 77.7292 35.6067 77.6867 35.3148 77.6867H34.801L34.9251 76.4763H36.2458V76.697H35.1424L35.0596 77.466H35.3699ZM36.8748 78.9074C36.8242 78.9074 36.7805 78.889 36.7438 78.8522C36.7093 78.8154 36.692 78.7706 36.692 78.7177C36.692 78.6648 36.7093 78.6212 36.7438 78.5867C36.7805 78.5499 36.8242 78.5315 36.8748 78.5315C36.9254 78.5315 36.969 78.5499 37.0058 78.5867C37.0426 78.6212 37.061 78.6648 37.061 78.7177C37.061 78.7706 37.0426 78.8154 37.0058 78.8522C36.969 78.889 36.9254 78.9074 36.8748 78.9074ZM38.3443 78.9108C38.1581 78.9108 37.9915 78.8614 37.8444 78.7626C37.6995 78.6637 37.5857 78.5223 37.503 78.3384C37.4225 78.1522 37.3823 77.9338 37.3823 77.6832C37.3823 77.4327 37.4225 77.2154 37.503 77.0315C37.5857 76.8453 37.6995 76.7028 37.8444 76.6039C37.9915 76.5051 38.1581 76.4557 38.3443 76.4557C38.5306 76.4557 38.6961 76.5051 38.8409 76.6039C38.988 76.7028 39.103 76.8453 39.1857 77.0315C39.2685 77.2154 39.3099 77.4327 39.3099 77.6832C39.3099 77.9338 39.2685 78.1522 39.1857 78.3384C39.103 78.5223 38.988 78.6637 38.8409 78.7626C38.6961 78.8614 38.5306 78.9108 38.3443 78.9108ZM38.3443 78.6832C38.4846 78.6832 38.6076 78.6442 38.7133 78.566C38.8214 78.4878 38.9053 78.374 38.965 78.2246C39.0248 78.0752 39.0547 77.8947 39.0547 77.6832C39.0547 77.4717 39.0248 77.2913 38.965 77.1419C38.9053 76.9924 38.8214 76.8786 38.7133 76.8005C38.6076 76.7223 38.4846 76.6832 38.3443 76.6832C38.2041 76.6832 38.08 76.7223 37.9719 76.8005C37.8662 76.8786 37.7834 76.9924 37.7237 77.1419C37.6639 77.2913 37.634 77.4717 37.634 77.6832C37.634 77.8947 37.6639 78.0752 37.7237 78.2246C37.7834 78.374 37.8662 78.4878 37.9719 78.566C38.08 78.6442 38.2041 78.6832 38.3443 78.6832ZM40.3276 76.4763V78.8901H40.0794V76.697H39.5104V76.4763H40.3276Z" fill="#20201F"/>
</g>
<defs>
<clipPath id="clip0_2561_22668">
<rect width="90.7478" height="91.6084" fill="white" transform="translate(4.78882 4.2146)"/>
</clipPath>
</defs>
</svg>
