<svg width="96" height="100" viewBox="0 0 96 100" fill="none" xmlns="http://www.w3.org/2000/svg">
<rect width="95.4545" height="99.9999" transform="translate(0.443848)" fill="white"/>
<g clip-path="url(#clip0_2561_22562)">
<path fill-rule="evenodd" clip-rule="evenodd" d="M45.8235 3.45459H90.7923V79.2387H73.0484V96.5511H53.5586V94.9184H5.53479V17.0655H45.8235V3.45459Z" fill="#FFE900"/>
<path d="M90.7923 3.45483H88.071V79.2389H90.7923V3.45483Z" fill="#ED9FA6"/>
<path fill-rule="evenodd" clip-rule="evenodd" d="M45.8235 3.45459H90.7923V79.2387H73.0484V96.5511H53.5586V94.9184H5.53479V17.0655H45.8235V3.45459Z" fill="#FFF9D0"/>
<path d="M90.7923 3.45483H88.071V79.2389H90.7923V3.45483Z" fill="#FFF9D0"/>
<path d="M90.7923 73.6865H88.071V76.4186H90.7923V73.6865Z" fill="#20201F"/>
<path d="M55.8396 60.6196H49.3024V67.1522H55.8396V60.6196Z" fill="#20201F"/>
<path d="M55.8395 92.197H53.1183V94.9183H55.8395V92.197Z" fill="#20201F"/>
<path d="M90.7923 3.45483H88.071V73.6866H90.7923V3.45483Z" fill="#20201F"/>
<path d="M48.5449 3.45483H45.8236V19.7886H48.5449V3.45483Z" fill="#20201F"/>
<path d="M8.25759 17.0654H5.53479V64.2127H8.25759V17.0654Z" fill="#20201F"/>
<path d="M16.4229 61.49H5.53479V64.2128H16.4229V61.49Z" fill="#20201F"/>
<path d="M16.423 61.49H13.7018V94.9183H16.423V61.49Z" fill="#20201F"/>
<path d="M53.1183 92.1973H5.53479V94.9185H53.1183V92.1973Z" fill="#20201F"/>
<path d="M57.2558 81.7434H53.1183V96.5511H57.2558V81.7434Z" fill="#20201F"/>
<path d="M57.2558 64.7571H53.1183V67.5881H57.2558V64.7571Z" fill="#20201F"/>
<path d="M60.0869 60.6196H55.8396V64.7572H60.0869V60.6196Z" fill="#20201F"/>
<path d="M88.0709 60.6196H82.9531V64.7572H88.0709V60.6196Z" fill="#20201F"/>
<path d="M90.7923 73.6865H86.981V77.8241H90.7923V73.6865Z" fill="#20201F"/>
<path d="M33.0892 17.0654H8.25757V19.7882H33.0892V17.0654Z" fill="#20201F"/>
<path d="M45.8234 17.0654H43.9773V19.7882H45.8234V17.0654Z" fill="#20201F"/>
<path d="M88.0711 3.45459H48.5448V6.17739H88.0711V3.45459Z" fill="#20201F"/>
<path d="M90.7921 77.824H86.9808V79.2387H90.7921V77.824Z" fill="#20201F"/>
<path d="M86.5465 66.2197H85.24V79.2386H86.5465V66.2197Z" fill="#20201F"/>
<path d="M88.071 64.7571H82.2992V66.2198H88.071V64.7571Z" fill="#20201F"/>
<path d="M60.7395 64.7581H57.256V66.1743H60.7395V64.7581Z" fill="#20201F"/>
<path d="M58.6706 66.1733H57.2559V67.5881H58.6706V66.1733Z" fill="#20201F"/>
<path d="M58.6706 81.7434H57.2559V96.5511H58.6706V81.7434Z" fill="#20201F"/>
<path d="M88.448 65.3491H86.2747V79.2383H88.448V65.3491Z" fill="#20201F"/>
<path fill-rule="evenodd" clip-rule="evenodd" d="M58.6707 95.2443H71.742V79.2384V77.9319H73.0485H85.24V79.2384H73.0485V95.2443V96.5508H71.742H58.6707V95.2443Z" fill="#20201F"/>
<path d="M49.3024 60.6196H39.3929V61.4901H49.3024V60.6196Z" fill="#20201F"/>
<path d="M41.6334 39.3999H40.7629V60.6195H41.6334V39.3999Z" fill="#20201F"/>
<path d="M48.5448 39.3999H40.7629V40.2704H48.5448V39.3999Z" fill="#20201F"/>
<path d="M48.5447 34.8635H47.6742V40.2705H48.5447V34.8635Z" fill="#20201F"/>
<path d="M29.3612 31.3103H28.4907V41.3867H29.3612V31.3103Z" fill="#20201F"/>
<path d="M28.4909 31.8032H8.25769V32.6753H28.4909V31.8032Z" fill="#20201F"/>
<path d="M29.3612 51.186H28.4907V61.4226H29.3612V51.186Z" fill="#20201F"/>
<path d="M29.5931 60.6196H28.4907V61.423H29.5931V60.6196Z" fill="#20201F"/>
<path d="M29.5933 60.6196H8.25769V61.4901H29.5933V60.6196Z" fill="#20201F"/>
<path d="M6.8413 64.2126H5.53479V92.1969H6.8413V64.2126Z" fill="#20201F"/>
<path d="M48.5447 19.7883H47.6742V25.0639H48.5447V19.7883Z" fill="#20201F"/>
<path d="M82.3008 65.4727H60.7395V66.1731H82.3008V65.4727Z" fill="#20201F"/>
<path d="M82.9534 64.0613H60.0869V64.7616H82.9534V64.0613Z" fill="#20201F"/>
<path d="M82.9534 60.624H60.0869V61.3243H82.9534V60.624Z" fill="#20201F"/>
<path d="M58.6677 76.2993H57.9673V81.7435H58.6677V76.2993Z" fill="#20201F"/>
<path d="M57.2558 76.2991H56.5555V81.7434H57.2558V76.2991Z" fill="#20201F"/>
<path d="M53.8185 76.2993H53.1183V81.7437H53.8185V76.2993Z" fill="#20201F"/>
<path d="M58.6715 76.2993H53.1183V76.8133H58.6715V76.2993Z" fill="#20201F"/>
<path fill-rule="evenodd" clip-rule="evenodd" d="M42.958 17.7702C42.958 17.5995 43.0966 17.4609 43.2672 17.4609C43.438 17.4609 43.5765 17.5995 43.5765 17.7702V24.3149C43.5765 24.4857 43.438 24.6242 43.2672 24.6242C43.0966 24.6242 42.958 24.4857 42.958 24.3149V17.7702Z" fill="#20201F"/>
<path fill-rule="evenodd" clip-rule="evenodd" d="M33.598 17.7081C33.598 17.6227 33.6673 17.5535 33.7526 17.5535C33.838 17.5535 33.9072 17.6227 33.9072 17.7081C33.9072 19.4829 34.8218 21.0922 36.2998 22.2589C37.7881 23.4335 39.847 24.1604 42.1228 24.1604C42.2082 24.1604 42.2774 24.2297 42.2774 24.315C42.2774 24.4004 42.2082 24.4696 42.1228 24.4696C39.777 24.4696 37.6504 23.717 36.109 22.5004C34.558 21.276 33.598 19.5817 33.598 17.7081Z" fill="#20201F"/>
<path fill-rule="evenodd" clip-rule="evenodd" d="M48.1911 25.9688C48.0204 25.9688 47.8818 25.8303 47.8818 25.6596C47.8818 25.4889 48.0204 25.3503 48.1911 25.3503H54.7358C54.9065 25.3503 55.0451 25.4889 55.0451 25.6596C55.0451 25.8303 54.9065 25.9688 54.7358 25.9688H48.1911Z" fill="#20201F"/>
<path fill-rule="evenodd" clip-rule="evenodd" d="M48.1289 34.4958C48.0435 34.4958 47.9742 34.4265 47.9742 34.3412C47.9742 34.2558 48.0435 34.1866 48.1289 34.1866C49.9064 34.1866 51.517 33.3521 52.6837 32.0034C53.8559 30.6484 54.5812 28.7745 54.5812 26.7042C54.5812 26.6188 54.6505 26.5496 54.7358 26.5496C54.8211 26.5496 54.8904 26.6188 54.8904 26.7042C54.8904 28.8503 54.136 30.7956 52.9169 32.205C51.6928 33.62 49.9999 34.4958 48.1289 34.4958Z" fill="#20201F"/>
<path fill-rule="evenodd" clip-rule="evenodd" d="M29.0243 50.9891C28.8536 50.9891 28.7151 50.8505 28.7151 50.6798C28.7151 50.5091 28.8536 50.3706 29.0243 50.3706H35.5691C35.7398 50.3706 35.8783 50.5091 35.8783 50.6798C35.8783 50.8505 35.7398 50.9891 35.5691 50.9891H29.0243Z" fill="#20201F"/>
<path fill-rule="evenodd" clip-rule="evenodd" d="M28.9622 42.1532C28.8769 42.1532 28.8076 42.084 28.8076 41.9986C28.8076 41.9133 28.8769 41.844 28.9622 41.844C30.8333 41.844 32.5262 42.7197 33.7503 44.1348C34.9694 45.5441 35.7238 47.4895 35.7238 49.6356C35.7238 49.721 35.6545 49.7902 35.5692 49.7902C35.4838 49.7902 35.4146 49.721 35.4146 49.6356C35.4146 47.5653 34.6892 45.6913 33.5171 44.3364C32.3504 42.9877 30.7397 42.1532 28.9622 42.1532Z" fill="#20201F"/>
<path fill-rule="evenodd" clip-rule="evenodd" d="M39.0851 60.9373C39.0851 61.108 38.9466 61.2465 38.7759 61.2465C38.6052 61.2465 38.4667 61.108 38.4667 60.9373V54.3925C38.4667 54.2218 38.6052 54.0833 38.7759 54.0833C38.9466 54.0833 39.0851 54.2218 39.0851 54.3925V60.9373Z" fill="#20201F"/>
<path fill-rule="evenodd" clip-rule="evenodd" d="M30.2491 60.9994C30.2491 61.0847 30.1798 61.154 30.0944 61.154C30.0091 61.154 29.9398 61.0847 29.9398 60.9994C29.9398 59.1283 30.8156 57.4354 32.2306 56.2113C33.64 54.9922 35.5855 54.2378 37.7316 54.2378C37.8169 54.2378 37.8862 54.3071 37.8862 54.3924C37.8862 54.4778 37.8169 54.547 37.7316 54.547C35.6613 54.547 33.7872 55.2723 32.4323 56.4445C31.0835 57.6112 30.2491 59.2219 30.2491 60.9994Z" fill="#20201F"/>
<path fill-rule="evenodd" clip-rule="evenodd" d="M56.8001 68.1287C56.9707 68.1287 57.1093 68.2672 57.1093 68.4379C57.1093 68.6086 56.9707 68.7471 56.8001 68.7471H50.2553C50.0846 68.7471 49.946 68.6086 49.946 68.4379C49.946 68.2672 50.0846 68.1287 50.2553 68.1287H56.8001Z" fill="#20201F"/>
<path fill-rule="evenodd" clip-rule="evenodd" d="M56.862 75.4967C56.9473 75.4967 57.0166 75.5659 57.0166 75.6513C57.0166 75.7366 56.9473 75.8059 56.862 75.8059C54.9965 75.8059 53.3072 75.0787 52.0837 73.9037C50.8585 72.7269 50.1006 71.1009 50.1006 69.3055C50.1006 69.2202 50.1698 69.1509 50.2552 69.1509C50.3406 69.1509 50.4098 69.2202 50.4098 69.3055C50.4098 71.0139 51.1313 72.5613 52.2974 73.6813C53.465 74.8027 55.0788 75.4967 56.862 75.4967Z" fill="#20201F"/>
<path fill-rule="evenodd" clip-rule="evenodd" d="M23.4327 86.9683V70.5403H16.8615V87.1616H23.4327V86.9683ZM22.6557 75.6819C22.6557 75.8627 22.5818 76.0275 22.4621 76.1464C22.3431 76.2651 22.1789 76.3392 21.9986 76.3392H18.2878C18.1075 76.3392 17.9433 76.2651 17.8235 76.1464C17.7046 76.0275 17.6307 75.8627 17.6307 75.6819V71.9711C17.6307 71.7908 17.7047 71.6265 17.8235 71.507C17.9424 71.388 18.1069 71.3141 18.2878 71.3141H21.9986C22.1795 71.3141 22.344 71.388 22.4624 71.5074C22.5817 71.6265 22.6557 71.7908 22.6557 71.9711V75.6819ZM22.3486 85.0574C22.3486 85.3076 22.2468 85.5349 22.0824 85.6995C21.918 85.8639 21.6908 85.9658 21.4403 85.9658C21.1903 85.9658 20.9631 85.8639 20.7982 85.6991C20.6338 85.5346 20.5319 85.3074 20.5319 85.0574C20.5319 84.8069 20.6338 84.5797 20.7985 84.4156C20.9628 84.2509 21.1901 84.1491 21.4403 84.1491C21.6908 84.1491 21.918 84.2509 22.0824 84.4153C22.2468 84.5797 22.3486 84.8069 22.3486 85.0574ZM19.9553 85.0574C19.9553 85.3614 19.8318 85.6369 19.6325 85.8362C19.4332 86.0355 19.1575 86.1591 18.8537 86.1591C18.5497 86.1591 18.2742 86.0355 18.0749 85.8362C17.8756 85.6369 17.7521 85.3614 17.7521 85.0574C17.7521 84.7536 17.8756 84.4779 18.0749 84.2786C18.2742 84.0793 18.5497 83.9558 18.8537 83.9558C19.1575 83.9558 19.4332 84.0793 19.6325 84.2786C19.8318 84.4779 19.9553 84.7536 19.9553 85.0574ZM19.4414 84.4697C19.5915 84.6199 19.6848 84.828 19.6848 85.0574C19.6848 85.287 19.5915 85.495 19.4414 85.6451C19.2913 85.7952 19.0831 85.8885 18.8537 85.8885C18.6241 85.8885 18.4161 85.7952 18.266 85.6451C18.1159 85.495 18.0226 85.287 18.0226 85.0574C18.0226 84.828 18.1159 84.6199 18.266 84.4697C18.4161 84.3196 18.6241 84.2264 18.8537 84.2264C19.0831 84.2264 19.2913 84.3196 19.4414 84.4697ZM22.5419 82.6947C22.5419 82.9987 22.4184 83.2742 22.2191 83.4735C22.0198 83.6728 21.7443 83.7964 21.4403 83.7964C21.1363 83.7964 20.8606 83.673 20.6613 83.4737C20.462 83.2744 20.3386 82.9987 20.3386 82.6947C20.3386 82.3907 20.4622 82.1152 20.6615 81.9159C20.8608 81.7166 21.1363 81.5931 21.4403 81.5931C21.7441 81.5931 22.0198 81.7166 22.2191 81.9159C22.4184 82.1152 22.5419 82.3909 22.5419 82.6947ZM22.028 82.107C22.1781 82.2572 22.2713 82.4653 22.2713 82.6947C22.2713 82.9243 22.1781 83.1323 22.028 83.2824C21.8778 83.4326 21.6699 83.5258 21.4403 83.5258C21.2107 83.5258 21.0026 83.4327 20.8524 83.2826C20.7023 83.1324 20.6092 82.9243 20.6092 82.6947C20.6092 82.4651 20.7024 82.2572 20.8526 82.107C21.0027 81.9569 21.2107 81.8637 21.4403 81.8637C21.6697 81.8637 21.8778 81.9569 22.028 82.107ZM19.7621 82.6947C19.7621 82.9449 19.6602 83.1722 19.4958 83.3369C19.3315 83.5012 19.1042 83.6031 18.8537 83.6031C18.6037 83.6031 18.3765 83.5012 18.2116 83.3364C18.0472 83.1719 17.9453 82.9447 17.9453 82.6947C17.9453 82.4442 18.0472 82.217 18.2119 82.0529C18.3762 81.8882 18.6035 81.7863 18.8537 81.7863C19.1042 81.7863 19.3315 81.8882 19.4958 82.0526C19.6602 82.217 19.7621 82.4442 19.7621 82.6947ZM19.3047 82.2437C19.4199 82.3589 19.4915 82.5186 19.4915 82.6947C19.4915 82.8713 19.4202 83.0309 19.3052 83.1457C19.1895 83.2609 19.0298 83.3325 18.8537 83.3325C18.6771 83.3325 18.5176 83.2612 18.4027 83.1462C18.2872 83.0309 18.2159 82.8713 18.2159 82.6947C18.2159 82.5186 18.2875 82.3589 18.4027 82.2437C18.5176 82.1282 18.6771 82.0569 18.8537 82.0569C19.0298 82.0569 19.1895 82.1285 19.3047 82.2437ZM21.8913 84.6064C22.0065 84.7216 22.0781 84.8813 22.0781 85.0574C22.0781 85.234 22.0068 85.3936 21.8918 85.5084C21.7761 85.6236 21.6164 85.6952 21.4403 85.6952C21.2637 85.6952 21.1041 85.6239 20.9893 85.5089C20.8738 85.3936 20.8025 85.234 20.8025 85.0574C20.8025 84.8813 20.8741 84.7216 20.9893 84.6064C21.1041 84.4909 21.2637 84.4196 21.4403 84.4196C21.6164 84.4196 21.7761 84.4912 21.8913 84.6064ZM22.2692 71.9711V75.6819C22.2692 75.7561 22.2386 75.824 22.1896 75.873C22.141 75.9222 22.0731 75.9527 21.9986 75.9527H18.2878C18.2133 75.9527 18.1454 75.9222 18.0965 75.8733C18.0478 75.824 18.0172 75.7561 18.0172 75.6819V71.9711C18.0172 71.8966 18.0475 71.8289 18.0961 71.7803C18.1459 71.7313 18.2139 71.7007 18.2878 71.7007H21.9986C22.0725 71.7007 22.1405 71.7313 22.1896 71.7803C22.2389 71.8289 22.2692 71.8966 22.2692 71.9711ZM17.248 80.9833H23.0461V86.7751H17.248V80.9833ZM23.0461 80.5967H17.248V70.9268H23.0461V80.5967Z" fill="#20201F"/>
<path fill-rule="evenodd" clip-rule="evenodd" d="M11.8538 54.1928C11.5268 54.7013 11.3248 55.3538 11.3248 55.9275C11.3248 56.4921 11.5186 56.9328 11.8357 57.2395H11.8366C11.9568 57.3555 12.0993 57.4453 12.2504 57.5214H11.5981C11.2087 57.5214 10.9805 57.6841 10.848 57.9452C10.7271 58.1829 10.6973 58.4972 10.6973 58.8418V58.9841H10.7008C10.7089 59.2714 10.7447 59.5336 10.848 59.7379C10.9805 59.9988 11.2087 60.1607 11.5962 60.1607H14.7952C15.1844 60.1607 15.4123 59.9988 15.544 59.7379C15.6466 59.5336 15.6835 59.2714 15.6912 58.9841H15.6948V58.8418C15.6948 58.4972 15.665 58.1829 15.544 57.9452C15.4123 57.6841 15.1844 57.5214 14.7952 57.5214H14.1417C14.2927 57.4453 14.4348 57.3564 14.5553 57.2395C14.873 56.9328 15.0669 56.4921 15.0669 55.9275C15.0669 55.3212 14.8408 54.6273 14.4804 54.1069C14.1478 53.6266 13.6981 53.2896 13.196 53.2896C12.6643 53.2896 12.1909 53.6676 11.8538 54.1928ZM13.2882 59.2661V59.267H13.2877C13.173 59.267 13.0674 59.2191 12.9913 59.1432H12.9904C12.9146 59.0673 12.8676 58.9626 12.8676 58.8465C12.8676 58.7302 12.9146 58.6265 12.9904 58.5505V58.5491L12.9913 58.5493C13.0678 58.4734 13.173 58.4265 13.2877 58.4265C13.4043 58.4265 13.5096 58.4734 13.585 58.5491C13.6608 58.6251 13.7083 58.7302 13.7083 58.8465C13.7083 58.9626 13.6608 59.0663 13.585 59.1432C13.5096 59.2191 13.4043 59.2661 13.2882 59.2661ZM13.2886 59.051H13.2877C13.2311 59.051 13.1799 59.0285 13.1436 58.9927V58.9914C13.107 58.9547 13.0836 58.9028 13.0836 58.8465C13.0836 58.7891 13.1064 58.7365 13.1418 58.701L13.1433 58.7001C13.1799 58.6643 13.2311 58.6413 13.2877 58.6413C13.3463 58.6413 13.3972 58.6643 13.4337 58.7001C13.4694 58.7365 13.492 58.7891 13.492 58.8465C13.492 58.9037 13.4694 58.9558 13.432 58.9914C13.3962 59.0294 13.3446 59.0524 13.2886 59.0524V59.051ZM14.7952 57.8054C15.0578 57.8054 15.2078 57.9086 15.2914 58.072C15.3758 58.2415 15.4043 58.4765 15.4092 58.7421V58.8418C15.4092 59.1478 15.3859 59.4221 15.2914 59.6109C15.2078 59.7745 15.0575 59.8764 14.7952 59.8764H11.5962C11.3343 59.8764 11.1848 59.7745 11.1011 59.6109C11.0059 59.4221 10.9828 59.1478 10.9828 58.8418V58.7311C10.9887 58.4711 11.0167 58.2377 11.1007 58.072C11.1848 57.9072 11.3355 57.8054 11.5981 57.8054H14.7952ZM14.2477 54.2677C14.5771 54.7426 14.783 55.3755 14.783 55.9275C14.783 56.4099 14.6219 56.7809 14.3589 57.0356C14.0712 57.3144 13.6568 57.4585 13.196 57.4585C12.7345 57.4585 12.3206 57.3144 12.0321 57.0356C11.7697 56.7809 11.6089 56.4099 11.6089 55.9275C11.6089 55.4061 11.7933 54.8107 12.0922 54.3453C12.3801 53.8967 12.7722 53.5737 13.196 53.5737C13.5945 53.5737 13.9648 53.861 14.2477 54.2677Z" fill="#20201F"/>
<path fill-rule="evenodd" clip-rule="evenodd" d="M8.76354 43.4942L8.76245 47.0379C8.76245 48.223 11.2156 48.0834 11.3794 48.0712C11.9473 48.0712 12.4625 47.8396 12.8352 47.4663C13.2074 47.094 13.4381 46.5779 13.4381 46.0101V44.5063C13.4381 43.9375 13.2079 43.422 12.8352 43.0486C12.4625 42.6766 11.9463 42.4457 11.3784 42.4433C11.2119 42.4357 8.76245 42.3137 8.76354 43.4942ZM11.1531 45.2588H11.1536C11.1548 45.1342 11.2039 45.0192 11.2858 44.9371C11.3691 44.8564 11.4828 44.8066 11.6068 44.8066C11.732 44.8066 11.8458 44.8567 11.9276 44.9388C12.0097 45.0207 12.06 45.1342 12.06 45.2593C12.06 45.3836 12.0097 45.4973 11.9276 45.5792V45.5808H11.9267C11.8449 45.6627 11.732 45.7139 11.6068 45.7139C11.4828 45.7139 11.3676 45.6627 11.2858 45.5808V45.5803C11.2039 45.4983 11.1524 45.3836 11.1524 45.2593L11.1531 45.2588ZM11.3843 45.2581C11.3843 45.1989 11.4087 45.143 11.4497 45.1031C11.4887 45.0642 11.5446 45.0391 11.6068 45.0391C11.6686 45.0391 11.7248 45.0631 11.7648 45.1021C11.8033 45.1423 11.8287 45.1968 11.828 45.2593C11.828 45.3218 11.8038 45.3757 11.7648 45.4158L11.7639 45.4167C11.7248 45.4565 11.6686 45.4807 11.6068 45.4807C11.5457 45.4807 11.4897 45.4549 11.4497 45.4164L11.4492 45.4155C11.41 45.3763 11.3863 45.3205 11.3863 45.2602L11.3868 45.2581H11.3843ZM9.62709 45.2588C9.62709 44.6875 9.7973 44.1689 10.0705 43.7918C10.3563 43.4 10.7555 43.1565 11.1978 43.1562C11.6419 43.1562 12.041 43.4 12.3273 43.7918C12.6021 44.1703 12.7708 44.6892 12.7708 45.2607V45.2632C12.7694 45.8331 12.5994 46.3506 12.3256 46.7288C12.04 47.1189 11.6419 47.3619 11.2003 47.3622L11.1978 47.3619C10.7544 47.3619 10.3575 47.1189 10.0705 46.7257C9.79685 46.3495 9.62709 45.8311 9.62754 45.2602L9.62709 45.2588ZM9.94667 45.2588C9.9476 44.7582 10.0945 44.3058 10.3306 43.9786C10.5563 43.6699 10.8639 43.4777 11.1978 43.4777C11.534 43.4777 11.8415 43.6699 12.0682 43.9811C12.3033 44.3066 12.4498 44.7582 12.4498 45.2607V45.2616L12.4507 45.2632C12.4498 45.7643 12.3033 46.2148 12.0668 46.5403C11.842 46.8483 11.534 47.0403 11.2003 47.0413L11.1978 47.0403C10.8632 47.041 10.5554 46.8486 10.3306 46.5392C10.0954 46.2136 9.9476 45.7618 9.94807 45.2607V45.2588H9.94667ZM9.08345 43.4953C9.08345 42.6155 11.3608 42.7653 11.3667 42.7653L11.3784 42.7667C11.8584 42.7667 12.2925 42.9605 12.6083 43.2742C12.9229 43.5907 13.1171 44.0256 13.1171 44.5063V46.0086C13.1171 46.491 12.9238 46.9267 12.6083 47.2418C12.2941 47.5564 11.8584 47.7502 11.3784 47.7511L11.3671 47.7516C11.3614 47.7516 9.08345 47.913 9.08345 47.0369V43.4953Z" fill="#20201F"/>
<path fill-rule="evenodd" clip-rule="evenodd" d="M9.13885 41.0271H27.6095V33.4711H9.13885V41.0271ZM12.738 36.5147C12.9409 36.5147 13.1246 36.597 13.2574 36.7297C13.3902 36.8633 13.4724 37.0467 13.4724 37.2491C13.4724 37.4515 13.3902 37.6349 13.2574 37.7679C13.1239 37.9013 12.9404 37.9835 12.738 37.9835C12.5356 37.9835 12.3521 37.9013 12.2192 37.7685C12.0858 37.6357 12.0036 37.4519 12.0036 37.2491C12.0036 37.0463 12.0858 36.8625 12.2186 36.7297C12.3514 36.597 12.5352 36.5147 12.738 36.5147ZM13.0498 36.9373C13.1293 37.0167 13.1787 37.1272 13.1787 37.2491C13.1787 37.371 13.1293 37.4815 13.0498 37.5609C12.9704 37.6404 12.8599 37.6897 12.738 37.6897C12.6161 37.6897 12.5056 37.6404 12.4263 37.5608C12.3467 37.4811 12.2974 37.3707 12.2974 37.2491C12.2974 37.1275 12.3467 37.0171 12.4263 36.9374C12.5061 36.8578 12.6164 36.8085 12.738 36.8085C12.8596 36.8085 12.9699 36.8578 13.0498 36.9373ZM10.533 33.6873L23.5716 33.981C25.5298 33.981 27.1334 35.2908 27.1334 37.2491C27.1334 39.2074 25.5298 40.5172 23.5716 40.5172L10.533 40.8109C10.2803 40.8109 10.0506 40.7075 9.88446 40.5414C9.7183 40.3746 9.6149 40.1449 9.6149 39.8929V34.6053C9.6149 34.3536 9.7182 34.1241 9.88446 33.9575C10.0518 33.7905 10.2812 33.6873 10.533 33.6873ZM23.5716 34.3483C25.3292 34.3483 26.7662 35.4914 26.7662 37.2491C26.7662 39.0068 25.3292 40.1499 23.5716 40.1499L10.533 40.4437C10.3818 40.4437 10.244 40.3816 10.1434 40.2817C10.044 40.1824 9.98212 40.0446 9.98212 39.8929V34.6053C9.98212 34.4535 10.044 34.3159 10.1442 34.2157C10.2436 34.1163 10.3812 34.0545 10.533 34.0545L23.5716 34.3483ZM27.6482 41.3869H9.10008C9.00783 41.3869 8.92366 41.3503 8.8627 41.2922C8.80132 41.2341 8.76343 41.153 8.76343 41.0641V33.4341C8.76343 33.3451 8.80132 33.2641 8.86197 33.2059C8.92294 33.1476 9.00737 33.1113 9.10008 33.1113H27.6482C27.741 33.1113 27.8254 33.1476 27.8863 33.2059C27.9467 33.2648 27.9849 33.3456 27.9849 33.4341V41.0641C27.9849 41.1526 27.9469 41.2332 27.8863 41.2917C27.8245 41.3504 27.7405 41.3869 27.6482 41.3869Z" fill="#20201F"/>
<path d="M69.4827 12.7273H69.0962V31.1082H69.4827V12.7273Z" fill="#20201F"/>
<path d="M74.4739 15.6126V18.2258H74.2051V15.8515H73.5891V15.6126H74.4739ZM75.9124 15.5902C76.2584 15.5902 76.5234 15.7047 76.7076 15.9336C76.8918 16.1601 76.9839 16.4812 76.9839 16.8968C76.9839 17.188 76.9341 17.4344 76.8345 17.636C76.735 17.8376 76.5956 17.9906 76.4164 18.0952C76.2372 18.1972 76.0282 18.2482 75.7892 18.2482C75.5304 18.2482 75.3238 18.2009 75.1695 18.1064L75.2778 17.8898C75.4022 17.972 75.5715 18.013 75.7855 18.013C76.0742 18.013 76.3007 17.9222 76.465 17.7405C76.6292 17.5563 76.7113 17.29 76.7113 16.9416C76.7113 16.8769 76.7076 16.806 76.7001 16.7288C76.6354 16.8707 76.5322 16.9814 76.3903 17.0611C76.2484 17.1382 76.0854 17.1768 75.9012 17.1768C75.7295 17.1768 75.5764 17.1444 75.442 17.0797C75.3101 17.015 75.2069 16.9242 75.1322 16.8072C75.0575 16.6877 75.0202 16.5496 75.0202 16.3928C75.0202 16.2335 75.0588 16.0929 75.1359 15.971C75.2131 15.849 75.3189 15.7557 75.4532 15.691C75.5901 15.6238 75.7432 15.5902 75.9124 15.5902ZM75.9423 16.9491C76.0742 16.9491 76.1899 16.9242 76.2895 16.8744C76.3915 16.8246 76.4712 16.7562 76.5284 16.6691C76.5857 16.582 76.6143 16.4849 76.6143 16.3779C76.6143 16.2783 76.5869 16.1862 76.5322 16.1016C76.4799 16.017 76.4015 15.9486 76.297 15.8963C76.1924 15.844 76.068 15.8179 75.9236 15.8179C75.7345 15.8179 75.5802 15.8702 75.4607 15.9747C75.3437 16.0767 75.2853 16.2136 75.2853 16.3853C75.2853 16.5571 75.3437 16.694 75.4607 16.796C75.5802 16.898 75.7407 16.9491 75.9423 16.9491ZM77.535 18.2445C77.4803 18.2445 77.433 18.2246 77.3932 18.1848C77.3558 18.1449 77.3372 18.0964 77.3372 18.0392C77.3372 17.9819 77.3558 17.9346 77.3932 17.8973C77.433 17.8575 77.4803 17.8376 77.535 17.8376C77.5898 17.8376 77.6371 17.8575 77.6769 17.8973C77.7167 17.9346 77.7366 17.9819 77.7366 18.0392C77.7366 18.0964 77.7167 18.1449 77.6769 18.1848C77.6371 18.2246 77.5898 18.2445 77.535 18.2445ZM78.8115 16.684C79.1898 16.684 79.4648 16.7524 79.6365 16.8893C79.8107 17.0237 79.8978 17.2129 79.8978 17.4568C79.8978 17.6086 79.8618 17.7442 79.7896 17.8637C79.7199 17.9832 79.6141 18.0777 79.4723 18.1474C79.3304 18.2146 79.1562 18.2482 78.9496 18.2482C78.7629 18.2482 78.585 18.2184 78.4157 18.1586C78.249 18.0964 78.1146 18.0143 78.0126 17.9122L78.1432 17.6994C78.2303 17.789 78.3448 17.8625 78.4867 17.9197C78.6285 17.9745 78.7816 18.0018 78.9459 18.0018C79.1624 18.0018 79.3291 17.9533 79.4461 17.8562C79.5656 17.7592 79.6253 17.6298 79.6253 17.468C79.6253 17.2888 79.5581 17.1531 79.4237 17.0611C79.2918 16.969 79.0678 16.9229 78.7517 16.9229H78.1955L78.3299 15.6126H79.7597V15.8515H78.5651L78.4755 16.684H78.8115ZM80.9633 15.6126V18.2258H80.6945V15.8515H80.0786V15.6126H80.9633Z" fill="#20201F"/>
<path d="M75.0096 22.8639H74.487V23.5508H74.2182V22.8639H72.7436V22.6697L74.1286 20.9375H74.4273L73.0908 22.6249H74.2257V22.0202H74.487V22.6249H75.0096V22.8639ZM76.2981 23.5732C76.0965 23.5732 75.9161 23.5197 75.7568 23.4127C75.6 23.3056 75.4768 23.1526 75.3872 22.9535C75.3001 22.7519 75.2565 22.5154 75.2565 22.2441C75.2565 21.9729 75.3001 21.7377 75.3872 21.5386C75.4768 21.337 75.6 21.1827 75.7568 21.0756C75.9161 20.9686 76.0965 20.9151 76.2981 20.9151C76.4997 20.9151 76.6789 20.9686 76.8357 21.0756C76.995 21.1827 77.1194 21.337 77.209 21.5386C77.2986 21.7377 77.3434 21.9729 77.3434 22.2441C77.3434 22.5154 77.2986 22.7519 77.209 22.9535C77.1194 23.1526 76.995 23.3056 76.8357 23.4127C76.6789 23.5197 76.4997 23.5732 76.2981 23.5732ZM76.2981 23.3268C76.4499 23.3268 76.5831 23.2845 76.6976 23.1999C76.8145 23.1152 76.9054 22.992 76.9701 22.8303C77.0348 22.6685 77.0671 22.4731 77.0671 22.2441C77.0671 22.0152 77.0348 21.8198 76.9701 21.658C76.9054 21.4963 76.8145 21.3731 76.6976 21.2884C76.5831 21.2038 76.4499 21.1615 76.2981 21.1615C76.1463 21.1615 76.0119 21.2038 75.8949 21.2884C75.7804 21.3731 75.6908 21.4963 75.6261 21.658C75.5614 21.8198 75.5291 22.0152 75.5291 22.2441C75.5291 22.4731 75.5614 22.6685 75.6261 22.8303C75.6908 22.992 75.7804 23.1152 75.8949 23.1999C76.0119 23.2845 76.1463 23.3268 76.2981 23.3268ZM77.8898 23.5694C77.8351 23.5694 77.7878 23.5495 77.748 23.5097C77.7106 23.4699 77.692 23.4214 77.692 23.3641C77.692 23.3069 77.7106 23.2596 77.748 23.2223C77.7878 23.1824 77.8351 23.1625 77.8898 23.1625C77.9446 23.1625 77.9919 23.1824 78.0317 23.2223C78.0715 23.2596 78.0914 23.3069 78.0914 23.3641C78.0914 23.4214 78.0715 23.4699 78.0317 23.5097C77.9919 23.5495 77.9446 23.5694 77.8898 23.5694ZM79.1599 20.9375V23.5508H78.8911V21.1764H78.2751V20.9375H79.1599ZM81.6288 20.9375V21.1279L80.5349 23.5508H80.2437L81.3189 21.1764H79.9749V21.6655H79.7099V20.9375H81.6288Z" fill="#20201F"/>
<path d="M75.3887 28.1886H74.866V28.8755H74.5972V28.1886H73.1226V27.9944L74.5076 26.2622H74.8063L73.4698 27.9496H74.6047V27.3449H74.866V27.9496H75.3887V28.1886ZM77.2938 26.2622V26.4526L76.2 28.8755H75.9088L76.984 26.5012H75.64V26.9902H75.375V26.2622H77.2938ZM77.6527 28.8942C77.598 28.8942 77.5507 28.8742 77.5109 28.8344C77.4735 28.7946 77.4549 28.7461 77.4549 28.6888C77.4549 28.6316 77.4735 28.5843 77.5109 28.547C77.5507 28.5071 77.598 28.4872 77.6527 28.4872C77.7075 28.4872 77.7548 28.5071 77.7946 28.547C77.8344 28.5843 77.8543 28.6316 77.8543 28.6888C77.8543 28.7461 77.8344 28.7946 77.7946 28.8344C77.7548 28.8742 77.7075 28.8942 77.6527 28.8942ZM79.0561 26.2398C79.4021 26.2398 79.6671 26.3543 79.8513 26.5833C80.0355 26.8098 80.1275 27.1308 80.1275 27.5465C80.1275 27.8376 80.0778 28.084 79.9782 28.2856C79.8787 28.4872 79.7393 28.6403 79.5601 28.7448C79.3809 28.8469 79.1718 28.8979 78.9329 28.8979C78.6741 28.8979 78.4675 28.8506 78.3132 28.756L78.4215 28.5395C78.5459 28.6216 78.7151 28.6627 78.9292 28.6627C79.2179 28.6627 79.4444 28.5719 79.6086 28.3902C79.7729 28.206 79.855 27.9397 79.855 27.5913C79.855 27.5265 79.8513 27.4556 79.8438 27.3785C79.7791 27.5203 79.6758 27.6311 79.534 27.7107C79.3921 27.7879 79.2291 27.8264 79.0449 27.8264C78.8732 27.8264 78.7201 27.7941 78.5857 27.7294C78.4538 27.6647 78.3505 27.5738 78.2759 27.4569C78.2012 27.3374 78.1639 27.1993 78.1639 27.0425C78.1639 26.8832 78.2024 26.7426 78.2796 26.6206C78.3567 26.4987 78.4625 26.4053 78.5969 26.3406C78.7338 26.2734 78.8869 26.2398 79.0561 26.2398ZM79.086 27.5987C79.2179 27.5987 79.3336 27.5738 79.4332 27.5241C79.5352 27.4743 79.6148 27.4058 79.6721 27.3187C79.7293 27.2316 79.758 27.1346 79.758 27.0275C79.758 26.928 79.7306 26.8359 79.6758 26.7513C79.6236 26.6667 79.5452 26.5982 79.4406 26.546C79.3361 26.4937 79.2117 26.4676 79.0673 26.4676C78.8782 26.4676 78.7238 26.5198 78.6044 26.6243C78.4874 26.7264 78.4289 26.8633 78.4289 27.035C78.4289 27.2067 78.4874 27.3436 78.6044 27.4457C78.7238 27.5477 78.8844 27.5987 79.086 27.5987ZM81.5588 28.8979C81.3572 28.8979 81.1767 28.8444 81.0175 28.7374C80.8607 28.6303 80.7375 28.4773 80.6479 28.2782C80.5608 28.0766 80.5172 27.8401 80.5172 27.5689C80.5172 27.2976 80.5608 27.0624 80.6479 26.8633C80.7375 26.6617 80.8607 26.5074 81.0175 26.4004C81.1767 26.2933 81.3572 26.2398 81.5588 26.2398C81.7604 26.2398 81.9396 26.2933 82.0964 26.4004C82.2556 26.5074 82.3801 26.6617 82.4697 26.8633C82.5593 27.0624 82.6041 27.2976 82.6041 27.5689C82.6041 27.8401 82.5593 28.0766 82.4697 28.2782C82.3801 28.4773 82.2556 28.6303 82.0964 28.7374C81.9396 28.8444 81.7604 28.8979 81.5588 28.8979ZM81.5588 28.6515C81.7106 28.6515 81.8437 28.6092 81.9582 28.5246C82.0752 28.4399 82.166 28.3167 82.2308 28.155C82.2955 27.9932 82.3278 27.7978 82.3278 27.5689C82.3278 27.3399 82.2955 27.1445 82.2308 26.9827C82.166 26.821 82.0752 26.6978 81.9582 26.6131C81.8437 26.5285 81.7106 26.4862 81.5588 26.4862C81.407 26.4862 81.2726 26.5285 81.1556 26.6131C81.0411 26.6978 80.9515 26.821 80.8868 26.9827C80.8221 27.1445 80.7897 27.3399 80.7897 27.5689C80.7897 27.7978 80.8221 27.9932 80.8868 28.155C80.9515 28.3167 81.0411 28.4399 81.1556 28.5246C81.2726 28.6092 81.407 28.6515 81.5588 28.6515Z" fill="#20201F"/>
<path d="M66.0158 18.3194V25.6365H64.3224V19.6782H62.8589V18.3194H66.0158Z" fill="#20201F"/>
<path d="M58.1971 46.5136H57.1667V48.0442H56.5881V46.0357H58.1971V46.5136ZM59.3627 48.0741C59.1511 48.0741 58.9607 48.0305 58.7915 47.9434C58.6247 47.8538 58.4941 47.7306 58.3995 47.5738C58.3049 47.417 58.2576 47.2391 58.2576 47.0399C58.2576 46.8408 58.3049 46.6629 58.3995 46.5061C58.4941 46.3493 58.6247 46.2273 58.7915 46.1402C58.9607 46.0506 59.1511 46.0058 59.3627 46.0058C59.5742 46.0058 59.7634 46.0506 59.9301 46.1402C60.0969 46.2273 60.2275 46.3493 60.3221 46.5061C60.4167 46.6629 60.464 46.8408 60.464 47.0399C60.464 47.2391 60.4167 47.417 60.3221 47.5738C60.2275 47.7306 60.0969 47.8538 59.9301 47.9434C59.7634 48.0305 59.5742 48.0741 59.3627 48.0741ZM59.3627 47.5962C59.512 47.5962 59.634 47.5464 59.7285 47.4469C59.8256 47.3448 59.8741 47.2092 59.8741 47.0399C59.8741 46.8707 59.8256 46.7363 59.7285 46.6368C59.634 46.5347 59.512 46.4837 59.3627 46.4837C59.2133 46.4837 59.0902 46.5347 58.9931 46.6368C58.896 46.7363 58.8475 46.8707 58.8475 47.0399C58.8475 47.2092 58.896 47.3448 58.9931 47.4469C59.0902 47.5464 59.2133 47.5962 59.3627 47.5962ZM61.8203 48.0741C61.6062 48.0741 61.4133 48.0305 61.2416 47.9434C61.0724 47.8538 60.9392 47.7306 60.8421 47.5738C60.7476 47.417 60.7003 47.2391 60.7003 47.0399C60.7003 46.8408 60.7476 46.6629 60.8421 46.5061C60.9392 46.3493 61.0724 46.2273 61.2416 46.1402C61.4133 46.0506 61.6062 46.0058 61.8203 46.0058C62.0318 46.0058 62.216 46.0506 62.3728 46.1402C62.5321 46.2273 62.6478 46.353 62.72 46.5173L62.2682 46.76C62.1637 46.5758 62.0131 46.4837 61.8165 46.4837C61.6647 46.4837 61.539 46.5335 61.4395 46.633C61.3399 46.7326 61.2901 46.8682 61.2901 47.0399C61.2901 47.2117 61.3399 47.3473 61.4395 47.4469C61.539 47.5464 61.6647 47.5962 61.8165 47.5962C62.0156 47.5962 62.1662 47.5041 62.2682 47.3199L62.72 47.5663C62.6478 47.7256 62.5321 47.8501 62.3728 47.9397C62.216 48.0293 62.0318 48.0741 61.8203 48.0741ZM64.754 46.5136H64.0745V48.0442H63.4959V46.5136H62.8164V46.0357H64.754V46.5136ZM65.0644 46.0357H65.6431V47.2303L66.6212 46.0357H67.155V48.0442H66.5764V46.8496L65.602 48.0442H65.0644V46.0357ZM67.7149 46.0357H68.2935V46.8197H69.1671V46.0357H69.7495V48.0442H69.1671V47.2938H68.2935V48.0442H67.7149V46.0357ZM71.0872 46.0058C71.3984 46.0058 71.6373 46.0805 71.804 46.2298C71.9708 46.3767 72.0542 46.5994 72.0542 46.8981V48.0442H71.5091V47.7941C71.3996 47.9807 71.1955 48.0741 70.8969 48.0741C70.7425 48.0741 70.6081 48.0479 70.4937 47.9957C70.3817 47.9434 70.2958 47.8712 70.2361 47.7791C70.1763 47.687 70.1465 47.5825 70.1465 47.4655C70.1465 47.2789 70.2162 47.132 70.3555 47.025C70.4974 46.918 70.7152 46.8645 71.0088 46.8645H71.4718C71.4718 46.7376 71.4332 46.6405 71.356 46.5733C71.2789 46.5036 71.1632 46.4688 71.0088 46.4688C70.9018 46.4688 70.7961 46.4862 70.6915 46.521C70.5895 46.5534 70.5024 46.5982 70.4302 46.6554L70.2211 46.2485C70.3306 46.1714 70.4613 46.1116 70.6131 46.0693C70.7674 46.027 70.9255 46.0058 71.0872 46.0058ZM71.0424 47.6821C71.142 47.6821 71.2304 47.6597 71.3075 47.6149C71.3847 47.5676 71.4394 47.4991 71.4718 47.4095V47.2042H71.0723C70.8334 47.2042 70.7139 47.2826 70.7139 47.4394C70.7139 47.5141 70.7425 47.5738 70.7998 47.6186C70.8595 47.6609 70.9404 47.6821 71.0424 47.6821ZM74.3446 46.0357V48.0442H73.8256V47.4693H73.3963L73.0155 48.0442H72.3958L72.855 47.3871C72.7156 47.3324 72.6086 47.254 72.5339 47.1519C72.4618 47.0474 72.4257 46.9217 72.4257 46.7749C72.4257 46.5385 72.5103 46.3568 72.6795 46.2298C72.8513 46.1004 73.0865 46.0357 73.3851 46.0357H74.3446ZM73.3963 46.5098C73.2719 46.5098 73.1773 46.5322 73.1126 46.577C73.0504 46.6218 73.0193 46.694 73.0193 46.7936C73.0193 46.8931 73.0491 46.9665 73.1089 47.0138C73.1711 47.0586 73.2644 47.081 73.3888 47.081H73.8256V46.5098H73.3963Z" fill="black"/>
<path d="M62.3779 50.7556V53.3689H61.7732V51.241H61.2505V50.7556H62.3779ZM63.7503 50.7108C64.1161 50.7108 64.4023 50.8228 64.6089 51.0468C64.8155 51.2683 64.9188 51.5881 64.9188 52.0063C64.9188 52.3024 64.8628 52.5563 64.7508 52.7678C64.6413 52.9794 64.4857 53.1399 64.2841 53.2494C64.0825 53.3589 63.8498 53.4137 63.586 53.4137C63.4466 53.4137 63.3135 53.3988 63.1866 53.3689C63.0596 53.3365 62.9514 53.2917 62.8618 53.2345L63.0858 52.7902C63.2127 52.8774 63.3757 52.9209 63.5748 52.9209C63.7963 52.9209 63.9718 52.8562 64.1012 52.7268C64.2306 52.5949 64.3003 52.4057 64.3103 52.1593C64.1535 52.3161 63.9369 52.3945 63.6607 52.3945C63.4939 52.3945 63.3421 52.3609 63.2052 52.2937C63.0683 52.2265 62.9601 52.132 62.8804 52.01C62.8008 51.8856 62.761 51.7425 62.761 51.5807C62.761 51.4065 62.8045 51.2534 62.8916 51.1215C62.9787 50.9896 63.097 50.8888 63.2463 50.8191C63.3981 50.7469 63.5661 50.7108 63.7503 50.7108ZM63.7951 51.9428C63.927 51.9428 64.034 51.9067 64.1161 51.8345C64.2008 51.7599 64.2431 51.6653 64.2431 51.5508C64.2431 51.4363 64.202 51.343 64.1199 51.2708C64.0402 51.1986 63.9295 51.1626 63.7876 51.1626C63.6582 51.1626 63.5524 51.1974 63.4703 51.2671C63.3906 51.3368 63.3508 51.4313 63.3508 51.5508C63.3508 51.6703 63.3906 51.7661 63.4703 51.8383C63.5524 51.908 63.6607 51.9428 63.7951 51.9428ZM65.505 53.3988C65.4029 53.3988 65.3171 53.3639 65.2474 53.2942C65.1777 53.2245 65.1429 53.1374 65.1429 53.0329C65.1429 52.9259 65.1777 52.84 65.2474 52.7753C65.3171 52.7081 65.4029 52.6745 65.505 52.6745C65.607 52.6745 65.6929 52.7081 65.7626 52.7753C65.8323 52.84 65.8671 52.9259 65.8671 53.0329C65.8671 53.1374 65.8323 53.2245 65.7626 53.2942C65.6929 53.3639 65.607 53.3988 65.505 53.3988ZM67.0346 51.7375C67.4029 51.7375 67.6742 51.8109 67.8484 51.9577C68.0251 52.1046 68.1135 52.3012 68.1135 52.5476C68.1135 52.7069 68.0736 52.8525 67.994 52.9844C67.9144 53.1138 67.7924 53.2183 67.6281 53.298C67.4664 53.3751 67.266 53.4137 67.0271 53.4137C66.8429 53.4137 66.6612 53.3901 66.482 53.3428C66.3053 53.293 66.1548 53.2233 66.0303 53.1337L66.2692 52.6708C66.3688 52.7454 66.4833 52.8039 66.6127 52.8462C66.7421 52.8861 66.8753 52.906 67.0122 52.906C67.164 52.906 67.2834 52.8761 67.3706 52.8164C67.4577 52.7566 67.5012 52.6733 67.5012 52.5663C67.5012 52.4543 67.4552 52.3696 67.3631 52.3124C67.2735 52.2551 67.1167 52.2265 66.8927 52.2265H66.2244L66.3588 50.7556H67.9529V51.241H66.8628L66.8218 51.7375H67.0346ZM69.3668 50.7556V53.3689H68.762V51.241H68.2394V50.7556H69.3668Z" fill="black"/>
<path d="M31.3568 74.5136H31.0544V75.2751H30.472V73.2667H31.0544V74.0469H31.368L31.913 73.2667H32.5328L31.8309 74.2298L32.5813 75.2751H31.8944L31.3568 74.5136ZM34.7665 73.2667L33.8593 75.3983C33.7672 75.6298 33.6527 75.7928 33.5158 75.8874C33.3814 75.982 33.2184 76.0293 33.0268 76.0293C32.9222 76.0293 32.8189 76.0131 32.7169 75.9807C32.6149 75.9484 32.5315 75.9036 32.4668 75.8463L32.6796 75.4319C32.7244 75.4718 32.7754 75.5029 32.8326 75.5253C32.8924 75.5477 32.9509 75.5589 33.0081 75.5589C33.0877 75.5589 33.1525 75.539 33.2022 75.4991C33.252 75.4618 33.2968 75.3983 33.3366 75.3087L33.3441 75.2901L32.4742 73.2667H33.0753L33.639 74.6293L34.2065 73.2667H34.7665ZM36.1962 75.2751L35.7557 74.6592L35.3002 75.2751H34.6656L35.4384 74.2634L34.6917 73.2667H35.345L35.7706 73.8528L36.2074 73.2667H36.8271L36.0805 74.2485L36.857 75.2751H36.1962ZM37.1437 73.2667H37.7224V74.0506H38.5959V73.2667H39.1783V75.2751H38.5959V74.5248H37.7224V75.2751H37.1437V73.2667ZM41.5203 73.2667V75.2751H41.0014V74.7002H40.5721L40.1913 75.2751H39.5716L40.0307 74.6181C39.8914 74.5633 39.7844 74.4849 39.7097 74.3829C39.6375 74.2784 39.6014 74.1527 39.6014 74.0058C39.6014 73.7694 39.686 73.5877 39.8553 73.4608C40.027 73.3314 40.2622 73.2667 40.5609 73.2667H41.5203ZM40.5721 73.7408C40.4476 73.7408 40.3531 73.7632 40.2883 73.808C40.2261 73.8528 40.195 73.925 40.195 74.0245C40.195 74.1241 40.2249 74.1975 40.2846 74.2448C40.3468 74.2896 40.4402 74.312 40.5646 74.312H41.0014V73.7408H40.5721Z" fill="#20201F"/>
<path d="M33.1622 77.9418C33.5281 77.9418 33.8143 78.0538 34.0209 78.2778C34.2275 78.4993 34.3307 78.8191 34.3307 79.2372C34.3307 79.5334 34.2747 79.7873 34.1627 79.9988C34.0532 80.2104 33.8977 80.3709 33.6961 80.4804C33.4945 80.5899 33.2618 80.6447 32.998 80.6447C32.8586 80.6447 32.7254 80.6297 32.5985 80.5999C32.4716 80.5675 32.3633 80.5227 32.2737 80.4655L32.4977 80.0212C32.6247 80.1083 32.7877 80.1519 32.9868 80.1519C33.2083 80.1519 33.3837 80.0872 33.5132 79.9577C33.6426 79.8258 33.7123 79.6367 33.7222 79.3903C33.5654 79.5471 33.3489 79.6255 33.0726 79.6255C32.9059 79.6255 32.7541 79.5919 32.6172 79.5247C32.4803 79.4575 32.372 79.3629 32.2924 79.241C32.2128 79.1165 32.1729 78.9734 32.1729 78.8116C32.1729 78.6374 32.2165 78.4844 32.3036 78.3524C32.3907 78.2205 32.5089 78.1197 32.6583 78.0501C32.8101 77.9779 32.9781 77.9418 33.1622 77.9418ZM33.207 79.1738C33.3389 79.1738 33.446 79.1377 33.5281 79.0655C33.6127 78.9908 33.655 78.8963 33.655 78.7818C33.655 78.6673 33.614 78.574 33.5318 78.5018C33.4522 78.4296 33.3414 78.3935 33.1996 78.3935C33.0702 78.3935 32.9644 78.4284 32.8822 78.498C32.8026 78.5677 32.7628 78.6623 32.7628 78.7818C32.7628 78.9012 32.8026 78.9971 32.8822 79.0692C32.9644 79.1389 33.0726 79.1738 33.207 79.1738ZM34.9169 80.6297C34.8149 80.6297 34.729 80.5949 34.6594 80.5252C34.5897 80.4555 34.5548 80.3684 34.5548 80.2639C34.5548 80.1568 34.5897 80.071 34.6594 80.0063C34.729 79.9391 34.8149 79.9055 34.9169 79.9055C35.019 79.9055 35.1049 79.9391 35.1745 80.0063C35.2442 80.071 35.2791 80.1568 35.2791 80.2639C35.2791 80.3684 35.2442 80.4555 35.1745 80.5252C35.1049 80.5949 35.019 80.6297 34.9169 80.6297ZM36.8078 79.0506C37.0367 79.0879 37.2122 79.1738 37.3342 79.3082C37.4561 79.4401 37.5171 79.6043 37.5171 79.8009C37.5171 79.9528 37.4773 80.0934 37.3976 80.2228C37.318 80.3497 37.196 80.4518 37.0318 80.5289C36.87 80.6061 36.6709 80.6447 36.4344 80.6447C36.2503 80.6447 36.0686 80.621 35.8894 80.5737C35.7127 80.5239 35.5621 80.4543 35.4377 80.3647L35.6729 79.9017C35.7724 79.9764 35.8869 80.0349 36.0163 80.0772C36.1482 80.117 36.2826 80.1369 36.4195 80.1369C36.5713 80.1369 36.6908 80.1083 36.7779 80.0511C36.865 79.9913 36.9086 79.908 36.9086 79.8009C36.9086 79.5869 36.7455 79.4799 36.4195 79.4799H36.1433V79.0804L36.6808 78.4719H35.5683V77.9866H37.3976V78.3786L36.8078 79.0506ZM38.6558 78.9684C39.0242 78.9684 39.2955 79.0419 39.4697 79.1887C39.6464 79.3355 39.7347 79.5321 39.7347 79.7785C39.7347 79.9378 39.6949 80.0834 39.6153 80.2153C39.5356 80.3447 39.4137 80.4493 39.2494 80.5289C39.0876 80.6061 38.8873 80.6447 38.6484 80.6447C38.4642 80.6447 38.2825 80.621 38.1033 80.5737C37.9266 80.5239 37.776 80.4543 37.6516 80.3647L37.8905 79.9017C37.9901 79.9764 38.1046 80.0349 38.234 80.0772C38.3634 80.117 38.4966 80.1369 38.6334 80.1369C38.7853 80.1369 38.9047 80.1071 38.9918 80.0473C39.0789 79.9876 39.1225 79.9042 39.1225 79.7972C39.1225 79.6852 39.0764 79.6006 38.9844 79.5433C38.8948 79.4861 38.738 79.4575 38.514 79.4575H37.8457L37.9801 77.9866H39.5742V78.4719H38.4841L38.443 78.9684H38.6558Z" fill="#20201F"/>
<path d="M36.6517 28.6047L36.1051 27.8847L35.5553 28.6047H35.2935L35.9742 27.7211L35.3262 26.8833H35.588L36.1051 27.5575L36.6222 26.8833H36.8775L36.2295 27.7211L36.9167 28.6047H36.6517ZM37.947 28.6211C37.7812 28.6211 37.6318 28.584 37.4987 28.5098C37.3656 28.4335 37.2609 28.3287 37.1845 28.1956C37.1081 28.0626 37.07 27.912 37.07 27.744C37.07 27.576 37.1081 27.4255 37.1845 27.2924C37.2609 27.1593 37.3656 27.0556 37.4987 26.9815C37.6318 26.9073 37.7812 26.8702 37.947 26.8702C38.1129 26.8702 38.2623 26.9073 38.3954 26.9815C38.5285 27.0556 38.6321 27.1593 38.7063 27.2924C38.7827 27.4255 38.8209 27.576 38.8209 27.744C38.8209 27.912 38.7827 28.0626 38.7063 28.1956C38.6321 28.3287 38.5285 28.4335 38.3954 28.5098C38.2623 28.584 38.1129 28.6211 37.947 28.6211ZM37.947 28.4149C38.0692 28.4149 38.1783 28.3876 38.2743 28.3331C38.3725 28.2764 38.4489 28.1967 38.5034 28.0942C38.558 27.9916 38.5852 27.8749 38.5852 27.744C38.5852 27.6131 38.558 27.4964 38.5034 27.3938C38.4489 27.2913 38.3725 27.2127 38.2743 27.1582C38.1783 27.1015 38.0692 27.0731 37.947 27.0731C37.8249 27.0731 37.7147 27.1015 37.6165 27.1582C37.5205 27.2127 37.4441 27.2913 37.3874 27.3938C37.3329 27.4964 37.3056 27.6131 37.3056 27.744C37.3056 27.8749 37.3329 27.9916 37.3874 28.0942C37.4441 28.1967 37.5205 28.2764 37.6165 28.3331C37.7147 28.3876 37.8249 28.4149 37.947 28.4149ZM40.7152 26.8833V28.6047H40.4828V27.0895H39.6581L39.6352 27.5149C39.6177 27.8727 39.5762 28.1476 39.5108 28.3396C39.4453 28.5316 39.3286 28.6276 39.1606 28.6276C39.1148 28.6276 39.0592 28.6189 38.9937 28.6015L39.0101 28.4018C39.0493 28.4106 39.0766 28.4149 39.0919 28.4149C39.1813 28.4149 39.249 28.3735 39.2948 28.2906C39.3406 28.2076 39.3712 28.1051 39.3864 27.9829C39.4017 27.8607 39.4148 27.6993 39.4257 27.4986L39.4552 26.8833H40.7152ZM42.783 26.8833V28.6047H42.5506V27.0895H41.7259L41.703 27.5149C41.6855 27.8727 41.6441 28.1476 41.5786 28.3396C41.5132 28.5316 41.3964 28.6276 41.2284 28.6276C41.1826 28.6276 41.127 28.6189 41.0615 28.6015L41.0779 28.4018C41.1172 28.4106 41.1444 28.4149 41.1597 28.4149C41.2492 28.4149 41.3168 28.3735 41.3626 28.2906C41.4084 28.2076 41.439 28.1051 41.4543 27.9829C41.4695 27.8607 41.4826 27.6993 41.4935 27.4986L41.523 26.8833H42.783Z" fill="#20201F"/>
<path d="M36.6155 32.5778C36.9471 32.5778 37.1882 32.6378 37.3388 32.7578C37.4915 32.8756 37.5679 33.0414 37.5679 33.2553C37.5679 33.3884 37.5362 33.5073 37.473 33.612C37.4119 33.7167 37.3191 33.7996 37.1948 33.8607C37.0704 33.9196 36.9177 33.9491 36.7366 33.9491C36.573 33.9491 36.417 33.9229 36.2686 33.8705C36.1224 33.816 36.0046 33.744 35.9151 33.6545L36.0297 33.468C36.106 33.5465 36.2064 33.6109 36.3308 33.6611C36.4551 33.7091 36.5893 33.7331 36.7333 33.7331C36.9231 33.7331 37.0693 33.6905 37.1719 33.6054C37.2766 33.5204 37.329 33.4069 37.329 33.2651C37.329 33.108 37.27 32.9891 37.1522 32.9084C37.0366 32.8276 36.8402 32.7873 36.5631 32.7873H36.0755L36.1933 31.6385H37.4468V31.848H36.3995L36.321 32.5778H36.6155ZM38.0437 33.9458C37.9957 33.9458 37.9543 33.9284 37.9194 33.8934C37.8866 33.8585 37.8703 33.816 37.8703 33.7658C37.8703 33.7156 37.8866 33.6742 37.9194 33.6414C37.9543 33.6065 37.9957 33.5891 38.0437 33.5891C38.0917 33.5891 38.1332 33.6065 38.1681 33.6414C38.203 33.6742 38.2205 33.7156 38.2205 33.7658C38.2205 33.816 38.203 33.8585 38.1681 33.8934C38.1332 33.9284 38.0917 33.9458 38.0437 33.9458ZM39.4385 33.9491C39.2618 33.9491 39.1036 33.9022 38.9639 33.8084C38.8265 33.7145 38.7185 33.5804 38.6399 33.4058C38.5636 33.2291 38.5254 33.0218 38.5254 32.784C38.5254 32.5462 38.5636 32.34 38.6399 32.1654C38.7185 31.9887 38.8265 31.8534 38.9639 31.7596C39.1036 31.6658 39.2618 31.6189 39.4385 31.6189C39.6152 31.6189 39.7723 31.6658 39.9098 31.7596C40.0494 31.8534 40.1585 31.9887 40.237 32.1654C40.3156 32.34 40.3548 32.5462 40.3548 32.784C40.3548 33.0218 40.3156 33.2291 40.237 33.4058C40.1585 33.5804 40.0494 33.7145 39.9098 33.8084C39.7723 33.9022 39.6152 33.9491 39.4385 33.9491ZM39.4385 33.7331C39.5716 33.7331 39.6883 33.696 39.7887 33.6218C39.8912 33.5476 39.9708 33.4396 40.0276 33.2978C40.0843 33.156 40.1127 32.9847 40.1127 32.784C40.1127 32.5833 40.0843 32.412 40.0276 32.2702C39.9708 32.1284 39.8912 32.0204 39.7887 31.9462C39.6883 31.872 39.5716 31.8349 39.4385 31.8349C39.3054 31.8349 39.1876 31.872 39.085 31.9462C38.9847 32.0204 38.9061 32.1284 38.8494 32.2702C38.7927 32.412 38.7643 32.5833 38.7643 32.784C38.7643 32.9847 38.7927 33.156 38.8494 33.2978C38.9061 33.4396 38.9847 33.5476 39.085 33.6218C39.1876 33.696 39.3054 33.7331 39.4385 33.7331ZM41.6414 32.5582C41.7919 32.5582 41.925 32.5865 42.0407 32.6433C42.1585 32.7 42.2501 32.7807 42.3156 32.8854C42.381 32.988 42.4137 33.108 42.4137 33.2454C42.4137 33.3851 42.3799 33.5084 42.3123 33.6153C42.2447 33.7222 42.1508 33.8051 42.0308 33.864C41.913 33.9207 41.7799 33.9491 41.6316 33.9491C41.3283 33.9491 41.0959 33.8498 40.9345 33.6513C40.773 33.4505 40.6923 33.168 40.6923 32.8036C40.6923 32.5484 40.7359 32.3324 40.8232 32.1556C40.9105 31.9789 41.0327 31.8458 41.1897 31.7564C41.3468 31.6647 41.5301 31.6189 41.7396 31.6189C41.9665 31.6189 42.1476 31.6604 42.2828 31.7433L42.1879 31.9331C42.0788 31.8611 41.9305 31.8251 41.7428 31.8251C41.4897 31.8251 41.2912 31.9058 41.1472 32.0673C41.0032 32.2265 40.9312 32.4589 40.9312 32.7644C40.9312 32.8189 40.9345 32.8811 40.941 32.9509C40.9977 32.8265 41.0883 32.7305 41.2127 32.6629C41.337 32.5931 41.4799 32.5582 41.6414 32.5582ZM41.6217 33.7494C41.7876 33.7494 41.9217 33.7047 42.0243 33.6153C42.129 33.5236 42.1814 33.4025 42.1814 33.252C42.1814 33.1014 42.129 32.9814 42.0243 32.892C41.9217 32.8025 41.7821 32.7578 41.6054 32.7578C41.4897 32.7578 41.3872 32.7796 41.2977 32.8233C41.2105 32.8669 41.1417 32.9269 41.0916 33.0033C41.0414 33.0796 41.0163 33.1647 41.0163 33.2585C41.0163 33.3458 41.0392 33.4265 41.085 33.5007C41.133 33.5749 41.2028 33.6349 41.2945 33.6807C41.3861 33.7265 41.4952 33.7494 41.6217 33.7494Z" fill="#20201F"/>
<path d="M60.5125 71.0463V72.7678H60.2801V71.2525H59.4554L59.4325 71.678C59.415 72.0358 59.3736 72.3107 59.3081 72.5027C59.2427 72.6947 59.1259 72.7907 58.9579 72.7907C58.9121 72.7907 58.8565 72.782 58.791 72.7645L58.8074 72.5649C58.8467 72.5736 58.8739 72.578 58.8892 72.578C58.9787 72.578 59.0463 72.5365 59.0921 72.4536C59.1379 72.3707 59.1685 72.2682 59.1838 72.146C59.199 72.0238 59.2121 71.8624 59.223 71.6616L59.2525 71.0463H60.5125ZM61.8833 72.7842C61.7174 72.7842 61.568 72.7471 61.4349 72.6729C61.3018 72.5965 61.1971 72.4918 61.1207 72.3587C61.0443 72.2256 61.0062 72.0751 61.0062 71.9071C61.0062 71.7391 61.0443 71.5885 61.1207 71.4554C61.1971 71.3223 61.3018 71.2187 61.4349 71.1445C61.568 71.0703 61.7174 71.0332 61.8833 71.0332C62.0491 71.0332 62.1985 71.0703 62.3316 71.1445C62.4647 71.2187 62.5684 71.3223 62.6425 71.4554C62.7189 71.5885 62.7571 71.7391 62.7571 71.9071C62.7571 72.0751 62.7189 72.2256 62.6425 72.3587C62.5684 72.4918 62.4647 72.5965 62.3316 72.6729C62.1985 72.7471 62.0491 72.7842 61.8833 72.7842ZM61.8833 72.578C62.0054 72.578 62.1145 72.5507 62.2105 72.4962C62.3087 72.4395 62.3851 72.3598 62.4396 72.2573C62.4942 72.1547 62.5215 72.038 62.5215 71.9071C62.5215 71.7762 62.4942 71.6594 62.4396 71.5569C62.3851 71.4543 62.3087 71.3758 62.2105 71.3213C62.1145 71.2645 62.0054 71.2362 61.8833 71.2362C61.7611 71.2362 61.6509 71.2645 61.5527 71.3213C61.4567 71.3758 61.3803 71.4543 61.3236 71.5569C61.2691 71.6594 61.2418 71.7762 61.2418 71.9071C61.2418 72.038 61.2691 72.1547 61.3236 72.2573C61.3803 72.3598 61.4567 72.4395 61.5527 72.4962C61.6509 72.5507 61.7611 72.578 61.8833 72.578ZM64.9231 72.5649V73.1835H64.7038V72.7678H63.1623V73.1835H62.943V72.5649H63.0412C63.1568 72.5584 63.2354 72.4733 63.2769 72.3096C63.3183 72.146 63.3467 71.9169 63.3619 71.6223L63.3849 71.0463H64.6547V72.5649H64.9231ZM63.5747 71.6354C63.5638 71.8798 63.543 72.0816 63.5125 72.2409C63.4819 72.398 63.4274 72.506 63.3489 72.5649H64.4223V71.2525H63.5943L63.5747 71.6354ZM66.8847 72.002H66.5116V72.7678H66.2792V72.002H65.9061L65.3792 72.7678H65.101L65.7195 71.8809L65.1501 71.0463H65.4021L65.9061 71.8024H66.2792V71.0463H66.5116V71.8024H66.8847L67.3919 71.0463H67.6439L67.0745 71.8842L67.693 72.7678H67.4148L66.8847 72.002ZM68.0798 71.0463H68.3121V72.4144L69.4609 71.0463H69.6671V72.7678H69.4347V71.3998L68.2892 72.7678H68.0798V71.0463ZM71.6552 71.0463V72.7678H71.4425V72.1984H70.9025H70.837L70.4377 72.7678H70.1857L70.6145 72.1656C70.4814 72.1285 70.3788 72.0653 70.3068 71.9758C70.2348 71.8864 70.1988 71.7729 70.1988 71.6354C70.1988 71.4434 70.2643 71.2973 70.3952 71.1969C70.5261 71.0965 70.705 71.0463 70.9319 71.0463H71.6552ZM70.4345 71.642C70.4345 71.8973 70.597 72.0249 70.9221 72.0249H71.4425V71.2525H70.9385C70.6025 71.2525 70.4345 71.3823 70.4345 71.642Z" fill="#20201F"/>
<path d="M64.0275 77.4903H63.5693V78.0925H63.3337V77.4903H62.0409V77.3202L63.2551 75.8016H63.517L62.3453 77.2809H63.3402V76.7507H63.5693V77.2809H64.0275V77.4903ZM64.4846 78.1089C64.4366 78.1089 64.3952 78.0914 64.3602 78.0565C64.3275 78.0216 64.3112 77.9791 64.3112 77.9289C64.3112 77.8787 64.3275 77.8373 64.3602 77.8045C64.3952 77.7696 64.4366 77.7522 64.4846 77.7522C64.5326 77.7522 64.5741 77.7696 64.609 77.8045C64.6439 77.8373 64.6613 77.8787 64.6613 77.9289C64.6613 77.9791 64.6439 78.0216 64.609 78.0565C64.5741 78.0914 64.5326 78.1089 64.4846 78.1089ZM65.6036 76.7409C65.9353 76.7409 66.1764 76.8009 66.3269 76.9209C66.4796 77.0387 66.556 77.2045 66.556 77.4183C66.556 77.5514 66.5244 77.6703 66.4611 77.7751C66.4 77.8798 66.3073 77.9627 66.1829 78.0238C66.0585 78.0827 65.9058 78.1122 65.7247 78.1122C65.5611 78.1122 65.4051 78.086 65.2567 78.0336C65.1105 77.9791 64.9927 77.9071 64.9032 77.8176L65.0178 77.6311C65.0942 77.7096 65.1945 77.774 65.3189 77.8242C65.4433 77.8722 65.5774 77.8962 65.7214 77.8962C65.9113 77.8962 66.0574 77.8536 66.16 77.7685C66.2647 77.6834 66.3171 77.57 66.3171 77.4282C66.3171 77.2711 66.2582 77.1522 66.1404 77.0714C66.0247 76.9907 65.8284 76.9503 65.5513 76.9503H65.0636L65.1814 75.8016H66.4349V76.011H65.3876L65.3091 76.7409H65.6036ZM68.8025 77.4903H68.3443V78.0925H68.1086V77.4903H66.8159V77.3202L68.0301 75.8016H68.2919L67.1202 77.2809H68.1152V76.7507H68.3443V77.2809H68.8025V77.4903Z" fill="#20201F"/>
<path d="M19.8539 50.7342H19.3957V51.3364H19.1601V50.7342H17.8674V50.5641L19.0815 49.0455H19.3434L18.1717 50.5248H19.1666V49.9946H19.3957V50.5248H19.8539V50.7342ZM20.311 51.3528C20.263 51.3528 20.2215 51.3353 20.1866 51.3004C20.1539 51.2655 20.1375 51.223 20.1375 51.1728C20.1375 51.1226 20.1539 51.0812 20.1866 51.0484C20.2215 51.0135 20.263 50.9961 20.311 50.9961C20.359 50.9961 20.4004 51.0135 20.4353 51.0484C20.4703 51.0812 20.4877 51.1226 20.4877 51.1728C20.4877 51.223 20.4703 51.2655 20.4353 51.3004C20.4004 51.3353 20.359 51.3528 20.311 51.3528ZM22.4241 51.127V51.3364H20.8172V51.1695L21.7696 50.2368C21.8896 50.119 21.9703 50.0175 22.0118 49.9324C22.0554 49.8452 22.0772 49.7579 22.0772 49.6706C22.0772 49.5353 22.0303 49.4306 21.9365 49.3564C21.8448 49.2801 21.7128 49.2419 21.5405 49.2419C21.2721 49.2419 21.0638 49.327 20.9154 49.4972L20.7485 49.3532C20.8379 49.2484 20.9514 49.1677 21.0888 49.111C21.2285 49.0542 21.3856 49.0259 21.5601 49.0259C21.7936 49.0259 21.9779 49.0815 22.1132 49.1928C22.2507 49.3019 22.3194 49.4524 22.3194 49.6444C22.3194 49.7622 22.2932 49.8757 22.2408 49.9848C22.1885 50.0939 22.0892 50.2193 21.943 50.3612L21.1641 51.127H22.4241ZM24.0322 50.1353C24.1762 50.1833 24.2864 50.2553 24.3627 50.3513C24.4413 50.4473 24.4806 50.563 24.4806 50.6982C24.4806 50.8313 24.4446 50.9481 24.3726 51.0484C24.3006 51.1466 24.1969 51.223 24.0617 51.2775C23.9286 51.3299 23.7715 51.3561 23.5904 51.3561C23.3155 51.3561 23.0995 51.2972 22.9424 51.1793C22.7853 51.0615 22.7067 50.9012 22.7067 50.6982C22.7067 50.5608 22.7438 50.4452 22.818 50.3513C22.8944 50.2553 23.0046 50.1833 23.1486 50.1353C23.0307 50.0895 22.9413 50.0241 22.8802 49.939C22.8191 49.8517 22.7886 49.7492 22.7886 49.6313C22.7886 49.4459 22.8606 49.2986 23.0046 49.1895C23.1507 49.0804 23.346 49.0259 23.5904 49.0259C23.7518 49.0259 23.8926 49.051 24.0126 49.1012C24.1347 49.1492 24.2297 49.219 24.2973 49.3106C24.3649 49.4022 24.3987 49.5092 24.3987 49.6313C24.3987 49.7492 24.3671 49.8517 24.3038 49.939C24.2406 50.0241 24.15 50.0895 24.0322 50.1353ZM23.0242 49.6379C23.0242 49.7644 23.0744 49.8648 23.1747 49.939C23.2751 50.0132 23.4137 50.0502 23.5904 50.0502C23.7671 50.0502 23.9057 50.0132 24.006 49.939C24.1086 49.8648 24.1598 49.7655 24.1598 49.6412C24.1598 49.5124 24.1075 49.411 24.0027 49.3368C23.9002 49.2626 23.7627 49.2255 23.5904 49.2255C23.4158 49.2255 23.2773 49.2626 23.1747 49.3368C23.0744 49.411 23.0242 49.5113 23.0242 49.6379ZM23.5904 51.1564C23.7933 51.1564 23.9515 51.115 24.0649 51.0321C24.1806 50.9492 24.2384 50.8368 24.2384 50.695C24.2384 50.5532 24.1806 50.4419 24.0649 50.3612C23.9515 50.2782 23.7933 50.2368 23.5904 50.2368C23.3897 50.2368 23.2315 50.2782 23.1158 50.3612C23.0024 50.4419 22.9457 50.5532 22.9457 50.695C22.9457 50.839 23.0024 50.9524 23.1158 51.0353C23.2293 51.1161 23.3875 51.1564 23.5904 51.1564Z" fill="#20201F"/>
<path d="M13.1031 23.532H12.7104V24.2979H12.478V22.5764H12.7104V23.3324H13.1064L13.7118 22.5764H13.9638L13.2864 23.4109L14.0129 24.2979H13.738L13.1031 23.532ZM15.7869 22.5764V24.2979H15.5545V22.7826H14.7298L14.7069 23.208C14.6895 23.5659 14.648 23.8408 14.5825 24.0328C14.5171 24.2248 14.4004 24.3208 14.2324 24.3208C14.1865 24.3208 14.1309 24.312 14.0655 24.2946L14.0818 24.0949C14.1211 24.1037 14.1484 24.108 14.1636 24.108C14.2531 24.108 14.3207 24.0666 14.3665 23.9837C14.4124 23.9008 14.4429 23.7982 14.4582 23.676C14.4735 23.5539 14.4865 23.3924 14.4975 23.1917L14.5269 22.5764H15.7869ZM17.0398 22.5633C17.2646 22.5633 17.4369 22.62 17.5569 22.7335C17.6769 22.8448 17.7369 23.0106 17.7369 23.2309V24.2979H17.5144V24.0295C17.462 24.1189 17.3846 24.1888 17.282 24.2389C17.1816 24.2891 17.0616 24.3142 16.922 24.3142C16.73 24.3142 16.5773 24.2684 16.4638 24.1768C16.3504 24.0851 16.2936 23.964 16.2936 23.8135C16.2936 23.6673 16.346 23.5495 16.4507 23.46C16.5576 23.3706 16.7267 23.3259 16.958 23.3259H17.5046V23.2211C17.5046 23.0728 17.4631 22.9604 17.3802 22.884C17.2973 22.8055 17.1762 22.7662 17.0169 22.7662C16.9078 22.7662 16.8031 22.7848 16.7027 22.8219C16.6024 22.8568 16.5162 22.9059 16.4442 22.9691L16.3395 22.7957C16.4267 22.7215 16.5315 22.6648 16.6536 22.6255C16.7758 22.584 16.9046 22.5633 17.0398 22.5633ZM16.958 24.1309C17.0889 24.1309 17.2013 24.1015 17.2951 24.0426C17.3889 23.9815 17.4587 23.8942 17.5046 23.7808V23.4993H16.9646C16.67 23.4993 16.5227 23.6019 16.5227 23.8069C16.5227 23.9073 16.5609 23.9869 16.6373 24.0459C16.7136 24.1026 16.8206 24.1309 16.958 24.1309ZM20.0344 24.0949V24.7135H19.8151V24.2979H18.2737V24.7135H18.0544V24.0949H18.1526C18.2682 24.0884 18.3468 24.0033 18.3882 23.8397C18.4297 23.676 18.458 23.4469 18.4733 23.1524L18.4962 22.5764H19.766V24.0949H20.0344ZM18.686 23.1655C18.6751 23.4099 18.6544 23.6117 18.6239 23.7709C18.5933 23.928 18.5388 24.036 18.4602 24.0949H19.5337V22.7826H18.7057L18.686 23.1655ZM21.1974 24.3142C21.0316 24.3142 20.8821 24.2771 20.7491 24.2029C20.616 24.1266 20.5112 24.0219 20.4349 23.8888C20.3585 23.7557 20.3203 23.6051 20.3203 23.4371C20.3203 23.2691 20.3585 23.1186 20.4349 22.9855C20.5112 22.8524 20.616 22.7488 20.7491 22.6746C20.8821 22.6004 21.0316 22.5633 21.1974 22.5633C21.3632 22.5633 21.5127 22.6004 21.6458 22.6746C21.7789 22.7488 21.8825 22.8524 21.9567 22.9855C22.033 23.1186 22.0712 23.2691 22.0712 23.4371C22.0712 23.6051 22.033 23.7557 21.9567 23.8888C21.8825 24.0219 21.7789 24.1266 21.6458 24.2029C21.5127 24.2771 21.3632 24.3142 21.1974 24.3142ZM21.1974 24.108C21.3196 24.108 21.4287 24.0808 21.5247 24.0262C21.6229 23.9695 21.6992 23.8899 21.7538 23.7873C21.8083 23.6848 21.8356 23.568 21.8356 23.4371C21.8356 23.3062 21.8083 23.1895 21.7538 23.0869C21.6992 22.9844 21.6229 22.9059 21.5247 22.8513C21.4287 22.7946 21.3196 22.7662 21.1974 22.7662C21.0752 22.7662 20.9651 22.7946 20.8669 22.8513C20.7709 22.9059 20.6945 22.9844 20.6378 23.0869C20.5832 23.1895 20.556 23.3062 20.556 23.4371C20.556 23.568 20.5832 23.6848 20.6378 23.7873C20.6945 23.8899 20.7709 23.9695 20.8669 24.0262C20.9651 24.0808 21.0752 24.108 21.1974 24.108ZM23.6642 23.4077C23.8977 23.4622 24.0144 23.6029 24.0144 23.8299C24.0144 23.9804 23.9587 24.096 23.8475 24.1768C23.7362 24.2575 23.5704 24.2979 23.35 24.2979H22.5678V22.5764H23.3271C23.5235 22.5764 23.6773 22.6146 23.7886 22.6909C23.8998 22.7673 23.9555 22.8764 23.9555 23.0182C23.9555 23.112 23.9293 23.1928 23.8769 23.2604C23.8267 23.3259 23.7558 23.3749 23.6642 23.4077ZM22.7937 23.3422H23.3107C23.4438 23.3422 23.5453 23.3171 23.6151 23.2669C23.6871 23.2168 23.7231 23.1437 23.7231 23.0477C23.7231 22.9517 23.6871 22.8797 23.6151 22.8317C23.5453 22.7837 23.4438 22.7597 23.3107 22.7597H22.7937V23.3422ZM23.3402 24.1146C23.4886 24.1146 23.5998 24.0906 23.674 24.0426C23.7482 23.9946 23.7853 23.9193 23.7853 23.8168C23.7853 23.7142 23.7515 23.6389 23.6838 23.5909C23.6162 23.5408 23.5093 23.5157 23.3631 23.5157H22.7937V24.1146H23.3402ZM25.1513 22.5633C25.3761 22.5633 25.5484 22.62 25.6684 22.7335C25.7884 22.8448 25.8484 23.0106 25.8484 23.2309V24.2979H25.6259V24.0295C25.5735 24.1189 25.4961 24.1888 25.3935 24.2389C25.2931 24.2891 25.1731 24.3142 25.0335 24.3142C24.8415 24.3142 24.6888 24.2684 24.5753 24.1768C24.4619 24.0851 24.4051 23.964 24.4051 23.8135C24.4051 23.6673 24.4575 23.5495 24.5622 23.46C24.6691 23.3706 24.8382 23.3259 25.0695 23.3259H25.6161V23.2211C25.6161 23.0728 25.5746 22.9604 25.4917 22.884C25.4088 22.8055 25.2877 22.7662 25.1284 22.7662C25.0193 22.7662 24.9146 22.7848 24.8142 22.8219C24.7139 22.8568 24.6277 22.9059 24.5557 22.9691L24.451 22.7957C24.5382 22.7215 24.643 22.6648 24.7651 22.6255C24.8873 22.584 25.0161 22.5633 25.1513 22.5633ZM25.0695 24.1309C25.2004 24.1309 25.3128 24.1015 25.4066 24.0426C25.5004 23.9815 25.5702 23.8942 25.6161 23.7808V23.4993H25.0761C24.7815 23.4993 24.6342 23.6019 24.6342 23.8069C24.6342 23.9073 24.6724 23.9869 24.7488 24.0459C24.8251 24.1026 24.9321 24.1309 25.0695 24.1309ZM27.7892 22.5764V24.2979H27.5764V23.7284H27.0364H26.971L26.5717 24.2979H26.3197L26.7484 23.6957C26.6153 23.6586 26.5128 23.5953 26.4408 23.5059C26.3688 23.4164 26.3328 23.3029 26.3328 23.1655C26.3328 22.9735 26.3983 22.8273 26.5292 22.7269C26.6601 22.6266 26.839 22.5764 27.0659 22.5764H27.7892ZM26.5684 23.172C26.5684 23.4273 26.731 23.5549 27.0561 23.5549H27.5764V22.7826H27.0724C26.7364 22.7826 26.5684 22.9124 26.5684 23.172Z" fill="#20201F"/>
<path d="M18.0365 27.3312V29.6221H17.8009V27.5406H17.2609V27.3312H18.0365ZM18.7609 29.6384C18.7129 29.6384 18.6714 29.621 18.6365 29.5861C18.6038 29.5512 18.5874 29.5086 18.5874 29.4584C18.5874 29.4083 18.6038 29.3668 18.6365 29.3341C18.6714 29.2992 18.7129 29.2817 18.7609 29.2817C18.8089 29.2817 18.8503 29.2992 18.8852 29.3341C18.9202 29.3668 18.9376 29.4083 18.9376 29.4584C18.9376 29.5086 18.9202 29.5512 18.8852 29.5861C18.8503 29.621 18.8089 29.6384 18.7609 29.6384ZM19.9911 27.3115C20.2944 27.3115 20.5268 27.4119 20.6882 27.6126C20.8497 27.8112 20.9304 28.0926 20.9304 28.457C20.9304 28.7123 20.8868 28.9283 20.7995 29.105C20.7122 29.2817 20.5901 29.4159 20.433 29.5075C20.2759 29.597 20.0926 29.6417 19.8831 29.6417C19.6562 29.6417 19.4751 29.6003 19.3399 29.5173L19.4348 29.3275C19.5439 29.3995 19.6922 29.4355 19.8799 29.4355C20.133 29.4355 20.3315 29.3559 20.4755 29.1966C20.6195 29.0352 20.6915 28.8017 20.6915 28.4963C20.6915 28.4395 20.6882 28.3773 20.6817 28.3097C20.625 28.4341 20.5344 28.5312 20.4101 28.601C20.2857 28.6686 20.1428 28.7024 19.9813 28.7024C19.8308 28.7024 19.6966 28.6741 19.5788 28.6173C19.4631 28.5606 19.3726 28.481 19.3071 28.3784C19.2417 28.2737 19.209 28.1526 19.209 28.0152C19.209 27.8755 19.2428 27.7523 19.3104 27.6453C19.3781 27.5384 19.4708 27.4566 19.5886 27.3999C19.7086 27.341 19.8428 27.3115 19.9911 27.3115ZM20.0173 28.5028C20.133 28.5028 20.2344 28.481 20.3217 28.4373C20.4111 28.3937 20.481 28.3337 20.5311 28.2573C20.5813 28.181 20.6064 28.0959 20.6064 28.0021C20.6064 27.9148 20.5824 27.8341 20.5344 27.7599C20.4886 27.6857 20.4199 27.6257 20.3282 27.5799C20.2366 27.5341 20.1275 27.5112 20.001 27.5112C19.8351 27.5112 19.6999 27.557 19.5951 27.6486C19.4926 27.7381 19.4413 27.8581 19.4413 28.0086C19.4413 28.1592 19.4926 28.2792 19.5951 28.3686C19.6999 28.4581 19.8406 28.5028 20.0173 28.5028ZM22.8632 27.3312V27.4981L21.9043 29.6221H21.649L22.5915 27.5406H21.4133V27.9693H21.181V27.3312H22.8632Z" fill="#20201F"/>
</g>
<defs>
<clipPath id="clip0_2561_22562">
<rect width="85.2574" height="93.0965" fill="white" transform="translate(5.53479 3.45459)"/>
</clipPath>
</defs>
</svg>
