<svg width="104" height="100" viewBox="0 0 104 100" fill="none" xmlns="http://www.w3.org/2000/svg">
<rect width="102.929" height="99.9999" transform="translate(0.184448)" fill="white"/>
<g clip-path="url(#clip0_2561_22764)">
<path fill-rule="evenodd" clip-rule="evenodd" d="M4.2627 92.7634H58.4445V95.7389H98.9511L95.5193 55.06H92.2013V51.055V44.4174V4.36816H14.0461V27.1392H8.43863V44.4174H4.2627V92.7634Z" fill="#FFF9D0"/>
<path d="M92.2013 4.36816H14.046V7.13046H92.2013V4.36816Z" fill="#FFF9D0"/>
<path d="M89.2261 50.5977H74.8069V53.4574H89.2261V50.5977Z" fill="#20201F"/>
<path d="M77.7252 89.9038H74.8069V92.7636H77.7252V89.9038Z" fill="#20201F"/>
<path d="M16.9073 27.1389H8.43848V29.9987H16.9073V27.1389Z" fill="#20201F"/>
<path d="M16.9074 4.36816H14.046V29.999H16.9074V4.36816Z" fill="#20201F"/>
<path d="M86.3647 4.36816H14.046V7.22795H86.3647V4.36816Z" fill="#20201F"/>
<path d="M11.2999 41.4431H8.43848V45.8482H11.2999V41.4431Z" fill="#20201F"/>
<path d="M11.3 42.9868H4.2627V45.8482H11.3V42.9868Z" fill="#20201F"/>
<path d="M7.12248 42.9868H4.2627V92.7635H7.12248V42.9868Z" fill="#20201F"/>
<path d="M74.807 89.9036H4.2627V92.7633H74.807V89.9036Z" fill="#20201F"/>
<path d="M62.7924 89.9036H58.4442V95.7388H62.7924V89.9036Z" fill="#20201F"/>
<path d="M79.1551 79.6619H74.8069V89.9036H79.1551V79.6619Z" fill="#20201F"/>
<path d="M79.1551 53.4575H74.8069V57.9211H79.1551V53.4575Z" fill="#20201F"/>
<path d="M90.7127 34.9209H86.3645V54.5808H90.7127V34.9209Z" fill="#20201F"/>
<path d="M90.7127 4.36816H86.3645V16.6116H90.7127V4.36816Z" fill="#20201F"/>
<path d="M92.2012 4.36816H90.7128V17.2989H92.2012V4.36816Z" fill="#20201F"/>
<path d="M92.2012 34.2334H90.7128V54.6013H92.2012V34.2334Z" fill="#20201F"/>
<path d="M92.2011 55.0598H80.6433V56.4328H92.2011V55.0598Z" fill="#20201F"/>
<path d="M80.6434 53.4575H79.155V57.9211H80.6434V53.4575Z" fill="#20201F"/>
<path d="M80.6434 79.6619H79.155V89.9036H80.6434V79.6619Z" fill="#20201F"/>
<path d="M80.6434 89.9036H79.2704V95.7385H80.6434V89.9036Z" fill="#20201F"/>
<path d="M79.2704 94.3655H64.2793V95.7385H79.2704V94.3655Z" fill="#20201F"/>
<path d="M64.2792 92.7637H62.7925V95.7391H64.2792V92.7637Z" fill="#20201F"/>
<path d="M79.7491 92.1658H63.4122V94.7453H79.7491V92.1658Z" fill="#20201F"/>
<path d="M79.2703 88.3572H76.6499V92.821H79.2703V88.3572Z" fill="#20201F"/>
<path d="M92.2012 52.7207H79.8027V55.7194H92.2012V52.7207Z" fill="#20201F"/>
<path fill-rule="evenodd" clip-rule="evenodd" d="M80.6433 95.7392H98.9508L95.5191 55.0603H92.2011V56.4333H94.2566L97.4576 94.3661H80.6433V95.7392Z" fill="#20201F"/>
<path d="M38.5591 50.5979H7.12244V51.5127H38.5591V50.5979Z" fill="#20201F"/>
<path d="M74.8071 50.5979H48.8578V51.5127H74.8071V50.5979Z" fill="#20201F"/>
<path d="M52.036 47.7361H51.1212V51.0965H52.036V47.7361Z" fill="#20201F"/>
<path d="M24.4842 29.0845H16.9073V29.9993H24.4842V29.0845Z" fill="#20201F"/>
<path d="M52.036 29.0845H32.4934V29.9993H52.036V29.0845Z" fill="#20201F"/>
<path d="M52.036 29.0845H51.1212V38.5819H52.036V29.0845Z" fill="#20201F"/>
<path d="M52.036 19.2441H51.1212V29.0844H52.036V19.2441Z" fill="#20201F"/>
<path d="M52.036 7.22827H51.1212V19.2442H52.036V7.22827Z" fill="#20201F"/>
<path d="M92.2013 17.2988H91.4652V34.2351H92.2013V17.2988Z" fill="#20201F"/>
<path d="M90.7176 16.6113H89.9817V34.9206H90.7176V16.6113Z" fill="#20201F"/>
<path d="M87.1053 16.6113H86.3694V34.9206H87.1053V16.6113Z" fill="#20201F"/>
<path d="M80.6438 67.0742H79.9077V79.6618H80.6438V67.0742Z" fill="#20201F"/>
<path d="M79.1601 67.0742H78.4242V79.6622H79.1601V67.0742Z" fill="#20201F"/>
<path d="M75.5477 67.0747H74.8118V79.6626H75.5477V67.0747Z" fill="#20201F"/>
<path d="M80.6438 67.0742H74.8079V67.6143H80.6438V67.0742Z" fill="#20201F"/>
<path fill-rule="evenodd" clip-rule="evenodd" d="M32.196 29.677C32.196 29.8564 32.0504 30.002 31.871 30.002C31.6916 30.002 31.546 29.8564 31.546 29.677V22.7991C31.546 22.6197 31.6916 22.4741 31.871 22.4741C32.0504 22.4741 32.196 22.6197 32.196 22.7991V29.677Z" fill="#20201F"/>
<path fill-rule="evenodd" clip-rule="evenodd" d="M25.1548 29.7422C25.1548 29.8319 25.082 29.9047 24.9923 29.9047C24.9026 29.9047 24.8298 29.8319 24.8298 29.7422C24.8298 27.7852 25.5229 26.0113 26.643 24.7264C27.7681 23.4353 29.3243 22.6365 31.0436 22.6365C31.1332 22.6365 31.206 22.7093 31.206 22.799C31.206 22.8887 31.1332 22.9615 31.0436 22.9615C29.4218 22.9615 27.9517 23.7177 26.8868 24.9396C25.8168 26.167 25.1548 27.865 25.1548 29.7422Z" fill="#20201F"/>
<path fill-rule="evenodd" clip-rule="evenodd" d="M51.5358 47.4534C51.3564 47.4534 51.2108 47.3078 51.2108 47.1284C51.2108 46.949 51.3564 46.8035 51.5358 46.8035H58.4137C58.5931 46.8035 58.7387 46.949 58.7387 47.1284C58.7387 47.3078 58.5931 47.4534 58.4137 47.4534H51.5358Z" fill="#20201F"/>
<path fill-rule="evenodd" clip-rule="evenodd" d="M51.4702 39.4407C51.3805 39.4407 51.3077 39.3679 51.3077 39.2782C51.3077 39.1885 51.3805 39.1157 51.4702 39.1157C53.4316 39.1157 55.2079 39.9072 56.4939 41.1863C57.7801 42.4657 58.576 44.2333 58.576 46.1843C58.576 46.274 58.5032 46.3468 58.4135 46.3468C58.3238 46.3468 58.251 46.274 58.251 46.1843C58.251 44.3223 57.492 42.6362 56.2654 41.4161C55.0386 40.1958 53.3431 39.4407 51.4702 39.4407Z" fill="#20201F"/>
<path fill-rule="evenodd" clip-rule="evenodd" d="M9.1625 40.9595C8.98312 40.9595 8.83752 40.8139 8.83752 40.6345C8.83752 40.4552 8.98312 40.3096 9.1625 40.3096H16.0405C16.2199 40.3096 16.3654 40.4552 16.3654 40.6345C16.3654 40.8139 16.2199 40.9595 16.0405 40.9595H9.1625Z" fill="#20201F"/>
<path fill-rule="evenodd" clip-rule="evenodd" d="M9.0973 30.7862C9.00761 30.7862 8.93481 30.7134 8.93481 30.6237C8.93481 30.534 9.00761 30.4612 9.0973 30.4612C11.0668 30.4612 12.8475 31.471 14.1341 33.1031C15.4122 34.7241 16.2031 36.9618 16.2031 39.4302C16.2031 39.5199 16.1303 39.5927 16.0406 39.5927C15.9509 39.5927 15.8781 39.5199 15.8781 39.4302C15.8781 37.0363 15.1139 34.8698 13.879 33.3036C12.6532 31.7486 10.962 30.7862 9.0973 30.7862Z" fill="#20201F"/>
<path fill-rule="evenodd" clip-rule="evenodd" d="M39.0499 51.1853C39.0499 51.0059 39.1955 50.8604 39.3749 50.8604C39.5543 50.8604 39.6999 51.0059 39.6999 51.1853V58.0633C39.6999 58.2427 39.5543 58.3883 39.3749 58.3883C39.1955 58.3883 39.0499 58.2427 39.0499 58.0633V51.1853Z" fill="#20201F"/>
<path fill-rule="evenodd" clip-rule="evenodd" d="M47.9557 51.1198C47.9557 51.0301 48.0285 50.9573 48.1182 50.9573C48.2079 50.9573 48.2807 51.0301 48.2807 51.1198C48.2807 53.0847 47.3987 54.8633 45.9737 56.1496C44.5531 57.4321 42.591 58.2255 40.4265 58.2255C40.3368 58.2255 40.264 58.1527 40.264 58.063C40.264 57.9733 40.3368 57.9005 40.4265 57.9005C42.5085 57.9005 44.3935 57.1391 45.7566 55.9084C47.115 54.6823 47.9557 52.9889 47.9557 51.1198Z" fill="#20201F"/>
<path fill-rule="evenodd" clip-rule="evenodd" d="M78.855 58.2971C79.0344 58.2971 79.18 58.4427 79.18 58.6221C79.18 58.8015 79.0344 58.9471 78.855 58.9471H71.9771C71.7977 58.9471 71.6521 58.8015 71.6521 58.6221C71.6521 58.4427 71.7977 58.2971 71.9771 58.2971H78.855Z" fill="#20201F"/>
<path fill-rule="evenodd" clip-rule="evenodd" d="M78.9202 66.3099C79.0099 66.3099 79.0827 66.3827 79.0827 66.4724C79.0827 66.5621 79.0099 66.6348 78.9202 66.6348C76.9588 66.6348 75.1825 65.8434 73.8966 64.5643C72.6103 63.2848 71.8145 61.5175 71.8145 59.5663C71.8145 59.4766 71.8873 59.4038 71.9769 59.4038C72.0666 59.4038 72.1394 59.4766 72.1394 59.5663C72.1394 61.4283 72.8984 63.1144 74.125 64.3345C75.3518 65.5548 77.0474 66.3099 78.9202 66.3099Z" fill="#20201F"/>
<path fill-rule="evenodd" clip-rule="evenodd" d="M78.5079 7.68579H61.2435V14.5915H78.711V7.68579H78.5079ZM66.6469 8.50229C66.8369 8.50229 67.0101 8.57996 67.135 8.70572C67.2598 8.83084 67.3376 9.0034 67.3376 9.19287V13.0926C67.3376 13.282 67.2598 13.4546 67.135 13.5805C67.0101 13.7055 66.8369 13.7831 66.6469 13.7831H62.7472C62.5577 13.7831 62.385 13.7053 62.2594 13.5805C62.1345 13.4556 62.0568 13.2827 62.0568 13.0926V9.19287C62.0568 9.00275 62.1345 8.82986 62.2599 8.7054C62.385 8.58013 62.5577 8.50229 62.7472 8.50229H66.6469ZM76.4997 8.82499C76.7626 8.82499 77.0015 8.93207 77.1745 9.1048C77.3472 9.27753 77.4543 9.51637 77.4543 9.77961C77.4543 10.0424 77.3472 10.281 77.174 10.4544C77.0011 10.6271 76.7624 10.7342 76.4997 10.7342C76.2365 10.7342 75.9976 10.6271 75.8252 10.4541C75.6522 10.2814 75.5451 10.0425 75.5451 9.77961C75.5451 9.51637 75.6522 9.27753 75.8249 9.1048C75.9976 8.93207 76.2365 8.82499 76.4997 8.82499ZM76.4997 11.3402C76.8191 11.3402 77.1087 11.47 77.3181 11.6794C77.5276 11.8889 77.6574 12.1786 77.6574 12.4979C77.6574 12.8173 77.5276 13.1069 77.3181 13.3163C77.1087 13.5258 76.8191 13.6556 76.4997 13.6556C76.1804 13.6556 75.8907 13.5258 75.6812 13.3163C75.4718 13.1069 75.342 12.8173 75.342 12.4979C75.342 12.1786 75.4718 11.8889 75.6812 11.6794C75.8907 11.47 76.1804 11.3402 76.4997 11.3402ZM75.8821 11.8803C76.0398 11.7225 76.2586 11.6245 76.4997 11.6245C76.741 11.6245 76.9595 11.7225 77.1173 11.8803C77.2751 12.038 77.3731 12.2567 77.3731 12.4979C77.3731 12.7392 77.2751 12.9577 77.1173 13.1155C76.9595 13.2733 76.741 13.3712 76.4997 13.3712C76.2586 13.3712 76.0398 13.2733 75.8821 13.1155C75.7243 12.9577 75.6263 12.7392 75.6263 12.4979C75.6263 12.2567 75.7243 12.038 75.8821 11.8803ZM74.0167 8.62188C74.3362 8.62188 74.6257 8.75171 74.8352 8.96115C75.0446 9.17061 75.1744 9.46016 75.1744 9.77961C75.1744 10.0991 75.0448 10.3888 74.8353 10.5982C74.6259 10.8077 74.3362 10.9373 74.0167 10.9373C73.6973 10.9373 73.4077 10.8075 73.1983 10.5981C72.9888 10.3886 72.859 10.0991 72.859 9.77961C72.859 9.46033 72.9888 9.17061 73.1983 8.96115C73.4077 8.75171 73.6974 8.62188 74.0167 8.62188ZM73.3991 9.16199C73.5569 9.00422 73.7756 8.90623 74.0167 8.90623C74.258 8.90623 74.4766 9.00422 74.6343 9.16199C74.7921 9.31978 74.8901 9.5383 74.8901 9.77961C74.8901 10.0209 74.7923 10.2396 74.6345 10.3974C74.4767 10.5552 74.258 10.653 74.0167 10.653C73.7754 10.653 73.5569 10.555 73.3991 10.3972C73.2413 10.2395 73.1433 10.0209 73.1433 9.77961C73.1433 9.53848 73.2413 9.31978 73.3991 9.16199ZM74.0167 11.5432C74.2796 11.5432 74.5185 11.6503 74.6915 11.8231C74.8642 11.9958 74.9713 12.2346 74.9713 12.4979C74.9713 12.7606 74.8642 12.9993 74.691 13.1727C74.5182 13.3454 74.2795 13.4525 74.0167 13.4525C73.7535 13.4525 73.5146 13.3454 73.3422 13.1724C73.1692 12.9996 73.0621 12.7608 73.0621 12.4979C73.0621 12.2346 73.1692 11.9958 73.3419 11.8231C73.5146 11.6503 73.7535 11.5432 74.0167 11.5432ZM73.5427 12.0239C73.6638 11.9028 73.8316 11.8276 74.0167 11.8276C74.2023 11.8276 74.37 11.9025 74.4907 12.0234C74.6117 12.145 74.687 12.3128 74.687 12.4979C74.687 12.6834 74.6121 12.8511 74.4912 12.9718C74.37 13.0932 74.2023 13.1681 74.0167 13.1681C73.8316 13.1681 73.6638 13.0929 73.5427 12.9718C73.4214 12.8511 73.3464 12.6834 73.3464 12.4979C73.3464 12.3128 73.4217 12.145 73.5427 12.0239ZM76.0257 9.30564C76.1468 9.18457 76.3146 9.10934 76.4997 9.10934C76.6852 9.10934 76.8529 9.18424 76.9737 9.30514C77.0947 9.42668 77.1699 9.59454 77.1699 9.77961C77.1699 9.96516 77.095 10.1329 76.9742 10.2536C76.8529 10.375 76.6852 10.4499 76.4997 10.4499C76.3146 10.4499 76.1468 10.3746 76.0257 10.2536C75.9043 10.1329 75.8294 9.96516 75.8294 9.77961C75.8294 9.59454 75.9047 9.42668 76.0257 9.30564ZM62.7472 8.90851H66.6469C66.7249 8.90851 66.7962 8.94069 66.8477 8.9922C66.8994 9.04322 66.9314 9.11454 66.9314 9.19287V13.0926C66.9314 13.1709 66.8994 13.2422 66.8481 13.2936C66.7962 13.3448 66.7249 13.3769 66.6469 13.3769H62.7472C62.6689 13.3769 62.5977 13.3451 62.5467 13.294C62.4952 13.2417 62.463 13.1702 62.463 13.0926V9.19287C62.463 9.11519 62.4952 9.04369 62.5467 8.9922C62.5977 8.94036 62.6689 8.90851 62.7472 8.90851ZM72.2181 14.1853V8.09201H78.3048V14.1853H72.2181ZM71.8119 8.09201V14.1853H61.6498V8.09201H71.8119Z" fill="#20201F"/>
<path fill-rule="evenodd" clip-rule="evenodd" d="M22.4992 13.865C22.1556 13.3306 21.9434 12.6449 21.9434 12.042C21.9434 11.4486 22.147 10.9855 22.4802 10.6631H22.4812C22.6074 10.5413 22.7573 10.4469 22.916 10.3669H22.2305C21.8213 10.3669 21.5815 10.196 21.4422 9.92155C21.3152 9.67182 21.2838 9.34147 21.2838 8.97929V8.8298H21.2876C21.296 8.5279 21.3337 8.25231 21.4422 8.03768C21.5815 7.76339 21.8213 7.59326 22.2285 7.59326H25.5904C25.9994 7.59326 26.2389 7.76339 26.3773 8.03768C26.4851 8.25231 26.5239 8.5279 26.532 8.8298H26.5357V8.97929C26.5357 9.34147 26.5044 9.67182 26.3773 9.92155C26.2389 10.196 25.9994 10.3669 25.5904 10.3669H24.9036C25.0623 10.4469 25.2116 10.5403 25.3382 10.6631C25.6721 10.9855 25.8759 11.4486 25.8759 12.042C25.8759 12.6791 25.6383 13.4084 25.2596 13.9553C24.9101 14.46 24.4374 14.8142 23.9098 14.8142C23.351 14.8142 22.8534 14.4169 22.4992 13.865ZM24.0066 8.53342V8.53245H24.0061C23.8856 8.53245 23.7746 8.58281 23.6946 8.66261H23.6937C23.6141 8.74238 23.5647 8.85238 23.5647 8.97442C23.5647 9.09661 23.6141 9.20564 23.6937 9.28541V9.28688L23.6946 9.28671C23.7751 9.3665 23.8856 9.41572 24.0061 9.41572C24.1287 9.41572 24.2393 9.3665 24.3186 9.28688C24.3982 9.20709 24.4481 9.09661 24.4481 8.97442C24.4481 8.85238 24.3982 8.74335 24.3186 8.66261C24.2393 8.58281 24.1287 8.53342 24.0066 8.53342ZM24.0071 8.75944H24.0061C23.9467 8.75944 23.8929 8.78317 23.8547 8.8207V8.82217C23.8162 8.86067 23.7917 8.91526 23.7917 8.97442C23.7917 9.0347 23.8155 9.08994 23.8527 9.12732L23.8544 9.12829C23.8929 9.16582 23.9467 9.19003 24.0061 9.19003C24.0677 9.19003 24.1212 9.16582 24.1595 9.12829C24.1971 9.08994 24.2208 9.0347 24.2208 8.97442C24.2208 8.91429 24.1971 8.85953 24.1577 8.82217C24.1202 8.7822 24.0659 8.75797 24.0071 8.75797V8.75944ZM25.5904 10.0684C25.8663 10.0684 26.0239 9.96007 26.1118 9.78832C26.2005 9.61024 26.2304 9.36325 26.2356 9.0841V8.97929C26.2356 8.65773 26.2111 8.36948 26.1118 8.17107C26.0239 7.99916 25.866 7.89208 25.5904 7.89208H22.2285C21.9533 7.89208 21.7961 7.99916 21.7082 8.17107C21.6081 8.36948 21.5839 8.65773 21.5839 8.97929V9.09564C21.5901 9.36893 21.6195 9.61413 21.7077 9.78832C21.7961 9.96152 21.9546 10.0684 22.2305 10.0684H25.5904ZM25.015 13.7863C25.3611 13.2872 25.5776 12.6221 25.5776 12.042C25.5776 11.5351 25.4082 11.1451 25.1318 10.8775C24.8295 10.5845 24.394 10.4331 23.9098 10.4331C23.4248 10.4331 22.9898 10.5845 22.6866 10.8775C22.4108 11.1451 22.2418 11.5351 22.2418 12.042C22.2418 12.5899 22.4357 13.2157 22.7498 13.7048C23.0523 14.1761 23.4644 14.5156 23.9098 14.5156C24.3285 14.5156 24.7177 14.2137 25.015 13.7863Z" fill="#20201F"/>
<path fill-rule="evenodd" clip-rule="evenodd" d="M17.3123 24.7079L17.3112 20.9838C17.3112 19.7383 19.8892 19.8851 20.0613 19.8979C20.6581 19.8979 21.1995 20.1413 21.5912 20.5336C21.9824 20.9248 22.2248 21.4672 22.2248 22.0639V23.6442C22.2248 24.242 21.9828 24.7838 21.5912 25.1762C21.1995 25.5671 20.6571 25.8097 20.0603 25.8123C19.8853 25.8203 17.3112 25.9485 17.3123 24.7079ZM19.8235 22.8534H19.824C19.8253 22.9844 19.8768 23.1053 19.963 23.1915C20.0505 23.2764 20.17 23.3287 20.3003 23.3287C20.4319 23.3287 20.5515 23.276 20.6374 23.1897C20.7237 23.1036 20.7765 22.9844 20.7765 22.8529C20.7765 22.7223 20.7237 22.6028 20.6374 22.5167V22.5151H20.6365C20.5505 22.429 20.4319 22.3752 20.3003 22.3752C20.17 22.3752 20.0489 22.429 19.963 22.5151V22.5156C19.8768 22.6017 19.8227 22.7223 19.8227 22.8529L19.8235 22.8534ZM20.0665 22.8542C20.0665 22.9165 20.0921 22.9751 20.1352 23.017C20.1761 23.058 20.235 23.0843 20.3003 23.0843C20.3653 23.0843 20.4243 23.0591 20.4663 23.0182C20.5068 22.9759 20.5334 22.9186 20.5328 22.8529C20.5328 22.7873 20.5073 22.7306 20.4663 22.6885L20.4654 22.6875C20.4243 22.6457 20.3653 22.6202 20.3003 22.6202C20.2361 22.6202 20.1773 22.6474 20.1352 22.6878L20.1347 22.6888C20.0934 22.7299 20.0686 22.7886 20.0686 22.8519L20.0691 22.8542H20.0665ZM18.2198 22.8534C18.2198 23.4538 18.3987 23.9988 18.6858 24.3951C18.9861 24.8068 19.4056 25.0627 19.8705 25.0631C20.3372 25.0631 20.7565 24.8068 21.0575 24.3951C21.3462 23.9973 21.5235 23.452 21.5235 22.8515V22.8489C21.522 22.2499 21.3434 21.7061 21.0557 21.3086C20.7556 20.8987 20.3372 20.6432 19.8731 20.6429L19.8705 20.6432C19.4045 20.6432 18.9874 20.8987 18.6858 21.3119C18.3982 21.7072 18.2198 22.252 18.2203 22.8519L18.2198 22.8534ZM18.5556 22.8534C18.5566 23.3795 18.711 23.855 18.9591 24.1988C19.1963 24.5233 19.5195 24.7253 19.8705 24.7253C20.2238 24.7253 20.5469 24.5233 20.7851 24.1962C21.0323 23.8542 21.1862 23.3795 21.1862 22.8515V22.8505L21.1871 22.8489C21.1862 22.3222 21.0323 21.8487 20.7837 21.5067C20.5474 21.183 20.2238 20.9812 19.8731 20.9802L19.8705 20.9812C19.5189 20.9806 19.1954 21.1827 18.9591 21.5078C18.712 21.85 18.5566 22.3248 18.5571 22.8515V22.8534H18.5556ZM17.6485 24.7067C17.6485 25.6313 20.0418 25.4738 20.0479 25.4738L20.0603 25.4724C20.5646 25.4724 21.0209 25.2688 21.3527 24.9391C21.6834 24.6065 21.8875 24.1494 21.8875 23.6442V22.0655C21.8875 21.5585 21.6844 21.1006 21.3527 20.7695C21.0225 20.4388 20.5646 20.2352 20.0603 20.2343L20.0484 20.2338C20.0424 20.2338 17.6485 20.0641 17.6485 20.9848V24.7067Z" fill="#20201F"/>
<path fill-rule="evenodd" clip-rule="evenodd" d="M50.1989 15.966H31.0861V8.15528H50.1989V15.966ZM46.4746 11.3014C46.2647 11.3014 46.0745 11.3865 45.9371 11.5238C45.7998 11.6618 45.7146 11.8514 45.7146 12.0606C45.7146 12.2699 45.7998 12.4595 45.9371 12.5969C46.0753 12.7348 46.2651 12.8198 46.4746 12.8198C46.684 12.8198 46.8739 12.7348 47.0114 12.5975C47.1494 12.4602 47.2345 12.2703 47.2345 12.0606C47.2345 11.851 47.1494 11.661 47.012 11.5238C46.8746 11.3865 46.6845 11.3014 46.4746 11.3014ZM46.1519 11.7383C46.0696 11.8204 46.0186 11.9346 46.0186 12.0606C46.0186 12.1867 46.0696 12.3008 46.1519 12.3829C46.2341 12.4651 46.3484 12.5161 46.4746 12.5161C46.6007 12.5161 46.7151 12.4651 46.7971 12.3828C46.8795 12.3004 46.9306 12.1863 46.9306 12.0606C46.9306 11.9349 46.8795 11.8209 46.7971 11.7384C46.7146 11.6561 46.6004 11.6051 46.4746 11.6051C46.3488 11.6051 46.2346 11.6561 46.1519 11.7383ZM48.7563 8.37881L35.2644 8.68245C33.2381 8.68245 31.5788 10.0363 31.5788 12.0606C31.5788 14.0849 33.2381 15.4388 35.2644 15.4388L48.7563 15.7424C49.0177 15.7424 49.2554 15.6356 49.4273 15.4638C49.5992 15.2914 49.7062 15.054 49.7062 14.7935V9.32774C49.7062 9.06754 49.5994 8.83036 49.4273 8.65818C49.2542 8.48551 49.0168 8.37881 48.7563 8.37881ZM35.2644 9.06207C33.4457 9.06207 31.9588 10.2438 31.9588 12.0606C31.9588 13.8775 33.4457 15.0592 35.2644 15.0592L48.7563 15.3629C48.9127 15.3629 49.0553 15.2986 49.1593 15.1954C49.2623 15.0928 49.3262 14.9503 49.3262 14.7935V9.32774C49.3262 9.17093 49.2623 9.02866 49.1586 8.92509C49.0557 8.8223 48.9133 8.75838 48.7563 8.75838L35.2644 9.06207ZM31.046 16.3378H50.239C50.3344 16.3378 50.4215 16.3 50.4846 16.24C50.5481 16.1799 50.5874 16.0961 50.5874 16.0042V8.11704C50.5874 8.02517 50.5481 7.94133 50.4854 7.88122C50.4223 7.82094 50.3349 7.78345 50.239 7.78345H31.046C30.9502 7.78345 30.8627 7.82094 30.7996 7.88122C30.7372 7.9421 30.6976 8.02561 30.6976 8.11704V16.0042C30.6976 16.0956 30.737 16.179 30.7996 16.2394C30.8637 16.3002 30.9506 16.3378 31.046 16.3378Z" fill="#20201F"/>
<path d="M19.753 60.3528H19.3468V79.6694H19.753V60.3528Z" fill="#20201F"/>
<path d="M16.1571 65.5296V73.2192H14.3775V66.9577H12.8396V65.5296H16.1571Z" fill="#20201F"/>
<path d="M23.7035 62.8953V65.6416H23.4211V63.1464H22.7737V62.8953H23.7035ZM25.2153 62.8718C25.5788 62.8718 25.8574 62.9921 26.0509 63.2327C26.2445 63.4707 26.3413 63.8081 26.3413 64.2449C26.3413 64.5509 26.289 64.8099 26.1843 65.0217C26.0797 65.2336 25.9332 65.3944 25.7449 65.5043C25.5566 65.6115 25.3369 65.6651 25.0858 65.6651C24.8138 65.6651 24.5967 65.6154 24.4345 65.5161L24.5483 65.2885C24.6791 65.3748 24.857 65.418 25.0819 65.418C25.3853 65.418 25.6233 65.3225 25.7959 65.1316C25.9685 64.938 26.0549 64.6582 26.0549 64.292C26.0549 64.224 26.0509 64.1494 26.0431 64.0684C25.9751 64.2175 25.8665 64.3338 25.7175 64.4175C25.5684 64.4986 25.3971 64.5392 25.2035 64.5392C25.023 64.5392 24.8622 64.5052 24.7209 64.4372C24.5823 64.3692 24.4738 64.2737 24.3953 64.1508C24.3168 64.0252 24.2776 63.88 24.2776 63.7153C24.2776 63.5479 24.3182 63.4001 24.3992 63.2719C24.4803 63.1438 24.5915 63.0457 24.7327 62.9777C24.8766 62.9071 25.0374 62.8718 25.2153 62.8718ZM25.2467 64.2998C25.3853 64.2998 25.5069 64.2737 25.6115 64.2214C25.7188 64.1691 25.8025 64.0971 25.8626 64.0056C25.9228 63.9141 25.9529 63.812 25.9529 63.6996C25.9529 63.595 25.9241 63.4982 25.8665 63.4093C25.8116 63.3203 25.7292 63.2484 25.6194 63.1935C25.5095 63.1385 25.3787 63.1111 25.227 63.1111C25.0283 63.1111 24.8661 63.166 24.7406 63.2759C24.6176 63.3831 24.5562 63.527 24.5562 63.7074C24.5562 63.8879 24.6176 64.0317 24.7406 64.139C24.8661 64.2462 25.0348 64.2998 25.2467 64.2998ZM26.9205 65.6612C26.8629 65.6612 26.8132 65.6403 26.7714 65.5984C26.7321 65.5566 26.7125 65.5056 26.7125 65.4454C26.7125 65.3853 26.7321 65.3356 26.7714 65.2964C26.8132 65.2545 26.8629 65.2336 26.9205 65.2336C26.978 65.2336 27.0277 65.2545 27.0696 65.2964C27.1114 65.3356 27.1323 65.3853 27.1323 65.4454C27.1323 65.5056 27.1114 65.5566 27.0696 65.5984C27.0277 65.6403 26.978 65.6612 26.9205 65.6612ZM29.8246 64.9197H29.2753V65.6416H28.9928V64.9197H27.4431V64.7157L28.8987 62.8953H29.2125L27.808 64.6686H29.0007V64.0331H29.2753V64.6686H29.8246V64.9197ZM31.8267 62.8953V63.0954L30.6772 65.6416H30.3712L31.5011 63.1464H30.0887V63.6603H29.8101V62.8953H31.8267Z" fill="#20201F"/>
<path d="M25.163 70.5154H24.6137V71.2373H24.3313V70.5154H22.7816V70.3114L24.2371 68.491H24.551L23.1464 70.2643H24.3391V69.6288H24.6137V70.2643H25.163V70.5154ZM26.084 68.491V71.2373H25.8015V68.7421H25.1541V68.491H26.084ZM26.9523 71.2569C26.8947 71.2569 26.8451 71.236 26.8032 71.1941C26.764 71.1523 26.7444 71.1013 26.7444 71.0411C26.7444 70.981 26.764 70.9313 26.8032 70.8921C26.8451 70.8502 26.8947 70.8293 26.9523 70.8293C27.0098 70.8293 27.0595 70.8502 27.1014 70.8921C27.1432 70.9313 27.1641 70.981 27.1641 71.0411C27.1641 71.1013 27.1432 71.1523 27.1014 71.1941C27.0595 71.236 27.0098 71.2569 26.9523 71.2569ZM28.4271 68.4675C28.7907 68.4675 29.0692 68.5878 29.2628 68.8284C29.4563 69.0664 29.5531 69.4038 29.5531 69.8406C29.5531 70.1466 29.5008 70.4056 29.3962 70.6174C29.2915 70.8293 29.1451 70.9901 28.9567 71.1C28.7684 71.2072 28.5487 71.2608 28.2976 71.2608C28.0256 71.2608 27.8085 71.2111 27.6464 71.1118L27.7601 70.8842C27.8909 70.9705 28.0688 71.0137 28.2937 71.0137C28.5971 71.0137 28.8351 70.9182 29.0077 70.7273C29.1804 70.5337 29.2667 70.2539 29.2667 69.8877C29.2667 69.8197 29.2628 69.7452 29.2549 69.6641C29.1869 69.8132 29.0784 69.9295 28.9293 70.0132C28.7802 70.0943 28.6089 70.1349 28.4153 70.1349C28.2349 70.1349 28.074 70.1009 27.9328 70.0329C27.7941 69.9649 27.6856 69.8694 27.6071 69.7465C27.5287 69.6209 27.4894 69.4758 27.4894 69.311C27.4894 69.1436 27.53 68.9958 27.6111 68.8676C27.6921 68.7395 27.8033 68.6414 27.9445 68.5734C28.0884 68.5028 28.2492 68.4675 28.4271 68.4675ZM28.4585 69.8955C28.5971 69.8955 28.7187 69.8694 28.8234 69.8171C28.9306 69.7648 29.0143 69.6928 29.0744 69.6013C29.1346 69.5098 29.1647 69.4077 29.1647 69.2953C29.1647 69.1907 29.1359 69.0939 29.0784 69.005C29.0234 68.916 28.9411 68.8441 28.8312 68.7892C28.7213 68.7343 28.5906 68.7068 28.4389 68.7068C28.2401 68.7068 28.0779 68.7617 27.9524 68.8716C27.8295 68.9788 27.768 69.1227 27.768 69.3031C27.768 69.4836 27.8295 69.6275 27.9524 69.7347C28.0779 69.8419 28.2466 69.8955 28.4585 69.8955ZM30.8179 68.4675C31.1814 68.4675 31.46 68.5878 31.6535 68.8284C31.8471 69.0664 31.9438 69.4038 31.9438 69.8406C31.9438 70.1466 31.8915 70.4056 31.7869 70.6174C31.6823 70.8293 31.5358 70.9901 31.3475 71.1C31.1592 71.2072 30.9395 71.2608 30.6884 71.2608C30.4164 71.2608 30.1993 71.2111 30.0371 71.1118L30.1509 70.8842C30.2817 70.9705 30.4595 71.0137 30.6845 71.0137C30.9879 71.0137 31.2259 70.9182 31.3985 70.7273C31.5711 70.5337 31.6574 70.2539 31.6574 69.8877C31.6574 69.8197 31.6535 69.7452 31.6457 69.6641C31.5777 69.8132 31.4691 69.9295 31.32 70.0132C31.1709 70.0943 30.9996 70.1349 30.8061 70.1349C30.6256 70.1349 30.4648 70.1009 30.3235 70.0329C30.1849 69.9649 30.0764 69.8694 29.9979 69.7465C29.9194 69.6209 29.8802 69.4758 29.8802 69.311C29.8802 69.1436 29.9207 68.9958 30.0018 68.8676C30.0829 68.7395 30.194 68.6414 30.3353 68.5734C30.4791 68.5028 30.64 68.4675 30.8179 68.4675ZM30.8492 69.8955C30.9879 69.8955 31.1095 69.8694 31.2141 69.8171C31.3213 69.7648 31.405 69.6928 31.4652 69.6013C31.5253 69.5098 31.5554 69.4077 31.5554 69.2953C31.5554 69.1907 31.5267 69.0939 31.4691 69.005C31.4142 68.916 31.3318 68.8441 31.2219 68.7892C31.1121 68.7343 30.9813 68.7068 30.8296 68.7068C30.6308 68.7068 30.4687 68.7617 30.3431 68.8716C30.2202 68.9788 30.1587 69.1227 30.1587 69.3031C30.1587 69.4836 30.2202 69.6275 30.3431 69.7347C30.4687 69.8419 30.6374 69.8955 30.8492 69.8955Z" fill="#20201F"/>
<path d="M24.4507 76.1114H23.9015V76.8333H23.619V76.1114H22.0693V75.9074L23.5248 74.087H23.8387L22.4341 75.8603H23.6268V75.2247H23.9015V75.8603H24.4507V76.1114ZM27.0445 76.1114H26.4953V76.8333H26.2128V76.1114H24.6631V75.9074L26.1186 74.087H26.4325L25.028 75.8603H26.2206V75.2247H26.4953V75.8603H27.0445V76.1114ZM27.5925 76.8529C27.5349 76.8529 27.4852 76.8319 27.4434 76.7901C27.4041 76.7482 27.3845 76.6972 27.3845 76.6371C27.3845 76.5769 27.4041 76.5272 27.4434 76.488C27.4852 76.4462 27.5349 76.4252 27.5925 76.4252C27.65 76.4252 27.6997 76.4462 27.7415 76.488C27.7834 76.5272 27.8043 76.5769 27.8043 76.6371C27.8043 76.6972 27.7834 76.7482 27.7415 76.7901C27.6997 76.8319 27.65 76.8529 27.5925 76.8529ZM30.1256 76.5822V76.8333H28.1993V76.6332L29.341 75.515C29.4848 75.3738 29.5816 75.2522 29.6313 75.1502C29.6836 75.0455 29.7098 74.9409 29.7098 74.8363C29.7098 74.6741 29.6535 74.5486 29.5411 74.4597C29.4312 74.3681 29.273 74.3224 29.0664 74.3224C28.7447 74.3224 28.4949 74.4244 28.317 74.6284L28.1169 74.4557C28.2242 74.3302 28.3602 74.2334 28.5249 74.1654C28.6923 74.0974 28.8807 74.0634 29.0899 74.0634C29.3698 74.0634 29.5908 74.1301 29.7529 74.2635C29.9177 74.3943 30.0001 74.5748 30.0001 74.8049C30.0001 74.9462 29.9687 75.0822 29.9059 75.2129C29.8432 75.3437 29.7242 75.4941 29.5489 75.6641L28.6152 76.5822H30.1256ZM31.5594 76.8568C31.3476 76.8568 31.1579 76.8006 30.9905 76.6881C30.8258 76.5756 30.6963 76.4148 30.6021 76.2055C30.5106 75.9937 30.4648 75.7452 30.4648 75.4601C30.4648 75.175 30.5106 74.9278 30.6021 74.7186C30.6963 74.5067 30.8258 74.3446 30.9905 74.2321C31.1579 74.1197 31.3476 74.0634 31.5594 74.0634C31.7713 74.0634 31.9596 74.1197 32.1244 74.2321C32.2918 74.3446 32.4225 74.5067 32.5167 74.7186C32.6109 74.9278 32.6579 75.175 32.6579 75.4601C32.6579 75.7452 32.6109 75.9937 32.5167 76.2055C32.4225 76.4148 32.2918 76.5756 32.1244 76.6881C31.9596 76.8006 31.7713 76.8568 31.5594 76.8568ZM31.5594 76.5979C31.719 76.5979 31.8589 76.5534 31.9792 76.4645C32.1021 76.3755 32.1976 76.2461 32.2656 76.0761C32.3336 75.9061 32.3676 75.7007 32.3676 75.4601C32.3676 75.2195 32.3336 75.0142 32.2656 74.8441C32.1976 74.6741 32.1021 74.5447 31.9792 74.4557C31.8589 74.3668 31.719 74.3224 31.5594 74.3224C31.3999 74.3224 31.2586 74.3668 31.1357 74.4557C31.0154 74.5447 30.9212 74.6741 30.8532 74.8441C30.7852 75.0142 30.7512 75.2195 30.7512 75.4601C30.7512 75.7007 30.7852 75.9061 30.8532 76.0761C30.9212 76.2461 31.0154 76.3755 31.1357 76.4645C31.2586 76.5534 31.3999 76.5979 31.5594 76.5979Z" fill="#20201F"/>
<path d="M44.4625 64.4027H43.3796V66.0112H42.7715V63.9005H44.4625V64.4027ZM45.6874 66.0426C45.465 66.0426 45.265 65.9968 45.0871 65.9053C44.9119 65.8111 44.7745 65.6817 44.6752 65.5169C44.5758 65.3521 44.5261 65.1651 44.5261 64.9559C44.5261 64.7466 44.5758 64.5596 44.6752 64.3948C44.7745 64.2301 44.9119 64.1019 45.0871 64.0104C45.265 63.9162 45.465 63.8691 45.6874 63.8691C45.9097 63.8691 46.1085 63.9162 46.2837 64.0104C46.4589 64.1019 46.5963 64.2301 46.6956 64.3948C46.795 64.5596 46.8447 64.7466 46.8447 64.9559C46.8447 65.1651 46.795 65.3521 46.6956 65.5169C46.5963 65.6817 46.4589 65.8111 46.2837 65.9053C46.1085 65.9968 45.9097 66.0426 45.6874 66.0426ZM45.6874 65.5404C45.8443 65.5404 45.9725 65.4881 46.0718 65.3835C46.1739 65.2763 46.2249 65.1337 46.2249 64.9559C46.2249 64.778 46.1739 64.6368 46.0718 64.5322C45.9725 64.4249 45.8443 64.3713 45.6874 64.3713C45.5304 64.3713 45.401 64.4249 45.299 64.5322C45.197 64.6368 45.146 64.778 45.146 64.9559C45.146 65.1337 45.197 65.2763 45.299 65.3835C45.401 65.4881 45.5304 65.5404 45.6874 65.5404ZM48.27 66.0426C48.0451 66.0426 47.8424 65.9968 47.6619 65.9053C47.4841 65.8111 47.3442 65.6817 47.2421 65.5169C47.1428 65.3521 47.0931 65.1651 47.0931 64.9559C47.0931 64.7466 47.1428 64.5596 47.2421 64.3948C47.3442 64.2301 47.4841 64.1019 47.6619 64.0104C47.8424 63.9162 48.0451 63.8691 48.27 63.8691C48.4924 63.8691 48.6859 63.9162 48.8507 64.0104C49.0181 64.1019 49.1397 64.234 49.2156 64.4066L48.7408 64.6616C48.631 64.4681 48.4728 64.3713 48.2661 64.3713C48.1066 64.3713 47.9745 64.4236 47.8699 64.5282C47.7653 64.6329 47.7129 64.7754 47.7129 64.9559C47.7129 65.1363 47.7653 65.2789 47.8699 65.3835C47.9745 65.4881 48.1066 65.5404 48.2661 65.5404C48.4754 65.5404 48.6336 65.4437 48.7408 65.2501L49.2156 65.5091C49.1397 65.6764 49.0181 65.8072 48.8507 65.9014C48.6859 65.9955 48.4924 66.0426 48.27 66.0426ZM51.3531 64.4027H50.6391V66.0112H50.031V64.4027H49.3169V63.9005H51.3531V64.4027ZM51.6794 63.9005H52.2875V65.156L53.3154 63.9005H53.8764V66.0112H53.2683V64.7558L52.2443 66.0112H51.6794V63.9005ZM54.4648 63.9005H55.0729V64.7244H55.9909V63.9005H56.6029V66.0112H55.9909V65.2227H55.0729V66.0112H54.4648V63.9005ZM58.0088 63.8691C58.3357 63.8691 58.5868 63.9476 58.7621 64.1045C58.9373 64.2588 59.0249 64.4929 59.0249 64.8068V66.0112H58.4521V65.7484C58.337 65.9445 58.1226 66.0426 57.8087 66.0426C57.6465 66.0426 57.5053 66.0152 57.385 65.9602C57.2673 65.9053 57.1771 65.8295 57.1143 65.7327C57.0515 65.6359 57.0201 65.5261 57.0201 65.4031C57.0201 65.207 57.0934 65.0526 57.2398 64.9402C57.3889 64.8277 57.6178 64.7715 57.9264 64.7715H58.4129C58.4129 64.6381 58.3723 64.5361 58.2913 64.4655C58.2102 64.3922 58.0886 64.3556 57.9264 64.3556C57.8139 64.3556 57.7028 64.3739 57.5929 64.4105C57.4857 64.4445 57.3941 64.4916 57.3183 64.5518L57.0986 64.1241C57.2137 64.0431 57.351 63.9803 57.5105 63.9358C57.6727 63.8914 57.8388 63.8691 58.0088 63.8691ZM57.9617 65.6307C58.0663 65.6307 58.1592 65.6071 58.2403 65.5601C58.3213 65.5104 58.3789 65.4384 58.4129 65.3443V65.1285H57.9931C57.742 65.1285 57.6165 65.2109 57.6165 65.3757C57.6165 65.4541 57.6465 65.5169 57.7067 65.564C57.7695 65.6084 57.8545 65.6307 57.9617 65.6307ZM61.4319 63.9005V66.0112H60.8866V65.407H60.4354L60.0352 66.0112H59.384L59.8665 65.3207C59.7201 65.2632 59.6076 65.1808 59.5291 65.0736C59.4533 64.9637 59.4153 64.8316 59.4153 64.6773C59.4153 64.4288 59.5043 64.2379 59.6821 64.1045C59.8626 63.9685 60.1098 63.9005 60.4236 63.9005H61.4319ZM60.4354 64.3988C60.3046 64.3988 60.2052 64.4223 60.1372 64.4694C60.0718 64.5165 60.0391 64.5923 60.0391 64.6969C60.0391 64.8016 60.0705 64.8787 60.1333 64.9284C60.1987 64.9755 60.2968 64.999 60.4276 64.999H60.8866V64.3988H60.4354Z" fill="black"/>
<path d="M48.3466 68.8604V71.6067H47.7111V69.3704H47.1618V68.8604H48.3466ZM49.7888 68.8133C50.1733 68.8133 50.4741 68.931 50.6912 69.1664C50.9083 69.3992 51.0168 69.7353 51.0168 70.1747C51.0168 70.4859 50.958 70.7527 50.8403 70.975C50.7252 71.1974 50.5617 71.3661 50.3499 71.4811C50.138 71.5962 49.8935 71.6538 49.6162 71.6538C49.4697 71.6538 49.3298 71.6381 49.1964 71.6067C49.063 71.5727 48.9493 71.5256 48.8551 71.4655L49.0905 70.9986C49.2239 71.0901 49.3952 71.1359 49.6044 71.1359C49.8372 71.1359 50.0216 71.0679 50.1576 70.9319C50.2936 70.7933 50.3669 70.5945 50.3773 70.3355C50.2126 70.5003 49.985 70.5827 49.6947 70.5827C49.5194 70.5827 49.3599 70.5474 49.216 70.4768C49.0722 70.4062 48.9584 70.3068 48.8747 70.1786C48.791 70.0478 48.7492 69.8974 48.7492 69.7274C48.7492 69.5444 48.7949 69.3835 48.8865 69.2449C48.978 69.1063 49.1023 69.0003 49.2592 68.9271C49.4187 68.8512 49.5953 68.8133 49.7888 68.8133ZM49.8359 70.108C49.9745 70.108 50.087 70.0701 50.1733 69.9942C50.2623 69.9158 50.3067 69.8164 50.3067 69.6961C50.3067 69.5757 50.2636 69.4777 50.1772 69.4018C50.0936 69.326 49.9772 69.288 49.8281 69.288C49.6921 69.288 49.5809 69.3246 49.4946 69.3979C49.4109 69.4711 49.3691 69.5705 49.3691 69.6961C49.3691 69.8216 49.4109 69.9223 49.4946 69.9981C49.5809 70.0714 49.6947 70.108 49.8359 70.108ZM51.6329 71.6381C51.5256 71.6381 51.4354 71.6015 51.3622 71.5282C51.2889 71.455 51.2523 71.3634 51.2523 71.2536C51.2523 71.1411 51.2889 71.0509 51.3622 70.9829C51.4354 70.9123 51.5256 70.877 51.6329 70.877C51.7401 70.877 51.8303 70.9123 51.9036 70.9829C51.9768 71.0509 52.0134 71.1411 52.0134 71.2536C52.0134 71.3634 51.9768 71.455 51.9036 71.5282C51.8303 71.6015 51.7401 71.6381 51.6329 71.6381ZM54.8136 71.03H54.3663V71.6067H53.7464V71.03H52.2673V70.6023L53.562 68.8604H54.229L53.0285 70.5121H53.766V69.9981H54.3663V70.5121H54.8136V71.03ZM56.9889 68.8604V69.2723L55.9688 71.6067H55.2783L56.263 69.3783H55.3528V69.8255H54.7879V68.8604H56.9889Z" fill="black"/>
<path d="M64.6406 27.8239H64.3228V28.6243H63.7107V26.5135H64.3228V27.3335H64.6523L65.2251 26.5135H65.8764L65.1388 27.5257L65.9274 28.6243H65.2055L64.6406 27.8239ZM68.2238 26.5135L67.2705 28.7537C67.1737 28.997 67.0534 29.1683 66.9095 29.2677C66.7683 29.3671 66.597 29.4168 66.3956 29.4168C66.2857 29.4168 66.1772 29.3998 66.0699 29.3658C65.9627 29.3318 65.8751 29.2847 65.8071 29.2245L66.0307 28.789C66.0778 28.8309 66.1314 28.8636 66.1915 28.8871C66.2543 28.9107 66.3158 28.9224 66.3759 28.9224C66.4596 28.9224 66.5276 28.9015 66.58 28.8597C66.6323 28.8204 66.6793 28.7537 66.7212 28.6596L66.729 28.64L65.8149 26.5135H66.4466L67.039 27.9455L67.6353 26.5135H68.2238ZM69.7264 28.6243L69.2634 27.9769L68.7848 28.6243H68.1178L68.9299 27.5611L68.1453 26.5135H68.8319L69.2791 27.1295L69.7381 26.5135H70.3894L69.6047 27.5454L70.4208 28.6243H69.7264ZM70.7221 26.5135H71.3302V27.3374H72.2482V26.5135H72.8603V28.6243H72.2482V27.8357H71.3302V28.6243H70.7221V26.5135ZM75.3215 26.5135V28.6243H74.7761V28.0201H74.325L73.9248 28.6243H73.2735L73.7561 27.9338C73.6096 27.8762 73.4972 27.7938 73.4187 27.6866C73.3428 27.5768 73.3049 27.4447 73.3049 27.2904C73.3049 27.0419 73.3938 26.8509 73.5717 26.7176C73.7522 26.5815 73.9993 26.5135 74.3132 26.5135H75.3215ZM74.325 27.0118C74.1942 27.0118 74.0948 27.0353 74.0268 27.0824C73.9614 27.1295 73.9287 27.2053 73.9287 27.31C73.9287 27.4146 73.9601 27.4917 74.0229 27.5414C74.0883 27.5885 74.1863 27.6121 74.3171 27.6121H74.7761V27.0118H74.325Z" fill="#20201F"/>
<path d="M66.7239 31.4737V34.22H66.0883V31.9837H65.5391V31.4737H66.7239ZM68.2603 31.4737V34.22H67.6247V31.9837H67.0754V31.4737H68.2603ZM69.0983 34.2514C68.991 34.2514 68.9008 34.2147 68.8276 34.1415C68.7543 34.0683 68.7177 33.9767 68.7177 33.8669C68.7177 33.7544 68.7543 33.6642 68.8276 33.5962C68.9008 33.5256 68.991 33.4902 69.0983 33.4902C69.2055 33.4902 69.2957 33.5256 69.369 33.5962C69.4422 33.6642 69.4788 33.7544 69.4788 33.8669C69.4788 33.9767 69.4422 34.0683 69.369 34.1415C69.2957 34.2147 69.2055 34.2514 69.0983 34.2514ZM70.7621 31.4737V34.22H70.1265V31.9837H69.5773V31.4737H70.7621ZM73.3891 31.4737V31.8856L72.3691 34.22H71.6786L72.6633 31.9915H71.7531V32.4388H71.1882V31.4737H73.3891Z" fill="#20201F"/>
<path d="M28.0659 38.5771L27.4916 37.8205L26.9138 38.5771H26.6386L27.354 37.6485L26.673 36.7681H26.9482L27.4916 37.4766L28.035 36.7681H28.3033L27.6223 37.6485L28.3445 38.5771H28.0659ZM29.4273 38.5943C29.253 38.5943 29.096 38.5554 28.9561 38.4774C28.8162 38.3972 28.7062 38.2871 28.6259 38.1472C28.5457 38.0074 28.5055 37.8492 28.5055 37.6726C28.5055 37.4961 28.5457 37.3378 28.6259 37.198C28.7062 37.0581 28.8162 36.9492 28.9561 36.8712C29.096 36.7933 29.253 36.7543 29.4273 36.7543C29.6015 36.7543 29.7586 36.7933 29.8985 36.8712C30.0383 36.9492 30.1472 37.0581 30.2252 37.198C30.3055 37.3378 30.3456 37.4961 30.3456 37.6726C30.3456 37.8492 30.3055 38.0074 30.2252 38.1472C30.1472 38.2871 30.0383 38.3972 29.8985 38.4774C29.7586 38.5554 29.6015 38.5943 29.4273 38.5943ZM29.4273 38.3777C29.5557 38.3777 29.6703 38.349 29.7712 38.2917C29.8744 38.2321 29.9546 38.1484 30.012 38.0406C30.0693 37.9328 30.0979 37.8102 30.0979 37.6726C30.0979 37.535 30.0693 37.4124 30.012 37.3046C29.9546 37.1968 29.8744 37.1143 29.7712 37.057C29.6703 36.9974 29.5557 36.9675 29.4273 36.9675C29.2989 36.9675 29.1831 36.9974 29.0799 37.057C28.979 37.1143 28.8988 37.1968 28.8392 37.3046C28.7818 37.4124 28.7532 37.535 28.7532 37.6726C28.7532 37.8102 28.7818 37.9328 28.8392 38.0406C28.8988 38.1484 28.979 38.2321 29.0799 38.2917C29.1831 38.349 29.2989 38.3777 29.4273 38.3777ZM32.3363 36.7681V38.5771H32.0921V36.9847H31.2254L31.2013 37.4319C31.183 37.8079 31.1394 38.0968 31.0706 38.2986C31.0018 38.5003 30.8792 38.6012 30.7026 38.6012C30.6545 38.6012 30.596 38.5921 30.5272 38.5737L30.5444 38.3639C30.5857 38.3731 30.6143 38.3777 30.6304 38.3777C30.7244 38.3777 30.7955 38.3341 30.8436 38.247C30.8918 38.1598 30.9239 38.0521 30.9399 37.9237C30.956 37.7953 30.9697 37.6256 30.9812 37.4147L31.0122 36.7681H32.3363ZM34.5094 36.7681V38.5771H34.2652V36.9847H33.3985L33.3744 37.4319C33.3561 37.8079 33.3125 38.0968 33.2437 38.2986C33.1749 38.5003 33.0523 38.6012 32.8757 38.6012C32.8276 38.6012 32.7691 38.5921 32.7003 38.5737L32.7175 38.3639C32.7588 38.3731 32.7874 38.3777 32.8035 38.3777C32.8975 38.3777 32.9686 38.3341 33.0167 38.247C33.0649 38.1598 33.097 38.0521 33.113 37.9237C33.1291 37.7953 33.1428 37.6256 33.1543 37.4147L33.1853 36.7681H34.5094Z" fill="#20201F"/>
<path d="M28.3446 42.7315C28.5028 42.7315 28.6427 42.7613 28.7642 42.821C28.888 42.8806 28.9843 42.9654 29.0531 43.0755C29.1219 43.1832 29.1563 43.3093 29.1563 43.4538C29.1563 43.6005 29.1207 43.7301 29.0496 43.8424C28.9786 43.9548 28.88 44.0419 28.7539 44.1038C28.63 44.1634 28.4902 44.1932 28.3343 44.1932C28.0156 44.1932 27.7714 44.0889 27.6017 43.8803C27.432 43.6693 27.3472 43.3724 27.3472 42.9895C27.3472 42.7212 27.393 42.4942 27.4848 42.3085C27.5765 42.1228 27.7049 41.9829 27.87 41.8889C28.035 41.7926 28.2276 41.7444 28.4478 41.7444C28.6862 41.7444 28.8765 41.788 29.0187 41.8751L28.919 42.0746C28.8043 41.999 28.6484 41.9611 28.4512 41.9611C28.1852 41.9611 27.9766 42.046 27.8252 42.2156C27.6739 42.383 27.5983 42.6272 27.5983 42.9482C27.5983 43.0055 27.6017 43.0709 27.6086 43.1442C27.6682 43.0136 27.7633 42.9127 27.894 42.8416C28.0247 42.7682 28.1749 42.7315 28.3446 42.7315ZM28.3239 43.9834C28.4982 43.9834 28.6392 43.9364 28.747 43.8424C28.857 43.7461 28.9121 43.6189 28.9121 43.4607C28.9121 43.3025 28.857 43.1763 28.747 43.0823C28.6392 42.9883 28.4925 42.9413 28.3068 42.9413C28.1852 42.9413 28.0775 42.9643 27.9835 43.0101C27.8917 43.056 27.8195 43.119 27.7668 43.1993C27.714 43.2795 27.6877 43.369 27.6877 43.4675C27.6877 43.5593 27.7117 43.6441 27.7599 43.7221C27.8103 43.8 27.8837 43.8631 27.98 43.9112C28.0763 43.9594 28.191 43.9834 28.3239 43.9834ZM29.6623 44.1898C29.6119 44.1898 29.5683 44.1715 29.5316 44.1348C29.4972 44.0981 29.48 44.0534 29.48 44.0006C29.48 43.9479 29.4972 43.9043 29.5316 43.8699C29.5683 43.8333 29.6119 43.8149 29.6623 43.8149C29.7128 43.8149 29.7563 43.8333 29.793 43.8699C29.8297 43.9043 29.8481 43.9479 29.8481 44.0006C29.8481 44.0534 29.8297 44.0981 29.793 44.1348C29.7563 44.1715 29.7128 44.1898 29.6623 44.1898ZM31.0576 42.7969C31.3098 42.8106 31.5013 42.8794 31.632 43.0032C31.765 43.1248 31.8314 43.2841 31.8314 43.4813C31.8314 43.6189 31.7982 43.7415 31.7317 43.8493C31.6652 43.9548 31.5666 44.0385 31.4359 44.1004C31.3052 44.1623 31.1459 44.1932 30.9579 44.1932C30.7836 44.1932 30.6185 44.1657 30.4626 44.1107C30.309 44.0534 30.1852 43.9777 30.0911 43.8837L30.2115 43.6877C30.2918 43.7702 30.3984 43.8378 30.5314 43.8906C30.6644 43.941 30.8065 43.9662 30.9579 43.9662C31.155 43.9662 31.3075 43.9238 31.4153 43.839C31.5231 43.7519 31.5769 43.6326 31.5769 43.4813C31.5769 43.3323 31.5231 43.2153 31.4153 43.1305C31.3075 43.0457 31.1447 43.0032 30.9269 43.0032H30.7549V42.821L31.4222 41.9852H30.1909V41.7651H31.7386V41.9405L31.0576 42.7969ZM34.2268 43.5398H33.7453V44.1726H33.4976V43.5398H32.1391V43.3609L33.4151 41.7651H33.6902L32.459 43.3197H33.5045V42.7625H33.7453V43.3197H34.2268V43.5398Z" fill="#20201F"/>
<path d="M82.0247 61.9987V63.8079H81.7805V62.2154H80.9138L80.8897 62.6625C80.8713 63.0386 80.8278 63.3275 80.759 63.5293C80.6902 63.731 80.5675 63.8319 80.391 63.8319C80.3428 63.8319 80.2843 63.8228 80.2156 63.8044L80.2328 63.5946C80.274 63.6038 80.3027 63.6084 80.3187 63.6084C80.4128 63.6084 80.4838 63.5648 80.532 63.4777C80.5801 63.3905 80.6122 63.2828 80.6283 63.1544C80.6443 63.026 80.6581 62.8563 80.6696 62.6453L80.7005 61.9987H82.0247ZM83.4652 63.8251C83.291 63.8251 83.1339 63.7861 82.994 63.7081C82.8542 63.6279 82.7441 63.5178 82.6638 63.3779C82.5836 63.2381 82.5435 63.0799 82.5435 62.9033C82.5435 62.7267 82.5836 62.5685 82.6638 62.4287C82.7441 62.2888 82.8542 62.1799 82.994 62.1019C83.1339 62.024 83.291 61.985 83.4652 61.985C83.6395 61.985 83.7965 62.024 83.9364 62.1019C84.0763 62.1799 84.1852 62.2888 84.2632 62.4287C84.3434 62.5685 84.3835 62.7267 84.3835 62.9033C84.3835 63.0799 84.3434 63.2381 84.2632 63.3779C84.1852 63.5178 84.0763 63.6279 83.9364 63.7081C83.7965 63.7861 83.6395 63.8251 83.4652 63.8251ZM83.4652 63.6084C83.5936 63.6084 83.7083 63.5797 83.8092 63.5224C83.9123 63.4628 83.9926 63.3791 84.0499 63.2713C84.1072 63.1635 84.1359 63.0409 84.1359 62.9033C84.1359 62.7657 84.1072 62.6431 84.0499 62.5353C83.9926 62.4275 83.9123 62.345 83.8092 62.2877C83.7083 62.228 83.5936 62.1982 83.4652 62.1982C83.3368 62.1982 83.221 62.228 83.1178 62.2877C83.0169 62.345 82.9367 62.4275 82.8771 62.5353C82.8198 62.6431 82.7911 62.7657 82.7911 62.9033C82.7911 63.0409 82.8198 63.1635 82.8771 63.2713C82.9367 63.3791 83.0169 63.4628 83.1178 63.5224C83.221 63.5797 83.3368 63.6084 83.4652 63.6084ZM86.6598 63.5946V64.2447H86.4293V63.8079H84.8094V64.2447H84.5789V63.5946H84.6821C84.8036 63.5877 84.8862 63.4983 84.9297 63.3263C84.9733 63.1544 85.0031 62.9136 85.0192 62.6041L85.0432 61.9987H86.3777V63.5946H86.6598ZM85.2427 62.6178C85.2313 62.8746 85.2095 63.0867 85.1774 63.2541C85.1453 63.4192 85.088 63.5327 85.0054 63.5946H86.1335V62.2154H85.2634L85.2427 62.6178ZM88.7212 63.003H88.3291V63.8079H88.0849V63.003H87.6928L87.1391 63.8079H86.8467L87.4968 62.8758L86.8983 61.9987H87.1632L87.6928 62.7932H88.0849V61.9987H88.3291V62.7932H88.7212L89.2543 61.9987H89.5192L88.9207 62.8792L89.5707 63.8079H89.2784L88.7212 63.003ZM89.9772 61.9987H90.2214V63.4364L91.4286 61.9987H91.6453V63.8079H91.4011V62.3702L90.1973 63.8079H89.9772V61.9987ZM93.7346 61.9987V63.8079H93.5111V63.2094H92.9436H92.8748L92.4552 63.8079H92.1903L92.6409 63.175C92.501 63.136 92.3933 63.0695 92.3176 62.9755C92.2419 62.8815 92.2041 62.7623 92.2041 62.6178C92.2041 62.4161 92.2729 62.2624 92.4105 62.157C92.548 62.0515 92.7361 61.9987 92.9745 61.9987H93.7346ZM92.4517 62.6247C92.4517 62.893 92.6226 63.0271 92.9642 63.0271H93.5111V62.2154H92.9814C92.6283 62.2154 92.4517 62.3519 92.4517 62.6247Z" fill="#20201F"/>
<path d="M86.1279 68.7707H85.6464V69.4036H85.3987V68.7707H84.0402V68.5919L85.3162 66.996H85.5913L84.36 68.5506H85.4056V67.9934H85.6464V68.5506H86.1279V68.7707ZM86.6082 69.4208C86.5578 69.4208 86.5142 69.4024 86.4775 69.3657C86.4431 69.329 86.4259 69.2843 86.4259 69.2316C86.4259 69.1789 86.4431 69.1353 86.4775 69.1009C86.5142 69.0642 86.5578 69.0459 86.6082 69.0459C86.6587 69.0459 86.7022 69.0642 86.7389 69.1009C86.7756 69.1353 86.794 69.1789 86.794 69.2316C86.794 69.2843 86.7756 69.329 86.7389 69.3657C86.7022 69.4024 86.6587 69.4208 86.6082 69.4208ZM89.1541 68.7707H88.6726V69.4036H88.425V68.7707H87.0664V68.5919L88.3424 66.996H88.6176L87.3863 68.5506H88.4319V67.9934H88.6726V68.5506H89.1541V68.7707ZM89.9615 66.996V69.4036H89.7139V67.2161H89.1464V66.996H89.9615Z" fill="#20201F"/>
<path d="M38.6886 22.3381C39.0372 22.3381 39.2905 22.4012 39.4487 22.5273C39.6092 22.6511 39.6895 22.8253 39.6895 23.05C39.6895 23.1899 39.6562 23.3149 39.5897 23.4249C39.5255 23.535 39.4281 23.6221 39.2974 23.6863C39.1667 23.7482 39.0062 23.7792 38.8159 23.7792C38.6439 23.7792 38.48 23.7517 38.3241 23.6966C38.1704 23.6393 38.0466 23.5636 37.9526 23.4696L38.073 23.2736C38.1532 23.3561 38.2587 23.4238 38.3894 23.4765C38.5201 23.527 38.6611 23.5522 38.8125 23.5522C39.0119 23.5522 39.1656 23.5075 39.2733 23.4181C39.3834 23.3286 39.4384 23.2094 39.4384 23.0604C39.4384 22.8953 39.3765 22.7703 39.2527 22.6855C39.1312 22.6006 38.9248 22.5582 38.6336 22.5582H38.1211L38.245 21.351H39.5622V21.5711H38.4616L38.3791 22.3381H38.6886ZM40.1896 23.7757C40.1391 23.7757 40.0956 23.7574 40.0589 23.7207C40.0245 23.684 40.0073 23.6393 40.0073 23.5866C40.0073 23.5338 40.0245 23.4903 40.0589 23.4559C40.0956 23.4192 40.1391 23.4009 40.1896 23.4009C40.24 23.4009 40.2836 23.4192 40.3203 23.4559C40.357 23.4903 40.3753 23.5338 40.3753 23.5866C40.3753 23.6393 40.357 23.684 40.3203 23.7207C40.2836 23.7574 40.24 23.7757 40.1896 23.7757ZM41.6553 23.7792C41.4696 23.7792 41.3034 23.7299 41.1566 23.6313C41.0122 23.5327 40.8987 23.3917 40.8161 23.2083C40.7359 23.0225 40.6958 22.8047 40.6958 22.5548C40.6958 22.3049 40.7359 22.0882 40.8161 21.9047C40.8987 21.719 41.0122 21.5769 41.1566 21.4783C41.3034 21.3797 41.4696 21.3304 41.6553 21.3304C41.841 21.3304 42.0061 21.3797 42.1506 21.4783C42.2973 21.5769 42.412 21.719 42.4945 21.9047C42.5771 22.0882 42.6183 22.3049 42.6183 22.5548C42.6183 22.8047 42.5771 23.0225 42.4945 23.2083C42.412 23.3917 42.2973 23.5327 42.1506 23.6313C42.0061 23.7299 41.841 23.7792 41.6553 23.7792ZM41.6553 23.5522C41.7952 23.5522 41.9179 23.5132 42.0233 23.4352C42.1311 23.3573 42.2148 23.2438 42.2744 23.0948C42.334 22.9457 42.3638 22.7657 42.3638 22.5548C42.3638 22.3438 42.334 22.1638 42.2744 22.0148C42.2148 21.8658 42.1311 21.7523 42.0233 21.6743C41.9179 21.5964 41.7952 21.5574 41.6553 21.5574C41.5155 21.5574 41.3916 21.5964 41.2839 21.6743C41.1784 21.7523 41.0959 21.8658 41.0362 22.0148C40.9766 22.1638 40.9468 22.3438 40.9468 22.5548C40.9468 22.7657 40.9766 22.9457 41.0362 23.0948C41.0959 23.2438 41.1784 23.3573 41.2839 23.4352C41.3916 23.5132 41.5155 23.5522 41.6553 23.5522ZM43.6335 21.351V23.7585H43.3858V21.5711H42.8184V21.351H43.6335Z" fill="#20201F"/>
</g>
<defs>
<clipPath id="clip0_2561_22764">
<rect width="94.6883" height="91.3707" fill="white" transform="translate(4.2627 4.36816)"/>
</clipPath>
</defs>
</svg>
