<svg width="52" height="52" viewBox="0 0 52 52" fill="none" xmlns="http://www.w3.org/2000/svg">
<circle cx="26" cy="26" r="25" stroke="#007BFC" stroke-width="2"/>
<path d="M26.5656 13.5654C20.6818 13.5654 15.8829 18.2512 15.8829 23.9963C15.8829 27.5876 17.7607 30.7775 20.6043 32.6576C15.1616 34.9393 11.3047 40.2129 11.3047 46.348H14.3569C14.3569 39.7472 19.8055 34.4271 26.5656 34.4271C33.3257 34.4271 38.7743 39.7472 38.7743 46.348H41.8264C41.8264 40.2129 37.9695 34.9393 32.5269 32.6576C35.3703 30.7775 37.2482 27.5876 37.2482 23.9963C37.2482 18.2512 32.4493 13.5654 26.5656 13.5654ZM26.5656 16.5457C30.7981 16.5457 34.196 19.8635 34.196 23.9963C34.196 28.1291 30.7981 31.4469 26.5656 31.4469C22.333 31.4469 18.9351 28.1291 18.9351 23.9963C18.9351 19.8635 22.333 16.5457 26.5656 16.5457Z" fill="#007BFC"/>
</svg>
