<svg width="44" height="44" fill="none" xmlns="http://www.w3.org/2000/svg"><path d="M19.438 24.603c1.973 1.963 4.257 3.838 5.154 2.932 1.283-1.296 2.074-2.423 4.923-.146 2.849 2.278.673 3.81-.57 5.067-1.436 1.448-6.81.101-12.137-5.197-5.328-5.3-6.713-10.675-5.277-12.124 1.244-1.256 2.757-3.447 5.05-.61 2.294 2.838 1.175 3.638-.109 4.935-.896.905.992 3.18 2.965 5.143zm2.86-9.365s-.594-.093-1.011.325c-.43.43-.448 1.17.004 1.623.267.268.644.325.644.325.735.138 1.841.372 3.02 1.552 1.177 1.18 1.41 2.289 1.548 3.025 0 0 .057.378.324.646.452.452 1.19.434 1.62.004.416-.418.324-1.014.324-1.014a7.847 7.847 0 0 0-6.472-6.486zm5.584.89c2.16 2.164 3.08 4.62 2.78 6.609 0 0-.104.63.306 1.042a1.153 1.153 0 0 0 1.628.003c.278-.279.338-.732.338-.732.248-1.72-.063-5.179-3.427-8.55-3.364-3.37-6.816-3.682-8.531-3.434 0 0-.453.06-.73.339a1.159 1.159 0 0 0 .002 1.63c.411.412 1.04.308 1.04.308 1.985-.3 4.436.622 6.594 2.785z" fill="#007BFC"/></svg>