<svg width="84" height="84" fill="none" xmlns="http://www.w3.org/2000/svg"><g filter="url(#a)"><circle cx="42" cy="42" r="30" fill="#007BFC"/></g><path d="M38.516 21.12a.727.727 0 0 0-.517.204l-2.081 2.01a.723.723 0 0 0 1.005 1.04l2.081-2.011a.723.723 0 0 0-.488-1.243zm-9.005 2.807c-1.587 0-2.99.509-3.85 1.395l-.084.085c-1.034 1.056-3.456 3.532-3.456 8.398 0 4.176 2.482 8.212 3.959 10.248l.056.073c.034.045.093.133.18.26 4.694 6.845 10.494 11.956 16.34 14.39 5.187 2.163 7.931 2.739 9.81 2.739.793 0 1.43-.102 2.035-.232 2.694-.584 6.037-2.566 6.924-5.094.723-2.053.946-4.363.503-5.142-.294-.52-.836-.782-1.587-1.146-.164-.08-.342-.164-.534-.263-.056-.028-5.549-2.779-6.563-3.132-1.273-.485-2.403-.14-3.182.969l-.398.565c-.771 1.087-1.5 2.115-2.09 2.753-.375.404-1.02.387-1.488.192l-.302-.124c-1.262-.514-3.888-1.582-7.136-4.49-2.598-2.327-4.461-5.278-5.139-6.43-.282-.486-.164-.66.32-1.231.259-.325.513-.596.767-.867.212-.223.42-.446.633-.695l.099-.11c.426-.5.734-.858 1.05-1.533.53-1.04.037-2.073-.124-2.415-.161-.336-1.277-3.058-2.09-5.046l-.825-2.01-.002-.003c-.768-1.852-1.536-2.016-2.694-2.064a18.93 18.93 0 0 0-1.133-.04zm13.737 1.119a.77.77 0 0 0-.282.053l-4.021 1.624a.722.722 0 0 0-.398.943.72.72 0 0 0 .94.398l4.021-1.623a.724.724 0 0 0-.26-1.395zm-13.48.333c.285.005.553.017.804.03.794.035.96.04 1.43 1.173l.824 2.01c1.1 2.691 1.956 4.775 2.12 5.12.246.514.288.852.136 1.157-.246.52-.45.755-.85 1.223l-.034.043-4.43-10.756zm-1.483.13c.011.048.008.096.028.14l4.804 11.666c-.139.155-.28.319-.43.503-.46.544-1.234 1.457-.429 2.849.887 1.513 2.773 4.408 5.424 6.782 3.434 3.076 6.323 4.25 7.554 4.75l.291.122c1.138.474 2.358.262 3.109-.545.415-.45.875-1.054 1.355-1.715l10.237 5.117c-.051.175-.102.35-.167.534-.678 1.929-3.572 3.66-5.865 4.157-1.437.307-3.411.73-10.984-2.429-5.589-2.33-11.166-7.254-15.7-13.87a23.287 23.287 0 0 0-.213-.303l-.048-.067c-1.375-1.892-3.685-5.628-3.685-9.398 0-4.275 2.056-6.376 3.044-7.384l.088-.09c.367-.379.926-.661 1.587-.82zm11.383 5.65a.723.723 0 1 0 0 1.446h2.891a.722.722 0 1 0 0-1.446h-2.891zm-8.771 10.595a.721.721 0 0 0-.528 1.081c.237.407.66 1.028 1.135 1.666a.72.72 0 0 0 .582.291.72.72 0 0 0 .579-1.152 19.77 19.77 0 0 1-1.05-1.536.717.717 0 0 0-.718-.35zm3.19 4.007a.72.72 0 0 0-.584 1.2 31.198 31.198 0 0 0 2.536 2.564c1.985 1.779 3.982 3.19 5.936 4.196a.73.73 0 0 0 .33.08.714.714 0 0 0 .641-.393.717.717 0 0 0-.308-.972c-1.846-.951-3.741-2.293-5.636-3.987a30.134 30.134 0 0 1-2.417-2.448.72.72 0 0 0-.497-.24zm17.994 1.98c.198-.015.415.028.666.12.777.272 5.03 2.376 6.405 3.07.2.1.387.19.559.274.395.19.887.427.943.52.076.206.096.965-.079 2.01l-9.728-4.865.398-.56c.249-.355.511-.541.836-.57z" fill="#FEFEFE"/><defs><filter id="a" x=".434" y=".434" width="83.132" height="83.132" filterUnits="userSpaceOnUse" color-interpolation-filters="sRGB"><feFlood flood-opacity="0" result="BackgroundImageFix"/><feColorMatrix in="SourceAlpha" values="0 0 0 0 0 0 0 0 0 0 0 0 0 0 0 0 0 0 127 0" result="hardAlpha"/><feMorphology radius="5.783" operator="dilate" in="SourceAlpha" result="effect1_dropShadow_662_21488"/><feOffset/><feGaussianBlur stdDeviation="2.892"/><feComposite in2="hardAlpha" operator="out"/><feColorMatrix values="0 0 0 0 1 0 0 0 0 1 0 0 0 0 1 0 0 0 1 0"/><feBlend in2="BackgroundImageFix" result="effect1_dropShadow_662_21488"/><feBlend in="SourceGraphic" in2="effect1_dropShadow_662_21488" result="shape"/></filter></defs></svg>