<svg width="42" height="40" viewBox="0 0 42 40" fill="none" xmlns="http://www.w3.org/2000/svg">
<path d="M11.6838 0.174805C5.67145 0.174805 0.783203 5.76192 0.783203 12.4908C0.783203 14.8387 1.72566 16.8721 2.59997 18.341C3.47429 19.8099 4.37132 20.7528 4.37132 20.7528L20.0863 38.5597L21.131 39.74L22.1757 38.5597L37.8907 20.7528C37.8907 20.7528 41.4789 17.1799 41.4789 12.4908C41.4789 5.76192 36.5905 0.174805 30.5782 0.174805C25.5878 0.174805 22.3744 3.56812 21.131 4.99857C19.8877 3.56812 16.6743 0.174805 11.6838 0.174805ZM11.6838 3.45908C16.027 3.45908 20.041 8.23155 20.041 8.23155L21.131 9.61709L22.2211 8.23155C22.2211 8.23155 26.235 3.45908 30.5782 3.45908C35.0009 3.45908 38.572 7.55801 38.572 12.4908C38.572 15.0245 35.847 18.4437 35.847 18.4437L21.131 35.0702L6.41519 18.4437C6.41519 18.4437 5.71119 17.6802 5.0072 16.4935C4.3032 15.3068 3.69004 13.7609 3.69004 12.4908C3.69004 7.55801 7.26112 3.45908 11.6838 3.45908Z" fill="#007BFC"/>
</svg>
