<svg width="51" height="51" fill="none" xmlns="http://www.w3.org/2000/svg"><path d="M25.83 13.293c3.99 0 4.45.023 6.032.092 1.444.069 2.247.298 2.774.504a4.762 4.762 0 0 1 1.72 1.124 4.574 4.574 0 0 1 1.124 1.72c.207.527.459 1.307.505 2.775.068 1.582.091 2.041.091 6.031 0 3.99-.023 4.45-.091 6.032-.07 1.445-.298 2.247-.505 2.775a4.762 4.762 0 0 1-1.124 1.72 4.575 4.575 0 0 1-1.72 1.124c-.527.206-1.307.458-2.775.504-1.582.069-2.04.092-6.031.092-3.99 0-4.45-.023-6.031-.092-1.445-.069-2.248-.298-2.775-.504a4.762 4.762 0 0 1-1.72-1.124 4.573 4.573 0 0 1-1.124-1.72c-.207-.528-.459-1.307-.505-2.775-.069-1.583-.091-2.041-.091-6.032 0-3.99.023-4.449.091-6.031.07-1.445.298-2.247.505-2.775a4.761 4.761 0 0 1 1.124-1.72 4.575 4.575 0 0 1 1.72-1.124c.527-.206 1.307-.458 2.774-.504 1.583-.069 2.042-.092 6.032-.092zm0-2.683c-4.06 0-4.564.023-6.146.092-1.582.068-2.683.32-3.624.688-.986.39-1.811.894-2.637 1.72-.825.825-1.33 1.65-1.72 2.637-.367.94-.62 2.041-.688 3.623-.069 1.583-.092 2.11-.092 6.146 0 4.06.023 4.564.092 6.147.069 1.582.321 2.683.688 3.623.39.986.895 1.812 1.72 2.637.826.826 1.651 1.33 2.637 1.72.94.367 2.042.62 3.624.688 1.582.07 2.11.092 6.146.092 4.06 0 4.564-.023 6.146-.092 1.583-.068 2.683-.32 3.624-.688.986-.39 1.811-.894 2.637-1.72.825-.825 1.33-1.65 1.72-2.637.367-.94.62-2.041.688-3.623.069-1.583.092-2.11.092-6.146 0-4.037-.023-4.564-.092-6.147-.069-1.582-.321-2.683-.688-3.623-.39-.986-.895-1.812-1.72-2.637-.826-.826-1.651-1.33-2.637-1.72-.94-.367-2.041-.62-3.624-.688-1.582-.07-2.087-.092-6.146-.092z" fill="#2963AD"/><path d="M25.83 17.88a7.659 7.659 0 0 0-7.66 7.66c0 4.219 3.44 7.659 7.66 7.659 4.243 0 7.66-3.44 7.66-7.66 0-4.22-3.417-7.66-7.66-7.66zm0 12.636a4.972 4.972 0 0 1-4.976-4.977 4.972 4.972 0 0 1 4.976-4.976 4.972 4.972 0 0 1 4.977 4.976 4.972 4.972 0 0 1-4.977 4.977zM33.788 19.348a1.789 1.789 0 1 0 0-3.578 1.789 1.789 0 0 0 0 3.578z" fill="#2963AD"/></svg>