<svg width="150" height="35" viewBox="0 0 150 35" fill="none" xmlns="http://www.w3.org/2000/svg">
<path d="M39.0132 10.7582V34.235H48.9672C60.4599 34.1393 66.1823 25.8197 66.1823 17.5C66.1823 9.18033 60.4599 0.860656 48.9672 0.765026H39.0132V6.12022H44.7836L39.0132 10.7582ZM48.7267 6.12022C63.9703 6.12022 63.9222 28.832 48.7267 28.832H44.7836V6.12022H48.7267Z" fill="#007BFC"/>
<path d="M88.2402 0C83.1911 0 78.1901 1.96038 74.8721 5.88115L78.8633 10.0888C81.1234 7.21995 84.6818 5.78552 88.2402 5.78552C94.0587 5.78552 99.9253 9.65847 99.9253 17.5C99.9253 25.3415 94.0587 29.2145 88.2402 29.2145C82.3736 29.2145 76.507 25.3415 76.507 17.5C76.507 14.7746 77.2283 12.5273 78.4305 10.7582H71.9869C71.2656 12.7186 70.8809 14.9658 70.8809 17.5C70.8809 29.1667 79.5365 35 88.2402 35C96.8958 35 105.551 29.1667 105.551 17.5C105.551 5.83333 96.8958 0 88.2402 0Z" fill="#007BFC"/>
<path d="M110.569 34.235H116.243L119.224 15.2527L129.323 34.235H131.246L141.344 15.1093L144.326 34.235H150L144.951 0.765026H143.027L130.284 24.8156L117.541 0.765026H111.53L117.541 12.097H113.935L110.569 34.235Z" fill="#007BFC"/>
<path fill-rule="evenodd" clip-rule="evenodd" d="M-0.000244141 34.0278H25.4958C30.6259 34.0278 34.7846 29.8927 34.7846 24.7917C34.7846 21.8279 33.3806 19.19 31.1978 17.5C33.3806 15.81 34.7846 13.1722 34.7846 10.2083C34.7846 5.10737 30.6259 0.972222 25.4958 0.972222H19.1932L16.4352 5.72222H25.4958C28.028 5.72222 30.0346 7.75615 30.0346 10.2083C30.0346 12.6605 28.028 14.6944 25.4958 14.6944H11.2255L7.96746 20.3056H25.4958C28.028 20.3056 30.0346 22.3395 30.0346 24.7917C30.0346 27.2439 28.028 29.2778 25.4958 29.2778H2.75781L-0.000244141 34.0278Z" fill="#AEB3BF"/>
</svg>
