<svg width="50" height="51" fill="none" xmlns="http://www.w3.org/2000/svg"><path fill-rule="evenodd" clip-rule="evenodd" d="M25.19 10.61c-8.004 0-14.517 6.49-14.517 14.517 0 2.752.757 5.297 2.087 7.499L10.145 40.4l8.027-2.568a14.52 14.52 0 0 0 7.017 1.812c8.004 0 14.517-6.49 14.517-14.517S33.216 10.61 25.19 10.61zm0 26.58c-2.454 0-4.748-.734-6.651-1.996l-4.633 1.491 1.514-4.495a12.053 12.053 0 0 1-2.293-7.086c0-6.65 5.412-12.086 12.085-12.086 6.651 0 12.086 5.412 12.086 12.086-.023 6.673-5.435 12.086-12.109 12.086zM32 28.406c-.366-.206-2.155-1.17-2.476-1.307-.344-.138-.573-.207-.849.16-.252.367-1.009 1.17-1.215 1.4-.23.229-.436.252-.803.068-.367-.206-1.536-.642-2.912-1.95-1.055-1.031-1.766-2.27-1.973-2.637-.206-.39 0-.573.184-.756.183-.16.39-.413.573-.62.184-.206.253-.366.39-.596.138-.252.069-.458 0-.642-.092-.183-.757-2.04-1.032-2.798-.275-.757-.596-.642-.803-.642-.206 0-.458-.046-.71-.046a1.4 1.4 0 0 0-1.01.436c-.344.367-1.353 1.216-1.421 3.05-.07 1.812 1.192 3.624 1.376 3.876.183.252 2.408 4.197 6.123 5.825 3.715 1.628 3.738 1.124 4.403 1.1.688-.045 2.224-.825 2.569-1.673.343-.849.366-1.606.275-1.743-.092-.207-.321-.299-.688-.505z" fill="#2963AD"/></svg>