<svg width="21" height="17" viewBox="0 0 21 17" fill="none" xmlns="http://www.w3.org/2000/svg">
<path d="M19.8719 16.9999C19.668 16.9997 19.4725 16.9156 19.3283 16.7662L16.9897 14.3436H7.05053C6.84651 14.3436 6.65084 14.2597 6.50657 14.1102C6.3623 13.9608 6.28125 13.7581 6.28125 13.5467C6.28125 13.3354 6.3623 13.1327 6.50657 12.9833C6.65084 12.8338 6.84651 12.7499 7.05053 12.7499H17.3077C17.5116 12.75 17.7072 12.8341 17.8513 12.9836L19.1027 14.2799V6.10914C19.1027 5.89779 19.1837 5.6951 19.328 5.54566C19.4723 5.39621 19.6679 5.31226 19.8719 5.31226C20.076 5.31226 20.2716 5.39621 20.4159 5.54566C20.5602 5.6951 20.6412 5.89779 20.6412 6.10914V16.203C20.6412 16.3605 20.5961 16.5144 20.5117 16.6454C20.4272 16.7763 20.3073 16.8784 20.1668 16.9388C20.0736 16.9799 19.9733 17.0007 19.8719 16.9999V16.9999Z" fill="white"/>
<path d="M1.31675 13.2941L1.31676 13.2941L1.3125 13.2922C1.2653 13.2719 1.22209 13.2364 1.19041 13.1872C1.15864 13.1379 1.14067 13.0783 1.14062 13.0158C1.14062 13.0157 1.14062 13.0157 1.14062 13.0157L1.14062 2.39066C1.14062 1.88365 1.33522 1.4008 1.67631 1.04748C2.01681 0.694752 2.47481 0.5 2.94848 0.5H15.257C15.7307 0.5 16.1887 0.694752 16.5292 1.04748C16.8703 1.4008 17.0649 1.88365 17.0649 2.39066V8.76574C17.0649 9.27275 16.8703 9.7556 16.5292 10.1089C16.1887 10.4616 15.7307 10.6564 15.257 10.6564H4.29216H4.07988L3.93244 10.8091L1.59381 13.2317L1.59359 13.2319C1.54167 13.2857 1.47505 13.3126 1.40945 13.3127L1.40595 13.3127C1.37586 13.3129 1.34555 13.3068 1.31675 13.2941ZM4.48705 8.73448H13.7185C14.0609 8.73448 14.3856 8.5934 14.6222 8.34835C14.8582 8.10389 14.9878 7.77598 14.9878 7.4376C14.9878 7.09922 14.8582 6.7713 14.6222 6.52685C14.3856 6.28179 14.0609 6.14071 13.7185 6.14071H4.48705C4.14461 6.14071 3.81992 6.28179 3.58335 6.52685C3.34736 6.7713 3.21776 7.09922 3.21776 7.4376C3.21776 7.77598 3.34736 8.10389 3.58335 8.34835C3.81992 8.5934 4.14461 8.73448 4.48705 8.73448ZM4.48705 5.01568H13.7185C14.0609 5.01568 14.3856 4.87461 14.6222 4.62955C14.8582 4.38509 14.9878 4.05718 14.9878 3.7188C14.9878 3.38042 14.8582 3.0525 14.6222 2.80805C14.3856 2.56299 14.0609 2.42191 13.7185 2.42191H4.48705C4.14461 2.42191 3.81992 2.56299 3.58335 2.80805C3.34736 3.0525 3.21776 3.38042 3.21776 3.7188C3.21776 4.05718 3.34736 4.38509 3.58335 4.62955C3.81992 4.87461 4.14461 5.01568 4.48705 5.01568Z" stroke="white"/>
</svg>
