<svg width="21" height="16" viewBox="0 0 21 16" fill="none" xmlns="http://www.w3.org/2000/svg">
<path d="M12.9844 0.00032552C12.5684 0.00325552 12.1553 0.0237653 11.7188 0.140955C11.2822 0.258145 10.8457 0.445646 10.3828 0.750326C9.8086 0.413415 9.252 0.135095 8.7188 0.0706452C8.05664 -0.0113848 7.44141 0.0325553 6.72656 0.0472053C5.87988 0.0647853 5.32617 0.498376 4.42969 0.844076C3.5332 1.18979 2.37891 1.52377 0.75 1.52377H0V8.74249L0.42188 8.95349L1.80469 9.63319L6.72656 15.1175L6.75 15.141C7.3125 15.6976 8.07129 15.8353 8.7422 15.7972C9.4131 15.7591 10.043 15.5628 10.5469 15.2582C11.6543 14.5902 14.6719 12.4925 14.6719 12.4925L14.7422 12.4457L14.7891 12.3988C15.1465 12.0443 15.3252 11.6107 15.4453 11.1566L18.3281 9.70349L20.4844 8.97689L21 8.81279V1.52377H20.25C18.624 1.52377 17.4668 1.17221 16.5703 0.820645C15.6738 0.469075 15.1289 0.0413454 14.2734 0.0237654C13.8164 0.0149754 13.4004 -0.00260448 12.9844 0.00032552ZM7.78125 1.52377C8.06836 1.51791 8.30859 1.52084 8.5312 1.54721C8.7275 1.57065 8.9502 1.73764 9.1406 1.80502C9.0645 1.87533 9.0088 1.91635 8.9297 1.99252C8.9121 2.0101 8.9004 2.02182 8.8828 2.0394L4.78125 5.43779L4.14844 5.95349L4.71094 6.53939C4.71094 6.53939 5.25293 7.12529 6.09375 7.52379C6.93457 7.92219 8.23242 8.14779 9.3984 7.33629L9.4453 7.28939L10.8984 6.09409L13.6641 9.49249L13.6875 9.53939L13.7109 9.56279C14.2061 10.0521 14.1943 10.8226 13.7109 11.3207C13.7051 11.3265 13.7168 11.3382 13.7109 11.3441C13.7051 11.347 13.6055 11.4056 13.5938 11.4144L12.6094 10.0785L11.3906 10.9691L12.3516 12.2582C11.9619 12.5218 11.7861 12.6595 11.3672 12.9378L10.3594 11.5785L9.1406 12.4691L10.1016 13.7582C10.0166 13.8109 9.8408 13.9281 9.7734 13.9691C9.5361 14.1126 9.0791 14.2738 8.6719 14.2972C8.28809 14.3177 7.99512 14.2298 7.85156 14.1097L7.82812 14.0863L2.8125 8.53159L2.71875 8.41439L1.5 7.80499V2.95346C2.93262 2.85971 4.12207 2.57553 4.96875 2.25033C5.9707 1.86654 6.68555 1.55014 6.77344 1.54721C7.15723 1.53842 7.49414 1.52963 7.78125 1.52377Z" fill="white"/>
</svg>
