<svg width="26" height="17" viewBox="0 0 26 17" fill="none" xmlns="http://www.w3.org/2000/svg">
<path d="M12.5 8.5C12.5 11.3073 10.4415 13.5 8 13.5C5.5585 13.5 3.5 11.3073 3.5 8.5C3.5 5.69266 5.5585 3.5 8 3.5C10.4415 3.5 12.5 5.69266 12.5 8.5Z" stroke="white"/>
<path d="M1.03704 8.5C1.03704 12.6076 4.28711 15.9375 8.2963 15.9375V17C3.71438 17 0 13.1944 0 8.5C0 3.80558 3.71438 0 8.2963 0C12.7041 0 16.309 3.5218 16.5767 7.96875L26 8V9.03125H15.5556V8.5C15.5556 4.39238 12.3055 1.0625 8.2963 1.0625C4.28711 1.0625 1.03704 4.39238 1.03704 8.5Z" fill="#FEFEFE"/>
</svg>
