<svg width="18" height="18" viewBox="0 0 18 18" fill="none" xmlns="http://www.w3.org/2000/svg">
<path d="M3.71875 0.875C2.15722 0.875 0.875 2.15722 0.875 3.71875V6.15625C0.875 7.71777 2.15722 9 3.71875 9C5.28028 9 6.5625 7.71777 6.5625 6.15625V3.71875C6.5625 2.15722 5.28028 0.875 3.71875 0.875ZM12.8594 0.875L3.10938 17.125H5.14062L14.8906 0.875H12.8594ZM3.71875 2.5C4.40112 2.5 4.9375 3.03638 4.9375 3.71875V6.15625C4.9375 6.83864 4.40112 7.375 3.71875 7.375C3.03638 7.375 2.5 6.83864 2.5 6.15625V3.71875C2.5 3.03638 3.03638 2.5 3.71875 2.5ZM14.2813 9C12.7197 9 11.4375 10.2822 11.4375 11.8438V14.2813C11.4375 15.8428 12.7197 17.125 14.2813 17.125C15.8428 17.125 17.125 15.8428 17.125 14.2813V11.8438C17.125 10.2822 15.8428 9 14.2813 9ZM14.2813 10.625C14.9636 10.625 15.5 11.1614 15.5 11.8438V14.2813C15.5 14.9636 14.9636 15.5 14.2813 15.5C13.5989 15.5 13.0625 14.9636 13.0625 14.2813V11.8438C13.0625 11.1614 13.5989 10.625 14.2813 10.625Z" fill="white"/>
</svg>
