<svg width="17" height="17" viewBox="0 0 17 17" fill="none" xmlns="http://www.w3.org/2000/svg">
<path d="M2.84375 0C1.28222 0 0 1.28222 0 2.84375V5.28125C0 6.84277 1.28222 8.125 2.84375 8.125C4.40528 8.125 5.6875 6.84277 5.6875 5.28125V2.84375C5.6875 1.28222 4.40528 0 2.84375 0ZM11.9844 0L2.23438 16.25H4.26562L14.0156 0H11.9844ZM13.4063 8.125C11.8447 8.125 10.5625 9.40723 10.5625 10.9688V13.4063C10.5625 14.9678 11.8447 16.25 13.4063 16.25C14.9678 16.25 16.25 14.9678 16.25 13.4063V10.9688C16.25 9.40723 14.9678 8.125 13.4063 8.125Z" fill="white"/>
</svg>
