<svg width="28" height="28" viewBox="0 0 28 28" fill="none" xmlns="http://www.w3.org/2000/svg">
<path d="M14 0.1875C6.38403 0.1875 0.1875 6.38403 0.1875 14C0.1875 21.616 6.38403 27.8125 14 27.8125C21.616 27.8125 27.8125 21.616 27.8125 14C27.8125 6.38403 21.616 0.1875 14 0.1875ZM14 2.3125C20.4664 2.3125 25.6875 7.5337 25.6875 14C25.6875 20.4664 20.4664 25.6875 14 25.6875C7.5337 25.6875 2.3125 20.4664 2.3125 14C2.3125 7.5337 7.5337 2.3125 14 2.3125ZM9.98242 8.45508L8.45508 9.98242L12.4727 14L8.45508 18.0175L9.98242 19.545L14 15.5273L18.0175 19.545L19.545 18.0175L15.5273 14L19.545 9.98242L18.0175 8.45508L14 12.4727L9.98242 8.45508Z" fill="#C4C4C4"/>
</svg>
