<svg width="21" height="19" viewBox="0 0 21 19" fill="none" xmlns="http://www.w3.org/2000/svg">
<path d="M5.625 0C2.52246 0 0 2.55176 0 5.625C0 6.6973 0.48633 7.626 0.9375 8.2969C1.38867 8.9678 1.85156 9.3984 1.85156 9.3984L9.9609 17.5312L10.5 18.0703L11.0391 17.5312L19.1484 9.3984C19.1484 9.3984 21 7.7666 21 5.625C21 2.55176 18.4775 0 15.375 0C12.7998 0 11.1416 1.5498 10.5 2.20312C9.8584 1.5498 8.2002 0 5.625 0ZM5.625 1.5C7.86621 1.5 9.9375 3.67969 9.9375 3.67969L10.5 4.3125L11.0625 3.67969C11.0625 3.67969 13.1338 1.5 15.375 1.5C17.6572 1.5 19.5 3.37207 19.5 5.625C19.5 6.7822 18.0938 8.3438 18.0938 8.3438L10.5 15.9375L2.90625 8.3438C2.90625 8.3438 2.54297 7.9951 2.17969 7.4531C1.81641 6.9111 1.5 6.20508 1.5 5.625C1.5 3.37207 3.34277 1.5 5.625 1.5Z" fill="white"/>
</svg>
