<svg width="22" height="17" viewBox="0 0 22 17" fill="none" xmlns="http://www.w3.org/2000/svg">
<path d="M13.4844 0.226644C13.0684 0.229574 12.6553 0.250084 12.2188 0.367274C11.7822 0.484464 11.3457 0.671964 10.8828 0.976644C10.3086 0.639734 9.752 0.361414 9.2188 0.296964C8.55664 0.214934 7.94141 0.258874 7.22656 0.273524C6.37988 0.291104 5.82617 0.724694 4.92969 1.07039C4.0332 1.4161 2.87891 1.75008 1.25 1.75008H0.5V8.9688L0.92188 9.1798L2.30469 9.8595L7.22656 15.3438L7.25 15.3673C7.8125 15.9239 8.57129 16.0616 9.2422 16.0235C9.9131 15.9854 10.543 15.7891 11.0469 15.4845C12.1543 14.8165 15.1719 12.7188 15.1719 12.7188L15.2422 12.672L15.2891 12.6251C15.6465 12.2706 15.8252 11.837 15.9453 11.3829L18.8281 9.9298L20.9844 9.2032L21.5 9.0391V1.75008H20.75C19.124 1.75008 17.9668 1.39852 17.0703 1.04696C16.1738 0.695394 15.6289 0.267664 14.7734 0.250084C14.3164 0.241294 13.9004 0.223714 13.4844 0.226644ZM13.5078 1.72664C13.8447 1.72371 14.2344 1.74129 14.7266 1.75008C14.8057 1.75301 15.5264 2.06063 16.5312 2.45321C17.3809 2.78719 18.5615 3.08309 20 3.17977V7.961L18.2656 8.547H18.2188L18.1719 8.5704L15.8984 9.7188C15.7725 9.3761 15.5996 9.0597 15.3359 8.7813L15.2891 8.711L12.1016 4.79696L11.6328 4.21102L11.0469 4.67977L9.0312 6.3204C8.35449 6.7891 7.80664 6.6544 7.25 6.3907C7.08887 6.3145 7.09766 6.2911 6.96875 6.2032L10.3906 3.36727L10.4375 3.32039C11.4541 2.31258 12.0781 1.96395 12.6172 1.82039C12.8867 1.74715 13.1709 1.72957 13.5078 1.72664ZM8.28125 1.75008C8.56836 1.74422 8.80859 1.74715 9.0312 1.77352C9.2275 1.79696 9.4502 1.96395 9.6406 2.03133C9.5645 2.10164 9.5088 2.14266 9.4297 2.21883C9.4121 2.23641 9.4004 2.24813 9.3828 2.26571L5.28125 5.6641L4.64844 6.1798L5.21094 6.7657C5.21094 6.7657 5.75293 7.3516 6.59375 7.7501C7.43457 8.1485 8.73242 8.3741 9.8984 7.5626L9.9453 7.5157L11.3984 6.3204L14.1641 9.7188L14.1875 9.7657L14.2109 9.7891C14.7061 10.2784 14.6943 11.0489 14.2109 11.547C14.2051 11.5528 14.2168 11.5645 14.2109 11.5704C14.2051 11.5733 14.1055 11.6319 14.0938 11.6407L13.1094 10.3048L11.8906 11.1954L12.8516 12.4845C12.4619 12.7481 12.2861 12.8858 11.8672 13.1641L10.8594 11.8048L9.6406 12.6954L10.6016 13.9845C10.5166 14.0372 10.3408 14.1544 10.2734 14.1954C10.0361 14.3389 9.5791 14.5001 9.1719 14.5235C8.78809 14.544 8.49512 14.4561 8.35156 14.336L8.32812 14.3126L3.3125 8.7579L3.21875 8.6407L2 8.0313V3.17977C3.43262 3.08602 4.62207 2.80184 5.46875 2.47664C6.4707 2.09285 7.18555 1.77645 7.27344 1.77352C7.65723 1.76473 7.99414 1.75594 8.28125 1.75008Z" fill="white"/>
</svg>
