<svg width="21" height="16" viewBox="0 0 21 16" fill="none" xmlns="http://www.w3.org/2000/svg">
<path d="M13.4844 0.2264C13.0684 0.22933 12.6553 0.249839 12.2188 0.36703C11.7822 0.484219 11.3457 0.67172 10.8828 0.9764C10.3086 0.63949 9.752 0.361169 9.2188 0.296719C8.55664 0.214689 7.94141 0.25863 7.22656 0.27328C6.37988 0.29086 5.82617 0.72445 4.92969 1.07015C4.0332 1.41586 2.87891 1.74984 1.25 1.74984H0.5V8.96856L0.92188 9.17956L2.30469 9.85926L7.22656 15.3436L7.25 15.3671C7.8125 15.9237 8.57129 16.0614 9.2422 16.0233C9.9131 15.9852 10.543 15.7889 11.0469 15.4843C12.1543 14.8163 15.1719 12.7186 15.1719 12.7186L15.2422 12.6718L15.2891 12.6249C15.6465 12.2704 15.8252 11.8368 15.9453 11.3827L18.8281 9.92956L20.9844 9.20296L21.5 9.03886V1.74984H20.75C19.124 1.74984 17.9668 1.39828 17.0703 1.04672C16.1738 0.695149 15.6289 0.26742 14.7734 0.24984C14.3164 0.24105 13.9004 0.22347 13.4844 0.2264ZM13.5078 1.7264C13.8447 1.72347 14.2344 1.74105 14.7266 1.74984C14.8057 1.75277 15.5264 2.06039 16.5312 2.45297C17.3809 2.78695 18.5615 3.08285 20 3.17953V7.96076L18.2656 8.54676H18.2188L18.1719 8.57016L15.8984 9.71856C15.7725 9.37586 15.5996 9.05946 15.3359 8.78106L15.2891 8.71076L12.1016 4.79672L11.6328 4.21078L11.0469 4.67953L9.0312 6.32016C8.35449 6.78886 7.80664 6.65416 7.25 6.39046C7.08887 6.31426 7.09766 6.29086 6.96875 6.20296L10.3906 3.36703L10.4375 3.32015C11.4541 2.31234 12.0781 1.96371 12.6172 1.82015C12.8867 1.74691 13.1709 1.72933 13.5078 1.7264ZM8.28125 1.74984C8.56836 1.74398 8.80859 1.74691 9.0312 1.77328C9.2275 1.79672 9.4502 1.96371 9.6406 2.03109C9.5645 2.1014 9.5088 2.14242 9.4297 2.21859C9.4121 2.23617 9.4004 2.24789 9.3828 2.26547L5.28125 5.66386L4.64844 6.17956L5.21094 6.76546C5.21094 6.76546 5.75293 7.35136 6.59375 7.74986C7.43457 8.14826 8.73242 8.37386 9.8984 7.56236L9.9453 7.51546L11.3984 6.32016L14.1641 9.71856L14.1875 9.76546L14.2109 9.78886C14.7061 10.2782 14.6943 11.0487 14.2109 11.5468C14.2051 11.5526 14.2168 11.5643 14.2109 11.5702C14.2051 11.5731 14.1055 11.6317 14.0938 11.6405L13.1094 10.3046L11.8906 11.1952L12.8516 12.4843C12.4619 12.7479 12.2861 12.8856 11.8672 13.1639L10.8594 11.8046L9.6406 12.6952L10.6016 13.9843C10.5166 14.037 10.3408 14.1542 10.2734 14.1952C10.0361 14.3387 9.5791 14.4999 9.1719 14.5233C8.78809 14.5438 8.49512 14.4559 8.35156 14.3358L8.32812 14.3124L3.3125 8.75766L3.21875 8.64046L2 8.03106V3.17953C3.43262 3.08578 4.62207 2.8016 5.46875 2.4764C6.4707 2.09261 7.18555 1.77621 7.27344 1.77328C7.65723 1.76449 7.99414 1.7557 8.28125 1.74984Z" fill="white"/>
</svg>
