<svg width="18" height="18" viewBox="0 0 18 18" fill="none" xmlns="http://www.w3.org/2000/svg">
<path d="M12.75 0C11.4053 0 10.1865 0.25195 9.2344 0.72656C8.2822 1.20117 7.5 1.97461 7.5 3V6C7.5 6.09668 7.5322 6.19043 7.5469 6.28125C6.84961 6.09961 6.07617 6 5.25 6C3.90527 6 2.68652 6.25195 1.73438 6.72656C0.78223 7.2012 0 7.9746 0 9V15C0 16.0254 0.78223 16.7988 1.73438 17.2734C2.68652 17.748 3.90527 18 5.25 18C6.59473 18 7.8135 17.748 8.7656 17.2734C9.7178 16.7988 10.5 16.0254 10.5 15V14.6953C11.1885 14.877 11.9414 15 12.75 15C14.0947 15 15.3135 14.748 16.2656 14.2734C17.2178 13.7988 18 13.0254 18 12V3C18 1.97461 17.2178 1.20117 16.2656 0.72656C15.3135 0.25195 14.0947 0 12.75 0ZM12.75 1.5C13.8926 1.5 14.9092 1.74609 15.5859 2.08594C16.2627 2.42578 16.5 2.7832 16.5 3C16.5 3.2168 16.2627 3.57422 15.5859 3.91406C14.9092 4.25391 13.8926 4.5 12.75 4.5C11.6074 4.5 10.5908 4.25391 9.9141 3.91406C9.2373 3.57422 9 3.2168 9 3C9 2.7832 9.2373 2.42578 9.9141 2.08594C10.5908 1.74609 11.6074 1.5 12.75 1.5ZM9 5.13281C9.0791 5.17676 9.1523 5.23242 9.2344 5.27344C10.1865 5.74805 11.4053 6 12.75 6C14.0947 6 15.3135 5.74805 16.2656 5.27344C16.3477 5.23242 16.4209 5.17676 16.5 5.13281V6C16.5 6.2168 16.2627 6.57422 15.5859 6.91406C14.9092 7.2539 13.8926 7.5 12.75 7.5C11.6074 7.5 10.5908 7.2539 9.9141 6.91406C9.2373 6.57422 9 6.2168 9 6V5.13281ZM5.25 7.5C6.39258 7.5 7.4092 7.7461 8.0859 8.0859C8.7627 8.4258 9 8.7832 9 9C9 9.2168 8.7627 9.5742 8.0859 9.9141C7.4092 10.2539 6.39258 10.5 5.25 10.5C4.10742 10.5 3.09082 10.2539 2.41406 9.9141C1.7373 9.5742 1.5 9.2168 1.5 9C1.5 8.7832 1.7373 8.4258 2.41406 8.0859C3.09082 7.7461 4.10742 7.5 5.25 7.5ZM16.5 8.1328V9C16.5 9.2168 16.2627 9.5742 15.5859 9.9141C14.9092 10.2539 13.8926 10.5 12.75 10.5C11.8975 10.5 11.127 10.3594 10.5 10.1484V9C10.5 8.9033 10.4678 8.8096 10.4531 8.7188C11.1504 8.9004 11.9238 9 12.75 9C14.0947 9 15.3135 8.748 16.2656 8.2734C16.3477 8.2324 16.4209 8.1768 16.5 8.1328ZM1.5 11.1328C1.5791 11.1768 1.65234 11.2324 1.73438 11.2734C2.68652 11.748 3.90527 12 5.25 12C6.59473 12 7.8135 11.748 8.7656 11.2734C8.8477 11.2324 8.9209 11.1768 9 11.1328V12C9 12.2168 8.7627 12.5742 8.0859 12.9141C7.4092 13.2539 6.39258 13.5 5.25 13.5C4.10742 13.5 3.09082 13.2539 2.41406 12.9141C1.7373 12.5742 1.5 12.2168 1.5 12V11.1328ZM16.5 11.1328V12C16.5 12.2168 16.2627 12.5742 15.5859 12.9141C14.9092 13.2539 13.8926 13.5 12.75 13.5C11.8975 13.5 11.127 13.3799 10.5 13.1719V11.7188C11.1885 11.9004 11.9385 12 12.75 12C14.0947 12 15.3135 11.748 16.2656 11.2734C16.3477 11.2324 16.4209 11.1768 16.5 11.1328ZM1.5 14.1328C1.5791 14.1768 1.65234 14.2324 1.73438 14.2734C2.68652 14.748 3.90527 15 5.25 15C6.59473 15 7.8135 14.748 8.7656 14.2734C8.8477 14.2324 8.9209 14.1768 9 14.1328V15C9 15.2168 8.7627 15.5742 8.0859 15.9141C7.4092 16.2539 6.39258 16.5 5.25 16.5C4.10742 16.5 3.09082 16.2539 2.41406 15.9141C1.7373 15.5742 1.5 15.2168 1.5 15V14.1328Z" fill="white"/>
</svg>
