<svg width="24" height="24" viewBox="0 0 24 24" fill="none" xmlns="http://www.w3.org/2000/svg">
<path d="M15.75 3C14.4053 3 13.1865 3.25195 12.2344 3.72656C11.2822 4.20117 10.5 4.97461 10.5 6V9C10.5 9.09668 10.5322 9.19043 10.5469 9.28125C9.84961 9.09961 9.07617 9 8.25 9C6.90527 9 5.68652 9.25195 4.73438 9.72656C3.78223 10.2012 3 10.9746 3 12V18C3 19.0254 3.78223 19.7988 4.73438 20.2734C5.68652 20.748 6.90527 21 8.25 21C9.59473 21 10.8135 20.748 11.7656 20.2734C12.7178 19.7988 13.5 19.0254 13.5 18V17.6953C14.1885 17.877 14.9414 18 15.75 18C17.0947 18 18.3135 17.748 19.2656 17.2734C20.2178 16.7988 21 16.0254 21 15V6C21 4.97461 20.2178 4.20117 19.2656 3.72656C18.3135 3.25195 17.0947 3 15.75 3ZM15.75 4.5C16.8926 4.5 17.9092 4.74609 18.5859 5.08594C19.2627 5.42578 19.5 5.7832 19.5 6C19.5 6.2168 19.2627 6.57422 18.5859 6.91406C17.9092 7.25391 16.8926 7.5 15.75 7.5C14.6074 7.5 13.5908 7.25391 12.9141 6.91406C12.2373 6.57422 12 6.2168 12 6C12 5.7832 12.2373 5.42578 12.9141 5.08594C13.5908 4.74609 14.6074 4.5 15.75 4.5ZM12 8.13281C12.0791 8.17676 12.1523 8.23242 12.2344 8.27344C13.1865 8.74805 14.4053 9 15.75 9C17.0947 9 18.3135 8.74805 19.2656 8.27344C19.3477 8.23242 19.4209 8.17676 19.5 8.13281V9C19.5 9.2168 19.2627 9.57422 18.5859 9.91406C17.9092 10.2539 16.8926 10.5 15.75 10.5C14.6074 10.5 13.5908 10.2539 12.9141 9.91406C12.2373 9.57422 12 9.2168 12 9V8.13281ZM8.25 10.5C9.39258 10.5 10.4092 10.7461 11.0859 11.0859C11.7627 11.4258 12 11.7832 12 12C12 12.2168 11.7627 12.5742 11.0859 12.9141C10.4092 13.2539 9.39258 13.5 8.25 13.5C7.10742 13.5 6.09082 13.2539 5.41406 12.9141C4.7373 12.5742 4.5 12.2168 4.5 12C4.5 11.7832 4.7373 11.4258 5.41406 11.0859C6.09082 10.7461 7.10742 10.5 8.25 10.5ZM19.5 11.1328V12C19.5 12.2168 19.2627 12.5742 18.5859 12.9141C17.9092 13.2539 16.8926 13.5 15.75 13.5C14.8975 13.5 14.127 13.3594 13.5 13.1484V12C13.5 11.9033 13.4678 11.8096 13.4531 11.7188C14.1504 11.9004 14.9238 12 15.75 12C17.0947 12 18.3135 11.748 19.2656 11.2734C19.3477 11.2324 19.4209 11.1768 19.5 11.1328ZM4.5 14.1328C4.5791 14.1768 4.65234 14.2324 4.73438 14.2734C5.68652 14.748 6.90527 15 8.25 15C9.59473 15 10.8135 14.748 11.7656 14.2734C11.8477 14.2324 11.9209 14.1768 12 14.1328V15C12 15.2168 11.7627 15.5742 11.0859 15.9141C10.4092 16.2539 9.39258 16.5 8.25 16.5C7.10742 16.5 6.09082 16.2539 5.41406 15.9141C4.7373 15.5742 4.5 15.2168 4.5 15V14.1328ZM19.5 14.1328V15C19.5 15.2168 19.2627 15.5742 18.5859 15.9141C17.9092 16.2539 16.8926 16.5 15.75 16.5C14.8975 16.5 14.127 16.3799 13.5 16.1719V14.7188C14.1885 14.9004 14.9385 15 15.75 15C17.0947 15 18.3135 14.748 19.2656 14.2734C19.3477 14.2324 19.4209 14.1768 19.5 14.1328ZM4.5 17.1328C4.5791 17.1768 4.65234 17.2324 4.73438 17.2734C5.68652 17.748 6.90527 18 8.25 18C9.59473 18 10.8135 17.748 11.7656 17.2734C11.8477 17.2324 11.9209 17.1768 12 17.1328V18C12 18.2168 11.7627 18.5742 11.0859 18.9141C10.4092 19.2539 9.39258 19.5 8.25 19.5C7.10742 19.5 6.09082 19.2539 5.41406 18.9141C4.7373 18.5742 4.5 18.2168 4.5 18V17.1328Z" fill="white"/>
</svg>
