<svg width="22" height="22" viewBox="0 0 22 22" fill="none" xmlns="http://www.w3.org/2000/svg">
<path d="M4.29688 0.5L6.17188 1.85938C9.708 4.4082 10.7803 6.90723 11 7.46094L10.3203 8.14062V8.16406L9.8047 8.67969L1.01562 17.7969L0.5 18.3359L3.6875 21.5234L4.22656 20.9609L13.5312 11.3281L13.7656 11.0469L13.8359 11L14.5625 10.7422L14.7031 10.8828L14.4219 11.5625L14.2109 12.0312L16.6953 14.5156L21.4766 9.7344L19.3438 7.60156L18.9922 7.27344L18.5469 7.4375L17.8672 7.69531L17.7031 7.53125L17.9375 6.78125L18.0312 6.47656L17.8906 6.19531C17.8906 6.19531 17.0996 4.72754 15.3125 3.3125C13.5254 1.89746 10.6953 0.5 6.61719 0.5H4.29688ZM8.82031 2.1875C11.3457 2.5625 13.168 3.51172 14.3984 4.48438C15.7227 5.5332 16.25 6.38281 16.4141 6.66406L16.1328 7.53125L16.0156 7.95312L16.3203 8.28125L17.5156 9.4766L17.9844 9.2891L18.6406 9.0312L19.3438 9.7344L16.6953 12.3828L15.9922 11.6797L16.2734 11L16.4844 10.5312L16.1094 10.1797L15.2656 9.3359L14.9375 8.98438L14.4688 9.1484L13.1328 9.6875L12.9922 9.7344L12.4531 9.2188L11.9141 8.67969L12.7812 7.8125L12.6172 7.36719C12.6172 7.36719 11.6094 4.82129 8.82031 2.1875ZM10.8594 9.7344L11.9375 10.8125L3.66406 19.3672L2.60938 18.3125L10.8594 9.7344Z" fill="white"/>
</svg>
