<svg width="21" height="22" viewBox="0 0 21 22" fill="none" xmlns="http://www.w3.org/2000/svg">
<path d="M3.79688 0L5.67188 1.35938C9.208 3.9082 10.2803 6.40723 10.5 6.96094L9.8203 7.64062V7.66406L9.3047 8.17969L0.51562 17.2969L0 17.8359L3.1875 21.0234L3.72656 20.4609L13.0312 10.8281L13.2656 10.5469L13.3359 10.5L14.0625 10.2422L14.2031 10.3828L13.9219 11.0625L13.7109 11.5312L16.1953 14.0156L20.9766 9.2344L18.8438 7.10156L18.4922 6.77344L18.0469 6.9375L17.3672 7.19531L17.2031 7.03125L17.4375 6.28125L17.5312 5.97656L17.3906 5.69531C17.3906 5.69531 16.5996 4.22754 14.8125 2.8125C13.0254 1.39746 10.1953 0 6.11719 0H3.79688Z" fill="white"/>
</svg>
