<svg width="46" height="33" viewBox="0 0 46 33" fill="none" xmlns="http://www.w3.org/2000/svg">
<path d="M23 0.375C18.6964 0.375 14.9575 2.3872 12.2852 5.35157C12.063 5.32618 11.8662 5.25 11.625 5.25C8.05128 5.25 5.125 8.17628 5.125 11.75C2.31299 13.4638 0.25 16.3585 0.25 19.875C0.25 25.2388 4.63622 29.625 10 29.625H18.125V26.375H10C6.39454 26.375 3.5 23.4806 3.5 19.875C3.5 17.1773 5.1377 14.873 7.46093 13.8829L8.57812 13.4257L8.42579 12.207C8.39404 11.9405 8.375 11.7881 8.375 11.75C8.375 9.93457 9.80957 8.5 11.625 8.5C11.8535 8.5 12.1074 8.53174 12.3867 8.60157L13.4023 8.85546L14.0117 8.04296C16.0938 5.3706 19.3438 3.625 23 3.625C28.3257 3.625 32.7691 7.2876 34.0195 12.207L34.3243 13.4766L35.6954 13.4257C36.0381 13.4066 36.1142 13.375 36 13.375C39.6056 13.375 42.5 16.2695 42.5 19.875C42.5 23.4806 39.6056 26.375 36 26.375H27.875V29.625H36C41.3638 29.625 45.75 25.2388 45.75 19.875C45.75 14.7461 41.7066 10.6391 36.6602 10.2773C34.6734 4.5581 29.3793 0.375 23 0.375ZM23 13.375L16.5 19.875H21.375V32.875H24.625V19.875H29.5L23 13.375Z" fill="#007BFC"/>
</svg>
