<svg width="60" height="60" viewBox="0 0 60 60" fill="none" xmlns="http://www.w3.org/2000/svg">
<circle cx="30" cy="30" r="30" fill="#007BFC"/>
<path d="M26.516 9.1202C26.3297 9.11738 26.1433 9.18515 25.9993 9.32352L23.9182 11.3341C23.633 11.6108 23.6245 12.0682 23.904 12.3563C24.0452 12.5003 24.2316 12.5765 24.4236 12.5765C24.6043 12.5765 24.7851 12.5088 24.9234 12.3732L27.0046 10.3627C27.2926 10.0859 27.2982 9.62849 27.0215 9.34046C26.8831 9.19927 26.6996 9.12585 26.516 9.1202ZM17.511 11.9271C15.924 11.9271 14.5206 12.4353 13.6621 13.322L13.5774 13.4067C12.5439 14.4628 10.1211 16.9393 10.1211 21.8047C10.1211 25.9811 12.6032 30.0163 14.0801 32.0522L14.1365 32.1257C14.1704 32.1708 14.2297 32.2584 14.3173 32.3854C19.0104 39.2303 24.8105 44.3414 30.6557 46.7755C35.843 48.9385 38.5878 49.5146 40.4656 49.5146C41.2591 49.5146 41.8973 49.4129 42.5016 49.283C45.1955 48.6985 48.5388 46.7162 49.4255 44.1889C50.1484 42.136 50.3715 39.8261 49.9281 39.0468C49.6345 38.5272 49.0923 38.2646 48.3412 37.9003C48.1774 37.8213 47.9995 37.7365 47.8075 37.6377C47.751 37.6095 42.2587 34.8591 41.245 34.5061C39.9714 34.0204 38.8419 34.3649 38.0625 35.4747L37.6644 36.0394C36.8935 37.1266 36.165 38.1545 35.5748 38.7926C35.1992 39.1964 34.5554 39.1795 34.0866 38.9847L33.7845 38.8604C32.5223 38.3465 29.8961 37.2791 26.6488 34.3706C24.0509 32.0438 22.1872 29.0929 21.5095 27.9408C21.2271 27.4551 21.3457 27.28 21.8285 26.7096C22.0883 26.3849 22.3425 26.1138 22.5966 25.8427C22.8084 25.6196 23.0174 25.3966 23.2292 25.1481L23.328 25.0379C23.7544 24.5381 24.0622 24.1795 24.3784 23.5046C24.9093 22.4655 24.4151 21.4319 24.2542 21.0903C24.0932 20.7542 22.9778 18.0321 22.1646 16.0441L21.34 14.0336L21.3372 14.0308C20.5691 12.1784 19.8011 12.0146 18.6433 11.9666C18.3073 11.9468 17.9289 11.9271 17.511 11.9271ZM31.2487 13.0453C31.1555 13.0453 31.0595 13.0622 30.9664 13.0989L26.9453 14.7226C26.5725 14.8723 26.3974 15.2958 26.5471 15.6658C26.6601 15.9481 26.9311 16.1176 27.2164 16.1176C27.3067 16.1176 27.3971 16.1006 27.4874 16.0639L31.5085 14.4402C31.8784 14.2906 32.0563 13.8698 31.9067 13.4971C31.7965 13.2204 31.5311 13.0509 31.2487 13.0453ZM17.7679 13.3785C18.0531 13.3841 18.3214 13.3954 18.5727 13.4095C19.3662 13.4434 19.5328 13.4491 20.0016 14.5814L20.8261 16.592C21.9274 19.283 22.783 21.367 22.9468 21.7115C23.1924 22.2254 23.2348 22.5643 23.0823 22.8693C22.8366 23.3888 22.6333 23.6232 22.2324 24.092L22.1985 24.1343L17.7679 13.3785ZM16.2854 13.5084C16.2967 13.5564 16.2939 13.6044 16.3137 13.6496L21.117 25.3147C20.9786 25.47 20.8374 25.6338 20.6877 25.8173C20.2275 26.3623 19.4537 27.2744 20.2585 28.6665C21.1452 30.1801 23.0315 33.0745 25.683 35.4493C29.1168 38.5244 32.0055 39.6991 33.2367 40.1989L33.5275 40.3203C34.6655 40.7947 35.8854 40.5829 36.6365 39.7753C37.0516 39.3263 37.5119 38.722 37.992 38.0613L48.2282 43.178C48.1774 43.3531 48.1266 43.5281 48.0616 43.7117C47.3839 45.6403 44.4895 47.3713 42.1966 47.8683C40.7593 48.1761 38.7854 48.5997 31.212 45.4399C25.6237 43.1102 20.0467 38.1855 15.5117 31.5694C15.4044 31.4141 15.3282 31.3068 15.2999 31.2672L15.2519 31.1995C13.8767 29.3075 11.5669 25.5716 11.5669 21.8019C11.5669 17.5266 13.6226 15.4257 14.6109 14.4176L14.6985 14.3273C15.0656 13.9489 15.6247 13.6665 16.2854 13.5084ZM27.6682 19.1588C27.2672 19.1588 26.9453 19.4835 26.9453 19.8817C26.9453 20.2827 27.2672 20.6046 27.6682 20.6046H30.5597C30.9579 20.6046 31.2826 20.2827 31.2826 19.8817C31.2826 19.4835 30.9579 19.1588 30.5597 19.1588H27.6682ZM18.8974 29.7537C18.8043 29.765 18.7111 29.796 18.6264 29.8469C18.2819 30.0502 18.1661 30.4935 18.3694 30.8352C18.6066 31.2418 19.0302 31.863 19.5046 32.5012C19.6458 32.6932 19.866 32.7921 20.0863 32.7921C20.2359 32.7921 20.3856 32.7469 20.5155 32.6509C20.8374 32.4137 20.9052 31.9591 20.6651 31.64C20.0072 30.7505 19.6966 30.2394 19.6147 30.1038C19.465 29.844 19.177 29.717 18.8974 29.7537ZM22.0883 33.7606C21.902 33.7493 21.7128 33.8086 21.5659 33.9414C21.2666 34.204 21.2384 34.6614 21.5038 34.9608C22.3397 35.9039 23.1924 36.768 24.0396 37.5248C26.0247 39.3037 28.0211 40.7156 29.9752 41.7209C30.0797 41.7746 30.1955 41.8 30.3056 41.8C30.5682 41.8 30.8195 41.6588 30.9466 41.4075C31.133 41.0545 30.9918 40.6168 30.6388 40.4361C28.792 39.4845 26.8973 38.1432 25.0025 36.4489C24.1977 35.726 23.3845 34.9043 22.5853 34.0007C22.4526 33.8538 22.2719 33.7691 22.0883 33.7606ZM40.0816 35.7401C40.2792 35.726 40.4967 35.7684 40.748 35.8615C41.5245 36.1326 45.7772 38.2364 47.1523 38.931C47.3528 39.0298 47.5392 39.1202 47.7115 39.2049C48.1068 39.3941 48.5981 39.6313 48.6546 39.7245C48.7308 39.9306 48.7506 40.6902 48.5755 41.735L38.8476 36.8696L39.2457 36.3105C39.4942 35.9547 39.7568 35.7684 40.0816 35.7401Z" fill="#FEFEFE"/>
</svg>
