<svg width="15" height="25" viewBox="0 0 15 25" fill="none" xmlns="http://www.w3.org/2000/svg">
<path fill-rule="evenodd" clip-rule="evenodd" d="M4.57712 18.1679L3.76933 17.9398C2.81718 17.646 1.90686 17.2307 1.0608 16.7043C0.791445 16.5477 0.568003 16.323 0.412876 16.0528C0.257748 15.7826 0.176337 15.4763 0.176908 15.1647C0.164977 14.8316 0.248032 14.502 0.416298 14.2142C0.584565 13.9265 0.831109 13.6926 1.12728 13.5396C1.41078 13.3575 1.74067 13.2606 2.07765 13.2606C2.41463 13.2606 2.74451 13.3575 3.02802 13.5396C3.56549 13.8734 4.13951 14.1444 4.73873 14.3474C5.73264 14.6786 6.78339 14.8047 7.82743 14.7181C9.07204 14.6233 10.2752 14.2287 11.3343 13.5681C11.5821 13.4032 11.8665 13.3017 12.1627 13.2727C12.4589 13.2436 12.7577 13.2879 13.0328 13.4015C13.3079 13.5151 13.5508 13.6946 13.7402 13.9242C13.9296 14.1538 14.0596 14.4264 14.1189 14.7181C14.1901 15.0814 14.1492 15.4577 14.0015 15.7972C13.8538 16.1367 13.6064 16.4233 13.2921 16.6188C12.3602 17.2068 11.3488 17.658 10.2889 17.9588L9.7947 18.0918L9.89923 18.2059L13.1875 21.5037C13.3868 21.6939 13.5406 21.9267 13.6371 22.1847C13.7337 22.4428 13.7705 22.7193 13.7449 22.9937C13.7193 23.268 13.632 23.533 13.4893 23.7687C13.3467 24.0045 13.1525 24.2049 12.9214 24.3548C12.5617 24.5898 12.1313 24.6917 11.7045 24.6431C11.2776 24.5945 10.8811 24.3985 10.5835 24.0887L7.36176 20.8669L7.24766 20.7244L7.10514 20.8574L3.85489 24.1172C3.6674 24.3054 3.44128 24.4505 3.19217 24.5427C2.94307 24.6348 2.67691 24.6718 2.41211 24.651C2.14731 24.6302 1.89017 24.5523 1.6585 24.4224C1.42682 24.2924 1.22609 24.1137 1.07026 23.8986C0.812528 23.547 0.689932 23.1145 0.724832 22.68C0.759731 22.2455 0.949807 21.8381 1.26034 21.5322L4.55816 18.2249L4.57712 18.1679Z" fill="#007BFC"/>
<path fill-rule="evenodd" clip-rule="evenodd" d="M0.937566 6.92503C0.933799 6.10981 1.09143 5.30196 1.40138 4.54795C1.71133 3.79393 2.16745 3.10868 2.74347 2.53178C3.31948 1.95488 4.00401 1.49772 4.75755 1.18662C5.51109 0.875516 6.31871 0.71669 7.13394 0.719207C7.94971 0.719206 8.75752 0.879949 9.51108 1.19242C10.2646 1.50489 10.9492 1.96285 11.5256 2.54013C12.102 3.11741 12.5589 3.80273 12.8702 4.55676C13.1815 5.3108 13.3411 6.11877 13.3399 6.93454C13.3349 7.75363 13.1684 8.56366 12.8497 9.31824C12.5311 10.0728 12.0666 10.7572 11.483 11.332C10.8995 11.9067 10.2082 12.3607 9.44884 12.6677C8.68948 12.9748 7.87701 13.129 7.05795 13.1215C5.42855 13.099 3.87334 12.4366 2.72821 11.2772C1.58308 10.1179 0.939907 8.55458 0.937566 6.92503ZM4.59647 6.92503C4.60131 7.58909 4.86531 8.225 5.33221 8.69723C5.79911 9.16946 6.43199 9.44068 7.09594 9.45305C7.7698 9.45053 8.41522 9.18111 8.89082 8.70373C9.36642 8.22635 9.63342 7.57987 9.63341 6.90601C9.63091 6.23379 9.36279 5.58988 8.88746 5.11455C8.41213 4.63922 7.76816 4.3711 7.09594 4.36859C6.42627 4.37861 5.78773 4.65294 5.31951 5.13184C4.85129 5.61073 4.59137 6.2553 4.59647 6.92503Z" fill="#007BFC"/>
</svg>
