<svg width="22" height="23" viewBox="0 0 22 23" fill="none" xmlns="http://www.w3.org/2000/svg">
<path d="M18.9701 2.17109C18.14 1.48592 17.1651 0.998453 16.119 0.745533C13.4981 0.0499268 10.7651 -0.118074 8.0788 0.251322C6.7038 0.409778 5.37169 0.829147 4.15383 1.48685C3.4578 1.85357 2.84516 2.36031 2.35449 2.97528C1.86382 3.59025 1.50574 4.30016 1.30272 5.06025C1.00076 6.20011 0.825414 7.36973 0.779973 8.54803C0.652233 10.2858 0.793281 12.0329 1.19814 13.7276C1.39619 14.6677 1.82591 15.5434 2.44828 16.2754C3.07065 17.0073 3.86596 17.5721 4.76202 17.9187C4.97111 18.0042 5.17071 18.1183 5.37979 18.2133C5.46148 18.2429 5.53054 18.2996 5.5755 18.374C5.62046 18.4484 5.63861 18.5358 5.62689 18.6219C5.62689 19.9905 5.62689 21.3495 5.62689 22.775C6.14009 22.2808 6.48221 21.9293 6.73881 21.6346C7.4991 20.7793 8.21189 20.0665 9.00069 19.2587C9.40935 18.8405 9.23831 18.8595 9.85605 18.869C10.4738 18.8785 11.7568 18.869 12.4696 18.869C13.8558 18.7848 15.229 18.5522 16.5657 18.1753C17.4043 17.9955 18.1874 17.6168 18.8489 17.071C19.5105 16.5251 20.0312 15.8283 20.3671 15.0391C20.5538 14.5868 20.7125 14.1233 20.8423 13.6515C21.4458 10.9477 21.4458 8.1441 20.8423 5.4403C20.6177 4.16586 19.9556 3.00974 18.9701 2.17109ZM10.5308 3.82472C10.5308 3.55862 10.6923 3.46358 10.9394 3.47309C11.89 3.44756 12.833 3.64991 13.6894 4.06324C14.5459 4.47658 15.2909 5.0889 15.8623 5.84901C16.5755 6.8679 16.9722 8.07458 17.0028 9.31788C17.0028 9.49845 17.0028 9.67897 17.0028 9.85954C17.0028 10.0401 16.8983 10.2112 16.6797 10.2112C16.6324 10.2156 16.5847 10.2095 16.5401 10.1934C16.4954 10.1773 16.4549 10.1515 16.4213 10.1179C16.3877 10.0843 16.3619 10.0438 16.3458 9.99911C16.3297 9.95445 16.3237 9.90682 16.3281 9.85954C16.2744 8.97241 16.0786 8.09967 15.7483 7.27457C15.4365 6.54509 14.9501 5.9035 14.332 5.40631C13.7138 4.90912 12.9828 4.57158 12.2034 4.42346C11.7761 4.31134 11.3408 4.23191 10.9014 4.18587C10.7019 4.13835 10.5118 4.09082 10.5308 3.82472ZM12.6596 6.06758C12.2356 5.91009 11.7959 5.7986 11.3481 5.73497C11.1295 5.73497 10.9679 5.58286 11.006 5.32626C11.0102 5.27618 11.0251 5.22764 11.0496 5.1838C11.0742 5.13996 11.1079 5.10192 11.1484 5.0722C11.1889 5.04248 11.2354 5.02178 11.2846 5.01152C11.3338 5.00126 11.3846 5.00164 11.4336 5.01268C12.1159 5.02557 12.7845 5.20556 13.381 5.53694C13.9775 5.86832 14.4836 6.34097 14.8549 6.91342C15.2223 7.54509 15.4127 8.26399 15.4062 8.99467C15.4062 9.44135 15.3111 9.55548 15.0545 9.55548C14.7979 9.55548 14.7409 9.23228 14.7124 9.00419C14.6633 8.66055 14.5903 8.3208 14.4938 7.98734C14.3778 7.54017 14.1506 7.1296 13.8332 6.79393C13.5158 6.45826 13.1186 6.20838 12.6786 6.06758H12.6596ZM13.9046 8.54803C13.9117 8.64611 13.9117 8.74462 13.9046 8.8427C13.8951 8.91827 13.8577 8.98751 13.7996 9.03679C13.7415 9.08606 13.6671 9.11168 13.591 9.10872C13.5145 9.11073 13.4396 9.08631 13.379 9.03957C13.3184 8.99283 13.2758 8.92672 13.2583 8.85221C13.2583 8.73817 13.2583 8.62403 13.2013 8.51949C13.165 8.24514 13.0453 7.98867 12.8583 7.78467C12.6713 7.58067 12.4261 7.43907 12.1559 7.37909L11.9373 7.32213C11.7472 7.32213 11.5192 7.26503 11.5097 6.99892C11.5002 6.73282 11.6712 6.63776 11.9849 6.61875C12.2358 6.62669 12.482 6.68832 12.7072 6.79938C13.0495 6.95084 13.3429 7.1947 13.5544 7.50357C13.7659 7.81245 13.8871 8.17408 13.9046 8.54803ZM17.0028 14.8015C16.8202 15.2463 16.536 15.6421 16.173 15.9574C15.8099 16.2726 15.378 16.4983 14.912 16.6167C14.5692 16.7002 14.2079 16.6563 13.8951 16.4931C11.7438 15.6301 9.79116 14.3371 8.157 12.6931C6.52284 11.0492 5.24151 9.08894 4.39142 6.93245C4.26128 6.63276 4.19647 6.30877 4.20134 5.98208C4.22067 5.4044 4.44746 4.85303 4.84016 4.42891C5.23286 4.0048 5.76518 3.73627 6.33967 3.67263C6.48785 3.66637 6.63574 3.6901 6.77454 3.74235C6.91334 3.79461 7.04019 3.87439 7.14746 3.97681C7.93979 4.70228 8.58511 5.57341 9.0482 6.54276C9.17332 6.75442 9.21152 7.00632 9.15481 7.24556C9.09811 7.48481 8.95089 7.69276 8.74407 7.82574L8.516 7.99686C8.38216 8.07019 8.26427 8.16938 8.16918 8.28874C8.07408 8.4081 8.00367 8.54516 7.9621 8.692C7.92052 8.83884 7.9086 8.99249 7.927 9.14398C7.94541 9.29548 7.99382 9.44189 8.06935 9.5745C8.52556 10.6846 9.32038 11.6225 10.3407 12.2545C10.7202 12.5195 11.1365 12.7276 11.5762 12.8723C11.7575 12.9333 11.9537 12.9339 12.1353 12.8739C12.317 12.8139 12.4743 12.6966 12.5836 12.5397L12.6691 12.4256C12.7588 12.2484 12.8874 12.0936 13.0452 11.9729C13.2029 11.8523 13.3859 11.7687 13.5804 11.7285C13.775 11.6883 13.9761 11.6925 14.1688 11.7408C14.3615 11.7891 14.5408 11.8802 14.6934 12.0074C15.4103 12.4528 16.0904 12.9549 16.7272 13.5089C16.918 13.6574 17.0503 13.8685 17.1007 14.105C17.1511 14.3415 17.1164 14.5881 17.0028 14.8015Z" fill="#007BFC"/>
</svg>
