<svg width="23" height="14" viewBox="0 0 23 14" fill="none" xmlns="http://www.w3.org/2000/svg">
<path fill-rule="evenodd" clip-rule="evenodd" d="M21.7264 13.6051H18.8753C17.9249 13.6051 17.8489 12.9399 16.1762 11.3433C14.7602 9.94621 14.1519 9.8322 13.8098 9.8322C13.4677 9.8322 13.2966 10.0697 13.2966 10.5924V12.7308C13.2966 13.358 12.9355 13.6051 11.4529 13.6051C9.01045 13.6051 6.31139 12.1035 4.2586 9.31896C1.1889 5.19435 0.457118 2.10562 0.457118 1.44036C0.455725 1.35848 0.471143 1.27717 0.502421 1.20149C0.533698 1.1258 0.580176 1.05733 0.638967 1.00032C0.697757 0.943315 0.767581 0.898977 0.844192 0.870043C0.920802 0.841109 1.00254 0.828196 1.08434 0.832107H3.5743C4.23006 0.832107 4.47715 1.02222 4.70524 1.70649C5.84569 5.06129 7.87947 8.00744 8.7348 8.00744C9.05793 8.00744 9.09595 7.74134 9.09595 7.05707V3.64528C9.09595 2.00114 8.14558 1.85857 8.14558 1.25033C8.1477 1.1894 8.16259 1.12954 8.1892 1.07469C8.21581 1.01984 8.25356 0.971257 8.3001 0.931878C8.34664 0.892498 8.40089 0.863194 8.45939 0.846029C8.51789 0.828864 8.57935 0.824118 8.63979 0.832107H12.6409C13.1731 0.832107 13.2491 1.02219 13.2491 1.66844V6.29673C13.2491 6.81944 13.3631 7.01902 13.5912 7.01902C13.8193 7.01902 14.1519 6.83852 14.6746 6.2588C15.861 4.8258 16.8665 3.25213 17.6683 1.57342C17.741 1.38381 17.8724 1.22254 18.0434 1.11309C18.2144 1.00363 18.4161 0.95173 18.6187 0.965173H21.1086C21.6123 0.965173 21.8214 1.2313 21.7264 1.70649C21.4318 3.03701 18.5616 7.09513 18.5616 7.09513C18.2955 7.51329 18.1815 7.74135 18.5616 8.14051C18.9418 8.53966 19.6641 9.22393 20.1773 9.9177C21.4318 11.2482 22.2586 12.3696 22.2586 12.9969C22.2776 13.4721 22.0115 13.6051 21.7264 13.6051Z" fill="#007BFC"/>
</svg>
