<svg width="25" height="25" viewBox="0 0 25 25" fill="none" xmlns="http://www.w3.org/2000/svg">
<path fill-rule="evenodd" clip-rule="evenodd" d="M23.9 7.60008L17.3 1.10008C16.8 0.600078 16 0.400078 15.4 0.600078C14.7 0.800078 14.2 1.30008 14 2.00008L12.3 7.90008L6.7 9.40008C6 9.60008 5.4 10.1001 5.3 10.8001C5.2 11.5001 5.3 12.2001 5.8 12.7001L8.5 15.3001C8.4 15.3001 8.4 15.4001 8.3 15.4001L0.8 22.8001C0.4 23.2001 0.4 23.8001 0.8 24.2001C1.2 24.6001 1.8 24.6001 2.2 24.2001L9.7 16.8001C9.8 16.7001 9.8 16.7001 9.8 16.6001L12.3 19.1001C12.8 19.6001 13.6 19.8001 14.2 19.6001C14.9 19.4001 15.4 18.9001 15.6 18.2001L17.3 12.3001L22.9 10.8001C23.6 10.6001 24.1 10.1001 24.3 9.40008C24.6 8.80008 24.4 8.10008 23.9 7.60008ZM20.2 9.60008L15.8 10.8001L14.5 15.6001L13.9 17.8001L12.3 16.2001L9 12.9001L7.4 11.3001L9.6 10.7001L14 9.50008L15.3 4.70008L15.9 2.50008L17.5 4.10008L20.8 7.40008L22.5 9.00008L20.2 9.60008Z" fill="#4B4B4B"/>
</svg>
