<svg width="16" height="22" viewBox="0 0 16 22" fill="none" xmlns="http://www.w3.org/2000/svg">
<path d="M8 12.3468C7.69555 12.343 7.39732 12.4383 7.14544 12.6199C6.89357 12.8014 6.70015 13.0605 6.59121 13.3622C6.48228 13.6639 6.46306 13.9938 6.53615 14.3075C6.60923 14.6212 6.77111 14.9035 7 15.1166V16.5917C7 16.8732 7.10536 17.1431 7.29289 17.3421C7.48043 17.5411 7.73478 17.6529 8 17.6529C8.26522 17.6529 8.51957 17.5411 8.70711 17.3421C8.89464 17.1431 9 16.8732 9 16.5917V15.1166C9.22889 14.9035 9.39077 14.6212 9.46385 14.3075C9.53694 13.9938 9.51772 13.6639 9.40879 13.3622C9.29985 13.0605 9.10643 12.8014 8.85456 12.6199C8.60268 12.4383 8.30445 12.343 8 12.3468ZM13 8.10192V5.97947C13 4.57219 12.4732 3.22256 11.5355 2.22747C10.5979 1.23238 9.32608 0.67334 8 0.67334C6.67392 0.67334 5.40215 1.23238 4.46447 2.22747C3.52678 3.22256 3 4.57219 3 5.97947V8.10192C2.20435 8.10192 1.44129 8.43734 0.87868 9.03439C0.316071 9.63145 0 10.4412 0 11.2856V18.7142C0 19.5585 0.316071 20.3683 0.87868 20.9654C1.44129 21.5624 2.20435 21.8978 3 21.8978H13C13.7956 21.8978 14.5587 21.5624 15.1213 20.9654C15.6839 20.3683 16 19.5585 16 18.7142V11.2856C16 10.4412 15.6839 9.63145 15.1213 9.03439C14.5587 8.43734 13.7956 8.10192 13 8.10192ZM5 5.97947C5 5.1351 5.31607 4.32532 5.87868 3.72827C6.44129 3.13121 7.20435 2.79579 8 2.79579C8.79565 2.79579 9.55871 3.13121 10.1213 3.72827C10.6839 4.32532 11 5.1351 11 5.97947V8.10192H5V5.97947ZM14 18.7142C14 18.9956 13.8946 19.2656 13.7071 19.4646C13.5196 19.6636 13.2652 19.7754 13 19.7754H3C2.73478 19.7754 2.48043 19.6636 2.29289 19.4646C2.10536 19.2656 2 18.9956 2 18.7142V11.2856C2 11.0041 2.10536 10.7342 2.29289 10.5352C2.48043 10.3362 2.73478 10.2244 3 10.2244H13C13.2652 10.2244 13.5196 10.3362 13.7071 10.5352C13.8946 10.7342 14 11.0041 14 11.2856V18.7142Z" fill="#4B4B4B"/>
</svg>
